<?xml version="1.0" standalone="no"?>
<!DOCTYPE svg PUBLIC "-//W3C//DTD SVG 1.1//EN" "http://www.w3.org/Graphics/SVG/1.1/DTD/svg11.dtd" >
<svg xmlns="http://www.w3.org/2000/svg" xmlns:svg="http://www.w3.org/2000/svg" xmlns:xlink="http://www.w3.org/1999/xlink" viewBox="0 0 2048 2048"><path d="M1647.69 267.68H1681.04Q1691.13 279.74 1721.22 335.68Q1749.73 324.29 1733.58 359.15Q1724.71 441.54 1674.04 830.31Q1658 898.69 1667.41 982.64L1683.98 1029.01Q1679.79 1019.25 1677.01 1019.89Q1677.99 1213.03 1690.43 1403.66Q1696.15 1395.61 1666.02 1510.1Q1594.69 1598.59 1524.88 1761.14Q1507.46 1782.67 1489.84 1794.56Q1299.8 1698.17 1100.07 1632.14Q1082.32 1606.19 1014.25 1598.8Q995.13 1527.54 966.82 1550.89Q858.62 1611.3 857.65 1606.33Q815.78 1590.36 688.09 1485.72H700.17Q615.87 1650.75 560.72 1630.59Q525.42 1637.42 456.42 1658.64H415.13Q395.89 1606.55 321.02 1504.42Q315.21 1503.66 299.43 1470.53V1444.81Q333.91 1426.31 379.5 1349.56L482.18 1290.66Q424.6 1264.33 420.73 1239.55L312.53 1106.15L306.63 1048.36Q321.35 1027.49 431.99 966.14L455.58 962.79Q347.53 869.62 331.18 862.19Q323.15 855.69 341.33 830.38V825.05Q319.25 791.78 398.39 674.28Q431.71 592.8 463.49 604.28Q454.82 581.07 607.92 616.38Q759.64 688.03 738.42 671.98H772.82Q796.28 587.61 831.65 608.65H840.04Q886.91 599.72 894.92 651.76Q1014.09 602.25 1134.85 485.26H1203.47Q1228.61 538.52 1234.5 576.43V653.75Q1223.97 663.51 1210.24 656.51L1215.75 701.9Q1223.53 715.93 1234.85 745.98V769.31Q1295.77 776.2 1293.53 765.1Q1318.02 565.41 1352.18 573.11Q1353.55 572.68 1551.81 303.99Q1620.2 280.18 1646.62 270.27ZM1339.9 855.1H1334.74Q1328.15 844.16 1341.51 846.4H1270.33Q1220.05 841.16 1218.96 881.59L1206.3 1009.08H1178.98Q1152.26 1001.84 1164.72 996.33V899.9Q1173.27 897.54 1138.21 879.99Q1156.04 870.1 1154.07 871.01L1138.94 749.58L1137.88 739.62L1161.55 712.85L1151.14 672.99L1135.11 652.82Q1166.75 627.98 1161.81 622.12V593.92H1153.78Q1138.57 598.37 966.51 703.65Q859.65 753.61 835.03 759.45Q847.26 697.32 839.38 701.32Q779.63 787.49 773.87 781.55V821.66Q717.95 749.31 704.08 747.22Q570.88 722.59 473.41 683.55V720.36L406.88 813.65V836.76Q429.54 871.56 585.59 928.1L733.71 941.09Q714.96 981.55 704.22 997.61H729.82Q664.39 986.47 624.51 979.35H587.08Q602.59 954.85 482.58 1046.25Q394.68 1071.67 427.21 1071.14L498.26 1208.25Q636.6 1172.38 730.2 1102.39H742.44Q732.3 1129.15 756.73 1199.29H691.11Q667.5 1199.99 568.22 1296.06Q425.88 1446.46 409.87 1475.4Q473.8 1533.91 480.8 1579.06H549.37Q648.05 1449.94 741.46 1349.07H766.49L800.69 1382.28L742.9 1430.01V1441.14Q831.43 1533.63 850.75 1505.25Q955.34 1492.72 979.13 1456.24H971.35Q966.99 1464.31 1065.02 1554.56L1100.84 1518.87H1139.02V1551.48Q1116.32 1590.5 1154.74 1602.84L1465.04 1694.29Q1441.53 1702.25 1450.6 1664.34V1688.46Q1525.29 1505.58 1598.64 1363.82Q1569.97 1265.83 1570.39 1037.89L1573.47 1003.34L1583.72 961.63Q1581.15 762.43 1575.55 757.71Q1584.02 774.97 1586.99 775.96Q1642.18 419.21 1626.61 394.39H1642.92Q1413.75 627.8 1395.53 628.26Q1389.73 724.68 1350.28 855.29ZM1519.73 648.09V638.54Q1489.05 637.66 1498.28 767.03H1511.23Q1473.57 828.88 1462.05 902.5V1028.2Q1497.51 1166.71 1512.19 1363.08V1361.35Q1429.31 1462.61 1402.03 1585.67L1399.73 1580.54Q1383.87 1565.85 1266.15 1550.78Q1238.04 1530.52 1175.39 1541.08V1481.71Q1206.07 1510.87 1192.68 1489.54Q1200.95 1484.57 1373.7 1532.21Q1369.8 1477.98 1388.8 1443.99V1336.36Q1383.6 1315.85 1377.95 1331.23Q1364.78 1088.19 1453.55 703.83Q1462.04 646.48 1501.45 633.61ZM1084.03 730.14Q1071.28 750.96 1083.28 739.37Q1065.3 752.3 1067.21 764.57Q1064.24 788.98 1074.86 1023.7L1135.17 1286.03Q1108.97 1347.03 1110.77 1349.67H1078.78Q1042.95 1269.88 1034.97 1234.34Q1041.51 1242.38 1050.43 1236.91H1029.32L1061.08 1255.21H1078.15Q1040.01 1136.53 1059.64 1117.8V815.51H1049.16Q1043.4 819.85 888.33 860.43H854.23L874.17 831.21V830.3Q871.96 839.75 1077.77 748.94ZM544.14 799.46Q701.55 832.71 682.75 851.16L724.82 839.27Q693.13 880.87 574.68 861.2Q531.74 812.78 540.07 828.83V831.26Q530.93 795.75 544.89 800.96ZM781.65 876.84Q837.53 1104.92 828.61 1233.69Q829.53 1263.75 812.38 1246.88H814.39L981.61 1202.57L1023.87 1255.65V1242.52Q995.22 1242.49 969.54 1320.51Q1004.42 1318.35 1091.92 1392.71Q1085.29 1405.32 1072.74 1422.1Q1083.13 1451.23 1061.86 1462.56H1061.16Q991.49 1375.65 939.65 1366.32Q912.37 1420.05 870.9 1452.02Q847.3 1424.19 845.96 1447.64H864.66Q820.03 1416.95 816.43 1415.97L943.18 1259.77Q948.03 1267.82 976.72 1260.15V1238.37H966.81Q864.07 1288.31 814.98 1317.17Q788.53 1296.09 792.98 1278.19V1286.14Q807.31 1289.61 811.94 1239.98Q831.05 1234.82 775.4 878.01Q784.54 871.69 799.47 871.06ZM977.14 895.73H1004.65V928.2Q1007.83 965.4 978.47 955.31Q940.05 916.48 918.42 942.37Q959.58 901.36 965.17 923.63ZM1309.82 928.59Q1303.91 917.42 1293.04 944.52Q1305.14 1003.99 1302.6 987.43Q1303.35 970.31 1301.48 1000.33Q1280.16 1061.9 1292.31 1080.27Q1322.66 1110.99 1323.1 1114.08Q1332.99 1131.47 1297.25 1145.44Q1251.03 1141.03 1235.23 1094.54Q1262.92 936.86 1293.75 950.97ZM916 985.85Q954.65 1011.71 985.73 1004.02V1018.1Q962.25 1023.64 926.82 1062.24Q861.49 1020.06 874.64 1028.95Q878 1003.47 933.15 994.94ZM1168.86 989.53V1022.94Q1174.18 1037.23 1156.84 1062.49H1144.28V1026.76Q1167.2 1029.58 1189.99 983.64ZM634.94 1053.4Q627.13 1056.34 701.58 1064.1V1047.82Q670.27 1063.84 539.52 1137.83Q508 1113.29 527.36 1141.89L522.51 1091.34Q632.2 1020.9 646.85 1030.31ZM887.45 1121.31Q936.29 1096.33 996.86 1121.35V1131.09Q992.22 1123.37 920.89 1153.57Q878.09 1109.18 884.51 1101.89Q882.61 1085 882.28 1100.93ZM1173.14 1106.79H1186.82Q1195.22 1129.85 1268.15 1273.06Q1298.58 1242.85 1306.91 1211.1H1329.46Q1329.84 1296.19 1318.46 1374.79V1419.57L1293.98 1434.47L1176.48 1434.24Q1161.13 1418.96 1157.45 1442.93Q1161.42 1422.95 1141.92 1391.34L1204.79 1325.61Q1177.88 1120.98 1150.28 1131.59ZM726.21 1232.97Q722.2 1233.05 754.45 1262.59V1253.12Q558.47 1495.58 537.83 1472.38H504.32Q501.96 1502.79 478.84 1466.07V1453.4Q509.55 1455.33 653.54 1306.86Z" fill="black"></path></svg>