<svg xmlns="http://www.w3.org/2000/svg" width="200" height="200" viewBox="0 0 200 200" version="1.1">
	<path d="M 89 11.648 C 76.075 12.392, 60.420 13.271, 54.211 13.601 C 45.351 14.073, 43.146 14.471, 43.959 15.450 C 44.567 16.183, 48.814 16.963, 54.247 17.340 C 67.498 18.260, 81.376 21.408, 88.956 25.214 C 92.555 27.021, 95.838 28.650, 96.250 28.833 C 96.662 29.017, 97 28.482, 97 27.646 C 97 25.581, 86.254 20.452, 77 18.101 C 67.729 15.745, 69.089 15.341, 89 14.534 C 96.975 14.210, 106.263 13.676, 109.641 13.346 L 115.781 12.746 116.482 17.123 C 116.868 19.530, 117.869 24.301, 118.707 27.724 C 120.164 33.678, 120.017 36.969, 118.168 39.802 C 117.511 40.808, 115.950 40.289, 111.298 37.518 C 97.995 29.593, 78.680 23.145, 61.601 20.928 C 42.024 18.386, 38.823 25.493, 57.169 30.769 C 61.201 31.929, 66.750 33.533, 69.500 34.335 L 74.500 35.792 70.483 35.896 C 68.274 35.953, 59.499 36.458, 50.983 37.017 C 36.437 37.973, 24.471 37.388, 19.750 35.490 C 16.430 34.155, 17.935 37.305, 22.905 42.096 C 27.507 46.531, 31.862 48.519, 43.677 51.576 C 44.512 51.793, 44.295 53.351, 42.927 56.951 C 39.025 67.219, 40.715 78.637, 48.374 93.752 C 54.218 105.285, 51.517 107.074, 27.189 107.786 L 10.878 108.263 13.512 111.012 C 17.362 115.031, 24.735 118.731, 32.596 120.589 C 41.031 122.583, 58.382 121.960, 73.250 119.129 C 78.612 118.107, 83 117.463, 83 117.696 C 83 117.930, 81.048 122.931, 78.663 128.810 C 76.277 134.690, 74.030 140.317, 73.669 141.316 C 73.132 142.799, 72.142 141.981, 68.256 136.843 C 63.436 130.470, 57.319 126.046, 53.285 126.016 C 49.670 125.990, 44.324 131.516, 42.375 137.297 C 40.257 143.575, 40.041 157.040, 41.930 165 C 43.428 171.316, 48.032 181.359, 51.077 184.958 C 55.254 189.893, 72.437 188.518, 95.615 181.393 C 129.136 171.089, 136.222 170.706, 146.614 178.639 C 150.690 181.750, 151.834 182.151, 155.301 181.686 C 167.121 180.101, 166.191 167.690, 152.796 148.290 C 142.954 134.034, 125.003 117.017, 121.304 118.437 C 120.604 118.706, 119.558 118.042, 118.980 116.963 C 117.646 114.471, 118.879 114.409, 125.148 116.656 L 129.795 118.322 136.648 113.497 C 148.209 105.358, 162.161 93.903, 169.260 86.721 C 179.949 75.907, 182.418 68.878, 176.477 66.171 C 173.340 64.742, 161.357 64.614, 160.500 66 C 160.160 66.550, 159.053 67, 158.041 67 C 155.622 67, 154.416 61.783, 152.490 43 C 150.604 24.605, 149.432 18.940, 146.660 14.812 C 142.110 8.038, 135.640 11.238, 126.964 24.555 C 124.633 28.132, 122.598 30.932, 122.442 30.775 C 121.692 30.025, 119 16.467, 119 13.438 C 119 10.196, 118.815 10.008, 115.750 10.148 C 113.963 10.229, 101.925 10.904, 89 11.648 M 134.748 18.935 C 132.308 21.650, 128.741 26.507, 126.821 29.729 L 123.332 35.587 125.605 46.880 C 130.193 69.676, 129.703 83.347, 123.974 92.381 C 121.067 96.965, 115.011 101, 111.040 101 C 109.918 101, 109 101.491, 109 102.090 C 109 104.412, 114.612 111.043, 117 111.542 C 118.375 111.830, 121.741 112.717, 124.479 113.514 C 129.334 114.927, 129.558 114.897, 133.479 112.324 C 149.837 101.588, 173.422 80.439, 175.920 74.268 C 178.072 68.950, 177.026 68, 169.018 68 C 165.138 68, 161.079 68.558, 159.983 69.243 C 157.533 70.773, 155.078 69.491, 153.223 65.715 C 152.521 64.285, 151.252 56.452, 150.403 48.307 C 147.699 22.362, 145.425 14, 141.070 14 C 140.033 14, 137.189 16.221, 134.748 18.935 M 49.183 24.049 C 50.005 26.516, 70.402 32.184, 88.604 35.005 C 96.342 36.204, 97.816 36.787, 99.083 39.154 C 99.831 40.553, 99.709 41.878, 98.632 44.037 C 97.587 46.131, 97.497 47, 98.327 47 C 99.931 47, 115.295 44.038, 115.678 43.655 C 116.495 42.838, 100.277 34.594, 90.982 31.101 C 79.138 26.651, 68.349 24.196, 56.689 23.297 C 50.208 22.797, 48.812 22.937, 49.183 24.049 M 60 39.127 C 54.225 39.636, 43.762 39.928, 36.748 39.776 C 29.735 39.624, 24 39.725, 24.005 40 C 24.022 41.012, 30.623 44.957, 34.709 46.398 C 42.026 48.978, 53.510 50.117, 60.676 48.972 C 64.240 48.403, 72.634 48.052, 79.328 48.193 C 86.023 48.334, 92.066 48.095, 92.757 47.661 C 95.114 46.184, 97.281 40.881, 96.038 39.635 C 94.585 38.178, 74.054 37.889, 60 39.127 M 120.446 41.087 C 120.077 41.685, 120.275 42.675, 120.887 43.287 C 121.704 44.104, 122 43.815, 122 42.200 C 122 39.785, 121.481 39.413, 120.446 41.087 M 118.719 46.250 C 116.958 47.573, 103.992 74.061, 102.197 80 C 99.565 88.712, 99.745 91.233, 103.298 95.397 C 106.343 98.965, 106.925 99.237, 110.200 98.622 C 123.595 96.109, 128.384 82.053, 124.530 56.559 C 122.757 44.827, 122.119 43.695, 118.719 46.250 M 103 49.025 C 97.775 50.006, 93.299 50.852, 93.054 50.905 C 92.808 50.957, 93.992 52.462, 95.684 54.250 C 99.781 58.579, 101.284 61.599, 102.028 67 C 102.615 71.255, 102.706 71.364, 103.711 69 C 104.296 67.625, 106.850 62.273, 109.387 57.107 C 111.924 51.941, 114 47.553, 114 47.357 C 114 46.931, 114.771 46.814, 103 49.025 M 61.296 52.926 C 54.033 53.246, 47.639 53.961, 47.087 54.513 C 46.534 55.066, 45.344 58.398, 44.442 61.919 C 42.323 70.191, 43.466 76.444, 49.560 89.920 C 52.002 95.319, 54 100.655, 54 101.779 C 54 104.683, 48.791 108.691, 43.953 109.508 C 41.689 109.890, 34.866 110.495, 28.790 110.852 L 17.743 111.500 21.701 113.718 C 31.833 119.396, 47.337 120.425, 69.505 116.890 C 76.783 115.730, 83.192 114.493, 83.749 114.140 C 84.306 113.788, 86.354 109.675, 88.300 105 C 90.246 100.325, 92.549 94.829, 93.417 92.786 L 94.997 89.072 87.649 80.286 C 83.608 75.454, 79.257 70.600, 77.981 69.500 L 75.661 67.500 76.401 69.500 C 78.691 75.682, 78.996 83, 76.966 83 C 74.150 83, 68.013 69.015, 69.326 65.593 C 69.668 64.700, 71.124 63.523, 72.561 62.977 C 75.098 62.012, 87 53.328, 87 52.442 C 87 51.949, 80.777 52.066, 61.296 52.926 M 82.801 59.343 L 76.103 64.482 80.427 68.491 C 82.805 70.696, 87.357 75.561, 90.543 79.303 L 96.336 86.105 97.822 82.803 C 99.720 78.586, 99.886 65.388, 98.085 62 C 96.283 58.611, 91.869 53.977, 90.563 54.102 C 89.978 54.159, 86.486 56.517, 82.801 59.343 M 72.573 69.500 C 72.908 71.700, 73.611 74.175, 74.135 75 C 75.283 76.809, 74.216 70.571, 72.852 67.500 C 72.245 66.135, 72.157 66.769, 72.573 69.500 M 91.750 103.760 C 89.688 108.817, 88 113.148, 88 113.384 C 88 113.620, 88.787 113.615, 89.750 113.372 C 90.713 113.130, 95.906 112.385, 101.292 111.716 L 111.083 110.500 107.955 106.250 C 105.375 102.745, 104.250 102, 101.536 102 C 97.862 102, 96.358 100.687, 95.846 97.033 C 95.585 95.175, 94.574 96.837, 91.750 103.760 M 99.032 97.250 C 99.011 99.042, 99.523 100, 100.500 100 C 102.393 100, 102.403 98.915, 100.532 96.441 C 99.126 94.582, 99.062 94.616, 99.032 97.250 M 94.500 115.191 C 90.102 115.779, 87.035 116.732, 86.250 117.755 C 84.578 119.931, 84.670 121.064, 86.462 120.376 C 88.829 119.468, 92.515 124.430, 94.511 131.213 C 95.529 134.671, 96.517 137.699, 96.707 137.943 C 96.897 138.186, 99.628 135.876, 102.776 132.808 C 105.924 129.740, 110.588 125.667, 113.141 123.757 L 117.782 120.283 115.793 117.142 C 113.896 114.146, 113.518 114.006, 107.652 114.128 C 104.268 114.198, 98.350 114.677, 94.500 115.191 M 123.785 124.985 C 124.636 130.786, 115.380 161.173, 110.601 168.264 C 105.711 175.520, 100.731 170.536, 97.462 155.116 C 96.574 150.927, 95.638 146.852, 95.383 146.061 C 95.069 145.091, 91.914 147.568, 85.709 153.654 C 80.644 158.622, 75.202 163.657, 73.615 164.843 C 70.812 166.939, 65.564 167.765, 64.681 166.250 C 64.441 165.838, 65.842 161.291, 67.794 156.146 L 71.342 146.791 69.461 143.297 C 66.630 138.042, 60.450 131.429, 57.054 130.022 C 50.572 127.338, 46.227 131.483, 43.977 142.500 C 41.614 154.070, 44.656 170.007, 51.182 180.250 L 54.208 185 61.854 184.987 C 71.302 184.971, 83.032 182.534, 102.413 176.563 C 127.982 168.684, 136.674 168.490, 146.963 175.568 C 149.707 177.456, 153.088 179, 154.476 179 C 157.809 179, 161.006 175.680, 160.976 172.250 C 160.940 168.026, 156.973 159.334, 151.050 150.500 C 145.921 142.851, 126.369 122, 124.324 122 C 123.786 122, 123.544 123.343, 123.785 124.985 M 84.099 125.861 C 82.940 127.488, 80.378 133.023, 78.406 138.160 C 76.433 143.297, 73.559 150.200, 72.019 153.500 C 68.082 161.937, 67.550 164, 69.312 164 C 71.191 164, 86.682 150.451, 90.917 145.105 C 94.164 141.006, 94.181 140.924, 92.960 135.735 C 91.480 129.452, 88.930 123.783, 87.353 123.273 C 86.722 123.069, 85.258 124.234, 84.099 125.861 M 114.827 125.672 C 112.997 127.141, 108.299 131.456, 104.387 135.261 L 97.274 142.178 99.627 152.339 C 102.157 163.266, 104.350 169, 105.999 169 C 107.918 169, 110.867 162.713, 115.556 148.622 C 120.721 133.100, 122.361 123, 119.716 123 C 118.856 123, 116.656 124.202, 114.827 125.672" stroke="none" fill="black" fill-rule="evenodd"/>
</svg>