<svg xmlns="http://www.w3.org/2000/svg" width="200" height="200" viewBox="0 0 200 200" version="1.1">
	<path d="M 103.734 3.535 C 101.682 4.929, 97.820 9.179, 95.151 12.979 L 90.299 19.887 80.400 16.420 C 68.816 12.362, 65.639 12.301, 65.196 16.126 C 64.842 19.173, 69.999 24.125, 78.741 29.133 C 83.971 32.130, 83.978 32.142, 82.528 34.945 L 81.075 37.755 67.288 38.429 C 50.917 39.230, 39.442 40.605, 34.308 42.383 L 30.571 43.677 35.035 46.950 C 43.705 53.307, 55.684 56.579, 67.574 55.838 C 72.256 55.547, 73.003 55.747, 73.001 57.295 C 73 59.199, 71.331 60.988, 63.360 67.632 C 60.634 69.904, 57.328 73.791, 56.014 76.268 L 53.624 80.773 57.708 85.652 L 61.793 90.530 58.396 102.942 C 56.528 109.769, 55 115.900, 55 116.568 C 55 118.227, 49.538 118.728, 40.800 117.870 C 33.986 117.200, 33.202 117.333, 29.022 119.855 C 23.637 123.106, 20.995 127.152, 22.569 129.741 C 24.302 132.592, 30.184 134.953, 37.070 135.561 C 40.607 135.873, 44.604 136.356, 45.953 136.634 C 48.403 137.139, 48.402 137.143, 45.155 139.199 C 40.925 141.877, 41.325 144.399, 46.042 144.797 L 49.567 145.095 49.533 154.324 C 49.501 163.297, 49.611 163.747, 53.500 170.483 C 62.740 186.491, 73.988 189.489, 111.813 186.024 C 125.036 184.813, 137.008 185.007, 144.587 186.554 C 147.449 187.139, 147.909 186.816, 150.929 182.110 C 152.720 179.319, 154.413 175.338, 154.692 173.262 C 155.799 165.004, 148.585 163.734, 123.500 167.771 C 104.601 170.812, 96.975 171.344, 90.767 170.055 L 85.335 168.928 87.243 163.275 C 89.699 156.001, 88.983 152.070, 84.482 148.118 C 79.956 144.145, 74.637 142.803, 62.753 142.636 C 54.809 142.525, 53.008 142.222, 53.018 141 C 53.045 137.842, 54.713 137.130, 63.515 136.517 C 68.457 136.173, 78.575 134.954, 86 133.810 C 99.925 131.663, 106.242 131.645, 143.211 133.643 C 156.698 134.372, 164.719 133.168, 172.848 129.194 C 177.644 126.850, 187.548 119.215, 186.784 118.451 C 186.618 118.284, 180.861 117.648, 173.991 117.036 C 146.774 114.611, 139.536 111.838, 136.609 102.715 C 135.600 99.571, 138.129 90.749, 142.595 81.834 L 146.936 73.167 142.218 70.150 C 133.934 64.853, 124.868 61.111, 115.051 58.937 C 101.587 55.955, 102.093 56.209, 105.007 53.902 C 107.243 52.131, 108.737 51.965, 119.500 52.292 C 126.100 52.492, 132.287 53.007, 133.250 53.435 C 134.509 53.995, 135 53.768, 135 52.626 C 135 50.698, 132.237 49.943, 122.181 49.121 L 114.500 48.493 122.766 44.045 C 127.313 41.599, 130.872 39.126, 130.676 38.549 C 130.456 37.903, 127.280 37.607, 122.409 37.779 C 114.569 38.057, 114.526 38.045, 117.500 36.404 C 119.150 35.494, 121.227 34.116, 122.116 33.341 C 123.518 32.119, 125.565 32.389, 137.616 35.383 C 153.220 39.260, 157 40.529, 157 41.892 C 157 42.410, 154.465 45.058, 151.367 47.776 C 144.287 53.985, 145.868 55.673, 153.188 49.719 C 157.183 46.470, 158.575 44.642, 158.802 42.349 C 159.201 38.329, 156.568 37.059, 139 32.799 L 125.500 29.525 125.455 24.012 C 125.404 17.732, 121.572 8.261, 117.256 3.750 C 113.807 0.144, 108.840 0.065, 103.734 3.535 M 107.112 4.742 C 103.723 6.384, 98.225 12.258, 95.064 17.617 L 93.175 20.818 107.338 24.777 C 115.127 26.954, 121.893 28.510, 122.373 28.233 C 123.736 27.448, 122.335 18.649, 119.974 13.160 C 116.436 4.938, 112.300 2.230, 107.112 4.742 M 69.076 18.583 C 71.843 21.532, 82.942 29, 84.556 29 C 85.147 29, 86.366 27.455, 87.267 25.567 L 88.904 22.133 79.700 19.067 C 74.637 17.380, 69.630 16, 68.573 16 C 66.807 16, 66.848 16.209, 69.076 18.583 M 89.915 26.371 C 88.866 28.092, 88.006 29.789, 88.004 30.141 C 87.991 32.370, 105.539 36.497, 110.818 35.506 C 114.639 34.789, 120.472 32.138, 119.771 31.437 C 119.542 31.209, 113.160 29.271, 105.589 27.132 L 91.823 23.242 89.915 26.371 M 85.187 35.489 C 83.770 38.598, 85.010 39.019, 95.332 38.929 L 103.500 38.858 97.500 37.071 C 94.200 36.088, 90.320 34.803, 88.877 34.215 C 86.571 33.275, 86.125 33.429, 85.187 35.489 M 53 42.005 C 42.964 42.975, 36.998 44.032, 37.008 44.838 C 37.024 46.245, 45.184 50.067, 51.197 51.484 C 54.664 52.302, 61.378 52.977, 66.117 52.985 L 74.733 53 76.867 47.867 C 78.040 45.043, 79 42.343, 79 41.867 C 79 40.865, 63.963 40.945, 53 42.005 M 80.554 46.250 C 79.271 49.138, 78.362 51.654, 78.535 51.842 C 78.708 52.029, 85.442 51.433, 93.500 50.517 C 107.132 48.967, 108.649 48.579, 115.325 44.939 L 122.500 41.028 102.693 41.014 L 82.887 41 80.554 46.250 M 90 53.623 C 76.354 55.260, 76.433 55.236, 75.712 57.994 C 75.257 59.733, 75.475 60.018, 76.823 59.446 C 80.115 58.049, 94.689 57.743, 98.625 58.989 C 109.090 62.300, 114.401 69.406, 114.242 79.882 C 114.175 84.350, 114.911 88.673, 116.596 93.691 C 119.104 101.163, 122.409 119.926, 121.394 120.938 C 120.366 121.965, 102.581 121.348, 97.424 120.106 L 92.349 118.884 76.924 126.397 L 61.500 133.909 68 133.398 C 71.575 133.117, 80.125 131.958, 87 130.823 C 98.135 128.984, 101.410 128.854, 117 129.630 C 126.625 130.108, 141.025 130.499, 149 130.498 C 162.682 130.497, 163.827 130.343, 169.300 127.781 C 172.490 126.287, 176.528 124.048, 178.273 122.806 L 181.445 120.547 168.972 119.307 C 154.734 117.891, 148.054 116.509, 142.876 113.908 C 131.855 108.373, 131.029 98.498, 140.095 80.658 L 143.188 74.571 140.847 72.675 C 134.718 67.712, 121.045 62.483, 107.784 60.029 C 99.848 58.561, 97.866 56.911, 100.517 53.981 C 101.503 52.892, 102.128 52.055, 101.905 52.121 C 101.682 52.188, 96.325 52.863, 90 53.623 M 82.500 60.985 C 73.672 62.858, 73.826 62.676, 69.202 76.733 L 64.939 89.691 67.969 96.096 C 71.479 103.516, 71.845 109.102, 69.114 113.580 C 67.408 116.379, 61.778 120, 59.134 120 C 57.586 120, 56.299 122.854, 55.253 128.610 L 54.332 133.675 72.666 125.170 C 87.713 118.190, 91.328 116.109, 92.831 113.562 C 94.980 109.920, 105.079 104.181, 110.054 103.775 C 112.643 103.564, 113.510 103.922, 113.799 105.324 C 114.361 108.048, 111.549 110.543, 104.407 113.654 C 100.883 115.189, 98 116.734, 98 117.087 C 98 117.978, 106.110 119, 113.185 119 L 119.091 119 118.486 115.250 C 116.823 104.937, 114.833 95.832, 113.603 92.906 L 112.233 89.649 110.591 92.824 C 108.673 96.533, 107.741 96.653, 100.952 94.074 C 88.229 89.239, 82.571 79.992, 88.452 73.646 C 90.338 71.611, 91.854 71, 95.018 71 C 100.099 71, 102.332 72.109, 107.750 77.325 L 112 81.416 111.978 78.458 C 111.928 71.699, 107.246 65.431, 99.903 62.292 C 96.131 60.680, 87.126 60.004, 82.500 60.985 M 65.025 69.597 C 62.835 71.575, 60.090 74.737, 58.924 76.624 L 56.804 80.054 59.503 83.593 C 60.987 85.539, 62.388 86.945, 62.616 86.717 C 63.307 86.027, 69.900 66, 69.437 66 C 69.200 66, 67.214 67.618, 65.025 69.597 M 93 73.694 C 85.939 76.217, 88.935 85.402, 98.273 89.863 C 105.919 93.516, 107.529 93.550, 108.963 90.090 C 109.658 88.412, 109.968 86.008, 109.652 84.749 C 108.878 81.665, 103.245 76.018, 99.282 74.352 C 95.852 72.911, 95.341 72.857, 93 73.694 M 60.584 105.627 C 59.119 111.472, 58.149 116.483, 58.428 116.762 C 59.340 117.674, 65.044 114.775, 66.540 112.640 C 67.343 111.493, 68 108.864, 68 106.798 C 68 102.871, 65.341 95, 64.015 95 C 63.592 95, 62.049 99.782, 60.584 105.627 M 108 106.935 C 104.051 108.141, 97.490 111.705, 96.070 113.415 C 94.531 115.271, 107.721 109.569, 109.964 107.410 C 111.582 105.853, 111.562 105.848, 108 106.935 M 29.018 123.102 C 23.292 127.250, 23.634 129.559, 30.250 131.424 C 33.138 132.238, 39.119 133.201, 43.541 133.563 L 51.583 134.222 52.659 127.861 C 53.252 124.362, 53.683 121.448, 53.618 121.384 C 53.553 121.320, 48.896 121.025, 43.268 120.729 C 33.175 120.198, 32.982 120.230, 29.018 123.102 M 48.250 140.220 C 45.511 141.542, 45.318 143, 47.883 143 C 48.926 143, 50 142.107, 50.290 141 C 50.577 139.900, 50.742 139.030, 50.656 139.068 C 50.570 139.105, 49.487 139.624, 48.250 140.220 M 52.661 146.440 C 52.298 147.388, 52 151.213, 52 154.941 C 52 160.548, 52.528 162.736, 55.057 167.609 C 60.739 178.561, 68.374 183.387, 81.967 184.618 C 85.560 184.944, 97.275 184.442, 108 183.504 C 125.605 181.964, 134.301 181.981, 143.500 183.576 C 146.184 184.041, 146.790 183.632, 149.250 179.693 C 150.762 177.272, 152 173.895, 152 172.190 C 152 169.403, 151.624 169.020, 148.271 168.391 C 145.936 167.953, 137.432 168.695, 125.521 170.377 C 104.290 173.374, 90.778 173.770, 85.468 171.551 C 83.561 170.754, 82 169.967, 82.001 169.801 C 82.001 169.635, 82.901 167.133, 84.001 164.239 C 86.384 157.968, 86.479 155.827, 84.538 152.074 C 82.389 147.918, 76.376 145.934, 63.938 145.277 C 54.501 144.780, 53.249 144.909, 52.661 146.440" stroke="none" fill="black" fill-rule="evenodd"/>
</svg>