<svg xmlns="http://www.w3.org/2000/svg" width="200" height="200" viewBox="0 0 200 200" version="1.1">
	<path d="M 80.500 10.084 C 67.668 11.382, 60.778 12.794, 59.106 14.466 C 57.836 15.735, 57.998 16.049, 60.392 16.959 C 64.541 18.536, 71 18.299, 71 16.570 C 71 15.783, 69.987 14.969, 68.750 14.761 C 67.513 14.553, 70.100 13.959, 74.500 13.441 C 83.465 12.386, 131.476 12.141, 132.479 13.145 C 132.834 13.500, 130.371 18.083, 127.007 23.330 L 120.889 32.869 114.236 30.364 C 106.480 27.445, 106.560 27.487, 102 23.949 C 95.849 19.176, 84.954 13.646, 83.859 14.741 C 83.191 15.409, 85.408 17.141, 90.520 19.947 C 94.734 22.259, 97.951 24.383, 97.668 24.665 C 97.386 24.947, 92.283 24.266, 86.328 23.151 C 69.557 20.012, 60.191 18.804, 58.002 19.499 C 52.871 21.128, 57.746 24.309, 71.990 28.627 C 91.627 34.581, 107.198 36.255, 108.614 32.565 C 109.025 31.493, 109.961 31.558, 113.515 32.907 C 115.931 33.824, 118.194 34.861, 118.544 35.210 C 118.893 35.560, 117.322 38.581, 115.052 41.923 C 111.562 47.063, 110.469 48, 107.963 48 C 106.333 48, 105 47.829, 105 47.620 C 105 47.411, 107.023 44.635, 109.496 41.450 C 111.969 38.265, 113.877 35.544, 113.736 35.403 C 113.321 34.987, 64.631 36.953, 50.823 37.943 C 43.851 38.442, 37.214 39.350, 36.073 39.961 C 33.207 41.495, 33.481 43.681, 36.750 45.366 C 40.341 47.216, 59.996 52.031, 66.883 52.747 L 72.266 53.307 66.383 55.122 C 53.282 59.163, 46.779 69.464, 50.002 81.068 C 50.887 84.254, 51.769 84.977, 58.247 87.826 C 67.197 91.764, 71.566 95.081, 70.717 97.295 C 69.692 99.967, 62.814 102.813, 48.549 106.469 C 41.111 108.376, 33.642 110.651, 31.950 111.526 C 25.411 114.907, 30.376 118.596, 46.350 122.222 C 54.146 123.991, 56.868 124.217, 60.763 123.419 L 65.566 122.435 61.283 130.759 C 54.635 143.678, 55.717 147.204, 64.899 142.551 L 70 139.966 69.985 142.233 C 69.959 145.968, 68.817 146.667, 61.666 147.318 C 43.346 148.986, 41.901 160.415, 58.097 175.549 C 67.102 183.963, 79.955 190, 88.866 190 C 94.587 190, 100.434 186.543, 103.048 181.616 L 105.343 177.290 113.421 181.064 C 121.492 184.833, 133.813 188, 140.409 188 C 145.438 188, 153.920 186.047, 158.124 183.921 C 162.971 181.469, 167 176.518, 167 173.012 C 167 169.299, 162.186 165.213, 156.794 164.351 L 152.743 163.703 157.121 161.602 C 165.065 157.789, 163.247 153.940, 151.137 148.937 C 142.942 145.552, 139.684 143.320, 140.653 141.753 C 141.765 139.953, 149.679 137.027, 161.526 134.035 C 167.981 132.405, 173.453 130.881, 173.685 130.648 C 174.527 129.806, 164.339 126.897, 157.432 126.007 C 152.472 125.367, 145.913 125.525, 135.432 126.535 C 116.229 128.387, 108.437 128.368, 102.822 126.455 C 98.742 125.065, 92.004 119.642, 93.073 118.608 C 93.308 118.381, 103.625 117.669, 116 117.025 C 142.427 115.652, 156.106 113.870, 163.005 110.902 C 167.965 108.769, 168 108.722, 168.012 104.127 C 168.018 101.582, 168.878 92.525, 169.921 84 C 172.850 60.084, 173.285 51.367, 172.021 42 C 169.226 21.296, 160.458 12.616, 140.500 10.797 C 125.748 9.453, 90.837 9.038, 80.500 10.084 M 130.160 23.490 C 126.772 28.785, 124 33.456, 124 33.871 C 124 34.285, 125.350 35.622, 127 36.842 C 133.184 41.414, 130.160 45.910, 118.883 48.909 C 114.149 50.168, 112.489 51.154, 110.927 53.631 L 108.954 56.762 113.988 59.993 C 127.360 68.573, 127.156 79.549, 113.399 91.702 C 109.879 94.811, 107 98.145, 107 99.110 C 107 105.459, 125.241 99.984, 135.840 90.454 C 150.028 77.697, 149.753 59.790, 135.119 43.631 C 132.304 40.522, 130 37.806, 130 37.594 C 130 37.382, 132.137 35.835, 134.750 34.157 C 141.814 29.620, 147.239 23.700, 146.835 20.971 C 146.457 18.407, 142.778 15.393, 138.910 14.477 C 136.525 13.912, 135.832 14.625, 130.160 23.490 M 147.826 16.314 C 149.022 17.587, 150 19.836, 150 21.312 C 150 24.471, 144.691 30.741, 138.281 35.151 L 133.947 38.133 137.810 42.522 C 139.935 44.936, 143.178 49.732, 145.015 53.180 C 147.742 58.296, 148.438 60.860, 148.801 67.118 C 149.188 73.809, 148.914 75.508, 146.651 80.452 C 141.915 90.796, 130.040 100.192, 117.611 103.429 C 108.844 105.713, 104 103.933, 104 98.429 C 104 97.493, 107.111 93.837, 110.914 90.304 C 120.968 80.966, 123.152 75.042, 119.033 68.285 C 116.852 64.709, 109.494 59.596, 107.583 60.330 C 106.906 60.590, 101.998 67.774, 96.676 76.294 C 86.136 93.170, 85.605 94.999, 88.048 106 C 89.986 114.726, 90.898 116.100, 94.380 115.543 C 96.096 115.268, 107.373 114.548, 119.440 113.943 C 142.487 112.787, 155.174 111.208, 161.010 108.769 L 164.509 107.307 166.854 87.404 C 169.972 60.944, 170.539 48.919, 169.066 40.432 C 166.799 27.371, 162.415 20.598, 153.500 16.383 C 146.948 13.286, 144.958 13.262, 147.826 16.314 M 68.387 24.489 C 77.253 27.672, 96.547 32, 101.870 32 C 107.023 32, 107.233 30.397, 102.250 29.106 C 97.685 27.923, 72.230 23.332, 66 22.568 C 61.764 22.048, 61.905 22.161, 68.387 24.489 M 118.226 42.043 L 114.951 47.050 117.726 46.392 C 123.050 45.129, 127 43.091, 127 41.608 C 127 40.284, 123.411 36.971, 122.027 37.018 C 121.737 37.028, 120.027 39.289, 118.226 42.043 M 73.500 39.505 C 42.495 40.767, 35.356 41.500, 38.257 43.124 C 39.134 43.614, 45.485 45.362, 52.371 47.008 C 65.488 50.143, 76.524 50.782, 93.099 49.369 C 100.465 48.741, 100.517 48.716, 104 44.142 C 108.530 38.194, 108.597 37.974, 105.833 38.142 C 104.550 38.219, 90 38.833, 73.500 39.505 M 101.014 52.483 C 99.992 53.714, 100.238 54.140, 102.456 54.983 C 106.201 56.407, 106.536 56.314, 107.818 53.500 C 108.910 51.104, 108.818 51, 105.601 51 C 103.755 51, 101.691 51.668, 101.014 52.483 M 90 52.391 C 90 53.191, 97.141 53.581, 97.620 52.806 C 97.894 52.363, 96.291 52, 94.059 52 C 91.827 52, 90 52.176, 90 52.391 M 75 55.691 C 61.079 58.021, 51.995 65.456, 52.017 74.500 C 52.035 81.521, 52.624 82.246, 61.928 86.697 C 72.224 91.623, 75.147 94.867, 72.898 98.870 C 70.903 102.420, 64.332 105.308, 50 108.932 C 35.593 112.575, 31.564 113.993, 32.694 115.021 C 33.914 116.131, 42.667 118.787, 50.346 120.378 C 56.345 121.620, 57.848 121.609, 62.497 120.287 L 67.801 118.778 75.901 105.049 C 83.424 92.297, 84 90.923, 84 85.743 C 84 82.299, 83.542 80.014, 82.802 79.767 C 81.909 79.470, 82.068 77.654, 83.426 72.635 C 84.818 67.494, 85.633 65.978, 86.874 66.224 C 87.920 66.432, 89.642 64.754, 91.699 61.524 L 94.897 56.500 92.199 55.868 C 89.168 55.159, 78.816 55.052, 75 55.691 M 95.262 61.168 C 88.055 71.764, 86.880 74.565, 87.198 80.396 L 87.500 85.938 95.872 72.424 C 100.477 64.992, 104.076 58.742, 103.870 58.537 C 103.664 58.331, 102.306 57.864, 100.853 57.499 C 98.545 56.920, 97.835 57.386, 95.262 61.168 M 77.548 107.548 C 74.397 112.830, 72.016 117.350, 72.259 117.592 C 72.501 117.834, 76.168 117.517, 80.407 116.886 C 86.863 115.926, 88.010 115.477, 87.471 114.120 C 87.117 113.229, 86.164 109.360, 85.353 105.523 C 84.542 101.685, 83.744 98.410, 83.579 98.245 C 83.414 98.080, 80.700 102.267, 77.548 107.548 M 76.204 120.221 C 70.318 121.124, 69.738 121.455, 67.315 125.293 C 64.141 130.321, 60.023 139.045, 60.010 140.770 C 60.003 141.670, 61.156 141.451, 63.960 140.020 C 71.583 136.131, 74.144 137.843, 72.025 145.412 L 70.809 149.754 62.989 150.207 C 53.015 150.784, 49.998 152.542, 50.004 157.773 C 50.015 169.484, 73.138 187, 88.585 187 C 94.308 187, 98.517 184.835, 100.591 180.824 C 102.337 177.448, 104.126 167, 102.958 167 C 102.570 167, 100.286 167.694, 97.883 168.541 C 93.265 170.170, 85.963 170.713, 84.106 169.566 C 82.620 168.647, 82.767 165.049, 84.410 162.083 C 86.973 157.457, 96.532 148.890, 102.406 145.955 C 109.426 142.447, 112.262 142.262, 115.127 145.127 C 116.947 146.947, 117.180 148.068, 116.740 152.877 C 116.457 155.970, 114.619 162.475, 112.657 167.333 L 109.090 176.166 115.565 179.102 C 130.625 185.931, 146.214 186.764, 156.878 181.310 C 160.762 179.324, 162.767 177.603, 163.446 175.673 C 165.570 169.632, 160.233 166.536, 147.750 166.569 C 136.432 166.598, 136.309 165.014, 147.402 162.083 C 162.014 158.223, 162.290 156.357, 149.040 151.016 C 140.277 147.484, 137.680 145.290, 138.170 141.832 C 138.599 138.802, 146.403 134.783, 156.466 132.411 C 160.558 131.446, 163.697 130.319, 163.442 129.907 C 162.287 128.038, 149.207 127.869, 132.873 129.513 C 107.876 132.028, 98.598 130.403, 92.203 122.388 C 89.202 118.626, 87.818 118.439, 76.204 120.221 M 105.041 147.556 C 96.655 151.248, 86 161.771, 86 166.360 C 86 168.020, 86.511 168.174, 90.108 167.599 C 92.367 167.238, 96.739 166.055, 99.823 164.971 C 102.907 163.887, 105.559 163, 105.715 163 C 105.872 163, 106.004 165.813, 106.010 169.250 L 106.020 175.500 108.512 170.145 C 112.086 162.468, 114.173 154.647, 113.812 150.280 C 113.547 147.074, 113.120 146.465, 111 146.267 C 109.625 146.138, 106.943 146.718, 105.041 147.556" stroke="none" fill="black" fill-rule="evenodd"/>
</svg>