<svg xmlns="http://www.w3.org/2000/svg" width="200" height="200" viewBox="0 0 200 200" version="1.1">
	<path d="M 132.713 9.621 C 132.348 9.985, 114.086 11.289, 92.131 12.517 C 70.175 13.746, 51.723 15.053, 51.126 15.422 C 50.448 15.841, 50.368 16.732, 50.913 17.796 C 51.392 18.733, 52.242 20.668, 52.800 22.095 C 54.818 27.251, 67.093 33.516, 80.654 36.311 L 87.500 37.722 77.786 38.477 C 72.443 38.893, 60.406 39.057, 51.036 38.842 C 41.666 38.627, 34 38.752, 34 39.119 C 34 41.820, 54.208 42.641, 81.778 41.060 C 101.698 39.917, 106.649 40.141, 105.419 42.132 C 105.105 42.639, 101.226 44.875, 96.799 47.101 L 88.749 51.149 74.624 51.124 C 57.954 51.094, 41.627 48.864, 32.532 45.374 C 31.555 44.999, 31 45.358, 31 46.365 C 31 49.645, 54.218 53.984, 71.821 53.994 C 79.657 53.999, 82.504 54.361, 83.643 55.500 C 84.468 56.325, 86.798 57.008, 88.821 57.017 C 94.342 57.043, 105.266 59.585, 109.799 61.898 C 115.330 64.719, 118 68.399, 118 73.201 C 118 77.419, 116.574 81, 114.895 81 C 114.326 81, 111.979 79.710, 109.680 78.133 C 107.381 76.556, 102.575 73.808, 99 72.027 C 95.425 70.246, 91.375 67.743, 90 66.466 C 84.772 61.609, 77.026 58.656, 68.298 58.191 C 60.848 57.794, 59.690 57.992, 55.678 60.343 C 53.033 61.893, 50.606 64.310, 49.630 66.367 C 47.496 70.864, 47.595 81.821, 49.835 88.960 C 51.397 93.943, 52.008 94.661, 56.826 97.178 C 62.669 100.230, 62.592 100.304, 52.342 101.462 C 45.868 102.193, 36.852 105.257, 32.905 108.067 C 28.559 111.162, 29.181 114.841, 34.500 117.500 C 38.087 119.293, 40.411 119.492, 57 119.426 L 75.500 119.352 68.474 126.428 C 56.005 138.987, 56.043 142.305, 68.749 150.721 C 81.434 159.122, 84.695 164.795, 85.758 180.307 C 86.295 188.128, 86.300 188.141, 88.865 187.498 C 98.660 185.039, 108.519 177.067, 110.026 170.386 C 111.345 164.536, 109.690 158.912, 102.386 144.429 C 92.808 125.435, 92.728 119.730, 101.975 115.013 C 104.662 113.642, 107.881 113, 112.067 113 C 117.540 113, 118.132 113.192, 117.466 114.750 C 117.054 115.712, 116.507 117.723, 116.250 119.218 C 115.610 122.941, 120.341 127.564, 126.469 129.203 C 131.093 130.440, 131.132 130.485, 130.488 133.913 C 129.502 139.172, 122.306 162.176, 117.909 174.125 C 115.759 179.969, 114 185.257, 114 185.875 C 114 187.639, 116.515 187.193, 118.416 185.092 C 123.616 179.347, 138.159 176.594, 158.071 177.586 C 172.665 178.313, 176 177.628, 176 173.899 C 176 170.571, 174.152 167.922, 165.857 159.357 C 159.673 152.972, 157.110 149.378, 153.985 142.710 C 151.793 138.032, 150 133.934, 150 133.603 C 150 133.271, 152.664 133, 155.920 133 L 161.840 133 163.402 126.130 C 170.852 93.376, 172.418 57.461, 167.445 33.388 C 165.191 22.477, 160.997 9.590, 160.038 10.631 C 159.598 11.109, 156.931 22.300, 154.110 35.500 C 151.290 48.700, 148.171 62.875, 147.179 67 L 145.375 74.500 144.605 62.500 C 143.671 47.946, 143.528 46.731, 140.907 31.063 C 138.124 14.430, 135.298 7.035, 132.713 9.621 M 104.500 14.555 C 93.500 15.252, 82.250 15.908, 79.500 16.014 C 75.124 16.182, 75.851 16.441, 85.325 18.089 C 97.385 20.188, 104.937 23.044, 105.652 25.778 C 105.962 26.963, 112.018 30.415, 123.172 35.763 L 140.218 43.937 139.543 39.219 C 138.587 32.531, 134.983 14.781, 134.384 13.812 C 133.779 12.833, 130.346 12.918, 104.500 14.555 M 54.635 18.698 C 53.475 19.858, 56.291 23.229, 60.821 26.102 C 71.013 32.567, 91.597 36.811, 97.630 33.692 C 104.310 30.237, 103.885 29.570, 92.228 25.218 C 86.284 22.999, 78.738 20.712, 75.460 20.136 C 67.964 18.819, 55.383 17.950, 54.635 18.698 M 158.693 27.663 C 157.707 32.523, 154.222 48.321, 150.950 62.769 C 147.677 77.217, 145 90.682, 145 92.690 C 145 94.699, 144.385 97.053, 143.633 97.921 C 142.881 98.790, 141.513 102.650, 140.592 106.500 L 138.919 113.500 143.592 121.750 L 148.266 130 153.979 130 L 159.692 130 161.291 122.723 C 167.818 93.019, 169.393 57.572, 165.140 36.097 C 163.897 29.826, 162.342 23.374, 161.684 21.760 C 160.535 18.946, 160.413 19.187, 158.693 27.663 M 102.894 33.282 C 101.461 34.502, 99.494 35.962, 98.523 36.527 C 97.132 37.337, 97.864 37.603, 101.982 37.782 C 108.046 38.046, 109 38.470, 109 40.904 C 109 43.113, 106.767 45.130, 101.250 47.904 C 98.912 49.079, 97 50.166, 97 50.320 C 97 50.753, 103.286 50.052, 118.330 47.941 C 125.937 46.873, 132.574 46, 133.080 46 C 133.586 46, 134 45.523, 134 44.941 C 134 44.009, 107.866 30.950, 106.163 31.032 C 105.798 31.049, 104.327 32.061, 102.894 33.282 M 129.500 49.074 C 124 50.034, 114.550 51.347, 108.500 51.990 C 92.004 53.746, 91.359 54.012, 99.500 55.701 C 116.731 59.274, 124.247 68.294, 119.486 79.688 L 117.972 83.311 124.326 89.905 C 127.820 93.532, 131.216 97.509, 131.871 98.743 L 133.063 100.987 136.986 98.391 C 140.313 96.189, 141.013 95.099, 141.596 91.207 C 142.500 85.179, 141.462 49.029, 140.357 48.071 C 139.886 47.663, 135 48.114, 129.500 49.074 M 61.500 60.900 C 56.628 62.123, 54.127 63.859, 52.312 67.280 C 50.114 71.421, 50.116 79.817, 52.318 87.181 C 53.941 92.611, 54.269 92.982, 59.739 95.570 C 70.735 100.772, 87.446 99.900, 100.277 93.455 C 105.461 90.851, 113.007 85.338, 112.991 84.166 C 112.976 83.014, 96.438 73, 94.550 73 C 94.247 73, 94 74.310, 94 75.911 C 94 79.621, 89.977 83.117, 82.478 85.922 C 74.328 88.972, 73.447 88.761, 71.594 83.322 C 67.850 72.335, 70.769 66.072, 79.705 65.917 L 84.500 65.833 79.500 63.508 C 73.902 60.904, 66.027 59.763, 61.500 60.900 M 74.200 70.200 C 71.511 72.889, 73.681 85.009, 76.848 84.990 C 77.757 84.985, 80.828 83.896, 83.674 82.572 C 92.708 78.365, 94.478 72.060, 87.192 70.037 C 82.201 68.650, 75.667 68.733, 74.200 70.200 M 111.500 89.512 C 106.271 94.006, 96.472 98.797, 89.535 100.252 C 86.491 100.890, 84 101.739, 84 102.137 C 84 103.666, 88.657 103.524, 92.030 101.892 C 103.765 96.213, 116.085 95.641, 124.564 100.380 C 130.052 103.447, 130 103.436, 130 101.519 C 130 100.066, 117.364 85.964, 116.129 86.038 C 115.783 86.058, 113.700 87.622, 111.500 89.512 M 100.500 101.400 C 98.300 102.097, 94.765 103.563, 92.644 104.659 C 89.114 106.484, 88.354 106.539, 83.644 105.315 C 67.830 101.205, 44.080 103.571, 34.750 110.186 C 31.210 112.696, 31.287 113.457, 35.250 115.129 C 38.843 116.645, 71.774 117.077, 80 115.717 L 84.500 114.972 75.312 123.517 C 70.259 128.217, 65.197 133.563, 64.062 135.399 C 60.514 141.140, 61.137 142.432, 70.304 148.345 C 82.736 156.365, 86.777 163.008, 88.495 178.250 C 88.852 181.412, 89.611 184, 90.182 184 C 90.753 184, 93.893 182.575, 97.160 180.834 C 105.078 176.614, 107.509 173.104, 107.468 165.951 C 107.441 161.068, 106.539 158.618, 99.968 145.573 C 93.579 132.887, 92.500 130.004, 92.500 125.622 C 92.500 115.509, 99.971 110, 113.685 110 C 120.719 110, 121.906 109.729, 123.826 107.686 C 125.022 106.413, 126 105.041, 126 104.637 C 126 104.233, 124.088 103.034, 121.750 101.973 C 116.782 99.718, 106.675 99.445, 100.500 101.400 M 135.831 102.250 C 133.366 104.236, 133.091 106.394, 135.003 108.755 L 136.776 110.945 137.888 106.530 C 138.500 104.101, 139 101.864, 139 101.557 C 139 100.605, 137.453 100.943, 135.831 102.250 M 127.507 107.989 C 127.157 108.555, 127.558 108.723, 128.448 108.382 C 130.180 107.717, 130.497 107, 129.059 107 C 128.541 107, 127.843 107.445, 127.507 107.989 M 128 111.583 C 126.625 112.346, 124.738 112.977, 123.807 112.985 C 121.712 113.003, 119 116.717, 119 119.568 C 119 120.735, 119.810 122.423, 120.800 123.319 C 123.141 125.437, 131.168 128.262, 132.026 127.269 C 132.392 126.846, 133.416 123.866, 134.301 120.646 C 135.764 115.320, 135.768 114.576, 134.340 112.396 C 132.580 109.709, 131.603 109.584, 128 111.583 M 137.602 119.045 C 136.185 123.227, 135.265 127.932, 135.766 128.433 C 136.487 129.153, 144 129.182, 144 128.465 C 144 128.170, 142.671 125.603, 141.047 122.759 C 139.170 119.471, 137.915 118.119, 137.602 119.045 M 132.534 137.677 C 131.543 141.430, 128.092 152.532, 124.866 162.348 C 121.640 172.164, 119 180.386, 119 180.618 C 119 180.851, 120.688 180.198, 122.750 179.168 C 129.999 175.548, 135.894 174.746, 154.352 174.871 C 164.170 174.938, 172.609 174.742, 173.105 174.435 C 174.668 173.469, 172.050 169.777, 163.933 161.500 C 157.297 154.734, 155.298 151.842, 150.967 142.750 L 145.846 132 142.173 131.986 C 140.153 131.979, 137.563 131.721, 136.418 131.414 C 134.568 130.917, 134.135 131.615, 132.534 137.677" stroke="none" fill="black" fill-rule="evenodd"/>
</svg>