<svg xmlns="http://www.w3.org/2000/svg" width="200" height="200" viewBox="0 0 200 200" version="1.1">
	<path d="M 136 8.847 C 136 9.405, 137.324 15.180, 138.943 21.681 C 144.422 43.687, 146.937 64.791, 146.208 82.648 L 145.917 89.796 136.708 93.755 L 127.500 97.715 121.684 93.614 C 115.989 89.599, 115.886 89.441, 116.684 86.007 C 117.133 84.078, 117.500 78.675, 117.500 74 C 117.500 65.717, 116.904 63.502, 113.026 57.382 C 112.288 56.218, 111.966 54.530, 112.311 53.632 C 112.832 52.274, 114.604 52, 122.858 52 C 131.082 52, 133.176 51.678, 135.103 50.117 C 137.136 48.472, 137.282 47.914, 136.264 45.680 C 133.100 38.737, 109.179 25.644, 84.766 17.494 C 68.060 11.917, 61.814 10.953, 58.985 13.514 C 55.448 16.714, 56.509 21.150, 62.500 28.212 C 65.449 31.688, 65.687 31.768, 76.500 32.877 C 96.141 34.892, 106 34.106, 106 30.525 C 106 29.686, 106.283 29, 106.629 29 C 106.975 29, 111.314 31.138, 116.271 33.750 C 125.736 38.738, 134.343 45.461, 133.713 47.372 C 133.487 48.058, 129.533 48.696, 123.623 49 L 113.904 49.500 114.509 45.931 C 115.369 40.861, 112.779 37.972, 106.435 36.925 C 100.471 35.941, 64.093 37.641, 51.792 39.479 C 46.932 40.205, 41.787 41.565, 40.358 42.501 C 37.802 44.176, 37.791 44.235, 39.664 46.109 C 41.645 48.089, 51.088 50.266, 63.137 51.519 L 69.775 52.209 65.947 55.667 C 60.421 60.659, 58.602 66.848, 59.266 78.395 C 59.613 84.426, 60.659 90.015, 62.363 94.949 C 63.778 99.046, 64.838 102.443, 64.718 102.499 C 64.598 102.554, 59.141 103.352, 52.590 104.271 C 29.074 107.570, 24.398 114.661, 42.500 119.573 C 50.467 121.735, 78.324 122.671, 87.441 121.084 C 96.124 119.572, 104.249 116.503, 108.061 113.295 L 111.091 110.746 117.795 113.828 C 125.443 117.343, 134.881 120, 139.722 120 L 143.024 120 142.380 124.250 C 142.027 126.587, 141.396 130.300, 140.978 132.500 C 140.366 135.726, 140.198 135.953, 140.110 133.673 C 139.961 129.842, 135.343 125.443, 129.908 123.956 C 124.491 122.474, 65.103 124.069, 60.811 125.812 C 59.332 126.413, 57.646 127.793, 57.064 128.880 C 55.589 131.637, 59.264 135.781, 68.896 142.219 C 73.078 145.014, 76.688 147.458, 76.917 147.650 C 78.324 148.831, 75.190 148.780, 66.525 147.479 C 61.107 146.665, 56.529 146, 56.352 146 C 55.458 146, 49.904 158.466, 48.999 162.503 C 45.970 176.019, 56.323 185.272, 76.084 186.711 C 89.409 187.681, 105.289 183.566, 108.037 178.431 C 109.197 176.263, 109.083 175.717, 107.006 173.507 C 104.460 170.796, 95.392 167, 91.462 167 C 88.305 167, 88.364 166.178, 91.868 161.341 C 97.041 154.200, 105.169 148.233, 112.063 146.516 C 119.559 144.648, 121.900 155.013, 118.047 173.010 C 116.849 178.601, 115.648 183.754, 115.377 184.461 C 114.515 186.707, 126.732 189.344, 135.419 188.787 C 156.722 187.420, 174.420 167.278, 172.737 146.317 C 172.007 137.223, 168.283 130.262, 160.437 123.332 L 154.022 117.665 156.761 115.986 C 167.394 109.469, 173.304 95.749, 173.341 77.500 C 173.350 72.550, 173.376 62.200, 173.397 54.500 C 173.418 46.800, 173.450 33.659, 173.468 25.299 C 173.502 9.259, 172.785 6.384, 169.301 8.582 C 165.920 10.715, 160.035 31.121, 152.453 67 L 149.177 82.500 149.083 72 C 149.031 66.225, 148.088 55.425, 146.987 48 C 144.557 31.608, 138.966 8.776, 137.250 8.231 C 136.563 8.012, 136 8.290, 136 8.847 M 168.149 16.330 C 163.536 28.660, 156.847 57.444, 150.464 92.431 L 146.828 112.362 149.149 114.113 C 151.379 115.794, 151.626 115.777, 155.392 113.682 C 160.510 110.835, 165.341 104.098, 168.071 96 C 170.150 89.831, 170.279 87.501, 170.606 50.250 C 170.795 28.663, 170.768 11, 170.547 11 C 170.325 11, 169.246 13.399, 168.149 16.330 M 59.601 16.837 C 58.817 18.104, 60.846 22.253, 64.197 26.238 C 66.249 28.677, 67.536 29.093, 76 30.051 C 87.015 31.297, 102.545 30.973, 102.406 29.500 C 102.255 27.898, 94.608 24.038, 84.172 20.296 C 73.911 16.617, 60.871 14.781, 59.601 16.837 M 75 40.007 C 60.252 40.867, 47.740 42.412, 43.933 43.844 C 41.607 44.719, 41.675 44.807, 45.500 45.850 C 53.870 48.131, 64.267 49.067, 87.190 49.603 L 110.880 50.156 111.568 46.491 C 112.684 40.543, 110.851 39.526, 98.717 39.360 C 93.097 39.284, 82.425 39.575, 75 40.007 M 73 54.121 C 70.184 55.240, 65.324 59.584, 63.854 62.296 C 61.876 65.944, 61.017 75.344, 62.062 81.890 C 63.518 91.002, 66.777 100.219, 69.213 102.113 C 72.328 104.534, 70.840 105.539, 63.827 105.753 C 55.606 106.004, 42.553 108.316, 37.563 110.406 C 34.169 111.827, 33.824 112.246, 35.063 113.441 C 37.418 115.715, 46.625 117.925, 58.618 119.096 C 78.809 121.068, 99.320 117.400, 106.888 110.464 L 110.451 107.199 115.975 109.985 C 123.546 113.802, 134.317 117, 139.605 117 C 146.465 117, 145.426 114.467, 135.573 107.170 L 127.147 100.929 120.945 103.019 C 112.761 105.775, 109.604 105.412, 109.175 101.665 C 108.997 100.106, 109.559 97.059, 110.425 94.895 C 111.291 92.730, 112 90.782, 112 90.565 C 112 89.866, 102.266 83, 101.274 83 C 100.748 83, 99.499 85.700, 98.500 89 C 97.501 92.300, 96.350 95, 95.942 95 C 93.855 95, 76 73.076, 76 70.512 C 76 69.815, 76.648 68.707, 77.441 68.049 C 79.179 66.607, 84.620 68.776, 93.480 74.444 C 96.636 76.463, 99.340 77.977, 99.489 77.807 C 100.207 76.994, 108.041 56.708, 107.750 56.417 C 107.567 56.233, 104.753 55.389, 101.498 54.542 C 94.844 52.808, 76.965 52.544, 73 54.121 M 106.012 69.205 L 101.777 79.411 104.373 81.481 C 105.801 82.619, 108.327 84.353, 109.987 85.333 L 113.005 87.116 114.124 84.308 C 116.116 79.310, 115.588 68.029, 113.138 63.250 C 111.940 60.913, 110.799 59, 110.604 59 C 110.408 59, 108.342 63.592, 106.012 69.205 M 79 70.706 C 79 71.701, 89.483 85.172, 92.355 87.866 L 94.876 90.232 96.438 86.494 C 97.297 84.438, 98 82.187, 98 81.492 C 98 80.797, 94.892 78.381, 91.093 76.125 C 83.737 71.755, 79 69.632, 79 70.706 M 113.060 95.750 C 112.321 97.813, 111.481 100.132, 111.193 100.904 C 110.778 102.013, 111.489 102.192, 114.584 101.755 C 116.738 101.451, 119.790 100.698, 121.368 100.081 L 124.235 98.960 119.678 95.480 C 117.171 93.566, 114.958 92, 114.761 92 C 114.563 92, 113.798 93.688, 113.060 95.750 M 138.672 95.884 L 129.843 99.694 136.963 104.973 C 140.879 107.875, 144.236 110.082, 144.423 109.875 C 144.717 109.552, 147.847 91.938, 147.594 92.036 C 147.542 92.056, 143.527 93.788, 138.672 95.884 M 146.711 120.432 C 144.309 122.834, 140.493 156.745, 142.024 162.084 C 143.354 166.719, 143.253 168, 141.559 168 C 139.157 168, 138.822 166.396, 138.366 152.688 C 137.792 135.412, 137.260 131.545, 135.204 129.685 C 130.610 125.527, 125.571 125.241, 84.322 126.798 C 61.982 127.642, 58.419 128.322, 59.642 131.509 C 59.930 132.259, 64.621 135.939, 70.067 139.686 C 79.887 146.444, 81.608 148.207, 80.359 150.229 C 79.724 151.256, 65.631 150.701, 59.993 149.426 C 57.750 148.919, 57.193 149.457, 54.712 154.515 C 49.460 165.224, 50.272 173.055, 57.183 178.326 C 66.169 185.180, 90.120 185.993, 102.250 179.856 C 104.313 178.813, 106 177.273, 106 176.434 C 106 174.599, 96.621 170.024, 92.832 170.010 C 88.435 169.994, 87 168.990, 87 165.930 C 87 162.132, 93.794 153.901, 101.287 148.623 C 106.366 145.045, 107.757 144.544, 112.661 144.523 C 117.640 144.503, 118.481 144.808, 120.375 147.327 C 122.215 149.775, 122.479 151.385, 122.347 159.327 C 122.259 164.615, 121.366 171.773, 120.240 176.228 C 118.002 185.078, 117.521 184.407, 127.205 185.950 C 142.905 188.453, 158.750 179.778, 166.499 164.437 C 169.203 159.083, 169.498 157.567, 169.499 149 C 169.500 140.444, 169.228 139.037, 166.760 134.839 C 163.660 129.566, 152.370 119.011, 149.821 119.004 C 148.898 119.002, 147.499 119.644, 146.711 120.432" stroke="none" fill="black" fill-rule="evenodd"/>
</svg>