<svg xmlns="http://www.w3.org/2000/svg" width="200" height="200" viewBox="0 0 200 200" version="1.1">
	<path d="M 126.500 11.628 C 94.911 15.344, 56.002 20.257, 51.599 21.084 C 48.904 21.591, 46.103 22.499, 45.376 23.103 C 41.830 26.046, 51.787 34.701, 64.223 39.487 L 70.500 41.902 66.500 41.957 C 64.300 41.986, 56.200 42.936, 48.500 44.066 C 33.572 46.257, 29.582 48.089, 30.208 52.463 C 30.647 55.527, 38.360 58.885, 47.044 59.793 L 54.500 60.572 51 62.403 C 40.527 67.882, 37.366 76.554, 41.408 88.724 C 42.673 92.531, 43.768 93.984, 46.198 95.080 C 47.931 95.861, 49.833 97.308, 50.425 98.296 C 51.570 100.209, 49.274 102.720, 37.115 112.852 C 25.406 122.608, 34.024 124.713, 72.539 121.503 C 100.164 119.201, 112.285 117.030, 126.762 111.792 C 137.174 108.024, 138.491 108.353, 136.431 114.207 C 133.625 122.181, 127.179 134.475, 123.661 138.563 C 119.830 143.014, 113.704 145.676, 109.998 144.499 C 106.289 143.322, 99.253 136.185, 95.322 129.612 C 93.311 126.251, 91.607 123.404, 91.535 123.286 C 91.463 123.168, 86.135 123.501, 79.694 124.026 C 65.764 125.161, 61 126.779, 61 130.376 C 61 133.509, 63.596 135.551, 75.268 141.602 L 84.500 146.388 81 147.200 C 79.075 147.646, 72.513 147.734, 66.417 147.396 L 55.333 146.781 54.190 149.641 C 48.428 164.053, 51.873 175.416, 63.836 181.456 C 68.382 183.751, 79.326 185.969, 86 185.948 C 99.665 185.904, 116.119 180.801, 119.568 175.537 C 121.234 172.994, 121.223 172.775, 119.298 170.193 C 118.195 168.712, 115.124 166.692, 112.474 165.704 C 108.471 164.211, 106.826 164.086, 102.745 164.961 C 100.043 165.541, 97.413 165.755, 96.901 165.439 C 95.187 164.380, 99.421 158.880, 105.500 154.266 C 120.121 143.168, 136.252 138.951, 144 144.201 L 147.500 146.572 148.064 162.536 C 148.765 182.389, 150.760 188, 157.120 188 C 166.187 188, 177.106 166.279, 177.228 148 C 177.312 135.344, 173.621 127.920, 165.243 123.891 C 162.634 122.636, 156.130 118.791, 150.788 115.345 C 141.297 109.223, 141.098 109.017, 142.053 106.279 C 142.590 104.738, 144.562 102.254, 146.435 100.760 L 149.840 98.042 152.643 105.186 C 155.563 112.631, 160.531 119, 163.416 119 C 168.106 119, 172.727 108.833, 175.460 92.500 C 180.509 62.321, 180.093 29.815, 174.518 19.035 C 169.450 9.235, 163.875 18.027, 155.587 48.883 C 154.201 54.044, 152.889 58.445, 152.670 58.663 C 152.240 59.094, 149.372 47.236, 145.868 30.536 C 144.402 23.551, 143.209 20, 142.329 20 C 140.656 20, 140.564 19.018, 143.515 32.668 C 144.899 39.067, 145.889 44.444, 145.716 44.617 C 145.543 44.790, 143.399 42.173, 140.951 38.802 C 134.325 29.676, 124.885 22.705, 115.750 20.193 C 113.688 19.625, 112 19.237, 112.001 19.331 C 112.001 19.424, 112.854 21.750, 113.898 24.500 C 116.966 32.588, 118.414 44.424, 118.424 61.500 C 118.431 73.660, 118.011 79.058, 116.676 83.991 C 115.709 87.561, 114.591 90.809, 114.192 91.208 C 113.792 91.608, 111.529 90.780, 109.163 89.369 C 105.935 87.444, 105.039 86.392, 105.572 85.152 C 109.189 76.745, 105.230 68.792, 95.056 64.026 C 92.250 62.712, 90.108 61.177, 90.295 60.616 C 90.482 60.054, 93.640 58.673, 97.313 57.547 C 111.204 53.289, 111.596 47.922, 98.500 41.291 C 95.750 39.899, 93.332 38.608, 93.126 38.422 C 92.920 38.236, 93.921 36.694, 95.351 34.995 C 97.997 31.850, 101 23.517, 101 19.318 C 101 18.043, 101.563 17.010, 102.250 17.022 C 108.555 17.131, 144.785 12.424, 145.964 11.342 C 147.208 10.202, 146.757 10.016, 142.964 10.108 C 140.509 10.168, 133.100 10.852, 126.500 11.628 M 167.852 20.740 C 165.680 24.510, 162.880 32.989, 158.518 49 C 152.140 72.410, 145.899 95.088, 145.356 96.825 C 145.006 97.945, 145.523 97.718, 146.916 96.139 C 148.062 94.841, 149 93.153, 149 92.389 C 149 89.170, 150.762 91.404, 152.439 96.750 C 154.637 103.757, 159.273 113.152, 161.406 114.922 C 163.727 116.848, 165.446 115.709, 167.810 110.680 C 175.149 95.067, 178.796 39.012, 173.445 24.066 C 172.375 21.078, 171.037 18.486, 170.471 18.307 C 169.905 18.128, 168.727 19.223, 167.852 20.740 M 79 22.070 C 69.375 23.057, 61.275 23.905, 61 23.952 C 60.725 24, 65 25.993, 70.500 28.380 C 76 30.767, 82.649 33.672, 85.275 34.835 C 89.985 36.922, 90.076 36.924, 91.972 35.028 C 93.029 33.971, 94.554 31.829, 95.361 30.269 C 97.183 26.745, 98.524 19.952, 97.361 20.137 C 96.888 20.212, 88.625 21.082, 79 22.070 M 117.419 25.649 C 121.665 36.715, 122.687 72.177, 119.139 85.364 C 117.975 89.690, 117.225 93.556, 117.472 93.955 C 117.719 94.355, 121.743 97.025, 126.415 99.890 C 134.706 104.974, 134.979 105.062, 137.848 103.579 C 141.078 101.908, 141.661 100.359, 148.547 75.120 C 150.935 66.367, 151.836 61.517, 151.153 61.095 C 150.579 60.740, 148.308 56.861, 146.108 52.475 C 143.907 48.089, 139.937 41.800, 137.285 38.500 C 130.389 29.916, 115.314 20.165, 117.419 25.649 M 48.229 26.250 C 48.898 28.368, 59.034 34.642, 65.430 36.898 C 72.750 39.480, 80.646 40.498, 83.857 39.275 C 85.981 38.465, 85.386 37.996, 77.857 34.541 C 60.274 26.472, 47.136 22.796, 48.229 26.250 M 85.250 41.341 C 81.407 42.284, 79.372 44, 82.096 44 C 84.714 44, 89.023 48.344, 90.156 52.127 C 91.322 56.018, 91.479 56.133, 94.782 55.513 C 96.663 55.160, 99.750 54.133, 101.643 53.230 C 106.867 50.739, 105.813 48.351, 97.500 43.834 C 93.650 41.742, 90.275 40.091, 90 40.165 C 89.725 40.238, 87.588 40.768, 85.250 41.341 M 47 46.992 C 34.502 49.140, 32.806 49.740, 33.205 51.876 C 34.021 56.251, 58.553 59.274, 79.250 57.549 C 87.473 56.864, 88 56.683, 88 54.545 C 88 51.129, 84.620 47.502, 80.202 46.179 C 74.614 44.504, 59.287 44.880, 47 46.992 M 60 62.387 C 50.856 64.415, 45.348 68.295, 43.067 74.315 C 41.636 78.091, 41.722 80.700, 43.470 86.588 C 44.634 90.506, 45.551 91.769, 47.864 92.643 C 49.472 93.250, 51.522 94.867, 52.420 96.238 C 55.241 100.543, 53.462 103.060, 39.646 114.315 C 37.070 116.414, 35.223 118.551, 35.540 119.065 C 36.943 121.335, 81.280 118.890, 102 115.401 C 110.809 113.917, 127.902 109.043, 130.723 107.210 C 131.529 106.686, 129.143 104.705, 123.723 101.399 L 115.500 96.383 111.500 100.594 C 104.753 107.698, 95.739 108.478, 84.814 102.905 L 80.694 100.803 88.097 96.501 C 92.169 94.134, 96.550 91.072, 97.834 89.695 L 100.168 87.192 93.834 83.656 C 83.995 78.162, 84.900 77.866, 80.619 87.977 C 78.518 92.940, 76.638 97, 76.442 97 C 75.487 97, 64.879 82.901, 62.598 78.601 C 59.568 72.887, 59.437 71.706, 61.598 69.545 C 63.651 67.492, 68.274 68.267, 76.797 72.092 C 81.230 74.081, 83.224 74.559, 83.531 73.709 C 86.122 66.527, 86.774 63.978, 86.123 63.576 C 84.818 62.770, 72.698 61.011, 69 61.091 C 67.075 61.133, 63.025 61.716, 60 62.387 M 87.604 70.588 C 86.635 73.661, 85.990 76.284, 86.171 76.417 C 86.352 76.550, 90.046 78.579, 94.381 80.927 C 103.100 85.650, 103.957 85.462, 103.985 78.827 C 103.995 76.305, 103.177 74.175, 101.374 72.033 C 98.987 69.196, 92.334 65, 90.222 65 C 89.751 65, 88.573 67.515, 87.604 70.588 M 63 72.435 C 63 74.802, 64.499 77.455, 70.273 85.310 C 73.026 89.056, 75.590 91.756, 75.971 91.310 C 76.601 90.573, 82 78.268, 82 77.571 C 82 76.821, 69.579 71.806, 66.476 71.302 C 63.652 70.844, 63 71.057, 63 72.435 M 100.886 90.638 C 100.138 91.539, 96.629 94.220, 93.087 96.596 C 86.764 100.837, 86.694 100.933, 89.217 101.892 C 93.658 103.581, 98.727 104.219, 101.996 103.501 C 105.535 102.723, 112 97.514, 112 95.439 C 112 94.293, 104.424 89, 102.785 89 C 102.488 89, 101.633 89.737, 100.886 90.638 M 136.529 121.062 C 134.455 126.065, 131.312 132.307, 129.545 134.934 L 126.331 139.709 132.969 139.234 C 138.401 138.846, 140.368 139.147, 143.789 140.893 C 150.458 144.295, 150.911 145.606, 150.912 161.507 C 150.912 179.568, 152.446 185, 157.545 185 C 163.236 185, 172.123 168.534, 174.228 154.088 C 176.081 141.374, 172.604 130.633, 165.477 127.058 C 162.926 125.778, 149.027 117.489, 142.399 113.295 C 140.391 112.024, 140.134 112.363, 136.529 121.062 M 75.433 127.085 C 71.546 127.539, 67.099 128.392, 65.551 128.981 C 62.905 129.987, 62.835 130.160, 64.381 131.868 C 65.285 132.868, 70.551 136.052, 76.083 138.945 C 86.459 144.371, 88.106 145.962, 85.989 148.513 C 85.005 149.699, 81.938 150, 70.853 150 L 56.950 150 55.978 152.559 C 49.414 169.823, 59.666 181.461, 82.571 182.745 C 96.452 183.524, 112.722 179.655, 116.939 174.573 C 118.015 173.278, 118.010 172.717, 116.914 171.396 C 114.595 168.602, 110.734 167.568, 102.500 167.533 C 94.544 167.500, 94.498 167.485, 94.186 164.776 C 93.944 162.675, 94.950 160.899, 98.580 157.018 C 101.169 154.250, 104.822 151.037, 106.698 149.878 L 110.109 147.769 107.305 146.324 C 103.036 144.124, 98.272 139.166, 93.780 132.250 C 89.219 125.226, 89.844 125.402, 75.433 127.085" stroke="none" fill="black" fill-rule="evenodd"/>
</svg>