<svg xmlns="http://www.w3.org/2000/svg" width="200" height="200" viewBox="0 0 200 200" version="1.1">
	<path d="M 66.667 9.667 C 64.182 12.152, 69.087 19.010, 77.635 25.003 C 78.892 25.884, 79.992 28.004, 80.307 30.154 L 80.843 33.809 63.172 34.195 C 49.285 34.498, 44.264 34.987, 39.730 36.479 C 36.556 37.524, 34.129 38.855, 34.337 39.439 C 34.776 40.670, 35.441 40.606, 43.500 38.558 C 50.991 36.655, 68.791 35.494, 76.227 36.423 C 81.629 37.098, 81.891 37.270, 83.458 41.186 C 84.352 43.421, 84.801 45.531, 84.456 45.875 C 84.111 46.219, 74.867 46.500, 63.914 46.500 C 49.371 46.500, 43.999 46.816, 43.999 47.670 C 44 49.523, 55.973 50.352, 72.750 49.662 C 81.138 49.316, 88 49.417, 88 49.886 C 88 50.355, 86.537 50.981, 84.750 51.277 C 74.792 52.928, 62.955 60.320, 59.466 67.065 C 57.530 70.809, 57.601 78.306, 59.610 82.300 C 61.840 86.731, 67.798 92.807, 72.085 95.021 C 74.057 96.039, 79.449 97.638, 84.067 98.574 C 94.008 100.588, 110.313 100.071, 118.900 97.469 L 124.300 95.833 127.738 99.271 L 131.176 102.709 107.338 103.427 C 94.227 103.821, 73.825 104.047, 62 103.928 C 32.759 103.635, 33.944 103.584, 27.687 105.403 C 14.410 109.262, 17.032 115.509, 33.637 119.572 C 39.779 121.075, 45.112 121.497, 58 121.498 C 67.075 121.499, 76.166 121.146, 78.202 120.714 L 81.903 119.927 83.063 124.214 C 83.700 126.571, 84.015 131.749, 83.763 135.720 C 82.635 153.473, 69.539 167.282, 44.228 177.409 C 39.291 179.384, 34.745 181, 34.126 181 C 30.190 181, 38.194 188.486, 43.680 189.935 C 51.323 191.954, 61.710 188.447, 83 176.660 C 96.128 169.392, 101.673 166.765, 106.281 165.631 C 108.667 165.044, 109.806 165.635, 114.281 169.786 C 129.593 183.986, 140.346 189.330, 148.946 187.014 C 159.327 184.219, 159.718 171.348, 149.682 162.866 C 145.738 159.533, 137.510 156.147, 130.446 154.948 C 122.122 153.536, 117.741 151.077, 114.308 145.889 C 112.126 142.592, 111.818 141.208, 112.211 136.471 C 112.732 130.187, 114.620 127.085, 120.822 122.325 C 129.313 115.808, 143.690 115.691, 156.388 122.036 C 159.650 123.666, 162.729 125, 163.230 125 C 166.378 125, 182 111.679, 182 108.995 C 182 106.189, 179.927 105.121, 165.315 100.398 C 157.717 97.942, 148.027 94.309, 143.783 92.324 L 136.066 88.716 138.263 85.630 C 141.539 81.030, 141.782 71.003, 138.763 65 C 136.696 60.890, 136.153 60.479, 132.500 60.261 C 112.934 59.092, 111.970 58.912, 108.404 55.782 C 104.559 52.406, 104.882 51.147, 110.312 48.339 C 112.642 47.134, 115.205 46.945, 122.385 47.450 C 127.398 47.802, 133.553 48.545, 136.063 49.100 C 140.493 50.080, 140.871 49.965, 149.094 45.126 C 158.798 39.414, 161.302 37.106, 160.029 35.046 C 159.550 34.271, 151.834 31.776, 142.874 29.498 C 126.738 25.395, 126.583 25.329, 125.783 22.241 C 124.754 18.271, 118.989 13.506, 112.532 11.287 C 105.702 8.941, 93.696 8.940, 88.475 11.286 C 84.616 13.019, 84.328 13.012, 78.593 11.036 C 72.636 8.983, 67.895 8.438, 66.667 9.667 M 68.494 12.010 C 67.933 12.918, 72.533 17.819, 76.792 20.852 L 79.522 22.796 81.166 18.947 L 82.810 15.098 78.155 13.643 C 71.174 11.461, 69.054 11.103, 68.494 12.010 M 91 13.150 C 88.648 14.113, 88.856 14.288, 94.500 16.093 C 104.995 19.451, 120.759 24, 121.899 24 C 122.505 24, 123 23.358, 123 22.573 C 123 20.309, 116.323 15.408, 110.814 13.629 C 105.216 11.821, 94.858 11.571, 91 13.150 M 84.451 18.374 C 81.508 22.575, 82.536 24.672, 88.750 27.139 C 95.931 29.990, 111.757 30.468, 116.253 27.970 C 118.971 26.461, 118.792 26.375, 102.454 21.372 C 85.950 16.317, 85.897 16.309, 84.451 18.374 M 121.267 28.523 C 120.295 29.203, 117.475 30.467, 115 31.332 C 111 32.730, 110.824 32.910, 113.418 32.952 C 117.237 33.015, 129.289 30.966, 130.245 30.092 C 130.654 29.717, 129.200 28.933, 127.012 28.349 C 124.020 27.550, 122.597 27.593, 121.267 28.523 M 83.184 30.750 L 83.500 33.500 97 33.629 C 109.288 33.747, 109.781 33.687, 102.484 32.964 C 98.075 32.527, 92 31.232, 88.984 30.085 C 85.968 28.939, 83.358 28.001, 83.184 28.001 C 83.010 28, 83.010 29.238, 83.184 30.750 M 127.536 38.242 L 115.571 44.500 125.556 45.110 C 131.047 45.445, 136.558 46.042, 137.801 46.437 C 139.502 46.977, 142.034 45.997, 148.030 42.482 C 152.413 39.913, 156.240 37.420, 156.535 36.943 C 156.830 36.467, 154.692 35.406, 151.785 34.586 C 140.597 31.432, 140.542 31.440, 127.536 38.242 M 123 34.591 C 119.425 35.335, 109.399 36.252, 100.719 36.630 C 92.040 37.007, 85.067 37.582, 85.224 37.908 C 85.381 38.234, 86.167 40.206, 86.970 42.290 L 88.431 46.080 99.465 45.409 C 105.534 45.040, 110.985 44.356, 111.577 43.890 C 112.170 43.423, 116.895 40.791, 122.077 38.040 C 127.260 35.289, 131.050 33.083, 130.500 33.138 C 129.950 33.193, 126.575 33.847, 123 34.591 M 92.069 48.936 C 91.024 49.598, 91.698 50.013, 94.569 50.478 C 96.731 50.829, 99.414 51.298, 100.532 51.522 C 101.788 51.773, 103.032 51.179, 103.790 49.964 C 104.957 48.097, 104.733 48.001, 99.258 48.015 C 96.091 48.024, 92.856 48.438, 92.069 48.936 M 83.500 54.424 C 75.652 56.392, 71.479 58.517, 66.563 63.049 C 57.891 71.042, 58.345 79.372, 67.942 88.349 C 75.064 95.011, 80.847 96.516, 99 96.436 C 108.851 96.392, 114.832 95.911, 117.654 94.936 L 121.809 93.500 114.972 86.012 L 108.136 78.524 105.686 80.825 C 102.784 83.552, 98.079 83.937, 94.704 81.726 C 91.398 79.559, 88.819 73.712, 89.191 69.225 C 89.447 66.137, 90.041 65.262, 92.663 64.107 L 95.826 62.714 92.663 57.875 C 90.923 55.213, 89.275 53.066, 89 53.103 C 88.725 53.140, 86.250 53.734, 83.500 54.424 M 94.612 56.007 C 96.911 60.003, 104.761 68.267, 107.808 69.897 C 109.637 70.876, 110.135 70.812, 110.625 69.536 C 111.766 66.561, 110.052 61.151, 107.735 60.416 C 106.528 60.033, 104.371 58.467, 102.941 56.937 C 101.439 55.329, 98.734 53.853, 96.534 53.440 L 92.725 52.726 94.612 56.007 M 113.523 65.271 C 113.907 67.319, 113.703 69.687, 113.033 70.937 C 111.651 73.520, 112.474 74.297, 124.879 82.118 L 133.259 87.400 135.532 84.758 C 138.760 81.005, 139.460 75.440, 137.457 69.446 C 136.548 66.726, 135.511 64.204, 135.152 63.842 C 134.793 63.480, 129.632 62.862, 123.681 62.468 L 112.863 61.752 113.523 65.271 M 92.667 66.667 C 92.300 67.033, 92 68.998, 92 71.032 C 92 75.052, 94.800 79.484, 97.976 80.492 C 100.304 81.231, 106 78.477, 106 76.613 C 106 75.879, 104.056 73.190, 101.680 70.639 C 97.740 66.408, 94.398 64.935, 92.667 66.667 M 114.658 81.586 C 123.335 91.570, 124.590 92.508, 127.490 91.186 C 128.871 90.557, 129.981 89.696, 129.958 89.271 C 129.921 88.585, 113.025 77.127, 110.516 76.086 C 109.967 75.859, 111.832 78.334, 114.658 81.586 M 129.771 92.897 L 127.042 94.647 131.997 100.207 L 136.952 105.767 97.226 106.517 C 75.377 106.929, 52.775 107.001, 47 106.677 C 36.900 106.110, 30.606 106.808, 24.750 109.145 C 18.705 111.558, 23.112 114.444, 37.583 117.549 C 48.143 119.815, 71.496 119.902, 78.332 117.702 L 83.163 116.147 84.789 119.823 C 85.903 122.344, 86.427 126.486, 86.457 133 C 86.496 141.652, 86.216 143.100, 83.315 149.223 C 79.432 157.419, 72.907 164.579, 63.803 170.631 C 57.360 174.914, 42.108 181.941, 39.167 181.982 C 36.730 182.015, 38.555 184.473, 42.446 186.400 C 49.727 190.005, 56.829 187.506, 91.876 169.005 C 107.606 160.702, 108.777 160.761, 119.132 170.381 C 129.221 179.755, 137.602 184.376, 144.643 184.447 C 151.322 184.516, 154 182.302, 154 176.713 C 154 171.452, 151.037 166.874, 145.212 163.136 C 140.466 160.090, 130.803 157, 126.027 157 C 121.748 157, 113.514 150.693, 110.992 145.484 C 105.528 134.196, 113.459 119.854, 127.404 115.805 C 136.402 113.193, 149.724 115.074, 159.236 120.300 L 162.971 122.352 168.236 118.708 C 175.158 113.917, 179.194 110.081, 178.741 108.723 C 178.540 108.119, 175.028 106.555, 170.938 105.247 C 158.893 101.396, 146.921 96.902, 140.573 93.850 C 133.758 90.573, 133.437 90.545, 129.771 92.897" stroke="none" fill="black" fill-rule="evenodd"/>
</svg>