<svg xmlns="http://www.w3.org/2000/svg" width="200" height="200" viewBox="0 0 200 200" version="1.1">
	<path d="M 76 9.146 C 66.622 10.117, 56.341 12.472, 54.382 14.098 C 52.091 15.999, 54.132 18.007, 62.368 21.955 C 73.767 27.420, 90.178 32.304, 97.500 32.412 C 102.869 32.491, 103.532 32.279, 103.800 30.398 C 104 29.001, 102.882 27.225, 100.471 25.109 C 96.851 21.930, 96.849 21.924, 99.671 22.593 C 101.227 22.961, 106.800 25.451, 112.057 28.125 C 121.520 32.940, 127.770 37.946, 126.626 39.796 C 125.886 40.993, 119.353 42.624, 111.507 43.569 C 106.086 44.222, 105.640 44.139, 106.839 42.694 C 108.570 40.608, 107.551 37.572, 104.680 36.264 C 103.425 35.692, 99.722 34.617, 96.449 33.875 C 88.950 32.174, 53.926 32.103, 45.705 33.772 C 38.690 35.196, 33.366 37.604, 32.555 39.718 C 31.560 42.311, 34.861 46.047, 40.382 48.575 C 45.059 50.716, 46.205 50.862, 51.538 49.994 C 54.806 49.462, 63.447 48.727, 70.740 48.361 C 82.984 47.747, 84 47.831, 84 49.456 C 84 50.801, 84.551 51.079, 86.333 50.631 C 89.241 49.901, 99.838 52.871, 106.658 56.327 C 112.989 59.535, 116 63.184, 116 67.648 L 116 71.027 112.250 69.404 C 110.188 68.511, 103.231 65.899, 96.792 63.600 C 86.675 59.988, 84.768 58.949, 82.759 55.960 C 79.404 50.966, 73.840 49.211, 66.273 50.758 C 59.272 52.190, 43.628 59.881, 43.212 62.096 C 42.619 65.258, 47.129 74.892, 51.138 79.023 C 57.570 85.651, 64.578 88.351, 76.560 88.819 C 91.369 89.398, 102.376 86.236, 112.447 78.508 L 117.394 74.712 121.871 77.088 C 124.333 78.394, 127.785 80.821, 129.541 82.481 C 132.187 84.982, 132.652 86.060, 132.252 88.762 C 131.987 90.556, 131.329 92.296, 130.791 92.629 C 130.254 92.961, 127.878 91.334, 125.513 89.012 L 121.212 84.792 114.356 86.324 C 104.768 88.468, 91.755 89.790, 68.500 90.984 C 43.200 92.283, 37.314 92.886, 33.141 94.605 C 30.737 95.595, 29.955 96.440, 30.391 97.576 C 30.726 98.449, 31 99.343, 31 99.561 C 31 100.431, 39.947 104.447, 47.790 107.098 C 53.644 109.077, 57.463 111.120, 60.790 114.051 C 66.548 119.125, 82.869 127.193, 92.952 129.948 C 97.051 131.068, 105.376 132.480, 111.452 133.085 C 117.529 133.690, 122.711 134.392, 122.970 134.645 C 123.228 134.899, 111.734 134.970, 97.427 134.803 C 73.683 134.526, 71.173 134.658, 68.645 136.314 C 65.499 138.375, 65.586 139.603, 69.063 142.194 C 71.312 143.870, 83.328 147.145, 92.265 148.518 L 96.029 149.096 91.776 152.340 C 87.211 155.823, 83.301 160.954, 82.361 164.697 C 79.821 174.819, 91.653 185.312, 110.250 189.429 C 112.120 189.843, 113 190.672, 113 192.019 C 113 194.530, 114.674 194.602, 115.460 192.125 C 115.959 190.554, 117.073 190.250, 122.342 190.250 C 134.651 190.250, 144.859 185.510, 149.461 177.657 C 152.469 172.524, 154.011 164, 151.932 164 C 149.149 164, 132.090 154.930, 130.089 152.386 C 127.213 148.730, 127.459 147.502, 131.302 146.322 C 133.802 145.555, 136.781 145.753, 143.552 147.137 C 170.899 152.727, 177.730 145.863, 163.435 127.158 L 157.824 119.817 159.799 117.658 C 162.521 114.685, 165.476 108.435, 166.887 102.669 C 169.237 93.069, 169.899 82.925, 170.036 54.463 C 170.185 23.348, 169.681 19.482, 164.792 14.278 C 161.800 11.093, 159.712 11.425, 155.978 15.677 C 152.459 19.685, 151.269 22.150, 146.600 35.097 C 144.895 39.826, 143.050 43.659, 142.500 43.615 C 141.950 43.571, 139.855 41.347, 137.845 38.672 L 134.191 33.808 136.621 30.227 C 144.382 18.790, 138.220 11.920, 117.500 8.911 C 110.091 7.836, 87.416 7.964, 76 9.146 M 74.657 12.002 C 70.893 12.470, 67.556 13.111, 67.240 13.426 C 66.925 13.742, 70.626 14, 75.465 14 C 82.491 14, 84.910 14.399, 87.470 15.981 C 89.233 17.071, 93.561 18.568, 97.088 19.308 C 109.030 21.813, 130 34.357, 130 38.996 C 130 40.983, 125.520 43.937, 121.053 44.895 C 118.475 45.448, 112.121 46.207, 106.933 46.581 C 101.745 46.956, 96.900 47.579, 96.167 47.967 C 95.335 48.407, 97.210 49.538, 101.166 50.980 C 113.845 55.603, 119.374 60.940, 118.860 68.058 C 118.585 71.862, 118.809 72.232, 122.748 74.469 C 125.046 75.774, 128.428 77.987, 130.262 79.386 L 133.596 81.929 137.713 65.715 L 141.831 49.500 139.280 45.500 C 137.877 43.300, 135.230 39.643, 133.399 37.374 L 130.069 33.248 132.137 31.376 C 134.899 28.877, 137 24.662, 137 21.622 C 137 18.462, 133.249 15.482, 126.612 13.367 C 120.669 11.473, 86.202 10.568, 74.657 12.002 M 157.787 17.205 C 154.597 22.078, 151.151 29.887, 148.051 39.267 C 144.879 48.866, 144.851 49.115, 146.412 53.695 C 148.609 60.143, 148.440 69.750, 146.018 76.212 C 144.927 79.121, 141.777 84.287, 139.018 87.694 C 136.258 91.101, 134 94.518, 134 95.287 C 134 96.057, 138.829 101.458, 144.731 107.289 C 154.998 117.432, 155.544 117.818, 157.338 116.196 C 160.118 113.682, 162.819 107.863, 164.494 100.781 C 166.620 91.797, 168.222 64.268, 167.833 43.399 C 167.522 26.661, 167.338 25.176, 165 20.500 C 162.175 14.850, 159.984 13.849, 157.787 17.205 M 61.337 18.618 C 68.579 22.374, 89.443 29.090, 95.861 29.730 L 101.500 30.293 99.576 28.126 C 95.109 23.093, 89.178 20.266, 79.759 18.681 C 74.667 17.824, 67.350 16.895, 63.500 16.616 L 56.500 16.109 61.337 18.618 M 50.119 36.031 C 43.151 37.044, 36.099 39.030, 35.388 40.181 C 34.494 41.627, 37.160 44.174, 41.652 46.166 C 45.262 47.767, 46.764 47.875, 53.152 46.997 C 57.193 46.442, 69.050 45.620, 79.500 45.170 C 94.266 44.535, 99.224 43.974, 101.750 42.651 C 103.537 41.715, 105 40.545, 105 40.052 C 105 38.787, 99.683 37.206, 91.500 36.039 C 83.424 34.886, 58.031 34.882, 50.119 36.031 M 62.447 54.403 C 55.735 56.505, 45.998 62.129, 46.022 63.889 C 46.065 67.050, 49.887 73.887, 53.797 77.797 C 65.767 89.767, 93.030 89.368, 109.929 76.976 L 114.359 73.728 110.912 71.959 C 107.975 70.452, 87.588 63, 86.403 63 C 86.181 63, 86 64.830, 86 67.066 C 86 71.473, 84.587 75, 82.820 75 C 82.062 75, 81.898 72.991, 82.304 68.652 C 83.534 55.477, 76.085 50.132, 62.447 54.403 M 139.651 69.371 C 137.643 77.391, 136 84.750, 136 85.724 C 136 88.150, 142.591 78.756, 144.138 74.125 C 145.626 69.671, 145.746 59.156, 144.338 56.640 C 143.506 55.153, 142.581 57.664, 139.651 69.371 M 117.871 88.463 C 116.675 89.659, 97.322 91.985, 80.327 92.976 C 49.827 94.754, 35.946 95.931, 34.243 96.884 C 32.946 97.610, 33.418 98.173, 36.746 99.871 C 39.002 101.022, 44.332 103.133, 48.590 104.562 C 53.859 106.331, 58.117 108.624, 61.916 111.740 C 73.728 121.426, 96.047 129.447, 114.615 130.679 L 123.730 131.284 124.440 126.550 C 124.831 123.947, 124.996 121.662, 124.807 121.474 C 124.619 121.285, 120.059 120.211, 114.674 119.087 C 102.475 116.539, 96 113.809, 96 111.211 C 96 108.172, 98.924 106.294, 110.125 102.139 C 115.905 99.995, 122.118 97.473, 123.931 96.536 L 127.228 94.831 123.918 91.415 C 120.839 88.239, 118.995 87.338, 117.871 88.463 M 123.140 102.943 C 119.641 106.183, 117.073 109.309, 117.432 109.889 C 118.248 111.210, 125.799 113.534, 126.617 112.717 C 127.375 111.959, 130.142 98.917, 129.773 97.844 C 129.623 97.409, 126.638 99.703, 123.140 102.943 M 131.140 106.543 C 130.477 110.141, 130.205 113.522, 130.535 114.057 C 132.480 117.203, 145.594 121.468, 150.208 120.454 L 153.250 119.786 143.394 109.893 C 137.973 104.452, 133.269 100, 132.942 100 C 132.614 100, 131.803 102.944, 131.140 106.543 M 109.137 105.455 C 99.624 109.290, 97.765 110.619, 99.992 111.995 C 101.976 113.221, 115.347 116.718, 121.250 117.554 C 127.320 118.414, 127.681 116.526, 121.750 114.941 C 114.456 112.991, 113.211 110.321, 117.068 104.904 C 118.206 103.307, 118.768 102.019, 118.318 102.042 C 117.868 102.065, 113.737 103.601, 109.137 105.455 M 129 117.905 C 129 118.735, 133.102 120.231, 133.711 119.623 C 133.874 119.459, 132.882 118.811, 131.504 118.184 C 130.127 117.556, 129 117.431, 129 117.905 M 127.425 125.547 C 127.059 127.497, 127.054 129.387, 127.413 129.746 C 128.294 130.628, 137.556 128.577, 142.500 126.405 L 146.500 124.648 139.500 123.385 C 128.536 121.408, 128.190 121.470, 127.425 125.547 M 153.018 123.479 C 150.849 126.092, 139.748 130.848, 132.695 132.186 C 129.013 132.885, 126 133.782, 126 134.180 C 126 134.579, 128.808 135.039, 132.240 135.202 C 139.763 135.561, 141.205 137.767, 135.812 140.664 C 132.563 142.409, 132.548 142.449, 135 142.762 C 136.375 142.937, 140.514 143.738, 144.197 144.541 C 153.206 146.504, 165.350 146.488, 166.991 144.511 C 169.091 141.981, 167.285 136.856, 161.727 129.566 C 155.896 121.919, 154.893 121.219, 153.018 123.479 M 72.691 137.649 C 71.137 137.923, 70.054 138.671, 70.267 139.322 C 70.826 141.026, 84.814 144.809, 93.447 145.591 C 100.363 146.218, 101.415 146.034, 109.671 142.744 C 114.527 140.809, 119.175 138.985, 120 138.692 C 120.825 138.398, 117.859 138.122, 113.409 138.079 C 108.959 138.036, 98.609 137.810, 90.409 137.577 C 82.209 137.344, 74.236 137.377, 72.691 137.649 M 124.630 140.250 C 123.300 145.215, 125.051 146.745, 128.065 143.250 C 128.895 142.287, 130.682 140.736, 132.037 139.802 L 134.500 138.105 129.867 138.052 C 125.885 138.007, 125.148 138.316, 124.630 140.250 M 114 143.829 L 109.500 145.500 113.355 145.817 C 118.075 146.204, 120 145.542, 120 143.531 C 120 141.688, 119.728 141.702, 114 143.829 M 122.981 148.250 C 122.971 148.387, 121.450 157.197, 119.600 167.827 C 116.635 184.868, 116.421 187.224, 117.793 187.751 C 120.557 188.811, 133.951 186.295, 138.785 183.808 C 144.136 181.054, 148.784 175.120, 149.611 169.984 C 150.171 166.512, 150.151 166.490, 143.662 163.674 C 133.794 159.390, 128.189 155.464, 126.307 151.517 C 125.384 149.583, 124.263 148, 123.815 148 C 123.367 148, 122.992 148.113, 122.981 148.250 M 97.482 151.640 C 82.266 161.725, 80.928 171.913, 93.748 180.062 C 99.209 183.534, 111.779 187.668, 112.932 186.371 C 113.357 185.892, 114.689 178.525, 115.891 170 C 117.092 161.475, 118.319 153.262, 118.617 151.750 L 119.159 149 110.312 149 C 102.422 149, 101.033 149.286, 97.482 151.640" stroke="none" fill="black" fill-rule="evenodd"/>
</svg>