<svg xmlns="http://www.w3.org/2000/svg" width="200" height="200" viewBox="0 0 200 200" version="1.1">
	<path d="M 103.651 8.482 C 98.234 9.256, 88.966 10.814, 83.055 11.945 C 75.409 13.408, 70.523 13.815, 66.123 13.355 C 60.548 12.772, 59.696 12.937, 57.469 15.029 C 56.111 16.305, 55 17.686, 55 18.098 C 55 19.824, 60.816 25.551, 65.965 28.893 L 71.500 32.486 64 33.115 C 55.092 33.861, 40.507 37.636, 38.403 39.740 C 35.001 43.142, 39.013 45.438, 50.981 46.938 C 55.638 47.522, 62.834 48.026, 66.974 48.059 L 74.500 48.117 67.950 50.389 C 53.307 55.466, 49 59.397, 49 67.681 C 49 82.461, 71.384 94.448, 95.325 92.489 C 102.710 91.885, 103.091 91.952, 102.092 93.675 C 99.101 98.832, 98.555 99.107, 94.285 97.600 C 77.818 91.791, 47.038 93.676, 37.638 101.070 C 34.310 103.688, 34.186 107.421, 37.359 109.500 C 40.598 111.622, 52.220 113.962, 59.625 113.983 C 68.057 114.007, 71.888 114.922, 73.109 117.204 C 73.680 118.270, 74.763 129.382, 75.515 141.896 C 77.227 170.370, 78.637 176.661, 84.779 183.227 C 88.651 187.366, 92.866 188.393, 99.738 186.870 C 103.351 186.069, 113.706 185.555, 127.500 185.491 C 151.750 185.378, 156.095 184.611, 163.704 179.100 C 172.752 172.545, 175.145 158.649, 171.001 136.729 C 169.781 130.278, 168.494 124.993, 168.142 124.985 C 167.789 124.976, 166.898 124.588, 166.163 124.122 C 165.077 123.433, 165.291 121.796, 167.308 115.387 C 176.209 87.097, 177.010 39.137, 168.940 17.570 C 165.071 7.229, 164.368 9.729, 163.685 36.250 C 162.915 66.175, 160.042 93.326, 155.961 109.250 C 155.432 111.313, 154.533 114.800, 153.961 117 C 153.190 119.973, 152.414 121, 150.940 121 C 148.707 121, 148.169 119.865, 145.098 108.688 L 142.951 100.877 144.997 98.005 C 149.947 91.052, 151.065 83.185, 148.500 73.339 C 146.585 65.985, 146.603 53.593, 148.551 39 C 151.034 20.404, 148.998 14.098, 139.097 9.719 C 133.247 7.131, 117.064 6.567, 103.651 8.482 M 109 10.584 C 107.625 10.817, 101.550 11.744, 95.500 12.642 C 82.130 14.628, 80.100 15.488, 86.518 16.450 C 95.362 17.777, 111.416 23.059, 121.596 27.992 C 136.040 34.992, 140.612 40.826, 136.384 46.862 C 135.223 48.519, 134.463 48.863, 133.684 48.084 C 132.905 47.305, 132.938 46.662, 133.800 45.800 C 137.733 41.867, 132.255 35.864, 119.109 29.704 L 110.684 25.756 107.605 27.574 C 105.911 28.575, 102.270 29.941, 99.513 30.612 C 95.511 31.584, 95.105 31.850, 97.500 31.929 C 105.910 32.205, 107.219 34.352, 102.454 40.056 C 100.554 42.329, 99 44.662, 99 45.240 C 99 45.941, 102.328 46.107, 109 45.740 C 117.185 45.289, 119 45.444, 119 46.594 C 119 47.572, 117.707 48.018, 114.750 48.058 C 112.412 48.089, 108.700 48.468, 106.500 48.900 L 102.500 49.684 107.040 51.716 C 109.537 52.834, 113.018 54.065, 114.776 54.451 C 119.903 55.577, 124.998 64.757, 125.002 72.876 C 125.003 76.073, 125.525 76.829, 129.424 79.292 C 136.589 83.819, 141.100 89.440, 140.827 93.500 C 140.532 97.885, 141.341 98.664, 143.199 95.781 C 147.224 89.535, 147.978 81.853, 145.500 72.339 C 143.621 65.124, 143.617 54.415, 145.488 41.500 C 148.248 22.450, 147.058 16.630, 139.612 12.766 C 136.186 10.988, 133.499 10.592, 123.500 10.396 C 116.900 10.266, 110.375 10.350, 109 10.584 M 58 17.741 C 58 19.183, 64.185 24.601, 69.546 27.857 L 74.592 30.921 84.046 29.961 C 94.708 28.878, 102.830 27.366, 104.885 26.081 C 106.967 24.779, 103.824 23.422, 91.817 20.436 C 81.296 17.819, 58 15.963, 58 17.741 M 166.645 39 C 165.394 70.201, 163.069 90.145, 158.334 110.314 C 156.937 116.262, 155.954 121.261, 156.147 121.423 C 156.341 121.586, 157.690 122.004, 159.144 122.352 C 161.493 122.914, 161.954 122.567, 163.266 119.243 C 171.666 97.969, 174.480 49.219, 168.624 26.461 C 167.400 21.706, 167.318 22.226, 166.645 39 M 62 36.032 C 55.207 36.835, 43.546 39.598, 41.043 40.997 C 37.269 43.106, 62.780 46, 85.145 46 C 96.176 46, 97 45.866, 97 44.077 C 97 43.019, 98.125 40.816, 99.500 39.182 C 100.875 37.548, 102 35.939, 102 35.606 C 102 34.757, 69.884 35.099, 62 36.032 M 84.808 51.025 C 86.628 52.134, 88.840 54.302, 89.724 55.843 C 90.888 57.870, 95.357 60.694, 105.916 66.072 C 113.937 70.157, 120.838 73.650, 121.250 73.833 C 122.890 74.562, 121.868 67.162, 119.750 62.973 C 117.703 58.924, 116.856 58.287, 110.373 55.917 C 106.453 54.484, 101.884 52.341, 100.219 51.156 C 97.735 49.387, 95.781 49.001, 89.346 49.004 L 81.500 49.007 84.808 51.025 M 72 52.100 C 67.095 53.056, 55.943 58.199, 53.517 60.626 C 51.333 62.810, 51.607 70.310, 54.047 75.091 C 60.987 88.695, 98.950 95.275, 110.744 84.920 C 112.555 83.330, 115.165 81.746, 116.545 81.399 C 117.924 81.053, 119.486 79.961, 120.014 78.973 C 120.813 77.481, 120.256 76.757, 116.738 74.709 C 111.800 71.834, 94.283 63, 93.520 63 C 93.234 63, 92.999 65.138, 92.998 67.750 C 92.997 72.535, 90.468 79.079, 88.366 79.735 C 86.624 80.279, 84.193 77.334, 82.986 73.216 C 81.642 68.634, 80.452 54, 81.423 54 C 81.813 54, 83.114 54.475, 84.316 55.056 C 86.371 56.050, 86.360 55.991, 84.139 54.056 C 82.841 52.925, 81.190 52, 80.471 52 C 79.752 52, 78.564 51.825, 77.832 51.612 C 77.099 51.399, 74.475 51.618, 72 52.100 M 84.296 64.132 C 84.629 67.634, 85.443 72.032, 86.103 73.903 C 87.220 77.071, 87.396 77.179, 88.651 75.462 C 90.073 73.517, 90.498 63.291, 89.235 61.400 C 88.831 60.795, 87.417 59.729, 86.094 59.031 L 83.689 57.763 84.296 64.132 M 117.500 85.534 C 115.850 86.888, 113.150 88.455, 111.500 89.017 C 109.658 89.644, 106.763 92.365, 104 96.065 C 100.414 100.867, 99.094 101.967, 97.500 101.480 C 85.047 97.671, 84.085 97.537, 69 97.519 C 52.291 97.499, 44.954 98.888, 39.620 103.084 C 34.393 107.196, 40.356 109.540, 60.652 111.352 L 73.500 112.500 75.309 116.201 C 76.723 119.095, 77.322 123.998, 78.055 138.701 C 79.228 162.216, 80.379 170.101, 83.610 176.767 C 87.263 184.301, 93.272 186.809, 100.685 183.893 C 102.411 183.214, 112.589 182.720, 127 182.617 C 148.933 182.459, 150.882 182.296, 156.230 180.160 C 166.381 176.105, 169.998 169.467, 170.002 154.884 C 170.004 145.444, 167.400 129.161, 165.579 127.225 C 164.919 126.524, 162.156 125.691, 159.440 125.374 L 154.500 124.798 152.306 131.149 C 151.099 134.642, 149.654 141.425, 149.095 146.223 C 147.984 155.765, 146.233 160.146, 142.574 162.544 C 140.450 163.935, 139.803 163.945, 136.654 162.629 C 133.490 161.307, 132.982 161.318, 131.809 162.735 C 129.619 165.383, 120.750 168.980, 116.385 168.990 C 111.425 169.002, 106.735 165.810, 107.196 162.735 C 107.363 161.616, 108.772 159.756, 110.327 158.600 C 112.844 156.730, 114.357 156.522, 124.128 156.703 L 135.101 156.907 139.864 149.611 C 146.465 139.499, 147.461 136.798, 146.385 131.929 L 145.500 127.924 136.629 135.405 C 131.750 139.520, 126.282 143.587, 124.478 144.443 C 116.925 148.027, 108.009 145.309, 98.102 136.402 L 92.795 131.631 93.177 124.872 C 93.500 119.154, 94.025 117.537, 96.583 114.377 C 100.645 109.357, 109.061 104.871, 122.484 100.569 C 128.607 98.607, 134.401 96.427, 135.362 95.725 C 136.987 94.537, 136.898 94.159, 134.073 90.260 C 128.761 82.926, 122.762 81.216, 117.500 85.534 M 123.500 102.889 C 107.893 108.464, 102.660 111.279, 98.662 116.253 C 96.260 119.241, 95.631 121.011, 95.573 124.946 C 95.509 129.278, 95.931 130.336, 99 133.539 C 106.515 141.384, 116.178 144.784, 123.282 142.083 C 124.608 141.579, 129.250 138.142, 133.597 134.446 C 137.944 130.749, 142.529 127.049, 143.787 126.223 C 145.045 125.397, 145.921 124.264, 145.735 123.705 C 145.549 123.147, 141.301 121.862, 136.295 120.851 C 131.289 119.839, 125.463 118.445, 123.347 117.752 C 117.934 115.978, 118.169 113.247, 124 110.146 C 132.377 105.692, 139 100.987, 139 99.490 C 139 97.450, 138.299 97.603, 123.500 102.889 M 137 105.664 C 135.075 107.025, 130.912 109.464, 127.750 111.084 C 124.588 112.703, 122 114.210, 122 114.432 C 122 114.758, 131.550 117.014, 143.312 119.467 C 145.357 119.894, 145.148 117.942, 142.124 108.345 L 140.500 103.190 137 105.664 M 149.070 128.750 C 149.133 131.187, 149.238 131.272, 150 129.500 C 151.174 126.769, 151.174 126, 150 126 C 149.450 126, 149.032 127.237, 149.070 128.750 M 144.097 148.343 C 142.961 150.182, 140.656 153.416, 138.975 155.531 C 136.321 158.871, 136.130 159.493, 137.521 160.272 C 141.123 162.288, 144.644 158.015, 145.894 150.110 C 146.338 147.300, 146.580 145, 146.432 145 C 146.284 145, 145.233 146.504, 144.097 148.343 M 113.250 160.119 C 109.737 161.133, 108.735 164.301, 111.582 165.393 C 115.777 167.003, 124.721 165.136, 128.721 161.817 C 129.837 160.891, 129.851 160.522, 128.797 159.854 C 127.085 158.767, 117.356 158.933, 113.250 160.119" stroke="none" fill="black" fill-rule="evenodd"/>
</svg>