<svg xmlns="http://www.w3.org/2000/svg" width="200" height="200" viewBox="0 0 200 200" version="1.1">
	<path d="M 136.814 5.519 C 136.529 5.805, 136.910 9.517, 137.662 13.769 C 139.262 22.814, 143.024 51.298, 142.948 53.788 C 142.919 54.730, 141.855 52.700, 140.584 49.277 C 137.022 39.692, 119.867 20, 115.078 20 C 110.567 20, 110.043 26.181, 112.607 49.121 C 115.178 72.120, 113.314 88.575, 107.398 95.112 C 105.001 97.761, 104.472 97.519, 103.170 93.173 C 101.797 88.590, 95.575 78.749, 90.496 73.127 L 86.826 69.065 90.849 64.283 C 93.061 61.652, 95.763 57.412, 96.853 54.860 C 97.943 52.308, 99.322 49.919, 99.917 49.551 C 101.616 48.501, 101.184 43.472, 99.250 41.771 C 96.342 39.215, 89.596 36.173, 82.352 34.151 C 78.584 33.099, 70.742 29.713, 64.927 26.626 C 51.621 19.563, 43.243 16.553, 41.325 18.146 C 39.197 19.911, 42.524 23.315, 44.917 21.820 C 46.256 20.984, 48.616 21.678, 55.827 25.028 C 60.889 27.380, 64.881 29.452, 64.700 29.633 C 64.519 29.814, 58.550 29.114, 51.435 28.078 C 44.321 27.042, 34.450 25.890, 29.500 25.518 C 24.550 25.147, 19.671 24.610, 18.658 24.325 C 17.307 23.945, 16.907 24.270, 17.158 25.543 C 17.534 27.452, 23.354 29.413, 48 35.933 C 58.203 38.633, 61.759 39.928, 60 40.303 C 58.625 40.597, 53.556 41.556, 48.736 42.435 C 33.848 45.150, 26 48.509, 26 52.166 C 26 54.839, 30.897 56.693, 40.018 57.473 C 52.695 58.558, 52.360 58.245, 46.915 63.894 C 42.767 68.197, 35 81.782, 35 84.734 C 35 85.297, 36.410 86.341, 38.133 87.055 C 43.562 89.304, 47 92.858, 47 96.221 C 47 100.563, 44.075 104.698, 36.546 111 C 29.819 116.631, 27.582 120.488, 30.115 122.092 C 32.372 123.522, 43.288 123.161, 63.500 120.990 C 73.950 119.868, 86.550 118.523, 91.500 118.002 C 96.450 117.480, 103.328 116.095, 106.785 114.923 L 113.070 112.793 121.785 116.573 C 126.578 118.652, 133.032 121.061, 136.127 121.927 C 139.221 122.792, 141.809 123.838, 141.877 124.250 C 141.945 124.662, 142 126.350, 142 128 L 142 131 132.750 130.987 C 127.304 130.979, 119.593 130.141, 114 128.948 C 98.421 125.626, 97.678 125.535, 98.171 127.014 C 98.413 127.739, 102.636 129.400, 107.555 130.703 C 112.475 132.007, 120.668 134.407, 125.762 136.037 C 130.856 137.667, 136.196 139, 137.629 139 C 139.842 139, 140.143 139.338, 139.630 141.250 C 139.299 142.487, 139.021 144.512, 139.014 145.750 C 139.001 147.912, 138.656 148, 130.250 147.992 L 121.500 147.983 113.473 142.233 C 88.040 124.012, 62.802 117.844, 47.045 125.997 L 43.500 127.831 46.500 129.007 C 48.150 129.653, 52.650 131.322, 56.500 132.715 C 64.868 135.743, 73 139.733, 73 140.811 C 73 141.238, 69.159 142.839, 64.465 144.367 C 49.836 149.132, 44.878 156.096, 48.454 166.860 C 50.180 172.059, 59.177 185.747, 61.437 186.614 C 62.155 186.890, 64.437 185.965, 66.508 184.559 C 75.551 178.422, 88.689 178.559, 117 185.084 C 138.425 190.022, 151.443 190.901, 156.278 187.736 C 162.716 183.521, 164.583 175.998, 162.382 163.138 C 160.225 150.537, 160.502 150.803, 149.926 151.181 C 145.014 151.356, 140.996 151.227, 140.998 150.894 C 140.999 150.560, 144.212 149.989, 148.138 149.624 C 156.861 148.813, 169.360 146.293, 173.750 144.459 C 175.884 143.568, 177 142.414, 177 141.098 C 177 138.249, 172.084 137.118, 156.339 136.345 C 146.682 135.871, 143.302 135.377, 143.641 134.492 C 143.896 133.828, 145.787 132.781, 147.844 132.165 C 151.617 131.034, 156.188 126.977, 157.322 123.750 C 157.859 122.223, 157.247 122, 152.528 122 C 149.552 122, 146.906 121.657, 146.647 121.237 C 146.177 120.478, 148.910 103.887, 149.639 103.073 C 150.251 102.388, 155.866 108.089, 159.693 113.282 C 163.753 118.791, 165.143 118.487, 166.830 111.720 C 171.607 92.559, 175.414 27.396, 172.204 19.750 C 168.008 9.756, 161.253 28.667, 151.486 77.750 L 147.655 97 143.078 96.965 C 139.387 96.937, 136.124 98.148, 126.239 103.215 L 113.978 109.500 108.489 106.535 C 105.470 104.904, 103 103.240, 103 102.836 C 103 102.432, 104.564 100.909, 106.475 99.451 C 114.637 93.226, 118.036 78.394, 116.049 57.675 C 113.857 34.833, 113.547 23, 115.139 23 C 116.686 23, 126.505 32.763, 132.346 40.110 C 134.362 42.645, 136.856 47.145, 137.889 50.110 C 140.910 58.784, 142.226 61.105, 143.928 60.755 C 146.172 60.295, 145.676 48.895, 142.459 27 C 139.156 4.512, 138.878 3.455, 136.814 5.519 M 167.554 24.410 C 164.910 30.440, 160.242 49.170, 154.950 74.981 L 150.135 98.461 155.387 103.981 C 158.275 107.016, 161.136 110.396, 161.744 111.492 C 163.375 114.430, 163.972 113.151, 165.543 103.355 C 169.194 80.586, 172.067 32.191, 170.226 24.500 L 169.268 20.500 167.554 24.410 M 40.500 30.997 C 49.718 34.041, 68.233 38.003, 73.120 37.978 L 77.500 37.956 75.047 36.070 C 72.692 34.260, 54.274 30.817, 40 29.517 L 34.500 29.017 40.500 30.997 M 79.687 37.910 C 80.074 39.389, 81.610 40.192, 85.664 41.034 C 89.122 41.752, 92.351 43.247, 94.480 45.117 C 96.848 47.196, 98.059 47.713, 98.580 46.870 C 100.056 44.483, 92.685 40.089, 81.333 36.586 C 79.525 36.029, 79.252 36.248, 79.687 37.910 M 57 43.668 C 42.298 45.996, 29 49.978, 29 52.052 C 29 55.640, 70.569 56.893, 84.109 53.713 C 88.295 52.730, 92.518 51.342, 93.494 50.628 C 95.174 49.400, 95.150 49.217, 93.051 47.262 C 91.831 46.125, 88.871 44.701, 86.473 44.098 C 82.401 43.072, 62.587 42.784, 57 43.668 M 91.794 54.540 C 91.497 54.837, 87.075 55.877, 81.967 56.851 L 72.680 58.622 77.170 61.254 C 79.639 62.701, 82.251 64.597, 82.973 65.468 C 84.166 66.905, 84.471 66.887, 86.290 65.275 C 88.766 63.080, 94 56.004, 94 54.850 C 94 53.901, 92.626 53.708, 91.794 54.540 M 55.500 60.659 C 49.210 63.969, 43.864 70.485, 39.952 79.612 L 38.073 83.996 41.952 85.976 C 46.572 88.333, 50 92.796, 50 96.454 C 50 100.741, 47.525 104.349, 39.533 111.713 C 35.390 115.531, 32 118.957, 32 119.327 C 32 120.639, 48.710 119.935, 63.500 118 C 71.750 116.921, 81.106 116.029, 84.292 116.019 C 90.055 116, 102.886 113.754, 107.710 111.920 C 110.123 111.003, 109.832 110.703, 101.386 105.400 C 83.875 94.406, 66.505 80.522, 62.951 74.679 C 61.330 72.014, 61.247 71.324, 62.410 70.162 C 63.572 68.999, 64.700 69.202, 69.801 71.491 L 75.821 74.193 78.910 71.908 C 80.610 70.652, 82 69.281, 82 68.863 C 82 67.638, 75.817 63.270, 70.972 61.072 C 65.636 58.652, 59.619 58.491, 55.500 60.659 M 80.653 74 C 78.774 75.650, 76.718 77, 76.085 77 C 75.452 77, 72.698 75.867, 69.967 74.483 C 67.235 73.099, 65 72.395, 65 72.919 C 65 74.445, 78.933 86.638, 88.609 93.580 C 100.271 101.948, 103.356 102.096, 100.554 94.154 C 98.269 87.676, 86.952 71.073, 84.785 71.018 C 84.391 71.008, 82.532 72.350, 80.653 74 M 138.964 99.967 C 135.657 100.939, 118.042 110.316, 118.018 111.116 C 117.963 112.971, 141.813 121.682, 143.040 120.254 C 143.687 119.502, 147.178 100.793, 146.734 100.458 C 145.673 99.657, 141.018 99.363, 138.964 99.967 M 145 126.883 C 145 130.494, 145.092 130.525, 149.599 128.386 C 153.271 126.643, 154.065 125.008, 151.250 124.986 C 150.287 124.979, 148.488 124.701, 147.250 124.370 C 145.269 123.839, 145 124.139, 145 126.883 M 55.199 125.986 C 53.384 126.416, 51.712 126.955, 51.483 127.184 C 51.255 127.412, 55.440 129.319, 60.784 131.422 C 72.667 136.097, 76.220 138.448, 75.805 141.358 C 75.558 143.091, 73.796 144.064, 66.577 146.454 C 55.167 150.232, 50 154.657, 50 160.649 C 50 165.039, 53.175 172.001, 58.425 179.121 L 61.832 183.742 68.131 180.621 C 74.129 177.649, 74.983 177.504, 85.965 177.580 C 95.943 177.650, 100.334 178.303, 118.500 182.419 C 149.475 189.438, 157.160 188.546, 160.110 177.590 C 161.192 173.573, 160.814 167.918, 158.851 158.750 L 157.834 154 149.392 154 C 141.251 154, 140.916 154.091, 139.975 156.565 C 138.347 160.848, 138.855 163.256, 142.094 166.597 C 143.858 168.417, 145.036 170.574, 144.835 171.617 C 144.563 173.028, 142.624 171.541, 136.332 165.094 C 126.791 155.320, 130.504 155.553, 102.982 163.005 C 83.352 168.320, 79.548 168.870, 78.649 166.527 C 77.844 164.429, 81.990 159.897, 91.532 152.446 L 99.812 145.981 104.839 147.059 C 107.603 147.652, 111.358 147.994, 113.183 147.818 C 116.454 147.504, 116.380 147.420, 107.883 141.747 C 88.349 128.703, 68.633 122.805, 55.199 125.986 M 131.500 135 C 134.304 136.205, 141 136.205, 141 135 C 141 134.441, 138.464 134.031, 135.250 134.070 C 131.113 134.121, 130.061 134.382, 131.500 135 M 142.658 140.448 C 142.296 141.391, 142 143.414, 142 144.943 C 142 147.250, 142.383 147.671, 144.250 147.416 C 158.214 145.515, 163.374 144.628, 168.343 143.275 C 176.816 140.968, 173.603 139.821, 156.993 139.223 C 144.721 138.782, 143.249 138.908, 142.658 140.448 M 92.885 154.793 C 88.823 158.039, 84.643 161.664, 83.595 162.848 C 81.821 164.852, 81.812 165, 83.455 165 C 85.278 165, 123.111 154.960, 123.998 154.241 C 125.591 152.949, 119.842 151.217, 112.150 150.671 C 107.266 150.325, 102.595 149.782, 101.770 149.465 C 100.854 149.114, 97.393 151.189, 92.885 154.793 M 126.965 152.458 C 127.790 153.452, 129.180 153.722, 131.337 153.307 C 138.206 151.985, 138.508 151.127, 132.128 151.063 C 126.655 151.009, 125.926 151.206, 126.965 152.458 M 132.734 155.692 C 131.146 156.106, 131.196 156.338, 133.229 157.984 C 135.808 160.073, 137 159.744, 137 156.941 C 137 155.025, 136.196 154.790, 132.734 155.692" stroke="none" fill="black" fill-rule="evenodd"/>
</svg>