<svg xmlns="http://www.w3.org/2000/svg" width="200" height="200" viewBox="0 0 200 200" version="1.1">
	<path d="M 138.500 9.616 C 135.657 10.589, 79.669 13.837, 74.703 13.317 C 71.148 12.945, 67.282 13.199, 64.703 13.973 C 62.392 14.668, 59.862 15.423, 59.083 15.651 C 58.003 15.967, 57.943 16.343, 58.833 17.233 C 59.475 17.875, 60 19.644, 60 21.165 C 60 26.510, 71.361 35.680, 78.500 36.097 C 79.600 36.162, 75.325 36.826, 69 37.574 C 47.382 40.130, 32.359 44.737, 35.500 47.849 C 37.239 49.572, 48.109 51.937, 59.500 53.072 C 65.550 53.674, 72.075 54.406, 74 54.697 L 77.500 55.228 72.081 56.636 C 62.686 59.079, 56.385 64.274, 53.981 71.556 C 50.724 81.425, 63.118 93.844, 81.500 99.132 L 87.500 100.858 81.672 100.929 C 72.405 101.042, 52.125 103.024, 44.613 104.550 C 32.612 106.989, 29.502 111.175, 36.892 114.945 C 43.246 118.187, 56.782 121.302, 61.628 120.638 C 65.213 120.146, 66.378 120.447, 68.814 122.497 C 72.527 125.621, 74.281 131.899, 76.994 151.771 C 79.661 171.314, 81.850 178.493, 86.520 183.019 C 89.663 186.066, 90.670 186.466, 94.799 186.307 C 149.747 184.199, 156.027 183.183, 165.490 174.875 C 174.053 167.356, 175.624 155.650, 170.233 139.531 C 168.292 133.727, 167.542 130.045, 168.099 129.043 C 168.571 128.195, 170.191 118.050, 171.699 106.500 C 175.135 80.179, 175.682 43.184, 172.801 31.950 C 170.173 21.703, 167.009 14, 165.428 14 C 164.261 14, 163.997 16.510, 163.983 27.750 C 163.953 51.191, 160.870 72.316, 154.860 90.263 C 151.361 100.711, 146.067 113, 145.065 113 C 144.699 113, 143.407 110.959, 142.195 108.464 L 139.991 103.928 144.423 101.214 C 148.750 98.564, 148.871 98.348, 149.569 92.012 C 151.042 78.644, 149.039 57.408, 143.437 27 C 140.481 10.957, 139.958 9.117, 138.500 9.616 M 109.993 14.550 C 83.980 16.578, 85.303 16.201, 95.375 18.717 C 105.390 21.218, 108.293 22.789, 110.937 27.137 C 111.950 28.802, 114.447 31.299, 116.487 32.685 C 119.009 34.399, 119.869 35.531, 119.175 36.225 C 118.481 36.919, 117.158 36.537, 115.042 35.030 C 112.717 33.374, 111.597 33.090, 110.614 33.905 C 109.890 34.506, 107.120 35.296, 104.457 35.661 L 99.616 36.324 104.259 37.678 C 106.812 38.423, 109.191 39.500, 109.545 40.073 C 110.984 42.401, 108.831 46.014, 104.490 48.559 C 102.021 50.006, 100 51.329, 100 51.500 C 100 52.049, 108.287 50.920, 116 49.322 C 125.254 47.404, 130.788 44.687, 132.016 41.459 C 133.122 38.549, 135 38.195, 135 40.896 C 135 45.475, 120.636 53, 111.895 53 C 110.303 53, 109 53.161, 109 53.357 C 109 53.554, 111.199 55.916, 113.887 58.607 C 119.152 63.878, 120.984 68.360, 120.996 76 C 121.003 80.220, 121.274 80.671, 125.357 83.250 C 129.617 85.941, 138.508 94.822, 140.508 98.384 C 141.447 100.058, 141.700 100.007, 144.258 97.637 C 146.973 95.121, 147 94.969, 147 82.260 C 147 67.059, 145.209 51.470, 140.910 29.250 L 137.767 13 132.133 13.132 C 129.035 13.204, 119.072 13.842, 109.993 14.550 M 63 20.854 C 63 25.838, 68.779 30.520, 77.990 32.998 C 83.570 34.500, 96.377 34.479, 103.711 32.956 C 110.416 31.564, 110.120 31.134, 98 24.654 C 90.304 20.539, 88.520 20.010, 79.144 19.055 C 63.327 17.444, 63 17.480, 63 20.854 M 167.089 30 C 166.748 58.127, 160.712 86.741, 150.503 108.636 C 146.425 117.382, 146.286 117.991, 147.254 122.886 L 148.265 128 155.883 127.985 C 160.072 127.976, 164.006 127.639, 164.624 127.235 C 166.070 126.290, 166.543 123.841, 168.999 104.566 C 173.576 68.654, 173.599 46.180, 169.078 29.500 L 167.181 22.500 167.089 30 M 103 24.393 C 103 24.609, 103.698 25.054, 104.552 25.382 C 105.442 25.723, 105.843 25.555, 105.493 24.989 C 104.906 24.038, 103 23.583, 103 24.393 M 72 40.020 C 60.902 41.162, 51.898 42.707, 44.602 44.719 C 39.492 46.129, 39.009 46.459, 40.987 47.191 C 46.148 49.100, 62.445 51.094, 77 51.597 L 92.500 52.132 99.500 48.242 C 106.660 44.263, 108.491 41.823, 105.299 40.514 C 102.492 39.363, 81.423 39.051, 72 40.020 M 84.269 55.693 C 85.242 55.947, 86.592 55.930, 87.269 55.656 C 87.946 55.382, 87.150 55.175, 85.500 55.195 C 83.850 55.215, 83.296 55.439, 84.269 55.693 M 90.680 55.858 C 89.125 56.471, 89.415 56.932, 92.680 59.037 C 94.882 60.457, 97.444 63.371, 98.729 65.919 C 100.693 69.813, 101.925 70.792, 109.108 74.169 C 113.592 76.276, 117.482 78, 117.754 78 C 118.025 78, 118.045 75.552, 117.797 72.560 C 116.907 61.831, 109.065 54.926, 97.934 55.070 C 94.945 55.109, 91.681 55.463, 90.680 55.858 M 70.548 59.772 C 67.703 60.719, 63.803 63.138, 61.380 65.460 C 54.440 72.110, 54.347 77.167, 61.032 84.419 C 65.732 89.518, 75.337 94.876, 82.950 96.646 C 85.957 97.345, 88.558 97.776, 88.730 97.604 C 88.902 97.432, 87.232 94.580, 85.020 91.267 C 81.003 85.253, 78 78.297, 78 75.009 C 78 74.052, 78.975 72.030, 80.168 70.514 C 82.255 67.860, 82.605 67.776, 89.668 68.229 C 93.700 68.488, 97 68.378, 97 67.985 C 97 66.130, 92.243 61.561, 88.579 59.896 C 83.587 57.629, 77.119 57.584, 70.548 59.772 M 82.200 72.200 C 79.425 74.975, 82.413 83.437, 89.704 93.449 C 93.259 98.330, 93.322 98.364, 94.264 95.949 C 96.526 90.151, 97.977 83.109, 97.988 77.875 C 98 72.372, 97.932 72.236, 94.875 71.625 C 89.836 70.617, 83.495 70.905, 82.200 72.200 M 101 78.290 C 101 82.030, 100.194 85.941, 97.370 95.897 C 96.737 98.129, 96.891 98.246, 99.595 97.589 C 105.498 96.154, 111.255 92.631, 114.090 88.717 C 118.450 82.698, 118.031 81.545, 110.025 77.513 C 106.189 75.581, 102.589 74, 102.025 74 C 101.461 74, 101 75.930, 101 78.290 M 119.537 84.884 C 118.139 89.288, 112.959 94.842, 107.895 97.365 C 104.987 98.814, 103.291 100, 104.126 100 C 104.961 100, 108.087 98.696, 111.072 97.101 C 114.058 95.507, 117.925 93.904, 119.666 93.540 C 124.134 92.606, 130.426 94.557, 134.513 98.146 C 136.431 99.830, 138 100.876, 138 100.472 C 138 98.343, 133.364 92.800, 128.269 88.837 C 120.480 82.779, 120.239 82.670, 119.537 84.884 M 112.696 99.362 C 106.291 102.700, 106.125 102.728, 88.373 103.415 C 58.703 104.565, 37.299 107.527, 36.285 110.625 C 35.481 113.081, 53.750 118.379, 62.147 118.126 C 72.395 117.817, 75.677 122.884, 78.503 143.385 C 82.316 171.046, 84.614 179.207, 89.490 182.401 C 91.523 183.734, 94.770 183.798, 115.159 182.914 C 127.996 182.357, 141.848 181.213, 145.941 180.371 C 164.244 176.606, 172.209 167.583, 170.503 152.543 C 169.560 144.221, 164.868 131.379, 162.960 131.895 C 162.157 132.112, 158.746 133.215, 155.379 134.347 L 149.258 136.405 148.681 143.952 C 147.684 157.002, 144.394 164.133, 137.987 167.132 C 135.049 168.508, 132.600 168.646, 122.426 168.012 C 109.941 167.233, 106 166.102, 106 163.297 C 106 162.398, 111.287 156.232, 117.750 149.593 L 129.500 137.522 122.500 136.876 C 110.018 135.725, 100.451 132.144, 97.396 127.481 C 93.725 121.878, 100.269 115.625, 115.615 110.072 C 120.284 108.382, 125.251 107, 126.651 107 C 128.052 107, 130.749 106.264, 132.645 105.364 L 136.093 103.728 133.797 101.235 C 131 98.200, 126.087 96, 122.105 96 C 120.477 96, 116.243 97.513, 112.696 99.362 M 133.500 108.844 C 129.220 111.465, 123 118.653, 123 120.980 C 123 123.852, 127.540 126.381, 132.809 126.445 C 137.180 126.498, 137.498 126.302, 140.263 121.861 L 143.151 117.222 140.952 112.111 C 139.743 109.300, 138.247 107.002, 137.627 107.004 C 137.007 107.006, 135.150 107.834, 133.500 108.844 M 116.603 112.529 C 102.572 117.520, 96.690 122.790, 100.477 126.975 C 103.142 129.920, 111.762 132.790, 121.621 134.015 C 130.206 135.082, 130.395 135.059, 132.775 132.680 L 135.195 130.259 131.382 129.544 C 119.956 127.400, 117.268 120.593, 124.751 112.750 C 127.112 110.275, 127.180 110.004, 125.437 110.037 C 124.372 110.058, 120.396 111.179, 116.603 112.529 M 141.627 125.054 L 139.887 128 142.443 128 C 144.487 128, 145 127.510, 145 125.559 C 145 121.936, 143.593 121.726, 141.627 125.054 M 135.920 133.150 C 134.814 135.216, 134.919 135.274, 138.635 134.661 C 140.761 134.309, 143.287 134.017, 144.250 134.011 C 145.213 134.005, 146 133.325, 146 132.500 C 146 131.391, 144.837 131, 141.535 131 C 137.990 131, 136.833 131.443, 135.920 133.150 M 149 132 C 149 133.194, 151.721 133.194, 154.500 132 C 156.104 131.311, 155.758 131.127, 152.750 131.070 C 150.688 131.032, 149 131.450, 149 132 M 134.536 137.731 C 132.637 138.212, 109.022 161.777, 109.007 163.205 C 108.997 164.201, 113.906 164.831, 125.783 165.358 C 135.520 165.791, 136.218 165.687, 138.923 163.411 C 142.848 160.109, 145.105 153.934, 145.745 144.750 L 146.286 137 141.393 137.116 C 138.702 137.180, 135.616 137.456, 134.536 137.731" stroke="none" fill="black" fill-rule="evenodd"/>
</svg>