<svg xmlns="http://www.w3.org/2000/svg" width="200" height="200" viewBox="0 0 200 200" version="1.1">
	<path d="M 142.301 9.822 C 141.569 10.280, 142.314 13.752, 144.590 20.500 C 146.446 26, 147.972 31.360, 147.982 32.412 C 148.006 34.918, 144.818 45, 144.002 45 C 143.653 45, 142.372 43.228, 141.155 41.062 C 135.967 31.832, 125.256 23.800, 118.134 23.800 C 113.332 23.800, 110.998 26.767, 111.006 32.861 C 111.013 39.096, 112.379 43.675, 117.711 55.332 C 125.029 71.333, 125.671 81.969, 120.007 93.383 C 115.847 101.765, 115.790 101.788, 109.672 97.574 L 104.277 93.858 104.767 87.011 C 105.389 78.321, 102.756 72.196, 96.504 67.790 C 93.218 65.474, 92.404 64.336, 92.748 62.540 C 93.151 60.428, 93.812 60.210, 101.081 59.789 C 109.218 59.318, 113 57.532, 113 54.161 C 113 51.573, 103.881 43.697, 96.250 39.694 C 92.262 37.602, 89 35.310, 89 34.600 C 89 31.214, 81.826 28.154, 66.500 25.002 C 53.352 22.299, 45 21.483, 45 22.902 C 45 23.541, 45.608 24.296, 46.352 24.581 C 47.192 24.904, 47.521 26.057, 47.220 27.629 C 46.821 29.715, 47.887 31.279, 53.318 36.579 C 57.738 40.891, 60.694 43, 62.319 43 C 66.188 43, 81.652 40.116, 84.334 38.894 C 86.438 37.935, 87.800 38.312, 93.987 41.563 C 97.949 43.645, 103.286 47.291, 105.845 49.667 C 110.331 53.828, 110.429 54.040, 108.559 55.493 C 107.317 56.457, 104.436 56.999, 100.559 56.997 L 94.500 56.995 94.500 50.649 C 94.500 46.740, 93.973 43.670, 93.128 42.652 C 91.111 40.225, 85.113 40.604, 79.419 43.518 C 74.843 45.860, 73.315 46.060, 57.500 46.397 C 40.275 46.763, 34.686 47.771, 33.556 50.714 C 31.996 54.779, 41.093 58.697, 57.500 61.030 L 66.500 62.309 60.760 63.629 C 46.166 66.985, 36 75.819, 36 85.144 C 36 90.106, 39.604 96.437, 45.488 101.815 L 50.830 106.698 43.479 113.954 C 32.840 124.456, 30.515 130.978, 36.262 134.195 C 39.601 136.064, 53.961 135.510, 65.500 133.066 C 83.630 129.226, 85.316 129.055, 107.674 128.776 L 129.849 128.500 129.284 133.500 C 128.974 136.250, 128.606 138.639, 128.467 138.809 C 128.329 138.979, 125.804 138.450, 122.857 137.633 C 110.857 134.306, 88.646 134.853, 71.688 138.893 C 53.817 143.151, 54.680 148.523, 73.737 151.651 L 83.835 153.308 84.505 156.880 C 85.938 164.515, 90.181 176.062, 92.620 178.960 C 97.636 184.922, 101.782 182.450, 114.290 166.041 C 121.656 156.377, 128.699 150, 132.007 150 C 133.445 150, 134.112 151.222, 134.994 155.469 C 136.587 163.143, 141.478 172.423, 145.821 176.010 C 161.949 189.333, 180.988 171.980, 174.907 149.500 C 173.036 142.587, 168.798 134, 167.256 134 C 166.320 134, 166.009 134.580, 166.400 135.599 C 167.176 137.623, 160.910 134.052, 148.846 125.595 L 140.192 119.529 141.725 116.565 C 142.568 114.934, 143.810 110.428, 144.484 106.550 L 145.709 99.500 146.901 104 C 151.345 120.779, 155.144 127.263, 160.860 127.818 C 171.597 128.862, 180.846 98.951, 177.017 75.567 C 176.245 70.856, 176.367 68.692, 177.608 65.067 C 182.521 50.707, 178.825 27.303, 170.412 19.506 C 164.963 14.456, 156.928 17.438, 152.402 26.189 C 151.603 27.735, 150.779 29, 150.572 29 C 150.081 29, 146.010 15.598, 145.968 13.845 C 145.918 11.729, 143.498 9.074, 142.301 9.822 M 160.468 20.857 C 158.742 21.909, 156.093 25.247, 154.320 28.603 C 151.343 34.238, 151.238 34.833, 151.959 42 C 153.262 54.967, 150.521 76.079, 147.189 78.745 C 143.988 81.305, 151.718 116.716, 156.673 122.191 C 160.073 125.948, 161.624 126.187, 164.871 123.455 C 171.294 118.050, 175.631 99.700, 174.550 82.500 C 173.620 67.717, 173.596 68.244, 175.482 62 C 179.123 49.944, 175.792 29.271, 169.045 22.048 C 165.734 18.504, 164.587 18.344, 160.468 20.857 M 115.245 27.250 C 111.902 31.428, 113.390 39.356, 120.405 54.735 C 122.855 60.106, 125.355 67.283, 125.962 70.685 C 127.672 80.280, 125.308 91.546, 120.027 98.962 C 118.912 100.528, 118 102.220, 118 102.723 C 118 103.502, 130.356 113, 131.369 113 C 131.564 113, 132.034 109.963, 132.412 106.250 C 133.430 96.269, 138.630 66.663, 140.944 57.670 C 142.933 49.943, 142.934 49.791, 141.051 46.101 C 134.583 33.421, 119.261 22.230, 115.245 27.250 M 50 28.284 C 50 28.990, 52.445 31.983, 55.433 34.934 L 60.866 40.299 66.697 39.689 C 69.905 39.354, 74.970 38.556, 77.953 37.917 L 83.377 36.753 80.711 35.356 C 79.244 34.588, 73.365 32.393, 67.645 30.480 C 56.832 26.861, 50 26.011, 50 28.284 M 80 31.831 C 80.825 32.341, 82.625 33.059, 84 33.427 C 85.737 33.892, 86.042 33.813, 85 33.169 C 84.175 32.659, 82.375 31.941, 81 31.573 C 79.263 31.108, 78.958 31.187, 80 31.831 M 147.179 45.518 C 146.303 49.374, 146.341 51.739, 147.346 55.984 C 148.452 60.655, 148.743 61.100, 149.308 58.984 C 150.197 55.660, 150.053 44.995, 149.085 42.518 C 148.468 40.937, 148.081 41.546, 147.179 45.518 M 80.721 45.884 C 75.424 48.670, 74.650 48.784, 57.869 49.230 C 33.317 49.882, 30.273 51.746, 46.608 56.125 C 55.496 58.508, 81.887 59.891, 88 58.295 C 91.451 57.394, 91.504 57.299, 91.807 51.468 C 92.051 46.757, 91.758 45.296, 90.365 44.278 C 87.893 42.470, 86.894 42.636, 80.721 45.884 M 142.752 62.500 C 139.995 74.638, 138.110 85.046, 135.974 99.924 C 133.922 114.219, 133.921 114.366, 135.852 116.296 C 137.782 118.226, 137.810 118.224, 138.963 116.070 C 141.379 111.555, 142.966 100.178, 142.983 87.250 C 142.998 75.458, 143.791 71.417, 145.338 75.250 C 146.136 77.229, 145.882 60.780, 145.071 58 C 144.464 55.918, 144.076 56.671, 142.752 62.500 M 84 62 C 82.667 62.862, 82.667 62.973, 84 62.998 C 84.825 63.014, 86.513 63.299, 87.750 63.630 C 89.404 64.074, 90 63.805, 90 62.617 C 90 60.800, 86.425 60.433, 84 62 M 57.876 67.310 C 41.935 72.743, 35.784 81.421, 40.633 91.640 C 41.532 93.533, 45.168 97.700, 48.715 100.901 L 55.163 106.721 49.013 112.070 C 41.284 118.792, 35.747 126.196, 36.178 129.232 C 36.674 132.725, 42.121 133.629, 53.851 132.165 C 59.206 131.497, 67.393 129.950, 72.044 128.727 C 79.418 126.788, 83.187 126.492, 101.500 126.412 C 131.408 126.282, 129.550 126.668, 130.557 120.368 L 131.208 116.296 123.423 110.793 L 115.637 105.290 111.188 108.686 C 95.396 120.741, 85.158 114.369, 95.537 98.945 C 97.442 96.115, 99 93.685, 99 93.546 C 99 93.044, 85.004 84, 84.228 84 C 83.790 84, 82.619 85.376, 81.626 87.057 C 78.914 91.647, 73.188 97, 70.990 97 C 69.921 97, 68.385 95.987, 67.578 94.750 C 66.358 92.881, 64.472 83.074, 63.684 74.500 C 63.380 71.193, 68.034 71.471, 75.163 75.185 C 78.649 77, 81.815 78.631, 82.199 78.809 C 83.039 79.198, 88 69.662, 88 67.658 C 88 64.176, 67.756 63.942, 57.876 67.310 M 88.708 73.522 C 87.219 76.559, 86.006 79.597, 86.013 80.272 C 86.028 81.735, 100.787 91.547, 101.659 90.674 C 102.882 89.451, 102.118 79.128, 100.584 76.163 C 99.243 73.570, 93.293 68, 91.864 68 C 91.618 68, 90.198 70.485, 88.708 73.522 M 66.546 75.731 C 66.972 76.704, 67.626 80.781, 68 84.790 C 69.033 95.862, 71.271 96.694, 77.430 88.299 C 79.366 85.659, 80.962 83.009, 80.975 82.409 C 81 81.303, 73.814 77.020, 68.615 75.044 C 66.071 74.076, 65.853 74.149, 66.546 75.731 M 97.581 100.712 C 95.612 103.861, 94 107.689, 94 109.219 C 94 111.692, 94.360 111.999, 97.250 111.991 C 100.495 111.981, 109.526 107.481, 111.801 104.740 C 112.794 103.543, 111.975 102.570, 107.083 99.139 L 101.163 94.986 97.581 100.712 M 133 121.122 C 133 122.889, 133.250 123.038, 134.489 122.009 C 135.994 120.760, 135.673 119, 133.941 119 C 133.423 119, 133 119.955, 133 121.122 M 135.250 125.056 C 132.685 127.459, 132 128.904, 132 131.911 C 132 134.006, 131.716 137.795, 131.368 140.329 L 130.737 144.938 128.253 142.984 C 124.721 140.206, 119.876 139.040, 109 138.348 C 94.295 137.414, 68.218 140.917, 63.368 144.479 C 61.603 145.775, 61.666 145.915, 64.500 147.021 C 66.150 147.664, 71.633 148.692, 76.683 149.305 L 85.867 150.419 88.033 159.358 C 93.449 181.711, 97.362 183.891, 107.603 170.259 C 121.168 152.203, 127.632 146.471, 133.630 147.180 C 136.135 147.475, 136.452 148.041, 137.737 154.500 C 139.421 162.961, 143.407 170.395, 148.448 174.475 C 151.563 176.996, 153.074 177.500, 157.519 177.500 C 164.035 177.500, 167.521 175.257, 170.821 168.941 C 172.830 165.095, 173.084 163.428, 172.716 156.500 C 172.206 146.882, 169.839 140.427, 166.517 139.594 C 165.232 139.271, 158.627 135.293, 151.840 130.754 C 145.053 126.214, 139.275 122.390, 139 122.255 C 138.725 122.120, 137.037 123.380, 135.250 125.056" stroke="none" fill="black" fill-rule="evenodd"/>
</svg>