<svg xmlns="http://www.w3.org/2000/svg" width="200" height="200" viewBox="0 0 200 200" version="1.1">
	<path d="M 90 7.496 C 69.793 9.957, 53.436 13.751, 51.793 16.358 C 49.885 19.384, 64.844 28.227, 78.479 32.133 L 84.500 33.858 75.500 33.946 C 52.392 34.174, 33.407 37.890, 31.625 42.535 C 30.864 44.517, 32.435 47.627, 34.848 48.919 C 35.839 49.449, 50.791 50.165, 68.075 50.510 C 98.813 51.124, 99.579 51.189, 103.091 53.478 C 107.456 56.322, 109.465 60.707, 108.576 65.448 C 107.708 70.073, 106.794 70.446, 102.141 68.072 C 99.981 66.970, 95.128 65.195, 91.357 64.128 C 87.585 63.061, 81.575 60.948, 78 59.432 C 69.893 55.995, 57.936 54.947, 53.426 57.279 C 46.208 61.012, 44.680 66.337, 47.858 76.678 C 51.391 88.169, 52.624 89.500, 62.708 92.694 L 71.500 95.479 62.500 96.174 C 33.949 98.379, 20.495 105.620, 33.050 112.026 C 36.392 113.730, 45.549 116.493, 54.395 118.465 C 56.568 118.950, 57.004 119.396, 56.145 120.255 C 55.515 120.885, 55 122.585, 55 124.034 C 55 126.900, 58.505 131.022, 68.500 139.909 L 74.500 145.243 70.042 144.689 C 66.085 144.197, 65.053 144.525, 60.845 147.614 C 43.100 160.640, 52.576 176.502, 83.169 184.980 C 92.933 187.685, 105.594 189.288, 110.909 188.491 C 114.679 187.926, 116.188 186.926, 120.788 181.948 C 128.463 173.643, 133.307 171.487, 144 171.617 C 150.267 171.693, 154.602 172.410, 160.500 174.347 C 170.226 177.541, 174 177.764, 174 175.143 C 174 173.440, 171.026 169.096, 159.527 154 C 157.223 150.975, 153.887 144.675, 152.114 140 C 150.341 135.325, 147.790 129.822, 146.445 127.771 C 145.100 125.721, 144 123.879, 144 123.680 C 144 123.480, 145.709 122.805, 147.798 122.179 C 156.556 119.555, 164.448 112.014, 167.556 103.302 C 169.811 96.979, 169.361 84.927, 166.557 76.574 L 164.113 69.295 166.807 62.898 C 169.212 57.185, 169.497 55.270, 169.475 45 C 169.453 35.320, 169.079 32.572, 167.110 27.635 C 161.521 13.623, 149.158 8.332, 138.659 15.457 L 135.116 17.861 134.808 14.779 C 134.620 12.895, 133.528 10.983, 132 9.858 C 126.673 5.939, 110.330 5.020, 90 7.496 M 103.027 13.250 C 104.184 15.799, 104.965 19.747, 104.978 23.114 L 105 28.728 109.283 30.364 C 111.639 31.264, 113.932 32, 114.379 32 C 114.826 32, 116.524 32.949, 118.153 34.109 C 119.782 35.269, 121.225 36.057, 121.360 35.859 C 121.495 35.662, 122.429 34.150, 123.435 32.500 C 124.441 30.850, 126.443 27.931, 127.882 26.014 C 131.651 20.994, 133.127 15.626, 131.412 13.177 C 129.477 10.416, 122.596 9, 111.106 9 L 101.098 9 103.027 13.250 M 82.707 12.999 C 74.571 14.513, 67.706 15.961, 67.450 16.217 C 67.194 16.473, 70.701 17.700, 75.242 18.945 C 79.784 20.190, 87.647 22.690, 92.715 24.502 C 101.510 27.645, 101.958 27.708, 102.540 25.875 C 103.504 22.836, 99.862 9.792, 98.141 10.123 C 97.789 10.191, 90.843 11.486, 82.707 12.999 M 143.202 16.049 C 141.939 16.556, 139.410 18.111, 137.583 19.504 L 134.262 22.038 136.705 28.769 C 142.763 45.454, 145.835 67.036, 144.079 80.570 C 142.686 91.302, 141.513 95.010, 137.723 100.655 C 133.832 106.452, 128.393 109.686, 121.006 110.595 C 111.472 111.768, 111.089 112.215, 116.628 115.703 C 123.481 120.019, 128.406 121.395, 136.670 121.301 C 148.979 121.162, 158.709 115.367, 163.698 105.204 C 167.531 97.396, 167.494 86.810, 163.597 76.274 C 161.162 69.692, 161.051 68.800, 162.353 66.274 C 167.042 57.176, 168.499 41.258, 165.546 31.414 C 163.672 25.169, 159.039 18.588, 155.069 16.536 C 151.786 14.838, 146.736 14.631, 143.202 16.049 M 55 17.914 C 55 19.082, 69.271 26.353, 75.585 28.401 C 85.447 31.601, 99 32.551, 99 30.043 C 99 29.350, 73.100 20.922, 65.500 19.143 C 58.088 17.407, 55 17.045, 55 17.914 M 130.787 26.723 C 129.923 27.701, 127.847 30.680, 126.172 33.344 C 123.662 37.340, 123.311 38.588, 124.167 40.468 C 125.513 43.421, 123.812 46.758, 120.541 47.579 C 117.004 48.467, 113 58.980, 113 67.378 C 113 73.720, 113.009 73.740, 117.134 76.470 C 126.181 82.457, 133.118 90.350, 134.971 96.764 C 135.752 99.471, 135.784 99.449, 137.954 94.689 C 141.385 87.165, 142.637 74.119, 141.183 61.046 C 139.980 50.228, 136.440 34.612, 133.742 28.223 C 132.437 25.134, 132.268 25.048, 130.787 26.723 M 100 32.583 C 98.625 33.346, 95.025 34.034, 92 34.112 L 86.500 34.254 92.783 35.070 C 100.485 36.070, 102.559 36.702, 104.492 38.635 C 106.663 40.805, 104.791 43.719, 99.669 46.144 L 95.500 48.118 105 47.468 C 110.225 47.110, 115.014 46.394, 115.642 45.876 C 116.271 45.358, 117.351 43.567, 118.043 41.895 C 119.152 39.218, 119.070 38.626, 117.355 36.911 C 116.284 35.840, 114.529 34.781, 113.454 34.558 C 112.379 34.335, 109.531 33.443, 107.124 32.576 C 104.718 31.709, 102.693 31.044, 102.624 31.098 C 102.556 31.152, 101.375 31.820, 100 32.583 M 53.021 38.066 C 44.156 39.163, 35.385 41.568, 34.392 43.175 C 33.999 43.811, 34.633 45.094, 35.814 46.051 C 37.691 47.570, 40.815 47.793, 61.821 47.903 C 83.185 48.016, 86.385 47.816, 92.249 46.005 C 95.853 44.892, 99.848 43.134, 101.126 42.099 L 103.449 40.218 99.475 39.008 C 94.437 37.475, 62.960 36.836, 53.021 38.066 M 120.667 42.667 C 120.300 43.033, 120 43.798, 120 44.367 C 120 44.993, 120.466 44.934, 121.183 44.217 C 121.834 43.566, 122.134 42.801, 121.850 42.517 C 121.566 42.233, 121.033 42.300, 120.667 42.667 M 108.815 50 L 104.130 50.500 107.604 54.278 L 111.079 58.056 112.592 54.435 C 113.424 52.443, 113.969 50.518, 113.802 50.157 C 113.636 49.796, 111.392 49.725, 108.815 50 M 53.321 60.189 C 48.094 62.716, 47.851 71.729, 52.738 81.797 C 55.428 87.338, 55.682 87.549, 62.500 89.903 C 68.061 91.823, 71.659 92.338, 80 92.410 C 89.592 92.492, 90.997 92.256, 96.242 89.680 C 101.726 86.988, 102.059 86.604, 103.628 81.180 C 104.532 78.056, 105.484 74.935, 105.745 74.245 C 106.223 72.977, 98.189 68.782, 92.732 67.450 C 90.113 66.811, 90.015 66.909, 90.911 69.266 C 91.602 71.084, 91.462 72.323, 90.392 73.851 C 88.646 76.344, 80.354 79, 74.318 79 C 70.038 79, 70 78.969, 70 75.450 C 70 70.604, 72.394 66.365, 76.267 64.357 L 79.500 62.681 74.500 60.918 C 68.910 58.947, 56.755 58.529, 53.321 60.189 M 75.455 68.455 C 74.105 69.805, 73 72.055, 73 73.455 C 73 75.661, 73.433 75.999, 76.250 75.994 C 80.745 75.987, 86.540 74.259, 88.010 72.488 C 88.991 71.305, 88.908 70.509, 87.595 68.505 C 85.298 64.998, 78.937 64.972, 75.455 68.455 M 111 77.829 C 111 78.284, 109.537 80.845, 107.750 83.520 C 105.963 86.194, 103.783 91.109, 102.906 94.441 C 101.800 98.645, 100.882 100.393, 99.906 100.149 C 89.181 97.475, 66.170 97.668, 49 100.577 C 39.161 102.245, 31 105.122, 31 106.923 C 31 109.489, 47.456 114.840, 60.622 116.556 C 63.439 116.923, 66.309 117.573, 67 118 C 69.171 119.342, 67.038 121, 63.141 121 C 54.608 121, 56.011 124.925, 68.696 136.535 C 73.986 141.376, 77 144.886, 77 146.207 C 77 148.120, 76.578 148.236, 71.544 147.717 C 66.687 147.215, 65.667 147.458, 62.255 149.930 C 55.014 155.175, 52.749 161.916, 56.370 167.442 C 62.353 176.573, 93.033 187.308, 108.812 185.792 C 113.264 185.364, 114.272 184.741, 120.100 178.814 C 124.941 173.892, 127.771 171.886, 131.718 170.583 C 140.799 167.585, 153.060 168.582, 166.819 173.436 C 169.118 174.247, 171 174.587, 171 174.190 C 171 173.793, 166.975 168.301, 162.056 161.984 C 156.103 154.340, 152.381 148.494, 150.927 144.500 C 147.665 135.544, 143.139 126.990, 141.285 126.279 C 139.239 125.494, 137.819 127.566, 132.651 138.871 C 125.145 155.294, 118.175 163.940, 109.532 167.551 C 105.390 169.282, 92 169.541, 92 167.890 C 92 167.280, 94.146 164.432, 96.769 161.563 C 102.721 155.050, 107.815 145.626, 108.641 139.600 C 109.546 132.997, 107.012 127.096, 100.920 121.618 C 96.168 117.345, 84.649 111.680, 78.018 110.354 C 76.255 110.001, 75 109.120, 75 108.236 C 75 106.995, 75.948 106.836, 80.250 107.358 C 91.685 108.744, 105 109.278, 105 108.350 C 105 107.828, 104.438 106.799, 103.750 106.064 C 102.722 104.965, 102.944 104.839, 105 105.356 C 118.176 108.668, 122.867 108.600, 128.750 105.012 C 131.497 103.336, 132 102.442, 132 99.237 C 132 97.151, 131.258 94.332, 130.351 92.973 C 124.953 84.880, 111 73.961, 111 77.829 M 95.500 93.055 C 93.300 94.096, 90.600 95.014, 89.500 95.096 C 88.400 95.177, 90.169 95.633, 93.430 96.108 C 96.692 96.584, 99.441 96.867, 99.539 96.737 C 100.266 95.777, 100.880 91.017, 100.269 91.081 C 99.846 91.125, 97.700 92.014, 95.500 93.055 M 95.015 114.098 C 114.203 124.586, 116.526 140.304, 101.770 159.803 C 99.146 163.270, 97 166.307, 97 166.553 C 97 167.488, 101.843 166.939, 106.941 165.425 C 115.430 162.904, 120.364 157.126, 129.253 139.299 L 136.754 124.255 130.821 123.717 C 124.168 123.114, 116.086 119.549, 111.478 115.187 C 108.724 112.579, 107.620 112.271, 98.993 111.713 L 89.529 111.099 95.015 114.098" stroke="none" fill="black" fill-rule="evenodd"/>
</svg>