<svg xmlns="http://www.w3.org/2000/svg" width="200" height="200" viewBox="0 0 200 200" version="1.1">
	<path d="M 75.500 8.863 C 65.321 9.621, 64 10.152, 64 13.482 C 64 16.852, 68.442 21.683, 74.241 24.622 C 76.980 26.010, 80.260 28.351, 81.529 29.823 C 83.666 32.302, 83.704 32.549, 82.048 33.170 C 78.459 34.514, 50.616 35.276, 46.530 34.142 C 41.885 32.852, 39.592 34.170, 43.143 36.089 C 45.898 37.578, 60.455 37.836, 76.109 36.673 L 86.718 35.885 90.985 40.983 C 93.333 43.786, 94.934 46.400, 94.544 46.790 C 93.265 48.071, 68.011 48.232, 59.666 47.012 C 55.176 46.355, 48.135 44.748, 44.019 43.441 C 39.878 42.126, 36.153 41.447, 35.680 41.920 C 32.838 44.762, 58.701 50.979, 73.430 50.994 L 79.360 51 75.173 54.584 C 70.687 58.424, 66.519 64.762, 64.926 70.166 C 62.466 78.508, 64.354 89.555, 69.104 94.610 L 71.112 96.748 61.653 96.624 C 53.307 96.515, 51.835 96.764, 49.141 98.747 C 47.151 100.213, 43.550 101.346, 38.794 102.004 C 22.614 104.243, 18 105.685, 18 108.501 C 18 111.162, 24.051 112.493, 56.500 116.972 C 86.082 121.056, 87.623 121.603, 71 122.123 C 59.146 122.493, 56.891 122.847, 52.500 125.022 C 47.919 127.292, 47.473 127.827, 47.181 131.394 C 46.882 135.045, 47.293 135.710, 53.739 142.018 L 60.616 148.747 54.471 149.320 C 47.321 149.988, 43.573 151.402, 39.750 154.876 C 31.663 162.223, 41.225 177.363, 59.500 186.146 C 76.503 194.318, 90.154 193.422, 98.808 183.566 L 101.927 180.014 110.930 183.030 C 126.749 188.330, 140.731 188.749, 149.599 184.189 C 164.817 176.365, 163.133 160.431, 145.899 149.170 L 139.741 145.147 144.121 144.018 C 156.268 140.888, 162 138.275, 162 135.868 C 162 133.797, 156.152 131.768, 140.642 128.456 C 116.692 123.342, 111.474 120.708, 116.322 116.178 L 118.500 114.143 126.500 116.208 C 132.309 117.708, 137.923 118.304, 147 118.386 C 158.782 118.493, 159.827 118.339, 165.198 115.702 C 174.994 110.891, 177.949 102.328, 172.078 95.766 C 169.222 92.573, 168.969 92.500, 160.828 92.500 C 153.054 92.500, 152.124 92.267, 146.847 89 C 141.938 85.960, 141.113 84.995, 140.571 81.658 C 139.123 72.741, 130.410 61.904, 117.737 53.257 L 110.765 48.500 122.633 47.638 C 130.276 47.082, 138.564 47.162, 145.918 47.862 C 158.616 49.070, 162.243 48.287, 162.823 44.211 C 163.504 39.430, 150.959 31.663, 129.269 23.433 C 120.122 19.963, 117.046 18.299, 114.846 15.630 C 113.308 13.764, 110.126 11.463, 107.775 10.518 C 102.849 8.537, 89.244 7.839, 75.500 8.863 M 99 13.548 C 113.942 17.766, 112.675 17.544, 111.130 15.669 C 109.292 13.438, 100.708 10.983, 95.068 11.074 C 90.660 11.146, 90.797 11.233, 99 13.548 M 73.231 12.802 C 71.035 13.478, 71.110 13.668, 75.582 18.776 C 78.122 21.678, 81.438 24.692, 82.949 25.474 C 87.280 27.713, 98.132 29.357, 103.386 28.569 C 108.676 27.776, 115.278 22.917, 113.500 21.126 C 112.154 19.770, 86.770 13.206, 80.500 12.593 C 77.750 12.324, 74.479 12.418, 73.231 12.802 M 67 14.626 C 67 15.176, 68.350 16.919, 70 18.500 C 71.650 20.081, 73 20.924, 73 20.374 C 73 19.824, 71.650 18.081, 70 16.500 C 68.350 14.919, 67 14.076, 67 14.626 M 115.097 25.082 C 113.839 26.784, 111.390 28.794, 109.655 29.549 C 106.616 30.871, 106.778 30.923, 114.101 30.961 C 123.083 31.007, 128 32.434, 128 34.994 C 128 36.684, 123.669 41.054, 119.404 43.667 C 117.898 44.590, 120.577 44.840, 132.235 44.865 C 140.339 44.883, 149.668 45.203, 152.967 45.576 C 158.179 46.165, 159.055 46.020, 159.651 44.467 C 160.909 41.188, 150.145 34.590, 131.500 27.212 C 116.887 21.430, 117.718 21.538, 115.097 25.082 M 86.377 31.233 C 87.498 33.026, 91.036 33.438, 94.291 32.152 C 95.546 31.657, 94.464 31.149, 90.678 30.455 C 85.635 29.531, 85.347 29.583, 86.377 31.233 M 96.755 34.911 L 90.011 35.500 94.505 41.037 L 98.999 46.574 104.800 46.019 C 109.232 45.595, 112.315 44.447, 117.858 41.154 C 121.849 38.783, 124.939 36.316, 124.726 35.671 C 124.291 34.359, 108.108 33.919, 96.755 34.911 M 105.671 50.662 C 105.307 51.027, 107.282 52.856, 110.060 54.727 C 115.721 58.539, 115.964 58.949, 116.860 66.181 L 117.500 71.346 127.500 77.109 C 133 80.278, 137.643 82.472, 137.818 81.983 C 137.992 81.494, 137.224 79.035, 136.111 76.519 C 133.373 70.329, 124.086 60.741, 115.122 54.849 C 107.524 49.856, 106.799 49.535, 105.671 50.662 M 83.608 52.475 C 72.421 56.462, 63.809 73.150, 66.940 84.776 C 69.451 94.101, 77.038 98.609, 88.698 97.703 C 101.345 96.721, 125.295 94.038, 125.784 93.550 C 126.484 92.850, 124.119 87.403, 120.166 80.608 C 117.149 75.422, 116.618 74.943, 115.732 76.608 C 113.438 80.924, 110.648 83, 107.141 83 C 97.397 83, 84.016 69.986, 87.704 64.095 C 89.430 61.338, 95.299 61.653, 103.517 64.943 C 107.716 66.624, 111.353 68, 111.599 68 C 111.846 68, 109.533 64.659, 106.459 60.575 C 100.565 52.745, 97.696 50.964, 91.101 51.044 C 89.120 51.068, 85.749 51.712, 83.608 52.475 M 107.500 57 C 107.990 57.825, 109.690 60.300, 111.278 62.500 C 114.117 66.432, 114.161 66.451, 113.833 63.619 C 113.617 61.746, 112.295 59.821, 110.055 58.119 C 108.161 56.678, 107.011 56.175, 107.500 57 M 89 65.550 C 89 67.425, 92.556 72.320, 96.158 75.404 C 103.610 81.782, 110.726 82.094, 112.804 76.133 C 114.113 72.378, 113.725 72.031, 103.798 68.056 C 97.070 65.362, 89 63.995, 89 65.550 M 122 77.339 C 122 78.235, 129.179 92, 129.646 92 C 129.895 92, 131.372 91.342, 132.928 90.537 C 137.380 88.235, 137.462 86.310, 133.221 83.685 C 124.382 78.214, 122 76.867, 122 77.339 M 136.952 90.577 C 135.603 92.026, 133.488 93.603, 132.250 94.081 C 130.395 94.798, 130 95.714, 130 99.301 C 130 110.101, 120.049 111.243, 89 104.008 C 66.540 98.774, 53.811 98.003, 49.836 101.634 C 48.264 103.069, 45.537 103.986, 41.500 104.435 C 32.935 105.389, 23.637 107.148, 22.692 107.993 C 21.611 108.960, 29.682 110.467, 52.305 113.523 C 83.990 117.802, 91.916 119.733, 93.370 123.523 C 93.915 124.942, 92.957 125.046, 84.742 124.459 C 73.236 123.637, 56.717 125.385, 52.546 127.867 C 47.866 130.651, 48.840 133.366, 57.555 141.843 C 61.707 145.882, 64.932 149.707, 64.722 150.343 C 64.499 151.018, 61.028 151.749, 56.392 152.098 C 47.027 152.802, 41.637 155.048, 40.037 158.911 C 35.521 169.813, 61.314 189, 80.485 189 C 87.400 189, 95.167 185.118, 98.136 180.179 C 99.352 178.156, 100.425 176.382, 100.520 176.237 C 100.615 176.092, 103.124 177.031, 106.096 178.322 C 121.261 184.913, 138.021 186.424, 147.778 182.079 C 158.505 177.304, 160.591 168.016, 153.003 158.817 C 149.879 155.029, 138.501 147, 136.258 147 C 135.414 147, 135 148.655, 135 152.032 C 135 158.651, 132.831 163.753, 129.680 164.544 C 128.224 164.910, 123.915 164.112, 119.063 162.580 C 114.572 161.161, 109.907 160.010, 108.698 160.022 C 104.832 160.061, 98.493 163.607, 94.944 167.717 C 92 171.126, 90.736 171.805, 86.240 172.389 C 78.994 173.329, 73.208 171.678, 72.395 168.437 C 70.046 159.078, 101.358 138.969, 114.454 141.425 C 116.373 141.785, 118.555 142.954, 119.304 144.023 C 120.647 145.940, 120.836 145.933, 133.083 143.460 C 149.528 140.140, 158 137.587, 158 135.951 C 158 135.507, 153.613 134.166, 148.250 132.970 C 124.922 127.770, 121.271 126.816, 117.246 124.872 C 110.731 121.726, 110.273 117.024, 116.077 112.864 C 118.390 111.207, 118.842 111.223, 126 113.213 C 131.696 114.797, 136.627 115.323, 146.500 115.399 C 158.263 115.490, 159.957 115.275, 164.302 113.136 C 166.943 111.835, 169.830 109.662, 170.719 108.307 C 175.038 101.715, 170.677 94.943, 162.194 95.070 C 159.612 95.109, 156.600 95.495, 155.500 95.928 C 154.009 96.516, 152.042 95.728, 147.770 92.834 C 140.062 87.612, 139.767 87.551, 136.952 90.577 M 121.500 97.057 C 119.300 97.512, 114.518 97.911, 110.873 97.942 C 107.228 97.974, 100.928 98.757, 96.873 99.683 L 89.500 101.366 100 103.653 C 117.489 107.462, 126.275 106.579, 127.525 100.886 C 128.141 98.080, 127.530 95.892, 126.191 96.115 C 125.811 96.178, 123.700 96.602, 121.500 97.057 M 102.069 146.166 C 93.977 149.308, 85.336 154.670, 79.865 159.943 C 71.996 167.528, 73.870 171.005, 85.111 169.673 C 89.003 169.212, 90.604 168.436, 92.633 166.024 C 99.458 157.914, 108.896 155.835, 120.407 159.909 C 130.287 163.406, 131.094 162.878, 132.323 152.118 L 132.937 146.737 128.718 147.329 C 126.398 147.655, 123.150 148.195, 121.500 148.529 C 119.010 149.034, 118.330 148.743, 117.500 146.819 C 116.119 143.616, 109.370 143.331, 102.069 146.166" stroke="none" fill="black" fill-rule="evenodd"/>
</svg>