<svg xmlns="http://www.w3.org/2000/svg" width="200" height="200" viewBox="0 0 200 200" version="1.1">
	<path d="M 112 9.671 C 110.075 9.893, 99.950 11.178, 89.500 12.526 C 77.481 14.077, 68.571 14.747, 65.250 14.350 C 60.868 13.825, 60 13.983, 60 15.300 C 60 16.388, 61.166 17.001, 63.750 17.272 L 67.500 17.664 63.219 17.832 C 58.274 18.026, 57.019 19.799, 59.089 23.666 C 60.586 26.463, 75.145 39, 76.897 39 C 79.365 39, 77.605 36.853, 69.938 30.509 C 58.231 20.824, 57.973 19.034, 68.632 21.474 C 77.194 23.433, 100.294 31.039, 99.648 31.686 C 99.385 31.949, 97.024 32.711, 94.402 33.380 C 89.595 34.606, 87.188 37, 90.761 37 C 91.822 37, 95.347 36.118, 98.595 35.040 C 104.209 33.176, 104.758 33.160, 109.750 34.722 C 112.638 35.626, 115 36.685, 115 37.076 C 115 39.075, 108.811 39.508, 79 39.591 C 44.485 39.687, 41.864 40.010, 39.861 44.406 C 38.943 46.420, 39.117 47.453, 40.841 50.242 C 44.910 56.826, 45.990 57.311, 53.868 56.088 C 57.726 55.490, 63.670 55, 67.076 55 C 73.253 55, 73.263 55.005, 70.885 56.795 C 69.573 57.783, 66.578 59.430, 64.228 60.457 C 61.879 61.483, 58.166 64.265, 55.978 66.639 C 52.619 70.284, 52 71.628, 52 75.281 C 52 81.243, 55.586 87.920, 63.933 97.500 C 73.165 108.096, 74.042 109.747, 71.473 111.704 C 69.849 112.941, 67.045 113.109, 55.619 112.653 C 42.261 112.119, 41.554 112.192, 36.832 114.585 C 30.663 117.711, 28.756 121.201, 31.641 124.086 C 34.448 126.892, 42.753 128.891, 54.780 129.655 L 65.060 130.308 62.908 132.598 C 60.381 135.288, 60.764 139.464, 64.030 144.818 C 68.717 152.503, 80.810 154.311, 109.500 151.618 C 127.555 149.923, 134.828 150.347, 139.431 153.363 C 141.872 154.962, 142 155.490, 142 163.974 C 142 180.412, 145.022 188, 151.570 188 C 158.245 188, 166.580 177.270, 170.528 163.591 C 173.071 154.783, 172.246 142.801, 168.676 136.710 C 165.474 131.247, 164.394 130.428, 162.479 132.017 C 161.324 132.976, 160.046 132.411, 155.892 129.103 C 150.937 125.158, 150.847 125, 153.554 125 C 157.999 125, 164.896 121.115, 167.527 117.129 C 172.127 110.159, 172.772 103.509, 172.538 65.500 C 172.377 39.446, 171.986 29.605, 171.006 27 C 167.079 16.558, 159.688 11.467, 147 10.462 C 136.659 9.643, 116.238 9.181, 112 9.671 M 122 11.630 C 114.684 12.260, 82.523 16.147, 82.232 16.437 C 82.084 16.583, 85.564 17.481, 89.965 18.432 C 94.365 19.382, 100.336 21.362, 103.233 22.830 C 107.792 25.141, 108.505 25.901, 108.537 28.483 C 108.573 31.436, 108.717 31.511, 122.776 35.983 C 130.588 38.467, 136.984 40.897, 136.989 41.382 C 137.020 43.903, 132.464 49.032, 128.568 50.863 C 123.842 53.085, 114.083 54.980, 107.309 54.992 C 105.004 54.997, 102.866 55.407, 102.559 55.905 C 102.252 56.402, 104.483 58.210, 107.518 59.923 C 118.682 66.224, 125.004 74.104, 124.996 81.710 C 124.993 85.099, 123.891 87.537, 119.800 93.202 C 119.124 94.138, 118.790 95.038, 119.059 95.202 C 119.327 95.366, 122.096 97.932, 125.212 100.905 L 130.877 106.310 133.505 104.588 C 140.231 100.182, 140.001 101.170, 139.992 76.750 C 139.988 64.512, 139.488 51.575, 138.880 48 C 138.272 44.425, 137.706 35.118, 137.621 27.317 C 137.537 19.517, 137.198 12.865, 136.869 12.536 C 136.029 11.696, 127.366 11.168, 122 11.630 M 144 15.703 C 144 17.342, 143.315 20.891, 142.478 23.591 C 141.326 27.310, 141.109 30.924, 141.585 38.500 C 142.141 47.358, 142.600 49.204, 145.606 54.662 C 150.157 62.926, 151.838 73.326, 150.126 82.620 C 148.956 88.970, 146.214 95.764, 143.516 99 C 142.828 99.825, 141.970 103.843, 141.609 107.928 C 140.957 115.306, 140.975 115.379, 144.173 118.678 C 146.845 121.435, 148.130 122, 151.728 122 C 160.833 122, 165.786 117.758, 168.400 107.723 C 169.962 101.727, 170.006 100.035, 169.704 58.500 L 169.500 30.500 166.500 24.500 C 162.945 17.389, 158.457 14.424, 149.693 13.394 L 144 12.725 144 15.703 M 140.063 17.050 C 140.123 20.292, 140.185 20.354, 141.094 18.080 C 141.734 16.478, 141.713 15.313, 141.030 14.630 C 140.323 13.923, 140.020 14.682, 140.063 17.050 M 82 22.406 C 89.425 24.785, 97.494 27.475, 99.931 28.385 C 104.260 30.001, 106.988 29.407, 105.594 27.152 C 104.529 25.428, 94.668 22.187, 83.963 20.041 C 68.014 16.843, 67.304 17.698, 82 22.406 M 117 38.362 C 117 38.958, 114.200 42.271, 110.779 45.723 L 104.558 52 109.230 52 C 118.901 52, 130.820 48.072, 132.891 44.203 C 133.738 42.621, 132.871 42.115, 125.425 39.846 C 120.285 38.279, 117 37.701, 117 38.362 M 47 42.752 C 41.406 43.736, 40.651 46.493, 44.750 50.977 L 47.500 53.985 57.500 52.890 C 63.076 52.279, 74.816 52.023, 84.038 52.313 L 100.576 52.831 105.122 47.666 L 109.668 42.500 79.584 42.406 C 63.038 42.354, 48.375 42.510, 47 42.752 M 76.777 56.992 C 75.279 57.444, 72.856 58.755, 71.392 59.906 C 69.928 61.058, 68.228 62.002, 67.615 62.004 C 65.845 62.011, 58.033 67.508, 56.322 69.950 C 54.028 73.225, 54.479 79.444, 57.364 84.307 C 58.732 86.613, 63.076 92.291, 67.017 96.924 C 77.386 109.115, 78.035 111.830, 71.264 114.668 C 68.172 115.964, 65.238 116.124, 54.830 115.562 C 43.252 114.936, 41.815 115.054, 38.148 116.924 C 33.373 119.361, 32.433 120.612, 33.979 122.475 C 36.850 125.934, 61.687 128.350, 80.046 126.957 C 87.237 126.411, 95.967 124.982, 101.770 123.401 C 109.985 121.163, 113.414 120.769, 124.133 120.829 C 136.246 120.897, 136.817 120.808, 137.351 118.767 C 138.162 115.663, 131.476 109.785, 128 110.546 C 121.589 111.950, 109.859 112.166, 104.847 110.974 C 98.842 109.545, 88 105.098, 88 104.063 C 88 103.691, 91.092 102.645, 94.872 101.737 C 102.719 99.854, 113 95.564, 113 94.173 C 113 93.658, 108.640 89.068, 103.311 83.973 L 93.621 74.710 91.164 80.400 C 88.006 87.712, 85.972 87.591, 84.273 79.990 C 83.598 76.970, 82.567 72.515, 81.983 70.089 C 80.447 63.706, 81.895 62.836, 87.491 66.780 L 91.991 69.952 94.495 65.009 C 95.873 62.291, 97 59.639, 97 59.116 C 97 56.832, 82.400 55.298, 76.777 56.992 M 142.393 57.582 C 142.727 58.452, 143.038 67.114, 143.084 76.832 L 143.169 94.500 145.122 90.251 C 148.740 82.380, 148.565 66.725, 144.767 58.388 C 143.573 55.767, 141.415 55.034, 142.393 57.582 M 97.517 64.967 C 96.133 67.698, 95.006 70.511, 95.012 71.217 C 95.019 71.923, 99.780 76.954, 105.592 82.398 L 116.158 92.296 118.586 89.869 C 124.058 84.397, 123.210 76.882, 116.322 69.804 C 112.584 65.964, 103.352 60, 101.145 60 C 100.534 60, 98.901 62.235, 97.517 64.967 M 85.344 70.644 C 85.646 72.215, 86.207 75.525, 86.591 78 L 87.289 82.500 89.071 78.500 C 91.493 73.060, 91.443 72.704, 87.897 70.082 L 84.795 67.788 85.344 70.644 M 112.500 98.080 C 110.850 99.144, 106.463 101, 102.750 102.204 C 99.037 103.408, 96 104.705, 96 105.086 C 96 105.466, 98.859 106.552, 102.353 107.498 C 108.804 109.244, 124.940 109.395, 126.609 107.725 C 127.321 107.012, 117.244 95.908, 116.034 96.073 C 115.740 96.113, 114.150 97.016, 112.500 98.080 M 135.728 106.388 L 132.956 108.610 135.452 110.955 C 137.556 112.931, 138.041 113.056, 138.544 111.745 C 138.872 110.890, 138.997 108.835, 138.820 107.178 L 138.500 104.166 135.728 106.388 M 140 120.500 C 140 121.325, 140.730 122, 141.622 122 C 142.951 122, 143.020 121.729, 142 120.500 C 141.315 119.675, 140.585 119, 140.378 119 C 140.170 119, 140 119.675, 140 120.500 M 110.763 124.033 C 108.158 124.471, 103.883 125.531, 101.263 126.387 C 98.644 127.243, 94.566 128.242, 92.202 128.607 L 87.905 129.271 101.116 135.277 C 121.699 144.634, 127.255 144.181, 133.001 132.682 C 134.650 129.381, 136 126.140, 136 125.480 C 136 123.252, 120.634 122.371, 110.763 124.033 M 137.371 130.088 C 135.021 136.623, 129.941 142.534, 125.381 144.039 C 120.054 145.797, 114.965 144.577, 100.500 138.073 C 83.834 130.580, 80.833 129.666, 74.809 130.244 C 65.673 131.122, 61.984 136.301, 65.935 142.701 C 69.534 148.531, 72.776 149.503, 88.500 149.472 C 96.200 149.456, 109.342 149.050, 117.704 148.568 C 131.100 147.797, 133.448 147.899, 137.455 149.430 C 144.116 151.974, 144.999 153.791, 145.006 164.973 C 145.013 178.120, 147.492 186, 151.620 186 C 153.708 186, 159.854 180.105, 162.534 175.533 C 169.202 164.155, 171.379 148.507, 167.414 140.459 C 166.341 138.281, 164.895 136.617, 164.201 136.760 C 162.275 137.157, 158.056 134.640, 152.168 129.581 C 147.850 125.871, 146.111 125, 143.019 125 C 139.335 125, 139.137 125.179, 137.371 130.088" stroke="none" fill="black" fill-rule="evenodd"/>
</svg>