<svg xmlns="http://www.w3.org/2000/svg" width="200" height="200" viewBox="0 0 200 200" version="1.1">
	<path d="M 95.594 11.213 C 53.989 13.143, 54 13.141, 54 19.339 C 54 23.637, 61.667 30.819, 69.506 33.864 C 79.191 37.626, 100.809 38.048, 104.314 34.543 C 105.377 33.481, 106.074 33.469, 107.972 34.485 C 110.293 35.727, 110.276 35.755, 106.409 37.120 C 103.397 38.183, 95.146 38.500, 70.459 38.500 C 41.471 38.500, 38.160 38.669, 35.709 40.273 C 34.219 41.248, 33.010 42.598, 33.022 43.273 C 33.061 45.407, 36.319 48.737, 41.983 52.431 L 47.466 56.008 56.733 55.356 C 66.440 54.674, 68.330 55.480, 62.782 57.936 C 61.012 58.720, 57.599 61.172, 55.198 63.385 C 40.764 76.690, 44.868 92.815, 65.996 105.818 L 73.623 110.512 57.561 110.506 C 40.069 110.499, 35.375 111.436, 32.112 115.584 C 29.643 118.724, 30.362 121.328, 34.681 124.888 C 40.474 129.664, 53.996 132.524, 64.185 131.130 L 69.869 130.353 68.329 133.331 C 67.482 134.969, 64.799 139.413, 62.368 143.206 C 57.429 150.911, 57.455 153.118, 62.447 150.033 C 67.142 147.131, 71.270 147.420, 75.270 150.932 C 79.022 154.226, 83.133 162.087, 84.897 169.339 C 86.359 175.353, 89.454 182.037, 92.082 184.858 C 96.752 189.871, 102.502 185.591, 105.906 174.568 C 110.016 161.261, 110.576 140.682, 107.009 134.017 C 106.365 132.813, 106.026 131.641, 106.256 131.410 C 107.371 130.295, 119.146 128.847, 124.166 129.208 C 131.812 129.758, 133.335 131.162, 132.761 137.136 C 132.209 142.885, 129.164 149.251, 120.390 163 C 111.171 177.448, 108.551 183.292, 110.043 186.080 C 111.694 189.166, 117.344 188.182, 123.584 183.721 C 134.030 176.255, 143.339 174.401, 159.639 176.541 C 177.800 178.925, 178.177 176.834, 163.961 152.512 C 156.571 139.870, 151.362 133.998, 144 130.013 L 138.500 127.036 142.500 127.013 C 156.109 126.932, 164.339 119.143, 165.523 105.222 C 165.791 102.075, 166.744 90.950, 167.641 80.500 C 169.691 56.619, 169.855 38.227, 168.081 31 C 164.267 15.456, 155.323 8.543, 139.862 9.189 C 136.363 9.335, 116.442 10.246, 95.594 11.213 M 104 13.560 C 90.525 14.257, 78.150 14.919, 76.500 15.032 C 74.850 15.145, 79.175 16.055, 86.112 17.054 C 102.026 19.347, 105.151 20.149, 104.192 21.694 C 103.671 22.534, 102.269 22.641, 99.475 22.055 C 85.967 19.220, 85.869 19.646, 98.500 26.313 C 105.100 29.796, 112.408 33.854, 114.740 35.329 L 118.980 38.012 125.497 25.006 C 130.691 14.641, 131.658 12.030, 130.257 12.146 C 129.291 12.227, 117.475 12.863, 104 13.560 M 135.592 12.851 C 135.234 13.430, 136.079 20.113, 137.470 27.702 C 144.760 67.486, 145.645 89.850, 140.442 102.853 L 138.904 106.697 128.394 109.099 C 122.613 110.419, 117.805 111.950, 117.710 112.500 C 117.614 113.050, 120.320 115.603, 123.723 118.172 C 128.750 121.969, 130.969 122.977, 135.563 123.551 C 143.330 124.522, 151.863 123.490, 154.941 121.209 C 160.411 117.154, 164.032 106.420, 163.978 94.418 C 163.966 91.713, 164.735 79.965, 165.688 68.312 C 167.727 43.368, 166.945 32.495, 162.450 23.308 C 158.602 15.442, 153.891 12.602, 143.944 12.150 C 139.254 11.936, 135.988 12.211, 135.592 12.851 M 56.752 18.156 C 55.273 22.319, 63.902 29.479, 73.932 32.412 C 79.507 34.042, 95.600 34.429, 101.500 33.075 C 104.357 32.419, 104.048 32.156, 95 27.556 C 81.349 20.615, 74.587 18.325, 65.365 17.521 C 58.967 16.964, 57.127 17.099, 56.752 18.156 M 127.155 28.050 C 124.320 34.140, 122 39.498, 122 39.955 C 122 40.412, 122.651 41.036, 123.448 41.342 C 124.244 41.647, 125.602 43.263, 126.465 44.932 C 127.935 47.775, 127.909 48.091, 126.042 49.958 C 124.947 51.053, 122.914 52.186, 121.525 52.475 C 120.136 52.764, 117.952 53.214, 116.670 53.476 C 115.328 53.751, 113.556 55.410, 112.490 57.389 L 110.639 60.825 113.887 64.524 C 117.988 69.195, 119.173 72.284, 119.140 78.226 C 119.111 83.686, 116.474 90.209, 111.496 97.138 C 107.323 102.947, 107.229 103.927, 110.545 107.042 L 113.089 109.432 121.532 107.694 C 135.810 104.755, 137.308 104.046, 138.837 99.497 C 140.841 93.533, 141.427 76.792, 140.083 63.901 C 138.975 53.271, 133.331 17.998, 132.626 17.292 C 132.452 17.118, 129.989 21.959, 127.155 28.050 M 109.521 39.752 C 107.141 42.132, 103 48.932, 103 50.460 C 103 50.757, 105.156 51, 107.792 51 L 112.583 51 115.201 45.662 L 117.819 40.324 115.031 38.677 C 112.327 37.080, 112.160 37.113, 109.521 39.752 M 97 41.060 C 92.875 41.375, 78.700 41.441, 65.500 41.206 C 41.407 40.778, 35.304 41.412, 36.249 44.246 C 36.475 44.925, 39.432 47.337, 42.821 49.608 C 48.547 53.444, 49.281 53.677, 53.241 52.911 C 55.583 52.458, 59.139 52.068, 61.143 52.044 C 63.565 52.015, 64.997 51.451, 65.414 50.364 C 65.963 48.934, 66.260 48.908, 67.771 50.154 C 69.147 51.290, 72.566 51.504, 84.522 51.203 L 99.543 50.826 102.259 45.733 C 103.752 42.933, 104.868 40.606, 104.737 40.564 C 104.607 40.522, 101.125 40.745, 97 41.060 M 118.308 46.302 L 116.144 50.757 119.694 49.956 C 124.864 48.790, 125.497 47.690, 122.803 44.557 L 120.472 41.848 118.308 46.302 M 101.008 54.750 C 101.014 55.393, 103.541 56.881, 107.572 58.616 C 108.161 58.870, 109.164 57.935, 109.800 56.539 C 110.955 54.006, 110.946 54, 105.979 54 C 103.240 54, 101.004 54.337, 101.008 54.750 M 77.500 55.892 C 75.300 56.226, 73.500 57.035, 73.500 57.689 C 73.500 58.342, 76.819 63.698, 80.875 69.591 C 86.763 78.144, 88.433 79.978, 89.156 78.685 C 90.880 75.605, 97.060 57.727, 96.571 57.237 C 94.842 55.508, 84.720 54.794, 77.500 55.892 M 71.583 67.117 C 75.024 79.949, 79.543 89.214, 82.163 88.808 C 83.252 88.638, 84.842 87.341, 85.697 85.924 C 87.220 83.402, 87.073 83.095, 78.534 70.924 C 73.740 64.091, 69.648 58.328, 69.442 58.117 C 69.236 57.906, 70.199 61.956, 71.583 67.117 M 99.124 60.218 C 91.314 81.176, 90.842 82.837, 92.051 85.096 C 93.237 87.311, 93.295 87.318, 94.715 85.430 C 96.550 82.992, 107.230 61.882, 106.811 61.522 C 106.640 61.375, 105.032 60.508, 103.237 59.595 C 100.050 57.974, 99.955 57.988, 99.124 60.218 M 63.500 60.741 C 57.608 63.813, 54.060 67.239, 51.549 72.278 C 48.667 78.060, 48.510 79.580, 50.194 85.384 C 51.955 91.453, 62.545 101.496, 72.197 106.250 C 76.384 108.313, 80.264 110, 80.818 110 C 81.373 110, 84.163 105.668, 87.017 100.374 C 91.630 91.816, 92.078 90.466, 91.050 88.209 L 89.893 85.671 87.003 88.836 C 85.413 90.576, 83.266 92, 82.231 92 C 77.943 92, 73.056 83.103, 69.047 68 C 67.806 63.325, 66.725 59.427, 66.645 59.338 C 66.565 59.249, 65.150 59.880, 63.500 60.741 M 102.873 76.037 C 99.376 82.891, 96.398 88.950, 96.253 89.500 C 96.109 90.050, 98.130 92.902, 100.745 95.838 L 105.500 101.175 110.077 94.243 C 118.134 82.038, 118.701 74.174, 112.061 66.743 L 109.229 63.573 102.873 76.037 M 89.120 102.250 C 85.342 109.203, 84.455 111.580, 85.547 111.823 C 87.983 112.365, 87.166 114.847, 84.440 115.184 C 82.559 115.416, 81.095 116.862, 78.926 120.631 L 75.972 125.762 82.736 123.282 C 90.681 120.370, 105.551 119.248, 116.390 120.745 L 123.280 121.696 118.390 117.386 C 113.884 113.415, 113.058 113.074, 107.872 113.038 C 100.506 112.988, 98.849 111.294, 101.446 106.470 L 103.265 103.094 99.039 98.047 C 96.715 95.271, 94.664 93, 94.480 93 C 94.296 93, 91.884 97.162, 89.120 102.250 M 104.200 107.200 C 102.170 109.230, 102.845 110, 106.655 110 C 110.247 110, 110.279 109.965, 108.500 108 C 106.396 105.675, 105.830 105.570, 104.200 107.200 M 40.374 114.071 C 38.105 114.620, 35.447 115.953, 34.469 117.034 C 32.762 118.921, 32.767 119.085, 34.595 121.106 C 37.471 124.286, 42.887 126.709, 50.054 128.022 C 56.674 129.234, 67.864 128.678, 71.037 126.980 C 72.955 125.954, 79.439 115.106, 78.623 114.289 C 77.618 113.285, 44.410 113.095, 40.374 114.071 M 88.500 124.442 C 75.405 127.772, 74.527 128.466, 66.286 142 L 64.154 145.500 69.028 145.506 C 73.233 145.511, 74.394 145.989, 77.488 148.988 C 81.497 152.874, 84.919 159.548, 87.470 168.457 C 89.621 175.967, 93.439 183.571, 95.446 184.341 C 99.266 185.807, 104.048 175.099, 106.093 160.500 C 108.112 146.085, 105.440 130.841, 101.182 132.489 C 96.807 134.182, 94 134.249, 94 132.660 C 94 130.656, 97.024 129, 100.685 129 C 102.233 129, 106.651 128.333, 110.500 127.517 C 123.132 124.842, 131.383 125.884, 134.434 130.540 C 138.073 136.093, 135.325 144.439, 123.851 162.675 C 115.418 176.078, 112 182.218, 112 183.960 C 112 186.173, 116.760 184.819, 122.500 180.973 C 125.800 178.762, 131.594 176.003, 135.376 174.841 C 141.318 173.016, 143.694 172.818, 152.876 173.383 C 158.719 173.743, 165.255 174.311, 167.400 174.646 L 171.301 175.254 170.645 171.976 C 169.702 167.259, 157.257 145.627, 152.233 139.971 C 146.148 133.122, 131.293 125.655, 120.709 124.126 C 110.631 122.670, 94.859 122.824, 88.500 124.442" stroke="none" fill="black" fill-rule="evenodd"/>
</svg>