<svg xmlns="http://www.w3.org/2000/svg" width="200" height="200" viewBox="0 0 200 200" version="1.1">
	<path d="M 61.104 10.082 C 48.648 11.283, 47.139 14.013, 58.332 15.098 L 64.500 15.695 58.500 15.861 C 50.525 16.082, 48 16.848, 48 19.045 C 48 24.306, 99.662 35.592, 102.527 30.956 C 103.592 29.233, 100.847 26.844, 94.500 23.969 L 88.500 21.252 93.500 21.754 C 102.252 22.632, 119.413 31.166, 121.946 35.899 C 124.170 40.054, 116.036 43.553, 99.852 45.403 C 95.564 45.893, 95.245 45.777, 95.732 43.915 C 96.186 42.182, 95.906 41.986, 93.750 42.527 C 91.578 43.072, 90.987 42.640, 89.370 39.328 C 86.461 33.373, 83.645 32.833, 54.591 32.654 C 35.445 32.536, 29.584 32.789, 29.258 33.750 C 28.927 34.723, 33.452 35.007, 49.667 35.033 C 72.151 35.068, 83.534 36.064, 85.527 38.170 C 86.219 38.901, 87.057 40.410, 87.388 41.523 C 87.927 43.331, 87.303 43.676, 81.522 44.773 C 77.964 45.448, 72.613 46, 69.632 46 C 61.971 46, 44.757 44.158, 36.540 42.459 C 32.550 41.634, 29.206 41.394, 28.703 41.897 C 28.220 42.380, 28.206 43.009, 28.671 43.297 C 30.499 44.427, 44.947 46.946, 53 47.539 C 57.675 47.883, 62.113 48.358, 62.862 48.594 C 63.610 48.830, 61.022 50.625, 57.109 52.582 C 46.091 58.094, 42.024 65.035, 45.509 72.378 C 49.156 80.063, 61.021 87.162, 74.920 89.976 L 83.374 91.687 70.437 93.094 C 54.548 94.821, 30.368 94.876, 23.104 93.202 C 20.136 92.518, 17.553 92.113, 17.364 92.303 C 16.479 93.188, 31.720 108.315, 37.149 111.941 C 50.315 120.733, 66.799 122.314, 85 116.531 C 93.069 113.967, 122 102.190, 122 101.470 C 122 101.283, 121.551 99.950, 121.003 98.508 C 119.632 94.902, 121.439 96.232, 122.987 99.968 C 124.194 102.882, 124.050 103.178, 118.566 109.103 C 115.448 112.470, 113.033 115.925, 113.198 116.780 C 113.364 117.635, 114.850 118.782, 116.500 119.329 C 118.150 119.877, 119.950 120.859, 120.500 121.512 C 121.050 122.166, 125.888 123.967, 131.250 125.516 C 137.578 127.343, 141 128.821, 141 129.726 C 141 130.839, 139.637 131.003, 134.250 130.536 C 106.154 128.101, 54.857 127.861, 45.810 130.122 C 43.507 130.698, 41.881 131.799, 41.483 133.053 C 40.831 135.108, 41.566 136.523, 50.553 150.500 C 56.134 159.180, 59.655 170.030, 60.576 181.389 L 61.282 190.084 63.391 188.159 C 68.228 183.744, 72.142 182.594, 83.500 182.250 C 92.447 181.979, 96.646 182.390, 106 184.448 C 112.325 185.840, 123.125 187.944, 130 189.122 C 140.998 191.007, 143.220 191.114, 148.488 190.012 C 153.121 189.043, 155.305 187.930, 158.142 185.093 C 164.081 179.155, 164.744 174.226, 162.707 151.154 C 162.527 149.116, 163.264 148.570, 168.329 146.988 C 182.085 142.692, 180.966 137.093, 165.915 134.912 C 161.837 134.321, 155.800 133.863, 152.500 133.895 C 147.851 133.939, 147.007 133.739, 148.750 133.008 C 151.905 131.685, 151.554 130.232, 147.626 128.359 C 145.488 127.339, 144.369 126.155, 144.571 125.125 C 144.746 124.231, 145.155 121.841, 145.478 119.814 C 146.046 116.258, 146.265 116.087, 151.666 114.966 C 154.746 114.326, 158.522 114.054, 160.057 114.361 C 162.831 114.916, 162.853 114.880, 163.400 108.710 C 165.349 86.721, 167.107 38.201, 166.324 28.041 C 165.610 18.792, 164.850 17.015, 162.278 18.589 C 159.116 20.525, 154.982 39.797, 147.604 87 L 143.461 113.500 134.753 114.939 C 129.964 115.731, 125.811 116.145, 125.525 115.859 C 125.239 115.573, 125.483 112.753, 126.067 109.593 C 126.802 105.620, 128.236 102.406, 130.718 99.174 C 132.692 96.603, 135.700 91.575, 137.403 88 C 140.140 82.255, 140.516 80.397, 140.637 72 C 140.712 66.775, 141.320 61.150, 141.988 59.500 C 145.439 50.979, 146.177 47.980, 146.212 42.324 C 146.325 23.976, 129.214 13.292, 94.500 10.034 C 82.179 8.878, 73.466 8.890, 61.104 10.082 M 65 12.408 C 65 13.775, 79.286 17.367, 89.291 18.515 C 99.500 19.687, 102.206 20.412, 109.457 23.922 C 119.174 28.626, 125 33.600, 125 37.194 C 125 42.496, 117.040 46.425, 103.804 47.655 C 100.062 48.003, 97 48.631, 97 49.051 C 97 49.470, 100.576 51.543, 104.947 53.657 C 110.052 56.125, 113.088 58.215, 113.434 59.500 C 114.442 63.242, 114.004 69.758, 112.413 74.684 L 110.826 79.597 114.424 85.734 C 116.402 89.110, 118.922 92.158, 120.023 92.507 C 121.124 92.857, 123.115 94.746, 124.447 96.707 L 126.869 100.271 130.875 94.072 C 136.579 85.247, 138.186 79.690, 137.898 69.783 C 137.699 62.928, 138.032 60.773, 139.832 57.283 C 145.362 46.562, 144.831 35.668, 138.415 28.172 C 129.774 18.077, 106.523 12, 76.539 12 C 70.193 12, 65 12.184, 65 12.408 M 53 19.840 C 56.513 22.110, 91.694 30, 98.299 30 C 100.829 30, 96.954 27.891, 87.346 24.039 C 77.808 20.215, 76.411 19.935, 64.346 19.420 C 55.886 19.059, 52.012 19.202, 53 19.840 M 160.180 32 C 154.945 55.403, 145.866 113.019, 147.424 112.956 C 148.016 112.932, 151.200 112.353, 154.500 111.669 L 160.500 110.426 161.128 101.963 C 162.836 78.931, 164.291 28.332, 163.327 25.500 C 162.373 22.700, 162.164 23.132, 160.180 32 M 66.757 51.422 C 58.297 54.408, 51.782 58.193, 48.978 61.749 C 40.458 72.558, 61.776 88, 85.216 88 C 94.110 88, 100.718 85.948, 104.485 82.015 L 107.259 79.120 103.440 73.918 C 99.310 68.291, 91.986 63, 88.330 63 C 86.858 63, 85.545 63.973, 84.621 65.750 C 80.977 72.753, 73.933 75.439, 75.465 69.241 C 76.238 66.113, 80.460 61.306, 83.197 60.438 C 84.704 59.959, 90 51.471, 90 49.533 C 90 49.240, 86.287 49.009, 81.750 49.021 C 75.658 49.037, 71.736 49.665, 66.757 51.422 M 90.535 54.931 L 88.068 59.800 90.708 60.463 C 94.531 61.422, 100.970 66.412, 104.975 71.519 C 109.339 77.083, 110.348 76.232, 110.836 66.580 L 111.207 59.224 107.854 58.112 C 106.009 57.500, 101.913 55.439, 98.751 53.531 L 93.002 50.062 90.535 54.931 M 79.872 66.750 C 78.629 68.336, 78.664 68.371, 80.250 67.128 C 81.916 65.821, 82.445 65, 81.622 65 C 81.415 65, 80.627 65.787, 79.872 66.750 M 106.546 83.950 C 105.575 85.022, 102.918 86.822, 100.641 87.949 L 96.500 89.998 104.750 89.999 C 109.287 90, 112.998 89.662, 112.996 89.250 C 112.992 88.365, 109.193 82, 108.670 82 C 108.472 82, 107.516 82.877, 106.546 83.950 M 97.500 92.636 C 95.300 92.862, 85.850 93.992, 76.500 95.146 C 59.458 97.251, 30.976 98.091, 26 96.636 C 21.330 95.270, 37.587 109.701, 44.359 112.933 C 60.104 120.447, 73.291 119.052, 103.309 106.697 C 117.633 100.802, 118.097 100.519, 117.493 98.051 C 117.149 96.648, 116.336 94.959, 115.684 94.298 C 114.374 92.968, 103.740 91.996, 97.500 92.636 M 119.703 111.792 C 117.666 113.878, 116 115.903, 116 116.292 C 116 116.681, 117.274 117, 118.832 117 C 121.368 117, 121.770 116.531, 122.693 112.500 C 123.259 110.025, 123.651 108, 123.564 108 C 123.477 108, 121.740 109.706, 119.703 111.792 M 130.750 118.253 C 127.037 118.792, 124.001 119.519, 124.002 119.867 C 124.003 120.215, 128.053 121.684, 133.002 123.131 L 142 125.762 142.014 123.631 C 142.021 122.459, 142.299 120.487, 142.630 119.250 C 143.325 116.656, 142.318 116.571, 130.750 118.253 M 45.750 132.797 C 44.788 132.989, 44 133.654, 44 134.274 C 44 134.894, 46.680 139.473, 49.955 144.450 C 58.924 158.079, 63 168.940, 63 179.210 C 63 181.845, 63.140 184, 63.312 184 C 63.484 184, 65.621 183.033, 68.062 181.851 C 71.234 180.316, 75.068 179.571, 81.500 179.241 C 90.976 178.756, 97.619 179.678, 120 184.587 C 135.940 188.083, 148.941 188.443, 153.771 185.522 C 155.601 184.415, 157.974 181.619, 159.157 179.177 C 161.044 175.278, 161.214 173.614, 160.742 163.655 C 160.451 157.520, 159.926 151.801, 159.575 150.946 C 159.021 149.599, 157.978 149.537, 151.718 150.477 L 144.500 151.561 143.831 158.300 C 143.129 165.367, 140.394 171.500, 137.944 171.500 C 136.347 171.500, 136.020 165.857, 137.174 158.209 L 137.821 153.917 134.660 155.999 C 122.997 163.684, 110.099 167.842, 101.791 166.596 C 93.007 165.279, 87.165 161.485, 74.029 148.564 C 67.138 141.787, 60.375 135.651, 59 134.928 C 56.260 133.489, 48.520 132.244, 45.750 132.797 M 74.085 144.859 C 90.410 161.073, 94.630 163.500, 106.500 163.500 C 113.406 163.500, 115.413 163.068, 121.172 160.339 C 124.842 158.600, 129.559 156.013, 131.654 154.589 L 135.464 152 124.283 152 C 112.369 152, 93.422 149.880, 86 147.716 L 81.500 146.404 89.500 143.021 C 93.900 141.160, 100.875 138.638, 105 137.416 C 114.124 134.712, 113.121 134.357, 94 133.532 C 86.575 133.211, 76.076 132.669, 70.670 132.326 L 60.840 131.703 74.085 144.859 M 135.083 136.261 C 135.313 136.404, 136.512 137.374, 137.750 138.416 C 139.973 140.287, 140 140.284, 140 138.155 C 140 136.487, 139.397 136, 137.333 136 C 135.867 136, 134.854 136.117, 135.083 136.261 M 142.581 139.422 C 141.361 145.925, 143.029 146.565, 147.999 141.501 C 152.175 137.246, 152.282 136.999, 149.958 136.986 C 148.606 136.979, 146.545 136.716, 145.377 136.403 C 143.575 135.919, 143.152 136.375, 142.581 139.422 M 109.500 138.960 C 98.575 141.848, 90.477 145.131, 92.102 146.014 C 94.936 147.552, 110.719 149, 124.659 149 L 139 149 139 146.174 C 139 143.013, 136.019 139.709, 131.685 138.067 C 127.470 136.469, 117.387 136.876, 109.500 138.960 M 159 137.779 C 159 138.736, 161.079 145.233, 161.584 145.852 C 162.113 146.502, 172.484 142.780, 173.923 141.423 C 175.142 140.275, 174.998 139.952, 172.923 139.175 C 169.123 137.752, 159 136.737, 159 137.779 M 150.180 143.080 C 144.989 147.881, 144.929 148, 147.680 147.989 C 149.231 147.983, 152.225 147.693, 154.334 147.344 C 158.116 146.720, 158.159 146.662, 157.506 143.105 C 157.142 141.122, 156.542 139.199, 156.172 138.830 C 155.802 138.462, 153.106 140.375, 150.180 143.080 M 140.640 153.750 C 140.367 154.713, 139.885 157.975, 139.569 161 C 138.841 167.950, 140.603 164.477, 141.593 157.009 C 142.236 152.167, 141.652 150.172, 140.640 153.750" stroke="none" fill="black" fill-rule="evenodd"/>
</svg>