<svg xmlns="http://www.w3.org/2000/svg" width="200" height="200" viewBox="0 0 200 200" version="1.1">
	<path d="M 128 11.118 C 95.268 13.735, 54.926 19.432, 47.750 22.450 C 42.496 24.659, 42.856 27.049, 49.198 32.062 C 55.603 37.125, 64.358 41.619, 71.275 43.395 L 76.500 44.737 70.500 45.387 C 55.226 47.042, 36.228 47.977, 30.266 47.366 L 23.706 46.694 25.603 49.995 C 27.839 53.887, 34.833 58.658, 40.590 60.220 L 44.680 61.329 43.787 65.915 C 42.414 72.955, 43.810 82.369, 48.097 94.999 C 52.600 108.265, 52.994 112.996, 49.841 115.933 C 47.040 118.543, 40.352 120.705, 31.060 122.005 C 26.968 122.578, 23.413 123.253, 23.161 123.506 C 22.066 124.601, 36.625 130.285, 43.087 131.285 C 49.800 132.324, 58.036 131.792, 72 129.417 L 75.500 128.821 75.547 143.161 C 75.618 164.822, 79.460 174.280, 90.493 179.945 C 95.457 182.494, 95.532 182.501, 124.984 182.757 C 141.218 182.898, 156.300 183.101, 158.500 183.209 C 164.200 183.487, 167.468 182.406, 171.421 178.936 C 175.534 175.324, 177.327 170.487, 177.327 163 C 177.326 149.778, 171.123 135.107, 161.938 126.603 C 156.429 121.503, 154.830 118.367, 159.354 121.535 C 162.182 123.516, 166.354 123.382, 168.229 121.250 C 170.906 118.205, 173.757 111.679, 176.223 102.952 C 178.597 94.549, 178.607 94.309, 177.904 61.500 C 177.205 28.930, 176.158 17.334, 173.782 15.865 C 170.505 13.840, 168.179 20.344, 164.436 42 C 162.576 52.764, 155.357 104.407, 154.952 109.854 C 154.925 110.209, 153.526 107.800, 151.842 104.500 C 144.555 90.218, 140.438 90.695, 137.803 106.126 L 136.500 113.752 128.683 106.462 L 120.865 99.173 122.074 93.027 C 123.620 85.169, 122.872 76.585, 118.932 57 C 115.117 38.040, 114.677 29.122, 117.405 26.106 C 119.498 23.792, 124.969 23.277, 129.435 24.975 C 131.751 25.856, 132 26.475, 132 31.344 C 132 39.434, 134.780 53.820, 137.488 59.745 C 143.320 72.506, 152.402 67.214, 152.338 51.092 C 152.296 40.565, 148.773 28.601, 142.266 16.890 C 142.079 16.555, 143.968 15.709, 146.463 15.010 C 148.959 14.312, 151 13.172, 151 12.477 C 151 9.805, 147.218 9.581, 128 11.118 M 131.500 13.663 C 106.098 15.739, 77.232 19.160, 60.451 22.082 C 51.905 23.570, 53.729 24.964, 64.250 24.985 C 70.465 24.997, 72 25.297, 72 26.500 C 72 27.463, 71.016 28.009, 69.250 28.026 C 67.203 28.046, 68.493 28.927, 74.294 31.473 C 86.713 36.923, 86.408 36.899, 85.625 32.364 C 84.473 25.685, 84.471 24.726, 85.605 24.323 C 86.837 23.885, 89.249 34.187, 88.421 36.346 C 87.910 37.678, 96.352 42.085, 102.151 43.514 C 105.225 44.271, 109 47.496, 109 49.365 C 109 51.012, 105.386 54.319, 101.368 56.348 C 97.444 58.329, 96.193 63.255, 98.509 67.602 C 99.536 69.528, 99.991 72.767, 99.866 77.262 L 99.679 84.024 107.090 89.109 C 111.165 91.905, 115.278 94.886, 116.229 95.733 C 117.797 97.129, 118.030 97.096, 118.729 95.386 C 120.573 90.875, 119.360 72.516, 116.178 56.777 C 114.381 47.886, 113 37.967, 113 33.950 C 113 27.432, 113.241 26.605, 115.923 23.923 C 117.987 21.860, 119.825 21.002, 122.173 21.006 C 126.489 21.013, 133.296 22.907, 134.235 24.361 C 134.639 24.988, 134.992 28.425, 135.020 32 C 135.134 46.802, 140.064 63.152, 144.608 63.801 C 147.797 64.256, 149.523 59.091, 149.387 49.500 C 149.259 40.524, 145.972 29.209, 140.926 20.378 C 137.491 14.366, 137.477 14.283, 139.750 13.689 C 141.706 13.178, 137.592 13.165, 131.500 13.663 M 171.672 21 C 168.636 31.555, 164.660 55.805, 160.525 89 C 159.120 100.275, 157.732 110.668, 157.440 112.096 C 157.041 114.048, 157.653 115.487, 159.911 117.904 C 162.455 120.628, 163.223 120.951, 164.953 120.025 C 167.693 118.559, 170.472 112.870, 173.355 102.822 L 175.744 94.500 174.888 60 C 174.417 41.025, 173.663 23.925, 173.212 22 C 172.422 18.631, 172.365 18.593, 171.672 21 M 50.491 29.621 C 59.262 37.330, 76.364 43.467, 82.413 41.077 C 84.053 40.429, 84.927 39.568, 84.413 39.107 C 83.248 38.061, 62.627 29.547, 58 28.201 C 56.075 27.641, 52.700 26.942, 50.500 26.648 L 46.500 26.113 50.491 29.621 M 85.464 42.040 C 84.488 43.118, 82.747 44.044, 81.595 44.098 C 80.443 44.152, 82.260 44.741, 85.633 45.406 C 92.545 46.770, 96.543 48.984, 97.492 51.973 C 98.278 54.451, 99.335 54.506, 103.124 52.268 C 107.174 49.875, 106.383 47.989, 100.488 45.986 C 97.732 45.050, 93.623 43.338, 91.357 42.182 C 87.269 40.096, 87.224 40.095, 85.464 42.040 M 61 49.031 C 56.875 49.420, 47.932 49.797, 41.128 49.869 C 27.134 50.017, 26.597 50.699, 36.616 55.601 L 42.025 58.247 54.908 56.971 C 63.045 56.165, 70.683 55.985, 75.645 56.483 C 85.948 57.516, 89.890 57.426, 93.361 56.077 C 96.048 55.033, 96.132 54.830, 94.754 52.733 C 93.946 51.505, 91.759 49.963, 89.893 49.306 C 86.233 48.019, 73.059 47.893, 61 49.031 M 60.784 59.738 C 63.689 59.941, 68.189 59.939, 70.784 59.734 C 73.378 59.528, 71 59.363, 65.500 59.365 C 60 59.368, 57.878 59.536, 60.784 59.738 M 91 59.465 C 91 59.720, 91.900 60.411, 93 61 C 94.596 61.854, 95 61.760, 95 60.535 C 95 59.667, 94.131 59, 93 59 C 91.900 59, 91 59.209, 91 59.465 M 75.500 62.184 C 72.200 62.701, 64.456 62.932, 58.291 62.696 L 47.082 62.268 46.411 66.747 C 45.338 73.899, 46.693 82.284, 50.993 95.099 C 56.002 110.031, 56.099 113.101, 51.697 117.503 C 48.467 120.733, 40.261 124, 35.378 124 C 31.339 124, 31.832 125.874, 36.220 127.201 C 41.767 128.879, 59.523 128.866, 68.639 127.178 C 75.478 125.912, 75.806 125.723, 76.431 122.678 L 77.083 119.500 78.680 122.097 L 80.278 124.694 86.389 123.340 C 95.865 121.241, 112.802 120.513, 118.786 121.949 C 121.607 122.625, 126.464 124.714, 129.579 126.590 C 132.694 128.465, 135.413 130, 135.621 130 C 135.830 130, 136 127.135, 136 123.633 L 136 117.265 128.011 109.633 C 123.617 105.435, 119.583 102, 119.046 102 C 118.509 102, 117.607 102.866, 117.041 103.924 C 115.450 106.896, 105.824 111.115, 99.278 111.709 C 89.849 112.563, 88.756 109.206, 93.536 94.074 C 94.972 89.531, 96.001 85.685, 95.823 85.529 C 95.645 85.373, 93.646 84.311, 91.381 83.169 L 87.261 81.093 84.956 83.546 C 83.299 85.311, 81.647 85.977, 79.076 85.920 C 73.213 85.788, 66.818 83.656, 65.284 81.323 C 64 79.370, 64.066 78.934, 65.927 77.073 C 68.420 74.580, 74.415 74.318, 81.330 76.399 L 85.978 77.798 89.489 72.018 C 91.420 68.839, 93 65.746, 93 65.145 C 93 63.521, 87.510 60.982, 84.300 61.122 C 82.760 61.189, 78.800 61.667, 75.500 62.184 M 92.151 72.909 C 90.418 75.726, 89 78.242, 89 78.502 C 89 79.295, 96.271 82.063, 96.846 81.487 C 97.799 80.535, 97.417 71.562, 96.342 69.644 C 95.418 67.995, 94.951 68.359, 92.151 72.909 M 67.564 78.896 C 66.549 80.539, 73.024 83, 78.361 83 C 82.737 83, 85.302 80.923, 82.820 79.389 C 80.725 78.094, 68.308 77.693, 67.564 78.896 M 95.748 96.253 C 92.482 107.226, 92.454 107.637, 94.887 108.940 C 98.623 110.939, 113.506 105.492, 115.875 101.258 C 116.525 100.097, 116.058 99.087, 114.132 97.488 C 111.217 95.069, 99.476 86.998, 98.879 87.003 C 98.670 87.004, 97.261 91.167, 95.748 96.253 M 142.043 99.387 C 141.544 100.700, 140.671 105.088, 140.105 109.137 L 139.074 116.500 142.287 119.697 C 145.394 122.788, 145.641 122.856, 149.750 121.741 C 153.501 120.722, 154 120.248, 154 117.702 C 154 114.589, 145.397 97, 143.874 97 C 143.366 97, 142.542 98.074, 142.043 99.387 M 138.451 128.866 L 137.746 136.957 132.824 132.532 C 123.793 124.412, 111.734 122.180, 92.692 125.105 C 82.407 126.684, 81.926 127.169, 87.120 130.720 C 103.805 142.130, 138.249 147.012, 145.504 138.996 C 147.974 136.266, 145.964 127.298, 142.038 123.537 L 139.157 120.776 138.451 128.866 M 148.585 124.862 C 148.292 125.336, 148.786 127.591, 149.682 129.874 C 150.987 133.196, 151.098 134.769, 150.235 137.762 C 149.643 139.818, 148.682 143.320, 148.100 145.545 C 146.686 150.955, 140.932 157.470, 134.638 160.790 L 129.500 163.500 138.877 163.789 C 144.035 163.948, 148.386 163.947, 148.547 163.786 C 148.865 163.468, 153 127.898, 153 125.480 C 153 123.905, 149.481 123.412, 148.585 124.862 M 155.678 128.771 C 155.363 130.822, 154.388 139.250, 153.510 147.500 C 152.631 155.750, 151.701 163.506, 151.441 164.736 L 150.969 166.971 131.483 166.551 C 120.766 166.319, 111.972 165.763, 111.942 165.315 C 111.911 164.867, 115.454 163.750, 119.814 162.833 C 129.164 160.866, 136.275 157.461, 140.689 152.839 C 143.488 149.908, 146.563 144.230, 145.777 143.443 C 145.623 143.290, 143.023 143.834, 139.999 144.654 C 125.854 148.487, 97.544 142.066, 84.261 132.013 L 79.026 128.050 78.383 130.610 C 77.264 135.070, 78.699 158.174, 80.443 163.764 C 81.347 166.659, 83.419 170.547, 85.049 172.403 C 91.653 179.924, 100.543 181.531, 126.938 179.974 C 140.931 179.149, 146.990 179.174, 152.057 180.079 C 160.420 181.574, 165.105 180.725, 169.427 176.930 C 175.667 171.451, 176.443 160.729, 171.602 146.887 C 168.908 139.184, 162.998 129.847, 159.026 127.018 L 156.249 125.041 155.678 128.771" stroke="none" fill="black" fill-rule="evenodd"/>
</svg>