<svg xmlns="http://www.w3.org/2000/svg" width="200" height="200" viewBox="0 0 200 200" version="1.1">
	<path d="M 82.500 9.526 C 81.400 9.710, 75.550 10.387, 69.500 11.029 C 56.440 12.414, 45.164 14.619, 43.325 16.146 C 38.411 20.223, 48.543 30.244, 62.945 35.550 C 66.246 36.766, 65.679 36.866, 55 36.957 C 30.018 37.169, 19.915 39.290, 22.554 43.769 C 24.250 46.646, 38.746 53.235, 44.843 53.899 L 50.356 54.500 46.559 57.392 C 44.433 59.011, 41.882 62.274, 40.761 64.806 C 37.177 72.911, 39.383 80.526, 49.867 96.230 C 55.787 105.099, 56.310 106.497, 54.329 108.142 C 52.116 109.978, 39.002 109.486, 24.651 107.029 C 18.133 105.913, 12.388 105, 11.884 105 C 10.042 105, 15.961 114.732, 20.050 118.426 C 25.464 123.317, 31.283 125.851, 38.939 126.651 L 45.064 127.292 42.904 129.304 C 40.627 131.425, 36.671 139.538, 35.565 144.356 L 34.909 147.212 42.204 146.465 C 55.388 145.115, 74.099 145.554, 78.250 147.311 C 80.313 148.184, 82 149.430, 82 150.081 C 82 154.477, 74.311 161.511, 53.792 175.886 C 47.352 180.397, 40.152 185.706, 37.792 187.682 L 33.500 191.276 40.500 190.537 C 51.604 189.364, 64.900 185.577, 81.298 178.916 C 89.659 175.519, 98.750 172.129, 101.500 171.382 C 115.952 167.456, 128.937 171.892, 144.351 186.021 L 150.201 191.385 152.084 188.942 C 153.119 187.599, 154.716 184.573, 155.632 182.217 C 157.039 178.598, 157.107 177.302, 156.076 173.859 C 153.685 165.879, 145.679 160.232, 121.500 149.473 C 116.073 147.058, 115.717 146.719, 117.769 145.927 C 120.623 144.825, 142.656 143.005, 153.395 142.985 C 157.853 142.976, 162.127 142.573, 162.893 142.088 C 165.083 140.701, 153.267 132.577, 145.251 129.959 C 136.672 127.157, 128.607 122.912, 123.500 118.511 L 119.500 115.064 123.461 117.032 C 128.361 119.466, 130.368 119.470, 135.690 117.054 C 141.801 114.279, 147.778 108.359, 161.572 91.418 C 173.253 77.073, 179.254 70.749, 182.080 69.807 C 182.781 69.573, 183.054 68.896, 182.687 68.303 C 182.239 67.578, 180.019 68.033, 175.910 69.692 C 168.390 72.730, 162.325 73.098, 158.722 70.737 C 155.022 68.313, 153.225 61.371, 152.059 45 C 150.549 23.808, 148.614 17.732, 141.763 12.657 C 138.465 10.213, 129.188 9.302, 123.526 10.865 C 120.593 11.675, 119.271 11.639, 118.165 10.720 C 116.797 9.582, 87.923 8.615, 82.500 9.526 M 87.500 12.013 C 72.492 13.089, 56 15.194, 56 16.034 C 56 17.547, 63.534 18.112, 74.608 17.430 C 84.774 16.804, 86 16.904, 86 18.364 C 86 19.742, 84.700 20.008, 77.750 20.052 L 69.500 20.104 79.500 24.046 C 85 26.214, 89.577 27.991, 89.671 27.994 C 89.764 27.997, 90.138 26.650, 90.500 25 C 90.882 23.262, 91.802 22, 92.688 22 C 93.854 22, 94.054 22.648, 93.531 24.731 C 93.154 26.234, 92.768 27.867, 92.673 28.362 C 92.578 28.856, 97.225 31.239, 103 33.656 C 108.775 36.074, 114.342 39.053, 115.371 40.276 C 117.213 42.466, 117.230 42.342, 116.497 32.026 C 116.055 25.814, 115.170 20.663, 114.322 19.368 C 113.361 17.903, 113.238 16.971, 113.946 16.534 C 114.526 16.175, 115 15.073, 115 14.083 C 115 12.617, 113.866 12.166, 108.853 11.642 C 102.227 10.950, 102.372 10.947, 87.500 12.013 M 122.500 13.675 C 117.121 15.129, 116.908 17.077, 121.036 27.088 C 127.674 43.184, 130.975 63.079, 129.100 75.684 C 128.055 82.714, 126.754 86.152, 121.038 97 C 120.024 98.925, 118.893 103.087, 118.525 106.250 C 117.947 111.215, 118.083 112, 119.520 112 C 120.436 112, 122.329 112.900, 123.727 114 C 126.799 116.416, 131.016 116.560, 135.207 114.393 C 141.459 111.160, 148.445 103.582, 170.187 76.451 C 171.865 74.356, 171.848 74.348, 166.600 74.783 C 159.548 75.368, 155.417 73.211, 152.995 67.679 C 150.895 62.882, 150.342 59.317, 149.012 42 C 147.849 26.850, 146.071 20.401, 141.976 16.477 C 139.215 13.832, 138.175 13.514, 131.702 13.334 C 127.741 13.224, 123.600 13.377, 122.500 13.675 M 46.128 21.736 C 48.744 25.047, 51.535 27.021, 58.706 30.632 C 67.676 35.149, 77.473 36.293, 83.340 33.509 C 85.353 32.554, 87 31.379, 87 30.899 C 87 29.789, 82.119 27.717, 69.373 23.417 C 61.540 20.774, 57.606 20, 52.001 20 C 45.262 20, 44.851 20.121, 46.128 21.736 M 119.743 36 C 120.086 39.575, 120.398 53.594, 120.434 67.153 C 120.470 80.712, 120.808 91.616, 121.185 91.384 C 121.562 91.152, 122.836 88.383, 124.016 85.231 C 128.414 73.481, 127.462 54.545, 121.587 36.911 L 119.117 29.500 119.743 36 M 87.500 34 C 85.735 35.950, 85.753 36, 88.220 36 C 89.612 36, 92.211 35.708, 93.997 35.351 L 97.244 34.701 94.872 33.386 C 91.528 31.532, 89.587 31.694, 87.500 34 M 96.108 41.593 C 93.299 44.119, 91 46.509, 91 46.905 C 91 47.858, 105.352 46.161, 109.901 44.670 C 111.866 44.027, 113.479 43.050, 113.487 42.500 C 113.502 41.332, 105.265 37.102, 102.858 37.041 C 101.955 37.019, 98.918 39.067, 96.108 41.593 M 90.786 38.547 C 90.485 38.849, 76.347 39.474, 59.369 39.936 C 42.391 40.399, 27.715 41.100, 26.756 41.494 C 24.092 42.587, 25.604 43.947, 33.573 47.629 C 41.225 51.164, 45.654 51.685, 56.750 50.352 C 60.907 49.853, 62 49.346, 62 47.920 C 62 45.199, 63.520 44.813, 65.521 47.024 C 66.944 48.596, 68.557 48.988, 73.405 48.942 C 83.948 48.843, 86.411 47.976, 90.999 42.750 C 94.424 38.850, 94.827 38, 93.252 38 C 92.197 38, 91.087 38.246, 90.786 38.547 M 112.922 46.250 C 110.954 47.213, 105.554 48.484, 100.922 49.075 C 86.511 50.915, 87.136 50.487, 92.268 55.005 C 94.846 57.274, 97.728 61.152, 99.111 64.212 C 101.241 68.927, 101.500 70.927, 101.500 82.669 C 101.500 95.230, 101.612 95.957, 103.924 98.419 C 106.866 101.550, 108.133 101.615, 112.994 98.883 C 116.255 97.051, 116.843 96.160, 117.380 92.244 C 118.185 86.373, 117.998 49.106, 117.150 46.500 C 116.517 44.553, 116.405 44.547, 112.922 46.250 M 72.588 57.250 C 74.656 60.138, 76.678 62.887, 77.083 63.359 C 77.487 63.831, 78.965 61.821, 80.367 58.892 C 83.401 52.552, 82.974 52.037, 74.665 52.015 L 68.830 52 72.588 57.250 M 56.166 55.506 C 46.311 59.089, 41.992 64.184, 42.010 72.200 C 42.022 77.498, 44.983 84.012, 52.359 94.967 C 58.581 104.209, 59.398 107.908, 55.777 110.443 C 52.770 112.550, 40.612 112.420, 26.750 110.133 C 20.336 109.075, 16 108.752, 16 109.332 C 16 109.867, 18.362 112.666, 21.250 115.553 C 31.620 125.919, 45.157 126.597, 80.500 118.521 C 91.500 116.008, 103.088 113.673, 106.250 113.333 C 109.412 112.993, 112 112.417, 112 112.054 C 112 111.690, 110.516 109.954, 108.702 108.196 C 105.723 105.308, 104.852 105.013, 99.668 105.132 C 96.513 105.205, 93.698 105.031, 93.412 104.745 C 93.126 104.459, 93.815 102.712, 94.942 100.863 C 96.070 99.013, 96.994 96.887, 96.996 96.137 C 96.998 95.388, 92.838 89.243, 87.750 82.483 L 78.500 70.191 76 77.336 C 73.257 85.178, 70.743 87.084, 69.043 82.614 C 68.514 81.221, 66.943 74.144, 65.553 66.887 C 64.162 59.629, 62.907 53.581, 62.762 53.447 C 62.618 53.312, 59.650 54.239, 56.166 55.506 M 66 53.784 C 66 55.426, 71.045 80.378, 71.461 80.795 C 71.665 80.998, 72.837 78.044, 74.065 74.230 L 76.299 67.295 72.975 62.397 C 68.039 55.124, 66 52.606, 66 53.784 M 82.958 60.083 C 81.258 63.452, 80.113 66.852, 80.415 67.639 C 81.475 70.401, 97.498 90.810, 98.245 90.349 C 99.605 89.508, 99.036 73.483, 97.457 68.167 C 95.933 63.036, 91.459 56.851, 87.888 54.940 C 86.301 54.091, 85.629 54.792, 82.958 60.083 M 98.624 99.539 C 97.598 102.212, 97.897 103, 99.941 103 C 102.739 103, 103.239 101.527, 101.100 99.590 C 99.399 98.051, 99.196 98.047, 98.624 99.539 M 112.640 102.125 L 108.780 104.161 111.567 107.070 C 113.100 108.670, 114.570 109.763, 114.834 109.499 C 115.216 109.118, 116.933 99.879, 116.591 100.044 C 116.541 100.069, 114.763 101.005, 112.640 102.125 M 103 116.492 C 98.875 117.200, 89.650 119.160, 82.500 120.848 C 75.350 122.536, 67.489 124.234, 65.031 124.622 C 59.949 125.422, 59.328 125.041, 74.500 130.441 C 87.206 134.964, 92.952 136.022, 98.305 134.823 C 104.749 133.380, 110.491 126.749, 113.064 117.778 C 113.991 114.544, 114.198 114.570, 103 116.492 M 115.999 117.290 C 115.998 119.802, 110.136 130.608, 107.376 133.186 C 99.951 140.122, 92.505 139.809, 69.500 131.592 C 53.016 125.704, 45.809 126.917, 41.434 136.315 C 40.106 139.167, 39.015 141.950, 39.009 142.500 C 39.003 143.132, 46.076 143.500, 58.250 143.500 C 74.652 143.500, 77.970 143.757, 80.679 145.239 C 89.588 150.112, 84.010 157.648, 57.500 176.559 L 42.500 187.259 47.761 186.594 C 55.176 185.656, 64.012 182.814, 82.889 175.298 C 91.903 171.709, 102.144 168.282, 105.648 167.682 C 117.504 165.651, 129.821 170.071, 142.895 181.048 C 146.898 184.409, 150.302 187.011, 150.460 186.830 C 150.617 186.648, 151.478 185.060, 152.373 183.300 C 157.565 173.088, 150.452 165.306, 126.084 154.537 C 118.967 151.392, 112.862 148.084, 112.518 147.186 C 111.682 145.009, 114.111 143.360, 119.295 142.585 C 124.583 141.794, 148.011 140.068, 153.982 140.029 L 158.464 140 154.625 137.391 C 152.513 135.956, 147.189 133.469, 142.793 131.865 C 132.470 128.098, 130.451 127.018, 122.560 121.045 C 118.952 118.315, 116 116.625, 115.999 117.290" stroke="none" fill="black" fill-rule="evenodd"/>
</svg>