<svg xmlns="http://www.w3.org/2000/svg" width="200" height="200" viewBox="0 0 200 200" version="1.1">
	<path d="M 95.188 9.495 C 92.431 11.815, 91.854 11.921, 86.975 10.995 C 80.142 9.699, 69.390 9.721, 66.934 11.035 C 62.044 13.652, 67.214 19.597, 80.404 26.523 C 84.570 28.710, 87.983 31.022, 87.989 31.660 C 88.012 34.147, 64.046 34.585, 50.616 32.343 C 47.536 31.829, 46.828 31.985, 47.198 33.097 C 47.918 35.261, 52.085 35.754, 70.750 35.882 L 88 36 88 41.147 L 88 46.294 73.750 45.717 C 59.005 45.119, 49.190 43.205, 39.585 39.054 C 36.270 37.621, 34.341 37.259, 33.658 37.942 C 32.976 38.624, 34.538 39.790, 38.460 41.525 C 48.172 45.820, 59.311 48.012, 74.871 48.689 L 89.242 49.315 83.371 51.462 C 75.571 54.314, 70.473 57.686, 64.857 63.707 C 54.644 74.658, 53.550 84.483, 61.640 92.574 C 63.598 94.532, 65.042 96.257, 64.850 96.408 C 64.657 96.558, 62.250 97.275, 59.500 98 C 51.121 100.208, 34.737 106.883, 30.500 109.814 C 27.773 111.701, 26.399 113.451, 26.181 115.313 C 25.909 117.649, 26.416 118.279, 29.681 119.665 C 31.911 120.611, 37.575 121.491, 43.292 121.779 L 53.085 122.271 47.792 124.467 C 40.577 127.460, 35.881 130.242, 34.589 132.291 C 33.314 134.312, 35.569 141.375, 42.764 157.897 C 46.687 166.907, 48.366 169.490, 53.940 175.091 C 58.763 179.938, 62.089 182.311, 66.500 184.055 C 72.312 186.352, 73.426 186.430, 102 186.522 C 131.090 186.616, 131.622 186.655, 140.307 189.321 C 145.152 190.808, 151.384 193.174, 154.157 194.580 C 156.930 195.985, 159.453 196.881, 159.763 196.571 C 160.073 196.261, 160.530 190.268, 160.778 183.253 C 161.275 169.244, 160.433 164.390, 156.501 158.597 C 154.140 155.118, 154.093 154.788, 155.622 152.454 C 156.510 151.098, 159.305 149.074, 161.832 147.956 C 167.496 145.451, 170 143.263, 170 140.820 C 170 137.967, 165.719 136.825, 152.878 136.253 C 142.023 135.770, 141.289 135.609, 141.760 133.810 C 142.374 131.460, 138.497 127.136, 131.527 122.399 L 126.555 119.019 139.048 119.652 C 152.187 120.318, 162.918 119.128, 168.143 116.426 C 171.952 114.457, 174.179 109.841, 173.805 104.694 C 173.505 100.575, 173.437 100.504, 170 100.728 C 154.376 101.744, 150.148 101.496, 147.327 99.395 C 142.727 95.971, 140.908 91.640, 138.859 79.234 C 135.849 61.011, 131.670 54.175, 121.289 50.500 C 118.655 49.567, 115.605 48.467, 114.511 48.056 C 112.778 47.404, 138.146 45.387, 156.490 44.718 C 161.157 44.548, 162.550 44.135, 162.795 42.847 C 163.725 37.956, 148.869 28.500, 130 21.973 C 122.687 19.444, 119.464 17.712, 116 14.451 C 107.607 6.550, 100.656 4.895, 95.188 9.495 M 97.029 10.961 C 96.220 11.473, 95.770 12.073, 96.029 12.296 C 96.900 13.045, 114.337 16.996, 114.787 16.547 C 115.031 16.302, 113.066 14.729, 110.420 13.051 C 105.530 9.950, 99.993 9.086, 97.029 10.961 M 68 13.911 C 68 14.412, 69.375 15.979, 71.055 17.393 C 74.296 20.120, 86.946 27.482, 87.331 26.865 C 87.457 26.664, 88.246 23.737, 89.086 20.359 L 90.612 14.219 86.167 13.609 C 79.451 12.689, 68 12.879, 68 13.911 M 92.158 18.866 C 91.521 20.992, 91 24.076, 91 25.718 C 91 28.548, 91.341 28.795, 97.574 30.483 C 105.918 32.741, 116.674 32.166, 118.735 29.350 C 120.318 27.188, 119.598 23.041, 117.339 21.312 C 116.120 20.378, 96.094 15, 93.838 15 C 93.551 15, 92.795 16.740, 92.158 18.866 M 121.843 26.500 L 122.201 31 126.910 31 C 129.499 31, 132.394 31.568, 133.343 32.262 C 136.046 34.238, 133.652 36.490, 124.500 40.580 L 116.500 44.156 125 43.593 C 129.675 43.283, 139.479 42.728, 146.788 42.359 L 160.075 41.688 157.288 38.748 C 153.848 35.119, 142.387 29.250, 130.670 25.116 C 125.814 23.402, 121.761 22, 121.663 22 C 121.565 22, 121.647 24.025, 121.843 26.500 M 90 32.094 C 90 32.592, 90.900 33, 92 33 C 93.100 33, 94 32.827, 94 32.617 C 94 32.406, 93.100 31.998, 92 31.710 C 90.900 31.423, 90 31.595, 90 32.094 M 104.330 34.925 C 97.086 35.245, 90.898 35.769, 90.577 36.090 C 90.256 36.411, 90.281 38.772, 90.633 41.337 L 91.272 46 96.641 46 C 101.950 46, 119.576 40.336, 128 35.922 L 131.500 34.088 124.500 34.216 C 120.650 34.286, 111.573 34.605, 104.330 34.925 M 102 50.418 C 102 50.649, 103.497 51.762, 105.327 52.893 C 107.182 54.040, 109.919 57.273, 111.512 60.199 C 114.028 64.822, 114.422 66.736, 114.813 76.224 C 115.078 82.663, 114.875 87, 114.308 87 C 113.787 87, 111.520 85.425, 109.271 83.500 C 107.022 81.575, 104.911 80, 104.580 80 C 104.248 80, 106.007 82.492, 108.487 85.537 C 113.601 91.815, 117 97.965, 117 100.937 C 117 104.150, 112.769 106.306, 108.033 105.506 C 105.815 105.131, 104.006 105.201, 104.014 105.662 C 104.022 106.123, 107.933 108.648, 112.706 111.273 L 121.384 116.046 137.942 116.658 C 164.500 117.641, 171.757 115.012, 171.115 104.639 C 171.017 103.055, 170.464 102.878, 167.408 103.451 C 161.321 104.593, 151.411 104.199, 147.749 102.669 C 141.081 99.882, 138.186 94.063, 135.977 79 C 133.816 64.265, 130.463 57.807, 122.995 53.997 C 118.275 51.589, 102 48.815, 102 50.418 M 92.044 54.122 C 92.068 55.430, 92.630 59.092, 93.294 62.260 C 94.458 67.822, 94.793 68.259, 103 74.950 L 111.500 81.880 111.797 75.971 C 112.488 62.227, 107.118 54.162, 96.105 52.401 C 92.258 51.786, 92.003 51.894, 92.044 54.122 M 82.747 54.519 C 76.675 56.749, 68.146 62.929, 64.437 67.786 C 55.888 78.983, 57.876 88.799, 70.027 95.382 L 73.500 97.263 64.041 99.670 C 51.688 102.814, 35.044 109.483, 30.884 112.956 L 27.587 115.708 29.941 116.968 C 35.693 120.047, 69.136 120.106, 79 117.055 C 80.925 116.460, 87.112 115.685, 92.750 115.334 C 99.153 114.936, 102.995 114.284, 102.986 113.598 C 102.941 109.989, 101.286 107.973, 95.859 104.920 C 89.014 101.071, 87.240 99.360, 88.641 97.959 C 89.249 97.351, 91.130 97.605, 93.809 98.657 C 96.126 99.567, 98.242 100.091, 98.512 99.821 C 99.620 98.713, 91.785 70.442, 89.769 68.276 C 87.882 66.248, 87.850 65.995, 89.402 65.399 C 90.660 64.917, 90.959 63.998, 90.552 61.873 C 88.597 51.693, 89.114 52.181, 82.747 54.519 M 96.416 77.500 C 96.691 78.600, 98.125 84.373, 99.602 90.329 C 102.533 102.152, 103.671 103.461, 110.444 102.799 C 114.871 102.366, 114.795 99.523, 110.167 92.468 C 105.400 85.201, 95.699 74.641, 96.416 77.500 M 105.530 112.166 C 106.483 115.261, 106.361 115.187, 109.892 114.821 L 112.977 114.500 108.894 112.166 L 104.812 109.832 105.530 112.166 M 83 118.922 C 79.970 119.493, 80.494 119.686, 86.904 120.366 C 90.977 120.798, 97.052 122.012, 100.404 123.063 C 103.757 124.114, 106.570 124.980, 106.656 124.987 C 106.742 124.994, 106.329 123.425, 105.739 121.500 L 104.664 118 95.582 118.132 C 90.587 118.204, 84.925 118.560, 83 118.922 M 108.006 118.634 C 108.031 122.590, 110.558 127.004, 114.962 130.785 C 119.417 134.610, 120.628 135.127, 126.227 135.588 C 129.677 135.873, 133.850 135.712, 135.500 135.231 C 140.685 133.719, 139.318 131.193, 129.755 124.613 C 121.653 119.038, 120.531 118.565, 114.505 118.181 C 110.927 117.953, 108.003 118.157, 108.006 118.634 M 57.500 124.486 C 43.658 127.549, 44.007 128.110, 61 130.119 C 78.949 132.240, 109.316 135.018, 109.756 134.578 C 110.775 133.559, 107.582 128.835, 104.957 127.478 C 96.685 123.200, 70.713 121.563, 57.500 124.486 M 40.513 131.979 C 38.333 135.507, 47.286 140.677, 61.517 144.108 L 71 146.394 71 152.229 C 71 159.093, 72.938 164.361, 76.081 166.043 C 79.886 168.080, 89.635 166.571, 103.446 161.807 C 110.563 159.352, 116.549 156.852, 116.750 156.251 C 116.969 155.593, 114.804 154.877, 111.307 154.452 C 103.519 153.506, 95.084 150.826, 89.389 147.488 C 86.013 145.509, 85.096 144.532, 86.103 143.984 C 86.871 143.566, 92.900 142.454, 99.500 141.513 C 106.100 140.571, 111.651 139.658, 111.836 139.482 C 112.960 138.411, 107.116 137.187, 98.213 136.629 C 92.555 136.275, 78.155 134.865, 66.213 133.497 C 41.492 130.664, 41.332 130.654, 40.513 131.979 M 112 132.819 C 112 134.027, 113.897 135.436, 114.591 134.743 C 114.842 134.491, 114.362 133.716, 113.524 133.020 C 112.574 132.231, 112 132.155, 112 132.819 M 37.429 135.784 C 38.913 144.900, 49.706 167.485, 55.357 173.299 C 64.616 182.826, 71.597 184.524, 98 183.672 C 125.324 182.790, 141.098 184.928, 153.335 191.171 C 155.457 192.254, 157.442 192.892, 157.745 192.589 C 158.048 192.286, 158.333 186.742, 158.378 180.269 C 158.449 170.290, 158.139 167.797, 156.344 163.879 C 155.179 161.338, 153.716 158.942, 153.092 158.557 C 152.461 158.167, 148.747 160.258, 144.728 163.265 C 136.362 169.526, 126.365 176, 125.063 176 C 124.569 176, 122.965 172.400, 121.500 168 C 120.035 163.600, 118.476 160, 118.036 160 C 117.596 160, 111.066 162.062, 103.525 164.582 C 87.483 169.942, 81.073 170.893, 75.809 168.694 C 71.175 166.757, 68.888 162.476, 68.251 154.543 L 67.766 148.496 60.133 146.658 C 48.910 143.957, 40.160 139.536, 38.360 135.657 L 36.894 132.500 37.429 135.784 M 116.768 138.725 C 118.565 138.947, 121.265 138.943, 122.768 138.715 C 124.271 138.486, 122.800 138.304, 119.500 138.310 C 116.200 138.315, 114.971 138.502, 116.768 138.725 M 150.500 140.428 C 152.700 141.251, 155.287 142.891, 156.248 144.071 C 157.503 145.611, 158.668 146.049, 160.372 145.621 C 163.426 144.855, 167.717 141.390, 166.779 140.448 C 166.382 140.050, 161.657 139.546, 156.279 139.327 C 146.676 138.938, 146.572 138.957, 150.500 140.428 M 120.750 141.670 C 115.567 142.150, 115.437 142.390, 117.198 148.266 L 118.396 152.264 128.948 151.724 C 140.868 151.113, 155.235 148.251, 154.725 146.589 C 154.541 145.990, 152.688 144.657, 150.608 143.626 C 146.708 141.694, 131.365 140.689, 120.750 141.670 M 98.500 144.392 C 92.016 145.461, 91.670 145.641, 93.804 146.837 C 97.188 148.734, 104.549 150.800, 110.625 151.559 L 115.955 152.225 114.384 147.612 C 112.886 143.216, 112.641 143.006, 109.156 143.119 C 107.145 143.184, 102.350 143.757, 98.500 144.392 M 149.500 152 C 147.790 152.735, 147.754 152.870, 149.250 152.930 C 150.213 152.968, 151.326 153.034, 151.725 153.075 C 152.124 153.116, 152.611 152.666, 152.808 152.075 C 153.226 150.823, 152.289 150.801, 149.500 152 M 136.500 154.607 C 135.400 154.865, 131.463 155.783, 127.750 156.646 C 124.037 157.509, 121 158.352, 121 158.519 C 121 159.457, 125.467 170.651, 126.156 171.438 C 126.641 171.993, 130.355 170.065, 135.238 166.722 C 145.420 159.755, 149.659 156.340, 148.982 155.655 C 148.199 154.862, 138.780 154.072, 136.500 154.607" stroke="none" fill="black" fill-rule="evenodd"/>
</svg>