<svg xmlns="http://www.w3.org/2000/svg" width="200" height="200" viewBox="0 0 200 200" version="1.1">
	<path d="M 108.500 10.588 C 103 11.349, 93.325 12.818, 87 13.852 C 80.675 14.887, 71.691 15.819, 67.035 15.923 C 62.379 16.027, 58.104 16.478, 57.535 16.925 C 56.966 17.372, 54.138 18.292, 51.250 18.969 C 47.808 19.776, 46 20.714, 46 21.694 C 46 22.906, 46.917 23.062, 50.857 22.520 C 55.611 21.866, 55.780 21.935, 58.805 25.754 C 62.450 30.357, 72.644 35.434, 82.189 37.402 L 88.500 38.703 76.750 39.450 C 67.425 40.043, 65 40.500, 65 41.666 C 65 42.916, 66.594 43.013, 75.750 42.317 C 88.499 41.348, 100.613 41.280, 101.505 42.172 C 101.856 42.523, 101.120 44.371, 99.869 46.279 C 97.755 49.504, 97.133 49.792, 91.047 50.367 C 82.653 51.160, 46.207 51.162, 43.250 50.370 C 39.723 49.425, 40.577 47.417, 46 43.903 C 50.942 40.701, 52.226 39, 49.700 39 C 47.523 39, 40.231 44.199, 38.888 46.709 C 37.785 48.771, 37.903 49.347, 39.819 51.264 C 41.829 53.273, 43.209 53.491, 56.183 53.848 C 69.354 54.209, 70.086 54.328, 66.564 55.539 C 64.480 56.256, 61.512 58.052, 59.969 59.530 C 58.269 61.158, 56.675 61.917, 55.927 61.455 C 55.158 60.980, 54.946 61.103, 55.365 61.781 C 55.735 62.380, 54.650 65.037, 52.954 67.685 C 50.357 71.739, 49.967 73.132, 50.486 76.500 C 52.426 89.076, 64.631 97.134, 84.069 98.670 C 97.284 99.715, 112.553 95.662, 119.141 89.361 C 121.714 86.900, 121.863 86.878, 124.988 88.494 C 127.964 90.033, 128.145 90.416, 127.508 93.826 C 127.130 95.847, 126.672 97.652, 126.490 97.838 C 125.374 98.973, 103.031 101.056, 82.336 101.953 C 55.489 103.117, 45.162 104.665, 37 108.748 C 29.674 112.413, 29.821 114.061, 37.500 114.376 C 47.069 114.769, 54.284 118.602, 69 131.111 C 77.667 138.478, 81.935 141, 85.738 141 C 91.519 141, 95.768 135.046, 98.941 122.500 L 99.953 118.500 109.726 116.348 C 115.102 115.164, 120.258 113.889, 121.186 113.515 C 122.623 112.935, 122.756 113.252, 122.090 115.668 C 121.544 117.646, 120.734 118.434, 119.404 118.281 C 115.260 117.806, 114.470 119.002, 117.391 121.331 C 120.108 123.497, 120.157 123.704, 118.993 128.033 C 117.687 132.894, 116.664 133.961, 113.288 133.985 C 112.071 133.993, 108.471 134.961, 105.288 136.136 C 94.915 139.964, 87 150.764, 87 161.088 C 87 167.839, 89.115 171.991, 95.553 177.875 C 110.862 191.866, 141.648 194.102, 159.184 182.497 C 166.899 177.392, 173.086 163.745, 171.073 156.273 C 169.178 149.234, 163.158 145.087, 143.859 137.526 C 138.556 135.448, 132.931 132.683, 131.359 131.381 C 128.539 129.045, 128.581 129.049, 134.445 131.669 C 143.005 135.493, 152.926 135.960, 158.986 132.822 C 164.395 130.022, 169.329 123.763, 171.691 116.706 C 173.077 112.564, 173.472 107.513, 173.619 92 C 173.721 81.275, 174.332 68.675, 174.976 64 C 176.681 51.647, 174.350 27.460, 170.787 20.520 C 165.359 9.946, 158.557 12.349, 150.229 27.784 L 146.299 35.068 145.647 27.357 C 144.416 12.794, 140.362 8.929, 126.500 9.104 C 122.100 9.160, 114 9.828, 108.500 10.588 M 102.134 14.252 L 87.768 16.290 92.864 18.712 C 95.667 20.044, 98.757 22.123, 99.730 23.332 C 100.704 24.540, 107.575 28.519, 115 32.174 C 136.022 42.520, 141.888 49.060, 133.350 52.627 C 130.347 53.882, 127.125 54.025, 115.203 53.435 C 105.178 52.938, 100.907 53.040, 101.355 53.765 C 102.105 54.979, 110.511 58, 113.138 58 C 115.600 58, 119.571 62.494, 122.667 68.784 C 124.878 73.276, 125.172 74.880, 124.629 79.496 C 124.074 84.222, 124.242 85.059, 125.930 85.962 C 129.164 87.693, 129.751 87.209, 131.039 81.750 C 131.721 78.862, 134.945 68.400, 138.205 58.500 C 144.019 40.839, 144.118 40.349, 143.476 32.500 C 142.513 20.735, 141.435 16.783, 138.497 14.250 C 136.156 12.231, 134.893 12.011, 126.194 12.107 C 120.862 12.165, 110.035 13.130, 102.134 14.252 M 159.566 19.076 C 157.539 20.856, 154.261 25.914, 151.558 31.435 L 146.981 40.780 148.645 48.140 C 151.057 58.815, 151.050 80.241, 148.631 90 C 144.738 105.705, 136.712 118.167, 128.601 121.099 C 126.621 121.816, 125 122.737, 125 123.146 C 125 123.556, 128.442 125.592, 132.649 127.671 C 141.254 131.924, 151.440 133.303, 157.058 130.976 C 167.776 126.536, 173.369 108.258, 171.064 85.204 C 170.214 76.701, 170.244 73.573, 171.197 71.360 C 172.867 67.480, 172.817 39.370, 171.127 31.500 C 169.590 24.347, 166.472 17.395, 164.453 16.620 C 163.644 16.310, 161.476 17.399, 159.566 19.076 M 64.185 20.205 C 59.035 21.143, 58.915 21.240, 60.288 23.337 C 64.517 29.793, 83.253 36.807, 92.337 35.333 C 96.101 34.722, 100 31.802, 100 29.595 C 100 28.865, 97.412 27.332, 94.250 26.187 C 87.639 23.794, 71.086 18.942, 70.138 19.119 C 69.787 19.184, 67.108 19.673, 64.185 20.205 M 87.920 20.981 C 90.901 22.088, 93.551 22.783, 93.809 22.525 C 94.431 21.902, 89.269 19.968, 85.500 19.411 C 83.694 19.144, 84.658 19.769, 87.920 20.981 M 102 31.326 C 102 33.168, 98.091 36.539, 94.500 37.794 C 91.650 38.790, 91.753 38.846, 96.559 38.921 C 99.341 38.964, 102.491 39.654, 103.559 40.452 C 105.473 41.884, 105.469 41.960, 103.303 45.809 L 101.106 49.712 110.803 50.492 C 126.851 51.781, 134 51.193, 134 48.585 C 134 46.039, 126.774 40.831, 115.699 35.396 C 104.247 29.776, 102 29.108, 102 31.326 M 144.819 47.505 C 143.932 48.972, 135.281 76.128, 133.452 83.185 L 131.877 89.262 134.626 92.131 C 136.137 93.709, 137.992 95, 138.746 95 C 139.535 95, 139.812 95.495, 139.398 96.164 C 139.003 96.805, 138.571 98.702, 138.439 100.379 C 138.271 102.510, 137.038 104.423, 134.349 106.721 C 132.232 108.532, 129.724 110.674, 128.775 111.481 C 126.993 112.998, 125.358 117.691, 126.287 118.620 C 127.482 119.815, 133.258 115.621, 136.484 111.217 C 144.534 100.226, 148.604 83.363, 147.639 65 C 147.008 53.008, 145.847 45.805, 144.819 47.505 M 78.500 53.911 C 73.949 54.454, 73.769 54.568, 76.500 55.180 C 81.317 56.259, 87.711 61.565, 90.879 67.112 C 93.720 72.085, 94.133 72.373, 103.657 76.018 C 109.071 78.090, 115.178 80.511, 117.230 81.397 C 120.953 83.007, 120.961 83.005, 121.602 80.451 C 122.622 76.385, 121.342 71.208, 118.046 66.072 C 115.330 61.839, 114.417 61.188, 109.730 60.139 C 104.115 58.882, 98 55.690, 98 54.015 C 98 52.934, 87.170 52.876, 78.500 53.911 M 66.500 58.386 C 64.849 59.105, 62.904 60.411, 62.176 61.288 C 61.013 62.689, 61.377 63.020, 65.176 64.010 C 67.554 64.630, 73.963 66.456, 79.419 68.067 C 84.874 69.678, 89.504 70.830, 89.707 70.626 C 90.752 69.582, 82.883 61.202, 79.024 59.250 C 73.998 56.707, 70.849 56.490, 66.500 58.386 M 55.557 68.701 C 52.412 73.330, 52.344 76.280, 55.250 82.024 C 59.920 91.254, 70.899 95.547, 89.500 95.415 C 102.736 95.322, 110.052 93.352, 116.119 88.247 L 119.206 85.649 115.594 83.796 C 112.344 82.129, 96.494 76, 95.432 76 C 95.194 76, 95 77.505, 95 79.345 C 95 83.412, 92.433 86, 88.399 86 C 84.229 86, 74.196 79.756, 65.523 71.765 L 58.114 64.938 55.557 68.701 M 67.500 70.007 C 72.884 75.677, 84.800 83, 88.641 83 C 92.109 83, 92.115 82.993, 91.807 78.751 L 91.500 74.502 81 71.388 C 75.225 69.676, 69.150 67.953, 67.500 67.561 L 64.500 66.847 67.500 70.007 M 130.658 93.675 C 130.296 94.037, 130 94.933, 130 95.667 C 130 97.156, 132.578 97.492, 133.430 96.113 C 134.111 95.012, 131.562 92.771, 130.658 93.675 M 128.098 103.149 C 126.635 107.344, 126.755 107.900, 128.605 105.500 C 131.574 101.648, 132.182 100, 130.633 100 C 129.842 100, 128.702 101.417, 128.098 103.149 M 114.500 102.524 C 109.550 103.206, 97.175 104.064, 87 104.432 C 65.151 105.222, 52.642 106.476, 44.750 108.667 C 38.591 110.377, 37.187 112, 41.866 112 C 46.773 112, 58.039 118.520, 69.500 127.993 C 75.550 132.994, 81.467 137.328, 82.648 137.625 C 88.960 139.213, 92.617 135.427, 95.539 124.278 C 96.517 120.550, 97.631 117.136, 98.016 116.692 C 98.401 116.247, 101.818 115.253, 105.608 114.482 C 109.399 113.711, 115.024 112.336, 118.108 111.425 C 123.522 109.827, 123.750 109.618, 124.719 105.385 C 125.442 102.227, 125.412 101.040, 124.611 101.143 C 124 101.221, 119.450 101.843, 114.500 102.524 M 133.872 102.750 C 132.629 104.336, 132.664 104.371, 134.250 103.128 C 135.213 102.373, 136 101.585, 136 101.378 C 136 100.555, 135.179 101.084, 133.872 102.750 M 121.630 128.250 C 120.461 132.613, 120.950 133.828, 124.322 134.941 C 132.047 137.491, 137.945 147.452, 137.974 158 C 138.022 175.157, 126.377 175.601, 116.269 158.827 L 113.037 153.464 115.019 145.169 C 116.108 140.606, 117 136.656, 117 136.391 C 117 135.445, 109.414 137.322, 104.465 139.492 C 101.696 140.706, 98.187 143.177, 96.668 144.983 C 83.677 160.422, 89.092 175.351, 110.699 183.670 C 116.076 185.740, 119.803 186.385, 128.500 186.751 C 150.159 187.662, 162.497 181.063, 167.544 165.868 C 169.676 159.450, 168.860 155.209, 164.740 151.294 C 160.848 147.596, 156.835 145.537, 143 140.138 C 132.353 135.984, 125.632 131.567, 124.493 127.977 C 123.659 125.349, 122.375 125.472, 121.630 128.250 M 119.505 138.250 C 119.267 138.938, 118.382 142.562, 117.538 146.303 C 115.775 154.124, 116.165 155.408, 122.569 162.839 C 128.885 170.169, 133.065 170.186, 135.029 162.891 C 136.233 158.421, 135.159 151.141, 132.551 146.098 C 129.364 139.936, 120.720 134.736, 119.505 138.250" stroke="none" fill="black" fill-rule="evenodd"/>
</svg>