<svg xmlns="http://www.w3.org/2000/svg" width="200" height="200" viewBox="0 0 200 200" version="1.1">
	<path d="M 118 8.663 C 93.976 11.018, 72.559 14.389, 54.750 18.620 C 46.781 20.514, 44 21.577, 44 22.731 C 44 24.061, 45.127 24.194, 51.750 23.643 C 58.236 23.103, 60.397 23.339, 65 25.087 C 71.683 27.626, 72.678 28.478, 67.967 27.628 C 66.025 27.278, 60.010 26.955, 54.601 26.912 C 44.195 26.829, 41.368 27.796, 44.083 30.511 C 46.071 32.500, 62.403 36.578, 76.488 38.604 C 86.667 40.068, 88.134 40.080, 90.870 38.715 C 93.765 37.270, 94.133 37.333, 98.305 39.979 C 105.163 44.328, 105.275 47.255, 98.713 50.648 C 95.931 52.087, 95.646 52.035, 93.141 49.636 C 91.688 48.245, 88.250 46.071, 85.500 44.804 C 80.922 42.694, 79.151 42.504, 64.500 42.552 C 51.471 42.594, 46.855 43.013, 39.643 44.808 C 31.458 46.846, 25 49.590, 25 51.031 C 25 51.983, 36.927 55.819, 43.434 56.960 C 46.697 57.532, 51.647 58.005, 54.434 58.011 C 57.220 58.017, 61.244 58.310, 63.376 58.662 L 67.251 59.302 61.673 61.028 C 50.428 64.508, 41.700 71.754, 40.398 78.691 C 39.053 85.859, 45.457 93.690, 58.346 100.637 L 64.500 103.955 55.500 103.985 C 40.084 104.037, 28.902 106.447, 26.923 110.144 C 24.460 114.747, 35.755 119.896, 53.232 122.137 L 62.363 123.308 51.682 126.269 C 45.807 127.897, 41 129.535, 41 129.907 C 41 130.280, 48.488 132.795, 57.639 135.496 L 74.279 140.407 69.943 141.852 C 60.545 144.985, 53 156.230, 53 167.102 L 53 171.848 63.250 175.828 C 81.847 183.049, 89.834 185.196, 100.132 185.744 C 115.164 186.543, 125.658 183.102, 137.430 173.514 C 140.478 171.031, 143.275 169, 143.645 169 C 144.016 169, 146.928 171.488, 150.116 174.530 C 155.692 179.848, 162.642 183.932, 166.194 183.978 C 169.724 184.024, 173.030 179.764, 173.656 174.364 C 174.900 163.632, 167.490 143.086, 158.273 131.715 C 153.925 126.351, 145.576 120, 142.871 120 C 141.894 120, 139.905 119.458, 138.452 118.796 C 135.574 117.485, 135.557 116.826, 138.094 104.999 C 139.210 99.794, 143.947 93.513, 146.234 94.206 C 148.276 94.825, 151.795 102.815, 155.323 114.839 L 158.611 126.043 160.677 123.772 C 172.842 110.400, 180.013 79.003, 177.092 51.909 C 175.811 40.028, 173.517 31.083, 169.662 22.933 C 167.110 17.539, 160.612 9, 159.060 9 C 158.628 9, 156.584 15.469, 154.516 23.375 C 151.109 36.400, 150.569 37.700, 148.764 37.228 C 146.905 36.742, 146.819 37.045, 147.471 41.792 C 147.897 44.883, 147.675 49.095, 146.906 52.532 L 145.640 58.186 138.570 43.815 C 128.618 23.587, 122.585 16, 116.450 16 C 113.849 16, 108.508 22.047, 106.547 27.210 L 104.759 31.919 109.019 36.710 C 118.941 47.867, 122.329 62.245, 118.029 74.946 C 115.717 81.775, 110.754 90.003, 106.586 93.919 C 104.184 96.176, 103.964 96.206, 101.537 94.616 C 98.452 92.595, 98.452 92.491, 101.526 87.500 C 105.796 80.568, 104.493 70.483, 98.629 65.076 C 96.665 63.265, 96 61.677, 96 58.801 C 96 55.520, 96.407 54.796, 98.750 53.909 C 105.982 51.169, 108.116 45.025, 103.454 40.363 C 100.644 37.553, 85.818 30.316, 70.754 24.402 C 65.267 22.247, 61.552 20.285, 62.254 19.911 C 64.344 18.797, 92.623 14.170, 108 12.426 C 123.954 10.617, 141.768 10.892, 146.250 13.017 C 149.529 14.572, 149.797 17.425, 147 21 C 144.718 23.918, 144.514 25.003, 146.250 24.993 C 148.167 24.983, 152.200 18.426, 151.829 15.923 C 150.908 9.702, 137.268 6.775, 118 8.663 M 159.597 15 C 159.294 15.825, 157.238 23.475, 155.028 32 C 152.139 43.144, 151.009 49.537, 151.005 54.750 C 151.001 60.942, 150.672 62.323, 148.750 64.214 C 147.092 65.846, 145.683 69.992, 143.397 79.964 C 141.690 87.409, 140.449 93.685, 140.640 93.911 C 140.831 94.136, 141.892 93.502, 142.998 92.502 C 144.647 91.009, 145.449 90.883, 147.463 91.801 C 150.494 93.182, 152.980 97.960, 156.411 109 C 157.864 113.675, 159.292 118.166, 159.584 118.981 C 160.252 120.846, 164.732 113.760, 167.791 106 C 179.127 77.244, 176.398 33.428, 162.185 15.997 C 160.568 14.014, 160.035 13.809, 159.597 15 M 113.222 21.264 C 112.052 22.509, 110.393 25.208, 109.535 27.262 L 107.974 30.997 112.244 36.248 C 126.466 53.741, 126.167 74.335, 111.430 92.427 C 108.994 95.418, 107 98.039, 107 98.251 C 107 98.464, 110.798 101.244, 115.440 104.430 L 123.880 110.222 126.690 108.198 C 128.235 107.085, 131.045 104.566, 132.934 102.600 C 136.122 99.281, 136.661 97.707, 140.466 80.595 L 144.564 62.164 136.914 46.703 C 124.045 20.698, 118.922 15.197, 113.222 21.264 M 50 30.153 C 54.027 31.806, 73.865 35.799, 81.898 36.574 C 89.914 37.347, 90.683 36.451, 84.687 33.324 C 81.798 31.818, 59.100 29.011, 50.500 29.097 L 47.500 29.127 50 30.153 M 44.775 46.577 C 40.527 47.345, 35.577 48.590, 33.775 49.343 L 30.500 50.713 36 52.383 C 45.376 55.230, 64.172 56.517, 77.424 55.219 C 91.662 53.824, 93.272 53.146, 89.465 50.151 C 84.727 46.424, 77.683 44.992, 64.568 45.090 C 57.931 45.139, 49.024 45.808, 44.775 46.577 M 86.250 56.723 C 81.560 57.305, 82.250 58.451, 88 59.629 C 92.861 60.625, 93 60.589, 93 58.327 C 93 55.912, 92.927 55.895, 86.250 56.723 M 68.500 62.022 C 56.074 64.516, 44.652 72.007, 43.442 78.457 C 42.032 85.974, 47.842 92.357, 62.750 99.664 C 75.791 106.057, 75.223 107, 58.332 107 C 43.914 107, 33.314 108.319, 30.359 110.479 C 28.725 111.674, 28.857 111.943, 32.033 113.874 C 38.535 117.828, 49.043 119.504, 67 119.452 C 82.630 119.407, 83.896 119.255, 91 116.569 C 96.557 114.469, 100.703 113.647, 107 113.397 C 117.739 112.972, 120.532 112.346, 119.144 110.673 C 118.576 109.989, 114.933 107.258, 111.049 104.604 C 104.213 99.933, 103.908 99.830, 101.529 101.389 C 98.371 103.458, 93.402 103.489, 92.617 101.444 C 92.289 100.588, 92.661 98.353, 93.445 96.477 L 94.870 93.066 87.847 87.958 C 80.986 82.968, 80.777 82.892, 78.814 84.669 C 76.842 86.453, 76.671 86.349, 69.902 79.250 C 63.496 72.533, 61.485 69, 64.066 69 C 65.669 69, 68.905 70.885, 74.936 75.331 L 80.373 79.339 84.246 74.919 C 86.375 72.489, 88.983 68.848, 90.039 66.829 L 91.960 63.157 86.931 62.079 C 81.244 60.859, 74.399 60.838, 68.500 62.022 M 94 65.786 C 94 66.184, 91.539 69.781, 88.531 73.780 L 83.062 81.050 89.141 85.525 C 92.484 87.986, 95.536 90, 95.922 90 C 96.308 90, 97.609 88.668, 98.812 87.040 C 101.771 83.039, 101.856 74.121, 98.980 69.467 C 97.102 66.429, 94 64.136, 94 65.786 M 72.946 78.379 C 76.238 81.837, 78.044 82.871, 77.962 81.250 C 77.941 80.838, 76.029 79.208, 73.712 77.629 L 69.500 74.758 72.946 78.379 M 95.833 97.467 C 94.357 100.707, 95.067 101.382, 98.371 99.877 C 101.520 98.442, 101.682 97.436, 98.996 95.998 C 97.300 95.090, 96.813 95.316, 95.833 97.467 M 130.702 108.439 L 126.904 111.795 129.879 113.914 C 132.646 115.884, 132.891 115.909, 133.374 114.266 C 134.222 111.382, 135.251 104.997, 134.861 105.042 C 134.663 105.065, 132.791 106.593, 130.702 108.439 M 120 114.631 C 118.075 115.348, 112.900 115.920, 108.500 115.902 C 102.236 115.876, 99.246 116.395, 94.719 118.294 L 88.937 120.720 93.575 121.355 C 99.692 122.194, 107.593 126.583, 109.897 130.423 C 112.801 135.264, 113.220 138.734, 111.577 144.346 C 109.757 150.564, 105.533 155.885, 98.636 160.647 L 93.500 164.192 104 163.715 C 117.468 163.104, 121.013 161.670, 123.924 155.656 C 126.020 151.327, 132 125.446, 132 120.704 C 132 119.478, 130.991 117.856, 129.750 117.088 C 123.586 113.270, 123.624 113.280, 120 114.631 M 132.587 133.518 C 129.042 151.286, 127.481 156.275, 124.272 160.089 C 120.381 164.712, 116.718 165.833, 103.401 166.470 C 96.856 166.783, 88.013 167.266, 83.750 167.543 C 77.670 167.938, 76 167.757, 76 166.700 C 76 165.840, 78.235 164.937, 82.183 164.203 C 102.063 160.506, 115.192 143.278, 107.356 131.169 C 105.241 127.901, 96.794 124.243, 89.588 123.476 C 86.239 123.120, 79.675 123.348, 75 123.982 C 64.019 125.473, 49.644 129.057, 50.688 130.044 C 51.135 130.466, 57.125 132.476, 64 134.511 C 77.844 138.609, 79.637 139.528, 77.890 141.633 C 77.266 142.385, 76.120 143, 75.344 143 C 74.568 143, 71.744 144.110, 69.068 145.466 C 60.533 149.791, 55.460 158.158, 56.194 166.702 C 56.497 170.234, 56.604 170.311, 66.500 174.179 C 92.558 184.363, 108.034 185.898, 122.434 179.726 C 125.220 178.531, 131.158 174.768, 135.629 171.363 L 143.758 165.171 149.129 170.244 C 155.754 176.501, 162.660 181, 165.639 181 C 175.808 181, 170.440 152.188, 156.939 134.304 C 152.864 128.906, 145.330 123, 142.520 123 C 141.629 123, 139.633 122.345, 138.084 121.543 L 135.267 120.087 132.587 133.518" stroke="none" fill="black" fill-rule="evenodd"/>
</svg>