<svg xmlns="http://www.w3.org/2000/svg" width="200" height="200" viewBox="0 0 200 200" version="1.1">
	<path d="M 63 8.236 C 63 12.692, 67.361 21.281, 71.328 24.636 C 77.285 29.676, 84.413 32.185, 94.852 32.916 C 102.310 33.439, 97.348 33.740, 73 34.243 C 39.425 34.935, 35 35.341, 35 37.730 C 35 38.881, 35.643 39.061, 37.750 38.497 C 39.263 38.093, 55.411 37.554, 73.637 37.300 L 106.773 36.838 108.407 39.169 C 110.011 41.458, 109.963 41.536, 105.770 43.500 C 101.846 45.338, 99.113 45.520, 72.002 45.744 C 55.005 45.884, 42.373 46.380, 42.195 46.915 C 41.643 48.571, 52.078 49.179, 75.171 48.836 C 87.623 48.651, 97.625 48.801, 97.396 49.169 C 96.272 50.985, 100.892 52.949, 110.084 54.564 C 117.491 55.865, 120.776 56.912, 122.196 58.424 C 125.315 61.746, 137.131 81.791, 135.350 80.740 C 134.882 80.464, 131.470 78.394, 127.767 76.140 C 124.063 73.886, 117.910 70.469, 114.092 68.546 C 109.474 66.221, 106.919 64.289, 106.459 62.775 C 105.255 58.812, 101.025 54.054, 96.783 51.889 C 91.102 48.991, 80.692 49.538, 73 53.138 C 68.442 55.271, 66.910 56.700, 64.055 61.476 C 51.571 82.365, 68.748 100.174, 101.500 100.297 C 117.045 100.356, 131.832 95.478, 135.637 89.037 C 136.869 86.952, 137.645 86.414, 138.188 87.270 C 139.523 89.372, 139.076 96.446, 137.463 98.749 C 134.699 102.695, 130.097 103.099, 95.786 102.403 C 41.087 101.293, 25.536 102.464, 19.880 108.120 C 17.580 110.420, 18.419 112.158, 22.927 114.427 C 29.365 117.667, 55.320 122.191, 59.081 120.728 C 60.412 120.211, 64.429 119.743, 68.009 119.688 C 79.630 119.509, 84.614 123.229, 97 141.328 C 99.947 145.633, 104.997 151.545, 108.224 154.464 L 114.090 159.773 109.155 162.809 C 103.764 166.127, 96.164 169, 92.781 169 C 89.258 169, 82.333 165.126, 79.732 161.700 C 78.396 159.940, 74.802 154.450, 71.745 149.500 C 61.540 132.972, 55.391 128.560, 43.409 129.165 C 39.408 129.367, 35.767 129.900, 35.317 130.350 C 34.868 130.801, 34.512 134.651, 34.526 138.907 C 34.548 145.567, 34.999 147.555, 37.761 153.165 C 39.526 156.751, 42.823 161.790, 45.089 164.364 C 52.812 173.138, 67.327 182.775, 78.310 186.420 L 83.121 188.017 90.310 184.606 C 94.265 182.729, 99.885 180.700, 102.799 180.097 C 110.293 178.546, 124.801 178.737, 137.576 180.555 C 152.750 182.714, 159.377 181.534, 164.825 175.701 L 167.150 173.212 159.580 169.571 C 155.417 167.568, 150.208 164.215, 148.005 162.120 C 144.414 158.703, 144 157.812, 144 153.495 C 144 148.726, 144.091 148.592, 153.606 139.321 C 161.971 131.170, 163.041 129.755, 161.888 128.365 C 160.770 127.018, 158.687 126.837, 148.532 127.205 C 137.537 127.603, 135.983 127.432, 130.500 125.214 C 116.128 119.400, 115.811 119.566, 142.500 118.907 C 169.265 118.245, 174.260 117.307, 179.784 111.907 C 184.434 107.361, 184.013 105.714, 177.824 104.244 C 171.188 102.667, 161.106 97.530, 148.705 89.404 C 139.867 83.613, 138.958 82.739, 139.688 80.732 C 140.135 79.504, 140.500 75.709, 140.500 72.297 C 140.500 66.409, 140.297 65.885, 136.501 61.999 C 134.226 59.670, 130.462 57.181, 127.770 56.225 C 123.213 54.606, 118.067 49.597, 119.498 48.171 C 120.260 47.412, 148.588 47.770, 151.183 48.572 C 153.667 49.340, 158 42.497, 158 37.807 C 158 30.795, 153.919 28.988, 133.349 26.897 C 121.219 25.663, 121.199 25.657, 122.241 23.371 C 124.413 18.604, 118.264 13.651, 106.440 10.642 C 98.795 8.696, 84.080 6.587, 83.336 7.330 C 83.021 7.646, 84.952 10.466, 87.627 13.597 C 91.892 18.589, 92.184 19.203, 89.996 18.575 C 86.194 17.485, 69.159 9.250, 65.891 6.922 L 63 4.864 63 8.236 M 66.547 12.210 C 69.835 22.864, 79.143 28.963, 93.402 29.807 L 101.304 30.275 98.448 26.694 C 96.876 24.725, 94.445 22.830, 93.045 22.482 C 88.114 21.259, 75.444 15.828, 70.670 12.891 C 65.956 9.991, 65.857 9.975, 66.547 12.210 M 89.038 10.775 C 89.060 11.174, 90.972 13.641, 93.288 16.258 C 97.356 20.853, 97.837 21.088, 107.345 23.127 C 116.465 25.083, 117.311 25.118, 118.828 23.601 C 121.078 21.350, 119.563 19.092, 113.884 16.236 C 108.534 13.545, 88.957 9.242, 89.038 10.775 M 102.516 27.385 C 103.945 29.566, 104.437 29.689, 108.261 28.830 C 110.561 28.313, 112.599 27.734, 112.790 27.543 C 113.138 27.195, 103.762 25, 101.928 25 C 101.392 25, 101.657 26.073, 102.516 27.385 M 116 28.985 C 115.175 29.544, 112.813 30.468, 110.750 31.039 C 108.688 31.610, 107 32.578, 107 33.189 C 107 34.521, 122.400 33.710, 132.773 31.833 L 139.500 30.616 135 29.939 C 124.575 28.371, 117.437 28.013, 116 28.985 M 141.410 31.855 C 141.701 32.325, 135.877 34.878, 128.469 37.529 C 109.468 44.329, 109.797 44.741, 134.529 45.120 L 152.500 45.395 154.323 41.716 C 156.703 36.916, 155.824 34.547, 150.942 32.593 C 146.713 30.901, 140.525 30.422, 141.410 31.855 M 113.585 36.892 C 110.083 37.436, 109.846 37.646, 111.344 38.880 C 112.784 40.067, 113.755 39.970, 118.259 38.195 C 122.696 36.446, 123.040 36.142, 120.500 36.207 C 118.850 36.249, 115.738 36.557, 113.585 36.892 M 101.544 48.928 C 101.229 49.438, 101.765 50.090, 102.735 50.376 C 106.720 51.551, 117.247 53.087, 117.764 52.569 C 118.071 52.263, 117.504 51.110, 116.506 50.006 C 115.055 48.403, 113.426 48, 108.404 48 C 104.947 48, 101.860 48.418, 101.544 48.928 M 77.596 54.404 C 70.286 56.894, 68.479 58.528, 64.815 65.963 C 56.874 82.076, 70.780 95.588, 97.411 97.635 C 111.708 98.734, 129.280 93.800, 133.386 87.534 C 134.319 86.109, 134.827 84.529, 134.514 84.022 C 133.484 82.356, 110.391 69, 108.540 69 C 108.243 69, 107.998 70.912, 107.996 73.250 C 107.988 82.466, 101.762 86.960, 94.286 83.146 C 89.953 80.935, 82 72.822, 82 70.611 C 82 68.738, 87.462 64.173, 90.666 63.369 C 92.048 63.022, 95.607 62.989, 98.577 63.296 L 103.975 63.853 102.590 61.174 C 100.659 57.440, 97.778 55.040, 93.316 53.449 C 88.003 51.554, 85.517 51.705, 77.596 54.404 M 127.982 61.974 C 129.146 63.610, 131.877 67.990, 134.050 71.708 L 138 78.468 138 73.684 C 138 67.710, 136.029 63.799, 131.656 61.097 C 126.830 58.114, 125.465 58.440, 127.982 61.974 M 87.306 68.485 L 84.500 70.969 89.622 75.933 C 94.984 81.130, 99.214 82.978, 101.905 81.300 C 104.091 79.936, 106.204 73.205, 105.480 69.909 C 104.796 66.794, 102.810 66.033, 95.306 66.014 C 91.181 66.003, 89.534 66.512, 87.306 68.485 M 141.500 93.449 C 141.500 100.054, 139.594 102.449, 132.714 104.492 C 128.582 105.720, 122.989 105.843, 99.128 105.232 C 51.105 104.004, 33.234 104.816, 24.016 108.646 C 21.234 109.802, 20.831 110.287, 22.016 111.056 C 27.099 114.353, 54.219 119.371, 59.214 117.939 C 61.014 117.422, 65.415 117.010, 68.993 117.022 C 80.675 117.061, 86.516 121.313, 98.075 138.189 C 105.146 148.513, 110.400 154.013, 115.506 156.436 C 117.428 157.348, 119 158.427, 119 158.835 C 119 160.461, 105.307 168.445, 99.451 170.232 C 94.235 171.825, 92.531 171.951, 89.018 171.005 C 83.630 169.554, 77.003 163.443, 72.328 155.612 C 61.010 136.657, 55.083 131.464, 44.923 131.602 C 41.847 131.644, 38.750 132.037, 38.040 132.475 C 35.959 133.762, 37.271 145.728, 40.194 152.113 C 45.301 163.267, 61.147 176.742, 76.019 182.577 L 82.695 185.196 87.049 182.975 C 100.439 176.144, 113.521 174.656, 135.275 177.489 C 149.937 179.399, 156.514 179.024, 160.162 176.070 L 162.410 174.250 157.955 171.988 C 143.445 164.621, 138.650 157.489, 142.041 148.315 C 142.613 146.767, 146.749 142.024, 151.232 137.775 C 155.715 133.526, 159.091 129.758, 158.734 129.401 C 158.377 129.043, 153.228 129.202, 147.292 129.753 L 136.500 130.755 127.558 126.907 C 122.640 124.791, 117.707 122.152, 116.597 121.041 C 112.606 117.051, 115.247 116.509, 139.300 116.388 C 162.350 116.271, 170.806 115.139, 176.506 111.404 C 180.296 108.921, 179.546 107.676, 173.038 105.647 C 168.075 104.100, 154.490 96.664, 144 89.753 L 141.500 88.106 141.500 93.449" stroke="none" fill="black" fill-rule="evenodd"/>
</svg>