<svg xmlns="http://www.w3.org/2000/svg" width="200" height="200" viewBox="0 0 200 200" version="1.1">
	<path d="M 66.420 9.750 C 63.899 13.582, 64.097 18.410, 66.898 21.392 C 69.626 24.295, 76.865 27.563, 83.920 29.076 C 89.708 30.318, 90.729 32.588, 85.750 33.145 C 83.963 33.345, 72.600 33.227, 60.500 32.882 C 48.400 32.537, 38.343 32.392, 38.151 32.560 C 37.959 32.728, 38.128 34.797, 38.527 37.159 C 39.452 42.636, 44.077 47.398, 50.060 49.035 C 53.089 49.864, 59.040 50.072, 68.782 49.689 L 83.063 49.128 77.152 52.082 C 51.975 64.663, 51.834 84.400, 76.831 96.949 C 82.698 99.894, 95.228 103, 101.243 103 C 104.738 103, 106.046 103.363, 105.749 104.250 C 105.268 105.691, 67.571 105.863, 45.933 104.523 C 34.439 103.811, 32.971 103.919, 28.721 105.799 C 14.586 112.052, 28.568 126, 48.971 126 C 57.145 126, 65.274 123.944, 73.718 119.742 L 80.185 116.523 83.092 119.777 C 84.692 121.567, 86 124.175, 86 125.572 C 86 130.321, 77.802 132.498, 47.152 135.885 C 29.675 137.817, 31.812 141.746, 53.750 148.015 C 61.879 150.338, 62 150.420, 62 153.581 C 62 158.595, 65.675 169.252, 68.976 173.808 C 72.301 178.398, 78.384 182, 82.812 182 C 86.459 182, 91.770 178.465, 94.735 174.065 C 98.191 168.937, 100.016 161.684, 100.992 149.194 C 101.627 141.069, 102.480 136.640, 104.024 133.451 C 106.124 129.113, 111.401 124.206, 112.325 125.732 C 113.424 127.547, 118.174 148.811, 119.585 158.233 C 120.969 167.472, 120.923 171.991, 119.389 177.219 C 119.112 178.164, 117.223 179.406, 115.192 179.978 C 111.892 180.908, 110.783 180.665, 104.750 177.692 L 98 174.365 98 176.728 C 98 178.028, 99.105 180.195, 100.455 181.545 C 103.893 184.983, 110.716 184.834, 121.936 181.075 C 132.187 177.640, 144.360 174.989, 149.708 175.026 C 154.950 175.062, 160.478 177.842, 163.578 182 L 166.187 185.500 165.505 180 C 164.715 173.630, 161.363 165.629, 157.322 160.472 C 155.770 158.491, 148.944 152.338, 142.153 146.799 C 130.601 137.377, 126.013 132.363, 126.004 129.151 C 126.002 128.409, 126.704 126.318, 127.565 124.504 L 129.130 121.206 148.815 120.759 C 161.534 120.470, 169.739 119.848, 172 119.003 C 177.011 117.129, 180.916 114.186, 183.053 110.673 L 184.908 107.622 177.792 105.815 C 170.188 103.884, 165.101 101.317, 149.901 91.741 L 140.301 85.694 142.275 81.022 C 144.243 76.364, 144.243 76.338, 142.243 71.817 C 139.787 66.265, 136.478 63.676, 121.877 55.887 C 115.620 52.549, 109.612 48.959, 108.528 47.909 C 106.580 46.024, 106.637 46, 113.028 46.024 C 116.588 46.037, 121.190 46.440, 123.255 46.920 C 125.573 47.458, 127.238 47.423, 127.605 46.829 C 128.601 45.219, 127.453 44.821, 118.322 43.611 L 109.534 42.447 114.517 40.303 C 123.338 36.509, 142.884 31.756, 146.712 32.474 C 151.404 33.354, 155 35.080, 155 36.452 C 155 37.075, 152.975 39.571, 150.500 42 C 145.932 46.483, 145.083 48, 147.143 48 C 149.226 48, 158 38.372, 158 36.087 C 158 33.223, 152.594 30.800, 139.974 28.009 C 124.219 24.523, 123 24.099, 123 22.098 C 123 19.222, 118.108 15.010, 110.528 11.358 C 101.253 6.890, 96.376 6.835, 92.158 11.150 L 89.078 14.300 79.424 10.650 C 74.115 8.643, 69.424 7, 69 7 C 68.577 7, 67.416 8.238, 66.420 9.750 M 67.884 12.750 C 65.797 18.134, 70.793 22.830, 81.616 25.656 C 84.696 26.461, 87.347 26.979, 87.508 26.809 C 87.669 26.639, 87.959 24.321, 88.151 21.658 L 88.500 16.815 79 13.409 C 73.775 11.535, 69.376 10.001, 69.225 10.001 C 69.074 10, 68.471 11.238, 67.884 12.750 M 94.200 12.200 C 93.540 12.860, 93 13.902, 93 14.515 C 93 15.787, 118.809 23.524, 119.788 22.545 C 122.306 20.028, 106.543 11, 99.631 11 C 97.304 11, 94.860 11.540, 94.200 12.200 M 91.698 18.636 C 91.314 19.019, 91 21.050, 91 23.148 C 91 26.423, 91.368 27.054, 93.606 27.616 C 96.761 28.408, 111.044 27.318, 114.219 26.043 C 115.474 25.539, 116.221 25.098, 115.880 25.063 C 115.031 24.977, 95.876 19.274, 93.948 18.534 C 93.094 18.206, 92.082 18.252, 91.698 18.636 M 117.766 27.740 C 114.238 29.487, 101.447 30.917, 95.424 30.239 C 91.700 29.819, 90.833 29.997, 91.208 31.105 C 91.758 32.737, 109.755 32.995, 126.434 31.610 C 137.170 30.719, 137.268 30.060, 127 27.810 C 121.510 26.608, 120.075 26.597, 117.766 27.740 M 41.507 37.916 C 42.402 41.523, 45.664 44.734, 49.832 46.110 C 53.386 47.282, 77.617 46.828, 86.595 45.420 L 90.691 44.778 89.972 40.849 C 89.577 38.689, 89.084 36.768, 88.877 36.581 C 88.670 36.394, 77.782 36.037, 64.683 35.787 L 40.867 35.332 41.507 37.916 M 101.144 35.746 C 92.045 36.069, 91.803 36.139, 92.380 38.289 C 92.706 39.505, 92.979 41.288, 92.986 42.250 C 93.008 44.989, 103.578 44.745, 106.568 41.936 C 107.776 40.801, 111.405 38.787, 114.632 37.460 L 120.500 35.047 115.500 35.231 C 112.750 35.332, 106.290 35.564, 101.144 35.746 M 98.750 46.805 C 93.479 47.143, 92.524 48.415, 96.750 49.469 C 101.182 50.575, 105.845 54.761, 108.515 60.029 C 109.882 62.726, 111 65.512, 111 66.218 C 111 66.925, 113.009 68.569, 115.465 69.872 C 117.921 71.175, 124.008 74.878, 128.991 78.100 L 138.052 83.960 139.661 80.585 C 143.172 73.222, 138.333 67.518, 120.934 58.512 C 114.645 55.257, 108.150 51.223, 106.500 49.547 C 103.864 46.869, 102.924 46.537, 98.750 46.805 M 84.750 48.662 C 85.438 48.940, 86.563 48.940, 87.250 48.662 C 87.938 48.385, 87.375 48.158, 86 48.158 C 84.625 48.158, 84.063 48.385, 84.750 48.662 M 83.324 52.439 C 75.576 54.862, 65.306 62.574, 62.435 68.125 C 57.206 78.238, 65.235 89.777, 81.895 96.088 C 87.579 98.241, 103.813 101.520, 104.650 100.683 C 104.901 100.432, 104.301 97.205, 103.317 93.510 C 101.627 87.168, 101.275 86.666, 97.011 84.506 C 94.528 83.247, 90.118 79.703, 87.211 76.630 C 82.059 71.182, 81.967 70.981, 83.522 68.607 C 85.154 66.116, 90.599 63, 93.321 63 C 94.535 63, 94.674 62.351, 94.016 59.750 C 93.564 57.962, 92.917 55.263, 92.578 53.750 C 91.873 50.605, 90.028 50.343, 83.324 52.439 M 95.334 53.429 C 95.636 54.215, 96.181 56.449, 96.546 58.393 C 96.911 60.338, 97.725 62.313, 98.355 62.783 C 99.792 63.854, 107.270 66.064, 107.769 65.564 C 108.699 64.635, 103.678 56.856, 100.665 54.558 C 96.968 51.738, 94.484 51.212, 95.334 53.429 M 88.750 67.572 C 87.237 68.393, 86 69.629, 86 70.320 C 86 71.862, 94.607 80.311, 97.896 81.998 C 100.146 83.152, 100.252 83.082, 99.635 80.863 C 99.273 79.564, 98.252 75.688, 97.367 72.250 C 95.594 65.366, 94.205 64.612, 88.750 67.572 M 99 67.030 C 99 68.582, 102.885 82.219, 103.504 82.837 C 103.807 83.140, 105.026 82.418, 106.213 81.232 C 107.788 79.656, 108.387 77.797, 108.435 74.335 L 108.500 69.596 103.750 67.815 C 101.125 66.832, 99 66.481, 99 67.030 M 111.521 75.711 C 110.990 79.247, 109.967 81.238, 107.466 83.597 L 104.120 86.752 106.107 93.376 C 108.025 99.768, 108.207 99.998, 111.297 99.956 C 117.468 99.872, 124.137 96.551, 132.979 89.162 L 136.458 86.254 127.979 80.796 C 123.316 77.794, 117.864 74.357, 115.865 73.159 L 112.230 70.979 111.521 75.711 M 132.331 92.994 C 125.534 98.816, 119.696 101.806, 113.458 102.661 C 111.006 102.997, 109 103.661, 109 104.136 C 109 106.059, 140.681 104.017, 150.437 101.466 C 153.222 100.737, 155.859 100.491, 156.298 100.919 C 156.737 101.346, 152.912 104.217, 147.798 107.298 C 142.684 110.378, 137.150 114.058, 135.500 115.475 L 132.500 118.052 151 117.751 C 167.579 117.482, 169.915 117.231, 173.500 115.332 C 175.700 114.166, 178.303 112.325, 179.284 111.240 C 181.026 109.314, 180.979 109.252, 177.284 108.648 C 171.931 107.773, 162.957 103.301, 150.067 95.087 C 143.950 91.189, 138.770 88, 138.554 88 C 138.338 88, 135.538 90.247, 132.331 92.994 M 35.429 107.047 C 32.640 107.427, 29.378 108.263, 28.179 108.904 C 25.341 110.423, 25.374 114.079, 28.250 116.709 C 32.839 120.905, 37.236 122.364, 46.606 122.801 C 57.224 123.296, 63.928 121.726, 74 116.382 L 80.500 112.934 84.211 116.886 C 88.278 121.218, 89.842 125.429, 88.303 127.905 C 86.541 130.742, 81.055 133.822, 75.713 134.975 C 70.952 136.002, 45.895 138.964, 41.750 138.989 C 37.446 139.016, 40.727 141.152, 48.750 143.548 C 65.753 148.624, 64.407 147.682, 65.168 155.040 C 67.094 173.669, 79.663 184.503, 89.416 175.940 C 94.363 171.596, 96.790 164.222, 98.447 148.500 C 100.006 133.698, 101.004 131.036, 107.035 125.587 L 111.200 121.824 109.435 115.018 L 107.669 108.211 87.257 108.757 C 74.148 109.108, 63.206 108.872, 56.673 108.099 C 41.740 106.331, 40.965 106.292, 35.429 107.047 M 123.260 107.267 C 115.978 107.794, 110.186 108.511, 110.388 108.862 C 110.590 109.213, 111.475 112.008, 112.354 115.074 L 113.954 120.649 121.227 119.215 C 125.227 118.426, 129.400 116.978, 130.500 115.997 C 131.600 115.017, 135.162 112.366, 138.416 110.107 L 144.332 106 140.416 106.155 C 138.262 106.241, 130.542 106.741, 123.260 107.267 M 120.112 122.081 C 117.698 122.555, 115.540 123.127, 115.314 123.352 C 115.089 123.578, 116.023 128.203, 117.390 133.631 C 121.651 150.557, 123.211 160.867, 122.845 169.695 C 122.571 176.311, 122.773 177.918, 123.829 177.512 C 124.559 177.232, 128.834 176.045, 133.329 174.876 C 143.708 172.174, 154.283 171.968, 158.840 174.378 L 162.181 176.145 161.464 173.822 C 158.879 165.450, 154.249 159.997, 139.889 148.411 C 133.265 143.066, 127.189 137.692, 126.388 136.469 C 123.781 132.491, 123.157 128.585, 124.502 124.673 C 125.196 122.653, 125.480 121.049, 125.132 121.110 C 124.784 121.170, 122.525 121.607, 120.112 122.081" stroke="none" fill="black" fill-rule="evenodd"/>
</svg>