<svg xmlns="http://www.w3.org/2000/svg" width="200" height="200" viewBox="0 0 200 200" version="1.1">
	<path d="M 114 10.105 C 107.125 10.539, 91.233 10.857, 78.684 10.813 C 63.312 10.759, 55.508 11.092, 54.766 11.834 C 53.197 13.403, 54.890 13.775, 66 14.300 C 72.129 14.590, 77.807 15.534, 82 16.960 C 88.193 19.066, 95.490 22.843, 94.765 23.568 C 94.578 23.755, 91.517 23.488, 87.963 22.974 C 80.713 21.926, 59.017 21.673, 56.582 22.607 C 52.092 24.330, 58.317 28.887, 67.464 30.572 C 71.255 31.271, 70.971 31.405, 60.964 33.647 C 42.173 37.858, 33 41.414, 33 44.488 C 33 47.606, 37.351 48.417, 57 48.961 C 71.034 49.349, 75.007 49.700, 71.173 50.212 C 60.061 51.697, 49.453 58.795, 43.914 68.453 C 42.322 71.229, 41.015 73.807, 41.009 74.182 C 41.004 74.557, 45.088 77.019, 50.084 79.653 C 60.845 85.327, 66.636 90.944, 64.957 94.080 C 63.196 97.371, 58.602 99.551, 45.173 103.471 C 30.546 107.740, 27.745 109.198, 28.189 112.313 C 28.575 115.026, 36.040 118.847, 46.005 121.431 C 52.545 123.128, 53.339 123.143, 57.270 121.657 C 66.994 117.980, 81.139 116.009, 108 114.588 L 117.500 114.085 123.836 119.996 L 130.172 125.907 114.482 125.295 C 99.490 124.709, 98.808 124.765, 99.154 126.563 C 99.526 128.494, 106.485 130.976, 125.750 136.047 L 134 138.219 134 142.017 L 134 145.815 128.426 146.157 C 123.221 146.477, 122.443 146.213, 116.676 142.168 C 107.836 135.968, 89.827 127.428, 80.562 125.043 C 71.011 122.585, 59.177 122.380, 52.774 124.561 C 47.235 126.449, 39.718 132.570, 42 133.334 C 42.825 133.610, 48.788 135.461, 55.250 137.447 C 61.713 139.433, 67 141.244, 67 141.471 C 67 141.697, 64.284 143.330, 60.965 145.099 C 49.644 151.133, 46.280 157.703, 49.417 167.653 C 51.121 173.059, 59.934 185.765, 65.926 191.455 L 69.038 194.410 72.115 190.676 C 77.052 184.687, 81.995 182.684, 93.030 182.202 C 101.323 181.839, 105.216 182.331, 123.030 185.994 C 150.488 191.640, 156.630 190.987, 161.248 181.929 C 163.294 177.917, 163.573 168.187, 161.884 159.774 C 161.009 155.417, 160.234 153.972, 158.302 153.092 C 154.696 151.449, 143.478 150.048, 139.325 150.722 C 136.516 151.178, 135.833 150.999, 136.198 149.903 C 136.539 148.877, 140.274 148.175, 150.082 147.292 C 168.716 145.614, 177.019 144.114, 177.716 142.297 C 178.906 139.197, 174.208 138.260, 151.990 137.165 L 138.500 136.500 138.191 133.314 L 137.883 130.129 141.657 131.171 C 147.033 132.655, 154.118 131.711, 158.625 128.909 L 162.500 126.500 150.750 126.218 C 137.441 125.899, 138.389 126.729, 139.622 116.472 L 140.226 111.444 145.863 109.783 C 152.061 107.956, 159.133 102.577, 161.594 97.819 C 162.441 96.180, 164.094 92.063, 165.267 88.669 C 167.188 83.111, 167.398 80.371, 167.384 61 C 167.364 30.451, 164.378 15, 158.495 15 C 156.639 15, 155.544 15.974, 154.002 18.996 C 151.476 23.948, 147.685 39.484, 144.565 57.677 L 142.194 71.500 142.078 63 C 141.954 54.012, 140.660 43.907, 136.858 22.250 L 134.532 9 130.516 9.158 C 128.307 9.246, 120.875 9.672, 114 10.105 M 109.500 13.055 C 102.350 13.449, 93.575 13.849, 90 13.944 L 83.500 14.115 88.550 16.413 C 91.328 17.677, 95.153 20.046, 97.050 21.677 C 99.223 23.546, 103.091 25.321, 107.500 26.474 C 122.321 30.350, 130 35.449, 130 41.414 C 130 43.141, 129.299 45.555, 128.443 46.777 C 126.989 48.854, 126.135 49, 115.427 49 L 103.968 49 102.237 52.630 C 100.514 56.243, 100.517 56.267, 103.003 57.880 C 113.098 64.429, 118.538 73.050, 117.750 81.250 C 117.331 85.606, 116.677 86.911, 113.359 90.006 C 111.215 92.007, 108.630 94.108, 107.616 94.675 C 106.053 95.550, 105.956 96.048, 106.975 97.954 C 108.044 99.951, 108.676 100.126, 112.672 99.526 C 124.518 97.750, 130.555 93.680, 135.130 84.389 C 138.084 78.387, 138.419 76.756, 138.813 66.452 C 139.052 60.218, 138.719 51.378, 138.073 46.809 C 136.968 38.985, 133.556 19.196, 132.460 14.250 C 131.899 11.716, 132.879 11.766, 109.500 13.055 M 156.003 21.287 C 153.285 27.398, 149.616 43.693, 146.567 63.192 C 143.213 84.648, 140.558 106.892, 141.268 107.601 C 142.155 108.489, 148.994 106.022, 153.025 103.360 C 157.114 100.659, 158.967 97.803, 162.013 89.500 C 166.948 76.050, 165.186 26.044, 159.507 18.360 C 158.233 16.636, 157.976 16.851, 156.003 21.287 M 60.640 24.774 C 59.730 26.245, 75.465 29.799, 85.857 30.469 C 98.648 31.294, 104.053 34.802, 104.526 42.587 L 104.736 46.042 114.840 46.528 C 124.872 47.011, 124.956 46.996, 126.663 44.392 C 128.199 42.047, 128.226 41.494, 126.915 39.158 C 124.357 34.600, 103.774 26.286, 102.689 29.372 C 102.428 30.115, 101.645 29.931, 100.396 28.832 C 97.204 26.024, 62.083 22.439, 60.640 24.774 M 70.628 34.572 C 60.758 36.108, 45.342 40.099, 39.386 42.659 L 35.500 44.328 39.500 45.269 C 41.700 45.786, 56.550 46.275, 72.500 46.355 L 101.500 46.500 101.812 43.799 C 102.845 34.844, 91.135 31.378, 70.628 34.572 M 81.753 50.109 C 84.642 50.590, 89.481 51.854, 92.507 52.918 C 97.861 54.800, 98.036 54.802, 99.004 52.992 C 101.010 49.245, 100.321 48.997, 88.250 49.117 C 77.967 49.219, 77.156 49.343, 81.753 50.109 M 63.302 55.103 C 57.209 57.445, 49.411 64.120, 46.315 69.643 L 44.130 73.541 51.748 77.463 C 65.992 84.795, 71.375 92.577, 65.750 97.701 C 62.234 100.903, 59.453 102.078, 45.080 106.433 C 37.698 108.670, 31.471 111.070, 31.241 111.767 C 30.751 113.249, 36.753 116.053, 45.712 118.527 C 51.878 120.229, 51.994 120.223, 61.212 117.651 C 72.168 114.594, 82.493 113.189, 101.174 112.214 L 114.847 111.500 111.174 107.224 C 107.584 103.045, 107.310 102.926, 99.134 102.004 C 94.533 101.486, 89.920 100.792, 88.884 100.463 C 85.103 99.263, 87.013 97.351, 93.130 96.213 C 96.502 95.586, 99.490 94.843, 99.771 94.562 C 100.193 94.141, 96.671 89.175, 87.357 77.060 C 86.388 75.799, 85.375 76.291, 80.688 80.295 L 75.161 85.017 74.472 78.584 C 73.248 67.157, 77.006 62.757, 83.046 68.544 L 85.876 71.256 88.418 68.378 C 89.817 66.795, 92.179 63.779, 93.668 61.675 C 96.791 57.263, 96.545 56.916, 88.568 54.496 C 81.530 52.361, 69.695 52.645, 63.302 55.103 M 98 59.800 C 98 60.240, 95.736 63.410, 92.968 66.844 C 89.976 70.557, 88.232 73.577, 88.664 74.294 C 90.201 76.842, 103.181 93, 103.691 93 C 103.986 93, 105.976 92.017, 108.114 90.816 C 113.645 87.707, 116.298 81.965, 114.842 76.254 C 113.640 71.541, 107.772 64.258, 102.603 61.064 C 98.989 58.830, 98 58.559, 98 59.800 M 77 74 C 77 76.750, 77.313 79, 77.695 79 C 78.078 79, 79.652 77.791, 81.195 76.314 L 83.998 73.627 81.825 71.314 C 78.326 67.589, 77 68.328, 77 74 M 140.613 77.021 C 138.508 90.180, 128.497 99.950, 115.163 101.858 L 110.567 102.515 114.517 106.887 L 118.467 111.259 126.650 110.630 C 131.151 110.284, 135.463 109.760, 136.232 109.465 C 137.228 109.082, 138.276 103.878, 139.877 91.360 C 141.113 81.697, 141.931 73.598, 141.695 73.362 C 141.459 73.126, 140.972 74.773, 140.613 77.021 M 98 97.910 C 95.587 98.596, 95.617 98.644, 98.875 99.310 C 104.354 100.430, 105.457 100.256, 104 98.500 C 102.661 96.887, 101.872 96.809, 98 97.910 M 134.500 112.502 C 133.950 112.692, 130.865 113.145, 127.644 113.509 L 121.789 114.170 124.474 116.972 C 125.950 118.514, 129.088 121.161, 131.448 122.855 L 135.737 125.935 136.369 121.328 C 137.545 112.744, 137.290 111.541, 134.500 112.502 M 61 125.649 C 56.317 126.354, 50.650 128.183, 48.219 129.776 C 45.832 131.340, 45.957 131.417, 56.044 134.608 C 66.159 137.807, 70.904 140.729, 69.549 142.922 C 69.167 143.539, 66.261 145.354, 63.091 146.954 C 55.313 150.881, 51 155.873, 51 160.952 C 51 167.629, 56.334 177.249, 65.282 186.713 L 68.320 189.926 71.859 186.819 C 82.794 177.218, 93.367 176.805, 130 184.544 C 150.888 188.957, 158.122 187.108, 160.047 176.864 C 161.037 171.595, 159.399 158.054, 157.541 156.147 C 156.817 155.404, 152.902 154.316, 148.841 153.731 C 136.103 151.896, 132.959 154.329, 138.127 162.023 C 139.707 164.376, 141 167.289, 141 168.495 C 141 171.535, 137.949 174, 134.187 174 L 131.031 174 131.600 167.750 C 131.913 164.313, 132.323 160.985, 132.512 160.356 C 132.701 159.728, 131.792 158.214, 130.493 156.993 L 128.130 154.774 118.901 157.421 C 113.825 158.877, 104.532 162.078, 98.251 164.534 C 78.864 172.115, 77.365 170.365, 91.538 156.698 L 101.076 147.500 109.788 147 L 118.500 146.500 110.988 141.795 C 93.521 130.854, 72.195 123.966, 61 125.649 M 109.083 128.398 C 109.650 128.939, 132.370 135, 133.833 135 C 134.475 135, 135 133.715, 135 132.145 C 135 129.349, 134.859 129.276, 128.250 128.652 C 120.743 127.943, 108.436 127.780, 109.083 128.398 M 137 142.414 C 137 145.709, 137.187 145.921, 139.750 145.519 C 141.262 145.281, 148.341 144.565, 155.481 143.926 C 173.172 142.343, 174.906 141.387, 161.500 140.607 C 155.450 140.255, 147.463 139.723, 143.750 139.423 L 137 138.879 137 142.414 M 111.569 149.747 L 102.638 150.083 94.281 157.670 C 89.684 161.843, 86.094 165.427, 86.302 165.635 C 86.509 165.843, 93.164 163.567, 101.090 160.578 C 109.015 157.588, 117.655 154.602, 120.289 153.943 C 124.883 152.792, 125.009 152.667, 123.384 150.872 C 122.452 149.842, 121.422 149.093, 121.095 149.206 C 120.768 149.319, 116.481 149.562, 111.569 149.747 M 127.696 150.500 C 128.874 151.325, 130.549 151.727, 131.419 151.393 C 134.253 150.305, 133.085 149, 129.277 149 C 125.684 149, 125.629 149.052, 127.696 150.500 M 135.018 164.500 C 134.993 165.600, 134.701 167.512, 134.370 168.750 C 133.883 170.565, 134.176 171, 135.883 171 C 138.437 171, 138.791 167.427, 136.532 164.441 C 135.083 162.526, 135.063 162.527, 135.018 164.500" stroke="none" fill="black" fill-rule="evenodd"/>
</svg>