<svg xmlns="http://www.w3.org/2000/svg" width="200" height="200" viewBox="0 0 200 200" version="1.1">
	<path d="M 89 9.617 C 89 10.820, 88.425 11.066, 86.750 10.581 C 85.513 10.222, 81.233 9.654, 77.239 9.319 C 71.096 8.804, 69.672 8.987, 67.989 10.510 C 62.831 15.177, 69.450 26.502, 79.448 30.118 C 85.372 32.260, 83.089 33.528, 73.898 33.202 C 62.433 32.795, 45.913 34.477, 42.122 36.437 C 38.519 38.300, 37.983 41.581, 40.750 44.839 C 42.920 47.394, 52.999 54, 54.727 54 C 57.457 54, 55.732 52.055, 49.582 48.199 C 36.148 39.776, 39.342 37.061, 63.662 36.234 C 72.002 35.951, 79.485 35.972, 80.291 36.282 C 81.503 36.746, 81.576 37.642, 80.711 41.422 C 79.753 45.606, 79.398 46.009, 76.582 46.100 C 72.168 46.242, 68.714 47.359, 68.234 48.797 C 67.920 49.740, 69.203 49.876, 73.578 49.362 C 78.784 48.750, 79.271 48.852, 78.667 50.424 C 78.300 51.381, 78 52.542, 78 53.004 C 78 53.467, 76.463 54.352, 74.584 54.972 C 69.092 56.785, 62.045 63.726, 58.859 70.460 C 57.288 73.782, 56.001 77.350, 56.001 78.388 C 56 79.427, 57.840 82.273, 60.089 84.712 C 65.383 90.455, 68.381 97.155, 67.577 101.442 C 65.865 110.568, 51.245 114.763, 31.692 111.740 C 26.848 110.991, 22.737 110.631, 22.557 110.939 C 21.099 113.443, 21.033 120.267, 22.439 123.230 C 25.304 129.267, 28.790 130.500, 43 130.500 C 49.875 130.500, 59.379 130.114, 64.121 129.642 L 72.741 128.785 73.187 131.824 C 73.545 134.257, 73.222 134.973, 71.567 135.418 C 68.612 136.211, 59.347 136.022, 53.500 135.048 C 50.750 134.591, 48.357 134.348, 48.181 134.510 C 48.006 134.672, 49.753 141.935, 52.063 150.652 C 56.594 167.747, 61.498 179.787, 65.799 184.372 C 69.250 188.052, 75.517 190.957, 80 190.954 C 84.732 190.952, 93.390 187.257, 100.735 182.105 L 106.794 177.855 111.809 181.458 C 129.903 194.458, 147.200 186.761, 151.989 163.580 C 154.877 149.605, 149.017 135.883, 138.863 132.841 C 135.915 131.958, 135 131.167, 135 129.504 C 135 127.340, 135.102 127.329, 150.387 127.793 C 168.873 128.355, 173.995 127.716, 177.995 124.351 C 181.582 121.332, 181.828 118.342, 178.975 112.448 C 175.376 105.014, 174.558 104.683, 165.509 106.998 C 156.852 109.212, 147.405 109.597, 143.657 107.890 C 139.468 105.981, 138.747 102.733, 138.906 86.500 C 139.065 70.282, 137.966 64.220, 133.724 57.912 L 131.430 54.500 121.465 53.925 C 110.464 53.291, 106.692 52.424, 107.279 50.665 C 107.550 49.853, 112.343 49.460, 123.084 49.368 C 143.489 49.193, 146.628 48.511, 160.749 41.186 C 165.035 38.962, 164.509 36.732, 159.491 35.856 C 157.296 35.472, 148.286 32.310, 139.468 28.829 C 126.713 23.794, 123.507 22.153, 123.781 20.802 C 124.828 15.657, 117.914 11.646, 104.146 9.411 C 92.515 7.523, 89 7.571, 89 9.617 M 104.974 16.003 C 112.934 18.751, 119.797 21, 120.224 21 C 120.651 21, 121 20.335, 121 19.523 C 121 15.988, 111.148 12.556, 98.219 11.586 L 90.500 11.007 104.974 16.003 M 69.313 13.123 C 66.776 16.180, 73.020 24.440, 80.104 27.399 L 83.707 28.905 85.705 21.419 C 86.845 17.146, 87.309 13.691, 86.786 13.368 C 86.283 13.057, 82.402 12.564, 78.163 12.274 C 72.329 11.874, 70.178 12.080, 69.313 13.123 M 88.557 21.083 C 86.043 30.043, 86.358 30.376, 96.771 29.749 C 104.812 29.265, 116.161 26.167, 117.432 24.110 C 117.898 23.357, 94.219 15, 91.617 15 C 90.814 15, 89.569 17.475, 88.557 21.083 M 116.312 27.641 C 110.732 30.892, 98.967 33.309, 91.750 32.686 C 88.295 32.388, 85.743 32.606, 85.356 33.233 C 84.726 34.252, 100.575 33.909, 125.236 32.370 C 133.750 31.839, 135.052 31.972, 135.611 33.429 C 136.452 35.620, 134.435 37.028, 124 41.533 C 119.325 43.552, 115.050 45.665, 114.500 46.228 C 113.818 46.927, 117.953 47.071, 127.500 46.682 C 141.684 46.104, 151.985 43.906, 156.403 40.516 C 158.275 39.080, 158.275 39.043, 156.403 38.359 C 155.357 37.976, 147.196 34.813, 138.270 31.331 C 129.343 27.849, 121.693 25.045, 121.270 25.100 C 120.846 25.155, 118.615 26.298, 116.312 27.641 M 112 36.042 C 108.975 36.460, 101.488 36.847, 95.361 36.901 L 84.223 37 83.547 40.602 C 83.175 42.583, 83.017 44.350, 83.195 44.528 C 83.372 44.706, 88.914 45.145, 95.509 45.505 L 107.500 46.158 119.499 40.579 L 131.498 35 124.499 35.141 C 120.649 35.218, 115.025 35.624, 112 36.042 M 81.607 49.582 C 80.436 52.632, 81.051 53, 87.322 53 C 95.562 53, 101.830 55.218, 107.369 60.093 C 114.914 66.735, 116.652 74.608, 112.503 83.352 C 110.868 86.798, 110.872 86.815, 114.432 91.479 C 116.395 94.050, 118 96.516, 118 96.959 C 118 97.402, 120.636 100.433, 123.858 103.696 C 129.304 109.209, 134 117.893, 134 122.450 C 134 124.422, 139.841 125.165, 156.262 125.279 C 173.754 125.400, 178 124.132, 178 118.783 C 178 114.349, 173.529 107.697, 171.073 108.477 C 166.374 109.968, 155.054 111.967, 151.218 111.983 C 146.111 112.003, 141.245 110.111, 138.500 107.036 C 136.695 105.015, 136.451 102.974, 136 86.148 C 135.535 68.793, 135.327 67.153, 133 62.500 L 130.500 57.500 120.125 56.711 C 109.081 55.871, 104 54.105, 104 51.105 C 104 48.887, 99.930 48.027, 89.357 48.011 C 83.759 48.002, 82.083 48.342, 81.607 49.582 M 82.250 55.669 C 81.013 55.928, 79.991 56.445, 79.979 56.820 C 79.968 57.194, 79.095 62.733, 78.040 69.128 C 75.335 85.528, 73.636 108.621, 74.475 117.579 L 75.187 125.173 84.343 124.498 C 89.380 124.127, 101.937 123.751, 112.249 123.662 C 124.818 123.553, 130.999 123.147, 130.999 122.428 C 131.002 119.305, 127.440 111.706, 124.200 107.921 L 120.509 103.609 119.816 108.458 C 119.434 111.125, 118.532 113.681, 117.811 114.138 C 117.090 114.595, 112 114.976, 106.500 114.983 C 94.571 115, 89.701 113.244, 89.183 108.740 C 88.476 102.599, 100.881 96.027, 110.652 97.366 C 113.043 97.694, 114.998 97.633, 114.995 97.231 C 114.992 96.829, 113.305 94.318, 111.245 91.651 C 108.306 87.846, 105.367 85.693, 97.594 81.651 C 88.267 76.801, 84.729 73.938, 86.218 72.448 C 87.352 71.315, 93.516 73.926, 100.111 78.333 C 103.625 80.681, 107.072 82.949, 107.771 83.373 C 109.360 84.337, 112 78.434, 112 73.918 C 112 67.171, 105.446 59.870, 97 57.210 C 92.605 55.826, 85.204 55.053, 82.250 55.669 M 73.135 58.731 C 68.353 61.048, 64.043 65.712, 61.358 71.479 C 58.387 77.858, 58.415 79.105, 61.595 82.076 C 64.766 85.038, 68.763 91.688, 70.032 96.111 C 71.436 101.007, 69.621 106.343, 65.355 109.859 C 59.287 114.861, 54.320 115.504, 28.500 114.635 C 24.668 114.506, 24.487 114.640, 24.181 117.821 C 23.759 122.220, 26.089 125.544, 30.650 127.049 C 34.390 128.284, 58.318 127.874, 67.622 126.417 L 71.744 125.771 72.278 104.136 C 72.657 88.800, 73.429 78.891, 74.929 70.106 C 76.093 63.289, 76.912 57.579, 76.751 57.417 C 76.589 57.255, 74.962 57.847, 73.135 58.731 M 99.684 101.449 C 93.154 103.778, 89.808 108.527, 93.213 110.632 C 95.556 112.079, 103.566 112.858, 110.250 112.288 L 117 111.713 117 106.832 C 117 102.512, 116.705 101.838, 114.435 100.975 C 110.866 99.618, 104.218 99.832, 99.684 101.449 M 93.500 127.048 C 85.250 127.430, 77.803 127.800, 76.951 127.871 C 75.786 127.968, 75.503 128.866, 75.809 131.492 L 76.217 134.983 96.858 134.362 C 118.948 133.698, 124.352 134.352, 128.151 138.151 C 130.427 140.427, 130.397 140.677, 126.505 152.072 C 121.975 165.333, 114.784 171.370, 103.422 171.455 C 90.284 171.552, 80.665 160.869, 74.424 139.250 C 74.163 138.347, 70.981 138, 62.952 138 L 51.841 138 52.545 141.250 C 54.885 152.043, 60.343 169.736, 62.889 174.780 C 66.095 181.132, 71.491 186.583, 75.589 187.612 C 82.185 189.267, 92.233 185.626, 101.682 178.157 L 106.746 174.154 112.497 178.456 C 125.625 188.276, 137.557 187.028, 144.707 175.088 C 152.728 161.693, 151.112 142.941, 141.420 136.951 C 139.684 135.878, 137.119 135, 135.720 135 C 133.543 135, 133.081 134.438, 132.519 131.111 C 131.956 127.780, 131.423 127.135, 128.806 126.611 C 125.339 125.918, 115.237 126.043, 93.500 127.048 M 81.745 137.735 C 77.139 138.098, 77.011 138.194, 77.666 140.805 C 80.220 150.986, 86.664 161.425, 92.967 165.597 C 101.247 171.077, 112.453 169.339, 118.612 161.620 C 121.124 158.471, 124.974 149.231, 126.683 142.248 C 127.696 138.108, 122.462 136.974, 103.282 137.180 C 94.052 137.279, 84.360 137.529, 81.745 137.735" stroke="none" fill="black" fill-rule="evenodd"/>
</svg>