<svg xmlns="http://www.w3.org/2000/svg" width="200" height="200" viewBox="0 0 200 200" version="1.1">
	<path d="M 111.500 10.654 C 109.300 10.821, 96.531 11.399, 83.124 11.938 C 69.718 12.477, 58.468 13.198, 58.126 13.541 C 57.783 13.883, 58.290 14.739, 59.252 15.442 C 60.213 16.145, 61 17.592, 61 18.657 C 61 21.147, 67.294 27.185, 72.720 29.899 C 79.262 33.172, 87.681 35, 96.210 35 C 102.220 35, 104 34.680, 104 33.600 C 104 32.513, 102.152 32.200, 95.728 32.200 C 91.179 32.200, 85.441 31.664, 82.978 31.008 C 72.461 28.210, 60.954 19.646, 63.837 16.763 C 66.007 14.593, 80.728 17.348, 91.522 21.943 C 104.517 27.475, 123.110 37.598, 128.159 41.891 C 131.754 44.948, 131.995 45.434, 130.603 46.825 C 129.448 47.981, 126.120 48.482, 117.373 48.816 L 105.686 49.264 109.045 44.587 C 110.892 42.014, 112.988 39.425, 113.702 38.832 C 114.416 38.240, 115 37.084, 115 36.264 C 115 35.105, 114.276 34.929, 111.750 35.471 C 109.963 35.855, 93.855 36.469, 75.954 36.835 C 47.187 37.423, 43.095 37.706, 40.704 39.273 C 35.984 42.368, 37.657 45.587, 47.227 51.822 L 53.548 55.940 58.073 54.579 C 60.561 53.830, 67.075 52.941, 72.549 52.604 C 81.735 52.038, 82.192 52.094, 78.500 53.328 C 68.312 56.731, 61.469 61.884, 57.532 69.118 C 53.928 75.740, 53.634 83.479, 56.759 89.500 C 58.863 93.554, 65.843 100.851, 69.500 102.819 C 71.023 103.639, 68.758 103.882, 60 103.839 C 47.014 103.775, 40.859 105.050, 37.385 108.524 C 34.592 111.318, 34.431 112.743, 36.566 115.791 C 43.400 125.548, 70.037 126.434, 92.500 117.652 C 97.750 115.599, 110.577 115.564, 122.876 117.569 C 136.007 119.709, 135.371 119.368, 133.418 123.232 C 127.462 135.014, 117.939 137.131, 100.852 130.471 C 95.708 128.466, 88.434 125.866, 84.687 124.693 C 78.490 122.753, 77.632 122.696, 75.201 124.061 C 71.418 126.184, 70.032 129.566, 70.015 136.715 C 70.002 142.121, 70.293 143.097, 72.250 144.215 C 73.899 145.157, 83.052 145.634, 106.500 146 C 137.070 146.478, 138.388 146.576, 135.990 148.208 C 134.610 149.147, 130.198 151.269, 126.186 152.923 L 118.892 155.931 112.696 154.248 C 108.700 153.162, 102.595 152.553, 95.500 152.532 C 85.901 152.504, 83.885 152.803, 79.674 154.876 C 76.420 156.478, 74.333 158.331, 73.268 160.564 C 71.818 163.605, 71.825 164.085, 73.358 166.424 C 76.898 171.826, 79.253 172.509, 93.960 172.395 C 105.389 172.307, 108.895 171.885, 116.447 169.686 C 125.354 167.092, 125.413 167.089, 129.568 168.927 C 131.863 169.942, 136.387 172.469, 139.621 174.542 C 152.720 182.938, 159.542 184.721, 164.289 180.987 C 169.363 176.996, 171.809 161.957, 170.254 144.309 C 169.499 135.737, 169.573 135.083, 171.353 134.618 C 173.094 134.163, 172.970 133.750, 169.941 129.926 C 167.394 126.710, 166.489 126.103, 166.060 127.323 C 165.605 128.615, 164.511 128.142, 160.230 124.805 L 154.959 120.698 158.730 118.981 C 167.871 114.818, 170.126 109.272, 171.128 88.500 C 173.196 45.600, 173.288 40.141, 172.052 33.861 C 169.712 21.965, 163.235 13.276, 155 10.985 C 151.863 10.112, 121.643 9.882, 111.500 10.654 M 110 13.467 C 97.075 14.082, 87.175 14.863, 88 15.204 C 88.825 15.544, 92.406 16.353, 95.958 17.002 C 104.475 18.559, 110.010 20.812, 109.375 22.464 C 108.981 23.493, 107.908 23.401, 104.189 22.020 C 101.610 21.062, 97.925 20.014, 96 19.692 C 93.337 19.246, 94.228 19.914, 99.723 22.482 C 110.691 27.607, 126.742 36.834, 130.633 40.251 C 133.206 42.510, 134.026 43.969, 133.802 45.892 C 133.343 49.831, 129.397 51.094, 115.180 51.854 L 102.500 52.532 107.566 54.285 C 112.551 56.011, 118.565 61.158, 120.882 65.684 C 122.824 69.479, 122.180 77.072, 119.412 83 L 116.844 88.500 120.672 91.858 C 129.949 99.995, 130.355 100.191, 135.331 98.938 L 139.868 97.796 140.184 88.148 C 140.913 65.893, 136.930 12.876, 134.500 12.503 C 133.950 12.418, 122.925 12.852, 110 13.467 M 142.660 12.751 C 140.132 13.106, 139.896 13.444, 140.506 15.825 C 144.795 32.582, 148.764 72.984, 148.153 93.671 C 148.008 98.556, 147.834 98.877, 145 99.500 C 143.350 99.862, 142 100.742, 142 101.454 C 142 102.167, 141.733 104.085, 141.406 105.718 C 140.874 108.379, 141.395 109.182, 146.438 113.491 C 151.979 118.225, 152.122 118.280, 155.939 117.136 C 160.655 115.724, 165.580 110.368, 166.858 105.263 C 168.143 100.127, 169.501 71.356, 169.490 49.500 C 169.481 32.744, 169.318 31.138, 167.121 26.258 C 164.144 19.647, 158.373 14.315, 153.310 13.499 C 146.600 12.417, 145.554 12.344, 142.660 12.751 M 141.232 40 C 141.232 41.925, 141.438 42.712, 141.689 41.750 C 141.941 40.788, 141.941 39.212, 141.689 38.250 C 141.438 37.288, 141.232 38.075, 141.232 40 M 73.298 39.958 C 36.831 40.612, 36.056 40.889, 48.003 49.002 C 53.039 52.422, 54.252 52.855, 56.457 52.016 C 60.190 50.597, 78.748 49.002, 91.537 49.001 L 102.573 49 106.306 44 L 110.039 39 106.769 39.208 C 104.971 39.323, 89.909 39.661, 73.298 39.958 M 142.820 70 C 143.061 84.575, 143.450 96.712, 143.684 96.971 C 146.293 99.862, 146.251 78.364, 143.602 54.500 C 142.455 44.170, 142.407 45.115, 142.820 70 M 84.357 54.960 C 78.201 55.912, 69.698 59.667, 65.328 63.364 C 61.280 66.788, 57 75.337, 57 80 C 57 88.718, 64.605 97.829, 76.628 103.517 C 84.561 107.270, 83.620 108.335, 73.250 107.340 C 58.586 105.932, 46.885 106.407, 42.412 108.590 C 37.516 110.980, 37.311 113.619, 41.787 116.635 C 51.053 122.880, 71.310 122.429, 90.500 115.551 C 99.268 112.408, 107.534 112.270, 123.500 115 C 129.934 116.100, 135.335 117, 135.502 117 C 135.668 117, 136.301 115.576, 136.908 113.835 C 138.119 110.359, 137.174 108.690, 131.839 104.887 C 129.321 103.092, 128.792 103.071, 122.023 104.495 C 111.882 106.628, 105.337 106.498, 104.073 104.136 C 103.097 102.312, 104.469 99.600, 110.594 91.250 C 111.920 89.442, 112.002 88.707, 111.012 87.514 C 109.460 85.645, 93.423 72, 92.777 72 C 92.514 72, 90.900 74.250, 89.191 77 C 83.875 85.551, 83.141 83.278, 85.479 65.500 C 85.765 63.322, 87.597 63.344, 90.053 65.555 C 91.419 66.785, 91.993 66.279, 94.831 61.338 C 96.605 58.249, 97.914 55.581, 97.740 55.407 C 96.860 54.527, 88.885 54.260, 84.357 54.960 M 97.602 61.961 C 95.621 65.342, 94 68.283, 94 68.499 C 94 69.091, 113.670 86, 114.359 86 C 115.397 86, 118.803 78.569, 119.522 74.736 C 120.955 67.094, 113.711 58.076, 104.852 56.475 C 101.237 55.822, 101.171 55.872, 97.602 61.961 M 87.986 69.050 C 87.979 69.847, 87.728 71.625, 87.429 73 C 86.911 75.381, 86.963 75.364, 88.532 72.640 C 89.721 70.576, 89.876 69.476, 89.090 68.690 C 88.303 67.903, 87.996 68.004, 87.986 69.050 M 109.987 96.750 L 105.863 102.500 111.182 102.746 C 114.107 102.882, 118.864 102.432, 121.754 101.746 L 127.007 100.500 121.122 95.750 C 117.886 93.138, 114.984 91, 114.674 91 C 114.364 91, 112.254 93.588, 109.987 96.750 M 134.629 101.876 C 132.907 102.552, 132.964 102.747, 135.344 104.306 C 138.725 106.521, 139 106.461, 139 103.500 C 139 100.952, 137.962 100.566, 134.629 101.876 M 139.553 114.645 C 138.720 117.962, 139.020 118.198, 143.586 117.816 L 147.374 117.500 143.788 114.777 L 140.203 112.053 139.553 114.645 M 135.807 124.447 C 128.748 138.522, 117.736 140.478, 95.718 131.567 C 89.243 128.946, 82.219 126.571, 80.109 126.288 C 74.956 125.597, 73 128.296, 73 136.098 C 73 141.628, 73.067 141.763, 76.125 142.375 C 77.844 142.719, 92.383 143, 108.434 143 C 131.413 143, 138.012 143.288, 139.471 144.355 C 143.299 147.154, 139.658 150.396, 126.918 155.533 L 119.012 158.721 110.756 156.759 C 96.065 153.267, 78.982 155.429, 75.910 161.168 C 71.233 169.906, 91.495 173.395, 113.263 167.599 C 127.792 163.731, 125.561 163.209, 146.476 175.364 C 160.030 183.242, 164.721 181.500, 167.048 167.725 C 168.283 160.415, 167.682 136.007, 166.204 133.433 C 165.817 132.758, 162.346 129.744, 158.492 126.735 C 151.837 121.540, 151.139 121.242, 144.661 120.829 L 137.839 120.395 135.807 124.447" stroke="none" fill="black" fill-rule="evenodd"/>
</svg>