<svg xmlns="http://www.w3.org/2000/svg" width="200" height="200" viewBox="0 0 200 200" version="1.1">
	<path d="M 92.500 6.603 C 81.361 8.164, 64.386 10.039, 58.335 10.377 C 54.395 10.596, 50.795 10.990, 50.335 11.251 C 49.876 11.512, 46.237 12.511, 42.250 13.471 C 37.557 14.600, 35 15.706, 35 16.608 C 35 18.365, 36.199 18.351, 45.031 16.494 L 52.192 14.987 57.331 19.607 C 60.157 22.149, 64.694 25.498, 67.412 27.050 C 73.234 30.375, 72.950 30.518, 58.638 31.451 C 40.908 32.607, 28.837 36.291, 28.188 40.743 C 27.773 43.590, 31.763 45.606, 42.310 47.878 C 48.594 49.232, 52.362 49.468, 58.500 48.892 C 70.005 47.814, 80 47.846, 80 48.962 C 80 49.542, 82.577 49.684, 86.482 49.319 C 100.418 48.018, 108.417 55.383, 105.378 66.719 C 104.828 68.772, 104.584 68.836, 102.141 67.575 C 100.689 66.824, 95.469 64.586, 90.542 62.600 C 85.615 60.614, 80.215 57.695, 78.542 56.114 C 76.869 54.533, 74.517 52.736, 73.316 52.120 C 70.159 50.501, 63.697 50.744, 58.770 52.666 C 53.738 54.629, 43.104 61.441, 37.628 66.210 L 33.755 69.583 41.017 75.741 C 48.203 81.834, 60.297 89, 63.396 89 C 66.407 89, 65.008 90.585, 61.068 91.636 C 58.467 92.331, 53.291 92.391, 45.780 91.814 C 32.320 90.781, 26.641 91.614, 26.194 94.685 C 25.842 97.107, 31.021 100.536, 47.500 108.795 C 59.116 114.617, 66 119.366, 66 121.557 C 66 123.788, 60.528 125.746, 50.929 126.950 C 46.322 127.527, 42.428 128, 42.276 128 C 42.124 128, 42 128.567, 42 129.259 C 42 129.951, 45.038 131.592, 48.750 132.904 C 59.567 136.729, 67 140.856, 67 143.038 C 67 143.438, 64.011 145.713, 60.357 148.093 C 52.742 153.055, 50.009 156.840, 50.004 162.434 C 49.998 168.810, 53.656 174.803, 63.346 184.294 L 72.325 193.088 75.913 189.654 C 82.276 183.563, 85.328 182.517, 96.500 182.599 C 103.501 182.650, 111.215 183.621, 122.223 185.836 C 148.174 191.058, 157.969 190, 162.382 181.497 C 164.893 176.658, 164.827 166.517, 162.218 156.298 L 160.379 149.096 163.189 147.018 C 170.611 141.531, 163.419 136.414, 146.703 135.290 L 137.906 134.698 138.203 129.599 L 138.500 124.500 145.250 124.204 C 150.354 123.981, 152 123.554, 152 122.454 C 152 121.375, 150.646 120.983, 146.750 120.933 L 141.500 120.866 145.676 119.561 C 155.125 116.606, 160.926 110.529, 163.132 101.276 C 163.759 98.649, 164.888 94.498, 165.643 92.052 C 167.764 85.170, 168.384 67.078, 167.083 50 C 165.353 27.275, 162.327 16, 157.960 16 C 153.400 16, 149.574 27.691, 144.543 57 C 142.439 69.257, 141.153 74.656, 140.733 73 C 139.042 66.345, 138.932 56.659, 140.413 44.837 C 143.061 23.706, 142.374 18.210, 136.392 12.663 C 131.461 8.090, 125.914 6.789, 110 6.472 C 102.025 6.313, 94.150 6.372, 92.500 6.603 M 92 9.556 C 91.175 9.734, 87.355 10.179, 83.510 10.545 L 76.520 11.211 80.170 13.083 C 82.178 14.113, 84.873 16.244, 86.160 17.818 C 87.962 20.023, 91.144 21.540, 100 24.415 C 113.388 28.761, 123.732 33.710, 125.735 36.728 C 126.991 38.619, 126.924 39.076, 125.126 40.874 C 122.594 43.406, 117.607 44.769, 108 45.554 C 97.732 46.394, 97.017 46.734, 101.079 48.853 C 103.306 50.014, 105.345 52.318, 106.920 55.452 C 109.071 59.731, 109.229 60.811, 108.337 65.166 L 107.333 70.066 114.075 73.609 C 122.023 77.786, 128.461 83.057, 130.552 87.100 C 131.812 89.537, 132.665 90, 135.894 90 C 139.618 90, 139.753 89.877, 140.270 86.022 C 140.609 83.497, 140.088 79.752, 138.844 75.772 C 136.631 68.687, 136.206 51.959, 137.974 41.500 C 139.504 32.450, 139.249 22.328, 137.394 18.417 C 134.082 11.439, 125.693 8.938, 106.201 9.116 C 99.215 9.180, 92.825 9.378, 92 9.556 M 63.083 13.387 C 63.428 13.706, 72.862 16.373, 81.500 18.592 C 85.321 19.574, 79.171 15.142, 75.170 14.030 C 71.697 13.066, 62.192 12.560, 63.083 13.387 M 60.813 18.871 C 66.115 23.804, 74.302 28, 78.625 28 C 81.888 28, 85 25.876, 85 23.649 C 85 22.953, 79.804 21.014, 72.750 19.079 C 55.292 14.288, 55.899 14.298, 60.813 18.871 M 155.365 22.670 C 152.001 30.720, 146.006 60.215, 144.424 76.500 C 143.889 82.002, 144.096 82.897, 146.920 87.285 C 148.614 89.916, 150 92.279, 150 92.535 C 150 92.791, 148.200 93, 146 93 C 143.800 93, 141.999 93.338, 141.997 93.750 C 141.992 95.098, 139.978 112.428, 139.486 115.361 C 139.013 118.177, 139.064 118.211, 142.753 117.531 C 152.010 115.827, 157.838 110.110, 160.561 100.063 C 161.390 97.003, 162.616 92.700, 163.284 90.500 C 165.176 84.275, 164.762 44.830, 162.684 33.326 C 160.965 23.812, 159.321 19, 157.788 19 C 157.299 19, 156.208 20.651, 155.365 22.670 M 86.158 27 C 84.938 28.650, 84.291 30.009, 84.720 30.020 C 85.149 30.031, 88.635 30.493, 92.466 31.046 C 104.283 32.754, 107.252 36.718, 100.268 41.464 C 98.215 42.859, 96.883 44, 97.307 44 C 97.732 44, 102.436 43.514, 107.763 42.920 C 118.023 41.776, 124.569 39.729, 123.499 37.999 C 121.956 35.502, 93.865 24, 89.311 24 C 88.797 24, 87.378 25.350, 86.158 27 M 61.500 33.624 C 44.765 35.307, 31 38.578, 31 40.871 C 31 41.979, 34.776 43.321, 43.602 45.350 C 48.476 46.471, 53.101 46.569, 66.602 45.837 C 85.825 44.795, 90.751 43.906, 96.750 40.400 C 101.714 37.498, 102.019 36.366, 98.250 34.829 C 95.521 33.717, 69.170 32.852, 61.500 33.624 M 56.500 56.861 C 53.200 58.433, 47.621 61.896, 44.103 64.555 L 37.706 69.390 42.591 73.628 C 51.873 81.681, 64.464 87.917, 71.500 87.948 C 78.694 87.979, 90.160 85.161, 94.182 82.374 C 98.900 79.104, 103.779 72.373, 102.410 71.022 C 101.385 70.010, 85.282 63, 83.984 63 C 83.522 63, 83.397 65.445, 83.705 68.432 C 84.014 71.420, 83.966 74.645, 83.600 75.600 C 82.375 78.791, 80.819 75.464, 79.986 67.872 C 79.256 61.220, 78.858 60.258, 75.606 57.278 C 70.847 52.917, 65.043 52.790, 56.500 56.861 M 103.438 76.750 C 101.898 78.813, 99.257 81.719, 97.569 83.209 L 94.500 85.919 97 85.981 C 100.129 86.060, 107.840 89.505, 110.522 92.022 C 112.380 93.766, 112.869 93.805, 116.522 92.504 C 118.710 91.725, 121.625 91.036, 123 90.974 C 124.375 90.911, 126.400 90.493, 127.500 90.045 C 129.328 89.301, 129.070 88.812, 124.495 84.365 C 120.446 80.429, 108.833 73, 106.729 73 C 106.458 73, 104.978 74.688, 103.438 76.750 M 143 88.500 C 143 89.325, 143.436 90, 143.969 90 C 144.501 90, 144.678 89.325, 144.362 88.500 C 144.045 87.675, 143.609 87, 143.393 87 C 143.177 87, 143 87.675, 143 88.500 M 85.500 89.570 C 82.750 90.335, 78.916 90.970, 76.980 90.981 C 75.044 90.991, 70.094 91.937, 65.980 93.082 C 59.318 94.937, 56.956 95.089, 44.380 94.468 C 35.052 94.008, 30.044 94.120, 29.624 94.799 C 29.260 95.388, 35.118 99.017, 43.354 103.306 C 61.060 112.525, 65.728 115.574, 67.558 119.113 C 69.396 122.667, 68.644 124.467, 64.496 126.435 C 61.782 127.723, 52.792 129.959, 50.114 130.012 C 49.776 130.019, 53.100 131.586, 57.500 133.495 C 64.672 136.606, 70 140.637, 70 142.952 C 70 143.953, 64.849 148.372, 58.992 152.395 C 53.733 156.007, 51.551 160.714, 52.889 165.558 C 54.179 170.231, 59.961 177.914, 66.723 183.941 L 72.293 188.905 76.188 185.571 C 84.365 178.572, 95.173 177.970, 121.500 183.049 C 142.057 187.015, 151.002 187.378, 156 184.449 C 162.324 180.743, 163.354 172.282, 159.398 156.532 L 157.759 150.007 149.129 150.648 C 144.383 151.001, 139.500 151.659, 138.278 152.109 C 135.071 153.292, 134.484 157.060, 136.792 161.634 C 140.119 168.225, 140.299 169.701, 138.051 171.949 C 136.923 173.077, 134.864 174, 133.477 174 L 130.953 174 131.609 166.141 C 132.030 161.089, 131.893 158.052, 131.227 157.640 C 130.656 157.287, 127.109 158.381, 123.345 160.070 C 113.426 164.522, 102.618 167.225, 94.535 167.277 C 87.160 167.325, 83.703 166.182, 82.088 163.164 C 78.283 156.055, 99.725 147.212, 118.471 148.159 L 125.795 148.529 123.334 143.673 L 120.874 138.818 115.012 139.499 C 109.443 140.145, 108.734 139.963, 100.859 135.866 C 79.775 124.897, 78.718 115.883, 97.595 108.025 C 101.591 106.361, 105.342 105, 105.930 105 C 106.519 105, 107 103.750, 107 102.223 C 107 100.695, 107.661 98.502, 108.468 97.349 C 109.777 95.480, 109.750 95.089, 108.218 93.747 C 102.914 89.099, 93.449 87.359, 85.500 89.570 M 134.753 92.810 C 132.275 93.015, 130.651 93.783, 129.959 95.076 C 129.383 96.152, 126.442 98.427, 123.422 100.131 L 117.932 103.229 120.367 107.365 C 123.484 112.659, 128.531 116.690, 133.070 117.510 L 136.640 118.155 137.920 105.511 C 138.624 98.557, 139.043 92.785, 138.850 92.684 C 138.658 92.583, 136.814 92.640, 134.753 92.810 M 122.500 93.681 C 121.400 93.928, 119.060 94.579, 117.299 95.126 C 114.376 96.036, 114.193 96.330, 115.186 98.509 L 116.273 100.895 120.949 98.526 C 126.537 95.694, 129.304 92.934, 126.372 93.116 C 125.343 93.180, 123.600 93.434, 122.500 93.681 M 110.051 99.905 C 108.566 102.680, 109.307 103.615, 112.029 102.400 C 113.850 101.588, 113.921 101.274, 112.670 99.563 C 111.298 97.686, 111.234 97.695, 110.051 99.905 M 112.673 105.250 C 110.992 106.479, 111.021 106.667, 113.197 108.643 C 114.464 109.794, 116.829 111.581, 118.453 112.616 L 121.406 114.496 119.596 111.432 C 115.667 104.781, 114.608 103.835, 112.673 105.250 M 100.337 109.935 C 96.428 111.456, 91.828 113.698, 90.115 114.918 C 83.509 119.622, 87.469 125.795, 101.988 133.424 C 108.836 137.023, 111.228 137.504, 116.757 136.399 C 119.393 135.871, 119.832 135.286, 120.320 131.650 C 120.957 126.905, 124.438 123.262, 129.259 122.298 C 132.084 121.733, 132.168 121.596, 130.458 120.345 C 129.446 119.605, 127.916 118.996, 127.059 118.990 C 124.221 118.972, 115.283 114.250, 111.333 110.682 L 107.445 107.169 100.337 109.935 M 128.329 125.458 C 124.809 126.989, 123 129.640, 123 133.267 C 123 135.572, 123.222 135.647, 128.750 135.208 C 131.912 134.957, 134.549 134.695, 134.610 134.626 C 134.670 134.557, 134.987 132.137, 135.313 129.250 C 135.870 124.318, 135.772 124.002, 133.703 124.039 C 132.491 124.061, 130.073 124.699, 128.329 125.458 M 124 138.615 C 124 138.953, 125.197 141.428, 126.659 144.115 C 130.697 151.534, 134 150.546, 134 141.918 L 134 138 129 138 C 126.250 138, 124 138.277, 124 138.615 M 137 140.375 C 137 141.681, 136.719 144.156, 136.375 145.875 C 135.942 148.040, 136.134 149, 136.998 149 C 138.345 149, 150.507 140.607, 151.509 138.985 C 151.888 138.372, 149.267 138, 144.559 138 C 137.269 138, 137 138.084, 137 140.375 M 157 139.325 C 157 140.346, 159.256 146, 159.664 146 C 161.163 146, 163.963 143.749, 163.465 142.943 C 162.846 141.942, 157 138.670, 157 139.325 M 149.500 144.080 C 144.024 148.220, 143.373 148.958, 145.606 148.496 C 146.648 148.281, 149.591 147.835, 152.146 147.506 L 156.792 146.909 155.677 143.954 C 155.063 142.329, 154.323 141.013, 154.031 141.028 C 153.739 141.043, 151.700 142.417, 149.500 144.080 M 99.324 152.991 C 91.380 155.073, 87.039 157.043, 85.013 159.484 C 83.878 160.852, 83.934 161.362, 85.373 162.800 C 87.674 165.100, 100.388 164.994, 108.500 162.607 C 114.802 160.752, 125.614 156.307, 127.762 154.687 C 132.984 150.749, 112.531 149.529, 99.324 152.991 M 134.695 165.639 C 133.611 166.723, 133.879 171, 135.031 171 C 135.599 171, 136.311 170.352, 136.615 169.561 C 137.270 167.853, 135.696 164.638, 134.695 165.639" stroke="none" fill="black" fill-rule="evenodd"/>
</svg>