<svg xmlns="http://www.w3.org/2000/svg" width="200" height="200" viewBox="0 0 200 200" version="1.1">
	<path d="M 67.250 9.031 C 63.579 10.507, 64.358 14.410, 69.311 19.363 L 73.621 23.674 70.455 27.337 C 68.170 29.980, 66.482 31, 64.394 31.001 C 59.424 31.004, 44.674 33.883, 40.809 35.606 C 38.779 36.510, 36.855 37.934, 36.535 38.770 C 35.243 42.136, 42.331 45.991, 52.772 47.603 C 55.122 47.966, 57.238 48.577, 57.476 48.961 C 57.713 49.345, 57.238 51.873, 56.420 54.579 C 53.197 65.248, 51.879 76.559, 51.855 93.743 C 51.842 103.227, 51.484 111.201, 51.061 111.462 C 50.286 111.941, 31.639 114.468, 20.500 115.603 L 14.500 116.214 18.999 120.214 C 26.995 127.322, 37.125 131, 48.710 131 C 54.932 131, 55 131.030, 55 133.800 C 55 136.407, 54.600 136.682, 49.203 137.797 C 43.025 139.073, 41 140.378, 41 143.081 C 41 145.005, 44.297 147.620, 55.155 154.308 C 74.188 166.032, 80.660 177.306, 75.477 189.709 C 72.082 197.835, 78.501 194.910, 88.521 183.765 C 95.756 175.719, 97.454 171.771, 97.454 163 C 97.454 154.843, 96.623 152.673, 88.968 140.829 C 86.148 136.467, 85.278 134.322, 86.025 133.575 C 87.192 132.408, 107.165 132.591, 112.935 133.823 C 115.615 134.394, 116.544 135.201, 117.155 137.488 C 118.563 142.751, 115.454 153.393, 107.922 169.094 C 103.994 177.283, 101.040 184.662, 101.358 185.491 C 102.691 188.964, 109.285 186.390, 122.317 177.308 L 130.134 171.861 135.323 175.779 C 142.422 181.139, 146.290 183, 150.328 183 C 154.358 183, 155.887 181.471, 156.668 176.661 C 157.936 168.846, 149.189 148.384, 140 137.669 C 133.031 129.542, 133.232 129.004, 143.250 128.983 C 162.917 128.941, 181.719 120.949, 178.092 114.172 C 176.296 110.816, 171.218 109.680, 156.500 109.344 C 146.218 109.109, 142.440 108.689, 142.275 107.762 C 142.152 107.068, 141.624 99.299, 141.104 90.497 C 140.051 72.709, 138.347 66.296, 132.924 59.721 C 129.122 55.112, 123.700 52.234, 115.611 50.531 C 110.081 49.367, 109.770 49.173, 112.342 48.491 C 113.905 48.076, 118.266 48.246, 122.034 48.869 C 135.915 51.161, 145.461 50.008, 150.969 45.373 C 159.115 38.518, 149.558 27.865, 136.827 29.610 C 133.242 30.102, 131.393 29.726, 127.376 27.691 C 122.692 25.317, 122.407 24.954, 122.773 21.819 C 123.233 17.880, 120.509 13.849, 115.662 11.293 C 111.764 9.239, 100.361 8.977, 94 10.796 C 90.039 11.929, 88.552 11.838, 81.590 10.041 C 72.979 7.819, 70.670 7.656, 67.250 9.031 M 68 12.896 C 68 14.424, 74.033 21, 75.434 21 C 75.635 21, 78.136 19.427, 80.993 17.505 C 86.491 13.805, 86.457 13.712, 79 12.051 C 71.624 10.408, 68 10.687, 68 12.896 M 97 12.962 C 94.648 13.680, 94.618 13.770, 96.500 14.499 C 98.078 15.110, 111.633 20.710, 118.750 23.690 C 120.270 24.327, 120.463 19.734, 119.029 17.055 C 116.878 13.036, 104.373 10.713, 97 12.962 M 84.901 18.324 C 82.006 20.071, 79.480 21.990, 79.289 22.588 C 78.747 24.284, 91.934 29.884, 98.551 30.768 C 106.104 31.777, 113.776 30.668, 116.232 28.212 C 118.108 26.336, 117.971 26.236, 107.820 22.021 C 89.617 14.465, 90.942 14.679, 84.901 18.324 M 73.136 28.359 C 71.411 30.139, 70 32.128, 70 32.779 C 70 34.859, 77.999 35.669, 93.500 35.157 L 101.500 34.893 93.956 32.659 C 89.806 31.430, 84.130 29.232, 81.342 27.774 L 76.273 25.123 73.136 28.359 M 117.500 30.700 L 114.500 33.336 120 32.677 C 123.025 32.314, 126.400 31.995, 127.500 31.967 C 129.014 31.928, 128.649 31.450, 126 30 C 121.483 27.527, 121.071 27.561, 117.500 30.700 M 137.495 33.983 C 137.993 35.553, 137.185 36.561, 133.608 38.829 C 131.125 40.404, 126.934 42.532, 124.296 43.557 L 119.500 45.422 122.500 46.093 C 128.549 47.445, 141.844 47.046, 145.989 45.388 C 155.203 41.701, 150.837 32, 139.965 32 C 137.329 32, 136.959 32.297, 137.495 33.983 M 56.500 34.626 C 46.002 36.693, 43.184 37.393, 41.176 38.431 C 39.213 39.447, 39.075 39.817, 40.284 40.821 C 41.626 41.934, 56.019 46.028, 58.410 45.976 C 59.009 45.963, 60.601 43.601, 61.947 40.726 C 63.293 37.852, 64.568 35.163, 64.780 34.750 C 65.174 33.987, 60.130 33.911, 56.500 34.626 M 107 36.649 C 93.767 38.017, 73.489 37.983, 69.468 36.586 C 67.817 36.013, 67.019 36.621, 65.218 39.826 C 61.528 46.392, 61.762 46.618, 73.030 47.357 C 82.266 47.962, 85.456 47.819, 94.859 46.382 C 96.706 46.100, 99.212 44.795, 100.428 43.483 L 102.639 41.098 108.569 42.880 L 114.500 44.663 122.319 41.340 C 126.619 39.512, 131.107 37.338, 132.291 36.508 C 134.294 35.106, 133.956 35.009, 127.473 35.126 C 123.638 35.196, 114.425 35.881, 107 36.649 M 100 47.333 C 96.753 49.343, 95.214 49.500, 78.702 49.500 L 60.905 49.500 58.974 56 C 55.260 68.503, 53.114 90.900, 54.442 103.298 C 55.261 110.954, 55.735 111.210, 63 107.916 C 73.449 103.179, 74.494 99.036, 67.048 91.859 C 58.489 83.609, 56.176 75.912, 59.797 67.727 C 65.589 54.632, 90.548 49.983, 108 58.748 C 114.708 62.118, 118.502 68.216, 117.460 73.953 C 116.707 78.104, 113.743 84.138, 111.575 85.937 C 110.175 87.100, 110.327 87.609, 112.984 90.634 C 114.622 92.500, 116.710 95.483, 117.624 97.263 C 118.537 99.044, 121.606 103.016, 124.443 106.092 C 129.089 111.128, 134 120.567, 134 124.461 C 134 129.212, 163.509 125.501, 172.175 119.661 C 179.786 114.532, 174.290 112.137, 154.725 112.056 L 140.950 112 139.975 109.435 C 139.439 108.024, 138.997 103.412, 138.992 99.185 C 138.982 88.950, 137.406 75.740, 135.517 70.051 C 133.540 64.098, 128.891 58.506, 123.653 55.780 C 120.480 54.129, 117.199 53.518, 109.750 53.193 C 98.495 52.702, 97.219 51.395, 105.192 48.528 C 109.429 47.005, 110.027 46.521, 108.442 45.901 C 105.418 44.717, 103.775 44.996, 100 47.333 M 77.407 58.407 C 59.425 62.772, 55.522 77.225, 68.917 89.847 C 71.633 92.406, 74.182 95.819, 74.581 97.431 C 75.981 103.077, 70.635 108.437, 60.381 111.669 L 55.033 113.355 55.569 117.427 C 56.938 127.841, 56.995 128, 59.329 128 C 60.560 128, 68.302 126.866, 76.534 125.480 C 98.643 121.757, 110.412 121.329, 121.475 123.843 C 126.411 124.965, 130.654 125.679, 130.904 125.429 C 131.949 124.384, 127.709 114.132, 124.339 109.555 L 120.698 104.611 118.345 109.943 L 115.992 115.274 110.647 114.646 C 104.229 113.892, 97.267 111.552, 94.800 109.319 C 92.503 107.240, 92.484 102.777, 94.763 100.715 C 97.832 97.937, 105.264 96.495, 110.422 97.675 C 113.343 98.343, 115 98.370, 115 97.748 C 115 95.263, 100.084 82.116, 93.151 78.491 C 86.334 74.926, 83.931 72.736, 85.317 71.350 C 85.627 71.039, 88.495 72.249, 91.691 74.037 C 94.886 75.825, 100.304 78.824, 103.730 80.701 L 109.961 84.113 111.977 80.806 C 118.318 70.411, 113.816 62.166, 99.755 58.423 C 93.414 56.735, 84.321 56.728, 77.407 58.407 M 99.465 100.952 C 98.346 101.405, 96.786 102.553, 95.998 103.503 C 94.723 105.038, 94.860 105.483, 97.228 107.520 C 99.774 109.710, 107.525 112, 112.389 112 C 114.803 112, 117 108.618, 117 104.902 C 117 101.123, 105.458 98.522, 99.465 100.952 M 49.253 114.661 C 48.567 114.938, 41.825 115.940, 34.270 116.888 L 20.535 118.612 24.517 121.332 C 30.118 125.158, 40.015 128, 47.736 128 L 54.262 128 53.642 124.250 C 53.301 122.188, 53.017 119.037, 53.011 117.250 C 53 114.096, 52.134 113.498, 49.253 114.661 M 81.500 127.469 C 73.800 128.719, 65.308 130.060, 62.629 130.450 L 57.758 131.159 58.280 135.053 C 58.794 138.884, 58.744 138.956, 55.151 139.533 C 47.351 140.787, 44.639 141.584, 44.255 142.736 C 44.035 143.394, 46.476 145.591, 49.678 147.618 C 63.792 156.553, 66.795 158.746, 71.642 163.658 C 78.053 170.154, 80.420 175.927, 79.789 183.529 L 79.326 189.109 84.698 183.805 C 91.774 176.818, 95.007 170.291, 94.978 163.054 C 94.953 156.720, 93.041 151.895, 87.071 143.105 C 82.607 136.531, 81.920 132.649, 84.934 131.035 C 87.116 129.868, 98.942 129.682, 110.252 130.639 C 119.073 131.384, 120 132.424, 120 141.579 C 120 148.590, 117.389 156.260, 109.952 171.096 C 106.678 177.626, 104 183.435, 104 184.005 C 104 185.484, 111.116 181.679, 121.090 174.867 C 125.815 171.640, 129.977 169, 130.339 169 C 130.701 169, 133.654 171.063, 136.900 173.584 C 143.698 178.863, 149.604 181.282, 152.244 179.870 C 157.920 176.832, 148.914 151.632, 137.808 139.481 C 135.164 136.587, 132.993 133.608, 132.985 132.860 C 132.952 129.991, 131.073 128.869, 123.107 126.967 C 112.320 124.390, 99.519 124.545, 81.500 127.469" stroke="none" fill="black" fill-rule="evenodd"/>
</svg>