<svg xmlns="http://www.w3.org/2000/svg" width="200" height="200" viewBox="0 0 200 200" version="1.1">
	<path d="M 137.194 6.206 C 136.537 6.863, 136 7.912, 136 8.538 C 136 9.305, 129.892 10.069, 117.250 10.882 C 87.591 12.790, 51.049 16.021, 44.511 17.315 C 40.283 18.151, 38.426 18.998, 38.198 20.195 C 37.784 22.362, 41.115 23.244, 59.968 25.958 C 74.643 28.070, 82.576 29.758, 81.743 30.590 C 81.491 30.842, 78.651 30.363, 75.432 29.524 C 68.581 27.740, 53.516 27.637, 47 29.330 C 42.467 30.509, 41.185 32.706, 45.291 32.260 C 46.506 32.127, 50.650 31.675, 54.500 31.255 C 62.128 30.422, 74.749 31.349, 76.253 32.853 C 77.124 33.724, 70.625 35.570, 59.750 37.543 C 57.428 37.964, 56 38.782, 56 39.691 C 56 41.375, 56.801 41.264, 72.893 37.350 L 83.286 34.822 87.289 37.661 C 89.490 39.223, 91.955 41.511, 92.765 42.747 L 94.240 44.994 89.870 43.105 C 87.466 42.067, 82.954 40.916, 79.843 40.548 C 68.135 39.164, 39.915 44.144, 30.692 49.222 C 25.837 51.895, 24.685 55.226, 28 57 C 29.721 57.921, 43.550 59.908, 48.750 59.982 C 51.632 60.023, 49.667 61.674, 45.369 62.824 C 38.654 64.620, 34 69.576, 34 74.932 C 34 80.025, 35.915 84.754, 40.515 91.021 L 44.042 95.825 38.771 96.951 C 24.819 99.932, 21.045 108.596, 29.992 117.107 C 33.721 120.655, 43.864 124.995, 48.444 125.004 C 50.119 125.007, 49.897 125.375, 47.250 126.989 C 45.462 128.079, 44 129.427, 44 129.985 C 44 130.543, 42.912 131, 41.582 131 C 38.097 131, 36 131.999, 36 133.659 C 36 134.454, 39.175 138.459, 43.056 142.559 C 47.625 147.386, 51.237 152.390, 53.306 156.757 C 56.271 163.018, 56.500 164.256, 56.500 174.072 L 56.500 184.645 61.454 182.072 C 65.400 180.024, 68.149 179.433, 74.954 179.173 C 84.473 178.809, 91.956 180.244, 116 187.046 C 144.805 195.194, 156.596 192.241, 163.030 175.266 C 164.572 171.196, 165.373 166.329, 165.750 158.721 C 166.059 152.513, 166.755 147.642, 167.393 147.236 C 168.002 146.847, 170.744 145.732, 173.486 144.756 C 176.228 143.781, 179.590 141.865, 180.957 140.498 C 183.326 138.129, 183.360 137.931, 181.688 136.256 C 180.180 134.747, 177.514 134.452, 162.717 134.157 C 148.029 133.865, 146.014 133.645, 149 132.657 C 154.048 130.988, 154.062 128.193, 149.046 123.660 C 145.805 120.733, 144.194 120, 140.997 120 C 136.371 120, 136.278 119.652, 138.165 109.408 C 139.288 103.314, 139.477 103.026, 143.386 101.462 C 147.944 99.638, 151.974 99.964, 161.855 102.956 L 168.107 104.849 169.013 102.467 C 172.374 93.625, 172.722 41.386, 169.517 26.535 C 165.614 8.445, 158.401 14.218, 150.554 41.711 C 147.548 52.241, 139.478 87.068, 137.475 98.150 C 136.858 101.563, 136.350 101.993, 129.657 104.770 C 125.721 106.403, 120.147 108.506, 117.270 109.443 L 112.041 111.147 106.909 108.354 L 101.776 105.560 104.138 104.043 C 114.968 97.084, 117.263 84.401, 112.957 55.305 C 109.569 32.413, 110.171 24.748, 115.460 23.421 C 118.464 22.667, 128.107 25.398, 130.718 27.743 C 132.134 29.015, 133.560 33.726, 135.881 44.798 C 139.544 62.282, 140.517 65.325, 142.256 64.754 C 144.282 64.089, 144.247 59.025, 142.067 37.683 C 140.930 26.557, 139.993 15.214, 139.985 12.477 C 139.967 6.603, 138.991 4.409, 137.194 6.206 M 124 13.104 C 74.107 16.669, 44.325 19.342, 43.322 20.345 C 43.143 20.524, 50.045 21.672, 58.659 22.896 C 77.371 25.555, 84.210 27.578, 84.968 30.680 C 85.260 31.879, 87.572 34.437, 90.105 36.365 C 94.898 40.013, 98 45.068, 98 49.228 C 98 50.627, 95.718 54.629, 92.609 58.681 L 87.218 65.707 91.498 67.787 C 101.009 72.407, 105.946 79.418, 104.458 86.191 C 104.067 87.969, 101.571 91.688, 98.803 94.614 L 93.848 99.854 96.430 101.546 C 98.635 102.991, 99.457 103.053, 102.067 101.972 C 112.041 97.841, 114.438 83.683, 110.079 54.651 C 107.620 38.272, 107.429 29.004, 109.470 25.059 C 112.313 19.561, 119.368 19.179, 130.129 23.939 L 134.735 25.977 137.004 37.519 C 138.251 43.867, 139.500 48.833, 139.779 48.555 C 140.464 47.869, 136.819 11.963, 136.082 12.141 C 135.762 12.218, 130.325 12.652, 124 13.104 M 160.288 22.750 C 156.026 30.433, 148.336 58.388, 143.026 85.500 C 141.841 91.550, 140.664 97.230, 140.409 98.122 C 139.988 99.598, 140.344 99.613, 144.381 98.284 C 148.460 96.941, 149.508 96.998, 157.489 98.997 C 162.260 100.192, 166.347 100.987, 166.571 100.762 C 168.818 98.515, 169.789 50.019, 167.898 34.500 C 166.797 25.466, 164.852 19, 163.235 19 C 162.758 19, 161.432 20.688, 160.288 22.750 M 57.500 44.513 C 42.859 46.861, 27.059 52.393, 29.117 54.450 C 29.753 55.087, 44.262 57.179, 61.364 59.101 C 72.174 60.315, 83.716 59.232, 88.982 56.509 C 94.500 53.656, 94.067 47.773, 88.154 45.272 C 83.103 43.136, 68.363 42.771, 57.500 44.513 M 140.079 51.583 C 140.127 52.748, 140.364 52.985, 140.683 52.188 C 140.972 51.466, 140.936 50.603, 140.604 50.271 C 140.272 49.939, 140.036 50.529, 140.079 51.583 M 82.098 61.424 L 76.696 62.571 80.281 63.671 C 83.518 64.665, 84.083 64.540, 86.107 62.386 C 87.340 61.074, 88.158 60.062, 87.924 60.138 C 87.691 60.214, 85.069 60.793, 82.098 61.424 M 52.336 64.152 C 34.098 66.247, 31.662 77.829, 46.152 93.549 C 48.268 95.845, 50 98.011, 50 98.362 C 50 98.713, 48.087 99.003, 45.750 99.006 C 40.299 99.013, 34.243 100.699, 30.750 103.182 C 24.324 107.749, 29.937 116.743, 41.598 120.565 C 50.905 123.616, 70.687 123.155, 82 119.622 C 86.675 118.162, 94.213 116.020, 98.750 114.861 C 103.287 113.702, 107 112.462, 107 112.106 C 107 111.750, 105.085 110.412, 102.743 109.133 C 99.356 107.282, 97.264 106.869, 92.493 107.110 C 83.979 107.540, 77 107.134, 77 106.208 C 77 105.773, 79.475 104.203, 82.500 102.719 C 85.525 101.236, 87.997 99.679, 87.993 99.261 C 87.989 98.842, 86.326 97.375, 84.297 96 C 78.245 91.898, 60.116 73.311, 59.405 70.479 C 57.983 64.811, 61.779 65.457, 71.651 72.564 C 73.666 74.014, 74.030 73.912, 77.398 70.956 C 79.375 69.219, 80.762 67.424, 80.479 66.967 C 79.122 64.771, 61.921 63.050, 52.336 64.152 M 79.527 72.555 C 76.792 75, 74.153 77, 73.661 77 C 73.170 77, 70.549 75.371, 67.837 73.380 C 65.125 71.390, 62.723 69.944, 62.499 70.168 C 61.657 71.009, 73.406 83.181, 82.105 90.480 L 91.140 98.060 94.233 95.457 C 99.683 90.872, 101.500 87.845, 101.500 83.355 C 101.500 78.543, 98.994 75.245, 92.500 71.509 C 85.744 67.622, 84.976 67.684, 79.527 72.555 M 87.493 103.476 C 85.606 104.944, 85.714 105.013, 89.500 104.764 C 91.700 104.619, 93.500 104.050, 93.500 103.500 C 93.500 101.837, 89.618 101.821, 87.493 103.476 M 130.134 107.605 C 127.183 108.916, 123.020 110.513, 120.884 111.153 C 118.748 111.793, 117 112.663, 117 113.086 C 117 113.939, 125.767 117.383, 130.570 118.418 L 133.640 119.080 134.867 112.420 C 135.542 108.757, 135.960 105.639, 135.797 105.491 C 135.634 105.342, 133.085 106.294, 130.134 107.605 M 106 115.668 C 102.975 116.429, 95.325 118.594, 89 120.478 C 82.675 122.363, 76.600 124.076, 75.500 124.285 C 74.400 124.495, 75.525 124.953, 78 125.304 C 86.424 126.498, 123.484 130.009, 127.619 130.004 C 131.584 130, 131.760 129.863, 132.332 126.344 C 133.013 122.142, 132.564 121.013, 130.191 120.967 C 128.457 120.934, 121.221 118.468, 115 115.790 C 111.954 114.479, 110.786 114.463, 106 115.668 M 135.661 123.749 C 135.400 124.712, 134.895 126.798, 134.540 128.385 L 133.894 131.270 141.465 130.784 C 149.645 130.259, 150.340 130.008, 149.481 127.893 C 148.521 125.531, 144.698 123.346, 140.318 122.657 C 136.841 122.109, 136.055 122.293, 135.661 123.749 M 55.197 128.103 C 51.731 128.434, 48.450 129.150, 47.907 129.693 C 47.257 130.343, 54.705 130.911, 69.710 131.356 C 82.244 131.727, 99.025 132.233, 107 132.479 L 121.500 132.927 99.835 130.570 C 74.867 127.853, 64.058 127.255, 55.197 128.103 M 40.187 133.683 C 39.324 134.029, 41.080 136.494, 45.304 140.869 C 54.958 150.869, 60 162.462, 60 174.656 C 60 178.457, 60.271 179.110, 61.629 178.589 C 71.833 174.673, 84.059 175.361, 104 180.974 C 139.398 190.937, 146.983 191.253, 155.135 183.101 C 159.309 178.926, 162.420 169.958, 163.495 159 L 164.132 152.500 159.816 156.579 C 157.442 158.822, 153.613 162.102, 151.307 163.868 C 145.428 168.369, 123.551 181.141, 123.259 180.242 C 123.127 179.834, 123.847 174.662, 124.859 168.750 C 125.871 162.838, 126.390 158, 126.012 158 C 125.635 158, 120.865 158.672, 115.413 159.494 C 86.778 163.810, 70.439 159.204, 52.500 141.758 C 43.667 133.168, 42.836 132.623, 40.187 133.683 M 55.551 140.712 C 68.742 153.488, 79.739 158.003, 97.644 157.996 C 103.065 157.994, 111.759 157.301, 116.965 156.457 C 127.689 154.718, 130.773 152.646, 123.220 152.256 C 109.718 151.558, 89.246 147.030, 90.490 145.016 C 91.468 143.434, 102.280 139.850, 111.500 138.052 L 120.500 136.297 110.500 135.666 C 105 135.319, 92.175 134.793, 82 134.496 C 71.825 134.199, 59.900 133.722, 55.500 133.435 L 47.500 132.914 55.551 140.712 M 164.708 140.508 L 168.215 144.015 174.088 141.380 C 177.318 139.931, 179.718 138.352, 179.421 137.872 C 179.125 137.393, 174.904 137, 170.041 137 L 161.200 137 164.708 140.508 M 120.808 139.079 C 111.008 140.516, 96.773 144.174, 97.656 145.028 C 99.183 146.505, 113.777 149, 120.890 149 C 128.510 149, 128.232 149.232, 129.558 141.750 C 130.309 137.513, 130.690 137.629, 120.808 139.079 M 132.105 142.947 C 131.497 145.780, 131 148.301, 131 148.549 C 131 150.030, 148.266 148.404, 159.250 145.888 C 170.285 143.361, 161.648 138.737, 144.855 138.181 L 133.210 137.796 132.105 142.947 M 144.611 153.551 C 136.972 155.381, 130.395 157.243, 129.995 157.689 C 129.020 158.777, 126.681 174.014, 127.381 174.715 C 128.790 176.124, 152.044 160.675, 158.453 154.073 C 163.296 149.083, 163.263 149.082, 144.611 153.551 M 130 153 C 130 154.145, 131.425 154.145, 135 153 C 137.231 152.285, 137.097 152.189, 133.750 152.100 C 131.688 152.045, 130 152.450, 130 153" stroke="none" fill="black" fill-rule="evenodd"/>
</svg>