<svg xmlns="http://www.w3.org/2000/svg" width="200" height="200" viewBox="0 0 200 200" version="1.1">
	<path d="M 68 9.542 C 61.675 10.868, 54.193 11.964, 51.372 11.977 C 45.759 12.002, 42.245 14.277, 45.064 16.061 C 46.902 17.224, 47.697 17.212, 52.237 15.951 C 55.267 15.110, 56.748 15.253, 60.064 16.707 L 64.153 18.500 54.326 18.569 C 44.037 18.642, 36.623 20.411, 32.130 23.867 L 29.760 25.690 38.130 28.295 C 42.734 29.729, 51.225 32.091, 57 33.546 C 62.775 35, 67.657 36.342, 67.850 36.528 C 68.042 36.714, 61.292 36.861, 52.850 36.855 C 44.139 36.848, 35.431 37.364, 32.717 38.048 C 20.244 41.193, 27.928 48.619, 47 51.853 L 51.500 52.616 48.267 54.325 C 40.381 58.493, 40.083 67.526, 47.280 84.236 C 53.348 98.325, 53.898 101.258, 50.866 103.381 C 48.210 105.241, 43.551 105.432, 35.951 103.991 C 30.864 103.026, 30.501 103.103, 27.725 105.741 C 26.128 107.258, 24.144 109.798, 23.316 111.384 C 21.932 114.035, 21.968 114.480, 23.761 116.882 C 24.834 118.319, 27.465 120.024, 29.606 120.671 C 35.064 122.318, 51.999 122.244, 68.428 120.501 C 76.088 119.688, 82.496 119.163, 82.668 119.334 C 82.839 119.506, 82.415 120.417, 81.726 121.360 C 80.694 122.771, 78.345 123.144, 68.436 123.472 C 54.323 123.940, 48.002 125.305, 44.960 128.543 C 41.961 131.735, 42.776 134.227, 49.162 141.393 L 54.411 147.282 48.956 146.586 C 45.955 146.203, 42.653 145.802, 41.618 145.695 C 40.261 145.554, 38.787 147.216, 36.333 151.651 C 27.129 168.284, 33.923 179.799, 55.210 183.647 C 72.804 186.827, 95.847 181.977, 93.403 175.608 C 92.439 173.095, 87.755 171.048, 79.246 169.420 C 75.057 168.619, 71.477 167.810, 71.291 167.624 C 71.104 167.438, 72.906 164.634, 75.295 161.393 C 80.040 154.954, 85.291 150.492, 90.092 148.818 C 94.105 147.419, 97.737 149.946, 99.756 155.544 C 101.579 160.596, 102.412 179.204, 101.265 189.250 C 100.459 196.315, 100.537 197, 102.140 197 C 105.851 197, 133.934 190.988, 141.735 188.524 C 154.849 184.381, 159.374 178.799, 153.416 174.112 C 151.994 172.994, 147.292 170.632, 142.966 168.863 C 138.639 167.095, 135.329 165.277, 135.609 164.824 C 135.889 164.371, 138.229 163.995, 140.809 163.989 C 147.666 163.973, 153.129 162.888, 152.709 161.626 C 152.507 161.021, 148.839 159.553, 144.557 158.364 C 134.725 155.632, 129 153.067, 129 151.392 C 129 150.675, 132.262 148.186, 136.250 145.861 C 144.956 140.784, 149.001 136.965, 148.996 133.827 C 148.990 129.985, 145.403 125.288, 139.461 121.343 L 133.853 117.619 137.235 115.884 C 142.344 113.263, 152.415 102.007, 162.916 87.183 C 168.221 79.695, 173.997 72.714, 176.145 71.195 C 179.995 68.473, 181.168 66, 178.609 66 C 177.844 66, 175.089 67.759, 172.487 69.909 C 167.355 74.150, 161.641 76.151, 158.247 74.896 C 153.071 72.981, 151.057 62.720, 151.005 38 C 150.969 20.743, 150.186 16.852, 146.614 16.164 C 144.198 15.699, 138.146 21.656, 132.192 30.360 L 127.500 37.221 126.733 31.860 C 125.010 19.831, 118.344 11.664, 107.655 8.490 C 99.800 6.157, 81.874 6.633, 68 9.542 M 85 9.629 C 73.183 11.313, 62.006 13.386, 62.034 13.888 C 62.078 14.663, 76.089 21.040, 77.698 21.017 C 80.430 20.978, 96.059 26.471, 103.523 30.094 C 113.246 34.813, 119 40.016, 119 44.088 C 119 48.466, 114.586 50.297, 102.805 50.808 C 93.821 51.197, 93.087 51.385, 92.805 53.364 C 92.580 54.936, 93.582 56.195, 96.597 58.131 C 101.665 61.385, 104.941 65.861, 105.706 70.576 L 106.289 74.171 108.002 71.335 C 108.944 69.776, 113.196 62.314, 117.452 54.754 C 125.065 41.228, 125.178 40.924, 124.526 35.754 C 123.005 23.689, 119.119 16.632, 111.995 12.997 C 106.012 9.945, 93.626 8.399, 85 9.629 M 141.900 22.107 C 140.212 23.914, 136.169 29.433, 132.916 34.372 L 127 43.351 127.033 61.926 C 127.060 77.543, 127.369 81.376, 128.970 86 C 130.018 89.025, 130.566 91.810, 130.188 92.188 C 128.855 93.521, 112.382 100.234, 102.500 103.472 C 93.075 106.559, 92.366 106.985, 90.175 110.874 C 87.354 115.881, 86.606 115.771, 104.147 112.939 L 116.915 110.878 119.804 113.013 C 126.913 118.269, 135.292 116.039, 144.521 106.434 C 148.691 102.094, 166 79.039, 166 77.825 C 166 77.638, 163.998 77.645, 161.551 77.839 C 151.983 78.600, 148.795 70.422, 148.808 45.149 C 148.818 26.726, 148.137 19.874, 146.234 19.243 C 145.538 19.012, 143.587 20.301, 141.900 22.107 M 42.054 22.525 C 39.058 23.369, 36.447 24.220, 36.250 24.416 C 35.717 24.949, 48.590 28.726, 61.007 31.678 C 70.394 33.911, 72.862 34.152, 78.232 33.361 L 84.500 32.438 80.850 28.880 C 74.961 23.140, 71.216 21.879, 58.667 21.409 C 50.578 21.107, 45.999 21.414, 42.054 22.525 M 84.099 28.106 C 85.694 29.814, 87 31.823, 87 32.571 C 87 33.318, 87.895 34.409, 88.990 34.994 C 91.611 36.397, 94 41.144, 94 44.950 L 94 48 102.032 48 C 110.174 48, 117 46.154, 117 43.952 C 117 41.872, 110.721 36.885, 103.550 33.270 C 97.322 30.131, 83.905 25, 81.924 25 C 81.524 25, 82.503 26.398, 84.099 28.106 M 78 36.961 C 74.425 37.334, 70.575 38.139, 69.444 38.751 C 68.123 39.465, 64.010 39.666, 57.944 39.312 C 48.130 38.740, 31.317 40.283, 29.694 41.906 C 28.252 43.348, 35.584 46.619, 44.550 48.534 C 54.499 50.659, 75.052 50.965, 84.250 49.124 L 91 47.774 91 44.341 C 91 41.067, 87.322 35.780, 85.295 36.142 C 84.858 36.220, 81.575 36.589, 78 36.961 M 121.666 52.750 C 118.744 57.396, 96.346 98.830, 95.421 101.301 C 94.839 102.857, 95.138 103.009, 97.624 102.424 C 101.092 101.606, 125.179 92.048, 126.274 91.054 C 126.700 90.667, 126.339 87.583, 125.473 84.200 C 124.303 79.635, 123.975 74.300, 124.198 63.523 C 124.364 55.533, 124.393 48.998, 124.263 48.998 C 124.132 48.999, 122.964 50.688, 121.666 52.750 M 85.554 51.902 C 83.751 52.608, 83.788 52.712, 86.054 53.318 C 89.475 54.233, 89.714 54.188, 90.362 52.500 C 90.992 50.858, 88.891 50.596, 85.554 51.902 M 59.336 54.097 C 51.187 55.106, 47.199 57.279, 45.342 61.724 C 43.451 66.250, 44.382 70.341, 50.640 84.987 C 55.209 95.683, 56.259 101.778, 54.001 104.498 C 51.763 107.195, 45.412 108.223, 38.157 107.063 L 31.500 105.998 28.187 109.553 C 21.642 116.576, 25.918 118.883, 45.500 118.895 C 58.404 118.902, 80.318 117.016, 81.541 115.792 C 81.892 115.441, 81.244 110.957, 80.100 105.827 C 78.957 100.697, 77.448 93.125, 76.748 89 L 75.474 81.500 70.891 81.827 C 66.787 82.120, 66.030 81.824, 63.654 79 C 62.194 77.266, 61 75.524, 61 75.129 C 61 74.734, 62.464 71.956, 64.254 68.956 C 69.539 60.092, 74.183 61.185, 76.477 71.833 L 77.195 75.165 79.534 72.968 C 80.820 71.760, 83.481 67.710, 85.447 63.969 L 89.021 57.168 84.260 55.672 C 78.279 53.793, 67.364 53.103, 59.336 54.097 M 89.140 63.119 C 87.883 65.859, 84.829 70.588, 82.352 73.628 C 77.223 79.926, 77.281 77.743, 81.650 100 C 83 106.875, 84.457 112.854, 84.888 113.286 C 85.319 113.718, 87.169 110.793, 89 106.786 C 90.831 102.779, 94.356 95.986, 96.834 91.690 C 105.995 75.811, 105.225 66.290, 94.257 59.811 L 91.425 58.138 89.140 63.119 M 67.610 68.714 C 63.982 74.284, 63.831 77.304, 67.091 79.049 C 68.650 79.883, 69.918 79.862, 72.080 78.967 C 75.171 77.686, 75.217 77.097, 72.837 69.264 C 71.412 64.572, 70.379 64.463, 67.610 68.714 M 99.686 116.302 L 86.871 118.350 87.506 120.925 C 88.527 125.062, 93.641 132.357, 96.849 134.252 C 104.120 138.547, 114.326 135.130, 125.653 124.608 L 132.382 118.357 128.941 118.747 C 126.585 119.014, 123.985 118.327, 120.697 116.569 C 115.177 113.617, 116.392 113.632, 99.686 116.302 M 127 127.083 C 123.425 130.377, 117.841 134.405, 114.590 136.036 C 102.585 142.058, 93.941 138.992, 86.675 126.134 C 84.575 122.418, 84.115 122.061, 83.583 123.738 C 83.011 125.541, 81.751 125.754, 68.729 126.250 C 53.083 126.847, 46 128.661, 46 132.072 C 46 133.092, 48.700 136.813, 52 140.341 C 55.300 143.869, 58 147.230, 58 147.810 C 58 150.111, 49.830 150.433, 42.846 148.406 C 41.625 148.052, 40.383 149.546, 38.096 154.123 C 30.746 168.833, 36.775 177.694, 56.437 181.077 C 71.495 183.668, 96.591 179.063, 89.143 175.076 C 86.363 173.589, 75.139 171.033, 71.309 171.015 C 69.554 171.007, 67.846 170.560, 67.514 170.022 C 66.021 167.608, 78.618 152.080, 85.500 147.851 C 89.507 145.389, 95.071 145.481, 98.356 148.066 C 102.999 151.717, 104.518 159.208, 104.376 177.750 C 104.308 186.688, 104.413 194, 104.610 194 C 104.808 194, 111.628 192.657, 119.766 191.015 C 141.479 186.634, 153 182.428, 153 178.882 C 153 176.521, 151.110 175.251, 141.306 171.026 C 128.776 165.627, 127.825 163.003, 137.855 161.499 L 142.378 160.821 137.087 159.030 C 130.118 156.670, 126.500 153.889, 126.500 150.892 C 126.500 148.970, 128.022 147.598, 134.243 143.911 C 146.091 136.890, 147.623 134.901, 144.982 129.966 C 143.976 128.087, 135.280 120.956, 134.106 121.047 C 133.773 121.073, 130.575 123.789, 127 127.083" stroke="none" fill="black" fill-rule="evenodd"/>
</svg>