<svg xmlns="http://www.w3.org/2000/svg" width="200" height="200" viewBox="0 0 200 200" version="1.1">
	<path d="M 78.500 10.122 C 74.100 10.586, 66.901 11.168, 62.503 11.417 C 55.095 11.835, 54.304 12.096, 51.753 14.950 C 47.229 20.014, 48.426 23.662, 55.845 27.421 C 69.596 34.390, 102 35.535, 102 29.053 C 102 25.309, 94.754 21.081, 79.500 15.922 L 72.500 13.555 79 12.885 C 93.959 11.343, 116.917 10.865, 126.500 11.897 C 138.638 13.204, 143.498 14.498, 146.123 17.123 C 148.080 19.080, 148.082 19.175, 146.254 22.308 C 145.229 24.064, 141.650 27.413, 138.300 29.751 L 132.209 34.002 135.531 41.642 L 138.852 49.282 130.770 65.480 L 122.689 81.678 116.482 77.089 L 110.275 72.500 107.532 62 C 106.024 56.225, 104.601 50.773, 104.370 49.884 C 104.021 48.541, 105.511 48.068, 113.197 47.082 C 131.757 44.702, 133.950 39.563, 119.272 32.849 C 112.341 29.678, 111 29.420, 111 31.256 C 111 34.216, 105.279 34.844, 74 35.313 C 41.327 35.803, 35.902 36.445, 33.973 40.050 C 33.125 41.635, 33.388 42.478, 35.335 44.426 C 39.175 48.266, 47.761 52.210, 50.836 51.546 C 54.303 50.798, 100.379 48.054, 100.894 48.565 C 101.609 49.272, 106.733 70.080, 106.109 69.743 C 102.522 67.802, 94.597 64.505, 91 63.458 C 88.525 62.738, 83.636 60.951, 80.136 59.488 C 72.681 56.372, 61.547 55.212, 55.323 56.903 C 52.787 57.592, 50.093 59.289, 48.466 61.223 C 46.152 63.972, 45.844 65.100, 46.206 69.470 C 46.682 75.210, 49.574 81.579, 54.920 88.654 C 59.254 94.392, 60.903 94.811, 79.568 94.926 C 93.799 95.013, 100.497 93.404, 105.683 88.652 C 108.475 86.093, 109.306 84.466, 109.726 80.735 L 110.256 76.038 113.173 77.761 C 114.777 78.709, 117.235 80.679, 118.634 82.140 C 122.467 86.141, 120.766 88.124, 110.288 91.868 C 90.950 98.778, 76.998 100.697, 69.346 97.500 C 64.377 95.424, 39.402 95.387, 34.468 97.449 C 26.924 100.601, 30.744 104.697, 51.675 115.899 C 59.279 119.968, 68.155 124.979, 71.401 127.035 L 77.302 130.773 72.949 131.509 C 62.956 133.197, 54.423 139.393, 51.807 146.861 C 50.180 151.504, 50.228 164.304, 51.892 169.500 C 52.596 171.700, 54.353 176.597, 55.796 180.382 L 58.420 187.264 65.960 186.682 C 70.107 186.362, 84.975 184.216, 99 181.913 C 130.878 176.678, 146.237 176.128, 157.674 179.810 C 183.764 188.210, 182.180 161.872, 154.969 134.849 C 147.282 127.215, 147.271 127.196, 150.093 126.631 C 154.319 125.786, 160.469 119.661, 163.001 113.775 C 166.849 104.832, 167.925 95.289, 167.997 69.500 C 168.038 54.553, 168.605 41.539, 169.500 35 C 171.280 21.994, 171.328 17.206, 169.710 14.009 C 167.990 10.609, 165.822 10.438, 162.274 13.423 C 158.981 16.194, 150.476 28.623, 144.460 39.456 L 140.597 46.413 138.360 41.456 C 137.129 38.730, 136.107 36.050, 136.087 35.500 C 136.068 34.950, 138.308 32.969, 141.066 31.098 C 147.555 26.696, 150.218 22.943, 149.814 18.769 C 149.412 14.616, 144.214 11.565, 134.998 10.069 C 127.477 8.849, 90.257 8.884, 78.500 10.122 M 161.975 17.682 C 157.929 22.289, 151.681 31.931, 146.029 42.285 C 141.909 49.835, 141.815 50.209, 142.929 54.632 C 146.472 68.704, 144.867 83.118, 138.458 94.778 C 136.556 98.238, 135 101.694, 135 102.458 C 135 104.880, 130.065 109.823, 126.460 111.013 C 123.447 112.008, 121 114.462, 121 116.490 C 121 117.561, 131.222 121.844, 137.795 123.527 C 147.984 126.136, 154.771 123.524, 159.244 115.275 C 163.830 106.816, 165.060 97.354, 165.447 67.562 C 165.640 52.678, 166.326 36.900, 166.971 32.500 C 168.306 23.392, 168.031 14.831, 166.387 14.290 C 165.774 14.089, 163.789 15.615, 161.975 17.682 M 53.040 17.452 C 48.283 23.184, 62.122 29.213, 83.045 30.523 C 92.387 31.108, 98.055 30.336, 98.703 28.390 C 99.210 26.870, 92.638 23.575, 81.153 19.590 C 72.513 16.592, 69.441 16, 62.526 16 C 56.507 16, 53.916 16.397, 53.040 17.452 M 112.211 35.538 C 111.501 36.342, 110.032 37, 108.944 37 C 106.864 37, 103.035 43.368, 104.334 44.668 C 105.261 45.595, 121.399 43.392, 124.041 41.978 C 125.813 41.030, 125.930 40.620, 124.815 39.272 C 123.473 37.651, 116.309 34.031, 114.500 34.060 C 113.950 34.069, 112.920 34.734, 112.211 35.538 M 43.147 39.028 C 36.082 40.056, 35.074 41.204, 38.865 43.904 C 45.223 48.431, 48.116 49.036, 58.678 48.045 C 64.080 47.538, 75.639 46.804, 84.363 46.413 L 100.227 45.701 101.613 42.383 C 102.376 40.558, 103 38.825, 103 38.532 C 103 37.706, 49.171 38.152, 43.147 39.028 M 132.223 68.531 C 128.250 76.499, 125 83.479, 125 84.043 C 125 84.606, 126.575 85.997, 128.500 87.133 C 130.761 88.466, 132.005 89.959, 132.015 91.349 C 132.024 92.532, 132.482 94.175, 133.034 95 C 133.903 96.298, 134.237 96.239, 135.518 94.560 C 136.332 93.493, 137.996 90.118, 139.214 87.060 C 141.063 82.420, 141.433 79.514, 141.452 69.500 C 141.486 51.432, 140.785 51.358, 132.223 68.531 M 53.315 60.616 C 49.505 62.495, 47.869 66.487, 48.949 71.273 C 49.898 75.481, 54.309 83.751, 57.875 88.009 C 60.386 91.007, 60.950 91.182, 70.832 92.037 C 81.388 92.950, 92.996 92.089, 98.555 89.983 C 102.681 88.419, 105.750 85.289, 107.066 81.300 C 109.004 75.428, 107.849 73.714, 99.229 69.669 C 94.929 67.651, 91.085 66, 90.687 66 C 90.288 66, 90.245 67.128, 90.591 68.507 C 91.806 73.348, 87.866 76.959, 77.586 80.429 C 71.786 82.387, 71.039 81.792, 71.015 75.200 C 70.995 69.583, 73.361 65.172, 77.276 63.526 L 80.423 62.203 75.030 60.601 C 68.122 58.550, 57.490 58.557, 53.315 60.616 M 76.455 67.455 C 74.569 69.340, 74 70.962, 74 74.450 L 74 78.992 79.112 77.049 C 87.486 73.867, 90.051 70.194, 86.429 66.571 C 84.054 64.197, 79.291 64.619, 76.455 67.455 M 122.785 90.821 C 121.842 91.195, 119.044 95.664, 116.568 100.751 L 112.067 110 115.842 110 C 120.787 110, 122.328 108.705, 125.955 101.500 C 129.266 94.921, 129.609 93.009, 127.800 91.200 C 126.479 89.879, 125.369 89.796, 122.785 90.821 M 106 96.117 C 89.100 102.015, 78.557 103.245, 69.070 100.428 C 65.053 99.235, 60.325 98.934, 49.469 99.178 C 41.599 99.355, 34.787 99.881, 34.330 100.348 C 32.917 101.790, 39.276 106.155, 55.675 115 C 72.509 124.079, 83.461 131.445, 82.482 133.028 C 82.152 133.563, 79.899 134, 77.476 134 C 72.322 134, 64.703 136.384, 60.634 139.269 C 56.547 142.167, 53.022 150.299, 53.010 156.856 C 52.999 162.895, 55.151 172.118, 58.267 179.384 L 60.362 184.269 67.931 183.667 C 72.094 183.336, 84.950 181.497, 96.500 179.582 C 133.616 173.425, 146.236 172.995, 158.876 177.456 C 167.461 180.486, 173.941 178.331, 173.985 172.432 C 174.086 158.772, 148.855 127, 137.907 127 C 135.515 127, 134.941 127.552, 134.075 130.689 C 133.515 132.718, 133.303 135.358, 133.603 136.555 C 134.747 141.114, 124.869 164.929, 120.967 167.018 C 116.031 169.659, 113.501 166.341, 108.517 150.688 C 106.798 145.291, 105.117 140.791, 104.781 140.688 C 103.651 140.340, 90.945 159.164, 88.128 165.361 C 85.146 171.921, 82 175.639, 82 172.603 C 82 171.700, 86.319 161.094, 91.598 149.034 L 101.195 127.106 98.687 121.628 C 97.308 118.615, 94.226 114.027, 91.840 111.433 C 88.766 108.092, 88.083 106.886, 89.500 107.298 C 90.600 107.619, 94.200 108.161, 97.500 108.503 C 100.800 108.845, 104.715 109.352, 106.201 109.631 C 108.668 110.094, 109.170 109.606, 112.007 103.986 C 116.462 95.160, 117.204 92.984, 115.725 93.075 C 115.051 93.117, 110.675 94.485, 106 96.117 M 129.251 101.250 L 128.063 104.500 130.032 102.139 C 132.078 99.684, 132.562 98, 131.219 98 C 130.790 98, 129.904 99.463, 129.251 101.250 M 99.266 116.925 C 100.963 119.991, 102.467 122.657, 102.608 122.849 C 102.750 123.042, 104.051 120.859, 105.500 118 C 106.949 115.141, 107.992 112.677, 107.817 112.525 C 107.643 112.373, 104.953 112.046, 101.840 111.799 L 96.181 111.350 99.266 116.925 M 107.484 120.329 C 104.404 126.995, 103.747 132, 105.953 132 C 106.350 132, 108.875 128.807, 111.566 124.904 C 116.053 118.397, 116.315 117.704, 114.729 116.544 C 113.778 115.849, 113 114.767, 113 114.140 C 113 110.986, 110.509 113.781, 107.484 120.329 M 112.736 127.836 L 106.973 136.584 109.820 146.042 C 113.906 159.613, 116.563 165.231, 118.701 164.819 C 122.729 164.043, 131 143.417, 131 134.148 C 131 130.986, 131.532 127.868, 132.183 127.217 C 132.834 126.566, 133.172 125.874, 132.933 125.679 C 132.450 125.285, 118.855 118.975, 118.638 119.044 C 118.562 119.069, 115.906 123.025, 112.736 127.836 M 101.191 134 C 100.633 135.375, 98.976 139.200, 97.508 142.500 C 94.577 149.090, 94.890 148.964, 100.334 141.356 C 103.348 137.143, 103.851 135.786, 103.110 133.856 L 102.206 131.500 101.191 134" stroke="none" fill="black" fill-rule="evenodd"/>
</svg>