<svg xmlns="http://www.w3.org/2000/svg" width="200" height="200" viewBox="0 0 200 200" version="1.1">
	<path d="M 110 9.092 C 104.775 9.515, 96.117 10.567, 90.761 11.430 C 85.404 12.294, 78.636 13, 75.721 13 C 72.805 13, 67.754 13.695, 64.494 14.544 C 59.729 15.785, 57.250 15.883, 51.843 15.044 C 42.758 13.634, 37.999 13.705, 38.003 15.250 C 38.007 16.717, 50.778 24.178, 63.312 30.036 C 79.789 37.737, 93.485 38.637, 96.247 32.199 C 96.884 30.715, 97.508 29.344, 97.633 29.152 C 98.005 28.586, 108.517 32.730, 115.253 36.097 C 123.092 40.016, 128 43.666, 128 45.576 C 128 48.476, 122.878 49.175, 105.105 48.698 C 90.675 48.311, 87.559 47.964, 86.831 46.663 C 85.501 44.285, 88.593 42.887, 100.500 40.484 C 102.150 40.151, 104.513 39.672, 105.750 39.420 C 106.987 39.168, 108 38.456, 108 37.838 C 108 37.037, 106.208 36.957, 101.750 37.558 C 98.313 38.022, 92.350 38.198, 88.500 37.951 C 84.650 37.703, 74.975 37.500, 67 37.500 C 54.500 37.500, 51.948 37.776, 48.500 39.500 C 38.264 44.618, 47.201 53, 62.894 53 L 66.690 53 63.013 56.866 C 56.379 63.839, 54.588 76.975, 58.998 86.302 C 61.505 91.602, 65.702 95.309, 71.451 97.300 C 75.033 98.539, 74.429 98.669, 59.360 99.887 C 50.637 100.592, 39 101.711, 33.500 102.372 L 23.500 103.576 30.840 108.394 C 47.861 119.569, 60.197 123.441, 76.500 122.728 C 88.670 122.195, 93.490 120.936, 114.500 112.800 C 134.715 104.971, 135.189 104.738, 137.037 101.699 C 138.203 99.781, 139.022 99.226, 139.513 100.021 C 140.604 101.786, 136.621 105.228, 126.500 111.266 C 115.843 117.624, 114.746 119.810, 120.693 122.843 C 122.793 123.915, 126.534 125.352, 129.006 126.036 L 133.500 127.282 128.277 129.609 C 122.523 132.174, 110.642 134.005, 103.860 133.372 C 101.462 133.149, 93.366 132.327, 85.868 131.546 C 72.332 130.136, 68.176 130.324, 66.765 132.412 C 65.172 134.771, 65.974 151.706, 67.983 158.145 C 74.968 180.523, 103.126 192.730, 139.753 189.258 C 155.583 187.757, 171.896 182.040, 173.690 177.364 C 175.511 172.620, 165.976 171.049, 134.500 170.907 C 108.627 170.791, 107.856 169.926, 132 168.101 C 150.225 166.724, 158.443 165.278, 161.277 162.951 C 164.556 160.258, 162.614 157.931, 154.910 155.322 C 147.969 152.972, 129.012 150, 120.966 150 C 118.235 150, 116 149.588, 116 149.085 C 116 148.569, 125.503 148.020, 137.750 147.829 C 156.163 147.541, 159.994 147.219, 162.720 145.734 C 168.659 142.498, 169.591 136.958, 165.549 128.910 L 163.097 124.029 165.524 118.541 C 170.435 107.438, 172.340 94.523, 172.390 72 C 172.436 51.695, 171.475 40.741, 168.334 25.750 C 165.716 13.251, 164.408 15.610, 163.621 34.250 C 162.247 66.803, 157.978 91.116, 151.324 104.279 L 149.919 107.057 147.301 103.945 L 144.682 100.834 146.973 96.167 C 150.501 88.982, 150.711 80.375, 147.617 69.864 C 143.849 57.064, 142.955 49.694, 143.241 33.816 C 143.463 21.538, 143.241 19.025, 141.679 16.162 C 138.224 9.830, 128.284 7.612, 110 9.092 M 111.500 11.587 C 109.850 11.814, 104.264 12.491, 99.086 13.093 C 93.908 13.694, 88.740 14.530, 87.602 14.951 C 85.545 15.712, 85.546 15.721, 87.731 16.415 C 88.940 16.798, 91.632 19.041, 93.714 21.398 C 96.353 24.386, 99.284 26.349, 103.391 27.881 C 119.273 33.803, 131 41.441, 131 45.862 C 131 47.037, 129.808 48.731, 128.281 49.727 C 125.937 51.255, 123.315 51.483, 109.281 51.376 C 100.326 51.307, 93 51.372, 93 51.520 C 93 51.668, 97.384 54.199, 102.743 57.144 C 114.678 63.705, 123.007 71.281, 122.985 75.557 C 122.976 77.175, 122.556 79.153, 122.051 79.951 C 121.347 81.064, 122.509 82.301, 127.025 85.253 C 130.266 87.370, 134.826 91.105, 137.158 93.551 C 139.489 95.998, 141.780 98, 142.248 98 C 142.715 98, 143.966 96.088, 145.027 93.750 C 147.746 87.760, 147.557 79.213, 144.478 68.927 C 141.202 57.982, 140.135 47.951, 140.750 33.885 C 141.364 19.823, 140.090 15.774, 134.286 13.342 C 130.573 11.786, 117.422 10.773, 111.500 11.587 M 73.750 16.716 C 68.998 17.436, 70.700 18.532, 80.250 20.901 C 85.338 22.164, 90.175 23.439, 91 23.735 C 91.875 24.050, 91.510 23.197, 90.124 21.688 C 87.918 19.288, 80.028 15.807, 77.572 16.150 C 76.982 16.232, 75.263 16.487, 73.750 16.716 M 48 19.123 C 61.941 27.857, 82.163 34.942, 89.319 33.600 C 93.043 32.901, 95.975 29.575, 94.323 27.923 C 92.998 26.598, 66.023 19.898, 61.500 19.771 C 59.300 19.708, 57.050 19.344, 56.500 18.962 C 55.950 18.579, 53.025 17.965, 50 17.598 L 44.500 16.930 48 19.123 M 165.682 45.500 C 164.597 68.400, 161.146 86.997, 155.084 102.608 L 152.287 109.812 156.841 115.553 L 161.395 121.294 163.280 116.897 C 168.911 103.762, 171.381 75.303, 169.063 50.271 C 167.231 30.488, 166.445 29.379, 165.682 45.500 M 59 40.039 C 50.617 40.933, 46.752 42.473, 47.189 44.745 C 47.374 45.702, 48.713 47.055, 50.166 47.751 C 54.495 49.826, 67.841 51.102, 76.500 50.269 L 84.500 49.500 84.184 46.337 C 83.962 44.116, 84.397 42.877, 85.644 42.180 C 87.086 41.372, 86.582 41.083, 82.960 40.640 C 74.278 39.577, 65.419 39.355, 59 40.039 M 80.711 52.697 C 79.273 53.070, 79.717 53.737, 82.976 56.097 C 85.205 57.712, 89.087 61.838, 91.604 65.267 C 94.227 68.841, 97.313 71.873, 98.839 72.375 C 100.303 72.855, 105.240 74.777, 109.812 76.645 C 114.383 78.513, 118.546 79.781, 119.062 79.462 C 119.578 79.143, 120 77.634, 120 76.108 C 120 71.880, 114.112 66.746, 100.284 58.917 C 88.606 52.305, 85.733 51.392, 80.711 52.697 M 66.607 57.095 C 60.677 61.759, 57.847 72.026, 60.008 81.035 C 62.442 91.181, 72.252 97.172, 83.785 95.556 C 89.346 94.777, 101.002 91.128, 100.996 90.168 C 100.994 89.801, 98.182 88.044, 94.746 86.263 C 85.605 81.527, 76.135 75.120, 74.920 72.851 C 73.061 69.376, 75.565 67.669, 81.466 68.391 C 84.235 68.729, 87.513 69.282, 88.750 69.620 C 90.001 69.961, 91 69.786, 91 69.225 C 91 67.578, 81.971 58.037, 78.920 56.458 C 74.888 54.373, 69.727 54.640, 66.607 57.095 M 77.492 71.987 C 78.375 73.415, 85.458 78.105, 93.314 82.464 L 100.129 86.244 98.538 82.372 C 95.841 75.810, 93.704 73.684, 88.427 72.316 C 82.497 70.779, 76.636 70.602, 77.492 71.987 M 101.207 81.829 C 102.862 85.498, 104.348 88.643, 104.509 88.817 C 104.948 89.294, 114.773 84.176, 115.416 83.136 C 115.946 82.278, 109.851 79.270, 101.885 76.459 L 98.197 75.158 101.207 81.829 M 117.486 85.022 C 116.688 86.313, 106.378 91.539, 98.507 94.643 L 92.500 97.011 98 96.491 C 101.025 96.205, 109.505 95.303, 116.845 94.486 C 124.185 93.669, 130.653 93, 131.218 93 C 133.115 93, 129.657 89.844, 124.549 86.915 C 118.941 83.698, 118.395 83.552, 117.486 85.022 M 130.894 95.439 C 130.260 96.074, 105.867 98.601, 72.500 101.489 C 31.487 105.039, 31.588 105.026, 33.174 106.552 C 35.780 109.060, 47.636 114.921, 55.500 117.589 C 71.074 122.873, 86.755 121.088, 110.460 111.335 C 116.532 108.837, 123.434 106.202, 125.798 105.480 C 132.506 103.431, 135 101.397, 135 97.977 C 135 95.757, 134.534 95, 133.167 95 C 132.158 95, 131.136 95.198, 130.894 95.439 M 140.166 105.323 C 138.936 106.632, 133.895 110.072, 128.965 112.966 C 124.034 115.860, 120 118.594, 120 119.042 C 120 119.935, 128.664 123.361, 133.624 124.430 C 136.495 125.049, 137.166 124.634, 141.917 119.304 C 148.594 111.812, 149.138 109.676, 145.335 105.873 L 142.403 102.942 140.166 105.323 M 148.557 115.172 C 147.526 116.917, 145.161 120.030, 143.301 122.088 C 141.441 124.147, 140.275 126.028, 140.710 126.267 C 141.144 126.506, 144.327 127.283, 147.783 127.994 C 153.853 129.244, 154.149 129.209, 156.533 126.969 C 157.890 125.694, 159 124.261, 159 123.783 C 159 123.061, 151.110 112, 150.595 112 C 150.505 112, 149.588 113.428, 148.557 115.172 M 158 129.500 C 155.197 132.483, 153.729 132.545, 144.214 130.073 L 136.928 128.181 132.708 130.540 C 122.481 136.256, 110.747 137.195, 85.268 134.339 C 76.890 133.399, 69.730 132.937, 69.355 133.311 C 67.886 134.781, 68.618 151.526, 70.395 157.103 C 76.418 175.999, 97.463 186.909, 128.026 186.980 C 140.876 187.010, 152.460 185.233, 161.076 181.910 C 169.737 178.570, 172.101 176.704, 169.276 175.438 C 168.299 175, 153.459 174.385, 136.299 174.071 C 105.540 173.508, 100.901 172.957, 104.208 170.262 C 106.792 168.155, 113.858 166.909, 131.538 165.444 C 149.765 163.933, 159.500 162.247, 159.500 160.601 C 159.500 157.644, 134.010 153.117, 112.750 152.298 C 104.088 151.964, 97 151.327, 97 150.881 C 97 147.669, 109.126 145.866, 135.544 145.151 C 163.006 144.407, 165 143.890, 165 137.511 C 165 134.155, 162.270 127, 160.989 127 C 160.637 127, 159.292 128.125, 158 129.500" stroke="none" fill="black" fill-rule="evenodd"/>
</svg>