<svg xmlns="http://www.w3.org/2000/svg" width="200" height="200" viewBox="0 0 200 200" version="1.1">
	<path d="M 134 10.637 C 122.321 11.473, 100.474 14.153, 76.090 17.740 L 50.680 21.479 48.844 24.489 C 47.834 26.145, 47.006 29.232, 47.004 31.349 C 46.999 36.067, 51.223 40.528, 56.822 41.718 C 62.485 42.922, 75.963 42.572, 81.238 41.084 C 85.098 39.994, 86.543 39.982, 89.043 41.018 C 90.731 41.717, 91.741 42.659, 91.288 43.112 C 90.835 43.565, 82.823 44.420, 73.482 45.011 C 30.585 47.729, 26.659 48.516, 31.557 53.414 C 32.915 54.772, 43.406 58.340, 52.500 60.535 L 55.500 61.259 52.764 62.039 C 48.322 63.306, 43.429 66.763, 42.172 69.522 C 39.069 76.332, 41.286 84.238, 50.832 100.407 C 58.656 113.660, 57.745 116.381, 45.664 115.849 L 37.738 115.500 34.778 119.147 C 30.744 124.116, 30.583 128.528, 34.334 131.360 C 38.941 134.839, 58.355 134.048, 87.500 129.194 L 110.500 125.364 114.864 129.158 C 122.518 135.813, 129.286 135.059, 134.651 126.952 C 138.456 121.201, 138.677 122.818, 135.090 130.172 C 131.714 137.093, 129.789 139.666, 126.027 142.281 C 121.986 145.091, 119.162 144.425, 114.238 139.501 C 110.334 135.597, 108.928 134.870, 103.619 134.008 C 80.420 130.243, 63.536 138.225, 74.008 148.008 C 82.355 155.805, 104.645 157.060, 124.711 150.862 C 128.797 149.600, 132.254 149.116, 134.174 149.538 C 139.262 150.656, 144.466 157.218, 151.059 170.831 C 157.491 184.113, 160.211 188, 163.071 188 C 167.526 188, 173.841 175.682, 178.661 157.594 L 180.391 151.104 177.945 145.847 C 176.600 142.956, 174.431 139.313, 173.124 137.751 C 170.629 134.770, 164.161 131, 161.540 131 C 160.693 131, 160 130.550, 160 130 C 160 129.450, 160.718 129, 161.596 129 C 164.022 129, 168.613 125.362, 170.942 121.594 C 172.087 119.741, 173.955 114.686, 175.093 110.362 C 178.046 99.136, 179.600 42.219, 177.327 28.500 C 175.811 19.345, 173.435 12.897, 171.339 12.251 C 167.674 11.120, 164.562 19.277, 158.462 46 C 149.230 86.444, 148.823 88, 147.473 88 C 145.613 88, 145.595 88.042, 141.612 101.619 C 139.668 108.245, 137.611 114.893, 137.041 116.393 L 136.003 119.121 127.490 113.311 C 120.511 108.547, 119.083 107.140, 119.564 105.500 C 122.043 97.042, 122.338 86.281, 120.679 64.743 C 118.602 37.767, 118.556 29.998, 120.449 25.468 C 123.523 18.110, 126.651 21.653, 140.774 48.500 C 146.758 59.875, 149.128 63.500, 150.582 63.500 C 152.205 63.500, 152.544 62.655, 152.786 58 C 152.943 54.975, 152.247 46.581, 151.238 39.346 L 149.405 26.192 152.452 24.454 C 160.658 19.776, 163.300 14.369, 158.459 12.163 C 155.608 10.864, 142.364 10.038, 134 10.637 M 131.500 13.668 C 116.243 14.933, 67.843 21.258, 62 22.750 C 60.265 23.194, 62.385 23.782, 68.933 24.675 C 79.366 26.097, 87.574 28.449, 90.250 30.783 C 92.170 32.459, 92.573 35.528, 91 36.500 C 90.450 36.840, 90 37.458, 90 37.874 C 90 39.011, 96.998 42.119, 98.069 41.458 C 98.581 41.141, 99 41.291, 99 41.792 C 99 42.292, 101.212 44.076, 103.915 45.757 C 106.619 47.437, 109.634 50.038, 110.615 51.536 C 112.376 54.222, 112.364 54.290, 109.758 56.532 C 108.305 57.782, 105.177 59.107, 102.808 59.475 C 94.588 60.755, 94.208 61.050, 98.171 63.083 C 105.440 66.813, 106.526 74.230, 101.476 85.651 C 100.100 88.762, 99.092 91.389, 99.237 91.488 C 99.382 91.587, 103.164 94.668, 107.642 98.334 C 112.119 102, 116.020 105, 116.309 105 C 117.513 105, 118.999 94.266, 118.979 85.701 C 118.968 80.640, 118.299 68.850, 117.493 59.500 C 116.686 50.150, 116.023 39.800, 116.019 36.500 C 116.005 25.665, 119.200 19, 124.408 19 C 127.362 19, 132.605 26.838, 142.685 46.326 L 149.500 59.500 149.784 55 C 149.940 52.525, 149.224 44.739, 148.193 37.699 L 146.319 24.898 150.470 22.465 C 152.753 21.127, 155.653 18.934, 156.914 17.591 L 159.207 15.151 155.353 14.081 C 151.766 13.085, 140.816 12.895, 131.500 13.668 M 168.717 18.467 C 166.633 22.837, 164.683 30.545, 156.964 64.919 L 150.807 92.338 152.653 109.419 L 154.500 126.500 157.532 126.797 C 161.551 127.191, 166.770 123.577, 169.321 118.634 C 173.326 110.874, 174.093 104.481, 175.153 70 C 176.138 37.949, 176.095 36.072, 174.140 26.599 C 173.017 21.153, 171.711 16.311, 171.239 15.839 C 170.760 15.360, 169.644 16.524, 168.717 18.467 M 55.500 24 C 55.160 24.550, 55.584 25, 56.441 25 C 57.298 25, 58 24.550, 58 24 C 58 23.450, 57.577 23, 57.059 23 C 56.541 23, 55.840 23.450, 55.500 24 M 49.879 28.764 C 48.528 32.249, 50.362 35.887, 54.536 38 C 57.817 39.660, 75.968 40.142, 79.500 38.662 C 81.605 37.780, 77.671 35.934, 58.720 28.911 L 50.940 26.028 49.879 28.764 M 63.500 27.593 C 82.066 35.665, 89 37.401, 89 33.976 C 89 32.380, 83.715 30.229, 75.755 28.584 C 68.801 27.148, 61.031 26.519, 63.500 27.593 M 94.448 50.815 C 92.850 53.942, 91.362 56.902, 91.140 57.394 C 90.649 58.483, 101.750 57.332, 105.990 55.854 C 107.645 55.277, 109 54.438, 109 53.991 C 109 52.913, 103.456 48.287, 100.056 46.529 C 97.369 45.139, 97.335 45.166, 94.448 50.815 M 89.868 46.465 C 89.612 46.721, 77.809 47.646, 63.639 48.520 C 49.469 49.395, 36.891 50.489, 35.688 50.952 C 33.580 51.763, 33.610 51.837, 36.500 52.976 C 38.150 53.625, 43.550 55.277, 48.500 56.646 C 56.118 58.753, 59.497 59.117, 70.500 59.022 C 77.650 58.960, 84.400 58.682, 85.500 58.405 C 86.639 58.119, 88.917 55.339, 90.789 51.951 C 93.725 46.639, 93.877 46, 92.206 46 C 91.176 46, 90.124 46.209, 89.868 46.465 M 61.041 63.169 C 52.066 64.451, 46.516 67.102, 44.452 71.092 C 41.960 75.912, 43.753 82.255, 51.486 95.975 C 58.902 109.133, 59.831 112.082, 57.622 115.454 C 55.696 118.394, 51.398 119.405, 44.493 118.542 C 39.303 117.894, 39.138 117.953, 36.514 121.393 C 33.391 125.488, 33.534 127.923, 37.009 129.784 C 41.038 131.942, 61.568 130.605, 86.429 126.564 C 98.489 124.604, 109.235 123, 110.307 123 C 111.380 123, 113.988 124.564, 116.104 126.475 C 122.867 132.585, 127.951 132.165, 132.710 125.102 L 134.965 121.755 126.657 115.996 L 118.348 110.236 111.118 112.661 C 107.141 113.995, 101.047 115.351, 97.576 115.675 C 92.016 116.194, 91.010 116.010, 89.132 114.132 C 86.167 111.167, 86.414 109.402, 91.116 100.009 C 95.823 90.604, 96.436 92.469, 85.544 83.058 L 79.588 77.912 76.743 80.956 C 71.375 86.700, 69.270 84.671, 71.013 75.433 C 72.307 68.571, 73.472 67.654, 76.560 71.066 C 78.354 73.049, 78.485 73.059, 79.793 71.316 C 80.543 70.317, 82.030 67.813, 83.099 65.750 L 85.041 62 76.270 62.123 C 71.447 62.191, 64.593 62.662, 61.041 63.169 M 87.295 64.250 C 86.772 64.938, 85.077 67.715, 83.529 70.422 L 80.714 75.345 85.107 79.192 C 87.523 81.307, 91.194 84.423, 93.264 86.114 L 97.028 89.190 99.163 84.365 C 101.821 78.355, 102.599 71.988, 101.033 69.061 C 99.831 66.815, 92.897 63.063, 89.872 63.022 C 88.977 63.010, 87.817 63.563, 87.295 64.250 M 73.563 76.515 C 72.686 81.193, 73.264 81.772, 75.463 78.416 C 76.990 76.086, 77.021 75.593, 75.726 74.298 C 74.431 73.003, 74.172 73.269, 73.563 76.515 M 93.459 101.385 C 88.557 111.304, 88.887 112.502, 96.524 112.493 C 102.529 112.485, 115.296 109.299, 114.778 107.937 C 114.452 107.082, 98.332 94, 97.604 94 C 97.332 94, 95.467 97.323, 93.459 101.385 M 146.079 95.583 C 146.127 96.748, 146.364 96.985, 146.683 96.188 C 146.972 95.466, 146.936 94.603, 146.604 94.271 C 146.272 93.939, 146.036 94.529, 146.079 95.583 M 145.079 99.583 C 145.127 100.748, 145.364 100.985, 145.683 100.188 C 145.972 99.466, 145.936 98.603, 145.604 98.271 C 145.272 97.939, 145.036 98.529, 145.079 99.583 M 145.187 111.500 C 143.380 117.404, 142.036 122.351, 142.201 122.494 C 142.365 122.637, 144.473 123.750, 146.885 124.966 L 151.270 127.179 150.566 117.339 C 150.179 111.928, 149.550 105.985, 149.167 104.133 C 148.524 101.018, 148.226 101.571, 145.187 111.500 M 143.571 104.571 C 143.204 106.037, 143.096 107.429, 143.331 107.665 C 143.567 107.900, 144.061 106.894, 144.429 105.429 C 144.796 103.963, 144.904 102.571, 144.669 102.335 C 144.433 102.100, 143.939 103.106, 143.571 104.571 M 138.143 130.368 C 135.552 136.618, 130.068 143.396, 125.827 145.590 C 121.527 147.813, 117.490 146.538, 111.712 141.134 L 106.759 136.500 93.629 136.500 C 82.940 136.500, 79.896 136.830, 77.250 138.276 C 70.450 141.991, 74.115 147.456, 85.469 150.529 C 93.283 152.644, 110.226 152.124, 119 149.499 C 122.025 148.594, 127.278 147.612, 130.674 147.315 L 136.847 146.777 142.038 151.632 C 146.204 155.529, 148.411 158.957, 153.217 168.994 C 159.382 181.872, 161.403 185, 163.556 185 C 165.683 185, 169.078 178.033, 173.532 164.533 L 177.810 151.566 174.958 145.916 C 171.316 138.701, 167.725 135.731, 159.391 133.038 C 155.709 131.849, 150.077 129.553, 146.877 127.938 C 143.676 126.322, 140.902 125, 140.713 125 C 140.523 125, 139.367 127.415, 138.143 130.368" stroke="none" fill="black" fill-rule="evenodd"/>
</svg>