<svg xmlns="http://www.w3.org/2000/svg" width="200" height="200" viewBox="0 0 200 200" version="1.1">
	<path d="M 65.660 11.482 C 64.845 12.298, 64.414 13.866, 64.702 14.968 C 65.567 18.278, 78.332 29.580, 83.384 31.509 C 85.923 32.478, 88 33.661, 88 34.136 C 88 34.611, 83.998 35, 79.106 35 C 66.797 35, 50.739 36.770, 44.621 38.800 C 40.279 40.242, 39.500 40.880, 39.500 43 C 39.500 46.008, 43.302 48.128, 53 50.527 C 56.575 51.412, 60.288 52.360, 61.250 52.635 C 62.361 52.952, 63 52.587, 63 51.635 C 63 50.012, 62.951 49.993, 52.316 47.500 C 45.042 45.796, 40.923 43.743, 42.205 42.461 C 44.040 40.626, 56.014 38.893, 70.815 38.320 L 87.130 37.689 86.815 42.094 C 86.540 45.944, 86.184 46.539, 84 46.806 C 79.533 47.352, 74.967 49.138, 75.565 50.105 C 75.895 50.638, 78.292 50.765, 81.074 50.396 C 84.452 49.948, 86 50.097, 86 50.871 C 86 51.498, 84.420 52, 82.450 52 C 72.951 52, 63.992 62.713, 61.468 77.091 C 60.603 82.013, 62.499 88.360, 66.037 92.390 C 69.185 95.974, 72.188 97.465, 78.307 98.480 C 81.990 99.091, 82.104 99.232, 81.807 102.806 L 81.500 106.500 56.796 106.199 C 29.553 105.867, 24.641 106.500, 22.782 110.579 C 21.221 114.006, 23.989 117.528, 31.048 121.097 C 43.499 127.392, 60.306 128.397, 73.433 123.632 C 77.011 122.333, 80.177 121.510, 80.469 121.802 C 80.761 122.094, 81 124.195, 81 126.469 C 81 130.476, 80.706 130.847, 71.575 138.360 C 54.625 152.306, 50.709 160.708, 56.528 170.637 C 59.755 176.144, 66.114 180.977, 77.707 186.732 C 86.778 191.235, 87.067 191.304, 96.709 191.275 C 119 191.209, 137.518 181.345, 141.580 167.373 C 143.505 160.750, 142.832 155.632, 139.043 148.110 C 136.522 143.106, 135.730 142.426, 127.976 138.610 C 123.382 136.349, 119.460 133.981, 119.261 133.348 C 119.061 132.714, 121.733 130.014, 125.198 127.348 L 131.497 122.500 153.941 122.346 L 176.385 122.193 179.692 119.554 C 188.171 112.789, 181.616 107.470, 148.826 94.504 L 134.151 88.701 137.076 83.520 C 142.807 73.365, 140.291 64.198, 130.278 58.748 C 124.591 55.653, 114.549 53.052, 108 52.979 C 103.557 52.930, 103.532 52.910, 106 51.442 C 108.058 50.218, 111.263 50.067, 124.140 50.587 C 142.284 51.319, 148.714 50.665, 153.239 47.625 C 155.774 45.923, 156.569 44.617, 156.808 41.760 C 157.274 36.198, 155.818 34.383, 150.291 33.633 C 147.656 33.276, 139.988 31.150, 133.252 28.910 C 121.523 25.008, 121.029 24.733, 121.612 22.410 C 121.982 20.935, 121.586 19.017, 120.601 17.514 C 117.789 13.221, 113.376 11.707, 102.207 11.201 C 93.226 10.793, 91.752 10.957, 90.636 12.483 C 89.423 14.142, 88.925 14.123, 80.988 12.116 C 71.100 9.616, 67.669 9.474, 65.660 11.482 M 67 13.979 C 67 14.517, 69.445 17.364, 72.432 20.304 C 78.558 26.333, 86.425 31.019, 87.841 29.482 C 88.338 28.942, 89.025 25.967, 89.367 22.871 L 89.989 17.243 81.531 15.121 C 72.427 12.838, 67 12.411, 67 13.979 M 93 14.658 C 93 15.148, 98.651 17.420, 105.558 19.706 C 115.759 23.083, 118.218 23.594, 118.665 22.431 C 120.537 17.553, 114.981 14.650, 102.838 14.163 C 97.427 13.945, 93 14.168, 93 14.658 M 91.693 24.682 C 91.371 27.807, 91.368 30.786, 91.687 31.303 C 92.777 33.067, 107.194 31.489, 111.847 29.096 C 114.238 27.866, 115.993 26.660, 115.748 26.415 C 115.080 25.746, 94.786 19, 93.443 19 C 92.764 19, 92.036 21.364, 91.693 24.682 M 115.972 29.674 C 110.949 33.137, 102.658 35.302, 96.406 34.784 C 93.109 34.510, 91.322 34.712, 91.696 35.317 C 92.066 35.916, 96.951 36.058, 104.399 35.687 C 118.465 34.987, 133.428 32.992, 132.289 31.970 C 131.855 31.581, 128.787 30.366, 125.472 29.272 L 119.443 27.281 115.972 29.674 M 124 36.637 C 119.325 37.411, 109.799 38.147, 102.832 38.272 L 90.164 38.500 89.819 42.115 L 89.473 45.730 99.234 46.370 L 108.994 47.010 120.082 42.007 C 131.768 36.735, 135.147 35.006, 133.500 35.145 C 132.950 35.191, 128.675 35.863, 124 36.637 M 128.500 40.986 L 116.500 46.794 120.211 47.501 C 122.252 47.890, 129.472 48.049, 136.256 47.854 C 150.800 47.437, 154 46.142, 154 40.677 C 154 37.488, 153.844 37.368, 148.190 36.200 C 144.994 35.540, 141.957 35.040, 141.440 35.089 C 140.923 35.138, 135.100 37.791, 128.500 40.986 M 89 50.918 C 89 52.038, 90.480 53.751, 92.551 55.032 C 94.504 56.239, 96.788 58.273, 97.627 59.553 C 98.500 60.886, 99.759 61.646, 100.575 61.333 C 101.511 60.974, 102 61.462, 102 62.757 C 102 64.175, 103.275 65.215, 106.539 66.462 C 114.757 69.600, 118.957 74.643, 115.900 77.700 C 114.728 78.872, 119.855 82.373, 127.294 85.479 C 131.663 87.304, 132.420 87.022, 134.632 82.745 C 137.385 77.421, 138.035 73.842, 136.967 69.878 C 134.927 62.300, 125.153 57.558, 107.768 55.710 C 96.312 54.492, 94.769 53.473, 100.250 50.745 L 103.500 49.128 96.250 49.064 C 89.747 49.007, 89 49.198, 89 50.918 M 75.367 57.041 C 71.543 59.491, 67.731 65.081, 65.596 71.368 C 61.346 83.888, 66.273 93.741, 77.700 95.568 L 81.808 96.225 82.416 88.862 C 82.750 84.813, 83.255 78.575, 83.538 75 C 83.821 71.425, 84.401 65.463, 84.828 61.750 L 85.604 55 82.052 55.017 C 80.098 55.026, 77.090 55.937, 75.367 57.041 M 88 58.875 C 88 60.456, 87.712 63.191, 87.359 64.953 L 86.719 68.156 91.892 65.328 L 97.066 62.500 93.366 59.250 C 88.824 55.260, 88 55.202, 88 58.875 M 93.817 67.532 C 91.242 68.873, 88.431 70.975, 87.571 72.203 C 84.875 76.051, 87.450 77.344, 98.739 77.809 L 108.500 78.212 105.362 74.856 C 103.636 73.010, 101.487 70.037, 100.586 68.250 C 99.686 66.463, 98.848 65.021, 98.724 65.047 C 98.601 65.072, 96.393 66.190, 93.817 67.532 M 107.656 73.126 C 111.510 76.980, 114 77.569, 114 74.625 C 114 73.265, 107.084 69, 104.879 69 C 104.137 69, 105.386 70.857, 107.656 73.126 M 85.651 85.069 C 84.476 96.311, 84.276 95.855, 89.891 94.745 C 94.191 93.895, 95.126 94.032, 97.641 95.881 C 104.066 100.607, 115.296 99.333, 124.791 92.800 L 129.202 89.765 120.851 85.254 C 112.519 80.754, 112.475 80.744, 101.500 80.530 C 95.450 80.412, 89.555 79.985, 88.401 79.581 C 86.453 78.899, 86.254 79.295, 85.651 85.069 M 126 95.075 C 118.659 100.262, 109.566 102.627, 103.130 101.023 C 100.584 100.389, 97.466 99.200, 96.203 98.381 C 94.571 97.323, 92.635 97.082, 89.523 97.549 C 85.349 98.175, 85.109 98.394, 84.471 102.170 C 84.103 104.351, 83.961 106.294, 84.156 106.490 C 84.352 106.685, 98.909 106.275, 116.506 105.579 C 143.267 104.521, 149.050 104.029, 151.865 102.572 C 154.360 101.280, 155.521 101.121, 156.357 101.957 C 157.115 102.715, 157.148 103.315, 156.457 103.792 C 154.600 105.074, 136 119.241, 136.002 119.372 C 136.003 119.442, 144.890 119.469, 155.752 119.430 C 176.298 119.358, 180 118.703, 180 115.139 C 180 112.728, 176.613 109.778, 170.105 106.520 C 164.513 103.721, 132.925 90.928, 132.016 91.094 C 131.732 91.146, 129.025 92.937, 126 95.075 M 124.500 108.048 C 116.250 108.430, 103.763 108.800, 96.750 108.871 L 84 109 84 114.040 C 84 117.621, 84.619 119.919, 86.138 121.973 L 88.277 124.866 86.013 128.683 C 83.942 132.176, 83.802 133.308, 84.364 142 C 85.406 158.111, 88.915 168.202, 94.395 170.850 C 96.807 172.015, 97.802 171.965, 101.682 170.484 C 105.670 168.961, 119.654 157.321, 118.674 156.341 C 118.465 156.132, 115.246 156.668, 111.520 157.532 C 92.458 161.952, 89.787 155.720, 104.565 141.298 C 112.149 133.897, 112.912 132.812, 112.386 130.179 C 111.547 125.985, 114.764 123.441, 123.386 121.481 C 129.113 120.179, 131.962 118.777, 138 114.291 C 148.101 106.786, 147.956 106.975, 143.450 107.177 C 141.278 107.275, 132.750 107.667, 124.500 108.048 M 27.250 110.031 C 18.197 113.670, 38.774 123.943, 55.201 123.985 C 62.298 124.004, 70.330 122.345, 75.284 119.839 C 77.366 118.786, 79.503 118.193, 80.034 118.521 C 80.599 118.870, 81 117.292, 81 114.716 L 81 110.313 65.250 109.660 C 44.236 108.788, 29.996 108.927, 27.250 110.031 M 118.750 125.658 C 116.285 126.681, 115 127.863, 115 129.107 C 115 131.743, 115.907 131.482, 120.500 127.523 C 124.885 123.743, 124.460 123.290, 118.750 125.658 M 71.285 142.117 C 57.951 153.559, 54.395 161.062, 58.523 169.045 C 60.686 173.228, 68.746 179.282, 78.753 184.239 C 87.197 188.423, 87.534 188.499, 97.426 188.443 C 118.047 188.328, 135.760 179.032, 139.118 166.563 C 141.448 157.910, 136.839 145.092, 130.665 143.054 C 128.801 142.439, 124.671 140.367, 121.487 138.450 C 114.850 134.454, 116.157 133.998, 105.674 143.962 C 99.811 149.536, 96.545 154.212, 97.707 155.373 C 99.048 156.714, 107.213 155.888, 116.525 153.468 C 121.885 152.076, 126.452 151.119, 126.675 151.342 C 126.899 151.565, 123.605 155.443, 119.357 159.958 C 110.356 169.527, 103.388 173.977, 97.385 173.991 C 88.060 174.012, 83.968 165.618, 81.234 140.855 L 80.500 134.209 71.285 142.117" stroke="none" fill="black" fill-rule="evenodd"/>
</svg>