<svg xmlns="http://www.w3.org/2000/svg" width="200" height="200" viewBox="0 0 200 200" version="1.1">
	<path d="M 137.576 8.877 C 137.219 9.455, 137.593 12.532, 138.407 15.714 C 143.998 37.560, 148.125 85.281, 145.110 93.212 C 144.405 95.065, 142.310 96.164, 135.073 98.477 L 125.926 101.400 121.252 96.725 L 116.577 92.051 118.902 87.275 C 123.875 77.061, 122.586 67.356, 115.421 61.064 C 112.379 58.394, 112.159 57.842, 113.081 55.196 C 114.076 52.344, 114.296 52.263, 122.557 51.748 C 131.764 51.174, 136 49.334, 136 45.911 C 136 40.669, 131.318 37.064, 111.179 26.800 C 93.658 17.871, 70.612 11.071, 61.516 12.147 C 59.021 12.442, 58.489 12.991, 58.265 15.500 C 57.820 20.485, 58.770 22.587, 64.099 28.418 L 69.201 34 77.350 33.973 C 90.192 33.930, 103.858 32.323, 106.587 30.535 C 108.943 28.991, 109.402 29.114, 118.100 33.606 C 123.083 36.179, 128.779 39.812, 130.758 41.679 C 134.065 44.798, 134.226 45.202, 132.747 46.682 C 131.656 47.772, 128.652 48.451, 123.434 48.786 L 115.732 49.280 116.230 45.890 C 116.878 41.477, 115.281 38.109, 112.170 37.328 C 110.801 36.984, 98.406 37.022, 84.625 37.412 C 51.530 38.347, 38.500 40.635, 38.500 45.509 C 38.500 48.118, 43.449 49.722, 56.077 51.203 L 65.809 52.345 62.942 55.211 C 57.663 60.491, 57.769 66.724, 63.447 84.832 C 67.190 96.768, 67.828 102.068, 65.733 103.807 C 65.027 104.392, 60.710 104.783, 55.983 104.689 C 48.373 104.538, 46.888 104.828, 41.550 107.510 C 34.793 110.906, 32.947 113.093, 34.597 115.750 C 37.586 120.562, 49.438 122.392, 73.500 121.758 C 93.457 121.232, 102.867 119.592, 112.181 115.018 L 117.863 112.228 126.405 115.658 C 131.103 117.545, 137.209 119.356, 139.974 119.683 L 145 120.279 145 127.139 C 145 130.913, 144.887 133.995, 144.750 133.990 C 144.613 133.984, 139.325 132.415, 133 130.504 C 113.265 124.539, 103.652 123.434, 83.634 124.830 C 60.521 126.442, 55 127.818, 55 131.967 C 55 134.375, 57.919 136.780, 67.293 142.096 C 71.750 144.624, 75.549 147.148, 75.735 147.705 C 76.195 149.085, 68.700 150, 56.938 150 L 47.155 150 46.147 153.250 C 42.667 164.475, 44.076 173.148, 50.399 179.416 C 55.602 184.574, 62.156 186.972, 73.035 187.698 C 92.499 188.998, 114.982 180.440, 111.109 173.204 C 109.517 170.228, 99.792 167.079, 92.027 167.024 L 88.554 167 95.527 159.967 C 104.572 150.844, 109.047 147.760, 112.639 148.175 C 117.470 148.733, 118.192 151.630, 117.579 168 C 117.280 175.975, 116.755 183.708, 116.413 185.185 C 115.841 187.655, 116.100 187.936, 119.646 188.685 C 121.766 189.133, 128.225 189.468, 134 189.429 C 146.787 189.344, 153.435 187.112, 160.901 180.399 C 168.199 173.838, 171.295 166.872, 171.823 155.823 C 172.342 144.967, 169.744 135.773, 163.555 126.562 C 160.046 121.339, 159.103 120.540, 156.741 120.788 C 152.970 121.184, 153.308 119.828, 157.549 117.544 C 169.860 110.914, 173.629 93.076, 172.726 45.724 C 172.184 17.304, 171.304 10.610, 168.186 11.193 C 164.304 11.918, 160.896 31.030, 154.700 86.837 C 151.986 111.277, 151.157 116.333, 149.734 117.129 C 147.548 118.352, 146.085 117.552, 136.355 109.821 L 128.580 103.642 138.038 100.487 L 147.497 97.333 148.335 91.916 C 150.211 79.804, 147.415 45.999, 142.521 21.618 C 140.187 9.991, 138.914 6.712, 137.576 8.877 M 165.650 24.750 C 162.924 40.064, 157.516 82.977, 155.474 105.500 C 155.125 109.350, 154.620 113.287, 154.352 114.250 C 153.559 117.101, 155.738 116.262, 159.878 112.122 C 167.612 104.388, 169.939 91.401, 170.114 55 C 170.231 30.583, 169.431 16, 167.975 16 C 167.553 16, 166.507 19.938, 165.650 24.750 M 61 18.902 C 61 20.120, 63.050 23.277, 65.637 26.043 L 70.274 31 80.387 30.980 C 90.099 30.961, 103.801 29.532, 104.910 28.423 C 105.872 27.461, 102.660 26.054, 90 21.889 C 81.083 18.956, 75.135 17.625, 69.250 17.248 C 61.274 16.736, 61 16.791, 61 18.902 M 79 40.021 C 59.620 40.646, 43.978 42.725, 41.643 44.985 C 40.590 46.004, 48.401 47.638, 60.924 49.019 C 72.564 50.303, 110.904 50.496, 112.123 49.277 C 112.614 48.786, 113.124 46.642, 113.258 44.512 C 113.624 38.666, 115.078 38.857, 79 40.021 M 69.500 54.529 C 67.300 55.321, 65.399 55.977, 65.276 55.985 C 65.152 55.993, 64.365 57.328, 63.526 58.950 C 61.092 63.656, 61.718 69.900, 66 83.624 C 70.492 98.020, 70.851 101.732, 68.081 105.139 C 66.316 107.310, 65.515 107.480, 58.100 107.257 C 49.343 106.993, 40.814 109.338, 37.594 112.896 C 35.997 114.661, 36.111 114.827, 39.981 116.376 C 46.604 119.026, 66.522 120.301, 80.995 119.002 C 98.882 117.397, 108 115.145, 114.234 110.795 L 116.968 108.886 125.734 112.377 C 134.507 115.870, 140 117.576, 140 116.808 C 140 116.583, 136.812 113.776, 132.915 110.570 L 125.830 104.741 118.431 106.484 C 107.050 109.164, 104.843 107.139, 109.483 98.275 L 112.308 92.881 107.441 87.940 C 104.765 85.223, 102.055 83, 101.420 83 C 100.784 83, 98.518 87.043, 96.382 91.985 C 94.247 96.926, 92.228 100.976, 91.897 100.985 C 90.969 101.008, 81.362 80.065, 80.030 75.116 C 77.281 64.900, 81.391 63.348, 91.311 70.857 C 94.840 73.528, 98.252 76.038, 98.893 76.434 C 99.662 76.909, 101.409 74.229, 104.029 68.559 C 106.213 63.832, 108 59.731, 108 59.446 C 108 58.243, 98.774 55.119, 92.210 54.101 C 82.690 52.623, 74.352 52.781, 69.500 54.529 M 104.865 54.539 C 109.071 56.365, 109.647 56.361, 110.362 54.500 C 110.824 53.294, 110.012 53.008, 106.219 53.039 L 101.500 53.078 104.865 54.539 M 106.248 70.250 L 102.104 79.500 107.802 84.704 C 110.936 87.566, 113.782 89.929, 114.127 89.954 C 114.472 89.979, 115.709 87.779, 116.877 85.065 C 119.190 79.687, 119.652 72.137, 117.878 68.684 C 116.609 66.216, 111.947 61, 111.009 61 C 110.670 61, 108.527 65.162, 106.248 70.250 M 82.303 72.481 C 83.074 77.229, 91.100 95.325, 91.986 94.313 C 92.379 93.866, 94.082 90.488, 95.771 86.806 L 98.843 80.112 94.671 76.751 C 83.767 67.964, 81.440 67.161, 82.303 72.481 M 111.919 99.447 C 110.622 101.892, 109.873 104.206, 110.255 104.589 C 110.638 104.971, 113.688 104.703, 117.033 103.993 L 123.115 102.702 119.355 98.851 C 117.286 96.733, 115.298 95, 114.936 95 C 114.574 95, 113.216 97.001, 111.919 99.447 M 149.564 123.293 C 149.940 124.279, 150.499 124.834, 150.807 124.526 C 151.115 124.219, 150.808 123.412, 150.124 122.733 C 149.136 121.753, 149.022 121.868, 149.564 123.293 M 151.127 143.750 C 148.413 167.494, 148.135 169, 146.451 169 C 144.224 169, 143.744 165.211, 144.129 150.657 L 144.500 136.649 131.500 132.909 C 111.411 127.130, 104.798 126.422, 83.568 127.775 C 66.186 128.883, 58 130.201, 58 131.892 C 58 133.247, 61.191 135.583, 69 139.944 C 73.125 142.247, 77.386 145, 78.468 146.062 C 80.327 147.885, 80.341 148.087, 78.722 149.707 C 76.600 151.829, 65.197 153.145, 55.898 152.341 L 49.295 151.771 48.148 156.328 C 46.426 163.165, 46.751 168.082, 49.250 173.030 C 53.710 181.858, 63.457 185.570, 79.959 184.722 C 91.979 184.105, 102.483 181.257, 106.736 177.462 C 109.387 175.097, 109.424 174.936, 107.640 173.557 C 105.276 171.729, 98.748 170.348, 88.204 169.444 L 79.909 168.734 83.204 166.746 C 85.017 165.652, 90.378 161.030, 95.118 156.473 C 104.772 147.192, 108.704 144.740, 113.215 145.191 C 118.536 145.723, 120.370 149.486, 120.812 160.777 C 121.022 166.125, 120.723 173.861, 120.148 177.968 C 119.574 182.076, 119.328 185.661, 119.602 185.935 C 119.876 186.209, 124.553 186.612, 129.995 186.831 C 144.442 187.411, 152.272 184.888, 159.996 177.164 C 166.882 170.278, 169.350 163.980, 169.267 153.506 C 169.167 140.793, 161.666 124, 156.088 124 L 153.384 124 151.127 143.750 M 148.070 130.750 C 148.032 132.537, 148.450 134, 149 134 C 150.187 134, 150.187 132.263, 149 129.500 C 148.280 127.824, 148.129 128.026, 148.070 130.750 M 147 144.667 C 147 148.883, 147.166 152.146, 147.370 151.917 C 148.395 150.762, 149.032 137, 148.061 137 C 147.405 137, 147 139.930, 147 144.667" stroke="none" fill="black" fill-rule="evenodd"/>
</svg>