<svg xmlns="http://www.w3.org/2000/svg" width="200" height="200" viewBox="0 0 200 200" version="1.1">
	<path d="M 82.827 9.498 C 71.652 11.054, 62.221 13.327, 57.355 15.636 C 54.923 16.790, 52.588 17.070, 49.177 16.618 C 44.235 15.962, 40.032 17.625, 41.328 19.722 C 42.493 21.607, 52.599 25.806, 67.090 30.425 C 82.279 35.266, 84.400 35.700, 83.779 33.838 C 83.566 33.198, 78.916 31.184, 73.446 29.362 C 67.976 27.540, 65.075 26.254, 67 26.505 C 68.925 26.755, 74.775 27.433, 80 28.011 C 87.992 28.895, 90.965 29.773, 98.729 33.543 C 108.134 38.110, 114.999 43.695, 115.001 46.783 C 115.002 48.324, 113.848 48.465, 103.751 48.164 C 97.068 47.964, 92.346 47.399, 92.119 46.772 C 91.910 46.192, 90.195 44.007, 88.307 41.918 C 81.296 34.158, 67.118 32.672, 45.768 37.461 C 39.315 38.908, 32.366 40.670, 30.326 41.377 C 26.086 42.845, 23.965 45.365, 25.596 46.996 C 27.403 48.803, 42.670 49.984, 64.500 50.006 C 86.715 50.029, 90 50.371, 90 52.662 C 90 53.788, 89.205 53.922, 86.250 53.295 C 84.188 52.858, 77.325 52.501, 71 52.503 C 62.186 52.505, 58.332 52.945, 54.500 54.386 C 39.768 59.928, 35.411 69.963, 41.860 83.500 C 43.432 86.800, 45.682 90.357, 46.859 91.405 C 50.957 95.051, 50.114 96.247, 33.175 110.809 C 24.135 118.581, 25.038 121.832, 36.490 122.751 C 42.786 123.257, 43 123.364, 43 126.004 C 43 128.117, 43.961 129.358, 47.250 131.492 C 52.021 134.588, 57 138.992, 57 140.116 C 57 140.524, 54.412 141.605, 51.250 142.518 C 36.207 146.861, 33.534 155.988, 41.901 174.442 C 44.815 180.868, 45.132 181.203, 47.741 180.615 C 62.905 177.201, 68.646 177.689, 96.349 184.747 C 112.037 188.744, 115.925 189.380, 125 189.436 C 133.920 189.490, 136.102 189.176, 139.500 187.347 C 146.052 183.821, 150.102 178.106, 153.056 168.220 C 154.317 164, 154.286 163.890, 150.917 160.337 C 149.038 158.356, 144.415 155.285, 140.644 153.513 L 133.788 150.292 142.644 149.609 C 153.776 148.750, 163.126 147.134, 164.750 145.790 C 166.587 144.270, 166.275 142.217, 164.024 141.013 C 162.937 140.431, 157.536 139.215, 152.021 138.309 C 142.657 136.772, 142.097 136.550, 143.547 134.948 C 144.984 133.361, 144.685 133.061, 139.550 130.932 C 134.288 128.751, 134 128.447, 133.991 125.066 C 133.987 123.105, 133.708 119.217, 133.373 116.427 L 132.763 111.354 138.632 109.211 C 147.859 105.842, 159.503 97.521, 170.807 86.216 C 182.149 74.874, 183.208 71.781, 174.120 76.532 C 164.428 81.600, 161.742 78.423, 158.035 57.500 C 155.152 41.229, 153.369 34.675, 150.022 28.043 C 146.791 21.642, 139.926 14.837, 134.317 12.476 C 125.452 8.743, 99.165 7.223, 82.827 9.498 M 87 11.695 C 85.075 11.901, 79.900 12.728, 75.500 13.533 C 59.793 16.406, 56.851 18.025, 64.739 19.455 C 66.808 19.830, 73.067 21.456, 78.649 23.068 C 84.231 24.681, 89.946 26, 91.350 26 C 92.753 26, 94.260 26.603, 94.700 27.341 C 95.140 28.078, 98.751 30.378, 102.724 32.451 C 111.943 37.261, 118.247 43.828, 117.810 48.166 L 117.500 51.247 105.250 51.072 C 93.533 50.904, 93 50.985, 93 52.935 C 93 54.340, 94.149 55.453, 96.696 56.518 C 112.549 63.141, 114.412 76.252, 101.189 88.140 L 96.279 92.554 98.390 95.567 C 104.124 103.752, 103.430 103.265, 107.152 101.710 C 114.219 98.757, 121.617 86.768, 124.162 74.145 C 125.318 68.413, 125.185 65.999, 122.808 49.512 C 120.071 30.536, 118.837 26.977, 112.633 20.176 C 110.823 18.193, 110.732 17.727, 112.006 16.995 C 112.828 16.523, 114.400 15.440, 115.500 14.587 C 117.227 13.250, 117.295 12.901, 116 12.034 C 114.595 11.094, 94.777 10.862, 87 11.695 M 120.585 12.863 C 119.749 14.215, 122.566 29.845, 124.872 36.654 C 127.118 43.284, 129.056 57.626, 128.365 62.500 C 127.883 65.901, 132.366 106.699, 133.327 107.661 C 134.349 108.682, 143.670 104.373, 151.045 99.470 C 154.825 96.957, 161.199 91.792, 165.209 87.992 L 172.500 81.084 168.321 81.042 C 161.662 80.975, 159.062 77.205, 156.518 63.928 C 152.412 42.499, 150.831 36.252, 148.078 30.587 C 143.285 20.722, 137.828 15.972, 128.501 13.542 C 121.609 11.747, 121.291 11.720, 120.585 12.863 M 115.564 17.896 C 115.260 18.389, 115.946 19.851, 117.089 21.146 C 118.711 22.984, 119.039 23.098, 118.584 21.668 C 118.263 20.661, 118 19.198, 118 18.418 C 118 16.841, 116.425 16.503, 115.564 17.896 M 49 20.822 C 50.925 21.880, 53.625 23.084, 55 23.497 L 57.500 24.248 54.831 22.115 C 53.363 20.942, 50.663 19.739, 48.831 19.440 L 45.500 18.898 49 20.822 M 60.500 22 C 61.600 22.473, 63.400 22.846, 64.500 22.830 C 66.108 22.806, 66.010 22.644, 64 22 C 60.581 20.905, 57.952 20.905, 60.500 22 M 67.813 23.683 C 68.534 23.972, 69.397 23.936, 69.729 23.604 C 70.061 23.272, 69.471 23.036, 68.417 23.079 C 67.252 23.127, 67.015 23.364, 67.813 23.683 M 56.782 38.019 C 48.494 39.325, 30.792 43.808, 29.730 44.870 C 28.485 46.115, 37.960 46.836, 65.750 47.608 C 83.233 48.094, 89 47.964, 89 47.082 C 89 45.238, 84.324 41.033, 80.492 39.432 C 76.030 37.568, 64.145 36.860, 56.782 38.019 M 57.500 56.341 C 46.453 59.994, 41.995 64.594, 42.010 72.327 C 42.021 78.356, 45.504 86.713, 49.428 90.124 C 54.604 94.625, 53.154 97, 35.954 112.205 C 28.488 118.805, 28.817 119.959, 38.171 119.985 C 43.762 120, 43.851 119.955, 44.543 116.750 C 47.517 102.969, 55.364 100.996, 66.548 111.218 L 72.180 116.365 86.840 115.126 C 94.903 114.444, 102.949 113.639, 104.720 113.337 L 107.941 112.789 105.352 109.394 C 103.845 107.419, 101.872 105.996, 100.631 105.990 C 97.561 105.976, 88.843 101.673, 86.500 99.015 C 84.558 96.811, 84.554 96.713, 86.369 95.623 C 92.512 91.931, 92.510 92.113, 86.437 84.500 C 83.366 80.650, 80.489 77.126, 80.045 76.669 C 79.601 76.212, 77.497 76.719, 75.369 77.797 C 73.241 78.874, 69.925 80.069, 68 80.453 C 66.075 80.836, 63.650 81.391, 62.612 81.686 C 60.893 82.174, 60.769 81.759, 61.222 77.037 C 62.214 66.719, 67.940 63.464, 75.521 68.908 L 79.789 71.973 83.017 68.736 C 84.792 66.956, 87.065 63.705, 88.069 61.510 C 89.778 57.775, 89.786 57.459, 88.197 56.553 C 85.436 54.979, 62.107 54.818, 57.500 56.341 M 91.082 61.649 C 90.355 63.660, 87.979 67.237, 85.801 69.600 C 81.328 74.453, 81.162 73.720, 88.895 83.259 C 93.190 88.557, 94.631 89.733, 95.958 89.022 C 99.379 87.192, 105.902 79.058, 107.066 75.173 C 108.123 71.646, 108.033 70.742, 106.338 67.839 C 104.370 64.469, 98.160 59.629, 94.452 58.575 C 92.787 58.102, 92.157 58.677, 91.082 61.649 M 66.074 70.411 C 65.430 71.187, 64.645 73.416, 64.328 75.364 L 63.753 78.907 67.627 77.843 C 69.757 77.258, 72.829 76.095, 74.454 75.258 L 77.408 73.737 74.454 71.374 C 71.116 68.703, 67.807 68.322, 66.074 70.411 M 125.064 81.500 C 121.515 92.117, 114.719 101.631, 108.989 104.004 C 107.345 104.685, 106.012 105.526, 106.027 105.871 C 106.042 106.217, 107.279 107.944, 108.777 109.709 L 111.500 112.918 119.995 111.413 C 124.668 110.586, 128.831 109.569, 129.248 109.152 C 129.964 108.436, 128.767 93.213, 127.147 82.454 L 126.401 77.500 125.064 81.500 M 91.172 95.828 C 88.572 97.836, 88.974 98.467, 94.700 101.375 C 100.702 104.422, 101.041 103, 95.799 96.765 C 93.546 94.083, 93.454 94.065, 91.172 95.828 M 51.724 108.250 C 49.998 109.551, 47 115.929, 47 118.299 C 47 119.446, 48.688 119.458, 57.626 118.373 C 63.470 117.663, 68.431 116.902, 68.651 116.682 C 69.301 116.033, 60.425 109.112, 57.531 108.012 C 54.138 106.722, 53.729 106.739, 51.724 108.250 M 122 113.848 C 117.875 114.636, 114.324 115.431, 114.109 115.615 C 113.894 115.799, 115.319 117.903, 117.276 120.291 C 119.630 123.165, 122.169 125.034, 124.783 125.817 C 130.888 127.646, 131.007 127.558, 130.930 121.250 C 130.819 112.187, 130.797 112.169, 122 113.848 M 90 117.558 C 83.125 118.269, 76.946 118.885, 76.269 118.926 C 75.592 118.967, 80.280 125.525, 86.687 133.500 L 98.337 148 114.668 148 C 130.934 148, 131 147.991, 131.014 145.750 C 131.021 144.512, 131.283 142.546, 131.596 141.381 C 132.151 139.315, 131.819 139.248, 118.332 138.723 C 103.263 138.137, 98.397 137.105, 94.374 133.645 C 92.388 131.937, 91.915 130.843, 92.443 129.180 C 93.660 125.345, 98.568 123.619, 108.169 123.647 L 116.839 123.674 113.669 119.855 C 110.009 115.445, 110.224 115.466, 90 117.558 M 58.250 120.940 C 46.141 122.405, 46 122.452, 46 124.995 C 46 126.739, 46.887 128.097, 48.750 129.207 C 50.263 130.108, 53.437 132.511, 55.803 134.546 C 62.075 139.940, 61.408 141.834, 52.090 145.086 C 39.177 149.592, 37.253 154.941, 43.095 170.091 L 46.191 178.117 49.345 177.309 C 51.080 176.864, 57.900 176.539, 64.500 176.587 C 75.495 176.667, 78.208 177.107, 96.894 181.837 C 130.065 190.234, 140.477 188.827, 147.476 175 C 151.475 167.099, 151.524 164.899, 147.780 161.276 C 144.164 157.778, 135.543 153.546, 133.988 154.507 C 133.445 154.843, 132.997 155.879, 132.994 156.809 C 132.972 163.501, 127.588 172, 123.371 172 C 119.481 172, 113.936 168.604, 108.101 162.647 L 102.702 157.135 98.601 158.733 C 96.345 159.611, 90.054 162.281, 84.621 164.665 C 79.188 167.049, 73.900 169, 72.871 169 C 69.101 169, 71.137 165.113, 79.640 156.081 C 87.514 147.716, 88.533 146.958, 91.140 147.531 C 92.713 147.876, 94 147.876, 94 147.530 C 94 146.599, 74.588 122.752, 72.388 120.979 C 70.703 119.623, 69.179 119.618, 58.250 120.940 M 99 127.238 C 90.724 130.222, 97.658 134.538, 113.090 136.009 C 118.808 136.553, 124.917 136.731, 126.664 136.403 L 129.841 135.807 124.371 131.351 C 119.069 127.033, 118.647 126.881, 110.700 126.436 C 105.483 126.143, 101.227 126.435, 99 127.238 M 128 130.888 C 129.375 131.995, 130.659 132.445, 130.854 131.888 C 131.303 130.605, 131.052 130.400, 128 129.562 L 125.500 128.875 128 130.888 M 134 133.433 C 134 134.529, 134.961 135, 137.200 135 C 140.617 135, 140.119 133.714, 136.250 132.545 C 134.585 132.042, 134 132.272, 134 133.433 M 134 143 L 134 147 138.928 147 C 144.060 147, 158.043 145.331, 161.484 144.307 C 163.394 143.739, 163.387 143.687, 161.273 142.905 C 158.847 142.008, 139.475 139, 136.122 139 C 134.313 139, 134 139.590, 134 143 M 82.250 157.307 C 78.263 161.421, 75 165.019, 75 165.303 C 75 165.869, 98.034 156.141, 99.254 155.060 C 100.753 153.732, 97.411 151.053, 93.500 150.447 C 89.570 149.838, 89.373 149.958, 82.250 157.307 M 102.099 152.527 C 103.456 153.884, 104.232 153.892, 109.063 152.593 L 114.500 151.132 107.536 151.066 C 101.290 151.007, 100.729 151.158, 102.099 152.527 M 113.120 154.543 C 109.610 155.305, 106.460 156.215, 106.120 156.567 C 105.287 157.426, 115.794 166.660, 119.231 168.090 C 125.132 170.546, 128.535 167.093, 130.411 156.750 L 131.091 153 125.295 153.079 C 122.108 153.123, 116.629 153.782, 113.120 154.543" stroke="none" fill="black" fill-rule="evenodd"/>
</svg>