<svg xmlns="http://www.w3.org/2000/svg" width="200" height="200" viewBox="0 0 200 200" version="1.1">
	<path d="M 60.480 7.841 C 62.530 16.219, 72.356 27.041, 79.296 28.565 C 82.085 29.178, 83.881 31.453, 82.592 32.741 C 82.232 33.102, 78.923 33.505, 75.238 33.638 C 65.706 33.983, 65.858 36, 75.417 36 L 83 36 83 40.361 L 83 44.721 77.750 45.352 C 69.317 46.365, 51.572 46.095, 48.149 44.902 C 44 43.456, 44.177 41.860, 48.937 37.786 C 51.396 35.681, 52.593 33.959, 52.125 33.202 C 51.212 31.725, 43.449 38.009, 42.503 40.990 C 40.517 47.249, 48.687 49.586, 69.184 48.621 C 78.027 48.205, 83.089 48.335, 83.493 48.989 C 83.837 49.545, 83.658 50, 83.097 50 C 82.535 50, 79.605 50.924, 76.586 52.054 C 69.434 54.730, 61.645 61.745, 59.453 67.484 C 57.041 73.799, 57.794 83.223, 61.241 89.867 L 63.904 95 59.202 95.035 C 46.915 95.126, 30.284 100.006, 25.601 104.895 C 18.090 112.735, 29.034 117.925, 53.191 117.980 C 61.523 117.999, 64.953 119.175, 62 121 C 59.997 122.238, 61.992 124.235, 64.713 123.715 C 66.401 123.392, 68.784 124.290, 72.189 126.532 C 74.937 128.342, 79.840 130.651, 83.084 131.662 C 91.035 134.139, 91.204 136.507, 83.374 135.699 C 73.819 134.713, 49.041 138.040, 46.922 140.594 C 46.292 141.353, 46.023 142.618, 46.325 143.405 C 47.027 145.234, 58.691 147.782, 70.807 148.754 L 80.115 149.500 75.112 153.229 C 65.564 160.345, 61.657 172.018, 66.596 178.675 C 72.367 186.452, 85.693 190.492, 103 189.711 C 133.057 188.353, 144.152 174.725, 128.036 158.956 L 122.253 153.298 125.393 150.793 C 128.263 148.503, 129.601 148.244, 141.016 147.775 C 154.160 147.235, 159 145.911, 159 142.854 C 159 139.828, 151.792 135.989, 135.798 130.495 C 124.094 126.474, 120.477 124.817, 119.880 123.204 C 118.258 118.821, 114.387 117.524, 101.795 117.145 C 92.356 116.860, 90 116.501, 90 115.348 C 90 114.119, 92.464 114.025, 106.750 114.704 C 156.263 117.058, 171.217 115.026, 183.045 104.340 C 185.220 102.375, 187 100.449, 187 100.061 C 187 99.672, 183.738 100.197, 179.750 101.228 C 175.762 102.258, 168.675 103.340, 164 103.632 C 156.443 104.104, 155.001 103.904, 151.004 101.831 C 145.258 98.852, 142.901 94.612, 139.544 81.215 C 134.730 62.002, 129.146 55.112, 114.334 50.111 L 108.500 48.141 111.500 46.992 C 113.559 46.203, 117.322 46.092, 123.500 46.638 C 144.174 48.465, 162.597 45.145, 161.812 39.734 C 161.276 36.038, 153.701 31.903, 137.311 26.357 C 122.451 21.329, 121.518 20.864, 121.806 18.621 C 122.179 15.713, 118.377 12.419, 113.119 11.095 C 107.165 9.595, 93.939 8.976, 87 9.871 C 81.386 10.595, 79.091 10.333, 70.164 7.946 L 59.829 5.183 60.480 7.841 M 64 9.918 C 64 11.633, 70.045 19.893, 72.631 21.713 C 76.744 24.607, 82.101 27.233, 82.690 26.644 C 82.967 26.367, 82.812 23.324, 82.347 19.881 L 81.500 13.622 72.750 11.425 C 67.938 10.216, 64 9.538, 64 9.918 M 89 12.255 C 89.544 12.834, 116.379 20, 118.005 20 C 118.552 20, 119 19.149, 119 18.109 C 119 15.055, 112.176 13.017, 99.658 12.332 C 93.521 11.996, 88.725 11.962, 89 12.255 M 85.202 21.250 L 85.500 27.500 93.344 27.794 C 101.342 28.093, 109.722 26.389, 113.367 23.722 C 115.035 22.501, 113.741 21.962, 101.274 18.678 C 93.596 16.655, 86.772 15, 86.109 15 C 85.266 15, 84.994 16.877, 85.202 21.250 M 112.097 27.241 C 106.660 29.855, 104.211 30.390, 95.847 30.793 C 90.168 31.067, 86 31.697, 86 32.282 C 86 32.942, 89.230 33.066, 95.250 32.638 C 114.310 31.282, 135.512 30.871, 136.896 31.830 C 139.489 33.629, 137.068 36.090, 128.952 39.905 L 120.885 43.697 128.286 44.322 C 139.489 45.269, 159 42.573, 159 40.077 C 159 38.643, 155.514 36.149, 150.500 33.997 C 143.361 30.932, 122.090 23.985, 120.142 24.082 C 119.239 24.126, 115.619 25.548, 112.097 27.241 M 116 34.006 C 110.225 34.393, 101.112 35.042, 95.750 35.448 L 86 36.187 86 40.561 L 86 44.935 99.250 44.326 C 112.875 43.699, 115.115 43.155, 128.301 37.270 C 132.283 35.493, 133.694 34.422, 132.801 33.856 C 131.396 32.965, 131.551 32.964, 116 34.006 M 88 48.085 C 86.152 48.741, 86.847 48.860, 90.667 48.543 L 95.833 48.114 101.469 56.497 C 107.374 65.281, 109.312 69.877, 108.003 71.996 C 107.219 73.263, 103.467 73.047, 99.500 71.506 C 98.400 71.079, 102.407 75.705, 108.405 81.786 L 119.310 92.844 115.405 94.486 C 107.498 97.810, 100.297 99.890, 98.406 99.396 C 97.129 99.062, 95.206 100.022, 92.798 102.194 C 89.678 105.009, 89.212 105.966, 89.664 108.637 L 90.194 111.775 120.347 112.504 C 152.484 113.281, 160.324 112.722, 170.458 108.930 C 177.765 106.196, 178.700 104.592, 172.357 105.673 C 163.615 107.162, 153.915 106.534, 149.334 104.183 C 142.840 100.850, 140.682 96.982, 136.961 82 C 131.787 61.169, 125.790 55.320, 104.750 50.581 C 103.237 50.241, 102 49.295, 102 48.481 C 102 47.333, 100.706 47.022, 96.250 47.100 C 93.088 47.155, 89.375 47.598, 88 48.085 M 88.748 51.716 C 86.530 52.052, 86.083 52.557, 86.445 54.317 C 86.693 55.517, 87.185 63.925, 87.540 73 C 87.894 82.075, 88.480 92.141, 88.842 95.368 L 89.500 101.236 96.715 95.657 C 100.933 92.395, 104.196 90.508, 104.570 91.113 C 104.922 91.682, 104.180 93.244, 102.922 94.583 L 100.634 97.018 106.336 95.056 C 109.472 93.978, 112.528 92.792, 113.127 92.421 C 113.771 92.023, 109.408 86.926, 102.466 79.966 C 94.110 71.588, 90.894 67.718, 91.335 66.569 C 92.006 64.822, 91.094 64.581, 102.500 69.513 C 104.425 70.346, 106 70.773, 106 70.464 C 106 67.491, 94.896 51.014, 93 51.174 C 92.175 51.243, 90.261 51.487, 88.748 51.716 M 77.591 54.573 C 73.447 56.091, 67.650 60.113, 64.758 63.475 C 63.800 64.589, 62.305 67.862, 61.437 70.750 C 58.343 81.037, 63.823 94.232, 71.719 95.509 C 73.799 95.845, 77.750 96.621, 80.500 97.232 L 85.500 98.343 81.305 100.185 C 77.334 101.929, 76.879 101.938, 72.805 100.357 C 62.888 96.507, 43.546 98.161, 32 103.847 C 27.640 105.993, 26.500 107.047, 26.500 108.927 C 26.500 112.429, 32.196 114.048, 46.903 114.730 C 60.087 115.340, 60.122 115.325, 56.193 110.750 C 54.290 108.534, 54.993 108.551, 65.095 110.964 L 73.316 112.927 79.658 108.271 C 83.856 105.188, 86.005 102.919, 86.015 101.557 C 86.093 90.524, 83.421 53.013, 82.560 53.070 C 81.977 53.109, 79.741 53.785, 77.591 54.573 M 82.500 109.531 L 79.500 111.990 83.250 111.995 C 86.585 111.999, 87 111.723, 87 109.500 C 87 106.408, 86.304 106.413, 82.500 109.531 M 62.500 114 C 62.840 114.550, 64.104 114.968, 65.309 114.930 C 67.421 114.862, 67.428 114.829, 65.500 114 C 62.748 112.817, 61.769 112.817, 62.500 114 M 84.813 115.683 C 85.534 115.972, 86.397 115.936, 86.729 115.604 C 87.061 115.272, 86.471 115.036, 85.417 115.079 C 84.252 115.127, 84.015 115.364, 84.813 115.683 M 71 118.027 L 68.500 120.037 74 119.383 C 81.471 118.495, 82.130 117.767, 76.500 116.625 C 74.328 116.184, 72.810 116.571, 71 118.027 M 79.750 121.336 C 75.487 121.832, 72 122.562, 72 122.957 C 72 123.968, 82.346 128.919, 85.978 129.646 L 88.996 130.249 88.357 125.375 C 88.006 122.694, 87.669 120.485, 87.609 120.467 C 87.549 120.449, 84.013 120.840, 79.750 121.336 M 91.200 125.320 L 91.500 130.500 97.719 130.797 C 103.776 131.086, 109.995 129.968, 112.971 128.055 C 113.780 127.534, 114.230 126.906, 113.971 126.659 C 113.712 126.411, 108.415 124.843, 102.200 123.174 L 90.900 120.140 91.200 125.320 M 109 122.073 C 116.466 124.278, 117 124.343, 117 123.047 C 117 121.778, 110.378 119.993, 106 120.082 C 102.955 120.144, 103.346 120.403, 109 122.073 M 112.610 130.815 C 108.993 132.688, 105.675 133.465, 99.860 133.802 C 91.372 134.293, 88.955 136.001, 96.750 135.999 C 102.188 135.997, 127.744 133.214, 130 132.378 C 131.438 131.845, 120.647 127.884, 118.500 128.157 C 117.950 128.227, 115.300 129.423, 112.610 130.815 M 124.500 136.021 C 121.750 136.435, 113.537 137.340, 106.250 138.032 L 93 139.290 93 143.287 L 93 147.283 103.750 146.650 C 128.914 145.168, 128.265 145.315, 133.626 139.872 L 138.425 135 133.962 135.134 C 131.508 135.207, 127.250 135.606, 124.500 136.021 M 137.061 140.245 L 132.621 145.241 143.285 144.846 C 149.150 144.629, 154.433 143.967, 155.026 143.374 C 156.338 142.062, 153.247 139.851, 146.282 137.123 L 141.500 135.249 137.061 140.245 M 70.500 138.601 C 68.850 138.833, 63.870 139.503, 59.434 140.089 C 48.696 141.507, 47.503 142.448, 54.675 143.842 C 60.788 145.030, 80.884 146.977, 87.187 146.991 L 90.874 147 90.296 143.250 C 89.977 141.188, 89.649 139.406, 89.566 139.291 C 89.208 138.795, 73.227 138.216, 70.500 138.601 M 119 148.055 C 117.075 148.461, 111.176 149.102, 105.891 149.479 L 96.282 150.166 99.317 155.769 C 104.031 164.473, 104.405 180, 99.901 180 C 97.880 180, 95.676 174.319, 93.457 163.388 C 92.149 156.948, 90.626 151.226, 90.072 150.672 C 88.613 149.213, 82.175 151.366, 77.181 154.984 C 71.750 158.918, 67.877 164.909, 67.267 170.320 C 66.836 174.144, 67.164 175.117, 69.949 178.289 C 71.840 180.443, 75.418 182.820, 78.810 184.176 C 83.840 186.186, 86.241 186.451, 99.500 186.457 C 112.537 186.464, 115.285 186.174, 120.500 184.245 C 127.045 181.824, 133 176.426, 133 172.916 C 133 168.940, 129.724 163.897, 123.787 158.733 L 117.851 153.570 121.077 150.938 C 124.754 147.936, 124.069 146.985, 119 148.055 M 95.044 155.876 C 95.020 157.183, 95.963 162.353, 97.139 167.365 C 98.708 174.048, 99.478 175.941, 100.024 174.465 C 101.071 171.634, 99.307 161.485, 97.014 157.144 C 95.324 153.946, 95.083 153.791, 95.044 155.876" stroke="none" fill="black" fill-rule="evenodd"/>
</svg>