<svg xmlns="http://www.w3.org/2000/svg" width="200" height="200" viewBox="0 0 200 200" version="1.1">
	<path d="M 119.500 11.542 C 110.150 12.227, 92.713 13.132, 80.750 13.552 C 63.597 14.154, 59 14.599, 59 15.658 C 59 16.396, 59.536 17, 60.191 17 C 60.846 17, 60.548 17.610, 59.529 18.355 C 55.252 21.483, 60.177 24.756, 79.500 31.626 L 91.500 35.893 77.838 35.947 C 58.071 36.024, 41 39.770, 41 44.031 C 41 46.581, 46.070 48.029, 59.743 49.382 L 71.206 50.516 67.353 52.689 C 57.502 58.244, 51 66.443, 51 73.312 C 51 83.063, 64.696 91.698, 83.500 93.802 L 90.500 94.586 80 95.353 C 63.241 96.578, 44.925 98.900, 39.381 100.501 C 26.777 104.142, 30.872 108.840, 51.088 113.936 C 59.788 116.129, 61.665 116.917, 60.934 118.073 C 58.563 121.820, 60.973 129.649, 67.794 140.358 L 70.888 145.215 64.860 148.228 C 42.891 159.206, 45.905 173.624, 72.027 182.509 C 82.365 186.026, 95.114 187.450, 101.403 185.793 C 111.002 183.262, 112.280 177.008, 104.910 168.635 L 100.949 164.135 96.391 166.151 C 93.885 167.260, 91.553 167.887, 91.211 167.544 C 89.055 165.388, 101.203 152.030, 108.446 148.593 C 116.281 144.875, 119.152 148.655, 117.189 160.103 C 116.261 165.516, 112.504 178.916, 110.317 184.615 C 109.670 186.302, 118.067 188.741, 127.439 189.591 C 160.540 192.590, 182.600 162.701, 168.715 133.665 C 166.831 129.724, 164.409 125.431, 163.333 124.124 L 161.377 121.747 165.089 114.124 C 171.852 100.231, 175.328 82.141, 175.298 61 C 175.261 35.264, 168.588 18.422, 155.857 11.927 L 152.077 9.999 151.082 13.749 C 150.535 15.812, 149.145 21.760, 147.993 26.967 C 146.841 32.175, 145.789 36.544, 145.656 36.678 C 145.522 36.811, 144.370 31.426, 143.095 24.710 C 140.172 9.312, 140.390 9.973, 138.281 10.148 C 137.302 10.230, 128.850 10.857, 119.500 11.542 M 109.544 14.811 L 86.588 16.320 92.635 17.975 C 95.961 18.885, 100.216 20.604, 102.091 21.795 C 105.854 24.184, 106.836 24.674, 118.702 30.085 C 128.285 34.455, 132.801 37.677, 135.307 41.932 C 137.846 46.245, 135.745 45.745, 130.878 40.878 C 127.622 37.622, 112.279 29, 109.741 29 C 109.486 29, 109.493 30.129, 109.757 31.508 C 110.020 32.887, 109.663 35.399, 108.963 37.090 C 107.818 39.854, 107.364 40.103, 104.457 39.558 C 101.333 38.972, 101.209 39.078, 100.752 42.726 C 100.492 44.802, 100.508 46.902, 100.788 47.394 C 101.072 47.895, 106.078 48.015, 112.148 47.668 C 121.331 47.142, 123 47.274, 123 48.523 C 123 49.625, 121.668 50.025, 117.750 50.099 C 114.862 50.153, 110.060 50.491, 107.078 50.849 L 101.656 51.500 107.154 56.500 C 110.179 59.250, 115.442 63.075, 118.852 65 C 129.238 70.864, 128.725 70.257, 126.768 74.361 C 124.474 79.170, 118.868 85.218, 114.544 87.546 C 108.947 90.560, 110.664 91.541, 120.828 91.135 C 128.439 90.831, 130.076 91.034, 130.576 92.339 C 131.326 94.291, 129.405 97.102, 124.848 100.724 C 119.854 104.692, 120.847 106.003, 128.833 105.985 C 132.500 105.976, 135.980 105.639, 136.568 105.235 C 137.155 104.831, 138.172 97.525, 138.827 89 C 139.483 80.475, 140.942 67.202, 142.070 59.505 C 144.295 44.316, 144.262 43.784, 139.795 22.750 C 137.799 13.350, 137.631 13.005, 135.113 13.151 C 133.676 13.234, 122.170 13.981, 109.544 14.811 M 153.053 17.741 C 152.478 19.809, 150.863 27.038, 149.464 33.808 C 147.227 44.631, 147.039 47.043, 147.903 53.808 C 151.205 79.645, 149.237 98.445, 142.663 103.872 C 141.263 105.028, 141 107.370, 141 118.661 L 141 132.077 145.468 134.788 C 150.788 138.016, 151.562 140.502, 146.931 139.485 L 143.863 138.811 146.045 143.089 C 151.262 153.314, 155.565 167.643, 154.463 171.117 C 153.527 174.066, 150.196 173.365, 147.969 169.750 C 145.291 165.403, 142.268 155.478, 140.455 145.082 C 139.639 140.401, 138.585 136.185, 138.114 135.714 C 137.643 135.243, 130.562 134.709, 122.379 134.529 C 106.906 134.188, 102.157 133.224, 98.174 129.616 C 93.619 125.489, 97.057 119.351, 109.442 109.500 C 113.591 106.200, 116.989 103.265, 116.993 102.978 C 116.997 102.691, 115.597 100.754, 113.883 98.674 C 111.335 95.583, 110.285 94.990, 108.133 95.428 C 106.685 95.722, 94.700 96.893, 81.500 98.031 C 47.710 100.943, 36 102.760, 36 105.090 C 36 106.581, 41.654 108.691, 53.230 111.520 C 58.879 112.900, 64.850 114.389, 66.500 114.829 L 69.500 115.628 66.250 117.340 C 60.848 120.185, 61.932 125.803, 70.553 139.636 C 75.948 148.294, 76.264 150.437, 72.008 149.502 C 69.702 148.995, 67.763 149.561, 63.560 151.966 C 56.844 155.808, 53 160.204, 53 164.042 C 53 173.410, 73.553 183.181, 93.719 183.400 C 101.906 183.489, 103.181 183.258, 105.101 181.341 C 107.767 178.678, 107.161 175.320, 103.229 170.955 L 100.500 167.926 95.726 169.565 C 90.571 171.335, 88 170.506, 88 167.073 C 88 160.317, 105.949 144, 113.381 144 C 121.650 144, 122.627 154.075, 116.375 174.879 C 114.990 179.487, 114.227 183.601, 114.679 184.022 C 116.066 185.313, 125.785 187, 131.839 187 C 149.279 187, 164.191 176.899, 168.619 162.085 C 172.030 150.675, 168.866 135.707, 160.952 125.809 C 159.328 123.778, 158 121.882, 158 121.593 C 158 121.305, 159.300 119.020, 160.889 116.514 C 164.310 111.119, 168.255 99.001, 170.658 86.500 C 173.267 72.926, 173.011 48.079, 170.153 37.586 C 167.801 28.951, 164.730 23.003, 160.374 18.646 C 155.355 13.627, 154.236 13.489, 153.053 17.741 M 79.813 18.683 C 80.534 18.972, 81.397 18.936, 81.729 18.604 C 82.061 18.272, 81.471 18.036, 80.417 18.079 C 79.252 18.127, 79.015 18.364, 79.813 18.683 M 85.813 19.683 C 86.534 19.972, 87.397 19.936, 87.729 19.604 C 88.061 19.272, 87.471 19.036, 86.417 19.079 C 85.252 19.127, 85.015 19.364, 85.813 19.683 M 61.344 20.748 C 63.216 23.776, 104.420 37.980, 106.192 36.208 C 106.717 35.683, 107 33.738, 106.823 31.884 C 106.416 27.638, 105.036 26.968, 89.500 23.481 C 76.418 20.545, 60.249 18.975, 61.344 20.748 M 89.813 20.683 C 90.534 20.972, 91.397 20.936, 91.729 20.604 C 92.061 20.272, 91.471 20.036, 90.417 20.079 C 89.252 20.127, 89.015 20.364, 89.813 20.683 M 70.500 39.098 C 62.800 39.461, 55.825 40.015, 55 40.329 C 54.175 40.644, 51.588 41.391, 49.250 41.989 C 40.757 44.163, 44.799 45.468, 64.781 47.005 C 73.829 47.700, 76.743 47.588, 79.499 46.436 C 83.858 44.614, 85 44.628, 85 46.500 C 85 47.677, 86.377 48, 91.395 48 L 97.790 48 98.182 43.887 C 98.403 41.569, 98.122 39.640, 97.537 39.468 C 94.802 38.660, 83.162 38.501, 70.500 39.098 M 71.738 53.300 C 50.547 65.262, 48.097 77.929, 65.392 86.108 C 68.680 87.663, 73.872 89.454, 76.931 90.089 C 82.864 91.321, 99.937 90.848, 103.743 89.346 C 105.882 88.502, 105.628 88.047, 98.243 79.484 L 90.500 70.507 90.187 73.754 C 90.009 75.590, 89.309 77, 88.573 77 C 87.195 77, 85.494 69.751, 84.545 59.835 C 84.247 56.719, 83.747 53.504, 83.434 52.689 C 82.362 49.895, 77.302 50.159, 71.738 53.300 M 86.554 54.750 C 86.908 56.813, 88.338 60.750, 89.733 63.500 C 92.512 68.983, 107.607 87, 109.422 87 C 113.703 87, 127.583 72.361, 124.330 71.277 C 120.163 69.888, 109.357 62.374, 104.157 57.250 L 97.815 51 91.862 51 L 85.909 51 86.554 54.750 M 144.231 64.500 C 142.485 76.089, 140.775 95.139, 141.172 98.558 L 141.514 101.500 142.820 99.198 C 146.309 93.048, 147.837 75.824, 146.119 62 L 145.435 56.500 144.231 64.500 M 104 92 C 101.783 92.710, 101.931 92.812, 105.309 92.900 C 107.615 92.961, 108.874 92.605, 108.500 92 C 107.805 90.876, 107.511 90.876, 104 92 M 97.750 93.662 C 98.438 93.940, 99.563 93.940, 100.250 93.662 C 100.938 93.385, 100.375 93.158, 99 93.158 C 97.625 93.158, 97.063 93.385, 97.750 93.662 M 120.500 93.735 C 115.075 94.276, 114.438 95.235, 117.297 98.559 L 119.727 101.384 123.868 98.104 C 127.692 95.076, 128.545 92.765, 125.691 93.168 C 125.036 93.261, 122.700 93.516, 120.500 93.735 M 110.434 112.182 C 102.707 118.398, 99.011 122.964, 99.004 126.301 C 98.997 129.634, 105.357 131.235, 120.750 131.775 C 128.588 132.051, 135 132.064, 135 131.804 C 135 131.545, 132.544 129.641, 129.541 127.573 C 117.506 119.284, 112.997 111.339, 118.250 107.674 C 119.487 106.811, 119.964 106.081, 119.309 106.052 C 118.654 106.024, 114.661 108.782, 110.434 112.182 M 130.944 108.918 L 125.389 109.500 131.694 118.993 L 138 128.486 138 118.243 C 138 112.609, 137.662 108.076, 137.250 108.168 C 136.838 108.261, 134 108.598, 130.944 108.918 M 118.513 110.979 C 118.180 111.518, 118.362 112.808, 118.918 113.846 C 120.175 116.195, 130.818 126, 132.111 126 C 132.955 126, 128.470 118.315, 124.105 112.281 C 122.430 109.966, 119.553 109.296, 118.513 110.979 M 143.539 147.500 C 144.701 153.987, 148.814 166.378, 150.516 168.518 C 151.993 170.376, 152.050 170.219, 151.439 166 C 150.873 162.097, 144.711 145.404, 143.318 144 C 143.045 143.725, 143.144 145.300, 143.539 147.500" stroke="none" fill="black" fill-rule="evenodd"/>
</svg>