<svg xmlns="http://www.w3.org/2000/svg" width="200" height="200" viewBox="0 0 200 200" version="1.1">
	<path d="M 115 8.667 C 112.525 8.898, 101.050 10.155, 89.500 11.461 C 77.950 12.767, 67.041 13.597, 65.258 13.306 C 62.755 12.896, 61.447 13.314, 59.525 15.138 C 58.155 16.437, 57.027 18.321, 57.017 19.324 C 56.997 21.453, 67.666 33, 69.652 33 C 71.994 33, 71.153 31.583, 65.500 26 C 58.029 18.622, 58.202 17.557, 66.750 18.282 C 72.801 18.795, 96.208 25.623, 99.971 27.973 C 102.250 29.396, 100.944 29.938, 92.151 31.219 C 86.752 32.006, 84 32.845, 84 33.704 C 84 35.432, 85.459 35.352, 97.047 32.991 L 106.907 30.981 111.454 33.190 C 113.954 34.405, 116 35.731, 116 36.138 C 116 37.397, 108.653 37.892, 74.500 38.934 C 42.057 39.924, 31.514 41.024, 32.275 43.342 C 32.885 45.198, 39.941 48.844, 47.371 51.143 C 51.305 52.360, 58.572 53.532, 64.371 53.884 L 74.500 54.500 68.407 56.746 C 61.270 59.378, 55 64.913, 55 68.584 C 55 69.951, 57.475 77.869, 60.500 86.178 C 63.525 94.488, 66 102.820, 66 104.694 C 66 107.641, 65.528 108.299, 62.517 109.557 C 58.204 111.360, 43.558 112.960, 31.167 112.983 C 25.678 112.993, 21.971 113.393, 22.167 113.955 C 22.720 115.542, 33.140 122.923, 38.488 125.517 C 52.292 132.214, 65.354 132.497, 91.500 126.664 C 100.300 124.701, 109.445 122.786, 111.821 122.408 L 116.143 121.722 115.571 125.361 C 115.257 127.362, 114.768 130.506, 114.483 132.347 C 114.130 134.637, 113.192 136.047, 111.513 136.812 C 109.423 137.764, 107.923 137.390, 101.385 134.285 C 83.177 125.638, 73.955 130.311, 75.307 147.500 C 75.609 151.350, 76.830 157.650, 78.019 161.500 C 80.339 169.013, 87.824 184.966, 90.875 188.901 L 92.737 191.303 96.118 188.743 C 101.549 184.634, 106.956 183.804, 133.121 183.068 C 157.741 182.375, 157.743 182.374, 163.621 179.437 C 174.630 173.937, 176.391 165.213, 170.177 146.961 C 166.212 135.317, 164.445 132.195, 160.502 129.869 L 157.129 127.878 160.923 124.451 C 169.647 116.569, 173.631 99.658, 172.574 75 C 172.208 66.475, 171.896 59.050, 171.881 58.500 C 171.866 57.950, 172.608 55.475, 173.531 53 C 174.804 49.583, 175.089 46.454, 174.716 40 C 174.099 29.360, 171.222 21.501, 165.958 16.076 C 162.548 12.562, 161.413 12, 157.733 12 C 154.811 12, 152.287 12.800, 149.732 14.536 L 146 17.072 146 14.559 C 146 10.072, 142.037 8.537, 130.058 8.383 C 124.251 8.308, 117.475 8.436, 115 8.667 M 110 11.975 C 105.875 12.400, 97.325 13.328, 91 14.037 L 79.500 15.326 90 17.680 C 102.986 20.591, 109.488 23.606, 109.529 26.732 C 109.552 28.522, 111.290 29.849, 118.282 33.417 C 123.081 35.865, 128.323 38.806, 129.932 39.951 L 132.857 42.034 137.476 32.283 C 143.052 20.512, 144.294 15.785, 142.468 13.285 C 141.357 11.762, 139.429 11.478, 129.333 11.351 C 122.825 11.269, 114.125 11.549, 110 11.975 M 153.500 15.412 C 146.726 18.423, 143.051 25.490, 142.260 37.032 C 141.629 46.245, 143.290 52.635, 149.564 65.128 C 156.950 79.834, 157.435 87.136, 151.606 95.847 C 148.219 100.907, 140.360 106.232, 133.166 108.342 L 128.831 109.613 134.314 114.297 C 142.055 120.910, 150.062 126, 152.724 126 C 156.091 126, 162.455 119.694, 164.957 113.879 C 169.083 104.288, 170.305 94.216, 169.718 74.654 C 169.296 60.612, 169.482 56.089, 170.591 53.436 C 172.603 48.620, 172.372 36.374, 170.133 29.181 C 167.907 22.028, 164.884 17.508, 160.971 15.485 C 157.540 13.711, 157.332 13.709, 153.500 15.412 M 89.500 20.948 C 93.519 22.874, 104.691 27, 105.887 27 C 110.491 27, 98.933 22.346, 89.500 20.402 L 87.500 19.989 89.500 20.948 M 136.929 40.140 C 135.613 43.790, 135.569 44.907, 136.655 47 C 137.852 49.308, 137.772 49.523, 135.604 49.804 C 133.529 50.073, 132.937 51.294, 130.520 60.289 C 129.015 65.888, 127.688 73.176, 127.571 76.485 C 127.454 79.793, 126.628 83.890, 125.736 85.590 C 124.844 87.289, 123.587 91.706, 122.943 95.404 C 121.819 101.863, 121.864 102.226, 124.093 104.598 C 126.775 107.454, 129.280 107.260, 137.546 103.558 C 148.426 98.684, 153.886 90.614, 152.639 81.250 C 152.291 78.637, 149.807 72, 147.120 66.500 C 141.210 54.406, 140.251 51.492, 139.264 42.640 L 138.500 35.779 136.929 40.140 M 118.247 39.250 C 116.873 40.973, 114 46.716, 114 47.741 C 114 48.577, 130.839 47.494, 131.733 46.601 C 132.618 45.716, 130.751 43.798, 126.185 40.902 C 121.121 37.691, 119.724 37.400, 118.247 39.250 M 82 41.074 C 51.202 41.889, 39.309 42.691, 38.495 44.008 C 37.916 44.945, 46.868 48.526, 53.315 49.937 C 61.540 51.737, 75.716 52.183, 89 51.059 C 109.935 49.288, 109.793 49.326, 112.049 44.904 C 114.435 40.228, 114.446 39.959, 112.250 40.160 C 111.287 40.248, 97.675 40.659, 82 41.074 M 118.049 50.913 C 113.272 51.427, 112.373 51.889, 110.768 54.646 L 108.938 57.791 113.517 60.008 C 116.035 61.227, 119.719 63.755, 121.702 65.625 C 123.685 67.496, 125.386 68.908, 125.483 68.763 C 125.810 68.273, 130.027 51.506, 130.014 50.750 C 129.999 49.941, 126.649 49.987, 118.049 50.913 M 98 52.955 C 92.285 53.609, 92.625 53.930, 100.750 55.547 C 102.263 55.849, 104.212 56.305, 105.083 56.562 C 106.077 56.855, 107.092 56.094, 107.812 54.514 C 109.103 51.679, 109.125 51.682, 98 52.955 M 71.951 58.362 C 66.620 59.800, 60.584 63.328, 58.593 66.171 C 57.088 68.319, 58.049 71.826, 65.892 92.818 C 72.503 110.513, 69.987 113.071, 44 115.071 C 36.575 115.643, 30.085 116.224, 29.577 116.363 C 28.337 116.702, 37.169 122.012, 44 125.035 C 48.899 127.203, 50.920 127.471, 62.500 127.485 C 73.847 127.498, 77.726 127.017, 93 123.703 C 118.849 118.095, 116.454 118.987, 116.803 114.840 C 117.094 111.389, 116.952 111.214, 113.303 110.547 C 108.538 109.676, 105 107.450, 105 105.323 C 105 104.427, 106.764 102.064, 108.921 100.073 L 112.841 96.454 105.260 87.423 L 97.679 78.393 93.712 82.696 C 89.373 87.404, 85.760 88.288, 84.035 85.066 C 82.226 81.686, 83.093 67.724, 85.583 60.124 C 85.859 59.281, 87.960 61.291, 90.996 65.302 C 93.725 68.907, 96.376 72.114, 96.886 72.430 C 97.614 72.879, 105 61.153, 105 59.548 C 105 59.338, 102.728 58.678, 99.951 58.083 C 93.313 56.659, 77.686 56.815, 71.951 58.362 M 103.349 68.454 L 99.197 75.908 107.287 85.600 L 115.377 95.292 118.575 91.484 C 121.065 88.518, 122.053 86.038, 123.038 80.279 C 124.220 73.367, 124.173 72.707, 122.321 70.191 C 120.025 67.073, 111.230 61, 109.011 61 C 108.170 61.001, 105.661 64.303, 103.349 68.454 M 86.621 68.146 C 85.629 73.103, 85.903 83.822, 87.039 84.524 C 88.268 85.284, 95 78.243, 95 76.198 C 95 75.421, 93.254 72.594, 91.121 69.914 L 87.242 65.042 86.621 68.146 M 118.307 95.119 C 117.562 96.023, 117.448 97.107, 118.003 98.005 C 119.189 99.924, 120.243 98.723, 119.831 95.921 C 119.552 94.023, 119.313 93.897, 118.307 95.119 M 110.962 101.918 C 106.878 105.359, 107.603 106.869, 113.733 107.691 C 117.273 108.166, 117.775 107.968, 118.320 105.885 C 118.912 103.619, 116.812 99, 115.189 99 C 114.769 99, 112.866 100.313, 110.962 101.918 M 121 107 C 121 107.550, 121.477 108, 122.059 108 C 122.641 108, 122.840 107.550, 122.500 107 C 122.160 106.450, 121.684 106, 121.441 106 C 121.198 106, 121 106.450, 121 107 M 121.750 110.689 C 120.711 110.961, 120 112.099, 120 113.492 C 120 114.781, 119.728 116.546, 119.395 117.414 C 118.869 118.784, 119.586 118.908, 124.843 118.359 C 130.458 117.772, 131.252 117.953, 135.786 120.863 C 141.424 124.480, 143.833 125.077, 139.370 121.750 C 137.710 120.513, 133.862 117.362, 130.818 114.750 C 127.775 112.138, 124.883 110.052, 124.392 110.116 C 123.901 110.180, 122.713 110.438, 121.750 110.689 M 119.174 122.750 C 118.681 123.713, 117.992 126.686, 117.643 129.357 L 117.009 134.215 119.754 133.506 C 137.270 128.985, 148.416 133.801, 148.365 145.868 C 148.329 154.338, 142.734 161.975, 133.500 166.158 C 129.587 167.930, 126.712 168.418, 120.275 168.403 C 115.751 168.392, 111.763 168.097, 111.414 167.747 C 110.787 167.120, 112.682 144.151, 113.642 140.749 C 114.069 139.234, 113.781 139.133, 111.506 139.998 C 109.297 140.838, 107.555 140.358, 100.615 136.999 C 90.800 132.248, 83.617 131.556, 80.449 135.057 C 77.827 137.953, 77.344 147.892, 79.429 156.030 C 81.512 164.162, 86.852 177.260, 90.306 182.709 L 92.973 186.918 98.120 184.248 C 103.156 181.635, 103.791 181.564, 127.883 180.901 C 158.221 180.066, 164.843 178.586, 169.040 171.701 C 172.024 166.808, 171.557 160.175, 167.338 147.513 C 162.375 132.621, 161.302 131.664, 145.500 128.063 C 142.750 127.437, 138.333 125.591, 135.684 123.962 C 129.844 120.371, 120.735 119.702, 119.174 122.750 M 127.500 134.649 C 119.371 136.341, 116.945 137.388, 116.518 139.384 C 115.398 144.622, 113.916 164.054, 114.557 165.092 C 115.713 166.962, 128.805 165.673, 133.595 163.217 C 138.664 160.618, 143.403 155.340, 144.993 150.521 C 148.464 140.005, 139.748 132.098, 127.500 134.649" stroke="none" fill="black" fill-rule="evenodd"/>
</svg>