<svg xmlns="http://www.w3.org/2000/svg" width="200" height="200" viewBox="0 0 200 200" version="1.1">
	<path d="M 96.975 2.565 C 96.439 3.976, 96 7.126, 96 9.565 C 96 12.004, 95.733 14, 95.406 14 C 95.080 14, 90.320 12.604, 84.829 10.898 C 69.556 6.154, 62.293 6.581, 63.747 12.139 C 64.906 16.574, 77.574 25.058, 89 29.052 C 97.427 31.997, 98.040 32.649, 93.157 33.473 C 87.794 34.380, 88.535 36.693, 94.020 36.169 C 97.549 35.833, 98 36.035, 98 37.951 C 98 42.699, 81.357 46.404, 66.948 44.864 C 53.725 43.451, 42.791 38.882, 45.655 35.966 C 47.404 34.185, 60.358 33.011, 70.750 33.690 C 79.092 34.236, 80 34.125, 80 32.562 C 80 30.974, 78.628 30.856, 63.703 31.164 C 50.167 31.443, 46.947 31.801, 44.703 33.273 C 38.984 37.025, 42.667 41.576, 54.410 45.270 C 64.446 48.427, 84.963 48.447, 92.750 45.308 C 95.638 44.144, 98.168 43.486, 98.373 43.846 C 99.017 44.978, 100.146 54, 99.643 54 C 99.379 54, 98.164 52.383, 96.943 50.407 C 94.787 46.919, 94.589 46.833, 90.111 47.459 C 77.157 49.269, 67.422 54.293, 64.047 60.909 C 61.449 66, 61.436 72.814, 64 84 C 66.374 94.356, 66.487 98.860, 64.443 101.777 C 62.978 103.869, 62.163 104, 50.602 104 C 33.034 104, 24 107.325, 24 113.792 C 24 119.487, 36.048 127, 45.182 127 C 48.646 127, 48.702 127.620, 45.500 130.588 C 40.751 134.988, 43.301 139.604, 52.233 142.776 C 56.531 144.303, 58.532 146, 56.035 146 C 54.046 146, 47.619 152.629, 45.865 156.491 C 42.218 164.519, 44.286 175.254, 50.624 181.197 C 55.174 185.463, 60.698 187.281, 72 188.231 C 77.775 188.717, 85.207 189.347, 88.516 189.632 C 93.624 190.072, 95.812 189.667, 103.016 186.948 C 127.935 177.544, 127.018 177.793, 135 178.244 C 143.254 178.711, 148.565 180.862, 155.648 186.604 L 159.796 189.967 161.398 185.963 C 164.970 177.036, 162.737 164.746, 155.483 153.406 C 149.208 143.596, 132.912 127.896, 123.500 122.591 L 120.500 120.900 123.500 121.419 C 125.150 121.705, 133.312 122.246, 141.639 122.621 C 163.870 123.624, 173.950 121.060, 182.072 112.336 C 185.525 108.627, 189 103.687, 189 102.487 C 189 102.166, 183.488 102.206, 176.750 102.576 C 163.572 103.299, 151.974 102.072, 146.825 99.410 C 143.099 97.483, 141.576 93.803, 140.033 83 C 139.359 78.278, 137.686 72.102, 136.268 69.104 C 132.692 61.541, 123.272 52.475, 117.210 50.763 C 114.580 50.021, 112.500 48.837, 112.500 48.083 C 112.500 47.027, 114.697 46.774, 122.609 46.921 C 138.096 47.209, 151.784 43.311, 155.568 37.536 C 157.630 34.389, 156.664 31.395, 152.970 29.485 C 148.927 27.394, 135.549 25.701, 129.269 26.486 C 125.060 27.011, 124.112 26.871, 124.529 25.785 C 125.098 24.302, 114.981 8.462, 110.135 3.250 C 107.574 0.496, 106.414 0, 102.532 0 C 98.534 0, 97.826 0.327, 96.975 2.565 M 99.536 3.250 C 98.289 8.839, 98.520 15.240, 100 16.103 C 102.874 17.780, 121.112 25.221, 121.467 24.862 C 122.086 24.236, 111.517 8.675, 107.808 4.750 C 103.753 0.459, 100.299 -0.167, 99.536 3.250 M 66 10.776 C 66 14.141, 85.127 26.075, 93.064 27.663 L 96.114 28.273 95.807 22.886 L 95.500 17.500 85.644 14.190 C 74.930 10.593, 66 9.040, 66 10.776 M 99.193 24.121 L 99.500 29.500 106.151 29.793 C 110.094 29.967, 114.141 29.540, 116.092 28.744 L 119.382 27.402 110.724 23.682 C 105.962 21.636, 101.350 19.688, 100.476 19.352 C 99.124 18.833, 98.932 19.544, 99.193 24.121 M 121.813 29.683 C 122.534 29.972, 123.397 29.936, 123.729 29.604 C 124.061 29.272, 123.471 29.036, 122.417 29.079 C 121.252 29.127, 121.015 29.364, 121.813 29.683 M 126.754 30.460 C 129.778 32.685, 128.645 34.625, 121.418 39.596 L 115.741 43.500 124.120 43.812 C 136.626 44.279, 146.967 41.857, 152.250 37.224 C 157.195 32.889, 150.985 29.942, 135.500 29.275 C 125.073 28.826, 124.617 28.887, 126.754 30.460 M 106.601 34.105 C 103.356 34.578, 100.497 35.170, 100.246 35.420 C 99.996 35.670, 100.211 37.141, 100.724 38.688 C 101.515 41.076, 102.406 41.629, 106.627 42.357 C 111.485 43.195, 111.749 43.108, 118.299 38.530 C 121.984 35.953, 125 33.655, 125 33.423 C 125 32.731, 112.955 33.177, 106.601 34.105 M 102.667 51.949 C 103.463 56.555, 105.289 62.248, 107.040 65.576 C 109.857 70.930, 109.942 71.407, 108.391 73.120 C 106.658 75.035, 106.758 77.111, 109.112 88.084 C 109.941 91.953, 110.750 93.335, 112.596 94.036 C 115.464 95.127, 115.648 96.418, 113.190 98.193 C 111.445 99.453, 111.450 99.832, 113.326 108.638 L 115.272 117.777 127.959 118.996 C 146.632 120.791, 164.164 120.038, 170.500 117.168 C 175.315 114.988, 184 107.577, 184 105.649 C 184 105.104, 180.766 104.935, 176.250 105.243 C 165.188 105.997, 151.824 104.577, 146.718 102.106 C 141.001 99.338, 139.177 95.839, 137.448 84.322 C 136.647 78.982, 135.009 72.562, 133.808 70.056 C 130.866 63.914, 121.095 54.389, 116.822 53.497 C 112.134 52.519, 109 50.294, 109 47.946 C 109 45.909, 108.546 45.612, 103.900 44.602 L 101.301 44.037 102.667 51.949 M 82.500 51.880 C 65.195 56.892, 62.149 63.322, 66.935 84.739 C 69.557 96.471, 69.527 98.923, 66.709 103.102 L 64.418 106.500 51.459 106.548 C 37.628 106.599, 31.399 107.797, 28.540 110.955 C 24.499 115.421, 29.435 120.576, 40.518 123.463 C 50.761 126.131, 61.976 125.078, 76.863 120.051 C 80.719 118.749, 87.125 117.665, 93.120 117.300 L 103.014 116.697 98.338 113.599 C 91.999 109.399, 89.459 105.879, 90.869 103.245 C 92.087 100.969, 97.484 98.575, 103.750 97.532 C 106.088 97.143, 108 96.450, 108 95.992 C 108 95.233, 100.079 93.149, 90.813 91.469 C 86.505 90.689, 85.245 88.162, 84.342 78.500 C 83.379 68.197, 88.184 64.812, 98.500 68.529 C 100.700 69.321, 102.584 69.977, 102.687 69.985 C 102.790 69.993, 102.632 68.313, 102.335 66.250 C 102.038 64.188, 99.933 59.688, 97.656 56.250 C 92.967 49.172, 92.409 49.011, 82.500 51.880 M 87.607 71.582 C 86.637 74.108, 87.009 81.202, 88.306 84.930 C 89.456 88.233, 89.811 88.426, 97.931 90.166 C 102.567 91.159, 106.483 91.850, 106.632 91.701 C 106.782 91.552, 106.172 87.298, 105.277 82.249 L 103.649 73.069 99.147 71.534 C 93.246 69.524, 88.389 69.544, 87.607 71.582 M 100.500 100.929 C 96.687 101.849, 93 103.817, 93 104.932 C 93 107.582, 109.952 118.382, 111.571 116.763 C 111.915 116.418, 111.413 112.506, 110.454 108.068 C 108.542 99.222, 108.299 99.047, 100.500 100.929 M 83.256 121.056 C 75.517 122.583, 75.247 123.640, 82.426 124.311 C 93.121 125.310, 101.942 130.218, 105.589 137.200 C 107.658 141.161, 107.362 143.690, 104.750 144.362 C 100.900 145.352, 87.218 153.849, 83.521 157.545 C 75.285 165.782, 81.981 170.699, 97.134 167.539 C 105.478 165.799, 118.729 159.870, 119.653 157.463 C 120.516 155.213, 113.888 123.031, 112.217 121.360 C 110.669 119.812, 90.630 119.602, 83.256 121.056 M 119.664 138.750 C 121.461 147.412, 122.947 155.687, 122.966 157.139 C 122.995 159.428, 121.975 160.310, 115.250 163.802 C 105.157 169.044, 96.356 171.295, 87.823 170.817 C 71.073 169.878, 74.231 157.966, 94.224 146.675 C 98.776 144.104, 102.950 141.839, 103.500 141.642 C 105.189 141.037, 101.184 134.659, 97.556 132.176 C 91.734 128.191, 85.373 126.737, 73.500 126.678 C 62.206 126.621, 53.416 128.371, 48.360 131.684 C 41.357 136.272, 50.905 141.825, 67.901 143.048 C 78.641 143.821, 86.067 145.702, 86.777 147.831 C 87.304 149.413, 82.544 149.324, 71.596 147.547 C 63.737 146.272, 62.270 146.278, 59.096 147.604 C 51.226 150.891, 47 157.325, 47 166.018 C 47 171.739, 48.510 175.254, 52.661 179.197 C 57.136 183.448, 62.321 185.124, 70.936 185.105 C 75.175 185.096, 80.854 185.754, 83.555 186.567 C 89.737 188.427, 95.450 187.378, 108.358 182.014 C 130.282 172.904, 140.063 172.794, 153.024 181.516 C 155.871 183.432, 158.363 185, 158.562 185 C 158.760 185, 159.421 183.149, 160.030 180.887 C 162.051 173.384, 158.862 162.765, 151.484 152.425 C 145.173 143.582, 129.169 128.788, 122.494 125.627 C 119.442 124.182, 116.822 123, 116.671 123 C 116.521 123, 117.868 130.088, 119.664 138.750" stroke="none" fill="black" fill-rule="evenodd"/>
</svg>