<svg xmlns="http://www.w3.org/2000/svg" width="200" height="200" viewBox="0 0 200 200" version="1.1">
	<path d="M 101 11.083 C 95.225 11.522, 84.875 12.591, 78 13.459 C 71.125 14.326, 63.312 15.196, 60.637 15.392 C 56.279 15.710, 54.060 17.011, 54.015 19.272 C 53.980 21.055, 65.919 31.268, 70.915 33.729 C 80.425 38.413, 91.306 37.883, 98.683 32.376 C 100.434 31.069, 102.459 30.017, 103.183 30.039 C 103.907 30.060, 107.650 31.596, 111.500 33.453 L 118.500 36.828 114.500 36.922 C 112.300 36.974, 105.100 37.737, 98.500 38.619 C 91.838 39.508, 77.825 40.322, 67 40.447 C 49.610 40.647, 46.888 40.910, 41.843 42.873 C 35.375 45.390, 34.045 47.328, 37.315 49.471 C 41.103 51.952, 53.426 53.102, 77.709 53.239 C 97.687 53.351, 100.645 53.560, 98.959 54.741 C 96.088 56.753, 96.515 57.538, 101.250 58.955 C 113.764 62.700, 124 70.572, 124 76.452 C 124 83.273, 123.686 83.319, 113.164 78.065 C 107.849 75.411, 102.532 72.944, 101.349 72.584 C 100.167 72.223, 98.923 70.828, 98.585 69.483 C 97.567 65.427, 91.504 60.227, 85.826 58.541 C 79.343 56.616, 75.936 56.605, 68.706 58.488 C 53.800 62.371, 47.373 73.406, 53.250 85.024 C 57.560 93.544, 70.406 100, 83.046 100 C 86.256 100, 89.174 100.472, 89.530 101.049 C 89.941 101.713, 90.604 101.753, 91.339 101.157 C 91.978 100.640, 95.200 99.667, 98.500 98.995 C 101.800 98.322, 107.384 96.470, 110.908 94.877 C 114.432 93.285, 117.541 92.208, 117.817 92.484 C 118.093 92.760, 115.885 95.417, 112.909 98.390 C 103.878 107.412, 97.818 107.924, 76 101.510 C 55.570 95.504, 46.366 96.461, 36.092 105.661 C 32.388 108.978, 31.788 110.019, 32.331 112.185 C 33.268 115.916, 37.776 117.663, 56.795 121.665 C 75.010 125.499, 77.274 126.308, 76.808 128.817 C 76.560 130.152, 63.579 137.640, 58.689 139.270 C 57.261 139.746, 60.374 145.071, 64.165 148.638 C 68.910 153.102, 72.897 154.857, 81.216 156.139 C 87.531 157.112, 90.495 156.957, 103.500 154.971 C 137.964 149.709, 142.224 151.078, 144.120 168.027 C 145.580 181.080, 149.797 189, 155.287 189 C 163.646 189, 172.949 169.059, 172.985 151.066 C 173.004 141.538, 170.545 135.961, 165.209 133.429 C 161.692 131.760, 161.204 131.758, 155.503 133.395 C 139.197 138.076, 132.555 139.186, 123.487 138.743 C 109.193 138.046, 100.600 133.004, 100.600 125.314 C 100.600 122.316, 101.321 121.043, 104.733 118.015 C 109.586 113.708, 116.345 111.299, 127.747 109.811 C 140.982 108.083, 143.833 103.742, 137.338 95.207 C 135.960 93.396, 132.682 90.309, 130.055 88.347 L 125.277 84.780 127.584 78.140 C 128.853 74.488, 131.012 67.081, 132.381 61.680 C 133.750 56.279, 135.400 51.223, 136.047 50.443 C 136.694 49.663, 136.954 48.324, 136.625 47.466 C 136.296 46.608, 137.033 38.718, 138.263 29.932 L 140.500 13.958 143.500 14.578 C 153.131 16.569, 155.278 21.473, 149.377 28.005 C 145.775 31.992, 145.617 32.475, 145.177 40.824 C 144.926 45.596, 145.339 56.025, 146.095 64 C 146.851 71.975, 147.454 83.249, 147.436 89.053 C 147.406 98.215, 147.078 100.252, 144.951 104.501 C 141.012 112.368, 138.687 113.500, 126.469 113.500 C 116.425 113.500, 116.071 113.575, 115.504 115.837 C 114.532 119.714, 117.909 124.194, 124.168 127.330 C 139.891 135.209, 160.759 132.211, 169.245 120.855 C 173.630 114.988, 174.268 111.205, 173.492 95.681 C 173.024 86.298, 173.211 77.609, 174.046 70 C 175.952 52.624, 175.809 35.678, 173.698 28.754 C 171.657 22.059, 167.365 16.746, 161.595 13.772 C 155.311 10.533, 125.579 9.214, 101 11.083 M 100.750 13.742 C 97.037 13.934, 94.012 14.408, 94.026 14.796 C 94.040 15.183, 95.791 16.301, 97.917 17.280 C 101.820 19.078, 104.863 23.794, 103.521 25.966 C 103.128 26.602, 104.157 27.508, 106.008 28.153 C 110.823 29.831, 126.938 37.820, 130.212 40.151 C 131.809 41.288, 133.283 42.050, 133.488 41.845 C 133.694 41.640, 134.579 36.303, 135.455 29.986 C 136.331 23.669, 137.195 17.510, 137.376 16.300 C 137.560 15.063, 137.076 13.859, 136.270 13.550 C 134.810 12.990, 112.985 13.107, 100.750 13.742 M 153.545 16.455 C 157.010 19.919, 156.612 23, 151.903 29.150 L 147.806 34.500 148.601 53 C 149.039 63.175, 149.420 78.250, 149.448 86.500 C 149.496 100.320, 149.313 101.879, 147.129 106.316 C 145.640 109.340, 143.249 112.131, 140.703 113.816 C 137.032 116.246, 135.767 116.500, 127.326 116.500 C 117.294 116.500, 116.597 116.947, 119.963 121.226 C 124.978 127.601, 142.870 130.924, 154.297 127.602 C 157.429 126.692, 161.591 124.542, 163.547 122.825 C 170.537 116.687, 172.451 109.800, 170.777 96.811 C 169.860 89.702, 169.985 84.369, 171.466 67.475 C 173.995 38.622, 172.761 27.620, 166.211 20.638 C 163.174 17.401, 156.644 14.055, 153.295 14.022 C 151.092 14, 151.092 14.001, 153.545 16.455 M 80 19.046 C 83.575 20.154, 89.612 22.172, 93.416 23.531 C 97.220 24.890, 100.523 25.810, 100.757 25.576 C 100.991 25.342, 100.873 24.176, 100.495 22.984 C 99.434 19.642, 93.581 17.767, 83 17.379 L 73.500 17.032 80 19.046 M 57 18.915 C 57 20.249, 65.807 27.795, 70.750 30.696 C 78.396 35.183, 93.184 34.769, 97.550 29.945 C 99.126 28.204, 98.688 27.960, 87.850 24.554 C 70.293 19.036, 57 16.606, 57 18.915 M 119.701 38.964 C 120.085 40.433, 118.684 42.464, 114.345 46.727 C 111.113 49.902, 107.238 53.053, 105.734 53.729 C 104.230 54.404, 103.008 55.304, 103.017 55.729 C 103.026 56.153, 105.545 57.588, 108.615 58.917 C 116.089 62.153, 121.440 65.852, 124.345 69.790 L 126.744 73.042 128.872 64.557 C 130.042 59.890, 131 55.606, 131 55.036 C 131 54.466, 129.452 54, 127.559 54 C 122.551 54, 122.273 52.261, 127.128 51.301 C 135.447 49.656, 134.264 45.183, 124.039 39.618 C 119.510 37.153, 119.216 37.109, 119.701 38.964 M 95.500 41.608 C 90 42.348, 78.075 42.920, 69 42.878 C 53.310 42.805, 45.525 43.739, 40.537 46.293 C 38.657 47.256, 38.677 47.336, 41.004 48.197 C 45.417 49.830, 71.222 51.230, 88.233 50.759 C 104.410 50.311, 105.094 50.207, 108.849 47.604 C 110.985 46.124, 113.772 43.807, 115.041 42.456 L 117.349 40 111.424 40.130 C 108.166 40.202, 101 40.867, 95.500 41.608 M 69 60.935 C 59.441 63.853, 54.011 69.411, 54.004 76.282 C 53.993 87.055, 63.151 94.755, 78.570 96.939 C 82.340 97.472, 85.594 97.739, 85.802 97.532 C 86.009 97.324, 84.306 94.396, 82.017 91.024 C 74.747 80.319, 73.331 74.669, 77 71 C 79.225 68.775, 86.909 68.253, 92.757 69.930 C 94.963 70.563, 96 70.521, 96 69.798 C 96 67.789, 89.278 62.400, 85.276 61.201 C 80.860 59.878, 72.890 59.748, 69 60.935 M 81 71.943 C 75.534 73.333, 78.394 83.181, 87.232 93.406 L 90.594 97.295 93.374 91.101 C 94.903 87.694, 96.402 82.506, 96.705 79.573 L 97.255 74.239 93.878 73.211 C 88.973 71.718, 83.863 71.215, 81 71.943 M 99.668 80.152 C 99.343 82.903, 97.927 87.663, 96.524 90.729 C 95.120 93.796, 94.164 96.497, 94.399 96.732 C 94.634 96.968, 97.559 96.460, 100.898 95.605 C 107.226 93.983, 114.765 90.446, 118.937 87.141 L 121.373 85.210 113.076 81.038 C 99.627 74.276, 100.359 74.324, 99.668 80.152 M 120.500 93.113 C 116.089 100.572, 110.164 105.606, 103.523 107.536 C 96.609 109.546, 91.729 108.993, 76.271 104.450 C 56.622 98.674, 50.274 98.892, 40.250 105.686 C 30.547 112.262, 32.759 114.037, 56.650 118.842 C 73.076 122.146, 78.686 124.019, 79.646 126.519 C 80.933 129.873, 78.193 132.791, 70.122 136.662 C 65.722 138.773, 62.094 140.971, 62.061 141.547 C 61.956 143.355, 69.324 149.829, 73.436 151.542 C 79.410 154.032, 90.102 154.404, 102 152.538 C 125.256 148.890, 129.761 148.521, 134.751 149.856 C 143.035 152.072, 145.882 156.336, 147.092 168.341 C 148.518 182.483, 153.884 189.276, 159.478 184.020 C 163.072 180.644, 168.030 168.758, 169.605 159.741 C 172.267 144.504, 168.844 135, 160.693 135 C 159.352 135, 154.710 136.160, 150.378 137.578 C 123.296 146.440, 98 140.487, 98 125.252 C 98 121.131, 98.451 120.225, 102.379 116.461 C 107.488 111.566, 116.106 108.231, 126 107.320 C 133.988 106.584, 138 104.730, 138 101.773 C 138 99.417, 127.018 87.985, 124.787 88.020 C 124.079 88.031, 122.150 90.323, 120.500 93.113" stroke="none" fill="black" fill-rule="evenodd"/>
</svg>