<svg xmlns="http://www.w3.org/2000/svg" width="200" height="200" viewBox="0 0 200 200" version="1.1">
	<path d="M 65.400 10.400 C 61.203 14.597, 61.123 16.970, 65.049 20.895 C 68.355 24.202, 79.492 28.236, 88.750 29.481 C 91.638 29.870, 94 30.631, 94 31.173 C 94 31.802, 84.151 32.063, 66.750 31.896 L 39.500 31.634 39.191 36.423 C 38.469 47.604, 48.069 50.432, 78.726 48.069 C 87.402 47.401, 95.240 46.646, 96.144 46.393 C 97.368 46.050, 98.199 47.136, 99.392 50.636 C 100.273 53.223, 100.795 55.538, 100.551 55.782 C 100.308 56.026, 97.979 55.499, 95.376 54.612 C 89.985 52.775, 78.347 52.498, 72.679 54.072 C 67.504 55.509, 61.184 61.433, 58.353 67.500 C 55.394 73.840, 55.408 76.143, 58.424 79.727 C 61.681 83.598, 66 91.848, 66 94.199 C 66 103.175, 55.063 107.020, 25.051 108.597 L 11.602 109.304 17.237 114.549 C 23.496 120.374, 31.132 124.406, 39.174 126.131 C 44.333 127.237, 63.101 126.776, 70.892 125.351 C 73.267 124.917, 74.077 125.067, 73.592 125.851 C 72.770 127.182, 87.959 137.423, 99.042 143.011 C 104.587 145.806, 107.061 147.699, 108.384 150.157 C 110.958 154.940, 110.206 158.961, 106.239 161.625 C 99.798 165.951, 88.516 165.635, 76.287 160.787 L 70.500 158.493 67.947 150.997 C 62.931 136.270, 58.587 130.600, 52.321 130.600 C 45.457 130.600, 41 138.900, 41 151.685 C 41 163.225, 44.982 173.547, 52.753 182.148 C 55.500 185.189, 56.740 185.896, 58.388 185.360 C 59.549 184.982, 71.300 184.634, 84.500 184.586 C 111.796 184.488, 114.689 183.909, 129.199 175.640 L 136.796 171.311 143.648 175.702 C 152.098 181.116, 161.459 186, 163.388 186 C 167.389 186, 165.625 181.528, 156.767 169.210 C 148.120 157.184, 144 149.991, 144 146.916 C 144 142.689, 145.429 142.567, 159.221 145.620 C 161.481 146.120, 162.145 145.775, 163.143 143.585 C 164.602 140.384, 162.849 136.093, 157.334 129.363 C 154.848 126.329, 154.187 124.907, 155.139 124.639 C 168.858 120.777, 174.763 117.859, 176.693 113.988 C 178.309 110.748, 176.726 108.201, 171.422 105.509 C 168.079 103.813, 165.033 103.466, 150.785 103.159 L 134.070 102.800 137.517 99.548 C 141.836 95.475, 144.949 88.741, 144.978 83.410 C 145.052 69.682, 123.703 49.638, 106.296 47.092 C 101.049 46.324, 101.598 46.232, 112.091 46.122 C 119.666 46.042, 125.351 46.502, 128.500 47.450 C 132.627 48.692, 134.423 48.707, 141.031 47.553 C 167.373 42.955, 164.338 33.064, 133.471 22.916 C 127.347 20.903, 121.957 18.397, 119.500 16.421 C 110.239 8.971, 100.496 6.432, 96.173 10.344 C 94.189 12.139, 93.817 12.119, 82.059 9.594 C 75.417 8.167, 69.716 7, 69.391 7 C 69.066 7, 67.270 8.530, 65.400 10.400 M 67.174 12.314 C 65.978 13.587, 65 15.357, 65 16.246 C 65 19.753, 76.859 25.117, 87.831 26.572 L 93.102 27.271 92.801 20.931 L 92.500 14.590 82 12.325 C 69.034 9.528, 69.792 9.528, 67.174 12.314 M 98.529 11.953 C 98.205 12.478, 99.866 13.408, 102.220 14.021 C 104.574 14.633, 108.233 15.584, 110.351 16.133 C 116.177 17.644, 115.951 16.350, 109.895 13.531 C 104.336 10.943, 99.563 10.281, 98.529 11.953 M 96 22.131 L 96 28.262 106.250 27.804 C 117.023 27.322, 121.332 25.965, 120.804 23.221 C 120.577 22.044, 117.513 20.810, 109.994 18.868 C 95.200 15.048, 96 14.861, 96 22.131 M 124 24.477 C 124 26.546, 120.047 28.905, 114.880 29.920 L 110.500 30.781 115.026 30.890 C 119.988 31.011, 135.611 29.290, 138 28.360 C 138.898 28.011, 136.712 26.818, 132.555 25.388 C 124.397 22.583, 124 22.540, 124 24.477 M 140.655 29.543 C 140.962 30.344, 140.828 31.003, 140.357 31.008 C 139.886 31.012, 136.800 31.446, 133.500 31.974 C 130.200 32.501, 121.025 33.385, 113.111 33.938 C 105.197 34.492, 98.515 35.152, 98.261 35.405 C 98.008 35.659, 98.330 37.471, 98.978 39.433 L 100.155 43 111.367 43 C 118.254 43, 124.869 43.596, 128.513 44.545 C 133.898 45.948, 135.180 45.942, 142.401 44.479 C 151.185 42.699, 156 40.635, 156 38.649 C 156 36.183, 149.895 31.812, 142.555 29.021 C 140.574 28.268, 140.204 28.369, 140.655 29.543 M 99.768 31.725 C 101.565 31.947, 104.265 31.943, 105.768 31.715 C 107.271 31.486, 105.800 31.304, 102.500 31.310 C 99.200 31.315, 97.971 31.502, 99.768 31.725 M 41.390 35.427 C 41.031 36.362, 41.226 38.200, 41.823 39.511 C 43.754 43.750, 47.525 45.333, 56.857 45.826 C 65.847 46.300, 97.004 44.198, 96.994 43.118 C 96.991 42.778, 96.520 40.813, 95.947 38.750 L 94.906 35 73.703 34.991 C 62.041 34.987, 50.147 34.700, 47.271 34.355 C 42.905 33.830, 41.935 34.007, 41.390 35.427 M 103.512 54.035 C 104.382 56.500, 106.990 59.958, 110.218 62.926 C 115.116 67.430, 115.500 68.116, 115.500 72.356 C 115.500 75.264, 114.902 77.527, 113.857 78.572 C 112.333 80.096, 112.433 80.877, 115.245 89.357 C 118.739 99.895, 118.842 100.061, 123.373 102.502 L 126.776 104.334 131.902 100.572 C 145.752 90.405, 145.255 76.952, 130.520 63.167 C 123.031 56.162, 111.514 50, 105.910 50 L 102.089 50 103.512 54.035 M 74.939 56.365 C 72.430 57.041, 68.981 58.589, 67.275 59.804 C 64.127 62.046, 59 70.936, 59 74.152 C 59 75.120, 60.804 78.487, 63.010 81.636 C 70.020 91.643, 70.410 97.676, 64.390 102.963 C 59.120 107.589, 45.053 110.850, 29.500 111.050 C 25.650 111.100, 21.618 111.486, 20.539 111.907 C 18.808 112.584, 19.161 113.104, 23.539 116.333 C 34.667 124.539, 48.840 125.912, 76 121.418 C 84.833 119.956, 97.855 118.611, 106.274 118.290 C 119.234 117.796, 120.991 117.529, 120.584 116.113 C 120.328 115.226, 119.597 112.483, 118.959 110.019 L 117.798 105.537 116.374 108.256 C 115.590 109.751, 113.797 111.264, 112.389 111.617 C 109.231 112.410, 98.802 111.514, 93.750 110.017 C 90.687 109.109, 90 108.439, 90 106.354 C 90 102.504, 92.785 97.419, 95.595 96.139 C 98.665 94.740, 103.398 94.680, 107.940 95.983 C 109.825 96.523, 111.572 96.761, 111.823 96.511 C 112.073 96.260, 110.753 93.535, 108.889 90.455 C 105.723 85.224, 105.303 84.897, 102.500 85.492 C 92.818 87.548, 93.812 88.032, 89.193 79.022 C 84.667 70.195, 84.081 67.290, 86.631 66.312 C 89.192 65.329, 94.757 68.917, 100.479 75.240 C 104.280 79.440, 106.196 80.862, 107.422 80.392 C 108.353 80.034, 108.925 79.237, 108.693 78.621 C 108.461 78.004, 107.002 73.592, 105.451 68.815 C 102.727 60.429, 102.490 60.078, 98.565 58.603 C 88.880 54.965, 82.406 54.351, 74.939 56.365 M 107.247 65.250 C 107.501 65.938, 108.487 68.866, 109.437 71.758 C 111.205 77.135, 113 77.916, 113 73.309 C 113 70.445, 109.408 64, 107.811 64 C 107.247 64, 106.994 64.563, 107.247 65.250 M 88.561 71.250 C 89.447 74.115, 92.427 79.945, 94.245 82.368 C 95.336 83.824, 96.348 84.082, 98.823 83.539 C 100.570 83.155, 102 82.250, 102 81.528 C 102 80.043, 90.431 69, 88.876 69 C 88.288 69, 88.157 69.942, 88.561 71.250 M 108.599 82.840 C 108.217 83.458, 109.090 85.660, 110.541 87.732 C 112.620 90.703, 113.027 90.971, 112.464 89 C 111.209 84.603, 109.345 81.632, 108.599 82.840 M 95 100 C 93.900 101.100, 93 103.108, 93 104.461 C 93 107.064, 95.163 108.003, 104.545 109.473 C 115.059 111.120, 119.110 102.147, 109.193 99.176 C 103.086 97.346, 97.319 97.681, 95 100 M 121.022 107.269 C 121.489 109.046, 122.355 112.364, 122.945 114.641 C 123.991 118.677, 124.179 118.823, 130.259 120.343 C 137.355 122.118, 146 123.242, 146 122.391 C 146 121.080, 129.079 108.582, 123.336 105.652 L 120.172 104.037 121.022 107.269 M 135.731 105.674 L 129.963 106.101 137.731 112.026 C 142.004 115.285, 146.740 118.952, 148.255 120.175 C 150.877 122.290, 151.309 122.336, 157.192 121.121 C 167.478 118.997, 175.938 113.887, 174.664 110.567 C 173.324 107.074, 152.380 104.442, 135.731 105.674 M 87 122.557 C 82.325 123.304, 77.600 123.945, 76.500 123.981 C 75.400 124.017, 79.598 126.712, 85.830 129.969 C 92.061 133.225, 99.106 137.484, 101.484 139.433 C 106.538 143.574, 109.859 145, 114.454 145 C 121.518 145, 124.116 139.085, 122.551 126.562 L 121.856 121 108.678 121.099 C 101.430 121.153, 91.675 121.809, 87 122.557 M 125.616 130.197 C 126.046 136.995, 125.812 139.132, 124.321 141.986 C 122.086 146.264, 118.659 148.154, 113.845 147.763 L 110.189 147.465 111.595 150.183 C 114.786 156.355, 112.546 161.940, 105.617 165.086 C 97.407 168.815, 79.632 166.813, 70.395 161.119 C 68.051 159.675, 66.994 158.015, 66.084 154.353 C 63.272 143.027, 56.887 133, 52.487 133 C 50.043 133, 46.576 136.326, 45.191 140 C 40.789 151.679, 44.670 169.174, 53.775 178.694 L 57.500 182.588 83.500 182.013 C 112.899 181.362, 114.540 181.021, 129.221 172.492 L 136.942 168.007 145.221 173.378 C 154.998 179.721, 162 183.388, 162 182.164 C 162 181.683, 158.358 176.161, 153.906 169.894 C 141.520 152.458, 138.580 145.254, 142.516 141.987 C 144.037 140.724, 153.755 141.068, 158.750 142.561 C 163.503 143.982, 160.166 136.080, 152.704 128.250 C 149.832 125.236, 149.132 124.998, 143.054 124.976 C 136.929 124.954, 132.588 124.300, 127.295 122.601 C 125.115 121.902, 125.096 121.988, 125.616 130.197" stroke="none" fill="black" fill-rule="evenodd"/>
</svg>