<svg xmlns="http://www.w3.org/2000/svg" width="200" height="200" viewBox="0 0 200 200" version="1.1">
	<path d="M 146.367 11.769 C 143.919 13.348, 141.699 31.618, 137.952 81 C 136.307 102.669, 135.542 108.750, 134.340 109.678 C 132.567 111.047, 125.476 112.412, 124.208 111.628 C 123.731 111.334, 121.640 108.336, 119.560 104.967 L 115.779 98.840 118.333 96.170 C 130.992 82.935, 130.883 47.555, 118.091 17.711 L 116.071 13 79.952 13 C 51.505 13, 43.921 13.265, 44.244 14.250 C 44.492 15.003, 48.399 16, 54.078 16.758 C 62.697 17.910, 89.669 22.332, 96.250 23.673 C 98.347 24.100, 99 23.849, 99 22.617 C 99 21.727, 98.438 20.989, 97.750 20.976 C 97.063 20.964, 90.875 19.875, 84 18.558 L 71.500 16.163 93.019 16.082 L 114.538 16 117.260 23.250 C 127.529 50.603, 127.561 80.861, 117.333 93.016 C 115.952 94.657, 114.488 96, 114.081 96 C 113.673 96, 111.802 93.862, 109.924 91.250 C 106.924 87.079, 106.548 85.880, 106.836 81.414 C 107.267 74.727, 105.296 70.251, 98.985 63.578 L 93.877 58.177 96.340 53.316 C 98.689 48.680, 99.076 48.396, 104.743 47.138 C 110.908 45.771, 118.078 42.311, 118.705 40.401 C 119.487 38.020, 98.501 30.632, 82 27.480 C 70.110 25.208, 49.546 24.308, 48.492 26.012 C 46.745 28.840, 52.110 30.631, 70.500 33.359 L 79.500 34.694 70.500 35.536 C 65.550 35.999, 52.613 36.405, 41.750 36.439 L 22 36.500 22 38.882 C 22 42.300, 27.763 47.292, 34.113 49.375 C 37.076 50.346, 43.717 51.404, 48.871 51.725 L 58.241 52.308 52.609 55.112 C 45.558 58.622, 40.869 62.173, 37.568 66.500 L 35.001 69.865 43.217 74.682 C 53.622 80.784, 62 88.612, 62 92.234 C 62 95.853, 58.146 98.611, 49.590 101.114 C 45.690 102.256, 38.891 104.255, 34.479 105.557 C 25.745 108.135, 22 110.790, 22 114.403 C 22 117.046, 25.699 121.122, 31.358 124.713 L 35.215 127.161 42.858 125.111 C 54.378 122.020, 67.447 120.175, 89.534 118.518 C 100.515 117.695, 112.650 116.753, 116.500 116.425 L 123.500 115.828 125.250 118.995 C 127.462 122.999, 127.728 134, 125.613 134 C 124.850 134, 117.988 132.399, 110.363 130.443 C 90.052 125.231, 78.817 124.289, 61.615 126.357 C 40.436 128.902, 34.545 132.549, 42.250 138.342 C 44.037 139.685, 49.719 142.891, 54.876 145.466 C 61.244 148.645, 63.926 150.474, 63.234 151.166 C 62.673 151.727, 55.407 152.666, 47.086 153.253 C 29.846 154.471, 30.160 154.256, 31.319 164.045 C 32.373 172.946, 34.239 177.293, 39.099 182.175 C 48.906 192.023, 66.679 192.708, 84.714 183.934 C 94.984 178.937, 97.822 172.028, 91.043 168.522 C 87.910 166.902, 77.368 165.105, 70 164.936 L 65.500 164.833 76.778 159.318 C 82.981 156.284, 89.790 153.570, 91.908 153.285 L 95.760 152.769 98.034 159.634 C 101.508 170.122, 103.672 174.738, 108.572 182.108 C 113.792 189.960, 116.666 191.391, 127.097 191.330 C 138.876 191.261, 147.991 184.207, 153.173 171.153 C 155.047 166.431, 155.424 163.524, 155.458 153.500 C 155.497 142.396, 155.290 141.052, 152.693 135.500 C 149.404 128.468, 145.771 124.297, 141.250 122.363 C 138.228 121.071, 138 120.637, 138 116.172 C 138 111.643, 138.205 111.273, 141.601 109.653 C 149.870 105.710, 170.863 88.100, 173.597 82.813 C 176.090 77.991, 175.318 76.247, 166.617 67.066 C 155.305 55.131, 152.371 48.982, 151.551 35.500 C 150.303 14.995, 149.199 9.941, 146.367 11.769 M 146.836 19.516 C 145.713 21.233, 139.023 94.506, 139.005 105.285 C 139 107.863, 139.168 107.981, 141.250 106.871 C 146.266 104.198, 161.857 91.845, 166.764 86.656 C 169.776 83.471, 172 80.196, 172 78.945 C 172 77.599, 168.980 73.579, 164.076 68.399 C 153.676 57.412, 149.052 48.504, 148.876 39.116 C 148.686 29.015, 147.579 18.379, 146.836 19.516 M 58.083 28.408 C 58.442 28.759, 71.467 30.719, 85.750 32.571 C 88.495 32.927, 90 33.625, 90 34.542 C 90 35.323, 91.132 36.246, 92.516 36.593 C 95.411 37.320, 99 41.442, 99 44.040 C 99 45.702, 99.351 45.719, 104.740 44.311 C 107.897 43.487, 111.554 42.250, 112.865 41.563 C 115.161 40.360, 115.007 40.216, 108.743 37.708 C 100.593 34.445, 89.288 31.539, 77 29.548 C 68.220 28.125, 57.111 27.455, 58.083 28.408 M 66.824 38.510 C 66.543 38.790, 57.018 39.031, 45.657 39.045 C 33.869 39.060, 25 39.463, 25 39.984 C 25 41.941, 31.919 46.025, 38.057 47.693 C 45.931 49.832, 74.873 49.904, 87.500 47.816 C 95.011 46.574, 95.500 46.341, 95.500 43.997 C 95.500 39.752, 90.372 38.003, 77.917 38.002 C 72.096 38.001, 67.104 38.229, 66.824 38.510 M 90.500 50.125 C 88.300 50.543, 84.738 50.911, 82.583 50.942 C 80.429 50.974, 78.956 51.290, 79.310 51.644 C 80.055 52.388, 91.309 57.047, 91.571 56.719 C 92.349 55.746, 95.077 49.765, 94.824 49.589 C 94.646 49.466, 92.700 49.707, 90.500 50.125 M 59.500 55.402 C 51.246 58.019, 38.192 66.884, 39.493 68.989 C 39.772 69.440, 42.363 71.144, 45.250 72.775 C 52.682 76.973, 60.776 83.585, 63.052 87.317 C 65.719 91.691, 65.491 94.663, 62.238 97.915 C 59.537 100.616, 55.111 102.311, 34.771 108.427 C 22.275 112.184, 21.402 115.635, 31.458 121.529 L 35.825 124.087 43.668 122.085 C 56.205 118.884, 68.963 117.164, 92.500 115.500 C 113.869 113.990, 121 113.207, 121 112.373 C 121 111.715, 113.754 101, 113.309 101 C 113.084 101, 111.676 101.633, 110.180 102.407 C 104.891 105.142, 96.075 106.114, 87.676 104.889 C 83.373 104.262, 80.223 103.429, 80.676 103.039 C 81.129 102.650, 83.665 101.533, 86.311 100.559 C 91.763 98.552, 98.327 93.832, 101.362 89.736 L 103.411 86.973 97.455 80.910 C 94.180 77.575, 90.234 73.930, 88.686 72.810 L 85.871 70.772 83.686 72.819 C 76.962 79.117, 65 78.028, 65 71.118 C 65 64.879, 73.331 62.022, 81.531 65.449 C 84.994 66.896, 85 66.893, 87.479 63.245 C 90.382 58.974, 90.287 58.866, 81.145 55.995 C 73.988 53.749, 65.453 53.515, 59.500 55.402 M 89.698 64.684 L 87.120 68.307 89.810 70.314 C 91.290 71.419, 95.138 74.837, 98.361 77.911 L 104.223 83.500 103.760 78.268 C 103.254 72.549, 99.677 66.330, 94.963 62.974 L 92.276 61.061 89.698 64.684 M 70.200 67.204 C 68.534 68.034, 67.983 69.059, 68.200 70.925 C 68.481 73.334, 68.839 73.497, 73.766 73.456 C 77.792 73.423, 79.541 72.904, 81.195 71.250 L 83.358 69.087 80.429 67.971 C 75.787 66.202, 72.679 65.969, 70.200 67.204 M 101.733 93.468 C 100.211 95.375, 96.949 98.118, 94.483 99.563 C 92.017 101.008, 90 102.438, 90 102.740 C 90 103.850, 103.707 102.101, 107.778 100.472 L 111.975 98.793 108.818 94.396 C 107.082 91.978, 105.400 90, 105.080 90 C 104.761 90, 103.255 91.561, 101.733 93.468 M 129.216 114.128 L 125.931 115.075 127.693 118.057 C 128.720 119.795, 130.020 120.823, 130.809 120.520 C 131.554 120.234, 132.802 120, 133.582 120 C 134.536 120, 135 118.855, 135 116.500 C 135 112.740, 134.598 112.575, 129.216 114.128 M 131 123.385 C 131 124.684, 133.932 130.218, 133.975 129 C 134.004 128.175, 134.299 126.487, 134.630 125.250 C 135.117 123.435, 134.824 123, 133.117 123 C 131.952 123, 131 123.173, 131 123.385 M 136.582 134.250 C 135.412 151.295, 133.194 168.062, 131.903 169.617 C 129.549 172.453, 128.735 169.119, 127.969 153.503 C 127.547 144.904, 127.044 137.752, 126.851 137.609 C 126.658 137.466, 121.100 135.939, 114.500 134.215 C 90.906 128.054, 79.540 126.948, 61.500 129.059 C 51.630 130.213, 42 132.591, 42 133.873 C 42 135.515, 45.710 137.928, 55.120 142.405 C 65.328 147.262, 67.582 149.042, 66.638 151.502 C 65.613 154.172, 60.853 155.264, 47.500 155.890 L 34.500 156.500 34.574 163.500 C 34.691 174.445, 39.775 182.245, 48.890 185.461 C 60.357 189.507, 81.796 185.295, 89.634 177.457 C 95.755 171.336, 89.979 168.608, 70.763 168.545 C 61.639 168.515, 56.881 168.126, 56.597 167.387 C 56.027 165.909, 86.771 150.975, 91.761 150.305 C 96.776 149.633, 98.207 151.082, 100.968 159.629 C 103.523 167.536, 108.091 176.865, 112.271 182.710 C 114.808 186.257, 116.105 187.104, 120.519 188.092 C 134.765 191.280, 146.316 183.646, 151.106 167.879 C 152.833 162.190, 153.148 159.086, 152.798 151.195 C 152.282 139.582, 149.725 132.791, 143.878 127.508 C 137.870 122.081, 137.387 122.527, 136.582 134.250 M 130.158 132 C 130.158 133.375, 130.385 133.938, 130.662 133.250 C 130.940 132.563, 130.940 131.438, 130.662 130.750 C 130.385 130.063, 130.158 130.625, 130.158 132 M 131.748 136.442 C 129.815 137.856, 129.451 144.135, 130.731 154 C 131.416 159.279, 131.491 159.018, 132.605 147.500 C 133.244 140.900, 133.706 135.424, 133.632 135.332 C 133.558 135.239, 132.710 135.739, 131.748 136.442" stroke="none" fill="black" fill-rule="evenodd"/>
</svg>