<svg xmlns="http://www.w3.org/2000/svg" width="200" height="200" viewBox="0 0 200 200" version="1.1">
	<path d="M 110.288 9.037 C 105.221 9.521, 95.321 10.885, 88.288 12.067 C 81.227 13.254, 71.832 14.147, 67.311 14.060 C 58.462 13.891, 57 14.756, 57 20.158 C 57 23.110, 68.786 34.614, 70.280 33.120 C 70.955 32.445, 69.428 30.416, 65.643 26.957 C 62.539 24.120, 60 20.944, 60 19.900 C 60 18.225, 60.783 18, 66.606 18 C 73.819 18, 80.532 19.465, 94.838 24.159 C 100.679 26.076, 103.824 27.576, 103.235 28.165 C 102.717 28.683, 97.164 30.024, 90.896 31.145 C 84.628 32.266, 79.342 33.337, 79.150 33.525 C 76.349 36.260, 93.300 34.560, 103.782 31.055 L 109.064 29.289 117.086 33.345 C 128.814 39.274, 135.814 45.715, 134.435 49.308 C 134.002 50.437, 133.053 50.575, 130.189 49.929 C 128.160 49.471, 123.072 48.796, 118.881 48.430 L 111.263 47.765 112.351 44.880 C 113.293 42.386, 113.134 41.691, 111.180 39.748 C 108.956 37.535, 108.602 37.507, 88.710 37.926 C 56.560 38.605, 46.824 38.555, 41.750 37.689 L 37 36.877 37 39.988 C 37 44.575, 39.443 48.508, 43.484 50.425 C 48.892 52.992, 58.536 54.254, 68 53.635 L 76.500 53.078 70.227 55.422 C 58.557 59.781, 52.618 65.416, 51.331 73.351 C 50.234 80.106, 52.385 83.526, 61.504 89.531 C 69.384 94.721, 75 99.962, 75 102.128 C 75 103.475, 69.402 105.631, 64 106.365 C 61.525 106.701, 53.760 107.426, 46.745 107.977 C 39.730 108.527, 32.418 109.634, 30.495 110.438 C 23.708 113.273, 26.604 117.881, 39.724 125.124 L 47.100 129.195 62.300 126.597 C 70.660 125.168, 85.150 122.668, 94.500 121.041 C 103.850 119.414, 116.747 117.555, 123.160 116.909 L 134.820 115.735 144.160 121.571 C 149.297 124.781, 153.650 127.504, 153.834 127.621 C 154.018 127.738, 153.162 130.592, 151.933 133.962 L 149.699 140.091 146.777 136.545 C 141.032 129.576, 132.784 132.488, 125.145 144.183 L 120.789 150.851 112.863 144.002 C 103.063 135.534, 95.299 130.321, 89.584 128.374 C 83.631 126.346, 79.106 128.149, 76.531 133.576 C 74.919 136.972, 74.788 139.187, 75.355 153.449 C 75.968 168.848, 77.867 184.201, 79.343 185.676 C 79.729 186.062, 93.872 185.810, 110.772 185.116 C 127.672 184.422, 149.143 183.640, 158.484 183.378 L 175.468 182.902 175.182 179.701 C 173.659 162.670, 170.768 141.581, 169.420 137.668 C 167.884 133.207, 162.909 128.138, 158.685 126.728 C 156.958 126.151, 159.279 118.029, 163.469 109.984 C 170.567 96.357, 173.684 77.525, 172.653 54.500 C 171.747 34.269, 167.923 12, 165.355 12 C 164.248 12, 163.998 16.992, 163.990 39.250 C 163.984 54.238, 163.506 71.900, 162.928 78.500 C 161.979 89.336, 158.447 112.886, 157.652 113.681 C 157.476 113.857, 152.453 113.703, 146.489 113.338 C 135.862 112.688, 135.567 112.604, 131.727 109.134 L 127.809 105.594 131.209 104.417 C 137.728 102.160, 142.661 99.117, 146.262 95.132 C 152.144 88.622, 152.549 80.066, 147.482 69.389 C 143.892 61.826, 143.128 49.278, 145.315 33.832 C 146.988 22.022, 146.446 17.168, 143.048 13.551 C 138.915 9.152, 126.697 7.468, 110.288 9.037 M 107.500 12.072 C 103.100 12.587, 95.900 13.608, 91.500 14.339 C 84.586 15.488, 83.907 15.772, 86.500 16.429 C 103.752 20.805, 105.629 21.480, 108.490 24.338 C 110.134 25.981, 115.008 29.135, 119.322 31.346 C 129.314 36.470, 137 43.481, 137 47.472 C 137 49.051, 136.324 51.089, 135.499 52.002 C 134.154 53.487, 133.344 53.524, 127.749 52.351 C 118.935 50.504, 108.585 50.590, 106.980 52.524 C 105.506 54.300, 105.301 54.085, 110.756 56.458 C 115.891 58.692, 121.770 64.198, 123.520 68.414 C 124.875 71.678, 125.385 76.037, 125.145 82.312 C 125.006 85.960, 124.743 86.240, 119.003 88.846 L 113.006 91.568 118.887 97.389 L 124.769 103.209 130.135 101.644 C 145.891 97.047, 152.390 85.525, 146.137 73.269 C 140.804 62.814, 139.948 53.046, 142.649 33.459 C 144.553 19.652, 143.971 17.040, 138.246 13.706 C 134.303 11.410, 119.749 10.636, 107.500 12.072 M 167.118 46.196 C 166.989 64.383, 165.639 83.671, 163.559 97 C 162.830 101.675, 162.360 105.641, 162.514 105.814 C 162.958 106.311, 166.741 94.098, 168.186 87.500 C 169.756 80.333, 169.801 42.160, 168.248 34.500 C 167.392 30.276, 167.217 32.091, 167.118 46.196 M 75 40.638 C 61.374 41.615, 52.069 41.820, 47.250 41.249 C 40.610 40.462, 40 40.541, 40 42.195 C 40 44.458, 43.237 47.757, 46.790 49.116 C 51.723 51.002, 66.233 51.193, 86.971 49.645 C 104.177 48.360, 107.646 47.838, 108.721 46.367 C 110.417 44.047, 110.344 41.346, 108.568 40.664 C 104.987 39.290, 93.913 39.282, 75 40.638 M 98 52 C 96.859 52.738, 97.263 52.973, 99.691 52.985 C 101.446 52.993, 103.160 52.550, 103.500 52 C 104.292 50.718, 99.983 50.718, 98 52 M 75.393 56.626 C 63.528 59.441, 53.983 67.376, 54.014 74.398 C 54.041 80.530, 55.106 82.001, 63.550 87.561 C 73.236 93.940, 77 97.995, 77 102.051 C 77 107.180, 72.592 108.536, 49.579 110.487 C 40.736 111.237, 32.712 112.158, 31.750 112.532 C 27.692 114.113, 30.890 117.392, 41.925 122.962 L 48.229 126.144 57.864 124.572 C 63.164 123.708, 77.850 121.198, 90.500 118.995 C 103.150 116.791, 117.228 114.698, 121.784 114.344 C 126.340 113.990, 130.276 113.363, 130.531 112.951 C 130.785 112.539, 129.357 110.765, 127.357 109.008 C 124.137 106.181, 123.248 105.886, 119.610 106.430 C 114.440 107.204, 105.215 105.504, 102.820 103.337 C 99.993 100.779, 100.601 97.557, 104.568 94.075 L 108.135 90.942 99.870 81.734 C 95.324 76.669, 91.956 73.420, 92.387 74.513 C 92.818 75.606, 93.426 78.023, 93.738 79.884 C 94.599 85.019, 92.043 83.510, 88.782 76.960 C 85.383 70.131, 85.222 66.482, 88.250 64.880 C 91.559 63.129, 99 56.899, 99 55.880 C 99 54.492, 82.139 55.025, 75.393 56.626 M 97 61.667 C 93.975 64.178, 91.379 66.542, 91.232 66.921 C 90.895 67.786, 109.809 89, 110.918 89 C 111.367 89, 114.033 88.044, 116.845 86.876 C 121.259 85.041, 122.043 84.289, 122.592 81.359 C 123.379 77.167, 121.558 69.593, 118.850 65.789 C 116.513 62.508, 107.456 56.999, 104.500 57.061 C 103.400 57.084, 100.025 59.157, 97 61.667 M 107.970 94.706 C 103.479 97.801, 102.814 99.291, 105.074 101.195 C 107.257 103.035, 113.978 104.370, 118.357 103.835 C 121.086 103.501, 121.077 103.480, 115.768 98.252 C 110.493 93.055, 110.416 93.020, 107.970 94.706 M 141.310 116.644 C 141.664 116.998, 144.777 118.987, 148.227 121.063 C 154.780 125.008, 155.148 124.954, 156.353 119.873 C 156.906 117.543, 156.624 117.175, 153.863 116.623 C 149.771 115.804, 140.486 115.820, 141.310 116.644 M 155.538 131.750 C 154.072 137.691, 147.466 150.793, 143.157 156.305 C 132.479 169.963, 118.064 175.221, 106.992 169.496 C 102.922 167.391, 100.621 163.648, 101.425 160.441 C 102.335 156.816, 107.763 154.752, 115.294 155.169 L 121.265 155.500 113.383 148.193 C 105.211 140.617, 94.868 133.265, 89.269 131.051 C 84.827 129.294, 81.371 130.408, 79.293 134.264 C 76.552 139.351, 77.180 159.970, 80.682 179.903 L 81.280 183.307 101.890 182.636 C 113.226 182.267, 133.253 181.536, 146.395 181.013 C 159.537 180.489, 170.742 180.341, 171.295 180.682 C 173.490 182.039, 168.881 142.473, 166.207 137.013 C 164.701 133.937, 159.004 129, 156.961 129 C 156.551 129, 155.911 130.238, 155.538 131.750 M 136.450 136.407 C 132.536 138.112, 128.658 142.753, 124.858 150.282 L 121.837 156.266 129.962 155.796 C 138.970 155.275, 142.079 153.717, 145.386 148.071 C 146.993 145.327, 147.105 144.293, 146.145 141.090 C 145.422 138.676, 144.103 136.912, 142.462 136.165 C 141.056 135.524, 139.815 135.018, 139.703 135.039 C 139.591 135.061, 138.128 135.676, 136.450 136.407 M 105.571 159.325 C 103.186 161.068, 103.870 163.818, 107.327 166.394 C 111.777 169.710, 121.903 169.331, 128.699 165.596 C 131.558 164.024, 134.791 161.784, 135.883 160.619 L 137.868 158.500 122.614 158.259 C 111.312 158.080, 106.895 158.356, 105.571 159.325" stroke="none" fill="black" fill-rule="evenodd"/>
</svg>