<svg xmlns="http://www.w3.org/2000/svg" width="200" height="200" viewBox="0 0 200 200" version="1.1">
	<path d="M 96.994 3.896 C 95.615 4.337, 93.140 5.382, 91.494 6.218 C 89.247 7.361, 86.447 7.616, 80.269 7.243 C 65.031 6.322, 62.480 12.035, 74.325 20.553 L 77.150 22.585 75.513 26.677 L 73.875 30.770 63.188 31.412 C 46.766 32.400, 42.967 33.033, 40.868 35.132 C 37.314 38.686, 41.144 41.756, 56.203 47.425 C 61.581 49.449, 62.919 49.654, 63.354 48.519 C 63.729 47.543, 62.329 46.613, 58.695 45.423 C 50.588 42.768, 41.614 37.986, 42.700 36.900 C 43.861 35.739, 58.216 34.018, 66.817 34.008 C 72.927 34, 73.110 34.074, 72.381 36.250 C 71.967 37.487, 70.924 41.722, 70.064 45.660 C 68.867 51.139, 67.873 53.312, 65.829 54.920 C 59.281 60.070, 57.862 76.196, 63.325 83.359 C 65.738 86.523, 66.061 87.748, 65.800 92.749 L 65.500 98.500 50.500 98.500 L 35.500 98.500 28.284 102.356 C 20.751 106.381, 18.690 109.118, 21.257 111.685 C 23.606 114.034, 29.393 114.955, 47.819 115.908 C 57.344 116.401, 65.273 116.961, 65.439 117.152 C 66.124 117.942, 66.691 136, 66.031 136 C 65.636 136, 62.655 135.073, 59.407 133.939 C 56.158 132.806, 51.549 131.794, 49.164 131.689 C 45.527 131.531, 44.438 131.953, 42.414 134.306 C 39.343 137.875, 39.263 142.939, 42.118 153.020 C 43.284 157.134, 44.170 162.750, 44.087 165.500 C 43.452 186.712, 70.639 192.252, 117.313 180.421 L 127.212 177.911 135.297 179.956 C 160.189 186.250, 166.824 178.634, 158.056 153.832 C 152.760 138.848, 149.503 132.744, 144.118 127.707 C 136.577 120.654, 130.464 119.109, 125.127 122.910 C 120.141 126.460, 116.969 135.391, 111.489 161.306 C 110.444 166.249, 109.410 168.973, 108.669 168.732 C 106.562 168.046, 102.834 156.845, 102.282 149.542 C 101.649 141.181, 100.045 143.353, 118.789 127.196 L 132.136 115.691 140.318 114.909 C 144.818 114.478, 152.775 114.096, 158 114.060 C 169.142 113.983, 185.090 112.219, 186.450 110.912 C 187.046 110.340, 186.978 110, 186.269 110 C 185.647 110, 178.469 105.591, 170.319 100.203 C 162.169 94.815, 152.012 88.243, 147.750 85.600 C 143.488 82.956, 140.016 80.502, 140.035 80.146 C 140.055 79.791, 140.714 78.375, 141.500 77 C 144.459 71.824, 143.663 70.727, 134.750 67.685 C 118.970 62.302, 111.522 55.983, 113.974 50.062 L 115.138 47.252 131.819 46.720 C 140.994 46.427, 150.182 45.676, 152.238 45.050 C 159.377 42.877, 159.175 38.286, 151.689 32.577 C 148.294 29.987, 127.953 20, 126.073 20 C 125.511 20, 124.402 18.762, 123.608 17.250 C 121.767 13.741, 115.387 7.666, 111.487 5.707 C 107.658 3.784, 100.246 2.858, 96.994 3.896 M 95.500 7.449 L 92.500 8.808 95.810 9.541 C 97.631 9.944, 103.980 11.900, 109.920 13.887 C 120 17.259, 120.625 17.357, 119.312 15.353 C 117.407 12.446, 111.082 8.171, 106.920 6.977 C 102.377 5.674, 99.122 5.809, 95.500 7.449 M 70.347 11.537 C 69.654 13.344, 71.669 15.795, 75.891 18.282 L 78.916 20.063 80.392 17.209 C 81.204 15.639, 82.573 13.770, 83.434 13.055 C 86.292 10.683, 85.070 10, 77.969 10 C 72.565 10, 70.801 10.356, 70.347 11.537 M 88.484 11.752 C 86.417 13.274, 82 19.195, 82 20.445 C 82 22.163, 98.957 28.586, 107.354 30.048 C 117.382 31.794, 123 29.608, 123 23.959 C 123 21.337, 122.455 21.049, 109.250 16.702 C 93.683 11.578, 89.934 10.684, 88.484 11.752 M 126 24.865 C 126 25.891, 125.032 27.961, 123.848 29.466 L 121.696 32.202 125.598 31.961 C 135.320 31.362, 135.501 33.388, 126.250 39.235 L 119.500 43.500 130.842 43.784 C 142.227 44.068, 152.550 42.850, 154.397 41.003 C 156.289 39.111, 149.620 33.862, 138.389 28.402 C 132.278 25.431, 126.990 23, 126.639 23 C 126.287 23, 126 23.839, 126 24.865 M 78.568 26.869 C 77.705 28.537, 77 30.373, 77 30.950 C 77 31.629, 81.332 31.982, 89.250 31.950 L 101.500 31.900 92.500 28.573 C 87.550 26.743, 82.743 24.929, 81.818 24.542 C 80.583 24.025, 79.718 24.644, 78.568 26.869 M 75.463 35.376 C 74.683 37.694, 72 48.826, 72 49.741 C 72 50.264, 74.362 49.877, 77.250 48.879 C 80.138 47.881, 83.400 47.053, 84.500 47.038 C 91.779 46.940, 101.080 53.415, 104.476 60.946 C 105.844 63.980, 107.140 65.216, 109.887 66.108 C 111.874 66.753, 118.835 69.945, 125.356 73.201 C 131.877 76.457, 137.328 78.982, 137.470 78.811 C 138.244 77.881, 140 74.003, 140 73.224 C 140 72.725, 138.088 71.757, 135.750 71.074 C 127.814 68.752, 117.285 63.088, 114.043 59.396 C 111.260 56.226, 110.884 55.145, 111.171 51.125 L 111.500 46.500 93.250 46.227 C 82.831 46.072, 75 45.555, 75 45.023 C 75 43.238, 82.509 42.706, 98.701 43.345 L 114.999 43.987 119.275 40.744 C 121.627 38.960, 124.577 36.825, 125.831 36 C 127.890 34.645, 125.580 34.488, 101.976 34.376 C 83.426 34.289, 75.731 34.579, 75.463 35.376 M 76.325 52.094 L 71.150 54.084 70.344 60.792 C 69.901 64.481, 69.530 71.754, 69.519 76.953 L 69.500 86.405 72.937 88.729 C 79.150 92.929, 86.417 94.490, 99.500 94.431 C 109.245 94.388, 112.722 93.956, 118 92.132 C 124.565 89.864, 135 83.540, 135 81.829 C 135 80.973, 109.440 68.002, 107.750 68.001 C 107.338 68, 107 70.189, 107 72.865 C 107 81.386, 101.975 85.107, 95.200 81.603 C 93.715 80.835, 89.861 77.440, 86.636 74.058 C 80.993 68.141, 80.837 67.837, 82.507 65.992 C 85.186 63.032, 90.484 61.705, 96.583 62.467 C 99.562 62.839, 102 62.798, 102 62.376 C 102 60.134, 96.231 53.806, 92.573 52.035 C 87.359 49.511, 83.002 49.527, 76.325 52.094 M 65.635 59.163 C 63.575 62.321, 61.757 70.853, 62.481 73.969 C 62.804 75.361, 63.609 77.850, 64.269 79.500 C 65.356 82.218, 65.580 81.327, 66.649 70 C 67.298 63.125, 67.678 57.348, 67.494 57.163 C 67.310 56.978, 66.474 57.878, 65.635 59.163 M 87.250 66.031 C 86.013 66.529, 85 67.379, 85 67.920 C 85 69.712, 95.028 78.969, 97.693 79.638 C 101.932 80.702, 103.464 78.962, 103.798 72.707 L 104.096 67.121 100.298 66.066 C 95.753 64.804, 90.339 64.789, 87.250 66.031 M 134.985 85.516 C 122.796 98.491, 90.476 101.569, 72.250 91.491 L 68 89.141 68 93.932 L 68 98.722 74.039 99.270 C 77.360 99.571, 90.297 99.429, 102.789 98.953 C 132.188 97.835, 152.967 95.599, 153.674 93.477 C 153.942 92.674, 139.253 83, 137.766 83 C 137.536 83, 136.285 84.132, 134.985 85.516 M 147.500 102.612 C 142.550 106.760, 138.050 110.598, 137.500 111.141 C 136.449 112.178, 167.960 111.323, 175.404 110.112 L 179.309 109.477 168.361 102.239 C 162.340 98.257, 157.208 95.016, 156.957 95.035 C 156.705 95.054, 152.450 98.464, 147.500 102.612 M 136.500 99.617 C 131 100.346, 113.338 101.248, 97.250 101.621 L 68 102.299 68 107.972 L 68 113.646 76.108 114.716 C 85.012 115.892, 88.268 117.767, 86.048 120.442 C 85.151 121.523, 84.970 123.601, 85.442 127.385 C 85.921 131.218, 85.684 133.820, 84.624 136.357 C 82.947 140.372, 80.393 141.438, 73.933 140.822 L 69.846 140.432 70.554 149.885 C 71.751 165.841, 70.504 165.676, 86.181 151.956 C 98.965 140.769, 99.965 139.634, 101.412 134.655 C 103.237 128.377, 109.408 120.853, 115.123 117.937 C 117.257 116.849, 121.792 115.243, 125.201 114.370 C 130.341 113.053, 132.816 111.576, 139.700 105.714 C 147.829 98.792, 148.768 97.851, 147.250 98.146 C 146.838 98.226, 142 98.888, 136.500 99.617 M 30.250 104.406 C 23.418 107.719, 21.863 109.179, 23.853 110.409 C 25.537 111.450, 38.752 112.900, 52.250 113.525 L 66 114.161 66 108.639 C 66 105.603, 65.662 102.919, 65.250 102.677 C 64.838 102.434, 58.425 101.933, 51 101.563 L 37.500 100.890 30.250 104.406 M 69 125.809 C 69 136.438, 69.874 138.021, 75.874 138.260 C 82.029 138.506, 83.073 136.708, 82.754 126.409 L 82.500 118.211 78.110 117.606 C 68.542 116.285, 69 115.873, 69 125.809 M 119.382 119.073 C 113.452 121.354, 107.386 126.833, 105.322 131.772 C 104.530 133.667, 104.022 135.355, 104.191 135.524 C 104.432 135.765, 123.121 120.212, 125.746 117.587 C 126.782 116.552, 124.633 117.053, 119.382 119.073 M 128.206 124.556 C 123.426 126.565, 119.782 135.210, 116.012 153.487 C 113.143 167.389, 111.165 173, 109.132 173 C 105.674 173, 100.750 161.470, 100.054 151.747 L 99.500 143.993 89.500 152.652 C 84 157.415, 76.388 164.185, 72.584 167.696 C 67.610 172.289, 65.446 173.722, 64.877 172.801 C 64.381 171.998, 65.048 170.515, 66.664 168.829 L 69.242 166.138 68.121 153.550 C 67.505 146.627, 67 140.557, 67 140.063 C 67 139.568, 64.188 138.239, 60.750 137.109 C 45.351 132.049, 42.382 133.213, 43.309 143.950 C 43.620 147.552, 44.578 152.469, 45.438 154.876 C 46.297 157.282, 47.002 162.007, 47.004 165.376 C 47.009 173.673, 49.318 177.322, 56.776 180.817 C 62.081 183.302, 63.452 183.496, 75.500 183.467 C 89.621 183.432, 97.012 182.408, 115.672 177.903 L 127.844 174.963 135.172 176.927 C 146.488 179.960, 154.015 179.985, 157 177 C 160.876 173.124, 159.058 162.178, 151.709 145.137 C 146.329 132.661, 142.264 127.680, 134.979 124.636 C 131.983 123.384, 131.019 123.373, 128.206 124.556" stroke="none" fill="black" fill-rule="evenodd"/>
</svg>