<svg xmlns="http://www.w3.org/2000/svg" width="200" height="200" viewBox="0 0 200 200" version="1.1">
	<path d="M 81.500 8.477 C 54.640 11.690, 46.007 14.502, 54.409 17.303 C 58.349 18.616, 84.220 17.152, 83.707 15.645 C 83.438 14.854, 79.632 14.567, 71.409 14.716 C 62.764 14.873, 60.459 14.686, 63 14.031 C 70.882 12, 96.536 9.715, 112 9.667 C 133.118 9.600, 137.908 11.309, 131.323 16.559 L 128.646 18.694 130.973 21.962 C 132.253 23.759, 134.515 28.353, 136 32.170 L 138.701 39.111 136.829 45.806 C 134.642 53.627, 128.723 82.060, 126.952 93.250 L 125.726 101 120.403 101 C 115.887 101, 114.696 100.585, 112.540 98.260 C 109.510 94.992, 109.527 95.410, 112.026 86 C 113.121 81.875, 114.279 75.125, 114.599 71 C 115.113 64.353, 114.903 62.965, 112.750 58.799 C 111.415 56.213, 110.588 53.667, 110.914 53.140 C 111.239 52.613, 113.419 51.416, 115.757 50.481 C 130.200 44.702, 126.594 30, 110.733 30 C 106.719 30, 106.312 29.752, 105.177 26.614 C 103.439 21.807, 96.024 13.576, 94.660 14.940 C 93.909 15.691, 94.651 17.105, 97.180 19.751 C 99.151 21.813, 101.318 24.579, 101.996 25.898 C 103.180 28.202, 103.116 28.272, 100.364 27.679 C 98.789 27.340, 90.558 25.487, 82.073 23.561 C 63.008 19.233, 55.559 18.286, 54.470 20.049 C 53.112 22.245, 58.184 25.477, 68.202 28.799 C 79.245 32.461, 95.074 35.422, 98.279 34.426 C 99.817 33.948, 99.123 34.966, 96.021 37.735 L 91.541 41.735 86.173 39.888 C 62.658 31.797, 38 34.424, 38 45.019 C 38 49.877, 43.214 52.883, 53.074 53.709 L 60.046 54.294 57.273 56.004 C 52.005 59.252, 50.494 61.812, 50.572 67.357 C 50.656 73.350, 52.165 76.551, 61.405 90.342 C 69.646 102.640, 69.792 104, 62.874 104 C 60.054 104, 53.764 103.065, 48.896 101.922 L 40.044 99.844 35.424 103.162 C 17.913 115.737, 34.389 122.833, 74.743 120.096 C 84.450 119.438, 97.367 118.057, 103.446 117.029 C 116.137 114.881, 121.658 114.324, 122.446 115.112 C 122.961 115.628, 121.453 142.598, 120.410 151.500 C 119.351 160.546, 116.677 159.961, 107.747 148.728 C 98.943 137.653, 90.412 129.378, 85.194 126.852 C 81.849 125.233, 79.559 124.864, 74.929 125.199 C 67.249 125.754, 66.483 126.582, 69.061 131.546 C 73.467 140.029, 68.651 150.963, 50.594 173.474 C 47.517 177.309, 45 180.973, 45 181.617 C 45 185.430, 53.174 182.196, 75.339 169.612 C 89.143 161.776, 89.172 161.779, 97.474 171.678 C 105.754 181.551, 109.281 184, 115.218 184 C 122.080 184, 127.120 181.072, 136.023 171.915 L 143.644 164.076 149.072 169.659 C 163.449 184.445, 172.175 184.593, 169.161 169.999 C 166.907 159.087, 157.740 138.861, 149.745 127.160 C 147.605 124.028, 146.477 123.123, 145.690 123.910 C 142.650 126.950, 134.256 123.580, 128.500 117.010 L 126.500 114.726 132 115.362 C 135.025 115.712, 142 116.256, 147.500 116.571 C 156.414 117.081, 157.848 116.923, 160.701 115.116 C 167.579 110.760, 169.782 100.057, 167.983 79.743 C 167.338 72.460, 166.627 66.312, 166.403 66.081 C 166.179 65.851, 166.777 64.798, 167.733 63.743 C 171.390 59.702, 170.294 38.043, 165.730 24.130 C 163.585 17.593, 158.553 11, 155.709 11 C 151.490 11, 145.076 20.106, 140.563 32.500 C 139.951 34.182, 139.557 33.774, 138.086 29.940 C 137.124 27.432, 135.497 23.957, 134.469 22.217 C 132.619 19.086, 132.623 19.031, 134.800 16.713 C 137.722 13.603, 137.575 11.423, 134.297 9.273 C 131.969 7.745, 128.893 7.477, 112.047 7.331 C 100.958 7.235, 87.740 7.731, 81.500 8.477 M 151.209 17.414 C 148.321 20.704, 142 35.219, 142 38.561 C 142 39.455, 142.944 44.757, 144.098 50.343 C 149.500 76.488, 145.192 95.856, 132.621 101.941 C 128.843 103.770, 127.951 104.742, 127.411 107.621 C 127.053 109.531, 126.926 111.256, 127.130 111.455 C 127.333 111.654, 133.244 112.520, 140.264 113.378 C 159.310 115.708, 163.014 113.804, 165.209 100.558 C 166.072 95.348, 166.054 90.403, 165.134 80.094 C 164.466 72.617, 163.669 65.305, 163.362 63.845 C 162.910 61.696, 163.156 61.219, 164.652 61.345 C 166.312 61.484, 166.530 60.536, 166.791 52.004 C 167.225 37.825, 163.374 21.386, 158.307 15.787 C 155.993 13.230, 154.604 13.549, 151.209 17.414 M 65 24.662 C 68.575 26.050, 74.856 28.049, 78.958 29.105 C 87.833 31.389, 100.999 32.760, 99.500 31.244 C 98.017 29.744, 63.495 21.813, 59.566 22.070 C 58.980 22.108, 61.425 23.275, 65 24.662 M 113.147 36.569 C 113.771 38.832, 113.792 41.733, 113.204 44.492 L 112.275 48.846 114.888 47.856 C 121.956 45.179, 124.172 38.853, 119.365 35.073 C 117.916 33.933, 115.702 33, 114.446 33 C 112.309 33, 112.225 33.231, 113.147 36.569 M 103.500 35.653 C 101.850 36.519, 98.696 38.963, 96.491 41.085 L 92.482 44.943 82.991 41.766 C 74.290 38.854, 72.404 38.586, 60.325 38.545 C 48.464 38.504, 46.869 38.709, 44.325 40.600 C 40.474 43.463, 40.194 46.426, 43.566 48.635 C 47.255 51.052, 61.301 51.628, 70.500 49.739 C 75.969 48.616, 80.870 48.479, 92.909 49.111 C 101.384 49.557, 108.665 49.707, 109.089 49.445 C 110.511 48.566, 111.259 38.353, 110.065 36.121 C 108.726 33.619, 107.540 33.535, 103.500 35.653 M 136.195 60.250 C 133.003 74.967, 129 96.345, 129 98.675 C 129 102.601, 136.882 97.111, 139.989 91.022 C 142.786 85.539, 144.362 74.812, 143.635 66.209 C 142.846 56.873, 140.874 46, 139.970 46 C 139.593 46, 137.895 52.412, 136.195 60.250 M 75.500 53.598 C 63.822 55.964, 58.377 57.895, 55.625 60.648 C 50.685 65.588, 52.563 72.904, 62.358 86.886 C 71.183 99.482, 72.340 102.517, 69.429 105.429 C 67.296 107.561, 60.559 107.412, 49.600 104.989 L 40.701 103.022 37.299 105.124 C 32.726 107.950, 30.381 111.550, 31.912 113.394 C 35.056 117.183, 57.926 118.968, 79.500 117.109 C 91.066 116.112, 117.912 112.229, 118.865 111.415 C 119.066 111.243, 117.819 109.392, 116.094 107.301 C 113.644 104.332, 112.250 103.500, 109.729 103.500 C 106.594 103.500, 106.500 103.375, 106.500 99.229 C 106.500 95.570, 105.616 93.754, 100.339 86.569 L 94.179 78.181 89.420 80.591 C 86.346 82.147, 82.951 83, 79.831 83 L 75 83 75.006 77.750 C 75.017 67.010, 78.308 61.553, 83.250 64.080 C 84.487 64.713, 87.577 67.241, 90.117 69.697 L 94.733 74.162 98.224 69.831 C 100.145 67.449, 102.983 63.301, 104.532 60.614 C 107.245 55.910, 107.280 55.678, 105.483 54.364 C 104.329 53.520, 100.927 52.996, 96.559 52.989 C 92.676 52.983, 87.925 52.798, 86 52.579 C 84.075 52.359, 79.350 52.818, 75.500 53.598 M 107.671 60.690 C 106.758 62.444, 103.825 66.768, 101.153 70.298 L 96.295 76.716 102.053 84.404 L 107.812 92.093 109.906 83.173 C 112.268 73.111, 112.526 64.934, 110.621 60.500 L 109.332 57.500 107.671 60.690 M 78.975 68.565 C 77.793 71.675, 77.675 81, 78.818 81 C 81.104 81, 89.906 77.818, 90.885 76.638 C 91.768 75.575, 90.941 74.283, 87.048 70.642 C 84.319 68.089, 81.605 66, 81.018 66 C 80.431 66, 79.512 67.154, 78.975 68.565 M 120.139 108.175 C 123.382 112.270, 123.458 112.304, 124.123 109.925 C 125.604 104.624, 125.266 104, 120.916 104 L 116.832 104 120.139 108.175 M 125.487 120.021 C 125.117 120.619, 124.477 128.622, 124.064 137.804 C 122.735 167.345, 119.795 168.067, 100.001 143.715 C 90.288 131.766, 80.961 125.971, 73.926 127.516 C 71.530 128.043, 71.026 128.552, 71.624 129.845 C 72.045 130.755, 72.559 134.200, 72.766 137.500 C 73.105 142.902, 72.741 144.297, 69.114 151.500 C 66.899 155.900, 61.516 164, 57.153 169.500 C 52.790 175, 49.350 179.642, 49.509 179.815 C 49.933 180.279, 60.916 174.639, 73.743 167.371 C 80.954 163.285, 86.112 161, 88.125 161 C 91.385 161, 92.221 161.726, 104.578 175.276 C 110.819 182.120, 114.509 183.195, 121.359 180.165 C 125.848 178.180, 135.259 169.679, 140.143 163.199 L 142.631 159.898 149.837 166.977 C 157.480 174.484, 162.383 177.990, 165.250 177.996 C 170.470 178.007, 163.226 155.434, 151.466 135.047 L 146.939 127.198 143.132 127.709 C 138.821 128.287, 134.927 126.630, 129.593 121.948 C 127.412 120.032, 125.914 119.330, 125.487 120.021" stroke="none" fill="black" fill-rule="evenodd"/>
</svg>