<svg xmlns="http://www.w3.org/2000/svg" width="200" height="200" viewBox="0 0 200 200" version="1.1">
	<path d="M 68 7.603 C 59.468 8.631, 51.480 10.209, 49.571 11.245 C 48.432 11.864, 46.415 12.399, 45.088 12.435 C 41.094 12.543, 41.618 14.692, 46.309 17.441 C 52.646 21.155, 67.965 27.748, 78.858 31.451 L 88.215 34.632 65.643 35.948 C 44.028 37.208, 29.943 36.904, 21.483 34.996 C 19.323 34.509, 17.405 34.262, 17.219 34.447 C 17.034 34.632, 17.523 36.316, 18.305 38.189 C 20.017 42.285, 24.956 46.624, 30.720 49.094 C 35.804 51.273, 48.441 53.988, 53.708 54.032 L 57.500 54.063 54.845 56.046 C 50.774 59.086, 46.247 66.875, 44.430 73.965 C 42.769 80.450, 42.754 99.402, 44.407 103.146 C 45 104.489, 43.878 105.205, 38.317 107.034 C 17.683 113.819, 17.038 118.990, 36.500 121.594 C 39.250 121.962, 40.928 122.469, 40.229 122.722 C 39.530 122.974, 38.281 124.490, 37.453 126.090 C 36.461 128.009, 35.174 129, 33.674 129 C 30.846 129, 29 130.761, 29 133.459 C 29 134.591, 31.533 139.301, 34.628 143.924 C 44.205 158.229, 47.947 169.304, 47.983 183.446 L 48 190.392 51.250 187.308 C 57.508 181.369, 60.339 180.493, 73 180.573 C 83.490 180.640, 86.082 181.073, 102.500 185.499 C 134.979 194.255, 145.942 192.158, 152.146 176 C 153.743 171.840, 154.380 167.409, 154.759 157.813 L 155.261 145.125 159.667 142.340 C 163.911 139.658, 165.902 136.269, 164.535 134.057 C 164.138 133.414, 159.407 133, 152.466 133 L 141.050 133 141.622 130.138 C 141.963 128.436, 141.560 126.050, 140.627 124.246 C 139.079 121.251, 139.014 121.231, 135.280 122.564 C 128.970 124.815, 127.999 124.506, 128.009 120.250 C 128.017 116.543, 128.086 116.478, 134.015 114.630 C 141.542 112.284, 155.607 103.067, 163.615 95.234 C 172.200 86.837, 176.230 80.661, 176.766 75.082 C 177.356 68.943, 175.138 66.908, 166.975 66.098 L 160.943 65.500 156.069 50.918 C 150.860 35.335, 145.771 24.259, 141.476 19.154 C 138.273 15.347, 133.896 14.883, 131.635 18.111 L 130.157 20.221 126.827 17.682 C 118.486 11.319, 104.784 7.987, 85 7.508 C 77.575 7.329, 69.925 7.371, 68 7.603 M 62.148 11.011 C 52.995 12.293, 52.533 12.830, 60.500 12.927 C 67.316 13.010, 67.768 13.180, 77.731 19.419 C 83.358 22.943, 90.333 26.606, 93.231 27.559 C 99.005 29.457, 112.055 36.491, 113.230 38.338 C 115.973 42.649, 112.144 46.948, 103.133 49.678 C 100.035 50.616, 96.938 51.803, 96.250 52.314 C 94.708 53.463, 94.603 56, 96.098 56 C 96.702 56, 100.957 57.864, 105.555 60.142 L 113.914 64.284 105.992 72.752 C 90.620 89.182, 88.782 100, 101.362 100 C 107.329 100, 114.415 96.497, 119.231 91.166 C 125.016 84.763, 125.156 84.192, 124.976 67.684 C 124.811 52.509, 126.190 34.910, 128.111 27.651 C 128.970 24.409, 128.844 23.485, 127.316 21.797 C 124.187 18.339, 117.620 15.079, 109.414 12.910 C 100.406 10.529, 73.352 9.442, 62.148 11.011 M 50.088 16.345 C 51.607 18.061, 80.636 29.774, 87.473 31.430 C 90.408 32.141, 90.422 32.124, 88.609 30.120 C 87.503 28.898, 79.948 25.823, 69.636 22.398 C 60.211 19.267, 51.825 16.475, 51 16.194 C 50.175 15.912, 49.764 15.980, 50.088 16.345 M 62 16.732 C 66.693 18.529, 74 20.840, 74 20.528 C 74 19.234, 66.676 16.014, 63.882 16.079 C 62.022 16.122, 61.175 16.416, 62 16.732 M 133.415 20.489 C 132.022 22.615, 131.957 23.481, 132.998 25.996 C 134.970 30.757, 133.827 40.596, 130.528 47.248 L 127.677 52.997 129.020 61.627 C 130.131 68.771, 130.137 71.397, 129.056 76.878 C 127.570 84.409, 127.488 86.052, 127.785 102.236 L 128 113.972 133.750 111.861 C 141.832 108.894, 155.302 99.749, 163.180 91.880 C 169.406 85.662, 175 77.006, 175 73.590 C 175 70.788, 170.824 69, 164.277 69 C 158.698 69, 158 68.781, 158 67.029 C 158 61.229, 145.885 29.860, 140.990 22.986 C 137.595 18.218, 135.381 17.488, 133.415 20.489 M 129.633 33.663 C 129.285 36.202, 129.047 39.454, 129.105 40.890 C 129.194 43.102, 129.411 42.891, 130.528 39.500 C 132.081 34.788, 132.352 30.336, 131.133 29.582 C 130.656 29.287, 129.981 31.124, 129.633 33.663 M 93.725 32.943 C 93.384 34.246, 92.328 35.029, 90.844 35.079 C 89.453 35.126, 89.110 35.359, 90 35.652 C 95.866 37.584, 98.791 41.713, 97.615 46.400 C 97.017 48.782, 97.088 48.815, 100.751 47.811 C 105.167 46.601, 107.856 45.304, 110.218 43.246 C 112.590 41.177, 111.127 38.812, 106.061 36.527 C 103.827 35.520, 102 34.363, 102 33.957 C 102 33.550, 100.917 32.945, 99.593 32.613 C 98.269 32.280, 96.528 31.756, 95.724 31.448 C 94.805 31.095, 94.063 31.650, 93.725 32.943 M 24.878 42.021 C 31.945 48.442, 51.304 53.030, 64.450 51.400 C 67.777 50.987, 73.186 50.761, 76.469 50.897 C 79.752 51.034, 85.013 50.847, 88.160 50.481 C 93.440 49.869, 93.930 49.595, 94.515 46.931 C 96.342 38.615, 92.964 37.482, 69.713 38.610 C 47.523 39.687, 37.809 39.724, 28 38.772 L 20.500 38.044 24.878 42.021 M 67.998 54.916 C 56.704 55.795, 51.029 60.873, 47.641 73.131 C 44.730 83.664, 44.708 90.411, 47.542 103.675 L 48.220 106.850 40.860 109.037 C 32.534 111.512, 26 114.574, 26 116.001 C 26 117.957, 32.033 118.499, 53.500 118.472 C 80.640 118.439, 103.898 115.829, 97.848 113.498 C 95.882 112.740, 85.111 100.046, 78.970 91.250 C 76.570 87.813, 74.357 85.012, 74.053 85.028 C 73.749 85.043, 72.375 86.605, 71 88.500 C 69.625 90.395, 68.209 91.957, 67.854 91.972 C 67.147 92.003, 63.995 75.877, 63.998 72.250 C 64.002 68.311, 67.581 69.530, 71.122 74.677 L 74.340 79.355 77.203 75.927 C 80.563 71.906, 88.725 59.879, 89.545 57.744 C 89.962 56.657, 88.922 55.966, 85.613 55.133 C 80.944 53.957, 80.390 53.950, 67.998 54.916 M 90.356 61.758 C 89.177 63.816, 85.495 69.296, 82.174 73.935 L 76.136 82.369 81.170 89.652 C 88.226 99.858, 98.684 111.899, 101.678 113.263 C 103.672 114.172, 105.559 114.056, 110.688 112.711 C 116.474 111.193, 117.406 111.171, 119.310 112.505 C 120.484 113.327, 122.245 114, 123.223 114 C 124.831 114, 125 112.812, 125 101.497 L 125 88.994 121.416 92.961 C 116.481 98.424, 107.067 103, 100.763 103 C 96.662 103, 95.361 102.515, 92.923 100.077 C 91.050 98.204, 90.008 96.138, 90.022 94.327 C 90.067 88.536, 95.519 79.609, 105.278 69.346 L 109.228 65.192 106.864 63.884 C 102.186 61.294, 94.778 58, 93.651 58.008 C 93.018 58.012, 91.535 59.699, 90.356 61.758 M 67.492 78 C 68.567 85.391, 68.962 86.277, 70.584 84.930 C 72.623 83.238, 72.344 81.387, 69.419 77.197 L 66.837 73.500 67.492 78 M 111.250 115.265 C 108.912 115.826, 107 116.695, 107 117.197 C 107 118.554, 117.542 123.129, 122.068 123.736 C 125.694 124.222, 125.999 124.078, 125.985 121.882 C 125.960 118.007, 125.079 117.306, 117 114.726 C 116.175 114.462, 113.588 114.705, 111.250 115.265 M 92 119.038 C 89.525 119.471, 82.429 120.156, 76.231 120.561 C 70.033 120.965, 65.157 121.490, 65.395 121.728 C 66.274 122.608, 110.770 130.867, 118.250 131.539 C 125.971 132.232, 126 132.226, 126 129.818 C 126 127.676, 125.337 127.263, 120.192 126.201 C 116.997 125.541, 111.768 123.426, 108.571 121.500 C 102.554 117.877, 100.432 117.562, 92 119.038 M 41.750 125.008 C 40.788 125.608, 40 126.462, 40 126.906 C 40 127.350, 47.537 128.010, 56.750 128.373 C 65.963 128.736, 77.100 129.233, 81.500 129.478 L 89.500 129.923 78 127.415 C 65.062 124.593, 44.595 123.234, 41.750 125.008 M 132.750 126.208 C 129.704 127.013, 129 127.659, 129 129.654 C 129 131.960, 129.290 132.091, 133.750 131.805 C 138.261 131.515, 138.500 131.353, 138.500 128.583 C 138.500 125.170, 137.790 124.877, 132.750 126.208 M 33.250 131.662 C 31.050 132.550, 31.881 134.914, 37.129 142.691 C 45.402 154.951, 48.960 164.127, 50.543 177.287 C 51.231 183.001, 51.268 183.055, 53.480 181.605 C 54.712 180.798, 58.355 179.371, 61.575 178.435 C 70.205 175.926, 80.522 176.985, 101.762 182.560 C 124.201 188.450, 134.305 189.291, 140.995 185.827 C 147.794 182.307, 150.960 175.400, 151.724 162.423 L 152.307 152.500 145.273 159.120 C 139.156 164.877, 129.997 172, 128.713 172 C 128.478 172, 128.037 168.365, 127.732 163.923 C 127.428 159.480, 127.026 155.702, 126.839 155.528 C 126.653 155.354, 121.775 156.310, 116 157.654 C 94.492 162.658, 76.577 161.870, 63.097 155.326 C 57.240 152.483, 44.964 141.442, 40.504 135.006 C 37.895 131.241, 36.214 130.466, 33.250 131.662 M 43.009 134.012 C 49.266 142.800, 59.816 151.326, 69.136 155.127 C 77.922 158.710, 96.021 158.917, 111.898 155.616 C 118.717 154.198, 124.460 152.873, 124.661 152.672 C 124.862 152.471, 119.733 152.037, 113.263 151.708 C 100.396 151.054, 87.496 149.311, 84.750 147.857 C 79.145 144.887, 87.709 140.230, 104.954 136.868 C 111.253 135.640, 115.978 134.511, 115.454 134.359 C 113.814 133.882, 56.240 131, 48.357 131 L 40.864 131 43.009 134.012 M 154 135.892 L 150.500 136.500 153.168 139.103 L 155.836 141.706 158.918 139.755 C 160.613 138.682, 162 137.173, 162 136.402 C 162 134.940, 160.157 134.822, 154 135.892 M 111 138.490 C 101.582 140.103, 91.296 142.781, 88.111 144.450 C 85.801 145.660, 86.013 145.792, 92.085 146.919 C 95.613 147.574, 104.912 148.376, 112.750 148.702 L 127 149.294 126.989 146.897 C 126.983 145.579, 126.699 142.813, 126.358 140.750 C 125.771 137.196, 125.549 137.005, 122.119 137.103 C 120.129 137.159, 115.125 137.783, 111 138.490 M 129 142.031 C 129 145.729, 129.426 147.226, 130.606 147.679 C 132.348 148.348, 146.737 145.533, 150.621 143.763 C 152.868 142.739, 152.913 142.562, 151.357 140.842 C 149.077 138.322, 143.747 137.012, 135.750 137.006 L 129 137 129 142.031 M 139.250 151.175 L 130 154.140 130.070 158.820 C 130.199 167.396, 130.837 167.777, 136.956 162.940 C 142.899 158.243, 151 150.098, 151 148.821 C 151 147.599, 149.407 147.918, 139.250 151.175" stroke="none" fill="black" fill-rule="evenodd"/>
</svg>