<svg xmlns="http://www.w3.org/2000/svg" width="200" height="200" viewBox="0 0 200 200" version="1.1">
	<path d="M 87.500 10.668 C 70.506 12.077, 63.067 13.354, 57.783 15.771 C 54.639 17.209, 51.824 19.017, 51.528 19.787 C 50.168 23.331, 68.167 34.001, 81 37.258 C 86.393 38.627, 86.090 38.669, 65.500 39.376 C 37.198 40.348, 31.860 41.730, 37.435 46.646 C 40.205 49.088, 56.981 54.963, 61.502 55.074 C 64.361 55.144, 64.302 55.223, 60.239 56.784 C 56.755 58.123, 55.798 59.067, 54.994 61.961 C 52.748 70.048, 54.002 77.761, 60.563 96.195 C 63.161 103.493, 63.217 104.020, 61.654 106.406 C 58.993 110.466, 53.590 111.337, 35.681 110.591 L 19.861 109.933 22.681 113.498 C 26.564 118.410, 34.438 123.559, 40.932 125.432 C 44.417 126.438, 50.368 127, 57.543 127 L 68.722 127 67.709 130.796 C 66.334 135.946, 68.290 139.897, 73.500 142.495 C 77.091 144.285, 78.984 144.444, 92 144.048 C 129.773 142.900, 132.547 143.193, 131.237 148.200 C 130.829 149.763, 130.170 150.047, 128.110 149.552 C 122.359 148.169, 96.233 147.754, 89.411 148.938 C 75.702 151.317, 69 156.097, 69 163.496 C 69 170.421, 74.466 176.618, 88.409 185.501 L 94.318 189.265 116.909 188.709 C 147.762 187.950, 167.287 184.685, 170.378 179.769 C 171.995 177.197, 169.623 175.380, 162 173.353 C 157.478 172.151, 152.913 171.738, 147 171.996 C 127.680 172.840, 110.104 172.507, 108.874 171.275 C 107.163 169.563, 116.340 165.488, 125.426 163.925 C 134.726 162.325, 151.525 163.293, 160.878 165.968 C 164.936 167.128, 168.448 167.885, 168.684 167.650 C 168.919 167.414, 168.432 164.584, 167.601 161.361 C 166.375 156.609, 161 128.994, 161 127.450 C 161 127.221, 158.750 125.894, 156 124.500 C 151.066 122, 149.532 120, 152.548 120 C 153.399 120, 156.259 117.836, 158.904 115.192 C 167.640 106.455, 168.716 100.253, 169.120 56.293 L 169.426 23.094 166.355 19.297 C 163.089 15.260, 161.271 14.464, 157.482 15.415 C 154.294 16.215, 149.684 25.875, 146.941 37.500 C 143.936 50.240, 143.992 50.176, 142.044 43 C 141.073 39.425, 139.320 34.034, 138.148 31.019 L 136.017 25.538 139.008 23.196 C 141.067 21.585, 142 19.978, 142 18.041 C 142 14.470, 138.035 12.430, 128.379 11.034 C 122.035 10.117, 96.863 9.892, 87.500 10.668 M 81 13.953 C 68.313 15.271, 63 16.155, 63 16.947 C 63 17.712, 75.012 19, 82.151 19 C 84.906 19, 86 19.426, 86 20.500 C 86 21.519, 84.957 22.011, 82.750 22.033 C 80.428 22.057, 82.484 23.045, 89.954 25.496 C 95.704 27.382, 100.571 28.762, 100.770 28.563 C 100.969 28.364, 100.622 26.311, 100 24 C 99.378 21.689, 99.131 19.536, 99.451 19.216 C 100.539 18.128, 102.072 20.661, 103.288 25.555 C 104.495 30.414, 104.529 30.445, 111.500 33.037 C 127.322 38.920, 133.219 44.083, 128.546 47.961 C 126.138 49.961, 118.247 51.933, 109.856 52.632 C 105.501 52.996, 101.674 53.718, 101.353 54.239 C 101.031 54.759, 102.367 56.502, 104.320 58.113 C 106.274 59.723, 109.139 63.619, 110.686 66.770 C 113.208 71.906, 113.501 73.555, 113.510 82.676 L 113.520 92.852 119.318 97.926 C 122.507 100.717, 125.436 103, 125.826 103 C 126.216 103, 128.195 101.873, 130.222 100.495 C 134.514 97.578, 134.708 97.013, 139.221 74.235 L 142.444 57.970 140.661 49.235 C 139.680 44.431, 137.429 36.877, 135.660 32.449 L 132.443 24.399 136.292 21.659 C 138.408 20.152, 139.971 18.412, 139.764 17.791 C 139.557 17.170, 137.613 15.997, 135.444 15.184 C 130.882 13.475, 93.697 12.634, 81 13.953 M 157.188 18.812 C 152.093 23.907, 145.114 52.531, 145.073 68.500 C 145.045 79.270, 143.460 86.407, 139.409 94 C 137.175 98.189, 134.036 107.207, 134.011 109.508 C 134.005 110.062, 136.919 112.496, 140.488 114.915 L 146.975 119.315 151.072 117.467 C 156.389 115.070, 161.240 109.324, 163.503 102.746 C 165.050 98.251, 165.414 92.278, 166.048 61 C 166.854 21.296, 166.935 22.024, 161.290 18.276 C 159.381 17.009, 158.933 17.067, 157.188 18.812 M 55.586 22.095 C 58.158 24.937, 74.123 32.567, 81.460 34.461 C 84.738 35.308, 89.251 36, 91.488 36 C 95.678 36, 100.814 33.373, 99.334 31.986 C 96.922 29.724, 62.302 20.021, 56.595 20.007 C 53.709 20, 53.703 20.014, 55.586 22.095 M 100.997 35.503 L 98.629 38.024 102.064 37.446 C 109.790 36.147, 110.546 35.884, 108.986 35.043 C 105.035 32.914, 103.338 33.011, 100.997 35.503 M 109.074 43.500 L 103.966 50 107.651 50 C 113.226 50, 123.639 47.985, 125.646 46.517 C 127.189 45.389, 127.239 44.993, 126.025 43.530 C 124.832 42.092, 115.942 37, 114.625 37 C 114.381 37, 111.884 39.925, 109.074 43.500 M 102 40.074 C 98.975 40.528, 84.511 41.368, 69.859 41.941 C 55.206 42.515, 42.173 43.370, 40.896 43.843 C 38.577 44.701, 38.577 44.703, 40.667 45.822 C 41.818 46.438, 46.246 48.080, 50.507 49.471 C 58.980 52.236, 64.356 52.509, 87.313 51.338 L 100.125 50.685 104.621 44.842 C 107.094 41.629, 108.753 39.056, 108.308 39.125 C 107.864 39.193, 105.025 39.621, 102 40.074 M 76.757 54.984 C 68.285 56.499, 59.044 60.049, 57.872 62.238 C 55.759 66.187, 57.359 79.655, 61.052 89 C 63.360 94.842, 64.424 99.202, 64.455 102.944 C 64.497 108.005, 64.268 108.545, 61.200 110.628 C 56.917 113.535, 49.260 114.441, 36.136 113.592 L 25.610 112.912 27.482 114.980 C 30.635 118.465, 41.219 123.039, 48.574 124.097 C 52.383 124.645, 58.745 124.796, 62.710 124.433 L 69.920 123.772 74.945 116.886 C 77.708 113.099, 80.313 110.013, 80.734 110.028 C 81.156 110.044, 82.935 112.430, 84.690 115.331 L 87.879 120.605 98.190 118.811 C 104.071 117.789, 112.794 117.072, 118.496 117.142 L 128.492 117.267 129.431 113.992 C 130.248 111.145, 130.065 110.471, 128.028 108.821 C 126.095 107.256, 124.883 107.062, 121.093 107.712 C 115.199 108.723, 103.223 108.449, 100.022 107.231 L 97.544 106.287 100.743 104.633 C 104.179 102.856, 109 96.584, 109 93.891 C 109 92.987, 104.251 87.849, 98.447 82.474 L 87.894 72.702 85.116 76.030 C 81.467 80.401, 80.621 78.841, 82.085 70.436 L 83.241 63.796 85.290 65.846 L 87.339 67.895 91.601 62.199 C 94.540 58.269, 95.487 56.293, 94.653 55.826 C 92.504 54.623, 81.633 54.112, 76.757 54.984 M 94.032 63.457 C 91.814 66.459, 90 69.345, 90 69.872 C 90 71.076, 109.025 89, 110.303 89 C 111.962 89, 110.548 71.858, 108.570 68 C 106.391 63.749, 101.082 58, 99.335 58 C 98.636 58, 96.249 60.456, 94.032 63.457 M 141.158 79 C 141.158 80.375, 141.385 80.938, 141.662 80.250 C 141.940 79.563, 141.940 78.438, 141.662 77.750 C 141.385 77.063, 141.158 77.625, 141.158 79 M 140.079 83.583 C 140.127 84.748, 140.364 84.985, 140.683 84.188 C 140.972 83.466, 140.936 82.603, 140.604 82.271 C 140.272 81.939, 140.036 82.529, 140.079 83.583 M 108.239 101.187 L 104.979 106.258 112.991 105.794 C 117.397 105.539, 121.258 105.076, 121.569 104.764 C 122.269 104.065, 113.882 96.037, 112.500 96.083 C 111.950 96.102, 110.033 98.398, 108.239 101.187 M 130.072 103.946 C 127.694 105.739, 127.691 105.764, 129.725 106.853 C 131.528 107.818, 131.840 107.621, 132.300 105.225 C 132.588 103.726, 132.744 102.418, 132.647 102.318 C 132.550 102.219, 131.391 102.951, 130.072 103.946 M 131.960 115.604 C 131.178 117.661, 131.240 118.536, 132.211 119.152 C 133.428 119.924, 142 120.377, 142 119.670 C 142 119.488, 139.975 117.885, 137.499 116.107 L 132.998 112.874 131.960 115.604 M 76.977 118.533 L 73.754 123.217 78.127 122.496 C 84.730 121.407, 85.099 120.957, 82.492 117.174 L 80.200 113.849 76.977 118.533 M 113 119.470 C 112.175 119.666, 107.450 120.375, 102.500 121.046 C 88.570 122.935, 88.823 122.614, 95.543 129.873 C 102.288 137.158, 105.397 139, 110.950 139 C 114.305 139, 115.644 138.352, 118.750 135.229 C 122.349 131.609, 127.878 121.545, 126.839 120.505 C 126.185 119.852, 114.942 119.011, 113 119.470 M 127.196 127.365 C 125.610 130.739, 122.980 134.915, 121.354 136.644 L 118.395 139.788 124.160 140.205 C 130.775 140.684, 134 142.899, 134 146.964 C 134 152.175, 132.284 153.118, 125 151.906 C 115.048 150.250, 92.614 150.573, 85.557 152.474 C 66.476 157.614, 66.901 168.118, 86.714 181.070 C 93.261 185.350, 94.648 185.847, 101.714 186.451 C 119.341 187.959, 165.171 182.769, 167.499 179.001 C 168.389 177.562, 157.197 174.723, 150.512 174.691 C 147.205 174.676, 137.525 175.022, 129 175.462 C 115.767 176.144, 112.942 176.026, 109.681 174.653 C 106.427 173.282, 105.910 172.646, 106.181 170.345 C 106.569 167.062, 112.277 163.882, 121.431 161.848 C 129.602 160.033, 149.748 160.264, 157.994 162.267 C 161.566 163.135, 164.630 163.703, 164.804 163.530 C 164.977 163.356, 164.009 157.878, 162.652 151.357 C 161.295 144.836, 159.879 137.157, 159.505 134.293 C 158.827 129.109, 158.796 129.072, 152.263 125.481 C 146.877 122.520, 145.051 121.985, 142.062 122.490 C 140.059 122.828, 136.544 122.683, 134.251 122.168 L 130.081 121.231 127.196 127.365 M 77.302 125.263 C 72.803 126.129, 71.962 126.670, 71.052 129.281 C 69.533 133.638, 69.754 136.471, 71.750 138.246 C 75.530 141.606, 86.297 142.848, 98.714 141.356 L 103.927 140.730 100.103 137.960 C 98 136.436, 94.105 132.672, 91.449 129.595 C 86.285 123.614, 86.125 123.565, 77.302 125.263" stroke="none" fill="black" fill-rule="evenodd"/>
</svg>