<svg xmlns="http://www.w3.org/2000/svg" width="200" height="200" viewBox="0 0 200 200" version="1.1">
	<path d="M 135.500 9.620 C 122.463 10.260, 105.584 12.138, 81.803 15.593 C 68.769 17.486, 54.256 19.064, 49.553 19.098 C 41.808 19.155, 41 19.342, 41 21.080 C 41 22.136, 41.349 23, 41.776 23 C 42.203 23, 42.383 24.779, 42.176 26.954 C 41.466 34.394, 48.739 38.143, 63.878 38.143 C 73.895 38.143, 81.156 36.590, 83.560 33.934 C 87.081 30.043, 83.339 27.107, 70.480 23.674 L 61.500 21.276 75.500 20.567 C 110.099 18.815, 129.867 24.571, 136.357 38.289 C 141.010 48.124, 142.148 69.671, 138.899 86.415 C 137.540 93.419, 137.623 109.561, 139.049 115.548 C 140.921 123.411, 147.351 135.746, 154.661 145.500 C 162.061 155.374, 174.001 172.898, 173.998 173.880 C 173.997 174.221, 168.709 174.529, 162.248 174.565 C 153.667 174.612, 146.926 175.353, 137.243 177.315 C 121.129 180.579, 117 180.750, 117 178.153 C 117 176.111, 128.244 162.446, 132.439 159.390 C 134.595 157.819, 135.207 156.398, 135.674 151.871 C 136.401 144.828, 134.826 139.920, 130.193 134.792 C 125.810 129.941, 119.987 126.914, 108.790 123.668 C 99.844 121.075, 95.989 119.429, 96.015 118.215 C 96.054 116.403, 97.914 115.233, 103 113.821 C 107.982 112.437, 108.474 112.052, 108.225 109.728 C 107.988 107.521, 108.796 106.698, 114.017 103.831 C 118.125 101.575, 120.312 99.693, 120.792 98 C 121.181 96.625, 121.457 89.875, 121.405 83 C 121.330 73.189, 120.718 67.919, 118.559 58.500 C 114.530 40.919, 107.602 24.228, 104.496 24.615 C 102.001 24.926, 101.754 28.086, 103.499 37.359 C 105.547 48.235, 105.155 49.450, 98.752 52.103 C 95.970 53.255, 95.536 53.189, 94.574 51.468 C 92.198 47.219, 87.187 43.127, 82.940 41.966 C 74.463 39.650, 38.107 42.825, 30.997 46.502 C 24.785 49.714, 28.439 53.181, 40.598 55.609 C 44.944 56.476, 49.564 57.391, 50.865 57.641 C 52.998 58.051, 52.803 58.311, 48.873 60.298 C 38.611 65.485, 37.192 75.960, 45.163 87.687 C 48.992 93.320, 55.788 98.730, 62.417 101.425 L 67.877 103.644 56.213 104.860 C 43.719 106.162, 30.653 108.580, 27.770 110.123 C 25.109 111.547, 25.614 114.752, 28.750 116.348 C 31.434 117.713, 40.943 120.261, 48.041 121.517 C 51.171 122.071, 51.777 122.693, 53.260 126.869 C 56.262 135.323, 63.305 145.242, 78.817 162.864 C 82.867 167.465, 89.383 175.283, 93.297 180.239 L 100.414 189.249 103.725 185.374 C 109.655 178.435, 113.250 169.892, 113.250 162.738 C 113.250 152.309, 109.309 146.294, 92.750 131.449 C 84.952 124.457, 84.263 122.027, 89.224 119.010 C 92.244 117.173, 92.505 117.159, 93.348 118.775 C 94.929 121.804, 97.160 122.939, 108.475 126.471 C 126.890 132.220, 133 138.064, 133 149.931 C 133 155.152, 132.892 155.342, 125.679 162.865 C 116.267 172.680, 114 175.735, 114 178.600 C 114 181.199, 116.598 183, 120.347 183 C 121.710 183, 129.953 181.627, 138.663 179.949 C 157.271 176.365, 168.951 175.832, 173.972 178.336 C 176.070 179.383, 177.725 179.675, 178.300 179.100 C 179.625 177.775, 172.989 165.908, 164.700 154.777 C 153.605 139.880, 146.299 128.416, 144.024 122.335 C 140.570 113.102, 139.505 102.604, 140.982 92.333 C 142.812 79.607, 143.606 62.748, 142.814 53.459 C 140.802 29.867, 128.672 20.017, 99.500 18.286 C 86.669 17.524, 88.023 17.029, 109.597 14.592 C 128.387 12.470, 146.656 12.479, 151.989 14.612 C 158.640 17.274, 158.458 21.167, 151.310 29.078 L 147.786 32.979 147.406 73.240 C 147.063 109.528, 147.197 113.985, 148.763 118.419 C 149.724 121.141, 151.679 124.206, 153.141 125.282 C 155.432 126.970, 156.249 127.073, 159.316 126.061 C 161.261 125.419, 164.910 123.322, 167.426 121.401 L 172 117.908 172 109.511 C 172 104.892, 172.934 92.426, 174.075 81.807 C 177.877 46.421, 176.016 27.782, 167.738 18.354 C 161.151 10.852, 153.367 8.743, 135.500 9.620 M 159.038 17.071 C 160.550 19.897, 158.982 24.095, 154.264 29.853 L 150.526 34.415 150.023 60.458 C 149.084 109.072, 149.627 118.484, 153.598 122.455 C 155.915 124.772, 158.272 124.350, 163.641 120.657 L 168.500 117.313 168.766 110.907 C 168.912 107.383, 169.902 95.725, 170.967 85 C 174.069 53.738, 174.281 49.090, 173.019 40 C 171.536 29.326, 168.843 22.994, 163.878 18.508 C 159.453 14.511, 157.331 13.881, 159.038 17.071 M 44.975 25.565 C 42.600 31.812, 50.220 35.555, 65 35.402 C 74.718 35.301, 82.824 33.142, 81.504 31.006 C 79.846 28.323, 58.944 23, 50.068 23 C 46.568 23, 45.804 23.385, 44.975 25.565 M 105.082 30.222 C 105.037 31.168, 105.740 35.311, 106.644 39.427 C 108.189 46.457, 108.184 47.070, 106.560 49.549 C 105.609 51, 102.844 53.066, 100.416 54.140 C 97.987 55.215, 96 56.419, 96 56.817 C 96 59.357, 100.663 73.566, 103.541 79.796 L 106.974 87.226 103.489 90.711 C 100.053 94.147, 100.027 94.237, 101.662 97.005 C 102.713 98.785, 103.867 99.605, 104.810 99.243 C 105.974 98.796, 106.161 99.221, 105.668 101.187 C 105.321 102.571, 105.321 103.988, 105.669 104.336 C 106.018 104.684, 108.888 103.548, 112.049 101.810 C 117.029 99.072, 117.874 98.175, 118.386 95.076 C 120.163 84.338, 118.118 65.670, 113.339 49 C 110.733 39.912, 105.217 27.366, 105.082 30.222 M 47.200 45.636 C 41.535 46.406, 35.460 47.647, 33.700 48.395 L 30.500 49.754 33.500 50.977 C 42.350 54.585, 71.147 56.990, 83.848 55.183 C 87.890 54.607, 91.460 53.874, 91.781 53.552 C 92.819 52.514, 88.459 47.552, 84.929 45.752 C 80.659 43.574, 62.779 43.520, 47.200 45.636 M 81.500 57.927 L 74.500 58.500 82.250 60.335 C 86.513 61.345, 90 62.648, 90 63.232 C 90 63.816, 88.450 66.186, 86.555 68.498 L 83.110 72.702 87.105 76.601 C 89.302 78.745, 92.726 82.862, 94.716 85.750 C 96.705 88.638, 98.566 91, 98.852 91 C 99.137 91, 100.391 90.042, 101.637 88.871 L 103.903 86.742 101.597 82.121 C 98.907 76.731, 96.737 70.786, 94.526 62.750 C 93.174 57.837, 92.621 57.026, 90.722 57.177 C 89.500 57.274, 85.350 57.611, 81.500 57.927 M 57 60.640 C 47.355 62.459, 43 66.493, 43 73.610 C 43 82.434, 51.481 93.571, 61.824 98.329 C 68.415 101.361, 81.612 101.373, 88 98.353 C 90.475 97.183, 93.381 95.550, 94.457 94.725 C 96.378 93.251, 96.362 93.145, 93.562 88.914 C 91.993 86.543, 88.709 82.465, 86.263 79.851 L 81.818 75.098 76.819 79.049 C 71.726 83.075, 68.349 83.949, 66.200 81.800 C 64.136 79.736, 64.816 75.094, 67.588 72.321 C 69.944 69.965, 70.682 69.786, 75.838 70.318 C 81.332 70.886, 81.566 70.809, 83.737 67.734 C 85.387 65.397, 85.649 64.390, 84.737 63.898 C 81.030 61.901, 62.103 59.678, 57 60.640 M 70.223 73.557 C 67.472 75.483, 67.167 80, 69.788 80 C 70.771 80, 73.134 78.663, 75.038 77.029 C 77.931 74.546, 78.253 73.892, 77 73.044 C 74.869 71.604, 72.785 71.762, 70.223 73.557 M 93.500 98.539 L 89.500 100.990 93 100.925 C 94.925 100.889, 97.299 100.543, 98.277 100.157 C 99.766 99.569, 99.847 99.183, 98.777 97.772 C 97.596 96.215, 97.199 96.273, 93.500 98.539 M 70 106.045 C 46.272 108.657, 30.507 111.159, 29.136 112.530 C 27.795 113.871, 32.190 115.234, 51.672 119.521 C 53.119 119.840, 54.240 121.251, 55.030 123.750 C 57.922 132.899, 64.578 142.477, 81.958 162.500 C 87.210 168.550, 93.530 176.104, 96.003 179.286 L 100.500 185.073 102.772 182.286 C 104.022 180.754, 106.145 177.250, 107.492 174.500 C 114.175 160.846, 110.819 151.075, 94.552 136.816 C 80.569 124.559, 79.868 120.471, 90.839 115.156 C 94.076 113.588, 98.330 111.024, 100.293 109.458 C 103.174 107.159, 103.675 106.262, 102.896 104.805 C 101.689 102.550, 101.766 102.548, 70 106.045" stroke="none" fill="black" fill-rule="evenodd"/>
</svg>