<svg xmlns="http://www.w3.org/2000/svg" width="200" height="200" viewBox="0 0 200 200" version="1.1">
	<path d="M 99 7.562 C 93.225 8.381, 81.933 10.402, 73.906 12.054 C 65.879 13.706, 58.540 14.761, 57.596 14.399 C 56.374 13.929, 55.721 14.353, 55.324 15.870 C 55.017 17.042, 54.369 18, 53.883 18 C 53.398 18, 53 19.090, 53 20.422 C 53 23.232, 58.712 28.533, 66.622 33.065 C 70.824 35.473, 72.894 36, 78.148 36 C 87.617 36, 101.176 34.098, 103.773 32.405 C 105.884 31.030, 106.622 31.222, 114.054 35.089 C 124.338 40.439, 128.405 44.122, 127.452 47.222 C 127.067 48.475, 126.634 49.636, 126.490 49.802 C 126.347 49.968, 122.780 49.792, 118.564 49.410 L 110.899 48.715 113.542 45.956 C 114.995 44.439, 116.026 42.375, 115.833 41.370 C 115.172 37.938, 111.065 37.596, 87.070 38.974 C 74.400 39.702, 60.201 40.003, 55.517 39.643 C 48.546 39.107, 47 39.244, 47 40.398 C 47 42.498, 64.498 43.346, 81.500 42.069 C 89.200 41.491, 99.438 41.014, 104.250 41.009 C 114.224 40.999, 115.342 42.112, 109.690 46.423 C 106.673 48.724, 104.798 49.086, 88.530 50.511 C 51.097 53.790, 40.591 52.461, 37.278 44.025 C 35.574 39.688, 34 38.740, 34 42.050 C 34 49.199, 41.366 54.084, 53.211 54.792 L 60.921 55.252 57.770 57.376 C 53.447 60.289, 50.227 67.086, 48.999 75.885 C 47.998 83.062, 48.043 83.367, 50.587 86.704 C 57.083 95.219, 67.053 99.336, 81 99.262 C 91.239 99.207, 100.307 96.999, 108.850 92.482 L 115.199 89.125 114.511 92.794 C 113.488 98.248, 112.401 99.695, 108.778 100.429 C 106.975 100.794, 91.100 101.453, 73.500 101.895 C 40.533 102.722, 35.972 103.315, 33.979 107.039 C 32.502 109.798, 32.799 113.852, 34.716 117.096 C 36.304 119.785, 36.878 120.002, 42.466 120.026 C 50.957 120.062, 59.764 123.394, 71.442 130.989 C 83.558 138.868, 86.961 139.368, 92.425 134.072 C 95.613 130.982, 100.488 122.280, 104.370 112.750 C 105.586 109.765, 106.430 109, 108.508 109 C 109.944 109, 110.883 109.381, 110.595 109.846 C 110.308 110.311, 109.796 113.799, 109.458 117.596 C 109.119 121.393, 108.080 130.350, 107.148 137.500 L 105.454 150.500 97.977 154.357 C 78.859 164.219, 66.644 179.522, 72.615 186.131 C 74.194 187.878, 75.273 188.125, 79.259 187.654 C 85.339 186.936, 97.588 180.577, 109.472 171.969 C 117.880 165.880, 118.852 165.422, 120.593 166.729 C 131.106 174.625, 164.116 184.450, 172.500 182.178 C 175.836 181.274, 176.840 178.438, 175.025 175.047 C 173.471 172.143, 161.345 163.251, 149 155.964 C 129.356 144.367, 119.663 136.140, 115.096 127.187 L 113.006 123.091 116.773 124.420 C 118.845 125.151, 123.006 126.080, 126.020 126.485 C 130.970 127.150, 132.129 127.824, 138 133.455 C 145.541 140.687, 150.495 142.866, 155.079 140.967 C 165.382 136.700, 170.138 118.445, 169.922 84 C 169.815 67.087, 170.041 63.969, 171.623 60.500 C 173.073 57.318, 173.452 53.923, 173.473 43.902 C 173.500 31.453, 173.459 31.224, 170 24.454 C 167.064 18.709, 165.754 17.221, 161.873 15.230 C 157.754 13.117, 156.788 12.980, 153.066 13.982 C 150.768 14.601, 147.137 16.688, 145 18.619 L 141.112 22.131 140.072 18.268 C 138.900 13.914, 134.968 9.689, 130.500 7.980 C 125.713 6.150, 110.394 5.946, 99 7.562 M 100.500 10.090 C 87.957 11.858, 71 15.243, 71 15.978 C 71 16.400, 72.729 17.021, 74.841 17.359 C 88.603 19.559, 116.426 31.393, 124.907 38.652 C 127.211 40.624, 129.224 42.072, 129.380 41.869 C 129.537 41.666, 131.585 37.900, 133.931 33.500 C 137.566 26.682, 138.125 24.861, 137.712 21.174 C 137.096 15.667, 133.301 11.565, 127.461 10.094 C 122.499 8.845, 109.344 8.843, 100.500 10.090 M 152 17.115 C 150.625 17.659, 147.588 19.974, 145.250 22.260 L 141 26.416 141 37.072 C 141 51.023, 142.168 56.742, 147.095 66.903 C 157.781 88.944, 152.220 101.885, 126.346 115.192 C 120.669 118.111, 116.019 120.791, 116.012 121.146 C 116.006 121.501, 120.107 122.547, 125.126 123.469 C 133.112 124.937, 134.580 125.536, 136.876 128.266 C 142.570 135.036, 148.023 138.990, 151.673 138.996 C 155.209 139.002, 159.725 134.350, 161.946 128.414 C 166.272 116.853, 168.724 92.230, 167.242 75.246 C 166.562 67.456, 166.713 65.282, 168.196 61.507 C 172.813 49.754, 172.508 34.882, 167.444 24.890 C 163.673 17.448, 158.168 14.676, 152 17.115 M 57.026 19.914 C 55.780 20.743, 55.934 21.301, 58.024 23.525 C 59.383 24.972, 63.138 27.761, 66.368 29.724 L 72.241 33.291 84.871 32.675 C 97.732 32.048, 102 31.379, 102 29.989 C 102 29.057, 85.139 23.605, 76 21.580 C 66.508 19.478, 58.712 18.793, 57.026 19.914 M 134.229 38.474 C 132.430 42.131, 131.235 45.571, 131.573 46.118 C 132.513 47.640, 131.194 51.735, 129.124 53.722 C 126.663 56.084, 123.010 67.428, 121.923 76.083 L 121.049 83.049 126.891 88.891 C 133.844 95.844, 136.911 102.424, 134.930 106.140 C 133.741 108.371, 133.777 108.421, 135.586 107.054 C 145.456 99.596, 149.399 93.174, 149.434 84.500 C 149.455 79.444, 148.731 76.927, 144.835 68.500 C 139.225 56.369, 138.928 55.203, 138.132 42.162 L 137.500 31.824 134.229 38.474 M 85 53.558 C 78.125 54.269, 72.275 54.889, 72 54.935 C 71.725 54.982, 73.779 56.081, 76.565 57.378 C 79.351 58.676, 83.216 61.129, 85.153 62.829 C 87.090 64.530, 91.786 67.076, 95.588 68.486 C 99.389 69.896, 105.650 73.038, 109.500 75.468 C 113.350 77.897, 116.802 79.574, 117.172 79.193 C 117.542 78.812, 118.147 76.855, 118.516 74.844 C 119.128 71.511, 118.830 70.830, 115.142 67.142 C 112.917 64.917, 107.925 61.619, 104.049 59.813 C 100.172 58.007, 97 56.289, 97 55.996 C 97 55.703, 98.237 54.696, 99.750 53.758 L 102.500 52.053 100 52.159 C 98.625 52.217, 91.875 52.847, 85 53.558 M 104.375 53.786 L 102.251 55.617 107.482 58.356 C 110.359 59.862, 114.418 62.657, 116.503 64.567 C 118.588 66.477, 120.357 67.918, 120.434 67.770 C 121.513 65.685, 124.799 53.466, 124.390 53.056 C 124.085 52.750, 119.935 52.377, 115.168 52.227 C 107.948 52, 106.145 52.260, 104.375 53.786 M 57.569 61.358 C 54.181 64.950, 52.505 69.403, 51.437 77.647 C 50.786 82.670, 50.872 82.906, 54.978 87.360 C 61.087 93.988, 67.730 96.333, 80.500 96.369 C 93.800 96.407, 105.496 92.827, 113.951 86.130 C 115.982 84.521, 116.187 83.930, 115.146 82.676 C 113.477 80.665, 101.594 73.746, 96.223 71.658 L 91.946 69.995 93.473 72.948 C 95.523 76.912, 95.399 78.601, 92.871 81.129 C 91.028 82.972, 89.987 83.178, 85.121 82.662 C 79.350 82.051, 70.364 79.398, 69.539 78.063 C 69.284 77.650, 69.536 75.644, 70.099 73.604 C 71.313 69.207, 75.846 66.009, 80.872 66.004 C 83.707 66.001, 84.053 65.768, 83.040 64.548 C 80.411 61.381, 71.702 58, 66.172 58 C 61.299 58, 60.408 58.348, 57.569 61.358 M 77.242 69.494 C 74.567 70.657, 71.112 75.503, 72.222 76.536 C 73.263 77.505, 84.061 80, 87.213 80 C 91.759 80, 92.795 78.333, 90.976 73.942 C 88.611 68.232, 83.760 66.661, 77.242 69.494 M 118.577 87.136 C 118.331 87.886, 117.697 90.678, 117.167 93.340 C 116.272 97.837, 116.339 98.145, 118.101 97.684 C 121.317 96.843, 121.283 98.855, 118.012 102.984 L 114.885 106.933 117.497 107.589 C 121.472 108.586, 129.955 107.473, 131.704 105.724 C 133.925 103.504, 132.746 99.985, 127.736 93.875 C 122.567 87.571, 119.238 85.122, 118.577 87.136 M 105.648 103.685 C 105.272 104.062, 90.459 104.660, 72.732 105.014 C 55.004 105.368, 39.700 106.013, 38.722 106.447 C 35.740 107.769, 34.741 110.687, 36.216 113.769 C 37.400 116.245, 38.174 116.560, 44.511 117.147 C 53.964 118.022, 60.747 120.776, 72.453 128.494 C 77.880 132.072, 83.313 135, 84.525 135 C 89.585 135, 94.727 128.466, 100.427 114.795 L 103.885 106.500 107.942 106.586 C 111.244 106.657, 112 106.331, 112 104.836 C 112 103.487, 111.249 103, 109.167 103 C 107.608 103, 106.025 103.308, 105.648 103.685 M 113.956 110.912 C 113.932 111.235, 113.562 113.307, 113.134 115.516 L 112.354 119.532 120.927 115.121 C 125.642 112.695, 129.574 110.662, 129.665 110.605 C 129.755 110.547, 126.268 110.460, 121.915 110.412 C 117.562 110.364, 113.980 110.589, 113.956 110.912 M 111.027 128 C 110.977 128.825, 110.290 134.225, 109.500 140 C 108.710 145.775, 108.049 150.985, 108.032 151.577 C 108.014 152.170, 103.838 154.734, 98.750 157.274 C 84.455 164.412, 74 175, 74 182.338 C 74 184.770, 74.340 185, 77.940 185 C 83.375 185, 97.066 177.844, 109.551 168.477 C 115.023 164.372, 119.785 161.010, 120.133 161.006 C 120.482 161.003, 120.978 161.810, 121.237 162.799 C 122.818 168.843, 166.132 182.823, 172.403 179.314 C 174.017 178.411, 173.956 178.101, 171.615 175.319 C 168.548 171.674, 158.278 164.547, 143.646 155.908 C 127.678 146.481, 119.093 138.933, 112.309 128.357 C 111.386 126.919, 111.097 126.838, 111.027 128" stroke="none" fill="black" fill-rule="evenodd"/>
</svg>