<svg xmlns="http://www.w3.org/2000/svg" width="200" height="200" viewBox="0 0 200 200" version="1.1">
	<path d="M 120 10.685 C 117.525 10.870, 105.825 11.957, 94 13.101 C 82.175 14.245, 69.575 15.252, 66 15.340 C 59.852 15.491, 59.484 15.636, 59.206 18.013 C 58.697 22.374, 69.344 36.142, 71.970 34.518 C 72.702 34.066, 71.540 32.146, 68.688 29.097 C 64.081 24.173, 61.485 20.181, 62.336 19.331 C 64.654 17.013, 82.105 21.610, 97.500 28.593 L 103.500 31.315 100.058 32.070 C 98.166 32.486, 93.082 33.139, 88.761 33.521 C 83.551 33.982, 81.040 34.601, 81.305 35.358 C 81.815 36.817, 92.068 36.360, 101.353 34.464 C 107.832 33.141, 108.429 33.178, 112.281 35.143 C 119.779 38.969, 115.781 39.500, 79.500 39.500 C 47.842 39.500, 46.311 39.587, 41.849 41.650 C 37.090 43.850, 35.379 46.469, 36.466 49.891 C 37.188 52.169, 40.485 52.759, 61.500 54.376 L 76.500 55.530 70 57.867 C 56.829 62.603, 51.012 67.713, 51.004 74.554 C 50.998 79.597, 55.509 86.944, 65.008 97.358 C 69.954 102.780, 74 108.046, 74 109.061 C 74 111.785, 68.320 112.988, 55.434 112.994 C 38.291 113.003, 29 115.349, 29 119.670 C 29 123.144, 42.455 128.191, 58 130.548 C 75.549 133.209, 88.861 132.158, 98.013 127.389 C 101.758 125.438, 110.715 123, 114.136 123 C 115.185 123, 115.258 127.095, 114.235 128.532 C 113.831 129.099, 110.534 131.005, 106.908 132.767 C 94.761 138.669, 86.666 147.861, 85.385 157.206 C 84.109 166.520, 88.840 173.577, 101.760 181.629 C 113.775 189.118, 121.909 190.464, 136.792 187.427 C 159.892 182.713, 174.621 167.867, 171.144 152.802 C 170.479 149.921, 168.832 145.682, 167.484 143.382 C 165.400 139.827, 163.898 138.728, 157.453 136.045 C 153.284 134.309, 146.865 132.206, 143.187 131.371 C 130.357 128.457, 128.471 127.864, 125.994 125.961 C 122.791 123.500, 123.914 123.504, 136.785 126.003 C 142.442 127.101, 149.163 128, 151.720 128 C 161.036 128, 167.389 122.653, 171.113 111.679 C 172.543 107.463, 172.770 104.362, 172.333 95 C 171.990 87.637, 172.373 78.148, 173.398 68.621 C 176.354 41.166, 175.093 26.448, 169.154 19.070 C 166.091 15.265, 160.998 12.313, 156.648 11.822 C 153.863 11.508, 153.659 11.827, 148.029 25.353 C 142.373 38.939, 142.248 39.134, 141.559 35.461 C 141.172 33.401, 141.165 28.416, 141.543 24.384 C 141.921 20.352, 141.950 15.936, 141.607 14.571 C 140.603 10.570, 135.017 9.565, 120 10.685 M 102 15.008 C 91.825 16.041, 82.600 16.944, 81.500 17.013 C 80.400 17.083, 84.009 18.184, 89.520 19.460 C 104.411 22.909, 110.932 26.073, 111.049 29.905 C 111.080 30.946, 116.149 33.982, 125.635 38.644 L 140.172 45.787 139.336 39.644 C 138.494 33.457, 138.548 22.216, 139.437 18.492 C 139.701 17.387, 139.502 15.812, 138.995 14.992 C 137.625 12.773, 123.941 12.779, 102 15.008 M 153.154 20.224 C 151.622 23.676, 148.854 30.289, 147.003 34.920 L 143.638 43.340 145.433 47.920 C 146.420 50.439, 147.681 57.225, 148.235 63 C 150.790 89.660, 143.860 106.203, 128.327 110.518 C 125.122 111.408, 121.938 112.317, 121.250 112.537 C 120.105 112.904, 119.821 113.948, 119.583 118.653 C 119.515 120.005, 121.956 120.729, 133 122.632 C 156.982 126.764, 161.505 125.782, 166.635 115.335 C 169.352 109.802, 169.486 108.905, 169.233 98 C 169.085 91.675, 169.693 78.930, 170.583 69.677 C 172.715 47.517, 172.226 30.016, 169.320 24.500 C 166.733 19.590, 164.535 17.539, 159.683 15.512 L 155.940 13.948 153.154 20.224 M 99 26.164 C 106.450 29.512, 108 30.008, 108 29.047 C 108 28.091, 97.776 23.950, 95.712 24.071 C 95.046 24.109, 96.525 25.051, 99 26.164 M 114.585 43.884 C 112.613 46.570, 111 49.045, 111 49.384 C 111 49.723, 112.077 50, 113.393 50 C 116.741 50, 131.333 46.959, 132.290 46.061 C 133.177 45.229, 122.066 39, 119.695 39 C 118.857 39, 116.557 41.198, 114.585 43.884 M 46.500 42.894 C 37.580 45.149, 36.521 49.059, 44.511 50.233 C 52.375 51.389, 99.089 52.268, 103.273 51.338 C 106.192 50.690, 107.585 49.595, 109.427 46.500 L 111.809 42.500 80.654 42.318 C 63.519 42.218, 48.150 42.477, 46.500 42.894 M 132.199 49.049 C 128.734 50.051, 122.038 51.530, 117.320 52.336 C 108.600 53.825, 105.575 55.626, 108.649 57.500 C 119.279 63.981, 124.195 70.553, 124.814 79.108 L 125.257 85.226 131.515 67.863 C 134.957 58.313, 138.098 49.712, 138.494 48.750 C 138.890 47.788, 139.053 47.051, 138.857 47.113 C 138.661 47.176, 135.665 48.047, 132.199 49.049 M 136.242 62.750 C 130.300 79, 123.385 100.431, 122.415 105.602 L 121.726 109.274 125.613 108.552 C 134.149 106.966, 139.910 101.683, 143.662 92 C 145.946 86.105, 146.284 57.357, 144.129 52.250 C 143.374 50.462, 142.423 49, 142.013 49 C 141.604 49, 139.007 55.188, 136.242 62.750 M 101 54.393 C 101 55.342, 103.993 55.820, 104.527 54.956 C 104.852 54.430, 104.191 54, 103.059 54 C 101.927 54, 101 54.177, 101 54.393 M 83.866 56.868 L 81.232 57.500 87.357 68.176 C 90.726 74.047, 93.658 78.675, 93.874 78.459 C 94.269 78.064, 103 58.894, 103 58.421 C 103 58.280, 100.728 57.678, 97.951 57.083 C 92.540 55.923, 88.092 55.855, 83.866 56.868 M 68.415 61.366 C 57.774 65.323, 54 68.954, 54 75.238 C 54 79.650, 57.736 85.339, 67.870 96.357 C 75.829 105.011, 77.812 108.441, 76.633 111.513 C 75.639 114.105, 71.366 114.978, 57.190 115.488 C 41.145 116.064, 35.733 116.744, 33.355 118.483 C 31.777 119.636, 31.927 119.911, 35.004 121.502 C 44.326 126.323, 63.593 129.503, 79.257 128.806 C 88.376 128.400, 90.434 127.955, 96.219 125.137 C 99.912 123.338, 105.152 121.688, 108.152 121.380 C 111.093 121.078, 114.075 120.653, 114.778 120.436 C 116.893 119.783, 111.161 112.056, 108.106 111.441 C 106.673 111.153, 101.452 109.901, 96.504 108.660 C 84.664 105.688, 84.098 103.878, 94.465 102.136 C 98.609 101.439, 102 100.415, 102 99.859 C 102 99.304, 100.158 95.694, 97.906 91.839 L 93.812 84.828 91.500 87 C 86.130 92.045, 82.227 84.908, 77.419 61.250 C 76.860 58.499, 76.102 58.508, 68.415 61.366 M 100.644 70.543 C 98.090 76.341, 96 81.589, 96 82.205 C 96 82.821, 98.076 86.865, 100.613 91.193 C 105.669 99.816, 105.946 99.923, 112.708 95.831 C 120.327 91.219, 124.005 83.445, 122.032 76.120 C 120.355 69.890, 110.637 60, 106.193 60 C 105.695 60, 103.198 64.744, 100.644 70.543 M 81.025 64 C 81.037 67.026, 85.084 81.479, 86.543 83.706 C 88.396 86.534, 89.605 86.606, 91.014 83.974 C 91.921 82.279, 91.195 80.363, 86.558 72.224 C 83.512 66.876, 81.022 63.175, 81.025 64 M 119.453 93.503 C 117.227 95.779, 113.557 98.509, 111.297 99.571 L 107.188 101.500 109.278 105.250 C 111.093 108.506, 111.844 109, 114.984 109 L 118.599 109 121.313 99.346 C 122.805 94.037, 123.908 89.619, 123.763 89.529 C 123.618 89.439, 121.679 91.228, 119.453 93.503 M 98 104.246 L 94.500 105.311 98.500 106.578 C 100.700 107.276, 103.748 107.881, 105.273 107.923 C 108.004 107.999, 108.021 107.962, 106.408 105.500 C 104.637 102.797, 103.378 102.609, 98 104.246 M 115.207 113.960 C 116.090 115.374, 116.645 115.583, 117.200 114.710 C 118.452 112.740, 118.122 112, 115.992 112 C 114.247 112, 114.144 112.258, 115.207 113.960 M 117.717 125.686 C 117.048 129.170, 117.093 129.213, 120.983 128.821 L 124.157 128.500 121.207 125.686 L 118.258 122.873 117.717 125.686 M 117.620 132.289 C 116.112 133.391, 115.846 135.332, 115.780 145.701 C 115.711 156.585, 115.949 158.315, 118.102 162.618 C 121.160 168.730, 124.405 170.019, 129.767 167.252 C 135.371 164.361, 138.256 159.538, 137.695 154 C 136.911 146.252, 134.423 137.125, 132.524 135.026 C 129.330 131.498, 120.836 129.937, 117.620 132.289 M 135.636 134.849 C 137.437 137.597, 139.858 146.631, 140.698 153.741 C 141.680 162.043, 133.699 171, 125.321 171 C 120.942 171, 118.125 168.962, 115.261 163.721 C 113.822 161.088, 113.500 157.991, 113.500 146.763 C 113.500 133.487, 113.433 133.046, 111.500 133.641 C 103.775 136.018, 93.309 144.665, 90.079 151.338 C 86.587 158.550, 87.572 165.768, 92.814 171.373 C 97.214 176.079, 109.761 183.743, 115.201 185.048 C 121.894 186.654, 134.682 185.748, 143.193 183.065 C 151.653 180.398, 161.568 173.774, 165.460 168.190 C 169.451 162.463, 169.708 153.954, 166.110 146.645 C 164.012 142.384, 162.941 141.441, 157.342 138.929 C 150.609 135.908, 146.162 134.530, 138.566 133.111 L 133.931 132.245 135.636 134.849" stroke="none" fill="black" fill-rule="evenodd"/>
</svg>