<svg xmlns="http://www.w3.org/2000/svg" width="200" height="200" viewBox="0 0 200 200" version="1.1">
	<path d="M 165.519 12.332 C 162.208 15.814, 156.364 23.441, 152.532 29.280 C 148.699 35.119, 145.469 39.802, 145.353 39.687 C 144.847 39.181, 140 16.946, 140 15.131 C 140 14.024, 139.555 12.843, 139.011 12.507 C 138.466 12.170, 126.654 12.641, 112.761 13.554 C 98.867 14.466, 83.450 14.982, 78.500 14.700 C 73.550 14.418, 67.369 14.671, 64.764 15.262 C 60.493 16.232, 59.966 16.664, 59.404 19.662 C 58.550 24.215, 59.461 27.182, 62.730 30.490 C 67.152 34.966, 73.528 37.300, 82.694 37.799 C 91.772 38.293, 96 37.619, 96 35.678 C 96 34.705, 94.611 34.556, 90.250 35.064 C 78.013 36.489, 65.233 32.163, 62.504 25.671 C 60.106 19.969, 61.618 19, 72.909 19 C 83.343 19, 86.457 19.759, 98.197 25.164 C 102.888 27.324, 104.984 28.860, 105.197 30.295 C 105.558 32.733, 107.690 33.722, 108.166 31.672 C 108.410 30.622, 110.930 31.713, 117.500 35.711 C 127.261 41.651, 131 44.660, 131 46.576 C 131 48.298, 126.269 49.754, 118.034 50.565 C 110.006 51.356, 110.111 51.498, 112.679 43.350 C 114.584 37.307, 114.183 36.209, 110.837 38.302 C 108.976 39.466, 102.087 39.890, 77 40.383 C 44.322 41.025, 38 41.756, 38 44.892 C 38 47.628, 41.081 49.859, 49.157 52.973 C 56.317 55.733, 56.787 55.783, 68 54.960 C 74.325 54.495, 85.495 54.089, 92.823 54.058 C 105.008 54.005, 106.114 54.150, 105.764 55.750 C 105.553 56.712, 104.895 57.404, 104.301 57.287 C 95.019 55.455, 89.325 55.103, 83.148 55.979 C 63.163 58.813, 49.837 70.093, 47.482 86.166 L 46.798 90.833 57.282 95.940 C 68.227 101.272, 76 106.293, 76 108.031 C 76 109.959, 70.860 110.991, 53.803 112.489 C 30.588 114.527, 25.997 117.241, 33.156 124.691 C 39.330 131.116, 40.309 131.329, 60.961 130.744 C 71.157 130.455, 80.400 129.873, 81.500 129.449 C 84.909 128.138, 79.112 133.881, 74.790 136.097 C 69.924 138.593, 66.165 138.504, 63.314 135.826 L 61 133.651 61 136.171 C 61 141.269, 75.815 160.960, 88.712 173.004 C 95.871 179.690, 105.013 185.969, 107.621 185.991 C 108.299 185.996, 109.020 182.814, 109.446 177.929 C 110.345 167.622, 112.218 161.380, 115.961 156.213 C 119.684 151.073, 124.905 149.154, 130.309 150.937 C 140.851 154.416, 147 165.926, 147 182.178 C 147 187.030, 147.243 191, 147.540 191 C 149.509 191, 156.912 186.140, 160.675 182.378 C 167.584 175.469, 170.439 168.355, 170.458 158 C 170.477 147.607, 167.789 140.688, 161.713 135.486 C 153.213 128.210, 142.958 128.049, 128.046 134.955 C 117.644 139.773, 111.966 140.518, 107.577 137.642 C 104.595 135.688, 99.399 128.267, 100.349 127.318 C 101.105 126.562, 113.167 124.704, 132.038 122.437 L 145.576 120.811 149.605 124.841 C 159.228 134.463, 165.716 129.743, 169.669 110.244 C 170.720 105.058, 171.483 93.250, 171.979 74.500 C 172.576 51.931, 173.143 44.366, 174.903 35.500 C 177.558 22.128, 178.090 10.026, 176.128 7.657 C 173.808 4.857, 171.771 5.754, 165.519 12.332 M 167.965 13.250 C 165.705 15.588, 159.826 23.528, 154.900 30.896 L 145.943 44.293 146.722 51.896 C 147.150 56.078, 147.500 68.083, 147.500 78.573 C 147.500 97.032, 147.423 97.759, 145.116 101.126 C 138.948 110.128, 123.235 114.282, 109.163 110.632 L 103.890 109.264 100.578 113.602 C 97.203 118.021, 96.708 122.567, 99.485 123.633 C 100.157 123.890, 104.935 123.428, 110.103 122.605 C 115.271 121.782, 125.685 120.399, 133.245 119.532 L 146.990 117.954 151.324 122.477 C 153.767 125.028, 156.572 127, 157.756 127 C 165.013 127, 168.637 109.844, 169.584 71 C 169.924 57.051, 170.767 43.485, 171.543 39.500 C 175.141 21.014, 175.722 9, 173.018 9 C 172.499 9, 170.225 10.912, 167.965 13.250 M 110.250 16.323 C 101.313 16.858, 94 17.609, 94 17.990 C 94 18.371, 95.845 19.236, 98.101 19.912 C 100.357 20.588, 103.619 22.475, 105.351 24.105 C 107.083 25.736, 113.450 30.158, 119.500 33.932 C 125.550 37.706, 131.349 41.930, 132.387 43.319 C 136.229 48.461, 131.890 51.635, 118.867 53.209 C 106.155 54.746, 104.902 56.656, 113.112 61.976 C 115.924 63.798, 119.411 67.006, 120.862 69.106 C 122.313 71.206, 123.793 72.941, 124.150 72.962 C 124.508 72.983, 128.902 66.511, 133.916 58.579 L 143.032 44.158 140.484 32.329 C 139.082 25.823, 137.669 19.262, 137.343 17.750 C 136.659 14.577, 138.107 14.653, 110.250 16.323 M 76 42.968 C 37.902 43.702, 35.208 44.445, 49.568 50.256 L 55.636 52.712 81.395 51.946 C 95.562 51.524, 107.277 51.027, 107.428 50.840 C 107.905 50.251, 110 43.741, 110 42.851 C 110 42.383, 109.438 42.081, 108.750 42.181 C 108.063 42.280, 93.325 42.635, 76 42.968 M 134.643 62.520 C 125.872 76.369, 125.798 76.539, 126.749 80.718 L 127.708 84.936 123.024 86.492 C 118.810 87.892, 117.719 88.965, 112.140 97.193 C 107.697 103.745, 106.245 106.645, 107.019 107.419 C 107.665 108.065, 112.604 108.498, 119.300 108.496 C 129.057 108.492, 131.114 108.187, 135.266 106.128 C 143.912 101.841, 144.441 100.330, 144.754 79.007 C 144.904 68.828, 144.682 57.809, 144.261 54.520 L 143.497 48.540 134.643 62.520 M 80.500 59.021 C 70.256 61.075, 60.158 67.038, 55.099 74.023 C 51.387 79.146, 48.836 89.116, 51.050 89.843 C 55.859 91.423, 72.307 100.639, 75.440 103.509 C 82.951 110.389, 78.166 113.372, 57 115.005 C 31.613 116.965, 28.353 118.818, 38.242 125.666 C 42.276 128.458, 42.535 128.498, 55.918 128.367 C 72.407 128.206, 85.799 126.474, 88.358 124.172 C 89.380 123.252, 91.077 121.292, 92.129 119.816 C 93.970 117.234, 93.984 116.666, 92.521 104.846 C 91.684 98.089, 91 91.968, 91 91.245 C 91 90.254, 90.522 90.185, 89.066 90.965 C 83.842 93.761, 79.223 91.432, 75.536 84.142 C 73.331 79.785, 74.017 77.426, 78.994 72.246 C 85.539 65.435, 89.635 66.895, 91.855 76.828 C 92.387 79.208, 93.082 81.415, 93.399 81.732 C 93.716 82.049, 96.279 77.487, 99.094 71.594 C 101.909 65.701, 104.018 60.684, 103.780 60.446 C 102.921 59.588, 92.634 58.002, 88.614 58.110 C 86.351 58.170, 82.700 58.580, 80.500 59.021 M 103.101 69.718 C 101.276 73.963, 98.350 79.701, 96.598 82.468 L 93.415 87.500 94.691 99.500 C 96.415 115.702, 96.163 114.984, 98.811 111.265 L 101.099 108.053 98.987 105.197 C 95.002 99.806, 98.990 94.061, 110.639 88.415 C 116.779 85.439, 117.803 84.508, 120.636 79.329 C 122.341 76.211, 122.324 76.089, 119.666 72.071 C 116.983 68.018, 109.750 62, 107.560 62 C 106.933 62, 104.927 65.473, 103.101 69.718 M 79.981 75.023 C 76.247 79.739, 76.449 82.249, 80.966 87.258 C 83.809 90.409, 83.970 90.456, 86.695 88.937 C 89.326 87.470, 89.490 86.995, 89.333 81.275 C 89.033 70.366, 85.527 68.022, 79.981 75.023 M 122.204 82.045 C 121.431 83.283, 121.365 84, 122.023 84 C 122.595 84, 123.329 83.306, 123.655 82.457 C 124.555 80.111, 123.583 79.836, 122.204 82.045 M 108 92.739 C 103.598 95.618, 100 99.327, 100 100.987 C 100 102.602, 101.825 105, 103.053 105 C 103.413 105, 105.801 101.850, 108.361 98 C 112.963 91.079, 112.859 89.563, 108 92.739 M 93.015 122.972 C 92.090 124.701, 92.230 125, 93.965 125 C 95.084 125, 96 124.352, 96 123.559 C 96 121.168, 94.173 120.809, 93.015 122.972 M 92.500 127.798 C 89.503 128.043, 87.497 129.073, 84.500 131.907 C 78.483 137.596, 74.505 140.018, 69.881 140.807 L 65.703 141.521 73.248 151.510 C 84.327 166.181, 103.438 183.895, 105.722 181.611 C 106.097 181.237, 106.704 178.133, 107.071 174.715 C 108.007 165.994, 109.489 161.198, 112.918 155.790 C 122.009 141.455, 140.583 147.044, 147.650 166.239 C 148.512 168.583, 149.507 174.293, 149.859 178.928 L 150.500 187.357 155.997 182.870 C 159.652 179.888, 162.501 176.416, 164.497 172.513 C 167.185 167.258, 167.499 165.689, 167.493 157.571 C 167.485 147.061, 165.576 142.269, 159.357 137.143 C 151.654 130.794, 142.290 131.030, 128.013 137.934 C 118.700 142.438, 112.246 143.213, 106.931 140.464 C 103.831 138.861, 98 131.643, 98 129.409 C 98 127.658, 97.171 127.416, 92.500 127.798" stroke="none" fill="black" fill-rule="evenodd"/>
</svg>