<svg xmlns="http://www.w3.org/2000/svg" width="200" height="200" viewBox="0 0 200 200" version="1.1">
	<path d="M 100.536 7.083 C 96.705 7.608, 88.605 9.116, 82.536 10.434 C 76.466 11.751, 68.760 13.043, 65.412 13.305 C 62.064 13.567, 57.936 14.499, 56.239 15.376 C 54.542 16.254, 49.969 17.268, 46.077 17.629 C 41.559 18.049, 39 18.726, 39 19.500 C 39 21.556, 67.193 31.847, 81 34.830 C 84.371 35.558, 82.230 35.666, 72.471 35.258 C 65.305 34.959, 56.890 35.033, 53.771 35.423 C 47.380 36.221, 41.653 39.514, 41.198 42.652 C 40.539 47.192, 49.900 51.909, 62.789 53.532 L 68.079 54.198 63.789 56.924 C 56.379 61.633, 50.200 70.071, 48.543 77.747 C 47.181 84.059, 51.587 91.289, 58.500 94.087 C 60.150 94.754, 66.450 95.575, 72.500 95.911 L 83.500 96.521 69.743 98.400 C 54.314 100.507, 37.341 100.200, 28.246 97.652 L 22.993 96.179 24.746 99.207 C 27.634 104.193, 39.405 115.494, 45.656 119.282 C 67.121 132.290, 90.458 130.280, 107.470 113.958 C 112.981 108.671, 114.060 108.077, 120 107.059 C 123.575 106.446, 128.440 105.234, 130.811 104.366 C 133.182 103.498, 135.360 103.027, 135.652 103.319 C 136.904 104.571, 133.970 107.489, 122.605 116.293 C 116.628 120.923, 117.886 122.827, 128.343 124.978 C 133.611 126.062, 134.129 126.393, 133.607 128.340 C 133.288 129.528, 133.021 130.838, 133.014 131.250 C 133.006 131.662, 118.938 132.025, 101.750 132.056 C 69.576 132.115, 64.867 132.614, 62.629 136.205 C 61.177 138.536, 64.664 142.146, 72.728 146.661 L 78.956 150.148 90.228 149.015 C 96.428 148.392, 107.668 148.021, 115.207 148.191 L 128.913 148.500 126.494 155.420 C 123.781 163.180, 119.364 169.341, 116.174 169.816 C 114.649 170.043, 111.491 167.705, 104.954 161.510 C 96.557 153.553, 95.575 152.911, 92.211 153.194 C 89.161 153.450, 87.956 154.314, 84.812 158.500 C 82.511 161.564, 78.913 164.696, 75.523 166.587 C 62.079 174.087, 58.811 179.218, 65.250 182.712 C 73.147 186.998, 157.051 184.714, 169.178 179.884 C 172.402 178.600, 173.278 176.753, 171.681 174.606 C 171.032 173.732, 164.161 169.914, 156.413 166.122 C 142.369 159.246, 135.473 154.451, 134.030 150.555 C 133.302 148.592, 133.804 148.446, 145.243 147.291 C 162.769 145.522, 168.253 141.808, 165.218 133.766 C 164.561 132.026, 164.402 130.355, 164.865 130.052 C 165.327 129.748, 165.969 125.225, 166.292 120 C 166.615 114.775, 168.112 103.075, 169.619 94 C 171.858 80.520, 172.373 74.206, 172.430 59.500 C 172.492 43.596, 172.243 40.682, 170.291 34.479 C 167.571 25.837, 162.065 17.769, 155.483 12.784 C 152.743 10.709, 150.235 9.008, 149.910 9.005 C 149.586 9.002, 148.662 15.412, 147.858 23.250 C 146.512 36.362, 146.332 37.101, 145.606 32.500 C 143.256 17.607, 138.596 11.064, 128.118 7.944 C 122.962 6.408, 108.703 5.964, 100.536 7.083 M 96.965 10.464 C 92.271 11.230, 85.985 12.475, 82.997 13.232 L 77.564 14.609 81.975 16.373 C 84.400 17.344, 87.536 18.943, 88.942 19.927 C 90.349 20.912, 94.650 22.744, 98.500 23.999 C 107.265 26.857, 117.680 32.018, 121.979 35.636 C 128.394 41.034, 128.902 47.329, 123.140 50.006 C 119.436 51.726, 109.638 52.302, 102.250 51.234 C 98.813 50.738, 96 50.407, 96 50.501 C 96 50.594, 100.042 53.689, 104.983 57.378 C 115.557 65.274, 119.545 70.901, 118.753 76.807 C 118.259 80.489, 118.298 80.536, 125.227 84.487 C 134.067 89.527, 138.345 94.197, 137.761 98.172 C 137.528 99.762, 137.666 100.711, 138.069 100.281 C 138.471 99.852, 139.792 91.926, 141.003 82.669 C 142.812 68.850, 143.136 62.316, 142.818 46.169 C 142.477 28.865, 142.180 25.959, 140.351 22 C 136.149 12.905, 130.125 9.848, 115.500 9.388 C 110 9.214, 101.659 9.699, 96.965 10.464 M 151.590 16.250 C 149.610 26.193, 146.575 62.100, 146.541 76 C 146.501 92.093, 146.429 92.644, 143.637 98.336 C 140.781 104.157, 140.778 104.181, 142.542 108.092 C 143.673 110.602, 147.463 114.710, 153.071 119.506 C 157.890 123.628, 162.030 127, 162.270 127 C 162.510 127, 162.994 123.601, 163.345 119.447 C 163.696 115.293, 165.129 104.606, 166.529 95.697 C 171.366 64.913, 171.526 46.647, 167.074 33.711 C 164.852 27.258, 162.390 23.302, 157.140 17.750 C 153.024 13.397, 152.202 13.175, 151.590 16.250 M 68 16.916 C 66.073 17.484, 67.087 17.830, 72.424 18.425 C 76.233 18.849, 80.058 19.384, 80.924 19.613 C 81.791 19.842, 81.150 19.401, 79.500 18.632 C 75.346 16.698, 70.961 16.044, 68 16.916 M 47 21 C 48.939 22.253, 50 22.253, 50 21 C 50 20.450, 48.987 20.007, 47.750 20.015 C 45.931 20.028, 45.787 20.216, 47 21 M 53.533 21.298 C 50.607 22.603, 50.737 22.677, 63.033 26.738 C 77.391 31.479, 85.851 33.294, 91.423 32.828 C 96.276 32.422, 96.796 31.100, 93.598 27.298 C 91.440 24.735, 89.885 24.131, 81.806 22.723 C 67.728 20.270, 57.047 19.732, 53.533 21.298 M 97.381 27.468 C 97.721 28.310, 98.235 29.575, 98.522 30.279 C 99.580 32.870, 96.485 35.159, 90.951 35.878 L 85.500 36.587 90.845 37.340 C 93.785 37.755, 98.172 37.797, 100.595 37.433 C 104.134 36.903, 105 37.067, 105 38.270 C 105 39.372, 103.311 39.948, 98.596 40.453 C 85.979 41.804, 85.961 46.007, 98.565 47.882 C 113.117 50.046, 125 48.565, 125 44.586 C 125 40.326, 115.044 33.126, 102.131 28.047 C 97.728 26.315, 96.873 26.211, 97.381 27.468 M 48.500 39.460 C 46.300 40.290, 44.388 40.977, 44.250 40.985 C 44.112 40.993, 44 41.891, 44 42.980 C 44 48.304, 61.333 52.120, 76.697 50.180 C 81.940 49.518, 86.619 48.735, 87.095 48.442 C 87.570 48.148, 87.410 47.028, 86.739 45.954 C 85.779 44.416, 85.779 43.584, 86.739 42.046 C 87.637 40.609, 87.660 39.908, 86.829 39.395 C 86.208 39.010, 78.230 38.528, 69.100 38.323 C 56.023 38.029, 51.651 38.270, 48.500 39.460 M 86.500 51.448 C 82.900 52.516, 82.725 52.710, 84.751 53.385 C 88.020 54.475, 91.943 60.116, 93.955 66.620 L 95.709 72.287 105.104 75.643 C 110.272 77.488, 114.838 78.999, 115.250 78.999 C 116.543 79.001, 116.067 73.031, 114.540 70.077 C 112.933 66.969, 106.970 61.778, 97 54.807 C 90.653 50.369, 90.406 50.290, 86.500 51.448 M 67.453 57.914 C 58.470 63.066, 51.073 73.313, 51.022 80.673 C 50.993 84.806, 54.770 89.266, 60.246 91.568 C 63.584 92.970, 67.085 93.337, 76.500 93.271 C 87.315 93.194, 89.335 92.880, 96.962 90.085 C 101.617 88.380, 107.228 85.791, 109.433 84.332 L 113.441 81.680 107.265 79.370 C 95.725 75.055, 96 75.017, 96 80.892 C 96 83.701, 95.701 86, 95.335 86 C 94.322 86, 79.868 77.953, 76.750 75.653 C 73.666 73.378, 73.140 70.267, 75.674 69.295 C 76.595 68.942, 80.485 69.190, 84.319 69.848 C 88.153 70.505, 91.479 70.854, 91.711 70.623 C 92.891 69.443, 89.416 61.216, 86.510 58.310 C 83.584 55.384, 82.579 55.001, 77.850 55.009 C 73.789 55.017, 71.284 55.716, 67.453 57.914 M 78.915 73.802 C 80.244 74.736, 83.986 77.005, 87.231 78.845 L 93.132 82.190 92.816 78.405 C 92.513 74.774, 92.296 74.567, 87.500 73.329 C 84.750 72.619, 81.150 72.054, 79.500 72.072 L 76.500 72.105 78.915 73.802 M 144.158 82 C 144.158 83.375, 144.385 83.938, 144.662 83.250 C 144.940 82.563, 144.940 81.438, 144.662 80.750 C 144.385 80.063, 144.158 80.625, 144.158 82 M 112.350 85.598 C 110.617 86.975, 106.313 89.320, 102.784 90.809 L 96.369 93.516 110.434 93.508 C 123.572 93.501, 124.846 93.671, 129.750 96.097 C 134.416 98.405, 135 98.500, 135 96.951 C 135 94.553, 129.096 89.582, 121.985 85.993 C 118.725 84.347, 115.932 83.021, 115.779 83.047 C 115.625 83.073, 114.082 84.221, 112.350 85.598 M 143.232 88 C 143.232 89.925, 143.438 90.713, 143.689 89.750 C 143.941 88.787, 143.941 87.213, 143.689 86.250 C 143.438 85.287, 143.232 86.075, 143.232 88 M 84 99.096 C 64.451 102.486, 45.061 103.724, 36.581 102.123 C 33.325 101.508, 30.445 101.222, 30.181 101.486 C 29.045 102.621, 43.439 114.983, 49.770 118.310 C 70.791 129.356, 91.077 126.703, 106.717 110.860 C 111.124 106.397, 113.214 104.987, 115.500 104.933 C 119.892 104.831, 131.143 101.665, 131.252 100.500 C 131.304 99.950, 129.356 98.737, 126.923 97.804 C 120.031 95.162, 103.884 95.648, 84 99.096 M 134.938 109.575 C 134.197 110.468, 130.916 113.256, 127.647 115.772 C 121.049 120.849, 121.164 121.152, 130.207 122.508 L 134.677 123.179 135.870 115.954 C 136.527 111.981, 136.888 108.555, 136.674 108.341 C 136.460 108.127, 135.679 108.682, 134.938 109.575 M 139.721 110.642 C 139.406 111.152, 138.839 114.300, 138.462 117.637 L 137.775 123.704 146.567 124.839 C 151.403 125.464, 155.523 125.810, 155.724 125.609 C 155.925 125.408, 153.134 122.892, 149.522 120.018 C 145.910 117.143, 142.356 113.649, 141.625 112.253 C 140.893 110.857, 140.037 110.132, 139.721 110.642 M 136.550 127.730 C 135.116 131.466, 135.865 132.277, 140.120 131.597 C 142.386 131.234, 145.423 130.318, 146.869 129.561 L 149.497 128.184 145.498 127.547 C 137.657 126.299, 137.095 126.310, 136.550 127.730 M 150.772 129.765 C 150.495 130.825, 148.211 132.688, 145.697 133.904 C 143.184 135.121, 139.419 138.003, 137.332 140.308 L 133.537 144.500 138.382 144.809 C 144.511 145.201, 156.333 143.396, 159.975 141.513 C 161.505 140.722, 163.040 139.337, 163.386 138.436 C 164.334 135.965, 160.046 129.003, 157.566 128.986 C 156.430 128.979, 154.549 128.718, 153.388 128.406 C 151.857 127.995, 151.137 128.369, 150.772 129.765 M 73.427 134.936 C 70.087 135.336, 66.795 136.009, 66.112 136.431 C 64.341 137.525, 67.122 140.351, 73.639 144.080 L 78.911 147.096 92.706 146.052 C 100.293 145.478, 111.734 145.006, 118.131 145.004 L 129.763 145 130.926 140.378 C 131.566 137.836, 131.957 135.645, 131.795 135.509 C 130.978 134.823, 78.661 134.309, 73.427 134.936 M 134.583 136.643 C 133.639 139.106, 134.454 139.261, 136.494 137.006 C 138.029 135.310, 138.070 135, 136.762 135 C 135.911 135, 134.930 135.739, 134.583 136.643 M 128.497 157.640 C 126.170 164.487, 121.803 170.744, 118.467 172.013 C 114.644 173.466, 111.272 171.611, 102.865 163.430 C 94.093 154.894, 91.686 154.208, 87.589 159.077 C 86.165 160.769, 85 162.788, 85 163.564 C 85 164.340, 81.919 166.526, 78.154 168.423 C 70.453 172.300, 65 176.499, 65 178.550 C 65 181.467, 72.959 182.420, 96 182.260 C 133.443 182, 163.934 179.799, 168.975 176.990 C 170.020 176.408, 166.087 174.040, 155.475 168.864 C 144.216 163.371, 139.310 160.373, 135.702 156.779 C 133.064 154.151, 130.794 152, 130.659 152 C 130.525 152, 129.552 154.538, 128.497 157.640" stroke="none" fill="black" fill-rule="evenodd"/>
</svg>