<svg xmlns="http://www.w3.org/2000/svg" width="200" height="200" viewBox="0 0 200 200" version="1.1">
	<path d="M 95 5.113 L 95 10.227 91.750 9.633 C 78.086 7.134, 71.418 6.690, 68.494 8.086 C 61.101 11.614, 65.981 19.186, 79.974 25.900 L 87.500 29.510 77 29.685 C 60.549 29.958, 44.904 35.548, 43.359 41.705 C 41.742 48.150, 52.178 50.186, 73.163 47.520 C 88.940 45.516, 86.156 45.738, 93.750 45.882 C 97.188 45.947, 100 46.350, 100 46.778 C 100 47.207, 96.287 48.070, 91.750 48.698 C 81.561 50.108, 73.836 53.016, 67.443 57.848 C 60.897 62.796, 57.999 67.262, 58.004 72.398 C 58.009 77.814, 60.680 81.958, 66.629 85.781 C 74.997 91.157, 76 92.039, 76 94.024 C 76 98.106, 68.728 100.803, 47.759 104.497 C 30.131 107.603, 26.347 108.653, 23.874 111.126 C 22.065 112.935, 22.003 113.375, 23.282 115.323 C 25.046 118.011, 30.682 121.331, 38.231 124.129 C 41.382 125.298, 43.719 126.646, 43.423 127.125 C 42.209 129.088, 46.773 134.048, 56.167 140.974 C 66.908 148.894, 67.276 150.194, 58.520 149.290 C 52.334 148.651, 48.466 150.321, 42.258 156.309 C 35.615 162.717, 35.547 168.393, 42.035 174.881 C 52.291 185.137, 80.603 191.097, 91.553 185.305 C 98.042 181.872, 99.459 176.811, 96.039 169.278 L 94.123 165.056 88.690 167.458 C 80.951 170.881, 76.187 171.651, 75.403 169.607 C 74.228 166.546, 76.049 163.020, 82.202 156.444 C 87.929 150.321, 95.931 145, 99.410 145 C 101.776 145, 104.001 149.113, 103.992 153.473 C 103.988 155.688, 103.153 160.973, 102.138 165.217 C 100.385 172.542, 100.378 173.128, 102.002 176.756 C 104.618 182.600, 112.134 188.678, 118.335 189.966 C 140.149 194.494, 165.212 169.628, 162.634 146.015 C 161.545 136.047, 160.138 132.823, 154.456 127.280 L 149.105 122.060 158.318 122.666 L 167.532 123.271 173.266 117.848 C 177.970 113.400, 179 111.838, 179 109.157 C 179 106.271, 178.501 105.668, 174.750 104.014 C 172.412 102.984, 164.745 101.208, 157.711 100.068 C 140.393 97.260, 134 94.422, 134 89.541 C 134 86.041, 139.152 78.959, 146.934 71.761 C 151.435 67.598, 153.700 64.863, 152.860 64.607 C 152.112 64.379, 146.325 63.251, 140 62.100 C 133.675 60.949, 125.528 59.104, 121.895 58 C 114.142 55.643, 106.721 50.694, 107.198 48.198 C 107.481 46.718, 109.572 46.418, 123.511 45.861 C 141.517 45.141, 151.852 43.703, 157 41.201 C 161.225 39.148, 161.853 36.872, 158.943 34.161 C 156.605 31.984, 154.225 30.988, 131.860 22.836 C 117.502 17.603, 117.168 17.413, 114.507 13 C 109.807 5.203, 105.561 0.063, 103.794 0.031 C 102.525 0.008, 103.493 1.960, 107.569 7.641 C 110.584 11.843, 112.909 15.425, 112.734 15.600 C 112.559 15.774, 109.060 14.845, 104.958 13.535 L 97.500 11.152 97.616 5.576 C 97.701 1.473, 97.371 -0, 96.366 -0 C 95.389 -0, 95 1.458, 95 5.113 M 68.198 11.261 C 66.301 13.547, 70.559 17.999, 78.723 22.265 C 84.582 25.328, 95.982 29.479, 96.522 28.747 C 96.622 28.611, 96.255 25.075, 95.706 20.888 L 94.709 13.276 89.604 12.061 C 86.797 11.393, 81.115 10.599, 76.978 10.296 C 70.990 9.858, 69.200 10.055, 68.198 11.261 M 98.404 20.819 C 99.266 29.469, 100.368 30.368, 109.159 29.591 C 112.821 29.268, 116.749 28.658, 117.888 28.237 C 119.953 27.473, 119.952 27.461, 117.553 23.486 C 115.355 19.844, 114.397 19.269, 106.443 16.819 L 97.738 14.138 98.404 20.819 M 121.495 24.990 C 122.345 26.634, 123.005 28.321, 122.961 28.740 C 122.918 29.158, 123.919 29.745, 125.186 30.044 C 129.985 31.177, 128.402 33.695, 120.073 38.174 C 115.648 40.553, 112.022 42.725, 112.014 43 C 111.991 43.758, 129.241 43.101, 140.270 41.924 C 150.616 40.820, 157.145 39.065, 157.759 37.223 C 158.170 35.990, 152.689 32.963, 146.500 31.005 C 144.300 30.310, 137.883 27.999, 132.241 25.870 C 126.598 23.742, 121.524 22, 120.965 22 C 120.395 22, 120.627 23.312, 121.495 24.990 M 66.347 33.095 C 59.936 34.166, 50.799 37.532, 47.874 39.901 C 40.997 45.469, 54.263 47.682, 75.413 44.494 C 80.865 43.672, 88.454 43, 92.276 43 L 99.227 43 98.516 38.250 C 97.700 32.798, 97.033 31.328, 96.078 32.874 C 95.605 33.638, 93.639 33.672, 89.453 32.986 C 82.476 31.844, 73.584 31.886, 66.347 33.095 M 100.379 33.750 C 100.662 34.712, 101.192 37.188, 101.558 39.250 C 102.467 44.377, 104.701 44.190, 114.763 38.142 L 122.846 33.285 114.673 32.648 C 101.355 31.611, 99.787 31.732, 100.379 33.750 M 103 47.559 C 103 48.416, 103.450 48.840, 104 48.500 C 104.550 48.160, 105 47.459, 105 46.941 C 105 46.423, 104.550 46, 104 46 C 103.450 46, 103 46.702, 103 47.559 M 85.265 52.542 C 77.873 54.532, 70.130 58.602, 65.766 62.791 C 56.686 71.506, 59.232 79.143, 73.909 87.209 C 77.810 89.352, 79.375 93.082, 77.813 96.510 C 75.861 100.795, 67.998 103.677, 49 107.070 C 39.375 108.790, 29.982 110.827, 28.128 111.598 C 25.140 112.840, 24.912 113.191, 26.128 114.672 C 26.882 115.591, 30.863 117.901, 34.974 119.806 L 42.449 123.268 53.474 121.635 C 69.958 119.195, 85.787 118.018, 102.250 118.009 C 110.362 118.004, 117 117.749, 117 117.443 C 117 117.136, 116.500 114.901, 115.889 112.475 C 115.117 109.408, 114.127 107.863, 112.639 107.402 C 111.463 107.037, 104.987 104.130, 98.250 100.941 C 90.240 97.150, 86 94.599, 86 93.571 C 86 91.269, 88.051 91.606, 97.689 95.492 C 102.452 97.413, 106.503 98.830, 106.691 98.642 C 106.879 98.454, 101.625 92.622, 95.016 85.681 C 78.754 68.603, 79.144 66.151, 96.790 74.511 C 102.027 76.991, 106.509 78.824, 106.750 78.584 C 107.107 78.226, 103.145 59.279, 101.347 52.750 C 100.741 50.548, 93.037 50.448, 85.265 52.542 M 104.336 53.664 C 104.626 54.674, 105.874 60.142, 107.111 65.815 C 109.157 75.203, 109.472 75.922, 110.611 73.815 C 112.521 70.280, 113.261 62.816, 112.023 59.561 C 110.941 56.716, 109.324 55.023, 105.655 52.897 C 104.104 51.998, 103.894 52.120, 104.336 53.664 M 115 64.346 C 115 67.555, 114.113 72.296, 112.912 75.506 L 110.824 81.087 113.597 92.460 L 116.371 103.832 121.387 106.166 C 124.146 107.450, 130.353 110.828, 135.181 113.673 C 143.570 118.618, 144.368 118.876, 153.229 119.507 C 158.328 119.870, 163.233 120.367, 164.129 120.612 C 165.895 121.095, 177 111.283, 177 109.239 C 177 107.123, 171.371 105.062, 161.327 103.500 C 142.546 100.578, 135.702 98.268, 132.566 93.791 C 129.258 89.068, 131.618 83.514, 141.229 73.396 L 148.008 66.259 142.988 65.593 C 138.748 65.030, 125.439 61.844, 117.250 59.430 C 115.106 58.798, 115 59.030, 115 64.346 M 93.590 80.240 C 97.412 84.233, 103.294 90.550, 106.663 94.278 L 112.787 101.057 110.606 92.278 L 108.425 83.500 100.463 79.292 C 86.446 71.885, 85.694 71.989, 93.590 80.240 M 118.515 112.056 C 119.262 114.889, 120.015 117.331, 120.187 117.483 C 120.933 118.142, 137.968 118.572, 137.272 117.915 C 136.847 117.514, 132.148 114.873, 126.828 112.045 L 117.156 106.905 118.515 112.056 M 73.750 121.739 C 70.588 121.937, 68 122.461, 68 122.902 C 68 124.308, 83.564 124.967, 101.469 124.319 C 115.413 123.815, 118.718 123.427, 118.302 122.346 C 117.891 121.274, 113.894 121.038, 98.643 121.189 C 88.114 121.293, 76.912 121.541, 73.750 121.739 M 121.504 123.013 C 121.902 124.266, 123.414 126.312, 124.864 127.559 C 127.311 129.665, 127.503 130.424, 127.546 138.163 C 127.580 144.526, 128.371 149.190, 130.885 157.861 C 134.389 169.948, 134.097 173.754, 130.096 168.135 C 126.332 162.849, 124.776 157.752, 123.949 148 C 123.506 142.775, 122.324 136.025, 121.322 133 L 119.500 127.500 96 127.138 C 54.231 126.494, 47.174 126.489, 46.558 127.107 C 45.139 128.530, 47.764 131.413, 56.357 137.863 C 67.991 146.597, 69.702 148.449, 68.016 150.481 C 67.102 151.582, 64.774 152, 59.549 152 C 53.137 152, 51.818 152.348, 47.582 155.153 C 36.228 162.674, 38.008 171.471, 52.298 178.461 C 67.642 185.966, 86.922 187.078, 93.181 180.819 C 94.805 179.195, 95.120 177.933, 94.695 174.763 C 94.400 172.560, 93.769 170.369, 93.293 169.893 C 92.808 169.408, 90.141 169.899, 87.204 171.015 C 81.329 173.247, 75.002 173.602, 73.200 171.800 C 69.877 168.477, 74.337 159.548, 83.505 151.170 C 92.916 142.568, 101.271 140.422, 104.727 145.717 C 106.896 149.041, 106.861 158.796, 104.651 166.986 C 102.857 173.634, 103.851 176.817, 109.408 182.213 C 123.447 195.848, 151.536 182.582, 158.412 159.068 C 161.878 147.215, 159.658 135.705, 152.662 129.257 C 144.879 122.082, 143.851 121.685, 131.792 121.188 L 120.781 120.734 121.504 123.013 M 123.731 132.080 C 124.085 133.432, 124.538 133.886, 124.788 133.137 C 125.028 132.415, 124.750 131.350, 124.168 130.768 C 123.426 130.026, 123.296 130.417, 123.731 132.080" stroke="none" fill="black" fill-rule="evenodd"/>
</svg>