<svg xmlns="http://www.w3.org/2000/svg" width="200" height="200" viewBox="0 0 200 200" version="1.1">
	<path d="M 138 10.443 C 138 10.687, 139.374 14.988, 141.054 20.002 C 142.734 25.016, 144.367 31.307, 144.684 33.982 C 145.221 38.517, 145.003 39.160, 141.458 43.486 L 137.656 48.126 134.987 40.813 C 130.344 28.094, 125.690 21, 121.987 21 C 119.316 21, 116.303 25.086, 114.082 31.718 C 111.662 38.947, 111.562 42.328, 113.187 62.189 L 114.388 76.878 108.513 85.439 C 105.281 90.147, 102.445 94, 102.210 94 C 101.975 94, 102.062 92.888, 102.403 91.529 C 103.911 85.520, 99.054 75.350, 92.545 70.890 C 89.801 69.010, 89.379 68.226, 89.950 66.072 C 90.560 63.770, 91.471 63.335, 98.612 61.935 C 103.002 61.074, 107.134 60.035, 107.796 59.626 C 111.907 57.085, 105.302 50.175, 92.771 43.906 C 88.222 41.630, 84.308 39.590, 84.073 39.373 C 83.838 39.157, 84.450 38.392, 85.432 37.674 C 87.934 35.844, 87.054 32.936, 83.343 30.768 C 79.448 28.494, 62.622 25.156, 51.105 24.373 C 43.002 23.822, 42.424 23.915, 41.190 25.977 C 39.187 29.323, 41.723 32.272, 52.648 39.300 L 62.109 45.387 59.336 46.840 C 57.811 47.639, 52.724 48.671, 48.031 49.133 C 32.572 50.655, 26.933 52.777, 28.374 56.532 C 29.237 58.781, 34.350 60.629, 43.500 61.998 C 57.491 64.093, 57.112 63.854, 50.621 66.492 C 44.819 68.850, 39.999 71.821, 34.618 76.357 L 31.736 78.785 40.697 87.643 C 57.267 104.023, 57.095 109.304, 39.596 121.384 C 29.733 128.194, 27.043 131.140, 26.718 135.487 C 26.542 137.846, 27.082 138.702, 29.500 139.903 C 35.214 142.741, 53.981 142.454, 66.750 139.333 C 68.142 138.993, 69 139.242, 69 139.987 C 69 140.649, 69.913 142.474, 71.029 144.041 L 73.058 146.890 70.905 153.195 C 68.347 160.682, 67.377 171.386, 68.901 175.303 C 71.609 182.267, 98.333 189, 123.263 189 C 139.842 189, 160.975 186.027, 176.251 181.545 C 181.724 179.939, 181.970 179.728, 181.343 177.179 C 180.301 172.947, 178.175 170.317, 174.191 168.336 C 169.173 165.840, 155.275 166.049, 139.377 168.860 C 115.250 173.127, 106.568 172.722, 100.916 167.069 C 97.465 163.618, 96.468 158.588, 97.710 150.880 C 98.561 145.592, 98.490 144.991, 97.085 145.600 C 89.092 149.068, 78.536 149.560, 77.368 146.518 C 77.079 145.763, 77.719 143.164, 78.790 140.741 C 80.732 136.352, 80.764 136.332, 87.812 135.168 C 97.612 133.550, 106.789 133.709, 112.319 135.593 C 117.877 137.487, 123.988 143.905, 125.980 149.939 C 126.719 152.178, 127.559 153.774, 127.847 153.487 C 128.135 153.199, 129.379 148.069, 130.611 142.087 C 134.841 121.562, 140.713 105.605, 143.817 106.203 C 146.549 106.730, 147.292 112.092, 147.599 133.500 C 147.850 151.032, 148.144 154.551, 149.375 154.809 C 152.399 155.442, 158.691 152.931, 161.873 149.820 C 170.684 141.205, 172.912 130.066, 173.638 91 L 174.185 61.500 178.022 51.500 C 186.051 30.573, 188.048 18.048, 184 14 C 181.610 11.610, 180.087 11.519, 175.380 13.486 C 170.586 15.489, 165.003 19.864, 155.858 28.784 L 148.217 36.238 147.085 30.869 C 145.651 24.061, 142.039 12.885, 140.744 11.250 C 139.795 10.050, 138 9.522, 138 10.443 M 172.446 18.127 C 169.726 19.846, 163.338 25.329, 158.250 30.311 L 149 39.368 149.001 51.934 C 149.003 65.359, 147.279 81, 145.797 81 C 144.562 81, 142.719 76.260, 139.465 64.715 C 137.929 59.266, 136.236 55.088, 135.644 55.285 C 135.060 55.480, 130.691 60.614, 125.936 66.693 L 117.290 77.747 116.758 89.123 C 116.122 102.749, 113.819 109.821, 108.256 115.242 C 103.746 119.637, 98.914 121.795, 92.676 122.200 C 88.279 122.485, 87.916 122.741, 85.425 127.318 C 83.982 129.967, 83.015 132.349, 83.276 132.609 C 83.537 132.870, 86.619 132.618, 90.125 132.049 C 105.647 129.531, 114.964 131.580, 122.273 139.119 C 125.090 142.023, 127.198 143.521, 127.417 142.771 C 127.620 142.072, 129.002 136.640, 130.487 130.700 C 136.346 107.270, 142.629 97.926, 147.514 105.381 C 149.800 108.870, 151.289 124.643, 150.721 139.353 L 150.225 152.205 153.196 151.611 C 157.924 150.665, 161.677 147.359, 164.445 141.701 C 169.077 132.235, 170.096 124.036, 170.687 91.500 C 171.212 62.643, 171.327 61.252, 173.715 55 C 184.335 27.199, 186.167 15, 179.721 15 C 178.440 15, 175.166 16.407, 172.446 18.127 M 119.375 26.551 C 118.455 27.954, 116.942 31.892, 116.011 35.301 C 114.488 40.883, 114.446 43.028, 115.589 56.846 C 116.287 65.286, 117.008 72.341, 117.190 72.523 C 117.372 72.705, 121.505 67.838, 126.374 61.707 L 135.226 50.560 133.496 45.030 C 129.881 33.477, 124.678 24, 121.952 24 C 121.454 24, 120.294 25.148, 119.375 26.551 M 56 28.566 C 58.475 29.356, 64.655 31.609, 69.734 33.573 C 78.963 37.141, 82.976 37.617, 83.760 35.236 C 84.539 32.870, 70.982 29.037, 57 27.668 L 51.500 27.130 56 28.566 M 44.969 30.462 C 45.636 31.266, 49.770 34.226, 54.156 37.039 C 61.525 41.767, 62.446 42.101, 66.315 41.452 C 68.617 41.066, 71.625 40.320, 73 39.794 C 75.363 38.891, 75.171 38.704, 69.500 36.385 C 61.350 33.053, 48.358 29, 45.826 29 C 44.122 29, 43.970 29.259, 44.969 30.462 M 78.750 41.662 C 79.438 41.940, 80.563 41.940, 81.250 41.662 C 81.938 41.385, 81.375 41.158, 80 41.158 C 78.625 41.158, 78.063 41.385, 78.750 41.662 M 86.811 44.989 C 89.768 47.808, 91 51.098, 91 56.179 L 91 60.227 95.750 59.576 C 104.065 58.435, 106 57.872, 106 56.590 C 106 54.929, 99.045 50.030, 91 46.023 C 85.643 43.355, 84.906 43.173, 86.811 44.989 M 142.250 46.681 C 140.463 48.940, 139 51.289, 139 51.901 C 139 52.513, 140.211 57.301, 141.691 62.541 C 145.152 74.793, 146.145 73.162, 145.779 55.824 L 145.500 42.574 142.250 46.681 M 71.870 45.060 C 69.874 45.532, 65.712 47.037, 62.620 48.404 C 59.024 49.995, 53.488 51.277, 47.250 51.964 C 36.689 53.128, 30.678 54.669, 31.502 56.003 C 33.282 58.883, 65.593 62.431, 79.952 61.324 L 88 60.704 88 56.302 C 88 50.001, 85.786 46.312, 81.248 45.052 C 77.019 43.878, 76.866 43.878, 71.870 45.060 M 82 65.500 C 86.567 67.259, 86.687 67.259, 87.362 65.500 C 87.825 64.291, 87.021 64.015, 83.219 64.076 L 78.500 64.152 82 65.500 M 56.105 67.583 C 50.228 69.163, 43.189 72.739, 38.549 76.503 L 35.597 78.896 42.184 84.931 C 51.038 93.044, 55.338 99.841, 55.429 105.867 C 55.526 112.234, 52.760 115.765, 42.016 122.990 C 33.364 128.807, 29 133.021, 29 135.557 C 29 139.155, 44.179 140.485, 58.500 138.141 L 66.500 136.832 66.500 116.416 L 66.500 96 64.184 96 C 62.911 96, 60.999 95.535, 59.937 94.966 C 58.074 93.969, 58.116 93.710, 61.113 87.716 C 62.822 84.297, 65.336 80.015, 66.699 78.201 C 68.727 75.501, 69.441 75.121, 70.633 76.111 C 71.782 77.064, 71.950 78.819, 71.428 84.410 L 70.766 91.500 75.428 87 C 80.197 82.397, 86.637 71.204, 85.263 69.904 C 84.844 69.507, 82.056 68.466, 79.068 67.591 C 72.432 65.647, 63.314 65.644, 56.105 67.583 M 85.542 77.752 C 83.916 80.914, 79.720 86.341, 76.220 89.813 L 69.854 96.126 69.277 107.063 C 68.960 113.078, 69.037 118, 69.447 118 C 71.542 118, 86.533 109.283, 90.609 105.695 C 95.638 101.268, 99.974 93.351, 99.990 88.566 C 100.004 84.532, 96.458 77.563, 92.845 74.523 C 91.196 73.136, 89.544 72.001, 89.173 72.002 C 88.803 72.004, 87.169 74.591, 85.542 77.752 M 65.149 85.872 C 63.417 89.121, 62 92.054, 62 92.390 C 62 92.725, 63.286 93, 64.858 93 C 67.622 93, 67.736 92.800, 68.359 86.835 C 68.714 83.445, 68.845 80.512, 68.651 80.317 C 68.457 80.123, 66.881 82.623, 65.149 85.872 M 103.345 98.250 C 91.767 115.879, 90 118.699, 90 119.553 C 90 120.857, 98.680 118.704, 102.663 116.413 C 107.551 113.601, 110.247 109.585, 112.342 102 C 113.916 96.300, 115.061 83, 113.978 83 C 113.639 83, 108.854 89.862, 103.345 98.250 M 90.187 109.633 C 88.365 111.069, 84.562 113.508, 81.737 115.053 C 76.092 118.140, 75.858 117.742, 84.348 119.481 C 86.070 119.834, 86.987 119.366, 87.787 117.731 C 88.387 116.504, 90.056 113.588, 91.496 111.250 C 92.935 108.912, 93.975 107.005, 93.807 107.011 C 93.638 107.017, 92.009 108.197, 90.187 109.633 M 69.146 126.675 C 69.537 130.979, 69.890 134.846, 69.929 135.269 C 69.993 135.965, 72.388 135.660, 77.273 134.332 C 78.249 134.067, 80.355 131.258, 81.955 128.089 L 84.863 122.328 79.182 121.172 C 76.057 120.536, 72.360 119.754, 70.967 119.433 L 68.434 118.850 69.146 126.675 M 74.250 137.780 C 71.730 138.182, 71.481 139.162, 73.122 142.228 C 74.198 144.238, 74.302 144.187, 75.637 141.011 C 77.227 137.231, 77.256 137.300, 74.250 137.780 M 73.044 155.594 C 70.354 164.302, 70.306 173.306, 72.936 175.936 C 74.001 177.001, 78.612 179.054, 83.182 180.498 C 107.709 188.246, 144.277 187.792, 173.703 179.374 C 178.693 177.946, 178.860 177.787, 177.798 175.457 C 174.725 168.712, 165.169 167.625, 141.500 171.329 C 118.757 174.887, 115.161 175.189, 109.169 174.042 C 99.031 172.101, 94.786 166.885, 94.686 156.247 L 94.626 149.887 90.563 150.586 C 85.196 151.509, 79.342 151.253, 76.987 149.993 C 75.280 149.079, 74.881 149.645, 73.044 155.594" stroke="none" fill="black" fill-rule="evenodd"/>
</svg>