<svg xmlns="http://www.w3.org/2000/svg" width="200" height="200" viewBox="0 0 200 200" version="1.1">
	<path d="M 132 9.654 C 118.537 10.547, 96.597 13.354, 73.500 17.139 C 50.167 20.964, 48.351 21.412, 46.261 23.868 C 42.763 27.979, 42.404 30.736, 45.004 33.504 C 49.367 38.148, 55.031 39.376, 73.053 39.582 C 89.349 39.769, 89.699 39.819, 95.654 42.825 C 102.065 46.062, 108 50.539, 108 52.140 C 108 53.823, 101.707 55.809, 93.982 56.564 L 86.500 57.294 89.750 54.246 C 94.002 50.258, 94.106 46.623, 90.030 44.515 C 78.749 38.682, 32.260 44.948, 29.284 52.703 C 27.650 56.960, 43.828 62.979, 53.322 61.646 C 56.861 61.149, 57.208 61.246, 55.589 62.280 C 49.790 65.984, 43.430 71.984, 41.648 75.432 C 37.345 83.757, 39.453 91.348, 49.998 105.500 C 60.061 119.004, 58.648 120.347, 34.500 120.227 L 18.500 120.147 22 123.186 C 27.236 127.730, 37.112 132.051, 45.087 133.285 C 53.810 134.635, 64.996 133.357, 83 128.953 C 95.244 125.957, 112 123.958, 112 125.493 C 112 125.919, 111.490 127.970, 110.867 130.051 L 109.733 133.834 96.117 133.712 C 84.769 133.611, 81.868 133.897, 78.706 135.430 C 70.813 139.257, 70.277 146.630, 76.952 159.530 C 79.044 163.571, 81.057 168.897, 81.428 171.366 C 82.262 176.928, 85.428 181.762, 89.979 184.420 C 95.536 187.665, 108.870 187.724, 130.362 184.598 C 153.646 181.211, 164.975 181.147, 171.331 184.364 C 173.899 185.664, 176 186.384, 176 185.963 C 176 185.543, 175.069 179.867, 173.930 173.349 C 172.368 164.407, 171.939 158.326, 172.180 148.559 L 172.500 135.618 164 131.936 C 156.392 128.641, 138.632 119.008, 136.780 117.173 C 135.336 115.743, 141.184 98, 143.099 98 C 143.536 98, 145.923 102.255, 148.402 107.455 C 153.219 117.557, 159.412 124.922, 163.250 125.111 C 166.933 125.292, 170.402 124.849, 172.009 123.992 C 174.330 122.755, 179.521 77.633, 179.428 59.500 C 179.324 39.103, 175.259 25.939, 165.878 15.621 C 162.144 11.513, 160.814 10.704, 157.471 10.507 C 155.287 10.378, 149.900 10.052, 145.500 9.781 C 141.100 9.511, 135.025 9.454, 132 9.654 M 119.304 13.473 C 112.046 14.229, 102.596 15.359, 98.304 15.986 C 82.600 18.279, 65.462 21.113, 64 21.659 C 63.175 21.967, 66.492 23.298, 71.370 24.616 C 86.025 28.576, 92.677 32.281, 91.548 35.855 C 91.157 37.094, 92.876 38.450, 98.503 41.342 C 105.681 45.032, 111 49.748, 111 52.422 C 111 55.551, 103.299 58.982, 96.250 58.994 C 94.463 58.997, 93 59.257, 93 59.572 C 93 59.886, 94.236 62.249, 95.747 64.822 C 98.218 69.030, 98.530 70.634, 98.856 80.798 L 99.219 92.096 106.859 97.516 C 111.062 100.497, 114.769 102.951, 115.098 102.968 C 115.427 102.986, 116.552 101.093, 117.598 98.763 C 120.599 92.077, 120.060 76.268, 116.191 57.500 C 111.698 35.706, 111.301 30.368, 113.761 24.806 C 115.231 21.484, 116.594 19.988, 118.879 19.192 C 121.853 18.155, 122.225 18.341, 127.110 23.303 C 129.924 26.161, 134.497 32.216, 137.272 36.757 C 140.048 41.299, 142.417 44.899, 142.537 44.757 C 142.657 44.616, 144.210 41.125, 145.987 37 C 147.765 32.875, 150.779 26.181, 152.683 22.124 C 154.969 17.257, 155.810 14.410, 155.157 13.757 C 153.551 12.151, 133.533 11.993, 119.304 13.473 M 157.095 19.158 C 156.008 22.275, 156.020 22.292, 157.997 20.503 C 160.056 18.639, 160.701 16, 159.098 16 C 158.602 16, 157.700 17.421, 157.095 19.158 M 162.131 19.157 C 161.624 20.488, 159.250 23.347, 156.855 25.510 L 152.500 29.442 152 48.459 C 151.561 65.165, 151.298 67.514, 149.834 67.795 C 148.578 68.036, 147.479 66.261, 145.365 60.576 C 143.823 56.430, 142.250 53.367, 141.868 53.769 C 140.399 55.317, 120.982 104.678, 121.009 106.797 C 121.019 107.640, 132.935 115.431, 133.375 114.882 C 133.544 114.672, 134.275 112.250, 135 109.500 C 136.836 102.533, 139.853 96.270, 141.718 95.555 C 144.215 94.596, 146.865 97.814, 151.610 107.568 C 157.082 118.817, 160.594 122.455, 165.981 122.455 C 168.125 122.455, 170.084 122.240, 170.336 121.977 C 170.587 121.715, 172.043 111.825, 173.571 100 C 177.046 73.100, 177.470 48.280, 174.628 38 C 172.636 30.791, 167.791 21.025, 164.916 18.424 C 163.150 16.826, 163.002 16.865, 162.131 19.157 M 118.048 22.952 C 113.872 27.128, 114.058 33.449, 119.075 58 C 121.253 68.658, 122.282 76.632, 122.371 83.525 L 122.500 93.550 130.561 73.525 C 134.995 62.511, 139.181 52.473, 139.863 51.218 C 140.959 49.204, 140.621 48.060, 136.992 41.486 C 132.483 33.317, 125.007 23.609, 121.976 21.987 C 120.466 21.179, 119.611 21.389, 118.048 22.952 M 57.140 22.914 C 56.125 23.541, 56.219 23.870, 57.559 24.384 C 59.641 25.183, 60.137 24.840, 59.169 23.274 C 58.751 22.598, 57.896 22.446, 57.140 22.914 M 46.832 27.470 C 44.575 32.424, 49.779 35.324, 64.032 37.057 C 73.673 38.230, 84.359 37.518, 80.500 35.961 C 68.283 31.031, 51.447 25, 49.904 25 C 48.804 25, 47.467 26.075, 46.832 27.470 M 74 30.469 C 82.187 33.746, 87.865 35.513, 88.428 34.959 C 89.632 33.772, 83.028 30.864, 71.638 27.566 C 58.416 23.737, 59.013 24.471, 74 30.469 M 146.083 43.513 L 143.798 49.025 146.350 55.263 L 148.903 61.500 148.951 49.750 C 148.978 43.287, 148.858 38, 148.684 38 C 148.510 38, 147.340 40.481, 146.083 43.513 M 56.597 46.139 C 44.296 47.717, 32 51.620, 32 53.945 C 32 55.009, 39.866 57.694, 45.500 58.554 C 48.760 59.052, 62.860 58.208, 80.278 56.472 C 83.905 56.111, 90 51.424, 90 48.996 C 90 47.650, 88.904 46.790, 86.250 46.053 C 81.852 44.831, 66.438 44.876, 56.597 46.139 M 69.917 60.982 C 55.604 62.825, 41.976 73.895, 42.010 83.651 C 42.024 87.877, 45.971 95.601, 52.870 104.906 C 63.543 119.301, 61.499 122.190, 40.045 123.030 L 26.500 123.561 33.500 127.030 C 40.384 130.443, 40.707 130.499, 53 130.455 C 63.877 130.417, 67.577 129.920, 81.500 126.632 C 90.300 124.553, 101.074 122.548, 105.443 122.176 L 113.386 121.500 115.184 115.500 C 116.173 112.200, 116.787 108.968, 116.548 108.318 C 116.258 107.526, 113.867 108.268, 109.307 110.565 C 97.042 116.743, 94.483 115.068, 95.204 101.334 L 95.643 92.975 86.237 85.905 C 81.064 82.017, 76.746 78.985, 76.641 79.168 C 76.537 79.350, 75.787 81.525, 74.976 84 C 72.841 90.509, 70.572 90.030, 70.241 83 C 69.977 77.395, 71.719 72.306, 73.758 72.725 C 74.360 72.849, 75.095 71.724, 75.392 70.225 C 76.891 62.657, 77.145 60.012, 76.361 60.131 C 75.888 60.203, 72.987 60.586, 69.917 60.982 M 80.163 61.750 C 79.664 62.712, 78.937 65.695, 78.547 68.378 C 78.158 71.061, 77.642 73.770, 77.401 74.398 C 76.883 75.748, 94.819 89.514, 95.807 88.526 C 97.363 86.971, 96.240 72.332, 94.215 67.752 C 91.245 61.039, 82.474 57.293, 80.163 61.750 M 73.079 78.583 C 73.127 79.748, 73.364 79.985, 73.683 79.188 C 73.972 78.466, 73.936 77.603, 73.604 77.271 C 73.272 76.939, 73.036 77.529, 73.079 78.583 M 98 102.882 C 98 107.282, 98.339 111.092, 98.754 111.348 C 99.581 111.859, 110.930 107.470, 112.286 106.114 C 112.969 105.431, 104.848 98.890, 99.250 95.614 C 98.293 95.054, 98 96.758, 98 102.882 M 119.480 111.263 C 115.691 121.751, 115.620 122.989, 118.809 123.012 C 119.739 123.019, 122.458 124.144, 124.852 125.512 C 127.246 126.880, 129.549 128, 129.970 128 C 130.391 128, 131.178 125.759, 131.720 123.019 L 132.705 118.038 126.316 114.032 C 122.019 111.338, 119.781 110.432, 119.480 111.263 M 134.509 123.197 C 134.139 125.014, 133.391 128.241, 132.847 130.369 L 131.859 134.239 129.179 131.678 C 126.527 129.144, 118.627 125.064, 116.289 125.022 C 115.622 125.010, 114.575 126.864, 113.961 129.143 C 113.075 132.435, 113.118 133.473, 114.173 134.194 C 114.903 134.692, 122.475 134.901, 131 134.658 C 145.463 134.245, 154 132.940, 154 131.142 C 154 130.561, 139.905 122.065, 135.841 120.197 C 135.479 120.030, 134.879 121.380, 134.509 123.197 M 150 135.751 C 146.686 136.894, 141.082 137.330, 128.738 137.402 C 114.751 137.484, 111.906 137.748, 111.552 139 C 110.126 144.049, 108.809 156.741, 109.290 160.804 C 110.824 173.753, 116.749 175.611, 130.609 167.489 C 137.262 163.590, 151.849 149.259, 155.701 142.837 C 160.588 134.691, 160.722 133.982, 157.357 134.099 C 155.786 134.153, 152.475 134.897, 150 135.751 M 161.551 137.654 C 160.052 143.624, 146.539 159.486, 136.939 166.541 C 114.841 182.781, 103.275 175.513, 107.320 147.928 C 108.159 142.200, 108.619 137.285, 108.340 137.007 C 108.062 136.728, 102.134 136.500, 95.167 136.500 C 84.940 136.500, 81.877 136.841, 79.264 138.268 C 73.512 141.412, 73.695 147.523, 79.895 159.310 C 81.975 163.264, 83.942 168.486, 84.265 170.913 C 85.001 176.436, 87.519 179.949, 92.519 182.430 C 97.881 185.090, 110.715 184.807, 132.500 181.548 C 150.353 178.876, 164.029 178.300, 168.574 180.028 C 170.061 180.593, 171.463 180.870, 171.690 180.643 C 171.917 180.416, 171.348 175.116, 170.425 168.865 C 169.267 161.017, 168.923 154.352, 169.314 147.327 L 169.879 137.154 166.790 136.077 C 162.520 134.588, 162.304 134.653, 161.551 137.654" stroke="none" fill="black" fill-rule="evenodd"/>
</svg>