<svg xmlns="http://www.w3.org/2000/svg" width="200" height="200" viewBox="0 0 200 200" version="1.1">
	<path d="M 132 11.977 C 130.625 12.428, 113.975 13.558, 95 14.489 C 59.632 16.225, 56 16.789, 56 20.543 C 56 22.114, 64.889 28.235, 76.164 34.428 C 81.079 37.128, 83.028 37.764, 83.591 36.853 C 84.011 36.174, 83.937 35.474, 83.427 35.299 C 80.692 34.356, 61.901 22.765, 62.362 22.305 C 63.141 21.526, 100 34.086, 100 35.130 C 100 35.609, 99.550 36, 99 36 C 98.450 36, 98 36.675, 98 37.500 C 98 39.415, 98.990 39.396, 101.802 37.426 C 103.854 35.989, 104.439 36.002, 108.570 37.580 C 111.058 38.530, 112.734 39.646, 112.296 40.060 C 111.858 40.473, 97.325 41.007, 80 41.245 C 52.280 41.626, 47.843 41.907, 43.024 43.589 C 36.030 46.029, 33.725 49.405, 36.333 53.385 C 37.918 55.805, 38.585 56, 45.273 56.004 C 49.248 56.006, 58.323 56.305, 65.441 56.668 L 78.382 57.328 72.441 58.983 C 53.255 64.327, 45.520 76.184, 51.354 91.307 C 53.127 95.901, 53.588 96.289, 61.808 100.086 C 70.103 103.918, 74 106.471, 74 108.072 C 74 109.662, 64.943 112.073, 49.508 114.590 C 33.309 117.233, 28.395 118.806, 27.282 121.709 C 26.312 124.236, 31.858 128.414, 40.718 131.831 C 49.863 135.358, 47.577 135.484, 82.429 129.524 C 93.489 127.633, 106.355 125.823, 111.019 125.503 C 115.684 125.183, 121.240 124.700, 123.366 124.430 C 127.168 123.947, 127.221 123.985, 126.537 126.720 C 125.084 132.535, 119.885 143.683, 116.986 147.201 C 114.566 150.137, 112.873 151.092, 108.470 152.006 C 103.506 153.037, 102.652 152.948, 99.649 151.092 C 96.548 149.176, 89.774 141.234, 85.610 134.634 C 83.902 131.926, 83.496 131.794, 78.236 132.230 C 73.393 132.632, 72.238 133.164, 69.335 136.331 C 65.986 139.986, 65.542 141.801, 65.988 150 C 66.514 159.669, 75.542 175.325, 84.486 182.077 C 94.273 189.467, 103.984 190.977, 112.522 186.437 L 117.341 183.875 125.596 186.560 C 140.784 191.501, 158.354 188.722, 164.950 180.336 C 167.849 176.651, 167.333 172.316, 163.671 169.599 C 159.584 166.567, 145.813 166.919, 133.500 170.370 L 124.500 172.893 114.499 168.051 C 103.179 162.569, 100.006 159.903, 101.976 157.528 C 102.753 156.593, 104.102 156.238, 105.526 156.596 C 106.840 156.926, 109.784 156.305, 112.410 155.143 C 115.883 153.607, 121.678 152.726, 136.249 151.520 C 156.423 149.851, 167.437 148.415, 169.678 147.160 C 171.680 146.040, 162.474 135.130, 157.362 132.567 L 153.225 130.492 158.031 125.265 C 160.674 122.390, 164.031 117.513, 165.491 114.426 C 170.609 103.609, 171.096 98.302, 170.555 59.309 C 170.111 27.279, 169.886 23.514, 168.304 21.613 C 165.279 17.975, 163.706 17, 160.860 17 C 155.818 17, 150.624 26.744, 146.470 43.992 L 144.666 51.484 141.304 34.992 C 139.455 25.921, 137.780 17.150, 137.581 15.500 C 137.382 13.850, 137.170 12.162, 137.110 11.750 C 136.975 10.826, 135.282 10.902, 132 11.977 M 104.670 16.580 C 83.202 17.809, 74.681 18.742, 83.292 18.921 C 88.544 19.030, 101.851 21.871, 105.183 23.595 C 109.306 25.727, 110.505 28.580, 108.540 31.580 C 107.015 33.907, 107.047 34.066, 109.219 34.867 C 110.473 35.329, 115.662 37.185, 120.750 38.991 C 130.627 42.496, 131.229 43.209, 128.803 48.533 C 127.206 52.039, 121.272 54.920, 112.692 56.357 C 108.822 57.005, 105.490 58.029, 105.289 58.632 C 105.088 59.235, 107.334 60.907, 110.280 62.348 C 117.097 65.684, 122.475 71.058, 124.623 76.682 C 126.529 81.673, 126.336 81.996, 120 84.423 C 113.910 86.755, 106.814 90.958, 107.192 92.008 C 107.361 92.478, 110.816 96.719, 114.869 101.432 C 122.524 110.332, 123.984 111.097, 129.385 109.044 C 132.345 107.918, 132.535 107.307, 138.406 80.062 C 142.164 62.618, 142.509 59.899, 141.766 53.562 C 140.911 46.267, 135.199 17.132, 134.357 15.769 C 133.811 14.885, 134.717 14.860, 104.670 16.580 M 158.216 21.270 C 155.482 24.180, 151.555 34.637, 148.393 47.429 C 146.142 56.533, 145.907 59.451, 145.943 77.817 C 145.974 93.606, 145.662 98.754, 144.542 100.918 C 143.103 103.701, 136.605 110, 135.173 110 C 134.756 110, 133.859 112.077, 133.180 114.615 C 131.667 120.275, 132.510 121.578, 138.308 122.537 C 140.613 122.919, 144.735 124.073, 147.467 125.102 L 152.433 126.972 155.645 123.860 C 157.411 122.148, 160.230 118.170, 161.908 115.021 C 166.620 106.180, 168.096 98.009, 167.930 81.684 C 167.850 73.883, 167.698 57.856, 167.591 46.069 L 167.396 24.638 164.813 21.819 C 161.689 18.410, 160.960 18.349, 158.216 21.270 M 85.500 26.420 C 102.970 32.561, 103.557 32.694, 105.418 30.928 C 110.304 26.293, 100.906 23.369, 72 20.533 C 68.833 20.222, 72.832 21.966, 85.500 26.420 M 114.633 43.250 C 113.856 44.487, 112.040 47.413, 110.598 49.750 L 107.975 54 110.306 54 C 114.243 54, 123.002 50.998, 125.055 48.945 C 127.970 46.030, 127.433 44.391, 122.980 42.609 C 117.642 40.473, 116.313 40.575, 114.633 43.250 M 79 44.087 C 47.567 44.673, 42.696 45.218, 39.113 48.554 C 38.351 49.264, 37.967 50.471, 38.260 51.236 C 38.677 52.321, 44.030 52.889, 62.647 53.825 C 75.766 54.485, 90.443 55.019, 95.262 55.012 L 104.025 55 107.596 49.417 C 109.560 46.346, 111.017 43.759, 110.834 43.667 C 110.650 43.575, 96.325 43.764, 79 44.087 M 99.813 58.683 C 100.534 58.972, 101.397 58.936, 101.729 58.604 C 102.061 58.272, 101.471 58.036, 100.417 58.079 C 99.252 58.127, 99.015 58.364, 99.813 58.683 M 82 60.430 C 82 60.824, 84.436 64.259, 87.413 68.065 L 92.827 74.983 96.345 68.742 C 98.280 65.309, 99.495 62.123, 99.045 61.663 C 98.019 60.614, 82 59.455, 82 60.430 M 69.314 62.838 C 61.476 65.576, 56.517 69.300, 54.121 74.250 C 51.588 79.483, 51.461 83.060, 53.586 89.299 C 55.121 93.802, 55.477 94.099, 64.493 98.369 C 74.645 103.179, 78.288 106.743, 75.941 109.571 C 73.365 112.675, 68.740 114.081, 51.475 117.004 C 34.348 119.905, 30 121.115, 30 122.984 C 30 123.487, 32.813 125.218, 36.250 126.832 C 48.449 132.560, 47.687 132.522, 71.230 128.580 C 101.665 123.485, 112.539 122.039, 120.583 122.018 C 124.479 122.008, 127.976 121.691, 128.354 121.313 C 128.732 120.935, 127.365 118.910, 125.317 116.813 C 121.937 113.351, 121.110 113, 116.335 113 C 113.442 113, 108.593 112.072, 105.560 110.937 C 95.843 107.301, 93.386 101.047, 99.112 94.526 L 102.223 90.982 99.362 87.357 C 92.669 78.879, 93.640 79.231, 90.719 84.217 C 84.417 94.971, 82.312 93.110, 80.090 74.818 C 78.240 59.596, 78.326 59.691, 69.314 62.838 M 98.688 70.037 C 94.423 78.006, 94.331 77.450, 101.192 85.271 L 104.500 89.043 113.378 84.560 C 118.260 82.095, 122.477 79.856, 122.749 79.584 C 123.021 79.313, 122.077 77.101, 120.652 74.669 C 117.872 69.926, 110.364 64.401, 105.429 63.468 C 102.655 62.943, 102.298 63.290, 98.688 70.037 M 82.325 70.500 C 82.640 73.250, 83.200 78.107, 83.570 81.293 C 83.958 84.643, 84.685 86.938, 85.293 86.736 C 85.871 86.543, 87.482 84.347, 88.873 81.856 L 91.401 77.326 87.501 72.413 C 81.614 64.998, 81.698 65.029, 82.325 70.500 M 139.166 89.390 C 137.332 98.066, 136.069 105.403, 136.360 105.694 C 137.312 106.645, 141.962 100.803, 142.791 97.614 C 143.237 95.901, 143.354 89.801, 143.051 84.057 L 142.500 73.615 139.166 89.390 M 101.174 96.314 C 98.194 99.487, 98.378 103.366, 101.631 105.924 C 105.500 108.968, 119.831 112.199, 118.335 109.691 C 117.063 107.558, 104.681 94, 104.006 94 C 103.644 94, 102.370 95.042, 101.174 96.314 M 126.583 112.866 C 126.288 113.343, 126.937 114.538, 128.024 115.521 C 129.111 116.505, 130 116.827, 130 116.237 C 130 115.647, 130.273 114.452, 130.607 113.582 C 131.039 112.457, 130.623 112, 129.166 112 C 128.040 112, 126.877 112.390, 126.583 112.866 M 128.035 131.250 C 126.807 134.688, 124.281 140.313, 122.420 143.750 C 119.561 149.033, 119.306 149.998, 120.769 149.988 C 123.429 149.969, 155.887 147.062, 161.250 146.362 C 163.863 146.021, 166 145.358, 166 144.889 C 166 142.955, 157.298 135.121, 154.500 134.536 C 146.960 132.960, 143.791 131.724, 138.973 128.482 C 131.670 123.567, 130.691 123.815, 128.035 131.250 M 141.451 126.921 C 142.267 128.241, 150.923 131.410, 151.671 130.662 C 152.016 130.318, 150.318 129.137, 147.899 128.040 C 143.171 125.894, 140.534 125.437, 141.451 126.921 M 76.827 134.709 C 75.357 134.934, 73.030 136.243, 71.655 137.617 C 62.246 147.027, 74.968 175.558, 92.300 183.913 C 98.842 187.066, 107.782 186.597, 113.342 182.809 L 117.183 180.191 122.529 182.555 C 134.414 187.811, 148.075 187.903, 157.228 182.788 C 162.129 180.049, 165.336 176.039, 164.457 173.749 C 162.709 169.193, 148.446 169.015, 132.843 173.353 L 124.186 175.760 115.049 171.418 C 101.717 165.083, 96.990 160.755, 99.099 156.815 C 99.828 155.453, 98.953 154.102, 94.881 150.299 C 92.056 147.659, 87.985 142.912, 85.835 139.750 C 83.685 136.588, 81.380 134.067, 80.713 134.150 C 80.046 134.232, 78.297 134.484, 76.827 134.709" stroke="none" fill="black" fill-rule="evenodd"/>
</svg>