<svg xmlns="http://www.w3.org/2000/svg" width="200" height="200" viewBox="0 0 200 200" version="1.1">
	<path d="M 122.500 13.613 C 68.345 18.616, 63.651 18.955, 62.433 17.945 C 61.557 17.218, 60.971 17.238, 60.492 18.013 C 60.114 18.624, 58.724 19.534, 57.403 20.037 C 55.191 20.878, 54.010 22.996, 55.750 23.003 C 56.163 23.005, 56.534 24.579, 56.575 26.502 C 56.714 32.969, 64.011 37.724, 77.366 40.050 C 86.072 41.566, 100.514 40.883, 104.540 38.765 C 107.481 37.218, 107.885 37.292, 117.037 41.068 C 126.586 45.006, 134.331 49.659, 134.404 51.500 C 134.500 53.921, 128.139 55.356, 115.505 55.764 L 102.500 56.183 109.409 51.842 C 117.037 47.048, 119.115 44.715, 117.340 42.940 C 116.521 42.121, 112.158 42.243, 100.863 43.401 C 92.413 44.267, 75.825 45.142, 64 45.344 C 39.507 45.762, 33.919 47.018, 35.716 51.702 C 37.154 55.449, 56.166 60.931, 68 61.011 L 73.500 61.047 67.909 63.348 C 52.644 69.627, 42.807 82.736, 45.818 92.785 C 47.539 98.532, 52.358 102.665, 63.958 108.341 L 74.500 113.500 84.500 113.500 C 96.494 113.500, 104.734 111.056, 113.542 104.886 C 117.354 102.215, 119.606 101.206, 120.270 101.870 C 122.405 104.005, 110.910 119.444, 104.852 122.577 C 100.533 124.810, 96.712 124.298, 91.952 120.850 L 87.604 117.700 68.552 118.352 C 38.371 119.384, 26.052 122.492, 29.155 128.290 C 30.548 130.893, 36.829 133.501, 50.079 136.977 C 58.392 139.158, 61.775 139.656, 63.181 138.903 C 68.541 136.035, 71.069 140.928, 75.555 162.850 C 79.772 183.457, 81.923 187.077, 86.959 182.041 C 91.465 177.535, 98.014 160.280, 98.450 151.762 C 98.678 147.324, 99.370 145.203, 101.505 142.404 C 105.313 137.411, 114.023 132.017, 126.210 127.103 C 144.074 119.900, 147.323 117.224, 143.429 112.921 C 142.468 111.860, 139.166 110.067, 136.091 108.936 C 133.016 107.805, 129.269 105.809, 127.765 104.500 L 125.029 102.121 128.141 95.311 C 129.852 91.565, 134.779 79.725, 139.088 69 L 146.925 49.500 146.962 81.236 C 146.988 102.637, 147.391 114.432, 148.199 117.456 C 150.718 126.872, 144.355 132.965, 126.056 138.660 C 113.135 142.682, 111.918 143.367, 114.043 145.427 C 115.295 146.640, 119.515 147.488, 139.651 150.571 C 142.767 151.048, 142.810 151.134, 143.526 158.277 C 144.469 167.692, 146.201 173.264, 149.548 177.651 C 156.101 186.244, 164.912 184.967, 170.171 174.663 C 174.282 166.608, 174.894 158.743, 174.933 113.434 C 174.954 89.820, 175.263 61.500, 175.619 50.500 C 176.187 32.981, 176.044 29.710, 174.468 24.130 C 172.394 16.787, 168.861 12, 165.515 12 C 162.179 12, 157.323 18.036, 152.656 27.983 L 148.660 36.500 147.507 31.400 C 146.873 28.595, 145.351 23.828, 144.125 20.807 C 142.898 17.786, 142.031 14.681, 142.198 13.907 C 142.607 12.004, 140.286 11.970, 122.500 13.613 M 163.079 15.921 C 160.429 18.571, 156.613 25.326, 153.118 33.553 L 150.121 40.606 149.866 77.053 C 149.671 104.891, 149.921 114.499, 150.922 117.729 C 152.129 121.624, 152.046 122.334, 149.866 126.729 C 146.800 132.912, 140.413 137.199, 129.129 140.650 C 124.383 142.101, 120.132 143.614, 119.682 144.012 C 118.889 144.714, 128.614 146.452, 140.110 147.664 L 145.721 148.256 146.306 156.878 C 147.052 167.858, 149.218 174.106, 153.619 177.970 C 158.037 181.850, 160.410 181.790, 164.503 177.697 C 171.201 170.999, 171.203 170.978, 172.210 96.500 C 173.143 27.602, 173.098 26.395, 169.328 18.327 C 167.448 14.304, 165.461 13.539, 163.079 15.921 M 111 17.448 C 85.430 19.744, 85.818 19.615, 94.500 22.969 C 99.630 24.951, 106.631 29.896, 107.734 32.315 C 108.471 33.933, 111.536 35.766, 117.943 38.422 C 130.173 43.491, 136.409 47.710, 136.810 51.187 C 137.034 53.126, 136.457 54.309, 134.740 55.435 C 131.461 57.583, 118.182 59.216, 107.167 58.825 C 102.122 58.646, 97.996 58.837, 97.998 59.250 C 97.999 59.663, 98.563 60.001, 99.250 60.003 C 101.338 60.008, 113.654 66.558, 117.902 69.923 C 120.165 71.715, 123.041 75.428, 124.542 78.497 C 127.646 84.840, 127.333 89.756, 123.464 95.458 C 122.163 97.375, 121.466 99.170, 121.915 99.448 C 123.889 100.667, 146 46.483, 146 40.428 C 146 32.253, 139.982 15.645, 136.921 15.374 C 136.140 15.305, 124.475 16.238, 111 17.448 M 59.583 23.750 C 58.075 25.258, 59.270 29.049, 61.969 31.320 C 67.433 35.919, 74.152 37.470, 88.663 37.486 C 100.326 37.498, 104.299 36.966, 102.909 35.575 C 102.144 34.810, 66.159 23.925, 63.126 23.541 C 61.498 23.335, 59.904 23.429, 59.583 23.750 M 76 24.006 C 87.425 27.885, 104.352 32.981, 104.689 32.644 C 105.245 32.089, 98.671 28.054, 92.651 25.255 C 88.961 23.539, 86.091 23.019, 80.651 23.079 C 75.361 23.137, 74.151 23.379, 76 24.006 M 103 46.114 C 99.975 46.571, 84.900 47.317, 69.500 47.771 C 51.881 48.290, 40.758 49.019, 39.500 49.736 C 37.664 50.783, 37.890 51.049, 42.256 52.987 C 49.361 56.142, 60.840 58, 73.223 58 C 89.307 58, 95.938 56.525, 105.750 50.765 C 110.287 48.102, 114 45.715, 114 45.461 C 114 44.844, 109.709 45.099, 103 46.114 M 85.500 61 C 85.160 61.550, 85.549 62, 86.364 62 C 90.645 62, 98 72.066, 98 77.925 C 98 79.932, 98.682 81.294, 100.054 82.029 C 101.183 82.633, 105.731 86.054, 110.161 89.630 C 114.888 93.447, 118.808 95.904, 119.652 95.580 C 121.435 94.896, 124 88.945, 124 85.492 C 124 81.573, 120.508 75.570, 116.280 72.222 C 106.269 64.293, 87.658 57.508, 85.500 61 M 74.344 64.095 C 60.645 66.629, 46.966 80.254, 48.281 90.055 C 49.153 96.558, 52.142 99.476, 63.798 105.200 C 73.741 110.084, 75.103 110.481, 83 110.807 C 89.898 111.092, 92.923 110.704, 99.052 108.749 C 105.690 106.630, 117.071 100.445, 116.960 99.016 C 116.899 98.239, 101.629 86.179, 99.833 85.490 C 98.597 85.015, 98.165 85.846, 97.754 89.486 C 97.182 94.566, 94.745 98, 91.713 98 C 84.239 98, 72.659 81.242, 75.921 75.147 C 77.607 71.997, 83.468 72.301, 90.298 75.894 L 95.800 78.788 94.982 75.938 C 92.192 66.209, 85.054 62.113, 74.344 64.095 M 78.388 76.432 C 77.392 79.027, 80.869 86.779, 84.956 91.075 C 91.084 97.516, 95.030 95.691, 95.348 86.267 C 95.500 81.783, 95.484 81.761, 90 78.920 C 82.520 75.044, 79.194 74.331, 78.388 76.432 M 119.199 111.427 C 114.249 118.956, 107.082 125.603, 102.933 126.515 C 98.795 127.424, 94.454 126.253, 90.912 123.272 L 87.871 120.714 68.186 121.285 C 44.390 121.974, 29.848 124.327, 31.623 127.199 C 32.609 128.794, 39.891 131.537, 50.658 134.369 C 59.032 136.571, 61.265 136.836, 63.367 135.878 C 65.459 134.926, 66.393 135.027, 68.553 136.442 C 72.383 138.952, 74.868 145.486, 78.193 161.792 C 81.386 177.445, 82.441 181, 83.894 181 C 86.886 181, 94.874 161.309, 95.953 151.271 C 96.555 145.671, 97.354 143.225, 99.498 140.413 C 103.025 135.789, 111.915 130.040, 121.780 126.002 C 135.988 120.187, 142 117.116, 142 115.676 C 142 114.400, 136.137 111.328, 130.382 109.589 C 129.217 109.237, 127.460 108.060, 126.477 106.974 C 125.494 105.889, 124.405 105, 124.057 105 C 123.709 105, 121.523 107.892, 119.199 111.427" stroke="none" fill="black" fill-rule="evenodd"/>
</svg>