<svg xmlns="http://www.w3.org/2000/svg" width="200" height="200" viewBox="0 0 200 200" version="1.1">
	<path d="M 96.500 10.663 C 75.092 13.258, 66.516 14.040, 55.622 14.394 C 44.227 14.764, 42.503 15.052, 40.661 16.895 C 37.597 19.958, 39.463 20.984, 46.146 19.911 C 52.208 18.938, 58.385 20.317, 76.500 26.687 C 82.939 28.951, 84.561 29.932, 84.815 31.715 C 85.055 33.400, 84.498 34.088, 82.484 34.593 C 77.759 35.779, 66.709 34.303, 57.245 31.222 C 51.767 29.438, 47.747 28.601, 47.395 29.171 C 46.491 30.632, 47.173 30.983, 56.670 33.944 C 66.941 37.145, 67.377 36.937, 45 39.514 C 29.577 41.289, 24.754 42.389, 22.498 44.645 C 18.599 48.544, 27.411 51.782, 47.994 54.015 C 57.346 55.030, 62.114 56, 57.750 56 C 54.710 56, 47.130 59.888, 43.139 63.494 C 37.975 68.159, 35.526 74.353, 36.439 80.441 C 37.117 84.962, 37.126 84.971, 46.139 89.626 C 57.142 95.309, 62.864 100.254, 61.014 102.484 C 59.316 104.529, 54.295 105.760, 40.331 107.553 C 22.225 109.878, 15 112.440, 15 116.537 C 15 119.298, 21.204 124.909, 28.282 128.549 L 35.500 132.261 59.500 127.631 C 86.808 122.362, 102.123 120.045, 109.817 120.018 C 114.411 120.002, 115.066 120.238, 114.632 121.750 C 114.355 122.713, 113.821 127.887, 113.445 133.250 L 112.762 143 109.210 143 C 107.256 143, 98.421 140.557, 89.577 137.570 C 69.461 130.779, 62.116 129.328, 56.108 130.960 L 51.716 132.154 52.395 141.827 C 54.044 165.313, 60.235 177.378, 72.659 181.312 C 80.518 183.800, 87.865 184.187, 104.867 183.009 C 118.699 182.051, 121.636 182.111, 126.139 183.449 C 140.652 187.758, 151.658 182.627, 155.475 169.771 C 159.591 155.911, 154.619 138.237, 143.889 128.590 C 138.568 123.806, 132.888 121.733, 126.223 122.143 C 123.037 122.339, 121.502 122.007, 121.185 121.056 C 120.548 119.143, 131.056 120.299, 138.689 122.982 C 141.847 124.092, 144.446 124.998, 144.465 124.995 C 144.484 124.992, 144.518 122.155, 144.540 118.691 C 144.609 107.770, 150.282 100.745, 168.998 88.404 C 180.287 80.960, 182.745 78.260, 181.075 75.140 C 179.728 72.622, 171.935 69.685, 160.661 67.446 C 153.396 66.004, 152.008 65.432, 152.539 64.103 C 156.175 54.994, 153.837 29.479, 148.379 18.699 C 145.886 13.776, 143.935 12, 141.019 12 C 135.670 12, 131.061 20.296, 126.614 37.929 C 125.169 43.658, 123.813 48.520, 123.600 48.734 C 123.386 48.947, 122.377 46.957, 121.356 44.311 C 119.531 39.581, 119.422 36.873, 120.280 17.538 C 120.475 13.143, 120.215 12.431, 118 11.303 C 115.668 10.115, 103.910 9.765, 96.500 10.663 M 84.183 14.738 L 71.866 16.263 76.183 18.770 C 78.557 20.148, 82.075 22.759, 84 24.570 C 85.925 26.382, 89.854 28.785, 92.732 29.910 C 99.433 32.531, 111.686 38.676, 115.294 41.225 L 118.088 43.199 117.294 40.349 C 116.857 38.782, 116.648 34.350, 116.828 30.500 C 117.008 26.650, 117.233 21.250, 117.328 18.500 L 117.500 13.500 107 13.356 C 101.225 13.277, 90.957 13.899, 84.183 14.738 M 138.539 15.604 C 134.879 19.264, 131.148 29.529, 127.560 45.810 C 125.997 52.903, 126.009 53.204, 127.979 55.971 C 132.581 62.433, 134.981 69.311, 134.968 76 C 134.950 85.717, 131.616 91.758, 122.276 99 C 119.213 101.375, 119.037 101.875, 118.776 108.985 L 118.500 116.470 125.500 117.243 C 129.350 117.668, 134.362 118.643, 136.638 119.409 L 140.776 120.802 141.419 116.651 C 143.119 105.664, 149.677 97.935, 166.903 86.612 C 177.688 79.524, 179.863 77.463, 178.256 75.856 C 176.445 74.045, 166.527 71.202, 155.532 69.342 C 148.570 68.164, 145 67.126, 145 66.280 C 145 65.576, 145.884 65, 146.965 65 C 149.587 65, 150.718 62.614, 151.541 55.344 C 152.814 44.092, 148.577 22.546, 143.930 16.638 C 141.517 13.570, 140.725 13.418, 138.539 15.604 M 62.379 17.924 C 60.865 18.335, 63.075 19.395, 70.114 21.630 C 80.632 24.971, 81.950 24.828, 74.575 21.144 C 68.616 18.169, 64.996 17.212, 62.379 17.924 M 88 32.378 C 88 33.135, 87.366 34.281, 86.592 34.924 C 85.406 35.908, 85.565 36.474, 87.592 38.501 C 90.418 41.327, 90.483 41.909, 88.500 46.654 C 87.675 48.629, 87 50.302, 87 50.372 C 86.999 50.880, 114.019 50.129, 115.774 49.572 C 120.894 47.947, 116.752 44.297, 101.350 36.864 C 94.668 33.639, 88.931 31, 88.600 31 C 88.270 31, 88 31.620, 88 32.378 M 54.500 41.040 C 28.621 44.169, 22.160 45.668, 26.756 47.477 C 32.475 49.729, 44.759 51.169, 62.662 51.685 L 82.823 52.267 84.912 48.173 C 86.060 45.922, 87 43.403, 87 42.575 C 87 38.536, 78.526 38.136, 54.500 41.040 M 117.500 51.536 C 115.534 52.436, 110.193 52.960, 102 53.055 C 95.125 53.134, 88.437 53.498, 87.138 53.862 C 85.069 54.443, 85.332 54.674, 89.260 55.725 C 94.834 57.215, 101.680 62.377, 104.216 67 C 106.549 71.254, 106.149 78.614, 103.226 85.222 L 101.292 89.594 105.207 95.047 C 110.532 102.464, 110.386 102.369, 113.756 100.626 C 116.612 99.149, 116.795 98.652, 117.928 89.291 C 118.580 83.906, 120.016 73.784, 121.117 66.797 C 122.628 57.219, 122.851 53.591, 122.025 52.047 C 121.423 50.921, 120.833 50.037, 120.715 50.081 C 120.597 50.126, 119.150 50.781, 117.500 51.536 M 64.638 57.049 C 53.946 58.704, 43.862 64.594, 40.411 71.200 C 38.915 74.063, 38.534 80.774, 39.765 82.575 C 40.169 83.166, 44.228 85.624, 48.786 88.037 C 59.655 93.791, 64.250 97.966, 63.821 101.700 C 63.335 105.941, 58.462 107.719, 39.780 110.473 C 23.021 112.945, 18 114.347, 18 116.557 C 18 118.461, 24.620 123.835, 30.542 126.740 L 35.871 129.353 60.377 124.635 C 85.954 119.710, 103.532 117.053, 110.750 117.020 C 113.088 117.009, 115 116.568, 115 116.041 C 115 115.513, 113.763 113.023, 112.250 110.506 L 109.500 105.931 104 106.688 C 96.407 107.733, 92.272 107.408, 89.425 105.543 C 85.558 103.009, 86.292 99.629, 92.027 93.565 L 97.054 88.250 91.425 83.106 C 88.330 80.277, 84.937 77.502, 83.887 76.939 C 82.008 75.934, 82.008 76, 83.865 80.887 L 85.753 85.857 83.411 84.966 C 75.595 81.995, 66.978 75.534, 67.015 72.673 C 67.056 69.593, 68.811 68.699, 73.687 69.277 L 78.570 69.855 79.737 63.713 C 80.379 60.335, 80.711 57.377, 80.474 57.141 C 79.568 56.235, 70.246 56.181, 64.638 57.049 M 83.037 60.807 C 82.473 62.838, 82.009 66.315, 82.006 68.534 C 82.001 71.897, 82.467 72.845, 84.804 74.225 C 86.347 75.136, 90.159 78.332, 93.276 81.327 C 99.348 87.161, 99.818 87.149, 101.855 81.101 C 105.353 70.717, 100.292 61.999, 88.750 58.525 L 84.062 57.114 83.037 60.807 M 124.650 61.224 C 123.043 70.265, 119.911 95.232, 120.254 96.262 C 120.470 96.910, 122.750 95.276, 125.322 92.630 C 133.228 84.495, 134.600 75.967, 129.804 64.781 C 126.969 58.169, 125.387 57.077, 124.650 61.224 M 70 72.045 C 70 73.557, 74.212 77.541, 77.738 79.364 L 80.770 80.933 79.797 77.098 C 78.970 73.842, 78.254 73.093, 75.046 72.132 C 70.402 70.740, 70 70.734, 70 72.045 M 94.208 95.288 C 89.419 100.167, 88.937 102.559, 92.422 104.146 C 95.094 105.364, 105.589 104.474, 106.531 102.949 C 106.956 102.261, 99.471 91, 98.588 91 C 98.494 91, 96.523 92.930, 94.208 95.288 M 113.145 103.890 C 112.028 104.597, 112.092 105.211, 113.510 107.374 C 114.456 108.818, 115.403 110, 115.615 110 C 115.827 110, 116 108.425, 116 106.500 C 116 102.891, 115.476 102.412, 113.145 103.890 M 123 125.465 C 123 125.721, 124.361 128.077, 126.025 130.700 C 129.717 136.522, 131.340 142.174, 130.465 146.158 C 129.545 150.348, 124.547 155.689, 118.840 158.581 C 114.519 160.771, 114 161.390, 114 164.350 C 114 166.174, 113.788 167.879, 113.529 168.138 C 112.638 169.029, 88.909 166.309, 87.788 165.188 C 86.333 163.733, 87.120 163.470, 98.932 161.471 C 111.873 159.282, 112 159.189, 112 151.965 L 112 146 108.852 146 C 107.121 146, 97.784 143.323, 88.102 140.052 C 70.205 134.004, 62.137 132.247, 57.553 133.397 C 55.299 133.963, 55 134.554, 55 138.447 C 55 152.048, 58.974 166.623, 64.353 172.749 C 70.859 180.159, 81.737 182.032, 107.135 180.113 C 119.578 179.173, 122.406 179.232, 126.011 180.504 C 131.013 182.269, 140.221 182.468, 143.316 180.878 C 151.195 176.830, 154.532 169.012, 153.748 156.441 C 152.629 138.504, 141.526 125.086, 127.750 125.022 C 125.138 125.010, 123 125.209, 123 125.465 M 116.704 129.875 C 115.710 134.639, 115.829 142.224, 116.887 141.570 C 118.288 140.704, 118.950 134.875, 118.145 130.500 L 117.408 126.500 116.704 129.875 M 121.032 134.673 C 121.004 140.125, 120.662 141.184, 118.109 143.737 C 115.819 146.027, 115.144 147.706, 114.859 151.815 C 114.649 154.847, 114.915 156.999, 115.500 156.995 C 117.594 156.983, 124.190 152.260, 126.047 149.442 C 127.114 147.824, 127.980 145.150, 127.971 143.500 C 127.955 140.343, 125.304 133.877, 122.641 130.500 C 121.158 128.620, 121.062 128.870, 121.032 134.673 M 104 163.445 L 99.500 164.693 105.251 165.097 C 110.216 165.445, 111.003 165.261, 111.001 163.750 C 111 161.750, 110.231 161.716, 104 163.445" stroke="none" fill="black" fill-rule="evenodd"/>
</svg>