<svg xmlns="http://www.w3.org/2000/svg" width="200" height="200" viewBox="0 0 200 200" version="1.1">
	<path d="M 68.727 12.449 C 65.862 13.877, 65.493 16.129, 67.448 20.249 C 70.527 26.738, 74.851 30.953, 79.131 31.637 C 81.324 31.988, 84.103 33.092, 85.309 34.092 C 87.442 35.860, 86.990 35.906, 68.385 35.808 C 51.519 35.718, 48.813 35.929, 45.385 37.603 C 42.788 38.871, 41.390 40.278, 41.168 41.845 C 40.816 44.330, 42.754 50, 43.955 50 C 45.629 50, 45.826 48.565, 44.503 46.006 C 41.165 39.551, 49.580 37.458, 74.542 38.533 L 90.585 39.224 93.730 42.971 L 96.876 46.718 84.188 47.260 C 69.768 47.877, 57 50.376, 57 52.580 C 57 54.340, 57.236 54.335, 64 52.416 C 67.215 51.504, 75.636 50.621, 84.271 50.291 C 97.650 49.780, 98.983 49.880, 98.417 51.356 C 97.946 52.583, 97.138 52.802, 95.146 52.243 C 89.883 50.765, 81.337 51.845, 73.073 55.032 C 63.175 58.849, 61.845 60.568, 61.260 70.310 C 60.888 76.488, 61.165 78.134, 63.228 82 C 70.810 96.214, 98.180 102.136, 121.500 94.608 C 125.900 93.188, 129.793 92.020, 130.152 92.013 C 131.211 91.992, 133 98.030, 133 101.626 C 133 104.083, 132.338 105.388, 130.470 106.612 C 126.713 109.073, 112.920 107.954, 93.318 103.597 C 71.233 98.688, 63 98.952, 63 104.571 C 63 106.314, 64.417 106.379, 50.500 104 C 30.820 100.636, 21.846 101.592, 21.198 107.124 C 20.857 110.038, 25.359 114.616, 31.778 117.881 C 42.516 123.344, 60.113 126.214, 69.941 124.106 C 72.884 123.475, 75.482 123.149, 75.714 123.381 C 75.946 123.613, 71.943 126.272, 66.818 129.291 C 55.903 135.719, 53.101 138.352, 54.619 140.757 C 56.333 143.475, 60.611 143.991, 81.041 143.942 C 97.320 143.903, 113.422 145.089, 114.759 146.426 C 115.467 147.133, 105.852 148.952, 95.500 150.069 C 81.014 151.632, 62.190 150.763, 54.535 148.179 L 48.729 146.219 49.285 153.859 C 50.420 169.453, 56.027 179.210, 67.038 184.753 C 76.267 189.400, 84.001 190.186, 113 189.429 L 137.500 188.789 144.735 184.725 C 153.218 179.959, 156.528 176.819, 155.605 174.412 C 155.028 172.908, 153.671 172.792, 143.228 173.353 C 109.135 175.185, 104.015 175.263, 97.827 174.049 C 91.872 172.881, 86 170.344, 86 168.939 C 86 168.592, 93.088 168.014, 101.750 167.654 C 135.990 166.231, 151 160.011, 151 147.244 C 151 141.940, 147.428 134.586, 142.164 129.052 C 138.982 125.707, 137.628 124.989, 134.405 124.939 C 128.367 124.844, 116.281 122.517, 118.108 121.802 C 118.992 121.455, 128.667 120.215, 139.608 119.046 C 166.956 116.124, 179.170 114.347, 183.133 112.713 L 186.500 111.326 182 109.036 C 177.761 106.880, 140.973 86.093, 140.089 85.355 C 139.864 85.167, 140.426 84.187, 141.339 83.177 C 143.542 80.744, 143.453 79.827, 140.437 73.877 C 134.961 63.070, 124.658 55.449, 112.219 53.006 C 101.839 50.966, 103.303 50.553, 123 49.960 C 140.025 49.447, 143.231 49.086, 148.258 47.111 C 154.454 44.679, 161.464 38.893, 160.764 36.791 C 160.523 36.066, 157.869 35.189, 154.715 34.792 C 151.623 34.402, 142.210 31.760, 133.797 28.920 C 120.683 24.492, 118.094 23.269, 115.653 20.349 C 109.861 13.417, 100.825 10.899, 82.718 11.170 C 76.238 11.268, 69.942 11.843, 68.727 12.449 M 92 14.651 C 97.053 16.895, 113 21.723, 113 21.007 C 113 19.229, 102.332 15.032, 96.500 14.515 C 93.200 14.223, 91.175 14.284, 92 14.651 M 73.024 15.750 C 73.037 16.163, 76.074 19.711, 79.774 23.636 L 86.500 30.771 93.700 31.482 C 105.353 32.633, 114.874 30.141, 114.985 25.913 C 115.004 25.192, 99.179 19.774, 89.020 17.025 C 81.570 15.008, 72.979 14.323, 73.024 15.750 M 71.242 21 C 73.968 25.781, 78.054 29.482, 79.920 28.860 C 80.540 28.653, 78.264 25.788, 74.862 22.492 L 68.676 16.500 71.242 21 M 116.027 29.471 C 112.660 33.055, 107.603 34.429, 98.249 34.300 C 93.541 34.236, 90.238 34.576, 90.558 35.094 C 91.364 36.398, 116.613 36.212, 123.385 34.852 C 133.174 32.886, 132.294 35.062, 120.872 41.068 L 110.650 46.442 114.575 47.307 C 119.079 48.300, 135.568 47.500, 142.864 45.936 C 145.581 45.353, 149.979 43.496, 152.639 41.810 L 157.475 38.743 150.488 36.908 C 146.644 35.899, 138.121 33.257, 131.547 31.036 C 124.973 28.816, 119.314 27, 118.971 27 C 118.629 27, 117.304 28.112, 116.027 29.471 M 106.322 38.953 L 94.145 39.500 97.586 43.250 C 99.478 45.313, 101.808 46.987, 102.763 46.970 C 103.719 46.954, 108.100 44.936, 112.500 42.487 C 116.900 40.037, 120.050 38.116, 119.500 38.219 C 118.950 38.321, 113.020 38.652, 106.322 38.953 M 76.234 56.904 C 71.688 58.486, 67.326 60.315, 66.539 60.967 C 64.191 62.916, 62.707 72.199, 63.985 76.945 C 67.237 89.021, 82.757 95.875, 104.305 94.749 C 113.504 94.269, 125.907 91.371, 128.207 89.164 C 128.596 88.791, 127.696 86.588, 126.207 84.270 C 124.025 80.871, 122.005 79.370, 115.789 76.527 C 111.548 74.587, 107.870 73, 107.616 73 C 107.363 73, 106.636 74.574, 106.001 76.497 C 103.782 83.221, 97.310 85.059, 92.789 80.250 C 89.423 76.669, 86.008 70.936, 86.004 68.857 C 85.997 65.727, 91.706 65.104, 99.341 67.402 L 104 68.804 104 66.352 C 104 59.666, 96.937 54.053, 88.500 54.035 C 86.300 54.031, 80.781 55.321, 76.234 56.904 M 101.922 56.142 C 104.608 58.644, 107 63.917, 107 67.335 C 107 69.700, 107.789 70.191, 118.958 74.775 C 119.761 75.105, 117.642 71.802, 114.250 67.437 C 106.089 56.935, 103.254 54, 101.271 54 C 99.943 54, 100.069 54.416, 101.922 56.142 M 111.236 59.250 C 113.148 61.587, 117.092 66.650, 120 70.500 C 123.788 75.515, 126.910 78.416, 131.007 80.731 C 136.712 83.953, 136.730 83.956, 138.546 81.949 C 140.311 79.998, 140.301 79.800, 138.215 75.506 C 133.693 66.197, 125.046 59.162, 114.764 56.425 C 107.401 54.465, 107.353 54.504, 111.236 59.250 M 89.448 70.750 C 90.733 74.147, 94.490 78.902, 96.678 79.899 C 99.578 81.221, 102.766 78.683, 103.593 74.393 C 104.171 71.397, 104.030 71.245, 99.654 70.143 C 97.157 69.514, 93.690 69, 91.950 69 C 89.351 69, 88.904 69.313, 89.448 70.750 M 130.004 85.007 C 131.128 87.107, 132.527 87.575, 133.410 86.146 C 133.700 85.677, 132.812 84.780, 131.437 84.153 C 129.116 83.096, 129.013 83.157, 130.004 85.007 M 134.637 88.475 C 132.868 89.815, 132.855 90.127, 134.387 94.621 C 137.201 102.880, 136.261 106.779, 130.773 109.617 C 126.176 111.995, 114.011 110.990, 94.304 106.604 C 77.618 102.891, 66.527 101.977, 65.727 104.250 C 65.485 104.938, 65.661 106.513, 66.119 107.750 C 66.576 108.987, 66.826 110, 66.675 110 C 66.523 110, 62.371 109.097, 57.449 107.993 C 47.559 105.774, 30.741 104.346, 26.637 105.376 C 18.323 107.463, 31.255 116.675, 47.697 120.379 C 61.031 123.382, 74.151 121.926, 83.590 116.394 C 86.016 114.973, 88 114.100, 88 114.455 C 88 118.217, 80.683 124.596, 68.500 131.455 C 60.150 136.156, 56.596 139.129, 58.149 140.113 C 58.892 140.584, 68.355 140.976, 79.178 140.985 C 98.387 141, 112.649 142.206, 116.223 144.119 C 118.981 145.596, 118.326 147.966, 114.750 149.452 C 104.393 153.753, 66.962 154.926, 54.091 151.352 C 51.684 150.684, 51.683 150.689, 52.338 156.960 C 53.616 169.183, 59.832 178.850, 69 182.871 C 77.461 186.582, 84.939 187.226, 112 186.574 L 137.500 185.959 145.251 181.280 C 149.514 178.707, 152.664 176.274, 152.251 175.873 C 151.838 175.473, 142.165 175.875, 130.755 176.768 C 114.810 178.016, 108.076 178.152, 101.652 177.356 C 91.819 176.138, 84.551 172.965, 82.498 168.997 L 81.051 166.198 93.776 165.572 C 120.546 164.254, 133.847 161.974, 141.841 157.330 C 149.602 152.823, 150.459 146.557, 144.663 136.703 C 140.429 129.506, 138.536 128.407, 128 127.028 C 116.906 125.576, 111.762 123.784, 112.578 121.657 C 113.402 119.509, 119.323 118.341, 141 116.051 C 168.466 113.149, 178 111.834, 178 110.946 C 178 110.259, 137.971 86.954, 136.926 87.032 C 136.692 87.049, 135.661 87.699, 134.637 88.475" stroke="none" fill="black" fill-rule="evenodd"/>
</svg>