<svg xmlns="http://www.w3.org/2000/svg" width="200" height="200" viewBox="0 0 200 200" version="1.1">
	<path d="M 95.079 11.167 C 82.747 12.150, 65.753 13.302, 57.314 13.727 C 41.559 14.521, 36.058 16.300, 48 16.739 C 58.633 17.131, 73.670 19.011, 79.267 20.650 C 88.361 23.312, 86.380 23.662, 75.085 21.388 C 54.391 17.223, 42.500 17.450, 42.500 22.010 C 42.500 24.140, 50.031 27.966, 62.396 32.118 C 72.729 35.588, 73.117 35.816, 69.896 36.530 C 64.215 37.789, 39.028 37.180, 32 35.613 C 26.126 34.303, 25.380 34.318, 24.250 35.773 C 22.547 37.965, 22.676 43.092, 24.498 45.694 C 26.583 48.671, 33.443 51.065, 42.137 51.851 L 49.500 52.516 40.750 54.900 C 35.938 56.211, 32 57.702, 32 58.213 C 32 58.724, 34.004 61.950, 36.453 65.383 C 43.280 74.949, 46.998 83.541, 46.999 89.750 C 47 94.484, 46.632 95.368, 43.249 98.750 C 39.801 102.197, 36.468 104.066, 22.523 110.378 L 17.545 112.630 23.276 115.434 C 32.255 119.827, 41.318 120.710, 56.198 118.640 C 63.028 117.690, 69.714 116.684, 71.058 116.404 C 72.865 116.027, 72.543 116.425, 69.821 117.934 C 62.830 121.812, 63.985 126.386, 72.966 130.385 C 79.720 133.393, 91.477 135.919, 103.500 136.946 C 111.052 137.591, 109.116 137.738, 91.474 137.857 C 70.041 138.003, 55.719 139.165, 50.699 141.168 C 47.149 142.584, 47.385 145.949, 51.162 147.753 C 54.809 149.495, 67.565 152.568, 79 154.459 C 94.713 157.058, 94.380 156.853, 87.263 159.542 C 70.530 165.864, 52.219 177.585, 50.471 183.093 C 47.820 191.444, 64.354 189.102, 90.022 177.490 L 101.929 172.103 107.428 175.414 C 116.265 180.736, 126.093 183.500, 136.177 183.500 C 146.304 183.500, 150.274 181.546, 150.802 176.301 C 151.370 170.665, 141.953 164.541, 122.500 157.896 C 116.450 155.829, 112.175 153.923, 113 153.661 C 113.825 153.398, 122.214 152.258, 131.641 151.127 C 149.079 149.035, 156.364 147.099, 157.451 144.267 C 158.994 140.246, 149.313 135.121, 128 128.675 L 116.500 125.198 116.208 117.599 C 115.924 110.224, 115.985 110, 118.246 110 C 122.035 110, 129.347 114.254, 131.500 117.711 C 132.600 119.478, 133.769 120.940, 134.098 120.961 C 134.427 120.983, 135.495 119.228, 136.471 117.063 C 138.374 112.845, 150.363 100.782, 166.275 87.076 C 179.605 75.594, 182.966 69.671, 177.750 66.856 C 175.231 65.496, 166.400 65.293, 157.813 66.397 L 152.126 67.128 153.220 63.314 C 153.822 61.216, 154.316 55.225, 154.317 50 C 154.322 33.875, 149.488 20.631, 142.357 17.230 C 139.029 15.643, 138.675 15.658, 135.178 17.531 C 132.316 19.063, 130.724 21.101, 128 26.717 C 126.075 30.686, 124.227 33.948, 123.892 33.967 C 122.813 34.026, 117.870 13.986, 118.486 12.046 C 118.813 11.013, 118.726 9.991, 118.291 9.774 C 117.856 9.557, 107.410 10.184, 95.079 11.167 M 100.500 13.668 C 92.800 14.311, 83.597 14.873, 80.050 14.918 C 72.846 15.010, 72.978 16.026, 80.454 18.040 C 83.194 18.778, 86.994 20.806, 88.954 22.578 C 90.904 24.339, 95.378 26.950, 98.895 28.379 C 107.717 31.964, 114.668 36.617, 117.562 40.876 C 121.719 46.994, 121.180 47.636, 111.250 48.387 C 97.712 49.412, 94.186 50.073, 93.560 51.704 C 93.214 52.606, 94.033 54.025, 95.618 55.272 C 101.866 60.186, 103.617 72.049, 100.499 88.344 C 99.673 92.658, 99.221 96.548, 99.493 96.989 C 99.985 97.784, 105.740 96.817, 111.504 94.970 L 114.508 94.007 116.238 78.254 C 117.189 69.589, 118.948 57.471, 120.146 51.324 L 122.324 40.148 119.055 28.324 C 117.256 21.821, 115.496 15.600, 115.142 14.500 C 114.516 12.551, 114.143 12.530, 100.500 13.668 M 135.769 20.069 C 133.318 21.497, 129.059 29.110, 127.015 35.714 C 125.489 40.649, 125.438 41.953, 126.602 46.417 C 131.870 66.631, 129.545 84.925, 120.722 92.671 C 117.542 95.463, 117.074 96.479, 116.805 101.171 L 116.500 106.500 121.500 107.790 C 124.250 108.499, 128.245 110.478, 130.377 112.189 C 134.046 115.131, 134.310 115.197, 135.310 113.410 C 137.334 109.794, 145.592 101.636, 159.597 89.416 C 178.038 73.326, 180.419 69.732, 173.501 68.434 C 171.576 68.073, 165.762 68.278, 160.580 68.889 C 146.929 70.499, 147.804 70.751, 149.701 65.750 C 152.298 58.908, 152.062 41.291, 149.254 32.361 C 145.915 21.738, 140.841 17.114, 135.769 20.069 M 46 21.713 C 46 24.148, 78.337 35.435, 83.579 34.830 C 86.884 34.448, 90.198 29.798, 88.426 28.026 C 85.288 24.888, 46 19.042, 46 21.713 M 91.327 31.192 C 90.466 33.124, 90.741 33.621, 93.417 34.959 C 96.283 36.391, 96.497 36.869, 96.458 41.738 L 96.416 46.975 103.458 46.370 C 107.331 46.036, 112.075 45.440, 114 45.044 L 117.500 44.324 113.273 40.224 C 110.949 37.969, 106.224 34.796, 102.773 33.172 C 93.404 28.762, 92.483 28.603, 91.327 31.192 M 26.184 40.613 C 26.438 43.653, 27.129 44.768, 29.681 46.253 C 35.088 49.398, 49.917 50.419, 70.500 49.061 C 80.400 48.409, 89.504 47.631, 90.732 47.333 C 93.751 46.601, 95.654 40.225, 93.497 38.068 C 92.204 36.775, 90.312 36.804, 77.763 38.307 C 57.257 40.764, 37.198 40.419, 27.838 37.448 C 26.083 36.892, 25.903 37.236, 26.184 40.613 M 121.674 58.710 C 119.450 71.948, 118 83.395, 118 87.727 L 118 91.310 120.145 89.405 C 123.249 86.649, 125.759 80.386, 126.520 73.500 C 127.187 67.467, 125.522 51.183, 124.089 49.710 C 123.666 49.275, 122.579 53.325, 121.674 58.710 M 88.500 51 C 88.840 51.550, 89.541 52, 90.059 52 C 90.577 52, 91 51.550, 91 51 C 91 50.450, 90.298 50, 89.441 50 C 88.584 50, 88.160 50.450, 88.500 51 M 63.251 52.950 C 55.767 54.135, 38.385 58.144, 36.990 59.006 C 36.170 59.513, 36.868 61.216, 39.290 64.617 C 44.821 72.382, 49.127 81.831, 49.710 87.483 C 50.716 97.230, 45.736 103.078, 30.842 109.639 C 22.657 113.244, 22.967 113.910, 33.819 116.045 C 41.171 117.491, 53.068 116.883, 65.413 114.432 L 73.785 112.769 71.949 108.618 C 68.918 101.766, 67.791 95.071, 67.785 83.885 C 67.777 70.559, 68.645 65, 70.735 65 C 72.078 65, 72.215 66.326, 71.722 74.592 C 71.407 79.868, 71.286 84.030, 71.453 83.842 C 71.621 83.654, 75.661 76.994, 80.431 69.041 C 88.916 54.898, 89.055 54.564, 86.803 53.728 C 83.395 52.463, 69.273 51.996, 63.251 52.950 M 81.225 72.966 C 69.865 91.815, 69.667 92.543, 72.995 103.145 C 76.059 112.902, 75.216 112.492, 87.114 110.013 C 92.826 108.823, 101.100 107.546, 105.500 107.175 L 113.500 106.500 113.803 101.783 L 114.107 97.067 111.303 98.044 C 109.762 98.581, 106.025 99.128, 103 99.260 L 97.500 99.500 97.184 96.215 C 97.010 94.409, 97.610 88.577, 98.516 83.256 C 100.159 73.614, 99.911 66.660, 97.776 62.500 C 96.570 60.150, 92.915 56, 92.050 56 C 91.720 56, 86.848 63.635, 81.225 72.966 M 105.500 109.663 C 97.029 110.688, 79.093 114.489, 79.748 115.120 C 81.363 116.676, 92.744 118.916, 96.193 118.356 C 98.883 117.920, 101.283 118.441, 105.528 120.384 C 108.671 121.823, 111.637 123, 112.121 123 C 112.604 123, 113 119.850, 113 116 C 113 108.273, 113.498 108.695, 105.500 109.663 M 72.250 119.973 C 69.912 121.034, 68 122.590, 68 123.431 C 68 127.587, 87.385 133.171, 102.500 133.369 L 112.500 133.500 112.809 130.305 C 113.100 127.297, 112.865 127.044, 108.809 126 C 106.439 125.391, 102.181 124.241, 99.346 123.446 C 96.511 122.651, 92.461 121.990, 90.346 121.978 C 88.231 121.966, 84.538 121.066, 82.141 119.978 C 76.894 117.597, 77.483 117.598, 72.250 119.973 M 115 131.500 C 115 133.258, 115.544 134, 116.833 134 C 119.632 134, 120.179 132.855, 118.347 130.831 C 116.075 128.321, 115 128.536, 115 131.500 M 122.643 131.513 C 123.445 133.603, 121.425 135.748, 117.931 136.515 C 115.931 136.955, 115 137.769, 115 139.079 C 115 140.919, 114.010 141, 91.572 141 C 69.488 141, 53.507 142.175, 51.694 143.931 C 49.952 145.619, 61.679 148.762, 83.500 152.456 C 91.750 153.853, 98.838 154.997, 99.250 154.998 C 99.662 154.999, 100 155.598, 100 156.328 C 100 157.079, 96.198 159.093, 91.250 160.962 C 79.449 165.421, 67.784 171.321, 60.371 176.580 C 54.303 180.885, 52.426 183.263, 53.599 185.161 C 55.119 187.620, 72.659 182.413, 90.235 174.286 L 101.970 168.859 107.735 172.406 C 115.660 177.282, 124.098 180.045, 133.086 180.706 C 141.148 181.298, 147.412 179.976, 148.370 177.479 C 148.670 176.695, 147.833 174.767, 146.510 173.194 C 142.180 168.049, 128.404 161.898, 110.250 157.005 C 96.396 153.270, 98.905 152.105, 127.500 148.990 C 140.588 147.564, 148.850 146.178, 152.266 144.833 C 154.522 143.945, 154.812 143.479, 153.839 142.306 C 152.026 140.122, 148.435 138.502, 135.559 134.062 C 122.324 129.499, 121.833 129.402, 122.643 131.513" stroke="none" fill="black" fill-rule="evenodd"/>
</svg>