<svg xmlns="http://www.w3.org/2000/svg" width="200" height="200" viewBox="0 0 200 200" version="1.1">
	<path d="M 66.452 10.471 C 66.081 12.948, 66.087 16.218, 66.466 17.737 C 68.285 25.027, 76.070 30.457, 86.579 31.767 C 90.289 32.230, 84.171 32.500, 69.977 32.500 C 49.067 32.500, 47.175 32.650, 42.836 34.656 C 40.270 35.842, 37.667 37.754, 37.050 38.906 C 35.577 41.660, 37.175 41.670, 40.879 38.931 C 42.419 37.793, 45.438 36.454, 47.589 35.955 C 52.111 34.906, 81.271 34.709, 91.337 35.660 L 98.174 36.305 100.276 40.631 C 101.432 43.010, 102.180 45.138, 101.939 45.361 C 101.697 45.584, 90.700 46.300, 77.500 46.952 C 50.834 48.268, 47 48.657, 47 50.045 C 47 51.312, 54.448 51.259, 78.356 49.822 C 96.684 48.721, 98.286 48.759, 99.156 50.315 C 99.733 51.345, 101.344 52.003, 103.300 52.007 C 106.233 52.013, 106.821 52.603, 110.347 59.077 C 112.463 62.961, 113.888 66.445, 113.515 66.818 C 113.142 67.191, 112.195 66.598, 111.411 65.498 C 101.960 52.254, 84.749 47.062, 72.539 53.773 C 66.885 56.882, 61.607 63.241, 59.869 69.041 C 58.207 74.589, 59.912 79.573, 65.654 85.960 C 71.021 91.929, 77.789 95.675, 86.373 97.426 L 92.443 98.664 89.530 100.572 C 85.546 103.182, 75.826 103.562, 52.861 102.004 C 32.466 100.620, 26.404 101.044, 23.146 104.078 C 19.379 107.588, 21.033 113.347, 28.118 121.396 L 32.031 125.842 36.532 123.326 C 45.560 118.280, 57.797 116.706, 69.201 119.123 C 75.923 120.548, 82 123.597, 82 125.545 C 82 128.407, 76.974 129.231, 62.750 128.701 L 49 128.188 49 133.671 C 49 138.362, 49.410 139.564, 51.842 141.996 C 57.207 147.361, 63.735 148.029, 100.589 146.984 C 119.010 146.462, 121 146.903, 121 151.504 C 121 155.140, 114.441 156.124, 84.500 156.980 C 56.094 157.793, 51.375 158.562, 49.137 162.744 C 47.580 165.654, 50.766 170.018, 58.452 175.503 C 65.784 180.735, 65.127 180.704, 77 176.359 C 83.481 173.987, 85.994 173.614, 95.500 173.614 C 108.194 173.613, 115.598 175.688, 130.753 183.492 C 135.564 185.969, 140.450 187.997, 141.611 187.998 C 144.082 188, 148.323 180.635, 152.260 169.500 C 159.496 149.037, 154.894 138.346, 135.655 130.927 C 121.589 125.503, 116 122.024, 116 118.693 C 116 118.452, 127.588 118.020, 141.750 117.734 C 174.229 117.078, 182.527 115.292, 181.801 109.118 C 181.416 105.850, 177.142 102.971, 166.684 98.938 C 159.653 96.227, 157.770 94.947, 152.745 89.464 C 149.550 85.977, 145.416 82.184, 143.558 81.036 C 140.201 78.961, 140.189 78.928, 141.737 75.825 C 143.178 72.937, 143.153 72.433, 141.397 69.101 C 138.634 63.856, 130.213 55.745, 124.844 53.157 C 122.284 51.923, 117.334 50.259, 113.844 49.460 C 107.804 48.077, 108.613 48.025, 130.754 48.370 L 154.009 48.733 157.504 44.863 C 159.868 42.247, 161 40.019, 161 37.982 C 161 32.433, 155.399 30.504, 131.750 27.907 C 121.735 26.806, 119.520 26.033, 122 24.500 C 122.550 24.160, 123 22.853, 123 21.596 C 123 17.426, 117.587 14.214, 105.252 11.064 C 94.062 8.207, 91 9.514, 91 17.149 C 91 19.785, 90.736 20.053, 88.750 19.439 C 84.288 18.060, 78.393 14.708, 72.814 10.379 L 67.127 5.967 66.452 10.471 M 69.264 15.647 C 70.154 23.548, 76.492 27.858, 89.743 29.576 L 94.985 30.256 93.867 27.048 C 93.252 25.284, 92.018 23.593, 91.124 23.289 C 85.399 21.345, 76.861 17.013, 73.110 14.151 L 68.717 10.797 69.264 15.647 M 94.667 12.667 C 94.300 13.033, 94 15.069, 94 17.191 C 94 21.755, 94.678 22.126, 107.397 24.509 C 114.385 25.818, 116.234 25.871, 117.936 24.808 C 123.138 21.559, 118.592 17.458, 106.030 14.069 C 97.866 11.866, 95.731 11.602, 94.667 12.667 M 96 25.692 C 96 26.201, 96.563 27.386, 97.250 28.325 C 98.258 29.701, 99.420 29.906, 103.250 29.380 C 108.959 28.596, 109.364 27.484, 104.250 26.628 C 102.188 26.283, 99.487 25.723, 98.250 25.384 C 97.013 25.044, 96 25.183, 96 25.692 M 112.500 30.111 C 110.850 30.627, 107.025 31.459, 104 31.960 C 99.690 32.673, 101.907 32.829, 114.250 32.684 C 125.023 32.558, 130 32.842, 130 33.585 C 130 34.182, 125.951 36.923, 121.001 39.677 L 112.002 44.685 132.251 45.340 L 152.500 45.996 155.815 42.442 C 157.638 40.487, 158.963 38.351, 158.760 37.694 C 157.896 34.897, 150.856 32.964, 134.453 31.019 C 115.554 28.778, 116.617 28.822, 112.500 30.111 M 103.103 40.250 C 104.281 42.587, 105.345 44.617, 105.466 44.760 C 105.692 45.026, 120.027 37.306, 120.868 36.466 C 121.124 36.210, 116.749 36, 111.146 36 L 100.959 36 103.103 40.250 M 110 52.372 C 110 52.717, 111.897 56.392, 114.217 60.539 L 118.433 68.078 127.947 72.585 C 136.767 76.763, 137.553 76.965, 138.730 75.354 C 140.559 72.854, 140.343 72.036, 136.464 66.748 C 132.717 61.641, 126.573 56.705, 121.098 54.405 C 117.182 52.759, 110 51.444, 110 52.372 M 77.558 54.442 C 71.953 56.510, 68.980 58.938, 65.152 64.572 C 62.306 68.762, 61.876 70.140, 62.282 73.773 C 63.197 81.961, 71.050 89.759, 82.351 93.703 C 90.195 96.441, 107.403 96.184, 116.104 93.199 C 126.773 89.540, 126.790 89.513, 122.981 81.935 C 117.052 70.138, 113.333 66.696, 113.333 73.004 C 113.333 77.417, 111.095 80.867, 106.537 83.479 C 98.953 87.825, 98.630 87.771, 91.552 80.974 C 88.019 77.582, 84.711 73.610, 84.201 72.148 C 81.813 65.295, 88.124 61.896, 99.681 63.811 C 103.381 64.424, 106.613 64.720, 106.864 64.469 C 107.876 63.458, 103.302 59.784, 97.573 57.006 C 90.092 53.379, 82.929 52.461, 77.558 54.442 M 87.750 67.080 C 86.787 67.641, 86 68.690, 86 69.412 C 86 71.136, 90.551 76.799, 95.239 80.910 L 98.979 84.189 103.517 81.992 C 109.714 78.992, 113.126 71.997, 109.750 69.215 C 108.218 67.953, 97.930 65.989, 93.066 66.030 C 91.105 66.047, 88.713 66.519, 87.750 67.080 M 122 73.481 C 122 74.539, 128.469 87, 129.018 87 C 129.928 87, 136.420 80.082, 135.932 79.633 C 135.247 79.005, 123.115 73, 122.529 73 C 122.238 73, 122 73.216, 122 73.481 M 134.302 85.881 L 130.103 89.680 132.560 95.763 C 135.627 103.356, 136.607 109.998, 135.080 112.850 C 133.739 115.356, 133.100 115.251, 148.500 115.054 C 161.108 114.893, 173.526 113.296, 177.283 111.354 C 180.041 109.927, 180.098 109.766, 178.477 107.974 C 176.795 106.116, 165.099 100.807, 159.734 99.466 C 158.149 99.070, 155.402 96.790, 153.298 94.122 C 149.391 89.169, 141.174 81.973, 139.504 82.041 C 138.952 82.064, 136.611 83.792, 134.302 85.881 M 125.986 92.041 C 122.058 94.553, 112.587 97.299, 104 98.415 L 94.500 99.650 107 105.795 C 120.559 112.460, 126.884 114.375, 130.635 112.949 C 133.645 111.804, 133.780 107.582, 131.061 99.676 C 128.345 91.782, 127.762 90.905, 125.986 92.041 M 89.500 103.856 C 85.993 105.778, 71.497 106.037, 45.500 104.641 C 27.109 103.654, 23.997 104.245, 24.005 108.725 C 24.011 111.979, 30.931 121.590, 33.078 121.324 C 33.860 121.227, 37.425 119.883, 41 118.337 C 46.865 115.801, 48.574 115.533, 58.500 115.589 C 67.323 115.639, 70.601 116.082, 75.064 117.828 C 84.804 121.638, 87.605 126.250, 82.289 129.727 C 80.027 131.207, 77.258 131.505, 65.539 131.531 L 51.500 131.563 51.673 135.017 C 52.132 144.167, 62.675 146.266, 97 144.037 C 116.582 142.765, 124.022 144.659, 123.985 150.905 C 123.964 154.346, 123.022 155.661, 119.660 156.939 C 115.455 158.538, 96.402 159.982, 79.386 159.991 C 63.544 160, 54.441 161.131, 52.205 163.367 C 51.097 164.474, 51.305 165.209, 53.440 167.746 C 54.851 169.423, 58.234 172.225, 60.958 173.973 L 65.911 177.151 73.342 174.586 C 93.856 167.506, 108.278 169.069, 131.858 180.928 C 136.455 183.239, 140.866 184.882, 141.660 184.577 C 143.648 183.814, 149.772 170.060, 151.700 162.026 C 155.303 147.015, 150.491 139.635, 132.500 132.577 C 120.227 127.763, 115.620 124.826, 113.574 120.515 C 111.298 115.718, 111.574 115, 115.693 115 C 118.979 115, 117.937 114.284, 106.227 108.500 C 98.989 104.925, 92.940 102.048, 92.784 102.106 C 92.628 102.164, 91.150 102.952, 89.500 103.856" stroke="none" fill="black" fill-rule="evenodd"/>
</svg>