<svg xmlns="http://www.w3.org/2000/svg" width="200" height="200" viewBox="0 0 200 200" version="1.1">
	<path d="M 131 11.070 C 114.357 13.761, 82.912 17.752, 65 19.446 C 51.329 20.739, 49.294 21.167, 47.750 23.067 C 45.466 25.879, 45.540 27.018, 48.276 31.102 C 49.790 33.363, 53.052 35.755, 58.026 38.249 C 64.142 41.317, 64.977 41.999, 62.620 41.999 C 57.961 42, 36.762 47.016, 33.500 48.889 C 31.455 50.064, 30.500 51.390, 30.500 53.056 C 30.500 55.147, 31.295 55.744, 36 57.190 C 39.025 58.120, 43.691 59.168, 46.369 59.520 L 51.239 60.158 48.231 63.329 C 39.886 72.128, 39.788 80.667, 47.840 97.676 C 50.749 103.823, 53.171 110.303, 53.221 112.075 C 53.383 117.760, 47.770 119.986, 33.250 119.994 C 28.163 119.997, 24.001 120.338, 24.002 120.750 C 24.005 121.992, 33.250 127.733, 37 128.822 C 47.720 131.935, 57.609 131.110, 84.730 124.842 C 112.752 118.365, 124.904 119.055, 133.369 127.603 L 136.238 130.500 129.457 131.183 C 125.727 131.559, 112.736 131.559, 100.588 131.183 C 75.002 130.392, 64.610 130.961, 62.290 133.281 C 60.825 134.746, 60.834 135.098, 62.399 137.487 C 63.339 138.921, 66.671 141.758, 69.804 143.792 C 75.431 147.446, 75.655 147.498, 88.301 148.082 C 98.308 148.545, 101.463 149.035, 102.755 150.327 C 104.293 151.864, 104.087 152.278, 99.807 156.240 C 97.277 158.583, 88.293 164.623, 79.843 169.663 C 64.689 178.701, 59 182.880, 59 184.974 C 59 187.602, 63.760 188.254, 73.889 187.014 C 83.634 185.820, 84.124 185.637, 89.784 181.095 C 104.358 169.399, 114.253 168.607, 140.726 177.019 C 157.460 182.335, 163.639 183.372, 169.625 181.864 C 175.046 180.499, 181.677 174.611, 183.935 169.158 C 185.628 165.070, 185.164 164.681, 176.605 163.014 C 157.758 159.343, 134 152.061, 134 149.954 C 134 148.867, 138.632 147.460, 150.500 144.945 C 172.258 140.332, 175.170 135.497, 161.153 127.253 C 157.807 125.285, 156.624 124.991, 156.015 125.976 C 153.969 129.286, 151.933 122.944, 153.625 118.534 C 154.123 117.236, 154.740 117.624, 156.653 120.440 C 159.318 124.361, 162.764 125.732, 165.831 124.091 C 168.680 122.566, 172.519 114.127, 175.509 102.817 L 178.069 93.134 177.063 60.817 C 176.161 31.818, 175.163 19.691, 173.452 16.923 C 172.429 15.268, 170.079 15.950, 168.500 18.360 C 165.576 22.822, 157.986 63.025, 153.939 95.481 L 152.695 105.462 149.514 98.481 C 143.616 85.537, 140.085 86.388, 138.114 101.230 C 137.510 105.778, 136.899 110.912, 136.758 112.638 L 136.500 115.776 127.500 109.317 C 122.550 105.765, 118.520 102.552, 118.544 102.179 C 118.568 101.806, 119.210 99.475, 119.972 97 C 121.979 90.477, 121.623 72.242, 119.127 53.681 C 116.610 34.962, 116.535 32.049, 118.449 27.468 C 119.785 24.270, 120.233 24.001, 124.199 24.010 C 126.627 24.015, 130.755 25.069, 133.677 26.430 C 139.518 29.150, 138.867 27.212, 140.995 48.216 C 142.308 61.167, 143.941 66.500, 146.596 66.500 C 150.082 66.500, 151.370 60.082, 151.415 42.500 C 151.447 29.786, 151.081 25.268, 149.631 20.500 C 147.543 13.631, 145.039 8.952, 143.534 9.105 C 142.965 9.163, 137.325 10.048, 131 11.070 M 133 13.596 C 120.114 15.648, 89.924 19.684, 77 21.080 L 65.500 22.323 72.500 23.724 C 80.189 25.263, 99.994 31.603, 101.360 32.964 C 101.839 33.441, 100.983 34.469, 99.429 35.283 L 96.637 36.746 101.069 39.487 C 116.783 49.205, 116.830 49.261, 112.620 53.471 C 110.387 55.704, 101.662 59, 97.985 59 C 95.146 59, 95.168 59.969, 98.077 63.083 C 101.910 67.185, 102.708 73.148, 100.567 81.671 C 99.651 85.318, 99.261 88.617, 99.701 89.003 C 100.140 89.388, 103.959 92.227, 108.186 95.311 L 115.872 100.919 117.186 97.210 C 119.172 91.604, 118.694 70.973, 116.134 51.766 C 113.882 34.872, 113.975 30.054, 116.652 24.764 C 119.105 19.917, 125.419 19.832, 135.833 24.505 L 141.713 27.144 142.914 40.289 C 143.574 47.519, 144.592 55.661, 145.175 58.382 C 146.082 62.607, 146.390 63.055, 147.289 61.448 C 148.879 58.607, 149.406 35.571, 148.077 27 C 146.905 19.444, 144.350 12.765, 142.500 12.425 C 141.950 12.324, 137.675 12.851, 133 13.596 M 167.629 30.750 C 163.906 46.477, 155 102.306, 155 109.923 C 155 111.400, 156.359 114.752, 158.020 117.371 C 160.361 121.062, 161.543 122.062, 163.270 121.817 C 166.239 121.395, 170.027 113.550, 173.022 101.618 L 175.326 92.444 174.134 59.472 C 172.933 26.227, 172.434 20, 170.974 20 C 170.534 20, 169.029 24.837, 167.629 30.750 M 49.332 25.578 C 48.347 28.144, 52.179 32.293, 58.448 35.449 C 63.273 37.878, 65.825 38.463, 72.904 38.761 C 78.534 38.998, 83.052 38.630, 86 37.694 L 90.500 36.264 80.725 31.613 C 69.574 26.307, 61.706 24, 54.759 24 C 51.289 24, 49.767 24.443, 49.332 25.578 M 88.923 32.553 C 91.390 33.962, 94.044 34.801, 94.923 34.448 C 96.040 34, 95.187 33.275, 92 31.964 C 85.490 29.285, 83.779 29.612, 88.923 32.553 M 88 40.082 C 84.975 41.070, 83.226 41.905, 84.114 41.939 C 85.001 41.973, 86.914 43.186, 88.364 44.636 C 90.489 46.762, 91 48.215, 91 52.136 C 91 56.518, 91.223 56.998, 93.250 56.984 C 99.685 56.940, 112 52.488, 112 50.207 C 112 49.587, 104.371 44.613, 95.500 39.450 C 93.918 38.529, 92.350 38.661, 88 40.082 M 67.500 44.157 C 63.100 44.535, 54.430 45.992, 48.234 47.395 C 30.599 51.389, 29.095 52.923, 40.250 55.542 C 45.369 56.744, 50.733 57.156, 58.500 56.946 C 64.550 56.781, 73.612 56.717, 78.637 56.802 C 87.621 56.955, 87.783 56.916, 88.249 54.479 C 89.942 45.620, 84.133 42.730, 67.500 44.157 M 50.190 65.409 C 42.322 73.945, 42.480 80.676, 50.957 98.010 C 55.979 108.279, 57.036 113.196, 55.029 116.945 C 53.632 119.556, 46.587 122.107, 38.500 122.931 C 31.701 123.624, 31.586 123.681, 34.500 124.912 C 44.764 129.248, 56.529 128.673, 82.687 122.557 C 112.347 115.622, 124.689 116.016, 133.633 124.181 L 135.766 126.129 136.171 122.658 C 136.566 119.277, 136.318 119.001, 126.635 112.032 C 121.167 108.097, 116.419 105.323, 116.082 105.867 C 115.188 107.314, 100.665 112, 97.074 112 C 93.644 112, 90 109, 90 106.175 C 90 105.171, 91.125 101.043, 92.500 97 C 93.875 92.957, 95 89.520, 95 89.362 C 95 89.097, 84.936 82.186, 82.377 80.694 C 81.250 80.036, 78.328 86.977, 76.026 95.780 C 75.410 98.134, 74.520 99.822, 74.048 99.530 C 72.754 98.730, 64.121 83.718, 62.324 79.143 C 61.414 76.826, 61.021 74.051, 61.394 72.567 C 62.294 68.982, 67.153 69.135, 74.462 72.980 L 80.128 75.960 82.428 70.730 C 83.694 67.854, 85.045 64.487, 85.432 63.250 L 86.135 61 70.195 61 L 54.255 61 50.190 65.409 M 86.086 69.089 C 84.267 73.538, 83.166 77.509, 83.639 77.912 C 86.227 80.118, 95.132 86, 95.884 86 C 96.367 86, 97.266 84.001, 97.881 81.557 C 100.261 72.108, 98.544 65.367, 93.033 62.517 C 91.419 61.683, 89.940 61, 89.746 61 C 89.552 61, 87.905 64.640, 86.086 69.089 M 64.307 75.507 C 64.641 77.562, 66.821 82.578, 69.153 86.653 L 73.392 94.062 76.169 86.281 C 77.696 82.002, 78.958 78.461, 78.973 78.414 C 79.065 78.118, 68.069 73.038, 66.101 72.467 C 63.806 71.801, 63.728 71.934, 64.307 75.507 M 95.080 97.969 C 92.196 106.767, 92.494 108.430, 97.008 108.738 C 100.830 108.999, 113.209 105.103, 113.654 103.500 C 113.874 102.707, 104.753 95.672, 98.478 91.794 C 97.726 91.330, 96.564 93.442, 95.080 97.969 M 141.664 95.932 C 141.333 97.587, 140.802 101.992, 140.485 105.721 C 140.167 109.449, 139.726 113.684, 139.503 115.131 C 139.156 117.385, 139.824 118.213, 144.177 120.919 C 146.971 122.656, 149.457 123.876, 149.702 123.631 C 149.947 123.386, 150.515 120.557, 150.965 117.343 C 151.720 111.950, 151.503 110.812, 148.142 102.575 C 146.139 97.666, 143.997 93.486, 143.383 93.286 C 142.768 93.086, 141.995 94.276, 141.664 95.932 M 139 125.385 C 139 130.433, 139.536 130.755, 144.851 128.902 C 148.593 127.598, 148.747 126.944, 145.750 125.088 C 144.512 124.321, 142.488 123.036, 141.250 122.232 C 139.030 120.790, 139 120.832, 139 125.385 M 147.849 130.662 C 142.115 133.587, 134.242 134.110, 100.500 133.806 C 81.800 133.638, 65.908 133.882, 65.185 134.349 C 63.352 135.533, 65.892 138.182, 72.995 142.497 C 78.073 145.582, 79.100 145.845, 84.058 145.333 C 91.534 144.562, 102.877 146.433, 105.277 148.833 C 107.054 150.610, 107.078 150.949, 105.623 153.763 C 103.460 157.945, 98.888 161.347, 80.451 172.492 C 71.678 177.796, 63.841 182.779, 63.036 183.567 C 61.759 184.817, 62.042 185, 65.245 185 C 67.265 185, 72.345 184.490, 76.533 183.867 C 83.298 182.861, 84.712 182.253, 89.210 178.414 C 98.277 170.674, 101.763 169.496, 115.500 169.528 C 127.086 169.555, 127.991 169.718, 141.741 174.268 C 159.742 180.225, 165.091 180.938, 171.268 178.205 C 175.742 176.227, 183.255 167.918, 181.193 167.231 C 180.685 167.062, 171.546 164.738, 160.885 162.066 C 139.822 156.789, 132.708 154.191, 131.103 151.192 C 129.359 147.934, 132.725 146.182, 146.837 143 C 167.709 138.293, 170.570 136.370, 163.341 131.902 C 159.057 129.254, 151.754 128.670, 147.849 130.662" stroke="none" fill="black" fill-rule="evenodd"/>
</svg>