<svg xmlns="http://www.w3.org/2000/svg" width="200" height="200" viewBox="0 0 200 200" version="1.1">
	<path d="M 115.024 8.750 C 115.037 9.162, 115.482 11.300, 116.014 13.500 C 117.857 21.134, 122.922 51.552, 123.958 61.211 C 124.531 66.551, 125 75.446, 125 80.977 L 125 91.032 121.462 92.719 L 117.925 94.406 111.269 87.750 L 104.612 81.094 104.556 73.225 C 104.509 66.562, 104.123 64.806, 102.041 61.766 C 98.982 57.300, 92.582 53.057, 88.550 52.823 C 86.872 52.725, 92.105 52.388, 100.178 52.073 C 112.991 51.573, 115.214 51.233, 117.678 49.400 C 119.230 48.244, 120.634 46.404, 120.798 45.311 C 121.256 42.259, 114.588 36.491, 105.521 32.095 C 80.369 19.903, 75.355 18.122, 56.140 14.553 C 44.779 12.443, 43.635 12.496, 44.316 15.101 C 44.618 16.256, 44.378 18.271, 43.782 19.579 C 42.871 21.579, 43.138 22.592, 45.463 25.947 C 46.984 28.141, 49.780 31.121, 51.678 32.568 L 55.128 35.199 70.314 34.158 C 79.771 33.509, 87.218 32.474, 90.054 31.415 L 94.609 29.714 103.318 33.969 C 123.799 43.974, 122.573 48.959, 99.625 48.985 L 86.750 49 87.346 46.022 C 87.791 43.795, 87.381 42.405, 85.721 40.512 C 82.326 36.641, 74.617 35.640, 54.153 36.411 C 38.458 37.002, 36.347 37.297, 31.973 39.514 C 29.314 40.861, 26.433 42.971, 25.570 44.204 C 24.129 46.261, 24.148 46.592, 25.797 48.242 C 27.991 50.436, 36.788 51.973, 47.500 52.034 C 55.403 52.080, 55.464 52.099, 52.500 53.662 C 39.723 60.398, 38.718 71.351, 48.728 94.784 C 50.674 99.340, 52.094 103.215, 51.883 103.395 C 51.672 103.575, 45.830 104.660, 38.900 105.806 C 25.505 108.021, 19.380 110.226, 18.446 113.171 C 17.695 115.535, 18.476 116.678, 22.132 118.569 C 25.671 120.398, 38.526 123, 44.029 123 C 49.145 123, 49.702 124.295, 45.457 126.319 C 43.556 127.226, 42 128.566, 42 129.298 C 42 130.030, 44.700 133.836, 48 137.757 C 51.300 141.677, 53.988 145.248, 53.974 145.692 C 53.960 146.137, 51.823 147.948, 49.224 149.717 C 42.124 154.552, 34 161.966, 34 163.611 C 34 166.423, 38.870 174.634, 42.968 178.733 C 53.784 189.548, 69.932 190.902, 86.895 182.416 C 90.865 180.430, 95.528 177.066, 97.944 174.445 C 107.559 164.014, 98.681 159.254, 79.250 164.423 C 76.362 165.191, 74 165.431, 74 164.956 C 74 163.532, 87.166 152.652, 93.671 148.700 C 97.009 146.672, 102.611 144.271, 106.120 143.363 C 111.998 141.843, 112.798 141.840, 116.291 143.323 C 121.231 145.420, 123.756 151.010, 125.065 162.744 C 126.902 179.205, 130.668 188, 135.881 188 C 146.349 188, 157.701 151.244, 152.625 133.783 C 150.532 126.581, 147.472 124, 141.026 124 C 136.902 124, 136.171 123.671, 135.109 121.340 C 133.991 118.885, 134.198 118.365, 137.800 114.590 C 139.946 112.341, 144.230 107.279, 147.320 103.343 C 156.714 91.373, 163.379 86.856, 175.319 84.366 C 179.244 83.548, 182.623 82.711, 182.828 82.506 C 183.880 81.453, 181.497 79.997, 178.691 79.978 C 176.936 79.966, 173.593 79.090, 171.263 78.033 C 165.481 75.408, 161.741 69.197, 157.391 55 C 148.665 26.515, 143.654 17.416, 132.975 10.662 L 130.451 9.065 130.299 39.783 C 130.216 56.677, 129.762 73.650, 129.289 77.500 L 128.429 84.500 127.685 73.048 C 126.675 57.521, 122.515 29.475, 118.481 11 C 118.300 10.175, 118.119 9.162, 118.077 8.750 C 118.034 8.338, 117.325 8, 116.500 8 C 115.675 8, 115.011 8.338, 115.024 8.750 M 133.038 40.076 C 132.997 68.529, 131.988 82.920, 128.983 97.904 L 127.097 107.309 129.675 111.709 L 132.254 116.110 134.750 113.805 C 136.122 112.537, 140.579 107.330, 144.655 102.233 C 153.837 90.749, 159.584 86.366, 170.369 82.621 C 171.975 82.063, 171.697 81.605, 168.385 79.357 C 161.454 74.654, 158.634 69.353, 152.993 50.424 C 147.923 33.413, 144.023 25.228, 137.817 18.579 L 133.076 13.500 133.038 40.076 M 46.375 20.465 C 45.721 22.170, 48.938 27.019, 52.672 29.957 C 54.605 31.477, 56.743 32, 61.029 32 C 68.808 32, 87.031 30.082, 88.833 29.074 C 89.825 28.518, 87.308 27.274, 80.893 25.151 C 63.447 19.375, 47.618 17.226, 46.375 20.465 M 40.500 39.889 C 32.505 41.008, 24.810 45.946, 28.721 47.446 C 32.320 48.828, 58.893 50.061, 71.173 49.417 C 83.301 48.780, 83.870 48.653, 84.422 46.455 C 85.146 43.570, 84.331 41.375, 82.173 40.396 C 79.965 39.396, 46.898 38.993, 40.500 39.889 M 55.854 55.553 C 52.963 56.453, 50.034 58.336, 48.104 60.535 C 45.336 63.687, 45 64.750, 45 70.360 C 45 76.870, 47.326 85.057, 52.419 96.467 C 55.758 103.950, 55.539 106.409, 51.500 106.762 C 43.960 107.419, 28.175 110.346, 24.728 111.725 C 22.632 112.564, 21.078 113.757, 21.275 114.375 C 21.828 116.114, 30.890 118.798, 40.109 119.954 C 61.852 122.681, 83.668 119.741, 93.022 112.825 L 95.775 110.790 102.162 113.839 C 110.531 117.833, 117.652 119.748, 119.027 118.373 C 119.598 117.802, 120.911 115.107, 121.946 112.385 L 123.827 107.434 120.442 102.769 L 117.056 98.104 109.278 101.718 C 104.723 103.834, 99.842 105.366, 97.500 105.416 C 93.950 105.491, 93.468 105.219, 93.213 103 C 93.054 101.625, 94.693 96.450, 96.854 91.500 C 100.404 83.366, 100.636 82.335, 99.267 80.784 C 97.168 78.407, 83.288 71.379, 82.415 72.251 C 82.024 72.643, 82.623 75.458, 83.746 78.507 L 85.788 84.051 82.144 83.405 C 72.065 81.619, 62 76.077, 62 72.313 C 62 71.591, 62.937 70.063, 64.082 68.918 C 65.839 67.161, 67.146 66.888, 72.474 67.168 L 78.785 67.500 79.389 63 C 79.720 60.525, 80.106 57.600, 80.246 56.500 C 80.484 54.628, 79.862 54.487, 70.500 54.303 C 64.054 54.176, 58.849 54.620, 55.854 55.553 M 83.062 58.715 C 82.484 60.797, 82.027 63.850, 82.046 65.500 C 82.077 68.209, 82.731 68.808, 88.790 71.679 C 92.481 73.428, 96.963 75.835, 98.750 77.028 L 102 79.196 102 72.966 C 102 63.266, 97.074 57.234, 87.807 55.587 C 84.204 54.947, 84.087 55.023, 83.062 58.715 M 68.485 70.003 C 64.746 70.650, 64.178 73.232, 67.322 75.292 C 69.979 77.032, 79.854 80.479, 80.457 79.876 C 80.666 79.668, 80.357 77.401, 79.770 74.839 C 78.766 70.451, 78.495 70.162, 75.075 69.836 C 73.079 69.645, 70.114 69.720, 68.485 70.003 M 102.152 86.073 C 101.638 87.408, 100.044 91.143, 98.609 94.374 C 95.604 101.140, 95.377 103, 97.555 103 C 99.250 103, 113.040 97.340, 114.241 96.152 C 114.648 95.749, 112.305 92.770, 109.033 89.533 C 103.160 83.721, 103.073 83.677, 102.152 86.073 M 123.250 94.801 C 121.463 95.660, 120 96.644, 120 96.987 C 120 97.331, 121.075 99.069, 122.390 100.850 L 124.779 104.089 126.002 98.991 C 126.675 96.186, 127.062 93.745, 126.863 93.566 C 126.663 93.387, 125.037 93.942, 123.250 94.801 M 124.200 113.751 C 123.652 115.263, 122.883 117.293, 122.491 118.261 C 121.990 119.498, 122.183 119.895, 123.139 119.595 C 123.887 119.360, 125.744 118.894, 127.264 118.561 C 129.968 117.968, 129.995 117.891, 128.521 115.041 C 126.386 110.912, 125.340 110.600, 124.200 113.751 M 92.278 116.468 C 90.506 117.730, 86.006 119.539, 82.278 120.488 C 78.550 121.436, 74.825 122.447, 74 122.734 C 72.441 123.276, 83.952 126.200, 94.671 127.985 C 102.228 129.244, 109.277 127.957, 113.528 124.542 C 116.301 122.314, 116.366 122.112, 114.500 121.525 C 113.400 121.178, 109.125 119.543, 105 117.890 C 100.875 116.237, 97.050 114.725, 96.500 114.529 C 95.950 114.333, 94.050 115.206, 92.278 116.468 M 128.500 121 C 127.400 121.473, 124.990 121.891, 123.144 121.930 C 120.843 121.978, 119.191 122.758, 117.890 124.413 C 112.356 131.448, 101.015 132.710, 82.678 128.331 C 68.243 124.884, 55.518 124.580, 49.095 127.527 L 44.690 129.548 50.886 136.945 C 54.293 141.013, 56.949 145.025, 56.788 145.860 C 56.627 146.696, 53.347 149.788, 49.498 152.731 C 45.649 155.675, 41.173 159.401, 39.550 161.011 L 36.600 163.938 38.387 167.684 C 41.547 174.311, 45.879 178.783, 52.196 181.940 C 57.187 184.434, 59.552 185, 64.978 185 C 72.012 185, 79.960 183.073, 86.349 179.819 C 91.587 177.151, 99 170.162, 99 167.892 C 99 164.143, 89.049 164.173, 76.884 167.959 C 70.052 170.085, 68.176 169.407, 70.237 165.556 C 72.068 162.136, 81.937 153.195, 89.244 148.338 C 98.083 142.461, 104.647 140, 111.476 140 C 116.116 140, 117.443 140.450, 120.362 143.013 C 124.898 146.996, 126.629 151.661, 127.943 163.444 C 129.183 174.559, 132.542 184.288, 135.324 184.824 C 141.548 186.023, 149.570 166.784, 150.678 148 C 151.692 130.808, 147.231 123.847, 137.409 127.299 C 135.651 127.917, 135.031 127.395, 133.508 124.017 C 131.569 119.717, 131.534 119.696, 128.500 121" stroke="none" fill="black" fill-rule="evenodd"/>
</svg>