<svg xmlns="http://www.w3.org/2000/svg" width="200" height="200" viewBox="0 0 200 200" version="1.1">
	<path d="M 68.376 9.086 C 60.042 11.502, 61.871 16.310, 73.301 22.031 C 77.663 24.214, 81.854 26, 82.616 26 C 84.409 26, 84.331 27.978, 82.438 30.483 C 81.079 32.280, 79.558 32.490, 66.219 32.721 C 46.258 33.066, 38.651 35.042, 40.339 39.442 C 41.643 42.839, 54.569 47, 68.657 48.557 L 74.813 49.237 73.727 52.353 C 73.130 54.067, 70.806 57.726, 68.563 60.485 C 62.394 68.074, 58.601 77.221, 58.546 84.642 C 58.511 89.282, 58.957 91.290, 60.369 92.852 C 61.808 94.445, 62.082 95.747, 61.562 98.520 C 60.743 102.889, 58.347 104.076, 39.365 109.519 C 32.289 111.548, 25.263 113.848, 23.750 114.630 C 20.559 116.279, 20.194 118.498, 22.878 119.935 C 25 121.070, 46.024 124, 52.051 124 C 56.637 124, 56.611 123.862, 54.154 135 C 52.598 142.056, 52.330 142.519, 49.630 142.828 C 46.846 143.146, 46.774 143.296, 47.215 147.886 C 47.649 152.403, 47.502 152.737, 43.961 155.282 C 39.323 158.616, 36.572 164.108, 37.418 168.341 C 38.807 175.283, 48.255 184.369, 61.449 191.450 L 66.945 194.400 69.235 192.249 C 76.934 185.017, 89.774 183.267, 123.470 184.860 C 150.219 186.124, 158.588 185.593, 164.281 182.268 C 166.045 181.237, 167.932 179.135, 168.473 177.595 C 169.405 174.945, 168.995 174.348, 160.788 166.413 C 150.647 156.609, 143.844 152, 139.512 152 C 137.164 152, 135.350 153.087, 132 156.500 C 128.395 160.173, 126.933 160.996, 124.042 160.978 C 120.198 160.954, 113.674 158.328, 108.751 154.823 C 105.750 152.686, 105.611 152.675, 104.574 154.491 C 103.983 155.524, 101.720 158.349, 99.545 160.769 C 87.699 173.947, 73.930 170.508, 83.101 156.662 C 87.182 150.501, 98.029 140.815, 100 141.573 C 100.825 141.890, 104.200 142.849, 107.500 143.704 C 121.929 147.442, 155.192 141.717, 159.414 134.769 C 160.216 133.448, 160.045 132.618, 158.692 131.269 C 157.077 129.659, 154.331 129.500, 128.209 129.500 C 100.272 129.500, 99.374 129.438, 94.831 127.200 C 90.082 124.860, 87.277 122.390, 88.258 121.409 C 88.556 121.111, 103.409 121.407, 121.264 122.068 C 155.619 123.338, 169.928 122.695, 181.099 119.378 L 186.429 117.795 173.464 112.604 C 143.662 100.672, 139.061 95.701, 131.947 67.750 C 129.799 59.312, 128.245 55, 127.351 55 C 126.608 55, 126.004 55.112, 126.009 55.250 C 126.014 55.388, 127.595 61.564, 129.521 68.976 C 137.059 97.981, 142.404 103.537, 174.889 116.130 C 182.435 119.055, 164.723 120.183, 123.250 119.417 L 86 118.730 86.004 115.615 C 86.011 109.474, 92.369 102.598, 100.500 99.940 C 102.700 99.220, 107.537 98.650, 111.250 98.672 C 119.977 98.723, 120.200 96.875, 111.750 94.527 C 108.313 93.572, 102.292 91.317, 98.371 89.516 C 78.307 80.301, 85.905 73.308, 112.723 76.308 L 119.946 77.116 118.377 73.359 C 114.703 64.567, 106.937 54.757, 100.601 50.904 L 97.670 49.121 100.585 48.503 C 102.188 48.163, 105.467 47.440, 107.872 46.897 C 113.277 45.677, 114.148 46.328, 110.275 48.696 C 108.652 49.688, 107.519 51.080, 107.758 51.789 C 108.073 52.722, 109.477 52.308, 112.846 50.289 C 117.382 47.571, 117.968 47.487, 136 46.984 C 151.067 46.563, 155.103 46.141, 157.750 44.708 C 166.028 40.227, 158.425 33.805, 132.693 23.542 C 122.943 19.653, 120.182 18.068, 116.840 14.442 C 112.115 9.316, 107.962 8.119, 101.049 9.891 C 97.257 10.863, 95.685 10.800, 92.099 9.535 C 87.315 7.847, 73.548 7.587, 68.376 9.086 M 73.674 11.007 C 63.270 12.337, 63.713 14.528, 75.500 20.026 C 85.231 24.564, 84.941 24.594, 90.273 18.524 L 95.045 13.091 89.841 11.545 C 84.285 9.896, 82.765 9.845, 73.674 11.007 M 103 12.732 C 103.825 13.048, 106.945 14.142, 109.933 15.162 L 115.366 17.018 113.008 14.509 C 111.127 12.506, 109.728 12.016, 106.076 12.079 C 103.559 12.122, 102.175 12.416, 103 12.732 M 94.526 17.541 C 90.588 21.479, 88.643 24.662, 89.756 25.349 C 91.598 26.487, 106.401 29, 111.267 29 C 117.597 29, 120.331 27.389, 119.845 23.944 C 119.544 21.809, 118.140 21.032, 108.738 17.795 L 97.977 14.090 94.526 17.541 M 123 25.233 C 123 26.535, 122.438 28.198, 121.750 28.930 C 120.716 30.029, 121.346 30.150, 125.390 29.630 C 128.079 29.283, 131.904 28.963, 133.890 28.918 L 137.500 28.836 132.500 26.556 C 123.943 22.655, 123 22.523, 123 25.233 M 86.035 29.934 C 85.466 30.998, 85 32.123, 85 32.434 C 85 33.192, 91.276 33.149, 99.022 32.340 L 105.337 31.680 96.419 29.857 C 91.513 28.854, 87.403 28.026, 87.285 28.017 C 87.167 28.008, 86.605 28.870, 86.035 29.934 M 119 33.049 C 111.025 34.037, 99.627 35.151, 93.671 35.525 L 82.842 36.203 80.921 40.685 C 79.864 43.149, 79 45.645, 79 46.230 C 79 47.452, 96.914 46.547, 103.500 44.992 C 105.700 44.473, 110.016 44.037, 113.090 44.024 C 118.007 44.003, 119.694 43.392, 127.090 38.953 C 131.716 36.177, 136.159 33.252, 136.964 32.453 C 138.803 30.629, 138.427 30.641, 119 33.049 M 140.872 32.680 C 140.118 33.603, 136.181 36.492, 132.125 39.099 L 124.749 43.840 129.395 44.536 C 134.826 45.351, 150.037 44.338, 154.805 42.844 C 159.504 41.372, 158.592 39.431, 151.069 34.886 C 143.841 30.519, 142.819 30.298, 140.872 32.680 M 51.093 36.083 C 42.503 37.196, 41.485 38.442, 47.129 40.939 C 51.786 42.999, 66.844 46, 72.522 46 C 75.906 46, 75.759 46.199, 79.717 36.250 C 80.297 34.790, 61.905 34.683, 51.093 36.083 M 77.459 50.067 C 76.393 51.791, 77.327 51.934, 80.002 50.454 C 82.411 49.120, 82.422 49.070, 80.309 49.035 C 79.104 49.016, 77.821 49.480, 77.459 50.067 M 81.183 53.139 C 78.808 54.314, 76.206 56.283, 75.399 57.514 C 74.592 58.745, 72.069 67.055, 69.791 75.980 C 66.434 89.132, 65.872 92.565, 66.825 94.091 C 68.613 96.955, 68.249 99.131, 65.502 101.998 C 63.707 103.871, 62.539 106.920, 61.355 112.823 C 60.449 117.343, 59.981 121.314, 60.315 121.649 C 60.650 121.983, 62.853 121.772, 65.212 121.179 C 67.570 120.587, 72.537 119.792, 76.250 119.413 C 82.908 118.733, 83 118.684, 83 115.763 C 83 108.127, 90.678 99.937, 100.365 97.241 L 106.231 95.608 102.836 94.433 C 96.662 92.295, 89.541 88.230, 86.666 85.201 C 83.210 81.560, 83.419 78.505, 87.323 75.600 C 89.837 73.731, 91.512 73.500, 102.573 73.500 C 109.408 73.500, 115 73.370, 115 73.210 C 115 71.974, 110.417 64.442, 107.148 60.307 C 100.132 51.430, 90.183 48.684, 81.183 53.139 M 67.046 67.137 C 63.352 73.163, 60.888 81.081, 61.202 85.916 C 61.366 88.437, 61.880 90.500, 62.344 90.500 C 63.167 90.500, 70.058 64.855, 69.427 64.137 C 69.251 63.938, 68.180 65.288, 67.046 67.137 M 50 108.980 C 45.325 110.533, 37.450 113.037, 32.500 114.546 C 20.808 118.110, 20.799 118.107, 53.141 121.409 L 56.783 121.781 57.948 115.640 C 58.590 112.263, 59.344 108.713, 59.624 107.750 C 60.261 105.567, 60.289 105.564, 50 108.980 M 66.500 123.753 C 62.650 124.609, 59.338 125.440, 59.140 125.599 C 58.942 125.757, 58.143 128.950, 57.365 132.694 C 56.587 136.437, 55.706 140.287, 55.408 141.250 C 54.957 142.704, 55.510 143.002, 58.683 143.014 C 69.135 143.051, 69.484 146.122, 59.500 150.208 C 55.650 151.783, 52.350 153.506, 52.167 154.036 C 51.983 154.566, 51.003 155, 49.988 155 C 47.448 155, 41.285 161.018, 40.460 164.304 C 40.088 165.787, 40.081 168.188, 40.446 169.639 C 41.382 173.372, 50.392 181.745, 58.877 186.768 L 66.086 191.036 69.293 188.669 C 78.315 182.009, 90.897 180.432, 121.867 182.080 C 145.995 183.364, 155.657 183.006, 161.380 180.615 C 167.317 178.134, 167.060 176.620, 159.389 168.875 C 151.155 160.561, 143.039 154.750, 139.663 154.750 C 138.047 154.750, 135.690 156.332, 132.774 159.375 C 128.933 163.385, 127.804 164, 124.292 164 C 121.672 164, 117.842 162.793, 113.449 160.582 L 106.658 157.164 102.099 162.234 C 97.288 167.586, 89.465 171.974, 84.705 171.990 C 81.284 172.002, 76.991 167.983, 77.022 164.795 C 77.079 158.825, 83.799 149.484, 93.323 142.137 L 98.800 137.911 104.868 139.956 C 112.757 142.613, 127.087 142.679, 139.500 140.114 C 148.897 138.173, 156.361 135.210, 156.159 133.500 C 155.974 131.937, 144.018 131.423, 128.590 132.315 C 104.415 133.713, 94.028 131.961, 87.441 125.375 C 84.420 122.354, 83.513 122.010, 78.783 122.098 C 75.877 122.152, 70.350 122.896, 66.500 123.753 M 50 148 C 50 149.100, 50.173 150, 50.383 150 C 50.594 150, 51.002 149.100, 51.290 148 C 51.577 146.900, 51.405 146, 50.906 146 C 50.408 146, 50 146.900, 50 148 M 54 147.567 C 54 148.730, 54.581 148.957, 56.250 148.446 C 61.010 146.990, 61.586 146.062, 57.750 146.030 C 54.999 146.008, 54 146.417, 54 147.567" stroke="none" fill="black" fill-rule="evenodd"/>
</svg>