<svg xmlns="http://www.w3.org/2000/svg" width="200" height="200" viewBox="0 0 200 200" version="1.1">
	<path d="M 63.702 9.496 C 54.094 10.850, 47.487 12.497, 45.500 14.035 C 44.950 14.460, 43.380 14.964, 42.010 15.154 C 38.928 15.582, 38.216 18.476, 40.557 21.063 C 43.486 24.300, 51.889 29.230, 60.164 32.566 L 68.052 35.747 50.776 36.276 C 33.351 36.810, 26.993 37.871, 23.706 40.794 C 20.993 43.207, 22.020 46.045, 26.966 49.811 C 30.986 52.871, 31.886 53.150, 35.966 52.602 C 38.460 52.267, 49.500 51.803, 60.500 51.571 C 76.178 51.241, 78.123 51.323, 69.500 51.950 C 47.659 53.540, 35.210 62.429, 37.476 74.815 C 38.847 82.306, 42.034 86.955, 47.700 89.729 C 61.364 96.420, 58.494 99.566, 32.500 106.395 C 23.950 108.641, 17.746 110.823, 16.563 112.001 C 14.734 113.822, 14.721 114.034, 16.329 115.811 C 18.237 117.920, 25.604 120.356, 38.104 123.012 C 42.851 124.021, 45.196 124.847, 43.500 124.914 C 37.285 125.156, 37.706 126.378, 46.606 133.917 L 55.218 141.211 49.359 144.442 C 45.279 146.691, 42.376 149.271, 39.797 152.939 C 35.746 158.702, 31.262 170.664, 32.639 172.036 C 33.113 172.509, 37.237 175.140, 41.804 177.884 C 61.434 189.678, 76.725 190.467, 83.747 180.048 C 89.236 171.902, 83.649 159.072, 75.709 161.592 C 74.213 162.067, 74.967 160.600, 78.591 155.986 C 84.233 148.802, 89.683 144, 92.193 144 C 94.865 144, 95.804 146.736, 98.086 161.162 C 100.434 176.015, 102.696 182.378, 107.141 186.632 C 109.792 189.170, 110.848 189.495, 116.318 189.460 C 120.985 189.429, 123.790 188.764, 127.762 186.745 C 130.656 185.274, 134.879 183.571, 137.146 182.961 C 156.253 177.816, 159.419 156.700, 145.499 127.250 C 141.853 119.537, 140.742 117.996, 138.813 117.977 C 136.794 117.957, 136.922 117.747, 139.820 116.318 C 141.647 115.418, 144.215 113.274, 145.528 111.552 C 148.187 108.066, 151 98.510, 151 92.963 L 151 89.347 162.615 85.526 C 169.004 83.425, 175.402 80.698, 176.833 79.467 C 179.129 77.492, 179.269 77.029, 178.023 75.528 C 177.247 74.592, 173.088 72.056, 168.782 69.891 C 159.051 64.998, 153.522 59.498, 151.504 52.702 C 149.579 46.219, 149.609 42.406, 151.653 33.938 C 153.197 27.541, 153.194 26.798, 151.617 22.667 C 148.374 14.175, 143.703 12.890, 140.513 19.614 C 136.190 28.725, 131.579 54.549, 128.436 87.260 C 127.524 96.742, 126.607 105.090, 126.397 105.812 C 125.926 107.430, 124.362 106.432, 117.588 100.188 L 112.919 95.884 117.405 90.894 C 132.142 74.503, 133.720 52.707, 121.502 34.305 C 119.576 31.404, 118 28.751, 118 28.410 C 118 28.068, 119.125 26.452, 120.500 24.818 C 125.275 19.143, 123.170 13.361, 115.262 10.433 C 108.862 8.063, 77.872 7.500, 63.702 9.496 M 79.500 10.616 C 70.132 11.346, 57.509 13.098, 53.500 14.225 L 49.500 15.349 52.500 16.056 C 54.150 16.445, 59.212 16.817, 63.750 16.882 C 70.145 16.973, 72 17.318, 72 18.417 C 72 19.196, 71.500 20, 70.889 20.204 C 70.278 20.407, 73.682 21.744, 78.453 23.175 C 85.326 25.236, 87.010 25.469, 86.560 24.295 C 86.247 23.481, 85.705 21.672, 85.355 20.277 C 84.267 15.945, 87.308 18.145, 89.098 22.986 C 90.619 27.097, 91.056 27.434, 98.106 29.923 C 106.381 32.843, 111.399 35.667, 114.858 39.348 C 120.535 45.392, 114.420 48.881, 96.479 49.835 C 83.149 50.544, 81.076 51.652, 89.195 53.729 C 106.847 58.247, 113.097 69.572, 104.990 82.355 L 102.130 86.865 106.457 90.411 L 110.785 93.957 114.741 89.666 C 129.519 73.633, 130.932 53.092, 118.508 34.909 L 113.927 28.204 116.963 24.879 C 122.641 18.663, 120.537 14.234, 110.885 12.081 C 105.618 10.907, 86.953 10.035, 79.500 10.616 M 45 21.012 C 52.208 27.417, 69.863 34.231, 79.252 34.231 C 87.702 34.231, 89.763 29.542, 82.359 27.162 C 67.955 22.531, 54.494 19.108, 48.500 18.552 L 41.500 17.902 45 21.012 M 142.220 22.750 C 138.404 31.696, 133.893 58.684, 130.421 93.344 L 128.734 110.188 131.272 112.726 C 138.135 119.590, 148 107.624, 148 92.436 L 148 87.236 156.750 84.509 C 168.651 80.800, 176 77.996, 176 77.164 C 176 76.782, 172.787 74.974, 168.859 73.144 C 164.932 71.314, 159.464 67.721, 156.709 65.159 C 148.081 57.136, 145.846 49.020, 148.533 35.475 C 150.135 27.406, 150.135 26.641, 148.535 22.451 C 147.600 20.003, 146.252 18, 145.540 18 C 144.829 18, 143.334 20.137, 142.220 22.750 M 89.187 32.489 C 88.544 33.901, 87.226 35.381, 86.259 35.778 C 85.109 36.250, 86.377 36.673, 89.922 37 C 93.169 37.299, 95.520 38.032, 95.781 38.827 C 96.127 39.876, 94.421 40.085, 87.618 39.827 C 78.151 39.467, 78.602 39.051, 81.129 45.804 C 81.982 48.082, 82.119 48.100, 93.246 47.405 C 106.779 46.560, 113.360 45.112, 113.786 42.885 C 114.174 40.857, 106.361 35.719, 98.919 33.107 C 95.939 32.061, 92.793 30.917, 91.928 30.564 C 90.854 30.126, 89.986 30.736, 89.187 32.489 M 35 39.703 C 28.693 40.788, 25 42.186, 25 43.488 C 25 44.263, 26.550 46.080, 28.444 47.525 L 31.888 50.152 46.381 49.076 C 54.353 48.484, 64.926 48, 69.877 48 L 78.879 48 77.345 43.500 L 75.812 39 56.656 39.136 C 46.120 39.211, 36.375 39.466, 35 39.703 M 63.951 55.061 C 44.697 57.896, 36.159 67.773, 42.207 80.217 C 44.039 83.985, 45.602 85.517, 49.981 87.836 C 57.045 91.576, 59.763 95.029, 58.253 98.343 C 56.727 101.694, 50.486 104.443, 35.438 108.392 C 18.583 112.816, 17.420 113.274, 19.230 114.776 C 20.943 116.198, 38.378 120.495, 49.081 122.134 L 56.902 123.331 62.804 120.185 C 72.598 114.965, 80.193 113.693, 97.500 114.374 C 105.750 114.698, 115.537 115.258, 119.250 115.619 C 125.937 116.268, 126 116.251, 126 113.806 C 126 111.998, 123.976 109.519, 118.439 104.543 L 110.877 97.749 105.930 100.442 C 99.988 103.676, 95.249 104.061, 93.351 101.465 C 91.465 98.886, 91.613 97.938, 94.874 91.740 L 97.748 86.277 92.449 82.138 C 89.535 79.862, 86.892 78, 86.575 78 C 86.259 78, 86 78.890, 86 79.977 C 86 82.759, 81.655 85.381, 78.398 84.564 C 74.695 83.634, 65.646 74.759, 63.460 69.912 C 62.073 66.835, 61.885 65.418, 62.700 64.164 C 64.416 61.523, 68.731 62.527, 76.769 67.439 L 84.147 71.947 83.623 69.224 C 80.779 54.453, 81.104 55.271, 77.828 54.616 C 74.157 53.881, 71.351 53.971, 63.951 55.061 M 84.060 56.341 C 84.093 56.978, 84.880 61.386, 85.810 66.135 L 87.500 74.769 93.293 79.475 C 96.480 82.063, 99.685 83.951, 100.415 83.671 C 102.273 82.958, 106 74.926, 106 71.635 C 106 67.263, 103.330 63.278, 98.508 60.452 C 92.957 57.199, 83.972 54.642, 84.060 56.341 M 65 66.050 C 65 68.403, 68.112 72.831, 72.940 77.347 C 78.774 82.804, 81.858 83.217, 83.423 78.751 C 84.539 75.563, 84.197 75.210, 73.942 68.983 C 67.253 64.921, 65 64.182, 65 66.050 M 97.020 92.960 C 93.369 100.117, 94.739 102.135, 101.498 99.554 C 108.254 96.974, 108.720 95.739, 104.309 92.103 C 102.238 90.396, 100.206 89, 99.792 89 C 99.379 89, 98.132 90.782, 97.020 92.960 M 82.760 117.057 C 75.957 117.840, 68.472 119.979, 64.151 122.375 C 62.123 123.498, 64.319 123.767, 80.151 124.337 C 90.243 124.700, 104.463 125.293, 111.750 125.653 L 125 126.309 125 122.654 C 125 120.031, 124.566 119, 123.461 119 C 122.614 119, 117.776 118.582, 112.711 118.070 C 97.132 116.497, 89.777 116.248, 82.760 117.057 M 128 122.500 C 128 124.425, 128.450 126, 129 126 C 129.550 126, 130 125.573, 130 125.052 C 130 124.476, 131.179 124.515, 133 125.150 C 136.433 126.347, 136.905 127.950, 134.046 128.698 C 131.908 129.257, 131.755 129.981, 129.952 148 C 127.862 168.890, 126.372 174.966, 123.739 173.338 C 122.707 172.701, 123.497 133.474, 124.599 130.603 C 124.986 129.594, 122.914 129.135, 115.803 128.653 C 100.216 127.596, 49.512 126.655, 46.666 127.369 C 44.050 128.026, 44.140 128.165, 51.052 134.114 C 55.412 137.867, 57.990 140.814, 57.795 141.825 C 57.622 142.725, 54.912 144.693, 51.774 146.197 C 44.991 149.449, 40.075 155.533, 37.032 164.442 C 35.446 169.082, 35.275 170.568, 36.251 171.226 C 47.313 178.691, 58.151 183.511, 66.423 184.645 C 75.558 185.897, 83 180.510, 83 172.646 C 83 164.057, 77.821 161.585, 71.483 167.149 C 65.720 172.209, 65.329 169.369, 70.759 161.890 C 81.376 147.267, 88.014 141, 92.883 141 C 96.503 141, 98.593 146.107, 100.852 160.482 C 103.279 175.914, 105.052 181.024, 109.187 184.504 C 113.135 187.826, 118.787 187.787, 126 184.390 C 129.025 182.965, 133.525 181.176, 136 180.415 C 147.441 176.898, 151.395 171.229, 151.285 158.500 C 151.214 150.269, 148.038 137.965, 143.859 129.740 C 140.944 124, 135.128 119.059, 131.250 119.027 C 128.197 119.002, 128 119.212, 128 122.500 M 127 133.849 C 127 136.516, 126.794 142.254, 126.543 146.599 C 126.112 154.051, 126.134 154.159, 126.927 148.500 C 128.806 135.099, 129.167 129, 128.080 129 C 127.455 129, 127 131.045, 127 133.849" stroke="none" fill="black" fill-rule="evenodd"/>
</svg>