<svg xmlns="http://www.w3.org/2000/svg" width="200" height="200" viewBox="0 0 200 200" version="1.1">
	<path d="M 81.500 5.680 C 71.544 7.911, 64 12.417, 64 16.134 C 64 20.644, 72.106 25.516, 84.887 28.687 C 88.524 29.590, 91.823 30.817, 92.218 31.414 C 93.545 33.420, 86.765 33.974, 68 33.392 C 48.640 32.792, 42.388 33.438, 40.635 36.217 C 37.375 41.384, 55.698 47.452, 78.500 48.756 C 87.866 49.291, 88.858 49.499, 85.176 50.153 C 75.236 51.919, 63.935 59.402, 60.603 66.425 C 58.426 71.012, 58.575 78.247, 60.942 82.887 C 65.014 90.868, 77.122 99.425, 85.428 100.191 C 86.568 100.296, 74.225 100.643, 58 100.961 C 32.276 101.465, 28.076 101.768, 25.188 103.327 C 18.938 106.702, 22.919 111.597, 36.576 117.329 C 42.603 119.858, 42.820 119.874, 63.076 119.304 C 74.309 118.987, 83.259 118.992, 82.965 119.315 C 82.671 119.638, 76.371 122.005, 68.965 124.576 C 47.536 132.013, 39.838 136.690, 42.918 140.401 C 43.499 141.101, 47.870 142.254, 52.631 142.962 C 66.960 145.094, 67.524 145.418, 60.500 147.494 C 46.373 151.670, 37.759 157.266, 36.478 163.102 C 35.146 169.167, 43.835 180.588, 55.789 188.484 L 60.078 191.318 70.864 190.148 C 89.344 188.143, 97 185.297, 97 180.429 C 97 177.273, 93.434 173.900, 85.274 169.336 C 81.833 167.412, 78.762 165.424, 78.450 164.919 C 78.125 164.393, 80.915 164, 84.966 164 C 91.407 164, 92.122 163.796, 92.852 161.750 C 93.293 160.512, 94.915 155.980, 96.455 151.678 C 97.995 147.376, 99.605 144.226, 100.033 144.678 C 100.461 145.130, 101.528 151.142, 102.405 158.037 C 105.030 178.684, 108.483 188.466, 114.551 192.441 C 119.710 195.822, 127.705 194.330, 135.500 188.533 C 137.150 187.306, 140.177 185.991, 142.226 185.610 C 155.218 183.198, 164.224 164.734, 161.180 146.750 C 159.541 137.070, 155.962 130.050, 149.878 124.580 L 144.857 120.066 146.678 117.564 C 148.483 115.087, 148.645 115.063, 163.816 115.031 C 179.659 114.999, 183 114.303, 183 111.033 C 183 108.641, 180.021 106.542, 167.500 100.109 C 160.910 96.723, 154.772 92.550, 149.500 87.871 L 141.500 80.772 141.500 74.481 C 141.500 68.981, 141.123 67.723, 138.500 64.483 C 134.313 59.309, 125.005 53.965, 113.253 49.986 C 101.418 45.980, 101.505 45.181, 114.125 41.987 C 134.199 36.906, 140.054 34.515, 138.515 32.024 C 137.909 31.044, 134.775 30.878, 125.112 31.316 C 117.494 31.661, 113.835 31.554, 115.871 31.045 C 117.724 30.582, 120.186 29.259, 121.341 28.104 C 123.149 26.295, 123.286 25.596, 122.327 23.056 L 121.215 20.108 126.857 22.177 C 142.432 27.888, 157 36.478, 157 39.952 C 157 42.294, 149.252 44.245, 135.766 45.296 C 128.195 45.887, 122 46.737, 122 47.185 C 122 48.400, 140.364 48.169, 147.886 46.859 C 152.807 46.002, 155.137 45.016, 157.261 42.893 C 159.947 40.207, 160.013 39.927, 158.609 37.210 C 156.126 32.410, 147.200 27.294, 128.500 19.955 C 122.450 17.581, 115.537 14.156, 113.138 12.343 C 108.550 8.878, 103.705 7.441, 99.391 8.266 C 97.971 8.537, 94.040 7.917, 90.655 6.887 C 87.270 5.858, 84.275 5.064, 84 5.124 C 83.725 5.183, 82.600 5.434, 81.500 5.680 M 77 9.877 C 66.119 13.379, 64.396 16.282, 70.750 20.405 C 74.491 22.833, 86.635 27, 89.968 27 C 91.412 27, 91.820 25.836, 92.249 20.490 C 92.536 16.910, 93.288 13.358, 93.920 12.596 C 94.852 11.473, 94.180 10.909, 90.356 9.606 C 84.597 7.643, 83.898 7.658, 77 9.877 M 96.014 14.463 C 95.456 15.930, 95 19.548, 95 22.504 L 95 27.877 99.601 28.567 C 105.638 29.473, 116.623 28.557, 118.510 26.992 C 122.569 23.623, 118.143 18.873, 107.739 15.432 C 103.208 13.933, 98.944 12.502, 98.264 12.252 C 97.584 12.001, 96.572 12.997, 96.014 14.463 M 95 31.920 C 95 32.593, 97.703 33, 102.167 33 C 110.899 33, 110.750 32.481, 101.750 31.544 C 97.151 31.065, 95 31.185, 95 31.920 M 116.500 34.657 C 114.300 34.834, 108.740 35.252, 104.145 35.588 L 95.789 36.197 96.405 39.276 C 96.744 40.969, 97.234 42.568, 97.495 42.829 C 97.972 43.305, 125.759 36.454, 129.500 34.938 C 131.527 34.116, 125.001 33.975, 116.500 34.657 M 44.017 36.968 C 42.861 37.700, 43.547 38.354, 47.132 39.940 C 54.619 43.252, 64.631 45.042, 79.228 45.679 C 94.592 46.350, 94.832 46.246, 93.565 39.492 L 92.909 36 69.205 36.015 C 56.167 36.024, 44.833 36.453, 44.017 36.968 M 102.500 51.397 C 108.208 54.003, 114.482 60.420, 115.445 64.638 C 116.007 67.097, 117.623 68.239, 126.920 72.750 C 132.871 75.638, 138.024 78, 138.370 78 C 138.717 78, 139 75.976, 139 73.503 C 139 69.764, 138.407 68.350, 135.484 65.114 C 131.491 60.694, 121.260 55.330, 109.622 51.555 C 99.692 48.334, 95.589 48.243, 102.500 51.397 M 83.746 53.086 C 73.710 55.451, 64.220 63.196, 61.910 70.905 C 60.284 76.335, 62.767 82.877, 68.612 88.557 C 76.108 95.842, 80.692 97.453, 94 97.478 C 109.165 97.507, 109.281 97.453, 107.297 91.248 C 105.917 86.935, 105.126 86.056, 100.386 83.575 C 92.856 79.632, 86 73.037, 86 69.737 C 86 66.219, 89.400 64, 94.790 64 C 98.455 64, 99.055 63.726, 98.627 62.250 C 98.348 61.288, 97.625 58.587, 97.021 56.250 C 95.941 52.072, 95.852 52.002, 91.711 52.100 C 89.395 52.156, 85.811 52.599, 83.746 53.086 M 100.527 58.103 C 101.268 60.910, 102.164 63.498, 102.519 63.853 C 103.768 65.101, 113 66.750, 113 65.725 C 113 63.287, 108.453 57.764, 104.575 55.491 C 102.237 54.121, 100.067 53, 99.753 53 C 99.438 53, 99.787 55.297, 100.527 58.103 M 89.093 68.388 C 88.192 69.473, 88.494 70.433, 90.473 72.786 C 93.248 76.083, 102.763 82.570, 103.599 81.734 C 103.887 81.447, 103.151 78.014, 101.964 74.106 L 99.805 67 95.025 67 C 92.167 67, 89.782 67.558, 89.093 68.388 M 103 67.699 C 103 67.980, 104.131 71.919, 105.513 76.451 C 107.518 83.025, 108.539 84.925, 110.560 85.846 C 111.954 86.481, 113.240 87, 113.418 87 C 114.168 87, 115.027 74.956, 114.443 72.630 C 114.012 70.910, 112.789 69.785, 110.653 69.141 C 105.722 67.654, 103 67.142, 103 67.699 M 116.769 80.621 C 116.498 85.811, 116.030 90.303, 115.731 90.603 C 115.431 90.902, 113.827 90.445, 112.166 89.586 L 109.147 88.024 110.073 91.256 C 110.583 93.033, 111 94.659, 111 94.868 C 111 95.878, 117.900 93.674, 123.377 90.914 C 128.814 88.174, 136.002 82.559, 135.999 81.054 C 135.998 80.318, 127.477 75.562, 121.797 73.127 L 117.263 71.184 116.769 80.621 M 136.405 85.116 C 133.131 88.754, 125.886 93.255, 118.980 95.942 C 111.865 98.710, 110.750 101, 116.517 101 C 118.359 101, 125.859 99.901, 133.183 98.558 C 140.508 97.215, 148.299 95.978, 150.498 95.808 L 154.496 95.500 147.223 89.250 C 143.222 85.813, 139.580 83, 139.129 83 C 138.679 83, 137.453 83.952, 136.405 85.116 M 140 100.075 C 134.775 101.123, 126.838 102.497, 122.361 103.127 L 114.223 104.272 116.225 110.199 C 117.756 114.733, 118.593 115.987, 119.783 115.530 C 123.213 114.214, 129.955 113.113, 138.610 112.456 L 147.721 111.764 150.973 106.397 C 154.312 100.888, 154.422 97.936, 151.281 98.084 C 150.302 98.131, 145.225 99.026, 140 100.075 M 157 99.336 C 157 100.139, 155.707 103.255, 154.127 106.259 L 151.254 111.721 159.817 112.325 C 170.095 113.050, 180.219 112.175, 179.714 110.604 C 179.088 108.657, 157 97.700, 157 99.336 M 103.500 100 L 99.500 100.716 102.750 101.025 C 108.657 101.586, 109.330 101.511, 109.750 100.250 C 110.196 98.912, 109.689 98.892, 103.500 100 M 40 103.999 C 28.437 104.758, 25 105.467, 25 107.094 C 25 108.281, 31.317 112.117, 37.743 114.833 C 42.783 116.964, 43.773 117.023, 63.279 116.375 C 78.143 115.881, 84.165 116.018, 85.786 116.886 C 90.527 119.423, 87.963 121.042, 68.833 127.595 C 55.831 132.048, 46.664 136.116, 45.543 137.930 C 45.214 138.463, 46.644 139.173, 48.722 139.507 C 72.193 143.288, 75.271 145.776, 61.689 149.991 C 45.735 154.941, 39 159.628, 39 165.779 C 39 168.597, 44.314 176.038, 49.188 180.045 C 59.264 188.328, 59.315 188.348, 68.779 187.620 C 78.924 186.840, 89.546 184.528, 92.812 182.388 C 94.869 181.040, 94.990 180.619, 93.824 178.877 C 93.096 177.788, 88.675 174.546, 84 171.672 C 78.137 168.068, 75.403 165.775, 75.188 164.281 C 74.850 161.936, 76.837 161.279, 85.860 160.754 L 90.219 160.500 92.951 152.990 C 94.454 148.859, 96.313 144.472, 97.082 143.240 C 98.508 140.957, 101.418 140.249, 102.458 141.932 C 102.774 142.444, 103.928 149.307, 105.022 157.182 C 107.324 173.760, 109.209 181.066, 112.480 186.091 C 117.157 193.275, 123.760 193.448, 133.655 186.645 C 136.320 184.813, 140.214 182.993, 142.310 182.601 C 158.426 179.582, 164.508 149.361, 152.594 131.500 C 150.760 128.750, 147.881 125.705, 146.197 124.733 L 143.135 122.967 136.383 131.733 C 132.670 136.555, 129.231 141.036, 128.742 141.692 C 128.180 142.444, 129.540 148.049, 132.426 156.880 C 134.942 164.578, 137 172.254, 137 173.938 C 137 180.659, 133.078 176.627, 123.128 159.676 L 117.949 150.852 120.974 147.032 C 122.639 144.931, 124 142.673, 124 142.013 C 124 140.933, 119.036 125.998, 118.395 125.148 C 118.249 124.954, 117.100 125.517, 115.842 126.398 C 114.584 127.279, 113.205 128, 112.777 128 C 111.220 128, 112.052 122.204, 113.957 119.782 C 115.904 117.307, 115.903 117.258, 113.753 110.647 L 111.592 104 84.421 104 C 69.477 104, 55.956 103.830, 54.375 103.622 C 52.794 103.415, 46.325 103.584, 40 103.999 M 129.514 116.069 C 121.421 117.421, 120 117.952, 120 119.626 C 120 120.699, 120.542 121.006, 121.670 120.573 C 126.294 118.799, 133.039 117.922, 137.681 118.491 C 142.250 119.052, 142.992 118.883, 143.966 117.063 C 145.020 115.094, 144.829 115.005, 139.785 115.118 C 136.878 115.182, 132.256 115.610, 129.514 116.069 M 115.500 122 C 115.160 122.550, 115.359 123, 115.941 123 C 116.523 123, 117 122.550, 117 122 C 117 121.450, 116.802 121, 116.559 121 C 116.316 121, 115.840 121.450, 115.500 122 M 127 121.723 C 126.175 122.033, 124.512 122.652, 123.304 123.098 L 121.107 123.910 123.644 131.455 C 125.039 135.605, 126.478 138.989, 126.840 138.976 C 127.987 138.934, 139.883 122.620, 139.371 121.791 C 138.822 120.903, 129.318 120.850, 127 121.723 M 123.661 147.823 C 122.747 148.832, 122 150.277, 122 151.035 C 122 152.640, 132.988 171.345, 133.582 170.751 C 133.963 170.370, 126.425 147.092, 125.679 146.346 C 125.482 146.149, 124.574 146.813, 123.661 147.823" stroke="none" fill="black" fill-rule="evenodd"/>
</svg>