<svg xmlns="http://www.w3.org/2000/svg" width="200" height="200" viewBox="0 0 200 200" version="1.1">
	<path d="M 62.960 24.831 C 61.242 26.223, 60.853 27.280, 61.344 29.234 C 62.629 34.353, 76.135 45.915, 83.953 48.588 C 86.232 49.368, 87.612 50.531, 87.812 51.844 C 88.243 54.666, 82.592 55.639, 74.469 54.142 C 55.653 50.675, 36.500 54.857, 36.500 62.432 C 36.500 70.214, 52.286 72.685, 80.750 69.359 L 86 68.746 86 71.854 C 86 74.430, 85.530 75.066, 83.250 75.571 C 69.858 78.536, 61.993 83.435, 57.676 91.500 C 54.376 97.665, 54.627 109.784, 58.194 116.500 C 61.066 121.907, 64.763 126.233, 69.500 129.725 L 72.500 131.937 69.823 131.968 C 66.509 132.008, 64.015 135.033, 60.956 142.724 C 57.946 150.293, 55.406 153.860, 52.509 154.587 C 51.212 154.913, 45.695 154.399, 40.249 153.446 C 29.814 151.619, 24.172 151.970, 21.532 154.611 C 14.532 161.611, 32.773 174.874, 49.540 174.976 C 51.762 174.989, 56.262 174.287, 59.540 173.417 C 70.291 170.560, 90.527 169.024, 117.560 169.012 C 140.836 169.001, 144.515 169.227, 152.007 171.121 C 166.942 174.898, 178.104 172.293, 179.529 164.698 C 180.688 158.521, 176.254 152.408, 168.455 149.430 C 163.046 147.364, 157.014 148.088, 150.419 151.594 C 144.860 154.550, 144.003 154.092, 139.444 145.728 C 135.608 138.690, 135.688 131.262, 139.759 116.500 C 144.689 98.621, 145.063 96.088, 143.371 92.037 C 139.489 82.742, 131.142 78.758, 106.750 74.555 C 102.177 73.768, 102.060 72.986, 106.155 70.567 C 109.048 68.859, 110.526 68.777, 123.905 69.584 C 150.658 71.197, 160.689 70.311, 165.053 65.947 C 167.634 63.366, 167.509 61.759, 164.447 58.119 C 161.345 54.433, 148.849 48, 144.789 48 C 143.171 48, 138.120 46.399, 133.564 44.442 C 125.829 41.119, 125.204 40.625, 124.109 36.968 C 121.422 28.002, 108.308 23.171, 92.102 25.177 C 86.377 25.886, 83.165 25.743, 77.904 24.546 C 69.048 22.532, 65.721 22.596, 62.960 24.831 M 64.393 27.419 C 63.592 29.506, 66.637 33.595, 72.625 38.473 C 77.869 42.744, 86.687 47.647, 87.558 46.775 C 88.094 46.239, 85.362 30.029, 84.609 29.276 C 83.647 28.313, 72.524 26.031, 68.719 26.016 C 66.364 26.006, 64.732 26.535, 64.393 27.419 M 93.585 27.663 C 92.320 28.024, 96.221 29.898, 105.085 33.187 C 122.178 39.528, 122 39.477, 122 37.985 C 122 35.736, 115.377 30.430, 110.892 29.084 C 105.966 27.607, 96.499 26.829, 93.585 27.663 M 88.391 32.250 C 88.734 33.487, 89.297 37.051, 89.641 40.168 C 90.373 46.793, 90.682 46.966, 101.807 46.986 C 113.643 47.008, 123.074 43.693, 118.315 41.183 C 116.171 40.052, 89.256 30, 88.373 30 C 88.040 30, 88.048 31.012, 88.391 32.250 M 120.758 45.531 C 117.114 48.666, 108.190 50.364, 98.750 49.719 C 91.084 49.195, 91 49.215, 91 51.595 C 91 53.858, 91.338 53.999, 96.750 53.981 C 106.288 53.949, 137.194 52.073, 139.325 51.397 C 140.880 50.903, 139.802 50.113, 134.408 47.790 C 123.020 42.886, 123.703 42.999, 120.758 45.531 M 144 53.123 C 142.075 53.641, 134.767 56.638, 127.761 59.783 L 115.022 65.500 121.761 66.301 C 125.467 66.742, 134.800 67.186, 142.500 67.288 C 153.772 67.438, 157.231 67.145, 160.250 65.788 C 162.313 64.861, 164 63.444, 164 62.640 C 164 60.841, 159.038 56.570, 153.906 53.952 C 149.693 51.803, 149.090 51.752, 144 53.123 M 56 55.604 C 43.740 57.559, 37.461 60.432, 38.654 63.540 C 39.495 65.732, 48.460 67.938, 57.500 68.177 C 63.840 68.345, 85.999 66.440, 86.629 65.673 C 86.708 65.578, 87.098 63.523, 87.498 61.106 L 88.224 56.713 83.102 57.392 C 80.285 57.766, 76.297 57.641, 74.240 57.115 C 69.576 55.922, 59.326 55.073, 56 55.604 M 109.500 56.139 C 100.150 56.601, 91.938 57.195, 91.250 57.458 C 90.536 57.732, 90 59.666, 90 61.969 L 90 66 98.870 66 C 107.543 66, 107.993 65.879, 119.120 60.572 C 125.379 57.586, 129.600 55.179, 128.500 55.221 C 127.400 55.264, 118.850 55.677, 109.500 56.139 M 91.250 68.706 C 88.130 69.307, 87.940 75, 91.040 75 C 93.649 75, 100.457 78.445, 105.163 82.148 C 110.331 86.214, 115.910 95.068, 117.210 101.265 C 118.158 105.784, 118.059 107.074, 116.515 110.328 C 113.758 116.137, 108.801 119.001, 101.518 118.994 C 89.827 118.984, 82.940 115.205, 80.917 107.692 C 79.995 104.269, 80.171 101.539, 81.905 92.328 C 83.065 86.168, 84.271 80.456, 84.586 79.635 C 85.086 78.333, 84.483 78.303, 79.829 79.401 C 65.281 82.835, 58 90.976, 58 103.808 C 58 111.092, 62.347 120.492, 67.790 124.979 C 72.988 129.263, 79.631 132.142, 83.861 131.945 C 100.041 131.189, 104.883 131.519, 107.617 133.562 C 112.493 137.205, 114.385 140.613, 114.382 145.746 C 114.380 151.337, 112.145 155.283, 108.010 156.996 C 103.044 159.053, 98.629 156.721, 87.706 146.268 C 76.471 135.516, 72.112 133.041, 68.537 135.384 C 67.273 136.212, 65.060 139.880, 63.554 143.642 C 58.076 157.326, 55.215 159.110, 42.725 156.631 C 34.217 154.942, 27.327 154.553, 24.582 155.607 C 22.130 156.548, 22.711 160.349, 25.750 163.256 C 33.257 170.438, 47.834 173.651, 59.283 170.649 C 70.340 167.749, 80.926 166.883, 112 166.333 C 140.781 165.824, 142.947 165.912, 150.438 167.897 C 165.223 171.814, 177 169.849, 177 163.465 C 177 159.303, 174.234 155.160, 170.019 153.010 C 163.590 149.730, 156.438 150.647, 149 155.706 L 145.500 158.087 142.125 154.293 C 132.795 143.807, 132.014 135.758, 138.052 112.297 C 140.281 103.637, 141.849 95.536, 141.538 94.294 C 140.582 90.488, 135.279 85.366, 129.894 83.050 C 127.077 81.838, 120.212 79.981, 114.636 78.923 C 99.366 76.024, 97.816 74.953, 102.174 70.314 L 104.349 68 98.924 68.136 C 95.941 68.211, 92.487 68.467, 91.250 68.706 M 87.589 78.748 C 86.252 83.027, 83.001 100.517, 83.015 103.360 C 83.049 110.612, 87.650 114.676, 97.385 116.055 C 104.681 117.088, 108.924 115.951, 112.494 112.007 C 120.451 103.214, 106.731 81.460, 90.818 77.640 C 88.777 77.150, 88.005 77.415, 87.589 78.748 M 91 134.125 C 88.525 134.646, 84.910 134.941, 82.968 134.781 C 79.439 134.489, 79.445 134.498, 88.833 143.494 C 101.660 155.787, 104.278 157.024, 109.139 153.088 C 112.593 150.292, 112.516 142.247, 109 138.489 C 107.625 137.019, 105.825 135.460, 105 135.024 C 102.286 133.591, 95.578 133.160, 91 134.125" stroke="none" fill="black" fill-rule="evenodd"/>
</svg>