<svg xmlns="http://www.w3.org/2000/svg" width="200" height="200" viewBox="0 0 200 200" version="1.1">
	<path d="M 99.500 7.114 C 98.400 7.757, 96.561 9.418, 95.414 10.804 L 93.329 13.326 86.709 11.663 C 69.081 7.235, 59.222 12.804, 68.750 21.808 C 72.616 25.461, 84.018 31.249, 89.750 32.468 C 94.750 33.531, 93.628 34.649, 86.853 35.358 C 75.222 36.573, 63.270 35.847, 57.969 33.602 C 56.027 32.780, 44.219 39.826, 41.551 43.399 C 39.587 46.031, 39.587 46.031, 41.821 48.265 C 43.931 50.376, 44.873 50.500, 58.777 50.500 C 66.875 50.500, 78.338 50.148, 84.250 49.718 C 92.977 49.084, 95 49.190, 95 50.282 C 95 51.309, 93.571 51.524, 88.970 51.191 C 83.731 50.812, 82.106 51.166, 76.583 53.884 C 67.241 58.483, 62.474 63.524, 60.926 70.439 C 59.852 75.241, 59.932 77.779, 61.481 87.877 C 63.667 102.131, 63.242 104.579, 58.214 106.694 C 55.240 107.945, 52.508 108.115, 44.500 107.550 C 26.520 106.282, 27.875 106.112, 25.258 109.968 C 21.832 115.019, 22.450 119.791, 26.863 122.359 C 33.236 126.068, 43.781 126.178, 90.982 123.030 C 99.959 122.432, 105.820 122.420, 106.399 122.999 C 106.978 123.578, 106.864 126.029, 106.099 129.447 C 103.542 140.875, 97.691 141.536, 80.114 132.380 C 70.858 127.559, 68.436 126.715, 63.660 126.646 C 59.506 126.586, 57.359 127.088, 55.348 128.589 C 41.139 139.198, 49.454 175.391, 68.690 186.664 C 77.158 191.627, 109.953 192.341, 131 188.021 C 146.816 184.775, 153.777 181.061, 151.343 177.166 C 149.734 174.591, 143.098 173.387, 123.040 172.030 C 103.957 170.738, 95.323 169.187, 106.500 169.057 C 114.693 168.963, 131.101 166.429, 139.090 164.023 C 145.564 162.075, 151 158.810, 151 156.871 C 151 154.822, 142.117 152.086, 132.141 151.062 C 126.447 150.478, 115.648 149.950, 108.144 149.889 L 94.500 149.779 100 148.352 C 106.777 146.593, 113.607 146.359, 126.217 147.454 C 140.424 148.687, 147 145.863, 147 138.526 C 147 135.794, 143.807 128.685, 141.296 125.824 C 139.952 124.294, 140.201 124.102, 144.162 123.614 C 146.548 123.320, 151.875 122.809, 156 122.478 C 165.238 121.738, 175.719 119.414, 178.738 117.436 C 182.173 115.185, 181.593 112.340, 177.250 110.149 C 172.536 107.770, 162.510 105.260, 152.906 104.054 C 141.854 102.667, 141.121 101.432, 138.019 79 C 135.224 58.780, 127.340 51.628, 107.751 51.542 C 100.512 51.511, 98.001 51.170, 98.001 50.218 C 98 49.355, 99.550 48.940, 102.750 48.945 C 138.067 49.005, 153.721 48.400, 157.154 46.841 C 167.657 42.073, 159.941 34.442, 136 25.921 C 127.267 22.813, 125.567 21.874, 125.900 20.342 C 127.029 15.148, 126.635 14.605, 118.844 10.631 C 110.658 6.454, 103.007 5.063, 99.500 7.114 M 98.900 11.100 C 97.745 12.255, 97.183 13.526, 97.650 13.924 C 98.660 14.785, 122.063 21.289, 122.471 20.822 C 122.625 20.645, 123.054 19.515, 123.424 18.311 C 124.020 16.371, 123.252 15.716, 116.693 12.561 C 107.917 8.339, 102.135 7.865, 98.900 11.100 M 69.750 13.689 C 67.005 14.407, 67.693 17.562, 71.250 20.571 C 74.643 23.440, 84.620 28.439, 89.107 29.518 C 91.687 30.139, 91.720 30.073, 92.266 23.323 C 92.569 19.570, 92.680 16.359, 92.512 16.187 C 92.344 16.015, 89.798 15.232, 86.853 14.449 C 81.732 13.086, 73.465 12.719, 69.750 13.689 M 95.607 18.582 C 95.273 19.452, 95 22.562, 95 25.494 L 95 30.824 99 31.500 C 106.027 32.687, 116.457 29.769, 119.865 25.662 C 121.442 23.762, 121.511 23.795, 108.454 20.114 C 95.538 16.472, 96.378 16.573, 95.607 18.582 M 122.358 26.509 C 122.040 27.339, 119.916 29.160, 117.639 30.556 L 113.500 33.093 123.500 32.463 C 131.496 31.958, 133.893 32.127, 135.462 33.308 C 137.208 34.621, 137.263 34.978, 135.962 36.553 C 135.158 37.527, 132.025 39.425, 129 40.771 C 125.975 42.117, 122.375 43.717, 121 44.326 C 118.861 45.274, 119.799 45.518, 127.500 46.020 C 137.750 46.688, 154.076 45.565, 157.021 43.989 C 161.390 41.651, 158.140 38.189, 146.771 33.070 C 140.519 30.255, 125.597 25, 123.855 25 C 123.350 25, 122.677 25.679, 122.358 26.509 M 108.250 36.296 C 94.912 37.357, 94.916 37.354, 96.630 43.750 C 97.167 45.754, 97.865 46, 103.011 46 C 107.450 46, 111.190 45.041, 119.145 41.861 C 124.840 39.585, 130.388 37.110, 131.473 36.361 C 133.220 35.155, 132.706 35.018, 126.973 35.161 C 123.413 35.249, 114.987 35.760, 108.250 36.296 M 51.418 39.003 C 45.715 42.334, 42.306 45.639, 43.423 46.756 C 45.289 48.623, 91.665 47.669, 93.610 45.723 C 93.957 45.377, 93.929 43.434, 93.548 41.405 L 92.856 37.717 83.058 38.257 C 73.865 38.764, 61.379 37.950, 58 36.624 C 57.175 36.301, 54.213 37.371, 51.418 39.003 M 77.500 56.375 L 72.500 58.724 77 59.917 C 84.497 61.905, 91.342 64.191, 94.343 65.709 C 95.907 66.500, 97.378 66.955, 97.614 66.720 C 98.697 65.636, 95.682 55.900, 93.981 54.990 C 90.691 53.229, 82.781 53.894, 77.500 56.375 M 101.191 56.630 C 104.240 59.882, 107.945 67.479, 107.978 70.547 C 107.990 71.673, 109.837 74.373, 112.082 76.547 C 114.328 78.721, 116.803 81.715, 117.582 83.200 C 119.270 86.415, 119.440 93.940, 117.901 97.318 C 116.878 99.564, 117.548 100.470, 127.630 110.467 L 138.458 121.203 147.979 120.512 C 160.050 119.636, 173.452 117.351, 176.795 115.600 L 179.377 114.246 176.213 112.610 C 172.446 110.662, 158.711 107.321, 151 106.477 C 140.637 105.342, 138.612 102.311, 135.957 83.961 C 133.338 65.853, 130.999 61.122, 122.500 56.746 C 119.517 55.210, 115.957 54.568, 108.500 54.223 L 98.500 53.760 101.191 56.630 M 100.248 63.854 C 100.812 66.709, 101.962 69.120, 103.097 69.828 C 105.687 71.446, 105.655 69.204, 103.014 64.028 C 100.155 58.423, 99.161 58.361, 100.248 63.854 M 68.897 61.784 C 65.882 63.897, 63.049 70.742, 63.015 76 C 62.999 78.475, 63.750 85.036, 64.684 90.581 C 66.663 102.325, 65.850 105.952, 60.609 108.761 C 57.131 110.625, 45.774 111.047, 35.265 109.702 L 29.029 108.904 27.018 112.202 C 24.403 116.491, 24.478 117.612, 27.511 119.599 C 32.510 122.874, 43.895 123.428, 69.570 121.643 C 82.731 120.728, 96.596 119.984, 100.381 119.990 L 107.262 120 106.642 116.250 C 106.301 114.188, 106.017 111.760, 106.011 110.855 C 106.002 109.521, 105.386 109.345, 102.750 109.922 C 98.136 110.932, 94.765 109.836, 93.042 106.766 C 91.779 104.516, 91.748 103.389, 92.835 99.308 C 94.636 92.549, 98.790 85.706, 100.658 86.422 C 101.653 86.804, 102.038 86.459, 101.823 85.382 C 101.640 84.473, 99.105 82.889, 96 81.744 C 91.608 80.125, 88.537 77.761, 80.756 70.010 C 71.497 60.787, 70.906 60.378, 68.897 61.784 M 80.526 66.250 C 83.903 70.309, 91.495 76.687, 95.275 78.642 C 99.733 80.947, 100.730 80.188, 99.736 75.245 C 99.066 71.914, 98.200 70.637, 95.749 69.370 C 93.028 67.963, 79.383 63, 78.236 63 C 78.008 63, 79.039 64.463, 80.526 66.250 M 102.622 75.750 C 103.477 79.314, 103.817 79.642, 104.583 77.643 C 105.349 75.647, 104.454 73, 103.012 73 C 102.373 73, 102.220 74.077, 102.622 75.750 M 106.246 79.880 C 102.913 84.389, 104.118 89.090, 109.867 94.005 C 113.895 97.447, 114.575 97.724, 115.396 96.256 C 117.366 92.737, 116.459 86.114, 113.417 81.797 C 111.813 79.521, 110.028 77.503, 109.450 77.313 C 108.873 77.122, 107.431 78.278, 106.246 79.880 M 99.178 91.309 C 97.400 93.494, 95 100.210, 95 103 C 95 106.865, 97.197 108.373, 101.619 107.544 L 105.259 106.861 104.596 101.222 C 103.680 93.422, 103.034 91.227, 101.483 90.632 C 100.748 90.350, 99.710 90.655, 99.178 91.309 M 107.326 99.624 C 108.089 104.323, 108.571 104.698, 111.009 102.492 L 113.031 100.662 110.841 98.331 C 107.730 95.019, 106.644 95.418, 107.326 99.624 M 111.695 105.021 C 109.149 107.430, 108.919 108.215, 109.195 113.546 C 109.563 120.636, 109.808 120.754, 124.478 120.900 L 134.456 121 125.978 112.431 C 121.315 107.718, 116.825 103.526, 116 103.115 C 115.022 102.628, 113.524 103.291, 111.695 105.021 M 109.568 125.283 C 109.319 126.502, 108.852 129.142, 108.531 131.149 C 107.277 138.985, 100.726 143.074, 92.815 140.959 C 90.442 140.324, 84.341 137.627, 79.258 134.965 C 64.188 127.073, 57.605 127.325, 53.250 135.962 C 47.689 146.989, 52.581 167.224, 63.677 179.085 C 70.866 186.772, 73.513 187.391, 99.418 187.450 C 122.740 187.503, 131.503 186.387, 143.803 181.796 C 153.721 178.094, 149.646 176.497, 126.500 175.015 C 95.566 173.034, 80.868 170.799, 83.232 168.435 C 83.561 168.106, 90.281 167.430, 98.165 166.932 C 115.556 165.835, 126.856 164.449, 134.367 162.493 C 142.480 160.379, 147.521 158.113, 146.427 157.070 C 143.809 154.573, 136.017 153.750, 111 153.328 C 96.425 153.082, 83.858 152.666, 83.072 152.404 C 79.587 151.238, 85.312 148.826, 98.372 145.956 C 110.466 143.299, 112.845 143.055, 117.762 143.964 C 126.122 145.509, 137.580 145.268, 141.050 143.474 C 144.648 141.614, 144.983 137.776, 142.034 132.210 C 137.833 124.281, 137.894 124.309, 123.261 123.657 C 110.174 123.073, 110.016 123.092, 109.568 125.283" stroke="none" fill="black" fill-rule="evenodd"/>
</svg>