<svg xmlns="http://www.w3.org/2000/svg" width="200" height="200" viewBox="0 0 200 200" version="1.1">
	<path d="M 66.337 11.564 C 65.385 14.046, 67.464 17.427, 72.732 21.965 L 77.618 26.174 76.615 31.068 L 75.613 35.963 53.556 36.231 L 31.500 36.500 37.500 42.540 C 45.344 50.435, 50.006 52, 65.688 52 C 75.847 52, 77.110 52.189, 76.823 53.667 C 76.643 54.595, 74.675 55.942, 72.385 56.705 C 63.744 59.585, 57.208 68.068, 55.595 78.500 C 55.005 82.314, 55.167 82.634, 59.073 85.376 C 67.718 91.445, 71.321 100.241, 67.434 105.791 C 63.380 111.579, 50.027 114.692, 36.002 113.119 C 26.257 112.027, 25.657 112.285, 22.763 118.812 C 20.971 122.854, 20.955 123.282, 22.503 125.646 C 25.707 130.535, 29.937 131.508, 47.500 131.392 C 56.300 131.334, 70.250 130.526, 78.500 129.597 C 86.750 128.668, 96.435 127.647, 100.023 127.328 L 106.545 126.748 109.278 131.770 L 112.012 136.792 84.256 137.230 C 54.743 137.695, 50.116 138.374, 47.302 142.651 C 46.011 144.614, 46.161 145.114, 49.022 148.373 C 50.747 150.337, 54.601 153.341, 57.587 155.050 L 63.017 158.156 69.758 156.630 C 94.845 150.952, 112.906 153.455, 120.716 163.694 C 124.111 168.146, 127 177.980, 127 185.089 C 127 190.606, 127.155 191, 129.322 191 C 137.968 191, 146.744 183.968, 149.444 174.878 C 152.547 164.429, 150.813 147.485, 145.585 137.168 C 142.407 130.897, 140.824 129.660, 137.041 130.491 C 135.339 130.865, 134 130.746, 134 130.221 C 134 129.671, 140.721 129.328, 150.250 129.391 C 161.622 129.467, 167.651 129.093, 170.336 128.144 C 175.959 126.157, 180.794 121.477, 182.052 116.808 C 182.646 114.602, 182.989 112.684, 182.816 112.545 C 182.642 112.406, 177.100 111.265, 170.500 110.008 C 141.069 104.404, 133.646 99.336, 136.893 87.059 C 137.556 84.552, 139.651 79.880, 141.549 76.678 C 143.447 73.476, 145 70.531, 145 70.134 C 145 69.054, 136.074 62.523, 131.500 60.256 C 125.644 57.354, 118.145 55.063, 109.833 53.634 L 102.500 52.375 106.960 50.060 C 111.006 47.960, 112.237 47.806, 120.210 48.408 C 125.431 48.802, 129 48.695, 129 48.143 C 129 46.899, 126.473 46, 122.977 46 C 117.810 46, 118.983 44.409, 127.050 40.476 C 135.707 36.255, 137.690 33.367, 131.250 34.359 C 129.188 34.676, 116.588 35.243, 103.250 35.618 L 79 36.301 79.015 33.401 C 79.043 28.130, 80.022 27.743, 86.581 30.408 C 99.880 35.812, 112.075 35.778, 122.159 30.308 L 126.818 27.781 136.299 30.834 C 147.999 34.601, 155 37.828, 155 39.455 C 155 41.245, 152.252 43.398, 146 46.506 C 139.421 49.777, 139.638 49.605, 140.452 50.922 C 140.869 51.597, 143.332 50.863, 147.302 48.880 C 163.403 40.835, 161.562 36.367, 139.092 28.954 C 129.863 25.910, 125.854 24.115, 125.452 22.849 C 124.495 19.833, 117.006 14.163, 111.613 12.371 C 104.844 10.123, 96.666 10.145, 90.401 12.428 C 85.361 14.265, 85.220 14.262, 78.246 12.143 C 69.851 9.593, 67.144 9.462, 66.337 11.564 M 69 13.873 C 69 14.353, 71.097 16.678, 73.660 19.041 L 78.320 23.336 80.655 20.418 C 81.939 18.813, 82.992 17.236, 82.995 16.914 C 83 16.331, 71.953 13, 70.015 13 C 69.457 13, 69 13.393, 69 13.873 M 94 14.219 C 92.075 14.791, 90.950 15.411, 91.500 15.596 C 92.050 15.782, 98.767 17.569, 106.428 19.567 C 114.088 21.565, 121.063 23.415, 121.928 23.678 C 122.792 23.942, 121.601 22.385, 119.279 20.219 C 112.833 14.203, 102.397 11.727, 94 14.219 M 84.046 20.669 C 81.389 24.047, 81.751 25.073, 86.382 27.286 C 93.069 30.482, 102.055 32.279, 108.155 31.642 C 113.855 31.046, 122 28.377, 122 27.105 C 122 26.391, 90.389 18, 87.703 18 C 86.846 18, 85.200 19.201, 84.046 20.669 M 95.152 38.749 C 79.933 39.011, 77.878 39.239, 78.402 40.606 C 78.731 41.463, 79 43.540, 79 45.222 L 79 48.280 84.250 47.694 C 87.138 47.373, 94.420 46.571, 100.432 45.912 C 109.057 44.968, 112.856 44.021, 118.432 41.423 L 125.500 38.130 119 38.290 C 115.425 38.378, 104.694 38.584, 95.152 38.749 M 38 39.932 C 38 41.012, 42.038 43.984, 46.834 46.435 C 51.678 48.910, 61.496 50.238, 69.250 49.468 L 76 48.797 76 43.899 L 76 39 57 39 C 45.926 39, 38 39.389, 38 39.932 M 92.500 49.540 C 87.550 50.248, 82.713 50.867, 81.750 50.914 C 80.695 50.966, 80 51.795, 80 53 C 80 54.771, 80.667 55, 85.818 55 C 101.041 55, 115.588 64.683, 117.517 76.100 C 118.035 79.164, 117.796 80.568, 116.519 81.979 C 115.242 83.390, 115.088 84.296, 115.874 85.764 C 116.442 86.826, 117.873 91.422, 119.054 95.976 C 120.793 102.686, 120.975 104.678, 120.012 106.478 C 118.949 108.464, 119.487 109.600, 125.118 117.267 L 131.412 125.836 141.778 126.542 C 163.750 128.040, 174.990 125.633, 178.343 118.712 C 179.199 116.946, 179.584 115.226, 179.199 114.892 C 178.815 114.558, 173.342 113.278, 167.039 112.049 C 144.810 107.713, 137.370 104.154, 134.428 96.451 C 132.324 90.942, 133.630 84.658, 138.590 76.421 C 140.465 73.306, 142 70.642, 142 70.501 C 142 70.359, 139.637 68.623, 136.750 66.642 C 129.270 61.511, 120.455 58.218, 109.238 56.365 C 103.882 55.481, 99.050 54.328, 98.500 53.804 C 97.845 53.180, 98.536 52.015, 100.500 50.430 C 102.150 49.099, 103.050 48.064, 102.500 48.131 C 101.950 48.197, 97.450 48.831, 92.500 49.540 M 81 57.976 C 81 61.140, 84.592 72.649, 89.198 84.241 L 94.260 96.982 97.979 96.387 C 102.355 95.688, 106.245 97.420, 112.022 102.639 C 118.654 108.630, 119.250 106.202, 114.832 91.205 L 112.682 83.911 109.591 84.705 C 107.891 85.142, 103.423 85.500, 99.662 85.500 C 93.410 85.500, 92.618 85.260, 90.412 82.694 C 87.387 79.175, 87.344 75.271, 90.284 70.898 C 93.415 66.238, 98.514 64.948, 103.134 67.646 C 106.258 69.471, 112.219 76.268, 113.261 79.194 C 114.231 81.917, 115.209 78.929, 114.531 75.315 C 113.538 70.019, 106.174 62.908, 98.886 60.209 C 91.733 57.560, 81 56.220, 81 57.976 M 72.500 59.389 C 65.187 62.584, 59.644 69.810, 58.486 77.658 C 57.957 81.251, 58.181 81.690, 61.954 84.437 C 70.916 90.963, 74.246 100.463, 69.838 106.932 C 68.552 108.819, 65.250 111.519, 62.500 112.932 C 57.824 115.333, 56.527 115.507, 42.500 115.611 L 27.500 115.721 25.674 118.833 C 23.455 122.615, 24.134 125.264, 27.769 127.002 C 34.065 130.011, 65.858 129, 96.196 124.825 C 105.719 123.514, 106.542 122.256, 99.953 119.079 C 94.523 116.461, 92.522 112.804, 92.348 105.177 C 92.225 99.763, 91.362 96.496, 87.782 87.902 C 85.354 82.073, 82.062 72.960, 80.468 67.652 C 78.873 62.343, 77.103 58.018, 76.534 58.039 C 75.965 58.061, 74.150 58.668, 72.500 59.389 M 93.073 71.635 C 90.458 74.959, 90.417 79.162, 92.976 81.478 C 94.623 82.969, 96.205 83.186, 102.493 82.782 C 106.641 82.516, 110.304 82.030, 110.632 81.702 C 111.534 80.799, 107.286 74.418, 103.868 71.542 C 99.876 68.184, 95.760 68.219, 93.073 71.635 M 96.649 99.758 C 96.391 100.176, 97.957 104.232, 100.128 108.773 C 103.856 116.570, 104.199 116.966, 106.288 115.893 C 109.369 114.309, 114 109.858, 114 108.480 C 114 107.272, 108.014 102.130, 104.316 100.162 C 101.848 98.849, 97.357 98.613, 96.649 99.758 M 95.045 108.194 C 95.020 109.687, 96.101 112.140, 97.468 113.694 C 100.589 117.241, 100.601 115.792, 97.500 110 C 95.309 105.909, 95.086 105.745, 95.045 108.194 M 114 113.507 C 112.625 114.983, 110.263 116.834, 108.750 117.621 C 105.671 119.222, 105.445 119.914, 107.250 122.204 C 108.149 123.344, 111.129 123.983, 117.856 124.478 L 127.212 125.167 125.406 122.110 C 124.413 120.428, 122.002 117.201, 120.050 114.939 L 116.500 110.825 114 113.507 M 112.905 132.485 C 114.607 135.502, 116 138.387, 116 138.897 C 116 139.437, 103.375 139.995, 85.750 140.233 C 56.170 140.633, 49 141.397, 49 144.146 C 49 145.551, 53.906 149.853, 58.750 152.696 L 63 155.190 74.066 152.987 C 89.244 149.965, 104.013 150.407, 112 154.123 C 122.592 159.052, 128.203 167.760, 129.605 181.449 C 130.338 188.600, 130.789 188.951, 136.298 186.649 C 140.725 184.799, 145.673 178.898, 147.103 173.763 C 147.756 171.418, 148.283 166.125, 148.273 162 C 148.236 145.782, 139.948 127.077, 136.362 135.116 C 135.431 137.202, 135.237 137.084, 132.517 132.785 C 129.693 128.321, 129.560 128.248, 123.076 127.635 C 119.459 127.294, 114.995 127.011, 113.155 127.007 L 109.809 127 112.905 132.485" stroke="none" fill="black" fill-rule="evenodd"/>
</svg>