<svg xmlns="http://www.w3.org/2000/svg" width="200" height="200" viewBox="0 0 200 200" version="1.1">
	<path d="M 129.012 10.230 C 129.019 10.928, 130.148 15.550, 131.520 20.500 C 135.430 34.606, 139.779 58.286, 141.032 72.289 C 142.965 93.896, 139.084 117, 133.522 117 C 132.044 117, 119 105.224, 119 103.890 C 119 103.377, 120.108 101.279, 121.461 99.229 C 129.379 87.233, 129.581 56.382, 121.957 23.387 C 120.926 18.925, 119.526 14.053, 118.846 12.561 C 117.665 9.968, 117.366 9.874, 112.055 10.422 C 96.698 12.007, 75.851 13.269, 61.500 13.481 C 52.700 13.612, 44.977 13.782, 44.337 13.859 C 43.684 13.938, 43.245 15.410, 43.337 17.214 C 43.467 19.782, 44.331 20.985, 47.634 23.202 C 54.577 27.862, 74.131 36.269, 75.302 35.098 C 76.011 34.389, 74.326 33.165, 69.917 31.186 C 58.692 26.148, 47.962 20.747, 47.413 19.859 C 45.890 17.394, 65.069 21.774, 79.763 27.246 C 86.857 29.888, 88.560 30.923, 88.820 32.750 C 89.174 35.244, 91 35.872, 91 33.500 C 91 32.675, 91.492 32, 92.094 32 C 94.330 32, 116.006 43.182, 115.465 44.056 C 114.803 45.128, 98.131 50.465, 97.480 49.814 C 97.235 49.569, 97.567 47.958, 98.218 46.234 C 99.231 43.550, 99.139 42.811, 97.579 41.088 C 93.388 36.456, 93.022 36.440, 39 38.618 C 29.333 39.008, 22.089 38.851, 19.750 38.202 C 17.687 37.630, 16 37.520, 16 37.959 C 16 39.607, 26.949 47.119, 32.838 49.512 C 36.204 50.880, 42.118 52.541, 45.979 53.203 C 49.841 53.865, 53 54.766, 53 55.204 C 53 55.642, 52.467 56, 51.816 56 C 48.824 56, 41.821 60.445, 40.360 63.271 C 37.232 69.320, 39.137 74.900, 50.827 93.915 C 59.202 107.539, 57.986 109.868, 43.144 108.634 C 36.098 108.048, 35.024 108.224, 29.419 110.877 C 18.524 116.034, 16.825 121.202, 24.830 124.835 C 27.898 126.227, 32.109 126.500, 50.500 126.500 C 73.243 126.500, 81.550 125.623, 94.407 121.866 C 101.109 119.907, 101.568 119.897, 109.864 121.544 C 118.099 123.178, 126.940 123.136, 131.500 121.442 C 132.957 120.901, 132.582 121.672, 130.118 124.283 C 122.878 131.956, 110.505 134.555, 95.914 131.467 C 79.643 128.024, 79.281 129.151, 93.468 139.098 C 99.428 143.277, 104.911 147.526, 105.652 148.539 C 107.726 151.375, 107.349 157.374, 104.963 159.534 C 99.990 164.034, 81.848 161.617, 67.414 154.531 C 54.956 148.416, 48.320 141.765, 45.523 132.591 C 44.986 130.830, 44.704 130.908, 41.881 133.591 C 36.209 138.983, 34.077 145.859, 35.937 152.764 C 39.145 164.681, 58.611 180.449, 78.400 187.160 C 84.305 189.163, 85.369 189.284, 85.782 188 C 86.874 184.609, 95.844 177.213, 100.904 175.532 C 108.961 172.856, 121.261 173.333, 137.436 176.950 C 151.364 180.064, 154.630 180.463, 157.418 179.393 C 160.284 178.293, 159.192 173.444, 154.508 166.457 C 150.571 160.586, 150.090 159.292, 150.617 155.995 C 151.320 151.595, 149.529 136.832, 147.623 131.321 C 146.818 128.994, 145.558 127.364, 144.401 127.153 C 142.019 126.718, 137 122.072, 137 120.303 C 137 119.576, 137.937 118.197, 139.083 117.240 C 140.228 116.283, 144.687 110.958, 148.992 105.406 C 153.296 99.854, 158.547 93.951, 160.659 92.287 C 166.196 87.926, 174.281 84.077, 180.554 82.818 C 184.217 82.082, 186 81.237, 186 80.237 C 186 79.085, 185.268 78.905, 182.750 79.437 C 173.814 81.326, 169.568 81.178, 165.058 78.821 C 159.182 75.750, 157.105 71.438, 155.377 58.711 C 151.807 32.424, 148.848 23.709, 141.127 16.733 C 136.144 12.232, 128.994 8.394, 129.012 10.230 M 94 14.563 C 85.475 15.256, 77.825 15.868, 77 15.922 C 76.175 15.976, 77.768 17.076, 80.541 18.367 C 84.833 20.365, 89.920 24.854, 91.154 27.732 C 91.344 28.175, 95.775 30.461, 101 32.812 C 106.225 35.162, 112.944 38.598, 115.932 40.447 L 121.364 43.808 117.932 45.902 C 113.741 48.458, 107.297 50.657, 99.095 52.330 C 95.697 53.023, 93.028 54.020, 93.165 54.545 C 93.302 55.070, 94.973 56.036, 96.879 56.691 C 98.785 57.347, 101.729 59.268, 103.422 60.962 C 107.659 65.201, 107.568 71.053, 103.116 80.565 L 99.870 87.500 107.685 94.708 C 111.983 98.672, 115.902 101.800, 116.393 101.660 C 118.190 101.146, 122.079 92.140, 123.624 84.916 C 126.402 71.923, 124.288 44.944, 118.622 21.076 C 117.783 17.544, 117.326 14.281, 117.607 13.826 C 118.236 12.809, 113.871 12.945, 94 14.563 M 133 14.534 C 133 14.866, 134.089 19.494, 135.420 24.819 C 138.424 36.835, 141.594 53.021, 142.962 63.322 C 144.462 74.622, 144.240 97.348, 142.559 104.492 C 141.784 107.787, 141.232 110.566, 141.333 110.666 C 141.433 110.766, 144.887 106.516, 149.008 101.220 C 154.254 94.478, 158.380 90.337, 162.769 87.409 C 168.870 83.339, 168.966 83.208, 166.330 82.547 C 157.554 80.344, 154.807 74.691, 151.587 52.211 C 148.823 32.910, 146.458 26.154, 140.198 19.671 C 136.547 15.891, 133 13.359, 133 14.534 M 66.069 19.916 C 71.332 21.458, 78.194 23.677, 81.319 24.846 C 88.009 27.349, 88.794 26.126, 82.750 22.616 C 77.401 19.510, 67.680 16.983, 61.356 17.055 C 56.614 17.109, 56.725 17.176, 66.069 19.916 M 63.500 40.127 C 56.350 40.628, 44.650 41.368, 37.500 41.771 L 24.500 42.505 30.172 45.245 C 42.612 51.254, 62.284 53.957, 80.604 52.174 C 90.448 51.216, 91.717 50.861, 93.750 48.501 C 94.987 47.064, 96 45.068, 96 44.066 C 96 40.056, 84.462 38.658, 63.500 40.127 M 53.718 58.092 C 39.060 61.543, 38.226 69.132, 50.429 87.997 C 57.141 98.372, 59.153 102.767, 58.808 106.301 C 58.339 111.103, 55.304 112.222, 44.500 111.578 C 36.831 111.121, 34.835 111.343, 31 113.083 C 25.843 115.422, 21.798 118.864, 22.628 120.207 C 23.716 121.968, 28.431 123.092, 38.886 124.082 C 55.352 125.642, 81.911 123.017, 96.785 118.359 C 101.285 116.950, 102.695 116.893, 106.285 117.973 C 111.783 119.628, 126.243 120.523, 128.358 119.340 C 129.738 118.567, 128.851 117.379, 122.953 112.098 L 115.896 105.780 107.484 107.890 C 93.906 111.296, 87.987 110.482, 88.014 105.215 C 88.022 103.722, 89.803 99.244, 91.973 95.264 L 95.918 88.027 88.709 81.934 C 78.043 72.919, 77.666 72.834, 80.626 80.119 C 83.227 86.519, 83.432 91.039, 81.155 91.788 C 79.226 92.422, 68.003 80.529, 64.137 73.755 C 58.963 64.688, 60.986 60.886, 69.050 64.523 C 72.772 66.201, 72.929 66.188, 76.178 63.932 C 78.005 62.663, 80.772 60.584, 82.327 59.312 L 85.153 57 71.327 57.100 C 63.722 57.156, 55.798 57.602, 53.718 58.092 M 82.425 62.601 C 79.166 65.131, 76.500 67.528, 76.500 67.927 C 76.500 68.705, 96.442 85, 97.395 85 C 98.429 85, 102.822 75.465, 103.533 71.678 C 104.548 66.267, 102.606 62.472, 97.579 60.038 C 91.396 57.045, 89.074 57.438, 82.425 62.601 M 64 67.066 C 64 69.862, 74.862 85.025, 78.639 87.499 C 80.765 88.892, 80.816 88.847, 80.055 86.222 C 77.826 78.536, 73.014 69.979, 69.827 68.036 C 66.151 65.795, 64 65.436, 64 67.066 M 96.759 92.250 C 93.816 96.754, 91 102.968, 91 104.960 C 91 106.714, 91.637 107, 95.544 107 C 98.044 107, 103.010 106.266, 106.581 105.369 C 112.955 103.768, 113.041 103.702, 111.287 101.757 C 110.304 100.667, 106.964 97.577, 103.865 94.888 L 98.229 90.001 96.759 92.250 M 132.123 126.369 C 125.669 133.239, 112.099 136.945, 100.175 135.095 C 96.336 134.500, 92.364 133.714, 91.348 133.350 C 89.076 132.535, 92.003 134.902, 100.827 141.015 C 104.307 143.426, 107.795 146.636, 108.577 148.149 C 110.614 152.089, 110.345 157.292, 107.946 160.341 C 102.287 167.536, 82.887 165.682, 64.500 156.188 C 57.101 152.368, 44 140.491, 44 137.603 C 44 134.692, 42.211 135.933, 40.089 140.316 C 37.489 145.687, 37.470 150.234, 40.022 155.860 C 44.048 164.732, 59.952 176.912, 76.207 183.572 L 82.914 186.319 87.707 181.214 C 94.528 173.949, 100.128 171.692, 112.500 171.222 C 120.652 170.913, 124.718 171.336, 134.500 173.512 C 141.100 174.980, 148.873 176.422, 151.773 176.717 L 157.046 177.251 155.970 174.422 C 155.378 172.865, 153.352 169.444, 151.466 166.820 C 148.113 162.152, 148.028 161.790, 147.605 150.274 C 147.177 138.617, 145.369 130.313, 143.344 130.701 C 142.768 130.811, 140.792 129.348, 138.952 127.451 C 137.113 125.553, 135.324 124, 134.978 124 C 134.632 124, 133.347 125.066, 132.123 126.369" stroke="none" fill="black" fill-rule="evenodd"/>
</svg>