<svg xmlns="http://www.w3.org/2000/svg" width="200" height="200" viewBox="0 0 200 200" version="1.1">
	<path d="M 98.637 5.875 C 97.186 9.106, 96 12.256, 96 12.875 C 96 14.402, 95.222 14.313, 88.559 12.020 C 85.394 10.932, 79.418 9.341, 75.279 8.486 C 68.469 7.079, 67.527 7.080, 65.377 8.489 C 64.069 9.345, 63 10.573, 63 11.216 C 63 13.885, 73.817 22.724, 81.756 26.544 C 86.280 28.720, 89.985 31.035, 89.991 31.689 C 89.996 32.353, 87.905 33.158, 85.250 33.513 C 79.026 34.347, 78 34.710, 78 36.084 C 78 36.890, 79.631 37.027, 83.496 36.544 C 87.830 36.002, 88.898 36.136, 88.545 37.179 C 88.300 37.905, 87.609 40.412, 87.011 42.750 L 85.923 47 75.909 47 C 64.765 47, 54.790 45.081, 48 41.630 C 38.097 36.596, 44.107 33.577, 62.891 34.151 C 70.844 34.394, 74.447 34.153, 74.712 33.360 C 75.221 31.838, 59.068 30.564, 51.053 31.494 C 45.045 32.191, 40 34.880, 40 37.385 C 40 39.317, 45.084 43.642, 49.500 45.467 C 55.415 47.912, 66.288 49.996, 73.315 50.031 L 79.500 50.063 74.829 52.352 C 64.097 57.613, 59.068 64.036, 59.022 72.543 C 59.010 74.767, 60.149 80.551, 61.554 85.397 C 64.830 96.697, 64.559 100.725, 60.329 103.565 C 57.624 105.381, 55.192 105.776, 43.766 106.255 C 28.284 106.904, 22.650 108.530, 23.178 112.195 C 24.078 118.444, 45.596 125, 65.203 125 L 73.144 125 72.447 130.750 C 71.590 137.820, 71.488 138, 68.324 138 C 66.669 138, 64.445 136.638, 62.023 134.143 C 55.543 127.465, 49.036 128.267, 44.760 136.271 C 42.728 140.074, 42.503 141.860, 42.533 154 C 42.561 165.355, 42.912 168.430, 44.744 173.355 C 48.799 184.254, 55.018 189.989, 62.790 189.996 C 66.938 190, 73.736 187.314, 77.140 184.328 C 78.569 183.074, 79.555 183.089, 84.785 184.444 C 96.293 187.426, 106.522 186.340, 126.915 179.969 C 146.371 173.892, 154.349 174.005, 163.995 180.497 C 166.871 182.432, 169.235 183.428, 169.590 182.854 C 170.276 181.745, 159.788 163.040, 151.208 150.068 C 148.088 145.351, 141.195 137.246, 135.565 131.674 L 125.500 121.713 130 122.379 C 132.475 122.744, 140.688 123.326, 148.250 123.670 C 159.769 124.195, 163.086 124.003, 168.688 122.486 C 179.655 119.518, 184.807 112.983, 186.622 99.739 L 187.242 95.219 175.371 98.161 C 168.842 99.779, 159.358 101.369, 154.295 101.696 C 139.619 102.641, 138.396 100.873, 141.046 82.535 C 141.757 77.619, 141.722 73.978, 140.929 70.157 C 138.796 59.883, 128.244 51.907, 115 50.557 C 102.880 49.322, 100.637 48.335, 104.836 46.088 C 106.089 45.417, 109.346 45.583, 115.086 46.608 C 127.395 48.808, 140.433 47.228, 150.214 42.353 C 155.040 39.947, 157 37.598, 157 34.221 C 157 29.604, 150.440 27.153, 135.841 26.316 L 125.183 25.705 124.521 21.293 C 122.804 9.840, 119.454 0, 117.272 0 C 116.229 -0, 116.016 0.522, 116.559 1.750 C 117.913 4.816, 121.894 20.409, 121.948 22.857 C 121.981 24.353, 121.544 25.033, 120.750 24.718 C 116.089 22.871, 98.439 15.591, 98.174 15.407 C 97.910 15.224, 100.863 7.610, 103.664 1.250 C 103.966 0.563, 103.552 0, 102.744 0 C 101.916 0, 100.121 2.567, 98.637 5.875 M 66.634 10.783 C 65.303 12.936, 76.487 21.507, 86.196 25.776 L 90.892 27.840 92.556 22.830 C 93.477 20.059, 93.836 17.457, 93.360 17.007 C 92.087 15.803, 77.213 11.301, 71.868 10.501 C 69.145 10.094, 66.988 10.210, 66.634 10.783 M 96.101 20.254 C 95.636 21.489, 94.943 23.933, 94.562 25.685 C 93.903 28.718, 94.052 28.921, 97.685 29.929 C 101.765 31.063, 111.627 31.169, 116.418 30.132 C 122.741 28.763, 120.952 27.516, 101.724 19.900 L 96.947 18.008 96.101 20.254 M 125.790 30.239 C 129.609 32.078, 127.899 34.297, 119.303 38.663 C 110.138 43.318, 110.281 43.711, 121.477 44.658 C 134.066 45.722, 151.208 41.217, 153.931 36.129 C 154.853 34.407, 154.661 33.825, 152.767 32.590 C 149.171 30.245, 142.219 29.045, 132.500 29.092 C 125.201 29.127, 123.933 29.344, 125.790 30.239 M 105.022 34.155 C 98.259 34.669, 93.076 35.536, 92.405 36.264 C 91.779 36.944, 90.798 39.439, 90.224 41.809 L 89.182 46.119 92.301 45.434 C 94.017 45.057, 97.430 43.887, 99.886 42.835 C 102.341 41.782, 104.834 41.099, 105.425 41.318 C 106.016 41.537, 110.550 39.792, 115.500 37.441 C 124.165 33.327, 124.351 33.169, 120.500 33.225 C 118.300 33.256, 111.335 33.675, 105.022 34.155 M 94.500 47.491 C 90.320 48.830, 90.395 48.920, 97.500 51.044 C 103.787 52.924, 110.641 56.961, 112.065 59.622 C 113.925 63.096, 112.272 66.972, 107.653 69.966 C 104.481 72.023, 103.942 72.853, 104.406 74.966 C 107.207 87.713, 108.173 96.464, 107.280 100.984 L 106.312 105.879 114.013 112.267 L 121.715 118.656 133.107 119.866 C 147.248 121.369, 162.598 121.455, 167.776 120.060 C 176.183 117.797, 181.895 111.441, 183.455 102.615 C 184.111 98.902, 184.038 98.760, 181.821 99.401 C 174.037 101.653, 155.661 104.985, 151 104.991 C 144.072 104.999, 138.956 102.537, 137.668 98.574 C 137.035 96.629, 137.146 91.914, 137.998 84.514 C 139.928 67.757, 137.584 62.432, 125.648 56.460 C 120.472 53.871, 117.444 52.999, 113.616 52.994 C 104.549 52.985, 98.533 50.182, 100.556 46.910 C 101.286 45.728, 99.454 45.904, 94.500 47.491 M 78.500 53.712 C 72.382 56.172, 66.794 60.182, 64.276 63.919 C 61.219 68.455, 61.313 74.735, 64.609 86.194 C 69.846 104.395, 66.577 107.942, 43.500 109.096 C 35.800 109.482, 28.712 110.116, 27.750 110.505 C 24.694 111.743, 25.847 113.688, 30.932 115.876 C 39.573 119.593, 48.848 121.265, 61.489 121.386 L 73.478 121.500 74.236 115 C 75.970 100.127, 82.776 59.970, 84.617 53.750 C 85.255 51.593, 83.792 51.584, 78.500 53.712 M 87.077 55.750 C 84.482 65.478, 75.630 119.960, 76.503 120.835 C 76.687 121.019, 80.797 120.178, 85.637 118.966 C 92.852 117.158, 96.383 116.841, 105.244 117.206 C 111.188 117.451, 115.703 117.330, 115.276 116.937 C 107.795 110.041, 104.695 108.038, 102.394 108.616 C 100.381 109.121, 99.174 108.458, 95.956 105.074 C 91.176 100.049, 87.546 93.398, 89.070 92.456 C 89.651 92.098, 90.885 92.438, 91.813 93.212 C 92.741 93.987, 95.692 96.499, 98.372 98.794 C 101.052 101.089, 103.639 102.723, 104.122 102.425 C 105.938 101.302, 104.777 87.826, 101.914 76.810 C 100.995 73.273, 100.836 73.161, 98.069 74.126 C 96.482 74.679, 93.455 74.990, 91.342 74.816 C 88.192 74.557, 87.441 74.080, 87.170 72.168 C 86.988 70.885, 87.663 68.906, 88.670 67.771 C 90.786 65.384, 97.958 60, 99.020 60 C 99.416 60, 100.307 62.025, 101 64.500 C 101.693 66.975, 102.816 69, 103.495 69 C 105.894 69, 110 64.866, 110 62.450 C 110 59.513, 107.179 57.543, 98.423 54.365 C 89.404 51.091, 88.283 51.228, 87.077 55.750 M 92.765 67.925 L 88.500 71.950 93 71.960 C 98.869 71.972, 100.294 71.019, 99.447 67.646 C 98.415 63.535, 97.370 63.579, 92.765 67.925 M 97.437 102.830 C 99.052 104.573, 100.767 106, 101.246 106 C 102.663 106, 101.167 104.250, 97.720 101.876 L 94.500 99.659 97.437 102.830 M 86.500 121.560 C 83.750 122.344, 80.309 123.261, 78.854 123.597 C 76.108 124.231, 75 126.961, 75 133.089 L 75 135.929 79.750 133.879 C 82.362 132.751, 86.765 131.589, 89.534 131.297 C 93.949 130.830, 94.956 131.092, 97.737 133.432 L 100.907 136.099 106.662 131.411 C 117.178 122.846, 123.023 122.003, 125.044 128.760 C 127.785 137.920, 116.198 167.351, 106.499 175.867 C 104.536 177.590, 102.609 179, 102.215 179 C 101.822 179, 101.500 171.149, 101.500 161.552 C 101.500 150.014, 101.121 143.724, 100.381 142.982 C 98.713 141.312, 85.339 156.234, 78.629 167.250 C 77.708 168.762, 76.082 170, 75.017 170 C 71.999 170, 70.762 164.023, 71.156 151.341 L 71.500 140.255 67.887 140.741 C 64.675 141.173, 63.978 140.838, 61.599 137.719 C 58.235 133.308, 54.012 131.388, 51.101 132.946 C 41.758 137.946, 42.442 169.644, 52.146 181.374 C 58.358 188.884, 64.623 189.335, 74.240 182.965 L 78.861 179.904 84.610 181.575 C 94.175 184.356, 107.511 183.140, 124 177.985 C 141.168 172.617, 152.160 171.650, 159.431 174.866 L 164.170 176.963 160.943 171.231 C 149.896 151.610, 145.373 145.432, 133.259 133.416 C 121.915 122.164, 120.678 121.228, 116.370 120.637 C 108.436 119.550, 91.743 120.066, 86.500 121.560 M 112.900 130.125 C 110.480 131.844, 107.078 134.593, 105.340 136.234 C 102.405 139.005, 102.263 139.442, 103.340 142.359 C 104.019 144.197, 104.500 151.411, 104.500 159.749 C 104.500 167.587, 104.725 173.998, 105 173.997 C 106.127 173.994, 112.182 163.954, 115.855 156 C 119.638 147.807, 123 136.640, 123 132.268 C 123 126.137, 119.546 125.404, 112.900 130.125 M 80.250 136.655 L 74 139.212 74 152.547 C 74 160.004, 74.424 166.144, 74.962 166.476 C 75.491 166.803, 76.797 165.367, 77.864 163.285 C 78.932 161.203, 84.129 154.668, 89.414 148.762 L 99.023 138.023 97.012 136.012 C 94.231 133.231, 88.038 133.468, 80.250 136.655" stroke="none" fill="black" fill-rule="evenodd"/>
</svg>