<svg xmlns="http://www.w3.org/2000/svg" width="200" height="200" viewBox="0 0 200 200" version="1.1">
	<path d="M 95 6.409 L 95 12.819 89.750 11.423 C 86.862 10.655, 81.702 9.735, 78.282 9.378 C 57.880 7.252, 64.063 22.838, 86.640 30.441 L 93.290 32.681 79.407 33.378 C 56.748 34.515, 43.331 36.872, 40.271 40.253 C 36.668 44.235, 41.976 47.070, 57.500 49.456 C 74.705 52.101, 78 52.296, 78 50.673 C 78 49.577, 76.154 49.030, 70.750 48.522 C 61.971 47.698, 45.832 44.565, 43.425 43.218 C 41.805 42.311, 41.827 42.163, 43.728 41.145 C 49.584 38.012, 94.311 34.309, 97.652 36.682 C 98.286 37.132, 99.125 39.646, 99.518 42.268 L 100.232 47.036 93.116 46.374 C 88.446 45.940, 86 46.069, 86 46.749 C 86 48.177, 88.477 48.997, 92.832 49.014 C 99.699 49.039, 100.785 49.771, 101.939 55.150 C 102.522 57.872, 103 60.348, 103 60.653 C 103 60.958, 101.472 59.866, 99.605 58.226 C 89.081 48.986, 73.652 50.579, 62.437 62.064 C 59.209 65.370, 58.606 66.711, 58.213 71.449 C 56.754 89.043, 76.203 101.292, 103.156 99.755 C 110.236 99.352, 112 99.525, 112 100.626 C 112 102.193, 115.447 102.063, 65.500 102.371 C 26.527 102.611, 21.500 103.257, 21.500 108.024 C 21.500 111.304, 26.902 114.209, 39.054 117.464 C 47.006 119.595, 50.714 119.998, 62.500 120.013 C 76.979 120.031, 82.773 121.152, 74.831 122.398 C 66.781 123.661, 50.945 127.987, 46.994 130.003 C 41.773 132.667, 40.344 135.351, 42.444 138.554 C 44.952 142.382, 51.124 145, 57.643 145 L 63.366 145 54.522 150.250 C 44.079 156.450, 40 161.242, 40 167.312 C 40 174.935, 46.015 181.819, 59.674 189.825 L 64.848 192.858 71.174 191.404 C 80.932 189.162, 89.631 186.078, 92.446 183.864 C 97.367 179.993, 95.336 176.891, 83.500 170.203 C 79.650 168.027, 76.353 165.508, 76.173 164.605 C 75.783 162.643, 79.697 160.835, 89.602 158.402 C 93.396 157.470, 97.006 156.315, 97.625 155.835 C 98.244 155.355, 99.315 152.946, 100.005 150.481 C 100.695 148.016, 101.583 146, 101.977 146 C 102.372 146, 102.973 150.838, 103.313 156.750 C 104.420 175.997, 107.318 186.876, 113.089 193.449 C 120.194 201.541, 130.788 199.933, 145 188.606 C 147.475 186.633, 150.400 185.013, 151.500 185.006 C 155.107 184.982, 160.054 181.096, 162.036 176.729 C 165.937 168.136, 163.873 149.380, 157.451 135.071 C 154.883 129.349, 154.876 129.254, 156.525 123.900 C 157.441 120.930, 158.371 117.902, 158.593 117.172 C 158.903 116.153, 161.497 115.908, 169.749 116.117 L 180.500 116.390 180.798 113.890 C 181.401 108.821, 168.159 97.321, 149 86.277 L 140.500 81.377 140.845 75.275 C 141.360 66.152, 140.993 65.609, 132.220 62.518 C 122.834 59.211, 118 55.809, 118 52.510 C 118 50.414, 118.579 50.048, 122.750 49.515 C 134.072 48.067, 140.784 46.742, 145.882 44.950 C 151.488 42.980, 156 39.612, 156 37.398 C 156 35.547, 151.372 32.237, 147.703 31.463 C 145.941 31.091, 139.194 28.738, 132.710 26.234 L 120.919 21.682 115.374 10.841 C 111.140 2.563, 109.360 0, 107.846 0 C 105.879 0, 105.879 0.022, 107.806 2.750 C 111.173 7.516, 117.190 20.234, 115.816 19.679 C 115.092 19.386, 110.787 17.896, 106.250 16.367 L 98 13.588 98 6.794 C 98 1.422, 97.686 0, 96.500 0 C 95.323 0, 95 1.379, 95 6.409 M 69.079 12.930 C 64.487 15.837, 81.247 27.291, 93.402 29.553 L 97.305 30.280 96.600 23.390 C 96.213 19.600, 95.581 16.207, 95.198 15.849 C 94.057 14.785, 79.119 11.999, 74.643 12.015 C 72.364 12.024, 69.861 12.435, 69.079 12.930 M 99.009 18.643 C 99.013 19.664, 99.308 22.922, 99.664 25.883 L 100.310 31.265 107.432 30.727 C 111.349 30.430, 116.017 29.583, 117.805 28.844 C 120.893 27.568, 120.980 27.391, 119.529 25.332 C 118.582 23.988, 114.867 22.128, 109.751 20.436 C 105.213 18.935, 100.938 17.500, 100.250 17.246 C 99.532 16.982, 99.004 17.576, 99.009 18.643 M 123.555 27.365 C 124.032 29.262, 123.444 29.799, 119.304 31.252 C 116.662 32.180, 112.025 33.252, 109 33.634 C 105.975 34.016, 104.020 34.503, 104.656 34.716 C 105.292 34.930, 110.820 34.406, 116.941 33.552 C 132.188 31.426, 137 31.482, 137 33.789 C 137 34.873, 134.934 36.837, 131.750 38.779 C 128.863 40.539, 125.150 43.107, 123.500 44.485 L 120.500 46.991 125 46.421 C 139.133 44.634, 149.418 41.611, 152.015 38.482 C 153.682 36.473, 152.483 35.497, 146.500 33.996 C 144.300 33.444, 138.113 31.231, 132.751 29.078 C 123.428 25.334, 123.027 25.260, 123.555 27.365 M 94.750 33.662 C 95.438 33.940, 96.563 33.940, 97.250 33.662 C 97.938 33.385, 97.375 33.158, 96 33.158 C 94.625 33.158, 94.063 33.385, 94.750 33.662 M 115.500 36.506 C 111.100 37.203, 106.263 37.542, 104.750 37.261 C 101.732 36.700, 101.398 37.739, 102.625 43.875 L 103.250 47 110.003 47 C 115.037 47, 117.101 46.583, 118.114 45.362 C 118.862 44.461, 122.400 41.761, 125.976 39.362 L 132.479 35 127.989 35.120 C 125.520 35.185, 119.900 35.809, 115.500 36.506 M 103.999 50.750 C 103.999 51.163, 104.722 55.146, 105.607 59.601 L 107.215 67.702 112.855 69.481 C 115.958 70.458, 122.492 72.992, 127.375 75.110 C 132.259 77.228, 136.647 78.718, 137.127 78.421 C 137.607 78.125, 137.999 75.546, 137.997 72.691 L 137.995 67.500 129.985 64.671 C 120.775 61.418, 115 56.778, 115 52.632 C 115 50.108, 114.774 50, 109.500 50 C 106.475 50, 104 50.337, 103.999 50.750 M 73.446 57.485 C 70.726 58.851, 66.813 61.528, 64.750 63.434 C 61.335 66.588, 61 67.366, 61 72.133 C 61 87.148, 73.254 95.741, 96.104 96.750 C 102.487 97.032, 108.357 96.866, 109.149 96.381 C 110.389 95.622, 110.401 94.650, 109.236 89.379 L 107.882 83.259 103.617 83.740 C 98.352 84.333, 93.368 81.985, 86.420 75.638 L 81.500 71.144 83.599 69.001 C 86.226 66.319, 92.174 64.925, 97.738 65.688 C 102.863 66.390, 103.087 65.424, 98.750 61.308 C 91.439 54.370, 82.374 53, 73.446 57.485 M 89 68.655 C 84.909 70.329, 85.010 71.189, 89.764 75.117 C 96.036 80.300, 102.361 82.775, 104.595 80.921 C 105.799 79.922, 106.086 78.458, 105.719 75.202 C 105.448 72.795, 104.838 70.439, 104.363 69.965 C 103.274 68.879, 91.009 67.833, 89 68.655 M 108.512 72.659 C 112.232 91.071, 113.396 95, 115.130 95 C 118.188 95, 127.401 90.464, 131.304 87.038 C 135.348 83.488, 135.950 81.524, 133.250 80.698 C 132.287 80.403, 127.368 78.342, 122.317 76.117 C 110.260 70.806, 108.024 70.245, 108.512 72.659 M 135.678 86.565 C 133.139 90.052, 127.115 93.848, 120.078 96.396 C 115.605 98.016, 114.318 98.896, 114.943 99.909 C 115.641 101.038, 118.316 100.978, 131.223 99.547 C 143.219 98.216, 147.587 98.081, 150.780 98.941 C 156.010 100.349, 159 104.057, 159 109.135 L 159 113 166.918 113 C 171.273 113, 175.548 113.273, 176.418 113.607 C 179.023 114.606, 178.218 112.248, 174.583 108.223 C 168.771 101.790, 142.136 83.921, 138.524 84.031 C 137.961 84.049, 136.680 85.189, 135.678 86.565 M 127.500 102.711 C 121.450 103.518, 116.368 104.309, 116.206 104.467 C 116.045 104.625, 116.758 108.072, 117.792 112.127 C 119.085 117.199, 120.114 119.436, 121.086 119.296 C 121.864 119.184, 125.601 118.183, 129.392 117.070 C 133.182 115.958, 140.945 114.506, 146.642 113.844 C 157.936 112.531, 158.084 112.409, 155.927 106.222 C 154.012 100.726, 147.960 99.979, 127.500 102.711 M 30.065 106.135 C 27.076 106.631, 24.376 107.290, 24.066 107.600 C 22.986 108.681, 27.539 111.091, 35.490 113.646 C 42.398 115.867, 46.554 116.377, 65.706 117.360 C 87.660 118.487, 92.763 119.484, 88.357 121.785 C 87.336 122.318, 80.770 123.948, 73.767 125.405 C 57.967 128.693, 48.894 131.455, 45.881 133.895 C 43.862 135.530, 43.743 135.985, 44.950 137.440 C 47.552 140.575, 50.501 141.500, 59.490 142 C 71.714 142.680, 71.970 144.246, 60.797 150.003 C 44.238 158.535, 39.718 164.607, 43.869 172.743 C 46.221 177.354, 51.879 182.293, 60.033 186.852 L 65.566 189.946 75.354 187.462 C 95.161 182.436, 95.999 180.353, 81.500 172.196 C 73.093 167.466, 71.061 163.989, 74.891 160.888 C 76.980 159.195, 85.693 156.188, 93.169 154.577 C 95.286 154.121, 96.168 153.010, 97.432 149.206 C 99.132 144.085, 101.581 140, 102.950 140 C 104.439 140, 104.959 142.860, 106.093 157.301 C 107.343 173.211, 109.750 184.100, 113.189 189.410 C 115.558 193.068, 120.269 196, 123.775 196 C 127.680 196, 134.540 192.852, 141.158 188.023 C 144.866 185.318, 149.698 182.620, 151.896 182.028 C 154.094 181.436, 156.791 179.810, 157.888 178.415 C 162.752 172.231, 162.588 158.370, 157.467 143 C 154.220 133.251, 153.441 132.020, 152.480 135.118 C 152.074 136.428, 149.740 141.775, 147.292 147 C 144.845 152.225, 142.229 159.376, 141.479 162.892 C 139.898 170.307, 138.743 171.952, 136.222 170.382 C 133.538 168.709, 130.564 162.742, 126.508 150.893 C 124.457 144.902, 122.454 140, 122.056 140 C 121.658 140, 119.458 138.269, 117.166 136.154 C 112.339 131.697, 111.715 127.904, 115.100 123.600 C 117.326 120.771, 117.311 120.508, 114.366 110.250 L 112.858 105 74.179 105.117 C 52.906 105.181, 33.054 105.639, 30.065 106.135 M 141.500 117.109 C 134.272 118.151, 122.330 121.657, 121.515 122.976 C 121.192 123.498, 121.904 127.282, 123.096 131.385 L 125.263 138.845 131.007 141.423 C 134.166 142.840, 137.199 144, 137.749 144 C 138.302 144, 138.809 140.965, 138.887 137.197 C 139.190 122.423, 142.980 117.746, 149.916 123.583 L 152.986 126.166 153.847 123.833 C 154.320 122.550, 155.007 120.263, 155.373 118.750 C 156.023 116.063, 155.940 116.003, 151.769 116.122 C 149.421 116.189, 144.800 116.633, 141.500 117.109 M 142.892 126.750 C 142.309 128.262, 141.579 133.672, 141.268 138.770 C 140.632 149.217, 141.218 148.827, 132.095 144.881 C 129.673 143.833, 127.474 143.193, 127.209 143.458 C 126.466 144.201, 134.086 163.884, 136.059 166.321 C 137.786 168.454, 137.813 168.422, 138.450 163.489 C 138.805 160.745, 140.039 156.475, 141.194 154 C 146.712 142.171, 151 131.730, 151 130.124 C 151 128.149, 147.045 124, 145.161 124 C 144.495 124, 143.474 125.237, 142.892 126.750 M 116.667 125.667 C 115.132 127.202, 116.139 131.782, 118.500 134 C 121.319 136.648, 121.517 135.961, 119.793 129.514 C 118.608 125.084, 117.999 124.335, 116.667 125.667" stroke="none" fill="black" fill-rule="evenodd"/>
</svg>