<svg xmlns="http://www.w3.org/2000/svg" width="200" height="200" viewBox="0 0 200 200" version="1.1">
	<path d="M 121.500 11.675 C 88.724 15.770, 55.708 22.713, 54.540 25.756 C 53.845 27.566, 59.965 34.043, 67.993 39.995 L 74.799 45.040 84.625 45.686 L 94.451 46.331 87.668 48.619 C 82.125 50.489, 80.394 50.703, 78.193 49.788 C 73.802 47.963, 55.376 48.271, 48.817 50.278 C 37.741 53.667, 33.737 60.045, 40.212 63.983 C 44.005 66.289, 55.208 69, 60.947 69 C 63.176 69, 65 69.450, 65 70 C 65 70.550, 64.531 71, 63.957 71 C 61.620 71, 53.103 80.333, 51.019 85.177 C 48.393 91.282, 48.056 101.805, 50.315 107.211 C 53.838 115.644, 64.129 123.371, 73.559 124.663 C 77.692 125.230, 78.078 125.514, 77.803 127.794 C 77.636 129.174, 76.231 131.247, 74.680 132.401 C 72.091 134.328, 70.183 134.541, 51.348 135 C 32.893 135.450, 30.700 135.685, 29.486 137.347 C 28.744 138.363, 28.396 139.938, 28.712 140.847 C 29.529 143.199, 35.626 149.446, 41.656 154.110 L 46.811 158.098 60.156 155.548 C 67.495 154.145, 85.425 151.398, 100 149.442 C 138.344 144.298, 136.704 144.422, 138.994 146.495 C 141.662 148.909, 144.262 156.253, 147.366 170.144 C 150.355 183.515, 151.210 186.067, 153.451 188.308 C 156.344 191.202, 159.601 188.549, 164.037 179.686 C 172.312 163.152, 173.210 154.713, 173.629 89.500 C 173.980 34.959, 173.599 29.377, 168.983 21.294 C 164.799 13.968, 159.417 11.502, 149.447 12.345 C 145.009 12.720, 141.857 12.577, 141.490 11.983 C 140.917 11.056, 128.042 10.857, 121.500 11.675 M 109.362 16.015 C 102.686 17.026, 91.661 18.895, 84.862 20.169 L 72.500 22.485 80.263 23.262 C 94.214 24.657, 106 31.090, 106 37.309 C 106 38.724, 106.499 40.190, 107.109 40.567 C 107.749 40.963, 113.356 36.138, 120.359 29.167 C 127.037 22.521, 134.075 16.406, 136 15.580 C 139.451 14.099, 139.374 14.079, 130.500 14.128 C 125.550 14.155, 116.038 15.004, 109.362 16.015 M 142.741 16.429 C 135.772 18.916, 135.531 19.660, 140.035 24.777 C 148.150 33.996, 149.753 46.352, 147.652 83.500 C 146.856 97.572, 146.932 98.779, 148.880 103 C 151.553 108.795, 151.641 116.437, 149.081 120.634 C 144.151 128.720, 134.983 132.377, 119.500 132.434 C 110.010 132.468, 107.927 132.169, 104.323 130.254 C 96.249 125.963, 97.856 121.067, 109.028 115.917 C 126.895 107.682, 130.791 93.408, 118.741 80.335 C 115.073 76.355, 104.382 70, 101.355 70 C 99.780 70, 91.002 80.901, 91.001 82.858 C 91 83.818, 91.755 84.027, 93.572 83.571 C 98.678 82.290, 106 88.981, 106 94.930 C 106 98.335, 101.381 104.234, 96.902 106.551 C 91.878 109.149, 84.578 110.233, 80.145 109.039 C 70.909 106.552, 69.525 97.677, 76.230 83.937 C 78.225 79.847, 80.818 75.064, 81.990 73.309 L 84.122 70.118 77.470 70.553 C 69.529 71.071, 63.697 73.457, 59.077 78.077 C 47.359 89.795, 49.317 109.428, 63.033 117.740 C 65.973 119.522, 69.981 121.236, 71.939 121.548 C 79.234 122.710, 79.973 123.043, 80.575 125.442 C 81.431 128.853, 79.092 133.052, 75 135.450 C 71.883 137.275, 69.318 137.555, 51.581 138 C 37.335 138.358, 31.549 138.842, 31.264 139.702 C 30.818 141.047, 38.265 148.525, 44.021 152.515 L 47.775 155.116 60.637 152.635 C 67.712 151.270, 88.011 148.239, 105.746 145.899 L 137.993 141.645 140.416 143.921 C 143.949 147.240, 146.664 154.311, 149.945 168.733 C 153.228 183.169, 154.496 187, 155.990 187 C 157.437 187, 160.445 181.834, 164.142 173 C 169.703 159.713, 170.352 150.840, 170.430 87 L 170.500 30.500 167.500 24.562 C 165.366 20.339, 163.494 18.101, 161.016 16.812 C 156.868 14.655, 148.220 14.474, 142.741 16.429 M 122.073 31.122 C 116.533 36.662, 112 41.512, 112 41.898 C 112 42.285, 114.108 43.626, 116.685 44.878 C 120.118 46.545, 121.001 47.382, 119.989 48.007 C 119.210 48.488, 117.849 48.455, 116.870 47.930 C 114.402 46.610, 114.317 46.665, 113.641 50.047 C 113.305 51.723, 111.674 55.067, 110.016 57.477 C 108.357 59.888, 107 62.178, 107 62.566 C 107 62.955, 111.165 63.055, 116.255 62.788 C 130.206 62.059, 134.823 58.669, 132.183 51.094 C 131.378 48.785, 131.461 48.037, 132.569 47.612 C 133.503 47.253, 134.180 47.987, 134.573 49.785 C 134.900 51.278, 135.350 53.088, 135.574 53.806 C 135.797 54.524, 135.362 56.592, 134.606 58.401 C 132.549 63.324, 126.995 65.211, 114.082 65.374 C 108.155 65.449, 103.529 65.936, 103.351 66.503 C 103.178 67.051, 105.471 68.553, 108.445 69.841 C 114.859 72.618, 121.257 77.862, 124.503 83.005 C 132.970 96.417, 127.999 109.321, 111.079 117.853 C 102.418 122.220, 100.523 124.392, 103.469 126.579 C 106.945 129.159, 113.271 130.225, 122.500 129.786 C 133.145 129.278, 140.440 126.541, 145.007 121.339 C 148.727 117.103, 149.001 111.267, 145.895 102.465 C 143.849 96.670, 143.825 95.952, 145.047 77.299 C 146.440 56.024, 145.971 43.931, 143.468 36.558 C 141.444 30.596, 137.603 24.625, 134.473 22.574 C 132.208 21.090, 131.877 21.318, 122.073 31.122 M 69.813 23.683 C 70.534 23.972, 71.397 23.936, 71.729 23.604 C 72.061 23.272, 71.471 23.036, 70.417 23.079 C 69.252 23.127, 69.015 23.364, 69.813 23.683 M 73.500 27.017 C 77.758 28.893, 101.637 38, 102.300 38 C 102.685 38, 103 37.348, 103 36.551 C 103 34.227, 96.565 29.966, 89.942 27.905 C 83.787 25.989, 69.407 25.213, 73.500 27.017 M 62.944 32.152 C 72.618 41.173, 75.033 42.338, 85.049 42.817 C 94.489 43.268, 101.405 42.464, 100.512 41.019 C 99.105 38.743, 65.538 26.978, 60.622 27.038 L 57.500 27.076 62.944 32.152 M 102.548 43.589 C 100.476 45.104, 101.302 45.329, 104.434 44.102 C 105.497 43.686, 105.942 43.082, 105.423 42.761 C 104.903 42.440, 103.609 42.812, 102.548 43.589 M 101.907 52.205 C 99.483 55.068, 96.680 58.443, 95.677 59.705 L 93.855 62 98.714 62 C 103.512 62, 103.619 61.930, 107.286 56.361 C 111.656 49.725, 112.055 47, 108.657 47 C 107.063 47, 104.903 48.666, 101.907 52.205 M 89.306 50.937 C 81.426 53.629, 80.908 53.681, 75.806 52.296 C 62.996 48.819, 40 53.529, 40 59.629 C 40 62.361, 48.429 64.990, 62.264 66.574 C 66.954 67.111, 68.964 66.832, 73.043 65.077 C 75.802 63.890, 80.858 62.639, 84.279 62.297 C 90.498 61.674, 90.501 61.672, 96.295 54.837 C 103.132 46.771, 102.514 46.426, 89.306 50.937 M 78.199 65.986 C 72.399 67.360, 73.292 68.289, 79.866 67.720 C 86.779 67.121, 91.052 64.921, 84.950 65.102 C 83.052 65.159, 80.015 65.556, 78.199 65.986 M 91.083 65.407 C 91.875 66.180, 98.895 66.438, 99.613 65.720 C 100.009 65.324, 98.158 65, 95.500 65 C 92.842 65, 90.854 65.183, 91.083 65.407 M 84.582 74.442 C 75.484 88.149, 72.376 100.316, 76.922 104.430 C 79.798 107.032, 85.993 107.495, 91.859 105.547 C 102.934 101.868, 106.541 93.803, 99.510 88.440 C 97.014 86.536, 95.328 85.952, 93.590 86.388 C 86.748 88.105, 86.304 83.524, 92.498 75.110 L 96.996 69 92.595 69 C 88.376 69, 88.046 69.224, 84.582 74.442" stroke="none" fill="black" fill-rule="evenodd"/>
</svg>