<svg xmlns="http://www.w3.org/2000/svg" width="200" height="200" viewBox="0 0 200 200" version="1.1">
	<path d="M 103.388 4.713 C 100.636 5.221, 96.505 9.702, 95.288 13.500 C 94.215 16.844, 92.874 16.969, 84.133 14.538 C 66.293 9.577, 66.067 9.533, 64.831 10.769 C 61.273 14.327, 72.177 23.992, 86.238 29.744 C 95.146 33.388, 95.073 35, 86 35 C 80.311 35, 79 35.294, 79 36.567 C 79 37.868, 80.232 38.093, 86.250 37.895 L 93.500 37.655 93.802 42.828 L 94.105 48 90.197 48 C 75.682 48, 49.629 44.477, 44.721 41.851 L 42.574 40.702 45.037 39.740 C 46.392 39.210, 51.069 38.247, 55.430 37.599 C 60.349 36.867, 63.531 35.906, 63.811 35.066 C 64.805 32.086, 41.487 36.567, 40.331 39.579 C 39.331 42.187, 42.932 44.770, 49.824 46.388 C 58.096 48.331, 70.467 49.981, 77.322 50.058 L 82.500 50.115 77.325 52.468 C 71.132 55.284, 63.798 61.798, 61.595 66.441 C 57.607 74.846, 60.895 84.471, 70.372 92.129 C 77.391 97.801, 84.351 100.127, 94.421 100.166 C 101.258 100.193, 102 100.387, 102 102.146 C 102 104.050, 101.112 104.089, 64.250 103.798 C 30.463 103.531, 26.106 103.678, 22.750 105.199 C 15.662 108.410, 18.403 111.408, 32.025 115.343 C 41.786 118.162, 63.291 122, 69.325 122 C 74.114 122, 73.356 122.986, 66.675 125.446 C 59.927 127.931, 54 133.751, 54 137.893 C 54 142.005, 57.579 145.405, 63.467 146.887 C 69.007 148.282, 85.458 148.316, 93.877 146.950 C 97.384 146.381, 102.194 146.207, 104.566 146.562 C 108.789 147.195, 108.901 147.312, 109.940 152.154 C 111.268 158.349, 111.317 171.037, 110.025 174.435 C 109.354 176.198, 108.304 177, 106.666 177 C 103.475 177, 95.446 169.813, 92.845 164.628 C 88.689 156.343, 83.921 152.994, 76.300 153.009 C 64.265 153.033, 50.081 167.689, 50.022 180.161 C 50.003 184.152, 50.442 185.195, 53.077 187.411 C 56.646 190.415, 56.622 190.413, 64.500 188.383 C 68.900 187.250, 79.302 186.614, 103.500 185.999 C 138.344 185.113, 145.019 184.259, 151.138 179.902 C 154.115 177.782, 157 173.221, 157 170.634 C 157 168.728, 150.341 163.481, 144.827 161.042 C 142.445 159.988, 135.498 157.767, 129.389 156.106 C 116.661 152.645, 113 151.168, 113 149.493 C 113 148.649, 116.093 148.326, 123.750 148.371 C 135.983 148.442, 141.583 147.144, 145.366 143.361 C 150.625 138.102, 147.385 131.726, 136.870 126.640 L 129.895 123.266 132.904 120.734 C 135.630 118.440, 137.019 118.145, 147.706 117.589 C 164.536 116.714, 178.834 115.159, 181.074 113.960 C 183.907 112.444, 183.422 109.437, 179.944 106.960 C 178.264 105.764, 172.675 103.063, 167.525 100.960 C 158.829 97.408, 157.531 96.487, 149.297 88.031 L 140.431 78.926 140.466 73.059 C 140.495 67.980, 140.089 66.684, 137.447 63.416 C 133.779 58.881, 125.275 53.996, 115.888 51.034 C 112.100 49.838, 109 48.779, 109 48.680 C 109 48.581, 118.112 48.500, 129.250 48.500 C 146.385 48.500, 150.318 48.215, 154.818 46.647 C 169.075 41.679, 161.280 33.979, 133.814 25.898 L 126.221 23.664 127.275 20.641 C 128.267 17.797, 128.072 17.397, 123.963 13.859 C 116.457 7.394, 108.361 3.795, 103.388 4.713 M 101.724 8.250 C 99.203 10.150, 96.619 16.941, 98.227 17.442 C 100.946 18.288, 123.347 22.985, 123.543 22.749 C 123.658 22.612, 124.053 21.518, 124.422 20.317 C 124.977 18.510, 124.173 17.441, 119.751 14.102 C 111.175 7.627, 105.147 5.670, 101.724 8.250 M 67.220 14.250 C 68.123 17.171, 91.010 30.465, 92.408 28.881 C 92.593 28.671, 93.047 26.408, 93.418 23.850 L 94.092 19.200 88.877 18.483 C 86.009 18.089, 80.509 16.693, 76.656 15.383 C 68.750 12.694, 66.661 12.443, 67.220 14.250 M 96.648 20.685 C 95.576 21.758, 95.919 29.832, 97.068 30.542 C 99.768 32.211, 110.091 32.237, 114.415 30.586 C 118.589 28.992, 121.802 26.469, 120.860 25.527 C 120.626 25.293, 116.175 24.176, 110.967 23.044 C 105.760 21.913, 100.554 20.773, 99.398 20.512 C 98.243 20.250, 97.005 20.328, 96.648 20.685 M 123.663 27.437 C 123.335 28.290, 121.590 29.908, 119.784 31.032 L 116.500 33.076 124 32.965 C 136.746 32.776, 137 32.814, 137 34.907 C 137 36.723, 131.088 39.729, 118 44.566 C 114.872 45.722, 116.148 45.865, 130 45.914 C 145.297 45.968, 155.846 44.554, 158.276 42.124 C 161.179 39.221, 149.056 32.647, 133.282 28.569 C 129.862 27.685, 126.433 26.720, 125.661 26.423 C 124.889 26.127, 123.990 26.583, 123.663 27.437 M 96 34 C 96 34.550, 96.477 35, 97.059 35 C 97.641 35, 97.840 34.550, 97.500 34 C 97.160 33.450, 96.684 33, 96.441 33 C 96.198 33, 96 33.450, 96 34 M 111.250 36.299 C 94.517 37.362, 95.247 36.984, 96.625 43.875 C 97.137 46.437, 97.730 47, 99.916 47 C 102.443 47, 128.182 38.162, 131.801 36.052 C 133.801 34.885, 133.451 34.890, 111.250 36.299 M 103.699 51.523 C 108.109 53.509, 113.583 59.206, 115.092 63.379 C 116.143 66.285, 117.261 67.205, 121.897 68.979 C 124.948 70.147, 129.601 72.429, 132.237 74.051 C 134.873 75.673, 137.248 77, 137.515 77 C 137.782 77, 138 74.991, 138 72.535 C 138 69.011, 137.375 67.358, 135.035 64.693 C 130.105 59.078, 116.236 52.887, 103.500 50.618 L 100.500 50.083 103.699 51.523 M 81.801 53.930 C 68.411 58.211, 60.386 68.569, 63.032 78.154 C 64.527 83.569, 71.209 90.487, 78.303 93.965 C 85.026 97.262, 99.065 99.321, 100.374 97.203 C 100.737 96.617, 100.749 93.720, 100.402 90.765 C 99.783 85.495, 99.672 85.342, 94.502 82.635 C 88.763 79.631, 85.583 76.667, 84.597 73.407 C 83.686 70.392, 87.325 66.217, 91.554 65.424 C 93.462 65.066, 95.250 64.405, 95.528 63.955 C 95.806 63.505, 95.739 60.631, 95.379 57.568 L 94.725 52 91.112 52.054 C 89.126 52.083, 84.935 52.928, 81.801 53.930 M 98.014 56.250 C 98.042 63.003, 98.600 63.608, 105.826 64.714 C 109.497 65.277, 112.678 65.580, 112.896 65.389 C 114.006 64.414, 107.481 56.776, 104.039 55.020 C 98.716 52.304, 97.998 52.451, 98.014 56.250 M 92.354 67.692 C 89.013 68.346, 86.367 71.762, 87.617 73.809 C 88.657 75.511, 98.035 82.298, 98.586 81.747 C 99.378 80.956, 96.503 67.018, 95.572 67.136 C 94.983 67.211, 93.534 67.461, 92.354 67.692 M 100.481 74.184 C 101.123 78.274, 101.952 82.114, 102.325 82.717 C 102.928 83.693, 111.233 87, 113.080 87 C 114.163 87, 115.281 75.554, 114.531 72.139 C 113.773 68.691, 112.689 68.146, 104.990 67.341 L 99.314 66.748 100.481 74.184 M 116.845 79.470 C 116.655 84.622, 116.157 89.179, 115.738 89.597 C 115.319 90.015, 112.467 89.567, 109.400 88.600 C 106.333 87.633, 103.585 87.082, 103.292 87.375 C 102.999 87.668, 103.066 89.955, 103.441 92.457 C 104.089 96.777, 104.260 96.975, 106.812 96.377 C 117.297 93.920, 129.284 87.768, 133.672 82.592 L 136.137 79.683 131.513 76.805 C 128.969 75.222, 124.706 73.067, 122.039 72.015 L 117.190 70.104 116.845 79.470 M 133.619 86.093 C 129.154 90.611, 117.916 96.449, 110.213 98.253 C 105.826 99.280, 104.974 99.831, 105.213 101.484 C 105.476 103.313, 106.160 103.454, 113.500 103.193 C 132.454 102.521, 154 99.632, 154 97.763 C 154 96.355, 139.869 81.984, 138.581 82.083 C 137.986 82.129, 135.753 83.933, 133.619 86.093 M 151.877 104.864 C 148.784 107.500, 144.734 110.883, 142.877 112.382 L 139.500 115.107 153 114.462 C 167.451 113.772, 178.819 112.514, 179.841 111.492 C 181.293 110.041, 171.235 104.822, 158.500 100.418 C 157.950 100.228, 154.970 102.229, 151.877 104.864 M 141.500 103.558 C 137.100 104.262, 127.313 105.166, 119.750 105.568 C 112.188 105.969, 106 106.532, 106 106.817 C 106 107.895, 108.161 120.556, 108.556 121.791 C 108.863 122.750, 109.681 122.564, 111.735 121.068 C 114.740 118.878, 125.483 116.038, 130.853 116.015 C 133.508 116.003, 135.852 114.628, 142.103 109.414 C 146.447 105.791, 150 102.641, 150 102.414 C 150 102.186, 149.887 102.063, 149.750 102.139 C 149.613 102.216, 145.900 102.854, 141.500 103.558 M 27.112 107.043 C 21.223 108.251, 21.028 108.696, 25.561 110.590 C 35.610 114.789, 67.171 120, 82.551 120 C 87.517 120, 91 120.412, 91 121 C 91 121.550, 90.888 122.006, 90.750 122.013 C 90.612 122.020, 86.450 122.874, 81.500 123.911 C 66.032 127.150, 57 132.397, 57 138.145 C 57 140.682, 57.617 141.379, 61.250 142.948 C 67.591 145.686, 75.605 146.271, 87.157 144.838 C 92.846 144.133, 100.088 143.657, 103.250 143.781 C 107.696 143.955, 109 143.679, 109 142.565 C 109 141.210, 104.581 114.442, 103.459 109 L 102.944 106.500 67.222 106.322 C 47.575 106.223, 29.525 106.548, 27.112 107.043 M 121 120.281 L 116.500 121.347 121.500 122.133 C 125.774 122.805, 126.786 122.634, 128.472 120.959 C 130.434 119.010, 130.432 119.001, 127.972 119.107 C 126.612 119.166, 123.475 119.694, 121 120.281 M 109.517 128.266 C 109.869 130.613, 110.459 133.977, 110.828 135.742 L 111.500 138.951 117.696 132.108 L 123.892 125.266 118.696 124.642 C 108.743 123.446, 108.791 123.427, 109.517 128.266 M 121.311 132.254 C 118.008 135.694, 114.566 139.938, 113.663 141.684 L 112.022 144.859 117.654 145.562 C 125.426 146.534, 136.391 145.464, 140.811 143.303 C 145.022 141.245, 146.004 138.181, 143.619 134.541 C 142.156 132.308, 130.989 126, 128.499 126 C 127.849 126, 124.614 128.815, 121.311 132.254 M 113.500 164.283 C 113.500 176.384, 112.008 180, 107.014 180 C 103.016 180, 94.225 172.740, 90.958 166.740 C 85.767 157.206, 80.444 153.996, 73.107 155.971 C 62.083 158.940, 50.457 174.003, 52.600 182.543 C 53.659 186.761, 56.690 187.468, 65.132 185.469 C 70.910 184.100, 79.620 183.561, 105.500 182.970 C 142.277 182.131, 146.769 181.440, 151.425 175.907 C 154.788 171.910, 154.675 170.617, 150.696 167.582 C 146.195 164.149, 141.498 162.268, 128 158.494 C 121.675 156.726, 115.825 154.987, 115 154.629 C 113.722 154.074, 113.500 155.500, 113.500 164.283" stroke="none" fill="black" fill-rule="evenodd"/>
</svg>