<svg xmlns="http://www.w3.org/2000/svg" width="200" height="200" viewBox="0 0 200 200" version="1.1">
	<path d="M 126 10.566 C 122.520 11.340, 86.246 13.090, 74.108 13.069 L 60.933 13.047 59.907 15.745 C 58.508 19.424, 59.939 22.219, 65.154 25.996 C 71.301 30.449, 81.647 33.298, 91.940 33.371 C 103.552 33.453, 108 32.489, 108 29.887 C 108 28.250, 108.428 27.998, 110.250 28.565 C 114.686 29.946, 134 40.036, 134 40.973 C 134 43.379, 122.605 46.279, 108.500 47.463 L 100.500 48.134 105.417 44.817 C 108.121 42.993, 110.811 40.725, 111.394 39.778 C 114.051 35.464, 108.635 35.020, 77.387 36.989 C 60.500 38.053, 43.396 37.390, 36.250 35.395 C 34.625 34.941, 34 35.191, 34 36.293 C 34 39.231, 46.405 40.338, 71.500 39.639 C 84.150 39.287, 97.597 38.708, 101.383 38.352 C 110.096 37.533, 109.989 38.928, 100.925 44.326 L 94.500 48.151 69 47.650 C 54.975 47.375, 42.487 46.838, 41.250 46.458 C 39.609 45.954, 39 46.173, 39 47.267 C 39 49.476, 42.376 49.904, 65 50.560 C 76.275 50.887, 86.400 51.537, 87.500 52.005 C 88.600 52.474, 91.975 53.399, 95 54.063 C 106.870 56.666, 115.956 61.350, 118.693 66.275 C 120.334 69.228, 120.321 74.178, 118.668 76.440 C 117.387 78.191, 116.920 78.162, 106.541 75.671 C 100.604 74.245, 95.672 72.949, 95.581 72.790 C 90.404 63.680, 81.147 55.971, 72.297 53.398 C 59.343 49.632, 52.183 56.242, 50.389 73.623 C 49.795 79.380, 49.859 79.578, 53.484 83.296 C 61.705 91.727, 70.976 95.324, 84.498 95.328 L 93.500 95.331 86 97.117 C 68.427 101.302, 58.084 101.705, 49.147 98.552 C 44.501 96.913, 38.416 98.033, 35.080 101.140 C 32.282 103.747, 32.455 105.310, 35.986 109.331 C 45.236 119.866, 82.656 129.705, 93 124.321 C 95.354 123.097, 96.812 121.439, 97.453 119.262 C 98.290 116.421, 99.088 115.834, 103.953 114.481 C 107.004 113.632, 110.534 112.502, 111.797 111.969 C 115.142 110.558, 116 110.762, 116 112.967 C 116 115.680, 121.771 121.202, 127.344 123.822 C 129.893 125.020, 132.433 126, 132.989 126 C 135.064 126, 133.878 128.426, 129.998 132.117 C 122.571 139.182, 114.800 139.510, 96.178 133.545 C 82.388 129.128, 78.646 128.490, 75.117 129.952 C 70.057 132.048, 68.485 137.765, 70.092 148.225 C 70.707 152.226, 71.322 155.622, 71.458 155.770 C 71.595 155.919, 76.836 154.719, 83.104 153.104 C 103.646 147.812, 122.785 146.794, 131.703 150.520 C 140.358 154.137, 129.260 156.883, 101.500 157.993 C 78.582 158.910, 73.463 159.726, 70.570 162.922 C 64.920 169.166, 82.337 175.963, 104 175.968 C 115.241 175.971, 124.647 174.241, 130.992 171.004 C 133.152 169.902, 135.276 169.002, 135.710 169.004 C 136.145 169.006, 137.367 171.114, 138.426 173.690 C 139.485 176.265, 142.440 180.538, 144.992 183.186 C 148.852 187.191, 150.239 188, 153.239 188 C 163.438 188, 171.290 171.374, 171.421 149.500 C 171.497 136.848, 170.324 132.471, 165.392 127.012 C 162.113 123.383, 162.075 123.242, 163.921 121.572 C 168.229 117.672, 170.235 110.232, 171.081 95 C 171.524 87.025, 172.344 73.975, 172.902 66 C 174.040 49.753, 173.160 36.612, 170.358 28 C 168.100 21.059, 160.433 13.003, 154.384 11.216 C 150.746 10.141, 130.042 9.667, 126 10.566 M 108.750 14.312 C 93.474 15.254, 89.857 16.151, 95.942 17.487 C 97.560 17.843, 100.598 19.361, 102.692 20.861 C 104.786 22.362, 113.362 26.910, 121.750 30.969 C 134.864 37.316, 137 38.672, 137 40.652 C 137 45.386, 128.558 48.268, 109.188 50.147 L 96.876 51.342 102.188 53.003 C 118.285 58.036, 125.629 66.771, 121.691 76.197 L 120.186 79.799 124.668 81.511 C 127.133 82.452, 130.970 84.954, 133.194 87.070 C 136.666 90.373, 137.172 91.378, 136.763 94.164 C 136.402 96.622, 136.798 97.839, 138.393 99.172 C 139.552 100.141, 140.771 100.948, 141.103 100.967 C 142.436 101.040, 142.977 77.487, 142.010 61.500 C 141.032 45.328, 138.552 20.079, 137.467 15.250 C 136.884 12.651, 136.086 12.625, 108.750 14.312 M 143.504 17.347 C 144.262 19.865, 145.348 26.105, 145.917 31.213 C 147.165 42.415, 149.197 92.313, 148.860 103.500 C 148.665 109.987, 149.080 112.682, 151.055 117.750 C 153.821 124.850, 155.180 125.403, 159.967 121.374 C 165.602 116.633, 167.163 112.019, 168.031 97.546 C 168.461 90.371, 169.388 76.752, 170.091 67.282 C 171.101 53.672, 171.116 48.118, 170.162 40.782 C 167.802 22.615, 160.952 14.131, 147.886 13.185 L 142.126 12.769 143.504 17.347 M 65.689 16.732 C 60.778 17.242, 61.048 19.290, 66.581 23.511 C 73.063 28.455, 80.808 30.489, 93.169 30.492 C 99.037 30.494, 104.140 30.193, 104.510 29.823 C 104.880 29.453, 104.918 28.317, 104.595 27.299 C 103.662 24.360, 78.460 15.743, 72.040 16.168 C 70.643 16.261, 67.785 16.514, 65.689 16.732 M 141.158 22 C 141.158 23.375, 141.385 23.938, 141.662 23.250 C 141.940 22.563, 141.940 21.438, 141.662 20.750 C 141.385 20.063, 141.158 20.625, 141.158 22 M 142.232 29 C 142.232 30.925, 142.438 31.712, 142.689 30.750 C 142.941 29.788, 142.941 28.212, 142.689 27.250 C 142.438 26.288, 142.232 27.075, 142.232 29 M 143.286 38.500 C 143.294 41.250, 143.488 42.256, 143.718 40.736 C 143.947 39.216, 143.941 36.966, 143.704 35.736 C 143.467 34.506, 143.279 35.750, 143.286 38.500 M 144.195 50.500 C 144.215 52.150, 144.439 52.704, 144.693 51.731 C 144.947 50.758, 144.930 49.408, 144.656 48.731 C 144.382 48.054, 144.175 48.850, 144.195 50.500 M 61.004 56.236 C 57.195 58.249, 54.025 64.928, 53.326 72.415 L 52.712 78.992 56.471 82.537 C 67.058 92.522, 82.443 95.230, 99.109 90.043 C 105.719 87.986, 115.547 82.116, 114.308 80.966 C 113.864 80.553, 109.767 79.307, 105.205 78.198 L 96.910 76.181 94.500 78.591 C 93.175 79.916, 90.993 81, 89.651 81 C 83.304 81, 61 71.974, 61 69.406 C 61 67.628, 60.611 67.612, 76.650 70.059 C 84.073 71.191, 90.670 71.943, 91.310 71.730 C 93.188 71.104, 81.938 60.612, 76.659 58.067 C 70.740 55.214, 64.353 54.467, 61.004 56.236 M 71 72.343 C 71 73.377, 87.682 78.182, 90.063 77.834 C 95.233 77.077, 92.727 75.305, 84.774 74.094 C 80.223 73.402, 75.263 72.591, 73.750 72.292 C 72.237 71.994, 71 72.017, 71 72.343 M 113.724 85.587 C 111.191 87.561, 106.505 90.289, 103.309 91.650 C 100.018 93.053, 98.800 93.877, 100.500 93.553 C 102.150 93.237, 107.775 92.707, 113 92.375 C 120.907 91.872, 123.464 92.099, 128.250 93.730 L 134 95.690 134 93.434 C 134 90.699, 129.175 86.433, 123.175 83.861 C 120.787 82.837, 118.720 82, 118.581 82 C 118.442 82, 116.256 83.614, 113.724 85.587 M 144.704 94.250 C 144.355 100.850, 144.499 105.893, 145.054 106.450 C 145.649 107.047, 146 102.870, 146 95.200 C 146 88.490, 145.842 83, 145.650 83 C 145.457 83, 145.032 88.063, 144.704 94.250 M 94.813 94.683 C 95.534 94.972, 96.397 94.936, 96.729 94.604 C 97.061 94.272, 96.471 94.036, 95.417 94.079 C 94.252 94.127, 94.015 94.364, 94.813 94.683 M 105.500 95.645 C 78.368 102.705, 58.086 104.843, 49.117 101.586 C 45.650 100.328, 43.914 100.215, 40.815 101.050 C 35.741 102.416, 35.054 104.403, 38.435 107.932 C 44.783 114.559, 65.630 121.855, 80.720 122.733 C 91.614 123.367, 95 122.011, 95 117.015 C 95 114.393, 95.458 113.962, 99.250 113.004 C 111.225 109.981, 125.053 104.218, 130.010 100.183 L 132.500 98.155 129.500 96.925 C 126.397 95.653, 109.030 94.726, 105.500 95.645 M 130.572 103.028 L 126.644 106 134.009 106 L 141.374 106 138.500 103 C 136.919 101.350, 135.373 100.013, 135.063 100.028 C 134.753 100.043, 132.732 101.393, 130.572 103.028 M 125.500 108.910 C 120.424 109.748, 119 110.645, 119 113.008 C 119 115.298, 123.900 119.183, 130.432 122.073 C 135.974 124.524, 136.120 124.424, 138.504 116.568 C 140.584 109.712, 140.479 109.341, 136.250 108.642 C 132.059 107.949, 131.196 107.971, 125.500 108.910 M 141.718 114.665 C 140.854 117.874, 139.853 121.451, 139.493 122.612 C 138.982 124.263, 139.348 124.861, 141.169 125.349 C 144.169 126.152, 149.490 126.177, 150.276 125.391 C 151.001 124.665, 147.594 115.677, 145.071 111.665 L 143.289 108.829 141.718 114.665 M 155.008 127.121 C 153.638 127.667, 149.025 128.022, 144.757 127.909 L 136.997 127.704 134.088 131.719 C 126.998 141.508, 115.733 142.751, 94.702 136.067 C 74.810 129.746, 72.466 130.395, 72.556 142.198 C 72.638 152.897, 72.820 153.168, 78.688 151.355 C 100.533 144.604, 130.992 143.913, 136.539 150.043 C 138.705 152.437, 137.917 154.474, 134.051 156.474 C 129.025 159.072, 121.587 160.035, 99.500 160.945 C 79.828 161.756, 72 162.942, 72 165.113 C 72 166.847, 78.436 169.939, 85.462 171.580 C 94.961 173.799, 112.540 173.830, 120.895 171.642 C 124.412 170.721, 129.477 168.777, 132.150 167.322 C 134.823 165.867, 137.167 164.862, 137.359 165.088 C 137.550 165.315, 139.188 168.544, 140.998 172.264 C 144.256 178.961, 150.646 186, 153.468 186 C 154.272 186, 156.464 184.653, 158.339 183.007 C 170.525 172.308, 172.745 132.305, 161.438 127.154 C 158.489 125.810, 158.297 125.809, 155.008 127.121" stroke="none" fill="black" fill-rule="evenodd"/>
</svg>