<svg xmlns="http://www.w3.org/2000/svg" width="200" height="200" viewBox="0 0 200 200" version="1.1">
	<path d="M 105 8.644 C 103.075 8.886, 94.975 10.225, 87 11.619 C 79.025 13.013, 69.318 14.285, 65.429 14.445 C 57.838 14.757, 51 17.249, 51 19.702 C 51 20.901, 51.793 21.019, 55.250 20.338 C 63.455 18.720, 70.074 19.563, 83.242 23.902 C 95.778 28.033, 99.191 30.263, 97.402 33.158 C 96.365 34.837, 83.210 33.474, 71.585 30.482 C 64.961 28.777, 61.337 28.263, 60.668 28.932 C 59.391 30.209, 59.936 30.410, 74.078 33.902 L 85.500 36.723 79.500 37.329 C 76.200 37.662, 67.425 37.892, 60 37.841 C 43.723 37.728, 38.651 39.150, 39.181 43.675 C 39.733 48.386, 48.553 51.674, 68.500 54.604 L 72.500 55.192 67.908 56.940 C 52.569 62.776, 46.216 73.690, 51.799 84.613 C 53.798 88.526, 63.218 98, 65.108 98 C 67.446 98, 65.620 99.849, 62.750 100.389 C 57.890 101.303, 47.103 106.675, 42.417 110.515 C 40.143 112.378, 37.701 115.308, 36.989 117.026 C 35.799 119.898, 35.894 120.348, 38.160 122.615 C 41.993 126.448, 50.976 127.538, 67.166 126.136 C 78.476 125.156, 80.927 124.631, 83.955 122.540 C 89.058 119.017, 93.695 117.295, 100.275 116.479 C 107.091 115.634, 121.932 117.658, 122.650 119.530 C 122.916 120.223, 122.650 122.585, 122.060 124.778 L 120.986 128.765 98.243 129.273 C 74.237 129.809, 69.705 130.556, 65.901 134.605 C 63.398 137.270, 63.782 140.064, 67.229 144.274 L 69.500 147.049 77.659 145.939 C 85.719 144.842, 119.294 144.955, 120.418 146.082 C 120.737 146.403, 121.285 150.705, 121.635 155.643 C 122.818 172.311, 119.153 173.173, 101 160.496 C 90.510 153.170, 85.546 150.829, 81.279 151.194 C 76.158 151.632, 73.896 155.085, 73.466 163.117 C 73.136 169.292, 73 169.577, 69.312 171.875 C 60.080 177.626, 58.685 181.135, 64.641 183.623 C 67.795 184.941, 74.299 185.062, 113.239 184.528 C 137.965 184.189, 160.488 183.476, 163.289 182.945 C 168.619 181.934, 173 179.672, 173 177.931 C 173 175.713, 167.993 172.163, 157 166.586 C 143.529 159.752, 135.657 154.172, 133.441 149.886 C 132.567 148.196, 132 146.667, 132.179 146.487 C 132.359 146.308, 137.624 145.683, 143.879 145.099 C 157.173 143.857, 161.333 142.075, 161.797 137.422 C 162.016 135.220, 161.233 133.453, 158.797 130.657 C 156.984 128.575, 154.825 126.770, 154 126.647 C 153.175 126.523, 151.661 125.943, 150.635 125.357 C 149.026 124.438, 149.324 124.204, 152.808 123.647 C 160.571 122.405, 165.821 115.615, 168.662 103.144 C 170.707 94.166, 171.739 40.745, 170.075 30 C 168.729 21.308, 166.282 15.645, 163.661 15.159 C 159.266 14.346, 152.621 25.154, 145.954 43.962 L 142.246 54.424 141.520 49.145 C 141.121 46.241, 141.107 39.488, 141.490 34.136 C 142.518 19.777, 140.563 13.924, 133.502 10.220 C 130.482 8.636, 112.831 7.659, 105 8.644 M 93.600 13.123 C 81.847 14.896, 74.406 16.884, 79.206 16.970 C 80.144 16.986, 85.319 19.213, 90.706 21.918 C 96.093 24.623, 106.125 29.532, 113 32.827 C 124.747 38.457, 132 43.663, 132 46.464 C 132 49.636, 128.081 51.246, 119.116 51.758 C 111.070 52.216, 110.105 52.482, 109.585 54.384 C 109.201 55.791, 109.592 56.835, 110.754 57.500 C 114.621 59.714, 121.836 67.972, 123.009 71.526 L 124.257 75.307 119.883 78.904 C 114.975 82.939, 111 86.974, 111 87.921 C 111 88.267, 114.369 91.897, 118.487 95.988 C 124.111 101.573, 126.260 103.140, 127.120 102.280 C 127.749 101.651, 130.788 92.667, 133.871 82.318 C 139.168 64.541, 139.459 63.002, 139.143 54.500 C 138.959 49.550, 138.739 39.571, 138.654 32.324 C 138.480 17.435, 137.372 14.572, 130.906 12.306 C 125.843 10.532, 108.225 10.918, 93.600 13.123 M 159.785 20.206 C 156.430 25.326, 152.003 35.178, 147.653 47.207 C 143.089 59.830, 143.069 59.942, 144.601 64.207 C 147.086 71.127, 147.542 81.852, 145.599 87.702 C 143.628 93.635, 138.630 99.807, 133.605 102.513 C 131.622 103.581, 130 104.926, 130 105.502 C 130 106.079, 133.333 109.861, 137.406 113.907 L 144.812 121.263 150.428 120.798 C 163.534 119.711, 167.107 109.554, 168.473 69.500 C 169.107 50.897, 167.849 28.749, 165.803 22.503 C 164.282 17.863, 161.912 16.959, 159.785 20.206 M 101 31.722 C 101 32.613, 100.294 34.123, 99.431 35.077 C 97.980 36.679, 98.084 36.859, 100.790 37.454 C 104.356 38.237, 108.615 42.520, 109.537 46.250 C 110.200 48.932, 110.395 49, 117.358 48.986 C 125.777 48.970, 129 48.263, 129 46.431 C 129 44.153, 116.628 36.620, 104.750 31.666 C 101.316 30.234, 101 30.239, 101 31.722 M 82.634 39.699 C 82.250 40.084, 73.962 40.447, 64.217 40.507 C 52.460 40.579, 45.495 41.038, 43.512 41.873 L 40.523 43.132 43.012 45.018 C 44.380 46.055, 49.100 47.911, 53.500 49.142 C 64.310 52.166, 85.925 52.416, 96.749 49.643 C 100.736 48.621, 104.673 48.044, 105.499 48.361 C 106.480 48.738, 106.989 48.342, 106.968 47.219 C 106.877 42.315, 100.114 39, 90.199 39 C 86.423 39, 83.019 39.315, 82.634 39.699 M 99.010 51.892 C 95.946 52.745, 97.311 53.706, 102.845 54.591 C 106.625 55.196, 107 55.063, 107 53.128 C 107 51.449, 106.420 51.021, 104.250 51.100 C 102.737 51.155, 100.380 51.511, 99.010 51.892 M 75.500 57.488 C 63.783 60.667, 56.884 65.126, 53.771 71.533 C 51.879 75.430, 51.785 76.339, 52.895 80.045 C 54.384 85.015, 60.320 91.714, 67.077 96.049 C 69.784 97.787, 72 99.734, 72 100.375 C 72 101.017, 69.206 102.073, 65.791 102.722 C 54.300 104.906, 39 114.416, 39 119.374 C 39 124.985, 75.334 125.459, 83.072 119.948 C 92.513 113.226, 103.785 111.939, 121.562 115.552 C 124.524 116.154, 124.657 116.025, 125.678 111.564 C 126.258 109.028, 126.351 106.717, 125.884 106.428 C 125.416 106.139, 123.523 106.186, 121.676 106.533 C 119.829 106.879, 116.334 106.636, 113.909 105.992 C 105.773 103.831, 102.551 98.404, 105.382 91.628 L 106.878 88.048 101.712 83.530 L 96.547 79.011 90.714 84.755 C 83.869 91.497, 84.079 91.600, 79.008 79.019 C 75.290 69.797, 75.207 64.684, 78.766 64.178 C 81.228 63.829, 86.474 66.721, 91.699 71.309 C 93.517 72.905, 95.567 73.995, 96.253 73.730 C 97.698 73.171, 105 61.142, 105 59.320 C 105 56.095, 85.172 54.864, 75.500 57.488 M 105.883 64.250 C 104.697 66.588, 102.436 70.384, 100.859 72.687 L 97.991 76.873 102.746 80.882 C 105.360 83.087, 107.862 84.942, 108.304 85.004 C 108.746 85.065, 111.806 82.618, 115.104 79.564 L 121.100 74.013 119.447 70.530 C 117.781 67.019, 110.829 60, 109.017 60 C 108.480 60, 107.070 61.913, 105.883 64.250 M 137.199 80.214 C 131.860 98.691, 131.569 100, 132.807 100 C 134.890 100, 141.773 90.884, 143.001 86.498 C 144.381 81.568, 143.909 68.509, 142.292 66.892 C 141.672 66.272, 139.851 71.037, 137.199 80.214 M 78.589 69.750 C 78.934 71.263, 80.594 75.557, 82.276 79.293 L 85.336 86.087 89.679 81.825 C 92.067 79.481, 93.904 77.217, 93.760 76.794 C 93.235 75.242, 81.445 67.021, 79.731 67.011 C 78.314 67.002, 78.087 67.548, 78.589 69.750 M 107.430 93.421 C 106.519 97.053, 107.218 99.078, 110.136 101.254 C 112.816 103.253, 122.580 105.033, 121.882 103.395 C 121.354 102.158, 109.469 91, 108.679 91 C 108.326 91, 107.765 92.089, 107.430 93.421 M 128.697 110.750 C 128.466 111.162, 127.985 112.719, 127.629 114.209 C 127.028 116.727, 127.283 116.996, 131.241 118.019 C 133.584 118.624, 136.400 119.366, 137.500 119.668 C 138.828 120.033, 137.833 118.501, 134.538 115.109 C 129.126 109.538, 129.303 109.670, 128.697 110.750 M 125.561 122.750 C 125.200 124.263, 124.671 126.287, 124.385 127.250 C 123.915 128.834, 124.804 129, 133.741 129 C 144.102 129, 148.649 127.606, 145.840 125.290 C 144.839 124.464, 128.543 120, 126.529 120 C 126.358 120, 125.922 121.237, 125.561 122.750 M 144.832 131.559 C 139.986 133.992, 133 140.252, 133 142.162 C 133 143.523, 149.673 142.381, 154.948 140.659 C 157.631 139.784, 158.573 138.876, 158.797 136.948 C 159.091 134.430, 156.299 130.841, 153.702 130.398 C 153.041 130.285, 151.825 129.973, 151 129.705 C 150.175 129.436, 147.399 130.270, 144.832 131.559 M 75 133.360 C 71.975 134.016, 68.938 134.905, 68.250 135.336 C 66.509 136.425, 66.728 139.095, 68.772 141.711 C 70.452 143.859, 70.780 143.893, 80.500 142.911 C 86 142.355, 97.025 142.193, 105 142.550 L 119.500 143.200 119.553 137.600 L 119.606 132 100.053 132.084 C 88.995 132.131, 78.111 132.686, 75 133.360 M 122.441 134.379 C 122.113 135.688, 121.991 138.050, 122.172 139.629 C 122.459 142.140, 122.959 142.538, 126.165 142.805 C 129.054 143.046, 129.959 142.706, 130.436 141.201 C 130.770 140.150, 132.683 137.650, 134.688 135.645 L 138.333 132 130.686 132 C 123.466 132, 123.005 132.133, 122.441 134.379 M 124.404 154.839 C 125.213 162.665, 125.099 164.127, 123.409 167.589 C 120.016 174.540, 114.514 173.366, 98.798 162.336 C 89.672 155.931, 82.688 152.647, 80.004 153.499 C 77.653 154.245, 76.013 159.579, 76.006 166.502 C 76 171.398, 75.906 171.553, 71.556 173.861 C 65.798 176.916, 63.072 179.809, 64.892 180.933 C 67.771 182.712, 80.393 183.019, 105.334 181.915 C 119.725 181.279, 135.699 181.027, 140.832 181.357 C 150.043 181.949, 162.819 180.780, 167.791 178.889 C 171.324 177.546, 170.277 176.721, 154 168.027 C 138.141 159.556, 133.056 155.669, 130.541 150.091 C 129.067 146.823, 128.173 146, 126.093 146 L 123.489 146 124.404 154.839" stroke="none" fill="black" fill-rule="evenodd"/>
</svg>