<svg xmlns="http://www.w3.org/2000/svg" width="200" height="200" viewBox="0 0 200 200" version="1.1">
	<path d="M 89 9.117 C 85.975 9.593, 80.341 9.719, 76.479 9.396 C 70.486 8.894, 69.111 9.090, 67.079 10.735 C 65.248 12.218, 64.848 13.256, 65.344 15.235 C 66.220 18.726, 73.424 27.682, 76.018 28.506 C 77.454 28.962, 78.019 29.855, 77.808 31.336 C 77.515 33.393, 76.858 33.528, 64.500 34.076 C 46.350 34.881, 36.644 38.023, 38.374 42.532 C 39.243 44.796, 45.020 46.919, 56.219 49.090 C 67.930 51.360, 69 51.408, 69 49.661 C 69 48.752, 66.350 47.918, 60.750 47.065 C 50.853 45.557, 41.722 42.880, 41.771 41.500 C 41.838 39.590, 49.574 37.824, 62.721 36.719 C 69.992 36.108, 76.229 35.896, 76.581 36.248 C 76.933 36.600, 76.885 40.851, 76.474 45.694 L 75.727 54.500 70.614 58.545 C 64.624 63.282, 59.345 71.516, 58.444 77.525 C 57.261 85.414, 62.483 93.181, 70.956 96.134 C 73.794 97.124, 74 97.530, 74 102.134 L 74 107.072 64.750 106.516 C 59.663 106.210, 52.125 105.764, 48 105.523 C 43.875 105.282, 37.181 105.470, 33.125 105.941 C 21.464 107.293, 17.672 111.497, 21.917 118.366 L 23.978 121.700 37.135 122.394 C 44.372 122.776, 55.515 123.740, 61.897 124.537 C 68.279 125.333, 73.785 125.988, 74.133 125.992 C 74.482 125.996, 74.974 127.083, 75.227 128.406 C 75.773 131.264, 74.248 131.716, 60.825 132.671 C 56.054 133.011, 51.572 133.646, 50.865 134.083 C 48.340 135.644, 52.695 160.211, 57.991 174.282 C 62.423 186.055, 70.121 192.818, 77.511 191.432 C 79.504 191.058, 83.241 189.108, 85.817 187.099 C 90.126 183.737, 90.859 183.499, 95 184.123 C 112.861 186.814, 128.148 186.006, 136.099 181.950 C 146.552 176.617, 151.401 162.441, 149.545 142.640 L 148.829 135 142.915 135 C 139.662 135, 137 134.726, 137 134.392 C 137 134.057, 139.223 130.990, 141.940 127.576 L 146.879 121.368 154.683 122.204 C 158.974 122.664, 163.930 123.439, 165.694 123.926 C 168.694 124.754, 169.199 124.495, 173.465 119.934 C 178.798 114.233, 180.444 110.698, 179.012 108.022 C 177.922 105.985, 175.014 104.822, 157.992 99.615 C 151.663 97.679, 143.404 94.698, 139.639 92.990 C 133.305 90.118, 132.909 89.758, 134.342 88.175 C 136.942 85.302, 139.956 77.700, 139.962 74 C 139.969 69.299, 136.404 63.291, 131.296 59.395 C 126.115 55.444, 115.005 51.638, 109.283 51.854 C 104.250 52.045, 103.968 51.585, 107.878 49.563 C 110.252 48.335, 113.964 48.180, 129.128 48.672 C 149.482 49.333, 153.904 48.500, 156.146 43.578 C 157.116 41.451, 156.913 40.306, 154.860 36.316 C 152.708 32.135, 152.016 31.560, 148.961 31.411 C 147.058 31.318, 139.877 29.241, 133.005 26.795 L 120.509 22.347 119.881 18.480 C 118.462 9.756, 106.997 6.280, 89 9.117 M 91.690 11.693 C 91.377 12.200, 96.381 14.315, 102.810 16.395 C 109.240 18.474, 115.097 20.410, 115.827 20.697 C 118.378 21.699, 116.629 15.793, 113.738 13.645 C 111.540 12.011, 109.064 11.508, 101.617 11.182 C 96.470 10.957, 92.002 11.187, 91.690 11.693 M 68.359 13.508 C 67.428 15.934, 74.832 26, 77.548 26 C 78.727 26, 80.330 14.343, 79.366 12.783 C 79.100 12.352, 76.644 12, 73.910 12 C 70.401 12, 68.767 12.444, 68.359 13.508 M 82.599 14.857 C 82.341 15.761, 81.989 18.975, 81.815 22 L 81.500 27.500 87.500 28.776 C 90.800 29.478, 96.129 29.818, 99.343 29.532 C 105.143 29.015, 113.158 26.171, 114.378 24.198 C 114.984 23.218, 105.600 19.773, 89.783 15.169 C 83.637 13.380, 83.027 13.354, 82.599 14.857 M 114.099 27.588 C 112.228 28.917, 108.853 30.516, 106.599 31.142 C 101.742 32.490, 88.812 32.491, 84.342 31.144 C 81.697 30.347, 81.109 30.474, 80.730 31.924 C 80.351 33.374, 81.444 33.853, 87.430 34.858 C 93.380 35.858, 95.795 35.805, 101.792 34.544 C 112.414 32.309, 130.582 30.078, 133.001 30.710 C 134.440 31.087, 135.009 31.920, 134.802 33.348 C 134.587 34.835, 131.947 36.777, 125.616 40.107 C 114.885 45.751, 115.294 46.041, 134.154 46.154 C 151.727 46.260, 156.474 44.275, 152.917 38.309 C 151.814 36.460, 147.951 34.724, 135.500 30.486 C 126.700 27.490, 119.050 25.069, 118.500 25.105 C 117.950 25.141, 115.970 26.259, 114.099 27.588 M 123.500 33.686 C 121.850 33.898, 114.200 35.189, 106.500 36.556 C 95.541 38.500, 91.741 38.818, 89.007 38.020 C 87.085 37.459, 84.334 37, 82.893 37 C 80.533 37, 80.209 37.462, 79.636 41.640 C 79.286 44.191, 79 47.768, 79 49.589 L 79 52.898 82.468 51.449 C 86.519 49.756, 95.266 49.537, 98.105 51.056 C 99.703 51.911, 100.677 51.608, 103.230 49.460 L 106.383 46.807 95.941 47.208 C 90.199 47.429, 84.881 47.810, 84.125 48.055 C 83.369 48.300, 82.552 47.963, 82.310 47.306 C 81.507 45.126, 89.913 43.730, 100.436 44.297 L 110.372 44.832 119.936 39.960 C 134.226 32.680, 134.456 32.276, 123.500 33.686 M 81.851 54.618 L 78.201 56.134 77.516 70.317 C 77.139 78.118, 76.981 86.959, 77.165 89.963 L 77.500 95.427 83 96.588 C 86.025 97.227, 90.296 98.532, 92.492 99.489 C 98.762 102.222, 110.095 101.212, 118.258 97.194 C 121.771 95.464, 125.407 93.208, 126.337 92.181 C 127.955 90.393, 127.735 90.119, 121.264 85.848 C 115.006 81.717, 114.313 81.483, 112 82.725 C 107.118 85.345, 93.099 81.345, 86.067 75.325 C 78.738 69.052, 81.694 65, 93.600 65 C 98.804 65, 101.102 65.417, 102.026 66.531 C 102.724 67.373, 105.539 69.939, 108.280 72.234 C 112.760 75.985, 113.189 76.159, 112.527 73.954 C 111.091 69.172, 102.697 56.786, 99.621 54.910 C 95.792 52.576, 87.113 52.433, 81.851 54.618 M 107.250 54.706 C 106.013 54.944, 105 55.319, 105 55.539 C 105 55.758, 107.255 59.393, 110.012 63.615 C 112.826 67.927, 115.299 73.019, 115.653 75.232 C 116.215 78.745, 117.025 79.665, 123.125 83.722 C 130.906 88.896, 131.852 88.721, 135.137 81.500 C 140.208 70.351, 134.283 61.418, 118.490 56.403 C 114.329 55.081, 110.603 54.061, 110.212 54.136 C 109.820 54.211, 108.487 54.467, 107.250 54.706 M 69.052 63.560 C 61.155 72.126, 59.014 80.782, 63.250 87.015 C 65.234 89.935, 72.543 94.863, 73.418 93.871 C 74.299 92.873, 75.066 59, 74.208 59 C 73.684 59, 71.363 61.052, 69.052 63.560 M 88.512 67.828 C 86.869 68.206, 85.387 69.227, 85.220 70.097 C 84.351 74.607, 109.024 84.007, 111.445 80.088 C 111.755 79.587, 109.098 76.621, 105.541 73.498 C 98.745 67.532, 95.088 66.314, 88.512 67.828 M 128.496 94.004 C 127.463 95.146, 123.241 97.749, 119.113 99.790 C 112.223 103.196, 110.907 103.500, 103.054 103.500 C 96.575 103.500, 93.287 102.985, 89.500 101.379 C 86.750 100.212, 82.813 99.003, 80.750 98.692 L 77 98.126 77 102.563 L 77 107 84.250 106.994 C 88.237 106.991, 93.204 106.516, 95.287 105.937 C 98.244 105.116, 100.606 105.258, 106.066 106.585 C 115.280 108.825, 124.575 108.091, 139.552 103.943 L 151.162 100.727 141.831 96.806 C 136.699 94.650, 132.022 92.671, 131.437 92.408 C 130.852 92.145, 129.529 92.863, 128.496 94.004 M 142.017 106.104 C 127.238 110.657, 116.795 111.726, 107.213 109.667 C 101.041 108.341, 98.235 108.197, 94.048 108.991 C 91.122 109.546, 86.088 110, 82.864 110 L 77 110 77 114.935 C 77 121.310, 78.417 125, 80.864 125 C 81.917 125, 83.826 125.848, 85.107 126.885 C 87.060 128.467, 87.228 129.021, 86.148 130.321 C 85.441 131.174, 83.543 132.161, 81.931 132.515 C 78.424 133.285, 78.381 133.860, 81.006 144.810 C 87.191 170.607, 99.828 177.586, 115.451 163.834 C 121.751 158.289, 124.966 152, 121.500 152 C 119.191 152, 119.688 151.005, 125.493 144 L 130.880 137.500 125.690 136.189 C 122.836 135.468, 119.406 133.801, 118.069 132.485 C 115.964 130.413, 115.790 129.755, 116.779 127.587 C 118.811 123.127, 130.219 119, 140.518 119 C 144.691 119, 145.152 118.708, 148.807 113.750 C 152.630 108.563, 155 104.666, 155 103.566 C 155 102.499, 151.489 103.185, 142.017 106.104 M 155.803 107.764 C 154.319 110.369, 152.137 113.963, 150.954 115.750 L 148.804 119 152.152 119.021 C 153.993 119.032, 158.321 119.633, 161.768 120.355 L 168.036 121.669 172.586 116.805 C 175.152 114.062, 176.997 111.191, 176.818 110.221 C 176.603 109.057, 173.911 107.631, 168.500 105.815 C 164.100 104.339, 160.050 103.108, 159.500 103.080 C 158.950 103.052, 157.286 105.160, 155.803 107.764 M 31 108.626 C 25.650 109.625, 23 111.216, 23 113.430 C 23 118.191, 24.507 118.701, 42.234 119.938 C 51.438 120.580, 62.623 121.688, 67.090 122.398 L 75.211 123.691 74.617 120.095 C 74.290 118.118, 74.017 115.068, 74.011 113.317 C 74.004 111.150, 73.442 109.975, 72.250 109.635 C 69.794 108.934, 34.039 108.059, 31 108.626 M 135.500 122.146 C 127.776 123.130, 119.665 126.602, 119.201 129.122 C 118.840 131.086, 125.461 134, 130.283 134 C 133.013 134, 134.168 133.170, 137.585 128.750 C 141.542 123.632, 143.434 120.871, 142.809 121.126 C 142.639 121.196, 139.350 121.655, 135.500 122.146 M 78 128.393 C 78 129.440, 78.870 130, 80.500 130 C 81.875 130, 83 129.550, 83 129 C 83 128.450, 82.587 128, 82.082 128 C 81.577 128, 80.452 127.727, 79.582 127.393 C 78.544 126.995, 78 127.338, 78 128.393 M 62.132 135.258 L 52.764 136.229 53.441 143.096 C 54.429 153.122, 58.598 169.371, 62.024 176.551 C 65.411 183.648, 70.832 189, 74.634 189 C 78.122 189, 83.164 186.482, 86.366 183.140 L 89.017 180.373 98.759 181.758 C 110.933 183.489, 127 182.936, 132.500 180.596 C 142.745 176.237, 146.228 169.363, 146.737 152.500 C 146.937 145.900, 146.740 140.005, 146.300 139.400 C 145.860 138.796, 143.002 138.050, 139.949 137.743 L 134.398 137.186 129.806 142.925 C 126.223 147.402, 125.324 149.245, 125.718 151.304 C 126.683 156.351, 118.883 166.418, 110.737 170.640 C 94.074 179.275, 81.628 167.300, 76.553 137.750 C 75.826 133.515, 77 133.717, 62.132 135.258" stroke="none" fill="black" fill-rule="evenodd"/>
</svg>