<svg xmlns="http://www.w3.org/2000/svg" width="200" height="200" viewBox="0 0 200 200" version="1.1">
	<path d="M 68.030 6.464 C 67.298 7.345, 66.492 10.227, 66.239 12.868 C 65.596 19.561, 67.765 23.286, 74.530 27.104 C 81.926 31.278, 81.828 33.146, 74.250 32.414 C 70.613 32.063, 64.458 32.570, 57.500 33.795 C 44.240 36.131, 38.704 38.225, 39.185 40.724 C 39.928 44.581, 48.794 46.409, 72.500 47.591 C 80.849 48.008, 86.797 48.736, 87.235 49.395 C 89.047 52.121, 87.775 52.761, 79.709 53.184 C 70.228 53.682, 63.262 56.428, 60.393 60.799 C 56.274 67.073, 59.728 78.597, 68.187 86.802 C 72.519 91.006, 72.768 91.995, 70.095 94.414 C 67.695 96.586, 61.371 98.498, 48 101.097 C 26.923 105.192, 22.027 107.359, 23.483 111.945 C 24.200 114.205, 28.988 116.959, 38.254 120.443 C 43.040 122.242, 45.183 122.518, 49.815 121.933 C 52.942 121.539, 57.996 120.949, 61.047 120.623 L 66.595 120.030 66.207 123.350 C 65.822 126.646, 65.769 126.677, 58.526 127.803 C 49.918 129.142, 46.251 130.632, 45.464 133.114 C 44.474 136.234, 46.678 138.618, 55.981 144.488 C 60.941 147.618, 65 150.760, 65 151.471 C 65 153.326, 58.108 154.801, 45.675 155.604 L 34.859 156.304 35.469 158.732 C 37.104 165.248, 42.741 174.876, 48.014 180.161 C 57.227 189.395, 64.053 190.573, 87.317 186.943 C 114.327 182.730, 127.187 184.897, 140.511 195.908 C 147.570 201.741, 149.621 200.969, 143.135 194.921 C 129.806 182.489, 115.212 179.645, 87.616 184.099 C 66.131 187.568, 57.437 186.167, 49.272 177.920 C 45.517 174.128, 38.080 160.587, 39.159 159.507 C 39.450 159.217, 44.530 158.520, 50.448 157.959 C 62.595 156.808, 68 155.048, 68 152.242 C 68 149.361, 66.185 147.649, 56.750 141.628 C 51.937 138.557, 48 135.395, 48 134.600 C 48 132.737, 52.713 131.224, 61.500 130.264 L 68.500 129.500 69 125.009 C 69.358 121.790, 69.992 120.425, 71.235 120.188 C 73.509 119.757, 82.074 127.861, 92.699 140.500 L 101.106 150.500 92.478 151.740 C 82.287 153.205, 75.359 156.365, 72.250 160.966 C 69.397 165.187, 69.388 168.458, 72.223 170.443 C 75.734 172.903, 79.455 172.341, 95.162 166.977 L 109.871 161.955 118.279 170.477 C 127.275 179.595, 130.186 180.880, 132.140 176.592 C 133.183 174.303, 132.788 170.396, 130.322 158.629 L 129.721 155.759 136.828 156.160 C 147.930 156.787, 152.817 161.744, 153.726 173.296 C 154.171 178.957, 152.229 193.943, 150.492 198.250 C 150 199.470, 150.258 200, 151.346 200 C 154.623 200, 157.980 178.505, 156.137 169.326 C 154.404 160.701, 148.352 154.188, 141.800 153.898 C 140.535 153.842, 143.301 153.160, 147.947 152.381 C 157.929 150.709, 166.040 147.240, 170.082 142.912 C 173.902 138.823, 173.763 138.039, 169.391 139.025 C 157.586 141.687, 127.328 140.637, 124.060 137.451 C 121.803 135.253, 123.012 135.035, 130.794 136.240 C 138.380 137.414, 140.620 136.780, 139.470 133.783 C 139.143 132.930, 135.301 129.658, 130.933 126.513 C 126.565 123.368, 122.804 120.492, 122.575 120.121 C 122.346 119.751, 135.437 119.625, 151.667 119.843 L 181.175 120.238 179.624 117.239 C 175.369 109.011, 169.044 104.192, 153.662 97.455 C 139.433 91.224, 135.461 88.217, 132.163 81.181 C 129.773 76.083, 129.500 74.345, 129.500 64.250 C 129.500 56.539, 129.144 53, 128.367 53 C 126.744 53, 125.757 66.378, 126.892 73 C 128.108 80.091, 129.116 82.562, 132.906 87.749 C 135.484 91.277, 138.005 92.941, 147.756 97.550 C 154.215 100.603, 161.068 103.866, 162.984 104.801 C 164.900 105.735, 168.725 108.750, 171.484 111.500 L 176.500 116.500 150.713 116.767 C 136.530 116.914, 122.885 116.689, 120.391 116.267 L 115.855 115.500 112.436 106.500 C 110.156 100.500, 108.664 94.333, 107.959 88 C 107.378 82.775, 106.684 77.759, 106.416 76.853 C 106.092 75.755, 107.108 74.478, 109.467 73.020 C 115.833 69.086, 115.498 62.548, 108.727 58.580 C 106.387 57.209, 101.621 55.422, 98.135 54.609 C 90.985 52.941, 91.466 53.210, 90.603 50.397 C 90.003 48.441, 90.433 48.248, 96.729 47.654 C 100.453 47.302, 105.300 47.025, 107.500 47.039 C 111.198 47.062, 111.356 47.172, 109.597 48.504 C 107.987 49.723, 107.927 50.035, 109.210 50.527 C 110.044 50.847, 112.993 49.773, 115.762 48.141 C 120.727 45.213, 121.029 45.167, 137.696 44.836 C 151.810 44.555, 155.040 44.208, 157.297 42.727 C 164.503 38, 156.998 31.791, 134 23.454 C 128.225 21.360, 122.600 18.879, 121.500 17.941 C 116.621 13.777, 108.333 11.106, 91 8.111 C 71.933 4.816, 69.540 4.644, 68.030 6.464 M 69.533 9.947 C 68.621 11.422, 68.559 16.034, 69.414 18.729 C 70.110 20.924, 75.695 25.638, 76.566 24.767 C 76.972 24.361, 71.495 10.162, 70.580 9.246 C 70.371 9.038, 69.900 9.353, 69.533 9.947 M 77.495 18.128 C 79.380 22.598, 81.203 26.536, 81.546 26.878 C 81.889 27.220, 88.544 27.500, 96.335 27.500 C 108.807 27.500, 111.068 27.238, 115.250 25.306 C 117.862 24.100, 120 22.731, 120 22.265 C 120 21.799, 116.963 20.589, 113.250 19.576 C 99.423 15.803, 76.459 10.016, 75.283 10.008 C 74.511 10.003, 75.318 12.968, 77.495 18.128 M 105.813 14.683 C 106.534 14.972, 107.397 14.936, 107.729 14.604 C 108.061 14.272, 107.471 14.036, 106.417 14.079 C 105.252 14.127, 105.015 14.364, 105.813 14.683 M 120.099 25.565 C 114.754 29.399, 109.510 30.457, 95.751 30.479 C 85.491 30.496, 83.002 30.774, 83.001 31.902 C 83 33.341, 88.466 33.261, 121.041 31.345 C 130.458 30.791, 131.779 30.922, 133.431 32.574 C 135.230 34.373, 135.168 34.524, 131.120 38.115 L 126.960 41.807 132.082 42.511 C 137.615 43.272, 151 42.331, 154.711 40.920 C 160.392 38.760, 155.150 34.606, 138.500 28.074 C 124.981 22.770, 124.152 22.657, 120.099 25.565 M 100.113 35.118 C 92.200 35.570, 85.567 36.099, 85.374 36.293 C 85.180 36.487, 85.760 38.525, 86.662 40.823 C 88.298 44.986, 88.321 45, 93.546 45 C 96.429 45, 103.448 44.524, 109.144 43.942 C 119.613 42.873, 123.193 41.518, 130 36.052 L 132.500 34.044 123.500 34.169 C 118.550 34.238, 108.026 34.665, 100.113 35.118 M 57.500 36.501 C 47.086 38.412, 41.637 40.045, 42.623 40.959 C 44.181 42.405, 56.481 44.014, 71.036 44.676 L 85.237 45.322 84.492 42.911 C 84.082 41.585, 83.117 39.263, 82.348 37.750 C 80.985 35.071, 80.736 35.003, 72.724 35.108 C 68.201 35.168, 61.350 35.794, 57.500 36.501 M 72 56.700 C 64.379 59.457, 61 63.006, 61 68.254 C 61 71.930, 65.718 80.491, 70.579 85.637 C 75.582 90.935, 75.967 92.743, 72.736 95.778 C 69.247 99.056, 64.783 100.540, 48 104 C 31.886 107.322, 26 109.176, 26 110.929 C 26 112.179, 32.553 115.610, 39.514 118.005 C 44.191 119.614, 45.595 119.648, 56.062 118.410 C 62.353 117.665, 77.523 116.746, 89.774 116.368 L 112.048 115.680 109.963 113.461 C 108.817 112.241, 107.152 111.300, 106.263 111.371 C 105.194 111.456, 104.001 109.807, 102.740 106.500 C 98.953 96.568, 98.606 94.230, 100.286 89.954 C 101.675 86.419, 101.680 85.595, 100.336 82.174 L 98.833 78.348 90.762 80.686 C 86.323 81.972, 82.543 82.877, 82.363 82.697 C 81.837 82.170, 88.841 68.017, 90.963 65.320 C 92.796 62.990, 92.812 62.674, 91.265 59.429 L 89.630 56 81.565 56.079 C 77.129 56.122, 72.825 56.402, 72 56.700 M 93 56.672 C 93 58.383, 95.386 61, 96.946 61 C 98.897 61, 103.989 66.277, 104.015 68.327 C 104.024 68.972, 104.417 70.109, 104.888 70.853 C 105.966 72.554, 109.435 70.925, 111.012 67.977 C 112.538 65.127, 110.831 62.578, 105.767 60.145 C 101.534 58.112, 93 55.790, 93 56.672 M 98.015 69.037 C 99.107 71.807, 100 74.268, 100 74.506 C 100 74.743, 100.640 74.692, 101.421 74.392 C 102.557 73.956, 102.629 73.210, 101.780 70.673 C 100.644 67.284, 98.223 64, 96.860 64 C 96.403 64, 96.923 66.267, 98.015 69.037 M 90.127 71.914 C 88.301 75.339, 86.963 78.284, 87.154 78.458 C 87.344 78.633, 89.813 78.039, 92.640 77.138 L 97.779 75.500 95.613 70.593 L 93.446 65.686 90.127 71.914 M 102.736 81.011 C 104.623 85.814, 105.152 85.711, 104.338 80.697 C 104.007 78.657, 103.161 77, 102.450 77 C 101.446 77, 101.509 77.886, 102.736 81.011 M 103.699 94.500 C 103.980 96.700, 104.572 99.850, 105.015 101.500 C 105.792 104.397, 105.821 104.363, 105.865 100.500 C 105.890 98.300, 105.297 95.150, 104.549 93.500 L 103.188 90.500 103.699 94.500 M 108.570 106.887 C 108.269 107.374, 108.657 108.300, 109.432 108.944 C 110.585 109.900, 110.744 109.738, 110.305 108.057 C 109.711 105.786, 109.386 105.567, 108.570 106.887 M 83.606 126.227 C 87.450 130.227, 93.858 137.438, 97.847 142.250 L 105.100 151 115.050 151 C 120.522 151, 125 150.855, 125 150.678 C 125 150.501, 124.282 148.249, 123.404 145.673 C 122.296 142.420, 121.151 140.841, 119.654 140.503 C 118.469 140.235, 115.250 139.548, 112.500 138.976 C 104.656 137.346, 92.249 133.022, 89.857 131.085 C 88.470 129.962, 87.973 128.852, 88.486 128.023 C 89.493 126.393, 103.805 127.270, 111.953 129.460 C 114.953 130.267, 117.605 130.729, 117.846 130.487 C 118.088 130.245, 117.385 127.674, 116.283 124.774 L 114.280 119.500 95.449 119.227 L 76.618 118.954 83.606 126.227 M 118.518 123.057 C 121.051 131.037, 121.744 131.805, 127.488 132.998 C 136.653 134.900, 136.831 133.940, 128.410 128 C 117.433 120.257, 117.666 120.373, 118.518 123.057 M 95.162 130.936 C 96.075 131.521, 101.025 133.083, 106.162 134.407 C 121.324 138.315, 120.881 138.263, 120.311 136.083 C 119.936 134.646, 118.043 133.773, 112.656 132.552 C 103.280 130.426, 92.865 129.464, 95.162 130.936 M 125 141.489 C 125 141.574, 125.730 143.787, 126.623 146.406 L 128.245 151.168 137.873 150.510 C 148.813 149.763, 157.314 147.917, 162.762 145.108 L 166.500 143.180 151.500 143.114 C 143.250 143.078, 133.912 142.663, 130.750 142.191 C 127.588 141.720, 125 141.404, 125 141.489 M 87.393 155.410 C 80.917 156.981, 75.921 159.887, 74.093 163.143 C 72.083 166.724, 73.252 169, 77.102 169 C 80.608 169, 108 160.188, 108 159.060 C 108 158.669, 106.958 157.370, 105.686 156.174 C 102.989 153.641, 95.901 153.345, 87.393 155.410 M 109 156 C 110.303 158.434, 110.714 158.436, 119.500 156.034 L 126.500 154.120 117.215 154.060 C 108.231 154.002, 107.964 154.065, 109 156 M 119.750 158.707 C 116.588 159.537, 114 160.768, 114 161.444 C 114 162.943, 127.368 176, 128.903 176 C 130.227 176, 130.325 170.812, 129.091 166 C 128.598 164.075, 127.917 161.262, 127.578 159.750 C 127.239 158.238, 126.633 157.045, 126.231 157.099 C 125.829 157.154, 122.912 157.877, 119.750 158.707" stroke="none" fill="black" fill-rule="evenodd"/>
</svg>