<svg xmlns="http://www.w3.org/2000/svg" width="200" height="200" viewBox="0 0 200 200" version="1.1">
	<path d="M 100.313 5.187 C 97.059 6.042, 93 10.176, 93 12.635 C 93 14.480, 92.367 14.411, 80.380 11.258 C 70.846 8.750, 69.729 8.643, 67.326 10.008 C 57.239 15.735, 65.595 24.720, 86.500 30.627 C 92.373 32.286, 92.436 32.341, 89.500 33.230 C 87.821 33.739, 75.823 33.885, 62.250 33.561 L 38 32.983 38 35.280 C 38 39.190, 42.284 46.330, 45.862 48.384 C 50.656 51.137, 61.325 51.550, 76.599 49.575 C 83.694 48.658, 90.737 47.667, 92.250 47.374 C 94.314 46.974, 95 47.235, 95 48.421 C 95 49.584, 93.994 50, 91.182 50 C 83.047 50, 71.579 54.675, 64.890 60.718 C 59.950 65.181, 58 68.799, 58 73.500 C 58 78.310, 59.991 81.886, 65.185 86.402 C 73.151 93.330, 75.058 95.382, 75.625 97.640 C 77.080 103.439, 72.117 104.938, 48.139 105.942 C 27.279 106.816, 23.369 107.683, 22.373 111.652 C 21.667 114.463, 24.431 119.494, 28.241 122.334 C 30.945 124.349, 31.369 124.360, 59.241 123.146 C 74.784 122.469, 92.563 121.640, 98.750 121.305 L 110 120.695 110 126.301 C 110 138.746, 104.653 141.121, 93.358 133.694 C 88.530 130.520, 88.409 130.498, 73.885 130.180 C 56.363 129.796, 52 130.932, 52 135.876 C 52 141.230, 61.954 147.613, 80.748 154.312 L 89.996 157.608 82.960 159.874 C 65.183 165.599, 49 176.543, 49 182.840 C 49 186.827, 51.283 188.393, 56.970 188.307 C 65.071 188.185, 80.246 182.008, 93.939 173.258 C 100.729 168.920, 103.249 169.094, 118.500 174.958 C 124.550 177.285, 134.150 180.971, 139.833 183.150 C 152.121 187.861, 157.316 188.085, 157.800 183.924 C 158.148 180.928, 153.821 174.070, 145.911 165.085 C 141.023 159.532, 139.884 158.813, 130.566 155.404 C 116.340 150.200, 109.767 147.187, 110.401 146.160 C 110.702 145.673, 118.723 145.051, 128.224 144.779 C 146.372 144.258, 151.807 143.098, 153.835 139.309 C 154.999 137.133, 154.052 134.949, 150.013 130.500 C 144.778 124.733, 145.145 124.002, 153.281 123.984 C 163.940 123.961, 171.879 121.819, 175.237 118.060 C 178.663 114.227, 178.683 112.965, 175.381 109.041 C 172.210 105.272, 168.775 103.406, 162.364 101.969 C 157.009 100.769, 141.140 100.565, 134.054 101.604 L 129.500 102.272 135.763 97.541 C 142.699 92.303, 147 86.014, 147 81.112 C 147 73.999, 142.152 69.123, 125.500 59.489 C 114.612 53.189, 112.345 51.512, 110.791 48.609 C 109.823 46.801, 110.080 46.728, 115.493 47.287 C 118.643 47.612, 123.401 48.663, 126.067 49.621 C 130.761 51.309, 131.265 51.295, 141.973 49.183 C 171.669 43.324, 168.427 35.842, 131.500 25.012 L 124.500 22.959 124.835 18.148 L 125.170 13.337 118.283 9.718 C 110.097 5.417, 104.657 4.045, 100.313 5.187 M 98.870 8.888 C 95.590 11.468, 94.580 14.742, 96.853 15.427 C 103.253 17.357, 121.316 22.011, 121.518 21.782 C 121.655 21.627, 122.065 20.104, 122.430 18.398 C 123.074 15.390, 122.887 15.189, 116.228 11.689 C 107.163 6.926, 102.352 6.149, 98.870 8.888 M 66.527 13.616 C 64.266 15.877, 66.249 18.696, 72.594 22.243 C 76.684 24.530, 89.098 29, 91.358 29 C 91.711 29, 92 26.317, 92 23.039 L 92 17.077 88.250 16.099 C 69.936 11.323, 68.934 11.208, 66.527 13.616 M 94.629 19.524 C 94.308 20.361, 94.321 23.061, 94.658 25.524 L 95.272 30 101.886 29.994 C 105.524 29.991, 110.096 29.546, 112.046 29.004 C 116.002 27.905, 119.802 25.469, 118.927 24.593 C 118.518 24.185, 96.610 18.062, 95.357 18.006 C 95.278 18.003, 94.951 18.686, 94.629 19.524 M 121.436 27.104 C 121.060 27.711, 118.896 29.052, 116.627 30.082 C 111.560 32.383, 113.287 32.523, 126.244 30.861 C 135.591 29.662, 136.093 29.073, 129.384 27.169 C 124.247 25.710, 122.307 25.694, 121.436 27.104 M 138 31.744 C 138 32.297, 133.980 34.153, 129.068 35.868 C 124.155 37.584, 118.455 39.979, 116.401 41.191 L 112.667 43.394 120.083 45.419 C 128.960 47.843, 137.037 47.868, 146.500 45.499 C 154.841 43.411, 159.256 41.323, 158.782 39.691 C 157.911 36.694, 138 29.079, 138 31.744 M 118.500 34.507 C 117.950 34.699, 112.662 35.157, 106.750 35.525 C 96.362 36.170, 96 36.271, 96 38.514 C 96 43.282, 96.889 44, 102.793 44 C 107.101 44, 108.885 43.517, 110.629 41.879 C 111.871 40.712, 115.500 38.485, 118.693 36.929 C 123.011 34.825, 123.859 34.107, 122 34.129 C 120.625 34.145, 119.050 34.315, 118.500 34.507 M 41.004 37.250 C 41.012 40.045, 45.253 45.208, 48.737 46.663 C 53.010 48.449, 66.631 48.151, 83.829 45.896 L 94.158 44.542 93.579 41.646 C 93.261 40.053, 93 38.131, 93 37.375 C 93 36.244, 88.394 36, 67 36 C 46.865 36, 41.001 36.282, 41.004 37.250 M 101.302 46.739 C 98.142 47.018, 97.242 47.467, 97.659 48.555 C 97.964 49.350, 99.305 50, 100.639 50 C 101.973 50, 104.587 50.636, 106.448 51.414 L 109.831 52.827 108.515 49.697 C 107.042 46.196, 107.114 46.225, 101.302 46.739 M 87.500 53.039 C 76.844 55.224, 66.016 61.317, 62.642 67.029 C 58.562 73.936, 61.022 80.220, 70.841 87.973 C 79.771 95.024, 81.023 101.868, 74.043 105.478 C 70.505 107.308, 55.616 108.935, 42 108.980 C 25.469 109.034, 21.978 111.255, 27.712 118.070 L 30.424 121.293 49.462 120.635 C 59.933 120.273, 77.162 119.689, 87.750 119.337 C 98.338 118.985, 107 118.598, 107 118.477 C 107 118.356, 103.206 114.463, 98.569 109.826 C 90.499 101.756, 88.106 97.773, 89.361 94.502 C 90.044 92.723, 97.391 92.438, 101.574 94.028 C 103.061 94.593, 104.479 94.855, 104.725 94.609 C 104.971 94.362, 104.413 90.750, 103.486 86.581 L 101.799 79 97.650 78.996 C 91.794 78.991, 87 75.888, 87 72.104 C 87 68.558, 91.885 64, 95.685 64 C 97.804 64, 98.129 63.633, 97.677 61.750 C 97.380 60.513, 96.831 57.813, 96.457 55.750 C 95.713 51.645, 95.143 51.472, 87.500 53.039 M 99.024 53.798 C 99.101 59.099, 101.294 64.364, 104.863 67.807 C 106.967 69.838, 109.106 72.272, 109.616 73.216 C 110.244 74.381, 111.259 74.745, 112.771 74.350 C 114.759 73.830, 115 73.128, 115 67.869 C 115 62.603, 114.651 61.593, 111.750 58.450 C 107.787 54.157, 98.983 50.939, 99.024 53.798 M 116.097 59.690 C 119.743 66.842, 118.114 77, 113.322 77 C 112.353 77, 112.003 77.566, 112.374 78.532 C 113.485 81.429, 115.863 91.506, 116.527 96.133 C 117.309 101.579, 120.431 103.882, 124.307 101.872 C 129.877 98.982, 139.232 91.553, 141.497 88.220 C 147.179 79.858, 143.798 73.482, 129.105 64.852 C 124.372 62.072, 119.081 58.933, 117.347 57.877 L 114.193 55.956 116.097 59.690 M 91 69 C 89.900 70.100, 89 71.424, 89 71.943 C 89 73.794, 93.508 76, 97.290 76 C 100.483 76, 101.047 75.703, 100.615 74.250 C 100.329 73.287, 99.800 71.263, 99.439 69.750 C 98.911 67.535, 98.220 67, 95.892 67 C 94.301 67, 92.100 67.900, 91 69 M 102.902 72.175 C 103.305 74.145, 104.273 75.621, 105.290 75.817 C 107.765 76.294, 107.395 73.720, 104.612 71.105 L 102.224 68.862 102.902 72.175 M 105.542 78.932 C 105.187 79.506, 105.679 83.613, 106.634 88.058 C 108.167 95.193, 108.715 96.319, 111.313 97.662 L 114.255 99.183 113.546 94.457 C 111.784 82.710, 107.883 75.144, 105.542 78.932 M 91.707 95.627 C 91.362 95.972, 91.704 97.434, 92.466 98.877 C 94.308 102.364, 107.761 115.572, 108.608 114.726 C 109.186 114.147, 107.769 104.547, 106.415 99.874 C 106.132 98.898, 103.630 97.599, 100.156 96.624 C 93.780 94.835, 92.634 94.700, 91.707 95.627 M 110.924 109 C 111.908 114.892, 112.871 118, 113.713 118 C 114.647 118, 115 115.958, 115 110.557 C 115 103.999, 114.736 102.928, 112.777 101.557 C 111.555 100.701, 110.300 100, 109.989 100 C 109.677 100, 110.098 104.050, 110.924 109 M 136.081 104.019 C 126.186 105.402, 125.992 105.635, 131.570 109.435 C 134.281 111.282, 138.279 114.640, 140.453 116.897 L 144.406 121 153.260 121 C 163.455 121, 169.941 119.635, 172.916 116.863 C 175.687 114.282, 175.543 112.408, 172.347 109.445 C 167.075 104.560, 150.237 102.041, 136.081 104.019 M 118.116 111.250 L 118 119 125.375 119 C 129.431 119, 134.269 119.294, 136.125 119.653 L 139.500 120.305 137.500 118 C 133.981 113.943, 123.859 107, 121.463 107 C 120.098 107, 118.959 106.281, 118.689 105.250 C 118.438 104.287, 118.180 106.987, 118.116 111.250 M 118 123.450 C 118 126.388, 117.334 126.612, 114.970 124.473 C 113.409 123.060, 113.243 123.385, 112.751 128.811 C 112.135 135.598, 110.624 138.499, 106.899 140.042 C 103.475 141.460, 98.057 140.056, 91.908 136.157 C 88.047 133.708, 85.899 133.156, 77.923 132.564 C 68.315 131.849, 56.536 133.064, 54.634 134.966 C 52.950 136.650, 58.546 141.537, 66.863 145.647 C 71.036 147.709, 80.311 151.266, 87.475 153.553 C 99.722 157.461, 100.291 157.755, 97 158.474 C 89.461 160.120, 75.119 165.397, 67.584 169.298 C 49.712 178.549, 46.259 188.678, 62.232 184.993 C 68.627 183.518, 84.036 176.420, 92.642 170.985 C 96.112 168.793, 99.975 167.003, 101.225 167.006 C 105.013 167.015, 110.677 168.861, 129.491 176.219 C 148.608 183.695, 155 185.340, 155 182.782 C 155 181.015, 150.527 174.637, 143.805 166.818 C 139.621 161.952, 137.958 160.818, 132.210 158.913 C 122.766 155.784, 109.834 150.160, 107.755 148.278 C 105.520 146.255, 105.518 144.418, 107.750 143.473 C 108.713 143.065, 117.825 142.403, 128 142.001 C 151.978 141.053, 155.435 139.637, 148.907 133.437 C 147.206 131.822, 145.145 128.844, 144.327 126.821 C 142.865 123.204, 142.727 123.132, 136.170 122.550 C 132.501 122.224, 126.912 121.720, 123.750 121.429 C 118.115 120.911, 118 120.952, 118 123.450" stroke="none" fill="black" fill-rule="evenodd"/>
</svg>