<svg xmlns="http://www.w3.org/2000/svg" width="200" height="200" viewBox="0 0 200 200" version="1.1">
	<path d="M 134.792 9.499 C 134.632 9.636, 120.100 10.494, 102.500 11.405 C 59.420 13.635, 55.815 13.942, 56.277 15.340 C 56.514 16.055, 60.659 16.780, 67.081 17.230 C 79.811 18.123, 92.149 20.499, 97.500 23.089 C 99.700 24.154, 100.600 24.763, 99.500 24.443 C 90.364 21.781, 79.982 19.859, 72 19.351 C 63.417 18.804, 62.259 18.942, 60.009 20.778 C 57.590 22.750, 57.570 22.867, 59.330 24.812 C 61.618 27.340, 68.355 30.251, 79.105 33.356 L 87.500 35.780 79.680 36.514 C 72.267 37.210, 51.512 36.469, 47.750 35.374 C 46.642 35.052, 46 35.408, 46 36.345 C 46 38.783, 52.403 39.219, 82.801 38.849 C 114.270 38.466, 114.772 38.565, 109.569 44.153 C 107.356 46.530, 106.079 46.891, 97.300 47.620 C 91.910 48.068, 81.200 48.387, 73.500 48.328 C 53.400 48.174, 41.483 44.940, 34.850 37.839 C 33.123 35.991, 31.903 35.348, 31.466 36.056 C 30.468 37.670, 35.752 42.805, 41.349 45.660 C 46.469 48.272, 58.352 50.952, 65.338 51.070 L 69.500 51.141 65.747 52.519 C 60.646 54.392, 51.586 60.515, 48.516 64.163 C 43.430 70.207, 46.629 80.913, 55.239 86.667 C 64.152 92.624, 81.261 94.616, 96.492 91.470 C 105.282 89.654, 109.979 87.798, 115.637 83.906 L 119.819 81.029 125.866 85.480 C 129.192 87.929, 132.620 91.298, 133.482 92.966 C 134.345 94.635, 134.927 95.995, 134.776 95.988 C 134.624 95.982, 132.025 95.312, 129 94.500 C 121.513 92.491, 108.756 92.653, 88.500 95.015 C 79.150 96.105, 66.100 97, 59.500 97.004 C 33.611 97.020, 26.874 100.999, 38.817 109.220 C 42.169 111.527, 87.107 133, 88.584 133 C 88.670 133, 88.972 130.941, 89.256 128.425 C 89.962 122.161, 94.110 117.273, 102.083 113.311 C 105.612 111.556, 109.737 109.820, 111.250 109.452 C 113.702 108.856, 114 109.058, 114 111.315 C 114 114.535, 118.490 119.070, 124.456 121.874 C 128.986 124.004, 129.021 124.058, 127.619 126.764 C 126.839 128.269, 125.093 130.694, 123.738 132.153 C 116.657 139.780, 108.542 140.211, 87.630 134.072 C 80.002 131.832, 71.970 130, 69.781 130 C 63.938 130, 59.311 132.613, 56.421 137.544 C 53.970 141.726, 51.084 153.417, 52.221 154.554 C 52.535 154.868, 59.841 153.940, 68.456 152.492 C 83.512 149.960, 101.066 148.765, 102.498 150.175 C 104.439 152.086, 98.879 156.598, 78.937 169.297 C 59.211 181.859, 54.524 187.095, 60.547 189.839 C 65.384 192.043, 70.141 191.264, 75.503 187.389 C 82.450 182.368, 93.208 177.306, 99.869 175.923 C 108.175 174.199, 123.688 175.273, 135.859 178.416 C 155.100 183.383, 164.846 185.004, 174.860 184.900 C 190.513 184.738, 190.733 184.358, 178.804 178.058 C 153.372 164.628, 138 154.608, 138 151.462 C 138 150.585, 140.723 149.242, 145.250 147.886 C 158.382 143.953, 162.653 140.912, 163.647 134.788 C 164.043 132.350, 163.569 130.076, 162.043 127.085 L 159.879 122.842 162.486 120.425 C 166.482 116.722, 168.998 110.266, 168.334 105.420 C 168.025 103.167, 168.790 89.501, 170.034 75.051 C 171.950 52.789, 172.124 47.389, 171.172 39.662 C 169.233 23.912, 162.486 13.790, 152.096 11.043 C 148.701 10.146, 135.422 8.960, 134.792 9.499 M 115 13.618 C 104.825 14.265, 92.900 14.888, 88.500 15 L 80.500 15.206 88.262 17.083 C 97.315 19.273, 101.357 21.144, 105.500 25.060 C 107.150 26.620, 111.196 29.087, 114.490 30.542 C 117.785 31.997, 124.243 35.639, 128.840 38.636 L 137.199 44.085 136.639 39.293 C 136.331 36.657, 135.792 29.662, 135.443 23.750 C 135.093 17.837, 134.513 12.873, 134.154 12.719 C 133.794 12.566, 125.175 12.970, 115 13.618 M 138 13.758 C 138 14.882, 138.893 21.023, 139.984 27.404 C 144.009 50.953, 146.160 69.942, 146.722 86.894 L 147.299 104.289 152.072 110.596 C 154.698 114.064, 157.287 117.691, 157.826 118.654 C 159.141 121.003, 161.223 119.281, 163.855 113.669 C 165.386 110.402, 165.824 107.227, 165.877 99 C 165.914 93.225, 166.683 81.075, 167.585 72 C 171.750 30.084, 165.681 14.608, 144.195 12.363 C 138.412 11.758, 138 11.851, 138 13.758 M 62.241 23.250 C 63.229 26.281, 88.605 34.169, 98 34.365 C 104.290 34.496, 104.510 34.416, 104.801 31.911 C 105.082 29.496, 104.610 29.176, 97.801 27.158 C 85.960 23.648, 76.980 22.036, 69.167 22.017 C 63.743 22.005, 61.939 22.326, 62.241 23.250 M 107.803 32.750 C 107.568 33.945, 108.386 34.817, 110.383 35.500 C 114.804 37.012, 115.864 39.402, 113.751 43.099 L 112.002 46.159 118.751 45.539 C 122.463 45.198, 127.034 44.678, 128.910 44.384 L 132.319 43.849 129.410 41.871 C 126.540 39.919, 109.461 31, 108.593 31 C 108.348 31, 107.992 31.788, 107.803 32.750 M 118 48.193 C 111.256 48.926, 109.019 49.591, 107.169 51.412 L 104.838 53.707 108.196 55.688 C 113.289 58.693, 118.920 63.944, 120.662 67.314 C 121.662 69.248, 122.052 71.844, 121.748 74.544 C 121.274 78.751, 121.282 78.763, 128.137 83.892 C 131.911 86.717, 135.045 89.585, 135.100 90.264 C 135.155 90.944, 135.560 90.375, 136 89 C 136.440 87.625, 136.845 77.612, 136.900 66.750 L 137 47 131.750 47.134 C 128.863 47.207, 122.675 47.684, 118 48.193 M 139.800 71.500 C 139.459 84.150, 138.903 95.194, 138.563 96.042 C 138.158 97.054, 139.039 98.392, 141.126 99.935 L 144.306 102.286 143.633 83.893 C 143.262 73.777, 142.388 61.675, 141.689 57 L 140.419 48.500 139.800 71.500 M 86.051 50.748 L 76.603 51.080 79.747 52.992 C 81.476 54.044, 83.664 56.083, 84.607 57.523 C 85.610 59.054, 90.101 62.033, 95.412 64.690 C 100.410 67.192, 107.504 70.985, 111.174 73.119 C 114.845 75.254, 118.108 77, 118.424 77 C 118.741 77, 119 75.216, 119 73.035 C 119 68.166, 115.507 63.832, 107.206 58.406 C 104.068 56.354, 101.315 54.526, 101.089 54.344 C 100.864 54.161, 101.496 53.110, 102.494 52.006 C 104.287 50.025, 104.255 50.003, 99.905 50.208 C 97.482 50.322, 91.248 50.565, 86.051 50.748 M 66.500 55.236 C 62.564 56.651, 57.012 60.172, 52.573 64.070 C 49.553 66.722, 49.001 67.848, 49.004 71.354 C 49.014 82.868, 61.476 90.021, 81.460 89.983 C 94.829 89.957, 108.276 86.550, 114.500 81.612 C 116.484 80.038, 116.480 80.009, 114.035 78.096 C 112.679 77.035, 106.359 73.445, 99.989 70.118 L 88.407 64.068 89.359 69.823 C 90.098 74.290, 89.993 76.242, 88.892 78.539 C 85.098 86.456, 79.203 78.416, 74.016 58.250 C 72.839 53.674, 71.897 53.296, 66.500 55.236 M 77 55.393 C 77 55.609, 77.698 56.054, 78.552 56.382 C 79.442 56.723, 79.843 56.555, 79.493 55.989 C 78.906 55.038, 77 54.583, 77 55.393 M 77 59.404 C 77 59.627, 78.088 63.024, 79.417 66.954 C 82.149 75.029, 84.632 79.345, 86.044 78.473 C 87.318 77.686, 87.256 71.904, 85.918 66.589 C 85.055 63.159, 84.139 61.960, 81.384 60.646 C 77.815 58.944, 77 58.713, 77 59.404 M 109.500 95.758 C 106.750 95.900, 98.650 96.729, 91.500 97.600 C 84.350 98.470, 69.725 99.531, 59 99.957 C 39.991 100.713, 36 101.261, 36 103.119 C 36 104.968, 47.931 111.554, 66.677 120.055 L 85.975 128.807 87.040 124.851 C 89.320 116.385, 98.624 110.264, 118.521 104.140 C 124.032 102.443, 129.421 100.413, 130.496 99.627 C 132.342 98.277, 132.230 98.143, 128.475 97.191 C 123.658 95.970, 116.240 95.410, 109.500 95.758 M 124.045 106.092 C 121.595 106.573, 118.711 107.844, 117.637 108.918 C 115.846 110.710, 115.811 111.063, 117.217 113.208 C 119.097 116.078, 128.869 121.547, 129.998 120.361 C 131.035 119.272, 134 109.239, 134 106.818 C 134 104.780, 131.626 104.606, 124.045 106.092 M 135.345 113.250 C 134.174 117.787, 133.399 121.806, 133.624 122.180 C 134.312 123.328, 144.740 124.266, 149.244 123.585 C 156.350 122.511, 156.693 121.868, 153.015 116.521 C 146.926 107.672, 144.055 105, 140.634 105 C 137.515 105, 137.447 105.107, 135.345 113.250 M 152.500 125.770 C 147.792 127.025, 139.325 126.873, 133.569 125.428 C 131.710 124.961, 131.036 125.311, 130.492 127.026 C 130.109 128.233, 128.184 131.004, 126.216 133.183 C 117.836 142.458, 109.109 143.330, 88 137 C 73.614 132.686, 67.627 132.107, 62.863 134.571 C 59.607 136.255, 56.669 141.725, 55.441 148.393 C 54.735 152.226, 54.765 152.276, 57.386 151.618 C 72.220 147.895, 102.325 145.725, 104.800 148.200 C 108.774 152.174, 104.830 155.804, 76.467 174.282 C 62.852 183.152, 60.402 185.223, 61.473 186.956 C 62.920 189.298, 69.901 188.067, 74.748 184.616 C 94.062 170.862, 109.754 169.080, 141.915 176.991 C 159.537 181.325, 176.624 183.776, 178.203 182.197 C 178.793 181.607, 175.204 179.149, 168.612 175.629 C 153.126 167.360, 143.300 161.205, 138.899 157.018 C 132.330 150.769, 133.796 148.403, 146.673 144.476 C 159.877 140.448, 163.642 135.339, 159.208 127.468 L 157.500 124.436 152.500 125.770" stroke="none" fill="black" fill-rule="evenodd"/>
</svg>