<svg xmlns="http://www.w3.org/2000/svg" width="200" height="200" viewBox="0 0 200 200" version="1.1">
	<path d="M 129.355 8.750 C 128.931 10.372, 126.294 10.510, 93.356 10.642 C 68.868 10.740, 57.471 11.129, 56.708 11.892 C 55.058 13.542, 56.934 14.918, 62.072 15.827 L 66.500 16.610 62.125 17.337 C 56.606 18.254, 53.465 19.865, 54.730 21.130 C 55.322 21.722, 56.690 21.688, 58.402 21.037 C 65.207 18.450, 86.285 20.853, 97.257 25.466 C 100.166 26.689, 100.054 26.749, 92.871 27.817 C 88.817 28.419, 81.752 29.225, 77.171 29.607 C 72.590 29.988, 68.301 30.842, 67.640 31.503 C 66.957 32.186, 62.353 32.919, 56.969 33.202 C 49.906 33.573, 46.405 34.259, 43.190 35.900 C 39.311 37.882, 38.912 38.421, 39.190 41.301 C 39.457 44.051, 40.252 44.881, 44.852 47.212 C 47.796 48.703, 52.806 50.218, 55.986 50.578 L 61.768 51.232 58.018 54.982 C 49.805 63.195, 49.026 73.468, 55.376 89.850 C 59.404 100.242, 59.706 102.547, 57.463 105.749 C 55.237 108.928, 49.266 110.241, 34 110.910 L 20.500 111.501 25.500 114.786 C 31.933 119.011, 38.445 120.938, 48.874 121.702 C 57.022 122.298, 57.170 122.354, 54.374 123.779 C 52.793 124.584, 50.600 126.030, 49.500 126.991 C 48.400 127.952, 45.229 128.990, 42.453 129.298 C 27.299 130.979, 27.759 136.847, 43.702 145.246 L 52.712 149.992 53.361 156.976 C 54.573 170.010, 58.304 177.584, 65.262 181.134 C 71.019 184.071, 78.477 184.459, 93.540 182.605 C 123.587 178.907, 137.604 182.074, 149.513 195.250 C 153.610 199.783, 156 201.165, 156 199 C 156 197.095, 144.425 186.488, 139.387 183.777 C 128.711 178.031, 117.305 176.892, 96.462 179.492 C 71.368 182.622, 64.782 181.064, 59.641 170.783 C 57.401 166.304, 56.667 163.212, 56.248 156.497 L 55.714 147.928 48.178 144.447 C 40.514 140.905, 34 136.587, 34 135.047 C 34 133.885, 39.659 132, 43.149 132 C 45.513 132, 46 132.421, 46 134.465 C 46 140.089, 56.819 147.665, 71.683 152.448 C 75.965 153.826, 76.974 154.604, 77.482 156.918 C 77.820 158.458, 79.456 161.020, 81.117 162.609 C 83.988 165.358, 84.562 165.496, 92.818 165.427 C 100.205 165.366, 103.735 164.662, 116.485 160.713 C 124.727 158.159, 131.740 156.392, 132.070 156.785 C 132.400 157.178, 133.479 159.698, 134.469 162.384 C 137.737 171.257, 142.071 173.279, 146.849 168.159 C 148.307 166.596, 150.326 163.016, 151.335 160.203 C 152.953 155.692, 153.381 155.221, 154.968 156.212 C 160.524 159.682, 162.309 171.320, 159.614 186.500 C 158.735 191.450, 157.735 196.513, 157.392 197.750 C 156.940 199.377, 157.191 200, 158.301 200 C 160.923 200, 164.571 179.088, 163.659 169.278 C 162.983 162.010, 161.262 158.239, 156.971 154.629 C 155.265 153.194, 154.112 151.628, 154.408 151.149 C 154.703 150.671, 156.936 150.006, 159.369 149.673 C 165.545 148.826, 171.863 146.124, 173.109 143.797 C 175.182 139.923, 167.699 134.725, 159.741 134.511 C 154.145 134.360, 152.868 133.355, 152.538 128.841 C 152.322 125.899, 151.654 125.172, 146.940 122.750 C 143.933 121.205, 139.960 120, 137.875 120 C 132.147 120, 131 119.216, 131 115.299 L 131 111.812 136.250 112.525 C 139.137 112.916, 143.943 114.146, 146.929 115.257 L 152.357 117.277 154.324 114.889 C 163.309 103.978, 170.730 71.994, 169.730 48.500 C 168.518 20.057, 157.404 7.127, 137.749 11.295 C 134.339 12.019, 133.893 11.860, 132.839 9.545 C 131.492 6.589, 130.009 6.250, 129.355 8.750 M 69.188 13.522 C 69.475 13.809, 76.863 15.162, 85.605 16.529 C 102.857 19.228, 107.203 20.346, 109.544 22.687 C 110.672 23.815, 110.784 24.555, 109.976 25.529 C 109.125 26.554, 109.951 27.463, 113.691 29.618 C 121.147 33.915, 124.982 37.065, 126.624 40.240 C 127.963 42.829, 127.964 43.406, 126.631 45.441 C 124.835 48.182, 118.412 50, 110.522 50 L 104.930 50 108.404 53.050 C 115.463 59.247, 115.454 65.302, 108.360 84.267 C 105.901 90.840, 104.027 97.172, 104.195 98.339 C 104.730 102.061, 108.886 102.600, 118.585 100.206 C 123.363 99.026, 127.386 97.935, 127.525 97.781 C 127.664 97.626, 128.300 84.675, 128.938 69 C 129.575 53.325, 130.533 34.733, 131.067 27.684 C 131.600 20.635, 131.777 14.448, 131.459 13.934 C 131.122 13.388, 117.969 13, 99.774 13 C 82.665 13, 68.901 13.235, 69.188 13.522 M 139 13.721 C 137.625 13.968, 136.152 14.502, 135.727 14.908 C 135.301 15.314, 135.850 19.439, 136.946 24.073 C 140.229 37.953, 142.118 52.783, 142.224 65.500 C 142.365 82.382, 139.473 93.123, 133.528 97.799 C 131.493 99.400, 131 100.666, 131 104.287 C 131 109.130, 131.901 110, 136.923 110 C 139.434 110, 145.975 111.706, 150.164 113.454 C 152.380 114.378, 156.115 107.997, 159.868 96.877 C 165.076 81.441, 166.500 72.131, 166.500 53.500 C 166.500 38.246, 166.258 35.800, 164.146 29.683 C 159.687 16.770, 151.384 11.499, 139 13.721 M 97.445 22.574 C 104.804 25.145, 107.481 25.587, 106.548 24.078 C 106.035 23.247, 93.260 19.893, 91.303 20.074 C 90.861 20.115, 93.625 21.240, 97.445 22.574 M 133.562 33.176 C 132.576 44.767, 131.017 78.669, 131.041 88 L 131.063 96.500 133.514 93.715 C 134.862 92.183, 136.750 88.358, 137.710 85.215 C 140.215 77.012, 139.916 54.495, 137.090 38.569 C 135.925 32.008, 134.795 26.462, 134.578 26.245 C 134.362 26.028, 133.904 29.147, 133.562 33.176 M 95 30.103 C 89.775 31.041, 83.475 31.898, 81 32.007 L 76.500 32.205 80 33.140 C 81.925 33.654, 88.827 34.185, 95.338 34.319 C 109.863 34.618, 110.546 35.287, 106.497 45.250 C 105.866 46.804, 106.474 47, 111.925 47 C 118.082 47, 125 44.951, 125 43.128 C 125 40.689, 119.354 35.897, 112.259 32.314 L 104.500 28.397 95 30.103 M 53.336 35.997 C 46.458 36.960, 40.685 39.493, 41.231 41.309 C 42.398 45.185, 62.048 49.991, 67.887 47.829 C 69.200 47.343, 77.603 46.920, 86.562 46.889 L 102.850 46.833 104.425 42.896 C 106.781 37.008, 106.613 36.728, 101.168 37.477 C 98.511 37.842, 92.773 37.676, 88.418 37.106 C 76.457 35.542, 60.245 35.030, 53.336 35.997 M 73.500 50.857 C 65.236 51.616, 60.468 54.640, 56.290 61.768 C 52.420 68.372, 52.810 74.671, 57.977 89 C 62.601 101.822, 62.680 105.533, 58.402 108.899 C 55.436 111.231, 48.607 112.848, 37.500 113.846 L 29.500 114.565 35 116.532 C 44.296 119.858, 63.929 119.320, 87.500 115.093 C 97.950 113.219, 106.643 111.576, 106.818 111.441 C 106.993 111.307, 103.562 107.665, 99.194 103.349 C 91.412 95.658, 86.968 88.724, 84.051 79.722 L 82.827 75.945 79.379 78.972 C 75.536 82.346, 74.204 82.694, 73.377 80.540 C 72.821 79.092, 78.529 67.559, 82.099 62.915 L 83.956 60.500 83.978 64.750 C 83.990 67.088, 84.415 69, 84.923 69 C 86.894 69, 99.696 52.363, 98.582 51.249 C 97.677 50.344, 81.786 50.095, 73.500 50.857 M 98.223 58.025 C 95.871 61.225, 91.939 66.076, 89.486 68.804 L 85.027 73.764 86.890 79.180 C 89.825 87.712, 92.504 92.296, 98.203 98.538 C 108.327 109.628, 112.395 111.318, 124.250 109.358 C 127.851 108.763, 128 108.580, 128 104.761 C 128 100.917, 127.907 100.807, 125.250 101.490 C 110.879 105.181, 104.786 105.129, 102.273 101.294 C 100.467 98.538, 101.069 95.947, 108.018 76.573 C 111.762 66.135, 111.719 60.466, 107.866 56.346 C 103.460 51.636, 102.840 51.744, 98.223 58.025 M 79.130 72.974 C 76.769 77.183, 76.769 77.194, 78.937 76.034 C 81.390 74.721, 82.327 72.911, 81.835 70.433 C 81.605 69.278, 80.756 70.075, 79.130 72.974 M 119.615 112.881 C 118.085 113.481, 118.698 114.023, 122.865 115.755 L 128 117.889 128 114.945 C 128 112.275, 127.697 112.007, 124.750 112.070 C 122.963 112.109, 120.652 112.474, 119.615 112.881 M 97 116.028 C 92.325 117.008, 89.756 117.852, 91.292 117.905 C 96.750 118.091, 109.584 121.188, 115.129 123.658 L 120.758 126.164 125.106 123.946 L 129.453 121.728 121.085 117.864 C 111.682 113.522, 109.680 113.369, 97 116.028 M 65.299 122.997 C 61.338 124.035, 56.871 125.528, 55.372 126.313 C 52.875 127.621, 54.069 127.800, 69.573 128.433 C 78.883 128.813, 92.460 129.552, 99.744 130.074 C 109.978 130.808, 113.445 130.739, 114.994 129.771 C 116.098 129.083, 117 128.209, 117 127.831 C 117 126.764, 107.037 123.293, 100.510 122.086 C 91.191 120.364, 73.612 120.819, 65.299 122.997 M 133.250 123.662 C 132.563 123.940, 132 125.734, 132 127.651 C 132 130.491, 132.323 131.043, 133.750 130.639 C 134.713 130.366, 138.088 129.589, 141.250 128.912 C 144.412 128.235, 147 127.377, 147 127.005 C 147 126.452, 135.659 122.813, 134.765 123.079 C 134.619 123.122, 133.938 123.385, 133.250 123.662 M 126.250 126.220 C 123.371 127.609, 123.417 128.388, 126.500 130.408 L 129 132.046 129 128.523 C 129 126.585, 128.887 125.030, 128.750 125.068 C 128.613 125.105, 127.487 125.624, 126.250 126.220 M 119.500 131 C 119.840 131.550, 121.104 131.993, 122.309 131.985 C 124.090 131.972, 124.219 131.788, 123 131 C 121.030 129.727, 118.713 129.727, 119.500 131 M 142 131.412 L 137.500 132.628 142.390 133.314 C 150.099 134.396, 150.882 134.265, 150.290 132 C 149.702 129.754, 148.462 129.666, 142 131.412 M 49 133.763 C 49 136.142, 49.952 137.659, 53.173 140.416 C 56.944 143.644, 68.054 148.720, 75.358 150.554 C 77.476 151.085, 78.671 152.399, 80.127 155.797 C 82.784 161.994, 84.357 162.931, 92.168 162.968 C 97.271 162.993, 102.434 161.919, 114.168 158.396 C 122.600 155.864, 130.109 153.457, 130.854 153.048 C 131.599 152.639, 126.874 152.033, 120.354 151.701 C 107.139 151.029, 101.835 149.835, 98.862 146.862 C 97.074 145.074, 97.008 144.614, 98.260 142.677 C 99.034 141.480, 101.758 139.150, 104.315 137.500 C 106.871 135.850, 108.971 134.230, 108.982 133.901 C 109.005 133.142, 94.037 132.191, 68.750 131.344 L 49 130.683 49 133.763 M 108.500 137.582 C 99.602 143.829, 99.382 144.075, 101.394 145.547 C 103.852 147.344, 114.328 149, 123.237 149 L 130.810 149 130.281 142.750 C 129.990 139.313, 129.470 136.189, 129.126 135.810 C 128.782 135.430, 125.125 134.883, 121 134.595 C 113.675 134.083, 113.383 134.153, 108.500 137.582 M 132.610 139.939 C 133.692 149.442, 133.310 149, 140.454 149 C 143.983 149, 148.049 148.552, 149.490 148.004 C 151.876 147.097, 152.083 146.586, 151.805 142.294 C 151.513 137.785, 151.348 137.550, 148 136.894 C 146.075 136.516, 141.708 136.021, 138.295 135.793 L 132.090 135.379 132.610 139.939 M 154.284 142.411 C 154.212 145.485, 154.322 148, 154.528 148 C 158.965 148, 171 143.755, 171 142.190 C 171 140.596, 165.273 138.168, 159.958 137.509 L 154.415 136.821 154.284 142.411 M 137.248 154.706 C 135.369 155.068, 135.103 155.582, 135.640 157.820 C 135.994 159.294, 137.143 162.216, 138.194 164.313 C 139.657 167.232, 140.616 168.052, 142.287 167.813 C 144.562 167.487, 148.281 161.810, 149.535 156.750 L 150.217 154 144.858 154.136 C 141.911 154.211, 138.487 154.467, 137.248 154.706" stroke="none" fill="black" fill-rule="evenodd"/>
</svg>