<svg xmlns="http://www.w3.org/2000/svg" width="200" height="200" viewBox="0 0 200 200" version="1.1">
	<path d="M 89 9.037 C 76.612 9.976, 58.898 12.614, 55.250 14.063 C 54.012 14.555, 53 15.711, 53 16.633 C 53 20.660, 66.122 29.676, 78.262 33.992 L 83.500 35.854 70 35.947 C 47.090 36.104, 34 39.138, 34 44.289 C 34 49.135, 36.225 49.831, 55.970 51.162 C 72.891 52.303, 74.013 52.494, 69.935 53.535 C 55.106 57.321, 47 66.885, 47 80.597 L 47 85.837 53.250 87.935 C 62.074 90.897, 67.440 94.136, 67.813 96.725 C 68.236 99.661, 63.567 101.950, 47.877 106.501 C 28.534 112.111, 25.165 114.022, 28.589 117.446 C 32.144 121.001, 58.568 125.941, 64.235 124.110 C 71.727 121.690, 86.991 119.881, 112.367 118.406 L 139.310 116.840 143.356 120.886 C 145.581 123.111, 147.048 125.284, 146.615 125.716 C 146.183 126.147, 134.505 126.307, 120.664 126.072 C 76.939 125.329, 66.770 125.462, 62.137 126.840 C 57.067 128.348, 50.343 134.334, 49.458 138.125 C 48.853 140.719, 48.927 140.758, 55.673 141.399 C 59.428 141.756, 64.723 142.316, 67.439 142.644 L 72.378 143.240 63.439 146.771 C 52.314 151.165, 47.498 154.159, 44.916 158.285 C 39.703 166.616, 48.133 177.180, 68.264 187.543 L 75.683 191.362 78.613 189.275 C 80.225 188.127, 84.234 186.404, 87.522 185.445 C 92.837 183.894, 96.605 183.772, 121.500 184.340 C 150.233 184.995, 158.126 184.458, 164.557 181.406 C 168.941 179.326, 171.010 176.343, 171.715 171.092 C 172.176 167.651, 171.758 166.438, 168.650 162.205 C 166.671 159.508, 163.025 155.434, 160.548 153.151 C 156.848 149.740, 155.339 149, 152.085 149 C 148.504 149, 147.664 149.542, 143.313 154.664 C 136.007 163.262, 132.984 166, 130.795 166 C 127.241 166, 122.211 162.933, 117.490 157.886 L 112.872 152.948 108.549 157.396 C 103.428 162.665, 96.896 166.239, 93.174 165.809 C 90.812 165.536, 90.511 165.085, 90.597 161.941 C 90.713 157.690, 95.515 149.795, 102.581 142.239 L 107.500 136.978 114.500 139.617 C 119.779 141.607, 124.009 142.379, 131.707 142.757 C 143.021 143.313, 149.062 141.973, 156.029 137.362 C 162.619 133.001, 164.517 125.563, 159.528 123.649 C 158.418 123.223, 158 121.583, 158 117.650 C 158 112.717, 158.288 112.017, 161.255 109.755 C 163.045 108.389, 165.632 105.074, 167.005 102.386 C 169.492 97.516, 169.500 97.409, 169.469 69.500 C 169.429 33.830, 167.461 16, 163.563 16 C 160.526 16, 158.704 29.688, 157.042 65 C 154.788 112.864, 155.068 110.024, 152.501 111 C 151.239 111.479, 147.942 112.283, 145.174 112.786 L 140.142 113.701 134.526 108.026 L 128.909 102.350 132.516 98.425 C 137.801 92.673, 142.788 81.806, 144.641 72 C 146.622 61.523, 145.987 45.812, 143.155 35.211 L 141.208 27.923 143.316 24.075 C 145.992 19.191, 144.785 15.951, 139.236 13.120 C 131.548 9.198, 109.992 7.446, 89 9.037 M 85.500 12.056 C 80 12.561, 73.475 13.354, 71 13.817 L 66.500 14.659 70.500 15.824 C 72.700 16.465, 77.763 16.991, 81.750 16.994 C 87.525 16.999, 89 17.305, 89 18.500 C 89 19.461, 88.011 20.013, 86.250 20.037 C 84.369 20.062, 86.297 21.169, 92.347 23.537 C 97.213 25.442, 101.601 27, 102.097 27 C 102.594 27, 103 25.650, 103 24 C 103 21.895, 103.486 21, 104.628 21 C 105.956 21, 106.142 21.708, 105.640 24.847 L 105.025 28.695 113.354 32.406 C 127.063 38.515, 131.852 44.957, 125.230 48.381 C 121.263 50.432, 111.796 52, 103.375 52 C 95.776 52, 92.846 53.319, 98.108 54.372 C 103.015 55.353, 111.184 59.829, 115.234 63.755 C 121.734 70.057, 122.572 77.515, 117.619 85 L 115.158 88.719 121.040 94.540 L 126.923 100.361 130.614 96.448 C 135.331 91.446, 139.508 82.599, 141.608 73.161 C 143.804 63.287, 143.065 44.588, 140.066 34.185 L 137.957 26.870 139.978 24.300 C 144.108 19.050, 141.549 15.847, 131.212 13.327 C 123.970 11.562, 98.565 10.855, 85.500 12.056 M 56 16.703 C 56 21.185, 76.707 31.821, 88.500 33.398 C 94.941 34.259, 103.373 30.233, 98.291 28.722 C 97.306 28.430, 91.550 26.286, 85.500 23.959 C 78.045 21.092, 71.978 19.469, 66.675 18.925 C 62.371 18.482, 58.209 17.588, 57.425 16.938 C 56.641 16.287, 56 16.182, 56 16.703 M 162.629 26.022 C 160.676 42.263, 157.281 106.614, 158.322 107.655 C 159.248 108.582, 160.968 107.007, 163.770 102.666 C 166.434 98.539, 166.463 98.302, 166.835 77.500 C 167.199 57.171, 165.679 27.011, 164.073 22.669 C 163.466 21.027, 163.138 21.790, 162.629 26.022 M 101.907 32.612 C 101.171 33.498, 99.654 34.570, 98.535 34.993 C 97.047 35.556, 98.114 35.944, 102.500 36.434 C 111.329 37.422, 113.187 37.939, 112.740 39.287 C 112.470 40.100, 109.111 40.595, 102.542 40.788 L 92.747 41.075 93.289 45.120 C 93.588 47.345, 94.073 49.407, 94.368 49.702 C 95.389 50.723, 118.813 48.105, 122.522 46.555 C 126.065 45.075, 126.175 44.892, 124.795 42.750 C 123.625 40.932, 106.211 31.185, 103.872 31.039 C 103.527 31.018, 102.643 31.725, 101.907 32.612 M 59 38.980 C 47.868 39.746, 40.998 41.034, 38.104 42.899 C 35.645 44.483, 37.676 46.693, 42.164 47.314 C 49.036 48.266, 89.978 50.356, 90.550 49.784 C 91.224 49.109, 90.027 41.661, 88.969 39.949 C 87.942 38.289, 75.087 37.873, 59 38.980 M 69.929 56.367 C 57.103 59.826, 50 68.053, 50 79.453 L 50 83.607 57.882 86.829 C 66.486 90.347, 71 93.806, 71 96.881 C 71 101.339, 64.879 104.622, 47.377 109.554 C 40.330 111.540, 33.437 113.755, 32.059 114.477 C 29.594 115.768, 29.643 115.817, 35.027 117.416 C 38.037 118.310, 44.701 119.758, 49.835 120.633 C 58.800 122.162, 59.574 122.142, 69.335 120.127 C 81.143 117.691, 94.304 116.354, 115.992 115.388 C 124.513 115.008, 132.512 114.423, 133.768 114.087 C 135.941 113.506, 135.816 113.244, 131.214 108.711 L 126.376 103.945 122.720 105.473 C 115.244 108.596, 103.429 106.916, 95.930 101.663 C 94.028 100.331, 94.316 100.010, 101.329 95.639 C 105.403 93.100, 109.204 90.454, 109.775 89.761 C 110.550 88.818, 109.012 86.926, 103.683 82.268 L 96.553 76.035 95.235 80.558 C 92.843 88.761, 86.420 88.813, 79.465 80.688 C 74.719 75.143, 71.801 68.775, 72.183 64.796 C 72.488 61.627, 72.662 61.503, 76.691 61.582 C 79.834 61.643, 82.450 62.695, 87.154 65.786 C 90.604 68.053, 93.519 69.814, 93.633 69.700 C 94.471 68.862, 92.069 56.657, 90.924 55.932 C 88.877 54.636, 75.305 54.918, 69.929 56.367 M 95.784 64.250 L 96.133 71.500 103.817 78.725 C 108.042 82.699, 112.123 85.849, 112.883 85.725 C 115.008 85.379, 118 78.972, 118 74.768 C 118 69.710, 112.508 63.639, 104.500 59.845 C 95.554 55.606, 95.372 55.698, 95.784 64.250 M 74.834 64.499 C 72.993 66.340, 78.746 76.925, 83.984 81.333 C 89.397 85.887, 92.397 84.481, 93.150 77.037 C 93.478 73.793, 93.112 73.304, 87.349 69.282 C 81.414 65.140, 76.190 63.144, 74.834 64.499 M 105.714 95.833 L 98.927 100.500 103.214 102.405 C 108.114 104.583, 117.007 104.931, 121.425 103.118 L 124.349 101.917 118.959 96.458 C 115.994 93.456, 113.328 91.037, 113.034 91.083 C 112.740 91.128, 109.446 93.266, 105.714 95.833 M 148.783 114.799 L 143.066 116.199 146.185 120.081 C 148.791 123.324, 149.731 123.860, 151.902 123.340 C 155.327 122.521, 155.162 122.835, 154.809 117.806 L 154.500 113.398 148.783 114.799 M 150.500 127.726 C 145.914 128.847, 139.196 129.123, 122 128.897 C 67.787 128.186, 64.961 128.273, 59.833 130.799 C 54.780 133.288, 50.938 137.725, 53.215 138.439 C 53.922 138.661, 58.524 139.133, 63.442 139.489 C 78.278 140.562, 80.071 143.289, 68.750 147.562 C 46.029 156.137, 41.411 162.067, 50.107 171.500 C 54.130 175.865, 62.356 181.598, 70.684 185.841 L 74.867 187.973 79.684 185.488 C 87.534 181.437, 93.712 180.874, 126.755 181.198 C 156.465 181.490, 157.657 181.427, 162.164 179.344 C 171.980 174.807, 171.295 167.445, 160.010 156.163 C 153.084 149.239, 149.219 150.035, 142.109 159.849 C 134.201 170.766, 127.915 171.345, 117.788 162.090 L 112.468 157.227 108.647 160.980 C 104.175 165.372, 97.387 169, 93.640 169 C 92.188 169, 90.058 168.058, 88.906 166.906 C 86.146 164.146, 86.979 159.447, 91.547 152 C 96.462 143.987, 105.949 133.738, 107.899 134.335 C 108.780 134.605, 112.125 135.781, 115.333 136.950 C 123.345 139.870, 133.906 141.065, 141.245 139.883 C 151.759 138.190, 161.282 131.784, 159.641 127.508 C 158.970 125.759, 158.507 125.770, 150.500 127.726" stroke="none" fill="black" fill-rule="evenodd"/>
</svg>