<svg xmlns="http://www.w3.org/2000/svg" width="200" height="200" viewBox="0 0 200 200" version="1.1">
	<path d="M 100.500 8.631 C 98.300 8.849, 90.142 9.922, 82.370 11.014 C 74.599 12.106, 66.582 13, 64.554 13 C 48.356 13, 60.899 29.983, 81.112 35.419 L 86.500 36.868 73.500 37.177 C 66.350 37.346, 54.762 37.328, 47.750 37.135 L 35 36.785 35 39.491 C 35 45.199, 43.794 49.966, 58.151 52.042 C 61.643 52.547, 71.412 52.969, 79.860 52.980 C 95.168 53, 95.240 53.011, 101.154 56.163 C 111.559 61.709, 119 69.542, 119 74.950 C 119 77.514, 118.941 77.510, 113.177 74.590 C 110.561 73.264, 103.938 70.314, 98.460 68.035 C 92.982 65.756, 87.247 62.692, 85.716 61.226 C 83.378 58.988, 81.842 58.500, 76.112 58.176 C 68.990 57.774, 55.800 60.500, 49.760 63.624 C 46.872 65.117, 46.786 65.365, 47.193 70.994 C 47.991 82.030, 55.771 89.478, 69.751 92.588 C 84.051 95.769, 104.224 93.078, 113.460 86.756 C 116.131 84.928, 116.015 85.190, 112.500 88.920 C 110.300 91.254, 106.571 94.305, 104.214 95.698 C 99.967 98.209, 99.829 98.222, 89.214 97.114 C 74.613 95.589, 57.890 95.740, 49.718 97.472 C 27.289 102.224, 35.665 115.561, 64.065 120.316 L 71.309 121.529 66.758 125.015 C 55.697 133.486, 55.340 139.340, 65.440 146.630 L 68.381 148.753 63.161 149.872 C 60.290 150.488, 54.783 151.285, 50.924 151.644 L 43.906 152.296 44.569 155.398 C 48.954 175.910, 61.251 188.965, 76.212 188.990 C 84.321 189.004, 92.191 185.786, 98.191 180.003 C 102.797 175.563, 103.106 174.956, 102.813 170.922 C 102.551 167.303, 101.997 166.306, 99.410 164.801 C 97.710 163.812, 93.450 162.703, 89.942 162.336 L 83.565 161.670 90.872 154.919 C 99.302 147.132, 103.395 144.941, 105.483 147.101 C 106.226 147.871, 108.053 152.550, 109.542 157.500 C 113.107 169.356, 116.159 175.212, 121.615 180.667 C 126.997 186.050, 134.753 189.795, 143.688 191.325 C 150.220 192.444, 150.303 192.429, 156.881 188.930 C 161.611 186.414, 164.055 184.385, 165.444 181.824 C 167.310 178.382, 167.317 178.133, 165.626 175.552 C 164.657 174.073, 161.082 171.141, 157.682 169.036 C 149.463 163.946, 146 161.128, 146 159.528 C 146 157.899, 152.121 152.414, 154.934 151.521 C 157.876 150.587, 157.557 148, 154.500 148 C 153.125 148, 152 147.750, 152 147.445 C 152 147.140, 153.800 143.906, 156 140.258 C 158.200 136.611, 160 132.393, 160 130.886 C 160 127.683, 155.948 124, 152.424 124 C 148.558 124, 148.836 122.378, 153.025 120.489 C 161.402 116.711, 169.388 105.727, 172.643 93.505 C 174.371 87.016, 174.346 71.103, 172.595 63.663 C 171.430 58.709, 171.431 56.364, 172.603 48.163 C 174.337 36.035, 174.583 18.959, 173.066 16.123 C 170.143 10.662, 164.894 14.900, 153.365 32.031 L 144.695 44.914 142.272 37.707 C 140.940 33.743, 138.520 28.172, 136.895 25.326 L 133.940 20.151 136.470 17.621 C 139.711 14.380, 139.667 12.483, 136.297 10.275 C 134.052 8.804, 131.128 8.481, 119.047 8.369 C 111.046 8.294, 102.700 8.412, 100.500 8.631 M 99.500 11.608 C 97.850 11.823, 92.225 12.494, 87 13.100 C 81.775 13.705, 77.074 14.462, 76.552 14.781 C 76.031 15.101, 77.831 16.130, 80.552 17.068 C 84.713 18.502, 88.024 18.686, 101.370 18.228 L 117.240 17.682 115.995 20.091 C 115.310 21.416, 113.635 23.992, 112.274 25.816 C 110.912 27.639, 109.956 29.270, 110.149 29.439 C 110.342 29.607, 111.963 30.489, 113.750 31.399 C 117.180 33.143, 118.057 35, 115.450 35 C 114.598 35, 112.550 34.302, 110.900 33.448 C 108.082 31.991, 107.520 32.050, 101.699 34.420 L 95.500 36.944 101.685 36.972 C 112.887 37.023, 116.310 40.040, 110.899 45.094 C 107.219 48.532, 107.762 48.629, 116.145 46.030 C 124.166 43.542, 127 41.562, 127 38.443 C 127 35.717, 128.734 35.144, 129.663 37.564 C 131.635 42.702, 123.618 47.699, 108.739 50.606 L 99.978 52.317 104.739 55.047 C 115.969 61.488, 123.294 71.153, 121.491 77.152 C 120.862 79.246, 120.950 79.338, 122.305 78 C 123.140 77.175, 127.949 70.425, 132.991 63 C 141.108 51.047, 142.106 49.098, 141.706 45.988 C 141.111 41.362, 136.396 29.649, 132.856 24 L 130.036 19.500 133.268 16.812 C 138.654 12.332, 136.419 11.523, 118.202 11.358 C 109.566 11.280, 101.150 11.392, 99.500 11.608 M 64.500 16.989 C 62.542 17.841, 62.544 17.861, 64.610 17.930 C 65.771 17.968, 68.921 18.237, 71.610 18.526 C 74.938 18.884, 75.861 18.765, 74.500 18.155 C 71.042 16.606, 66.577 16.085, 64.500 16.989 M 164.840 20.755 C 162.974 22.820, 157.924 29.869, 153.617 36.419 L 145.786 48.328 147.034 57.757 C 148.534 69.091, 147.827 80.182, 145.043 89 C 140.895 102.139, 132.481 109.287, 119.452 110.740 L 112.637 111.500 116.820 114.265 C 123.883 118.934, 130.400 121, 138.069 121 C 149.013 121, 157.289 116.637, 163.390 107.651 C 170.794 96.745, 173.041 82.144, 170.049 64.378 C 168.961 57.920, 168.913 54.435, 169.814 47.378 C 172.522 26.154, 172.436 17, 169.528 17 C 168.816 17, 166.706 18.690, 164.840 20.755 M 63.877 23.369 C 66.934 26.623, 74.332 30.486, 81.428 32.534 C 88.145 34.473, 96.979 34.123, 101.531 31.738 L 104.353 30.259 102.151 29.081 C 100.940 28.433, 96.320 26.349, 91.886 24.451 C 84.310 21.209, 83.152 21, 72.737 21 L 61.651 21 63.877 23.369 M 98.909 24.547 C 106.010 27.878, 106.398 27.950, 108.251 26.272 C 109.315 25.310, 110.609 23.730, 111.128 22.761 C 112 21.132, 111.301 21.003, 101.785 21.036 L 91.500 21.072 98.909 24.547 M 64.672 39.710 C 35.760 40.058, 34.702 40.303, 42.762 44.791 C 49.801 48.710, 59.785 50.226, 79.104 50.310 C 96.543 50.386, 96.760 50.360, 102.341 47.536 C 105.439 45.969, 108.688 43.897, 109.560 42.934 C 111.015 41.326, 110.995 41.138, 109.323 40.662 C 105.914 39.692, 91.557 39.385, 64.672 39.710 M 134.970 64.839 C 130.311 71.626, 125.916 77.988, 125.202 78.978 C 124.057 80.565, 124.315 81.032, 127.382 82.927 C 132.881 86.325, 136.997 91.602, 137.022 95.285 L 137.044 98.500 138.941 96.033 C 142.369 91.570, 144.229 83.943, 144.677 72.500 C 144.915 66.450, 144.733 59.475, 144.274 57 L 143.439 52.500 134.970 64.839 M 68.660 61.027 C 65.998 61.485, 60.710 62.804, 56.910 63.959 L 50 66.058 50 70.061 C 50 79.146, 55.920 85.673, 67.319 89.154 C 73.155 90.936, 75.895 91.166, 86.319 90.742 C 94.284 90.419, 100.231 89.635, 103.500 88.478 C 108.960 86.546, 116.133 82.153, 116.711 80.387 C 117.016 79.454, 100.907 71.501, 91.872 68.124 C 89.352 67.183, 89.222 67.305, 88.712 71.109 C 88.040 76.120, 85.537 80, 82.977 80 C 80.483 80, 80.357 76.528, 82.579 69.046 C 83.891 64.629, 83.933 63.515, 82.829 62.463 C 80.980 60.700, 74.417 60.035, 68.660 61.027 M 84.500 72 C 84.120 73.729, 84.035 75.368, 84.310 75.643 C 84.585 75.918, 85.120 74.729, 85.500 73 C 85.880 71.271, 85.965 69.632, 85.690 69.357 C 85.415 69.082, 84.880 70.271, 84.500 72 M 115.571 89.631 C 112.005 93.479, 107.550 97.051, 104.394 98.596 C 99.240 101.117, 98.978 101.142, 89.685 99.972 C 84.392 99.306, 73.456 98.957, 64.862 99.180 C 51.818 99.518, 48.783 99.904, 44.750 101.733 C 38.989 104.346, 38.553 106.834, 43.250 110.289 C 48.852 114.411, 59.966 117.600, 72.386 118.650 C 76.541 119.001, 79.728 119.631, 79.470 120.049 C 79.211 120.467, 76.595 122.167, 73.655 123.826 C 65.577 128.384, 61 133.102, 61 136.870 C 61 139.484, 61.828 140.598, 66 143.595 C 74.161 149.459, 72.765 151.069, 57.368 153.547 C 51.962 154.416, 47.465 155.212, 47.375 155.314 C 47.285 155.416, 48.071 158.282, 49.121 161.683 C 52.086 171.281, 58.384 179.861, 65 183.317 C 69.963 185.909, 71.233 186.148, 78 185.764 C 86.242 185.296, 90.604 183.554, 95.847 178.638 C 105.145 169.920, 100.013 164.029, 84.278 165.359 L 76.890 165.984 82.692 159.498 C 93.860 147.011, 101.476 142.069, 106.063 144.331 C 108.006 145.290, 109.310 147.964, 112.500 157.529 C 114.700 164.127, 117.544 171.200, 118.821 173.246 C 124.067 181.654, 134.772 187.723, 146 188.656 C 150.803 189.055, 152.170 188.720, 156.791 186.013 C 159.702 184.307, 162.594 181.790, 163.219 180.419 C 164.648 177.282, 163.829 176.389, 152.748 169 C 145.199 163.966, 144.474 163.193, 144.198 159.883 C 143.949 156.909, 144.418 155.826, 146.839 153.789 C 149.049 151.929, 149.664 150.692, 149.306 148.821 C 148.970 147.064, 150.034 144.468, 152.915 140.010 C 158.220 131.802, 158.318 128.590, 153.315 126.939 C 148.987 125.511, 135.884 126.176, 123 128.477 C 114.572 129.983, 114.434 129.974, 106.715 127.404 C 98.848 124.785, 93 120.967, 93 118.450 C 93 116.206, 96.988 113.165, 102.203 111.433 C 106.441 110.025, 106.917 109.604, 105.796 108.254 C 104.648 106.871, 105.020 106.776, 109.161 107.397 C 113.033 107.978, 115.174 107.572, 121.868 104.991 C 130.658 101.601, 135.223 97.567, 134.292 94.010 C 133.678 91.662, 124.352 82.942, 122.642 83.117 C 122.014 83.182, 118.832 86.113, 115.571 89.631 M 133.924 101.750 L 131.500 104.500 134.250 102.076 C 136.820 99.810, 137.459 99, 136.674 99 C 136.495 99, 135.258 100.237, 133.924 101.750 M 104.500 113.572 C 94.517 117.145, 93.806 118.746, 100.750 122.018 C 111.081 126.885, 112.795 127.191, 122.250 125.854 C 127.063 125.174, 131 124.352, 131 124.027 C 131 123.702, 128.897 122.816, 126.328 122.057 C 123.758 121.298, 118.804 118.725, 115.318 116.339 C 111.832 113.952, 108.872 112.032, 108.740 112.070 C 108.608 112.109, 106.700 112.785, 104.500 113.572" stroke="none" fill="black" fill-rule="evenodd"/>
</svg>