<svg xmlns="http://www.w3.org/2000/svg" width="200" height="200" viewBox="0 0 200 200" version="1.1">
	<path d="M 62.547 10.924 C 62.233 11.431, 63.332 12.812, 64.988 13.992 C 66.645 15.171, 68 16.587, 68 17.138 C 68 17.689, 69.344 20.093, 70.986 22.480 C 74.121 27.036, 78.821 30.462, 84.882 32.607 C 88.102 33.747, 86.774 33.887, 72.818 33.880 C 50.818 33.870, 40.409 36.389, 36.245 42.733 C 34.868 44.829, 34.952 45.031, 37.616 46.044 C 46.770 49.525, 54.696 50.431, 75.165 50.337 C 93.450 50.254, 95.885 50.430, 96.302 51.871 C 96.561 52.767, 97.074 54.226, 97.441 55.113 C 98.029 56.532, 97.410 56.490, 92.304 54.767 C 83.586 51.823, 73.532 52.543, 67.884 56.516 C 62.915 60.011, 59.146 66.843, 58.377 73.751 C 57.866 78.336, 57.975 78.584, 61.523 80.947 C 66.186 84.051, 69.805 88.776, 70.613 92.813 C 72.470 102.101, 51.103 109.986, 24.042 109.996 L 13.584 110 17.904 114.402 C 30.135 126.865, 46.204 129.576, 81.500 125.132 C 103.427 122.372, 115 121.543, 115 122.734 C 115 123.268, 113.972 125.233, 112.715 127.102 C 110.966 129.702, 109.265 130.797, 105.465 131.765 C 100.335 133.072, 99.884 133.032, 72.649 128.914 C 59.928 126.990, 52.907 129.356, 49.022 136.877 C 47.695 139.445, 47.838 139.644, 53 142.415 C 58.527 145.382, 66.793 146.319, 89.500 146.554 C 102.150 146.685, 113.175 146.853, 114 146.927 C 116.352 147.137, 112.758 148.911, 102.725 152.494 L 93.858 155.660 85.179 152.162 C 74.586 147.892, 63.337 146.740, 58.196 149.399 C 44.838 156.306, 54.338 182.077, 72.812 189.049 C 77.648 190.874, 79.699 191.097, 86.500 190.534 C 98.177 189.568, 98.927 189.585, 105.500 190.964 C 118.071 193.601, 136.654 190.191, 145.208 183.677 C 149.808 180.174, 152.362 176.107, 151.452 173.735 C 149.825 169.496, 138.007 168.821, 123.550 172.142 L 114.224 174.285 102.862 171.392 L 91.500 168.500 98.500 168.257 C 114.247 167.711, 131.823 165.966, 136.915 164.444 C 144.290 162.238, 148.237 158.214, 147.893 153.250 C 147.750 151.188, 148.166 148.517, 148.817 147.316 C 151.345 142.649, 149.843 136.631, 144.346 129.398 L 141.989 126.297 150.776 125.728 C 169.526 124.513, 181.546 115.245, 173.769 108 C 169.296 103.832, 161.893 102.525, 142.692 102.512 C 126.517 102.501, 125.091 102.362, 127.154 101 C 136.992 94.502, 141.305 90.565, 143.146 86.402 C 146.779 78.191, 143.202 72.992, 126.500 62.205 C 115.584 55.156, 111 51.343, 111 49.313 C 111 47.596, 131.324 47.506, 145.624 49.160 C 155.085 50.254, 155.970 50.202, 159.121 48.361 C 165.609 44.572, 163.722 40.203, 153.210 34.680 C 149.378 32.666, 140.900 29.228, 134.371 27.040 C 123.224 23.305, 122.497 22.900, 122.452 20.404 C 122.393 17.182, 119.207 14.402, 113.947 12.986 C 111.822 12.414, 102.527 11.980, 93.292 12.022 C 84.056 12.064, 74.076 11.626, 71.114 11.049 C 64.508 9.763, 63.276 9.745, 62.547 10.924 M 70 14.540 C 70 16.044, 74.097 22.765, 76.153 24.633 C 78.905 27.134, 84.977 30.356, 85.657 29.676 C 85.916 29.417, 84.550 26.070, 82.620 22.239 C 79.620 16.281, 78.651 15.180, 75.931 14.636 C 72.039 13.858, 70 13.825, 70 14.540 M 92.500 14.689 C 93.728 15.848, 119.082 22.251, 119.760 21.573 C 120.914 20.419, 118.764 17.799, 115.566 16.463 C 111.581 14.798, 90.933 13.210, 92.500 14.689 M 83 16.458 C 83 16.783, 84.581 20.189, 86.513 24.025 L 90.025 31 96.475 31 C 102.827 31, 111.480 28.563, 115.459 25.654 C 117.082 24.467, 115.493 23.869, 101.899 20.557 C 93.430 18.494, 85.713 16.594, 84.750 16.335 C 83.787 16.077, 83 16.132, 83 16.458 M 116.691 28.158 C 115.146 29.310, 111.321 31.050, 108.191 32.024 L 102.500 33.796 106.283 34.515 C 110.943 35.402, 129.411 33.703, 133.500 32.012 L 136.500 30.771 129.555 28.386 C 121.163 25.503, 120.273 25.487, 116.691 28.158 M 139.901 33.432 C 139.663 33.670, 135.947 34.808, 131.643 35.962 C 124.023 38.004, 114.688 42.077, 113.603 43.834 C 113.306 44.314, 120.362 44.991, 129.282 45.340 C 138.202 45.689, 147.515 46.388, 149.979 46.895 C 154.889 47.904, 160 46.194, 160 43.542 C 160 40.164, 142.149 31.185, 139.901 33.432 M 56 37.090 C 48.834 38.013, 41.758 40.382, 40.061 42.427 C 37.118 45.973, 72.369 49.547, 88.184 47.306 L 93.868 46.500 91.863 41.881 C 89.922 37.409, 89.693 37.242, 84.679 36.640 C 77.894 35.824, 64.158 36.040, 56 37.090 M 93 37.391 C 93 37.606, 93.867 39.719, 94.927 42.086 L 96.854 46.390 102.151 46.109 C 106.445 45.881, 108.131 45.229, 111.053 42.664 C 113.036 40.924, 115.523 38.964, 116.579 38.309 C 118.129 37.347, 116.040 37.106, 105.750 37.059 C 98.737 37.026, 93 37.176, 93 37.391 M 99.026 51.567 C 100.859 56.389, 102.247 58.329, 107.623 63.577 C 111.951 67.803, 113 69.462, 113 72.085 C 113 73.876, 112.302 76.114, 111.448 77.057 C 110.040 78.614, 110.127 79.498, 112.392 86.636 C 113.764 90.961, 115.385 96.432, 115.994 98.793 L 117.100 103.087 124.177 99.293 C 132.654 94.749, 140.583 87.596, 141.574 83.599 C 142.078 81.565, 141.730 79.654, 140.410 77.203 C 138.368 73.411, 135.502 71.111, 121 61.628 C 115.775 58.211, 110.600 53.989, 109.500 52.246 C 107.722 49.429, 106.975 49.073, 102.775 49.039 C 98.110 49, 98.062 49.033, 99.026 51.567 M 76.221 56.128 C 70.211 57.220, 66.157 60.467, 63.394 66.401 C 59.893 73.919, 60.209 76.111, 65.406 80.369 C 67.829 82.355, 70.791 86.003, 71.988 88.475 C 73.874 92.372, 74.009 93.442, 73.001 96.497 C 70.147 105.144, 55.024 110.934, 30.500 112.770 L 20.500 113.519 24.940 116.788 C 27.382 118.587, 32.557 121.057, 36.440 122.279 C 45.279 125.060, 61.446 125.152, 80 122.528 C 86.875 121.555, 97.675 120.476, 104 120.130 L 115.500 119.500 115.402 115.098 C 115.281 109.620, 112.701 107.055, 109.881 109.608 C 106.513 112.656, 101.692 111.598, 93.670 106.053 C 85.012 100.067, 82.521 97.584, 83.532 95.949 C 84.669 94.109, 90.765 95.379, 99.996 99.379 C 104.585 101.367, 108.534 102.799, 108.772 102.561 C 109.406 101.927, 104.370 91.257, 100.838 85.750 C 98.097 81.476, 97.418 81, 94.059 81 C 90.560 81, 90.161 80.672, 87.664 75.736 C 82.400 65.332, 84.917 63.597, 93.222 71.902 C 99.101 77.781, 101.835 79.026, 104.772 77.162 C 105.763 76.533, 105.469 74.827, 103.437 69.427 C 100.176 60.764, 99.935 60.487, 93.659 58.176 C 87.148 55.778, 81.680 55.136, 76.221 56.128 M 105.189 66 C 107.778 73.351, 108.493 75, 109.094 75 C 110.289 75, 110.768 72.583, 109.987 70.500 C 109.086 68.101, 104.371 63.678, 105.189 66 M 89 71.350 C 89 73.398, 92.252 78, 93.700 78 C 95.047 78, 94.908 77.497, 92.939 75.250 C 91.614 73.737, 90.186 72.073, 89.765 71.550 C 89.344 71.027, 89 70.937, 89 71.350 M 102.243 80.665 C 101.314 81.039, 101.505 81.900, 102.972 83.961 C 106.083 88.330, 112 101.211, 112 103.615 C 112 104.809, 112.610 106.020, 113.355 106.306 C 115.035 106.951, 114.282 102.488, 110.559 89.735 C 109.152 84.914, 108 80.752, 108 80.485 C 108 79.868, 103.902 79.996, 102.243 80.665 M 88 98.470 C 88 99.528, 103.046 108.999, 104.705 108.985 C 105.692 108.976, 107.167 108.547, 107.983 108.032 C 109.106 107.321, 107.138 105.991, 99.867 102.547 C 90.936 98.316, 88 97.307, 88 98.470 M 120.777 105.841 C 116.091 106.671, 116.580 107.465, 125.500 113.497 C 129.350 116.101, 133.650 119.305, 135.055 120.616 C 137.355 122.763, 138.506 123, 146.623 123 C 168.604 123, 182.052 112.872, 167.268 107.452 C 163.474 106.061, 158.620 105.651, 143.500 105.443 C 133.050 105.299, 122.825 105.478, 120.777 105.841 M 118 115.941 C 118 119.849, 118.121 120.001, 121.250 120.024 C 123.037 120.037, 126.188 120.440, 128.250 120.919 C 130.313 121.398, 132 121.677, 132 121.540 C 132 121.277, 121.402 113.851, 119.250 112.605 C 118.336 112.077, 118 112.975, 118 115.941 M 116.574 126.105 C 112.644 135.011, 103.352 136.854, 81.389 133.081 C 74.728 131.936, 67.401 131, 65.107 131 C 59.850 131, 54.750 133.097, 52.596 136.144 C 50.958 138.461, 50.994 138.528, 54.743 140.191 C 60.684 142.826, 73.588 144, 96.601 144 C 112.599 144, 118.015 144.313, 118.820 145.284 C 120.971 147.875, 117.070 150.341, 102.635 155.514 L 93.769 158.691 86.215 155.407 C 70.664 148.647, 59.365 148.866, 55.703 156 C 50.875 165.407, 61.097 182.214, 74.316 186.605 C 80.052 188.510, 89.032 188.749, 93.267 187.108 C 95.364 186.296, 97.665 186.420, 102.767 187.620 C 111.680 189.715, 126.197 188.997, 134.630 186.044 C 140.950 183.831, 149 177.902, 149 175.461 C 149 173.526, 141.976 171.842, 136.812 172.537 C 134.441 172.857, 128.183 174.047, 122.906 175.182 L 113.313 177.245 99.906 173.587 C 92.533 171.575, 85.884 169.313, 85.132 168.560 C 82.233 165.661, 84.953 165, 99.809 164.992 C 123.713 164.978, 139.441 162.485, 143.430 158.077 C 144.529 156.863, 145.012 154.836, 144.852 152.115 C 144.718 149.847, 145.147 147.453, 145.804 146.796 C 147.887 144.713, 147.189 138.562, 144.398 134.390 C 139.091 126.456, 137.468 125.354, 129.188 124.062 C 124.960 123.402, 120.773 122.727, 119.886 122.560 C 118.830 122.363, 117.683 123.591, 116.574 126.105" stroke="none" fill="black" fill-rule="evenodd"/>
</svg>