<svg xmlns="http://www.w3.org/2000/svg" width="200" height="200" viewBox="0 0 200 200" version="1.1">
	<path d="M 141.541 6.934 C 141.179 7.519, 142.248 12.836, 143.916 18.749 C 148.772 35.969, 150.214 43.873, 150.345 54 C 150.475 64, 149.005 68.859, 145.240 70.870 C 143.623 71.733, 143.500 70.732, 143.497 56.649 C 143.494 44.476, 143.126 40.420, 141.621 36 C 136.602 21.256, 126.347 17.147, 118.077 26.566 C 109.312 36.547, 110.602 54.535, 121.163 69.611 C 125.226 75.411, 125.266 75.555, 124.085 79.972 C 122.530 85.788, 117.171 97, 115.947 97 C 115.424 97, 110.944 94.393, 105.991 91.206 L 96.987 85.413 99.913 80.798 C 101.523 78.260, 104.457 74.393, 106.433 72.206 L 110.026 68.229 102.013 65.381 C 92.172 61.885, 91.228 59.625, 99.168 58.572 C 102.010 58.195, 105.835 57.260, 107.668 56.494 C 110.394 55.355, 111 54.557, 111 52.102 C 111 48.388, 107.602 45.612, 96.741 40.454 C 90.523 37.501, 89 36.342, 89 34.563 C 89 31.610, 85.438 28.419, 79.999 26.500 C 74.046 24.399, 59.385 22.152, 49.284 21.793 C 36.346 21.332, 39.313 23.344, 53.578 24.705 C 73.559 26.611, 86 30.409, 86 34.601 C 86 35.576, 84.590 35.406, 80.250 33.909 C 66.473 29.156, 51.950 26.421, 48.966 28.018 C 44.727 30.287, 47.938 34.052, 59.805 40.732 L 66.500 44.500 54.636 45.242 C 36.619 46.369, 31.374 48.440, 35.364 52.850 C 37.173 54.848, 45.228 57.605, 52 58.543 C 59.441 59.574, 59.621 59.855, 54.800 62.912 C 48.331 67.014, 45 74.017, 45 83.515 C 45 92.079, 46.944 99.129, 50.948 105.084 L 53.918 109.500 44.494 111.712 C 33.066 114.394, 27 117.267, 27 119.997 C 27 125.056, 40.119 128.015, 62.956 128.109 C 80.093 128.179, 91.873 126.901, 101.506 123.925 L 107.836 121.970 111.322 124.028 C 120.434 129.404, 126.936 128.535, 134.072 120.987 L 138.645 116.151 143.440 119.271 L 148.236 122.390 145.868 124.341 C 144.566 125.414, 141.025 127.461, 138 128.891 C 132.895 131.304, 131.494 131.491, 118.500 131.495 C 110.800 131.498, 98.875 131.275, 92 131 C 80.016 130.521, 79.370 130.598, 76.343 132.869 C 72.520 135.739, 69.449 141.122, 70.329 143.415 C 70.683 144.336, 72.666 145.857, 74.736 146.795 C 78.036 148.290, 82.523 148.500, 111.161 148.500 C 129.125 148.500, 144.098 148.773, 144.435 149.107 C 145.670 150.332, 143.855 152.588, 138.932 155.947 L 133.889 159.389 127.195 157.561 C 118.540 155.197, 101.666 154.381, 93.120 155.913 C 85.202 157.331, 77.133 161.478, 75.056 165.196 C 73.649 167.716, 73.704 168.056, 75.896 170.389 C 80.360 175.141, 91.656 176.099, 111.699 173.426 C 125.981 171.521, 131.183 171.995, 146.016 176.548 C 161.191 181.208, 163.967 181.585, 167.937 179.533 C 173.687 176.559, 175.377 170.862, 175.268 154.815 C 175.218 147.288, 174.899 140.257, 174.560 139.189 C 174.113 137.780, 174.499 137.103, 175.972 136.718 C 178.841 135.967, 178.504 133.104, 174.907 127.673 C 170.345 120.786, 169.576 120.736, 170.356 127.376 L 171.025 133.062 168.262 131.334 C 166.743 130.383, 165.355 129.512, 165.178 129.397 C 165.001 129.283, 165.957 127.445, 167.303 125.313 C 170.903 119.610, 174.819 108.021, 176.655 97.635 C 178.751 85.779, 178.723 60.528, 176.590 40 C 174.344 18.372, 173.944 16, 172.541 16 C 171.625 16, 171.154 21.197, 170.707 36.250 C 170.101 56.691, 168.237 74.541, 165.459 86.521 C 163.354 95.595, 157.907 110.327, 157.025 109.327 C 156.623 108.872, 155.732 106.405, 155.044 103.844 C 153.295 97.334, 150.458 93, 147.946 93 C 146.293 93, 144.946 94.964, 141.417 102.516 L 136.970 112.031 127.985 105.990 C 123.043 102.667, 119 99.700, 119 99.396 C 119 99.092, 120.561 95.598, 122.469 91.630 C 124.378 87.663, 126.460 82.158, 127.097 79.398 L 128.256 74.379 124.120 68.939 C 113.442 54.897, 112.054 36.711, 120.978 27.786 C 125.325 23.440, 128.433 22.979, 132.393 26.095 C 138.824 31.153, 141.358 41.714, 140.852 61.356 C 140.468 76.232, 140.596 76.533, 145.960 73.364 C 154.877 68.097, 155.708 52.605, 148.533 25.406 C 146.712 18.507, 145.426 12.088, 145.673 11.142 C 146.212 9.081, 142.531 5.332, 141.541 6.934 M 52.959 33.038 C 54.861 34.664, 59.994 37.855, 64.365 40.129 L 72.312 44.264 77.798 41.573 C 80.815 40.094, 82.882 38.515, 82.391 38.065 C 80.121 35.982, 57.006 29.942, 51.685 30.041 C 49.714 30.077, 49.840 30.372, 52.959 33.038 M 78.160 45.001 C 72.304 47.771, 70.975 48, 60.742 48 C 47.050 48, 36.447 49.629, 37.995 51.494 C 41.931 56.236, 88.116 60.284, 92.159 56.241 C 92.726 55.674, 93.260 52.877, 93.345 50.026 C 93.604 41.349, 89.060 39.845, 78.160 45.001 M 173.102 47.506 C 172.773 66.818, 167.724 92.943, 161.535 107.351 C 157.985 115.616, 157.953 115.813, 159.223 121.535 C 159.931 124.726, 161.043 127.514, 161.696 127.732 C 163.319 128.273, 170.384 113.100, 172.395 104.752 C 175.117 93.456, 176.238 78.519, 175.527 63 C 174.776 46.604, 173.281 37.048, 173.102 47.506 M 95.500 49.500 C 95.500 56.829, 95.589 56.888, 103.574 54.877 C 108.703 53.586, 109.697 52.544, 107.885 50.362 C 106.703 48.937, 97.155 43.031, 96 43.009 C 95.725 43.004, 95.500 45.925, 95.500 49.500 M 87.750 60.662 C 88.438 60.940, 89.563 60.940, 90.250 60.662 C 90.938 60.385, 90.375 60.158, 89 60.158 C 87.625 60.158, 87.063 60.385, 87.750 60.662 M 64.654 62.027 C 51.894 64.224, 45.239 75.397, 47.991 90 C 49.428 97.620, 53.660 105.901, 57.127 107.873 C 58.700 108.768, 59.849 109.922, 59.680 110.439 C 59.512 110.955, 54.677 112.369, 48.937 113.580 C 37.049 116.089, 29.747 118.741, 30.284 120.353 C 31.347 123.541, 55.716 126.581, 72 125.556 C 85.661 124.696, 93.939 123.379, 101.333 120.888 L 107.329 118.868 113.609 122.056 C 118.787 124.683, 120.549 125.119, 123.645 124.539 C 127.568 123.803, 135.014 117.452, 134.984 114.868 C 134.976 114.115, 130.940 110.864, 126.015 107.642 L 117.062 101.783 113.037 104.970 C 107.211 109.585, 102.829 110.572, 98.211 108.310 C 92.914 105.715, 91.804 102.955, 92.351 93.737 L 92.813 85.974 88.369 83.370 L 83.925 80.766 79.019 85.883 C 71.491 93.735, 66.852 92.539, 67.118 82.816 C 67.303 76.077, 68.343 72.558, 70.258 72.189 C 71.216 72.004, 74.480 72.989, 77.511 74.376 L 83.022 76.899 86.095 70.811 C 89.618 63.833, 89.420 63.472, 81.548 62.524 C 71.084 61.265, 69.377 61.214, 64.654 62.027 M 88.812 71.551 L 85.124 78.053 88.812 80.347 C 90.840 81.609, 93.002 82.936, 93.616 83.296 C 94.260 83.675, 96.027 81.956, 97.800 79.226 C 99.489 76.627, 101.808 73.302, 102.955 71.837 L 105.040 69.174 99.770 67.441 C 96.872 66.488, 94.050 65.560, 93.500 65.379 C 92.950 65.198, 90.840 67.975, 88.812 71.551 M 70.607 76.582 C 69.680 78.998, 69.885 87.811, 70.882 88.427 C 72.029 89.136, 76.361 85.706, 79.002 81.997 L 81.079 79.081 77.079 77.040 C 72.266 74.585, 71.397 74.523, 70.607 76.582 M 94.939 92.227 C 92.660 100.690, 97.355 107.906, 104.292 106.605 C 107.502 106.003, 115.002 100.679, 114 99.713 C 113.725 99.448, 109.578 96.712, 104.784 93.632 L 96.068 88.032 94.939 92.227 M 143.528 104.372 C 141.459 109.015, 140.044 113.263, 140.384 113.812 C 140.723 114.361, 143.106 116.044, 145.678 117.551 L 150.355 120.292 152.641 117.425 C 155.158 114.269, 155.112 113.623, 151.625 103.061 C 150.456 99.520, 149.003 96.467, 148.395 96.276 C 147.787 96.086, 145.597 99.729, 143.528 104.372 M 154.182 120.080 C 153.050 121.893, 153.119 122.366, 154.683 123.510 C 157.039 125.233, 157.283 124.871, 156.305 121.098 C 155.518 118.062, 155.460 118.034, 154.182 120.080 M 148.010 126.187 C 143.731 129.663, 136.684 132.765, 130.141 134.052 C 124.014 135.257, 119.331 135.178, 90.968 133.388 L 80.436 132.723 76.718 136.230 C 74.673 138.158, 73 140.455, 73 141.333 C 73 145.134, 76.295 145.500, 110.500 145.500 C 128.650 145.500, 144.270 145.879, 145.212 146.342 C 150.004 148.700, 147.885 153.178, 139.102 159.256 L 134.704 162.300 125.602 160.197 C 112.680 157.211, 107.042 156.767, 97.701 158.002 C 85.308 159.641, 73.605 166.189, 78 169.025 C 83.105 172.319, 94.865 172.832, 113.181 170.560 C 127.129 168.830, 132.948 169.467, 148.909 174.472 C 155.099 176.412, 161.376 178, 162.859 178 C 166.676 178, 169.633 175.599, 171.173 171.247 C 172.787 166.688, 172.802 138.664, 171.192 136.745 C 170.617 136.060, 168.496 134.619, 166.479 133.542 C 163.054 131.713, 162.749 131.697, 161.856 133.292 C 160.399 135.897, 159.288 135.346, 158.599 131.677 C 158.134 129.196, 157.029 127.824, 154.238 126.259 L 150.500 124.164 148.010 126.187" stroke="none" fill="black" fill-rule="evenodd"/>
</svg>