<svg xmlns="http://www.w3.org/2000/svg" width="200" height="200" viewBox="0 0 200 200" version="1.1">
	<path d="M 87 9.096 C 83.975 9.562, 79.025 9.712, 76 9.430 C 65.181 8.423, 62.203 13.010, 68.934 20.313 C 74.367 26.207, 83.336 30.847, 92.272 32.386 C 98.782 33.507, 97.262 33.586, 76.963 33.183 C 58.079 32.807, 53.510 33.001, 48.778 34.376 C 42.922 36.078, 39 39.592, 39 43.135 C 39 45.805, 40.883 45.437, 41.980 42.552 C 44.415 36.148, 55.269 34.363, 82.651 35.864 L 101.500 36.897 104.250 40.161 C 105.763 41.956, 107 43.728, 107 44.100 C 107 44.471, 100.588 45.088, 92.750 45.470 C 69.656 46.597, 51 49.804, 51 52.648 C 51 53.604, 51.625 53.941, 52.750 53.593 C 60.724 51.125, 84.149 48.035, 95.079 48.009 C 98.135 48.001, 98.647 48.324, 98.579 50.216 C 98.507 52.248, 99.183 52.520, 106.766 53.509 C 112.603 54.270, 115.603 55.162, 116.975 56.544 C 119.235 58.820, 133.022 79.311, 132.586 79.747 C 132.424 79.909, 129.270 78.275, 125.575 76.116 C 121.881 73.957, 116.205 71.199, 112.963 69.986 C 107.707 68.021, 106.741 67.202, 104.057 62.446 C 97.208 50.312, 82.977 47.222, 67.551 54.519 C 62.752 56.790, 61.974 57.572, 61.301 60.806 C 60.147 66.359, 60.645 75.215, 62.341 79.274 C 64.756 85.054, 71.380 91.441, 78.253 94.615 C 84.163 97.344, 85.229 97.500, 98 97.500 C 113.179 97.500, 119.873 95.857, 130.315 89.569 L 135.880 86.218 136.940 89.258 C 138.796 94.581, 138.267 98.644, 135.430 100.877 C 131.451 104.007, 125.649 104.336, 106.706 102.506 C 86.799 100.583, 80 101.242, 76.017 105.482 L 73.766 107.878 68.633 105.793 C 52.994 99.440, 37.576 97.703, 31 101.552 C 18.400 108.928, 28.295 121.228, 46.880 121.292 C 51.071 121.306, 57.661 120.743, 61.524 120.039 C 67.576 118.938, 69.644 118.987, 76.457 120.396 C 84.178 121.992, 85.771 122.563, 84.912 123.422 C 84.679 123.654, 76.842 125.241, 67.495 126.950 C 47.799 130.550, 44.874 131.376, 42.483 134.019 C 41.009 135.647, 40.937 136.220, 42.039 137.547 C 43.972 139.876, 47.970 141.725, 55.583 143.811 L 62.349 145.664 57.924 148.740 C 47.989 155.647, 42.821 163.418, 43.786 169.997 C 44.529 175.057, 51.260 181.546, 60.325 185.942 L 68.500 189.907 78.873 188.493 C 100.308 185.571, 108.325 180.234, 101.512 173.421 C 99.114 171.023, 87.528 164.948, 82.797 163.607 C 80.622 162.991, 80.780 162.694, 85.772 158.022 C 88.672 155.308, 94.497 151.381, 98.716 149.296 C 105.294 146.045, 107.345 145.504, 113.117 145.502 C 121.073 145.500, 124.133 147.264, 128 154.089 C 130.236 158.035, 130.511 159.693, 130.600 169.811 C 130.709 182.068, 131.400 183.970, 137.361 188.420 C 140.097 190.463, 140.099 190.463, 143.762 188.482 C 148.702 185.809, 152.329 180.192, 155.694 170 C 158.141 162.589, 158.500 159.963, 158.500 149.500 C 158.500 139.496, 158.167 136.837, 156.500 133.513 C 152.383 125.306, 145.003 123.156, 134.475 127.095 C 128.173 129.453, 126.828 129.179, 118.377 123.820 C 114.975 121.662, 114.026 120.574, 114.837 119.763 C 115.517 119.083, 125.693 118.178, 141.222 117.417 C 171.837 115.917, 179.547 114.340, 183.439 108.783 C 185.697 105.561, 185.510 103.657, 183.066 104.965 C 177.887 107.736, 170.064 104.656, 151.315 92.462 C 144.817 88.236, 139.323 84.614, 139.107 84.413 C 138.892 84.213, 139.287 83.359, 139.985 82.518 C 140.869 81.452, 141.049 79.392, 140.577 75.743 C 139.165 64.846, 133.532 57.844, 123.012 53.905 C 112.111 49.823, 112.356 48.104, 123.750 48.738 C 133.092 49.257, 150.985 47.788, 158.565 45.879 C 167.518 43.625, 165.224 39.943, 150.500 32.929 C 145 30.310, 135.887 26.475, 130.250 24.408 C 121.138 21.067, 120 20.383, 120 18.248 C 120 10.253, 105.540 6.242, 87 9.096 M 90 11.260 C 90.993 12.211, 116.173 19.161, 116.703 18.630 C 117.702 17.631, 116.137 15.136, 113.376 13.327 C 111.310 11.973, 108.073 11.445, 100.073 11.159 C 94.258 10.951, 89.725 10.996, 90 11.260 M 68.667 12.667 C 65.078 16.256, 80.218 27.575, 91.250 29.551 C 93.313 29.920, 94.998 29.835, 94.995 29.361 C 94.992 28.888, 91.504 24.788, 87.244 20.250 C 79.513 12.014, 79.491 12, 74.416 12 C 71.621 12, 69.033 12.300, 68.667 12.667 M 88.803 17.631 C 90.540 19.759, 93.658 23.426, 95.731 25.780 L 99.500 30.061 104.612 28.532 C 110.217 26.857, 115.618 23.198, 114.321 21.955 C 113.482 21.151, 95.263 15.750, 89.072 14.471 L 85.644 13.763 88.803 17.631 M 115.300 25.970 C 113.540 27.572, 109.828 29.689, 107.050 30.676 C 104.273 31.662, 102 32.870, 102 33.361 C 102 34.372, 129.603 33.654, 132.121 32.578 C 133.125 32.149, 133.955 32.440, 134.301 33.341 C 134.713 34.416, 131.978 36.058, 123.861 39.606 C 117.812 42.250, 112.607 44.827, 112.295 45.332 C 111.498 46.621, 146.983 45.502, 154.779 43.992 C 162.203 42.554, 161.946 41.513, 153.060 37.036 C 148.305 34.640, 119.705 22.944, 118.809 23.029 C 118.639 23.045, 117.060 24.369, 115.300 25.970 M 106 37.826 C 106 38.280, 107.013 39.567, 108.250 40.687 L 110.500 42.722 116.500 39.910 L 122.500 37.098 114.250 37.049 C 109.713 37.022, 106 37.372, 106 37.826 M 104.244 48.664 C 101.725 49.680, 104.233 51, 108.681 51 C 112.624 51, 113.076 50.796, 112 49.500 C 110.797 48.050, 106.828 47.623, 104.244 48.664 M 77.500 53.650 C 76.400 53.943, 72.939 55.316, 69.808 56.702 L 64.116 59.221 63.448 64.568 C 62.437 72.661, 64.376 79.090, 69.571 84.868 C 79.134 95.504, 98.016 98.522, 117.500 92.528 C 123.179 90.781, 132.211 86, 132.669 84.500 C 133.152 82.915, 111.229 71, 107.829 71 C 107.325 71, 106.985 71.563, 107.075 72.250 C 107.829 78.061, 104.848 82, 99.696 82 C 96.291 82, 90.378 78.697, 84.034 73.251 L 80.567 70.275 84.034 68.430 C 86.516 67.108, 89.699 66.572, 95.245 66.542 C 99.505 66.519, 102.993 66.267, 102.995 65.982 C 103.013 64.011, 97.218 57.642, 93.838 55.918 C 89.740 53.827, 81.258 52.650, 77.500 53.650 M 121 56.439 C 121 56.624, 124.375 61.826, 128.500 68 C 132.625 74.174, 136 79.625, 136 80.113 C 136 80.601, 136.450 81, 137 81 C 138.375 81, 138.255 75.586, 136.770 70.616 C 135.327 65.785, 128.786 58.818, 124.191 57.216 C 122.436 56.605, 121 56.255, 121 56.439 M 87.750 69.670 C 85.247 70.352, 85.547 71.138, 89.522 74.310 C 97.424 80.615, 103.209 81, 104.635 75.316 C 105.778 70.763, 104.058 69.517, 96.395 69.346 C 92.603 69.262, 88.713 69.407, 87.750 69.670 M 140.447 94.475 C 140.491 99.023, 140.076 100.375, 137.999 102.454 C 133.909 106.547, 127.412 107.198, 108.722 105.388 C 86.240 103.211, 78.026 104.192, 76.421 109.248 C 75.670 111.615, 75.052 111.522, 65.124 107.550 C 49.633 101.353, 35.977 100.535, 30.252 105.460 C 27.885 107.496, 27.665 108.154, 28.520 110.646 C 30.131 115.338, 37.694 118.461, 47.500 118.483 C 51.900 118.492, 58.200 117.903, 61.500 117.172 C 66.878 115.982, 68.528 116.055, 77.419 117.877 C 87.246 119.891, 90.903 121.730, 89.521 123.966 C 88.370 125.828, 85.056 126.730, 69.339 129.461 C 52.858 132.324, 44 134.595, 44 135.956 C 44 137.146, 54.037 140.892, 61.191 142.372 C 64.322 143.020, 67.164 143.830, 67.507 144.174 C 67.850 144.517, 66.414 146.054, 64.316 147.590 C 52.416 156.296, 50.047 158.435, 47.973 162.345 C 46.373 165.361, 45.896 167.448, 46.372 169.346 C 47.501 173.846, 53.789 179.787, 61.371 183.520 L 68.500 187.029 77 185.969 C 96.716 183.508, 104.643 179.518, 99.250 174.769 C 96.807 172.617, 88.491 168.601, 82.250 166.558 C 79.363 165.613, 77 164.379, 77 163.816 C 77 161.586, 88.956 151.271, 95.532 147.828 C 109.359 140.587, 120.082 140.619, 127.037 147.922 C 131.770 152.892, 133.359 158.487, 133.450 170.500 C 133.510 178.440, 133.902 181.058, 135.352 183.211 C 139.435 189.270, 144.369 187.283, 149.714 177.427 C 155.565 166.639, 158.279 146.210, 155.114 136.783 C 152.285 128.353, 144.402 125.866, 134.091 130.151 L 128.915 132.302 123.771 129.901 C 116.960 126.722, 111 122.342, 111 120.517 C 111 116.755, 115.245 115.851, 137.210 114.934 C 161.764 113.909, 166.452 113.447, 174 111.306 L 179.500 109.746 174.488 108.015 C 167.459 105.587, 161.995 102.679, 150.704 95.354 C 145.317 91.859, 140.793 89, 140.651 89 C 140.510 89, 140.418 91.464, 140.447 94.475" stroke="none" fill="black" fill-rule="evenodd"/>
</svg>