<svg xmlns="http://www.w3.org/2000/svg" width="200" height="200" viewBox="0 0 200 200" version="1.1">
	<path d="M 90 10.551 C 76.525 11.908, 64.037 12.769, 62.250 12.464 L 59 11.909 59 16.297 C 59 23.413, 62.571 28.945, 69.436 32.464 C 74.558 35.090, 76.207 35.424, 83.859 35.390 C 90.893 35.359, 93.741 34.848, 99.171 32.639 L 105.842 29.926 113.339 33.583 C 122.174 37.894, 128 42.420, 128 44.975 C 128 47.097, 123.438 49, 118.351 49 C 115.176 49, 115 48.812, 115 45.434 C 115 35.583, 106.363 32.687, 89.695 36.950 C 83.219 38.606, 81.123 38.740, 75.785 37.835 C 65.325 36.062, 50.116 36.375, 45.739 38.453 C 41.555 40.439, 40.174 43.588, 41.994 46.990 C 43.448 49.706, 52.017 53.755, 57.993 54.550 C 65.366 55.531, 65.509 55.808, 60.421 59.258 C 54.259 63.436, 51.511 68.671, 51.606 76.050 C 51.645 79.103, 52.122 82.396, 52.666 83.368 C 53.210 84.340, 57.293 86.602, 61.740 88.395 C 71.856 92.474, 75 94.515, 75 97.003 C 75 99.899, 69.454 102.297, 52.974 106.527 C 34.600 111.243, 30.394 113.256, 31.716 116.702 C 33.228 120.643, 52.817 126.342, 60.052 124.945 C 66.735 123.656, 67.763 123.777, 65.223 125.557 C 64 126.413, 63 127.900, 63 128.860 C 63 132.266, 68.104 140.813, 71.531 143.147 C 73.431 144.441, 74.846 145.950, 74.676 146.500 C 74.411 147.357, 63.263 155.548, 59.116 157.933 C 58.355 158.371, 57.521 160.931, 57.262 163.622 C 56.246 174.196, 61.165 182.565, 70.150 185.550 C 84.668 190.372, 115.220 182.090, 120.964 171.776 C 122.348 169.290, 122.325 168.897, 120.696 167.276 C 119.144 165.732, 117.025 165.509, 104.455 165.569 C 93.948 165.619, 90 165.314, 90 164.454 C 90 160.703, 102.299 151.021, 113.654 145.834 C 122.906 141.607, 133.275 140.771, 138.255 143.849 C 143.132 146.862, 144 149.622, 144 162.104 C 144 179.159, 146.587 186, 153.036 186 C 162.882 186, 175.658 159.025, 173.574 142.636 C 172.304 132.645, 165.574 122.514, 161.002 123.710 C 159.079 124.213, 148.386 118.281, 149.395 117.272 C 150.083 116.584, 156.962 118.912, 160.905 121.168 C 163.213 122.488, 164.527 122.765, 164.984 122.027 C 165.981 120.413, 172.783 80.138, 174.108 68 C 175.983 50.815, 174.176 35.047, 169.235 25.500 C 165.839 18.938, 155.285 10, 150.932 10 C 150.100 10, 149.846 12.944, 150.046 20.250 C 150.201 25.888, 150.236 35.450, 150.124 41.500 C 149.932 51.874, 149.835 52.343, 148.427 49.747 C 147.605 48.233, 145.844 40.463, 144.514 32.481 C 141.864 16.587, 140.831 13.664, 136.812 10.691 C 132.740 7.678, 118.939 7.637, 90 10.551 M 99 12.489 C 92.125 13.228, 84.700 13.919, 82.500 14.024 L 78.500 14.214 83 15.110 C 85.475 15.603, 89.975 16.508, 93 17.121 C 101.105 18.765, 105.953 21.516, 106.620 24.850 C 107.081 27.156, 108.540 28.280, 115.227 31.485 C 124.742 36.046, 131.318 41.772, 130.830 45.071 C 130.330 48.451, 126.024 51.039, 119.840 51.677 C 115.001 52.176, 114.180 52.582, 113.364 54.874 C 112.520 57.246, 112.927 57.956, 117.578 62.225 C 125.637 69.622, 126.825 76.986, 121.522 86.660 L 119.241 90.820 123.431 94.933 L 127.621 99.045 131.696 97.607 C 136.483 95.918, 142.820 92.040, 145.139 89.380 C 147.209 87.005, 147.765 84.211, 148.968 70.151 L 149.939 58.801 147.030 53.151 C 144.835 48.887, 143.497 43.706, 141.578 32.040 C 138.204 11.533, 138.250 11.584, 122.734 11.328 C 116.555 11.227, 105.875 11.749, 99 12.489 M 153 36.515 C 153 54.269, 153.345 60.271, 154.631 64.897 C 156.619 72.048, 155.933 77.955, 152.331 84.703 C 150.922 87.341, 148.696 93.918, 147.384 99.317 C 146.072 104.717, 144.550 109.973, 144.002 110.997 C 143.108 112.666, 143.601 112.980, 148.752 114.025 C 151.914 114.666, 156.410 116.022, 158.746 117.037 L 162.991 118.884 163.467 116.692 C 168.753 92.331, 172.303 63.561, 171.695 50 C 171.115 37.072, 169.442 30.520, 165.014 23.835 C 162.352 19.816, 155.659 14, 153.696 14 C 153.313 14, 153 24.132, 153 36.515 M 62.004 18.750 C 62.009 22.902, 65.418 27.653, 70.211 30.188 C 73.827 32.101, 75.991 32.449, 84 32.406 C 90.695 32.371, 94.676 31.847, 97.484 30.631 C 100.641 29.265, 101.159 28.707, 99.984 27.944 C 98.136 26.745, 65.170 16, 63.339 16 C 62.544 16, 62.002 17.118, 62.004 18.750 M 92.418 21.982 C 103.014 25.879, 106.598 26.374, 102.498 23.374 C 100.148 21.654, 92.356 19.376, 86 18.551 C 82.528 18.100, 83.993 18.883, 92.418 21.982 M 88.942 39.891 C 82.990 41.498, 81.560 41.534, 73.442 40.279 C 63.491 38.742, 50.977 39.116, 46.704 41.078 C 40.744 43.816, 45.755 49.027, 56.862 51.642 C 65 53.557, 75.712 53.302, 87.343 50.916 C 93.921 49.567, 100.037 48.956, 104.700 49.183 C 111.423 49.511, 111.937 49.388, 112.452 47.336 C 113.188 44.403, 111.561 40.371, 109.114 39.061 C 106.162 37.481, 96.375 37.884, 88.942 39.891 M 100.788 54.020 C 104.796 55.070, 108.462 56.167, 108.933 56.459 C 109.756 56.967, 111 54.835, 111 52.918 C 111 52.413, 107.063 52.025, 102.250 52.055 L 93.500 52.110 100.788 54.020 M 73.500 56.342 C 59.333 60.042, 52.812 67.589, 54.434 78.408 C 55.072 82.660, 55.261 82.854, 60.829 84.936 C 73.964 89.848, 79.495 94.661, 77.620 99.547 C 76.669 102.027, 67.314 105.759, 52.370 109.621 C 44.742 111.592, 37.403 113.778, 36.061 114.479 L 33.623 115.754 36.623 117.305 C 38.273 118.158, 43.188 119.770, 47.545 120.886 L 55.466 122.915 82.483 118.395 C 100.830 115.325, 114.211 113.654, 124.181 113.187 L 138.861 112.500 133.046 107.284 L 127.231 102.067 121.540 102.994 C 108.306 105.147, 103.001 100.579, 110.891 93.825 L 114.782 90.494 107.641 84.224 L 100.500 77.953 97.507 81.727 C 95.860 83.802, 92.683 87.467, 90.446 89.871 L 86.378 94.242 83.175 86.135 C 79.419 76.630, 77.465 68.836, 78.296 66.671 C 80.087 62.003, 86.029 63.274, 95.165 70.280 L 99.829 73.856 102.261 70.178 C 107.072 62.903, 108.322 59.820, 106.844 58.871 C 101.847 55.660, 81.903 54.148, 73.500 56.342 M 109.688 63.250 C 108.941 64.487, 106.917 67.750, 105.190 70.500 L 102.050 75.500 109.275 82.137 C 113.249 85.788, 116.884 88.545, 117.354 88.264 C 118.964 87.302, 121.956 79.501, 121.978 76.210 C 122.007 71.861, 118.937 66.042, 115.140 63.250 C 113.458 62.013, 111.848 61, 111.564 61 C 111.279 61, 110.435 62.013, 109.688 63.250 M 81 68.825 C 81 71.207, 83.829 80.675, 86.518 87.293 C 87.217 89.011, 87.329 89.012, 89.209 87.311 C 91.598 85.149, 98.384 76.008, 97.870 75.646 C 97.666 75.503, 95.700 74.011, 93.500 72.330 C 89.145 69.003, 83.713 66, 82.050 66 C 81.472 66, 81 67.271, 81 68.825 M 151.619 72.811 C 151.163 76.283, 151.033 79.366, 151.330 79.664 C 152.173 80.506, 153.194 73.753, 152.801 69.933 C 152.520 67.188, 152.283 67.764, 151.619 72.811 M 113.253 95.250 C 111.483 96.487, 110.027 98.054, 110.017 98.731 C 109.992 100.516, 114.327 101.328, 119.632 100.532 L 124.239 99.842 120.923 96.421 C 119.100 94.539, 117.352 93, 117.040 93 C 116.727 93, 115.023 94.013, 113.253 95.250 M 142.500 95.220 C 140.850 96.290, 137.504 98.087, 135.065 99.212 L 130.630 101.257 135.257 105.629 C 137.802 108.033, 140.310 110, 140.832 110 C 141.719 110, 146.531 94.135, 145.824 93.544 C 145.646 93.395, 144.150 94.149, 142.500 95.220 M 123.500 115.650 C 116.345 116.127, 85.948 120.282, 86.389 120.722 C 87.461 121.794, 116.160 127.983, 120 127.971 C 122.475 127.963, 126.319 127.130, 128.541 126.120 C 132.848 124.164, 138.327 118.491, 137.713 116.624 C 137.327 115.449, 131.989 115.084, 123.500 115.650 M 138.619 120.967 C 131.162 131.347, 121.127 132.956, 100 127.159 C 86.226 123.379, 76.793 123.003, 70.250 125.973 C 67.843 127.066, 66 128.591, 66 129.491 C 66 132.766, 70.177 139.089, 74.020 141.632 C 76.209 143.080, 78 145.068, 78 146.049 C 78 148.011, 73.331 152.005, 65.250 156.955 L 60 160.172 60 165.521 C 60 174.611, 63.792 180.745, 70.915 183.178 C 75.879 184.874, 88.218 184.555, 96 182.530 C 108.008 179.404, 120.406 172.084, 118.611 169.180 C 117.639 167.607, 110.181 167.231, 99.697 168.226 C 88.900 169.250, 87 168.662, 87 164.291 C 87 159.237, 101.495 147.883, 115.221 142.184 C 123.576 138.715, 135.390 138.414, 139.611 141.562 C 145.828 146.197, 146.492 148.077, 146.594 161.323 C 146.697 174.785, 148.056 181.424, 151.034 183.018 C 158.253 186.882, 170.930 163.953, 170.985 146.932 C 171.018 136.747, 166.155 127, 161.041 127 C 158.324 127, 147.625 120.663, 144.998 117.498 C 143.121 115.236, 142.491 115.578, 138.619 120.967" stroke="none" fill="black" fill-rule="evenodd"/>
</svg>