<svg xmlns="http://www.w3.org/2000/svg" width="200" height="200" viewBox="0 0 200 200" version="1.1">
	<path d="M 63.077 12.408 C 60.939 14.983, 62.633 18.464, 68.742 24.048 C 78.602 33.060, 84.314 36.323, 91.091 36.813 C 94.359 37.049, 97.320 37.709, 97.673 38.279 C 98.112 38.991, 90.821 39.100, 74.407 38.625 C 59.015 38.181, 48.560 38.307, 45.052 38.979 C 38.293 40.275, 34.788 43.268, 35.203 47.392 C 35.640 51.737, 38 52.001, 38 47.705 C 38 41.824, 40.151 41.455, 72.500 41.790 L 100.500 42.079 103.657 45.790 C 105.393 47.830, 106.694 49.624, 106.548 49.776 C 106.070 50.271, 65.679 52.957, 58.375 52.979 C 50.255 53.003, 45 53.846, 45 55.125 C 45 56.404, 58.687 56.173, 82 54.500 C 93.275 53.691, 104.075 53.028, 106 53.026 L 109.500 53.024 104.750 56.130 C 100.099 59.172, 98.146 62.721, 101.750 61.582 C 106.806 59.984, 113.586 59.242, 114.699 60.165 C 116.631 61.769, 131.734 84.541, 134.548 90.094 C 136.980 94.895, 137.032 95.303, 135.493 97.651 L 133.867 100.132 129.184 96.395 C 122.221 90.840, 122.363 91.012, 123.929 90.044 C 125.937 88.803, 124.309 86.622, 111.868 73.884 C 99.195 60.907, 93.244 57.525, 84.230 58.177 C 73.325 58.966, 60.621 67.794, 57.590 76.690 C 51.867 93.487, 63.729 107.587, 87.353 112.067 C 100.103 114.485, 122.510 111.530, 130.303 106.404 L 134.105 103.902 137.553 106.033 C 141.104 108.228, 141.831 110.580, 140.008 113.986 C 137.759 118.188, 132.834 118.443, 61 118.089 C 27.694 117.925, 17.255 118.735, 16.315 121.556 C 15.695 123.414, 22.639 130.486, 27.888 133.342 C 34.381 136.876, 44.032 137.983, 57.476 136.736 C 74.590 135.148, 82.271 135.292, 85.271 137.258 C 89.734 140.182, 90.264 142.216, 88.392 149.240 C 86.081 157.916, 86.027 170.275, 88.275 176.099 C 92.101 186.011, 99.769 188.524, 106.445 182.053 C 111.995 176.674, 113.500 170.831, 113.500 154.664 C 113.500 140.932, 113.520 140.810, 116.153 138.545 C 120.699 134.634, 129.591 133.643, 152.905 134.450 C 164.288 134.843, 175.300 134.847, 177.377 134.457 C 180.843 133.807, 181.101 133.533, 180.507 131.124 C 179.382 126.556, 174.846 117.171, 172.924 115.431 C 171.731 114.352, 168.207 113.467, 163.021 112.944 C 158.118 112.450, 152.922 111.188, 149.735 109.717 C 144.750 107.418, 144.394 106.993, 142.285 100.815 C 140.429 95.378, 140.243 93.702, 141.138 90.464 C 144.840 77.055, 134.072 59.671, 120.698 57.466 C 116.315 56.743, 114 55.458, 114 53.746 C 114 52.629, 121.804 53.023, 139.500 55.032 C 148 55.997, 151.462 56.014, 154.733 55.106 C 159.319 53.834, 161.487 51.108, 160.467 47.897 C 158.761 42.521, 146.532 32.825, 141.909 33.182 C 140.584 33.285, 135.563 31.876, 130.750 30.052 C 123.912 27.459, 122 26.312, 122 24.802 C 122 20.430, 118.391 17.268, 110.558 14.778 C 108.876 14.244, 100.525 13.387, 92 12.874 C 83.475 12.361, 73.772 11.693, 70.438 11.391 C 65.672 10.959, 64.099 11.176, 63.077 12.408 M 65 15.171 C 65 17.075, 73.182 24.894, 80.416 29.903 C 84.871 32.989, 87.295 34, 90.235 34 L 94.139 34 87.819 26.424 C 84.344 22.256, 80.756 17.893, 79.848 16.727 C 78.539 15.048, 76.824 14.520, 71.598 14.187 C 66.401 13.856, 65 14.065, 65 15.171 M 105.380 20.516 C 112.463 23.023, 118.482 24.852, 118.753 24.580 C 120.027 23.306, 117.594 20.708, 113.384 18.846 C 110.396 17.524, 105.852 16.644, 100.622 16.375 L 92.500 15.957 105.380 20.516 M 85.193 18.774 C 85.912 19.750, 89.143 23.750, 92.373 27.663 C 98.178 34.694, 98.294 34.771, 102.373 34.301 C 108.017 33.650, 115.609 31.176, 116.961 29.547 C 117.854 28.470, 116.514 27.607, 110.203 25.198 C 101.474 21.864, 86.455 17, 84.892 17 C 84.332 17, 84.465 17.786, 85.193 18.774 M 118.415 31.683 C 116.812 32.980, 113.475 34.645, 111 35.384 L 106.500 36.727 111.852 37.471 C 117.181 38.212, 129.572 37.476, 134.656 36.117 C 137.046 35.478, 136.487 35.085, 129.327 32.364 L 121.329 29.326 118.415 31.683 M 135.500 40.928 C 130.550 43.513, 124.972 46.579, 123.105 47.741 L 119.710 49.855 123.105 50.393 C 146.063 54.032, 158 53.672, 158 49.341 C 158 47.607, 149.707 38.970, 146.340 37.198 C 144.916 36.448, 142.464 37.292, 135.500 40.928 M 102.269 37.693 C 103.242 37.947, 104.592 37.930, 105.269 37.656 C 105.946 37.382, 105.150 37.175, 103.500 37.195 C 101.850 37.215, 101.296 37.439, 102.269 37.693 M 105.245 40.827 C 103.514 41.927, 109.752 50, 112.333 50 C 113.381 50, 116.997 48.347, 120.369 46.326 C 131.663 39.559, 131.794 39.998, 118.473 40.015 C 111.888 40.024, 105.935 40.389, 105.245 40.827 M 109.813 56.683 C 110.534 56.972, 111.397 56.936, 111.729 56.604 C 112.061 56.272, 111.471 56.036, 110.417 56.079 C 109.252 56.127, 109.015 56.364, 109.813 56.683 M 125.222 70.145 C 129.225 75.869, 133.624 82.677, 134.998 85.276 C 136.372 87.874, 137.835 90, 138.248 90 C 139.368 90, 139.146 82.067, 137.901 77.582 C 135.514 68.986, 128.605 61.871, 121.205 60.391 L 117.943 59.739 125.222 70.145 M 74.446 63.479 C 63.527 68.951, 59.018 75.568, 59.006 86.137 C 58.985 103.314, 87.755 114.712, 115.500 108.518 C 123.448 106.744, 131 103.661, 131 102.191 C 131 101.537, 126.874 97.882, 120.936 93.277 C 119.679 92.302, 118.007 92.545, 112.436 94.511 C 107.720 96.175, 103.315 96.965, 98.673 96.979 C 92.447 96.998, 91.589 96.743, 88.923 94.077 C 86.415 91.569, 86.003 90.397, 86.022 85.827 C 86.046 79.893, 88.258 74.198, 92.478 69.198 C 95.787 65.278, 98.887 65.255, 100.741 69.137 C 102.162 72.112, 119.936 89.397, 120.743 88.590 C 121.429 87.904, 110.203 75.272, 103.647 69.353 C 100.816 66.796, 96.700 63.881, 94.500 62.874 C 88.629 60.188, 80.526 60.432, 74.446 63.479 M 93.467 72.455 C 90.227 76.703, 87.748 84.578, 88.531 88.141 C 89.809 93.960, 95.527 95.850, 105.122 93.623 C 108.630 92.809, 112.782 91.655, 114.349 91.058 L 117.199 89.974 107.599 80.889 C 102.320 75.893, 98 71.173, 98 70.402 C 98 68.032, 96.228 68.835, 93.467 72.455 M 137.144 99.730 C 136.150 101.587, 136.277 102.078, 137.987 102.993 C 140.200 104.178, 140.516 103.181, 139.087 99.522 C 138.333 97.594, 138.285 97.599, 137.144 99.730 M 143.088 113.634 C 140.843 119.843, 138.239 120.475, 114.500 120.576 C 102.950 120.626, 91.925 120.982, 90 121.368 C 88.075 121.754, 76.150 121.660, 63.500 121.158 C 42.831 120.338, 21.685 120.982, 20.191 122.476 C 19.059 123.608, 26.436 129.942, 31.382 132.084 C 37.268 134.633, 45.227 134.963, 69 133.645 C 82.631 132.888, 83.692 132.962, 86.701 134.876 C 88.462 135.995, 90.615 138.289, 91.485 139.972 C 92.926 142.757, 92.927 143.502, 91.498 148.266 C 89.304 155.579, 88.522 167.609, 89.909 172.705 C 92.584 182.536, 99.149 185.697, 104.915 179.931 C 109.792 175.054, 111.396 167.808, 110.693 153.830 C 110.143 142.883, 110.247 141.929, 112.328 138.842 C 113.737 136.750, 116.369 134.808, 119.525 133.530 C 124.147 131.660, 126.394 131.536, 151.199 131.787 L 177.898 132.057 176.361 127.546 C 175.515 125.064, 173.835 121.564, 172.626 119.767 C 170.559 116.695, 169.983 116.462, 162.964 115.871 C 158.340 115.481, 153.371 114.291, 149.906 112.745 L 144.312 110.248 143.088 113.634" stroke="none" fill="black" fill-rule="evenodd"/>
</svg>