<svg xmlns="http://www.w3.org/2000/svg" width="200" height="200" viewBox="0 0 200 200" version="1.1">
	<path d="M 65.750 9.080 C 64.667 9.711, 64 11.305, 64 13.263 C 64 19.696, 79.424 30.939, 91.951 33.637 C 96.806 34.683, 94.279 34.843, 71.750 34.916 C 57.587 34.962, 46 35.392, 46 35.871 C 46 37.324, 61.455 38.204, 80.870 37.856 L 99.240 37.527 102.175 41.763 L 105.110 46 101.776 46 C 99.942 46, 92.155 46.893, 84.471 47.984 C 68.670 50.229, 56.034 50.541, 49.330 48.853 C 44.868 47.729, 38.891 42.955, 36.367 38.500 C 34.472 35.154, 33.526 37.782, 35.291 41.485 C 37.565 46.253, 44.020 50.653, 50.823 52.074 C 56.115 53.179, 68.471 52.939, 81 51.488 L 85.500 50.967 80.951 52.278 C 68.030 56.001, 59.524 66.694, 57.621 81.607 C 56.974 86.677, 56.997 86.732, 60.784 89.239 C 84.290 104.794, 114.203 106.753, 130.387 93.797 L 134.275 90.685 143.637 95.336 C 148.787 97.894, 153 100.408, 153 100.923 C 153 102.021, 145.887 103.544, 134 104.989 C 129.325 105.557, 111.100 106.308, 93.500 106.657 C 62.923 107.263, 61.125 107.196, 53.060 105.146 C 37.964 101.308, 27.704 102.889, 24.548 109.540 C 23.141 112.504, 23.116 113.334, 24.342 116.212 C 25.112 118.021, 26.826 120.497, 28.150 121.716 C 33.759 126.881, 46.574 128.506, 57.068 125.384 C 61.133 124.175, 65.212 123.880, 73.276 124.210 C 85.396 124.707, 87.513 125.665, 83.488 128.831 C 77.886 133.237, 53.827 141, 45.772 141 L 41.864 141 44.085 144.119 C 47.552 148.988, 54.289 152.699, 62.034 154.006 C 69.139 155.204, 74.346 154.942, 93.284 152.430 C 112.463 149.887, 119.582 150.936, 121.750 156.627 C 122.352 158.207, 123.057 164.012, 123.316 169.527 C 123.581 175.171, 124.452 181.147, 125.310 183.199 C 127.223 187.778, 130.897 190.315, 134.358 189.446 C 140.444 187.919, 149.074 174.560, 151.989 162.153 C 153.740 154.705, 152.899 142.218, 150.355 137.889 C 148.593 134.890, 147.911 134.517, 144.432 134.650 C 124.459 135.412, 123.198 135.360, 120.608 133.663 C 117.234 131.452, 117.316 129.754, 120.942 126.703 C 126.950 121.647, 140.138 120.726, 152.164 124.523 L 157.828 126.311 167.164 123.067 C 176.404 119.857, 181 116.937, 181 114.278 C 181 111.793, 175.901 108.109, 164.116 102.077 C 154.947 97.384, 151.156 94.768, 146.120 89.658 C 139.887 83.333, 139.766 83.109, 140.870 79.943 C 141.492 78.160, 142 75.592, 142 74.236 C 142 69.930, 136.994 62.184, 132.127 58.961 C 128.019 56.240, 119.487 53, 116.429 53 C 115.765 53, 114.159 52.115, 112.861 51.033 C 110.022 48.669, 112.161 48.305, 116 50.500 C 119.013 52.222, 137.900 52.530, 146.114 50.991 C 156.719 49.003, 159.853 43.319, 154.012 36.667 C 150.362 32.509, 142.853 28.595, 140.165 29.448 C 137.112 30.417, 129.141 26.346, 123.050 20.707 C 112.629 11.059, 98.403 5.877, 92.275 9.497 C 89.516 11.127, 88.885 11.134, 82.218 9.618 C 74.141 7.781, 68.308 7.590, 65.750 9.080 M 66.595 11.846 C 64.060 15.949, 81.450 29.063, 91.614 30.712 L 95.032 31.267 92.525 25.883 C 91.146 22.923, 89.740 19.045, 89.401 17.267 C 88.895 14.615, 88.130 13.844, 85.142 12.973 C 79.344 11.284, 67.392 10.557, 66.595 11.846 M 93.500 12 C 93.160 12.550, 93.471 13.012, 94.191 13.028 C 94.911 13.043, 101.249 15.228, 108.275 17.884 C 122.741 23.352, 123.472 21.863, 109.704 14.972 C 101.873 11.053, 94.878 9.770, 93.500 12 M 92.552 18.289 C 92.933 20.055, 94.247 23.484, 95.471 25.910 L 97.698 30.319 104.599 30.879 C 116.786 31.867, 124.048 31.540, 125.025 29.960 C 125.515 29.166, 125.598 28.209, 125.208 27.833 C 124.239 26.897, 110.295 21.375, 100.179 17.920 L 91.858 15.079 92.552 18.289 M 127.142 31.145 C 125.855 33.205, 125.930 33.264, 129.026 32.645 C 130.799 32.290, 132.981 31.982, 133.875 31.961 C 135.030 31.933, 129.830 29, 128.626 29 C 128.546 29, 127.878 29.965, 127.142 31.145 M 142 33.365 C 142 34.081, 141.438 34.687, 140.750 34.713 C 139.297 34.766, 113 44.998, 113 45.510 C 113 45.699, 114.419 46.561, 116.154 47.427 C 118.463 48.579, 122.332 49, 130.604 49 C 143.622 49, 151.066 47.690, 153.533 44.964 C 155.134 43.194, 155.143 42.868, 153.652 40.592 C 150.670 36.040, 142 30.663, 142 33.365 M 101.250 33.689 C 102.213 33.941, 103.787 33.941, 104.750 33.689 C 105.713 33.438, 104.925 33.232, 103 33.232 C 101.075 33.232, 100.287 33.438, 101.250 33.689 M 115.750 36.311 C 108.737 36.849, 103.002 37.562, 103.005 37.895 C 103.008 38.228, 104.074 39.830, 105.375 41.456 L 107.740 44.412 118.870 40.051 C 124.992 37.652, 130 35.534, 130 35.345 C 130 35.155, 129.662 35.075, 129.250 35.166 C 128.838 35.258, 122.763 35.773, 115.750 36.311 M 104.497 49.378 C 102.798 50.621, 102.899 50.758, 105.829 51.188 C 109.197 51.682, 109.852 50.952, 107.668 49.139 C 106.684 48.323, 105.856 48.385, 104.497 49.378 M 89.500 49.916 L 85.500 50.547 91.165 51.272 C 94.281 51.671, 97.510 52.259, 98.342 52.578 C 99.479 53.014, 99.719 52.642, 99.310 51.079 C 98.733 48.869, 97.243 48.693, 89.500 49.916 M 105.119 55.833 C 112.591 60.616, 118 69.188, 118 76.249 C 118 79.375, 118.422 79.770, 125.517 83.281 C 129.651 85.326, 133.235 87, 133.481 87 C 133.728 87, 134.416 86.091, 135.011 84.980 C 135.957 83.212, 134.865 81.552, 126.296 71.724 C 120.908 65.545, 115.534 59.253, 114.353 57.740 C 113.064 56.090, 110.865 54.767, 108.853 54.430 C 107.009 54.121, 104.375 53.645, 103 53.373 C 101.163 53.009, 101.724 53.661, 105.119 55.833 M 79.860 55.568 C 70.149 58.558, 62.203 68.747, 60.544 80.336 C 59.713 86.139, 60.004 86.448, 71.500 91.984 C 90.487 101.129, 111.514 102.163, 124.439 94.589 C 132.218 90.030, 132.152 89.602, 122.948 84.974 L 114.736 80.845 108.993 83.423 C 101.200 86.920, 96.669 86.822, 92.923 83.077 C 90.423 80.576, 90.001 79.384, 90.004 74.827 C 90.006 71.249, 90.670 68.413, 92.027 66.188 C 93.738 63.382, 94.538 62.924, 97.273 63.188 C 99.961 63.448, 100.905 64.267, 102.928 68.096 C 104.574 71.212, 106.668 73.387, 109.428 74.849 C 114.495 77.533, 115 77.530, 115 74.816 C 115 71.095, 111.015 64.168, 106.795 60.557 C 99.533 54.341, 89.739 52.526, 79.860 55.568 M 118.236 57.927 C 119.093 59.151, 123.720 64.669, 128.518 70.190 C 137.598 80.639, 138.951 81.189, 138.985 74.446 C 139.010 69.320, 133.952 62.607, 127.850 59.669 C 124.907 58.252, 121.190 56.780, 119.589 56.398 C 116.745 55.718, 116.714 55.754, 118.236 57.927 M 94.408 67.500 C 92 71.175, 91.999 78.235, 94.405 80.895 C 96.790 83.530, 101.979 83.631, 107.500 81.150 L 111.500 79.352 107.416 76.999 C 104.825 75.507, 102.449 72.997, 100.916 70.133 C 97.969 64.627, 96.642 64.090, 94.408 67.500 M 137.149 86.721 C 136.243 88.415, 136.700 88.939, 140.807 90.921 L 145.500 93.185 142.508 89.843 C 140.862 88.004, 139.216 86.114, 138.850 85.643 C 138.485 85.171, 137.719 85.656, 137.149 86.721 M 154.500 104.095 C 144.944 107.035, 131.663 108.187, 97.219 109.065 C 62.478 109.950, 60.632 109.905, 53.739 107.995 C 49.780 106.898, 43.471 106, 39.720 106 C 30.475 106, 26 108.448, 26 113.505 C 26 115.776, 31.051 120.994, 34.742 122.537 C 39.371 124.471, 50.694 124.399, 58.356 122.386 C 62.888 121.196, 66.884 120.923, 73.586 121.349 C 83.675 121.988, 87.733 123.142, 88.693 125.641 C 90.236 129.663, 76.025 137.159, 59.152 141.223 C 54.394 142.369, 49.887 143.468, 49.137 143.665 C 46.961 144.238, 49.766 147, 54.782 149.223 C 61.628 152.259, 70.636 152.466, 90.398 150.046 C 109.794 147.670, 116.350 147.914, 120.487 151.169 C 124.560 154.372, 125.360 156.878, 126.020 168.500 C 127.183 188.939, 133.093 192.620, 142.190 178.572 C 149.563 167.188, 152.567 149.796, 148.717 140.783 L 147.130 137.066 135.815 137.663 C 122.952 138.341, 117.886 137.038, 115.829 132.523 C 114.264 129.089, 116.917 125.347, 123.126 122.229 C 130.059 118.746, 138.793 118.318, 149.279 120.945 C 157.690 123.052, 158.239 123.072, 163.696 121.486 C 171.438 119.235, 178 116.041, 178 114.523 C 178 113.086, 172.767 109.436, 165.233 105.618 C 159.653 102.791, 159.028 102.702, 154.500 104.095" stroke="none" fill="black" fill-rule="evenodd"/>
</svg>