<svg xmlns="http://www.w3.org/2000/svg" width="200" height="200" viewBox="0 0 200 200" version="1.1">
	<path d="M 67.968 10.324 C 64.130 12.230, 64.364 15.258, 68.694 19.722 C 70.787 21.880, 73.572 24.372, 74.882 25.260 C 77.200 26.830, 77.222 26.977, 75.718 30.687 C 74.443 33.828, 73.715 34.467, 71.585 34.312 C 69.916 34.190, 69 34.633, 69 35.562 C 69 36.362, 69.943 37, 71.125 37 C 72.972 37, 73.168 37.409, 72.625 40.125 C 72.281 41.844, 72 44.160, 72 45.273 C 72 47.197, 71.584 47.263, 63.382 46.633 C 53.893 45.903, 41.330 43.343, 40.478 41.965 C 39.659 40.639, 44.822 38.322, 51.807 36.879 C 55.254 36.167, 57.864 35.126, 57.656 34.547 C 57.170 33.189, 53.205 33.508, 46.559 35.440 C 29.913 40.279, 36.009 46.531, 59.900 49.122 C 70.879 50.313, 71 50.354, 70.961 52.913 C 70.935 54.709, 69.952 56.112, 67.749 57.500 C 57.301 64.083, 57.383 79.027, 67.920 88.547 C 74.320 94.329, 73.128 98.237, 63.950 101.558 C 61.503 102.443, 51.572 104.899, 41.883 107.015 C 23.166 111.102, 16.451 113.302, 17.501 115.001 C 18.614 116.803, 29.397 121.789, 35.724 123.429 C 43.239 125.376, 62.971 125.488, 75.176 123.652 L 83.852 122.347 86.856 130.254 C 89.058 136.049, 89.470 138.011, 88.399 137.600 C 77.860 133.556, 55.993 128.048, 50.349 128.017 L 47.199 128 49.491 134.777 C 50.753 138.504, 52.760 146.492, 53.954 152.527 C 58.682 176.443, 62.168 185.302, 68.329 189.059 C 74.655 192.916, 83.960 191.004, 94.903 183.598 L 101.307 179.265 107.455 182.052 C 133.751 193.975, 154.588 181.547, 152.729 155.050 C 152.131 146.535, 148.635 136.213, 144.046 129.413 L 141.068 125 147.784 124.985 C 163.047 124.952, 180 117.845, 180 111.481 C 180 105.878, 170.616 103.419, 153.334 104.493 L 142.167 105.187 141.515 99.343 C 139.328 79.757, 136.354 68.805, 131.092 60.971 C 126.589 54.266, 117.623 49.152, 110 48.942 L 107.500 48.873 110 47.873 C 111.730 47.181, 114.502 47.257, 119 48.117 C 128.309 49.899, 140.584 49.619, 145.769 47.507 C 153.883 44.201, 156.678 36.387, 151.472 31.562 C 148.200 28.530, 143.782 27.925, 137.250 29.616 C 132.393 30.873, 131.680 30.819, 127.712 28.891 C 123.822 27.001, 123.458 26.514, 123.794 23.642 C 124.269 19.574, 121.071 15.391, 115.579 12.896 C 110.593 10.632, 99.424 10.378, 94.542 12.418 C 91.532 13.676, 90.488 13.635, 85.324 12.057 C 76.918 9.489, 70.865 8.885, 67.968 10.324 M 68.336 13.566 C 67.680 15.277, 72.511 20.865, 76.487 22.993 C 78.650 24.150, 79.170 23.905, 82.922 19.961 C 85.167 17.601, 86.890 15.560, 86.752 15.424 C 86.063 14.751, 73.870 12, 71.574 12 C 70.103 12, 68.671 12.692, 68.336 13.566 M 100 13.658 C 99.175 13.933, 97.825 14.379, 97 14.648 C 95.745 15.057, 117.978 24.943, 120.250 24.986 C 121.969 25.018, 120.821 20.181, 118.620 18.112 C 114.755 14.481, 104.725 12.082, 100 13.658 M 86.042 20.845 C 83.819 22.960, 82 25.178, 82 25.773 C 82 27.167, 91.844 30.876, 99.239 32.268 C 107.099 33.748, 118 31.243, 118 27.956 C 118 27.151, 93.121 17, 91.146 17 C 90.562 17, 88.265 18.730, 86.042 20.845 M 78.150 32 L 77.104 35 86.302 34.966 L 95.500 34.931 88 31.969 C 83.875 30.340, 80.207 29.006, 79.848 29.004 C 79.489 29.002, 78.725 30.350, 78.150 32 M 119.500 31 C 117.712 32.975, 117.753 33, 122.845 33 C 125.680 33, 128 32.787, 128 32.526 C 128 32.070, 122.518 29, 121.705 29 C 121.488 29, 120.495 29.900, 119.500 31 M 137.250 32.247 C 135.096 32.938, 134 33.927, 134 35.181 C 134 36.558, 131.797 38.137, 125.896 40.991 C 118.174 44.725, 117.927 44.946, 120.646 45.678 C 125.871 47.086, 141.220 46.527, 145.172 44.785 C 152.357 41.620, 153.759 35.478, 147.979 32.489 C 144.716 30.802, 141.948 30.740, 137.250 32.247 M 106.500 36.553 C 97.700 37.246, 87.246 37.855, 83.269 37.907 C 76.218 37.998, 76.024 38.068, 75.459 40.750 C 74.035 47.507, 73.549 47, 81.457 47 C 89.981 47, 97.783 45.671, 102.554 43.407 C 105.267 42.120, 106.597 42.013, 109.086 42.880 C 111.774 43.817, 113.226 43.547, 119.458 40.953 C 123.444 39.294, 127.559 37.290, 128.603 36.500 C 130.349 35.178, 130.181 35.073, 126.500 35.178 C 124.300 35.241, 115.300 35.860, 106.500 36.553 M 100.183 47.147 C 97.085 48.243, 90.513 49.294, 84.433 49.666 C 75.495 50.212, 74 50.550, 74 52.018 C 74 53.608, 74.452 53.628, 80.250 52.287 C 83.688 51.492, 88.411 50.993, 90.748 51.178 C 93.084 51.363, 95.109 51.206, 95.248 50.829 C 95.386 50.452, 98.425 49.018, 102 47.641 C 109.521 44.746, 108.079 44.354, 100.183 47.147 M 104 54.084 C 115.137 59.133, 118.808 68.216, 113.996 78.819 L 112.036 83.138 114.672 88.319 C 117.854 94.573, 118.296 102.817, 115.711 107.681 L 114.020 110.861 117.908 114.181 C 123.969 119.355, 132.905 121.512, 148 121.444 C 158.611 121.397, 161.386 121.040, 166.361 119.081 C 172.782 116.553, 178.697 111.937, 177.663 110.263 C 176.162 107.834, 166.707 106.710, 153.394 107.379 C 138.254 108.138, 139.577 108.972, 138.514 98 C 137.237 84.810, 134.840 74.441, 131.413 67.285 C 126.097 56.183, 119.424 52.106, 106.500 52.066 L 99.500 52.044 104 54.084 M 79 55.272 C 74.503 56.499, 74.500 56.503, 74.164 61.500 C 73.510 71.224, 78.438 97.535, 83.809 113 L 85.720 118.500 95.110 118.144 C 100.274 117.948, 104.658 117.639, 104.852 117.458 C 105.045 117.278, 102.458 112.354, 99.102 106.516 C 89.486 89.791, 90.863 87.723, 103.440 100 C 107.948 104.400, 111.899 108, 112.220 108 C 113.208 108, 115 101.882, 115 98.510 C 115 96.755, 113.669 92.660, 112.042 89.410 C 109.644 84.619, 108.069 82.894, 103.723 80.302 C 93.659 74.299, 85.850 68.009, 86.222 66.205 C 86.438 65.153, 87.325 64.617, 88.536 64.807 C 91.136 65.212, 102.738 73.073, 106.440 76.938 C 108.054 78.622, 109.696 80, 110.089 80 C 111.276 80, 113 73.959, 113 69.801 C 113 63.767, 110.741 60.509, 104.405 57.410 C 97.841 54.198, 86.449 53.240, 79 55.272 M 66.667 61.825 C 59.837 68.955, 61.329 78.558, 70.654 87.493 C 74.625 91.298, 75.097 91.524, 74.554 89.358 C 73.332 84.490, 71.012 67.415, 71.006 63.250 C 71.003 60.913, 70.634 59, 70.187 59 C 69.740 59, 68.156 60.271, 66.667 61.825 M 75.059 95.661 C 74.911 101.088, 66.313 104.774, 41.670 109.975 C 19.944 114.561, 20.058 114.497, 27.750 117.783 C 39.375 122.751, 50.449 123.771, 68.926 121.576 C 76.310 120.699, 82.460 119.873, 82.592 119.741 C 82.723 119.608, 81.096 113.650, 78.975 106.500 C 76.853 99.350, 75.091 94.472, 75.059 95.661 M 100.541 103.500 C 102.102 106.250, 104.081 109.735, 104.939 111.244 C 106.745 114.419, 107.279 114.573, 109.053 112.436 C 110.167 111.093, 109.454 109.994, 104.027 104.686 L 97.703 98.500 100.541 103.500 M 110.637 114.848 C 109.006 116.651, 109.089 116.753, 112.666 117.333 C 114.717 117.666, 116.529 117.804, 116.694 117.640 C 116.858 117.476, 115.945 116.357, 114.665 115.155 C 112.393 113.021, 112.298 113.014, 110.637 114.848 M 95.180 121.039 C 91.154 121.462, 87.641 122.026, 87.374 122.292 C 87.108 122.559, 88.293 126.418, 90.009 130.868 C 93.027 138.694, 93.266 138.996, 97.315 140.134 C 99.617 140.782, 103.901 141.354, 106.835 141.406 C 111.561 141.489, 112.460 141.163, 114.713 138.546 C 117.056 135.824, 117.211 135.056, 116.686 128.794 C 116.373 125.056, 115.838 121.548, 115.499 120.998 C 114.804 119.874, 106.120 119.892, 95.180 121.039 M 118.067 121.687 C 118.845 122.684, 121.136 125.525, 123.158 128 C 128.444 134.471, 132 141.716, 132 146.014 C 132 153.763, 125.283 157.788, 110.782 158.727 C 105.952 159.040, 102 159.567, 102 159.898 C 102 160.229, 104.363 165.220, 107.250 170.988 L 112.500 181.477 117.500 182.719 C 132.640 186.481, 144.147 181.338, 148.558 168.837 C 151.777 159.713, 149.558 144.966, 143.245 133.524 C 140.761 129.021, 140.075 128.475, 136.034 127.789 C 133.578 127.372, 129.497 125.743, 126.965 124.169 C 124.433 122.595, 121.077 120.985, 119.506 120.591 C 116.859 119.926, 116.754 120.006, 118.067 121.687 M 134.750 124.662 C 135.438 124.940, 136.563 124.940, 137.250 124.662 C 137.938 124.385, 137.375 124.158, 136 124.158 C 134.625 124.158, 134.063 124.385, 134.750 124.662 M 120.005 131.282 C 119.998 135.463, 117.494 140.630, 114.537 142.567 C 112.358 143.996, 110.461 144.188, 103.454 143.694 C 98.804 143.366, 95 143.271, 95 143.483 C 95 143.695, 96.184 146.598, 97.631 149.934 L 100.261 156 107.949 156 C 116.751 156, 124.845 153.934, 127.488 151.013 C 130.792 147.362, 128.688 139.239, 122.434 131.500 L 120.010 128.500 120.005 131.282 M 52.548 135.137 C 53.351 137.413, 55.367 145.850, 57.027 153.887 C 62.058 178.239, 64.897 184.805, 71.606 187.609 C 75.367 189.180, 79.639 188.615, 85.500 185.770 C 90.461 183.362, 98.995 177.724, 98.998 176.854 C 98.999 176.499, 96.828 174.815, 94.174 173.112 C 88.508 169.476, 82 163.210, 82 161.390 C 82 159.078, 86.337 157, 91.163 157 C 93.759 157, 96.119 156.616, 96.409 156.146 C 96.700 155.677, 95.634 152.204, 94.041 148.428 L 91.144 141.562 82.822 138.739 C 72.241 135.149, 56.485 131, 53.435 131 C 51.116 131, 51.106 131.048, 52.548 135.137 M 87.750 159.716 C 83.645 160.338, 84.397 162.485, 90.250 166.857 C 97.386 172.189, 107.322 178.424, 106.869 177.287 C 106.666 176.778, 104.719 172.455, 102.542 167.680 L 98.585 159 94.542 159.150 C 92.319 159.232, 89.263 159.487, 87.750 159.716" stroke="none" fill="black" fill-rule="evenodd"/>
</svg>