<svg xmlns="http://www.w3.org/2000/svg" width="200" height="200" viewBox="0 0 200 200" version="1.1">
	<path d="M 93 6.704 C 84.190 7.398, 39.444 12, 36.250 12.541 C 34.462 12.843, 33 13.581, 33 14.180 C 33 14.934, 36.825 15.123, 45.389 14.793 L 57.778 14.315 58.889 18.022 C 60.580 23.669, 63.786 27.026, 70.316 29.991 L 76.256 32.687 66.634 33.363 C 56.211 34.096, 41.655 36.579, 38.787 38.114 C 35.572 39.835, 36.609 42.818, 40.817 43.951 C 48.082 45.907, 63.594 46.965, 85.250 46.983 C 99.791 46.994, 107 47.349, 107 48.052 C 107 48.757, 104.280 48.884, 98.750 48.436 C 79.702 46.892, 57.917 53.987, 51.277 63.898 C 45.239 72.909, 50.492 82.705, 66.683 92.632 L 72.500 96.198 66.935 95.550 C 56.277 94.309, 41.567 98.204, 39.033 102.938 C 36.156 108.314, 40.660 114.612, 49.237 117.205 C 54.605 118.827, 74.641 118.809, 81.896 117.174 C 84.864 116.506, 87.482 116.149, 87.715 116.382 C 87.948 116.615, 87.551 117.746, 86.832 118.897 C 85.671 120.757, 85.856 121.314, 88.513 123.940 C 90.156 125.564, 94.138 128.470, 97.363 130.399 C 104.155 134.461, 104.112 134.490, 89.706 135.497 C 70.938 136.809, 55.927 140.432, 58.643 142.995 C 61.090 145.304, 86.620 148.977, 100.317 148.992 C 108.878 149.001, 108.300 148.428, 106.419 155.042 C 106.045 156.360, 105.247 156.912, 104.169 156.599 C 95.405 154.053, 85.416 154.938, 81.005 158.649 C 75.520 163.264, 77.409 171.666, 86.545 183.293 C 89.049 186.479, 92.145 189.485, 93.426 189.972 C 94.707 190.459, 100.263 191.382, 105.773 192.022 C 126.716 194.457, 141.453 188.761, 143.583 177.408 C 145.463 167.387, 140.232 155.290, 131.742 150.023 L 128.983 148.312 138.848 147.116 C 155.621 145.083, 176.556 139.079, 174.304 136.947 C 173.406 136.097, 151.384 129.007, 143.258 126.952 C 139.812 126.080, 137.816 124.996, 137.432 123.786 C 136.531 120.948, 133.056 119.229, 126.651 118.453 L 120.801 117.745 121.411 114.695 C 121.746 113.018, 122.129 111.545, 122.260 111.421 C 122.392 111.297, 127.675 112.295, 134 113.639 C 154.279 117.946, 162.348 116.174, 166.939 106.406 C 170.931 97.914, 173.545 48.825, 170.981 30.500 C 169.149 17.403, 165.244 12.645, 159.446 16.443 C 156.491 18.379, 150.888 26.822, 147.213 34.873 L 144.645 40.500 143.403 29.821 C 141.587 14.203, 138.831 9.704, 129.500 7.119 C 125.831 6.103, 103.807 5.852, 93 6.704 M 100.913 9.023 C 94.541 9.430, 85.991 10.134, 81.913 10.585 L 74.500 11.407 83.194 12.116 C 92.355 12.863, 101.290 15.026, 104.292 17.223 C 105.278 17.945, 106.180 19.782, 106.297 21.306 C 106.488 23.787, 107.375 24.426, 114.786 27.414 C 126.714 32.223, 132.430 35.970, 132.811 39.228 C 133.237 42.872, 129.389 44.721, 118.947 45.889 C 110.565 46.827, 107.470 48.538, 110.608 50.500 C 111.488 51.050, 114.106 52.677, 116.426 54.115 C 121.124 57.028, 124 61.992, 124 67.189 C 124 69.964, 123.211 71.236, 119.637 74.223 C 117.238 76.229, 113.863 80.001, 112.137 82.606 C 106.939 90.454, 108.184 94, 116.135 94 C 124.776 94, 125.364 93.421, 129.536 80.814 C 131.596 74.591, 135.288 64.325, 137.742 58 L 142.204 46.500 141.034 34 C 139.549 18.129, 137.736 13.635, 131.789 11.077 C 126.418 8.767, 115.871 8.065, 100.913 9.023 M 61 15.852 C 61 19.111, 65.379 24.431, 69.970 26.750 C 73.426 28.496, 76.128 29, 82.030 29 C 89.972 29, 100.892 26.478, 99.374 24.993 C 98.123 23.769, 66.075 14, 63.310 14 C 61.728 14, 61 14.584, 61 15.852 M 91 18.839 C 98.051 21.195, 102.887 22.330, 103.500 21.774 C 106.060 19.449, 97.254 16.180, 86.500 15.463 L 79.500 14.996 91 18.839 M 158.255 21.507 C 156.665 23.436, 153.639 28.499, 151.531 32.757 C 144.863 46.225, 144.970 45.752, 147.088 52.500 C 152.194 68.770, 147.513 82.188, 133.594 91.184 C 128.141 94.708, 127.442 95.571, 125.816 100.778 C 124.833 103.925, 124.023 106.987, 124.015 107.583 C 123.995 109.066, 143.157 113.022, 150.300 113.010 C 157.597 112.997, 161.427 111.043, 163.988 106.024 C 167.030 100.061, 168.008 90.989, 168.679 62.498 C 169.614 22.807, 166.683 11.282, 158.255 21.507 M 102.336 27.064 C 101.747 27.653, 98.619 29.007, 95.383 30.074 L 89.500 32.014 100.500 31.871 C 106.550 31.791, 112.063 31.788, 112.750 31.863 C 114.251 32.027, 114.415 37.779, 113.022 41.441 L 112.045 44.012 117.772 43.367 C 124.607 42.598, 130.158 40.883, 130.288 39.500 C 130.435 37.935, 124.758 34.517, 115.751 30.747 C 104.713 26.127, 103.583 25.817, 102.336 27.064 M 87 35.057 C 66.475 35.767, 57.102 36.674, 45.068 39.115 C 41.526 39.834, 40.135 40.484, 41.068 40.984 C 45.272 43.236, 73.438 45.014, 93.242 44.277 C 110.690 43.629, 110.174 43.840, 111.157 36.955 C 111.578 34.005, 113.367 34.145, 87 35.057 M 80.763 52.033 C 65.894 54.537, 54.437 61.117, 51.979 68.564 C 50.992 71.554, 51.140 72.657, 53.058 76.620 C 55.425 81.508, 63.313 88.089, 72.229 92.613 L 76.959 95.013 77.398 92.756 C 77.639 91.515, 78.379 87.125, 79.042 83 C 80.582 73.407, 85.717 59, 87.595 59 C 89.344 59, 89.515 58.002, 86 68.336 C 84.350 73.187, 83.016 77.908, 83.036 78.828 C 83.092 81.355, 93.439 69.911, 99.582 60.529 C 104.613 52.846, 104.746 52.472, 102.670 51.850 C 99.683 50.954, 86.514 51.064, 80.763 52.033 M 142.607 52.573 C 140.603 57.770, 129 90.103, 129 90.489 C 129 91.685, 136.306 86.404, 139.419 82.958 C 144.450 77.389, 146.273 72.604, 146.261 65 C 146.248 57.511, 143.849 49.352, 142.607 52.573 M 102 61.660 C 95.983 71.056, 85.613 83, 83.470 83 C 81.591 83, 81.298 83.710, 80.488 90.221 C 79.809 95.682, 79.892 95.994, 82.309 97.095 C 84.924 98.286, 84.982 101.591, 82.371 100.589 C 79.183 99.365, 81.779 107.680, 85.690 111.220 C 87.488 112.847, 87.917 112.799, 94.043 110.289 C 99.574 108.024, 101.952 107.646, 110.619 107.658 L 120.738 107.671 122.369 102.498 C 123.266 99.652, 124 97.069, 124 96.757 C 124 96.445, 121.412 96.394, 118.250 96.644 C 103.310 97.826, 102.170 87.941, 115.689 74.422 C 121.619 68.492, 121.872 68.041, 120.993 64.975 C 119.568 60.005, 117.332 57.210, 113.025 55.013 C 110.855 53.906, 108.724 53.016, 108.290 53.035 C 107.855 53.054, 105.025 56.935, 102 61.660 M 50.849 99.388 C 48.290 100.077, 45.028 101.407, 43.599 102.343 C 38.571 105.638, 41.184 111.482, 48.913 114.226 C 52.957 115.662, 74.258 115.974, 80.347 114.686 C 84.076 113.898, 84.141 113.813, 82.445 111.939 C 81.482 110.875, 79.896 107.641, 78.921 104.752 C 77.169 99.563, 77.090 99.492, 72.324 98.838 C 64.740 97.796, 55.918 98.022, 50.849 99.388 M 99.500 111.390 C 96.750 112.061, 93.600 113.116, 92.500 113.735 C 90.602 114.802, 90.653 114.919, 93.500 116.033 C 95.150 116.678, 101.288 117.446, 107.141 117.740 L 117.781 118.273 118.497 115.012 C 119.001 112.717, 118.812 111.495, 117.857 110.890 C 115.924 109.666, 105.392 109.952, 99.500 111.390 M 92.130 123.292 C 96.493 127.148, 108.570 134, 111.004 134 C 112.247 134, 113.169 132.501, 114.234 128.750 C 115.053 125.862, 115.606 123.358, 115.463 123.184 C 114.791 122.372, 98.895 120.071, 94 120.077 L 88.500 120.083 92.130 123.292 M 122.500 121.442 C 123.050 121.695, 126.160 122.575, 129.412 123.398 C 134.586 124.708, 135.140 124.711, 133.851 123.423 C 133.042 122.613, 129.931 121.733, 126.940 121.467 C 123.948 121.200, 121.950 121.189, 122.500 121.442 M 117.074 128.622 C 116.434 131.164, 116.043 133.357, 116.205 133.496 C 116.367 133.634, 120.037 133.965, 124.361 134.231 L 132.222 134.714 133.669 131.249 C 134.466 129.343, 134.978 127.661, 134.809 127.510 C 134.401 127.149, 120.373 124, 119.171 124 C 118.658 124, 117.714 126.080, 117.074 128.622 M 136.914 130.726 C 136.378 132.135, 135.701 133.674, 135.410 134.146 C 135.118 134.618, 136.043 135.446, 137.465 135.987 C 141.081 137.361, 141.658 139.670, 139.074 142.421 L 136.896 144.740 145.698 143.360 C 155.173 141.874, 168.548 138.215, 167.679 137.346 C 167.387 137.053, 160.564 134.868, 152.518 132.489 L 137.888 128.163 136.914 130.726 M 90 138.079 C 75.657 139.441, 64.788 141.192, 65.665 141.999 C 67.308 143.511, 79.747 145.128, 94.126 145.700 L 108.752 146.282 109.947 142.660 C 110.604 140.669, 110.859 138.580, 110.512 138.020 C 109.801 136.868, 102.533 136.890, 90 138.079 M 120.713 139.749 C 125.797 142.313, 125.976 142.332, 127.963 140.534 C 129.083 139.520, 130 138.310, 130 137.845 C 130 137.380, 126.737 137.027, 122.750 137.061 L 115.500 137.122 120.713 139.749 M 131.068 140.904 C 128.242 144.873, 128.458 145.327, 132.250 143.401 C 137.370 140.800, 138.339 139.831, 136.797 138.854 C 134.550 137.428, 133.199 137.912, 131.068 140.904 M 112.975 142.565 C 112.439 143.976, 112 145.326, 112 145.565 C 112 145.804, 115.263 145.979, 119.250 145.953 L 126.500 145.906 121 143 C 117.975 141.402, 115.151 140.073, 114.725 140.047 C 114.299 140.021, 113.512 141.154, 112.975 142.565 M 110.098 152.149 C 108.414 156.979, 108.643 157.404, 113.952 159.289 C 119.880 161.395, 125 165.461, 125 168.063 C 125 171.104, 119.662 173.087, 109.745 173.729 C 102.182 174.219, 100.753 174.082, 101.196 172.909 C 102.801 168.661, 105.049 159.715, 104.619 159.286 C 104.344 159.011, 100.380 158.585, 95.810 158.338 C 86.581 157.841, 83.510 158.838, 81.113 163.108 C 79.780 165.483, 79.904 166.196, 82.675 172.094 C 84.331 175.617, 87.669 180.630, 90.093 183.232 C 94.459 187.921, 94.583 187.975, 103.493 189.109 C 133.780 192.961, 148.278 181.670, 138.419 161.910 C 135.857 156.776, 130.233 151.348, 126.506 150.412 C 125.154 150.073, 122.021 150.486, 119.542 151.331 C 115.215 152.805, 113.110 152.250, 114.500 150 C 114.840 149.450, 114.235 149, 113.157 149 C 111.856 149, 110.826 150.061, 110.098 152.149 M 107.545 161.279 C 107.342 161.951, 106.687 164.030, 106.088 165.899 C 104.369 171.269, 104.449 171.337, 111.750 170.717 C 119.450 170.064, 122 169.291, 122 167.609 C 122 165.047, 108.230 159.017, 107.545 161.279" stroke="none" fill="black" fill-rule="evenodd"/>
</svg>