<svg xmlns="http://www.w3.org/2000/svg" width="200" height="200" viewBox="0 0 200 200" version="1.1">
	<path d="M 70 10.288 C 67.453 11.570, 66.005 16.409, 67.672 18.067 C 68.127 18.521, 68.353 22, 68.174 25.800 L 67.847 32.708 58.674 33.337 C 53.628 33.683, 47.700 34.469, 45.500 35.083 C 38.424 37.057, 36.050 40.925, 39.820 44.337 C 42.279 46.563, 52.020 49.824, 58.342 50.538 C 68.055 51.635, 68 51.604, 68 56.086 C 68 58.854, 67.216 61.161, 65.520 63.385 C 58.802 72.193, 58.110 87.288, 63.600 105.250 C 64.053 106.734, 63.461 107, 59.698 107 C 49.779 107, 30.044 111.454, 24.216 115.009 C 19.804 117.700, 19.111 119.862, 21.928 122.143 C 24.891 124.542, 29.834 125.814, 42.837 127.522 C 52.085 128.737, 54.725 128.731, 62.474 127.477 C 67.398 126.679, 71.727 126.359, 72.092 126.764 C 72.458 127.169, 73.002 129.075, 73.301 131 C 73.809 134.266, 73.500 134.771, 68.688 138.544 C 58.457 146.568, 54.495 158.153, 58.446 168.496 C 61.774 177.211, 75.236 186.883, 87.720 189.529 C 96.288 191.344, 101.725 191.341, 110.335 189.517 C 124.218 186.576, 134.682 179.470, 139.753 169.540 C 142.491 164.181, 143.885 152.529, 142.605 145.708 L 141.961 142.275 133.066 141.768 C 121.397 141.103, 115.563 138.451, 112.909 132.606 C 111.883 130.348, 111.034 127.442, 111.022 126.149 L 111 123.799 123.250 124.463 C 129.988 124.829, 143.600 125.211, 153.500 125.313 C 169.081 125.474, 171.937 125.260, 174.750 123.724 C 186.912 117.081, 164.056 103.240, 142.441 104.158 L 134.382 104.500 137.621 99 C 147.117 82.875, 145.282 68.855, 132.571 60.415 C 127.032 56.738, 114.552 52, 110.404 52 C 108.304 52, 106.774 50.096, 108.750 49.941 C 109.162 49.909, 115.350 49.732, 122.500 49.549 C 136.709 49.184, 151.039 46.551, 157.918 43.042 C 161.070 41.434, 162 40.383, 162 38.429 C 162 35.346, 158.320 33.569, 148.786 32.046 C 142.759 31.083, 136.795 28.581, 111.500 16.407 C 106.623 14.059, 100.960 12.425, 92.828 11.019 C 79.403 8.697, 73.534 8.509, 70 10.288 M 70.475 13.040 C 70.054 13.722, 70.808 13.846, 72.666 13.399 C 76.498 12.479, 76.860 12, 73.726 12 C 72.291 12, 70.829 12.468, 70.475 13.040 M 77.500 14.737 C 76.400 15.014, 74.418 15.652, 73.095 16.155 L 70.691 17.068 73.595 20.102 C 75.193 21.770, 79.790 24.762, 83.812 26.750 C 90.032 29.825, 92.345 30.420, 99.312 30.732 C 109.588 31.193, 117.373 29.387, 117.794 26.445 C 118.250 23.257, 115.316 21.385, 103.846 17.547 C 93.500 14.085, 84.070 13.079, 77.500 14.737 M 71 27.449 L 71 33 76.059 33 C 78.927 33, 80.869 33.403, 80.543 33.931 C 79.461 35.682, 81.802 35.992, 91.105 35.332 C 97.044 34.910, 99.705 34.394, 98.457 33.906 C 97.381 33.485, 95.150 33.109, 93.500 33.069 C 90.042 32.988, 79.017 28.008, 74.250 24.375 L 71 21.898 71 27.449 M 120.809 26.831 C 120.595 28.678, 119.503 29.998, 117.262 31.117 C 114.138 32.678, 114.425 32.717, 125.491 32.229 C 135.520 31.786, 137.036 31.930, 137.590 33.374 C 138.587 35.972, 136.175 38.009, 126.500 42.741 L 117.500 47.143 127 46.613 C 142.358 45.755, 162.104 40.571, 159.428 38.098 C 158.094 36.867, 152.292 35.216, 146.500 34.421 C 143.750 34.044, 139.392 32.677, 136.816 31.384 C 134.239 30.091, 129.653 27.937, 126.624 26.597 L 121.117 24.162 120.809 26.831 M 71 42.098 L 71 49.196 77.250 48.473 C 80.688 48.075, 85.384 47.183, 87.688 46.491 C 91.121 45.460, 91.967 45.472, 92.383 46.557 C 93.040 48.267, 88.648 49.713, 78.995 50.966 C 74.873 51.501, 71.162 51.952, 70.750 51.969 C 69.909 52.004, 69.696 58, 70.535 58 C 71.336 58, 76.409 54.674, 77.112 53.688 C 77.448 53.216, 78.023 52.926, 78.390 53.045 C 78.756 53.164, 81.734 52.693, 85.007 51.998 C 88.281 51.304, 92.994 50.965, 95.480 51.245 C 97.966 51.525, 100 51.408, 100 50.986 C 100 50.563, 101.237 49.888, 102.750 49.485 C 104.263 49.083, 104.938 48.546, 104.250 48.293 C 103.563 48.040, 103 47.293, 103 46.632 C 103 45.834, 104.933 45.434, 108.750 45.443 C 113.646 45.454, 115.984 44.720, 124.500 40.498 L 134.500 35.541 128.509 35.213 C 125.213 35.033, 116.098 35.586, 108.253 36.443 C 89.608 38.478, 78.659 38.498, 77 36.500 C 76.315 35.675, 74.685 35, 73.378 35 C 71.097 35, 71 35.291, 71 42.098 M 49.297 37.049 C 44.450 38.007, 41 39.655, 41 41.012 C 41 43.541, 51.261 47.042, 62.750 48.433 L 68 49.069 68 42.534 L 68 36 60.750 36.110 C 56.763 36.170, 51.608 36.593, 49.297 37.049 M 84.652 54.708 C 83.305 55.055, 85.034 56.511, 91.032 60.078 C 95.557 62.769, 101.189 66.553, 103.548 68.486 C 105.907 70.419, 108.098 72, 108.418 72 C 109.756 72, 108.898 62.300, 107.367 60.114 C 104.030 55.350, 92.661 52.644, 84.652 54.708 M 107.178 55.878 C 110.869 58.847, 112.372 63.995, 111.583 70.967 C 111.091 75.319, 111.277 76.985, 112.358 77.882 C 113.140 78.531, 114.778 81.382, 115.997 84.215 C 118.932 91.038, 118.477 99.166, 114.851 104.660 C 113.103 107.309, 112.109 110.544, 111.647 115.089 L 110.977 121.678 138.739 122.304 C 172.255 123.060, 179.052 122.034, 174.426 116.916 C 167.344 109.078, 143.781 104.140, 133.656 108.370 C 128.234 110.636, 128.059 108.637, 133.028 101.196 C 144.060 84.676, 143.441 71.470, 131.235 62.910 C 125.950 59.203, 116.262 55.523, 108.779 54.379 L 104.500 53.724 107.178 55.878 M 72.841 60.255 L 70.182 62.500 71.114 83 C 71.627 94.275, 72.599 107.775, 73.273 113 L 74.500 122.500 91 122.128 C 100.075 121.924, 107.678 121.596, 107.895 121.400 C 108.112 121.204, 108.511 118.735, 108.782 115.913 C 109.257 110.972, 109.199 110.823, 107.203 111.891 C 103.501 113.872, 96.596 113.264, 94.241 110.750 C 91.763 108.105, 90 103.835, 90 100.480 C 90 98.533, 90.660 97.967, 93.562 97.422 C 100.170 96.183, 106.160 97.496, 109.147 100.839 C 111.516 103.490, 112.019 103.682, 113.122 102.353 C 113.816 101.516, 114.577 98.172, 114.812 94.921 C 115.170 89.973, 114.794 88.100, 112.507 83.426 L 109.775 77.841 107.138 80.298 C 96.486 90.221, 85.267 84.061, 79.733 65.250 C 78.559 61.263, 77.127 58.002, 76.550 58.005 C 75.972 58.008, 74.303 59.020, 72.841 60.255 M 81 59.327 C 81 60.075, 81.914 63.344, 83.032 66.592 C 87.302 79.004, 93.564 84.481, 100.250 81.651 C 102.037 80.895, 104.357 79.314, 105.405 78.138 C 107.278 76.036, 107.278 75.965, 105.405 73.881 C 100.235 68.132, 81 56.660, 81 59.327 M 66.380 67.090 C 61.967 72.647, 61.457 87.918, 65.257 100.750 C 66.795 105.944, 67.292 109.003, 66.600 109.008 C 62.713 109.037, 46.282 111.257, 40 112.601 C 31.897 114.335, 23 117.730, 23 119.088 C 23 121.270, 30.390 123.291, 44.509 124.970 C 51.415 125.791, 55.587 125.732, 62.500 124.715 C 67.450 123.987, 71.494 122.966, 71.487 122.446 C 71.481 121.926, 70.854 115.875, 70.094 109 C 69.335 102.125, 68.440 89.566, 68.107 81.090 C 67.649 69.465, 67.225 66.027, 66.380 67.090 M 93 101.953 C 93 109.426, 99.180 112.490, 106.750 108.768 C 109.656 107.340, 109.597 105.506, 106.545 102.455 C 104.530 100.439, 103.100 100, 98.545 100 C 93.711 100, 93 100.250, 93 101.953 M 78.287 125.721 C 75.268 126.097, 75.111 126.314, 75.681 129.311 C 76.014 131.065, 76.377 132.617, 76.488 132.761 C 76.598 132.904, 78.615 132.342, 80.970 131.511 C 83.325 130.680, 86.559 130, 88.158 130 C 95.052 130, 101.353 135.032, 102.567 141.508 C 103.088 144.283, 103.724 144.913, 106.533 145.440 C 111.462 146.365, 115 151.039, 115 156.626 C 115 161.810, 113.381 165.357, 109.201 169.330 C 98.037 179.941, 83.336 168.670, 76.489 144.250 C 75.525 140.813, 74.259 138, 73.675 138 C 73.091 138, 70.247 140.443, 67.355 143.428 C 59.351 151.692, 57.312 160.764, 61.579 169.120 C 63.560 173, 72.383 180.552, 78.308 183.441 C 90.851 189.556, 109.575 189.339, 122.131 182.933 C 127.652 180.116, 134.750 173.410, 137.113 168.778 C 139.753 163.603, 141.149 155.604, 140.399 149.950 L 139.779 145.275 132.639 144.649 C 122.566 143.767, 118.422 142.376, 114.021 138.400 C 111.211 135.862, 109.864 133.603, 108.992 129.966 L 107.801 125 94.650 125.160 C 87.418 125.248, 80.054 125.500, 78.287 125.721 M 81.828 133.979 C 77.107 135.404, 77.032 135.654, 79.092 143.088 C 84.319 161.950, 94.491 173.431, 103.076 170.159 C 106.804 168.738, 110.880 164.133, 112.144 159.914 C 114.139 153.256, 110.310 148, 103.465 148 C 101.365 148, 100.929 147.405, 100.350 143.750 C 99.895 140.877, 98.627 138.447, 96.438 136.250 C 93.731 133.533, 92.487 133.014, 88.850 133.086 C 86.457 133.133, 83.298 133.535, 81.828 133.979" stroke="none" fill="black" fill-rule="evenodd"/>
</svg>