<svg xmlns="http://www.w3.org/2000/svg" width="200" height="200" viewBox="0 0 200 200" version="1.1">
	<path d="M 97.763 5.502 C 96.257 6.354, 94.353 8.351, 93.531 9.941 L 92.036 12.831 85.768 11.360 C 68.171 7.230, 66.201 7.238, 63.444 11.445 C 62.077 13.531, 62.049 14.215, 63.232 16.474 C 65.298 20.416, 72.435 24.628, 82.222 27.679 C 87.050 29.184, 91 30.772, 91 31.207 C 91 31.643, 77.950 32, 62 32 C 40.200 32, 33 32.296, 33 33.193 C 33 33.850, 35.393 36.704, 38.318 39.537 C 47.348 48.284, 58.343 50.416, 79.815 47.586 C 92.107 45.965, 94.001 46.062, 93.999 48.309 C 93.998 49.098, 91.887 49.517, 87.749 49.551 C 80.749 49.607, 77.021 51.179, 71.011 56.609 C 65.999 61.137, 61.517 68.184, 59.004 75.487 C 56.011 84.187, 56.336 88.113, 60.500 93.568 C 62.425 96.090, 63.993 98.681, 63.985 99.327 C 63.926 103.821, 57.841 105.794, 40.303 107.006 C 21.847 108.281, 19.037 108.739, 18.326 110.592 C 17.080 113.839, 22.077 117.197, 37.268 123.322 C 44.607 126.282, 46.549 126.702, 49.262 125.916 C 56.850 123.720, 76.682 121.933, 94.305 121.858 C 104.648 121.814, 113.321 121.988, 113.578 122.244 C 114.823 123.490, 119.243 146.296, 119.364 152.095 C 119.543 160.745, 118.327 162.306, 112.096 161.430 C 104.821 160.407, 100.411 157.156, 85.993 142.184 C 72.439 128.111, 68.651 125.485, 65.095 127.699 C 62.547 129.285, 61.117 134.887, 61.056 143.523 L 61 151.547 52.949 159.523 C 40.604 171.753, 36.552 179.152, 40.200 182.800 C 44.916 187.516, 64.913 178.313, 79.694 164.624 L 85.888 158.888 86.514 162.694 C 88.956 177.549, 91.437 183.881, 96.160 187.320 C 100.292 190.328, 104.489 188.878, 117.936 179.798 C 128.530 172.644, 130.621 171.613, 135.328 171.223 C 140.245 170.815, 140.980 171.044, 144.404 174.049 C 146.452 175.848, 149.232 179.498, 150.581 182.160 C 151.930 184.822, 153.273 187, 153.567 187 C 153.860 187, 155.360 186.348, 156.901 185.551 C 169.434 179.070, 163.294 157.451, 143.115 137.012 C 135.879 129.683, 130.048 125.468, 124.506 123.563 C 121.459 122.516, 124.204 122.338, 142.709 122.382 C 166.338 122.440, 177.537 120.908, 181.347 117.098 C 184.918 113.527, 180.505 110.861, 160.361 104.421 C 145.037 99.522, 137.687 96.791, 136.131 95.420 C 135.928 95.241, 137.837 92.723, 140.373 89.823 C 145.972 83.424, 148.273 78.810, 148.273 73.984 C 148.273 65.829, 141.972 61.156, 122.006 54.502 C 114.460 51.987, 107.451 49.319, 106.431 48.573 C 104.793 47.376, 104.745 47.012, 106.020 45.476 C 107.255 43.988, 108.624 43.821, 115.482 44.324 C 119.892 44.647, 125.916 45.640, 128.869 46.530 C 133.811 48.019, 134.813 48.020, 141.485 46.536 C 156.173 43.268, 161.676 38.037, 155.521 33.195 C 152.304 30.665, 140.523 25.710, 132.263 23.413 L 126.047 21.685 126.273 17.173 L 126.500 12.660 118.856 8.769 C 109.921 4.220, 102.154 3.017, 97.763 5.502 M 97.455 9.455 C 96.105 10.805, 95 12.284, 95 12.742 C 95 13.877, 121.632 20.346, 122.950 19.531 C 123.527 19.174, 124 17.854, 124 16.599 C 124 14.729, 122.588 13.653, 116.206 10.658 C 106.614 6.157, 101.106 5.803, 97.455 9.455 M 66.795 11.965 C 63.829 14.367, 65.579 16.969, 72.695 20.736 C 77.752 23.413, 87.765 27, 90.182 27 C 90.632 27, 91 24.384, 91 21.187 L 91 15.375 79.929 12.835 C 69.524 10.448, 68.733 10.396, 66.795 11.965 M 93.450 20.484 C 92.320 28.022, 92.622 28.238, 103.755 27.831 C 113.260 27.484, 119.617 25.713, 119.301 23.500 C 119.182 22.667, 111.139 20.221, 96.812 16.661 C 94.256 16.026, 94.091 16.214, 93.450 20.484 M 121.872 25.655 C 119.394 28.644, 113.654 30.315, 103.500 31.006 L 93.500 31.686 103.211 31.843 C 112.914 32, 130.661 30.479, 135.786 29.052 C 138.247 28.367, 137.861 28.096, 131.645 26.148 C 123.421 23.571, 123.593 23.580, 121.872 25.655 M 140 29.835 C 140 30.294, 136.291 31.925, 131.758 33.460 C 127.225 34.995, 121.262 37.260, 118.508 38.493 L 113.500 40.734 117.500 41.370 C 119.700 41.720, 124.555 42.721, 128.289 43.595 C 134.504 45.049, 135.688 45.048, 142.298 43.577 C 146.270 42.693, 151.018 41.059, 152.849 39.946 C 155.749 38.182, 156.006 37.710, 154.839 36.292 C 153.704 34.911, 142.098 29, 140.522 29 C 140.235 29, 140 29.376, 140 29.835 M 104.282 34.746 L 94.064 35.069 94.676 38.285 C 95.012 40.053, 95.462 41.702, 95.676 41.949 C 96.493 42.892, 105.596 41.791, 107.590 40.508 C 108.740 39.768, 112.340 38.020, 115.590 36.623 C 121.082 34.262, 121.253 34.094, 118 34.252 C 116.075 34.345, 109.902 34.567, 104.282 34.746 M 41.721 38.901 C 48.972 45.462, 60.431 47.349, 78.678 44.988 C 93.684 43.045, 92.603 43.525, 92.171 38.997 L 91.790 35 64.645 35.041 L 37.500 35.082 41.721 38.901 M 96.370 47.250 C 96.701 48.487, 96.979 49.795, 96.986 50.155 C 96.994 50.515, 98.912 51.939, 101.250 53.320 C 108.222 57.437, 112.491 62.499, 112.178 66.277 C 111.942 69.120, 112.551 69.997, 117.343 73.721 C 120.331 76.043, 125.329 80.276, 128.450 83.129 L 134.125 88.315 128.313 94.193 C 125.116 97.425, 120.878 101.195, 118.896 102.570 L 115.292 105.070 117.146 110.690 C 118.166 113.781, 119 116.850, 119 117.508 C 119 119.015, 130.003 120.007, 146.401 119.980 C 158.523 119.960, 169.027 118.874, 176.484 116.868 L 180.468 115.797 178.276 114.022 C 177.070 113.046, 169.428 110.150, 161.292 107.586 C 142.217 101.576, 133.609 97.924, 133.172 95.657 C 132.972 94.617, 134.685 91.906, 137.323 89.086 C 146.579 79.190, 148.069 71.760, 141.846 66.524 C 137.385 62.770, 135.074 61.748, 119.372 56.578 C 105.511 52.015, 102 50.013, 102 46.671 C 102 45.467, 101.129 45, 98.883 45 C 96.139 45, 95.839 45.269, 96.370 47.250 M 80 53.592 C 73.313 56.484, 65.764 65.450, 62.021 74.948 C 58.942 82.759, 59.119 86.926, 62.752 92.116 C 67.418 98.781, 67.635 100.518, 64.228 103.926 C 60.328 107.826, 56.041 108.821, 37.893 110.040 C 29.443 110.607, 22.180 111.420, 21.754 111.846 C 20.761 112.839, 26.258 115.898, 37.017 120.339 L 45.533 123.854 52.064 122.485 C 62.878 120.218, 78.259 119, 96.075 119 C 109.122 119, 112.842 118.717, 112.518 117.750 C 112.287 117.063, 111.608 114.582, 111.007 112.237 C 110.047 108.485, 109.689 108.096, 108.024 108.987 C 102.976 111.689, 96.800 109.036, 95.430 103.579 C 94.058 98.109, 99.805 89.220, 103.737 90.729 C 104.963 91.200, 105.185 90.926, 104.669 89.581 C 104.297 88.609, 103.716 86.715, 103.378 85.371 C 103.002 83.871, 101.512 82.405, 99.514 81.570 C 94.237 79.365, 90.579 73.689, 90.536 67.638 C 90.502 62.808, 90.669 62.470, 93.566 61.513 C 96.484 60.549, 96.589 60.331, 95.723 57.002 C 95.223 55.077, 94.293 53.172, 93.657 52.767 C 91.691 51.516, 83.682 52, 80 53.592 M 98.353 56.750 C 98.622 57.712, 99.104 59.424, 99.426 60.553 C 100.191 63.242, 108.600 67.484, 109.341 65.555 C 109.915 64.057, 107.696 61.395, 102.685 57.573 C 98.722 54.551, 97.685 54.354, 98.353 56.750 M 92.406 65.383 C 91.289 68.295, 96.199 76.966, 100.167 79.090 C 101.712 79.916, 101.692 79.414, 99.933 73.247 C 98.875 69.536, 97.797 65.938, 97.536 65.250 C 96.896 63.559, 93.068 63.659, 92.406 65.383 M 101.336 67.589 C 101.652 68.640, 102.452 71.710, 103.114 74.412 L 104.319 79.324 106.209 76.990 C 108.956 73.598, 108.152 69.977, 104.131 67.638 C 100.842 65.723, 100.776 65.722, 101.336 67.589 M 109.668 76.250 C 108.921 78.037, 107.618 80.074, 106.772 80.775 C 105.397 81.915, 105.392 82.591, 106.722 87.129 C 108.220 92.239, 113.672 102, 115.028 102 C 115.429 102, 118.982 99.014, 122.924 95.364 L 130.092 88.727 127.796 86.277 C 124.940 83.230, 112.501 73, 111.652 73 C 111.308 73, 110.416 74.463, 109.668 76.250 M 100.573 94.570 C 98.388 96.755, 97.543 100.796, 98.625 103.890 C 99.341 105.942, 100.282 106.556, 103.018 106.761 C 108.722 107.189, 109.418 106.147, 107.577 99.948 C 105.543 93.097, 103.564 91.578, 100.573 94.570 M 113.141 109 C 113.141 109.825, 113.527 111.400, 114 112.500 C 114.542 113.761, 114.859 113.945, 114.859 113 C 114.859 112.175, 114.473 110.600, 114 109.500 C 113.458 108.239, 113.141 108.055, 113.141 109 M 115 116.441 C 115 117.234, 115.408 118.134, 115.907 118.442 C 116.405 118.751, 116.578 118.102, 116.290 117.001 C 115.679 114.666, 115 114.371, 115 116.441 M 117.032 123.500 C 117.033 124.050, 117.947 127.875, 119.062 132 C 120.177 136.125, 121.357 144.070, 121.684 149.657 C 122.267 159.631, 122.231 159.860, 119.668 162.423 C 117.400 164.691, 116.497 164.953, 112.779 164.422 C 103.816 163.144, 98.767 159.642, 85.272 145.342 C 78.247 137.899, 71.308 131.189, 69.851 130.431 C 65.650 128.246, 64.561 130.533, 64.150 142.401 L 63.800 152.500 54.531 161.697 C 45.944 170.216, 40.373 178.176, 41.602 180.166 C 42.478 181.583, 47.740 181.091, 52.976 179.101 C 60.355 176.297, 73.601 167.057, 80.971 159.572 C 84.530 155.957, 87.728 153, 88.077 153 C 88.427 153, 89.008 156.488, 89.369 160.750 C 90.550 174.676, 94.249 184.522, 98.722 185.645 C 102.175 186.512, 106.154 184.688, 116.407 177.539 C 121.590 173.925, 127.430 170.301, 129.384 169.484 C 134.272 167.441, 139.884 167.632, 143.720 169.971 C 147.016 171.980, 152.453 178.703, 153.532 182.101 C 154.828 186.183, 161 179.266, 161 173.731 C 161 159.363, 137.658 130.190, 122.656 125.811 C 120.370 125.143, 118.169 124.125, 117.765 123.549 C 117.308 122.896, 117.031 122.878, 117.032 123.500" stroke="none" fill="black" fill-rule="evenodd"/>
</svg>