<svg xmlns="http://www.w3.org/2000/svg" width="200" height="200" viewBox="0 0 200 200" version="1.1">
	<path d="M 112.500 9.988 C 110.300 10.410, 100.175 11.072, 90 11.458 C 52.442 12.884, 41.729 14.062, 44.167 16.500 C 44.460 16.793, 51.855 17.709, 60.600 18.536 C 78.871 20.264, 87.298 21.686, 91.365 23.730 C 93.411 24.758, 93.922 25.478, 93.153 26.247 C 92.385 27.015, 89.707 26.707, 83.788 25.167 C 64.514 20.154, 49.588 18.080, 46.127 19.932 C 41.639 22.334, 44.555 25.816, 55.725 31.393 C 63.286 35.168, 65 35.652, 65 34.011 C 65 33.467, 61.487 31.256, 57.194 29.098 C 52.901 26.939, 48.739 24.385, 47.944 23.423 C 46.583 21.773, 46.952 21.710, 54.367 22.333 C 62.225 22.994, 84.222 27.491, 86.935 28.992 C 87.944 29.551, 86.827 30.334, 83.170 31.633 C 79.906 32.792, 78.149 33.945, 78.450 34.730 C 78.721 35.436, 77.965 36.181, 76.715 36.442 C 71.980 37.429, 48.457 38.999, 38.731 38.976 C 29.369 38.954, 26.249 38.546, 19 36.392 L 16.500 35.650 19.105 39.075 C 25.470 47.442, 34.080 51.384, 50.389 53.399 L 59.500 54.524 55.394 55.759 C 46.973 58.291, 38.077 68.941, 38.022 76.554 C 37.964 84.644, 46.750 95.135, 59.081 101.696 L 65.290 105 52.895 105.016 C 45.907 105.024, 37.938 105.634, 34.626 106.413 C 20.069 109.838, 19.249 117.860, 32.915 123.135 C 37.495 124.904, 40.568 125.286, 50 125.262 C 61.486 125.232, 62.206 125.102, 82 119.454 C 88.094 117.715, 112.653 117.253, 114.248 118.848 C 115.546 120.146, 110.719 129.214, 106.467 133.467 C 103.943 135.991, 102.048 137, 99.835 137 C 96.249 137, 90.914 133.978, 88.033 130.315 L 86.033 127.772 72.266 128.186 C 56.154 128.670, 51.651 130.152, 52.189 134.794 C 52.586 138.218, 57.900 141.244, 68.635 144.159 C 79.210 147.031, 100.572 147.286, 109.500 144.647 C 112.800 143.671, 116.152 142.789, 116.950 142.687 C 118.974 142.426, 120.733 147.609, 119.364 149.803 C 117.164 153.327, 111.230 154.213, 85 154.931 C 62.025 155.561, 59.029 155.841, 54.746 157.760 C 48.886 160.387, 47.348 163.504, 49.441 168.512 C 50.398 170.804, 51.795 172.187, 53.684 172.714 C 56.732 173.565, 82.452 173.682, 106.500 172.956 C 117.352 172.628, 122.740 172.876, 125.983 173.853 C 131.982 175.659, 138.222 182.015, 140.609 188.750 C 142.724 194.720, 144.659 195.520, 145.445 190.750 C 145.740 188.963, 147.599 178.050, 149.575 166.500 C 151.636 154.458, 152.953 143.849, 152.663 141.629 C 152.058 136.993, 148.935 133.530, 138.505 125.929 C 134.408 122.943, 131.043 120.162, 131.028 119.750 C 131.013 119.338, 132.463 118.993, 134.250 118.984 C 136.037 118.975, 139.274 117.962, 141.441 116.734 C 147.174 113.485, 149.982 107.415, 150.825 96.449 L 151.500 87.663 161.500 85.963 C 174.511 83.751, 179.469 82.345, 181.076 80.409 C 183.185 77.867, 181.370 76.379, 168.046 69.722 C 153.438 62.424, 149.663 58.734, 149.672 51.760 C 149.675 49.417, 150.448 46.015, 151.390 44.201 C 152.987 41.123, 152.995 40.315, 151.508 32.201 C 148.700 16.879, 146.472 12.142, 142.958 14.023 C 140.353 15.417, 138.265 22.634, 132.989 48.476 C 128.331 71.288, 128.282 71.445, 127.620 65.500 C 125.389 45.451, 124.667 40.324, 122.553 29.497 C 119.698 14.871, 118.151 8.965, 117.211 9.110 C 116.820 9.170, 114.700 9.565, 112.500 9.988 M 90 14.077 C 81.475 14.530, 71.800 15.035, 68.500 15.200 C 62.570 15.496, 62.617 15.515, 72.500 16.804 C 90.406 19.140, 97.697 22.089, 96.579 26.543 C 96.105 28.429, 97.016 29.042, 104.518 31.892 C 109.178 33.662, 115.024 36.662, 117.508 38.558 L 122.025 42.006 121.345 37.753 C 120.971 35.414, 119.707 29, 118.538 23.500 L 116.411 13.500 110.955 13.377 C 107.955 13.310, 98.525 13.625, 90 14.077 M 141.729 22.250 C 140.830 25.138, 137.338 41, 133.970 57.500 C 128.923 82.222, 125.416 97.076, 121.332 111.020 C 121.072 111.907, 122.201 113.512, 124.042 114.873 C 126.783 116.899, 127.900 117.118, 132.548 116.537 C 143.665 115.148, 147.850 109.018, 147.946 93.984 L 148 85.469 160.750 83.306 C 174.289 81.009, 179.444 79.527, 178.606 78.171 C 178.323 77.713, 175.033 76.068, 171.296 74.515 C 154.284 67.446, 147 60.642, 147 51.818 C 147 49.133, 147.682 45.304, 148.515 43.309 C 149.750 40.354, 149.834 38.556, 148.969 33.591 C 147.524 25.304, 145.115 17, 144.155 17 C 143.720 17, 142.629 19.362, 141.729 22.250 M 86 33.556 L 80.500 35.938 89.500 35.740 C 94.450 35.631, 99.063 35.896, 99.750 36.330 C 102.679 38.177, 100.927 40.933, 94.250 44.985 C 90.417 47.310, 88.581 48.862, 90 48.575 C 91.375 48.297, 97.900 47.100, 104.500 45.915 C 111.100 44.730, 116.888 43.404, 117.362 42.969 C 118.712 41.727, 111.227 37.308, 102.184 34.008 C 97.651 32.353, 93.393 31.039, 92.721 31.087 C 92.050 31.135, 89.025 32.246, 86 33.556 M 66.500 40.158 C 54.950 41.199, 40.917 41.917, 35.316 41.753 C 27.765 41.532, 25.377 41.750, 26.081 42.597 C 27.995 44.904, 38.761 48.945, 46.028 50.084 C 54.292 51.380, 79.889 50.757, 80.893 49.236 C 81.227 48.731, 85.213 46.396, 89.750 44.047 C 94.287 41.699, 98 39.377, 98 38.889 C 98 37.665, 91.008 37.947, 66.500 40.158 M 115 46.692 C 111.425 47.455, 102.650 49.119, 95.500 50.390 L 82.500 52.700 87 53.885 C 89.475 54.537, 93.389 55.758, 95.698 56.598 C 99.620 58.025, 99.943 58.434, 100.611 62.813 C 101.003 65.391, 100.768 73.125, 100.087 80 L 98.848 92.500 103.073 96.268 C 107.891 100.565, 106.582 100.896, 118.750 92.309 L 125 87.899 125 77.555 C 125 66.190, 123.284 46.846, 122.192 45.902 C 121.811 45.573, 118.575 45.928, 115 46.692 M 65.500 55.663 C 54.569 58.016, 47.012 62.417, 43.442 68.509 C 36.924 79.630, 44.108 91.175, 63.427 100.631 C 68.338 103.034, 72.950 105, 73.677 105 C 74.405 105, 75 105.652, 75 106.449 C 75 107.660, 72.178 107.886, 57.750 107.826 C 40.405 107.754, 32.589 108.748, 28.250 111.578 C 19.934 117.003, 36.053 123.931, 54 122.646 C 58.675 122.311, 64.975 121.347, 68 120.504 C 88.470 114.795, 88.845 114.739, 103.200 115.197 C 119.445 115.715, 120.250 115.054, 111.922 108.031 C 107.377 104.199, 106.586 103.868, 104.375 104.875 C 97.922 107.815, 94.405 104.972, 95.248 97.494 C 95.706 93.427, 95.474 93.010, 88.521 85.422 L 81.319 77.561 79.900 80.531 C 76.398 87.860, 71.160 82.867, 70.233 71.316 C 69.801 65.928, 69.983 64.944, 71.521 64.354 C 72.792 63.866, 74.114 64.563, 76.070 66.752 C 77.587 68.450, 79.092 69.575, 79.414 69.253 C 79.736 68.930, 80 65.592, 80 61.833 L 80 55 73.750 55.116 C 70.313 55.180, 66.600 55.426, 65.500 55.663 M 83 59.353 C 83 61.198, 82.746 65.360, 82.436 68.603 L 81.873 74.500 88.575 81.812 C 92.467 86.057, 95.648 88.752, 96.163 88.237 C 96.650 87.750, 97.327 81.531, 97.667 74.417 C 98.373 59.657, 98.579 60.112, 90.068 57.602 C 82.924 55.495, 83 55.476, 83 59.353 M 73 71.228 C 73 75.279, 74.802 81, 76.079 81 C 79.006 81, 77.703 71.658, 74.392 68.911 C 73.248 67.961, 73 68.374, 73 71.228 M 117.500 96.561 C 114.750 98.533, 111.825 100.566, 111 101.081 C 109.776 101.844, 110.327 102.769, 114 106.116 L 118.500 110.216 120.757 102.858 C 121.999 98.811, 122.899 94.932, 122.757 94.239 C 122.594 93.439, 120.671 94.288, 117.500 96.561 M 98 99.465 C 98 102.546, 98.313 103, 100.441 103 C 104.936 103, 104.582 99.452, 99.832 96.910 C 98.217 96.046, 98 96.347, 98 99.465 M 115.435 125.136 C 111.602 133.156, 106.226 138.679, 101.364 139.591 C 97.086 140.394, 90.249 137.404, 87.043 133.328 C 85.305 131.118, 84.611 131.003, 73.356 131.056 C 61.816 131.111, 54.403 132.472, 54.594 134.500 C 54.789 136.564, 63.335 140.225, 72.259 142.067 C 87.534 145.219, 107.086 144.110, 115.815 139.596 C 118.685 138.112, 118.867 138.148, 120.427 140.530 C 123.004 144.463, 123.460 148.649, 121.617 151.462 C 118.718 155.887, 111.709 157.075, 83.621 157.901 C 61.014 158.566, 57.925 158.859, 54.895 160.624 C 51.180 162.788, 50.214 165.543, 52.212 168.274 C 54.260 171.072, 68.405 172.249, 85.362 171.033 C 120.461 168.517, 130.261 169.945, 137.968 178.701 C 140.185 181.220, 142 183.893, 142 184.641 C 142 185.388, 142.338 185.997, 142.750 185.993 C 143.573 185.986, 150.156 147.031, 150.016 143 C 149.863 138.586, 147.623 136.102, 136.012 127.465 C 121.341 116.552, 119.630 116.359, 115.435 125.136" stroke="none" fill="black" fill-rule="evenodd"/>
</svg>