<svg xmlns="http://www.w3.org/2000/svg" width="200" height="200" viewBox="0 0 200 200" version="1.1">
	<path d="M 126.500 12.669 C 124.300 12.853, 108.959 13.930, 92.409 15.064 C 75.859 16.198, 60.110 17.689, 57.410 18.378 C 51.891 19.786, 50.714 21.921, 53.660 25.177 C 56.937 28.798, 68.904 35.226, 78.521 38.532 L 87.915 41.761 71.207 42.433 C 43.856 43.533, 34 45.310, 34 49.140 C 34 51.612, 39.880 54.462, 50.831 57.299 L 59.779 59.617 55.349 63.928 C 44.650 74.339, 43.478 85.478, 52.167 94.167 C 56.690 98.690, 65.749 103.176, 73.799 104.879 C 81.303 106.466, 95.776 106.275, 101.591 104.511 C 107.964 102.578, 107.660 102.475, 107.200 106.409 C 106.922 108.790, 106.154 110.043, 104.651 110.562 C 103.468 110.971, 86.750 111.575, 67.500 111.903 C 30.765 112.530, 28.337 112.840, 25.592 117.259 C 23.904 119.977, 26.641 123.829, 33.814 128.833 L 40.067 133.195 49.199 131.517 C 54.221 130.594, 59.834 130.121, 61.672 130.466 C 67.242 131.511, 67.988 133.792, 67.937 149.630 C 67.887 165.516, 69.335 171.222, 75.451 179.232 C 81.658 187.361, 81.765 187.392, 106 187.958 C 144.963 188.867, 157.928 188.588, 164.163 186.705 C 173.567 183.865, 176.923 177.815, 173.902 169.149 C 173.298 167.417, 172.152 166, 171.355 166 C 170.558 166, 164.640 166.989, 158.203 168.197 C 142.705 171.107, 119.027 171.383, 111.468 168.742 C 105.055 166.502, 99.527 161.944, 96.805 156.653 C 94.371 151.922, 93.231 139.662, 94.699 134 C 95.899 129.374, 102.700 125.265, 117.103 120.466 C 130.564 115.980, 134.391 113.555, 134.812 109.241 C 135.068 106.610, 134.314 105.181, 130.534 101.140 C 128.010 98.442, 124.185 95.014, 122.033 93.523 C 118.558 91.115, 118.226 90.536, 119.061 88.341 C 120.454 84.676, 120.200 78.287, 118.533 75.063 C 117.216 72.518, 117.262 71.513, 118.979 65.319 C 122.032 54.302, 122.647 53.174, 126.479 51.573 C 131.055 49.661, 131.841 47.524, 129.056 44.560 L 126.859 42.221 129.850 36.361 C 133.020 30.146, 137.986 22.973, 138.021 24.556 C 138.032 25.075, 138.725 30.900, 139.559 37.500 C 140.394 44.100, 141.347 61.681, 141.679 76.569 C 142.213 100.567, 142.085 104.227, 140.556 108.831 C 138.524 114.950, 131.788 122.743, 123.014 129.128 C 116.550 133.831, 115.088 136.196, 117.126 138.652 C 118.863 140.745, 121.224 141.593, 137 145.786 C 153.541 150.182, 156.076 150.260, 160.010 146.490 C 167.154 139.646, 169.281 127.047, 169.464 90.500 C 169.565 70.189, 169.968 61.428, 170.930 58.596 C 173.099 52.212, 171.897 37.638, 168.608 30.455 C 164.973 22.514, 161.639 18.367, 156.982 15.991 C 152.051 13.475, 148.455 13.474, 143.530 15.985 C 141.388 17.077, 139.584 17.864, 139.521 17.735 C 139.457 17.606, 138.873 16.262, 138.224 14.750 C 136.977 11.846, 136.788 11.812, 126.500 12.669 M 116 16.061 C 110.225 16.488, 97.400 17.417, 87.500 18.127 C 67.964 19.528, 67.800 19.393, 92.224 21.988 C 99.463 22.757, 104.375 23.747, 105.064 24.577 C 105.678 25.316, 106.211 28.017, 106.250 30.579 C 106.315 34.887, 106.570 35.340, 109.660 36.631 C 113.073 38.057, 114.161 40, 111.547 40 C 110.748 40, 108.950 39.479, 107.551 38.841 C 105.464 37.890, 104.680 37.980, 103.175 39.341 C 102.167 40.254, 100.703 41.059, 99.921 41.132 C 99.140 41.204, 99.980 41.542, 101.789 41.882 C 103.598 42.222, 105.106 42.950, 105.140 43.500 C 105.174 44.050, 101.892 45.662, 97.848 47.083 C 85.099 51.560, 82.091 54.266, 90.750 53.468 C 93.362 53.227, 100.900 52.539, 107.500 51.939 C 119.722 50.826, 121.264 50.238, 122.467 46.227 C 123.062 44.245, 122.550 43.688, 118.469 41.883 C 112.474 39.231, 113.773 37.125, 119.893 39.574 C 122.197 40.496, 124.235 41.082, 124.421 40.875 C 124.607 40.669, 125.994 38.025, 127.503 35 C 129.012 31.975, 131.782 27.393, 133.659 24.817 C 136.274 21.229, 136.921 19.534, 136.427 17.567 C 135.696 14.653, 135.370 14.629, 116 16.061 M 143.984 18.889 C 141.821 20.061, 140.538 21.484, 140.600 22.639 C 140.656 23.662, 141.522 31.700, 142.526 40.500 C 143.795 51.624, 144.373 64.271, 144.425 82 C 144.496 106.109, 144.382 107.755, 142.339 112.176 C 139.621 118.056, 133.494 124.743, 125.333 130.735 C 121.850 133.293, 119 135.737, 119 136.167 C 119 137.733, 125.262 140.115, 137.247 143.109 C 153.886 147.265, 154.472 147.353, 156.882 146.063 C 158.043 145.442, 159.924 143.109, 161.062 140.879 C 164.990 133.179, 166.164 123.153, 167.022 90 C 167.470 72.675, 168.271 56.250, 168.802 53.500 C 169.993 47.337, 168.732 37.442, 165.954 31.163 C 160.419 18.649, 152.543 14.249, 143.984 18.889 M 57.959 25.038 C 62.554 28.966, 75.999 35.445, 83.644 37.416 C 91.073 39.331, 97.994 39.456, 100.371 37.718 C 101.900 36.600, 100.357 35.778, 88.298 31.287 C 72.874 25.542, 60.821 21.979, 57.020 22.041 C 54.531 22.081, 54.543 22.118, 57.959 25.038 M 88.959 28.525 C 96.911 31.536, 103.549 34, 103.709 34 C 104.372 34, 103.906 28.400, 103.143 27.197 C 102.428 26.070, 83.171 23.077, 76.500 23.056 C 75.400 23.053, 81.006 25.514, 88.959 28.525 M 53.873 46.120 C 47.478 46.580, 40.953 47.452, 39.373 48.058 L 36.500 49.160 39.134 50.551 C 44.661 53.470, 57.081 56.203, 61.863 55.553 C 66.222 54.961, 70.586 54.615, 79.133 54.183 C 81.838 54.047, 82.901 53.488, 83.291 51.997 C 83.604 50.798, 85.958 48.996, 89.157 47.507 L 94.500 45.020 80 45.152 C 72.025 45.225, 60.268 45.661, 53.873 46.120 M 124.627 47.530 C 124.188 48.675, 124.495 49.051, 125.682 48.823 C 127.458 48.481, 127.800 46.767, 126.198 46.233 C 125.675 46.058, 124.968 46.642, 124.627 47.530 M 101.135 55.263 L 90.770 56.232 98.288 59.501 C 102.423 61.299, 107.854 64.179, 110.356 65.901 L 114.906 69.031 116.953 62.158 C 118.079 58.377, 119 54.995, 119 54.642 C 119 53.853, 114.586 54.006, 101.135 55.263 M 82.054 59.825 C 87.484 63.274, 93 69.396, 93 71.972 C 93 73.260, 95.782 75.688, 101.614 79.489 C 106.352 82.578, 110.434 84.900, 110.684 84.649 C 111.657 83.676, 114.046 72.884, 113.488 71.981 C 110.849 67.710, 88.074 57, 81.632 57 L 77.608 57 82.054 59.825 M 61.211 62.021 C 52.517 68.943, 47.922 77.816, 49.443 84.743 C 52.387 98.143, 80.824 107.613, 101.170 101.968 C 106.642 100.450, 108.802 98.116, 109.530 92.933 L 110.172 88.365 101.916 82.945 C 96.146 79.157, 93.525 77.926, 93.214 78.859 C 92.369 81.393, 87.001 86.757, 84.112 87.954 C 80.407 89.488, 75.996 88.969, 74.665 86.843 C 73.185 84.479, 75.231 78.558, 79.553 72.698 L 83.095 67.896 86.548 70.029 C 88.446 71.203, 90 71.698, 90 71.130 C 90 69.259, 82.843 63.101, 77.678 60.527 C 70.439 56.919, 67.255 57.208, 61.211 62.021 M 80.104 76.838 C 76.991 81.689, 76.170 85.369, 77.956 86.473 C 79.388 87.358, 85.211 84.585, 87.601 81.879 C 91.265 77.730, 91.291 76.148, 87.729 73.976 C 85.953 72.893, 84.209 72.006, 83.854 72.004 C 83.499 72.002, 81.812 74.177, 80.104 76.838 M 115.236 80.500 C 113.755 85.337, 113.677 87.682, 114.971 88.482 C 116.283 89.293, 117.215 85.180, 116.800 80.405 L 116.461 76.500 115.236 80.500 M 112.345 92.543 C 111.415 94.967, 112.713 95.405, 113.954 93.086 C 114.728 91.639, 114.743 91, 114.004 91 C 113.417 91, 112.671 91.694, 112.345 92.543 M 116 94.864 C 116 95.339, 114.875 96.852, 113.500 98.227 C 111.528 100.199, 109 107.678, 109 111.539 C 109 111.685, 107.537 112.378, 105.750 113.080 C 103.391 114.006, 93.454 114.414, 69.500 114.567 C 34.363 114.792, 28 115.474, 28 119.015 C 28 121.154, 36.819 128.666, 40.379 129.559 C 41.581 129.861, 44.576 129.644, 47.033 129.078 C 49.490 128.512, 54.512 128.038, 58.194 128.024 C 63.852 128.004, 65.323 128.374, 67.694 130.416 L 70.500 132.832 70.528 147.666 C 70.544 156.197, 71.065 164.206, 71.753 166.515 C 73.390 172.005, 78.113 179.215, 82.151 182.389 L 85.500 185.022 122.500 185.261 C 161.791 185.515, 164.788 185.226, 169.750 180.703 C 172.355 178.327, 173.007 170.324, 170.668 169.426 C 169.936 169.145, 164.198 169.846, 157.918 170.983 C 122.272 177.440, 101.637 173.011, 93.878 157.238 C 91.878 153.170, 91.545 150.965, 91.527 141.653 C 91.506 130.806, 91.507 130.805, 94.503 128.346 C 99.065 124.603, 106.471 121.053, 117.403 117.367 C 134.775 111.512, 135.648 109.642, 125.463 100.115 C 119.514 94.549, 116 92.600, 116 94.864" stroke="none" fill="black" fill-rule="evenodd"/>
</svg>