<svg xmlns="http://www.w3.org/2000/svg" width="200" height="200" viewBox="0 0 200 200" version="1.1">
	<path d="M 121.500 11.715 C 119.300 11.938, 104.044 12.880, 87.598 13.810 L 57.696 15.500 57.334 17.881 C 57.135 19.191, 57.517 20.918, 58.182 21.719 C 59.556 23.375, 73.621 30.519, 82.286 33.962 C 85.468 35.227, 87.861 36.472, 87.604 36.729 C 86.967 37.366, 44.908 40.958, 37.809 40.981 C 34.679 40.991, 31.850 41.434, 31.522 41.964 C 29.860 44.654, 48.294 52.312, 59.641 53.645 C 64.983 54.273, 65.154 54.380, 63.249 55.902 C 55.543 62.062, 55.742 72.659, 63.950 93.116 C 68.544 104.567, 68.729 105.472, 66.141 103.856 C 62.582 101.633, 38.191 107.212, 33.382 111.348 C 29.353 114.814, 31.307 117.442, 39.774 119.946 C 57.722 125.253, 91.618 125.275, 105.031 119.988 C 107.632 118.963, 113.639 117.809, 118.380 117.424 L 127 116.725 126.986 124.612 C 126.979 128.951, 126.714 133.465, 126.397 134.644 L 125.822 136.788 119.949 134.401 C 109.177 130.024, 98.907 127.670, 90.429 127.634 C 83.440 127.605, 81.744 127.960, 77.775 130.286 C 70.968 134.275, 68.559 139.817, 69.271 149.847 C 69.904 158.764, 74.128 171.287, 79.789 181.031 L 83.548 187.500 97.524 188.309 C 116.330 189.397, 150.022 188.514, 157 186.751 C 170.986 183.215, 173.157 177.483, 163.765 168.897 C 160.880 166.261, 160.224 165.246, 161.643 165.617 C 163.271 166.043, 164.072 165.368, 165.492 162.376 C 168.015 157.059, 166.274 154.158, 158.976 151.521 C 154.191 149.792, 150.882 149.539, 132.751 149.521 L 112.002 149.500 120.751 147.275 C 126.048 145.927, 132.854 145.005, 138 144.938 C 159.643 144.653, 165.883 143.441, 165.999 139.500 C 166.015 138.950, 161.102 133.724, 155.080 127.887 L 144.132 117.275 151.217 116.616 C 159.761 115.822, 164.987 113.148, 167.811 108.123 C 171.005 102.439, 172.362 92.123, 171.685 78.659 C 171.241 69.837, 171.463 65.320, 172.543 61.172 C 175.468 49.944, 173.610 33.129, 168.476 24.369 C 161.371 12.246, 151.958 12.141, 145.123 24.109 L 142.158 29.300 140.962 24.900 C 140.304 22.480, 139.635 18.475, 139.475 16 L 139.184 11.500 132.342 11.405 C 128.579 11.353, 123.700 11.493, 121.500 11.715 M 106.830 15.401 C 97.662 16.005, 89.824 16.837, 89.414 17.250 C 89.003 17.663, 89.401 18, 90.298 18 C 92.821 18, 101.159 21.033, 103.660 22.860 C 104.895 23.762, 106.413 25.695, 107.035 27.156 C 107.907 29.207, 110.026 30.549, 116.333 33.046 C 120.825 34.824, 127.075 37.567, 130.221 39.140 C 133.368 40.713, 136.335 42, 136.813 42 C 137.292 42, 138.226 40.188, 138.890 37.972 C 139.913 34.558, 139.785 32.504, 138.048 24.490 C 136.922 19.290, 136 14.802, 136 14.517 C 136 13.811, 126.651 14.094, 106.830 15.401 M 80.500 21.400 C 87.650 23.310, 96.091 25.778, 99.258 26.885 C 104.670 28.777, 104.958 28.789, 104.048 27.089 C 101.996 23.255, 90.246 19.847, 74.500 18.518 C 67.659 17.941, 67.796 18.006, 80.500 21.400 M 151.808 19.936 C 150.454 21.001, 147.918 24.553, 146.172 27.829 L 142.997 33.785 145.019 45.610 C 147.965 62.844, 148.575 78.778, 146.636 87.852 C 144.437 98.145, 142.550 100.976, 136.554 102.982 C 133.842 103.889, 131.467 105.098, 131.277 105.668 C 131.088 106.237, 133.001 108.399, 135.530 110.471 L 140.128 114.239 148.814 113.802 C 159.841 113.247, 163.424 111.484, 166.338 105.179 C 168.286 100.963, 168.515 98.669, 168.649 82 C 168.735 71.281, 169.261 62.316, 169.899 60.685 C 171.792 55.844, 171.254 40.032, 168.940 32.542 C 165.210 20.466, 157.937 15.115, 151.808 19.936 M 61 20.514 C 61 21.206, 75.461 28.241, 83.747 31.580 C 87.732 33.186, 90.995 35.096, 90.997 35.825 C 90.999 36.869, 92.854 37.024, 99.750 36.556 C 110.537 35.824, 115.383 36.767, 115.805 39.679 C 116.185 42.293, 112.831 44.796, 104 48.491 C 95.845 51.903, 95.509 52.240, 101.038 51.468 C 119.523 48.886, 134.666 44.675, 131.870 42.894 C 131.117 42.414, 125.580 39.934, 119.567 37.384 C 110.717 33.630, 108.291 32.962, 106.831 33.874 C 104.386 35.400, 104 35.304, 104 33.164 C 104 31.693, 101.661 30.602, 92.250 27.684 C 78.123 23.304, 61 19.375, 61 20.514 M 71 41.153 C 58.075 42.210, 45.475 43.345, 43 43.675 L 38.500 44.276 43.500 46.590 C 50.915 50.022, 64.310 52, 80.131 52 C 91.792 52, 94 51.761, 94 50.500 C 94 49.675, 94.496 49, 95.103 49 C 95.709 49, 100.090 47.180, 104.838 44.955 C 111.403 41.878, 113.115 40.684, 111.985 39.970 C 109.844 38.616, 97.779 38.964, 71 41.153 M 140.693 42 C 139.539 44.848, 137.107 55.529, 135.571 64.500 C 134.343 71.673, 131.052 98.139, 131.010 101.187 C 131.004 101.564, 132.912 101.329, 135.250 100.664 C 138.572 99.719, 139.883 98.678, 141.253 95.893 C 144.309 89.684, 145.285 81.377, 144.587 67.500 C 143.896 53.758, 141.715 39.478, 140.693 42 M 132.500 46.640 C 128.184 49.133, 114.469 52.619, 104 53.883 C 97.386 54.682, 97.430 54.943, 104.500 56.851 C 110.831 58.560, 117.426 63.271, 119.445 67.526 C 121.754 72.392, 121.121 79.408, 117.669 87.213 L 115.143 92.926 121.108 98.093 C 124.388 100.935, 127.326 103.007, 127.636 102.697 C 127.946 102.387, 128.810 96.303, 129.555 89.177 C 131.106 74.350, 133.296 60.119, 135.439 50.929 C 136.253 47.440, 136.825 44.528, 136.710 44.458 C 136.594 44.387, 134.700 45.369, 132.500 46.640 M 67.212 56.918 C 57.872 61.314, 57.832 70.361, 67.049 93.355 C 72.563 107.111, 72.253 109.895, 65.548 106.840 C 63.594 105.950, 61.313 105.978, 55.751 106.963 C 45.983 108.691, 36.514 111.676, 34.997 113.503 C 29.645 119.952, 85.387 123.767, 101.899 118.082 C 107.355 116.203, 120.324 114.033, 126.250 114.008 C 127.576 114.002, 128 113.167, 128 110.559 C 128 108.666, 127.617 106.881, 127.149 106.592 C 126.681 106.303, 123.564 106.574, 120.222 107.196 C 114.956 108.175, 113.803 108.101, 111.573 106.640 C 108.722 104.772, 108.346 102.175, 110.168 96.947 C 111.324 93.632, 111.274 93.540, 105.418 88.241 C 102.163 85.295, 98.292 82.001, 96.815 80.921 L 94.130 78.956 92.807 81.716 C 89.655 88.292, 85.084 83.914, 84.250 73.520 C 83.800 67.923, 83.974 66.947, 85.525 66.352 C 86.796 65.864, 87.962 66.468, 89.519 68.421 C 91.393 70.771, 91.812 70.932, 92.359 69.507 C 92.711 68.588, 93 65.446, 93 62.525 C 93 56.109, 92.830 56.012, 80.500 55.369 C 72.913 54.974, 70.827 55.217, 67.212 56.918 M 95.993 60.139 C 95.989 61.437, 95.709 65.433, 95.370 69.019 L 94.754 75.538 103.881 83.343 L 113.007 91.149 115.147 86.324 C 118.280 79.260, 118.644 71.351, 116.029 67.183 C 113.803 63.635, 106.388 59.661, 99.750 58.457 C 96.285 57.829, 95.999 57.957, 95.993 60.139 M 87.032 73.185 C 87.014 75.212, 87.499 78.137, 88.109 79.685 C 89.202 82.460, 89.232 82.469, 90.233 80.314 C 91.400 77.802, 90.758 74.387, 88.575 71.500 C 87.137 69.597, 87.062 69.679, 87.032 73.185 M 112.446 99.435 C 112.092 101.324, 112.098 103.349, 112.460 103.935 C 113.202 105.136, 118.522 105.243, 121.395 104.116 C 123.062 103.462, 122.749 102.928, 118.792 99.686 C 116.318 97.659, 114.023 96, 113.692 96 C 113.361 96, 112.801 97.546, 112.446 99.435 M 130 111.965 C 130 113.482, 130.652 114, 132.559 114 C 135.340 114, 135.064 112.640, 131.944 110.970 C 130.315 110.098, 130 110.259, 130 111.965 M 129.502 128.968 L 128.783 140.936 125.141 139.346 C 123.139 138.472, 116.775 136.169, 111 134.228 C 102.272 131.295, 98.981 130.683, 91.500 130.600 C 84.175 130.519, 81.870 130.872, 79.113 132.500 C 69.100 138.413, 69.739 155.135, 80.815 177 L 84.614 184.500 92.057 185.119 C 104.801 186.180, 142.473 186.053, 150.600 184.923 C 160.066 183.606, 165.721 181.455, 166.545 178.858 C 167.289 176.513, 164.968 172.680, 161.380 170.330 C 159.091 168.830, 158.129 168.779, 153.144 169.891 C 123.689 176.461, 104.828 176.638, 108.569 170.309 C 111.626 165.137, 125.274 161.988, 144.500 162.020 C 152.200 162.032, 159.338 162.146, 160.362 162.271 C 162.964 162.591, 164.817 159.525, 163.397 157.250 C 160.850 153.170, 155.871 152.500, 128.084 152.500 C 95.137 152.500, 93.601 151.598, 116 145.407 C 123.946 143.210, 128.473 142.674, 143.679 142.128 C 153.678 141.769, 162.171 141.162, 162.554 140.780 C 163.569 139.764, 159.023 134.716, 148.651 125.339 C 139.989 117.508, 139.252 117.064, 134.861 117.033 L 130.221 117 129.502 128.968 M 130.760 165.048 C 123.258 165.922, 114.210 168.570, 112.163 170.490 C 108.470 173.957, 124.590 172.983, 146 168.447 C 152.325 167.107, 157.950 165.948, 158.500 165.872 C 159.050 165.795, 157.250 165.382, 154.500 164.954 C 148.292 163.987, 139.572 164.022, 130.760 165.048" stroke="none" fill="black" fill-rule="evenodd"/>
</svg>