<svg xmlns="http://www.w3.org/2000/svg" width="200" height="200" viewBox="0 0 200 200" version="1.1">
	<path d="M 136.866 10.758 C 136.665 11.284, 125.257 12.254, 111.500 12.915 C 67.754 15.018, 60.727 15.653, 59.281 17.631 C 56.059 22.037, 59.195 27.545, 67.249 31.626 C 73.144 34.614, 80.480 36.974, 83.917 36.989 C 89.716 37.015, 84.382 38.115, 73.901 39.054 C 67.630 39.616, 57.343 40.979, 51.040 42.084 C 33.765 45.111, 30.202 47.578, 38.923 50.474 C 45.410 52.629, 60.007 54.991, 66.863 54.996 L 72.226 55 67.390 58.250 C 55.137 66.485, 49.474 82.163, 55.455 91.291 C 59.369 97.264, 76.233 101.528, 95.608 101.443 C 106.851 101.394, 116.050 94.211, 117.765 84.140 L 118.507 79.781 120.799 81.640 L 123.091 83.500 118.441 90.500 C 107.473 107.011, 98.703 111.828, 91.164 105.485 C 88.654 103.372, 86.589 102.818, 78.274 102.026 C 54.156 99.728, 29.543 106.434, 32.625 114.465 C 34.403 119.099, 48.243 121.519, 67.829 120.620 L 81.158 120.008 73.207 127.487 C 59.940 139.968, 59.785 143.003, 72 151.152 C 84.464 159.469, 89.426 167.293, 90.912 180.978 L 91.511 186.500 95.093 186.400 C 100.369 186.254, 104.101 182.978, 115.108 168.831 C 128.808 151.222, 133.043 148.697, 138.333 154.984 C 140.605 157.684, 145 167.623, 145 170.059 C 145 170.601, 146.283 173.874, 147.851 177.332 C 153.845 190.552, 161.365 191.094, 167.620 178.759 C 175.685 162.856, 174.323 138.536, 165.071 133.226 L 162.266 131.616 165.159 127.622 C 170.900 119.697, 172.991 106.232, 173.018 77.026 C 173.028 66.287, 173.452 53.541, 173.961 48.702 C 174.996 38.864, 173.249 23.316, 170.514 18.026 C 168.526 14.182, 165.629 12.593, 163.088 13.953 C 159.869 15.676, 154.655 22.450, 150.505 30.302 L 146.555 37.775 143.440 25.335 C 140.655 14.215, 137.891 8.086, 136.866 10.758 M 114 15.565 C 102.175 16.252, 89.575 16.915, 86 17.038 L 79.500 17.263 85 18.202 C 105.766 21.747, 110.134 23.339, 110.794 27.600 C 110.982 28.813, 113.968 31.054, 119.044 33.794 C 126.296 37.709, 128.816 40, 125.869 40 C 125.246 40, 121.246 38.140, 116.980 35.867 L 109.222 31.733 103.061 34.812 L 96.900 37.891 100.700 38.558 C 105.300 39.365, 109 41.544, 109 43.445 C 109 44.215, 107.093 46.477, 104.762 48.472 L 100.523 52.100 105.012 51.473 C 114.663 50.124, 125.743 47.684, 130.819 45.790 C 135.957 43.872, 138.424 43.976, 136.377 46.023 C 134.564 47.836, 124.613 50.873, 114.769 52.617 L 105.038 54.341 108.428 56.645 C 112.182 59.196, 117.992 69.662, 118.012 73.910 C 118.021 75.739, 119.003 77.133, 121.355 78.656 L 124.685 80.812 134.497 61.753 L 144.309 42.693 142.543 33.597 C 140.446 22.800, 137.888 14.708, 136.500 14.480 C 135.950 14.390, 125.825 14.878, 114 15.565 M 162.840 17.032 C 160.891 18.167, 154.555 27.978, 150.207 36.591 L 147.147 42.653 148.143 53.651 C 148.783 60.713, 148.801 67.724, 148.195 73.242 C 147.472 79.821, 147.573 83.079, 148.625 87.136 C 150.140 92.976, 150.284 97.442, 149.056 100.500 C 148.430 102.060, 149.242 103.665, 152.745 107.798 C 155.216 110.712, 157.071 113.239, 156.868 113.414 C 156.666 113.589, 153.350 113.185, 149.500 112.516 C 143.877 111.539, 142.205 111.551, 141 112.578 C 138.328 114.853, 127.476 119.851, 122.470 121.112 C 116.109 122.714, 117.186 123.136, 137.423 126.978 C 157.218 130.735, 158.410 130.744, 161.989 127.165 C 167.917 121.237, 169.740 109.108, 170.882 68 C 171.764 36.244, 171.200 26.179, 168.192 20.054 C 166.301 16.204, 165.265 15.619, 162.840 17.032 M 61.678 19.655 C 56.408 24.925, 76.005 34.986, 91.500 34.963 C 96.816 34.956, 105.547 31.694, 104.554 30.087 C 104.232 29.566, 99.363 27.343, 93.734 25.147 C 86.560 22.348, 81.257 20.968, 76 20.531 C 71.875 20.188, 67.118 19.698, 65.428 19.442 C 63.739 19.186, 62.052 19.282, 61.678 19.655 M 101.895 25.531 C 107.136 27.971, 109.366 28.316, 106.774 26.288 C 105.334 25.161, 99.274 22.995, 97.601 23.010 C 96.995 23.015, 98.928 24.150, 101.895 25.531 M 66 42.596 C 54.959 43.922, 40.058 46.608, 39.247 47.419 C 39.034 47.633, 41.978 48.517, 45.789 49.384 C 55.356 51.560, 75.840 53.310, 85.697 52.794 C 92.981 52.412, 94.540 51.963, 99.697 48.762 C 109.434 42.717, 107.278 41.195, 89 41.207 C 82.675 41.211, 72.325 41.836, 66 42.596 M 135.811 65.160 L 127.122 82.177 136.311 90.988 C 141.365 95.834, 145.838 99.592, 146.250 99.340 C 147.422 98.624, 147.131 91.771, 145.723 86.909 C 144.923 84.147, 144.703 80.632, 145.135 77.500 C 146.037 70.958, 146.070 56.482, 145.192 51.822 C 144.509 48.192, 144.387 48.365, 135.811 65.160 M 93.750 55.756 C 90.451 56.208, 90.307 57.063, 93.104 59.594 C 94.261 60.641, 95.973 62.990, 96.908 64.813 C 98.280 67.487, 99.855 68.574, 105.054 70.439 C 108.599 71.710, 112.355 73.105, 113.400 73.540 C 115.090 74.242, 115.220 74.008, 114.581 71.414 C 111.997 60.928, 103.365 54.439, 93.750 55.756 M 76.358 56.954 C 66.103 59.399, 55.847 71.842, 55.693 82.023 C 55.554 91.229, 61.664 95.540, 77 97.057 C 81.675 97.520, 88.200 98.196, 91.500 98.560 C 104.727 100.020, 113.239 94.126, 115.491 81.949 C 116.138 78.454, 116.063 78.355, 110.783 75.770 C 107.832 74.325, 104.149 72.825, 102.598 72.435 C 100.145 71.820, 99.856 71.973, 100.373 73.614 C 101.080 75.860, 103 85.847, 103 87.277 C 103 87.911, 99.935 88.091, 94.702 87.764 C 85.798 87.209, 78.928 84.603, 77.033 81.062 C 73.481 74.424, 79.826 68, 89.934 68 C 92.720 68, 95 67.551, 95 67.003 C 95 64.775, 87.622 57.989, 84.152 57.025 C 82.143 56.468, 80.275 56.055, 80 56.108 C 79.725 56.161, 78.086 56.542, 76.358 56.954 M 84.600 71.478 C 80.083 73.087, 78.880 74.540, 79.241 77.951 C 79.627 81.601, 84.872 84.186, 93.083 84.774 L 100.004 85.269 99.399 81.885 C 97.893 73.461, 96.968 71.225, 94.742 70.628 C 91.392 69.730, 88.922 69.937, 84.600 71.478 M 121.493 90.772 C 115.419 100.024, 110.945 105.079, 106.127 108.134 C 100.056 111.984, 95.705 111.902, 89.545 107.822 L 84.748 104.644 70.124 104.583 C 54.487 104.518, 44.422 106.241, 38.146 110.057 C 34.050 112.549, 34.178 113.749, 38.750 115.712 C 43.349 117.686, 66.048 118.553, 79.750 117.278 C 84.838 116.805, 89 116.689, 89 117.021 C 89 117.352, 87.592 118.665, 85.871 119.937 C 80.426 123.963, 67.894 136.301, 66.558 138.952 C 65.852 140.353, 65.487 142.097, 65.746 142.826 C 66.005 143.556, 69.206 146.073, 72.859 148.420 C 85.264 156.392, 90.796 164.260, 93.132 177.250 C 93.821 181.081, 94.856 184, 95.525 184 C 98.315 184, 103.999 178.778, 110.805 169.962 C 114.822 164.758, 120.325 158.160, 123.033 155.299 C 133.447 144.300, 140.931 148.101, 147.063 167.500 C 150.713 179.048, 154.462 185, 158.085 185 C 160.607 185, 164.515 179.890, 167.058 173.266 C 168.647 169.128, 169.409 164.512, 169.757 156.919 C 170.176 147.787, 169.965 145.710, 168.215 141.753 C 164.176 132.622, 156.558 131.186, 144.435 137.268 C 132.964 143.024, 121.365 144.485, 111.174 141.459 C 97.816 137.492, 93.959 124.129, 103.824 115.992 C 109.908 110.973, 117.050 108.862, 130.382 108.142 C 141.253 107.555, 142.392 107.307, 143.764 105.235 C 145.206 103.057, 144.987 102.700, 138.104 96.033 C 134.165 92.217, 129.663 88.184, 128.098 87.070 L 125.254 85.044 121.493 90.772 M 145.678 107.397 C 145.332 108.300, 146.001 108.958, 147.571 109.258 C 150.232 109.767, 150.656 109.056, 148.800 107.200 C 147.228 105.628, 146.335 105.684, 145.678 107.397 M 117.081 112.588 C 106.644 115.395, 101 120.546, 101 127.267 C 101 130.518, 101.635 131.863, 104.405 134.475 C 109.074 138.879, 115.150 140.397, 125.514 139.751 C 132.487 139.316, 135.233 138.608, 141.232 135.700 C 145.593 133.586, 147.900 131.977, 147 131.679 C 146.175 131.405, 139.093 129.957, 131.261 128.459 C 115.808 125.505, 112.470 124.113, 115 121.680 C 115.825 120.886, 119.425 119.263, 123 118.072 C 126.575 116.881, 131.525 114.823, 134 113.498 L 138.500 111.090 130.500 111.111 C 126.100 111.122, 120.062 111.787, 117.081 112.588" stroke="none" fill="black" fill-rule="evenodd"/>
</svg>