<svg xmlns="http://www.w3.org/2000/svg" width="200" height="200" viewBox="0 0 200 200" version="1.1">
	<path d="M 94.500 11.045 C 85.700 11.421, 74.092 11.790, 68.705 11.865 C 59.695 11.989, 58.709 12.200, 56.422 14.487 C 54.074 16.835, 54.019 17.136, 55.430 19.865 C 57.438 23.748, 66.711 29.752, 75.329 32.749 C 84.540 35.953, 96.164 35.733, 100.851 32.268 C 103.734 30.137, 104.020 30.110, 107.658 31.630 L 111.455 33.217 107.478 34.527 C 104.708 35.439, 94.538 35.973, 74 36.284 C 42.578 36.760, 37.066 37.508, 34.301 41.673 C 32.996 43.638, 33.128 44.112, 35.818 47.123 L 38.765 50.420 68.132 50.134 L 97.500 49.847 103.284 61.056 C 106.465 67.222, 108.921 72.412, 108.742 72.591 C 108.563 72.771, 105.060 71.864, 100.958 70.576 C 94.158 68.441, 93.337 67.893, 91.657 64.367 C 86.056 52.615, 75.127 48.263, 64.725 53.642 C 60.145 56.011, 54.021 62.043, 51.743 66.432 C 48.891 71.924, 48.837 79.958, 51.628 83.725 C 54.337 87.381, 59.333 90.712, 64.401 92.240 C 69.066 93.647, 100.699 93.989, 105.500 92.685 L 108.500 91.870 105 94.478 C 103.075 95.913, 99.064 97.795, 96.087 98.662 C 89.551 100.563, 84.896 100.141, 65.500 95.886 C 54.575 93.489, 49.853 92.910, 44 93.248 C 36.097 93.704, 27.503 96.682, 24.495 100.006 C 22.939 101.725, 23.096 101.972, 27.332 104.455 C 29.799 105.900, 35.773 108.678, 40.608 110.628 C 59.534 118.259, 68.730 124.620, 71.065 131.697 C 74.015 140.636, 69.561 152.048, 57.624 166.133 C 45.897 179.971, 43.468 185, 48.512 185 C 49.893 185, 58.137 181.411, 66.830 177.024 C 84.177 168.271, 91.399 165.949, 95.484 167.811 C 97.540 168.747, 98 169.663, 98 172.820 C 98 174.944, 97.369 178.779, 96.598 181.341 C 95.827 183.903, 95.320 186, 95.472 186 C 95.624 186, 97.717 184.917, 100.124 183.592 C 107.425 179.576, 114.612 178.697, 141 178.595 C 163.604 178.507, 165.763 178.345, 168.894 176.500 C 174.779 173.033, 174.918 171.974, 170.634 163.273 C 165.246 152.328, 156.703 139.770, 149.959 132.877 L 144.208 127 147.478 127 C 152.193 127, 159.034 124.342, 162.252 121.259 C 165.699 117.956, 166.827 113.699, 166.880 103.795 C 166.903 99.557, 167.588 89.432, 168.402 81.295 C 170.946 55.867, 171.152 50.773, 170.028 41.054 C 168.103 24.403, 161.798 14.799, 150.612 11.477 C 145.246 9.884, 125.261 9.730, 94.500 11.045 M 103.500 13.417 C 74.391 14.543, 74.120 14.705, 97.250 17.148 C 110.190 18.515, 110.665 18.879, 107.499 25.002 L 105.998 27.905 110.249 29.803 C 115.845 32.301, 124.665 39.368, 125.510 42.032 C 126.412 44.872, 123.650 47.787, 119.281 48.607 C 117.386 48.963, 112.456 49.534, 108.326 49.877 L 100.817 50.500 107.276 62.886 C 113.453 74.730, 115.873 77.815, 117.969 76.519 C 120.753 74.799, 129.435 40.362, 131.463 23 C 131.817 19.975, 132.343 16.262, 132.632 14.750 C 132.922 13.238, 132.786 12.075, 132.329 12.167 C 131.873 12.259, 118.900 12.821, 103.500 13.417 M 137.667 18.250 C 138.423 21.138, 139.893 28.225, 140.934 34 C 146.843 66.789, 146.012 96.358, 138.930 105.362 C 137.155 107.619, 136.090 108, 131.564 108 C 124.575 108, 115.872 109.699, 114.177 111.395 C 113.032 112.539, 113.187 113.107, 115.159 115.001 C 120.365 119.999, 133.517 124, 144.742 124 C 152.930 124, 157.322 122.535, 160.961 118.590 C 163.248 116.111, 163.473 114.915, 164.135 101.711 C 164.526 93.895, 165.304 83.900, 165.863 79.500 C 171.765 33.013, 164.367 13, 141.280 13 L 136.293 13 137.667 18.250 M 58.220 16.843 C 54.075 19.473, 72.287 30.246, 84 32.093 C 90.806 33.166, 98.917 31.748, 99.718 29.345 C 100.200 27.899, 77.826 19.662, 67.792 17.591 C 58.835 15.742, 59.832 15.820, 58.220 16.843 M 82.167 18.484 C 82.822 19.105, 101.799 26, 102.853 26 C 103.982 26, 106.453 22.119, 105.763 21.430 C 105.543 21.210, 102.019 20.607, 97.932 20.089 C 85.909 18.565, 81.814 18.148, 82.167 18.484 M 133.562 27.250 C 132.380 37.861, 128.048 56.998, 124.373 67.850 C 122.444 73.543, 121.057 78.391, 121.290 78.623 C 121.522 78.856, 123.857 80.571, 126.478 82.434 C 134.771 88.330, 136.822 93.414, 132.912 98.385 C 129.413 102.833, 125.547 104.260, 119.040 103.505 C 108.604 102.293, 100.255 106.026, 96.905 113.401 C 89.757 129.140, 103.478 158.835, 117.418 157.797 L 121.407 157.500 122.756 148.063 C 124.186 138.064, 126.956 130.255, 130.074 127.433 C 131.890 125.789, 131.706 125.633, 125.312 123.399 C 113.250 119.184, 107.669 112.229, 113.358 108.501 C 114.798 107.557, 119.955 106.426, 125.668 105.802 C 133.095 104.989, 135.909 104.266, 137.174 102.847 C 141.805 97.645, 143.447 71.663, 140.529 49.740 C 138.487 34.403, 135.921 21, 135.025 21 C 134.603 21, 133.945 23.813, 133.562 27.250 M 112 37.583 C 110.625 38.346, 108.016 38.977, 106.202 38.985 C 103.436 38.998, 102.684 39.523, 101.541 42.240 C 100.792 44.022, 100.390 45.822, 100.648 46.240 C 101.339 47.357, 113.902 47.155, 118.214 45.957 C 123.529 44.481, 123.824 43.143, 119.673 39.339 C 115.635 35.639, 115.543 35.618, 112 37.583 M 44.546 40.111 C 36.925 41.222, 35.088 42.832, 38.229 45.647 C 40.428 47.618, 41.408 47.668, 69.250 47.221 C 96.905 46.777, 98 46.685, 98 44.814 C 98 43.744, 98.466 41.998, 99.035 40.934 C 100.046 39.045, 99.498 39.003, 75.285 39.122 C 61.653 39.189, 47.821 39.634, 44.546 40.111 M 66.500 55.871 C 64.300 56.876, 60.619 59.747, 58.319 62.251 C 48.815 72.603, 50.487 83.547, 62.328 88.493 C 67.198 90.527, 86.509 92.305, 95 91.500 C 108.132 90.256, 112 87.963, 112 81.427 L 112 77.164 104.247 74.582 C 94.092 71.200, 94.046 71.206, 95.001 75.750 C 96.326 82.057, 96.801 89, 95.908 89 C 94.033 89, 77.746 78.679, 74.004 75.118 C 69.535 70.867, 69.245 69.898, 71.705 67.437 C 73.145 65.998, 74.706 65.823, 81.706 66.317 L 90.001 66.903 88.601 64.201 C 83.763 54.865, 75.512 51.755, 66.500 55.871 M 73 69.755 C 73 72.121, 91.293 85.040, 92.680 83.654 C 93.425 82.908, 92.145 72.852, 91.086 71.139 C 90.050 69.462, 73 68.158, 73 69.755 M 115.079 80.583 C 115.127 81.748, 115.364 81.985, 115.683 81.188 C 115.972 80.466, 115.936 79.603, 115.604 79.271 C 115.272 78.939, 115.036 79.529, 115.079 80.583 M 116.664 85.268 C 113.115 91.264, 106.313 97.546, 100.677 100.031 C 93.585 103.159, 83.709 102.851, 66.500 98.966 C 54.966 96.363, 51.003 95.883, 44 96.244 C 35.401 96.688, 27.592 99.275, 28.313 101.440 C 28.506 102.019, 31.777 103.808, 35.582 105.416 C 61.130 116.213, 69.540 121.607, 73.134 129.500 C 78.037 140.266, 73.708 150.878, 55.134 173.626 C 51.633 177.914, 49.215 181.572, 49.762 181.754 C 50.309 181.936, 57.449 178.697, 65.628 174.555 C 82.296 166.116, 91.837 163.097, 96.268 164.862 C 99.763 166.254, 101.339 170.262, 100.592 175.855 C 100.076 179.715, 100.208 180.132, 101.755 179.520 C 108.244 176.952, 117.995 176.033, 139 176.012 C 161.714 175.989, 167.686 175.288, 170.115 172.362 C 171.255 170.988, 170.753 169.424, 166.619 161.478 C 160.694 150.087, 149.981 135.672, 144.172 131.276 C 138.636 127.085, 134.041 126.862, 131.070 130.638 C 128.234 134.244, 125.997 142.056, 125.290 150.825 C 124.786 157.078, 124.353 158.378, 122.329 159.704 C 116.484 163.534, 106.275 158.587, 100.005 148.887 C 94.359 140.152, 92.521 134.029, 92.510 123.922 C 92.501 116.124, 92.773 114.902, 95.500 110.499 C 100.015 103.210, 104.918 101, 116.581 101 C 125.090 101, 126.098 100.789, 128.923 98.411 C 130.770 96.857, 132 94.872, 132 93.444 C 132 90.792, 126.631 84.895, 122.069 82.535 C 119.184 81.044, 119.156 81.058, 116.664 85.268" stroke="none" fill="black" fill-rule="evenodd"/>
</svg>