<svg xmlns="http://www.w3.org/2000/svg" width="200" height="200" viewBox="0 0 200 200" version="1.1">
	<path d="M 98.401 9.993 C 92.846 10.460, 83.171 11.606, 76.901 12.540 C 70.630 13.474, 62.492 14.459, 58.815 14.729 C 54.460 15.048, 51.948 15.694, 51.607 16.582 C 50.648 19.080, 56.073 23.940, 64.333 27.983 C 78.877 35.102, 92.725 37.039, 100.247 33.008 C 103.939 31.029, 103.998 31.028, 108.894 32.958 C 112.958 34.560, 113.917 34.657, 114.357 33.513 C 114.725 32.552, 113.380 31.623, 109.994 30.498 C 105.377 28.964, 105.152 28.730, 106.049 26.371 C 106.572 24.995, 107 21.135, 107 17.793 L 107 11.716 120.250 12.242 C 134.270 12.799, 142 14.762, 142 17.764 C 142 18.615, 140.841 20.831, 139.424 22.688 L 136.849 26.065 138.952 35.022 L 141.055 43.980 131.925 57.740 C 120.274 75.300, 120.435 75.133, 119.566 70.502 C 118.875 66.817, 111.631 58.415, 106 54.768 L 103.500 53.149 106 51.325 C 107.375 50.321, 111.016 48.718, 114.090 47.763 C 122.691 45.090, 126.771 40.344, 124.096 36.122 C 122.813 34.095, 121.197 35.580, 121.718 38.306 C 122.161 40.623, 120.131 42.684, 115.865 44.249 C 114.443 44.771, 114.373 44.471, 115.329 41.938 C 117.542 36.078, 112.053 34.863, 89.731 36.274 C 81.354 36.804, 65.163 37.296, 53.750 37.368 C 39.234 37.460, 33 37.835, 33 38.615 C 33 40.803, 37.078 44.859, 41.364 46.934 C 48.393 50.337, 60.148 52.135, 76 52.232 C 83.975 52.281, 92.975 52.029, 96 51.673 C 99.025 51.317, 100.938 51.282, 100.250 51.596 C 98.087 52.584, 98.854 53.698, 103.947 56.966 C 112.502 62.456, 117.876 69.707, 116.839 74.360 C 116.578 75.529, 114.320 74.639, 107 70.481 C 89.627 60.611, 74.216 56.027, 58.339 56.008 L 52.178 56 49.928 60.650 C 41.800 77.439, 49.386 88.714, 71.072 92.079 C 82.581 93.865, 98.658 91.626, 108.440 86.875 C 112.429 84.938, 112.387 85.012, 106.101 91.067 C 99.753 97.181, 91.514 101.971, 87.315 101.990 C 84.317 102.004, 79.902 100.232, 77.500 98.051 C 75.867 96.568, 72.980 96.108, 61.756 95.538 C 45.822 94.728, 35.781 95.547, 32.887 97.890 C 30.861 99.531, 30.861 99.554, 32.808 102.020 C 33.884 103.384, 40.210 107.397, 46.866 110.938 C 63.956 120.031, 68.322 124.529, 62.591 127.141 C 60.653 128.023, 59.950 129.466, 58.998 134.511 C 57.759 141.076, 58.458 144.122, 61.764 146.560 C 63.345 147.726, 59.890 152.020, 45.068 167.306 C 36.254 176.397, 36.183 176.146, 48.768 180.297 C 68.254 186.724, 69.869 186.831, 133.500 185.897 C 152.627 185.616, 162.226 185.864, 166.419 186.747 C 169.675 187.433, 172.549 187.784, 172.806 187.527 C 173.064 187.270, 172.788 183.333, 172.193 178.780 C 168.760 152.491, 164.718 148.621, 149.923 157.456 C 139.834 163.481, 137.268 163.938, 133.123 160.450 C 131.341 158.950, 128.655 155.573, 127.154 152.946 L 124.425 148.168 119.700 153.528 C 114.035 159.953, 105.229 164.626, 95.716 166.256 C 88.125 167.556, 84 166.418, 84 163.024 C 84 160.359, 89.729 154.119, 96.383 149.536 L 101.731 145.852 118.116 145.615 C 130.654 145.433, 136.961 144.848, 144.983 143.122 C 158.998 140.107, 166.500 137.104, 166.500 134.508 C 166.500 130.542, 161.928 129.622, 141 129.372 C 116.721 129.082, 91.786 125.773, 93.461 123.063 C 93.724 122.637, 97.754 120.848, 102.417 119.089 L 110.893 115.890 118.197 119.872 C 145.684 134.861, 161.684 128.903, 167.539 101.500 C 169.522 92.220, 171.294 35.622, 169.916 25.580 C 168.985 18.796, 166.466 15.400, 163.147 16.453 C 160.253 17.372, 154.461 23.693, 148.298 32.659 C 143.210 40.061, 143.081 40.165, 142.447 37.364 C 142.091 35.789, 141.378 32.814, 140.862 30.753 C 140.048 27.500, 140.259 26.512, 142.462 23.270 C 143.858 21.216, 145 18.819, 145 17.942 C 145 15.561, 141.017 12.338, 136.500 11.064 C 131.061 9.529, 110.723 8.958, 98.401 9.993 M 88.500 15.996 C 80.800 16.928, 75.175 17.977, 76 18.327 C 82.609 21.128, 101.557 27, 102.642 26.584 C 104.090 26.028, 104.685 13.862, 103.250 14.151 C 102.838 14.233, 96.200 15.064, 88.500 15.996 M 55 17.888 C 55 19.180, 60.344 23.193, 65.500 25.773 C 76.595 31.325, 92.582 33.901, 97.987 31.007 C 100.408 29.711, 100.290 29.614, 93.487 27.292 C 71.452 19.774, 55 15.754, 55 17.888 M 159.291 22.653 C 157.396 24.662, 153.137 30.335, 149.825 35.261 L 143.803 44.216 144.902 53.528 C 147.235 73.312, 145.608 91.624, 140.532 102.712 C 136.267 112.026, 131.879 115.594, 123.097 116.886 L 118.500 117.562 126.388 120.868 C 134.761 124.376, 142.515 125.689, 148.372 124.590 C 155.653 123.224, 161.495 115.333, 164.527 102.769 C 167.787 89.266, 169.059 26.438, 166.179 21.250 C 164.467 18.168, 163.296 18.406, 159.291 22.653 M 85 39.137 C 79.225 39.599, 66.086 40.084, 55.801 40.216 C 37.933 40.445, 37.174 40.535, 38.716 42.238 C 44.643 48.788, 79.629 51.913, 101.805 47.875 C 107.422 46.852, 113 43.146, 113 40.438 C 113 37.936, 104.780 37.554, 85 39.137 M 131.984 62.477 C 126.768 70.164, 122.115 77.072, 121.644 77.827 C 121.043 78.792, 121.862 80.086, 124.395 82.174 C 128.904 85.890, 133.001 92.757, 132.996 96.588 C 132.990 101.174, 129.521 105.720, 122.749 110.017 L 116.500 113.981 120.685 113.990 C 131.737 114.016, 138.081 106.900, 141.420 90.733 C 143.050 82.843, 143.437 63.014, 142.147 53.500 L 141.469 48.500 131.984 62.477 M 52.175 62.656 C 46.430 73.919, 49.871 82.563, 61.891 87.060 C 76.508 92.529, 102.957 89.371, 112.277 81.044 L 115.332 78.314 106.325 73.237 C 98.546 68.852, 90.621 65, 89.378 65 C 89.170 65, 89 66.047, 89 67.326 C 89 69.748, 86.190 72.877, 82.133 74.973 C 80.197 75.973, 79.498 75.926, 78.286 74.714 C 76.549 72.978, 77.606 70.258, 81.739 65.823 L 84.234 63.147 78.867 61.507 C 75.915 60.606, 69.154 59.609, 63.842 59.294 L 54.184 58.719 52.175 62.656 M 83.379 68.191 C 80.020 71.918, 79.400 73.392, 81.712 72.154 C 84.337 70.749, 86.271 68.313, 85.825 66.974 C 85.624 66.373, 84.524 66.920, 83.379 68.191 M 110.492 90.397 C 97.318 104.091, 87 107.575, 77.748 101.452 L 73.549 98.673 54.865 98.587 C 44.589 98.539, 35.830 98.848, 35.400 99.274 C 34.135 100.528, 36.815 102.427, 49.336 109.147 C 61.722 115.796, 68 120.791, 68 123.997 C 68 125.043, 66.671 127.159, 65.047 128.699 C 60.934 132.599, 59.727 140.930, 62.883 143.632 C 66.693 146.894, 65.547 149.174, 53.459 162.395 L 41.918 175.018 44.709 176.083 C 61.214 182.378, 75.604 184.425, 97.864 183.646 C 107.564 183.306, 123.150 182.765, 132.500 182.442 C 144.346 182.033, 152.635 182.273, 159.841 183.232 L 170.182 184.608 169.516 179.054 C 168.225 168.272, 165.834 159.743, 163.428 157.337 C 162.143 156.052, 160.732 155, 160.293 155 C 159.854 155, 155.672 157.250, 151 160 C 139.890 166.539, 135.546 166.798, 130.049 161.250 C 128.006 159.188, 125.850 156.617, 125.259 155.538 C 124.245 153.689, 123.915 153.824, 119.521 157.874 C 108.686 167.862, 89.111 172.844, 82.750 167.234 C 77.945 162.995, 83.709 154.392, 97.218 145.641 C 102.251 142.381, 102.783 142.255, 108.500 142.964 C 124.075 144.895, 166.969 137.569, 163.048 133.648 C 162.419 133.019, 152.331 132.324, 137.751 131.905 C 108.003 131.051, 91.911 128.537, 90.362 124.502 C 89.262 121.636, 92.032 119.890, 105.500 114.958 C 108.131 113.995, 108.285 113.739, 106.750 112.880 C 105.787 112.341, 105 111.248, 105 110.450 C 105 108.634, 105.180 108.642, 109.341 110.625 C 112.683 112.219, 112.870 112.187, 118.926 108.959 C 128.828 103.681, 132.109 97.988, 128.882 91.684 C 127.370 88.732, 120.849 81.991, 119.547 82.036 C 118.971 82.056, 114.896 85.818, 110.492 90.397" stroke="none" fill="black" fill-rule="evenodd"/>
</svg>