<svg xmlns="http://www.w3.org/2000/svg" width="200" height="200" viewBox="0 0 200 200" version="1.1">
	<path d="M 122.500 10.657 C 110.199 12.121, 93.884 14.538, 79.087 17.088 C 69.509 18.738, 59.049 20.196, 55.840 20.327 C 52.054 20.481, 49.438 21.133, 48.385 22.186 C 46.594 23.978, 47.437 26.658, 49.339 25.219 C 50.316 24.480, 53.061 24.080, 59.590 23.726 C 61.484 23.623, 69.362 27.820, 73 30.871 L 76.500 33.806 64.500 30.965 C 44.001 26.110, 25.182 23.083, 24.619 24.550 C 23.842 26.575, 50.549 38.192, 65 42.115 C 69.631 43.372, 70.637 43.899, 68.500 43.946 C 66.850 43.982, 61 44.683, 55.500 45.502 C 32.965 48.861, 22.592 54.753, 31.805 58.960 C 33.287 59.637, 40.197 60.678, 47.160 61.273 L 59.821 62.356 55.475 65.675 C 50.303 69.624, 45.538 78.600, 43.889 87.500 C 42.720 93.807, 43.274 105.960, 44.928 110.312 C 45.833 112.691, 45.636 112.963, 42.202 114.075 C 36.052 116.065, 29.133 119.883, 28.068 121.873 C 27.289 123.329, 27.528 124.168, 29.135 125.624 C 30.985 127.301, 33.320 127.535, 51.098 127.825 C 70.127 128.136, 70.947 128.231, 69.995 130.009 C 68.327 133.125, 68.870 139.337, 71.622 148.638 C 73.064 153.512, 74.378 160.133, 74.540 163.350 C 75.239 177.179, 86.426 185.678, 108.500 189.152 C 117.343 190.544, 140.761 189.676, 151.637 187.554 C 167.254 184.506, 183.291 177.861, 179.776 175.894 C 177.083 174.387, 159.909 172.062, 144.134 171.068 C 135.682 170.536, 128.574 169.908, 128.339 169.672 C 128.104 169.437, 132.319 168.918, 137.706 168.518 C 151.955 167.462, 168.270 161.770, 171.387 156.769 C 172.219 155.434, 172.062 154.633, 170.699 153.269 C 169.112 151.681, 165.898 151.449, 139.216 151 C 113.494 150.567, 110.105 150.337, 114 149.284 C 116.475 148.615, 126.150 147.917, 135.500 147.732 C 150.177 147.441, 153.137 147.108, 157.164 145.292 C 161.814 143.195, 164 140.675, 164 137.411 C 164 134.946, 156.353 128, 153.638 128 C 152.386 128, 148.917 126.167, 145.931 123.927 C 142.944 121.687, 139.881 119.500, 139.123 119.067 C 137.968 118.405, 138.012 117.481, 139.397 113.310 C 140.722 109.322, 141.837 107.898, 145.048 106.093 L 149.048 103.845 153.274 105.916 C 155.598 107.055, 160.698 110.894, 164.606 114.446 L 171.712 120.906 172.353 112.565 C 172.706 107.977, 174.187 96.411, 175.644 86.862 C 179.308 62.857, 179.558 38.237, 176.222 29.921 C 173.226 22.452, 168.144 16.738, 162.237 14.197 C 154.549 10.890, 135.101 9.157, 122.500 10.657 M 110 14.995 C 102.575 15.987, 89.843 17.969, 81.708 19.400 C 73.572 20.830, 66.433 22, 65.844 22 C 65.254 22, 67.516 23.832, 70.870 26.072 C 74.224 28.312, 77.820 31.226, 78.860 32.549 C 79.963 33.952, 83.822 36.055, 88.126 37.599 C 102.142 42.627, 107.876 47.532, 105.893 52.800 C 104.905 55.425, 98.540 58.570, 92.145 59.593 C 87.170 60.388, 87.634 61.118, 94.500 63.299 C 97.250 64.172, 102.333 66.175, 105.796 67.750 L 112.093 70.613 108.210 75.056 C 102.868 81.169, 98 88.057, 98 89.503 C 98 90.562, 111.076 100, 112.543 100 C 112.855 100, 114.291 97.421, 115.734 94.270 C 119.658 85.699, 119.917 76.372, 116.611 62.667 C 115.174 56.709, 113.723 48.834, 113.386 45.167 C 111.187 21.235, 127.948 20.348, 142.694 43.616 C 143.639 45.107, 143.782 42.583, 143.380 31.500 C 142.644 11.206, 143.672 12.982, 132.731 13.095 C 127.654 13.148, 117.425 14.002, 110 14.995 M 145.721 26.250 C 145.960 32.987, 146.269 38.945, 146.407 39.490 C 146.750 40.832, 151.110 26.404, 151.733 21.866 C 152.118 19.062, 151.749 17.749, 150.116 16.116 C 145.782 11.782, 145.251 13.006, 145.721 26.250 M 154.256 17.483 C 155.072 20.142, 154.674 22.768, 152.064 31.932 C 147.587 47.649, 146.862 52.873, 148.423 58.152 C 149.130 60.543, 150.003 65.087, 150.363 68.250 C 150.909 73.046, 150.762 74, 149.477 74 C 148.629 74, 147.566 73.001, 147.114 71.779 C 146.531 70.202, 146.078 72.303, 145.552 79.025 C 145.145 84.232, 144.222 91.869, 143.501 95.996 C 142.780 100.123, 142.333 103.649, 142.509 103.831 C 142.685 104.013, 143.738 103.676, 144.849 103.081 C 149.802 100.430, 155.316 102.591, 164.374 110.735 C 168.679 114.606, 169.957 114.061, 169.985 108.343 C 169.993 106.606, 171.193 97.381, 172.652 87.843 C 176.101 65.279, 176.550 39.515, 173.639 31.159 C 170.643 22.559, 165.387 17.562, 156.879 15.227 L 153.259 14.233 154.256 17.483 M 42.887 31.110 C 60.747 39.554, 81.391 43.789, 79.400 38.601 C 78.751 36.909, 57.253 31.537, 39 28.506 C 37.625 28.278, 39.374 29.450, 42.887 31.110 M 118.405 31.110 C 115.546 34.278, 115.863 49.632, 119.022 61 C 120.724 67.127, 121.392 72.152, 121.413 79 C 121.439 87.616, 121.147 89.129, 118.270 95.258 L 115.097 102.016 122.206 107.008 C 126.115 109.754, 129.703 112, 130.178 112 C 130.654 112, 132.793 110.842, 134.932 109.427 C 138.446 107.101, 138.923 106.259, 139.887 100.677 C 141.945 88.761, 142.850 80.382, 143.533 66.940 L 144.221 53.380 141.216 47.440 C 137.492 40.079, 131.154 32.776, 126.625 30.626 C 122.122 28.490, 120.695 28.574, 118.405 31.110 M 82 40.440 C 82 41.351, 80.602 42.685, 78.892 43.403 L 75.785 44.710 79.820 45.355 C 82.465 45.778, 84.560 46.896, 85.900 48.599 C 87.792 51.005, 87.836 51.458, 86.487 54.685 L 85.031 58.171 89.265 57.464 C 95.449 56.433, 102.132 53.750, 103.353 51.809 C 104.894 49.356, 102.259 46.872, 94.214 43.192 C 85.042 38.997, 82 38.312, 82 40.440 M 55.583 48.107 C 48.125 49.195, 39.209 51.465, 34.295 53.529 C 31.163 54.844, 30.787 55.285, 32.141 56.050 C 35.267 57.816, 47.574 58.960, 63.661 58.980 L 79.822 59 82.459 55.867 C 85.799 51.896, 85.394 49.814, 80.988 48.306 C 76.993 46.939, 64.274 46.839, 55.583 48.107 M 65.821 63.395 C 53.520 66.707, 46.041 79.257, 46.012 96.635 C 46.005 100.578, 46.741 106.064, 47.656 108.896 C 48.566 111.716, 49.129 114.156, 48.906 114.318 C 48.682 114.481, 45.306 115.839, 41.402 117.336 C 32.674 120.683, 29.910 122.573, 31.865 123.861 C 36.026 126.602, 68.867 125.863, 95.500 122.429 C 110.784 120.459, 114.614 119.588, 121.629 116.486 L 127.334 113.962 120.113 108.875 C 113.599 104.285, 112.726 103.933, 111.196 105.273 C 106.682 109.227, 99.832 111.024, 95.545 109.379 C 93.496 108.592, 90.986 103.810, 91.044 100.800 C 91.068 99.535, 91.664 96.889, 92.368 94.920 C 93.620 91.415, 93.577 91.293, 90.338 89.170 C 88.517 87.976, 86.832 87, 86.593 87 C 86.354 87, 85.862 88.350, 85.500 90.001 C 84.156 96.117, 76.597 94.309, 68.155 85.853 C 57.829 75.509, 62.445 71.107, 76.250 78.132 C 78.313 79.182, 80 79.570, 80 78.995 C 80 78.420, 78.429 74.831, 76.510 71.019 C 73.302 64.650, 73.160 64.006, 74.760 63.075 C 76.209 62.231, 75.997 62.067, 73.500 62.098 C 71.850 62.118, 68.394 62.702, 65.821 63.395 M 78.066 63.875 C 76.870 64.684, 77.313 66.309, 80.732 73.652 C 84.344 81.408, 85.436 82.845, 89.894 85.705 L 94.955 88.953 96.118 86.727 C 96.758 85.502, 99.519 81.633, 102.253 78.128 C 107.949 70.828, 108.276 71.476, 96.620 66.941 C 88.070 63.614, 80.339 62.336, 78.066 63.875 M 65.539 78.143 C 68.129 82.597, 70.528 85.161, 74.673 87.907 C 80.180 91.554, 83 91.902, 83 88.934 C 83 85.263, 81.215 83.369, 75.300 80.762 C 67.031 77.119, 64.557 76.455, 65.539 78.143 M 94.998 95.505 C 93.713 98.885, 93.727 102.622, 95.035 105.066 C 96.423 107.660, 102.452 107.631, 106.750 105.011 C 108.537 103.921, 110 102.815, 110 102.552 C 110 102.139, 100.858 95.731, 97.248 93.614 C 96.439 93.139, 95.643 93.808, 94.998 95.505 M 134.074 113.411 C 133.187 114.480, 133.184 114.996, 134.063 115.539 C 135.139 116.204, 136.949 114.475, 136.985 112.750 C 137.010 111.518, 135.328 111.899, 134.074 113.411 M 123.500 118.533 C 115.905 122.128, 108.014 123.874, 91 125.725 L 75.500 127.411 85 130.764 C 99.484 135.876, 103.974 136.975, 110.434 136.988 C 120.151 137.008, 128.338 131.651, 132.758 122.380 C 134.288 119.173, 134.271 118.916, 132.437 117.529 C 129.951 115.648, 129.484 115.701, 123.500 118.533 M 135.502 122.992 C 134.125 127.333, 127.060 134.791, 121.882 137.372 C 113.805 141.397, 106.469 141.041, 92 135.924 C 75.423 130.061, 73.929 129.671, 72.717 130.883 C 71.070 132.530, 71.801 140.248, 74.406 148.720 C 75.721 152.999, 77.025 159.310, 77.303 162.744 C 77.935 170.540, 80.240 174.599, 86.387 178.740 C 94.530 184.226, 102.549 186.191, 119.065 186.747 C 138.730 187.409, 158.868 184.557, 170.627 179.446 L 174.500 177.763 171.548 176.914 C 166.700 175.520, 151.499 174.095, 135 173.488 C 113.906 172.711, 109 172.151, 109 170.516 C 109 168.883, 111.712 168.399, 134.126 166.030 C 151.499 164.193, 159.757 162.010, 166.809 157.390 C 169.042 155.926, 169.128 155.651, 167.615 154.804 C 166.646 154.262, 153.195 153.883, 136.211 153.918 C 119.870 153.952, 105.872 153.580, 105.104 153.091 C 102.758 151.596, 104.598 149.331, 109.672 147.468 C 113.365 146.112, 118.968 145.552, 133.500 145.085 C 149.655 144.567, 153.099 144.178, 156.500 142.488 C 158.700 141.394, 160.654 139.668, 160.842 138.651 C 161.309 136.130, 156.228 131.004, 153.486 131.230 C 152.210 131.336, 148.375 129.243, 144.277 126.206 C 140.415 123.343, 137.003 121, 136.695 121 C 136.387 121, 135.850 121.897, 135.502 122.992" stroke="none" fill="black" fill-rule="evenodd"/>
</svg>