<svg xmlns="http://www.w3.org/2000/svg" width="200" height="200" viewBox="0 0 200 200" version="1.1">
	<path d="M 85.467 4.628 C 85.849 7.173, 86.423 9.940, 86.744 10.776 C 87.214 12.001, 86.762 12.171, 84.414 11.653 C 82.811 11.299, 78.541 10.724, 74.925 10.374 C 68.597 9.763, 68.269 9.843, 66.175 12.505 C 60.482 19.742, 66.540 26.041, 83.423 30.438 C 89.695 32.072, 91 32.695, 91 34.059 C 91 35.184, 67.434 35.196, 51 34.079 C 44.675 33.650, 39.336 33.433, 39.136 33.597 C 38.935 33.761, 39.787 35.995, 41.030 38.561 C 45.480 47.754, 57.225 51.867, 75.406 50.600 L 84.500 49.966 79.423 51.771 C 76.631 52.763, 72.034 55.273, 69.207 57.348 C 63.924 61.226, 63.970 61.130, 62.541 71.250 C 62.289 73.037, 62.656 79.450, 63.357 85.500 C 64.058 91.550, 64.367 97.809, 64.043 99.409 C 62.679 106.156, 53.537 108.373, 33.724 106.763 C 27.248 106.236, 21.285 106.060, 20.474 106.371 C 19.488 106.750, 19 108.376, 19 111.282 C 19 119.935, 26.733 123.754, 46.200 124.713 C 56.591 125.225, 87.628 123.895, 100.107 122.403 L 104.714 121.852 105.326 125.623 C 105.663 127.698, 105.717 129.616, 105.446 129.887 C 105.176 130.158, 94.502 130.677, 81.727 131.041 C 63.830 131.551, 57.639 132.069, 54.750 133.300 C 41.031 139.146, 69.276 149.029, 96.070 147.759 L 106.866 147.247 107.471 150.873 C 108.218 155.346, 106.558 167.623, 104.943 169.568 C 104.290 170.356, 103.241 171, 102.613 171 C 100.208 171, 93.144 166.489, 84.137 159.200 L 74.774 151.623 70.428 153.929 C 63.386 157.665, 54.413 166.457, 51.439 172.536 C 49.047 177.424, 48.896 178.334, 50.021 181.052 C 52.127 186.136, 56.012 187.506, 68 187.392 C 73.775 187.337, 81.425 186.734, 85 186.052 C 89.596 185.175, 96.772 185.009, 109.500 185.483 C 137.633 186.532, 156.931 183.944, 158.530 178.907 C 160.013 174.234, 156.063 170.419, 142.601 163.518 C 135.209 159.730, 134.256 158.890, 131.711 153.933 L 128.921 148.500 136.572 147.862 C 150.109 146.732, 153.022 141.337, 145.642 131.065 C 143.639 128.277, 142 125.771, 142 125.498 C 142 125.224, 143.688 124.997, 145.750 124.993 C 151.311 124.983, 165.306 121.386, 170.988 118.506 C 179.814 114.034, 180.991 108.724, 173.771 105.957 C 171.950 105.259, 164.023 104.501, 155.890 104.246 L 141.279 103.789 140.746 94.109 C 140.161 83.488, 136.064 69.178, 131.632 62.272 C 128.070 56.721, 121.807 51.060, 117.385 49.393 C 113.754 48.025, 114.284 47.975, 125.500 48.628 C 153.966 50.286, 162 49.370, 162 44.468 C 162 39.996, 150.445 33.129, 131.759 26.495 C 126.563 24.651, 123.861 23.137, 123.449 21.841 C 123.114 20.784, 120.547 18.108, 117.745 15.892 C 112.159 11.477, 89.724 0, 86.679 0 C 84.979 0, 84.848 0.500, 85.467 4.628 M 88.590 6.768 C 89.591 12.318, 90.642 13.763, 94.242 14.544 C 96.034 14.933, 102.424 16.759, 108.441 18.601 C 114.459 20.444, 119.544 21.789, 119.743 21.591 C 121.073 20.260, 104.435 10.102, 92.708 5.085 L 87.916 3.035 88.590 6.768 M 68.668 13.815 C 64.001 18.972, 69.148 23.911, 82.905 27.475 C 86.379 28.376, 89.346 28.974, 89.500 28.806 C 89.653 28.638, 89.244 25.581, 88.590 22.013 L 87.403 15.525 82.310 14.394 C 71.086 11.902, 70.424 11.874, 68.668 13.815 M 91.518 22.250 C 92.585 30.187, 92.810 30.312, 104.971 29.763 C 114.803 29.318, 121 27.801, 121 25.839 C 121 25.378, 120.777 25, 120.504 25 C 120.232 25, 114.044 23.200, 106.754 21 C 99.464 18.800, 92.895 17, 92.156 17 C 91.112 17, 90.970 18.171, 91.518 22.250 M 121.219 28.969 C 118.002 31.651, 108.823 33.316, 100.277 32.767 C 93.663 32.343, 90.830 33.230, 94.412 34.605 C 96.359 35.352, 134.034 33.080, 135.766 32.111 C 136.722 31.576, 135.286 30.643, 131.230 29.164 C 124.112 26.569, 124.097 26.568, 121.219 28.969 M 136.500 35.061 C 134.300 35.518, 125.300 36.165, 116.500 36.499 C 107.700 36.833, 99.109 37.314, 97.410 37.568 C 94.454 38.011, 94.346 38.193, 94.927 41.765 L 95.535 45.500 113.017 45.514 C 122.633 45.521, 135.225 45.913, 141 46.385 C 148.450 46.994, 152.767 46.898, 155.860 46.053 L 160.220 44.864 157.920 42.415 C 155.290 39.615, 144.471 33.943, 142.090 34.115 C 141.216 34.178, 138.700 34.604, 136.500 35.061 M 42.999 36.846 C 42.999 37.036, 43.903 38.460, 45.007 40.010 C 47.727 43.830, 54.356 46.859, 61.670 47.623 C 68.213 48.307, 90.024 47.245, 91.679 46.162 C 92.235 45.798, 92.486 43.813, 92.236 41.750 L 91.781 38 80.641 37.896 C 74.513 37.838, 63.537 37.501, 56.249 37.146 C 48.960 36.791, 42.998 36.656, 42.999 36.846 M 89.373 49.795 C 90.289 51.276, 94.186 52.060, 93.729 50.671 C 93.517 50.027, 92.316 49.350, 91.061 49.166 C 89.780 48.978, 89.039 49.255, 89.373 49.795 M 96 49.969 C 96 50.501, 96.675 50.678, 97.500 50.362 C 98.325 50.045, 99 49.609, 99 49.393 C 99 49.177, 98.325 49, 97.500 49 C 96.675 49, 96 49.436, 96 49.969 M 100.813 51.983 C 99.336 52.428, 97.873 52.540, 97.563 52.230 C 97.253 51.920, 97 52.010, 97 52.430 C 97 52.850, 98.721 55.148, 100.824 57.537 C 104.402 61.602, 107 67.464, 107 71.472 C 107 72.429, 108.398 74.977, 110.106 77.134 C 113.672 81.636, 116.298 89.331, 115.519 92.995 C 115.070 95.105, 116.884 97.627, 127.030 109 C 133.655 116.425, 139.708 122.641, 140.482 122.813 C 142.964 123.364, 159.670 120.095, 165.479 117.922 C 171.754 115.574, 176.664 111.883, 175.663 110.264 C 174.357 108.151, 164.243 106.604, 151.500 106.569 L 138.500 106.533 138.370 98.517 C 138.034 77.739, 128.641 57.091, 117.387 52.388 C 113.796 50.888, 105.144 50.676, 100.813 51.983 M 79.625 54.469 C 73.735 56.568, 73.437 57.516, 78.218 58.942 C 80.573 59.644, 85.384 61.524, 88.908 63.118 C 92.432 64.713, 95.492 65.841, 95.708 65.626 C 95.923 65.410, 95.801 62.980, 95.435 60.225 C 94.906 56.235, 94.277 54.991, 92.338 54.108 C 89.115 52.640, 84.381 52.774, 79.625 54.469 M 69.250 60.767 C 65.373 64.388, 64.319 71.397, 65.893 83.093 C 68.239 100.522, 67.204 104.641, 59.617 108.086 C 56.332 109.578, 53.177 109.946, 44 109.905 C 37.675 109.877, 30.168 109.521, 27.317 109.115 C 22.606 108.443, 22.085 108.563, 21.581 110.438 C 20.910 112.934, 23.684 117.011, 27.241 118.757 C 34.390 122.266, 50.116 122.841, 83.750 120.821 L 104 119.606 103.986 116.553 C 103.959 110.412, 103.240 109.424, 99.088 109.820 C 95.882 110.126, 94.938 109.739, 93.042 107.341 C 90.130 103.659, 90.703 97.818, 94.877 88.611 C 96.744 84.494, 97.427 81.991, 96.687 81.975 C 94.063 81.920, 85.676 74.559, 79.907 67.248 C 76.545 62.986, 73.460 59.142, 73.051 58.704 C 72.643 58.267, 70.932 59.195, 69.250 60.767 M 98.552 62.500 C 98.972 65.814, 99.913 68.129, 101.343 69.366 C 103.190 70.965, 103.544 71.011, 103.809 69.692 C 104.096 68.259, 101.484 62.453, 98.997 59 C 98.196 57.887, 98.081 58.790, 98.552 62.500 M 82.823 66.750 C 87.432 72.527, 95.040 79, 97.223 79 C 98.282 79, 98.204 74.666, 97.091 71.740 C 96.463 70.088, 93.988 68.368, 89.082 66.175 C 85.177 64.429, 81.499 63, 80.907 63 C 80.316 63, 81.178 64.688, 82.823 66.750 M 100.361 73.332 C 100.712 74.339, 101 76.027, 101 77.082 C 101 79.398, 102.822 79.626, 103.670 77.417 C 104.034 76.468, 103.365 74.965, 102 73.667 C 100.038 71.800, 99.810 71.754, 100.361 73.332 M 105.267 79.944 C 104.218 81.624, 104.595 82.573, 108.050 86.944 C 110.248 89.725, 112.311 92, 112.635 92 C 113.864 92, 111.762 84.359, 109.678 81.257 C 107.125 77.456, 106.869 77.379, 105.267 79.944 M 102.252 86 C 102.577 87.375, 103.389 91.987, 104.058 96.250 C 104.727 100.513, 105.656 104, 106.123 104 C 106.590 104, 108.144 102.229, 109.576 100.065 L 112.180 96.129 106.921 89.815 C 103.066 85.185, 101.820 84.167, 102.252 86 M 97.084 90.500 C 94.391 96.454, 93.523 100.962, 94.397 104.446 C 94.928 106.562, 95.625 107, 98.460 107 C 100.342 107, 102.060 106.662, 102.278 106.250 C 102.497 105.838, 101.926 101, 101.010 95.500 L 99.346 85.500 97.084 90.500 M 113 99.750 C 113 100.254, 111.388 102.279, 109.418 104.249 C 105.920 107.747, 105.852 107.964, 106.533 113.416 C 107.181 118.601, 107.419 119.001, 109.865 119.011 C 111.314 119.017, 114.609 119.662, 117.187 120.444 C 119.765 121.226, 125.137 122.188, 129.125 122.581 L 136.376 123.295 125.612 111.398 C 115.147 99.831, 113 97.848, 113 99.750 M 108.190 125.750 L 108.500 129.500 119.155 129.783 C 132.141 130.128, 132.790 130.601, 130.561 138.107 C 129.702 140.998, 129 143.731, 129 144.182 C 129 145.388, 140.193 145.177, 143.851 143.902 C 148.119 142.414, 147.951 139.782, 143.112 132.294 L 139.223 126.278 131.235 125.581 C 126.841 125.198, 120.829 124.241, 117.873 123.454 C 114.918 122.667, 111.460 122.018, 110.190 122.012 C 108.130 122.001, 107.913 122.406, 108.190 125.750 M 112.623 132.679 L 108.747 133.136 109.378 137.739 C 109.725 140.271, 110.119 142.435, 110.254 142.549 C 110.389 142.663, 113.944 143.071, 118.152 143.455 L 125.805 144.152 127.356 138.863 C 128.208 135.953, 128.738 133.405, 128.532 133.199 C 127.896 132.562, 116.712 132.197, 112.623 132.679 M 77 134.017 C 52.613 134.846, 49.514 135.827, 58.750 139.794 C 68.571 144.012, 93.193 146.511, 103.875 144.375 C 106.579 143.834, 106.998 143.329, 106.986 140.625 C 106.957 133.937, 106.208 132.983, 101.133 133.177 C 98.585 133.275, 87.725 133.653, 77 134.017 M 110.589 145.744 C 110.265 146.068, 109.999 150.646, 109.998 155.917 C 109.996 168.572, 108.305 172.367, 102.473 172.797 C 99.005 173.052, 97.479 172.401, 91.473 168.103 C 87.638 165.358, 82.147 161.234, 79.272 158.938 L 74.044 154.763 69.120 157.923 C 63.153 161.752, 55.626 169.620, 53.336 174.421 C 49.980 181.460, 54.713 184.991, 67.500 184.987 C 70.800 184.986, 76.425 184.486, 80 183.876 C 83.575 183.267, 99.775 182.676, 116 182.563 C 140.791 182.391, 146.338 182.084, 150.750 180.640 C 159.717 177.706, 157.359 174.068, 141.269 166.014 C 132.470 161.611, 129.545 158.561, 127.510 151.670 C 126.402 147.914, 125.914 147.459, 122.392 146.892 C 112.830 145.354, 111.143 145.190, 110.589 145.744" stroke="none" fill="black" fill-rule="evenodd"/>
</svg>