<svg xmlns="http://www.w3.org/2000/svg" width="200" height="200" viewBox="0 0 200 200" version="1.1">
	<path d="M 75 9.053 C 64.292 10.861, 43.429 15.135, 38.288 16.575 C 34.651 17.593, 33.234 18.447, 33.600 19.399 C 34.031 20.522, 35.484 20.413, 41.812 18.783 C 55.749 15.191, 72.536 17.703, 80.500 24.573 C 82.615 26.397, 82.910 26.952, 81.500 26.455 C 58.822 18.455, 43 16.891, 43 22.648 C 43 23.832, 43.451 23.818, 45.885 22.559 C 48.888 21.006, 54.058 21.406, 64.120 23.968 C 71.838 25.934, 84 30.320, 84 31.138 C 84 34.434, 67.414 34.783, 56.223 31.722 C 52.910 30.816, 50.722 30.641, 50.345 31.251 C 49.396 32.786, 51.675 33.689, 61.129 35.525 C 72.791 37.790, 82.042 37.248, 85.389 34.104 L 87.843 31.799 96.971 35.827 C 106.490 40.027, 116 45.623, 116 47.022 C 116 50.307, 114.627 51, 108.143 50.985 C 99.979 50.966, 98.314 50.151, 100 47.001 C 101.736 43.756, 99.891 40.340, 95.791 39.208 C 93.971 38.706, 79.491 38.453, 63.611 38.646 C 37.148 38.969, 34.477 39.160, 31.602 40.937 C 26.993 43.785, 23.770 47.567, 24.172 49.653 C 25.106 54.503, 34.741 55.286, 73.500 53.662 L 93.500 52.823 91.442 54.942 C 89.535 56.905, 88.987 56.976, 84.013 55.909 C 80.948 55.252, 74.106 54.948, 68.072 55.201 C 59.279 55.570, 56.469 56.109, 51.374 58.403 C 45 61.274, 39.204 66.391, 36.600 71.448 L 35.082 74.396 42.180 81.382 C 52.857 91.892, 56.374 98.257, 54.377 103.461 C 53.505 105.733, 47.786 108.453, 35.258 112.553 C 24.019 116.231, 16.466 120.327, 17.585 122.137 C 18.909 124.280, 30.394 128.886, 37.330 130.056 C 46.586 131.617, 57.542 130.747, 76.500 126.947 C 84.750 125.293, 92.305 123.692, 93.289 123.390 C 94.769 122.935, 94.985 123.287, 94.539 125.420 C 94.243 126.839, 93.766 129.125, 93.481 130.500 L 92.962 133 80.231 133.006 C 65.802 133.012, 61.371 133.911, 57.978 137.523 C 54.882 140.819, 55.014 145.465, 58.402 152.390 C 60.316 156.301, 61 159.271, 61 163.668 C 61 176.111, 65.294 183.599, 73.781 185.956 C 79.093 187.431, 83.039 187.269, 99.710 184.887 C 117.913 182.285, 132.546 182.640, 141 185.887 C 144.025 187.048, 146.545 187.999, 146.599 187.999 C 146.653 188, 146.971 183.511, 147.306 178.024 C 147.640 172.537, 148.454 163.400, 149.114 157.719 C 149.774 152.038, 149.988 146.088, 149.588 144.496 C 149.171 142.832, 145.256 137.917, 140.385 132.938 L 131.908 124.276 136.075 123.717 C 141.943 122.930, 145.458 119.200, 157.486 101 C 168.976 83.615, 174.691 77.610, 181.474 75.796 C 183.963 75.130, 186 74.004, 186 73.293 C 186 71.637, 184.636 71.677, 178.591 73.511 C 172.450 75.374, 164.942 75.421, 160.640 73.623 C 154.849 71.203, 153.719 67.144, 152.948 46 C 152.231 26.338, 151.523 23.152, 146.560 17.254 C 143.743 13.906, 134.962 9.716, 131.755 10.190 C 130.175 10.424, 129.055 12.150, 127.213 17.189 L 124.768 23.879 121.634 19.212 C 119.386 15.864, 116.837 13.698, 112.619 11.547 C 107.065 8.716, 106.010 8.538, 93.619 8.337 C 86.404 8.220, 78.025 8.542, 75 9.053 M 78 11.562 C 77.175 11.744, 73.125 12.446, 69 13.123 L 61.500 14.355 66 15.151 C 72.608 16.321, 83.107 21.958, 85.481 25.613 C 86.984 27.926, 89.942 29.779, 97.060 32.868 C 102.317 35.150, 109.060 38.555, 112.042 40.436 L 117.465 43.855 120.183 36.178 L 122.901 28.500 120.579 23.409 C 116.287 14, 108.940 10.937, 91.091 11.116 C 84.716 11.180, 78.825 11.381, 78 11.562 M 128.723 20.750 C 126.372 27.394, 125.982 30.053, 125.990 39.379 C 125.999 48.681, 126.385 51.290, 128.654 57.379 C 130.797 63.131, 131.325 66.327, 131.399 74 C 131.478 82.280, 131.152 84.221, 128.860 89.120 C 125.739 95.787, 120.468 101.895, 115.544 104.546 C 113.588 105.600, 112.103 106.704, 112.244 107 C 113.288 109.193, 123.411 117.131, 127.377 118.866 C 133.091 121.366, 136.088 121.536, 139.800 119.569 C 143.234 117.750, 145.852 114.345, 155.263 99.462 C 159.449 92.841, 164.691 85.360, 166.912 82.837 L 170.950 78.250 165.901 77.764 C 157.417 76.949, 152.542 71.956, 150.993 62.495 C 150.453 59.198, 150.006 50.875, 150 44 C 149.988 30.069, 148.999 25.083, 145.268 20.141 C 142.841 16.926, 136.183 13.068, 132.983 13.022 C 131.986 13.008, 130.525 15.657, 128.723 20.750 M 121.538 40.541 C 120.573 43.067, 120.072 46.152, 120.409 47.495 C 120.833 49.185, 120.410 50.471, 118.997 51.788 C 116.842 53.796, 112.155 66.853, 106.452 86.738 L 102.942 98.976 106.203 101.890 L 109.464 104.804 113.050 102.974 C 117.710 100.597, 123.669 93.949, 126.362 88.122 C 129.482 81.371, 129.352 66.853, 126.096 58.500 C 124.223 53.696, 123.797 50.855, 123.959 44.250 C 124.071 39.712, 123.961 36, 123.717 36 C 123.472 36, 122.491 38.043, 121.538 40.541 M 33.113 43.107 C 28.656 45.847, 26.456 48.856, 27.873 50.274 C 29.353 51.754, 51.801 51.921, 78.172 50.646 L 95.844 49.792 97.066 46.840 C 99.245 41.581, 98.772 41.500, 65.810 41.500 C 39.931 41.500, 35.361 41.725, 33.113 43.107 M 94.385 55.535 C 93.474 56.925, 92.903 58.193, 93.115 58.353 C 93.327 58.513, 95.632 59.865, 98.238 61.357 C 100.843 62.849, 104.089 65.709, 105.451 67.713 C 107.175 70.250, 108.087 70.922, 108.456 69.928 C 109.067 68.278, 114.005 53.687, 113.990 53.575 C 113.984 53.534, 109.943 53.389, 105.010 53.254 C 96.396 53.018, 95.975 53.108, 94.385 55.535 M 62 58.068 C 51.445 59.890, 39 67.961, 39 72.983 C 39 73.695, 42.412 77.849, 46.583 82.215 C 53.979 89.957, 57.934 96.342, 57.978 100.615 C 58.007 103.366, 54.609 107.633, 50.838 109.584 C 49.196 110.433, 42.635 112.927, 36.257 115.126 C 29.879 117.325, 23.824 119.710, 22.801 120.427 C 21.099 121.619, 21.361 121.909, 25.891 123.858 C 33.743 127.236, 40.566 128.283, 51.436 127.779 C 62.084 127.285, 92.685 121.498, 94.650 119.607 C 95.282 118.998, 96.237 116.377, 96.772 113.781 C 97.666 109.442, 97.564 108.944, 95.500 107.592 C 92.684 105.747, 91.934 102.063, 93.577 98.154 C 94.840 95.150, 94.812 95.109, 85.923 86.984 C 80.759 82.265, 77 79.477, 77 80.367 C 77 83.241, 74.686 87, 72.917 87 C 69.897 87, 67.017 74.647, 68.896 69.750 C 70.061 66.711, 73.348 66.012, 74.744 68.506 C 75.425 69.724, 76.708 69.013, 81.436 64.799 L 87.285 59.586 84.392 58.812 C 79.373 57.470, 67.713 57.082, 62 58.068 M 83.736 66.289 C 80.566 69.155, 77.979 72.307, 77.986 73.293 C 78.002 75.328, 85.068 83.196, 92.374 89.313 L 97.290 93.429 100.479 89.740 C 105.972 83.386, 107.353 75.731, 103.998 70.229 C 101.903 66.792, 93.706 60.972, 91.054 61.039 C 90.199 61.060, 86.906 63.423, 83.736 66.289 M 71 73.375 C 71 77.935, 72.072 83, 73.037 83 C 74.570 83, 75.261 74.856, 73.938 72.385 C 72.145 69.034, 71 69.420, 71 73.375 M 100.074 94.411 C 99.383 95.244, 99.286 96.059, 99.838 96.400 C 100.352 96.718, 101.007 96.083, 101.293 94.989 C 101.909 92.632, 101.651 92.510, 100.074 94.411 M 95.407 100.513 C 94.811 102.889, 96.284 106, 98.006 106 C 99.270 106, 99.898 100.591, 98.789 99.250 C 97.206 97.336, 96.101 97.748, 95.407 100.513 M 101.667 104.166 C 100.917 107.034, 101.469 107.543, 104.068 106.383 C 106.135 105.460, 106.137 105.434, 104.205 103.686 C 102.328 101.987, 102.232 102.006, 101.667 104.166 M 104.519 108.892 C 100.649 109.483, 100.506 109.648, 99.361 114.822 C 98.353 119.378, 98.391 120.064, 99.627 119.590 C 100.422 119.285, 105.267 118.740, 110.394 118.380 L 119.717 117.725 114.348 112.862 C 111.395 110.188, 108.871 108.064, 108.739 108.142 C 108.608 108.220, 106.709 108.557, 104.519 108.892 M 102.826 121.724 C 98.392 122.192, 97.466 123.235, 96.632 128.704 C 95.993 132.898, 96 132.909, 99.591 133.583 C 105.730 134.735, 122.149 133.502, 125.783 131.617 L 129.066 129.914 130.629 133.655 C 133.600 140.766, 129.758 151.727, 120.893 161.427 C 112.819 170.261, 104.107 173.232, 98.713 168.989 C 94.377 165.578, 92.500 158.887, 92.500 146.836 L 92.500 136.172 84 135.512 C 73.144 134.668, 63.514 136.168, 60.281 139.206 C 58.285 141.081, 57.978 142.084, 58.508 144.987 C 58.860 146.919, 60.186 150.300, 61.453 152.500 C 63.272 155.659, 63.847 158.447, 64.187 165.755 C 64.669 176.152, 66.098 179.152, 72.071 182.317 C 76.112 184.457, 85.790 184.209, 105.500 181.458 C 118.756 179.608, 131.411 179.942, 139.250 182.347 C 141.863 183.148, 144.044 183.736, 144.097 183.652 C 144.190 183.507, 145.009 173.271, 146.509 153.500 C 147.167 144.832, 147.095 144.371, 144.569 141 C 143.126 139.075, 137.795 133.791, 132.723 129.258 L 123.500 121.015 115 121.176 C 110.325 121.264, 104.847 121.511, 102.826 121.724 M 124 135.255 C 122.577 135.893, 116.113 136.370, 109 136.361 C 101.179 136.352, 96.225 136.750, 95.765 137.423 C 94.731 138.940, 94.866 153.715, 95.957 158.423 C 98.642 169.997, 106.396 171.157, 116.785 161.539 C 124.044 154.818, 128.423 146.616, 128.468 139.653 C 128.503 134.252, 127.794 133.554, 124 135.255" stroke="none" fill="black" fill-rule="evenodd"/>
</svg>