<svg xmlns="http://www.w3.org/2000/svg" width="200" height="200" viewBox="0 0 200 200" version="1.1">
	<path d="M 68.500 11.504 C 52.435 13.760, 41 17.434, 41 20.338 C 41 22.536, 46.193 26.700, 53.500 30.362 C 72.544 39.908, 88.576 41.615, 91.842 34.447 C 92.822 32.297, 93.253 32.145, 95.722 33.077 C 100.103 34.730, 110.277 40.637, 112.750 42.962 C 115.457 45.507, 115.571 46.627, 113.250 47.857 C 111.216 48.934, 96.935 51.268, 96.295 50.628 C 96.057 50.390, 97.502 47.914, 99.506 45.124 C 103.386 39.724, 103.466 37.114, 99.689 39.209 C 98.149 40.063, 87.132 40.589, 62.500 40.985 C 26.160 41.568, 23 41.957, 23 45.851 C 23 47.939, 28.113 51.018, 37.147 54.368 C 42.081 56.199, 44.952 56.639, 50 56.341 L 56.500 55.958 51.063 58.119 C 44.349 60.787, 36.914 68.001, 35.262 73.449 C 34.604 75.621, 34.163 77.472, 34.282 77.563 C 34.402 77.654, 38.325 79.911, 43 82.580 C 52.460 87.980, 61 95.326, 61 98.064 C 61 100.985, 56.540 103.639, 47.757 105.944 C 29.656 110.694, 25.062 112.305, 22.827 114.684 C 20.707 116.940, 20.654 117.294, 22.049 119.804 C 22.873 121.287, 26.077 124.190, 29.168 126.254 L 34.788 130.009 44.144 127.531 C 56.692 124.208, 70.153 122.295, 90 121.013 C 114.268 119.445, 115 119.422, 115 120.201 C 115 120.594, 113.217 122.790, 111.037 125.082 C 107.975 128.301, 106.554 129.121, 104.787 128.693 C 103.529 128.388, 100.475 127.616, 98 126.978 C 91.481 125.299, 66.622 126.197, 61.750 128.288 C 52.816 132.123, 60.072 138.519, 77.418 142.099 C 87.142 144.106, 105.043 144.581, 113 143.043 C 115.475 142.565, 117.649 142.321, 117.831 142.501 C 118.013 142.681, 117.668 143.752, 117.064 144.880 C 115.166 148.427, 109.551 149.065, 82.802 148.775 C 58.826 148.514, 57.317 148.607, 54.010 150.550 C 49.369 153.277, 47.533 156.698, 48.357 161.087 C 49.201 165.588, 55.213 175.710, 60.409 181.380 L 64.500 185.844 83.509 186.922 C 107.919 188.306, 134.007 188.301, 141.535 186.909 C 155.300 184.364, 159.163 179.119, 153.456 170.720 C 151.286 167.528, 150.624 167.131, 148.956 168.024 C 147.099 169.017, 147 168.707, 147 161.899 C 147 157.954, 147.528 150.762, 148.173 145.917 C 149.343 137.127, 149.340 137.098, 146.661 133.233 C 145.185 131.103, 141.082 126.857, 137.544 123.799 L 131.110 118.238 135.305 117.590 C 143.866 116.267, 145.477 115.183, 155.091 104.278 C 176.768 79.692, 179.776 73.521, 172.035 69.518 C 168.836 67.864, 157.893 67.561, 149.750 68.901 C 143.985 69.850, 144.246 72.690, 147.155 40.709 C 148.838 22.196, 149.052 16.652, 148.118 15.718 C 146.350 13.950, 145.615 15.635, 143.048 27.334 C 135.736 60.666, 126.653 94.590, 122.307 104.803 L 120.475 109.106 117.603 106.107 L 114.730 103.109 117.282 100.076 C 120.870 95.813, 124.711 87.308, 126.661 79.312 C 129.025 69.620, 128.793 49.073, 126.203 38.710 C 124.286 31.040, 124.285 30.864, 126.162 27.210 C 129.436 20.836, 126.529 15.485, 118.124 12.411 C 111.768 10.087, 82.406 9.550, 68.500 11.504 M 81 13.039 C 66.784 14.076, 50.605 17.095, 54 18.077 C 55.375 18.475, 59.805 18.845, 63.844 18.900 C 70.038 18.984, 71.261 19.283, 71.660 20.809 C 71.988 22.063, 74.183 23.174, 78.817 24.433 C 82.492 25.432, 86.282 26.469, 87.237 26.738 C 88.781 27.172, 88.852 26.873, 87.872 24.062 C 87.265 22.322, 87.016 20.651, 87.318 20.349 C 88.389 19.277, 89.960 21.134, 91.077 24.792 C 92.104 28.157, 93.036 28.897, 101.146 32.790 C 111.504 37.762, 118.246 43.277, 117.799 46.410 C 117.368 49.425, 111.706 51.816, 101.928 53.112 C 89.902 54.705, 88.053 56.603, 95.372 59.841 C 101.284 62.456, 107.641 68.382, 109.022 72.566 C 110.567 77.249, 108.847 82.153, 103.937 87.063 L 100.106 90.894 106.095 96.082 L 112.083 101.270 114.398 99.096 C 117.544 96.140, 121.579 87.859, 123.703 80 C 126.304 70.374, 126.004 48.258, 123.128 37.581 C 121.232 30.542, 121.161 29.480, 122.486 28.016 C 123.306 27.110, 124.241 25.046, 124.564 23.430 C 126.214 15.180, 108.750 11.015, 81 13.039 M 45.500 21.942 C 48.107 24.914, 60.668 31.202, 69.355 33.884 C 80.644 37.368, 90 36.353, 90 31.644 C 90 29.962, 64.268 22.840, 55 21.957 C 50.875 21.563, 46.600 20.886, 45.500 20.451 L 43.500 19.661 45.500 21.942 M 143.061 39.625 C 139.131 59.556, 127.357 101.546, 123.791 108.352 C 122.224 111.343, 127.316 116.054, 131.387 115.379 C 143.806 113.320, 143.172 113.732, 155.209 99.891 C 177.295 74.496, 178.016 70.942, 161.059 71.060 C 156.351 71.092, 150.250 71.493, 147.500 71.950 C 144.750 72.406, 142.259 72.638, 141.965 72.464 C 141.671 72.290, 142.230 63.677, 143.207 53.324 C 144.184 42.971, 144.855 34.106, 144.700 33.625 C 144.544 33.144, 143.807 35.844, 143.061 39.625 M 57.332 43.958 C 40.739 44.256, 26.802 44.862, 26.361 45.304 C 25.276 46.391, 27.124 47.457, 36.249 51.008 C 41.925 53.217, 45.001 53.879, 47.749 53.483 C 49.812 53.185, 60.475 52.549, 71.445 52.070 L 91.390 51.198 94.168 47.849 C 95.696 46.007, 96.958 44.163, 96.973 43.750 C 96.988 43.337, 94.862 43.094, 92.250 43.208 C 89.638 43.323, 73.924 43.661, 57.332 43.958 M 80 54.869 C 80 55.878, 86.904 57.177, 88.156 56.403 C 90.274 55.095, 88.609 54, 84.500 54 C 82.025 54, 80 54.391, 80 54.869 M 57.813 55.683 C 58.534 55.972, 59.397 55.936, 59.729 55.604 C 60.061 55.272, 59.471 55.036, 58.417 55.079 C 57.252 55.127, 57.015 55.364, 57.813 55.683 M 54.500 60.024 C 47.402 62.287, 41.701 66.706, 38.966 72.067 L 36.990 75.940 44.965 80.540 C 54.335 85.945, 62.762 93.204, 63.616 96.605 C 64.370 99.611, 61.983 103.440, 58.103 105.447 C 56.521 106.265, 49.887 108.307, 43.363 109.985 C 29.836 113.464, 24 115.748, 24 117.563 C 24 119.011, 28.983 123.423, 32.915 125.456 C 35.279 126.678, 36.650 126.564, 44.709 124.471 C 57.495 121.150, 73.175 119.133, 96.862 117.763 C 116.726 116.614, 117.259 116.526, 118.299 114.242 C 119.230 112.200, 118.913 111.446, 115.820 108.354 C 112.313 104.847, 112.239 104.825, 109.187 106.404 C 104.018 109.076, 94.565 108.511, 87.500 105.108 C 76.539 99.827, 76.551 99.945, 86.471 95.185 C 91.255 92.889, 95.019 90.618, 94.835 90.137 C 94.651 89.657, 90.857 85.849, 86.405 81.674 L 78.311 74.084 74.959 77.542 C 69.373 83.305, 66.799 81.398, 70.128 73.963 C 73.057 67.422, 73.927 66.624, 76.046 68.542 C 77.683 70.023, 78.057 69.806, 81.403 65.423 C 83.381 62.832, 85 60.383, 85 59.981 C 85 57.333, 62.845 57.365, 54.500 60.024 M 84.077 66.282 L 79.933 71.770 86.217 77.798 C 93.670 84.950, 97.443 88, 98.835 88 C 100.629 88, 105.972 80.665, 106.595 77.347 C 107.007 75.148, 106.616 73.158, 105.350 71.015 C 103.214 67.400, 95.751 62.300, 91.290 61.408 C 88.473 60.845, 87.879 61.246, 84.077 66.282 M 73.077 73.731 C 71.840 76.445, 71.845 76.450, 73.893 74.597 C 75.026 73.572, 75.712 72.343, 75.417 71.866 C 74.628 70.589, 74.440 70.738, 73.077 73.731 M 90.753 95.953 C 87.042 97.904, 84.004 99.782, 84.003 100.127 C 83.999 101.054, 92.948 104.725, 97.091 105.495 C 100.741 106.174, 109 104.553, 109 103.158 C 109 102.398, 104.798 98.324, 100 94.433 L 97.500 92.405 90.753 95.953 M 121 115 C 121 115.550, 121.702 116, 122.559 116 C 123.416 116, 123.840 115.550, 123.500 115 C 123.160 114.450, 122.459 114, 121.941 114 C 121.423 114, 121 114.450, 121 115 M 115.544 124.072 C 113.308 127.183, 110.505 129.727, 108.291 130.652 C 105.023 132.017, 104.327 132, 100.945 130.475 C 97.785 129.050, 94.682 128.857, 80.854 129.222 C 64.277 129.661, 61 130.199, 61 132.484 C 61 134.004, 68.784 137.495, 75.561 139.014 C 87.511 141.692, 107.696 141.933, 117.156 139.511 C 122.732 138.083, 121.602 146.530, 115.793 149.702 C 112.825 151.322, 110.009 151.471, 87.271 151.206 C 55.678 150.837, 51 151.866, 51 159.181 C 51 162.983, 55.775 172.044, 60.986 178.130 L 64.950 182.759 73.225 183.398 C 112.454 186.425, 139.830 185.938, 148.600 182.059 C 152.323 180.412, 153 179.672, 153 177.247 C 153 175.672, 152.425 173.595, 151.721 172.633 C 150.507 170.973, 150.064 170.985, 142.971 172.873 C 128.821 176.639, 113.421 176.487, 99.579 172.444 C 89.527 169.507, 86.860 165.191, 93.704 162.933 C 98.176 161.457, 117.739 162.246, 132 164.477 C 137.225 165.295, 142 165.972, 142.611 165.982 C 143.298 165.993, 143.954 162.656, 144.327 157.250 C 144.660 152.438, 145.239 145.640, 145.614 142.144 L 146.297 135.788 137.399 127.407 C 128.881 119.386, 128.301 119.026, 123.844 119.013 C 119.388 119.001, 119.031 119.218, 115.544 124.072 M 93.487 166.021 C 91.624 169.035, 114.084 173.507, 127 172.694 C 135.189 172.178, 145.532 170.199, 144.649 169.316 C 144.414 169.081, 137.534 168.022, 129.361 166.963 C 113.182 164.867, 94.503 164.376, 93.487 166.021" stroke="none" fill="black" fill-rule="evenodd"/>
</svg>