<svg xmlns="http://www.w3.org/2000/svg" width="200" height="200" viewBox="0 0 200 200" version="1.1">
	<path d="M 98 5 C 98 10.667, 98.308 10.547, 89 8.500 C 71.723 4.700, 62.125 8.972, 70.077 16.923 C 73.816 20.662, 83.748 25.813, 93.250 28.941 C 96.963 30.163, 100 31.268, 100 31.397 C 100 31.525, 88.863 31.601, 75.250 31.565 C 48.807 31.496, 44.014 31.986, 40.921 35.079 C 39.274 36.726, 39.146 37.405, 40.136 39.254 C 42.506 43.682, 54.811 51.639, 56.494 49.831 C 57.169 49.106, 57.166 48.625, 56.483 48.369 C 53.716 47.334, 43.134 39.793, 42.640 38.504 C 41.372 35.199, 45.858 34.521, 71.322 34.166 C 84.974 33.975, 97.236 34.093, 98.572 34.429 C 100.628 34.945, 101 35.641, 101 38.974 C 101 43.633, 101.247 43.559, 82.500 44.503 C 71.228 45.071, 67.466 45.934, 69.847 47.405 C 70.409 47.752, 76.860 47.579, 84.184 47.021 C 101.108 45.730, 102 45.741, 102 47.253 C 102 48.178, 99.192 48.507, 91.250 48.512 C 79.276 48.519, 72.124 50.342, 66.933 54.710 C 57.918 62.295, 59.194 75.295, 69.940 85.347 C 78.454 93.311, 89.037 97.145, 102 96.964 C 111.362 96.833, 112.642 97.064, 107.352 97.929 C 105.070 98.302, 96.295 98.181, 87.852 97.660 C 62.160 96.074, 26.428 99.143, 22.279 103.292 C 18.280 107.292, 25.605 109.916, 50.884 113.538 C 68.326 116.038, 77.660 117.754, 85.957 119.988 C 92.434 121.733, 89.928 122.592, 71.400 124.984 C 50.460 127.687, 41.649 129.626, 39.495 132.005 C 36.928 134.842, 38.309 136.863, 44.765 139.717 L 50.528 142.264 47.703 147.963 C 41.110 161.265, 41.774 175.020, 49.378 182.635 C 55.823 189.090, 62.734 190.312, 76.596 187.448 C 83.759 185.969, 84.357 185.990, 89.473 187.904 C 100.300 191.955, 123.143 192.424, 137.678 188.894 C 159.912 183.494, 164.278 170.594, 148.692 156.349 L 143.268 151.392 148.884 150.088 C 155.793 148.483, 161.606 145.605, 162.928 143.135 C 164.627 139.960, 162.125 138.045, 154.666 136.809 C 149.164 135.897, 147.951 135.373, 148.371 134.090 C 148.657 133.215, 150.828 127.749, 153.196 121.942 L 157.500 111.384 163 109.723 C 177.842 105.242, 178.140 96.146, 163.594 91.575 C 160.792 90.694, 155.907 89.552, 152.737 89.037 C 145.595 87.876, 136.713 83.160, 137.603 81 C 139.111 77.339, 139.158 71.206, 137.699 68.384 C 135.557 64.242, 127.429 56.887, 118.819 51.299 C 114.794 48.687, 112.175 46.445, 113 46.318 C 113.825 46.190, 122.150 45.616, 131.500 45.042 C 149.244 43.953, 154.977 42.938, 156.974 40.531 C 160.304 36.519, 154.157 31.959, 134 23.489 L 120.500 17.817 116.155 8.908 C 113.754 3.986, 111.181 0, 110.405 0 C 108.470 0, 108.632 0.816, 111.600 6 C 113.016 8.475, 114.741 11.850, 115.433 13.501 L 116.690 16.502 108.871 14.001 L 101.053 11.500 101.026 5.750 C 101.006 1.317, 100.656 0, 99.500 0 C 98.367 0, 98 1.222, 98 5 M 70.473 11.044 C 68.517 14.209, 79.643 21.579, 92.915 25.908 C 96.443 27.058, 99.415 28, 99.518 28 C 99.803 28, 98.950 17.798, 98.465 15.409 C 98.120 13.704, 96.647 13.011, 90.492 11.659 C 81.993 9.791, 71.447 9.467, 70.473 11.044 M 101.719 21.250 C 102.010 24.688, 102.564 27.849, 102.949 28.275 C 104.260 29.724, 120.941 32.459, 122.001 31.399 C 122.663 30.737, 122.263 28.663, 120.808 25.220 C 118.645 20.100, 118.527 20.007, 111.056 17.519 C 106.896 16.133, 102.975 15, 102.341 15 C 101.539 15, 101.350 16.895, 101.719 21.250 M 123 23.014 C 123 23.519, 123.749 25.504, 124.665 27.424 C 126.273 30.796, 126.480 30.896, 130.665 30.322 C 134.254 29.830, 135 30.010, 135 31.364 C 135 32.435, 134.151 33, 132.539 33 C 131.186 33, 129.499 33.622, 128.789 34.382 C 127.894 35.342, 125.821 35.642, 122 35.365 C 114.810 34.844, 106.500 37.597, 106.500 40.500 C 106.500 42.319, 107.268 42.528, 115 42.805 C 125.398 43.179, 148.684 41.451, 152.426 40.028 C 153.931 39.456, 155.005 38.428, 154.812 37.744 C 154.130 35.321, 123 20.907, 123 23.014 M 103 36 C 103 37.253, 104.061 37.253, 106 36 C 107.213 35.216, 107.069 35.028, 105.250 35.015 C 104.013 35.007, 103 35.450, 103 36 M 105 47.412 C 105 50.040, 107.899 63.998, 108.767 65.549 C 109.931 67.629, 133.174 80.147, 134.750 79.543 C 135.484 79.261, 136 77.274, 136 74.726 C 136 67.734, 132.196 63.637, 114.788 51.883 C 109.997 48.647, 105.834 46, 105.538 46 C 105.242 46, 105 46.635, 105 47.412 M 78.500 52.399 C 72.075 53.979, 69.814 55.244, 66.608 59.054 C 63.323 62.957, 63.041 70.199, 65.950 75.902 C 68.733 81.357, 77.143 88.522, 83.798 91.108 C 91.077 93.936, 110.673 95.196, 109.744 92.776 C 109.436 91.972, 108.861 88.732, 108.466 85.577 C 108.072 82.422, 107.244 79.690, 106.625 79.504 C 106.006 79.319, 104.251 78.893, 102.725 78.558 C 99.798 77.916, 92.590 71.971, 90.892 68.798 C 90.341 67.768, 90.169 66.041, 90.512 64.962 C 91.235 62.683, 95.740 62.316, 100.902 64.116 C 102.662 64.729, 104.350 64.983, 104.653 64.680 C 105.473 63.860, 102.060 54.203, 100.344 52.487 C 98.496 50.639, 85.865 50.589, 78.500 52.399 M 93.441 66.096 C 92.031 68.377, 101.377 76.459, 104.687 75.822 C 105.684 75.630, 106.388 75.141, 106.250 74.736 C 106.112 74.331, 106 72.891, 106 71.535 C 106 70.151, 105.180 68.632, 104.130 68.069 C 101.059 66.426, 94.038 65.130, 93.441 66.096 M 109.768 72.777 C 109.368 74.309, 111.855 91.856, 112.615 92.861 C 112.765 93.059, 115.669 92.282, 119.069 91.134 C 124.977 89.139, 132 84.780, 132 83.109 C 132 82.388, 112.044 71, 110.780 71 C 110.479 71, 110.024 71.800, 109.768 72.777 M 130.232 88.532 C 127.884 90.389, 123.384 92.689, 120.232 93.641 C 114.290 95.436, 112.235 96.569, 113.189 97.523 C 113.495 97.828, 121.115 96.908, 130.123 95.478 C 139.498 93.989, 147.937 93.145, 149.862 93.505 C 155.092 94.481, 158 98.037, 158 103.455 C 158 108.770, 158.813 109.038, 165.460 105.914 C 170.686 103.457, 172.449 101.612, 171.624 99.463 C 170.721 97.110, 161.444 93.345, 153 91.905 C 148.330 91.109, 143.761 89.565, 140.889 87.813 C 138.354 86.266, 135.879 85.035, 135.389 85.077 C 134.900 85.120, 132.579 86.674, 130.232 88.532 M 136.500 97.183 C 133.750 97.711, 127.675 98.709, 123 99.401 C 114.906 100.600, 114.512 100.775, 114.744 103.080 C 115.304 108.630, 115.971 109.744, 119.112 110.372 C 126.667 111.883, 152.750 110.583, 154.737 108.596 C 155.132 108.202, 155.455 106.058, 155.455 103.833 C 155.455 96.505, 150.003 94.592, 136.500 97.183 M 49.500 100.591 C 42.879 101.265, 29.652 103.099, 27.250 103.676 C 20.754 105.237, 27.967 107.402, 50.333 110.605 C 88.069 116.009, 100.680 120.329, 90.750 124.451 C 88.962 125.193, 79.666 126.788, 70.090 127.996 C 60.515 129.204, 50.256 130.824, 47.292 131.596 C 44.328 132.368, 41.699 133, 41.451 133 C 41.203 133, 41 133.475, 41 134.055 C 41 136.006, 51.756 140.212, 54.950 139.511 C 58.341 138.766, 61.479 140.158, 63.058 143.109 C 64.599 145.988, 63.986 146.201, 58.717 144.615 C 54.575 143.369, 53.950 143.398, 52.590 144.900 C 47.585 150.431, 44.551 165.962, 46.987 173.587 C 50.511 184.618, 61.504 188.475, 77.784 184.392 C 83.624 182.927, 84.520 182.924, 87.847 184.355 C 95.109 187.477, 100.737 188.346, 114 188.393 C 134.897 188.467, 149.811 183.978, 154.288 176.266 C 155.911 173.471, 156.002 172.537, 154.962 169.385 C 153.647 165.400, 148.835 159.622, 142.953 154.963 L 139.191 151.983 134.778 160.241 C 130.942 167.419, 130.419 169.122, 130.783 173.250 C 131.112 176.980, 130.881 178, 129.710 178 C 128.297 178, 126.820 173.592, 122.945 157.813 L 121.794 153.127 115.647 157.621 C 107.374 163.670, 94.561 169.879, 88.776 170.642 C 82.715 171.441, 79 169.318, 79 165.054 C 79 161.014, 83.036 156.620, 89.796 153.301 C 95.144 150.675, 96.301 150.500, 108.338 150.500 L 121.176 150.500 120.551 146.595 C 120.208 144.448, 119.732 142.375, 119.494 141.990 C 119.256 141.604, 116.755 141.654, 113.937 142.099 C 104.330 143.618, 96.100 137.699, 104.250 135.131 C 106.037 134.568, 109.638 133.807, 112.250 133.440 C 114.863 133.073, 117 132.300, 117 131.723 C 117 131.145, 116.241 126.714, 115.313 121.875 C 113.715 113.539, 113.477 113.044, 110.761 112.447 C 107.498 111.731, 107.581 109.458, 110.865 109.581 C 112.806 109.653, 112.962 109.295, 112.392 106.081 C 112.043 104.111, 111.467 102.178, 111.113 101.784 C 110.403 100.995, 55.895 99.939, 49.500 100.591 M 147.500 113.046 C 144.750 113.474, 138.675 113.875, 134 113.936 L 125.500 114.047 131.108 116.354 C 149.739 124.019, 149.324 129.407, 129.792 133.417 C 125.553 134.288, 121.840 135, 121.542 135 C 121.244 135, 121 135.713, 121 136.585 C 121 137.951, 122.076 138.083, 128.750 137.537 C 144.057 136.285, 143.766 136.396, 146.656 130.692 C 148.997 126.072, 154 113.664, 154 112.477 C 154 112.215, 153.662 112.060, 153.250 112.134 C 152.838 112.207, 150.250 112.618, 147.500 113.046 M 117 115.727 C 117 119.313, 120.590 132, 121.605 132 C 124.103 132, 136.768 129.063, 139.357 127.883 C 140.810 127.221, 142 126.295, 142 125.825 C 142 124.451, 136.095 121.227, 127.665 118 C 119.774 114.979, 117 114.388, 117 115.727 M 112.650 136.138 C 109.982 136.537, 107.057 137.164, 106.150 137.532 C 104.745 138.101, 104.830 138.328, 106.720 139.057 C 109.030 139.948, 119.011 139.178, 118.985 138.111 C 118.933 136.046, 117.094 135.473, 112.650 136.138 M 129.657 140.058 C 125.893 140.495, 122.671 140.998, 122.495 141.176 C 121.753 141.930, 123.326 147, 124.302 147 C 124.890 147, 126.366 146.065, 127.583 144.922 L 129.794 142.845 133.810 145.380 C 138.203 148.153, 138.455 148.049, 141.401 142.250 L 143.051 139 139.776 139.131 C 137.974 139.204, 133.421 139.621, 129.657 140.058 M 143.435 144.129 L 140.836 149.258 143.668 148.587 C 151.821 146.655, 157.003 144.818, 159.105 143.116 L 161.449 141.218 157.475 140.115 C 155.289 139.508, 151.820 139.009, 149.767 139.006 C 146.277 139, 145.864 139.335, 143.435 144.129 M 128.073 148.142 C 125.151 150.508, 125.402 150.671, 130.972 150.022 L 135.444 149.500 132.936 147.867 C 130.588 146.338, 130.279 146.356, 128.073 148.142 M 98 153.567 C 90.958 155.092, 84.241 159.132, 82.312 163.002 C 77.857 171.938, 96.507 167.959, 112.497 156.562 L 117.494 153 112.329 153 C 109.488 153, 106.564 152.811, 105.832 152.580 C 105.099 152.349, 101.575 152.793, 98 153.567 M 125 153.557 C 125 154.283, 127.037 163.058, 127.656 165 C 127.959 165.950, 129.388 164.301, 131.555 160.500 C 133.436 157.200, 134.981 154.162, 134.987 153.750 C 134.994 153.338, 132.750 153, 130 153 C 127.250 153, 125 153.251, 125 153.557" stroke="none" fill="black" fill-rule="evenodd"/>
</svg>