<svg xmlns="http://www.w3.org/2000/svg" width="200" height="200" viewBox="0 0 200 200" version="1.1">
	<path d="M 139 7.390 C 139 7.604, 139.701 11.473, 140.557 15.987 C 141.970 23.437, 141.969 24.394, 140.543 26.348 C 139.679 27.531, 137.966 29.957, 136.736 31.738 C 135.506 33.518, 134.274 34.981, 133.998 34.988 C 133.722 34.994, 132.462 33.050, 131.198 30.666 C 125.517 19.959, 119.335 16.031, 116.161 21.113 C 114.135 24.357, 113.178 37.603, 113.767 54.228 L 114.300 69.279 107.931 82.139 C 104.428 89.213, 101.226 95, 100.816 95 C 100.405 95, 98.558 93.673, 96.711 92.051 L 93.353 89.103 93.803 80.527 C 94.330 70.492, 92.570 64.499, 87.959 60.619 L 85.061 58.180 95.505 57.840 C 104.548 57.546, 106.233 57.216, 108.067 55.380 C 110.060 53.384, 110.093 53.081, 108.630 50.252 C 106.930 46.964, 100.007 42.018, 90.212 37.094 C 86.753 35.355, 84.205 33.478, 84.548 32.922 C 85.993 30.585, 81.924 27.057, 75.491 25.070 C 63.911 21.493, 41.552 18.297, 40.461 20.063 C 39.157 22.172, 41.844 23.222, 48.661 23.265 C 52.422 23.288, 54.150 23.474, 52.500 23.678 C 45.861 24.498, 45 24.951, 45 27.629 C 45 29.481, 46.680 31.838, 50.897 35.901 L 56.794 41.582 50.895 42.703 C 43.173 44.170, 36.116 47.651, 34.741 50.670 C 33.826 52.677, 33.983 53.427, 35.669 55.114 C 37.871 57.315, 43.450 58.935, 49 58.983 L 52.500 59.013 47.716 63.114 C 37.460 71.904, 36.433 80.673, 43.795 96.592 C 48.610 107.002, 49.105 111.255, 45.750 113.378 C 43.014 115.109, 34.299 117, 29.058 117 C 24.988 117, 22.649 119.454, 25.801 120.417 C 35.241 123.300, 63.079 123.408, 81.750 120.633 C 88.359 119.650, 90 119.657, 90 120.664 C 90 122.091, 88.940 123.094, 84.081 126.267 C 82.063 127.585, 79.256 131.069, 77.230 134.770 L 73.799 141.039 70.820 136.541 C 66.600 130.170, 62.510 127, 58.512 127 C 51.720 127, 47.600 136.323, 47.683 151.500 C 47.767 166.752, 51.780 178.886, 58.843 185.250 C 61.133 187.313, 62.689 189, 62.303 189 C 61.916 189, 62.140 189.540, 62.800 190.200 C 63.733 191.133, 64.267 191.133, 65.200 190.200 C 65.860 189.540, 67.674 189, 69.232 189 C 72.488 189, 78.659 186.619, 81.080 184.428 C 82.459 183.179, 83.541 183.122, 87.616 184.079 C 94.027 185.584, 108.433 185.558, 115.157 184.029 C 118.096 183.361, 128.150 180.315, 137.500 177.260 C 151.796 172.589, 155.693 171.697, 162 171.652 C 169.703 171.598, 175.838 173.690, 178.939 177.427 C 180.318 179.088, 183 179.577, 183 178.167 C 183 176.780, 166.217 149.976, 162.279 145.077 C 156.566 137.966, 151.635 133.661, 136.179 122.289 L 121.857 111.752 127.179 109.578 C 135.509 106.175, 136.333 105.481, 137.452 100.922 C 138.028 98.572, 139.069 96.463, 139.764 96.236 C 140.459 96.010, 145.671 100.336, 151.347 105.851 C 162.320 116.513, 165.787 118.408, 169.003 115.498 C 172.759 112.098, 173.337 107.660, 172.681 87.263 C 172.281 74.808, 172.429 67.002, 173.100 65.236 C 174.747 60.905, 175.364 43.196, 174.136 35.500 C 172.344 24.266, 171.018 20.782, 167.008 16.773 C 161.576 11.340, 156.597 11.812, 148.392 18.535 L 144.220 21.954 143.572 17.227 C 142.415 8.786, 141.865 7, 140.421 7 C 139.639 7, 139 7.175, 139 7.390 M 152.400 18.854 C 144.575 24.579, 144.774 23.810, 147.066 39.463 C 148.181 47.079, 148.960 55.604, 148.797 58.406 C 148.545 62.734, 148.199 63.500, 146.500 63.500 C 144.942 63.500, 143.280 60.993, 138.980 52.157 L 133.460 40.813 127.340 51.157 C 116.897 68.804, 117.196 67.850, 118.009 80.992 C 118.797 93.741, 119.278 92.539, 111.332 97.699 L 107.164 100.406 113.255 105.120 L 119.346 109.834 123.923 108.020 C 132.763 104.516, 134.042 103.684, 134.593 101.079 C 135.797 95.384, 136.854 94, 140 94 C 142.493 94, 144.921 95.805, 153.451 104 C 159.527 109.836, 164.690 114, 165.853 114 C 169.890 114, 171.412 102.939, 169.971 84.066 C 169.098 72.625, 169.190 69.534, 170.591 63.236 C 172.618 54.126, 172.096 34.201, 169.627 26.403 C 166.327 15.980, 160.073 13.239, 152.400 18.854 M 118.014 23.463 C 116.477 27.507, 115.686 42.990, 116.478 53.552 C 117.205 63.241, 117.248 63.373, 118.757 60.465 C 119.603 58.834, 122.948 53.096, 126.190 47.713 L 132.085 37.927 129.440 33.066 C 126.379 27.444, 121.286 21, 119.902 21 C 119.379 21, 118.529 22.108, 118.014 23.463 M 63.500 26.394 C 67.900 27.744, 73.624 29.761, 76.221 30.876 C 80.692 32.797, 83.419 32.399, 80.739 30.218 C 78.785 28.627, 66.547 25.128, 60.761 24.506 C 55.682 23.960, 55.777 24.025, 63.500 26.394 M 47.945 28.898 C 49.335 31.494, 57.978 39, 59.579 39 C 61.145 39, 73.210 36.241, 75.521 35.354 C 76.840 34.847, 76.902 34.550, 75.834 33.859 C 72.657 31.803, 55.584 27, 51.453 27 C 47.321 27, 47.017 27.164, 47.945 28.898 M 138.857 33.400 L 135.271 38.300 140.228 48.900 C 142.954 54.730, 145.430 59.725, 145.730 60 C 146.573 60.773, 145.053 42.287, 143.673 35 L 142.443 28.500 138.857 33.400 M 75.673 37.985 L 70.846 39.703 76.173 40.343 C 79.103 40.695, 83.638 40.987, 86.250 40.991 C 88.862 40.996, 91 41.430, 91 41.955 C 91 42.481, 89.461 45.518, 87.580 48.705 L 84.160 54.500 88.330 55.202 C 92.932 55.977, 103.996 55.239, 105.957 54.026 C 107.992 52.769, 105.641 49.619, 99.776 45.742 C 93.897 41.856, 82.482 35.927, 81.279 36.134 C 80.850 36.207, 78.328 37.040, 75.673 37.985 M 56.500 44.496 C 39.664 47.227, 31.668 52.516, 40.750 54.913 C 45.758 56.234, 55.009 56.418, 69.253 55.478 L 81.007 54.702 83.959 49.601 L 86.912 44.500 84.706 43.850 C 80.997 42.756, 64.958 43.123, 56.500 44.496 M 63.500 58.924 C 50.791 60.236, 39.826 71.951, 41.548 82.377 C 41.923 84.645, 44.203 90.822, 46.615 96.106 C 53.046 110.193, 52.335 114.399, 42.999 117.500 C 40.250 118.413, 38 119.417, 38 119.729 C 38 120.622, 73.761 119.216, 81 118.039 C 91.263 116.370, 91.884 116.129, 93.355 113.236 C 96.142 107.758, 96.320 106, 94.090 106 C 90.585 106, 88.747 101.871, 89.516 95.720 L 90.189 90.329 80.973 82.640 C 72.722 75.755, 71.628 75.127, 70.523 76.637 C 69.822 77.596, 68.612 78.065, 67.722 77.724 C 65.573 76.899, 66.641 73.281, 69.608 71.337 C 72.440 69.481, 78.283 60.267, 77.466 58.945 C 76.842 57.936, 73.129 57.930, 63.500 58.924 M 77.218 66.388 L 73.213 72.776 81.856 79.899 L 90.500 87.022 90.793 78.823 C 90.962 74.121, 90.587 69.416, 89.914 67.792 C 88.775 65.043, 83.676 60, 82.035 60 C 81.589 60, 79.421 62.875, 77.218 66.388 M 109.250 85.444 C 106.362 91.263, 104 96.469, 104 97.012 C 104 98.711, 105.852 98.112, 110.994 94.750 C 116.435 91.192, 116.480 91.035, 115.151 80.182 L 114.500 74.864 109.250 85.444 M 92.443 94.287 C 92.122 95.125, 92.003 97.315, 92.180 99.155 C 92.415 101.617, 93.028 102.568, 94.500 102.756 C 99.664 103.416, 100.757 98.786, 96.264 95.286 C 93.573 93.190, 92.929 93.022, 92.443 94.287 M 102.336 103.182 C 100.228 104.202, 95.448 113.781, 96.515 114.848 C 96.808 115.142, 101.331 114.349, 106.566 113.088 L 116.083 110.793 110.421 106.397 C 107.307 103.978, 104.701 102.030, 104.630 102.068 C 104.558 102.105, 103.526 102.606, 102.336 103.182 M 105.603 115.949 C 95.625 118.450, 92 120.354, 92 123.092 C 92 123.483, 93.533 124.707, 95.406 125.812 C 97.280 126.918, 100.597 130.079, 102.776 132.836 L 106.740 137.851 110.620 133.831 C 114.491 129.822, 125.350 121.623, 127.784 120.873 C 129.289 120.409, 119.672 112.947, 117.776 113.109 C 117.074 113.168, 111.597 114.446, 105.603 115.949 M 125.965 124.938 C 124.021 125.977, 119.194 129.824, 115.238 133.486 L 108.045 140.146 111.183 146.323 C 112.909 149.720, 115.787 156.100, 117.578 160.500 L 120.835 168.500 124.009 161.500 C 133.130 141.386, 136.567 123.846, 131.500 123.274 C 130.400 123.150, 127.909 123.899, 125.965 124.938 M 89.710 128.250 C 89.433 128.938, 84.658 140.711, 79.100 154.413 C 73.541 168.116, 69.170 179.504, 69.386 179.720 C 69.603 179.936, 72.637 176.600, 76.129 172.306 C 79.621 168.013, 87.370 158.938, 93.349 152.140 C 105.716 138.080, 105.620 138.591, 97.323 130.944 C 92.923 126.888, 90.592 126.063, 89.710 128.250 M 136.699 131.897 C 136.380 134.590, 134.941 140.328, 133.502 144.647 C 129.882 155.514, 120.867 175.283, 119.978 174.305 C 119.575 173.862, 118.452 171.025, 117.481 168 C 115.187 160.852, 106.940 143, 105.931 143 C 104.175 143, 69 184.066, 69 186.116 C 69 187.385, 75.141 185.174, 78.952 182.533 L 82.579 180.020 90.039 181.606 C 102.868 184.333, 113.336 182.733, 138 174.272 C 153.713 168.883, 165.534 167.525, 172.266 170.338 C 174.320 171.196, 176 171.688, 176 171.431 C 176 171.175, 173.711 167.260, 170.912 162.732 C 161.988 148.292, 155.501 140.499, 146.648 133.587 C 142.008 129.964, 138.002 127, 137.746 127 C 137.489 127, 137.018 129.204, 136.699 131.897 M 82.004 132.153 C 80.350 134.437, 78.032 138.950, 76.853 142.182 L 74.710 148.059 70.938 141.780 C 60.086 123.714, 52.400 125.700, 50.368 147.097 C 49.650 154.652, 51.127 164.970, 54.090 173.099 C 56.173 178.814, 61.222 185.426, 63.039 184.820 C 64.344 184.385, 86.998 128, 85.867 128 C 85.397 128, 83.659 129.869, 82.004 132.153" stroke="none" fill="black" fill-rule="evenodd"/>
</svg>