<svg xmlns="http://www.w3.org/2000/svg" width="200" height="200" viewBox="0 0 200 200" version="1.1">
	<path d="M 97.932 11.828 C 95.479 13.384, 92.751 15.742, 91.870 17.069 L 90.269 19.481 79.822 16.104 C 69.497 12.767, 69.334 12.748, 65.725 14.460 C 59.166 17.573, 59.877 22.064, 67.716 27.035 C 70.232 28.630, 74.454 30.654, 77.098 31.533 L 81.906 33.129 80.268 36.565 L 78.630 40 70.065 39.913 C 65.354 39.865, 57.450 39.491, 52.500 39.081 C 44.307 38.404, 40.615 38.948, 42.258 40.591 C 42.601 40.935, 50.446 41.663, 59.691 42.209 C 68.936 42.755, 76.602 43.295, 76.726 43.410 C 76.850 43.525, 76.104 45.842, 75.068 48.559 L 73.185 53.500 62.842 53.500 C 51.073 53.500, 45.693 51.939, 38.474 46.428 C 35.854 44.428, 33.818 43.486, 33.439 44.098 C 32.469 45.669, 35.515 48.466, 41.806 51.782 C 48.687 55.408, 55.770 57, 65.024 57 L 71.950 57 70.940 59.658 C 70.384 61.120, 68.594 63.837, 66.963 65.695 C 59.747 73.913, 56.442 85.335, 59.300 92.176 C 60.690 95.503, 60.659 96.548, 58.937 104.161 C 57.900 108.747, 57.040 112.838, 57.026 113.250 C 57.012 113.662, 52.747 114, 47.549 114 C 31.144 114, 23 116.636, 23 121.945 C 23 125.763, 28.256 130.267, 39.125 135.762 C 47.074 139.781, 47.482 140.534, 42.078 141.201 C 40.746 141.365, 39.458 142.104, 39.214 142.842 C 38.859 143.919, 40.067 144.045, 45.341 143.480 L 51.909 142.777 51.352 158.138 C 50.933 169.664, 51.132 174.484, 52.147 177.440 C 53.485 181.337, 53.590 181.401, 61.500 183.145 C 77.787 186.738, 94.578 188.282, 110.979 187.696 C 132.370 186.932, 146.696 183.438, 157.352 176.386 L 161.212 173.831 158.384 170.879 C 152.202 164.427, 142.704 163.773, 117.623 168.075 C 109.578 169.455, 102.445 170.045, 96.420 169.827 C 88.299 169.535, 86.954 169.206, 83.700 166.722 C 79.645 163.627, 77 156.805, 77 149.442 C 77 145.368, 76.857 145.185, 72.065 143.123 C 69.350 141.955, 65.975 141, 64.565 141 C 59.395 141, 62.235 139.378, 71.459 137.062 C 79.482 135.048, 81.166 134.893, 82.546 136.038 C 83.441 136.781, 87.083 141.562, 90.640 146.664 C 97.399 156.358, 101.060 160, 104.046 160 C 107.675 160, 113.285 150.331, 115.430 140.376 C 117.215 132.098, 124.859 130, 153.242 130 C 182.161 130, 185.830 128.196, 176.812 118.412 C 171.020 112.129, 167.140 109.564, 163.809 109.818 C 160.360 110.081, 154.589 107.256, 146.053 101.128 C 142.508 98.583, 139.214 96.229, 138.733 95.898 C 138.253 95.566, 139.016 93.592, 140.428 91.510 C 146.059 83.213, 145.835 75.563, 139.813 70.496 C 135.189 66.605, 132.099 65.270, 118.962 61.489 C 105.029 57.479, 102.322 56.278, 103.824 54.776 C 105.301 53.299, 125.554 54.412, 130.500 56.243 C 134.102 57.576, 135.378 57.545, 143.326 55.931 C 152.698 54.028, 160.720 50.608, 162.409 47.795 C 164.823 43.776, 156.990 39.279, 136.515 32.929 L 124.530 29.212 123.747 25.445 C 122.651 20.169, 119.405 15.306, 114.709 11.904 C 109.330 8.008, 103.994 7.984, 97.932 11.828 M 97.890 15.254 C 95.544 17.043, 93.596 18.935, 93.562 19.459 C 93.495 20.480, 119.911 28.423, 120.711 27.622 C 122.100 26.233, 119.272 20.219, 115.417 16.364 C 111.573 12.520, 110.523 12, 106.604 12 C 103.125 12, 101.226 12.709, 97.890 15.254 M 66.176 17.059 C 64.754 17.629, 63.979 18.655, 64.181 19.701 C 64.611 21.933, 71.148 26.395, 77.680 28.916 L 82.860 30.915 85.518 26.379 C 86.980 23.884, 88.024 21.750, 87.838 21.636 C 86.873 21.047, 70.244 16.009, 69.440 16.063 C 68.923 16.098, 67.454 16.546, 66.176 17.059 M 88.368 27.020 C 86.905 29.232, 85.955 31.288, 86.257 31.590 C 87.533 32.867, 104.918 35.168, 109.654 34.687 C 115.496 34.095, 121.460 31.497, 119 30.618 C 116.209 29.620, 92.569 23, 91.796 23 C 91.374 23, 89.831 24.809, 88.368 27.020 M 119.868 34.163 C 115.992 37.184, 108.934 38.172, 99.563 37.007 C 95.128 36.456, 89.955 35.561, 88.066 35.020 C 86.178 34.478, 84.551 34.139, 84.452 34.267 C 83.246 35.821, 81.974 39.307, 82.443 39.776 C 83.157 40.491, 126.472 38.187, 133 37.087 C 137.865 36.267, 137.530 35.925, 129.500 33.519 C 123.263 31.651, 123.074 31.664, 119.868 34.163 M 141 37.900 C 141 38.386, 139.762 39.089, 138.250 39.462 C 136.738 39.835, 129.650 42.460, 122.500 45.295 L 109.500 50.450 117.386 51.190 C 121.724 51.597, 127.471 52.574, 130.157 53.361 C 134.559 54.652, 135.904 54.607, 143.771 52.909 C 153.522 50.804, 160 48.271, 160 46.564 C 160 45.941, 158.675 44.648, 157.055 43.691 C 152.651 41.090, 141 36.887, 141 37.900 M 103 42.053 C 95.575 42.444, 87.411 42.817, 84.859 42.882 C 79.857 43.009, 80.449 42.335, 76.356 52.560 C 76.067 53.281, 80.341 53.164, 89.716 52.194 C 101.910 50.932, 104.423 50.337, 111.500 47.035 C 115.900 44.983, 120.625 42.815, 122 42.219 C 124.319 41.214, 124.211 41.143, 120.500 41.239 C 118.300 41.296, 110.425 41.663, 103 42.053 M 89.500 54.930 L 84.500 55.545 89.977 56.811 C 92.990 57.507, 97.280 59.146, 99.512 60.454 C 104.948 63.640, 112.430 71.782, 114.058 76.283 C 114.783 78.289, 115.913 80.136, 116.568 80.388 C 117.223 80.639, 121.607 83.580, 126.310 86.922 C 131.014 90.265, 135.303 93, 135.842 93 C 137.310 93, 142 83.008, 142 79.880 C 142 73.471, 133.672 67.992, 117.796 63.958 C 106.077 60.980, 101 58.592, 101 56.056 C 101 53.817, 99.630 53.683, 89.500 54.930 M 74.638 57.500 C 74.322 58.325, 74.161 58.993, 74.281 58.985 C 74.402 58.977, 76.300 58.321, 78.500 57.529 L 82.500 56.088 78.857 56.044 C 76.510 56.016, 75.009 56.534, 74.638 57.500 M 77.243 60.976 C 72.344 63.200, 72.421 63.039, 67.388 81.442 L 63.674 95.024 66.087 97.611 C 72.811 104.820, 86.169 108.386, 104 107.733 C 118.782 107.192, 123.711 105.671, 129.693 99.806 L 133.886 95.696 125.012 89.348 C 120.132 85.857, 115.882 83, 115.569 83 C 115.256 83, 115 83.697, 115 84.550 C 115 87.972, 111.874 91.883, 107.411 94.043 C 102.191 96.570, 85.724 97.949, 83 96.087 C 80.849 94.617, 81.110 80.623, 83.369 76.254 C 86.892 69.440, 93.499 68.593, 104.651 73.524 C 107.762 74.900, 110.458 75.875, 110.642 75.691 C 111.378 74.955, 105.697 68.307, 101.724 65.255 C 97.183 61.768, 89.529 58.986, 84.568 59.022 C 82.881 59.034, 79.584 59.914, 77.243 60.976 M 64.108 75.101 C 61.873 79.573, 61 82.725, 61 86.326 C 61 89.080, 61.226 91.107, 61.503 90.830 C 62.198 90.135, 67.924 69.591, 67.532 69.199 C 67.358 69.024, 65.817 71.680, 64.108 75.101 M 88.289 74.461 C 85.590 76.412, 84.013 81.715, 84.006 88.869 L 84 94.239 93.250 93.812 C 104.589 93.289, 109.589 91.227, 111.685 86.211 C 112.477 84.317, 112.902 82.187, 112.631 81.480 C 111.853 79.452, 99.525 73.810, 94.788 73.313 C 91.857 73.005, 89.800 73.369, 88.289 74.461 M 130.877 102.458 C 124.184 108.845, 118.037 110.500, 101 110.500 C 85.391 110.500, 76.827 108.440, 68.143 102.596 C 62.504 98.801, 63.111 98.360, 60.975 107.804 C 60.315 110.721, 60.041 113.374, 60.366 113.700 C 60.692 114.025, 74.355 114.329, 90.729 114.376 C 120.915 114.462, 144.670 112.954, 150.490 110.581 L 153.481 109.361 150.490 107.462 C 148.846 106.418, 145.157 103.861, 142.293 101.782 C 139.429 99.702, 136.729 98.010, 136.293 98.023 C 135.857 98.036, 133.420 100.032, 130.877 102.458 M 151 113.974 C 144.457 115.487, 86.005 132.850, 85.197 133.521 C 84.735 133.905, 96.860 151.124, 99.793 154.250 C 101.213 155.762, 103.181 157, 104.167 157 C 106.373 157, 109.049 151.943, 111.874 142.437 C 115.803 129.218, 119.150 127.960, 152.670 127.112 C 165.963 126.775, 177.176 126.162, 177.588 125.748 C 179.936 123.391, 168.794 113, 163.918 113 C 162.403 113, 160.564 112.829, 159.832 112.620 C 159.099 112.411, 155.125 113.021, 151 113.974 M 39.342 117.063 C 34.856 117.498, 29.786 118.577, 28.076 119.461 C 25.406 120.841, 25.118 121.351, 26.035 123.066 C 28.533 127.733, 49.986 139.414, 52.127 137.273 C 53.139 136.261, 55.930 122.122, 55.980 117.750 C 56.003 115.776, 53.638 115.678, 39.342 117.063 M 59.704 116.671 C 59.123 117.613, 57 128.654, 57 130.735 C 57 131.631, 58.266 131.136, 60.672 129.301 C 65.652 125.502, 74.212 125.302, 79.040 128.871 C 81.853 130.951, 82.693 131.115, 85.874 130.204 C 100.431 126.034, 131.877 116.544, 131.705 116.372 C 131.589 116.256, 123.621 116.589, 113.997 117.113 C 97.790 117.995, 75.902 117.670, 64.858 116.383 C 62.305 116.085, 59.985 116.215, 59.704 116.671 M 63.500 130.871 C 60.147 132.953, 55.188 138, 56.494 138 C 57.822 138, 77.443 132.786, 77.998 132.286 C 78.273 132.039, 77.624 131.198, 76.557 130.418 C 73.833 128.426, 67.058 128.661, 63.500 130.871 M 54.636 147.640 C 53.776 153.911, 53.957 175.033, 54.891 177.415 C 55.304 178.468, 56.285 179.448, 57.071 179.592 C 57.857 179.736, 64.125 180.897, 71 182.174 C 81.800 184.179, 86.561 184.486, 106 184.437 C 125.912 184.386, 129.402 184.130, 136.342 182.207 C 144.047 180.073, 157 174.349, 157 173.078 C 157 172.722, 155.583 171.594, 153.852 170.571 C 148.612 167.476, 139.394 167.456, 120.013 170.498 C 86.396 175.774, 77.823 172.618, 74.711 153.820 L 73.500 146.500 68.500 144.794 C 65.750 143.855, 61.649 143.068, 59.386 143.044 L 55.272 143 54.636 147.640" stroke="none" fill="black" fill-rule="evenodd"/>
</svg>