<svg xmlns="http://www.w3.org/2000/svg" width="200" height="200" viewBox="0 0 200 200" version="1.1">
	<path d="M 156.432 14.750 C 155.556 16.813, 154.132 20.300, 153.269 22.500 C 152.405 24.700, 151.427 26.818, 151.094 27.206 C 150.760 27.594, 146.913 24.762, 142.543 20.913 C 134.373 13.714, 130.782 12.427, 130.228 16.500 C 130.078 17.600, 132.409 25.661, 135.408 34.414 L 140.860 50.329 137.295 57.414 C 135.334 61.311, 131.441 68.550, 128.643 73.500 L 123.555 82.500 122.878 77.500 C 122.505 74.750, 121.951 67.325, 121.646 61 C 121.062 48.880, 119.349 31.889, 118.117 26 L 117.385 22.500 111.443 22.778 C 74.634 24.497, 66.227 24.733, 58.299 24.268 L 49.097 23.728 47.440 27.204 C 45.911 30.411, 45.907 30.920, 47.397 33.801 C 49.396 37.667, 55.625 41.408, 63.460 43.448 C 70.044 45.163, 89.008 45.531, 95.316 44.067 C 98.915 43.231, 99.609 43.502, 107.524 48.834 C 113.837 53.086, 115.493 54.640, 114.208 55.107 C 113.269 55.449, 107.100 56.485, 100.500 57.411 C 93.900 58.337, 87.299 59.280, 85.832 59.506 C 83.452 59.873, 83.020 59.462, 81.832 55.709 C 80.840 52.575, 79.606 51.034, 77 49.676 C 73.827 48.022, 71.629 47.908, 53.500 48.456 C 26.865 49.262, 25 49.536, 25 52.650 C 25 56.237, 29.010 59.642, 35.647 61.692 C 40.477 63.184, 44.985 63.496, 61.444 63.477 C 80.695 63.455, 81.471 63.532, 83.790 65.681 C 85.787 67.532, 91.356 70.069, 96.644 71.538 C 98.444 72.038, 103.100 78.620, 104.573 82.748 C 106.240 87.418, 106.347 92.144, 104.861 95.405 L 103.723 97.904 98.111 93.643 C 95.025 91.300, 88.675 86.732, 84 83.492 C 79.325 80.252, 75.096 76.904, 74.602 76.051 C 72.333 72.133, 65.030 66.228, 61.675 65.599 C 55.260 64.395, 47.831 68.967, 40.876 78.400 C 38.582 81.511, 38.004 83.332, 38.022 87.400 C 38.082 101.355, 50.463 111.415, 69.202 112.736 C 81.806 113.625, 95.164 110.088, 101.264 104.246 C 103.893 101.728, 104.112 101.684, 105.764 103.346 C 107.414 105.007, 107.251 105.315, 102.500 109.532 C 90.644 120.054, 81.907 121.756, 61.500 117.514 C 46.263 114.347, 40.618 114.602, 31.500 118.871 C 24.710 122.051, 19 126.489, 19 128.589 C 19 130.331, 18.469 130.391, 24.982 127.915 C 35.031 124.096, 43.766 125.481, 49.782 131.847 C 53.038 135.292, 56.942 143.967, 61.001 156.779 C 62.792 162.432, 65.132 168.169, 66.201 169.529 C 68.846 172.891, 72.912 172.777, 76.152 169.250 C 81.440 163.494, 82.642 160.746, 82.780 154.098 C 82.878 149.398, 83.618 146.256, 85.566 142.276 C 88.645 135.982, 92.630 132.760, 105.143 126.448 C 118.494 119.712, 120.364 115.857, 114.088 108.011 L 111.297 104.521 115.348 99.155 C 118.792 94.594, 119.509 94.067, 120.130 95.644 C 121.048 97.979, 121.213 118.169, 120.364 124.360 C 119.797 128.500, 119.453 129, 117.180 129 C 112.420 129, 103.023 132.250, 100.506 134.766 C 94.788 140.485, 98.176 145.440, 120.895 164.584 C 126.062 168.938, 131.760 174.425, 133.556 176.777 L 136.821 181.054 138.389 176.277 C 143.369 161.105, 144.826 146.081, 145.952 98.248 C 146.753 64.268, 146.675 58.403, 145.374 54.585 C 143.892 50.234, 143.919 50.074, 147.349 42.837 L 150.826 35.500 150.929 102.500 C 151.036 172.865, 151.354 178.419, 155.532 183.035 C 161.972 190.151, 171.725 175.711, 176.613 151.822 C 178.648 141.877, 178.920 128.166, 177.354 114.500 C 176.592 107.849, 176.501 101.151, 177.084 94.500 C 177.566 89, 178.253 75.725, 178.610 65 C 179.327 43.495, 178.502 37.588, 173.343 27.315 C 170.951 22.552, 160.666 11, 158.818 11 C 158.383 11, 157.309 12.688, 156.432 14.750 M 156.363 22.275 L 153.500 29.500 153.500 99.500 C 153.500 172.040, 153.784 177.641, 157.655 181.513 C 160.138 183.996, 162.657 181.600, 166.895 172.723 C 174.899 155.957, 176.505 142.911, 174.550 110.500 C 173.973 100.919, 174.216 92.251, 175.477 77.539 C 178.131 46.576, 175.919 33.524, 165.870 20.835 C 160.404 13.935, 159.621 14.054, 156.363 22.275 M 133.398 19.622 C 133.772 21.205, 135.950 27.869, 138.238 34.430 L 142.399 46.360 145.700 39.450 C 147.515 35.649, 149 31.997, 149 31.334 C 149 30.167, 137.441 19.398, 134.281 17.622 C 132.968 16.883, 132.827 17.202, 133.398 19.622 M 99 26.045 C 93.225 26.436, 85.800 26.821, 82.500 26.901 L 76.500 27.047 82.270 29.420 C 85.443 30.725, 89.652 33.077, 91.622 34.646 C 93.592 36.216, 97.928 39.225, 101.257 41.333 C 104.586 43.441, 109.715 46.943, 112.655 49.115 L 118 53.063 118 49.755 C 118 46.125, 116.281 30.827, 115.471 27.250 C 115.082 25.532, 114.317 25.040, 112.231 25.168 C 110.729 25.260, 104.775 25.655, 99 26.045 M 50.430 28.299 C 48.010 29.653, 48.837 32.774, 52.319 35.429 C 56.761 38.818, 62.940 40.900, 72 42.063 C 79.906 43.078, 94 42.317, 94 40.875 C 94 39.940, 82.948 34.174, 74.732 30.822 C 69.163 28.551, 52.982 26.871, 50.430 28.299 M 42 51.162 C 35.125 51.714, 29.050 52.610, 28.500 53.154 C 27.111 54.526, 31.149 57.658, 36.345 59.237 C 40.664 60.550, 78.236 61.100, 79.466 59.868 C 80.658 58.675, 78.753 53.885, 76.500 52.408 C 73.489 50.435, 58.023 49.877, 42 51.162 M 138.628 60.750 C 137.095 63.913, 132.951 71.502, 129.420 77.615 L 123 88.730 123 109.719 L 123 130.707 115.914 131.877 C 106.565 133.421, 101 136.244, 101 139.444 C 101 142.735, 104.361 146.466, 117.903 158.205 C 124.281 163.735, 130.906 169.842, 132.624 171.777 L 135.748 175.295 136.846 171.898 C 140.606 160.270, 142.933 133.068, 143.038 99.500 C 143.077 87.400, 143.478 73.969, 143.931 69.653 C 144.697 62.347, 143.749 55, 142.041 55 C 141.697 55, 140.162 57.587, 138.628 60.750 M 114 58.042 C 112.075 58.503, 104.763 59.669, 97.750 60.633 C 90.737 61.598, 85 62.710, 85 63.104 C 85 64, 92.554 67.653, 96.271 68.555 C 99.886 69.432, 104.539 75.159, 107.020 81.788 C 109.394 88.128, 109.489 90.895, 107.493 95.671 C 106.029 99.175, 106.721 102, 109.043 102 C 109.482 102, 112.122 98.963, 114.911 95.250 C 119.688 88.889, 119.981 88.154, 119.985 82.500 C 119.992 73.372, 118.775 56.987, 118.099 57.102 C 117.770 57.159, 115.925 57.582, 114 58.042 M 54.485 69.345 C 50.525 71.133, 41.040 81.561, 40.855 84.331 C 40.296 92.661, 41.967 96.931, 47.872 102.265 C 58.731 112.076, 84.747 112.684, 98.088 103.439 C 101.363 101.169, 101.807 100.473, 100.774 99.228 C 99.272 97.417, 78.779 82.888, 78.343 83.323 C 78.173 83.493, 78.477 85.175, 79.017 87.060 C 80.576 92.496, 80.260 97.963, 78.344 98.698 C 76.311 99.478, 73.815 96.570, 70.020 89.003 C 66.254 81.492, 65.543 78.993, 67.183 79.027 C 67.907 79.042, 70.198 82.642, 72.274 87.027 C 74.349 91.412, 76.429 95, 76.895 95 C 78.278 95, 76.166 85.887, 73.531 80.488 C 68.678 70.541, 61.340 66.249, 54.485 69.345 M 103.272 111.954 C 91.674 122.774, 82.292 124.739, 62.439 120.507 C 47.733 117.371, 39.847 117.457, 33.461 120.824 L 29.500 122.912 35.349 122.956 C 48.995 123.059, 56.096 131.435, 63.843 156.571 C 65.597 162.263, 67.834 167.444, 68.986 168.487 C 70.990 170.301, 71.100 170.253, 75.512 165.649 C 79.918 161.051, 80 160.841, 80.010 154.232 C 80.029 141.285, 86.606 132.733, 102.804 124.599 C 112.623 119.667, 115 117.797, 115 115.005 C 115 113.179, 110.445 106.964, 109.161 107.038 C 108.797 107.059, 106.147 109.271, 103.272 111.954" stroke="none" fill="black" fill-rule="evenodd"/>
</svg>