<svg xmlns="http://www.w3.org/2000/svg" width="200" height="200" viewBox="0 0 200 200" version="1.1">
	<path d="M 117.500 13.123 C 103.750 14.721, 84.625 16.271, 75 16.566 C 50.622 17.314, 45 18.887, 45 24.959 C 45 30.220, 57.511 38.522, 69.782 41.404 C 77.116 43.126, 75.380 43.579, 56 45 C 36.213 46.452, 31.076 47.977, 34.022 51.527 C 36.610 54.645, 54.706 57.629, 77.180 58.644 C 91.713 59.300, 91.866 59.331, 92.479 61.771 C 92.819 63.127, 92.944 64.390, 92.756 64.578 C 92.568 64.765, 88.898 63.803, 84.600 62.438 C 65.104 56.246, 50.800 58.984, 45.250 69.970 C 42.612 75.192, 42.471 77.857, 44.477 84.612 C 46.526 91.510, 52.092 97.656, 59.442 101.132 C 64.589 103.567, 66.778 104.005, 74 104.045 L 82.500 104.092 76.500 109.614 C 64.600 120.567, 55.605 123.696, 50.550 118.641 C 49.253 117.344, 47.384 113.631, 46.397 110.391 C 45.411 107.151, 44.497 104.341, 44.366 104.147 C 44.235 103.953, 41.663 104.923, 38.650 106.303 C 25.351 112.391, 29.183 118.096, 56.917 133.501 C 78.435 145.453, 79.044 145.993, 82.480 156.191 C 85.940 166.460, 91.362 177.452, 94.526 180.617 C 99.705 185.796, 104.354 183.126, 113.012 170 C 119.704 159.855, 123.975 154.972, 128.873 151.866 C 135.970 147.365, 136.603 147.732, 137.316 156.750 C 138.408 170.576, 142.101 179.113, 149.024 183.812 C 159.990 191.257, 176 175.844, 176 157.842 C 176 148.900, 172.058 141.197, 164.552 135.472 L 161.161 132.886 153.831 134.382 C 132.022 138.832, 97.899 136.168, 90.129 129.409 C 86.909 126.607, 87.762 124.604, 93.596 121.267 C 98.143 118.665, 109.891 114.558, 110.641 115.308 C 110.923 115.590, 109.554 118.835, 107.600 122.518 C 104.699 127.984, 104.244 129.588, 105.127 131.237 C 106.084 133.025, 106.915 133.197, 112.354 132.739 C 122.522 131.881, 140 127.829, 140 126.329 C 140 124.687, 141.452 124.557, 127 127.500 C 115.328 129.877, 107 130.679, 107 129.424 C 107 129.108, 108.800 125.767, 111 122 C 117.801 110.356, 120.905 101.196, 123.124 86.220 C 124.406 77.570, 124.975 69.868, 124.665 65.376 L 124.173 58.253 131.706 49.141 C 135.849 44.130, 139.578 40.239, 139.994 40.496 C 140.410 40.753, 141.369 44.684, 142.125 49.232 C 143.609 58.156, 144.058 97.874, 142.769 106.250 C 142.190 110.015, 142.330 111, 143.447 111 C 145.704 111, 146.512 101.623, 146.376 77 C 146.275 58.805, 145.883 52.829, 144.324 45.768 L 142.396 37.036 144.608 34.268 C 145.825 32.746, 147.079 31.756, 147.396 32.069 C 148.227 32.891, 149.940 67.376, 150.627 97.139 L 151.219 122.779 153.642 123.883 C 158.945 126.299, 163.322 126.281, 166.913 123.830 C 175.675 117.849, 177.185 108.219, 176.797 60.788 C 176.502 24.762, 176.483 24.473, 174.167 20.748 C 170.206 14.377, 163.855 14.462, 155.230 21.003 C 152.331 23.202, 149.801 25, 149.608 25 C 149.414 25, 148.961 23.156, 148.600 20.902 C 147.693 15.230, 145.358 9.979, 143.801 10.108 C 143.085 10.168, 131.250 11.524, 117.500 13.123 M 116.500 15.850 L 92.500 18.456 103.489 20.170 C 113.428 21.721, 114.920 21.740, 119.110 20.369 C 127.249 17.707, 134.799 21.597, 139.469 30.857 L 141.162 34.214 144.193 31.113 C 146.855 28.391, 147.142 27.554, 146.548 24.256 C 145.180 16.663, 143.713 12.998, 142.092 13.123 C 141.216 13.190, 129.700 14.417, 116.500 15.850 M 159 21.891 C 149.294 28.302, 149.829 27.147, 151.068 39.014 C 151.671 44.781, 152.478 65.354, 152.862 84.730 C 153.307 107.208, 153.942 120.342, 154.616 121.016 C 155.197 121.597, 157.313 122.339, 159.317 122.664 C 163.706 123.376, 167.228 121.394, 169.549 116.904 C 173.235 109.777, 173.927 101.605, 174.049 63.754 C 174.159 30.002, 174.019 26.702, 172.334 23.254 C 169.825 18.120, 165.395 17.667, 159 21.891 M 64 21.250 C 52.631 22.542, 53.730 22.912, 76.730 25.534 L 91.960 27.270 92.546 30.396 C 93.771 36.923, 90.026 41.320, 81.880 42.920 C 78.991 43.488, 78.386 43.818, 80.102 43.890 C 83.851 44.048, 89.183 47.972, 91.500 52.278 C 93.451 55.903, 93.641 55.995, 99.250 55.997 C 102.565 55.999, 105 55.560, 105 54.960 C 105 54.388, 104.075 52.107, 102.945 49.892 C 99.918 43.958, 99.246 36.491, 101.514 33.985 C 106.512 28.462, 115.826 35.641, 121.375 49.294 L 123.596 54.758 131.362 45.383 L 139.129 36.007 136.415 31.020 C 132.124 23.137, 125.832 20.372, 118.834 23.296 C 115.624 24.637, 113.995 24.602, 102.680 22.950 C 85.424 20.430, 75.183 19.980, 64 21.250 M 47.792 25.598 C 51.559 32.590, 68.261 40, 80.256 40 C 85.847 40, 90 36.842, 90 32.591 C 90 29.663, 90.961 29.895, 66.853 27.009 C 57.697 25.913, 49.432 24.719, 48.486 24.356 C 47.050 23.805, 46.936 24.010, 47.792 25.598 M 103 39.278 C 103 42.086, 104.169 45.996, 106.402 50.656 L 109.804 57.755 105.263 58.377 C 102.765 58.720, 99.434 59, 97.860 59 C 96.287 59, 95 59.464, 95 60.032 C 95 62.217, 97.955 68, 99.071 68 C 99.886 68, 99.934 68.383, 99.228 69.250 C 98.134 70.595, 100.942 79.211, 102.612 79.632 C 103.100 79.755, 107.494 74.888, 112.375 68.816 L 121.249 57.776 120.029 53.638 C 117.055 43.560, 110.347 35, 105.423 35 C 103.237 35, 103 35.418, 103 39.278 M 55.500 47.590 C 47.800 48.318, 40.375 49.222, 39 49.600 C 36.691 50.234, 36.834 50.388, 40.869 51.614 C 51.103 54.724, 90 57.465, 90 55.077 C 90 52.919, 84.586 47.979, 81.186 47.035 C 76.758 45.805, 73.694 45.871, 55.500 47.590 M 55.020 64.250 C 47.305 68.192, 44.560 74.785, 47.002 83.508 C 50.448 95.814, 65.156 103.736, 79.602 101.066 C 85.572 99.962, 89.560 97.128, 94.189 90.702 L 96.205 87.903 93.436 83.908 C 91.913 81.710, 90.319 79.697, 89.894 79.434 C 89.468 79.171, 87.145 80.349, 84.731 82.050 C 79.338 85.851, 73.098 86.955, 70.679 84.536 C 68.223 82.080, 68.612 77.615, 71.589 74.077 C 73.718 71.547, 74.918 71.001, 78.339 71.004 C 80.784 71.006, 83.903 71.863, 85.903 73.082 L 89.305 75.156 92.306 72.156 L 95.307 69.155 91.403 67.497 C 78.114 61.853, 62.449 60.454, 55.020 64.250 M 113.500 71.509 C 109.100 76.944, 105.158 81.946, 104.741 82.623 C 104.316 83.312, 104.894 85.401, 106.052 87.364 L 108.123 90.873 105.652 92.492 L 103.182 94.111 107.091 102.453 C 109.241 107.041, 111 111.291, 111 111.897 C 111 114.484, 112.903 112.653, 114.791 108.250 C 118.879 98.716, 122.572 76.896, 121.847 66.563 L 121.500 61.626 113.500 71.509 M 74.635 75.073 C 72.860 76.468, 72 78.101, 72 80.073 C 72 82.563, 72.391 83, 74.615 83 C 77.869 83, 87.154 78.059, 86.349 76.755 C 85.731 75.755, 79.728 73, 78.167 73 C 77.673 73, 76.084 73.933, 74.635 75.073 M 93.489 75.012 C 91.775 76.906, 91.813 77.122, 94.522 81.032 C 97.932 85.953, 98.837 86.588, 99.602 84.595 C 100.189 83.065, 97.344 74.331, 95.985 73.491 C 95.590 73.247, 94.467 73.931, 93.489 75.012 M 100.614 87.565 C 99.846 89.566, 100.658 91, 102.559 91 C 104.392 91, 104.428 88.600, 102.617 87.097 C 101.546 86.208, 101.094 86.314, 100.614 87.565 M 94.889 94.155 L 92.626 97.334 95.813 95.451 C 99.104 93.507, 99.670 92.532, 98.076 91.547 C 97.569 91.233, 96.134 92.407, 94.889 94.155 M 92.750 99.652 C 89.037 101.494, 86 103.427, 86 103.948 C 86 104.469, 82.287 108.128, 77.750 112.079 C 61.117 126.563, 51.510 127.684, 45.603 115.831 C 44.171 112.958, 43 110.021, 43 109.304 C 43 107.456, 41.017 107.692, 37.250 109.989 C 29.949 114.440, 32.149 116.401, 65.677 135.321 C 80.171 143.500, 81.522 144.935, 85.523 156.393 C 89.500 167.784, 94.655 177.695, 97.629 179.670 C 99.433 180.867, 100.018 180.773, 102.392 178.907 C 103.880 177.736, 107.835 172.706, 111.182 167.730 C 120.376 154.056, 127.534 147.714, 136.087 145.664 L 138.673 145.044 139.804 155.397 C 140.426 161.091, 141.871 168.254, 143.016 171.314 C 145.393 177.666, 150.696 183, 154.634 183 C 161.273 183, 169.369 175.386, 171.973 166.694 C 173.727 160.841, 173.408 152.708, 171.232 147.806 C 169.513 143.934, 162.129 135.999, 160.247 136.001 C 159.836 136.001, 156.147 136.701, 152.050 137.556 C 143.218 139.398, 118.941 139.663, 108.500 138.031 C 104.650 137.429, 98.751 136.036, 95.392 134.934 C 80.048 129.903, 82.100 122.197, 100.634 115.252 C 104.673 113.738, 107.983 112.133, 107.989 111.684 C 108.012 110.002, 101.097 96.006, 100.315 96.152 C 99.867 96.235, 96.463 97.811, 92.750 99.652" stroke="none" fill="black" fill-rule="evenodd"/>
</svg>