<svg xmlns="http://www.w3.org/2000/svg" width="200" height="200" viewBox="0 0 200 200" version="1.1">
	<path d="M 91.500 11.074 C 74.565 12.570, 57.529 15.305, 56.356 16.716 C 54.677 18.736, 55.733 21.398, 59.849 25.528 C 64.235 29.929, 70.759 33.887, 77.249 36.084 L 82.024 37.701 67.762 38.395 C 53.145 39.107, 37.166 40.527, 31.070 41.655 L 27.640 42.290 29.914 44.131 C 32.876 46.530, 45.875 50.605, 53.500 51.525 C 56.800 51.924, 59.852 52.454, 60.281 52.703 C 60.711 52.953, 59.586 54.151, 57.781 55.366 C 55.977 56.581, 53.600 59.003, 52.500 60.749 C 51.400 62.495, 49.885 63.940, 49.133 63.961 C 48.290 63.985, 47.957 64.727, 48.263 65.899 C 48.536 66.943, 48.139 70.191, 47.380 73.116 C 46.621 76.042, 46 79.203, 46 80.141 C 46 85.076, 56.804 92.256, 68.497 95.093 L 75.500 96.792 70 96.900 C 62.490 97.047, 47.761 99.521, 39.857 101.962 C 23.041 107.156, 29.296 114.157, 52.088 115.651 C 61.719 116.282, 62.123 116.401, 61.484 118.405 C 61.117 119.557, 60.578 123.095, 60.287 126.267 C 59.774 131.850, 59.870 132.141, 63.268 135.346 C 69.829 141.534, 80.050 143.571, 111.961 145.049 C 124.315 145.621, 134.622 146.288, 134.865 146.532 C 135.108 146.775, 133.550 147.767, 131.404 148.737 C 127.967 150.289, 124.073 150.500, 98.826 150.500 C 71.399 150.500, 70.031 150.590, 67.380 152.568 C 60.228 157.902, 63.835 167.605, 79.203 184.369 L 85.500 191.238 89.500 189.974 C 92.290 189.092, 102.728 188.647, 124 188.502 C 156.060 188.283, 163.862 187.469, 168.439 183.869 C 171.893 181.152, 171.731 177.446, 167.906 171.671 C 165.657 168.276, 164.159 167, 162.422 167 C 160.113 167, 160.186 166.771, 164.560 160.250 C 175.801 143.492, 173.254 133.247, 156.946 129.634 C 152.938 128.746, 141.423 127.980, 126.500 127.608 C 101.507 126.985, 95 126.399, 95 124.770 C 95 123.361, 100.633 118.324, 107.186 113.873 C 110.324 111.743, 113.062 110, 113.272 110 C 113.482 110, 113.467 111.269, 113.240 112.820 C 112.687 116.583, 116.936 121.610, 121.814 122.965 C 134.432 126.470, 153.698 121.144, 163.362 111.480 C 172.349 102.494, 173.388 91.445, 166.533 77.760 L 162.821 70.351 165.849 65.577 C 174.658 51.687, 171.829 30.471, 159.674 19.267 C 152.872 12.997, 145.154 12.371, 137.629 17.477 C 133.788 20.084, 131.808 19.389, 134.956 16.540 C 137.539 14.202, 136.543 12.245, 132.151 11.025 C 127.979 9.866, 104.854 9.894, 91.500 11.074 M 86 14.542 C 79.675 15.261, 73.825 15.899, 73 15.961 C 72.175 16.022, 73.958 16.956, 76.962 18.036 C 81.545 19.684, 85.044 20, 98.712 20 C 107.691 20, 115 20.404, 115 20.900 C 115 21.394, 113.484 24.052, 111.630 26.806 L 108.261 31.814 112.130 33.559 C 114.259 34.519, 116 35.610, 116 35.985 C 116 37.761, 114.442 37.703, 110.485 35.781 C 106.475 33.832, 105.948 33.794, 102.839 35.222 C 101.002 36.066, 98.825 37.001, 98 37.300 C 97.175 37.598, 97.895 37.878, 99.601 37.921 C 104.124 38.036, 109 39.973, 109 41.654 C 109 43.422, 102.559 46.353, 94.750 48.139 C 91.588 48.863, 89 49.868, 89 50.374 C 89 51.446, 101.709 50.539, 110.309 48.855 L 116.118 47.717 119.676 40.608 C 121.632 36.699, 125.143 30.800, 127.477 27.500 C 131.136 22.328, 131.575 21.176, 130.663 19.150 C 129.797 17.226, 129.935 16.616, 131.423 15.783 C 132.894 14.960, 132.980 14.601, 131.870 13.898 C 129.836 12.610, 99.217 13.040, 86 14.542 M 139.385 19.427 L 135.270 21.952 138.035 29.766 C 144.324 47.538, 147.722 71.643, 145.949 85.907 C 143.680 104.169, 136.655 112, 122.540 112 C 116.710 112, 116 112.213, 116 113.961 C 116 116.694, 119.698 119.853, 123.799 120.622 C 129.463 121.685, 142.115 120.326, 148.081 118.014 C 161.180 112.939, 168 104.505, 168 93.384 C 168 87.922, 167.428 85.969, 163.709 78.742 L 159.417 70.402 162.218 66.540 C 171.852 53.253, 169.011 29.601, 156.615 19.900 C 152.176 16.426, 144.612 16.218, 139.385 19.427 M 61.083 18.365 C 61.313 18.565, 63.975 18.999, 67 19.329 C 70.592 19.721, 71.806 19.619, 70.500 19.035 C 68.607 18.188, 60.198 17.590, 61.083 18.365 M 60.309 22.428 C 61.021 24.563, 73.294 32.031, 78.791 33.674 C 85.724 35.746, 94.357 35.934, 98.750 34.108 C 100.537 33.365, 102 32.469, 102 32.118 C 102 31.766, 97.706 29.570, 92.457 27.239 C 85.794 24.279, 81.495 22.985, 78.207 22.949 C 75.618 22.920, 70.454 22.559, 66.732 22.145 C 62.191 21.640, 60.078 21.733, 60.309 22.428 M 97.860 26.556 C 101.908 28.440, 105.600 29.747, 106.064 29.461 C 106.527 29.174, 107.858 27.603, 109.022 25.970 L 111.136 23 100.818 23.065 L 90.500 23.130 97.860 26.556 M 131.495 26.323 C 126.022 33.602, 124.176 37.309, 125.204 38.954 C 126.920 41.703, 125.319 45.640, 121.533 47.979 C 118.870 49.626, 117.673 51.360, 116.387 55.441 L 114.711 60.758 117.738 64.629 C 121.533 69.481, 122.214 72.503, 120.570 77.191 L 119.276 80.882 124.872 84.191 C 134.405 89.828, 134.478 95.488, 125.106 102.270 C 121.891 104.596, 118.415 107.036, 117.380 107.691 C 114.431 109.559, 128.304 109.411, 131.931 107.536 C 136.252 105.301, 139.799 100.466, 141.725 94.183 C 144.245 85.963, 143.980 65.756, 141.179 52.522 C 138.818 41.371, 134.005 25, 133.087 25 C 132.759 25, 132.042 25.595, 131.495 26.323 M 80.295 40.713 C 65.298 41.076, 36.973 43.234, 36.468 44.052 C 35.802 45.129, 51.618 48.717, 62.500 49.958 C 74.870 51.368, 80.996 51.299, 81.016 49.750 C 81.025 48.990, 85.403 47.437, 92.174 45.792 C 98.302 44.303, 103.749 42.651, 104.278 42.122 C 105.370 41.030, 94.229 40.376, 80.295 40.713 M 121.600 42.600 C 121.244 43.527, 121.178 44.511, 121.453 44.786 C 121.728 45.061, 122.244 44.527, 122.600 43.600 C 122.956 42.673, 123.022 41.689, 122.747 41.414 C 122.472 41.139, 121.956 41.673, 121.600 42.600 M 105.341 52.322 L 99.182 53.326 105.256 56.198 C 108.596 57.778, 111.644 58.717, 112.028 58.285 C 112.413 57.853, 113.215 56.038, 113.811 54.250 C 115.047 50.547, 115.541 50.659, 105.341 52.322 M 80.154 57.924 C 85.133 61.489, 89.680 66.903, 91.239 71.122 C 91.607 72.117, 94.669 73.512, 99.169 74.735 L 106.500 76.726 108.274 71.113 C 109.249 68.026, 110.286 64.734, 110.576 63.797 C 110.962 62.555, 109.955 61.507, 106.851 59.924 C 98.368 55.596, 91.990 54, 83.181 54 L 74.674 54 80.154 57.924 M 61.450 56.407 C 59.773 57.137, 57.139 59.235, 55.596 61.068 L 52.791 64.401 68.536 67.678 C 77.196 69.480, 85.118 71.220, 86.140 71.545 C 88.640 72.338, 88.482 71.174, 85.494 66.776 C 82.444 62.287, 75.853 57.608, 70.481 56.116 C 65.568 54.752, 65.223 54.764, 61.450 56.407 M 111.635 69.805 C 109.487 77.459, 109.513 77.634, 112.939 78.829 C 116.264 79.988, 117.419 79.162, 118.501 74.852 C 119.191 72.103, 117.324 67.343, 114.701 65.167 C 113.508 64.176, 112.998 64.948, 111.635 69.805 M 58.487 68.979 C 58.748 69.401, 62.907 71.468, 67.730 73.573 C 74.529 76.540, 77.827 77.411, 82.406 77.450 C 88.228 77.499, 91.136 75.808, 87.305 74.601 C 82.418 73.060, 58.074 68.311, 58.487 68.979 M 49.890 74.600 C 49.032 78.436, 48.954 80.721, 49.644 81.850 C 51.396 84.722, 60.045 89.957, 65.799 91.630 C 76.399 94.711, 101.461 91.805, 103.865 87.216 C 104.359 86.272, 105.056 84.135, 105.413 82.468 C 106.060 79.451, 106.030 79.426, 99.459 77.675 L 92.854 75.915 90.855 78.458 C 87.134 83.188, 76.497 81.294, 59.891 72.945 C 55.575 70.775, 51.842 69, 51.594 69 C 51.346 69, 50.579 71.520, 49.890 74.600 M 108.374 82.467 C 107.330 85.189, 108.423 86.092, 110.772 84.447 C 112.016 83.576, 112.774 82.444, 112.458 81.932 C 111.569 80.493, 109.003 80.830, 108.374 82.467 M 114.631 84.856 C 113.707 85.876, 111.387 87.554, 109.476 88.583 C 107.564 89.613, 106 91.005, 106 91.678 C 106 92.351, 105.519 95.143, 104.932 97.882 L 103.864 102.863 99.682 101.267 C 94.391 99.248, 68.027 98.998, 57 100.862 C 47.056 102.543, 35.266 105.975, 33.937 107.575 C 31.799 110.153, 39.738 112.104, 58.250 113.552 C 63.063 113.929, 67 114.354, 67 114.497 C 67 114.641, 65.822 117.331, 64.383 120.475 C 61.165 127.505, 61.854 131.311, 66.969 134.758 C 74.204 139.634, 86.302 141.485, 117.500 142.490 C 127.950 142.827, 137.574 143.329, 138.886 143.605 L 141.272 144.106 138.475 147.026 C 132.939 152.804, 128.565 153.500, 97.782 153.500 C 70.556 153.500, 70.025 153.539, 67.859 155.701 C 65.839 157.717, 65.755 158.240, 66.863 161.937 C 68.137 166.190, 77.511 179.283, 83.161 184.702 C 86.288 187.701, 86.754 187.842, 90.500 186.928 C 92.700 186.392, 106.503 185.966, 121.172 185.984 C 164.419 186.034, 172.365 183.799, 165.934 173.394 C 163.425 169.333, 164.063 169.327, 150.500 173.536 C 142.623 175.980, 139.815 176.339, 128 176.414 C 116.099 176.490, 114.085 176.257, 111 174.449 C 104.336 170.545, 106.353 165.074, 115.244 162.941 C 121.357 161.475, 141.453 162.269, 150.702 164.342 C 157.853 165.945, 158.207 165.733, 163.832 156.486 C 170.332 145.799, 170.329 138.995, 163.822 135.038 C 158.370 131.722, 151.491 130.876, 123.500 130.078 C 103.702 129.513, 95.591 128.924, 93.093 127.869 L 89.687 126.430 95.093 120.629 C 98.517 116.956, 105.235 111.833, 113.408 106.664 C 120.507 102.174, 127.213 97.288, 128.310 95.807 C 130.198 93.260, 130.215 92.977, 128.635 90.565 C 127.323 88.563, 118.538 83, 116.688 83 C 116.480 83, 115.554 83.835, 114.631 84.856 M 95.500 93.716 C 86.047 96.115, 84.785 96.854, 90.007 96.932 C 92.485 96.970, 96.055 97.442, 97.940 97.983 C 101.967 99.138, 101.803 99.236, 102.615 95.177 C 103.330 91.598, 103.616 91.656, 95.500 93.716 M 119.975 165.094 C 109.878 166.180, 106.903 169.803, 113.750 172.675 C 120.854 175.654, 142.627 174.014, 153.191 169.704 L 156.492 168.357 150.010 167.082 C 141.135 165.336, 126.645 164.377, 119.975 165.094" stroke="none" fill="black" fill-rule="evenodd"/>
</svg>