<svg xmlns="http://www.w3.org/2000/svg" width="200" height="200" viewBox="0 0 200 200" version="1.1">
	<path d="M 95 5.500 C 95 11.712, 95.253 11.593, 86.500 9.480 C 74.519 6.587, 65 8.155, 65 13.022 C 65 17.828, 76.780 26.292, 88.528 29.927 C 93.610 31.499, 93.603 31.500, 77.056 31.500 C 62.655 31.500, 59.565 31.794, 53.317 33.759 C 49.366 35.001, 44.753 37.178, 43.067 38.597 C 33.995 46.231, 45.211 50.341, 68.412 47.885 C 79.268 46.736, 98.693 46.344, 99.583 47.256 C 99.714 47.390, 100.149 49.253, 100.549 51.395 C 101.050 54.077, 100.943 55.083, 100.203 54.625 C 97.912 53.210, 85.212 52.296, 79.233 53.117 C 62.504 55.413, 56.527 65.337, 63.406 79.398 C 64.941 82.535, 68.403 87.307, 71.098 90.003 C 76.406 95.311, 76.942 96.875, 74.250 99.203 C 71.285 101.768, 66.127 102.989, 49.506 105.065 C 31.319 107.336, 23.465 109.263, 22.114 111.787 C 20.354 115.075, 24.336 119.649, 32.500 123.719 C 35.941 125.435, 37.477 125.601, 43.500 124.908 C 47.350 124.465, 52.075 124.131, 54 124.166 L 57.500 124.230 53.673 124.970 C 48.398 125.990, 45.624 128.882, 46.844 132.090 C 47.772 134.529, 53.507 140.217, 59.902 145.039 L 63.269 147.579 59.223 147.193 C 54.305 146.724, 45.267 149.215, 41.695 152.025 C 35.380 156.993, 37.581 165.572, 47.565 174.912 C 61.703 188.138, 81.531 194.632, 90.701 189.040 C 95.717 185.982, 97.320 181.881, 96.781 173.483 C 96.528 169.548, 96.015 165.833, 95.640 165.227 C 95.179 164.481, 92.946 165.061, 88.729 167.024 C 85.303 168.618, 80.588 170.223, 78.250 170.589 C 74.195 171.225, 74 171.140, 74 168.727 C 74 162.469, 90.861 145.867, 98.712 144.394 C 104.926 143.229, 106.345 147.970, 103.844 161.542 C 100.913 177.448, 111.773 189, 129.657 189 C 142.107 189, 155.221 182.452, 160.990 173.354 C 166.887 164.056, 166.863 155.776, 160.900 141.570 C 157.782 134.141, 154.345 130.017, 146.500 124.291 L 143.500 122.101 152.084 122.687 C 159.267 123.178, 161.715 122.922, 167.084 121.120 C 181.043 116.435, 185.729 111.434, 178.822 108.591 C 176.995 107.838, 168.388 105.824, 159.696 104.115 C 129.221 98.122, 124.711 92.669, 139.309 79.459 C 142.626 76.456, 145.714 74, 146.170 74 C 146.627 74, 147 73.595, 147 73.100 C 147 72.605, 144.637 71.649, 141.750 70.976 C 131.697 68.634, 121.014 63.933, 116.942 60.060 C 112.660 55.986, 112.247 54.357, 114.427 50.140 C 115.836 47.417, 116.051 47.363, 130.390 46.145 C 151.328 44.366, 161 41.487, 161 37.034 C 161 34.452, 157.897 32.443, 150.048 29.943 C 146.447 28.795, 137.824 25.783, 130.886 23.248 L 118.272 18.639 113.643 9.319 C 110.707 3.409, 108.432 0, 107.423 0 C 106.549 0, 105.987 0.337, 106.175 0.750 C 106.363 1.163, 108.229 4.809, 110.322 8.852 C 112.416 12.896, 113.968 16.365, 113.772 16.561 C 113.576 16.757, 110.060 15.859, 105.958 14.566 L 98.500 12.215 97.574 6.107 C 96.423 -1.493, 95 -1.828, 95 5.500 M 68 12.896 C 68 15.271, 73.601 20.258, 79.787 23.390 C 84.061 25.555, 94.137 29, 96.193 29 C 96.949 29, 96.769 26.288, 95.416 17.323 C 94.960 14.299, 94.603 14.070, 88.021 12.573 C 84.217 11.708, 78.157 11, 74.553 11 C 68.786 11, 68 11.227, 68 12.896 M 98.504 19.758 C 98.848 22.366, 99.372 25.790, 99.670 27.367 L 100.210 30.235 109.079 29.811 C 113.956 29.577, 118.225 29.108, 118.565 28.768 C 118.905 28.428, 118.605 26.549, 117.897 24.592 C 116.560 20.894, 116.633 20.930, 99.190 15.430 C 98.179 15.111, 98.022 16.098, 98.504 19.758 M 120 22.564 C 120 22.859, 120.693 24.440, 121.541 26.079 C 122.388 27.718, 122.768 29.567, 122.384 30.187 C 121.887 30.992, 123.093 31.161, 126.593 30.777 C 135.525 29.798, 136.526 32.190, 129.250 37.126 C 126.638 38.899, 123.375 41.230, 122 42.306 L 119.500 44.264 128.500 43.597 C 140.537 42.706, 154.445 40.145, 156.684 38.408 C 158.430 37.055, 158.422 36.940, 156.500 35.456 C 155.400 34.607, 152.025 33.236, 149 32.411 C 143.915 31.023, 136.634 28.457, 124.750 23.865 C 122.138 22.855, 120 22.270, 120 22.564 M 107.523 32.747 C 103.014 32.976, 101.046 33.410, 101.959 33.975 C 103.065 34.658, 103.113 35.159, 102.182 36.281 C 101.474 37.133, 101.247 38.986, 101.621 40.857 C 102.249 43.996, 102.258 44, 108.783 44 C 114.811 44, 115.708 43.703, 120.408 40.154 C 123.208 38.039, 126.625 35.550, 128 34.624 C 130.450 32.972, 130.389 32.952, 124.884 33.591 C 121.155 34.025, 119.036 33.867, 118.575 33.122 C 118.194 32.505, 117.121 32.088, 116.191 32.196 C 115.261 32.304, 111.360 32.551, 107.523 32.747 M 65.500 34.030 C 54.363 35.439, 43 40.023, 43 43.108 C 43 44.542, 50.353 45.989, 57.500 45.962 C 61.350 45.947, 69.345 45.327, 75.267 44.584 C 81.189 43.841, 88.951 43.467, 92.517 43.753 C 98.576 44.240, 99 44.138, 99 42.202 C 99 37.157, 97.358 35.304, 92.328 34.671 C 82.342 33.414, 72.273 33.174, 65.500 34.030 M 103.395 51.250 C 103.762 53.647, 104.788 55.936, 105.749 56.500 C 106.685 57.050, 108.925 58.917, 110.726 60.650 C 114.781 64.551, 114.986 68.268, 111.436 73.500 C 108.538 77.770, 108.692 81.542, 112.122 90.287 C 113.155 92.920, 114 96.857, 114 99.037 C 114 103.919, 114.549 104.437, 128.408 112.622 L 139.316 119.065 149.972 119.675 C 158.675 120.173, 161.624 119.958, 166.064 118.505 C 172.809 116.297, 179 113.237, 179 112.110 C 179 111.039, 173.847 109.678, 157.798 106.513 C 138.104 102.629, 129.984 98.770, 128.424 92.555 C 127.555 89.089, 130.443 83.794, 136.082 78.521 C 139.017 75.775, 140.488 73.753, 139.743 73.487 C 139.060 73.242, 135.245 71.955, 131.267 70.626 C 114.912 65.163, 108.198 58.191, 111.570 50.170 L 112.903 47 107.824 47 L 102.744 47 103.395 51.250 M 77.326 56.044 C 67.611 57.965, 63.479 61.980, 63.549 69.427 C 63.608 75.610, 66.841 81.799, 73.590 88.644 C 79.199 94.333, 80.021 97.284, 76.919 100.587 C 73.793 103.914, 67.520 105.557, 48.500 108.029 C 31.135 110.286, 25.436 111.485, 24.444 113.090 C 23.526 114.575, 26.317 117.311, 31.772 120.274 L 36.500 122.842 50.500 121.435 C 58.200 120.662, 75.862 119.727, 89.750 119.358 C 110.414 118.809, 115 118.433, 115 117.286 C 115 114.765, 112.774 106.978, 111.898 106.437 C 111.428 106.146, 109.733 106.877, 108.133 108.060 L 105.223 110.211 97.861 105.231 C 89.442 99.535, 86.499 96.620, 87.511 94.982 C 88.434 93.489, 91.537 94.291, 101.804 98.678 C 106.371 100.629, 110.349 101.985, 110.643 101.690 C 111.664 100.670, 108.701 89.478, 106.271 85.176 C 104.458 81.966, 103.400 81.019, 102.164 81.500 C 101.249 81.856, 100.220 82.227, 99.878 82.324 C 98.646 82.672, 87 67.873, 87 65.959 C 87 62.201, 90.968 63.870, 97.739 70.478 C 101.391 74.040, 104.591 76.743, 104.850 76.483 C 105.402 75.931, 103.117 62.493, 101.940 59.365 C 100.630 55.882, 87.266 54.079, 77.326 56.044 M 105.313 61.372 C 105.602 62.127, 106.152 64.832, 106.535 67.384 C 107.333 72.705, 108.443 73.910, 109.950 71.094 C 111.649 67.919, 111.164 64.503, 108.686 62.174 C 106.057 59.705, 104.534 59.343, 105.313 61.372 M 92.843 70.500 C 97.024 76.379, 99.922 79.411, 100.658 78.675 C 101.069 78.265, 98.998 75.582, 96.057 72.714 C 92.862 69.599, 91.568 68.708, 92.843 70.500 M 93.500 98.795 C 94.050 99.310, 96.947 101.352, 99.937 103.333 C 104.198 106.154, 105.675 106.685, 106.761 105.783 C 107.906 104.833, 107.723 104.411, 105.707 103.355 C 101.677 101.243, 92.425 97.787, 93.500 98.795 M 116.627 111.750 C 118.388 119.024, 118.357 119, 125.975 119 C 129.839 119, 133 118.814, 133 118.588 C 133 118.103, 117.360 109, 116.528 109 C 116.216 109, 116.261 110.237, 116.627 111.750 M 81 122.119 C 56.938 123.246, 56.597 123.354, 72.655 124.769 C 80.440 125.456, 92.140 127.083, 98.655 128.385 C 105.170 129.687, 112.451 131.045, 114.835 131.402 L 119.170 132.051 118.458 128.775 C 116.727 120.819, 116.969 120.984, 107.275 121.150 C 102.449 121.232, 90.625 121.669, 81 122.119 M 120.404 125.127 C 121.451 131.673, 122.359 132.646, 128.054 133.320 C 140.197 134.758, 142.570 139.111, 141.135 157.310 C 139.354 179.909, 133.670 176.593, 124.081 147.360 C 120.509 136.471, 119.957 135.442, 117.345 134.793 C 109.583 132.866, 86.414 128.870, 78 128.008 C 60.615 126.227, 49 127.219, 49 130.485 C 49 131.706, 55.141 137.593, 64.468 145.314 C 68.751 148.860, 66.873 150.820, 59.758 150.230 C 53.525 149.713, 47.285 151.201, 43.631 154.076 C 32.303 162.986, 60.668 188, 82.100 188 C 87.458 188, 88.490 187.664, 91.077 185.077 C 93.765 182.389, 94 181.577, 94 174.970 C 94 168.501, 93.826 167.863, 92.250 168.557 C 85.395 171.576, 76.683 173.959, 74.500 173.411 C 68.223 171.835, 71.240 163.168, 81.710 152.698 C 88.382 146.025, 96.443 141, 100.474 141 C 103.877 141, 106.873 143.806, 107.599 147.674 C 107.972 149.663, 107.693 155.047, 106.978 159.639 C 105.373 169.960, 106.524 174.759, 111.894 180.129 C 116.590 184.825, 122.141 186.348, 132.500 185.780 C 138.601 185.445, 141.737 184.708, 145.713 182.673 C 162.118 174.274, 166.381 162.059, 159.128 144.237 C 156.430 137.608, 154.750 135.059, 150.632 131.346 C 141.632 123.231, 139.559 122.293, 129.122 121.614 L 119.745 121.004 120.404 125.127 M 123.516 136.414 C 129.457 156.152, 135.533 170.374, 137.006 167.991 C 137.455 167.263, 138.128 161.680, 138.500 155.584 C 139.459 139.874, 138.300 137.717, 128.028 136.093 C 124.692 135.566, 123.290 135.666, 123.516 136.414" stroke="none" fill="black" fill-rule="evenodd"/>
</svg>