<svg xmlns="http://www.w3.org/2000/svg" width="200" height="200" viewBox="0 0 200 200" version="1.1">
	<path d="M 177.255 5.250 C 174.493 8.736, 168.055 35.215, 161.046 71.916 C 158.271 86.445, 155.826 98.507, 155.613 98.720 C 155.400 98.933, 153.712 98.185, 151.863 97.058 C 145.607 93.244, 139 95.365, 139 101.187 C 139 102.146, 138.140 103.390, 137.089 103.953 C 135.497 104.804, 133.584 103.784, 125.647 97.853 L 116.116 90.730 121.876 83.115 C 129.537 72.988, 129.286 73.610, 127.449 69.294 C 112.312 33.732, 116.369 14.305, 134.736 34.401 C 142.442 42.833, 148.931 58.249, 148.985 68.250 C 148.995 70.021, 149.534 71, 150.500 71 C 152.414 71, 152.394 68.671, 150.403 59.697 C 148.185 49.704, 142.944 39.194, 136.857 32.534 C 130.913 26.030, 127.515 24, 122.573 24 C 113.049 24, 112.802 38.336, 121.910 62.505 L 126.001 73.361 120.385 80.693 C 117.297 84.725, 114.397 88.255, 113.942 88.536 C 112.517 89.416, 102.179 82.147, 101.469 79.766 C 101.097 78.519, 99.690 74.994, 98.342 71.932 L 95.890 66.364 99.445 61.082 C 101.400 58.176, 103 55.245, 103 54.568 C 103 53.892, 104.118 52.740, 105.483 52.009 C 112.120 48.457, 108.950 43.360, 95.924 36.635 C 87.176 32.118, 86.521 31.571, 86.799 28.996 C 87.367 23.730, 79.128 20.100, 66.201 19.921 C 63.065 19.878, 60.950 19.664, 61.500 19.447 C 63.051 18.834, 113.156 12.223, 125.660 10.982 C 137.575 9.799, 143.566 10.567, 146.083 13.601 C 146.944 14.638, 147.679 20.262, 148.206 29.843 C 148.949 43.334, 150.362 54.695, 151.430 55.763 C 151.670 56.003, 152.290 55.939, 152.808 55.619 C 153.387 55.261, 153.403 53.206, 152.849 50.269 C 152.354 47.646, 151.566 38.711, 151.097 30.413 C 150.628 22.115, 149.726 14.357, 149.093 13.173 C 148.459 11.989, 146.509 10.280, 144.759 9.375 C 140.197 7.016, 122.769 7.987, 91 12.369 C 69.504 15.334, 40.748 18.990, 18.250 21.617 C 14.501 22.055, 13 22.663, 13 23.743 C 13 24.926, 13.816 25.131, 16.750 24.681 C 18.813 24.366, 25 23.842, 30.500 23.519 C 36 23.195, 42.210 22.712, 44.299 22.445 L 48.098 21.961 47.468 25.319 C 46.672 29.561, 48.965 35.276, 52.354 37.496 C 53.740 38.405, 57.040 39.462, 59.687 39.846 L 64.500 40.543 57.693 41.807 C 43.866 44.374, 34 49.682, 34 54.554 C 34 58.406, 37.063 59.246, 49.658 58.846 C 58.816 58.555, 60.709 58.722, 59.279 59.695 C 47.019 68.044, 43.925 74.283, 46.088 86.294 C 46.703 89.707, 47.432 95.242, 47.709 98.594 C 48.179 104.278, 48.035 104.827, 45.566 106.769 C 42.319 109.323, 34.945 110.990, 26.701 111.032 C 20.867 111.062, 20.619 111.157, 22.500 112.646 C 38.637 125.411, 79.736 124.790, 125.364 111.091 L 134.694 108.290 143.097 115.345 L 151.500 122.400 151.182 126.950 C 150.787 132.615, 150.076 133.362, 146.413 131.959 C 144.811 131.345, 136.525 129.987, 128 128.941 C 119.475 127.896, 108 126.295, 102.500 125.384 C 95.092 124.157, 89.519 123.891, 81 124.358 C 67.593 125.093, 62.626 126.268, 60.581 129.188 C 58.287 132.463, 60.668 135.829, 69.689 142.068 C 75.398 146.016, 76.996 147.567, 75.627 147.832 C 73.776 148.190, 59.162 146.383, 55.722 145.371 C 54.318 144.958, 53.273 146.286, 50.762 151.674 C 48.031 157.531, 47.574 159.646, 47.540 166.574 C 47.504 173.854, 47.768 175.001, 50.223 178.222 C 55.950 185.738, 69.275 189.172, 85.269 187.254 C 101.703 185.283, 114 180.274, 114 175.550 C 114 172.089, 111.456 171.032, 99.842 169.668 L 89.849 168.494 97.674 160.893 C 106.286 152.528, 110.771 149.720, 114.767 150.190 C 119.921 150.796, 123.227 160.092, 125 178.955 C 125.592 185.255, 126.190 190.523, 126.330 190.663 C 127.384 191.717, 139.491 194, 144.029 194 C 159.958 194, 171.153 185.183, 176.162 168.693 C 178.858 159.816, 178.376 147.315, 174.999 138.551 C 172.302 131.549, 165.742 124.089, 160.009 121.504 C 155.504 119.473, 155.159 118.020, 157.067 109.123 L 158.134 104.147 161.567 106.172 C 166.673 109.185, 171.730 109.015, 174.550 105.737 C 178.263 101.420, 179.349 93.466, 178.612 75.970 C 178.152 65.055, 178.413 55.693, 179.489 44.470 C 181.064 28.043, 181.612 6.799, 180.506 5.010 C 179.665 3.649, 178.452 3.738, 177.255 5.250 M 176.535 14.250 C 172.363 28.657, 159 93.719, 159 99.627 C 159 101.237, 160.192 102.399, 163.477 103.989 C 168.880 106.605, 170.639 106.371, 173.394 102.673 C 175.389 99.995, 175.505 98.602, 175.596 76.173 C 175.648 63.153, 176.190 47.775, 176.799 42 C 178.342 27.386, 179.377 9, 178.657 9 C 178.326 9, 177.372 11.362, 176.535 14.250 M 70 26.058 C 84.276 31.069, 83.388 30.925, 83.790 28.296 C 84.080 26.400, 83.385 25.886, 78.813 24.613 C 75.891 23.799, 70.125 22.883, 66 22.577 L 58.500 22.021 70 26.058 M 50.698 23.636 C 49.123 25.211, 50.086 30.988, 52.365 33.638 C 54.397 36, 55.649 36.447, 61.237 36.802 C 67.529 37.203, 78.227 35.061, 79.398 33.165 C 79.673 32.721, 73.958 30.411, 66.699 28.033 C 59.439 25.654, 53.026 23.535, 52.448 23.323 C 51.869 23.111, 51.082 23.252, 50.698 23.636 M 81.426 34.974 C 80.890 35.510, 78.676 36.563, 76.507 37.314 L 72.561 38.680 82.302 39.261 C 93.897 39.953, 100.650 42.611, 102.367 47.161 C 103.557 50.315, 104.759 50.791, 105.653 48.463 C 106.605 45.980, 103.116 43.101, 93.463 38.405 C 83.802 33.705, 82.940 33.460, 81.426 34.974 M 63.450 43.461 C 50.059 45.894, 41.062 49.081, 37.484 52.659 C 36.006 54.136, 35.973 54.507, 37.237 55.432 C 39.360 56.986, 67.955 55.585, 75.843 53.541 C 80.599 52.308, 82.514 52.181, 83.537 53.031 C 84.552 53.873, 86.832 53.850, 92.478 52.939 C 96.647 52.267, 100.242 51.418, 100.468 51.052 C 100.693 50.687, 100.336 49.288, 99.673 47.944 C 97.009 42.542, 80.059 40.444, 63.450 43.461 M 93.774 55.450 L 88.049 56.500 90.597 59.750 C 91.998 61.538, 93.556 63, 94.058 63 C 95.042 63, 100.554 55.144, 99.896 54.680 C 99.678 54.526, 96.923 54.873, 93.774 55.450 M 72.479 57.988 C 63.126 59.363, 53.306 65.671, 50.050 72.396 C 47.563 77.535, 47.518 79.816, 49.686 91.124 C 51.800 102.148, 50.980 106.438, 46.138 109.692 C 44.289 110.935, 41.139 112.213, 39.138 112.533 C 30.207 113.962, 30.076 114.148, 36.500 116.281 C 48.544 120.279, 74.711 119.704, 98.500 114.917 C 111.352 112.331, 131 106.876, 131 105.895 C 131 105.477, 127.344 102.414, 122.875 99.087 L 114.750 93.039 110.043 98.052 C 103.059 105.491, 102.336 104.821, 100.434 89.147 L 99.784 83.794 93.142 80.683 C 87.517 78.049, 85.524 77.616, 80.127 77.857 C 72.899 78.179, 67.748 76.559, 68.212 74.110 C 68.595 72.087, 75.351 71.451, 80.715 72.932 C 84.346 73.934, 84.650 73.821, 88.420 70.051 L 92.344 66.126 88.605 61.563 C 84.520 56.578, 83.542 56.361, 72.479 57.988 M 90.510 71.990 C 88.935 73.634, 87.838 75.105, 88.073 75.260 C 88.308 75.414, 90.638 76.538, 93.250 77.757 C 96.481 79.265, 97.993 79.579, 97.978 78.737 C 97.954 77.366, 94.309 69, 93.736 69 C 93.537 69, 92.085 70.345, 90.510 71.990 M 103.569 92.129 C 103.952 95.633, 104.466 98.723, 104.712 98.997 C 104.959 99.270, 106.745 97.763, 108.683 95.649 C 112.460 91.528, 112.448 91.485, 106.687 88.039 L 102.873 85.759 103.569 92.129 M 142.585 99.182 C 141.713 100.427, 141 102.308, 141 103.362 C 141 104.417, 140.303 105.789, 139.452 106.411 C 138.142 107.369, 138.922 108.388, 144.512 113.022 C 148.146 116.035, 151.474 118.627, 151.908 118.783 C 152.613 119.036, 155 107.346, 155 103.639 C 155 102.118, 150.159 98.730, 146.335 97.574 C 144.751 97.095, 143.745 97.527, 142.585 99.182 M 154.672 124.281 C 153.203 130.445, 152.952 135.758, 154 138.500 C 157.579 147.861, 151.902 175.235, 147.330 170.663 C 146.387 169.720, 146.952 157.264, 148.403 147 C 149.201 141.357, 149.384 137.043, 148.854 136.375 C 147.464 134.622, 140.642 133.119, 126.500 131.452 C 119.350 130.609, 109 129.208, 103.500 128.339 C 88.915 126.032, 62 127.540, 62 130.664 C 62 132.610, 65.115 135.691, 71.309 139.871 C 79.632 145.487, 81.457 147.367, 80.643 149.487 C 79.921 151.369, 74.550 151.397, 63.500 149.575 C 54.486 148.090, 55.036 147.793, 52.005 155.788 C 49.374 162.726, 49.353 171.426, 51.956 175.696 C 54.450 179.786, 57.077 181.435, 64.480 183.559 C 75.048 186.592, 96.766 184.221, 107.207 178.894 C 115.004 174.917, 111.651 173.107, 94.666 172.126 L 83.833 171.500 91.440 163.318 C 108.201 145.290, 116.786 142.704, 122.477 153.969 C 125.314 159.585, 126.826 166.729, 127.771 178.978 L 128.500 188.440 132.500 189.643 C 138.195 191.356, 149.971 191.274, 155.037 189.487 C 161.866 187.078, 167.497 181.768, 171.200 174.245 C 174.379 167.789, 174.500 167.100, 174.500 155.521 C 174.500 144.683, 174.246 142.958, 171.917 137.994 C 168.950 131.669, 164.421 126.766, 158.985 123.992 L 155.201 122.062 154.672 124.281 M 151.722 144.283 C 151.433 145.035, 150.904 148.767, 150.547 152.576 C 150.190 156.384, 149.714 160.625, 149.490 162 C 149.126 164.232, 149.230 164.178, 150.463 161.500 C 151.222 159.850, 152.158 155.217, 152.543 151.205 C 153.210 144.260, 152.860 141.315, 151.722 144.283" stroke="none" fill="black" fill-rule="evenodd"/>
</svg>