<svg xmlns="http://www.w3.org/2000/svg" width="200" height="200" viewBox="0 0 200 200" version="1.1">
	<path d="M 133.500 10.949 C 121.464 12.920, 86.804 17.143, 67.564 18.983 C 53.755 20.303, 46.356 21.413, 45.829 22.242 C 41.515 29.038, 51.993 39.629, 65.869 42.496 C 71.058 43.569, 70.577 43.665, 51.495 45.361 C 30.264 47.249, 27 48.223, 27 52.671 C 27 54.582, 27.924 55.521, 31.253 56.994 C 34.709 58.523, 50.521 60.918, 57.856 61.024 C 58.760 61.037, 56.904 62.115, 53.730 63.420 C 45.516 66.798, 41.462 70.223, 39.453 75.483 C 37.102 81.640, 37.957 86.717, 43.483 99.408 C 50.577 115.701, 49.793 117.602, 36.091 117.329 C 31.366 117.235, 25.303 116.657, 22.617 116.045 C 19.932 115.433, 17.520 115.147, 17.257 115.409 C 16.995 115.672, 19.074 118.313, 21.879 121.279 C 31.139 131.070, 41.114 134.677, 56.222 133.699 C 61.119 133.381, 64.985 133.454, 64.813 133.861 C 64.641 134.268, 62.734 137.987, 60.576 142.127 C 55.974 150.956, 56.146 153.589, 61.262 152.594 C 72.426 150.422, 73.750 150.549, 77.299 154.125 C 79.876 156.722, 80.958 158.999, 81.994 164 C 84.832 177.707, 99.674 189, 104.727 181.297 C 106.252 178.972, 106.577 175.303, 107.050 155.047 C 107.673 128.397, 108.267 125.718, 113.671 125.193 C 116.721 124.897, 127.453 129.900, 129.235 132.449 C 130.667 134.498, 129.971 143.885, 127.884 150.645 C 126.721 154.415, 123.796 162.607, 121.384 168.849 C 113.060 190.397, 116.461 192.546, 133.754 176.663 C 137.744 172.998, 141.245 170, 141.534 170 C 141.822 170, 144.381 171.836, 147.220 174.080 C 165.448 188.488, 177.330 184.924, 172.477 166.504 C 168.372 150.925, 150.891 130.690, 140.556 129.556 C 139.196 129.406, 136.891 128.503, 135.435 127.549 C 132.872 125.870, 132.810 125.600, 133.492 119.157 C 135.197 103.062, 138.475 88.658, 140.294 89.265 C 140.945 89.482, 143.547 96.148, 146.076 104.080 C 151.192 120.119, 154.060 126.427, 156.938 127.967 C 161.908 130.627, 165.120 128.188, 169.853 118.160 C 172.031 113.544, 172.699 110.918, 172.307 108.503 C 172.011 106.678, 172.571 96.031, 173.553 84.843 C 176.692 49.049, 175.902 35.034, 170.147 24.448 C 167.140 18.916, 160.718 13.575, 155.225 12.037 C 149.840 10.530, 139.287 10.001, 133.500 10.949 M 120.500 15.539 C 111.700 16.788, 94.825 18.865, 83 20.155 C 71.175 21.445, 62.625 22.633, 64 22.796 C 69.585 23.459, 84.951 26.130, 91.831 27.634 L 99.163 29.237 95.900 32.603 C 94.105 34.455, 92.831 36.126, 93.068 36.316 C 93.306 36.506, 96.650 38.375, 100.500 40.470 C 104.350 42.565, 108.344 45.004, 109.375 45.890 C 111.159 47.422, 111.223 47.355, 110.689 44.500 C 108.451 32.522, 109.252 24.834, 113.061 21.750 C 115.885 19.463, 121.710 19.518, 127.955 21.891 L 132.932 23.782 135.966 19.053 C 137.635 16.453, 139 14.027, 139 13.662 C 139 12.865, 140.178 12.746, 120.500 15.539 M 145.508 14.637 C 145.952 15.662, 147.119 19.425, 148.100 23 C 152.777 40.038, 148.019 70.463, 141.313 66.402 C 138.221 64.530, 136.783 58.062, 136.129 43.080 C 135.771 34.872, 135.067 28.518, 134.494 28.328 C 133.941 28.146, 132.324 29.909, 130.901 32.248 C 129.479 34.587, 125.501 41.085, 122.062 46.689 L 115.809 56.879 118.039 69.189 C 120.918 85.074, 121.157 98.798, 118.667 105.250 C 117.659 107.862, 116.422 110, 115.917 110 C 113.717 110, 115.487 112.134, 122.500 117.935 C 126.625 121.347, 130.005 123.770, 130.011 123.319 C 130.056 119.812, 134.336 95.545, 135.565 91.827 C 139.309 80.501, 142.352 83.242, 148.959 103.888 C 151.707 112.475, 154.858 120.962, 155.963 122.750 C 159.350 128.232, 162.500 126.887, 167.092 118 C 169.096 114.121, 169.510 111.430, 170.093 98.500 C 170.465 90.250, 171.362 76.184, 172.086 67.242 C 174.981 31.492, 168.664 16.723, 149.100 13.499 C 145.055 12.832, 144.764 12.924, 145.508 14.637 M 138.743 19.541 C 135.834 24.357, 135.473 25.630, 136.863 26.167 C 137.338 26.350, 138.193 33.700, 138.764 42.500 C 140.223 65.004, 142.459 69.514, 145.623 56.340 C 147.798 47.286, 147.472 29.740, 144.980 21.671 C 143.847 18.002, 142.597 15, 142.203 15 C 141.808 15, 140.251 17.043, 138.743 19.541 M 115.975 23.325 C 112.384 25.115, 111.454 30.604, 112.900 41.468 C 113.561 46.436, 114.432 50.830, 114.834 51.233 C 115.444 51.844, 131 28.073, 131 26.529 C 131 25.808, 125.037 23.437, 121.440 22.729 C 119.757 22.397, 117.298 22.666, 115.975 23.325 M 47.536 24.942 C 46.269 26.992, 50.539 32.469, 55.929 35.707 C 65.414 41.405, 76.613 42.152, 84.820 37.632 C 87.028 36.416, 86.716 36.159, 78.320 32.281 C 73.469 30.040, 67.475 27.535, 65 26.716 C 58.580 24.589, 48.393 23.555, 47.536 24.942 M 81.773 30.777 C 87.535 33.694, 89.406 34.234, 90.773 33.371 C 94.437 31.060, 92.553 30.244, 77.500 27.618 C 75.553 27.278, 77.052 28.387, 81.773 30.777 M 86.500 39.733 C 84.850 40.642, 81.475 41.944, 79 42.625 L 74.500 43.865 78.782 43.933 C 84.981 44.030, 89.424 46.196, 90.942 49.859 C 91.649 51.567, 91.946 53.697, 91.603 54.593 C 90.939 56.322, 91.068 56.312, 100.155 53.932 C 104.622 52.761, 108.568 49.727, 107.619 48.192 C 106.992 47.178, 90.872 37.942, 89.899 38.040 C 89.679 38.062, 88.150 38.824, 86.500 39.733 M 68.500 46.704 C 48.161 48.040, 31.463 50.108, 30.114 51.458 C 26.571 55.001, 42.148 57.988, 63.500 57.861 C 70.650 57.818, 79.200 57.494, 82.500 57.141 C 88.080 56.545, 88.522 56.312, 88.811 53.811 C 89.281 49.737, 85.975 47, 80.582 47 C 78.152 47, 75.564 46.859, 74.832 46.687 C 74.099 46.516, 71.250 46.523, 68.500 46.704 M 108.756 52.525 C 107.246 53.828, 103.421 55.645, 100.256 56.562 C 92.131 58.916, 90 59.819, 90 60.911 C 90 61.436, 90.888 62.147, 91.974 62.492 C 94.929 63.430, 98.089 68.488, 98.837 73.479 L 99.500 77.905 106.171 67.182 C 111.932 57.920, 112.750 56.029, 112.171 53.307 L 111.500 50.155 108.756 52.525 M 105.305 73.714 C 98.841 84.102, 95 91.505, 95 93.575 C 95 93.727, 98.818 97.248, 103.485 101.400 C 108.392 105.767, 112.551 108.726, 113.349 108.420 C 117.912 106.669, 119.042 92.609, 116.073 74.555 C 114.902 67.436, 113.790 61.457, 113.602 61.269 C 113.414 61.081, 109.680 66.681, 105.305 73.714 M 63.030 63.562 C 54.080 65.502, 46.005 69.744, 43.161 74 C 39.667 79.230, 40.504 85.875, 46.328 99.141 C 51.812 111.630, 52.149 114.945, 48.250 118.034 C 45.705 120.050, 44.652 120.181, 34.134 119.788 L 22.768 119.362 26.134 122.249 C 34.555 129.473, 46.140 132.217, 61.162 130.548 L 67.500 129.843 78.727 111.672 L 89.954 93.500 85.727 89.780 C 83.402 87.734, 81.274 86.046, 80.998 86.030 C 80.722 86.013, 78.775 90.417, 76.671 95.816 C 74.567 101.215, 72.450 106.271, 71.968 107.053 C 70.295 109.758, 60 84.714, 60 77.941 C 60 71.888, 65.472 71.761, 74.166 77.612 C 76.979 79.505, 79.450 80.883, 79.658 80.675 C 79.866 80.468, 81.564 76.518, 83.433 71.899 C 86.820 63.523, 86.824 63.498, 84.665 62.850 C 80.942 61.731, 69.779 62.098, 63.030 63.562 M 85.671 73.656 C 83.643 78.970, 82.100 83.387, 82.242 83.473 C 82.384 83.558, 84.551 85.270, 87.057 87.276 L 91.614 90.924 93.451 87.814 C 95.796 83.844, 96.617 72.453, 94.800 69.108 C 94.085 67.792, 92.568 66.103, 91.429 65.355 C 89.443 64.049, 89.206 64.391, 85.671 73.656 M 63.234 80.250 C 63.753 84.712, 69.805 101, 70.945 101 C 71.680 101, 78 86.004, 78 84.259 C 78 82.771, 67.055 76, 64.651 76 C 62.992 76, 62.805 76.560, 63.234 80.250 M 92.897 99.604 C 92.257 101.197, 91.518 104.797, 91.255 107.604 C 90.814 112.305, 90.962 112.757, 93.121 113.321 C 95.113 113.842, 106.030 111.718, 108.177 110.391 C 108.777 110.020, 104.411 105.708, 96.281 98.638 C 94.063 96.711, 94.060 96.712, 92.897 99.604 M 80.393 113.833 C 75.385 121.900, 71.346 128.586, 71.418 128.692 C 71.491 128.797, 75.573 127.987, 80.490 126.891 C 94.788 123.705, 114.963 120.915, 116.828 121.865 C 117.747 122.335, 120.075 122.997, 122 123.338 L 125.500 123.957 122.887 121.728 C 121.449 120.503, 118.254 117.814, 115.787 115.752 L 111.300 112.005 105.493 114.002 C 91.414 118.846, 85.567 114.971, 88.983 103.060 C 89.523 101.175, 89.861 99.528, 89.733 99.399 C 89.604 99.271, 85.402 105.766, 80.393 113.833 M 100.500 125.726 C 98.850 125.960, 91.297 127.468, 83.715 129.076 C 76.133 130.684, 69.744 132, 69.517 132 C 68.759 132, 59.770 149.104, 60.267 149.600 C 60.536 149.870, 62.829 149.568, 65.361 148.931 C 76.684 146.079, 82.107 150.975, 85.407 167.027 C 86.079 170.297, 92.048 177.248, 96.599 180.061 C 99.766 182.019, 100.331 182.097, 101.662 180.766 C 103.772 178.657, 105.287 165.124, 104.548 155 C 103.952 146.840, 105.105 130.401, 106.531 126.750 C 107.251 124.906, 106.804 124.830, 100.500 125.726 M 131.619 131.541 C 132.933 133.547, 133.160 135.493, 132.695 140.791 C 132.100 147.584, 130.513 152.764, 123.023 172.353 C 120.741 178.323, 119.130 183.463, 119.444 183.777 C 120.182 184.515, 126.077 180.094, 134.787 172.270 L 141.722 166.040 147.973 171.057 C 158.732 179.692, 165.678 182.322, 168.985 179.015 C 171.522 176.478, 171.529 172.924, 169.015 164.783 C 164.742 150.951, 149.919 134.122, 140.504 132.415 C 138.979 132.138, 136.464 131.257, 134.915 130.456 C 130.772 128.313, 129.729 128.657, 131.619 131.541" stroke="none" fill="black" fill-rule="evenodd"/>
</svg>