<svg xmlns="http://www.w3.org/2000/svg" width="200" height="200" viewBox="0 0 200 200" version="1.1">
	<path d="M 142.688 6.646 C 142.309 7.024, 142 8.348, 142 9.587 C 142 12.262, 145.673 11.790, 92 16.012 C 45.121 19.699, 42.112 20.009, 41.358 21.230 C 40.564 22.515, 42.876 23.965, 45.750 23.985 C 47.366 23.996, 48 24.593, 48 26.104 C 48 29.029, 59.832 40.568, 61.314 39.086 C 62.095 38.305, 60.801 36.576, 56.700 32.920 C 49.711 26.691, 49.416 25, 55.318 25 C 63.049 25, 87.749 33.393, 86.048 35.442 C 84.500 37.307, 78.629 38.856, 66.602 40.571 C 49.384 43.028, 36 48.033, 36 52.016 C 36 54.278, 41.457 56.330, 48.714 56.795 L 56.309 57.283 42.904 62.018 C 26.653 67.758, 23.607 68.954, 24.111 69.397 C 24.325 69.585, 28.550 71.209, 33.500 73.005 C 56.671 81.415, 64.783 88.514, 57.250 93.790 C 55.737 94.849, 50 97.671, 44.500 100.060 C 33.080 105.020, 28.320 108.860, 29.910 111.831 C 31.392 114.602, 35.346 116.897, 43.291 119.599 C 51.836 122.505, 52.557 122.526, 58.219 120.021 C 62.876 117.961, 72.132 115.653, 80.202 114.540 C 84.865 113.897, 84.920 113.923, 86.864 117.696 C 89.636 123.077, 94.714 127.937, 100.263 130.520 L 105.025 132.737 94.763 133.220 C 83.031 133.771, 77.601 135.588, 75.788 139.566 C 74.689 141.979, 74.834 142.460, 77.302 144.583 C 80.513 147.345, 84.973 148.663, 94.285 149.600 L 101.071 150.283 97.395 152.502 C 92.304 155.574, 89.012 161.337, 89.005 167.185 C 88.995 176.449, 93.793 183.296, 103.719 188.183 C 109.697 191.125, 111.191 191.436, 119.413 191.445 C 126.235 191.452, 130.245 190.880, 135.500 189.147 C 142.373 186.881, 156 180.137, 156 179.001 C 156 178.684, 153.986 176.740, 151.525 174.683 C 149.064 172.626, 145.835 168.869, 144.350 166.334 L 141.649 161.725 143.827 157.613 C 146.531 152.509, 146.527 152.214, 143.750 151.820 C 142.512 151.644, 141.500 150.904, 141.500 150.176 C 141.500 149.195, 144.046 148.751, 151.359 148.457 C 166.754 147.839, 172.673 143.571, 166.832 137.300 C 163.832 134.078, 151.561 127.915, 142.128 124.891 C 138.073 123.591, 134.547 121.983, 134.292 121.317 C 133.346 118.852, 137.236 108.542, 140.591 104.622 C 142.476 102.421, 144.791 98.166, 145.736 95.169 L 147.454 89.718 148.647 95.609 C 151.255 108.489, 156.528 118, 161.060 118 C 164.151 118, 168.588 113.309, 171.378 107.093 C 176.182 96.389, 178.303 84.281, 178.226 68 C 178.189 60.025, 177.777 51.977, 177.312 50.116 C 176.799 48.067, 176.939 43.139, 177.666 37.616 C 179.912 20.569, 179.152 11, 175.554 11 C 171.971 11, 164.421 24.633, 155.547 47.125 L 151.059 58.500 151.029 49.500 C 150.992 38.851, 148.399 15.349, 146.698 10.246 C 145.508 6.678, 144.005 5.328, 142.688 6.646 M 143.939 13.610 C 143.657 14.322, 128.799 15.875, 102.503 17.940 C 79.955 19.711, 61.317 21.349, 61.086 21.580 C 60.856 21.811, 62.959 22, 65.761 22 C 73.878 22, 86.123 23.988, 90.881 26.078 C 95.018 27.896, 95.231 28.188, 94.723 31.321 C 94.204 34.520, 94.405 34.761, 100.329 38.018 C 107.592 42.011, 115 48.552, 115 50.972 C 115 54.734, 111.356 56.367, 101.957 56.816 C 97.031 57.052, 93 57.655, 93 58.158 C 93 58.660, 93.769 60.244, 94.708 61.678 C 96.651 64.643, 96.874 71.071, 95.556 86.138 C 94.742 95.450, 94.787 95.816, 96.900 96.946 C 98.626 97.870, 100.258 97.776, 104.647 96.500 C 111.689 94.453, 114.424 91.695, 116.692 84.353 C 118.280 79.212, 118.468 75.203, 118.235 51.380 C 117.988 26.146, 118.100 24.098, 119.841 21.949 C 121.577 19.804, 121.945 19.734, 124.954 20.981 C 131.430 23.663, 143.158 39.847, 145.705 49.614 L 147.500 56.500 147.818 49 C 148.280 38.124, 145.233 10.332, 143.939 13.610 M 173.915 15.636 C 169.334 21.022, 163.175 34.581, 153.424 60.742 C 149.422 71.479, 147.254 78.585, 147.913 78.804 C 148.511 79.004, 149 80.071, 149 81.176 C 149 85.248, 153.185 103.559, 155.171 108.175 C 157.682 114.014, 159.251 115.405, 162.426 114.608 C 164.193 114.164, 165.729 112.247, 167.922 107.746 C 174.760 93.716, 177.724 70.866, 174.894 54 C 174.088 49.195, 174.115 44.631, 174.997 36.500 C 175.653 30.450, 176.035 22.861, 175.845 19.636 C 175.522 14.151, 175.398 13.893, 173.915 15.636 M 121.535 23.943 C 121.214 24.462, 121.010 36.950, 121.082 51.693 C 121.219 79.926, 120.647 84.766, 116.291 92.255 C 113.893 96.377, 108.073 99.214, 100.847 99.782 C 95.609 100.194, 95.067 100.032, 93.463 97.583 C 92.061 95.444, 91.852 93.661, 92.366 88.220 C 94.094 69.934, 94.161 67.405, 92.999 64.500 L 91.799 61.500 89.649 64.447 C 86.124 69.281, 82.732 72.104, 79.725 72.705 C 78.148 73.020, 77.113 73.766, 77.393 74.386 C 79.602 79.280, 89.998 104.293, 91.092 107.345 L 92.470 111.189 109.485 110.786 C 122.707 110.473, 127.410 109.997, 130.583 108.650 L 134.666 106.917 142.175 84.458 C 146.798 70.633, 149.227 62, 148.494 62 C 147.074 62, 144.695 56.738, 142.392 48.504 C 141.226 44.333, 138.939 40.175, 134.883 34.846 C 127.338 24.935, 123.075 21.452, 121.535 23.943 M 73.500 26.171 C 75.150 26.765, 79.597 28.551, 83.383 30.138 C 88.625 32.336, 90.589 32.756, 91.622 31.899 C 92.368 31.280, 92.735 30.380, 92.438 29.900 C 91.668 28.654, 82.469 26.264, 76 25.629 C 71.243 25.162, 70.905 25.235, 73.500 26.171 M 89.473 37.044 C 89.148 37.570, 89.809 38, 90.941 38 C 93.356 38, 93.599 37.444, 91.532 36.651 C 90.725 36.341, 89.798 36.518, 89.473 37.044 M 80.500 41.642 C 60.068 43.971, 45.342 47.246, 40.705 50.494 C 38.681 51.911, 38.684 51.929, 41.083 52.840 C 44.133 53.997, 56.123 54.464, 76.067 54.203 L 91.635 54 93.317 48.662 C 94.243 45.726, 95 42.801, 95 42.162 C 95 41.043, 87.964 40.791, 80.500 41.642 M 96.664 46.985 C 95.749 50.277, 95 53.202, 95 53.485 C 95 53.768, 98.064 54, 101.809 54 C 109.488 54, 112.899 52.429, 111.326 49.618 C 110.189 47.586, 101.142 41, 99.488 41 C 98.850 41, 97.579 43.693, 96.664 46.985 M 64.096 58.501 C 57.349 60.014, 36.854 66.570, 33.571 68.266 C 31.916 69.121, 32.540 69.600, 37.960 71.638 C 54.014 77.673, 63 84.009, 63 89.295 C 63 93.607, 58.844 96.838, 46.273 102.295 C 40.198 104.933, 34.476 107.921, 33.557 108.937 C 31.981 110.679, 32.044 110.895, 34.693 112.765 C 36.237 113.855, 40.775 115.797, 44.777 117.079 C 51.987 119.389, 52.098 119.394, 56.777 117.582 C 63.311 115.051, 75.832 112.017, 79.781 112.008 C 81.610 112.003, 83.292 111.401, 83.581 110.648 C 83.910 109.793, 85.060 109.480, 86.714 109.796 C 88.672 110.171, 89.189 109.945, 88.773 108.898 C 82.476 93.014, 79.107 84.946, 75.762 77.735 C 73.526 72.915, 71.990 68.676, 72.350 68.317 C 72.709 67.958, 74.140 68.272, 75.529 69.015 C 79.186 70.973, 82.877 69.314, 86.341 64.156 C 88.554 60.861, 88.963 59.563, 88.070 58.670 C 86.345 56.944, 71.508 56.839, 64.096 58.501 M 142.587 91.646 C 141.573 94.866, 140.509 98.175, 140.224 99 C 139.874 100.012, 140.039 100.175, 140.730 99.500 C 142.079 98.183, 145.267 88.301, 144.797 86.892 C 144.596 86.287, 143.601 88.426, 142.587 91.646 M 130.500 111.597 C 128.850 112.319, 126.150 112.951, 124.500 113.002 C 121.781 113.085, 121.968 113.276, 126.500 115.046 C 129.250 116.120, 131.568 116.999, 131.652 116.999 C 131.959 117.001, 134.001 110.669, 133.755 110.480 C 133.615 110.372, 132.150 110.875, 130.500 111.597 M 90.259 118.250 C 95.303 126.954, 107.184 132.051, 117.756 130.046 C 125.334 128.609, 131.569 125.087, 129.165 123.602 C 128.687 123.307, 122.469 121.486, 115.346 119.556 C 105.032 116.762, 101.341 116.172, 97.219 116.661 C 92.977 117.163, 91.929 116.978, 91.414 115.637 C 91.069 114.737, 90.113 114, 89.291 114 C 88.117 114, 88.325 114.911, 90.259 118.250 M 122.474 118.434 C 126.859 119.782, 130.641 120.692, 130.877 120.456 C 131.693 119.640, 124.485 117.189, 119.500 116.586 C 114.993 116.042, 115.286 116.224, 122.474 118.434 M 132.124 126.768 C 130.542 129.725, 129.660 136, 130.827 136 C 131.404 136, 134.790 135.324, 138.351 134.498 C 144.888 132.982, 148.004 133.260, 147.995 135.357 C 147.992 135.986, 146.881 138.300, 145.526 140.500 C 144.171 142.700, 143.048 144.838, 143.031 145.250 C 142.946 147.309, 162.852 145.197, 165.684 142.847 C 168.797 140.264, 159.103 133.937, 142.853 127.946 C 133.470 124.486, 133.352 124.473, 132.124 126.768 M 125.649 130.684 C 125.272 131.061, 122.385 131.894, 119.232 132.536 L 113.500 133.702 119.872 134.463 C 124.802 135.052, 126.438 134.916, 127.106 133.862 C 128.805 131.181, 127.657 128.677, 125.649 130.684 M 84 137.096 C 73.064 140.379, 78.713 145.583, 94.415 146.691 C 102.200 147.241, 121.532 145.567, 123.688 144.157 C 124.240 143.796, 124.982 142.314, 125.336 140.865 C 125.893 138.588, 125.607 138.141, 123.240 137.581 C 118.172 136.381, 87.639 136.003, 84 137.096 M 135.500 137.906 C 129.779 139.324, 128.442 140.032, 128.185 141.785 C 127.817 144.295, 130.588 145.322, 136.376 144.820 C 139.506 144.548, 140.441 143.860, 142.587 140.250 C 145.464 135.411, 145.507 135.425, 135.500 137.906 M 128 147.821 C 130.478 149.397, 137.720 150.262, 138.456 149.071 C 138.869 148.403, 138.014 148, 136.184 148 C 134.570 148, 131.731 147.745, 129.875 147.433 C 127.523 147.039, 126.955 147.156, 128 147.821 M 108.190 151.068 C 100.857 152.511, 95.773 155.950, 93.148 161.241 C 91.010 165.552, 90.902 166.424, 91.962 170.840 C 96.305 188.945, 120.308 194.168, 144.870 182.354 L 152.296 178.782 149.144 176.316 C 147.410 174.959, 144.563 171.772, 142.817 169.234 C 139.989 165.124, 139.525 164.816, 138.571 166.415 C 135.258 171.968, 127.507 181.267, 125.387 182.233 C 121.311 184.091, 119.476 181.309, 119.690 173.597 C 119.847 167.934, 121.161 158.542, 122.675 152.250 C 123.188 150.120, 122.931 150.006, 117.858 150.110 C 114.911 150.170, 110.561 150.601, 108.190 151.068 M 125.591 152.622 C 124.731 154.864, 122.006 171.939, 122.019 175 C 122.026 176.375, 122.446 178.157, 122.954 178.960 C 124.215 180.953, 126.806 178.568, 133.132 169.593 C 137.307 163.669, 138 162.009, 138 157.926 L 138 153.166 132.951 152.083 C 126.458 150.690, 126.329 150.700, 125.591 152.622 M 140 155 C 140 155.550, 140.450 156, 141 156 C 141.550 156, 142 155.550, 142 155 C 142 154.450, 141.550 154, 141 154 C 140.450 154, 140 154.450, 140 155" stroke="none" fill="black" fill-rule="evenodd"/>
</svg>