<svg xmlns="http://www.w3.org/2000/svg" width="200" height="200" viewBox="0 0 200 200" version="1.1">
	<path d="M 121 10.031 C 114.675 11.037, 99.595 13.823, 87.489 16.223 C 73.976 18.901, 64.516 20.317, 62.989 19.892 C 58.182 18.554, 52.589 19.020, 48.252 21.120 C 44.090 23.135, 43.398 23.178, 34.373 21.983 C 27.771 21.109, 24.556 21.044, 23.830 21.770 C 23.104 22.496, 23.379 23.132, 24.730 23.856 C 30.581 26.987, 46.943 33.691, 56.914 37.043 C 69.452 41.258, 69.517 41.109, 54.332 42.921 C 43.269 44.241, 32.617 47.383, 29.861 50.139 C 27.959 52.041, 27.938 52.274, 29.518 54.020 C 31.536 56.250, 37.477 57.619, 49.259 58.570 L 58.018 59.277 53.994 62.236 C 44.284 69.377, 42.595 78.848, 48.367 93.793 C 50.219 98.588, 52.049 103.945, 52.433 105.697 C 53.897 112.361, 49.212 115.585, 36.502 116.659 C 31.552 117.078, 29 117.714, 29 118.530 C 29 120.418, 33.072 121.008, 50.500 121.647 C 75.791 122.573, 105.459 118.370, 126.804 110.836 L 135.265 107.850 140.661 111.566 C 143.628 113.610, 146.211 115.556, 146.399 115.891 C 146.588 116.226, 145.725 122.575, 144.483 130 L 142.223 143.500 142.112 136.250 C 141.990 128.360, 140.655 125.967, 135.210 123.883 C 132.610 122.887, 106.629 122.493, 105.120 123.426 C 104.717 123.675, 96.357 124.357, 86.541 124.942 C 76.726 125.527, 67.016 126.457, 64.964 127.010 C 56.736 129.225, 57.214 133.645, 66.411 140.397 C 69.964 143.006, 73.374 145.746, 73.988 146.486 C 75.717 148.568, 72.319 149.195, 59.514 149.154 C 46.567 149.112, 47.039 148.738, 47.014 159.068 C 46.983 171.666, 52.951 181.565, 63.273 186.039 C 76.778 191.892, 100.495 187.997, 107.308 178.807 C 109.189 176.271, 109.209 175.969, 107.655 173.597 C 105.694 170.603, 97.890 168, 90.878 168 C 88.260 168, 85.897 167.642, 85.626 167.204 C 85.032 166.243, 103.924 155.732, 109.353 154.004 C 114.304 152.427, 115.012 153.117, 119.998 164.370 C 124.204 173.864, 131.849 185.282, 135.291 187.212 C 138.959 189.268, 155.795 188.876, 160 186.636 C 168.357 182.185, 172.348 176.087, 174.040 165.183 C 176.419 149.849, 168.216 119.168, 162.340 121.423 C 161.191 121.864, 150 115.502, 150 114.408 C 150 114.238, 150.484 111.842, 151.075 109.084 L 152.151 104.070 155.916 106.447 C 165.911 112.757, 172.328 112.028, 176.212 104.144 C 178.386 99.732, 178.504 98.352, 178.587 76.500 C 178.646 60.891, 179.209 49.708, 180.337 41.699 C 182.430 26.843, 182.555 12.705, 180.606 11.088 C 177.461 8.478, 173.868 15.361, 166.543 38.032 C 161.673 53.103, 151 93.756, 151 97.233 C 151 98.851, 150.570 99.098, 148.750 98.523 C 142.401 96.519, 141.212 96.688, 139.589 99.827 C 137.003 104.828, 134.934 104.691, 126.439 98.959 L 118.804 93.807 125.640 87.549 L 132.477 81.291 128.831 75.800 C 120.250 62.876, 116.875 53.757, 116.875 43.494 C 116.875 28.939, 127.441 21.180, 136.468 29.106 C 141.751 33.744, 143.411 40.506, 142.691 54.455 C 142.377 60.530, 141.816 66.513, 141.444 67.750 C 140.952 69.384, 141.177 70, 142.267 70 C 144.136 70, 144.796 67.045, 145.614 55 C 146.406 43.338, 144.967 35.634, 140.964 30.109 C 133.618 19.969, 122.596 20.820, 116.750 31.979 C 111.030 42.897, 114.563 59.877, 126.019 76.528 L 128.883 80.690 124.192 85.152 C 116.049 92.895, 117.071 92.752, 108.149 87.405 C 101.283 83.290, 100.132 82.199, 99.673 79.373 C 98.844 74.265, 95.993 69.067, 91.820 65.057 L 87.993 61.381 90.747 58.767 C 92.261 57.329, 95.925 55.238, 98.890 54.119 C 114.528 48.219, 111.774 40.510, 91.658 33.871 C 86.071 32.028, 79.925 29.343, 78 27.904 C 76.075 26.466, 73.375 24.690, 72 23.957 C 69.681 22.721, 70.513 22.419, 83.500 19.784 C 124.179 11.531, 144.136 9.279, 147.429 12.571 C 149.347 14.490, 149.348 13.885, 147.416 25.761 C 145.819 35.577, 146.036 43.331, 148.136 51.500 C 149.860 58.206, 154.176 67, 155.744 67 C 156.552 67, 156.966 66.438, 156.664 65.750 C 149.224 48.856, 147.965 41.371, 150.089 26.649 C 150.980 20.478, 151.261 15.085, 150.786 13.256 C 149.321 7.601, 141.556 6.760, 121 10.031 M 174.156 24.250 C 169.595 35.949, 162.840 58.811, 157.683 80 C 151.956 103.534, 151.846 101.106, 158.813 104.819 C 167.169 109.273, 170.896 109.036, 173.561 103.882 C 176.047 99.075, 177.010 87.210, 176.033 73.429 C 175.291 62.958, 175.460 58.241, 176.995 46.611 C 179.645 26.526, 180.494 14, 179.205 14 C 178.626 14, 176.353 18.612, 174.156 24.250 M 50 23.014 C 48.945 23.706, 49.538 23.807, 52 23.355 C 56.313 22.564, 57.126 21.995, 53.917 22.015 C 52.587 22.024, 50.825 22.473, 50 23.014 M 58.500 24.779 C 57.280 25.112, 59.817 25.993, 65 27.037 C 69.675 27.979, 73.656 28.612, 73.847 28.445 C 74.038 28.277, 72.368 27.208, 70.137 26.070 C 66.193 24.058, 62.597 23.659, 58.500 24.779 M 35 25.304 C 35 25.609, 40.737 28.089, 47.750 30.814 C 68.762 38.981, 81.955 41.226, 81.166 36.500 C 80.983 35.400, 80.475 34.127, 80.038 33.672 C 78.498 32.067, 50.608 26.902, 46.324 27.428 C 44.027 27.711, 42.002 27.515, 41.824 26.993 C 41.477 25.978, 35 24.375, 35 25.304 M 84 36.854 C 84 38.364, 83.460 40.140, 82.800 40.800 C 81.867 41.733, 82.207 42, 84.332 42 C 90.407 42, 97.631 47.192, 96.318 50.615 C 95.576 52.547, 97.406 52.343, 102.040 49.980 C 106.363 47.774, 107.122 45.297, 104.250 42.771 C 101.652 40.487, 95.188 37.425, 89.250 35.664 L 84 34.108 84 36.854 M 60 44.638 C 46.124 46.350, 32 50.100, 32 52.070 C 32 52.539, 33.912 53.501, 36.250 54.207 C 41.883 55.910, 82.734 55.886, 88.647 54.177 C 95.027 52.333, 95.546 48.159, 89.670 45.945 C 86.451 44.733, 66.394 43.849, 60 44.638 M 83.573 57.895 C 81.785 58.596, 81.773 58.699, 83.404 59.325 C 84.392 59.704, 86.101 59.342, 87.304 58.500 C 89.346 57.069, 89.354 57.003, 87.473 57.070 C 86.388 57.109, 84.633 57.480, 83.573 57.895 M 59.388 61.951 C 49.932 67.375, 46.021 74.670, 47.952 83.286 C 48.497 85.719, 50.306 91.406, 51.972 95.924 C 56.879 109.232, 55.796 114.474, 47.500 117.566 C 43.778 118.953, 44.822 119.026, 62.500 118.613 C 72.962 118.368, 86.210 117.422, 91.981 116.507 C 103.597 114.666, 122.418 110.015, 128.316 107.527 L 132.131 105.918 124.503 100.939 C 120.251 98.163, 116.350 96.269, 115.688 96.659 C 115.034 97.044, 112.686 98.827, 110.468 100.621 C 100.595 108.610, 98 107.153, 98 93.621 L 98 84.385 90.131 80.193 C 85.804 77.887, 81.990 76, 81.656 76 C 81.323 76, 81.303 77.263, 81.611 78.806 C 82.279 82.146, 80.072 84.475, 77.126 83.540 C 74.368 82.664, 68 75.383, 68 73.104 C 68 71.125, 69.842 70, 73.082 70 C 74.137 70, 75 69.362, 75 68.582 C 75 67.801, 76.575 66.190, 78.500 65 C 80.425 63.810, 82 62.495, 82 62.077 C 82 60.806, 74.569 58.999, 69.384 59.009 C 65.824 59.016, 63.115 59.813, 59.388 61.951 M 82.500 65.600 C 81.400 66.445, 79.880 67.494, 79.123 67.930 C 76.642 69.357, 79.226 71.709, 88.250 76.237 C 98.200 81.231, 98.863 80.780, 94.011 72.321 C 91.158 67.347, 87.697 63.965, 85.527 64.032 C 84.962 64.049, 83.600 64.755, 82.500 65.600 M 71 73.881 C 71 74.977, 77.083 81, 78.190 81 C 79.770 81, 78.970 76.970, 77 75 C 74.986 72.986, 71 72.243, 71 73.881 M 101 95 C 101 99.400, 101.416 103, 101.923 103 C 102.705 103, 110.690 97.396, 113.329 94.996 C 114.048 94.342, 103.295 87, 101.619 87 C 101.279 87, 101 90.600, 101 95 M 141.505 101.990 C 140.649 103.646, 139.510 105, 138.974 105 C 136.769 105, 138.280 106.946, 142.750 109.862 L 147.500 112.961 148.132 110.230 C 149.552 104.092, 149.124 102.116, 146.031 100.516 C 143.120 99.011, 143.031 99.040, 141.505 101.990 M 147.560 128.750 C 146.630 134.662, 145.613 143.348, 145.300 148.050 C 144.727 156.636, 145.049 158.015, 149.782 167.250 C 150.493 168.638, 146.258 168.015, 145.045 166.554 C 142.948 164.028, 140.924 153.878, 140.106 141.792 C 139.656 135.135, 138.781 129.442, 138.080 128.596 C 135.521 125.513, 126.502 124.653, 110.500 125.967 C 102.250 126.644, 89.200 127.569, 81.500 128.022 C 66.634 128.897, 60.766 130.226, 61.646 132.519 C 61.934 133.271, 65.534 136.418, 69.646 139.512 C 75.442 143.875, 77.051 145.623, 76.810 147.294 C 76.299 150.845, 72.422 151.969, 60.628 151.985 L 49.755 152 50.182 160.916 C 50.727 172.331, 53.679 177.695, 62 182.394 C 67.292 185.382, 67.936 185.498, 79 185.447 C 91.769 185.388, 99.558 183.228, 103.982 178.519 C 108.453 173.760, 103.175 171.415, 85.302 170.219 L 74.544 169.500 88.022 161.796 C 103.888 152.726, 107.772 151, 112.313 151 C 116.639 151, 117.936 152.542, 122.410 163 C 124.410 167.675, 128.235 174.471, 130.909 178.102 C 136.305 185.427, 137.582 186, 148.511 186 C 158.040 186, 164.529 182.273, 168.492 174.522 C 171.288 169.057, 171.497 167.895, 171.458 158.071 C 171.430 151.091, 170.786 145.122, 169.563 140.500 C 167.355 132.154, 163.934 124.030, 163.321 125.676 C 163.049 126.406, 160.485 125.175, 156.552 122.426 C 153.070 119.992, 150.003 118, 149.736 118 C 149.469 118, 148.490 122.838, 147.560 128.750" stroke="none" fill="black" fill-rule="evenodd"/>
</svg>