<svg xmlns="http://www.w3.org/2000/svg" width="200" height="200" viewBox="0 0 200 200" version="1.1">
	<path d="M 94.894 2.750 C 94.836 4.263, 94.870 6.737, 94.969 8.250 C 95.183 11.490, 95.857 11.412, 85.093 9.395 C 67.254 6.053, 59.506 10.193, 67.860 18.606 C 71.643 22.415, 77.364 25.852, 84.200 28.422 L 90.140 30.655 79.063 30.199 C 63.278 29.549, 51.097 32.348, 45.193 37.983 C 41.908 41.117, 42.687 44.103, 47.387 46.398 C 50.569 47.952, 53.382 48.279, 62.887 48.201 C 69.274 48.149, 77.650 47.694, 81.500 47.191 C 89.266 46.175, 101.162 46.947, 101.670 48.500 C 101.869 49.109, 98.952 49.500, 94.209 49.500 C 87.081 49.500, 85.927 49.797, 80.609 53 C 68.385 60.363, 58.106 74.678, 57.200 85.602 C 56.783 90.629, 56.965 91.165, 60.191 94.391 C 62.856 97.056, 65.067 98.125, 70.063 99.163 C 76.252 100.448, 75.516 100.521, 51 101.032 C 24.441 101.585, 20.710 102.186, 19.464 106.114 C 18.608 108.811, 20.493 111.555, 25.631 115.090 L 30.233 118.256 51.638 117.530 L 73.043 116.803 70.021 119.825 C 66.421 123.426, 66.205 125.914, 69.250 128.739 C 73.838 132.996, 81.255 134.466, 98.246 134.483 C 106.906 134.493, 113.994 134.591, 113.996 134.703 C 114.018 135.815, 111.461 139.993, 110.544 140.345 C 109.891 140.595, 106.915 140.105, 103.929 139.256 C 99.924 138.117, 93.253 137.684, 78.500 137.606 C 57.423 137.494, 53.025 138.217, 50.927 142.137 C 47.753 148.067, 61.273 154.250, 84.100 157.307 L 93.423 158.556 82.462 162.908 C 61.020 171.421, 48 179.412, 48 184.060 C 48 194.015, 81.988 187.255, 101.151 173.487 L 106.071 169.952 109.285 172.362 C 123.419 182.956, 141.094 187.860, 147.365 182.927 C 155.572 176.472, 143.294 163.966, 121.342 156.421 L 111.971 153.200 117.735 152.607 C 120.906 152.281, 129.077 151.510, 135.894 150.894 C 150.624 149.563, 156.910 148.126, 158.396 145.750 C 160.993 141.596, 154.079 137.525, 132.354 130.415 C 118.786 125.975, 118.182 125.662, 117.604 122.768 C 116.086 115.180, 114.965 115.606, 134.250 116.454 C 143.738 116.872, 152.625 117.227, 154 117.244 C 161.346 117.333, 178.632 110.677, 179.727 107.339 C 180.535 104.873, 175.492 102.198, 162.254 98.071 C 154.689 95.712, 146.752 92.891, 144.616 91.802 C 135.840 87.329, 133.731 81.849, 138.572 76.097 C 141.552 72.555, 140.938 69.841, 137.798 72.682 C 135.149 75.080, 132.999 79.348, 133.004 82.200 C 133.015 89.274, 141.319 94.581, 163 101.374 C 176.386 105.568, 178.230 106.509, 176 108.009 C 173.096 109.961, 157.453 114.372, 153.500 114.352 C 151.300 114.342, 142.195 113.963, 133.266 113.511 L 117.032 112.688 116.542 109.594 C 116.273 107.892, 114.853 99.975, 113.387 92 C 109.368 70.142, 109.424 71.411, 112.358 68.792 L 114.925 66.500 112.928 62.500 C 111.830 60.300, 109.597 56.839, 107.966 54.809 C 106.335 52.778, 105 50.580, 105 49.924 C 105 49.267, 105.968 49.961, 107.152 51.466 C 108.335 52.970, 111.189 55.009, 113.493 55.997 C 118.431 58.114, 132.867 61.466, 133.654 60.679 C 134.803 59.530, 132.893 58.238, 129.161 57.642 C 118.539 55.943, 108 51.122, 108 47.961 C 108 47.422, 111.838 46.989, 116.750 46.974 C 136.262 46.917, 154.567 44.137, 158.670 40.608 C 160.867 38.718, 161.096 38.048, 160.152 36.283 C 158.750 33.665, 154.599 31.762, 134.202 24.390 L 117.904 18.500 113.811 13 C 106.161 2.720, 103.020 0, 98.797 0 C 95.347 0, 94.990 0.251, 94.894 2.750 M 97.607 2.582 C 96.600 5.207, 96.922 9.520, 98.250 11.186 C 99.322 12.530, 113 17.386, 113 16.422 C 113 15.747, 103.744 4.468, 101.780 2.750 C 99.306 0.587, 98.387 0.550, 97.607 2.582 M 67.513 11.979 C 65.097 15.887, 82.437 26.767, 94.036 28.622 L 97.732 29.213 96.354 21.928 C 95.597 17.922, 94.844 14.511, 94.682 14.349 C 94.520 14.187, 91.121 13.367, 87.128 12.527 C 78.923 10.801, 68.422 10.508, 67.513 11.979 M 98.575 18.786 C 98.933 20.829, 99.531 24.075, 99.905 26 L 100.583 29.500 107.737 29.793 C 111.672 29.954, 116.293 29.722, 118.007 29.278 L 121.123 28.470 118.200 24.435 C 116.226 21.709, 114.015 20.012, 111.388 19.206 C 109.250 18.549, 105.345 17.351, 102.711 16.542 L 97.923 15.072 98.575 18.786 M 123.149 27.088 C 126.726 32.902, 126.506 33.420, 118.500 38 C 109.200 43.321, 109.385 44.001, 120.128 43.992 C 136.805 43.977, 158 40.620, 158 37.992 C 158 36.643, 150.849 33.166, 141.500 29.969 C 137.100 28.465, 130.484 26.085, 126.798 24.680 L 120.096 22.126 123.149 27.088 M 66.563 33.039 C 56.293 34.271, 46 38.546, 46 41.580 C 46 45.538, 56.446 46.259, 86.535 44.378 L 100.570 43.500 99.761 39.426 L 98.952 35.353 91.226 34.202 C 79.022 32.383, 73.997 32.147, 66.563 33.039 M 106.250 33.732 C 101.744 34.138, 101.658 34.295, 102.642 40.250 C 103.326 44.388, 105.699 45.287, 108.128 42.327 C 108.882 41.408, 112.157 38.933, 115.405 36.827 L 121.310 33 115.905 33.175 C 112.932 33.271, 108.588 33.522, 106.250 33.732 M 90.147 52.158 C 83.908 53.266, 78.211 56.951, 71.278 64.362 C 60.892 75.465, 56.953 87.840, 62.250 92.728 C 63.533 93.912, 68.794 95.939, 74.490 97.443 C 79.985 98.893, 84.873 100.473, 85.353 100.953 C 88.014 103.614, 84.158 104.006, 57.687 103.760 C 29.991 103.502, 22 104.309, 22 107.364 C 22 108.839, 25.471 112.220, 28.684 113.875 C 31.136 115.138, 45.040 115.320, 65.092 114.353 L 78.500 113.707 81.295 109.404 C 84.036 105.185, 92.828 97.868, 100.242 93.636 L 103.985 91.500 103.992 83.389 L 104 75.278 100.077 76.325 C 97.067 77.128, 95.786 77.068, 94.577 76.064 C 90.841 72.964, 94.572 62, 99.363 62 C 102.163 62, 103.571 63.442, 104.540 67.302 C 104.925 68.837, 105.450 69.883, 105.706 69.627 C 106.465 68.868, 102.889 54.049, 101.781 53.365 C 99.530 51.974, 94.261 51.427, 90.147 52.158 M 107.576 62.750 C 108.368 67.206, 109.684 68.986, 110.540 66.757 C 111.104 65.288, 108.582 59, 107.429 59 C 107.143 59, 107.209 60.688, 107.576 62.750 M 96.591 68.121 C 94.688 72.647, 95.536 74.343, 99.321 73.586 C 103.326 72.785, 103.456 72.580, 102.364 68.774 C 101.075 64.280, 98.337 63.970, 96.591 68.121 M 106.512 75.875 C 106.780 77.731, 107 81.706, 107 84.708 C 107 88.644, 107.349 90.044, 108.250 89.726 C 109.856 89.159, 109.500 82.946, 107.521 77 C 106.270 73.241, 106.104 73.056, 106.512 75.875 M 106.975 94.565 C 106.439 95.976, 106 97.381, 106 97.688 C 106 98.642, 109.058 95.759, 110.090 93.832 C 110.846 92.420, 110.713 92, 109.510 92 C 108.652 92, 107.512 93.154, 106.975 94.565 M 97 98.783 C 91.378 102.566, 82.001 111.267, 81.999 112.702 C 81.997 113.404, 113.052 113.281, 113.757 112.576 C 113.909 112.425, 113.516 108.826, 112.884 104.578 L 111.735 96.855 107.307 101.678 L 102.878 106.500 103.448 100.750 C 103.761 97.588, 103.676 95.018, 103.259 95.041 C 102.841 95.063, 100.025 96.747, 97 98.783 M 89 117.500 C 90.925 118.241, 94.170 118.882, 96.212 118.924 C 98.253 118.966, 103.316 120.077, 107.462 121.394 L 115 123.788 115 121.476 C 115 116.042, 114.865 115.994, 99.643 116.076 C 86.672 116.146, 85.790 116.264, 89 117.500 M 73.250 120.584 C 71.463 121.992, 70 123.777, 70 124.549 C 70 126.277, 73.629 128.738, 78.127 130.061 C 83.646 131.684, 101.018 132.918, 108 132.184 C 113.558 131.599, 114.500 131.216, 114.500 129.539 C 114.500 127.953, 112.970 127.121, 106.500 125.193 C 102.100 123.881, 94.792 122.475, 90.259 122.067 C 84.827 121.579, 81.392 120.760, 80.180 119.663 C 77.756 117.469, 77.089 117.558, 73.250 120.584 M 120.638 131.500 C 120.322 132.325, 119.409 133, 118.611 133 C 117.812 133, 116.875 134.293, 116.528 135.874 C 115.536 140.390, 111.773 143.338, 107.811 142.701 C 105.990 142.408, 101.125 141.637, 97 140.989 C 86.230 139.296, 62.486 139.369, 57.500 141.111 C 55.291 141.883, 53.500 143.164, 53.500 143.973 C 53.500 147.967, 70.415 153.184, 90.175 155.284 C 98.419 156.160, 100.994 156.773, 100.781 157.807 C 100.626 158.558, 95.100 161.166, 88.500 163.603 C 74.857 168.640, 57.908 176.738, 53.582 180.286 C 43.162 188.833, 67.801 187.511, 86.814 178.503 C 90.837 176.597, 96.745 173.202, 99.942 170.960 L 105.755 166.882 112.910 171.510 C 123.062 178.078, 130.519 181.155, 137.734 181.754 C 147.491 182.564, 149.705 179.151, 143.792 172.416 C 137.911 165.718, 127.005 160.302, 110.750 156.008 C 102.511 153.832, 100.794 152.863, 102.886 151.570 C 103.374 151.269, 113.994 150.123, 126.485 149.023 C 149.717 146.978, 157.522 145.653, 156.459 143.934 C 155.377 142.183, 146.468 138.169, 134.516 134.047 C 128.060 131.821, 122.426 130, 121.996 130 C 121.566 130, 120.955 130.675, 120.638 131.500" stroke="none" fill="black" fill-rule="evenodd"/>
</svg>