<svg xmlns="http://www.w3.org/2000/svg" width="200" height="200" viewBox="0 0 200 200" version="1.1">
	<path d="M 93.702 11.322 C 92.017 13.098, 90.913 13.474, 89 12.921 C 85.219 11.829, 69.480 11.867, 66.565 12.975 C 64.781 13.654, 64 14.692, 64 16.386 C 64 21.028, 74.037 27.307, 89 32.027 L 97.500 34.708 89.768 35.437 C 85.515 35.839, 77.993 36.039, 73.052 35.883 C 63.425 35.578, 61.477 36.114, 65.122 38.065 C 66.800 38.963, 71.044 39.111, 80.957 38.617 C 88.406 38.245, 95.625 37.708, 97 37.424 C 99.109 36.987, 99.858 37.543, 101.789 40.970 C 103.485 43.979, 103.744 45.134, 102.789 45.425 C 102.080 45.641, 92.220 46.379, 80.878 47.065 C 45.604 49.197, 37.517 47.202, 42.524 37.601 C 44.166 34.452, 43.897 33.442, 41.644 34.306 C 39.365 35.181, 37.759 41.235, 38.964 44.404 C 40.906 49.512, 45.357 50.514, 65.500 50.379 C 76.739 50.304, 82.373 50.575, 80.500 51.100 C 75.881 52.396, 70.207 57.662, 67.302 63.351 C 63.857 70.098, 62.946 81.952, 65.383 88.333 C 69.543 99.225, 80.700 103.973, 94.952 100.917 C 101.621 99.487, 103.510 100.338, 98.500 102.516 C 93.667 104.617, 83.679 104.865, 53 103.645 C 29.161 102.698, 25.360 103.250, 21.690 108.197 C 19.763 110.794, 19.751 111.056, 21.373 115.197 C 22.299 117.564, 23.932 120.548, 25.002 121.828 L 26.947 124.156 35.223 122.022 C 51.581 117.805, 75.707 118.380, 81.288 123.120 C 83.428 124.937, 83.439 125.046, 81.638 126.441 C 78.975 128.505, 70.687 129.307, 57.045 128.820 L 45.190 128.398 45.703 131.949 C 46.598 138.138, 50.008 150.976, 52.558 157.751 C 58.245 172.860, 66.391 183.099, 76.798 188.219 C 82.967 191.255, 84.176 191.495, 92.982 191.430 C 100.427 191.376, 103.781 190.859, 108.384 189.058 C 112.937 187.277, 115.425 186.886, 119.384 187.332 C 125.940 188.070, 142.680 186.586, 146.231 184.953 C 149.466 183.464, 150.666 180.508, 148.900 178.379 C 146.660 175.681, 140.541 173.170, 131.967 171.433 C 122.238 169.462, 104.483 169.888, 96.879 172.276 C 92.754 173.571, 91.975 173.556, 89.629 172.132 C 83.673 168.518, 86.377 167.956, 114.771 166.901 C 138.422 166.022, 147.074 165.013, 149.709 162.826 C 153.313 159.836, 148.893 154.743, 138.425 149.828 L 132.351 146.976 124.425 148.995 C 109.088 152.902, 88.799 152.569, 94.338 148.501 C 99.359 144.813, 118.130 144.238, 137.385 147.182 L 145.270 148.387 147.635 145.638 C 153.651 138.644, 147.714 133.155, 125.250 124.938 C 120.162 123.078, 116 121.205, 116 120.778 C 116 120.350, 117.463 119.980, 119.250 119.955 C 133.863 119.751, 160.799 117.821, 166.500 116.569 C 175.461 114.601, 178 113.241, 178 110.409 C 178 107.194, 172.607 102.970, 154.707 92.164 L 139.242 82.829 138.130 77.292 C 136.121 67.289, 130.084 57.971, 121.659 51.868 L 117.700 49 132.801 49 C 150.532 49, 157.403 47.841, 159.605 44.480 C 160.992 42.363, 160.978 41.897, 159.458 39.577 C 157.463 36.531, 145.903 30.561, 133.209 26.020 C 124.796 23.011, 123.985 22.484, 122.953 19.359 C 121.706 15.578, 119.599 14.227, 110.085 11.105 C 101.475 8.280, 96.525 8.345, 93.702 11.322 M 95.537 12.940 C 94.564 14.515, 94.319 14.395, 103.500 16.858 C 107.900 18.038, 113.612 19.649, 116.194 20.437 C 120.848 21.858, 120.881 21.852, 120.086 19.704 C 118.487 15.381, 97.587 9.623, 95.537 12.940 M 69.250 14.706 C 62.248 16.054, 72.601 23.798, 88.314 28.965 C 92.062 30.197, 95.308 31.025, 95.529 30.804 C 95.750 30.584, 94.879 27.275, 93.593 23.451 L 91.256 16.500 86.378 15.346 C 81.496 14.191, 73.479 13.891, 69.250 14.706 M 95 18.962 C 95 19.492, 95.943 22.444, 97.095 25.523 C 98.580 29.495, 99.907 31.394, 101.660 32.061 C 105.257 33.428, 111.560 33.211, 115.452 31.585 C 118.999 30.102, 121.785 26.349, 120.343 24.994 C 119.442 24.148, 98.224 18, 96.204 18 C 95.542 18, 95 18.433, 95 18.962 M 122.669 28.962 L 121.153 32 130.077 32 C 138.299 32, 139 32.155, 139 33.977 C 139 36.396, 136.371 38.178, 126.422 42.503 L 118.746 45.839 123.548 46.559 C 129.743 47.489, 148.856 46.329, 153.643 44.734 C 155.680 44.055, 157.528 42.949, 157.748 42.275 C 158.353 40.431, 149.824 35.469, 138.551 31.107 C 123.687 25.354, 124.419 25.453, 122.669 28.962 M 115.500 35.550 C 108.900 36.266, 103.378 36.884, 103.230 36.925 C 103.081 36.966, 103.905 38.854, 105.062 41.121 C 107.103 45.122, 107.285 45.227, 111.332 44.749 C 115.486 44.258, 133.363 37.037, 135.353 35.047 C 136.701 33.699, 131.318 33.836, 115.500 35.550 M 91 49 C 86.875 49.352, 84.850 49.741, 86.500 49.864 C 88.150 49.987, 91.286 50.724, 93.468 51.501 C 96.995 52.757, 97.636 52.735, 99.218 51.302 C 101.289 49.428, 101.546 47.921, 99.750 48.180 C 99.063 48.279, 95.125 48.648, 91 49 M 110.164 49.790 C 110.349 50.233, 113.425 55.577, 117 61.666 C 122.626 71.248, 124.250 73.225, 129.080 76.368 C 132.149 78.366, 134.997 80, 135.409 80 C 136.618 80, 134.951 73.892, 132.314 68.660 C 129.508 63.092, 123.184 55.895, 118.618 53.073 C 114.699 50.651, 109.716 48.716, 110.164 49.790 M 102.665 51.890 L 98.830 53.539 103.232 56.700 C 105.815 58.555, 108.382 61.522, 109.446 63.879 C 110.794 66.869, 112.011 68.063, 114.200 68.544 C 115.819 68.899, 117.320 69.013, 117.537 68.796 C 117.919 68.415, 108.502 52.145, 107.162 50.870 C 106.798 50.524, 104.774 50.982, 102.665 51.890 M 79.500 54.417 C 69.941 58.684, 64.037 73.735, 67.393 85.280 C 70.363 95.495, 78.440 100.121, 90.694 98.623 C 93.337 98.300, 101.125 97.629, 108 97.133 C 120.308 96.244, 126.213 94.932, 128.829 92.504 C 129.924 91.488, 129.450 89.863, 126.149 83.296 C 122.287 75.615, 119.925 73.055, 115.370 71.615 C 113.365 70.981, 113.269 71.208, 113.749 75.462 C 114.395 81.194, 112.979 83, 107.838 83 C 103.171 83, 97.340 80.206, 92.068 75.442 C 85.048 69.100, 86.333 64.982, 95.321 65.024 C 98.170 65.037, 102.173 65.436, 104.217 65.911 L 107.935 66.775 106.483 63.966 C 102.396 56.064, 87.568 50.816, 79.500 54.417 M 91.018 67.968 C 87.766 70.024, 100.381 79.673, 107.031 80.216 L 110.500 80.500 110.439 75.772 C 110.405 73.171, 110.073 70.739, 109.701 70.367 C 109.015 69.681, 96.750 67.091, 94 67.052 C 93.175 67.040, 91.833 67.452, 91.018 67.968 M 129.692 84.444 C 132.062 89.277, 132.506 89.698, 133.649 88.194 C 135.808 85.354, 135.168 83.297, 131.443 81.099 C 129.486 79.944, 127.691 79, 127.454 79 C 127.216 79, 128.223 81.450, 129.692 84.444 M 135.987 89.521 C 134.023 92.699, 133.923 93.508, 134.957 97.820 C 137.832 109.807, 130.110 113.014, 113 106.940 C 102.908 103.357, 103.647 103.426, 98 105.527 C 93.994 107.017, 89.990 107.130, 61.500 106.554 C 28.080 105.879, 26.223 106.055, 23.678 110.132 C 22.611 111.841, 23.787 115.766, 26.414 119.262 C 27.674 120.939, 28.172 120.918, 36.619 118.836 C 48.552 115.895, 69.953 115.611, 77.632 118.291 C 86.922 121.534, 88.468 126.016, 81.500 129.500 C 78.061 131.219, 75.500 131.500, 63.251 131.500 C 46.666 131.500, 47.693 130.452, 51.094 143.900 C 56.485 165.220, 65.815 179.750, 78.205 186.122 C 84.603 189.413, 95.839 189.851, 104.710 187.157 C 109.869 185.590, 115.212 184.958, 126.046 184.635 C 139.746 184.226, 147 182.929, 147 180.887 C 147 179.099, 140.418 176.007, 133.189 174.399 C 124.114 172.380, 102.757 172.877, 96.432 175.254 C 92.054 176.899, 90.454 176.496, 86.250 172.689 C 79.716 166.772, 85.412 165.094, 115.863 163.968 C 139.263 163.102, 148 162.025, 148 160.004 C 148 158.621, 141.923 154.296, 136.791 152.026 L 132.193 149.992 123.346 152.136 C 117.789 153.482, 110.968 154.317, 105 154.381 C 93.874 154.499, 90.711 153.315, 91.190 149.208 C 91.443 147.040, 92.421 146.203, 96.500 144.660 C 102.779 142.285, 120.124 141.936, 134.244 143.900 C 144.653 145.348, 147 144.809, 147 140.966 C 147 137.200, 140.825 133.698, 121.103 126.282 C 113.301 123.348, 110.629 120.971, 112.749 118.851 C 113.540 118.060, 120.566 117.358, 133.227 116.805 C 160.462 115.616, 176.621 112.782, 175.331 109.420 C 174.674 107.708, 140.714 86, 138.693 86 C 138.401 86, 137.184 87.585, 135.987 89.521 M 125.529 97.167 C 122.796 98.246, 116.777 99.395, 112.156 99.722 C 104.676 100.249, 104.013 100.451, 106.126 101.554 C 115.216 106.303, 129.519 108.489, 131.992 105.509 C 133.270 103.970, 132.569 94.897, 131.189 95.102 C 130.810 95.159, 128.263 96.087, 125.529 97.167" stroke="none" fill="black" fill-rule="evenodd"/>
</svg>