<svg xmlns="http://www.w3.org/2000/svg" width="200" height="200" viewBox="0 0 200 200" version="1.1">
	<path d="M 139.500 9.701 C 137.850 9.922, 122.775 11.671, 106 13.588 C 65.776 18.185, 46.770 20.926, 45.294 22.342 C 44.355 23.243, 44.504 24.428, 45.965 27.683 C 48.338 32.971, 55.503 38.365, 63.500 40.886 L 69.500 42.776 62.500 43.404 C 33.492 46.002, 30.856 46.727, 30.189 52.292 C 29.942 54.354, 30.540 55.228, 33.107 56.555 C 35.912 58.006, 48.643 60.837, 53 60.979 C 53.825 61.006, 51.165 62.846, 47.088 65.068 C 40.227 68.808, 31 74.892, 31 75.676 C 31 75.861, 34.201 78.065, 38.114 80.573 C 46.425 85.900, 54.864 93.512, 56.119 96.814 C 57.884 101.455, 54.470 104.206, 40.343 109.523 C 25.607 115.069, 24.308 121.688, 36.188 130.683 C 39.110 132.895, 42.015 134.993, 42.643 135.346 C 43.272 135.698, 47.322 134.213, 51.643 132.047 C 60.018 127.847, 71.525 125, 80.121 125 C 82.984 125, 92.905 125.734, 102.168 126.632 C 114.440 127.821, 120.364 127.995, 124.004 127.276 L 129 126.288 129 129.260 C 129 131.987, 128.772 132.182, 126.250 131.613 C 119.811 130.160, 109.300 129.769, 107.179 130.904 C 103.561 132.840, 104.380 136.997, 109.750 143.967 C 122.060 159.944, 123.480 163.340, 118.383 164.619 C 115.530 165.335, 96.774 164.477, 93.424 163.477 C 91.925 163.030, 90.742 160.978, 89.169 156.093 C 86.313 147.224, 81.786 140.545, 76.554 137.479 C 68.993 133.048, 61.818 135.052, 57.216 142.880 C 51.194 153.124, 54.977 167.913, 66.682 179.883 C 71.464 184.774, 73.552 186.136, 78.409 187.534 C 87.645 190.192, 97.821 189.207, 113.194 184.169 C 134.481 177.193, 145.857 176.840, 162.749 182.634 C 166.735 184.001, 170.413 184.863, 170.922 184.548 C 171.430 184.234, 170.643 181.845, 169.173 179.238 C 166.784 175.004, 166.504 173.490, 166.539 165 C 166.561 159.775, 166.959 151.657, 167.423 146.959 C 168.679 134.258, 169.848 135.653, 140.229 114.485 C 140.080 114.379, 140.457 111.967, 141.067 109.125 L 142.175 103.959 147.837 109.138 C 153.425 114.249, 161.794 118.971, 165.300 118.990 C 168.399 119.007, 172.903 116.088, 174.478 113.042 C 177.214 107.752, 178.166 96.533, 176.950 83.915 C 176.091 74.998, 176.115 71.314, 177.053 67.915 C 178.715 61.892, 178.521 45.032, 176.690 36.436 C 173.872 23.206, 167.812 14, 161.922 14 C 157.992 14, 151.869 20.364, 148.896 27.539 C 147.651 30.542, 146.367 33, 146.043 33 C 145.719 33, 144.365 29.803, 143.035 25.895 C 140.967 19.820, 138.795 16.719, 137.595 18.126 C 137.420 18.332, 138.940 22.887, 140.973 28.250 L 144.669 38 143.106 44 C 142.246 47.300, 141.229 50, 140.845 50 C 139.728 50, 133.924 39.317, 129.440 29.006 L 125.306 19.500 121.141 19.587 C 113.403 19.749, 109.246 26.508, 110.355 37.120 C 110.689 40.322, 112.611 50.267, 114.624 59.221 C 117.322 71.218, 118.313 77.999, 118.393 85 C 118.545 98.521, 118.149 98.887, 109.329 93.368 C 102.250 88.937, 102.132 88.793, 100.089 82.066 C 98.950 78.318, 96.440 72.956, 94.509 70.150 C 89.189 62.416, 89.731 60.114, 97.366 58.013 C 102.906 56.490, 108 52.673, 108 50.046 C 108 47.175, 104.405 43.420, 98.426 40.045 L 92.843 36.894 96.850 32.547 C 101.049 27.991, 105.551 20.217, 104.562 19.229 C 104.244 18.911, 96.727 19.194, 87.857 19.857 C 78.987 20.520, 71.580 20.913, 71.397 20.730 C 71.110 20.443, 102.908 16.612, 136.750 12.855 C 144.163 12.033, 147 11.342, 147 10.359 C 147 9.012, 145.579 8.888, 139.500 9.701 M 156.071 20.730 C 154.380 22.782, 151.791 27.531, 150.319 31.284 L 147.642 38.107 149.450 45.076 C 151.702 53.759, 151.940 59.801, 150.076 60.953 C 148.587 61.873, 144 60.278, 144 58.839 C 144 58.378, 143.601 58, 143.114 58 C 142.064 58, 138.864 74.283, 135.912 94.643 C 133.987 107.924, 133.939 109.367, 135.375 110.804 C 137.561 112.990, 138.092 112.080, 138.729 105.051 C 139.034 101.692, 139.698 98.686, 140.206 98.373 C 140.714 98.059, 143.636 100.572, 146.700 103.958 C 152.556 110.429, 160.906 115.975, 164.816 115.991 C 168.451 116.005, 171.045 114.135, 172.620 110.367 C 174.744 105.282, 175.396 92.825, 174.092 82.219 C 173.125 74.351, 173.203 71.697, 174.604 64.783 C 177.223 51.860, 175.096 35.042, 169.428 23.857 C 165.420 15.948, 160.887 14.887, 156.071 20.730 M 87.500 22.585 C 86.400 22.757, 81.048 23.193, 75.607 23.553 L 65.714 24.208 73.107 27.439 C 77.173 29.216, 82.395 31.644, 84.710 32.835 C 87.026 34.026, 89.352 35, 89.879 35 C 91.112 35, 96.741 29.036, 99.253 25.069 L 101.196 22 95.348 22.136 C 92.132 22.211, 88.600 22.413, 87.500 22.585 M 117.364 23.170 C 111.784 25.872, 111.727 33.214, 117.097 57.768 C 121.378 77.344, 122.513 91.584, 120.234 97.109 C 119.217 99.573, 119.485 99.949, 125.093 103.903 C 129.089 106.721, 131.155 107.666, 131.416 106.795 C 131.629 106.083, 132.550 99.875, 133.463 93 C 134.376 86.125, 136.232 74.788, 137.587 67.806 L 140.050 55.112 134.999 46.306 C 132.221 41.463, 128.521 34.013, 126.777 29.750 C 123.432 21.573, 122.298 20.780, 117.364 23.170 M 48 25.965 C 48 28.177, 54.260 33.803, 59.682 36.465 C 66.837 39.977, 77.332 40.953, 83.500 38.680 L 87.500 37.206 78.704 33.033 C 73.866 30.738, 67.383 27.992, 64.297 26.930 C 58.440 24.915, 48 24.297, 48 25.965 M 84.500 41.090 C 81.750 42.092, 77.700 42.985, 75.500 43.074 L 71.500 43.235 76.392 44.055 C 79.082 44.506, 82.581 45.412, 84.168 46.069 C 87.379 47.400, 91 51.885, 91 54.532 C 91 55.990, 91.632 56.155, 95.105 55.599 C 107.781 53.572, 108.035 48.627, 95.822 41.666 C 90.509 38.638, 91.138 38.670, 84.500 41.090 M 145.704 45 C 145.377 45.825, 144.659 48.232, 144.108 50.349 C 143.193 53.867, 143.338 54.425, 145.803 56.849 L 148.500 59.500 148.746 57 C 149.087 53.534, 146.448 43.123, 145.704 45 M 50 47.021 C 37.687 48.279, 35.479 48.813, 33.491 51.010 C 31.758 52.925, 31.805 53.021, 35.179 54.430 C 41.841 57.214, 51.563 58.169, 69.804 57.833 C 79.722 57.650, 88.140 57.197, 88.510 56.826 C 89.926 55.405, 86.329 50.417, 82.561 48.578 C 77.929 46.316, 63.600 45.631, 50 47.021 M 85.441 61.532 C 87.915 63.403, 89 63.393, 89 61.500 C 89 60.523, 88.042 60.011, 86.250 60.032 C 83.616 60.062, 83.582 60.126, 85.441 61.532 M 58.972 62.877 C 52.654 64.899, 42.872 69.923, 38.585 73.346 L 35.671 75.674 41.585 79.561 C 44.838 81.699, 50.087 86.011, 53.250 89.144 C 58.050 93.899, 59 95.413, 59 98.309 C 59 103.400, 56.577 105.586, 46 110.037 C 33.547 115.276, 31.561 116.461, 31.187 118.877 C 30.704 121.996, 32.578 124.616, 38.472 129.066 L 43.884 133.152 48.272 130.581 C 59.659 123.908, 75.044 121.272, 92.502 123.003 C 112.672 125.003, 121.334 125.284, 125.750 124.081 C 129.479 123.065, 130 122.575, 130 120.086 C 130 118.526, 130.265 115.926, 130.588 114.309 C 131.133 111.584, 130.686 111.028, 124.536 106.782 L 117.894 102.196 115.438 104.653 C 112.209 107.882, 107.795 109.644, 100.750 110.518 C 94.597 111.280, 93.471 110.347, 96.503 106.997 C 97.329 106.083, 98.478 102.783, 99.055 99.662 C 100.447 92.129, 99.155 89.705, 91.458 85.417 L 85.416 82.051 80.958 92.520 C 78.506 98.278, 76.235 102.992, 75.911 102.995 C 75.109 103.002, 64.777 88.571, 61.595 83 C 58.707 77.945, 58.248 72.869, 60.508 70.993 C 62.677 69.193, 68.061 70.332, 76.632 74.402 C 80.660 76.315, 84.143 77.570, 84.373 77.190 C 84.602 76.811, 85.480 74.162, 86.325 71.305 L 87.860 66.109 82.734 63.555 C 76.491 60.444, 67.386 60.184, 58.972 62.877 M 88.916 71.638 C 86.459 77.917, 87.077 79.749, 92.750 83.017 C 97.291 85.632, 97.997 85.802, 97.978 84.270 C 97.949 81.928, 94.545 74.508, 92.035 71.318 L 90.036 68.776 88.916 71.638 M 61 73.900 C 61 77.029, 71.954 95.617, 74.854 97.410 C 75.557 97.844, 79.052 90.687, 82.664 81.418 C 82.896 80.822, 79.893 78.864, 75.992 77.066 C 68.253 73.499, 61 71.967, 61 73.900 M 102 96.820 C 102 99.597, 101.537 103.087, 100.972 104.574 C 100.407 106.061, 100.136 107.470, 100.371 107.704 C 101.174 108.507, 109.478 105.796, 112.241 103.829 C 116.377 100.883, 116.674 101.290, 104.750 93.554 L 102 91.770 102 96.820 M 133 116.723 C 133 120.155, 133.091 120.262, 134.468 118.441 C 136.364 115.934, 136.375 114.358, 134.500 113.638 C 133.335 113.191, 133 113.880, 133 116.723 M 135.398 120.835 C 133.246 123.379, 132.097 126.005, 131.644 129.421 C 131.285 132.128, 130.797 134.536, 130.560 134.773 C 130.323 135.011, 127.062 134.667, 123.314 134.010 C 115.597 132.657, 107.836 132.952, 107.288 134.618 C 107.087 135.233, 110.540 140.557, 114.962 146.450 C 119.385 152.342, 123.294 158.322, 123.649 159.737 C 125.517 167.179, 116.722 169.571, 97.412 166.872 L 89.325 165.742 87.215 158.621 C 83.459 145.941, 76.641 138.007, 69.500 138.007 C 61.652 138.007, 56.221 146.165, 57.275 156.371 C 58.424 167.510, 68.751 181.428, 78.193 184.564 C 87.166 187.545, 95.644 186.771, 112 181.478 C 124.383 177.470, 128.041 176.710, 137.055 176.272 C 145.609 175.856, 149.117 176.144, 155.555 177.791 C 159.925 178.908, 164.226 180.112, 165.113 180.466 C 166.531 181.031, 166.488 180.407, 164.757 175.304 C 163.182 170.665, 162.909 167.995, 163.396 162 C 165.343 138.042, 165.342 137.621, 163.370 135.286 C 161.493 133.063, 139.937 116.981, 139 117.104 C 138.725 117.140, 137.104 118.819, 135.398 120.835" stroke="none" fill="black" fill-rule="evenodd"/>
</svg>