<svg xmlns="http://www.w3.org/2000/svg" width="200" height="200" viewBox="0 0 200 200" version="1.1">
	<path d="M 85.280 10.684 C 85.727 13.022, 85.621 13.063, 81.119 12.292 C 73.144 10.925, 67.954 11.343, 66.393 13.477 C 62.462 18.853, 72.659 30.190, 84.052 33.110 C 94.068 35.677, 89.747 36.500, 66.250 36.500 C 42.284 36.500, 37.705 37.203, 36.478 41.070 C 36.154 42.090, 36.368 43.820, 36.954 44.914 C 38.210 47.260, 48.729 55, 50.663 55 C 53.139 55, 52.027 53.283, 47.750 50.505 C 32.761 40.768, 35.868 39.014, 68.119 39.006 L 89.738 39 90.338 42.697 C 90.668 44.731, 90.728 46.605, 90.471 46.863 C 90.214 47.120, 85.840 47.651, 80.752 48.044 C 69.194 48.936, 63 50.541, 63 52.646 C 63 53.700, 63.547 54.004, 64.670 53.573 C 68.041 52.279, 74.703 51.126, 82.750 50.442 C 90.970 49.744, 91 49.751, 90.991 52.121 C 90.982 54.339, 90.574 54.514, 84.967 54.705 C 74.217 55.070, 62.979 61.981, 57.518 71.586 L 55.763 74.672 59.520 79.586 C 69.872 93.126, 70.149 105.483, 60.232 111.292 C 55.550 114.033, 46.481 115.138, 37.922 114.009 L 30.500 113.030 27.218 116.719 C 23.092 121.355, 22.315 124.306, 24.387 127.468 C 26.967 131.406, 32.477 132.275, 51.850 131.803 C 66.321 131.450, 68.903 131.597, 67.410 132.689 C 64.617 134.732, 55.359 137.952, 47.580 139.587 C 43.686 140.406, 39.850 141.724, 39.056 142.517 C 37.798 143.773, 37.927 144.296, 40.056 146.579 C 46.053 153.008, 50.063 155.370, 54.586 155.136 C 62.604 154.721, 66.877 158.579, 77.451 175.778 C 80.589 180.881, 84.216 185.750, 85.511 186.599 C 90.750 190.032, 93.919 184.548, 96.944 166.817 C 98.891 155.406, 100.078 153.045, 105.198 150.398 C 113.915 145.890, 119.742 151.006, 127.945 170.371 C 136.250 189.976, 140.902 192.470, 147.764 180.999 C 152.765 172.638, 155.218 165.245, 155.751 156.929 C 156.319 148.069, 154.898 144.325, 149.774 141.188 C 143.780 137.518, 138.384 136.831, 113.566 136.585 C 100.330 136.453, 88.740 136.005, 87.811 135.589 C 86.367 134.943, 86.625 134.390, 89.584 131.792 C 95.442 126.649, 103.796 126.137, 135.865 128.960 C 158.198 130.925, 163.407 131.111, 168.116 130.109 C 177.628 128.085, 180.437 122.769, 176.709 113.847 L 175.209 110.255 163.854 110.707 C 153.427 111.122, 152.133 110.969, 148.004 108.830 C 142.586 106.022, 139.473 100.941, 138.526 93.360 C 137.937 88.646, 139.344 64.067, 140.528 58.389 C 140.955 56.342, 140.553 56.263, 127.234 55.747 C 113.071 55.199, 109.646 54.568, 110.288 52.627 C 110.534 51.886, 116.281 51.294, 127.081 50.898 C 144.205 50.270, 151.321 48.662, 157.167 44.097 C 158.450 43.095, 160.512 41.958, 161.750 41.570 C 165.888 40.274, 164.064 37.894, 158.616 37.480 C 156.902 37.350, 148.075 34.540, 139 31.235 C 123.693 25.660, 122.497 25.044, 122.455 22.712 C 122.341 16.360, 113.586 12.265, 94.461 9.618 L 84.821 8.284 85.280 10.684 M 88.650 12.975 C 89.909 14.316, 119.139 24.194, 119.824 23.509 C 120.697 22.636, 119.017 20.058, 116.503 18.410 C 110.940 14.765, 85.710 9.841, 88.650 12.975 M 69.144 14.890 C 67.056 16.213, 70.525 22.643, 75.121 25.973 C 78.590 28.486, 87.566 31.804, 88.418 30.888 C 88.617 30.675, 88.258 27.350, 87.622 23.500 L 86.465 16.500 81.982 15.330 C 76.557 13.915, 70.984 13.724, 69.144 14.890 M 90.500 24 C 91.164 27.872, 92.013 31.346, 92.386 31.719 C 93.396 32.730, 108.003 30.383, 112.901 28.423 C 115.962 27.198, 116.787 26.474, 115.831 25.851 C 114.762 25.154, 105.050 21.886, 90.896 17.460 C 89.451 17.008, 89.412 17.657, 90.500 24 M 114.624 30.427 C 109.911 32.789, 107.083 33.459, 100.333 33.813 C 94.725 34.108, 92.041 34.630, 92.286 35.378 C 92.875 37.173, 98.418 37.248, 106.759 35.574 C 111.017 34.719, 118.241 33.612, 122.813 33.114 C 127.385 32.616, 131.294 32.040, 131.499 31.834 C 131.705 31.628, 129.314 30.565, 126.187 29.472 L 120.500 27.483 114.624 30.427 M 137 35.340 C 137 36.077, 132.506 39.115, 127.012 42.090 C 117.085 47.468, 117.044 47.505, 120.221 48.333 C 123.708 49.241, 141.319 47.744, 147 46.057 C 148.925 45.485, 152.060 44.060, 153.968 42.891 L 157.436 40.765 147.968 37.383 C 137.235 33.550, 137 33.506, 137 35.340 M 118 36.653 C 112.775 37.428, 105.013 38.321, 100.750 38.637 L 93 39.212 93 42.406 C 93 47.171, 94.481 48, 102.995 48 C 110.312 48, 110.956 47.800, 120.545 42.542 C 134.112 35.103, 134.111 35.105, 130.500 35.180 C 128.850 35.215, 123.225 35.878, 118 36.653 M 94 52.481 C 94 54.360, 94.667 55.122, 96.750 55.624 C 104.966 57.602, 114.188 64.915, 115.609 70.579 C 116.597 74.515, 115.426 80.593, 113.033 83.954 L 110.863 87.002 114.431 94.135 C 118.404 102.077, 118.994 107.509, 116.364 111.960 C 114.403 115.280, 110.092 118, 106.792 118 C 105.391 118, 103.064 119.371, 101.201 121.293 L 98.010 124.585 110.255 124.618 C 116.990 124.637, 130.098 125.461, 139.384 126.451 C 162.673 128.932, 173.970 127.820, 175.534 122.892 C 175.849 121.900, 175.566 119.285, 174.906 117.081 L 173.705 113.073 164.603 113.657 C 154.542 114.303, 149.194 113.290, 143.988 109.752 C 135.811 104.195, 134.423 94.438, 137.208 62.112 L 137.500 58.723 126.331 58.466 C 120.188 58.324, 113.590 57.690, 111.669 57.056 C 108.332 55.954, 106.448 53.703, 107.474 52.043 C 107.946 51.279, 100.989 50, 96.360 50 C 94.514 50, 94 50.540, 94 52.481 M 78.500 58.376 C 72.318 60.366, 68.820 62.496, 64.880 66.668 C 58.836 73.066, 58.695 73.817, 62.548 79.066 C 67.625 85.982, 70 92.314, 70 98.935 C 70 106.052, 67.394 110.395, 60.961 114 C 56.887 116.283, 55.377 116.511, 43.553 116.628 L 30.606 116.756 28.308 119.628 C 23.804 125.257, 25.613 127.605, 35.663 129.170 C 40.577 129.935, 46.840 129.910, 57.996 129.080 L 73.500 127.928 76.845 124.214 C 83.621 116.691, 88.996 102.682, 91.009 87.298 L 92.082 79.096 89.041 74.898 C 87.368 72.589, 86 70.130, 86 69.433 C 86 67.692, 88.131 67.080, 90.302 68.198 C 91.952 69.048, 92.078 68.636, 91.802 63.313 L 91.500 57.500 87 57.294 C 84.525 57.180, 80.700 57.667, 78.500 58.376 M 95 64.216 L 95 70.567 101.962 77.682 C 109.513 85.399, 109.676 85.413, 112.528 78.588 C 113.759 75.641, 113.868 74.129, 113.030 71.592 C 111.326 66.427, 104.512 60.799, 97.250 58.559 C 95.080 57.890, 95 58.091, 95 64.216 M 90 71.882 C 90 72.432, 90.450 73.160, 91 73.500 C 91.550 73.840, 92 73.668, 92 73.118 C 92 72.568, 91.550 71.840, 91 71.500 C 90.450 71.160, 90 71.332, 90 71.882 M 95.038 76.511 C 95.060 77.605, 97.060 80.750, 99.485 83.500 C 103.050 87.544, 104.136 88.257, 105.166 87.230 C 106.196 86.203, 105.347 84.869, 100.720 80.241 C 96.310 75.832, 95.009 74.977, 95.038 76.511 M 93.326 90.194 C 91.511 103.500, 87.150 115.072, 80.250 124.889 L 78.571 127.279 85.535 126.557 C 91.915 125.895, 92.857 125.488, 96.750 121.709 C 99.088 119.440, 100.995 117.340, 100.990 117.042 C 100.984 116.744, 99.203 115.754, 97.032 114.842 C 89.365 111.623, 90.922 104.807, 100.326 100.428 C 105.964 97.803, 110.916 97.316, 112.800 99.200 C 113.460 99.860, 114 100.033, 114 99.585 C 114 98.345, 108.765 88.996, 108.091 89.032 C 107.766 89.049, 106.610 89.736, 105.522 90.558 C 103.676 91.954, 103.244 91.712, 99.010 86.910 L 94.475 81.766 93.326 90.194 M 102.030 102.583 C 94.585 105.812, 92.912 109.869, 97.950 112.474 C 102.015 114.576, 104.297 114.388, 106.709 111.750 C 109.517 108.679, 112.213 103.154, 111.482 101.971 C 110.607 100.555, 106.021 100.852, 102.030 102.583 M 114 105.070 C 114 105.658, 112.628 108.133, 110.952 110.570 C 107.654 115.364, 108.580 116.511, 112.545 112.545 C 114.077 111.014, 115 108.946, 115 107.045 C 115 105.370, 114.775 104, 114.500 104 C 114.225 104, 114 104.481, 114 105.070 M 80.190 129.735 C 77.334 129.991, 73.817 131.454, 69.762 134.075 C 63.451 138.154, 54.860 141.299, 46.669 142.527 C 44.087 142.914, 41.754 143.589, 41.483 144.027 C 41.213 144.465, 43.314 146.528, 46.153 148.613 C 50.357 151.698, 52.034 152.350, 55.186 152.122 C 62.952 151.562, 69.084 157.003, 78.959 173.216 C 84.678 182.606, 87.276 185.566, 88.911 184.555 C 90.390 183.641, 92.783 175.044, 94.633 164 C 96.376 153.595, 97.810 151.185, 104.210 147.903 C 106.251 146.856, 109.596 146, 111.644 146 C 114.783 146, 116.095 146.754, 119.997 150.803 C 123.586 154.527, 125.848 158.477, 130.063 168.380 C 135.580 181.341, 137.891 185, 140.561 185 C 142.449 185, 147.391 177.242, 150.085 170.049 C 156.387 153.224, 154.282 144.394, 143.134 140.887 C 140.957 140.202, 130.040 139.636, 115.910 139.476 C 94.447 139.232, 81 137.963, 81 136.179 C 81 135.806, 82.687 134.054, 84.750 132.288 C 88.781 128.834, 88.985 128.948, 80.190 129.735" stroke="none" fill="black" fill-rule="evenodd"/>
</svg>