<svg xmlns="http://www.w3.org/2000/svg" width="200" height="200" viewBox="0 0 200 200" version="1.1">
	<path d="M 123.500 11.537 C 116.900 12.261, 102.050 14.249, 90.500 15.955 C 78.950 17.662, 65.900 19.506, 61.500 20.053 C 50.297 21.446, 43 23.138, 43 24.343 C 43 25.837, 52.218 34.482, 57.092 37.558 C 59.395 39.012, 62.844 40.743, 64.756 41.405 C 68.163 42.584, 68.048 42.633, 59.109 43.824 C 49.229 45.139, 38.074 48.718, 34.899 51.591 C 32.199 54.035, 32.878 57.184, 36.476 58.904 C 38.125 59.691, 43.838 60.537, 49.280 60.799 L 59.107 61.273 55.304 62.982 C 43.026 68.498, 37.654 81.456, 43.035 92.572 C 45.787 98.257, 54.294 106.093, 62.089 110.124 L 68.500 113.439 57.500 114.191 C 45.217 115.032, 32.038 117.412, 27.943 119.530 C 22.780 122.200, 23.159 126.030, 28.873 128.919 C 39.874 134.482, 63.489 135.779, 76.492 131.534 C 91.491 126.638, 109.486 124.470, 111.816 127.279 C 113.454 129.252, 110.008 135.914, 101.131 147.936 C 96.841 153.746, 92.328 159.959, 91.103 161.742 C 89.878 163.525, 85.641 167.057, 81.688 169.591 C 64.318 180.726, 62.236 188.201, 76.933 186.665 C 94.091 184.871, 117.562 172.661, 122.852 162.777 L 124.155 160.342 130.327 166.270 C 147.066 182.346, 162.214 188.964, 169.617 183.437 C 173.266 180.713, 174.378 177.118, 173.073 172.271 C 170.599 163.084, 159.343 155.196, 145.350 152.845 C 136.313 151.327, 136 150.846, 136 138.507 C 136 128.393, 137.445 117.219, 140.129 106.587 C 145.113 86.839, 150.461 86.486, 149.018 106 C 147.354 128.490, 151.948 141.251, 160.534 137.987 C 165.633 136.048, 172.311 125.988, 174.913 116.323 C 178.624 102.540, 178.095 82.037, 173.953 79.128 C 171.312 77.273, 171.446 74.329, 174.984 56.500 C 178.257 40, 178.875 27.004, 176.638 21.718 C 174.409 16.452, 171.622 14.673, 164.833 14.182 C 160.657 13.880, 158.152 13.152, 156.870 11.870 C 155.281 10.281, 153.535 10.017, 145.250 10.111 C 139.887 10.172, 130.100 10.814, 123.500 11.537 M 121 14.582 C 109.043 16.004, 82.915 19.622, 77.229 20.643 L 73.958 21.230 78.017 23.239 C 82.235 25.325, 84.988 29.243, 85.017 33.200 C 85.031 35.056, 86.606 36.324, 93.185 39.772 L 101.336 44.043 105.168 41.508 C 108.474 39.320, 109 38.458, 109.002 35.236 C 109.005 27.276, 114.387 21.259, 122.688 19.934 C 128.870 18.947, 132 19.678, 132 22.108 C 132 24.339, 133.778 24.542, 136.527 22.625 C 137.612 21.868, 141.875 19.817, 146 18.067 C 150.125 16.317, 153.928 14.461, 154.450 13.943 C 155.849 12.554, 134.641 12.960, 121 14.582 M 158.995 16.888 C 157.068 17.282, 153.005 18.636, 149.966 19.895 L 144.441 22.185 147.205 30.449 C 151.133 42.191, 152.506 52.425, 150.821 57.402 C 150.094 59.549, 148.709 61.799, 147.741 62.402 C 142.953 65.391, 135.664 54.824, 132.484 40.282 C 129.819 28.098, 130.613 28.563, 121.696 33.973 C 117.403 36.578, 113.473 39.127, 112.961 39.639 C 112.387 40.213, 113.588 46.878, 116.096 57.035 C 120.721 75.764, 122.093 90.023, 119.993 97.524 C 118.763 101.916, 118.358 102.275, 108.110 108.042 C 102.275 111.326, 95.562 114.756, 93.193 115.664 C 89.255 117.174, 88.750 117.179, 87.295 115.724 C 85.840 114.269, 86.294 112.964, 92.602 100.481 C 99.303 87.218, 99.500 86.615, 99.500 79.340 C 99.500 71.970, 99.441 71.797, 95.765 68.426 C 93.710 66.542, 91.631 65, 91.145 65 C 90.658 65, 87.728 68.994, 84.633 73.877 C 77.601 84.969, 71.698 91.240, 68.691 90.812 C 67.268 90.609, 66.383 89.673, 66.166 88.141 C 65.756 85.241, 70.445 69.743, 73.136 65.102 L 75.107 61.704 69.304 62.319 C 57.894 63.527, 48.925 68.377, 45.364 75.263 C 43.337 79.183, 43.319 86.435, 45.325 91.235 C 48.393 98.578, 61.254 108.121, 73.250 111.956 C 75.313 112.616, 77 113.734, 77 114.442 C 77 115.378, 73.805 115.915, 65.250 116.416 C 43.787 117.673, 27 120.967, 27 123.923 C 27 125.496, 32.200 127.837, 39.710 129.646 C 49.278 131.951, 68.012 131.916, 74 129.582 C 80.267 127.140, 94.162 124.164, 102.500 123.478 C 111.888 122.706, 114.528 124.063, 114.428 129.612 C 114.347 134.057, 113.229 135.917, 98.789 155.604 C 91.085 166.107, 88.951 168.315, 82.656 172.303 C 74.755 177.308, 70 181.309, 70 182.952 C 70 183.531, 72.062 184, 74.606 184 C 90.500 184, 119.354 168.754, 121.646 159.144 C 121.993 157.690, 122.440 156.204, 122.640 155.842 C 122.840 155.480, 126.719 158.858, 131.260 163.348 C 140.956 172.935, 150.058 179.286, 157.440 181.613 C 163.691 183.583, 167.333 182.947, 169.599 179.489 C 175.412 170.618, 160.509 157.172, 142.816 155.323 C 138.110 154.831, 136.533 154.217, 135.352 152.415 C 130.522 145.043, 134.472 107.945, 141.589 93.844 C 144.164 88.741, 145.557 87.785, 148.331 89.214 C 151.829 91.016, 152.632 95.099, 151.657 106.134 C 150.187 122.779, 152.945 136, 157.888 136 C 160.897 136, 164.455 132.502, 167.738 126.314 C 172.872 116.638, 174.423 109.858, 174.463 96.915 C 174.499 85.680, 174.410 85.200, 171.542 81.061 L 168.585 76.794 170.380 66.647 C 175.925 35.311, 176.167 33.494, 175.510 28.230 C 174.358 19.016, 168.442 14.953, 158.995 16.888 M 119.500 23.505 C 117.300 24.311, 115.399 24.977, 115.276 24.985 C 114.366 25.046, 112 31.475, 112 33.887 L 112 36.874 121.049 31.309 C 127.247 27.496, 130.001 25.232, 129.790 24.122 C 129.379 21.948, 124.545 21.658, 119.500 23.505 M 58.309 23.721 C 57.562 24.238, 61.659 26.243, 69.309 29.104 C 78.030 32.366, 81.589 33.300, 81.813 32.384 C 82.345 30.211, 80.093 27.100, 76.720 25.349 C 73.224 23.534, 60.239 22.386, 58.309 23.721 M 137.172 25.297 L 132.843 27.470 133.497 31.985 C 135.305 44.464, 140.168 56.893, 144.222 59.393 C 149.581 62.697, 150.043 48.099, 145.067 32.750 C 143.329 27.387, 141.815 23.028, 141.703 23.062 C 141.591 23.096, 139.552 24.102, 137.172 25.297 M 51.733 29.750 C 61.331 38.697, 73.617 42.560, 78.893 38.287 L 81.265 36.367 66.950 31.122 C 59.077 28.237, 51.254 25.651, 49.567 25.374 C 46.562 24.881, 46.606 24.970, 51.733 29.750 M 82.439 39.099 C 82.065 39.703, 80.351 40.810, 78.630 41.560 L 75.500 42.922 79.685 42.961 C 81.987 42.982, 85.137 42.516, 86.685 41.925 L 89.500 40.849 87 39.460 C 83.926 37.752, 83.302 37.702, 82.439 39.099 M 105.584 44.343 C 103.512 46.001, 103.026 46.898, 103.904 47.441 C 105.809 48.618, 106.866 52.305, 105.852 54.240 C 104.703 56.433, 100.599 58.534, 95.750 59.412 C 91.205 60.235, 91.034 61.833, 95.205 64.500 C 100.941 68.168, 102.500 71.345, 102.500 79.366 C 102.500 86.253, 102.199 87.186, 95.823 100.029 C 92.150 107.426, 89.300 113.634, 89.490 113.823 C 90.080 114.414, 98.915 110.199, 108.083 104.953 L 116.874 99.922 118.059 94.218 C 118.948 89.935, 118.967 86.565, 118.137 80.694 C 116.931 72.167, 109.808 42.009, 109 42.009 C 108.725 42.010, 107.188 43.060, 105.584 44.343 M 86 45 C 85.175 45.533, 79.194 45.976, 72.708 45.985 C 59.660 46.002, 48.036 47.968, 41.070 51.338 C 30.666 56.371, 36.982 58.192, 63.234 57.728 L 82.500 57.388 87.652 53.670 C 93.063 49.766, 94.313 47.978, 93.362 45.500 C 92.716 43.818, 88.294 43.518, 86 45 M 96 46 C 96 46.550, 96.450 47, 97 47 C 97.550 47, 98 46.550, 98 46 C 98 45.450, 97.550 45, 97 45 C 96.450 45, 96 45.450, 96 46 M 97.637 50.250 C 94.475 53.124, 92.952 57.616, 95.466 56.651 C 96.400 56.293, 97.752 56, 98.471 56 C 99.190 56, 100.788 55.182, 102.022 54.183 C 103.933 52.636, 104.093 52.042, 103.098 50.183 C 101.626 47.433, 100.723 47.444, 97.637 50.250 M 89.559 55.532 C 87.986 56.721, 87.918 57, 89.202 57 C 90.073 57, 91.045 56.325, 91.362 55.500 C 92.059 53.683, 92.002 53.684, 89.559 55.532 M 85.750 60.662 C 86.438 60.940, 87.563 60.940, 88.250 60.662 C 88.938 60.385, 88.375 60.158, 87 60.158 C 85.625 60.158, 85.063 60.385, 85.750 60.662 M 77.210 64.807 C 75.819 65.877, 73.762 69.896, 71.973 75.035 C 68.926 83.789, 68.281 88, 69.985 88 C 71.253 88, 78.967 78.189, 83.635 70.639 C 86.540 65.942, 86.985 64.605, 85.880 63.904 C 83.654 62.495, 79.676 62.909, 77.210 64.807" stroke="none" fill="black" fill-rule="evenodd"/>
</svg>