<svg xmlns="http://www.w3.org/2000/svg" width="200" height="200" viewBox="0 0 200 200" version="1.1">
	<path d="M 93 12.506 C 87.775 13.221, 77.425 14.946, 70 16.340 C 62.575 17.734, 53.350 19.164, 49.500 19.518 C 41.594 20.244, 36 22.356, 36 24.614 C 36 25.700, 36.596 25.946, 38.085 25.473 C 39.514 25.020, 40.907 25.503, 42.511 27.010 C 45.314 29.644, 48.008 28.771, 45.530 26.033 C 44.036 24.382, 44.139 24.222, 47.073 23.635 C 50.557 22.939, 58.096 24.467, 74.250 29.146 C 82.629 31.573, 85 32.645, 85 34.007 C 85 37.154, 82.133 38.418, 75.148 38.350 C 71.491 38.314, 64.779 37.479, 60.232 36.494 C 52.732 34.869, 49.587 34.921, 51.306 36.639 C 52.867 38.200, 63.291 40.216, 72 40.641 C 83.421 41.199, 85.747 40.297, 88.651 34.183 C 89.013 33.420, 109.235 42.449, 109.663 43.564 C 109.924 44.245, 108.490 47.097, 106.475 49.901 C 103.514 54.023, 102.256 55, 99.906 55 C 97.020 55, 96.093 53.371, 97.888 51.450 C 100.014 49.174, 100.083 46.083, 98.051 44.051 C 95.493 41.493, 88.138 41.349, 70 43.500 C 55.274 45.247, 37.109 45.435, 31.576 43.899 C 27.979 42.901, 27.503 43.005, 25.864 45.155 C 21.691 50.626, 22.964 56.735, 28.802 59.253 C 31.640 60.477, 56.646 60.747, 61.716 59.609 L 64.500 58.984 62 60.456 C 60.625 61.265, 57.250 62.619, 54.500 63.464 C 46.958 65.781, 39.833 70.099, 37.282 73.898 C 32.436 81.114, 35.142 88.119, 48.327 102.491 C 55.388 110.187, 56.090 111.313, 55.500 113.999 C 55.140 115.637, 54.330 117.296, 53.699 117.686 C 53.068 118.076, 48.265 118.437, 43.026 118.489 C 34.424 118.573, 32.846 118.898, 26.757 121.839 C 21.610 124.325, 19.858 125.716, 19.356 127.716 C 18.113 132.669, 25.044 135.479, 41.962 136.881 L 49.423 137.500 50.128 140.961 C 50.590 143.225, 50.352 145.352, 49.442 147.113 C 48.238 149.440, 48.264 150.528, 49.636 155.152 C 54.730 172.319, 64.986 181.981, 81.931 185.573 C 91.544 187.611, 132.491 187.524, 142.792 185.444 C 153.458 183.290, 159.411 180.271, 159.810 176.813 C 160.032 174.893, 159.461 173.694, 157.810 172.613 C 148.208 166.331, 116.773 166.484, 104.247 172.874 L 100.281 174.897 99.702 167.980 C 99.383 164.176, 98.172 158.917, 97.012 156.294 C 92.301 145.643, 87.231 143.423, 69.712 144.336 C 55.468 145.078, 54.098 144.645, 56.431 140.133 C 57.827 137.434, 58.592 137, 61.953 137 C 69.552 137, 81.611 134.831, 90.119 131.935 C 99.489 128.744, 106.232 128.278, 112.197 130.408 C 114.231 131.134, 120.335 134.264, 125.762 137.364 C 143.162 147.302, 147.029 144.610, 149.285 120.982 L 150.385 109.464 157.094 106.167 C 165.987 101.797, 175.344 93.283, 177.522 87.581 C 178.968 83.795, 179.013 82.796, 177.850 80.344 C 175.742 75.902, 169.981 73.653, 160.500 73.571 L 152.406 73.500 152.453 51.500 C 152.494 32.487, 152.251 28.855, 150.667 24.748 C 146.526 14.016, 138.094 14.338, 125.874 25.696 L 123.248 28.137 122.553 23.505 C 121.665 17.586, 117.846 13.205, 112.500 11.971 C 107.486 10.814, 104.836 10.886, 93 12.506 M 90.500 15.590 C 85.550 16.357, 78.350 17.558, 74.500 18.260 L 67.500 19.537 73.845 21.857 C 77.335 23.133, 81.835 25.629, 83.845 27.404 C 85.855 29.179, 89.750 31.461, 92.500 32.475 C 95.250 33.489, 100.867 35.844, 104.981 37.708 L 112.463 41.097 116.721 36.299 C 120.600 31.928, 120.929 31.143, 120.420 27.500 C 120.112 25.300, 119.392 21.994, 118.821 20.153 C 116.905 13.987, 109.037 12.719, 90.500 15.590 M 137.110 20.715 C 135.246 21.634, 131.426 24.495, 128.620 27.075 L 123.520 31.765 125.267 42.132 C 127.243 53.860, 127.640 83.798, 125.973 95.332 C 123.161 114.776, 113.427 122.314, 95.776 118.715 C 91.635 117.870, 85.379 115.980, 81.874 114.514 C 78.368 113.048, 74.772 111.621, 73.883 111.343 C 72.668 110.962, 70.740 113.574, 66.133 121.841 C 62.760 127.894, 60 133.106, 60 133.423 C 60 135.634, 79.494 132.757, 90.611 128.905 C 104.274 124.171, 109.881 125.151, 127.848 135.413 C 136.802 140.528, 138.411 141.134, 140.501 140.181 C 143.791 138.682, 145.941 131.063, 146.699 118.218 L 147.305 107.937 156.056 103.417 C 168.669 96.903, 177.690 86.846, 175.662 81.561 C 174.235 77.844, 169.878 76.500, 159.250 76.500 L 148.910 76.500 149.705 64.500 C 151.393 39.013, 149.706 24.009, 144.763 20.547 C 142.018 18.624, 141.326 18.639, 137.110 20.715 M 68.500 24.543 C 72.900 25.867, 76.950 26.800, 77.500 26.617 C 78.892 26.153, 65.278 21.985, 62.645 22.068 C 61.465 22.105, 64.100 23.219, 68.500 24.543 M 117.730 39.287 L 115.222 42.575 118.611 46.273 C 120.475 48.307, 122 50.427, 122 50.985 C 122 54.223, 114.160 57.982, 107.383 57.994 C 104.860 57.999, 103.764 58.758, 101.633 61.979 C 100.185 64.167, 99 66.245, 99 66.597 C 99 66.948, 100.347 68.770, 101.994 70.646 C 111.284 81.226, 111.824 93.430, 103.339 101.050 C 98.335 105.545, 97.044 106.276, 89.268 109.020 L 81.634 111.715 88.567 114.088 C 97.935 117.294, 109.581 117.443, 113.677 114.408 C 117.230 111.775, 120.644 106.802, 122.115 102.118 C 123.897 96.440, 124.473 55.312, 122.917 44.812 C 122.199 39.965, 121.303 36, 120.925 36 C 120.547 36, 119.109 37.479, 117.730 39.287 M 66.500 46.639 C 55.675 48.045, 33.183 48.016, 29.893 46.592 C 27.733 45.656, 25.170 51.451, 26.676 53.868 C 29.370 58.194, 38.648 58.827, 65.327 56.506 C 74.772 55.684, 84.735 54.896, 87.467 54.756 C 91.884 54.528, 92.689 54.120, 94.740 51.068 C 96.008 49.181, 96.886 47.156, 96.692 46.568 C 96.158 44.958, 79.137 44.998, 66.500 46.639 M 110.107 49.345 C 108.398 51.829, 107 54.117, 107 54.430 C 107 54.744, 108.139 55, 109.532 55 C 112.579 55, 119 52.449, 119 51.238 C 119 50.763, 117.698 49.127, 116.107 47.602 L 113.213 44.830 110.107 49.345 M 83 57.911 L 79.500 58.558 82.949 59.294 C 85.465 59.831, 86.809 59.620, 87.914 58.515 C 89.631 56.798, 89.261 56.752, 83 57.911 M 91.655 58.829 C 90.745 59.835, 90 60.948, 90 61.303 C 90 62.019, 96.050 65.338, 96.417 64.824 C 99.105 61.054, 101 58.066, 101 57.596 C 101 56.095, 93.198 57.124, 91.655 58.829 M 65 62.426 C 63.075 63.162, 59.003 64.662, 55.952 65.759 C 33.468 73.842, 32.299 81.742, 50.726 101.066 L 57.560 108.233 63.255 95.480 L 68.949 82.728 66.427 79.731 C 62.954 75.603, 63.593 73.625, 68.617 72.952 C 73.976 72.235, 85.351 63.050, 82.346 61.867 C 79.279 60.660, 68.730 61, 65 62.426 M 83.963 66.282 C 82.568 67.502, 79.954 69.731, 78.155 71.235 L 74.883 73.969 77.955 78.435 C 79.645 80.891, 81.396 83.896, 81.846 85.112 C 82.567 87.061, 83.338 86.194, 88.332 77.825 C 91.449 72.601, 94 68.039, 94 67.689 C 94 66.969, 88.529 63.983, 87.300 64.032 C 86.860 64.049, 85.359 65.061, 83.963 66.282 M 87.727 84.203 C 83.057 92.066, 77.791 101.085, 76.026 104.243 L 72.817 109.987 76.158 109.386 C 90.343 106.838, 96.983 103.975, 102.262 98.132 C 106.472 93.472, 107.611 88.985, 106.054 83.201 C 104.943 79.074, 99.499 70.986, 97.359 70.282 C 96.731 70.075, 92.397 76.340, 87.727 84.203 M 68.232 78 C 69.738 80.412, 70.585 80.524, 71.393 78.418 C 72.289 76.084, 72.222 76, 69.492 76 C 67.233 76, 67.108 76.200, 68.232 78 M 73.625 79.534 C 72.610 82.181, 72.867 82.867, 75.531 84.612 C 79.119 86.963, 79.584 85.753, 76.714 81.530 C 74.759 78.653, 74.122 78.241, 73.625 79.534 M 67.864 91.777 C 60.774 107.522, 59.919 110.049, 60.547 113.400 C 61.148 116.602, 59.305 120, 56.967 120 C 55.919 120, 53 129.331, 53 132.682 C 53 136.269, 55.719 135.470, 57.874 131.250 C 58.928 129.188, 64.562 119.043, 70.395 108.706 C 76.228 98.370, 81 89.681, 81 89.397 C 81 89.114, 80.637 89.106, 80.193 89.381 C 79.749 89.655, 77.475 88.794, 75.139 87.467 L 70.892 85.055 67.864 91.777 M 29.601 123.473 C 22.795 126.271, 21.516 127.298, 22.299 129.337 C 23.051 131.296, 35.205 134, 43.256 134 L 49.617 134 51.172 127.500 L 52.727 121 44.114 121.024 C 37.323 121.042, 34.252 121.561, 29.601 123.473 M 52 138.500 C 52 139.325, 52.450 140, 53 140 C 53.550 140, 54 139.325, 54 138.500 C 54 137.675, 53.550 137, 53 137 C 52.450 137, 52 137.675, 52 138.500 M 51.986 148.025 C 50.532 150.743, 53.867 161.093, 58.338 167.735 C 67.913 181.961, 81.076 185.339, 121.500 183.942 C 141.759 183.242, 150.584 181.806, 155.866 178.350 C 157.930 176.999, 158.047 176.618, 156.784 175.355 C 154.049 172.621, 144.854 170.910, 132.500 170.838 C 119.231 170.761, 110.553 172.458, 103.098 176.590 C 100.677 177.931, 98.554 178.888, 98.381 178.715 C 98.208 178.542, 97.614 174.411, 97.060 169.534 C 95.925 159.546, 93.070 152.743, 88.674 149.552 C 86.127 147.703, 84.339 147.494, 70.643 147.444 C 62.280 147.414, 54.912 147.064, 54.269 146.666 C 53.587 146.245, 52.636 146.811, 51.986 148.025" stroke="none" fill="black" fill-rule="evenodd"/>
</svg>