<svg xmlns="http://www.w3.org/2000/svg" width="200" height="200" viewBox="0 0 200 200" version="1.1">
	<path d="M 68.582 14.973 C 41.100 15.579, 36.723 16.921, 55.720 18.918 C 62.199 19.599, 73.800 21.216, 81.500 22.511 C 89.200 23.806, 95.877 24.497, 96.337 24.046 C 97.663 22.747, 95.934 22.166, 85.389 20.361 C 79.950 19.430, 75.073 18.293, 74.550 17.834 C 74.028 17.375, 82.869 17, 94.199 17 L 114.797 17 117.360 24.250 C 121.777 36.746, 122.071 38.626, 119.915 40.577 C 118.126 42.196, 117.829 42.153, 114.196 39.749 C 98.571 29.408, 75.948 23.167, 57.882 24.213 C 52.095 24.548, 49.429 25.151, 48.198 26.402 C 46.599 28.028, 46.628 28.234, 48.684 29.921 C 51.200 31.986, 58.480 33.564, 72 34.974 C 85.398 36.372, 88 36.295, 88 34.500 C 88 33.378, 86.802 32.998, 83.250 32.992 C 70.659 32.970, 50.064 29.536, 51.845 27.755 C 53.610 25.990, 75.550 27.474, 85.430 30.028 C 94.390 32.344, 114.020 41.481, 114.732 43.668 C 115.136 44.909, 106.134 47.197, 100.083 47.391 C 97.040 47.488, 96.573 47.147, 95.808 44.263 C 95.246 42.142, 93.837 40.417, 91.725 39.263 C 88.828 37.679, 85.121 37.500, 55.252 37.500 L 22.004 37.500 22.002 40.061 C 21.996 46.900, 32.082 51.603, 49.500 52.883 L 58.500 53.545 53.252 55.352 C 50.365 56.346, 45.368 59.099, 42.148 61.470 C 35.908 66.064, 30.837 72.112, 32.704 72.735 C 33.309 72.936, 37.749 75.441, 42.569 78.301 C 52.304 84.075, 61 91.851, 61 94.780 C 61 98.869, 55.256 101.865, 40.500 105.473 C 34.450 106.952, 28.054 108.844, 26.287 109.678 C 19.196 113.022, 21.696 117.862, 33.384 123.414 L 40.296 126.698 46.349 124.814 C 49.678 123.778, 53.009 123.059, 53.751 123.215 C 54.567 123.387, 52.590 126.240, 48.759 130.420 C 42.433 137.322, 42.407 137.337, 39.059 136.170 C 33.714 134.307, 32.834 134.604, 33.187 138.149 C 33.633 142.631, 36.218 143.969, 40.121 141.738 C 43.094 140.039, 43.458 140.052, 50.315 142.094 L 57.426 144.211 50.188 146.506 C 29.508 153.063, 28.973 165.435, 48.448 186.742 L 54.154 192.984 57.472 190.453 C 66.421 183.628, 80.761 181.708, 111.687 183.194 C 144.437 184.769, 155.631 182.415, 160.541 172.921 C 161.841 170.407, 161.686 170.187, 154.688 164.648 C 140.255 153.223, 134.396 151.900, 121.364 157.118 C 114.754 159.765, 112.740 160.148, 108.039 159.651 C 103.167 159.137, 101.477 159.504, 94 162.703 C 89.325 164.703, 83.319 166.550, 80.654 166.806 L 75.807 167.273 77.375 164.242 C 79.662 159.820, 89.201 151.705, 96.420 148.040 C 102.603 144.902, 102.785 144.874, 109.097 146.080 C 117.529 147.692, 135.359 147.708, 140.908 146.108 C 145.260 144.854, 151 140.242, 151 138 C 151 135.779, 145.276 131.150, 140.908 129.839 C 133.869 127.727, 111.529 128.278, 99.591 130.858 C 94.141 132.036, 89.340 133, 88.922 133 C 88.062 133, 83.570 120.097, 84.208 119.458 C 84.436 119.231, 94.048 118.615, 105.569 118.089 C 117.913 117.526, 129.490 116.458, 133.759 115.487 C 140.320 113.994, 142.068 113.008, 152.304 105.026 C 171.236 90.262, 177.742 81.619, 174.967 74.921 C 173.272 70.828, 169.602 67.978, 156.931 60.917 C 150.928 57.571, 145.791 54.471, 145.517 54.028 C 145.243 53.584, 146.378 48.023, 148.040 41.669 C 151.348 29.018, 152.099 20.029, 150.053 17.563 C 147.166 14.085, 142.939 16.335, 132.534 26.889 C 128.153 31.333, 124.271 34.638, 123.908 34.234 C 123.545 33.830, 122.231 30.350, 120.988 26.500 C 119.745 22.650, 118.102 18.262, 117.338 16.750 L 115.949 14 104.224 14.223 C 97.776 14.345, 81.737 14.683, 68.582 14.973 M 140.378 22.888 C 137.692 25.027, 133.102 29.527, 130.178 32.889 L 124.862 39.001 126.431 48.870 C 129.269 66.720, 128.013 83.234, 123.092 92.781 C 120.803 97.223, 115.815 102.094, 111 104.591 C 106.443 106.955, 94.653 106.924, 86.600 104.527 L 80.700 102.771 86.543 99.636 C 93.750 95.768, 102.225 88.153, 104.383 83.606 C 105.272 81.731, 106 78.556, 106 76.549 C 106 72.489, 103.259 66.288, 102.060 67.635 C 100.732 69.128, 78.415 98.443, 77.714 99.616 C 77.348 100.230, 78.202 104.168, 79.614 108.366 L 82.181 116 88.840 115.981 C 92.503 115.970, 103.150 115.533, 112.500 115.010 C 129.669 114.049, 138.528 112.322, 142.609 109.143 C 143.769 108.239, 147.369 105.504, 150.609 103.064 C 158.474 97.142, 169.858 86.151, 171.598 82.800 C 175.067 76.118, 172.346 72.849, 155.123 63 C 147.910 58.875, 142.006 54.944, 142.004 54.265 C 142.002 53.586, 143.096 49.246, 144.437 44.622 C 149.153 28.345, 149.947 19, 146.612 19 C 145.869 19, 143.064 20.750, 140.378 22.888 M 25.003 41.765 C 24.999 43.334, 30.330 46.677, 35 48.034 C 43.266 50.437, 60.916 51.300, 77.298 50.101 C 86.161 49.452, 93.598 48.735, 93.826 48.507 C 95.033 47.301, 92.583 42.835, 89.973 41.486 C 87.417 40.164, 82.407 39.977, 55.991 40.218 C 31.829 40.438, 25.006 40.778, 25.003 41.765 M 119.276 45.953 C 117.503 48.071, 113.419 53.116, 110.202 57.165 L 104.353 64.526 106.756 69.013 C 111.457 77.791, 108.315 86.639, 97.313 95.608 C 94.473 97.923, 91.332 100.274, 90.333 100.833 C 87.140 102.621, 89.926 103.494, 98.831 103.497 C 106.510 103.500, 108.039 103.183, 112.223 100.723 C 121.043 95.539, 125.040 84.793, 124.939 66.540 C 124.905 60.468, 124.342 52.486, 123.689 48.801 L 122.500 42.103 119.276 45.953 M 104 49.704 C 99.875 50.510, 96.392 51.277, 96.260 51.408 C 96.129 51.539, 95.752 52.990, 95.423 54.633 C 94.896 57.270, 95.275 57.916, 98.663 60.155 L 102.500 62.691 108.263 55.345 C 111.432 51.305, 113.457 48.054, 112.763 48.119 C 112.068 48.185, 108.125 48.898, 104 49.704 M 83.631 52.703 C 82.792 53.542, 90.997 56.120, 92.180 55.389 C 92.631 55.110, 93 54.234, 93 53.441 C 93 52.408, 91.773 52, 88.667 52 C 86.283 52, 84.017 52.316, 83.631 52.703 M 59.459 56.395 C 56.686 57.069, 52.297 58.646, 49.705 59.901 C 45.048 62.155, 35.032 70.421, 36 71.211 C 36.275 71.436, 39.702 73.489, 43.616 75.775 C 57.923 84.129, 65.137 91.843, 63.492 97.027 C 62.374 100.546, 56.649 103.841, 46.972 106.533 C 28.793 111.590, 27.490 111.988, 26.040 112.930 C 23.835 114.361, 27.035 117.400, 34.425 120.891 L 40.537 123.779 49.889 121.158 L 59.241 118.537 66.513 109.256 L 73.785 99.975 69.788 87.737 C 63.177 67.494, 64.631 59.895, 72.859 71.695 C 75.085 74.888, 77.505 78.342, 78.238 79.371 C 79.446 81.070, 80.103 80.215, 85.348 70.121 L 91.127 58.999 88.313 57.927 C 80.377 54.906, 68.241 54.261, 59.459 56.395 M 88.743 69.326 C 86.154 74.372, 82.963 80.256, 81.651 82.402 L 79.266 86.304 73.892 77.926 C 70.733 73.002, 68.391 70.206, 68.211 71.144 C 67.950 72.497, 74.347 94.009, 75.679 96.258 C 76.345 97.382, 100.192 65.937, 99.670 64.624 C 99.424 64.006, 97.924 62.747, 96.336 61.826 L 93.450 60.152 88.743 69.326 M 68.706 110.721 L 62.911 118.091 70.706 117.411 C 74.993 117.037, 78.698 116.556, 78.939 116.343 C 79.360 115.971, 76.364 106.658, 75.106 104.425 C 74.773 103.834, 71.893 106.667, 68.706 110.721 M 76 119.556 C 75.175 119.734, 71.402 120.174, 67.615 120.534 C 60.103 121.248, 60.712 120.825, 50.870 132.162 L 45.954 137.824 51.227 139.525 C 63.288 143.417, 63.305 145.560, 51.305 149.123 C 41.659 151.986, 37 156.010, 37 161.478 C 37 166.545, 41.744 175.155, 48.871 183.026 L 54.657 189.415 57.466 187.205 C 59.012 185.990, 63.251 183.984, 66.888 182.748 C 73.260 180.582, 74.806 180.500, 109.500 180.500 C 142.005 180.500, 145.887 180.325, 149.486 178.702 C 153.897 176.713, 158.026 173.238, 157.953 171.576 C 157.883 169.992, 148.233 162.544, 142.186 159.406 C 135.467 155.920, 130.345 155.982, 122.500 159.644 C 117.637 161.913, 114.984 162.469, 108.500 162.578 C 101.861 162.690, 99.224 163.266, 93 165.965 C 87.872 168.188, 83.760 169.262, 80 169.358 C 74.578 169.498, 74.496 169.457, 74.204 166.484 C 73.981 164.206, 74.799 162.427, 77.543 159.221 C 81.938 154.086, 91.904 146.827, 98.356 144.062 C 102.547 142.265, 103.663 142.170, 108.289 143.218 C 116.783 145.141, 136.623 144.838, 142.162 142.701 C 147.964 140.462, 149 138.257, 145.617 135.347 C 138.934 129.598, 115.948 129.593, 91.886 135.335 L 86.272 136.674 83.448 127.837 C 80.622 118.993, 80.294 118.629, 76 119.556 M 36 139.031 C 36 139.564, 36.675 140, 37.500 140 C 38.325 140, 39 139.823, 39 139.607 C 39 139.391, 38.325 138.955, 37.500 138.638 C 36.675 138.322, 36 138.499, 36 139.031" stroke="none" fill="black" fill-rule="evenodd"/>
</svg>