<svg xmlns="http://www.w3.org/2000/svg" width="200" height="200" viewBox="0 0 200 200" version="1.1">
	<path d="M 119.917 11.384 C 119.688 11.595, 106.344 12.014, 90.265 12.316 C 74.185 12.617, 60.573 13.146, 60.015 13.491 C 59.457 13.836, 59 15.441, 59 17.059 C 59 21.995, 69.507 31.076, 79.738 34.982 L 83.976 36.601 64.238 37.742 C 42.517 38.998, 36.680 40.237, 36.188 43.693 C 35.958 45.307, 36.716 46.319, 39.062 47.532 C 44.322 50.252, 58.039 53.997, 62.926 54.047 L 67.500 54.094 62.594 56.009 C 52.597 59.913, 49.255 66.144, 52.543 74.751 C 53.523 77.317, 57.905 84.708, 62.282 91.175 C 67.159 98.382, 70.012 103.527, 69.651 104.467 C 68.999 106.165, 64.672 106.446, 59 105.157 C 51.758 103.512, 30.933 108.125, 29.571 111.676 C 27.123 118.055, 47.022 123.348, 73.500 123.360 C 90.072 123.368, 94.995 122.601, 107.225 118.105 C 113.172 115.918, 122.824 115.427, 132 116.843 L 136.500 117.537 136.331 122.354 C 136.238 125.004, 135.863 127.471, 135.499 127.836 C 135.135 128.201, 120.136 128.734, 102.168 129.021 C 67.380 129.576, 63.500 130.123, 63.500 134.474 C 63.500 138.730, 77.232 144.597, 89.567 145.611 C 98.037 146.307, 103 147.726, 103 149.450 C 103 151.946, 94.377 158.651, 80.500 166.948 C 61.236 178.464, 57 181.633, 57 184.526 C 57 185.822, 57.544 187.218, 58.208 187.629 C 58.872 188.039, 63.655 188.304, 68.836 188.218 L 78.256 188.061 84.097 182.489 C 94.216 172.837, 105.419 169.502, 119.607 171.919 C 123.398 172.565, 132.350 174.837, 139.500 176.968 C 160.442 183.210, 166.604 184.074, 174.500 181.875 L 178.500 180.762 173.500 176.341 C 170.750 173.909, 161.890 166.933, 153.810 160.838 C 145.731 154.744, 138.852 149.057, 138.524 148.201 C 137.515 145.574, 140.373 143.892, 151.653 140.476 C 159.080 138.227, 163.024 137.478, 164.181 138.097 C 166.556 139.368, 170.381 139.219, 171.800 137.800 C 172.460 137.140, 173 135.516, 173 134.192 C 173 132.093, 172.663 131.868, 170.383 132.440 C 161.905 134.568, 162.275 134.726, 150.051 123.736 L 144.784 119 152.142 118.996 C 160.687 118.992, 164.856 117.056, 167.655 111.794 C 170.032 107.328, 170.638 90.192, 168.798 79.500 C 167.531 72.138, 167.560 71.365, 169.158 69.803 C 172.229 66.801, 173.281 60.287, 172.679 48 C 172.046 35.085, 169.295 23.644, 165.391 17.691 C 163.250 14.425, 162.441 13.925, 159.728 14.191 C 154.704 14.682, 150.823 22.345, 146.404 40.500 C 145.792 43.014, 145.310 41.720, 143.423 32.500 C 142.186 26.450, 141.134 19.138, 141.086 16.250 L 141 11 130.667 11 C 124.983 11, 120.146 11.173, 119.917 11.384 M 95.500 14.961 L 79.500 15.500 89.921 16.500 C 97.288 17.207, 100.478 17.911, 100.805 18.901 C 101.181 20.042, 100.082 20.198, 94.884 19.742 L 88.500 19.182 97.500 23.433 C 105.940 27.419, 106.557 27.567, 107.415 25.814 C 108.685 23.220, 110.564 24.141, 110.199 27.178 C 109.936 29.367, 110.627 29.997, 115.699 32.195 C 118.890 33.577, 123.582 35.465, 126.128 36.390 C 128.673 37.315, 131.540 38.939, 132.499 39.999 C 136.231 44.123, 131.830 47.371, 118.929 50.015 C 113.849 51.055, 109.284 52.316, 108.783 52.817 C 108.237 53.363, 109.774 54.680, 112.635 56.113 C 122.398 61.007, 123.861 68.404, 117.613 81.286 L 114.115 88.500 119.808 94.326 C 125.092 99.734, 125.765 100.118, 129.203 99.677 C 131.240 99.416, 134.233 98.258, 135.855 97.103 C 138.409 95.285, 138.891 94.167, 139.458 88.752 C 139.817 85.313, 141.051 75.412, 142.198 66.750 L 144.284 50.999 141.676 37.750 C 140.241 30.462, 138.769 22.138, 138.405 19.250 L 137.742 14 124.621 14.211 C 117.405 14.328, 104.300 14.665, 95.500 14.961 M 157.783 17.750 C 154.516 21.496, 151.718 29.327, 148.968 42.431 C 147.320 50.281, 147.226 52.669, 148.195 62.179 C 149.538 75.375, 148.396 83.779, 144.078 92.481 C 141.596 97.482, 141.040 99.938, 140.795 107 L 140.500 115.500 147.500 116.311 C 164.991 118.339, 169.895 110.211, 166.614 84.632 C 165.739 77.807, 164.744 71.497, 164.404 70.611 C 163.989 69.529, 164.330 69, 165.444 69 C 168.921 69, 170.279 62.511, 169.736 48.500 C 169.202 34.742, 166.781 24.328, 162.818 18.750 C 160.530 15.530, 159.840 15.393, 157.783 17.750 M 62 18.157 C 62 20.379, 70.902 27.677, 77.686 31.017 C 86.664 35.437, 96.730 36.239, 101.958 32.951 C 105.210 30.906, 105.305 30.696, 103.563 29.422 C 102.544 28.677, 96.488 25.870, 90.105 23.183 C 80.685 19.219, 76.947 18.173, 70.250 17.626 C 64.114 17.126, 62 17.262, 62 18.157 M 104.102 34.586 L 100.704 37 103.887 37 C 107.867 37, 112.741 34.086, 110.810 32.861 C 108.891 31.644, 107.873 31.906, 104.102 34.586 M 114.502 41.250 C 113.421 44.138, 112.354 46.907, 112.133 47.404 C 111.594 48.615, 120.265 47.390, 126.250 45.410 C 131.245 43.758, 131.870 42.967, 129.641 41.117 C 128.660 40.303, 117.675 36, 116.578 36 C 116.518 36, 115.584 38.362, 114.502 41.250 M 109.734 38.404 C 108.396 39.419, 101.120 39.873, 79.734 40.276 C 53.803 40.766, 39 42.099, 39 43.946 C 39 45.112, 43.756 46.973, 53.179 49.495 C 61.601 51.749, 62.651 51.803, 81.541 50.948 C 107.934 49.755, 107.535 49.851, 110.544 43.914 C 113.972 37.149, 113.713 35.385, 109.734 38.404 M 102 52.393 C 102 53.342, 104.993 53.820, 105.527 52.956 C 105.852 52.430, 105.191 52, 104.059 52 C 102.927 52, 102 52.177, 102 52.393 M 77.761 55.994 C 62.154 57.490, 53.999 61.743, 54.001 68.386 C 54.002 72.566, 58.588 81.525, 66.487 92.778 C 70.069 97.881, 73 102.933, 73 104.005 C 73 105.077, 71.857 106.703, 70.460 107.618 C 68.281 109.046, 67.005 109.131, 61.475 108.214 C 53.584 106.907, 42.783 108.109, 34.750 111.188 C 31.004 112.624, 31.285 113.497, 36.115 115.429 C 43.298 118.303, 54.099 120.117, 67.565 120.709 C 82.981 121.388, 94.836 119.936, 103.432 116.318 C 110.364 113.401, 120.522 112.421, 129.835 113.773 L 136.171 114.692 130.679 109.201 L 125.188 103.710 118.638 105.355 C 109.589 107.628, 107.361 107.481, 105.395 104.481 C 103.812 102.064, 103.879 101.689, 107.025 95.298 L 110.305 88.635 102.525 81.177 L 94.746 73.718 90.123 78.788 C 82.789 86.831, 78.953 87.655, 79.061 81.167 C 79.095 79.150, 79.896 75.025, 80.841 72 C 82.347 67.180, 82.914 66.459, 85.425 66.170 C 87.169 65.968, 89.366 66.634, 91.036 67.869 C 93.608 69.770, 93.874 69.791, 95.237 68.199 C 97.879 65.116, 103.200 56.867, 102.804 56.470 C 101.869 55.536, 85.744 55.229, 77.761 55.994 M 101.337 64.297 L 96.264 71.594 104.050 78.798 L 111.836 86.001 113.817 82.751 C 116.946 77.613, 119.196 69.859, 118.552 66.426 C 118.232 64.718, 116.964 62.378, 115.735 61.227 C 113.708 59.328, 108.974 57, 107.140 57 C 106.738 57, 104.127 60.284, 101.337 64.297 M 144.052 74.250 C 143.407 79.888, 142.687 85.850, 142.452 87.500 C 142.026 90.495, 142.028 90.495, 143.650 87 C 145.174 83.715, 146.971 64, 145.746 64 C 145.460 64, 144.697 68.612, 144.052 74.250 M 83.677 72.742 C 81.252 80.490, 81.062 82, 82.509 82 C 83.803 82, 92 73.388, 92 72.028 C 92 71.459, 89.647 70.033, 85.833 68.289 C 85.466 68.122, 84.496 70.125, 83.677 72.742 M 109.631 96.113 C 106.230 102.938, 106.287 104, 110.057 104 C 113.815 104, 122 102.008, 122 101.094 C 122 100.726, 119.809 98.267, 117.131 95.629 L 112.262 90.833 109.631 96.113 M 135 100.651 C 133.625 101.333, 131.626 102.159, 130.557 102.488 C 128.822 103.021, 129.058 103.529, 132.773 107.244 C 135.060 109.531, 137.196 111.138, 137.519 110.814 C 137.842 110.491, 137.970 107.793, 137.803 104.819 C 137.500 99.419, 137.497 99.414, 135 100.651 M 139.607 120.582 C 139.273 121.452, 139 124.152, 139 126.582 L 139 131 117.250 131.043 C 92.784 131.092, 70.047 132.315, 67.542 133.717 C 66.095 134.526, 66.066 134.810, 67.327 135.856 C 71.085 138.975, 81.874 142.250, 90.868 143.002 C 100.645 143.819, 105.115 145.752, 105.847 149.477 C 106.441 152.504, 96.133 161.009, 81.120 169.882 C 73.319 174.491, 65.080 179.608, 62.810 181.253 C 59.120 183.926, 58.874 184.350, 60.492 185.255 C 61.568 185.857, 65.343 186.011, 69.804 185.634 C 77.086 185.018, 77.460 184.855, 82.486 180.101 C 88.847 174.086, 95.580 170.577, 103.906 168.939 C 111.900 167.366, 121.624 168.709, 137.844 173.625 C 154.235 178.594, 160.712 179.974, 167.500 179.945 L 173.500 179.919 170 176.872 C 168.075 175.197, 160.650 169.404, 153.500 163.999 C 138.640 152.766, 134.670 148.952, 135.165 146.384 C 135.713 143.536, 141.072 140.538, 150.149 138.002 C 154.742 136.719, 158.681 135.525, 158.903 135.348 C 159.124 135.172, 157.999 134.013, 156.403 132.773 C 154.806 131.532, 150.699 127.926, 147.275 124.759 C 143.852 121.591, 140.862 119, 140.632 119 C 140.402 119, 139.941 119.712, 139.607 120.582 M 168.500 136 C 168.160 136.550, 168.359 137, 168.941 137 C 169.523 137, 170 136.550, 170 136 C 170 135.450, 169.802 135, 169.559 135 C 169.316 135, 168.840 135.450, 168.500 136" stroke="none" fill="black" fill-rule="evenodd"/>
</svg>