<svg xmlns="http://www.w3.org/2000/svg" width="200" height="200" viewBox="0 0 200 200" version="1.1">
	<path d="M 77.398 7.925 C 67.639 8.541, 65 9.738, 65 13.545 C 65 17.514, 70.954 24.064, 76.500 26.197 C 79.250 27.255, 82.543 29.146, 83.818 30.400 L 86.135 32.681 69.818 33.349 C 53.881 34.003, 42.289 35.705, 37.945 38.029 C 34.290 39.986, 37.168 41.205, 41.682 39.612 C 47.679 37.496, 61.866 36.006, 76.038 36.003 L 88.576 36 92.288 40.440 C 94.330 42.883, 96 45.125, 96 45.423 C 96 45.722, 84.675 46.086, 70.833 46.233 C 50.386 46.450, 45.579 46.761, 45.202 47.893 C 44.811 49.068, 48.887 49.208, 71.300 48.791 C 85.908 48.519, 98.251 48.567, 98.727 48.898 C 99.204 49.229, 101.786 52.425, 104.467 56 C 107.148 59.575, 109.769 63.063, 110.293 63.750 C 110.959 64.624, 110.770 65, 109.667 65 C 108.800 65, 105.398 61.463, 102.107 57.141 L 96.124 49.282 90.812 49.678 C 76.988 50.708, 69.237 53.097, 63.568 58.074 C 56.687 64.116, 57.749 72.706, 66.453 81.410 C 80.413 95.369, 103.264 100.019, 118.889 92.078 C 126.106 88.410, 126.501 88.584, 127.610 95.918 C 128.349 100.812, 127.500 102.849, 123.902 104.808 C 120.065 106.897, 107.358 105.501, 89 100.973 C 79.925 98.735, 69.728 96.639, 66.341 96.316 C 60.703 95.778, 59.970 95.939, 57.684 98.225 C 55.302 100.607, 54.503 100.746, 40.343 101.242 C 24.251 101.805, 20 102.789, 20 105.950 C 20 109.675, 32.029 113.861, 52.860 117.385 L 66.219 119.645 61.656 121.387 C 56.628 123.307, 51 128.948, 51 132.067 C 51 134.926, 53.466 140.434, 56.567 144.500 L 59.237 148 55.869 148.006 C 46.309 148.021, 39.992 152.929, 40.010 160.327 C 40.032 169.689, 49.887 183.111, 60.734 188.552 C 69.024 192.711, 78.302 192.701, 85.855 188.527 C 91.591 185.357, 98.253 178.547, 100.810 173.238 L 102.382 169.977 104.147 174.627 C 107.295 182.920, 112.658 186.848, 123.834 189.047 C 139.912 192.210, 163.826 185.330, 161.561 178.193 C 160.810 175.826, 157.037 174.128, 150.392 173.167 L 145.500 172.460 145.839 168.197 C 146.066 165.350, 145.275 161.456, 143.460 156.478 C 140.076 147.201, 140.554 146.231, 151.034 141.132 C 157.362 138.053, 158.500 137.119, 158.500 135 C 158.500 131.331, 153.350 129.239, 137.223 126.355 C 113.299 122.077, 112.263 121.831, 114.575 120.968 C 118.124 119.644, 135.769 117.128, 152.970 115.493 C 171.355 113.746, 173.530 113.367, 176.750 111.358 C 182.429 107.814, 178.065 103.499, 155.681 90.527 L 140.197 81.554 142.599 78.700 C 146.088 74.553, 145.763 70.456, 141.634 66.561 C 138.453 63.561, 133.735 61.263, 115.897 54.022 C 102.208 48.465, 102.295 48.405, 125.111 47.634 C 144.366 46.983, 161.087 45.247, 162.593 43.741 C 163.884 42.449, 159.868 37.891, 154.304 34.332 C 147.915 30.244, 137.739 25.472, 124.596 20.399 C 119.593 18.468, 114.375 15.840, 113 14.558 C 111.625 13.277, 109.098 11.521, 107.383 10.657 C 104.043 8.974, 93.109 6.907, 89 7.183 C 87.625 7.275, 82.404 7.609, 77.398 7.925 M 99.500 12.011 C 102.800 13.089, 105.950 13.826, 106.500 13.649 C 107.726 13.254, 101.776 11.342, 97 10.597 C 94.882 10.266, 95.869 10.824, 99.500 12.011 M 75.750 11.663 C 74.237 11.922, 73.020 12.665, 73.045 13.316 C 73.120 15.274, 83.417 25.828, 86.335 26.937 C 87.828 27.505, 92.055 28.450, 95.727 29.036 C 103.033 30.203, 110.917 29.009, 113.075 26.409 C 114.201 25.053, 114.709 20.376, 113.827 19.493 C 113.594 19.261, 107.875 17.479, 101.118 15.534 C 88.812 11.992, 80.898 10.784, 75.750 11.663 M 68 14.365 C 68 16.487, 71.851 20.872, 75.266 22.638 C 78.167 24.138, 78.063 23.893, 73.556 18.618 C 68.399 12.581, 68 12.276, 68 14.365 M 117 23.548 C 117 26.837, 112.754 30.768, 108.298 31.604 C 104.258 32.362, 91.401 31.601, 88.500 30.432 C 86.675 29.696, 86.629 29.783, 87.967 31.427 C 89.325 33.094, 91.116 33.190, 111.967 32.721 C 124.360 32.442, 135.850 31.792, 137.500 31.275 L 140.500 30.335 137.378 28.708 C 133.331 26.599, 119.236 21, 117.974 21 C 117.438 21, 117 22.146, 117 23.548 M 142.776 32.558 C 142.469 32.864, 137.877 34.002, 132.571 35.086 C 119.870 37.680, 107.758 41.557, 104.844 43.960 C 102.509 45.885, 102.552 45.891, 116.500 45.412 C 134.320 44.800, 156.092 43.027, 157.871 42.044 C 159.476 41.156, 155.101 37.535, 148.290 34.114 C 143.644 31.781, 143.572 31.761, 142.776 32.558 M 95.650 40.486 L 99.400 44.972 101.583 42.922 C 102.783 41.795, 106.405 39.787, 109.632 38.460 L 115.500 36.047 103.700 36.024 L 91.900 36 95.650 40.486 M 83.547 53.111 C 73.579 54.564, 66.800 57.525, 63.282 61.963 C 61.452 64.271, 61.757 69.603, 63.966 73.932 C 69.577 84.932, 91.208 95.059, 105.500 93.378 C 110.712 92.765, 124 87.347, 124 85.834 C 124 85.088, 119.977 78.161, 114.949 70.250 C 114.162 69.013, 112.615 67.999, 111.509 67.999 C 109.812 67.998, 109.500 68.657, 109.500 72.249 C 109.500 76.427, 109.437 76.505, 105.810 76.807 C 99.797 77.307, 92 72.549, 92 68.380 C 92 65.572, 94.667 64, 99.434 64 C 101.395 64, 103 63.704, 103 63.342 C 103 62.981, 101.145 60.281, 98.878 57.342 C 94.368 51.496, 94.460 51.521, 83.547 53.111 M 108.572 56.750 C 110.117 58.813, 112.472 61.960, 113.805 63.745 C 115.138 65.529, 120.991 69.912, 126.812 73.484 L 137.394 79.978 139.697 77.815 C 143.123 74.596, 142.720 70.651, 138.648 67.545 C 136.066 65.576, 107.956 53, 106.136 53 C 105.931 53, 107.027 54.688, 108.572 56.750 M 94.549 67.920 C 93.773 69.176, 98.347 72.629, 102.681 74.060 C 107.010 75.489, 108.303 74.169, 106.800 69.856 C 105.872 67.195, 105.439 67, 100.461 67 C 97.522 67, 94.862 67.414, 94.549 67.920 M 123.119 78.250 C 124.805 81.138, 126.542 83.876, 126.978 84.335 C 127.663 85.057, 134 82.577, 134 81.586 C 134 81.177, 121.113 73, 120.468 73 C 120.239 73, 121.432 75.362, 123.119 78.250 M 132.412 85.586 L 128.323 87.972 129.780 93.736 C 133.736 109.387, 123.136 112.122, 90 103.998 C 79.374 101.393, 69.947 99.667, 66 99.604 C 60.072 99.509, 59.473 99.689, 59.194 101.650 C 58.896 103.738, 58.392 103.811, 41.993 104.150 C 22.452 104.555, 19.558 105.568, 28.445 108.894 C 39.412 112.997, 57.539 116.085, 74.286 116.703 C 85.154 117.104, 89.957 117.631, 89.705 118.393 C 89.503 119.004, 85.619 119.811, 81.029 120.195 C 64.746 121.557, 54 126.561, 54 132.781 C 54 135.723, 58.356 143.202, 61.979 146.481 C 63.091 147.487, 64 149.028, 64 149.905 C 64 151.231, 62.663 151.500, 56.081 151.500 C 49.075 151.500, 47.863 151.780, 45.581 153.924 C 38.015 161.032, 47.451 179.003, 62.500 186.149 C 73.412 191.331, 84.121 189.073, 92.638 179.796 C 96.700 175.371, 99.495 171.162, 98.820 170.487 C 98.632 170.299, 96.008 170.998, 92.989 172.040 C 82.678 175.599, 73.952 173.856, 74.022 168.250 C 74.069 164.508, 78.230 157.588, 84.120 151.453 C 94.070 141.091, 104.666 137.245, 109.879 142.102 C 111.343 143.466, 111.892 144.783, 111.443 145.852 C 105.940 158.943, 104.461 170.123, 107.464 175.931 C 111.162 183.081, 120.193 187, 132.971 187 C 144.067 187, 157.496 183.012, 158.715 179.355 C 159.260 177.720, 153.592 176.025, 145.212 175.316 L 137.914 174.699 140.457 172.045 C 143.604 168.760, 143.795 163.970, 141.022 157.859 C 138.814 152.993, 138.448 147.900, 140.087 144.838 C 140.685 143.721, 144.510 141.287, 148.587 139.429 C 152.664 137.571, 156 135.605, 156 135.060 C 156 132.830, 150.393 131.284, 128.863 127.579 C 113.654 124.962, 109 123.528, 109 121.461 C 109 118.239, 122.607 115.602, 155.260 112.496 C 163.928 111.672, 172.432 110.421, 174.157 109.717 C 177.126 108.506, 177.202 108.345, 175.572 106.715 C 174.625 105.768, 171.971 103.727, 169.675 102.180 C 164.554 98.731, 137.473 82.961, 136.908 83.100 C 136.684 83.155, 134.660 84.274, 132.412 85.586 M 96.326 145.068 C 88.025 149.177, 76.458 163.157, 77.176 168.214 C 77.476 170.334, 77.973 170.496, 84 170.449 C 88.522 170.414, 92.307 169.653, 96.438 167.949 L 102.376 165.500 104.009 159 C 104.907 155.425, 106.395 150.765, 107.314 148.644 C 108.234 146.523, 108.738 144.385, 108.434 143.894 C 107.443 142.290, 100.596 142.954, 96.326 145.068" stroke="none" fill="black" fill-rule="evenodd"/>
</svg>