<svg xmlns="http://www.w3.org/2000/svg" width="200" height="200" viewBox="0 0 200 200" version="1.1">
	<path d="M 126.500 12.101 C 102.102 15.966, 76.174 18.961, 60.726 19.700 C 49.351 20.244, 45.705 21.038, 47.291 22.624 C 47.561 22.894, 52.218 23.780, 57.641 24.594 C 67.147 26.019, 82.645 29.538, 92 32.395 L 96.500 33.769 92.853 34.477 C 90.846 34.866, 84.256 34.661, 78.208 34.022 C 63.970 32.517, 52.252 34.363, 54.363 37.778 C 55.394 39.446, 62.944 39.875, 75.076 38.954 C 85.664 38.151, 87.452 38.262, 92.680 40.051 C 98.372 41.998, 109 48.486, 109 50.013 C 109 51.243, 101.651 53.845, 96.099 54.581 L 91 55.258 91 51.029 C 91 47.553, 90.395 46.195, 87.600 43.400 C 84.445 40.245, 83.741 40, 77.830 40 C 74.326 40, 68.212 40.900, 64.243 42 C 60.273 43.100, 54.207 44.003, 50.763 44.006 C 42.058 44.014, 32.910 45.656, 31.057 47.544 C 29.646 48.981, 29.719 49.309, 31.845 51.051 C 34.857 53.521, 39.473 54.733, 54.394 56.969 C 61.445 58.026, 64.778 58.829, 62.376 58.892 C 50.271 59.209, 42 66.347, 42 76.475 C 42 81.334, 45.351 92.274, 47.011 92.833 C 49.143 93.552, 47.764 97.030, 42.362 104.560 C 33.209 117.316, 32.288 122.030, 38.637 123.624 C 43.209 124.771, 56.188 123.230, 68.500 120.078 C 82.017 116.617, 82.309 116.574, 81.795 118.114 C 81.591 118.726, 75.615 122.214, 68.516 125.864 C 61.416 129.514, 55.152 133.261, 54.596 134.191 C 53.275 136.399, 56.097 139.643, 60.104 140.523 C 61.697 140.873, 63 141.363, 63 141.613 C 63 141.862, 61.479 143.587, 59.621 145.446 C 55.227 149.840, 53.462 156.639, 54.971 163.369 C 59.205 182.265, 76.600 193.362, 95.132 188.990 C 100.431 187.739, 110.812 182.935, 116.343 179.172 L 119.186 177.238 123.343 181.390 C 126.055 184.098, 129.364 186.142, 132.865 187.271 C 149.821 192.737, 179.010 183.702, 177.826 173.354 C 177.303 168.777, 171.839 166.725, 158.732 166.185 L 147.890 165.739 153.691 163.381 C 159.941 160.841, 163.735 158.367, 165.381 155.758 C 166.879 153.383, 163.887 150.478, 155.682 146.343 C 151.932 144.453, 149.040 142.381, 149.253 141.740 C 149.912 139.763, 158.085 136.251, 169.462 133.056 C 175.438 131.378, 180.523 129.811, 180.761 129.573 C 181.693 128.641, 167.241 124.921, 158.528 123.850 C 151.461 122.982, 146.798 123.010, 138.414 123.973 C 117.868 126.333, 109.435 126.441, 104.211 124.412 L 99.500 122.582 104.815 121.790 C 113.764 120.456, 120.490 116.381, 132.230 105.181 C 139.022 98.701, 143.689 94.982, 144.773 95.184 C 145.924 95.399, 147.333 97.961, 149 102.870 C 152.690 113.739, 159.549 118.836, 165.999 115.501 C 169.887 113.490, 172.453 108.289, 174.674 97.915 C 177.922 82.745, 176.949 42.114, 172.791 19.250 C 172.166 15.813, 171.371 13, 171.025 13 C 170.678 13, 169.557 15.362, 168.533 18.250 C 165.839 25.847, 157.854 42.686, 154.190 48.500 L 151.038 53.500 151.019 48.293 C 151.004 44.099, 147.496 28.391, 143.416 14.250 C 142.888 12.421, 143.163 12, 144.883 12 C 146.098 12, 147 11.361, 147 10.500 C 147 8.715, 148.727 8.580, 126.500 12.101 M 119 16.059 C 108.825 17.604, 92.334 19.675, 82.354 20.662 L 64.209 22.456 76.854 25.582 C 94.172 29.862, 104 33.150, 104 34.662 C 104 35.427, 102.044 36.191, 99.078 36.584 L 94.155 37.237 99.844 40.080 C 102.973 41.643, 107.100 44.548, 109.016 46.534 L 112.500 50.145 109.734 52.538 C 106.824 55.056, 102.317 56.584, 94.731 57.623 C 91.243 58.102, 90.040 58.739, 89.624 60.331 C 89.324 61.476, 89.174 62.491, 89.290 62.586 C 89.405 62.681, 91.878 63.954, 94.784 65.414 C 105.147 70.620, 110.376 78.351, 108.533 85.743 C 107.540 89.724, 99.524 96.989, 91.998 100.729 L 85.500 103.959 92.568 103.979 C 102.311 104.008, 108.715 101.922, 113.135 97.280 C 115.115 95.201, 117.245 91.970, 117.867 90.101 C 119.812 84.263, 119.138 71.956, 115.908 54.353 C 112.027 33.204, 112.136 25, 116.345 21.379 C 118.048 19.915, 120.378 19, 122.406 19 C 125.515 19, 125.857 19.370, 128.503 25.594 C 134.539 39.798, 146.312 56.615, 148.212 53.747 C 150.465 50.345, 141.694 12.820, 138.718 13.125 C 138.048 13.193, 129.175 14.514, 119 16.059 M 117.362 24.570 C 114.918 28.301, 115.311 35.779, 119.017 56 C 121.507 69.591, 122.127 75.353, 121.789 81.794 L 121.354 90.087 127.264 84.294 C 130.515 81.107, 136.746 73.775, 141.111 68 C 147.481 59.571, 148.697 57.432, 147.273 57.153 C 142.852 56.287, 134.656 44.957, 127.450 29.750 C 124.395 23.302, 123.380 22, 121.412 22 C 119.975 22, 118.385 23.009, 117.362 24.570 M 169.503 23.500 C 156.175 56.637, 132.766 87.184, 105.826 106.594 C 100.554 110.392, 95.402 113.997, 94.377 114.605 C 92.775 115.555, 92.705 115.940, 93.879 117.355 C 94.875 118.554, 96.904 119, 101.372 118.999 C 110.929 118.998, 118.039 115.107, 130.368 103.132 C 140.957 92.846, 143.630 91.197, 146.889 92.941 C 148.722 93.921, 153 103.378, 153 106.449 C 153 108.059, 158.117 112.585, 160.957 113.486 C 165.512 114.932, 168.901 110.555, 171.554 99.800 C 174.706 87.025, 174.415 43.322, 171.060 25.500 C 170.434 22.175, 170.171 21.837, 169.503 23.500 M 64.750 36.706 C 65.987 36.944, 68.013 36.944, 69.250 36.706 C 70.487 36.467, 69.475 36.272, 67 36.272 C 64.525 36.272, 63.513 36.467, 64.750 36.706 M 71.677 43.048 C 69.025 43.492, 65.425 44.397, 63.677 45.060 C 61.930 45.722, 54.955 46.598, 48.177 47.006 C 34.833 47.808, 31.156 49.162, 37.623 50.891 C 48.820 53.885, 66.356 56, 79.989 56 C 86.957 56, 87.822 55.789, 88.296 53.976 C 89.057 51.065, 87.206 45.175, 85.206 44.143 C 82.320 42.654, 76.733 42.202, 71.677 43.048 M 81.553 58.988 L 76.606 59.500 81.396 60.588 C 85.292 61.473, 86.286 61.419, 86.717 60.295 C 87.428 58.442, 87.251 58.397, 81.553 58.988 M 57 62.514 C 53.206 63.552, 50.492 65.096, 48.250 67.495 C 45.349 70.597, 45 71.600, 45 76.826 C 45 81.368, 45.693 84.067, 48.089 88.863 L 51.179 95.045 48.975 99.272 C 47.763 101.598, 45.530 105.075, 44.013 107 C 40.269 111.749, 37.008 117.226, 37.004 118.775 C 36.991 122.966, 48.960 122.291, 69.577 116.938 C 79.042 114.480, 81.145 114.228, 83.804 115.232 C 88.167 116.879, 88.672 115.744, 85.900 110.518 C 84.144 107.208, 82.901 106, 81.252 106 C 78.930 106, 78.069 103.477, 80.154 102.782 C 80.934 102.522, 80.260 99.469, 78.072 93.353 C 75.086 85.006, 74.653 84.344, 72.447 84.765 C 70.611 85.116, 69.785 84.621, 68.876 82.628 C 67.922 80.533, 68.038 78.731, 69.481 73.267 C 70.464 69.545, 71.591 66.139, 71.986 65.698 C 72.381 65.256, 73.285 67.632, 73.995 70.977 C 74.705 74.322, 75.642 77.279, 76.078 77.548 C 77.259 78.278, 85 67.104, 85 64.668 C 85 63.815, 76.129 62.028, 69.385 61.524 C 64.857 61.185, 60.617 61.524, 57 62.514 M 85.539 69.924 C 84.144 72.675, 81.649 76.470, 79.992 78.356 L 76.981 81.786 80.083 90.643 C 81.789 95.514, 83.551 99.885, 83.997 100.355 C 85.286 101.711, 98.630 94.152, 102.492 89.878 C 109.230 82.419, 106.212 74.589, 94.112 68.140 L 88.073 64.922 85.539 69.924 M 71 79.083 C 71 80.838, 71.463 82.012, 72.075 81.808 C 72.666 81.611, 73.116 81.124, 73.075 80.725 C 73.034 80.326, 73 79.100, 73 78 C 73 76.900, 72.550 76, 72 76 C 71.450 76, 71 77.388, 71 79.083 M 93.721 106.742 L 86.942 107.093 88.686 110.046 C 89.646 111.671, 90.816 113, 91.285 113 C 92.280 113, 101 107.122, 101 106.452 C 101 106.203, 100.888 106.088, 100.750 106.196 C 100.612 106.304, 97.449 106.549, 93.721 106.742 M 71.793 126.853 C 64.804 130.516, 58.565 134.035, 57.928 134.672 C 56.067 136.533, 61.883 138.901, 71.239 140.089 C 79.842 141.182, 91.560 144.479, 92.553 146.085 C 93.797 148.098, 89.859 147.991, 79.855 145.739 C 73.033 144.203, 68.411 143.647, 66.567 144.141 C 54.090 147.477, 54.262 167.873, 66.863 179.257 C 73.857 185.576, 76.426 186.500, 87 186.500 C 95.714 186.500, 97.100 186.219, 103.751 183.102 C 113.501 178.532, 114.266 177.410, 107.333 177.847 C 96.129 178.555, 88 174.614, 88 168.476 C 88 157.916, 111.523 142.209, 118.574 148.061 C 119.989 149.236, 120.139 150.680, 119.571 157.683 C 118.889 166.087, 120.217 174.602, 122.035 173.478 C 122.553 173.158, 122.733 173.531, 122.435 174.308 C 121.557 176.596, 126.553 181.561, 132.160 183.974 C 136.719 185.935, 138.618 186.158, 147.433 185.768 C 159.155 185.250, 167.280 182.603, 172.871 177.479 C 175.827 174.771, 176.217 173.967, 175.184 172.721 C 172.994 170.083, 165.513 169, 149.474 169 C 138.730 169, 133.946 168.662, 134.193 167.921 C 134.391 167.328, 139.041 165.378, 144.526 163.589 C 156.358 159.729, 163 156.485, 163 154.566 C 163 153.800, 159.608 151.497, 155.461 149.448 C 147.328 145.430, 145.291 143.192, 146.948 140.097 C 148.261 137.644, 155.362 134.229, 164.842 131.493 L 172.352 129.326 167.426 128.084 C 158.823 125.914, 146.276 125.662, 132.292 127.379 C 111.139 129.975, 106.184 129.495, 97.234 123.981 C 89.020 118.921, 86.349 119.222, 71.793 126.853 M 107.263 151.458 C 101.117 154.319, 92.549 161.988, 91.212 165.822 C 88.850 172.597, 94.576 175.527, 108.737 174.789 C 113.267 174.553, 117.165 174.166, 117.398 173.930 C 117.632 173.693, 117.369 171.025, 116.815 168 C 116.093 164.067, 116.142 160.991, 116.986 157.202 C 117.900 153.094, 117.894 151.578, 116.960 150.452 C 115.286 148.435, 113.318 148.639, 107.263 151.458" stroke="none" fill="black" fill-rule="evenodd"/>
</svg>