<svg xmlns="http://www.w3.org/2000/svg" width="200" height="200" viewBox="0 0 200 200" version="1.1">
	<path d="M 106.500 13.019 C 99.350 14.013, 85.175 16.283, 75 18.064 C 64.825 19.845, 54.160 21.241, 51.300 21.166 C 48.440 21.090, 45.814 21.492, 45.464 22.058 C 44.514 23.596, 47.031 26.219, 48.383 25.100 C 49.499 24.175, 57.494 25.161, 58.706 26.373 C 59.051 26.718, 57.215 27, 54.627 27 C 48.952 27, 42.964 29.837, 40.074 33.896 L 37.980 36.837 40.740 37.435 C 48.927 39.210, 71.453 41.991, 77.679 41.995 C 82.955 41.999, 85.285 41.573, 86.471 40.386 C 87.956 38.902, 88.522 39.064, 93.573 42.417 C 105.364 50.246, 110.314 58.130, 104.375 59.621 C 101.600 60.317, 84.143 59.476, 83.271 58.604 C 82.448 57.782, 88.588 50.558, 91.379 49.065 C 92.783 48.313, 93.732 47.376, 93.488 46.981 C 92.544 45.452, 73.532 43.727, 64.134 44.317 C 46.086 45.449, 33.356 51.491, 35.753 57.787 C 36.719 60.327, 42.481 62.233, 51.413 62.967 C 56.411 63.379, 59.559 63.779, 58.410 63.857 C 54.726 64.109, 44.224 69.981, 41.105 73.534 C 33.234 82.497, 35.559 93.904, 47.608 105.449 L 52.078 109.732 48.211 110.350 C 39.318 111.772, 30.654 122.315, 32.652 129.282 C 34.259 134.886, 37.888 136.502, 48.827 136.485 C 56.862 136.473, 60.193 135.938, 68.500 133.324 C 76.392 130.841, 82.295 129.831, 96.500 128.532 C 106.400 127.627, 118.204 125.985, 122.732 124.883 C 130.696 122.945, 131.045 122.938, 133.451 124.690 C 134.818 125.685, 135.951 127.026, 135.969 127.669 C 136.035 130.140, 125.841 139.967, 122.026 141.110 C 118.523 142.160, 117.632 141.962, 110.605 138.582 C 100.697 133.817, 91.500 131.548, 85.649 132.425 C 74.011 134.171, 67.732 144.695, 70.124 158.446 C 72.158 170.134, 78.679 179.240, 88.466 184.058 C 93.908 186.737, 96.669 187.369, 106.690 188.228 C 113.185 188.785, 123.234 189.216, 129.019 189.186 C 150.029 189.076, 175 181.399, 175 175.050 C 175 171.002, 172.600 170.505, 152.595 170.404 C 133.656 170.308, 123.591 169.274, 113 166.337 C 102.528 163.432, 102.984 161.356, 114.925 157.584 C 125.149 154.354, 147.376 151.037, 163.788 150.291 L 177.075 149.688 174.288 146.720 C 167.428 139.416, 159.916 134, 156.644 134 C 153.559 134, 145.617 130.589, 141.683 127.574 C 139.938 126.237, 139.954 126.011, 142.093 121.841 C 143.318 119.453, 145.310 115.078, 146.520 112.119 L 148.720 106.738 150.435 113.619 C 152.619 122.385, 154.806 126.810, 158.193 129.314 C 160.773 131.222, 160.996 131.232, 163.534 129.570 C 167.124 127.218, 171.549 117.381, 174.160 105.950 C 176.938 93.790, 177.369 71.442, 174.930 66 C 173.579 62.986, 173.471 59.586, 174.150 41.500 C 174.985 19.239, 174.582 12, 172.508 12 C 170.555 12, 169.407 15.762, 163.962 40 C 161.183 52.375, 157.298 68.350, 155.330 75.500 C 153.362 82.650, 151.530 89.513, 151.259 90.750 C 150.343 94.939, 149.261 93.030, 148.569 86 C 147.660 76.780, 145.488 76.380, 144.501 85.250 C 143.535 93.935, 141.412 103.806, 139.562 108.213 C 137.959 112.033, 132.420 119, 130.986 119 C 130.141 119, 114 106.070, 114 105.394 C 114 105.180, 115.601 102.776, 117.558 100.052 C 125.769 88.623, 127.238 74.291, 121.561 61 C 114.655 44.832, 111.923 29.648, 115.311 26.260 C 116.672 24.900, 117.306 24.970, 121.348 26.926 C 126.697 29.516, 137.773 40.923, 141.822 48.012 C 143.920 51.686, 144.742 54.542, 144.875 58.627 C 145.032 63.427, 147.916 74.249, 149.446 75.779 C 149.720 76.053, 150.444 74.977, 151.056 73.389 C 152.446 69.777, 151.499 61.927, 148.988 56.244 C 146.789 51.268, 147.232 46.933, 151.411 32.515 C 152.835 27.604, 154 22.576, 154 21.340 C 154 17.540, 151.876 14.169, 148.460 12.548 C 143.987 10.425, 123.504 10.655, 106.500 13.019 M 120.695 14.056 C 112.766 14.876, 84.442 19.123, 66.667 22.157 L 59.835 23.323 67.667 26.496 C 77.830 30.614, 91.045 37.247, 96.324 40.880 C 105.956 47.510, 111.724 55.873, 109.235 59.600 C 106.956 63.013, 97.631 64.016, 86.975 61.995 C 84.061 61.443, 81.460 61.207, 81.195 61.472 C 80.930 61.736, 81.341 62.131, 82.107 62.348 C 93.707 65.641, 95.402 66.420, 99.456 70.318 C 102.411 73.160, 104.189 75.938, 105.005 78.990 C 106.375 84.111, 105.662 91.603, 103.583 93.927 C 102.346 95.310, 102.728 95.978, 106.742 99.454 L 111.308 103.408 114.637 99.557 C 120.156 93.172, 122.263 86.065, 121.768 75.500 C 121.418 68.022, 120.801 65.316, 118.122 59.500 C 111.732 45.629, 109.198 30.018, 112.557 25.223 C 117.034 18.831, 131.408 27.571, 141.501 42.822 C 143.036 45.142, 144.398 46.919, 144.526 46.770 C 144.654 46.622, 146.197 41.277, 147.954 34.894 C 151.767 21.038, 151.707 17.090, 147.653 15.156 C 143.967 13.398, 131.840 12.903, 120.695 14.056 M 167.607 36.750 C 162.982 57.365, 156.776 81.697, 153.267 92.962 C 150.658 101.342, 150.647 101.499, 152.200 109.007 C 154.097 118.183, 157.587 126.628, 159.839 127.492 C 165.613 129.707, 172.743 108.104, 173.732 85.397 C 174.163 75.491, 173.938 72.331, 172.494 67.983 C 170.928 63.266, 170.810 60.281, 171.448 41.336 C 171.843 29.601, 171.986 20, 171.765 20 C 171.544 20, 169.673 27.537, 167.607 36.750 M 49.603 30.477 C 47.460 31.240, 45.047 32.524, 44.242 33.329 C 42.958 34.614, 43.128 34.867, 45.639 35.402 C 59.966 38.453, 84 40.127, 84 38.074 C 84 36.473, 73.764 32.056, 66.483 30.514 C 57.904 28.697, 54.618 28.689, 49.603 30.477 M 56.500 47.584 C 48.759 49.365, 42.808 51.591, 40.359 53.621 C 37.606 55.903, 37.570 56.046, 39.385 57.455 C 43.232 60.441, 52.408 60.493, 78.106 57.676 C 78.990 57.579, 81.007 55.925, 82.590 54 C 84.173 52.075, 85.912 50.187, 86.455 49.804 C 86.998 49.422, 87.089 48.755, 86.657 48.324 C 85.804 47.471, 59.766 46.832, 56.500 47.584 M 72.500 61 L 68.500 61.716 73.250 61.858 C 75.862 61.936, 78 61.550, 78 61 C 78 60.450, 77.662 60.064, 77.250 60.142 C 76.838 60.220, 74.700 60.606, 72.500 61 M 64.171 66.029 C 64.476 66.838, 66.233 72.112, 68.075 77.750 C 71.452 88.082, 73 90.405, 73 85.140 C 73 83.566, 73.271 80.301, 73.603 77.883 C 74.196 73.550, 74.128 73.421, 68.911 69.022 C 65.999 66.566, 63.866 65.219, 64.171 66.029 M 71.018 67.519 C 73.725 70.401, 74.966 70.323, 76.122 67.199 C 76.878 65.157, 76.640 65, 72.793 65 L 68.651 65 71.018 67.519 M 79.016 67.457 C 76.904 73.012, 76.801 72.880, 97.831 91.443 C 100.131 93.473, 100.179 93.475, 101.581 91.559 C 103.256 89.267, 103.442 82.297, 101.933 78.315 C 99.762 72.585, 91.833 66.997, 83.711 65.474 C 80.361 64.845, 79.942 65.022, 79.016 67.457 M 54.424 68.057 C 43.809 72.141, 37.870 80.161, 39.404 88.339 C 40.319 93.218, 47.512 102.630, 54.347 107.891 C 57.484 110.306, 59.795 112.538, 59.483 112.851 C 59.170 113.163, 55.861 113.437, 52.130 113.460 C 46.275 113.494, 44.843 113.883, 41.672 116.302 C 32.675 123.162, 33.083 131.871, 42.500 134.005 C 47.769 135.200, 57.494 133.779, 69.208 130.104 C 76.190 127.914, 82.230 126.890, 93.500 125.986 C 109.781 124.680, 122.848 122.744, 125.534 121.241 C 126.966 120.439, 126.017 119.270, 119.451 113.745 L 111.671 107.198 106.423 110.682 C 99.788 115.088, 94.235 116.022, 91.650 113.166 C 89.206 110.465, 90.095 106.606, 94.606 100.343 L 98.094 95.500 92.297 90.193 C 81.943 80.714, 77.164 76.926, 76.636 77.780 C 76.351 78.241, 75.803 82.092, 75.419 86.337 C 74.218 99.587, 72.096 97.932, 65.790 78.824 C 63.462 71.771, 61.095 66.023, 60.529 66.052 C 59.963 66.081, 57.216 66.983, 54.424 68.057 M 145.106 99 C 143.432 107.399, 139.701 115.232, 135.819 118.499 C 132.870 120.980, 132.820 121.150, 134.620 122.513 C 135.654 123.296, 136.828 123.951, 137.230 123.968 C 138.194 124.010, 141.251 117.937, 144.936 108.662 C 147.412 102.427, 147.791 100.411, 147.161 96.824 L 146.402 92.500 145.106 99 M 96.603 102.023 C 95.139 104.236, 93.673 107.386, 93.345 109.023 C 92.795 111.776, 92.967 112, 95.640 112 C 98.525 112, 105.292 108.960, 107.855 106.513 C 108.984 105.434, 108.568 104.623, 105.355 101.637 C 103.235 99.666, 100.997 98.042, 100.383 98.027 C 99.768 98.012, 98.068 99.811, 96.603 102.023 M 138 129.767 C 138 130.189, 135.930 132.901, 133.399 135.794 C 125.027 145.364, 119.757 146.332, 108.037 140.450 C 94.752 133.783, 83.410 133.390, 77.411 139.389 C 71.083 145.717, 70.579 156.836, 76.116 167.917 C 79.358 174.405, 83.729 178.801, 90.240 182.122 C 97.821 185.990, 130.409 187.763, 145.341 185.120 C 154.875 183.433, 167.362 179.350, 170.156 177.006 C 174.158 173.650, 171.091 172.987, 152 173.083 C 120.362 173.241, 99.294 167.924, 103.133 160.751 C 105.997 155.400, 130.831 149.728, 161.295 147.466 C 171.296 146.723, 171.304 146.681, 162.660 139.834 C 159.012 136.944, 156.905 136, 154.101 136 C 151.625 136, 148.441 134.831, 144.570 132.500 C 138.317 128.735, 138 128.603, 138 129.767" stroke="none" fill="black" fill-rule="evenodd"/>
</svg>