<svg xmlns="http://www.w3.org/2000/svg" width="200" height="200" viewBox="0 0 200 200" version="1.1">
	<path d="M 98.500 8.691 C 96.300 8.886, 85.225 10.385, 73.889 12.023 C 62.553 13.660, 51.486 15, 49.294 15 C 41.118 15, 40.159 20.554, 47.006 28.241 C 52.043 33.895, 53.201 32.404, 48.620 26.163 C 46.629 23.451, 45 20.787, 45 20.244 C 45 19.700, 46.756 18.975, 48.902 18.632 C 54.526 17.732, 74.219 23.811, 86.462 30.226 C 89.101 31.609, 89.186 31.806, 87.392 32.376 C 83.882 33.490, 70.685 34.937, 63.750 34.969 C 58.430 34.993, 57 35.318, 57 36.500 C 57 37.577, 58.099 38, 60.894 38 C 68.637 38, 85.398 35.861, 88.804 34.437 C 92.191 33.022, 92.500 33.096, 99.869 37.071 C 116.287 45.927, 124.968 55.145, 113.899 51.971 C 112.037 51.437, 105.408 51, 99.168 51 L 87.822 51 90.411 47.923 C 93.994 43.665, 93.612 41.943, 88.665 40.063 C 84.848 38.612, 81.140 38.676, 53.742 40.672 C 34.698 42.060, 28.652 42.175, 23.273 41.254 C 19.582 40.622, 16.418 40.248, 16.243 40.424 C 16.067 40.600, 17.421 42.714, 19.251 45.122 C 24.896 52.548, 36.069 57, 49.064 57 L 53.464 57 49.860 59.449 C 45.265 62.572, 40.031 70.434, 39.894 74.421 C 39.571 83.802, 41.111 88.295, 48.568 99.736 C 56.272 111.555, 56.676 112.792, 53.255 114.093 C 49.979 115.338, 38.821 114.024, 22.099 110.424 C 15.828 109.074, 10.542 108.125, 10.352 108.315 C 9.128 109.538, 13.678 119.780, 17.090 123.482 C 28.024 135.343, 49.005 136.641, 87.298 127.824 C 92.153 126.707, 96.304 125.971, 96.523 126.190 C 96.742 126.408, 96.661 127.580, 96.344 128.794 C 95.864 130.628, 95.057 131, 91.562 131 C 81.590 131, 71.349 137.645, 66.584 147.207 C 63.268 153.862, 63.332 156.344, 67.011 163.705 C 78.647 186.991, 111.846 194.858, 135.210 179.865 C 140.734 176.320, 148.768 167.771, 149.568 164.586 C 150.361 161.424, 147.383 148.230, 144.695 143 C 141.229 136.257, 137.615 134.298, 127.233 133.533 C 119.641 132.974, 109.205 130.461, 110.228 129.439 C 110.419 129.247, 112.359 129.725, 114.538 130.501 C 120.408 132.592, 129.332 132.381, 133.914 130.044 C 139.003 127.448, 141.604 124.190, 149.017 111.128 C 157.748 95.744, 159.674 93.685, 169.831 88.873 C 179.987 84.062, 182 82.497, 182 79.413 C 182 76.688, 178.934 74.427, 170 70.563 C 149.022 61.491, 144.227 53.559, 151.599 40.124 C 155.634 32.771, 154.685 14.473, 150.145 12.097 C 145.625 9.732, 139.158 17.117, 129.974 35.131 C 125.758 43.400, 123.514 46.867, 122.996 45.911 C 120.933 42.101, 119.946 32.909, 120.579 23.406 C 121.216 13.854, 121.134 13.203, 119.057 11.267 C 115.730 8.168, 111.032 7.580, 98.500 8.691 M 93 12.070 C 89.425 12.519, 81.172 13.664, 74.660 14.615 L 62.821 16.343 72.160 18.983 C 84.405 22.443, 90.451 25.232, 92.506 28.368 C 93.426 29.773, 97.495 32.712, 101.548 34.898 C 110.848 39.914, 119.734 46.585, 120.553 49.166 C 120.899 50.258, 121.356 50.977, 121.568 50.766 C 121.779 50.554, 121.002 47.933, 119.840 44.940 C 118.039 40.303, 117.745 37.539, 117.846 26.219 L 117.966 12.938 115.418 11.969 C 112.470 10.848, 102.365 10.894, 93 12.070 M 143.232 18.474 C 141.066 20.935, 136.257 28.848, 132.546 36.058 C 127.222 46.402, 125.940 49.729, 126.468 51.834 C 130.466 67.753, 130.636 78.567, 127.069 90.028 C 123.328 102.045, 117.097 109.463, 108.038 112.680 C 104.161 114.057, 102.808 115.113, 102.018 117.377 C 101.458 118.984, 101 120.615, 101 121.001 C 101 122.184, 114.184 127.852, 119.658 129.023 C 130.104 131.257, 136.667 127.293, 143.937 114.356 C 155.140 94.422, 159.499 89.738, 171.171 85.090 C 177.847 82.431, 180.727 79.839, 178.775 78.245 C 178.074 77.671, 172.295 74.715, 165.932 71.674 C 145.796 62.051, 141.466 53.704, 148.988 39.009 C 152.576 31.998, 151.901 14, 148.050 14 C 147.566 14, 145.398 16.013, 143.232 18.474 M 57.500 43.116 C 53.100 43.575, 43.342 44.075, 35.816 44.226 L 22.131 44.500 24.164 46.669 C 25.282 47.862, 28.515 49.852, 31.348 51.092 C 37.851 53.936, 54.810 54.784, 71.103 53.078 C 80.386 52.106, 82.801 51.491, 85.539 49.403 C 89.370 46.480, 90.599 43.997, 88.784 42.845 C 87.187 41.832, 68.218 41.996, 57.500 43.116 M 83.517 54.915 C 81.861 55.562, 82.139 55.803, 85.197 56.377 C 87.211 56.755, 92.043 58.657, 95.933 60.603 C 103.449 64.363, 108.655 69.519, 110.516 75.046 L 111.617 78.318 114.717 69.909 C 116.422 65.284, 118.550 59.788, 119.445 57.695 C 121.034 53.980, 121.026 53.915, 119.102 54.946 C 117.763 55.662, 116.287 55.679, 114.500 55 C 111.445 53.838, 86.449 53.770, 83.517 54.915 M 118.824 66.750 C 112.953 81.791, 103.712 110.045, 104.429 110.763 C 105.579 111.912, 113.219 107.500, 116.645 103.707 C 122.934 96.747, 127 84.550, 127 72.648 C 127 66.696, 125.080 55, 124.103 55 C 123.722 55, 121.347 60.287, 118.824 66.750 M 57.670 58.623 C 51.364 60.561, 44.543 67.269, 42.981 73.070 C 41.009 80.394, 43.166 86.532, 53.005 101.605 C 57.992 109.244, 59.123 113.477, 56.800 115.800 C 54.813 117.787, 41.954 117.183, 27.897 114.443 C 20.684 113.036, 14.545 112.122, 14.256 112.411 C 13.232 113.434, 16.228 118.895, 19.741 122.407 C 25.757 128.423, 32.435 130.383, 47 130.407 C 53.875 130.419, 62.875 129.841, 67 129.123 C 75.598 127.628, 97.329 122.932, 97.846 122.458 C 98.579 121.786, 91.835 113, 90.586 113 C 88.892 113, 76.236 106.586, 73.099 104.138 L 70.698 102.264 77.349 100.050 C 81.007 98.833, 84 97.511, 84 97.113 C 84 96.714, 82.763 93.038, 81.250 88.944 C 78.875 82.514, 78.202 81.542, 76.313 81.811 C 73.247 82.248, 70.786 78.176, 71.185 73.326 C 71.439 70.236, 71.933 69.438, 73.750 69.180 C 76.170 68.837, 76.618 66.339, 75.375 60.125 C 74.755 57.023, 74.705 57.001, 68.625 57.070 C 65.256 57.108, 60.327 57.807, 57.670 58.623 M 78.504 64.612 C 79.399 75.091, 79.761 76.687, 83.629 87.219 L 87.220 96.994 94.161 93.346 C 110.040 85.002, 112.169 74.930, 99.928 66.063 C 95.519 62.869, 86.630 59.169, 81.208 58.270 L 77.916 57.725 78.504 64.612 M 73.452 72.264 C 73.159 73.029, 73.436 74.970, 74.069 76.578 C 75.115 79.232, 75.288 79.318, 75.955 77.516 C 76.773 75.308, 76.232 72.261, 74.872 71.421 C 74.385 71.120, 73.746 71.499, 73.452 72.264 M 105.727 88.569 C 104.201 90.362, 99.631 93.538, 95.571 95.628 L 88.188 99.429 91.045 105.089 C 92.616 108.201, 94.636 111.030, 95.533 111.374 C 99.898 113.049, 100.424 112.325, 104.697 98.768 C 106.992 91.490, 108.786 85.485, 108.684 85.423 C 108.583 85.362, 107.252 86.777, 105.727 88.569 M 81.575 101.636 C 79.416 102.395, 77.496 103.171, 77.307 103.359 C 77.119 103.548, 79.704 105.163, 83.053 106.947 C 86.401 108.732, 89.365 109.968, 89.639 109.694 C 89.913 109.420, 89.094 107.184, 87.819 104.726 L 85.500 100.256 81.575 101.636 M 97.207 115.960 C 98.090 117.374, 98.645 117.583, 99.200 116.710 C 100.452 114.740, 100.122 114, 97.992 114 C 96.247 114, 96.144 114.258, 97.207 115.960 M 99.631 127.249 C 99.299 128.487, 99.021 129.777, 99.014 130.116 C 99.006 130.455, 101.743 131.732, 105.095 132.954 C 118.752 137.934, 125.963 149.973, 121.576 160.472 C 119.360 165.777, 112.492 172.542, 106.866 174.962 C 102.501 176.840, 101.361 176.978, 98.842 175.935 C 92.506 173.310, 90.760 163.367, 93.435 145.135 C 94.352 138.884, 94.928 133.594, 94.713 133.380 C 94.002 132.669, 83.908 134.950, 80.400 136.615 C 75.809 138.793, 69.275 146.352, 67.839 151.144 C 65.542 158.809, 71.453 169.589, 81.857 176.709 C 95.844 186.280, 113.978 187.434, 130 179.772 C 132.475 178.588, 137.372 174.762, 140.883 171.270 L 147.266 164.919 146.652 159.692 C 145.459 149.541, 141.266 140.283, 136.773 137.878 C 135.625 137.264, 130.346 136.420, 125.044 136.003 C 114.634 135.185, 109.758 133.360, 103.645 127.993 C 100.238 125.001, 100.233 125.001, 99.631 127.249 M 97.612 136.691 C 93.352 157.565, 94.417 172.063, 100.318 173.544 C 105.190 174.767, 115.659 167.180, 118.619 160.282 C 123.176 149.663, 115.014 137.512, 101.342 134.563 C 98.464 133.942, 98.134 134.130, 97.612 136.691" stroke="none" fill="black" fill-rule="evenodd"/>
</svg>