<svg xmlns="http://www.w3.org/2000/svg" width="200" height="200" viewBox="0 0 200 200" version="1.1">
	<path d="M 85.271 7.335 C 87.039 10.726, 88.628 13.804, 88.801 14.175 C 89.184 14.994, 78.975 12.676, 72.899 10.563 C 68.865 9.161, 68.396 9.173, 67.250 10.708 C 65.294 13.328, 65.732 19.389, 68.095 22.393 C 70.819 25.857, 76.768 28.841, 84.389 30.565 C 90.012 31.838, 88.204 31.931, 61.750 31.724 C 45.937 31.601, 33 31.635, 33 31.800 C 33.001 33.320, 36.618 38.326, 39.782 41.184 C 46.560 47.308, 51.321 48.500, 69 48.500 C 77.525 48.500, 87.759 48.136, 91.742 47.690 C 98.095 46.980, 98.910 47.072, 98.385 48.440 C 97.907 49.686, 98.563 50.003, 101.643 50.015 C 103.764 50.024, 106.070 50.392, 106.766 50.834 C 109.525 52.586, 126 94.310, 126 99.548 C 126 100.535, 125.213 102.236, 124.250 103.328 C 122.562 105.244, 122.578 105.294, 124.724 104.758 C 126.600 104.288, 127.041 104.700, 127.546 107.395 C 127.876 109.151, 128 112.229, 127.823 114.235 L 127.500 117.883 119.118 113.133 C 110.929 108.492, 110.686 108.245, 108.573 102.411 C 107.384 99.127, 104.107 92.637, 101.290 87.988 C 98.473 83.339, 96.382 79.190, 96.643 78.768 C 96.904 78.346, 98.231 78, 99.591 78 C 102.607 78, 108.783 75.506, 111.213 73.307 C 115.134 69.759, 112.493 62.840, 105.435 58.164 C 98.444 53.534, 91.596 51.522, 83 51.573 C 69.511 51.654, 61.463 58.334, 57.924 72.387 L 56.743 77.076 62.759 82.520 C 76.008 94.509, 72 98.308, 36.866 107.058 C 25.756 109.825, 16.289 112.322, 15.829 112.606 C 14.528 113.410, 20.259 117.772, 26.162 120.470 C 37.202 125.517, 52.970 126.062, 81 122.365 C 94.993 120.519, 121.270 120.052, 124.807 121.586 L 127.113 122.586 125.041 125.221 C 120.857 130.540, 112.214 131.324, 88.531 128.534 C 78.364 127.336, 73.720 127.233, 67.031 128.057 C 46.456 130.593, 44 131.339, 44 135.054 C 44 137.521, 47.676 139.949, 60.550 145.987 C 74.826 152.681, 73.754 153.559, 52.458 152.609 L 37.251 151.931 36.639 154.215 C 35.673 157.822, 35.909 166.126, 37.102 170.500 C 38.583 175.930, 47.043 184.121, 53.568 186.442 C 60.582 188.937, 75.807 189.548, 84.564 187.687 C 101.915 183.998, 110.974 175.678, 106.561 167.483 L 104.829 164.267 97.164 166.706 C 88.255 169.540, 80 170.768, 80 169.258 C 80 166.409, 92.761 156.663, 103.743 151.126 C 110.359 147.790, 120.672 144.679, 122.129 145.580 C 122.608 145.876, 123 147.810, 123 149.878 C 123 157.395, 128.119 170.423, 133.662 177.010 C 135.186 178.822, 138.344 181.149, 140.678 182.182 C 144.523 183.882, 145.250 183.922, 148.402 182.605 C 156.421 179.255, 159.544 163.571, 157.353 137.651 C 156.791 131.001, 156.456 130, 154.789 130 C 152.878 130, 143.230 126.300, 141.691 124.978 C 141.246 124.595, 143.069 124.492, 145.741 124.749 C 152.887 125.436, 164.668 123.306, 170.112 120.342 C 176.051 117.110, 178.027 113.216, 175.605 109.520 C 171.637 103.464, 162.576 100.944, 144.670 100.917 L 131.841 100.897 135.849 96.548 C 144.068 87.631, 146.081 78.931, 141.916 70.327 C 138.390 63.043, 127.474 54.848, 115.500 50.497 C 112.750 49.498, 109.825 48.037, 109 47.251 C 106.543 44.910, 129.255 45.969, 134.312 48.431 C 138.002 50.227, 138.397 50.229, 146.643 48.499 C 173.371 42.890, 168.761 33.969, 134.727 25.441 C 125.994 23.253, 124.054 22.414, 123.154 20.439 C 120.802 15.277, 106.699 8.101, 89.279 3.201 L 82.057 1.170 85.271 7.335 M 88 6.266 C 88 6.531, 89.125 8.761, 90.500 11.221 L 93 15.694 105.750 18.486 C 112.762 20.021, 119.175 21.475, 120 21.716 C 120.825 21.957, 119.748 20.553, 117.606 18.597 C 113.144 14.520, 88 4.047, 88 6.266 M 69 16.326 C 69 20.477, 71.947 23.412, 78.689 25.974 C 83.819 27.923, 96 29.768, 96 28.596 C 96 28.232, 94.906 25.774, 93.569 23.135 L 91.137 18.337 80.819 15.661 C 75.143 14.189, 70.162 12.988, 69.750 12.992 C 69.338 12.997, 69 14.497, 69 16.326 M 95.016 19.731 C 95.025 20.154, 96.063 22.300, 97.321 24.500 L 99.610 28.500 106.072 28.361 C 109.683 28.283, 114.293 27.460, 116.517 26.496 L 120.500 24.771 110 22.399 C 104.225 21.094, 98.487 19.787, 97.250 19.494 C 96.013 19.201, 95.007 19.308, 95.016 19.731 M 120.814 27.289 C 119.376 28.363, 115.792 29.862, 112.850 30.621 C 107.692 31.951, 107.949 31.982, 120 31.480 C 126.875 31.194, 134.075 30.608, 136 30.178 C 139.386 29.421, 139.239 29.330, 131.465 27.366 C 123.488 25.352, 123.410 25.351, 120.814 27.289 M 141.434 30.893 C 141.738 31.385, 140.962 32.044, 139.710 32.358 C 135.081 33.520, 119.249 34.984, 111.230 34.992 L 102.959 35 105 39 L 107.041 43 116.999 43 C 124.451 43, 128.585 43.534, 133.421 45.122 C 139.628 47.159, 140.161 47.181, 146.868 45.666 C 156.051 43.592, 161 41.458, 161 39.571 C 161 37.850, 155.293 34.681, 147.142 31.877 C 140.879 29.722, 140.690 29.690, 141.434 30.893 M 91.750 32.662 C 92.438 32.940, 93.563 32.940, 94.250 32.662 C 94.938 32.385, 94.375 32.158, 93 32.158 C 91.625 32.158, 91.063 32.385, 91.750 32.662 M 38.840 36.775 C 41.786 40.913, 50.197 44.887, 58.629 46.126 C 65.485 47.134, 68.713 47.007, 91.658 44.829 L 103.816 43.674 101.709 39.337 L 99.601 35 77.454 35 C 65.273 35, 51.105 34.702, 45.970 34.337 L 36.632 33.674 38.840 36.775 M 102.813 46.683 C 103.534 46.972, 104.397 46.936, 104.729 46.604 C 105.061 46.272, 104.471 46.036, 103.417 46.079 C 102.252 46.127, 102.015 46.364, 102.813 46.683 M 116.512 64.221 C 120.773 74.156, 126.157 89.083, 128.665 97.920 C 128.947 98.915, 130.278 98.168, 133.116 95.420 C 140.125 88.634, 142.572 82.157, 140.794 75.098 C 139.257 68.991, 131.577 61.317, 122.407 56.723 C 110.246 50.630, 110.528 50.272, 116.512 64.221 M 74.637 55.404 C 67.714 57.981, 61.971 65.168, 60.539 73.047 C 59.954 76.265, 60.262 76.799, 65.072 80.905 C 73.367 87.988, 74.526 93.430, 68.856 98.683 C 65.078 102.183, 57.934 104.743, 39.644 109.153 C 30.215 111.427, 22.109 113.636, 21.631 114.062 C 20.367 115.191, 27.942 118.774, 35.219 120.489 C 43.928 122.543, 57.445 122.361, 78 119.913 C 87.625 118.767, 101.237 117.755, 108.250 117.664 C 115.262 117.574, 121 117.429, 121 117.342 C 121 116.862, 107.752 110, 106.824 110 C 104.721 110, 88 98.817, 88 97.411 C 88 96.635, 88.235 96, 88.522 96 C 88.809 96, 92.952 98.233, 97.727 100.962 C 102.503 103.690, 106.554 105.779, 106.730 105.603 C 107.847 104.487, 94.090 79.968, 91.895 79.163 C 90.422 78.622, 85 70.292, 85 68.570 C 85 65.773, 86.969 66.897, 90.267 71.577 C 93.464 76.112, 93.534 76.147, 97.996 75.506 C 109.694 73.824, 113.104 68.663, 106.581 62.511 C 99.524 55.856, 83.186 52.221, 74.637 55.404 M 133.638 103.735 C 129.922 104.119, 129.800 104.249, 130.388 107.192 C 130.725 108.874, 131 112.396, 131 115.018 C 131 120.734, 131.154 120.820, 142.943 121.657 C 166.058 123.297, 182.779 113.839, 168.661 107.109 C 161.818 103.847, 146.676 102.388, 133.638 103.735 M 127.630 126.049 C 123.475 133.082, 114.629 134.318, 89.389 131.388 C 78.337 130.105, 73.866 129.994, 67.500 130.849 C 63.100 131.439, 56.800 132.277, 53.500 132.711 C 44.458 133.900, 45.523 135.533, 59.930 142.578 C 81.023 152.892, 79.889 155.623, 54.646 155.293 L 38.792 155.085 39.146 162.866 C 39.626 173.406, 42.319 177.555, 51.671 182.159 C 57.780 185.166, 59.426 185.517, 68.961 185.839 C 88.130 186.486, 105 179.698, 105 171.337 C 105 167.904, 103.467 167.663, 96.016 169.926 C 82.688 173.975, 77 173.702, 77 169.014 C 77 165.051, 90.968 154.324, 104.741 147.711 C 112.028 144.211, 114.508 143.504, 119.500 143.502 L 125.500 143.500 126.147 150.500 C 127.329 163.290, 133.591 175.343, 141.190 179.455 C 146.147 182.138, 149.384 180.614, 152.259 174.245 C 154.021 170.341, 154.473 167.063, 154.814 155.750 C 155.041 148.187, 154.938 140.087, 154.586 137.750 L 153.944 133.500 143.222 128.672 C 128.995 122.265, 129.787 122.398, 127.630 126.049" stroke="none" fill="black" fill-rule="evenodd"/>
</svg>