<svg xmlns="http://www.w3.org/2000/svg" width="200" height="200" viewBox="0 0 200 200" version="1.1">
	<path d="M 67.261 9.693 C 60.039 20.054, 67.590 28.251, 86.874 30.982 C 90.403 31.481, 93.787 32.421, 94.395 33.070 C 95.243 33.975, 88.581 34.093, 65.750 33.578 C 46.545 33.144, 36 33.254, 36 33.886 C 36 35.619, 39.008 35.871, 68.048 36.574 L 96.597 37.265 98.666 41.042 L 100.735 44.819 89.117 45.566 C 73.100 46.596, 55.711 46.653, 48.250 45.699 C 43.160 45.049, 42 45.162, 42 46.311 C 42 48.196, 48.981 48.978, 66 49.001 L 79.500 49.019 74.433 51.925 C 63.108 58.421, 56.625 73.615, 61.319 82.660 C 66.931 93.476, 86.970 99.798, 107.444 97.212 C 112.630 96.557, 119.210 95.100, 122.066 93.974 C 124.923 92.848, 127.398 92.065, 127.567 92.234 C 128.725 93.392, 132.191 103.111, 132.656 106.505 C 133.463 112.398, 131.280 114.419, 125.107 113.493 C 119.265 112.617, 110.718 109.392, 100.130 104.066 C 92.298 100.128, 91.558 99.941, 88.630 101.167 C 86.279 102.151, 80.898 102.358, 67 102 C 32.087 101.099, 24.701 101.307, 21.703 103.273 C 20.216 104.248, 19 105.844, 19 106.820 C 19 108.900, 24.639 114.547, 30.947 118.785 C 35.249 121.674, 35.526 121.726, 39.402 120.358 C 45.232 118.301, 56.960 117.271, 64.894 118.119 C 76.035 119.309, 85.826 124.556, 81.784 127.170 C 77.961 129.642, 71.462 130.400, 55.196 130.270 L 37.893 130.132 39.735 133.316 C 42.243 137.650, 49.266 142.179, 58.664 145.522 C 85.728 155.150, 87.142 155.975, 83.494 160.007 C 80.915 162.856, 69.854 168.047, 56.813 172.528 C 47.151 175.847, 46.024 176.492, 45.063 179.249 C 43.592 183.468, 43.732 186.173, 45.557 188.777 C 46.808 190.564, 48.082 191, 52.053 191 C 58.434 191, 65.617 188.495, 86.613 178.945 C 96.026 174.665, 105.519 170.625, 107.710 169.969 C 111.541 168.821, 111.938 168.930, 118.097 172.819 C 135.139 183.581, 149.253 187.692, 153.405 183.105 C 160.344 175.437, 145.667 157.547, 126.609 150.444 L 121.718 148.621 127.943 146.865 C 141.162 143.138, 153 136.043, 153 131.848 C 153 128.389, 149.406 127.704, 134.570 128.335 C 126.831 128.663, 119.312 129.216, 117.859 129.562 C 115.511 130.122, 115.089 129.799, 114.048 126.645 C 111.391 118.596, 115.757 116.798, 137 117.192 C 166.073 117.732, 171.448 117.446, 176.289 115.102 C 182.396 112.146, 184.213 107.778, 181.989 101.399 C 180.987 98.523, 180.912 98.500, 172.739 98.445 C 163.105 98.382, 159.603 97.051, 145.957 88.268 C 139.429 84.067, 137.170 82.092, 137.640 81 C 141.865 71.195, 141.691 65.996, 136.958 60.605 C 133.161 56.280, 126.433 53.435, 115.498 51.528 C 110.680 50.687, 106.572 50, 106.369 50 C 106.166 50, 106 49.266, 106 48.369 C 106 46.893, 107.834 46.804, 125.250 47.432 C 151.312 48.372, 150.141 48.425, 155.656 46.053 C 161.977 43.333, 163.853 40.601, 161.321 37.802 C 158.313 34.479, 154.259 32.898, 138.747 29.001 C 130.598 26.953, 123.955 24.986, 123.985 24.629 C 124.016 24.271, 123.357 22.657, 122.521 21.041 C 120.722 17.561, 110.913 12.514, 102.814 10.900 C 96.403 9.622, 92.509 10.790, 90.821 14.494 C 89.947 16.411, 89.159 16.882, 87.583 16.426 C 83.840 15.344, 72.570 9.921, 70.874 8.386 C 69.381 7.035, 69.023 7.165, 67.261 9.693 M 67.975 13.565 C 66.465 17.536, 66.775 18.929, 69.852 22.006 C 72.761 24.914, 79.571 27.347, 88.175 28.551 L 92.849 29.205 91.644 25.121 C 90.135 20.013, 89.904 19.819, 82 17.032 C 78.425 15.772, 74.306 13.899, 72.846 12.870 C 69.425 10.460, 69.140 10.501, 67.975 13.565 M 94.200 14.200 C 92.067 16.333, 92.916 17.901, 96.750 18.904 C 109.868 22.338, 117.099 24, 118.917 24 C 124.451 24, 118.070 18.891, 108.171 15.397 C 100.780 12.788, 96.020 12.380, 94.200 14.200 M 94.416 24.750 L 95.727 28.500 103.113 28.442 C 107.176 28.409, 111.850 28.014, 113.500 27.562 C 116.170 26.831, 115.290 26.430, 105.500 23.913 C 99.450 22.358, 94.186 21.066, 93.802 21.043 C 93.419 21.019, 93.695 22.688, 94.416 24.750 M 116 29.538 C 114.075 30.253, 108.983 31.160, 104.685 31.554 C 99.281 32.049, 97.190 32.590, 97.908 33.308 C 98.912 34.312, 124.120 32.787, 131.500 31.276 C 134.284 30.705, 134.105 30.569, 129 29.373 C 122.380 27.822, 120.559 27.845, 116 29.538 M 127.055 37.583 C 119.173 40.531, 112.486 43.181, 112.195 43.471 C 111.904 43.762, 115.904 44.001, 121.083 44.003 C 126.263 44.004, 134.394 44.483, 139.154 45.067 C 147.234 46.058, 148.190 45.975, 153.580 43.814 C 156.754 42.541, 159.538 40.930, 159.765 40.233 C 160.217 38.847, 154.560 36.074, 146.443 33.701 L 141.386 32.222 127.055 37.583 M 110.630 36.093 C 105.201 36.541, 100.552 37.114, 100.299 37.368 C 99.871 37.795, 100.806 39.835, 102.739 42.690 C 103.328 43.561, 106.493 42.691, 114.522 39.453 C 120.560 37.018, 124.375 35.083, 123 35.153 C 121.625 35.223, 116.058 35.646, 110.630 36.093 M 90.409 49.573 C 95.533 51.450, 100.465 55.277, 102.702 59.109 C 104.240 61.745, 111.582 66.771, 112.504 65.820 C 112.674 65.644, 111.168 62.696, 109.157 59.269 C 106.386 54.547, 104.696 52.766, 102.180 51.918 C 100.354 51.302, 98.618 50.169, 98.323 49.399 C 97.946 48.416, 96.107 48.021, 92.143 48.070 L 86.500 48.141 90.409 49.573 M 81.500 51.946 C 71.366 54.376, 62.765 64.938, 62.583 75.175 C 62.364 87.526, 79.182 95.875, 101.985 94.736 C 111.701 94.250, 126.055 90.883, 125.971 89.109 C 125.955 88.774, 123.769 84.675, 121.112 80 C 117.483 73.613, 115.315 70.945, 112.391 69.266 C 110.251 68.038, 108.246 67.025, 107.936 67.016 C 107.626 67.007, 107.563 69.629, 107.795 72.842 C 108.188 78.280, 108.025 78.836, 105.424 80.881 C 103.316 82.539, 101.880 82.920, 99.566 82.432 C 95.657 81.608, 88.501 77.739, 84 74.017 L 80.500 71.122 84.355 67.162 C 88.356 63.051, 95.196 60.295, 98.958 61.279 C 100.657 61.723, 100.812 61.518, 99.969 59.942 C 98.664 57.504, 93.161 53.416, 90 52.537 C 85.498 51.284, 84.536 51.218, 81.500 51.946 M 109.170 53.838 C 109.351 54.290, 111.458 57.998, 113.852 62.079 C 117.591 68.456, 119.264 70.204, 125.742 74.500 C 129.889 77.250, 133.675 79.652, 134.155 79.838 C 135.455 80.341, 138 73.571, 138 69.609 C 138 65.741, 134.477 60.815, 130.087 58.545 C 125.493 56.169, 108.575 52.363, 109.170 53.838 M 90.036 65.841 C 88.148 66.854, 86.130 68.448, 85.552 69.383 C 84.285 71.432, 86.734 73.626, 94.738 77.613 C 100.914 80.690, 104.454 80.311, 105.418 76.471 C 106.304 72.943, 104.323 66.243, 102.032 65.017 C 99.098 63.447, 93.825 63.809, 90.036 65.841 M 122.030 75.665 C 122.047 76.124, 123.544 79.086, 125.358 82.248 L 128.656 87.995 130.999 85.502 C 132.287 84.130, 133.152 82.866, 132.921 82.692 C 126.916 78.182, 122.007 75.015, 122.030 75.665 M 132.666 87.826 L 129.959 90.652 131.908 95.076 C 135.131 102.389, 136.418 108.788, 135.202 111.457 L 134.136 113.796 149.370 114.510 C 172.631 115.600, 180.496 113.242, 179.807 105.383 L 179.500 101.880 172.500 101.595 C 163.616 101.233, 157.048 98.689, 145.193 91.020 C 140.074 87.709, 135.771 85, 135.630 85 C 135.489 85, 134.156 86.272, 132.666 87.826 M 88.500 104.121 C 86.792 104.661, 72.279 104.947, 54.810 104.785 C 32.792 104.580, 23.795 104.823, 22.967 105.643 C 21.172 107.422, 23.202 110.207, 29.409 114.482 L 34.914 118.273 43.369 116.499 C 53.445 114.384, 68.818 114.848, 76.236 117.491 C 82.184 119.610, 86.451 124.288, 84.967 127.062 C 82.640 131.410, 78.458 132.399, 60 132.964 L 42.500 133.500 46.789 136.670 C 49.148 138.413, 54.998 141.232, 59.789 142.934 C 64.580 144.636, 71.735 147.183, 75.690 148.594 C 82.984 151.196, 88 154.751, 88 157.317 C 88 162.004, 77.315 168.295, 57.805 175.095 C 50.589 177.610, 47.971 178.989, 47.568 180.487 C 45.734 187.312, 48.382 189.727, 55.924 188.110 C 62.056 186.795, 67.053 184.807, 87.395 175.592 C 96.506 171.465, 105.786 167.596, 108.017 166.996 C 111.905 165.949, 112.372 166.089, 119.286 170.393 C 130.701 177.497, 139.768 181.356, 146.129 181.816 C 151.181 182.181, 151.865 182, 152.456 180.140 C 154.262 174.449, 143.671 161.891, 132.168 156.085 C 125.087 152.510, 116.267 150, 110.790 150 C 108.088 150, 107 149.569, 107 148.500 C 107 147.373, 108.204 147, 111.840 147 C 119.081 147, 131.440 143.497, 141 138.734 C 151.217 133.645, 152.319 131.507, 145.230 130.532 C 140.928 129.940, 125.188 131.083, 116.378 132.627 C 113.563 133.121, 113.146 132.857, 112.128 129.938 C 110.395 124.967, 110.739 120.261, 113 118 C 114.100 116.900, 115.450 116, 116 116 C 118.422 116, 116.668 114.047, 113.250 112.938 C 111.188 112.269, 105.571 109.759, 100.770 107.361 C 95.968 104.962, 91.918 103.039, 91.770 103.086 C 91.621 103.133, 90.150 103.599, 88.500 104.121" stroke="none" fill="black" fill-rule="evenodd"/>
</svg>