<svg xmlns="http://www.w3.org/2000/svg" width="200" height="200" viewBox="0 0 200 200" version="1.1">
	<path d="M 82 8.898 C 66.997 11.274, 62.725 12.519, 59.099 15.570 C 51.406 22.043, 55.794 27.816, 71.219 31.515 C 80.597 33.764, 98.588 34.509, 103.486 32.850 C 113.025 29.620, 107.786 24.295, 87.827 16.936 C 81.001 14.419, 78.764 14.041, 73.138 14.449 L 66.500 14.930 75.500 13 C 80.450 11.938, 90.350 10.685, 97.500 10.216 C 120.476 8.709, 136.676 11.092, 142.887 16.895 L 145.995 19.797 145.394 33.649 L 144.793 47.500 137.252 59 C 133.105 65.325, 128.346 72.240, 126.678 74.368 C 123.831 77.999, 123.566 78.121, 122.341 76.368 C 121.624 75.340, 115.756 69.235, 109.301 62.801 C 102.847 56.366, 97.784 50.882, 98.052 50.615 C 98.320 50.347, 103.030 49.414, 108.519 48.542 C 126.352 45.707, 133 43.059, 133 38.790 C 133 37.463, 131.416 36.179, 127.750 34.536 C 120.259 31.177, 116 30.411, 116 32.421 C 116 33.289, 116.658 34, 117.462 34 C 119.877 34, 130 38.074, 130 39.046 C 130 41.480, 116.625 45.163, 102.555 46.605 C 96.273 47.248, 96 47.185, 96 45.087 C 96 42.535, 100.464 40.309, 107.520 39.342 C 110.596 38.921, 112 38.251, 112 37.206 C 112 35.863, 108.721 35.761, 84.250 36.343 C 68.987 36.706, 53.125 37.449, 49 37.995 C 36.659 39.628, 33.141 42.080, 38.294 45.457 C 40.961 47.205, 54.221 50.711, 61.568 51.611 L 66.637 52.233 61.495 57.375 C 53.613 65.257, 51.177 74.404, 54.649 83.082 C 56.541 87.810, 62.481 92.624, 67.609 93.586 C 71.886 94.389, 71.022 96, 66.315 96 C 60.554 96, 45.909 99.853, 40.500 102.792 C 36.217 105.118, 35.500 105.938, 35.500 108.504 C 35.500 110.940, 36.154 111.815, 39 113.185 C 43.566 115.383, 55.730 117, 67.707 117 L 77.269 117 70.164 120.554 C 54.922 128.180, 55.349 135.667, 71.500 143.988 L 77.500 147.080 68.500 146.457 L 59.500 145.834 56.823 150.167 C 50.240 160.820, 50.916 169.042, 58.969 176.282 C 66.516 183.068, 75.055 185.513, 91 185.454 C 101.536 185.415, 104.391 185.054, 109.172 183.161 C 119.875 178.922, 124.499 170.733, 120.526 163.051 L 119.053 160.202 113.276 162.568 C 99.894 168.050, 92.762 168.064, 96.343 162.600 C 102.882 152.619, 120.924 143, 133.105 143 L 138 143 138 153.318 C 138 166.458, 139.863 173.099, 144.987 178.222 C 148.088 181.324, 149.475 182, 152.734 182 C 163.625 182, 171.928 167.497, 171.983 148.381 C 171.998 143.047, 169.485 125.152, 168.596 124.263 C 168.420 124.086, 164.329 124.630, 159.507 125.471 C 141.939 128.534, 107.950 126.818, 101.417 122.538 C 99.401 121.217, 99.152 120.584, 100.014 118.974 C 100.590 117.897, 102.699 116.176, 104.699 115.150 L 108.337 113.284 118.418 118.025 C 129.842 123.397, 135.558 125.004, 143.193 124.990 C 152.898 124.972, 161.923 118.951, 166.917 109.162 C 170.995 101.169, 172.285 93.217, 173.026 71.500 C 173.420 59.950, 174.315 44.650, 175.015 37.500 C 176.828 18.979, 174.858 12.903, 168.187 16.438 C 165.169 18.036, 162.172 21.656, 153.642 34 L 147.768 42.500 148.352 32.084 C 149.026 20.066, 148.062 16.909, 142.576 13.176 C 136.048 8.734, 130.681 7.736, 111.500 7.395 C 97.702 7.150, 90.815 7.501, 82 8.898 M 59.283 18.871 C 53.659 24.449, 71.856 31.018, 92.838 30.985 C 106.590 30.963, 108.329 29.214, 99.179 24.605 C 96.606 23.309, 91.222 21.071, 87.216 19.633 C 80.982 17.395, 78.545 17.053, 70.299 17.259 C 63.753 17.423, 60.223 17.939, 59.283 18.871 M 167.675 20.041 C 166.247 21.164, 161.186 27.868, 156.427 34.939 L 147.774 47.796 148.458 55.648 C 149.350 65.886, 147.452 87.325, 144.932 95.483 C 141.248 107.412, 132.817 114.960, 123.093 115.035 C 118.594 115.070, 118.551 115.101, 121 116.518 C 125.886 119.347, 136.263 122, 142.355 121.978 C 150.163 121.950, 155.505 119.564, 160.298 113.965 C 167.377 105.694, 170.254 93.650, 170.200 72.500 C 170.180 64.800, 170.802 53.113, 171.582 46.530 C 173.579 29.672, 173.348 18, 171.018 18 C 170.607 18, 169.102 18.919, 167.675 20.041 M 57.500 39.996 C 45.958 40.886, 40 41.939, 40 43.088 C 40 43.590, 40.114 44, 40.252 44 C 40.391 44, 45.004 45.120, 50.502 46.488 C 60.953 49.089, 69.351 49.545, 84.750 48.346 C 92.174 47.768, 93 47.499, 93 45.666 C 93 44.546, 93.978 42.587, 95.174 41.314 L 97.349 39 81.924 39.151 C 73.441 39.234, 62.450 39.614, 57.500 39.996 M 87.987 50.725 L 83.474 51.090 88.587 56.369 C 91.399 59.272, 94.468 63.640, 95.407 66.074 L 97.114 70.500 108.307 74.164 C 114.463 76.179, 119.654 77.675, 119.842 77.488 C 120.030 77.302, 114.019 71.040, 106.484 63.574 C 98.948 56.109, 92.719 50.081, 92.642 50.180 C 92.564 50.279, 90.469 50.525, 87.987 50.725 M 140.590 59.087 C 137.889 63.164, 133.285 69.747, 130.358 73.715 L 125.038 80.930 129.269 83.859 C 137.287 89.409, 139.848 93.640, 138.050 98.367 C 136.794 101.671, 132.837 104.096, 123.127 107.510 C 112.793 111.144, 112.260 112, 120.332 112 C 128.657 112, 132.722 110.370, 136.854 105.374 C 142.788 98.202, 146.459 79.827, 145.804 60.587 L 145.500 51.674 140.590 59.087 M 69.500 54.567 C 58.209 60.418, 52.453 75.485, 58.250 84.015 C 62.726 90.602, 73.903 93.744, 88.520 92.527 L 96.952 91.824 88.209 86.084 C 79.598 80.430, 74 75.096, 74 72.546 C 74 68.990, 83.111 67.305, 91.268 69.353 C 93.802 69.988, 93.906 69.882, 93.020 67.552 C 91.279 62.974, 86.759 57.014, 83.498 54.999 C 79.631 52.609, 73.636 52.424, 69.500 54.567 M 77.531 71.951 C 76.490 73.634, 81.131 78.239, 89.287 83.616 C 99.276 90.202, 99.013 90.228, 97.458 82.815 C 95.182 71.969, 95.592 72.348, 85.056 71.369 C 80.238 70.921, 78.063 71.089, 77.531 71.951 M 99.554 79.158 C 100.336 82.096, 100.982 85.752, 100.988 87.281 C 101.003 90.720, 102.680 91.425, 108.702 90.522 C 112.096 90.013, 114.288 88.912, 116.690 86.510 C 118.510 84.690, 120 82.748, 120 82.195 C 120 81.289, 106.655 75.956, 100.568 74.428 L 98.133 73.816 99.554 79.158 M 123.341 85.826 C 122.039 87.898, 111.966 95.173, 106.248 98.171 C 102.210 100.288, 101.580 100.340, 93.696 99.200 C 73.407 96.267, 47.508 99.910, 38.858 106.914 L 36.634 108.714 39.067 110.301 C 42.914 112.809, 53.160 113.984, 71.250 113.992 C 85.041 113.999, 88 114.251, 88 115.418 C 88 116.284, 85.368 117.702, 81.250 119.056 C 63.892 124.763, 58.199 130.582, 64.383 136.298 C 65.693 137.509, 70.418 140.278, 74.883 142.450 C 80.825 145.342, 83 146.912, 83 148.310 C 83 150.115, 82.409 150.180, 72.139 149.509 L 61.279 148.800 59.278 151.650 C 56.369 155.795, 54.693 161.718, 55.325 165.618 C 57.001 175.940, 71.307 183.013, 90.460 182.988 C 108.291 182.965, 118.924 177.678, 118.978 168.809 C 118.990 166.779, 118.624 164.886, 118.165 164.602 C 117.706 164.318, 114.082 165.215, 110.113 166.596 C 105.352 168.251, 101.297 169.002, 98.198 168.803 C 93.660 168.510, 93.489 168.385, 93.177 165.115 C 92.888 162.099, 93.548 161.051, 99.211 155.526 C 109.805 145.189, 126.863 138.435, 137.382 140.411 L 141.263 141.140 140.642 148.320 C 139.394 162.749, 143.021 175.081, 149.546 178.595 C 153.004 180.457, 153.112 180.455, 156.742 178.493 C 165.607 173.699, 169.613 162.085, 168.638 144 C 167.805 128.551, 167.344 126.697, 164.506 127.409 C 148.975 131.307, 115.189 130.646, 103.300 126.212 C 90.702 121.513, 97.210 113.471, 119.700 105.947 C 135.826 100.551, 139.024 96.741, 132.835 90.300 C 131.001 88.391, 128.351 86.227, 126.947 85.491 C 124.723 84.325, 124.258 84.368, 123.341 85.826 M 103 94.051 C 100.525 94.491, 96.250 94.923, 93.500 95.009 L 88.500 95.167 94.355 96.584 C 99.772 97.895, 100.537 97.856, 104.605 96.057 C 108.455 94.353, 110.436 92.760, 108.250 93.125 C 107.838 93.194, 105.475 93.611, 103 94.051" stroke="none" fill="black" fill-rule="evenodd"/>
</svg>