<svg xmlns="http://www.w3.org/2000/svg" width="200" height="200" viewBox="0 0 200 200" version="1.1">
	<path d="M 99.457 7.863 C 97.784 8.884, 95.673 10.850, 94.767 12.233 L 93.120 14.746 84.999 12.823 C 74.916 10.435, 66.678 10.665, 66.167 13.349 C 65.715 15.723, 69.788 19.999, 78 25.775 C 81.575 28.289, 84.900 30.691, 85.389 31.112 C 85.877 31.533, 78.227 31.849, 68.389 31.814 C 49.644 31.749, 42.734 32.760, 41.102 35.810 C 39.390 39.009, 42.690 42.800, 51.322 47.550 L 56.144 50.203 64.092 48.602 C 72.540 46.899, 83 46.462, 83 47.811 C 83 48.257, 80.285 49.435, 76.966 50.429 C 72.907 51.645, 69.439 53.589, 66.371 56.368 C 62.539 59.839, 61.727 61.225, 61.299 65.030 C 60.436 72.698, 65.231 80.623, 74.655 87.107 C 77.190 88.851, 79 90.882, 79 91.983 C 79 93.785, 77.604 93.884, 48.082 94.185 C 31.077 94.358, 16.841 94.823, 16.447 95.218 C 15.170 96.498, 18.137 101.891, 22.076 105.449 C 29.288 111.966, 43.073 113.797, 69.323 111.725 L 79.146 110.949 78.823 113.217 C 78.576 114.948, 75.701 117.063, 66.670 122.155 C 60.164 125.824, 54.659 129.008, 54.437 129.230 C 54.087 129.580, 58.251 130.711, 76.250 135.152 C 78.451 135.695, 80 136.681, 80 137.539 C 80 139.181, 73.520 139.461, 66.500 138.122 C 63.091 137.471, 61.508 137.848, 55.789 140.672 C 48.144 144.447, 45.867 147.295, 48.437 149.867 C 49.747 151.177, 53.077 151.613, 65.285 152.071 C 73.653 152.385, 79.522 152.723, 78.327 152.821 C 73.032 153.257, 67.061 163.423, 65.548 174.578 C 64.875 179.543, 64.939 179.716, 68.444 182.390 C 73.599 186.322, 81.974 189.931, 88.957 191.229 C 101.528 193.567, 117.282 188.682, 125.499 179.898 C 132.436 172.481, 133.683 167.273, 129.978 161.195 C 127.602 157.300, 119.823 153.334, 112.667 152.371 C 104.516 151.274, 109.538 150.032, 122.191 150.015 C 128.924 150.006, 134.144 150.424, 134.500 151 C 135.371 152.409, 141.048 152.180, 143.857 150.622 C 149.962 147.237, 156.412 131.492, 157.618 117.030 L 158.288 109 162.095 109 C 169.158 109, 175.958 106.993, 177.651 104.409 C 179.095 102.207, 179.088 101.784, 177.579 99.480 C 174.962 95.486, 168.554 91.363, 153.378 83.910 L 139.257 76.975 140.792 72.707 C 144.493 62.414, 137.683 56.641, 117 52.539 C 105.363 50.231, 101 49.051, 101 48.211 C 101 47.820, 109.662 47.499, 120.250 47.497 C 136.087 47.495, 140.556 47.169, 145.455 45.660 C 152.979 43.341, 159 37.766, 159 33.118 C 159 30.065, 157.558 28.826, 156.767 31.199 C 156.476 32.071, 153.523 31.655, 145.934 29.675 C 124.386 24.054, 123.782 23.788, 120.958 18.674 C 114.691 7.328, 106.823 3.371, 99.457 7.863 M 98.766 11.917 C 96.971 13.522, 95.726 15.018, 96.001 15.242 C 96.865 15.948, 118.433 21.900, 118.799 21.535 C 119.616 20.718, 115.824 15.053, 112.516 12.148 C 107.762 7.974, 103.265 7.898, 98.766 11.917 M 71.563 17.105 C 74.857 20.588, 85.322 28, 86.945 28 C 87.525 28, 88 27.340, 88 26.534 C 88 25.728, 88.756 23.483, 89.679 21.546 C 90.603 19.610, 91.098 17.764, 90.779 17.446 C 89.629 16.296, 78.393 14.070, 73.563 14.036 L 68.626 14 71.563 17.105 M 92.097 22.997 C 88.415 31.554, 88.267 31.459, 105.763 31.776 L 121 32.052 121 28.699 L 121 25.347 109.250 22.036 C 102.787 20.215, 96.783 18.528, 95.906 18.287 C 94.767 17.973, 93.679 19.318, 92.097 22.997 M 124 30.514 L 124 34.819 130.472 32.715 C 134.031 31.557, 136.822 30.489, 136.674 30.340 C 136.525 30.192, 133.613 29.202, 130.202 28.140 L 124 26.210 124 30.514 M 139.856 31.785 C 139.660 32.289, 135.763 33.939, 131.195 35.452 C 126.627 36.964, 121.810 39.281, 120.490 40.600 C 118.710 42.381, 116.983 43.004, 113.795 43.015 C 111.433 43.024, 108.825 43.498, 108 44.069 C 106.947 44.798, 111.719 44.983, 124 44.690 C 143.444 44.227, 148.668 43.043, 153.492 38.008 L 156.272 35.106 153.386 34.453 C 148.274 33.295, 142.911 31.903, 141.543 31.378 C 140.810 31.097, 140.051 31.280, 139.856 31.785 M 50.147 34.975 C 47.202 35.433, 44.388 36.212, 43.893 36.707 C 42.512 38.088, 44.869 40.530, 51.269 44.350 C 56.997 47.768, 57.072 47.782, 61.769 46.368 C 64.371 45.585, 70.390 44.667, 75.145 44.330 L 83.790 43.715 84.428 39.724 C 84.779 37.529, 84.794 35.461, 84.462 35.128 C 83.509 34.175, 56.085 34.053, 50.147 34.975 M 87.630 37.250 C 85.950 43.520, 86.407 44, 94.066 44 C 97.952 44, 102.033 43.517, 103.136 42.927 C 104.922 41.971, 104.361 41.481, 97.989 38.427 C 89.565 34.390, 88.431 34.262, 87.630 37.250 M 101.464 37.178 C 106.513 39.839, 111.315 39.853, 117 37.223 L 121.500 35.141 109.500 35.115 L 97.500 35.088 101.464 37.178 M 91 47.913 L 96.500 48.500 100.651 55.817 L 104.803 63.134 120.386 69.438 C 137.600 76.402, 137.734 76.400, 138.713 69.105 C 139.169 65.702, 138.856 64.771, 136.532 62.617 C 133.390 59.706, 125.081 56.824, 113 54.456 C 102.629 52.424, 98 50.602, 98 48.551 C 98 47.298, 96.800 47.031, 91.750 47.163 L 85.500 47.326 91 47.913 M 88.858 50.731 C 85.284 51.101, 85.205 51.203, 84.578 56.304 C 83.501 65.061, 82.097 87.349, 82.574 88.120 C 82.821 88.520, 85.381 89.661, 88.262 90.655 C 96.078 93.352, 110.631 93.043, 118.449 90.013 C 124.487 87.673, 134.775 79.310, 133.283 77.954 C 132.576 77.313, 107.605 67, 106.757 67 C 106.562 67, 106.585 68.570, 106.809 70.490 C 107.302 74.709, 105.418 75.830, 100.948 73.979 C 94.351 71.246, 91.562 63.576, 96.750 62.432 C 98.263 62.098, 99.834 61.752, 100.241 61.663 C 101.241 61.443, 94.732 50.697, 93.485 50.505 C 92.943 50.422, 90.861 50.524, 88.858 50.731 M 75.500 53.809 C 68.924 56.601, 67.097 57.912, 65.510 60.980 C 63.776 64.335, 63.569 68.736, 64.972 72.427 C 66.228 75.729, 73.629 83.757, 77.046 85.524 L 79.697 86.895 80.340 74.697 C 80.694 67.989, 81.275 60.138, 81.631 57.250 C 82.369 51.268, 81.989 51.055, 75.500 53.809 M 96.973 66.949 C 98.039 68.941, 101.824 72, 103.223 72 C 104.452 72, 104.126 67.526, 102.800 66.200 C 102.140 65.540, 100.324 65, 98.765 65 C 96.264 65, 96.053 65.230, 96.973 66.949 M 132.453 84.128 C 130.279 86.399, 125.800 89.525, 122.500 91.076 L 116.500 93.897 126.500 93.308 C 134.474 92.839, 137.328 92.241, 140.588 90.360 C 145.614 87.459, 148.933 87.372, 152.343 90.055 C 154.960 92.114, 158 100.007, 158 104.743 C 158 107.007, 158.231 107.091, 162.750 106.470 C 169.910 105.486, 174.833 104.079, 175.630 102.790 C 176.979 100.607, 167.949 94.153, 153.617 87.058 C 145.776 83.176, 138.696 80, 137.883 80 C 137.071 80, 134.627 81.858, 132.453 84.128 M 140.888 93.411 C 137.333 95.845, 136.846 95.895, 109.638 96.595 L 82 97.307 82 102.584 C 82 107.287, 82.243 107.896, 84.240 108.180 C 87.417 108.634, 87.574 111.515, 84.564 114.131 C 82.199 116.188, 82 117.001, 82 124.621 C 82 129.485, 82.446 133.158, 83.086 133.553 C 83.683 133.922, 88.775 134.459, 94.402 134.746 C 109.922 135.538, 112.648 133.728, 115.007 121.059 C 117.231 109.118, 119.944 107.599, 139.831 107.158 L 155.257 106.816 154.648 101.672 C 153.491 91.907, 147.946 88.577, 140.888 93.411 M 82 93 C 82 93.550, 83.463 93.968, 85.250 93.930 C 87.974 93.871, 88.176 93.720, 86.500 93 C 83.737 91.813, 82 91.813, 82 93 M 30.755 96.951 L 19.011 97.500 20.908 100.613 C 23.195 104.368, 29.529 107.602, 37.565 109.121 C 43.413 110.226, 67.169 109.758, 75.250 108.378 L 79 107.738 79 102.520 L 79 97.302 69.250 96.656 C 58.999 95.977, 50.144 96.045, 30.755 96.951 M 124.500 110.945 C 120.734 112.487, 118.697 115.971, 117.328 123.213 C 115.817 131.199, 112.894 135.321, 107.538 137.012 C 104.850 137.861, 105.018 137.919, 109 137.509 C 111.475 137.255, 118.460 136.754, 124.521 136.395 C 133.589 135.860, 135.760 136.006, 136.768 137.220 C 138.486 139.291, 136.106 141.227, 128 144.354 L 121.500 146.861 127.691 146.930 C 131.096 146.969, 134.160 147.450, 134.500 148 C 135.753 150.027, 142.002 149.089, 144.608 146.483 C 149.548 141.543, 155 124.791, 155 114.553 L 155 110 140.750 110.063 C 132.912 110.098, 125.600 110.495, 124.500 110.945 M 82 112.059 C 82 112.641, 82.450 112.840, 83 112.500 C 83.550 112.160, 84 111.684, 84 111.441 C 84 111.198, 83.550 111, 83 111 C 82.450 111, 82 111.477, 82 112.059 M 69.730 123.548 L 60.961 128.671 69.730 130.668 L 78.500 132.665 78.809 128.806 C 78.979 126.684, 78.979 123.479, 78.809 121.686 L 78.500 118.424 69.730 123.548 M 82.513 136.820 C 80.953 138.380, 82.702 139, 88.667 139 C 92.333 139, 95.130 138.796, 94.881 138.547 C 94.142 137.808, 83.071 136.262, 82.513 136.820 M 104.500 140.553 C 95.700 141.246, 87.263 141.855, 85.750 141.907 C 83.288 141.990, 83 142.369, 83 145.523 L 83 149.047 91.250 148.497 C 109.185 147.302, 112.001 146.873, 120.287 144.072 C 132.729 139.866, 133.783 139.036, 126.500 139.177 C 123.200 139.241, 113.300 139.860, 104.500 140.553 M 58.500 142.145 C 50.963 146.030, 49.597 147.131, 51.118 148.094 C 51.878 148.576, 58.688 148.976, 66.250 148.985 L 80 149 80 145.638 L 80 142.276 72.465 141.593 C 68.320 141.217, 64.383 140.724, 63.715 140.497 C 63.047 140.270, 60.700 141.011, 58.500 142.145 M 84.155 151.883 C 83.166 152.510, 83.518 152.913, 85.488 153.408 C 89.770 154.482, 95.271 158.395, 100.187 163.863 C 105.041 169.262, 106.273 171.940, 104.915 174.137 C 103.570 176.313, 97.769 172.608, 88.029 163.353 C 79.598 155.341, 79.410 155.229, 76.740 156.628 C 75.247 157.411, 73.274 159.502, 72.357 161.275 C 70.403 165.052, 68.029 173.519, 68.012 176.772 C 67.986 181.643, 84.781 189.011, 95.855 188.988 C 108.886 188.961, 121.587 182.939, 126.598 174.412 C 130.822 167.224, 129.329 161.739, 122.152 158.078 C 118.024 155.972, 108.674 154, 102.816 154 C 100.091 154, 99 153.571, 99 152.500 C 99 151.313, 97.590 151.003, 92.250 151.015 C 88.537 151.024, 84.895 151.414, 84.155 151.883 M 89 160.475 C 94.629 166.341, 100.916 171.417, 101.647 170.686 C 102.649 169.685, 92.642 159.857, 88.525 157.798 L 84.500 155.785 89 160.475" stroke="none" fill="black" fill-rule="evenodd"/>
</svg>