<svg xmlns="http://www.w3.org/2000/svg" width="200" height="200" viewBox="0 0 200 200" version="1.1">
	<path d="M 85.489 6.844 C 85.220 7.113, 85 8.431, 85 9.774 C 85 11.555, 84.586 12.055, 83.467 11.626 C 79.749 10.199, 69.061 8.768, 66.648 9.373 C 59.612 11.140, 68.098 22.944, 82.628 31.602 C 84.040 32.443, 80.104 32.838, 65.988 33.274 C 46.947 33.861, 39.573 35.144, 37.641 38.207 C 35.855 41.038, 39.563 43.770, 49.408 46.875 C 62.398 50.973, 64 51.284, 64 49.706 C 64 48.892, 60.784 47.460, 55.750 46.030 C 46.090 43.287, 40.659 40.902, 40.880 39.500 C 41.192 37.526, 46.795 36.786, 65.310 36.276 L 84.120 35.757 83.810 40.601 C 83.501 45.434, 83.490 45.448, 79.250 46.282 C 76.498 46.823, 75 47.649, 75 48.626 C 75 49.577, 75.647 49.959, 76.750 49.660 C 80.806 48.561, 84 47.989, 84 48.362 C 84 48.582, 81.491 50.031, 78.424 51.583 C 66.715 57.507, 57 70.135, 57 79.432 C 57 85.301, 61.148 90.260, 68.132 92.740 C 72.446 94.273, 73.213 94.978, 74.220 98.340 C 76.693 106.593, 71.854 108.831, 48.759 110.118 C 39.266 110.646, 29.837 111.522, 27.804 112.064 C 23.063 113.326, 19.654 117.487, 20.524 120.951 C 21.545 125.021, 22.613 125.666, 30.260 126.838 C 47.059 129.410, 52.063 129.361, 77.499 126.371 L 83.285 125.691 82.568 133.916 C 80.779 154.418, 75.800 161.234, 57.737 167.901 C 51.626 170.157, 50.121 171.218, 47.136 175.374 C 43.107 180.982, 42.232 187.421, 45.236 189.355 C 49.169 191.886, 68.795 184.308, 92.126 171.248 C 98.993 167.405, 105.573 163.659, 106.749 162.924 C 108.684 161.717, 109.101 161.872, 111.109 164.544 C 115.717 170.680, 124.836 178.606, 130.562 181.453 C 141.979 187.131, 155.801 185.626, 157.586 178.512 C 159.476 170.982, 147.637 160.867, 131.154 155.928 C 127.817 154.928, 126.441 153.825, 124.995 150.989 C 122.771 146.632, 119.656 144.174, 106.775 136.618 C 94.670 129.516, 90.343 126.033, 92.180 124.868 C 94.626 123.317, 123.321 123.869, 130.688 125.609 C 146.111 129.251, 172.996 124.515, 177.707 117.325 C 179.133 115.148, 179.114 114.783, 177.473 112.970 C 174.953 110.186, 169.537 108.964, 155.947 108.115 C 143.064 107.310, 141.608 106.695, 139.255 101.066 C 138.129 98.372, 137.970 95.023, 138.519 85.503 C 139.404 70.173, 138.223 63.789, 133.479 58.246 C 128.976 52.986, 123.529 50.934, 112.281 50.261 C 106.627 49.923, 103.296 49.330, 103.669 48.727 C 104.053 48.106, 108.909 48.009, 116.888 48.464 C 123.825 48.859, 133.028 49.145, 137.339 49.099 C 149.679 48.967, 156.603 44.920, 158.899 36.500 C 160.559 30.410, 160.401 29.703, 157.750 31.362 C 155.062 33.045, 148.738 31.938, 132.861 27.005 C 124.068 24.274, 123 23.689, 123 21.606 C 123 16.160, 116.133 11.409, 104.910 9.090 C 97.554 7.570, 86.089 6.244, 85.489 6.844 M 88 11.108 C 88 12.354, 89.513 13.309, 93.250 14.424 C 96.138 15.285, 103.338 17.526, 109.250 19.404 C 119.112 22.537, 120 22.667, 120 20.981 C 120 15.996, 110.813 12.119, 94.250 10.114 C 88.676 9.439, 88 9.547, 88 11.108 M 67 13.091 C 67 15.124, 75.840 24.542, 79.879 26.812 L 83.896 29.070 84.521 25.741 C 84.864 23.910, 85 20.633, 84.823 18.458 C 84.508 14.603, 84.374 14.474, 79.500 13.348 C 72.961 11.836, 67 11.714, 67 13.091 M 87.642 19.750 C 87.301 21.813, 87.017 24.942, 87.011 26.705 C 87.001 29.594, 87.354 29.976, 90.589 30.583 C 96.409 31.675, 107.155 30.468, 112.444 28.128 C 115.360 26.838, 116.979 25.597, 116.428 25.074 C 115.643 24.328, 90.256 16, 88.768 16 C 88.489 16, 87.983 17.688, 87.642 19.750 M 119.494 27.009 C 119.151 27.564, 117.212 28.936, 115.185 30.057 C 112.283 31.661, 112.031 31.995, 114 31.624 C 115.375 31.366, 120.069 30.834, 124.430 30.443 L 132.360 29.731 126.430 27.880 C 119.368 25.676, 120.250 25.787, 119.494 27.009 M 137 32.579 C 137 34.280, 135.009 35.343, 122.006 40.579 L 111.513 44.804 116.506 45.578 C 119.253 46.003, 126.900 46.377, 133.500 46.408 C 143.930 46.458, 146.030 46.184, 149.553 44.313 C 155.302 41.259, 158.078 35, 153.682 35 C 152.408 35, 148.133 34.151, 144.182 33.114 C 138.416 31.600, 137 31.495, 137 32.579 M 119 33.699 C 117.075 33.908, 110.775 34.688, 105 35.433 C 99.225 36.179, 92.813 36.562, 90.750 36.285 L 87 35.781 87 40.391 L 87 45 95.286 45 C 103.016 45, 104.507 44.625, 117.536 39.404 C 125.216 36.325, 131.688 33.625, 131.917 33.404 C 132.391 32.944, 124.250 33.131, 119 33.699 M 96.500 48 C 99.231 49.174, 100 49.174, 100 48 C 100 47.450, 98.763 47.032, 97.250 47.070 C 94.813 47.133, 94.728 47.238, 96.500 48 M 88.250 50.706 C 86.180 51.104, 86 51.683, 86 57.931 C 86 64.518, 86.071 64.709, 88.347 64.274 C 90.037 63.951, 93.391 65.654, 100.347 70.371 C 105.656 73.970, 110 76.437, 110 75.852 C 110 73.430, 106.718 62.378, 104.764 58.222 C 101.823 51.964, 95.844 49.243, 88.250 50.706 M 79.184 54.292 C 65.211 61.766, 56.195 76.934, 61.078 84.753 C 62.528 87.076, 68.096 90.413, 72.079 91.347 C 74.845 91.996, 76.477 94.694, 77.544 100.382 C 78.120 103.453, 77.808 104.345, 75.277 106.877 C 71.187 110.967, 66.985 111.887, 47.394 112.983 C 37.986 113.509, 29.192 114.357, 27.853 114.866 C 24.660 116.080, 22.751 118.464, 23.179 120.702 C 24.021 125.100, 47.775 127.118, 68.926 124.587 C 76.310 123.704, 82.456 122.873, 82.582 122.741 C 82.743 122.572, 83.643 51.997, 83.485 52 C 83.476 52, 81.541 53.031, 79.184 54.292 M 105.893 54.372 C 107.543 56.359, 111.756 69.185, 112.584 74.741 C 112.974 77.358, 113.869 80.400, 114.573 81.500 C 116.429 84.401, 119 95.112, 119 99.944 C 119 104.701, 116.862 109.468, 114.055 110.970 C 111.319 112.435, 104.520 112.244, 100.567 110.592 C 97.355 109.251, 97.081 109.309, 94.721 111.842 C 93.359 113.304, 91.739 115.483, 91.122 116.684 C 88.636 121.523, 88.861 121.589, 106.377 121.166 C 119.159 120.858, 124.166 121.125, 129.190 122.386 C 137.361 124.435, 149.892 124.449, 159.792 122.421 C 167.437 120.854, 175.225 117.409, 175.406 115.513 C 175.613 113.338, 169.286 111.819, 156.888 111.066 C 136.747 109.844, 135.398 108.226, 135.817 85.775 C 135.973 77.367, 135.624 69.319, 135.003 67.012 C 132.521 57.793, 124.377 53, 111.196 53 C 105.852 53, 104.949 53.234, 105.893 54.372 M 86.086 94.600 C 86.133 109.945, 86.515 121.372, 86.934 119.994 C 88.165 115.949, 90.638 111.637, 92.906 109.585 C 94.845 107.830, 94.894 107.488, 93.508 105.373 C 89.294 98.940, 93.402 95.750, 106.645 95.171 C 111.790 94.946, 116 94.672, 116 94.562 C 116 93.934, 112.709 83.366, 112.306 82.701 C 112.040 82.262, 111.186 82.431, 110.408 83.076 C 106.912 85.978, 95.037 79.175, 88.962 70.789 L 86 66.700 86.086 94.600 M 90 67.828 C 90 69.214, 99.294 77.584, 102.910 79.453 C 104.683 80.370, 106.892 80.971, 107.817 80.787 C 108.956 80.561, 107.075 78.641, 102 74.850 C 93.668 68.625, 90 66.478, 90 67.828 M 107.750 101.337 C 103.487 104.128, 100 106.714, 100 107.084 C 100 108.203, 107.672 109.785, 110.488 109.247 C 114.101 108.556, 116.190 105.012, 115.811 100.213 L 115.500 96.263 107.750 101.337 M 97.250 99.031 C 94.714 100.050, 94.182 103.749, 96.447 104.618 C 97.242 104.923, 100.007 103.559, 102.590 101.587 L 107.288 98 103.394 98.063 C 101.252 98.098, 98.487 98.534, 97.250 99.031 M 85.992 126.250 C 85.966 130.603, 83.810 145.143, 82.546 149.491 C 79.782 158.998, 70.153 167.183, 57.159 171.072 C 52.739 172.395, 49.842 175.326, 46.577 181.779 C 43.645 187.575, 46.723 188.463, 57.246 184.857 C 64.692 182.306, 89.068 170.169, 101 163.072 L 109.500 158.016 111.953 161.258 C 121.477 173.846, 134.357 182.209, 144.444 182.355 C 150.799 182.447, 155 180.122, 155 176.512 C 155 170.888, 143.761 162.837, 129.788 158.452 C 125.046 156.963, 123.898 156.147, 123.026 153.644 C 121.406 148.996, 119.417 147.323, 106.500 139.740 C 99.900 135.866, 92.831 130.964, 90.790 128.848 C 86.815 124.725, 86.004 124.286, 85.992 126.250" stroke="none" fill="black" fill-rule="evenodd"/>
</svg>