<svg xmlns="http://www.w3.org/2000/svg" width="200" height="200" viewBox="0 0 200 200" version="1.1">
	<path d="M 131.833 9.854 C 131.390 10.991, 79.172 13.978, 71.426 13.309 C 65.010 12.756, 54 14.500, 54 16.071 C 54 16.582, 54.727 17, 55.617 17 C 56.780 17, 57.075 17.605, 56.669 19.158 C 55.363 24.153, 61.035 31.377, 69 34.861 C 76.946 38.337, 93.002 38.873, 92.999 35.662 C 92.998 34.862, 90.090 34.500, 83.676 34.500 C 75.273 34.500, 73.770 34.202, 68.427 31.474 C 61.592 27.984, 57.593 22.432, 59.632 19.261 C 60.604 17.749, 62.157 17.531, 70.632 17.718 C 80.293 17.931, 80.710 18.041, 90.500 22.941 C 103.848 29.621, 103.441 29.307, 102.068 31.873 C 101.171 33.549, 101.213 34, 102.265 34 C 102.999 34, 104.092 33.508, 104.693 32.907 C 105.483 32.117, 106.416 32.152, 108.064 33.035 C 110.311 34.237, 110.288 34.281, 106.452 36.147 C 104.311 37.189, 102.183 38.417, 101.723 38.877 C 101.263 39.337, 92.475 39.494, 82.194 39.226 C 62.717 38.719, 49.401 39.810, 40.740 42.622 C 26.144 47.361, 39.116 54.536, 62 54.380 C 72.677 54.308, 73.178 54.388, 69 55.495 C 61.917 57.371, 54.698 61.485, 50.679 65.933 L 46.986 70.022 53.950 78.081 C 61.170 86.437, 67 96.552, 67 100.725 C 67 108.768, 57.725 112.415, 33.712 113.813 L 21.923 114.500 24.869 119.138 C 31.064 128.894, 42.876 133.717, 57.980 132.659 C 62.643 132.332, 74.421 130.409, 84.152 128.386 L 101.844 124.707 104.381 127.604 C 107.391 131.040, 107.332 131.355, 101.293 143.949 C 95.149 156.761, 88.428 163.545, 78 167.458 C 73.875 169.006, 69.084 171.324, 67.352 172.609 C 64.021 175.082, 60.469 181.405, 59.395 186.774 L 58.750 190 63.625 189.987 C 71.333 189.965, 83.422 185.115, 98.186 176.118 C 117.126 164.577, 122.675 163.243, 131.978 167.989 C 136.055 170.069, 143.029 177.234, 147.921 184.368 C 151.183 189.126, 151.352 189.223, 155.379 188.656 C 167.300 186.975, 176 182.154, 176 177.227 C 176 173.301, 168.515 166.798, 152.145 156.500 C 135.464 146.007, 129 139.882, 129 134.568 C 129 131.204, 128.887 131.092, 126.435 132.025 C 122.675 133.454, 116.316 133.215, 113.038 131.520 C 110.330 130.119, 110.233 129.849, 111.255 126.520 C 112.272 123.208, 112.589 123, 116.627 123 C 119.610 123, 124.516 124.578, 132.710 128.172 C 154.721 137.827, 161.962 135.761, 166.446 118.545 C 169.130 108.240, 170.433 91.514, 169.038 85.278 C 168.070 80.954, 168.067 75.719, 169.023 60.542 C 170.798 32.346, 168.861 21.268, 160.998 14.652 C 156.184 10.601, 151.028 9.620, 143.011 11.231 C 136.715 12.496, 136.147 12.465, 135.105 10.797 C 133.911 8.885, 132.383 8.445, 131.833 9.854 M 112.500 14.550 C 103.150 15.239, 93.700 15.877, 91.500 15.968 L 87.500 16.132 92.919 17.588 C 100.347 19.586, 104.974 22.620, 105.636 25.929 C 106.021 27.853, 107.960 29.821, 112.339 32.733 C 118 36.498, 124.267 40, 125.343 40 C 125.586 40, 126.354 34.562, 127.050 27.916 C 128.221 16.717, 128.486 15.766, 130.657 14.940 C 133.418 13.891, 133.733 12.938, 131.250 13.148 C 130.287 13.230, 121.850 13.861, 112.500 14.550 M 141.250 14.166 C 138.912 14.689, 137 15.655, 137 16.312 C 137 16.969, 137.870 20.548, 138.933 24.265 C 142.289 36.002, 144.109 50.572, 143.950 64.434 C 143.832 74.772, 144.157 78.328, 145.505 81.468 C 146.678 84.200, 147.081 87.206, 146.798 91.120 C 146.044 101.535, 138.542 107.623, 123.529 110.004 C 119.695 110.612, 116.327 111.339, 116.046 111.621 C 115.764 111.902, 115.026 113.852, 114.406 115.953 L 113.278 119.772 117.889 120.220 C 120.431 120.467, 127.884 123.046, 134.500 125.968 C 149.769 132.711, 154.824 133.168, 158.989 128.181 C 164.484 121.602, 168.231 99.590, 166.254 85.501 C 165.514 80.231, 165.494 73.390, 166.189 63.200 C 168.307 32.118, 165.718 19.046, 156.625 14.917 C 152.155 12.887, 147.891 12.679, 141.250 14.166 M 131 17.788 C 131 18.221, 130.334 23.945, 129.520 30.508 C 128.553 38.301, 128.380 42.780, 129.020 43.420 C 130.492 44.892, 130.199 48.789, 128.547 49.714 C 127.564 50.264, 126.260 55.700, 124.518 66.514 C 123.102 75.306, 120.800 88.057, 119.404 94.849 C 118.007 101.641, 117.122 107.456, 117.438 107.771 C 118.391 108.724, 131.027 106.027, 134.889 104.047 C 143.147 99.811, 145.918 93.413, 143.291 84.649 C 142.307 81.370, 141.465 72.602, 140.971 60.500 C 140.526 49.617, 139.514 38.518, 138.601 34.520 C 135.710 21.853, 134.012 17, 132.472 17 C 131.662 17, 131 17.355, 131 17.788 M 93 20.401 C 93 21.056, 102.252 26.081, 102.676 25.657 C 102.881 25.452, 102.440 24.780, 101.697 24.164 C 100.118 22.853, 93 19.773, 93 20.401 M 104.505 40.561 L 100.730 43.123 88.478 42.076 C 72.361 40.698, 50.772 42.262, 39.750 45.604 C 36.577 46.566, 37.918 47.920, 43.750 49.641 C 49.927 51.464, 55.067 51.651, 88.152 51.250 L 108.804 51 109.902 47.851 C 111.460 43.383, 111.316 38, 109.640 38 C 108.891 38, 106.581 39.153, 104.505 40.561 M 114 40.757 C 114 42.273, 113.564 45.034, 113.031 46.893 L 112.061 50.273 117.505 49.712 C 124.154 49.025, 125 48.545, 125 45.458 C 125 43.556, 123.931 42.492, 120.033 40.517 C 117.302 39.133, 114.827 38, 114.533 38 C 114.240 38, 114 39.240, 114 40.757 M 115.255 52.732 C 112.203 53.007, 110.691 53.709, 109.878 55.228 C 108.901 57.053, 109.139 57.623, 111.624 59.414 C 115.780 62.410, 119.995 67.203, 120.030 68.973 C 120.093 72.094, 121.733 67.639, 122.413 62.500 C 122.778 59.750, 123.319 56.263, 123.617 54.750 C 124.209 51.745, 124.753 51.876, 115.255 52.732 M 101.500 53.784 L 97.500 54.232 101.500 55.452 C 105.910 56.797, 107 56.596, 107 54.441 C 107 53.648, 106.662 53.076, 106.250 53.168 C 105.838 53.261, 103.700 53.538, 101.500 53.784 M 72.263 57.452 C 64.800 59.148, 54.380 64.490, 52.278 67.699 C 50.849 69.879, 50.980 70.263, 54.633 74.617 C 68.087 90.654, 71.680 98.657, 68.466 105.430 C 65.394 111.904, 58.699 114.077, 33.554 116.759 L 26.609 117.500 29.797 121.124 C 38.133 130.598, 54.025 132.107, 82.144 126.094 C 90.748 124.255, 98.295 122.436, 98.916 122.052 C 99.712 121.560, 99.415 119.931, 97.906 116.521 C 96.730 113.862, 94.234 105.596, 92.359 98.151 C 90.483 90.707, 88.774 84.441, 88.560 84.227 C 88.346 84.013, 87.262 84.324, 86.151 84.919 C 82.682 86.776, 78.106 86.197, 75.477 83.568 C 73.133 81.224, 73.100 81.004, 74.576 77.473 C 76.895 71.921, 80.288 67.078, 82.322 66.414 C 84.933 65.562, 87.566 68.379, 89.024 73.587 C 89.715 76.054, 90.780 77.909, 91.390 77.708 C 92.641 77.297, 99.485 68.410, 102.863 62.809 L 105.090 59.119 101.295 57.980 C 95.180 56.145, 79.289 55.856, 72.263 57.452 M 103.278 66.948 C 100.956 70.637, 97.320 75.645, 95.199 78.077 L 91.341 82.500 94.056 93.500 C 95.549 99.550, 96.822 103.528, 96.885 102.339 C 97.037 99.479, 101.569 95.784, 108.398 92.954 C 113.053 91.025, 114.263 89.971, 115.950 86.383 C 121.186 75.244, 118.571 66.260, 108.500 60.784 C 107.950 60.485, 105.600 63.259, 103.278 66.948 M 80.717 71.309 C 79.858 72.620, 78.467 75.341, 77.625 77.355 C 76.145 80.897, 76.172 81.066, 78.453 82.561 C 80.576 83.952, 81.177 83.953, 84.488 82.569 C 87.929 81.132, 88.122 80.822, 87.480 77.766 C 86.581 73.479, 84.775 69.737, 83.389 69.287 C 82.778 69.088, 81.576 69.999, 80.717 71.309 M 116.211 91.587 C 115.722 92.461, 112.736 94.226, 109.574 95.511 C 103.364 98.035, 100 100.536, 100 102.629 C 100 104.373, 104.486 106.567, 109.679 107.361 L 113.858 108.001 115.002 102.250 C 115.632 99.088, 116.527 95.037, 116.993 93.250 C 117.912 89.720, 117.612 89.084, 116.211 91.587 M 97.582 107.371 C 97.934 108.542, 99.187 111.975, 100.366 115 C 102.454 120.355, 102.614 120.500, 106.395 120.500 C 110.133 120.500, 110.330 120.330, 111.624 116 C 113.437 109.937, 113.457 110, 109.669 110 C 107.838 110, 104.225 108.930, 101.641 107.621 C 96.968 105.256, 96.946 105.254, 97.582 107.371 M 105.991 125.489 C 107.240 126.994, 109 126.673, 109 124.941 C 109 124.423, 108.045 124, 106.878 124 C 105.111 124, 104.962 124.250, 105.991 125.489 M 104.362 143.770 C 96.677 159.819, 90.551 165.873, 76.833 170.974 C 73.716 172.133, 70.058 173.953, 68.704 175.019 C 66.488 176.761, 62 184.675, 62 186.838 C 62 187.315, 64.556 187.308, 67.750 186.822 C 74.452 185.801, 85.986 180.533, 97.990 173.008 C 110.885 164.924, 115.558 163.020, 122.500 163.019 C 127.308 163.019, 129.516 163.602, 133.615 165.952 C 138.802 168.927, 145.145 175.345, 149.831 182.358 C 152.308 186.065, 152.577 186.193, 156.731 185.623 C 159.108 185.298, 163.629 184.011, 166.777 182.764 C 177.621 178.468, 174.939 174.221, 152.367 159.951 C 136.370 149.838, 128.623 143.364, 126.934 138.699 C 125.798 135.560, 125.656 135.500, 119.419 135.481 C 115.743 135.470, 112.543 134.943, 111.831 134.231 C 111.154 133.554, 110.352 133.009, 110.050 133.020 C 109.748 133.032, 107.188 137.869, 104.362 143.770" stroke="none" fill="black" fill-rule="evenodd"/>
</svg>