<svg xmlns="http://www.w3.org/2000/svg" width="200" height="200" viewBox="0 0 200 200" version="1.1">
	<path d="M 171.500 16.753 C 168.750 20.956, 163.375 28.912, 159.556 34.432 L 152.612 44.468 151.413 37.984 C 149 24.933, 149.313 25.239, 133.459 20.393 C 125.782 18.045, 119.116 16.503, 118.647 16.966 C 118.177 17.428, 120.378 19.460, 123.537 21.480 C 134.920 28.762, 143.031 39.636, 144.591 49.708 C 145.221 53.779, 145.029 54.171, 138.707 61.708 C 130.210 71.839, 123.005 78.826, 122.982 76.958 C 122.945 74.036, 119.937 54.300, 117.994 44.230 C 116.897 38.548, 116 32.206, 116 30.136 C 116 22.876, 108.135 18.759, 91.742 17.439 C 77.051 16.256, 47.434 20.166, 43.837 23.763 C 40.314 27.286, 55.031 38.153, 67.739 41.413 C 71.326 42.333, 69.482 42.514, 55.739 42.590 C 32.959 42.716, 24 43.661, 24 45.939 C 24 49.999, 31.374 55.041, 39.555 56.576 C 42.175 57.068, 42.938 57.646, 42.575 58.867 C 39.277 69.972, 39.351 79.847, 42.783 86.574 C 46.117 93.109, 52.854 98.566, 60.506 100.929 C 68.435 103.378, 78.605 103.625, 85.544 101.537 C 91.003 99.894, 92.975 100.198, 87.817 101.887 C 80.084 104.419, 72.157 105.231, 49.134 105.847 L 24.768 106.500 37.632 117.500 C 44.708 123.550, 57.346 135.187, 65.719 143.359 L 80.941 158.218 91.310 155.572 C 115.805 149.320, 135.464 151.911, 147.032 162.916 C 152.957 168.552, 157.251 178.621, 157.804 188.173 C 158.053 192.478, 158.594 196, 159.007 196 C 159.873 196, 169.928 181.152, 172.492 176.087 C 177.980 165.246, 179.437 154.362, 176.248 148.025 C 173.945 143.447, 167.903 139.409, 160.540 137.525 C 152.882 135.566, 132.928 135.549, 119.270 137.491 C 109.314 138.906, 108.789 138.881, 99.641 136.561 C 89.114 133.891, 83.689 131.469, 84.246 129.691 C 84.451 129.036, 86.688 127.393, 89.217 126.040 L 93.814 123.580 99.657 127.615 C 108.986 134.057, 115.111 135.756, 122.395 133.922 C 127.909 132.534, 135.589 126.083, 139.332 119.697 C 145.762 108.725, 148.886 91.075, 147.059 76.049 C 145.878 66.336, 146.519 57.036, 148.562 54.253 C 149.620 52.811, 149.818 57.552, 149.674 81 C 149.525 105.389, 149.746 110.293, 151.207 115 C 153.322 121.817, 156.790 126.612, 162.262 130.288 L 166.472 133.115 168.307 128.807 C 171.286 121.814, 174.762 105.944, 175.972 93.811 C 176.657 86.951, 176.982 68.060, 176.800 45.805 L 176.500 9.110 171.500 16.753 M 168.590 26.077 C 165.889 30.160, 161.235 36.815, 158.247 40.866 L 152.814 48.232 152.657 79.366 C 152.515 107.450, 152.683 111.026, 154.370 115.870 C 156.085 120.792, 162.638 129, 164.854 129 C 165.324 129, 166.676 125.737, 167.859 121.750 C 172.810 105.056, 173.187 101.258, 173.692 63 C 173.957 42.925, 174.023 24.735, 173.837 22.577 L 173.500 18.654 168.590 26.077 M 68 21.018 C 65.462 21.415, 67.642 21.513, 73 21.242 C 78.225 20.977, 82.688 20.590, 82.917 20.381 C 83.569 19.785, 72.994 20.237, 68 21.018 M 99.005 25.978 C 98.340 28.753, 96.685 32.659, 95.327 34.659 C 92.877 38.270, 93.040 39.104, 96.427 40.293 C 96.937 40.472, 97.024 41.152, 96.620 41.805 C 96.066 42.702, 95.186 42.631, 93.025 41.513 C 90.499 40.207, 89.749 40.207, 86.614 41.517 C 84.662 42.333, 80.687 43.018, 77.782 43.040 C 72.603 43.079, 72.552 43.108, 75.166 44.528 C 76.986 45.516, 78.373 47.607, 79.541 51.122 L 81.250 56.269 87.875 55.712 C 95.572 55.064, 103.811 52.261, 105.387 49.753 C 106.197 48.465, 106.165 47.493, 105.263 46.050 C 103.619 43.417, 105.296 42.565, 107.447 44.941 C 111.531 49.454, 106.399 54.967, 96.188 57.038 C 85.881 59.127, 85.735 59.466, 94 62.105 C 101.191 64.401, 101.598 64.699, 103.893 69.326 C 106.502 74.589, 107.126 83.028, 105.175 86.673 C 104.282 88.341, 104.414 89.065, 105.847 90.362 C 107.510 91.866, 108.031 91.650, 113.565 87.167 L 119.500 82.358 119.341 74.317 C 119.253 69.895, 117.772 58.552, 116.049 49.110 C 114.326 39.669, 113.166 31.541, 113.471 31.047 C 114.599 29.222, 111.661 25.154, 108.135 23.658 C 100.442 20.394, 100.338 20.421, 99.005 25.978 M 84 23.040 C 80.425 23.473, 73.900 24.150, 69.500 24.544 L 61.500 25.261 66.500 27.013 C 69.250 27.977, 75.629 30.570, 80.676 32.776 L 89.852 36.786 91.892 34.615 C 93.718 32.671, 97 25.128, 97 22.874 C 97 21.871, 93.263 21.918, 84 23.040 M 134.820 27.011 C 140.976 33.149, 145.611 40.740, 146.532 46.191 C 147.709 53.156, 150.424 49.828, 149.404 42.671 C 149.077 40.377, 148.119 35.914, 147.274 32.753 L 145.738 27.007 138.619 24.896 C 134.704 23.735, 131.050 22.543, 130.500 22.246 C 129.950 21.950, 131.894 24.094, 134.820 27.011 M 46 25.460 C 46 27.039, 52.699 31.792, 59.811 35.258 C 66.550 38.542, 69.483 39.391, 75.311 39.744 C 79.265 39.983, 83.523 39.788, 84.772 39.309 C 86.751 38.552, 85.855 37.936, 77.838 34.541 C 64.341 28.826, 52.948 25.029, 49.250 25.013 C 47.462 25.006, 46 25.207, 46 25.460 M 35.738 45.881 C 31.468 46.221, 27.894 46.950, 27.794 47.500 C 27.490 49.185, 35.120 52.852, 42.500 54.566 C 46.350 55.461, 56.097 56.438, 64.160 56.738 L 78.819 57.284 77.280 52.608 C 76.432 50.032, 74.788 47.403, 73.620 46.755 C 71.231 45.430, 48.095 44.896, 35.738 45.881 M 71.500 59.933 C 65.426 60.364, 64.158 60.684, 66.232 61.264 C 69.540 62.190, 75.678 67.411, 76.499 69.997 C 76.826 71.027, 80.560 73.757, 84.797 76.063 C 89.034 78.368, 94.649 81.780, 97.275 83.644 C 101.557 86.683, 102.124 86.850, 102.768 85.266 C 104.078 82.042, 103.390 74.468, 101.431 70.557 C 99.767 67.233, 98.709 66.460, 93.784 64.968 C 90.640 64.016, 86.451 62.284, 84.476 61.119 C 82.502 59.953, 80.574 59.083, 80.193 59.183 C 79.812 59.284, 75.900 59.622, 71.500 59.933 M 44 63.941 C 43.456 65.898, 43.009 70.449, 43.006 74.054 C 42.995 86.235, 49.836 95.144, 61.894 98.655 C 70.290 101.100, 84.053 100.187, 91.147 96.716 C 94.192 95.227, 97.542 93.058, 98.591 91.896 C 100.484 89.802, 100.474 89.763, 97.284 87.098 C 95.516 85.621, 90.367 82.324, 85.844 79.773 L 77.619 75.134 75.895 78.986 C 73.956 83.316, 70.931 85.531, 69.252 83.852 C 68.068 82.668, 68.794 79.488, 71.558 73.758 C 73.349 70.044, 73.345 69.996, 71.038 67.540 C 68.124 64.439, 61.255 62.119, 52.081 61.139 L 44.989 60.381 44 63.941 M 143 60.794 C 143 61.230, 138.500 66.366, 133 72.205 L 123 82.823 123 89.862 C 123 110.465, 115.067 121.948, 100.782 122.022 L 96.500 122.044 99 124.058 C 103.347 127.559, 110.853 131.018, 115.477 131.652 C 119.088 132.147, 120.977 131.757, 125.370 129.607 C 137.024 123.906, 144.246 107.678, 144.334 87 C 144.379 76.464, 143.718 60.004, 143.250 60.001 C 143.113 60.001, 143 60.357, 143 60.794 M 72.624 77.539 C 71.659 80.053, 71.943 80.702, 73.122 78.675 C 73.706 77.671, 73.973 76.639, 73.715 76.382 C 73.458 76.124, 72.966 76.645, 72.624 77.539 M 115 89.595 C 112.525 91.561, 110.356 93.313, 110.180 93.488 C 110.004 93.663, 110.792 95.632, 111.930 97.863 C 113.069 100.095, 114 102.883, 114 104.059 C 114 107.830, 110.892 112.907, 106.691 115.996 C 102.322 119.209, 103.770 120.204, 108.931 117.536 C 113.233 115.311, 116.826 110.437, 118.406 104.683 C 120.118 98.445, 121.366 85.996, 120.278 86.010 C 119.850 86.015, 117.475 87.628, 115 89.595 M 101.707 92.320 C 101.418 93.074, 99.038 95.111, 96.419 96.846 C 90.717 100.623, 91.302 100.920, 97.783 97.540 C 105.093 93.728, 105.325 93.515, 103.664 92.136 C 102.546 91.208, 102.119 91.249, 101.707 92.320 M 100.500 99.102 C 97.750 100.690, 91.900 103.187, 87.500 104.651 C 80.087 107.118, 77.836 107.357, 56.831 107.907 C 44.363 108.233, 33.890 108.774, 33.556 109.108 C 33.223 109.443, 37.796 113.943, 43.718 119.108 C 49.640 124.274, 60.564 134.501, 67.993 141.835 L 81.500 155.171 92.500 152.410 C 118.252 145.945, 139.325 150.019, 151.614 163.837 C 155.103 167.760, 158.644 175.649, 160.115 182.773 L 161.409 189.045 164.813 183.773 C 172.930 171.197, 176.491 160.142, 174.823 152.695 C 172.561 142.593, 163.148 138.676, 141.500 138.826 C 133.800 138.879, 123.347 139.530, 118.271 140.272 C 109.530 141.551, 108.539 141.501, 99.521 139.331 C 79.866 134.603, 76.258 130.019, 87.383 123.912 C 91.470 121.669, 91.891 121.154, 90.548 120.040 C 87.936 117.872, 88.814 117.166, 92.849 118.190 C 96.314 119.069, 97.212 118.851, 101.837 116.005 C 110.463 110.698, 112.823 105.427, 109.474 98.950 C 107.633 95.391, 106.906 95.403, 100.500 99.102" stroke="none" fill="black" fill-rule="evenodd"/>
</svg>