<svg xmlns="http://www.w3.org/2000/svg" width="200" height="200" viewBox="0 0 200 200" version="1.1">
	<path d="M 81.500 10.671 C 63.350 11.433, 47.545 12.263, 46.378 12.515 C 43.681 13.098, 42.505 18.220, 44.252 21.776 C 46.144 25.630, 52.062 29.905, 59.140 32.534 L 65.500 34.896 56.974 34.948 C 46.129 35.014, 32.862 36.624, 26.740 38.617 C 21.620 40.285, 18.753 43.606, 21.147 45.098 C 23.481 46.554, 36.082 49.140, 46.699 50.344 L 56.899 51.500 46.949 54.367 C 39.573 56.492, 37 57.656, 37 58.869 C 37 59.769, 39.488 67.704, 42.529 76.503 C 50.020 98.177, 50.018 101.361, 42.512 104.994 C 38.412 106.979, 34.810 107.723, 19.500 109.749 L 13.500 110.543 19.685 115.143 C 32.113 124.386, 48.245 125.365, 77.500 118.651 C 95.191 114.592, 106.579 112.665, 110.019 113.150 C 112.446 113.492, 112.501 113.696, 112.553 122.500 C 112.588 128.417, 113.243 133.466, 114.465 137.239 C 116.079 142.225, 116.156 143.535, 115.054 147.214 C 112.270 156.506, 101.426 162.758, 86.397 163.736 C 81.482 164.056, 77.547 163.843, 76.397 163.194 C 74.708 162.241, 75.021 161.893, 79.257 160.012 C 81.873 158.851, 87.498 157.169, 91.757 156.276 C 100.934 154.350, 101.710 153.843, 104.137 148.181 C 108.264 138.553, 105.559 130.721, 96.500 126.068 C 91.786 123.647, 90.642 123.500, 76.500 123.500 C 63.770 123.500, 60.427 123.838, 54.410 125.730 C 45.947 128.392, 42 131.209, 42 134.587 C 42 137.735, 46.592 140.609, 54.127 142.178 L 59.754 143.349 54.260 147.825 C 47.118 153.643, 43 160.098, 43 165.473 C 43 174.222, 50.488 179.610, 67.500 183.101 C 72.450 184.117, 78.283 185.860, 80.461 186.974 C 87.636 190.643, 92.395 189.839, 106.565 182.564 C 113.460 179.023, 121.390 175.367, 124.187 174.438 C 134.095 171.147, 144.188 174.188, 153.169 183.169 C 157.721 187.721, 158.634 187.454, 161.950 180.603 C 167.259 169.637, 161.199 154.260, 144.433 136.151 C 137.034 128.159, 122.833 117, 120.061 117 C 118.321 117, 115.292 114.368, 116.107 113.565 C 116.996 112.691, 124.415 116.024, 126.917 118.421 C 130.177 121.544, 131 121.644, 131 118.920 C 131 115.905, 140.357 107.076, 156.500 94.861 C 171.569 83.458, 180 75.285, 180 72.082 C 180 67.528, 174.464 65, 164.492 65 L 159.234 65 155.055 49.750 C 147.416 21.878, 144.076 13.406, 139.559 10.447 C 134.751 7.296, 130.643 12.259, 126.671 26.015 L 124.227 34.482 123.123 30.491 C 122.515 28.296, 121.009 22.563, 119.775 17.750 C 118.145 11.395, 117.116 9.039, 116.015 9.143 C 115.182 9.222, 99.650 9.909, 81.500 10.671 M 94.500 13.051 C 86.800 13.439, 78.062 13.811, 75.083 13.878 C 72.104 13.945, 69.919 14.252, 70.227 14.560 C 70.535 14.868, 76.326 16.009, 83.095 17.095 C 89.865 18.182, 95.583 19.250, 95.802 19.469 C 96.893 20.560, 94.723 21.680, 92.274 21.290 C 90.748 21.048, 96.700 24.417, 105.500 28.778 C 114.300 33.139, 121.575 36.660, 121.667 36.603 C 121.759 36.546, 120.409 30.987, 118.667 24.251 L 115.500 12.004 112 12.176 C 110.075 12.270, 102.200 12.664, 94.500 13.051 M 134.032 15.177 C 130.337 21.234, 125.475 38.558, 127.175 39.608 C 127.727 39.949, 127.696 40.661, 127.099 41.381 C 126.428 42.189, 126.608 45.518, 127.649 51.542 C 128.650 57.340, 129.059 64.380, 128.806 71.500 C 128.365 83.955, 126.365 89.908, 120.575 96 C 117.888 98.826, 117.129 100.586, 116.628 105.140 L 116.009 110.779 119.254 111.394 C 121.039 111.732, 123.834 112.820, 125.465 113.810 L 128.430 115.612 133.965 109.992 C 137.009 106.902, 146.009 99.479, 153.965 93.498 C 181.421 72.856, 183.406 68.109, 164.728 67.763 C 159.619 67.668, 157.664 67.237, 157.043 66.068 C 156.585 65.206, 154.563 58.425, 152.549 51 C 145.438 24.786, 140.978 13.467, 137.280 12.254 C 136.609 12.033, 135.147 13.349, 134.032 15.177 M 46.667 16.667 C 43.616 19.717, 51.180 26.888, 60.889 30.151 C 67.729 32.450, 81.474 33.259, 87.250 31.703 C 89.324 31.144, 90 31.318, 90 32.408 C 90 33.203, 89.213 34.059, 88.250 34.311 C 87.287 34.562, 89.061 34.820, 92.191 34.884 C 97.888 35, 100.467 36.457, 97.878 38.096 C 97.120 38.577, 93.347 38.976, 89.493 38.985 L 82.486 39 82.843 43.500 C 83.112 46.873, 83.615 47.999, 84.851 47.994 C 91.095 47.972, 117.478 42.846, 120.941 40.982 C 122.680 40.046, 103.003 29.940, 86.579 23.334 C 77.257 19.585, 73.744 18.728, 62.579 17.481 C 47.411 15.786, 47.541 15.792, 46.667 16.667 M 48 38.004 C 38.108 38.779, 27.581 40.625, 25 42.038 C 23.799 42.696, 24.003 43.051, 26.026 43.820 C 33.988 46.847, 66.204 49.946, 75.392 48.569 L 80.100 47.862 79.800 42.681 L 79.500 37.500 68.500 37.380 C 62.450 37.314, 53.225 37.595, 48 38.004 M 112.500 46.142 C 108.650 47.170, 101.225 48.599, 96 49.316 L 86.500 50.619 90 52.427 C 101.011 58.112, 105.239 69.940, 101.644 85 L 100.092 91.500 102.977 95.500 C 105.348 98.789, 106.412 99.473, 108.958 99.350 C 113.855 99.112, 114.669 97.697, 115.936 87.228 C 116.583 81.877, 118.212 70.325, 119.556 61.555 C 120.900 52.786, 122 45.248, 122 44.805 C 122 43.749, 120.847 43.911, 112.500 46.142 M 124.110 49.241 C 120.855 71.237, 118.006 92.750, 118.220 93.715 C 118.607 95.468, 122.873 88.998, 124.767 83.785 C 126.539 78.910, 126.786 60.514, 125.181 53 C 124.652 50.525, 124.170 48.833, 124.110 49.241 M 65.388 53.051 C 59.361 53.838, 55.626 54.690, 45.190 57.664 C 39.955 59.155, 39.890 59.221, 40.570 62.338 C 40.950 64.077, 43.452 71.460, 46.130 78.745 C 51.850 94.301, 52.314 99.285, 48.472 103.851 C 45.219 107.717, 39.321 109.927, 28.316 111.405 L 19.500 112.590 26.174 115.895 C 37.997 121.749, 51.097 121.675, 78.500 115.597 C 87.300 113.645, 97.637 111.563, 101.471 110.970 C 105.305 110.376, 108.604 109.730, 108.801 109.532 C 108.998 109.335, 108.397 108.009, 107.465 106.587 C 105.949 104.273, 105.123 103.999, 99.635 103.986 C 96.261 103.979, 92.469 103.697, 91.209 103.359 C 88.922 102.746, 88.922 102.743, 90.973 101.307 C 92.102 100.515, 93.902 98.153, 94.971 96.057 L 96.915 92.247 93.207 87.333 C 84.010 75.142, 82 73.208, 82 76.550 C 82 77.402, 81.313 79.427, 80.474 81.050 C 77.136 87.506, 69.142 82.734, 65.528 72.128 C 61.129 59.218, 65.936 55.117, 75.686 63.463 C 77.958 65.408, 80.084 67, 80.409 67 C 80.734 67, 81 63.902, 81 60.117 C 81 53.824, 80.807 53.182, 78.750 52.630 C 76.064 51.911, 73.514 51.991, 65.388 53.051 M 83 61.541 L 83 70.217 90.199 79.110 C 94.394 84.293, 97.768 87.632, 98.285 87.115 C 99.819 85.581, 100.373 70.661, 99.046 66.639 C 96.949 60.284, 92.076 55.665, 85.250 53.559 C 83.036 52.876, 83 53.005, 83 61.541 M 66.620 62.805 C 65.153 65.179, 69.717 76.446, 73.637 80.129 C 76.103 82.445, 76.194 82.456, 77.568 80.576 C 78.342 79.518, 79.269 77.081, 79.630 75.161 C 80.236 71.927, 79.911 71.313, 75.217 66.835 C 70.415 62.254, 67.737 60.999, 66.620 62.805 M 97.172 97.522 C 95.641 100.882, 95.944 101.226, 100.081 100.821 L 103.354 100.500 100.886 97.643 L 98.419 94.786 97.172 97.522 M 111.250 102.096 C 108.526 103.112, 108.486 103.773, 110.954 106.985 C 113.298 110.036, 114.233 109.299, 113.816 104.728 C 113.530 101.588, 113.285 101.336, 111.250 102.096 M 114.728 123.720 C 114.368 126.917, 114.770 129.485, 116.086 132.382 C 118.774 138.300, 118.605 147.369, 115.712 152.500 C 111.393 160.159, 100.229 165.579, 86.500 166.682 C 78.290 167.341, 71.604 165.293, 72.182 162.296 C 72.701 159.597, 79.587 156.291, 89.841 153.816 C 98.859 151.640, 99.251 151.429, 101.147 147.712 C 107.019 136.201, 101.264 128.455, 84.958 125.926 C 72.502 123.993, 52.132 127.402, 46.333 132.390 L 43.632 134.713 46.080 136.317 C 50.067 138.929, 60.654 141.234, 65.164 140.472 C 68.728 139.870, 69.146 140.004, 68.833 141.646 C 68.627 142.729, 67.444 143.646, 65.990 143.851 C 60.139 144.675, 47.864 156.383, 45.869 163.042 C 43.451 171.113, 51.489 177.181, 69 180.505 C 73.675 181.393, 79.136 182.992, 81.136 184.060 C 87.813 187.622, 92.561 186.774, 106.599 179.507 C 113.497 175.936, 121.653 172.285, 124.723 171.392 C 134.278 168.615, 143.992 171.264, 152.288 178.911 C 154.727 181.160, 156.999 183, 157.336 183 C 158.916 183, 161 176.553, 161 171.665 C 161 167.332, 160.197 164.626, 157.035 158.309 C 149.330 142.916, 126.995 120.664, 118.121 119.541 C 115.375 119.193, 115.216 119.389, 114.728 123.720" stroke="none" fill="black" fill-rule="evenodd"/>
</svg>