<svg xmlns="http://www.w3.org/2000/svg" width="200" height="200" viewBox="0 0 200 200" version="1.1">
	<path d="M 86 10.124 C 81.875 10.599, 74.450 11.709, 69.500 12.590 C 64.550 13.471, 56.041 14.524, 50.591 14.930 C 41.431 15.613, 40.500 15.879, 38.289 18.450 C 36.974 19.979, 36.033 21.354, 36.199 21.505 C 36.364 21.655, 39.052 21.310, 42.170 20.736 C 46.721 19.900, 49.583 20.039, 56.670 21.440 C 67.275 23.536, 83.664 28.647, 84.591 30.147 C 86.755 33.649, 73.108 33.886, 54.181 30.674 C 42.683 28.722, 38.373 28.706, 40.289 30.623 C 41.086 31.420, 61.127 34.837, 69.398 35.587 C 76.464 36.227, 76.887 36.391, 74.967 37.735 C 73.185 38.984, 71.654 39.007, 64.195 37.900 C 59.413 37.190, 50.307 36.585, 43.961 36.555 C 31.535 36.496, 27 37.934, 27 41.934 C 27 46.633, 39.681 52.508, 52.755 53.867 L 59.500 54.569 56.425 56.220 C 52.064 58.561, 46.459 65.080, 44.996 69.511 C 43.405 74.331, 44.161 85.477, 46.368 89.744 C 48.609 94.078, 53.663 99.736, 58.293 103.094 L 62.086 105.845 56.793 106.384 C 53.882 106.680, 47.900 107.191, 43.500 107.519 C 34.061 108.224, 27.852 109.502, 23.243 111.689 C 20.551 112.966, 19.953 113.781, 20.197 115.840 C 20.796 120.907, 31.263 124.667, 47.542 125.663 C 63.625 126.647, 77.883 123.271, 85.519 116.670 L 89.332 113.374 98.817 116.634 C 104.033 118.427, 110.708 120.194, 113.650 120.562 C 119.242 121.261, 119.445 121.524, 118.406 126.718 L 117.813 129.686 94.156 130.449 C 81.145 130.869, 64.200 131.502, 56.500 131.856 L 42.500 132.500 47.451 135.753 C 58.394 142.944, 70.709 145.885, 93.224 146.682 C 102.422 147.008, 109.708 147.663, 109.415 148.138 C 109.122 148.612, 109.959 149, 111.274 149 C 112.590 149, 113.928 149.261, 114.247 149.581 C 115.201 150.535, 111.061 164.106, 108.883 167.165 C 107.772 168.724, 106.238 170, 105.474 170 C 104.710 170, 100.440 166.591, 95.985 162.425 C 80.812 148.236, 74.661 147.746, 59.705 159.533 C 43.083 172.633, 47.915 184.367, 71.016 187.002 C 79.951 188.021, 95.339 186.982, 106.576 184.600 C 112.891 183.262, 114.665 183.266, 123.076 184.638 C 147.579 188.636, 158.995 180.067, 148.850 165.291 C 143.957 158.165, 133.933 152.089, 119.528 147.518 C 117.879 146.995, 117.797 146.740, 119.028 145.962 C 119.838 145.450, 121.625 145.018, 123 145.002 C 126.597 144.961, 142.268 141.614, 150.813 139.062 C 158.730 136.697, 159.784 134.892, 153.426 134.584 C 148.947 134.367, 143.342 130.931, 135.432 123.555 L 130.500 118.956 133 117.259 C 134.375 116.325, 140.675 110.553, 147 104.433 C 159.589 92.250, 164.152 88.978, 173.380 85.513 C 179.723 83.131, 182.242 80.003, 177.823 79.996 C 174.327 79.991, 169.402 76.564, 166.426 72.068 C 164.966 69.862, 160.733 60.628, 157.019 51.547 C 153.305 42.466, 148.744 32.501, 146.883 29.402 C 143.380 23.569, 134.576 13.914, 131.029 12.015 C 129.217 11.046, 128.999 11.228, 128.987 13.715 C 128.961 19.512, 125.983 51.350, 125.414 51.912 C 125.087 52.236, 125.136 46.425, 125.524 39 C 126.363 22.909, 125.484 18.510, 120.565 14.191 C 114.935 9.248, 104.379 8.006, 86 10.124 M 88 12.591 C 86.625 12.822, 80.356 13.745, 74.069 14.641 L 62.638 16.272 68.614 18.436 C 71.900 19.626, 76.819 21.848, 79.545 23.375 C 82.270 24.901, 88.325 27.730, 93 29.662 C 106.300 35.157, 115.087 40.701, 116.939 44.766 C 118.049 47.201, 117.913 47.678, 115.528 49.730 C 112.924 51.969, 112.236 52.081, 99 52.412 C 96.276 52.481, 95.435 52.952, 95.208 54.537 C 94.974 56.173, 95.913 56.933, 99.962 58.389 C 102.737 59.387, 105.196 60.508, 105.425 60.879 C 105.655 61.251, 104.315 63.977, 102.448 66.938 C 100.581 69.899, 98.328 74.507, 97.441 77.177 L 95.829 82.031 100.825 87.766 C 103.573 90.919, 107.389 95.004, 109.304 96.842 C 113.238 100.619, 114.358 100.423, 119.456 95.066 C 122.264 92.116, 122.475 91.275, 123.684 78.230 C 124.545 68.937, 124.641 63.369, 123.983 61 C 123.449 59.075, 123.009 49.693, 123.006 40.151 C 122.999 20.228, 122.227 17.315, 116.173 14.365 C 113.429 13.028, 109.717 12.524, 101.500 12.373 C 95.450 12.262, 89.375 12.361, 88 12.591 M 131.556 18.250 C 131.347 18.938, 130.405 29.912, 129.463 42.638 L 127.750 65.775 130.375 71.508 C 131.819 74.662, 133 77.724, 133 78.313 C 133 78.902, 131.256 82.335, 129.125 85.942 C 125.799 91.572, 125.094 93.843, 124.144 101.996 C 123.055 111.341, 123.075 111.530, 125.397 113.852 C 127.180 115.634, 128.331 116.030, 130.102 115.468 C 131.391 115.058, 138.309 109.042, 145.475 102.097 C 155.949 91.946, 159.921 88.787, 165.727 85.985 C 169.699 84.068, 172.955 82.275, 172.962 82 C 172.969 81.725, 171.433 80.501, 169.547 79.280 C 164.995 76.332, 161.771 70.589, 154.295 52.110 C 147.604 35.571, 143.947 28.820, 137.760 21.581 C 133.740 16.878, 132.223 16.063, 131.556 18.250 M 56.813 18.683 C 57.534 18.972, 58.397 18.936, 58.729 18.604 C 59.061 18.272, 58.471 18.036, 57.417 18.079 C 56.252 18.127, 56.015 18.364, 56.813 18.683 M 88 31.933 C 88 32.520, 88.650 33, 89.444 33 C 90.239 33, 92.150 34.085, 93.691 35.411 C 96.112 37.493, 96.517 38.616, 96.668 43.661 L 96.842 49.500 103.171 49.468 C 110.451 49.432, 115 48.438, 115 46.882 C 115 44.766, 109.168 40.411, 100.897 36.350 C 90.972 31.476, 88 30.458, 88 31.933 M 81.845 37.485 C 79.834 38.225, 77.026 39.592, 75.605 40.523 C 73.350 42, 72.219 42.070, 66.760 41.069 C 57.332 39.340, 36.005 38.586, 32.750 39.868 C 28.980 41.352, 29.303 43.241, 33.750 45.731 C 42.478 50.616, 59.673 52.988, 72 51.007 C 76.125 50.344, 82.763 49.572, 86.750 49.292 L 94 48.781 94 44.613 C 94 36.697, 90.141 34.434, 81.845 37.485 M 82.098 52.995 C 84.667 54.497, 92.222 54.678, 92.726 53.250 C 93.049 52.333, 91.478 52.008, 86.833 52.030 C 82.422 52.052, 80.985 52.344, 82.098 52.995 M 63.951 56.362 C 54.404 58.937, 48.122 65.360, 46.593 74.111 C 45.696 79.241, 47.642 87.117, 51.093 92.327 C 54.332 97.217, 62.371 103.147, 68.250 104.984 C 70.313 105.628, 72 106.725, 72 107.422 C 72 108.360, 68.030 108.869, 56.750 109.381 C 40.754 110.106, 27.862 111.933, 23.943 114.030 L 21.620 115.274 23.909 117.128 C 27.788 120.269, 35.980 122.155, 48.220 122.726 C 66.095 123.559, 79.446 120.012, 85.496 112.822 L 88.084 109.746 96.292 112.863 C 105.413 116.327, 111.863 117.939, 116.750 117.976 C 119.668 117.998, 120 117.706, 120 115.129 C 120 113.211, 118.755 110.887, 116.250 108.131 C 112.753 104.284, 112.264 104.061, 109 104.833 C 101.565 106.591, 94.938 102.078, 92.982 93.925 C 92.344 91.265, 92.107 87.789, 92.456 86.201 C 93.002 83.712, 92.517 82.796, 88.936 79.561 L 84.781 75.808 81.141 79.286 C 73.249 86.825, 67.547 87.054, 62.704 80.027 C 60.341 76.598, 60.576 71.919, 63.314 67.898 C 65.357 64.898, 66.122 64.510, 69.859 64.590 C 72.900 64.654, 75.354 65.569, 78.575 67.840 C 81.041 69.578, 83.460 71, 83.951 71 C 85.018 71, 91.220 58.887, 90.515 58.181 C 89.633 57.300, 76.596 55.073, 72.500 55.104 C 70.300 55.121, 66.453 55.687, 63.951 56.362 M 89.847 66.566 L 86.194 73.986 90.097 77.077 C 92.921 79.313, 94 79.745, 94 78.638 C 94 77.796, 95.745 73.735, 97.878 69.614 L 101.756 62.120 97.858 60.560 C 95.714 59.702, 93.856 59.033, 93.730 59.073 C 93.603 59.113, 91.856 62.485, 89.847 66.566 M 65.557 69.223 C 63.548 72.091, 63.572 76.417, 65.615 79.535 C 68.117 83.354, 72.998 82.900, 77.997 78.384 C 80.199 76.395, 82 74.417, 82 73.988 C 82 72.509, 72.318 67, 69.719 67 C 68.160 67, 66.488 67.893, 65.557 69.223 M 126.529 77.811 C 126.122 81.283, 125.989 84.323, 126.234 84.567 C 126.479 84.812, 127.517 83.455, 128.542 81.551 C 130.270 78.343, 130.292 77.851, 128.837 74.795 L 127.268 71.500 126.529 77.811 M 95.022 89.250 C 95.078 97.481, 101.336 104.137, 107.553 102.576 C 110.108 101.935, 110.042 101.811, 102.966 93.963 C 99.018 89.583, 95.611 86, 95.394 86 C 95.177 86, 95.010 87.463, 95.022 89.250 M 118.265 99.721 L 115.030 102.233 117.083 105.117 C 118.212 106.702, 119.493 108, 119.929 108 C 120.619 108, 122.324 97.955, 121.726 97.414 C 121.601 97.301, 120.044 98.340, 118.265 99.721 M 122 117 C 122 117.550, 122.702 118, 123.559 118 C 124.416 118, 124.840 117.550, 124.500 117 C 124.160 116.450, 123.459 116, 122.941 116 C 122.423 116, 122 116.450, 122 117 M 123.141 120.892 C 122.394 121.365, 121.557 123.754, 121.281 126.200 C 120.794 130.516, 120.876 130.675, 124.036 131.581 C 128.718 132.924, 129.920 135.303, 127.797 139.019 C 126.860 140.659, 126.305 142, 126.564 142 C 127.787 142, 146.600 137.733, 147.326 137.291 C 147.780 137.014, 146.430 135.636, 144.326 134.227 C 142.222 132.819, 137.515 129.042, 133.866 125.833 C 127.226 119.994, 125.681 119.282, 123.141 120.892 M 71 134.045 C 65.225 134.436, 58.475 134.847, 56 134.959 L 51.500 135.164 56.524 137.463 C 66.590 142.070, 75.977 143.500, 96.164 143.500 C 106.430 143.500, 115.145 143.185, 115.532 142.799 C 115.918 142.414, 116.465 140.052, 116.747 137.549 L 117.260 133 99.380 133.168 C 89.546 133.260, 76.775 133.655, 71 134.045 M 119.557 137.547 C 118.677 142.239, 119.384 142.851, 122.766 140.325 C 126.338 137.659, 126.390 134.603, 122.872 134.195 C 120.556 133.927, 120.161 134.327, 119.557 137.547 M 116.043 155.696 C 113.212 168.349, 108.905 174.055, 103.683 172.070 C 102.261 171.529, 97.813 167.979, 93.798 164.180 C 84.713 155.583, 81.069 153.619, 75.393 154.259 C 71.072 154.746, 61.138 160.935, 56.317 166.142 C 42.504 181.060, 67.713 189.276, 105.076 182.033 C 112.348 180.623, 115.799 180.374, 118.218 181.084 C 124.260 182.856, 139.169 183.307, 143.464 181.847 C 153.132 178.562, 151.364 168.777, 139.476 159.783 C 134.821 156.261, 125.846 152.077, 119.905 150.659 C 117.440 150.071, 117.246 150.324, 116.043 155.696" stroke="none" fill="black" fill-rule="evenodd"/>
</svg>