<svg xmlns="http://www.w3.org/2000/svg" width="200" height="200" viewBox="0 0 200 200" version="1.1">
	<path d="M 115.313 9.087 C 114.636 9.764, 101.644 10.719, 80.863 11.618 C 62.513 12.413, 46.909 13.270, 46.187 13.524 C 45.464 13.778, 45.122 14.388, 45.425 14.879 C 45.729 15.371, 45.083 16.007, 43.989 16.293 C 41.899 16.839, 41.543 17.792, 42.765 19.567 C 43.908 21.226, 53.702 28.205, 62.250 33.451 C 66.513 36.067, 70 38.273, 70 38.354 C 70.001 38.434, 61.993 38.345, 52.205 38.156 C 32.617 37.778, 26.931 38.649, 24.471 42.404 C 22.544 45.344, 23.577 48.348, 28.196 53.247 L 31.566 56.820 37.001 55.410 C 40.255 54.566, 47.064 54.026, 53.968 54.066 L 65.500 54.132 60.024 55.603 C 46.043 59.360, 37 69.406, 37 81.181 C 37 84.184, 37.485 84.859, 40.750 86.405 C 46.980 89.353, 60.923 98.988, 62.075 101.140 C 64.558 105.779, 62.273 106.736, 41 109.969 C 24.766 112.437, 21.625 113.390, 19.084 116.620 C 16.799 119.526, 17.652 123.422, 21.305 126.762 C 26.219 131.254, 47.845 132.264, 69.836 129.029 C 81.899 127.254, 83.396 127.213, 85.512 128.600 C 87.823 130.114, 87.833 130.199, 86.315 135.317 C 83.584 144.524, 79.015 156.373, 76.219 161.500 C 72.670 168.007, 69.765 168.310, 66.647 162.500 C 65.466 160.300, 64.343 158.275, 64.150 158 C 63.037 156.409, 47.447 177.687, 46.471 182.131 C 45.674 185.759, 48.118 189, 51.651 189 C 58.640 189, 82.142 177.803, 97.827 167 L 107.264 160.500 114.322 167.289 C 129.907 182.282, 149.098 186.446, 154.497 176.006 C 159.063 167.177, 148.590 156.935, 130.500 152.539 L 123.500 150.837 121.202 145.590 C 118.558 139.552, 112.902 133.289, 108.381 131.391 C 106.665 130.672, 102.278 129.777, 98.631 129.403 C 93.257 128.853, 92 128.394, 92 126.983 C 92 125.583, 93.471 125.024, 99.541 124.122 C 103.688 123.505, 111.296 123, 116.446 123 L 125.810 123 128.406 127.430 C 132.040 133.631, 137.348 139, 139.845 139 C 143.048 139, 145.006 135.020, 146.581 125.309 C 150.861 98.921, 153.034 91.832, 158.163 87.517 C 162.098 84.205, 166.598 83.523, 172.032 85.415 C 174.489 86.271, 177.014 86.977, 177.641 86.985 C 179.406 87.008, 182.179 79.093, 181.497 75.984 C 180.628 72.029, 177.688 69.729, 167 64.644 C 161.640 62.094, 156.003 58.577, 154.065 56.573 C 151.094 53.502, 150.570 52.209, 150.194 47.007 C 149.682 39.929, 151.943 32.936, 157.988 22.906 L 161.848 16.500 158.674 14.818 C 148.455 9.402, 137.152 13.185, 128.165 25.029 C 124.279 30.151, 123 30.957, 123 28.282 C 123 25.684, 118.368 9.968, 117.282 8.882 C 116.773 8.373, 115.941 8.459, 115.313 9.087 M 89.500 14.031 C 81.800 14.430, 73.700 14.855, 71.500 14.976 C 68.597 15.136, 70.105 15.592, 77 16.638 C 92.615 19.009, 99.250 23.751, 94.420 29.089 C 93.462 30.147, 92.864 31.170, 93.089 31.363 C 93.975 32.120, 106.484 36, 108.039 36 C 110.856 36, 113.323 39.729, 113.414 44.128 C 113.483 47.427, 112.993 48.618, 110.923 50.184 C 107.606 52.692, 102.091 53.946, 94.250 53.976 C 90.813 53.989, 88 54.344, 88 54.765 C 88 55.186, 90.179 56.304, 92.842 57.250 C 95.506 58.196, 99.800 60.832, 102.386 63.108 C 104.971 65.384, 107.206 67.078, 107.351 66.873 C 107.496 66.668, 108.893 63.125, 110.456 59 C 112.019 54.875, 115.197 47.646, 117.519 42.936 L 121.740 34.373 119.120 23.936 L 116.500 13.500 110 13.403 C 106.425 13.350, 97.200 13.633, 89.500 14.031 M 142.422 16.418 C 138.208 18.254, 132.766 23.189, 128.402 29.134 L 124.752 34.105 125.964 45.077 C 126.631 51.112, 127.081 60.876, 126.966 66.775 C 126.813 74.598, 127.183 78.582, 128.334 81.500 C 134.286 96.586, 123.311 109.166, 103.080 110.449 L 96.500 110.866 94.862 116.183 C 93.961 119.107, 93.354 121.643, 93.512 121.817 C 93.671 121.991, 97.253 121.654, 101.473 121.067 C 109.921 119.892, 123.573 119.755, 126.135 120.820 C 127.035 121.194, 129.735 124.377, 132.135 127.893 C 140.234 139.754, 141.888 138.859, 144.452 121.233 C 147.673 99.083, 151.833 87.902, 158.329 83.941 C 161.864 81.786, 169.196 81.364, 173.655 83.059 C 175.951 83.932, 176.665 83.811, 177.720 82.368 C 179.682 79.685, 179.246 75.579, 176.750 73.240 C 175.512 72.080, 170.612 69.345, 165.859 67.162 C 145.488 57.803, 142.238 47.791, 152.797 26.920 L 157.760 17.112 154.731 16.056 C 150.695 14.649, 146.180 14.782, 142.422 16.418 M 67 22.401 C 75.525 25.364, 83.798 28.298, 85.385 28.921 C 87.719 29.837, 88.734 29.749, 90.696 28.463 C 96.952 24.364, 89.358 20.842, 69.173 18.481 C 62.209 17.666, 55.384 17.003, 54.006 17.007 C 52.628 17.011, 58.475 19.438, 67 22.401 M 50.500 22.500 C 53.250 24.514, 59.427 28.487, 64.226 31.330 C 69.026 34.174, 72.963 37.130, 72.976 37.901 C 72.996 39.047, 74.781 39.194, 82.760 38.707 C 88.129 38.380, 93.641 37.684, 95.010 37.159 L 97.500 36.206 94.500 35.073 C 92.850 34.450, 90.934 33.742, 90.241 33.498 C 89.549 33.255, 87.824 33.497, 86.407 34.035 C 83.237 35.241, 81.449 34.369, 83.074 32.411 C 83.718 31.635, 84.050 31, 83.813 31 C 83.575 31, 76.433 28.579, 67.940 25.621 C 59.448 22.663, 50.925 19.927, 49 19.541 L 45.500 18.840 50.500 22.500 M 97.328 41.512 C 95.324 43.910, 92.873 47.153, 91.881 48.719 L 90.078 51.566 98.067 50.880 C 107.512 50.068, 111 48.239, 111 44.099 C 111 40.711, 109.779 39.557, 104.736 38.181 C 101.054 37.176, 100.891 37.249, 97.328 41.512 M 92.641 40.692 C 92.261 41.073, 78.348 41.295, 61.725 41.186 C 30.601 40.982, 26.932 41.378, 26.236 45.025 C 26.082 45.836, 27.333 48.170, 29.017 50.210 C 31.853 53.645, 32.281 53.834, 34.790 52.758 C 36.538 52.008, 46.198 51.500, 62 51.326 L 86.500 51.055 90.814 45.528 C 93.187 42.487, 94.725 40, 94.231 40 C 93.737 40, 93.022 40.311, 92.641 40.692 M 119.737 44.668 C 118.259 47.511, 115.227 54.410, 113 60 C 109.407 69.019, 109.066 70.576, 109.970 73.832 C 111.877 80.698, 111.373 82.804, 107.357 84.742 C 104 86.363, 103.496 87.203, 100.917 95.500 C 96.794 108.761, 96.686 108.412, 104.701 107.663 C 113.289 106.862, 121.194 103.081, 124.521 98.184 C 127.481 93.828, 127.841 86.890, 125.401 81.218 C 124.180 78.381, 123.811 74.183, 123.841 63.500 C 123.863 55.800, 123.553 47.250, 123.153 44.500 L 122.426 39.500 119.737 44.668 M 67.978 57.051 C 52.005 58.893, 40 68.438, 40 79.296 C 40 82.488, 40.495 82.966, 49.052 88.031 C 58.033 93.347, 66 100.590, 66 103.439 C 66 105.644, 62.438 108.555, 58.222 109.795 C 56.175 110.397, 49.325 111.597, 43 112.461 C 28.958 114.380, 21.423 116.456, 20.586 118.637 C 19.734 120.858, 22.492 124.843, 25.802 126.174 C 34.617 129.718, 82.143 127.042, 80.386 123.101 C 75.759 112.722, 72.390 95.365, 71.293 76.250 C 70.829 68.173, 70.967 67, 72.381 67 C 73.576 67, 74.013 67.981, 74.050 70.750 C 74.099 74.383, 74.236 74.235, 78.449 66 C 80.840 61.325, 82.730 57.447, 82.648 57.383 C 81.864 56.764, 72.335 56.549, 67.978 57.051 M 84.605 60.200 C 81.089 65.570, 75.649 78.840, 75.259 83 C 74.400 92.169, 79.553 117.194, 83.321 122.152 C 84.163 123.259, 85.470 123.633, 87.287 123.285 C 89.611 122.841, 90.256 121.895, 91.821 116.634 L 93.645 110.500 89.572 108.500 C 84.226 105.874, 82.358 102.141, 84.408 98.177 C 86.209 94.695, 91.380 90.034, 97.273 86.580 C 101.022 84.383, 101.877 83.230, 103.441 78.265 C 104.440 75.094, 105.438 72.026, 105.660 71.448 C 106.268 69.856, 99.241 63.287, 94.600 61.109 C 87.490 57.773, 86.268 57.662, 84.605 60.200 M 106.150 79 C 105.301 81.434, 105.377 82, 106.552 82 C 107.494 82, 108 80.952, 108 79 C 108 77.350, 107.819 76, 107.598 76 C 107.377 76, 106.725 77.350, 106.150 79 M 94.307 91.892 C 89.917 95.072, 86 99.593, 86 101.480 C 86 103.210, 89.065 105.736, 92.077 106.487 C 94.550 107.104, 94.742 106.829, 96.832 99.633 C 98.031 95.509, 99.282 91.430, 99.612 90.568 C 100.511 88.226, 98.768 88.661, 94.307 91.892 M 86.660 142.895 C 78.040 169.650, 71.186 176.175, 64.110 164.363 C 63.063 162.615, 62.835 162.686, 60.433 165.500 C 55.411 171.383, 49.951 179.997, 49.355 182.974 C 48.803 185.734, 48.983 186, 51.407 186 C 55.764 186, 65.841 182.203, 76.791 176.436 C 88.228 170.412, 102.552 161.257, 105.310 158.210 C 107.078 156.256, 107.222 156.343, 114.803 163.873 C 124.438 173.445, 132.704 178.046, 141.540 178.755 C 147.312 179.219, 148.044 179.047, 150.415 176.676 C 151.839 175.251, 153 172.949, 153 171.548 C 153 165.320, 140.813 157.146, 127.966 154.756 L 121.967 153.641 118.463 146.356 C 113.408 135.847, 108.740 132.937, 94.950 131.699 L 90.399 131.291 86.660 142.895" stroke="none" fill="black" fill-rule="evenodd"/>
</svg>