<svg xmlns="http://www.w3.org/2000/svg" width="200" height="200" viewBox="0 0 200 200" version="1.1">
	<path d="M 96.359 9.461 C 94.597 10.695, 92.502 10.755, 82.886 9.842 C 73.675 8.968, 70.755 9.023, 67.598 10.131 C 62.137 12.047, 61.011 14.192, 63.617 17.714 C 66.884 22.131, 74.993 27.846, 81.274 30.159 C 84.450 31.329, 86.835 32.498, 86.576 32.758 C 86.316 33.017, 79.774 33.516, 72.039 33.865 C 53.102 34.720, 53.584 36.616, 72.624 36.167 L 86.748 35.835 87.449 40.509 C 87.835 43.080, 87.864 45.469, 87.514 45.819 C 87.165 46.169, 79.368 46.465, 70.189 46.477 C 54.781 46.498, 53.143 46.324, 48.843 44.206 C 44.530 42.081, 41 37.532, 41 34.099 C 41 33.494, 40.550 33, 40 33 C 39.450 33, 39 34.403, 39 36.118 C 39 38.392, 40.024 40.259, 42.786 43.022 C 47.172 47.407, 51.150 48.698, 63.019 49.590 L 71.500 50.227 67.366 54.510 C 64.492 57.488, 62.612 60.729, 61.199 65.147 C 56.940 78.453, 57.353 81.189, 64.668 88.144 C 71.441 94.584, 77.419 96.817, 91 97.978 C 101.987 98.918, 50.754 99.079, 36.625 98.150 C 26.982 97.515, 26.706 97.557, 24.828 99.946 C 23.491 101.645, 22.995 103.614, 23.202 106.396 C 23.735 113.554, 30.035 115.324, 59.500 116.592 C 68.300 116.971, 75.050 117.407, 74.500 117.560 C 73.950 117.714, 65.726 120.351, 56.225 123.420 C 46.723 126.489, 37.836 129, 36.475 129 C 34.942 129, 34 129.571, 34 130.500 C 34 131.325, 33.550 132, 33 132 C 32.450 132, 32 132.646, 32 133.437 C 32 134.324, 33.234 134.993, 35.224 135.187 C 38.014 135.458, 38.828 136.243, 41.253 141 C 45.111 148.566, 46.503 158.253, 45.094 167.727 C 44.485 171.821, 44.200 175.515, 44.461 175.937 C 44.722 176.359, 47.879 176.980, 51.477 177.316 C 55.075 177.652, 68.927 180.694, 82.259 184.076 C 104.143 189.628, 107.764 190.274, 119.500 190.720 C 129.691 191.108, 133.887 190.852, 138.920 189.536 C 146.919 187.444, 155.348 183.219, 160.247 178.845 L 163.993 175.500 161.551 169.610 C 160.208 166.370, 157.800 162.090, 156.200 160.100 L 153.291 156.480 155.821 151.948 C 157.840 148.332, 159.578 146.819, 164.426 144.458 C 168.830 142.313, 170.588 140.882, 170.819 139.252 C 171.312 135.780, 167.621 135, 150.712 135 C 136.731 135, 135.727 134.880, 137.770 133.449 C 138.988 132.596, 140.436 131.053, 140.989 130.021 C 142.372 127.437, 138.542 123.029, 131.327 118.901 C 126.386 116.074, 125.969 115.595, 127.629 114.653 C 128.745 114.019, 140.193 113.371, 156 113.045 L 182.500 112.500 182.803 109.890 C 183.328 105.363, 170.559 95.358, 148.834 83.277 C 140.545 78.668, 138.369 77.029, 139.069 75.923 C 139.564 75.140, 139.976 72.654, 139.985 70.398 C 140.014 62.526, 132.827 55.524, 118.886 49.841 L 110.688 46.500 122.594 45.606 C 133.609 44.780, 150.106 45.728, 156.597 47.561 C 158.264 48.032, 158.962 47.507, 159.998 45.005 C 161.111 42.318, 161.064 41.358, 159.680 38.456 C 156.814 32.445, 144.553 25.172, 128.500 19.960 C 124.650 18.710, 120.150 16.453, 118.500 14.944 C 111.487 8.530, 101.292 6.006, 96.359 9.461 M 100 10.940 C 97.965 11.502, 98.872 11.944, 104.873 13.315 C 114.131 15.431, 115.413 15.385, 111 13.096 C 106.459 10.742, 103.101 10.083, 100 10.940 M 67.250 12.959 C 64.069 14.340, 64.393 15.295, 69.588 19.868 C 74.229 23.954, 80.344 27.361, 85.104 28.513 C 87.565 29.109, 87.743 28.891, 88.337 24.555 C 88.683 22.031, 89.647 18.649, 90.480 17.040 C 91.427 15.208, 91.622 13.884, 91.002 13.501 C 89.226 12.404, 69.562 11.955, 67.250 12.959 M 93.079 18.220 C 92.069 20.574, 90.993 24.179, 90.688 26.231 L 90.132 29.962 95.247 31.481 C 101.094 33.217, 117.141 33.530, 120.066 31.965 C 122.280 30.780, 122.639 26.496, 120.853 22.576 C 119.613 19.856, 117.344 18.896, 106.500 16.507 C 102.650 15.659, 98.468 14.735, 97.207 14.453 C 95.272 14.020, 94.627 14.608, 93.079 18.220 M 124.077 23.144 C 124.708 24.323, 124.989 27.043, 124.702 29.187 C 124.207 32.875, 124.341 33.118, 127.175 33.685 C 130.075 34.265, 131.912 36.422, 130.613 37.721 C 130.264 38.070, 126.946 39.425, 123.239 40.732 L 116.500 43.109 126 42.660 C 133.900 42.286, 143.359 42.799, 155.500 44.259 C 158.548 44.626, 158.547 40.804, 155.499 37.181 C 152.144 33.194, 144.690 28.961, 133.224 24.533 C 128.192 22.590, 123.818 21, 123.503 21 C 123.187 21, 123.446 21.965, 124.077 23.144 M 90.196 40.319 C 90.454 43.867, 90.864 44.551, 92.901 44.839 C 94.222 45.026, 97.597 44.501, 100.401 43.673 C 103.206 42.845, 109.775 41.180, 115 39.975 C 120.225 38.769, 125.106 37.451, 125.848 37.047 C 126.589 36.642, 118.802 36.272, 108.544 36.225 L 89.892 36.138 90.196 40.319 M 95.250 47.732 C 91.897 48.034, 91 48.511, 91 49.990 C 91 51.021, 91.924 52.159, 93.054 52.517 C 94.183 52.876, 98.019 55.893, 101.579 59.223 C 106.798 64.105, 109.546 65.805, 115.775 68.009 C 120.024 69.512, 126.136 71.922, 129.358 73.364 C 132.579 74.805, 135.563 75.770, 135.988 75.507 C 137.482 74.584, 137.805 69.469, 136.558 66.485 C 133.866 60.041, 123.803 53.778, 108.645 49.111 C 104.874 47.950, 101.274 47.079, 100.645 47.175 C 100.015 47.271, 97.588 47.522, 95.250 47.732 M 76.185 52 C 69.651 53.525, 64.236 61.397, 61.882 72.790 C 60.611 78.944, 60.615 78.961, 63.675 83.227 C 65.755 86.126, 68.837 88.583, 73.263 90.869 C 78.878 93.770, 81.075 94.312, 89.057 94.767 C 97.689 95.260, 98.280 95.172, 97.637 93.496 C 97.257 92.505, 96.221 88.809, 95.335 85.282 L 93.724 78.869 86.840 75.791 C 80.843 73.109, 80.039 72.442, 80.601 70.606 C 81.572 67.430, 83.152 65.835, 86.870 64.281 C 90.036 62.958, 90.204 62.648, 89.632 59.186 C 89.296 57.159, 89.017 54.973, 89.011 54.329 C 89.005 53.686, 87.537 52.865, 85.750 52.505 C 83.963 52.145, 81.825 51.710, 81 51.539 C 80.175 51.367, 78.008 51.575, 76.185 52 M 92.298 58.447 C 92.637 60.538, 93.046 62.359, 93.207 62.496 C 93.368 62.632, 95.727 63.067, 98.448 63.463 C 104.272 64.309, 103.948 63.456, 96.386 58.025 L 91.681 54.647 92.298 58.447 M 86.223 67.557 C 82.940 69.856, 83.499 71.582, 88.125 73.433 C 90.393 74.341, 92.341 74.952, 92.453 74.792 C 92.564 74.631, 92.257 72.588, 91.769 70.250 C 90.813 65.670, 89.693 65.126, 86.223 67.557 M 94 66.928 C 94 67.581, 94.498 70.093, 95.107 72.512 C 96.173 76.743, 96.388 76.936, 100.776 77.594 C 103.442 77.993, 105.993 77.850, 106.918 77.248 C 108.970 75.913, 108.611 71.159, 106.286 68.868 C 104.114 66.728, 94 65.131, 94 66.928 M 111.019 72.586 C 111.735 75.760, 111.514 76.577, 109.349 78.742 C 107.112 80.979, 106.327 81.168, 101.796 80.567 C 96.870 79.914, 96.757 79.956, 97.394 82.198 C 97.753 83.464, 98.564 86.638, 99.196 89.250 C 100.148 93.190, 100.732 94, 102.620 94 C 106.576 94, 120.318 89.187, 125 86.163 C 129.134 83.492, 134 79.395, 134 78.585 C 134 78.205, 115.674 70.581, 112.347 69.577 C 110.324 68.966, 110.244 69.148, 111.019 72.586 M 132.946 83.564 C 128.672 87.984, 117.682 93.472, 108.750 95.645 C 105.037 96.548, 102 97.738, 102 98.289 C 102 100.061, 139.691 97.355, 156.384 94.386 C 161.728 93.435, 160.870 96.106, 155.423 97.376 C 149.266 98.811, 106.841 110.826, 106.411 111.256 C 106.199 111.468, 107.745 116.785, 109.847 123.071 L 113.670 134.500 119.926 134.800 C 126.136 135.098, 133.865 133.282, 137.406 130.693 C 140.137 128.696, 138.352 126.298, 130.786 121.804 C 123.203 117.298, 121.923 115.648, 124.226 113.345 C 126.235 111.336, 142.086 109.965, 162.500 110.034 C 171.300 110.064, 179.154 110.069, 179.953 110.044 C 182.528 109.966, 173.896 102.148, 164 95.595 C 155.687 90.091, 138.116 80, 136.845 80 C 136.596 80, 134.842 81.604, 132.946 83.564 M 27.261 101.186 C 26.656 101.915, 25.860 103.710, 25.492 105.175 C 24.065 110.862, 30.562 112.429, 61.860 113.947 L 83.219 114.983 92.631 112.241 L 102.042 109.500 101.403 106.500 C 101.052 104.850, 100.609 103.232, 100.418 102.904 C 100.228 102.575, 84.868 102.030, 66.286 101.691 C 47.704 101.351, 31.569 100.801, 30.430 100.467 C 29.244 100.120, 27.891 100.427, 27.261 101.186 M 127 100.603 C 125.625 100.769, 119.646 101.196, 113.714 101.551 C 103.270 102.177, 102.948 102.266, 103.576 104.349 C 103.933 105.532, 104.603 106.906, 105.064 107.402 C 105.556 107.930, 111.415 106.742, 119.202 104.536 C 135.102 100.030, 136.170 99.492, 127 100.603 M 96.250 113.767 C 93.362 114.604, 91 115.624, 91 116.033 C 91 116.443, 92.523 117.063, 94.385 117.412 C 96.246 117.762, 99.724 119.360, 102.112 120.964 C 104.500 122.567, 106.575 123.758, 106.724 123.610 C 107.304 123.030, 103.294 112.605, 102.424 112.431 C 101.916 112.329, 99.138 112.930, 96.250 113.767 M 63.620 123.762 C 42.776 130.315, 42.489 132.038, 62.928 127.912 C 70.393 126.405, 76.605 125.276, 76.733 125.403 C 76.861 125.529, 76.531 127.148, 76 129 C 75.469 130.852, 75.231 132.564, 75.472 132.805 C 75.712 133.045, 82.904 133.477, 91.454 133.765 C 105.600 134.240, 107 134.135, 107 132.594 C 107 129.566, 104.124 125.239, 100.706 123.127 C 97.551 121.178, 86.266 117.964, 83 118.085 C 82.175 118.116, 73.454 120.670, 63.620 123.762 M 64.500 130.477 L 59.500 131.762 64.250 132.048 C 66.862 132.205, 69.781 132.371, 70.736 132.417 C 71.691 132.463, 72.624 131.713, 72.810 130.750 C 73.208 128.683, 71.677 128.632, 64.500 130.477 M 47.500 133.658 C 40.650 135.096, 40.985 134.281, 44.410 141.192 C 47.393 147.209, 47.500 147.886, 47.500 160.629 L 47.500 173.832 53 174.509 C 56.025 174.882, 68.850 177.807, 81.500 181.010 C 115.409 189.597, 129.548 190.508, 144.143 185.048 C 150.749 182.576, 158.842 177.576, 159.652 175.465 C 160.485 173.294, 157.521 166.048, 154.145 162.005 L 151.296 158.592 145.898 163.157 C 136.958 170.716, 127.720 177.126, 126.975 176.288 C 126.589 175.855, 124.749 171.564, 122.886 166.754 C 121.024 161.943, 118.979 158.006, 118.343 158.004 C 117.707 158.002, 111.046 160.259, 103.542 163.021 C 82.574 170.736, 74.216 170.679, 70.891 162.797 C 69.322 159.077, 69.097 150.463, 70.332 141.393 L 71.163 135.286 61.488 134.576 C 56.167 134.185, 51.293 133.724, 50.657 133.552 C 50.021 133.379, 48.600 133.427, 47.500 133.658 M 73.127 142.189 C 71.030 154.236, 72.139 162.934, 76.039 165.021 C 79.890 167.082, 86.645 165.948, 102 160.661 C 118.729 154.902, 120.910 153.124, 113 151.697 C 99.400 149.243, 86 144.949, 86 143.044 C 86 142.654, 90.500 141.509, 96 140.500 C 101.500 139.491, 106 138.291, 106 137.833 C 106 137.375, 103.188 136.998, 99.750 136.995 C 96.313 136.992, 89.170 136.703, 83.877 136.352 L 74.255 135.715 73.127 142.189 M 109.813 137.683 C 110.534 137.972, 111.397 137.936, 111.729 137.604 C 112.061 137.272, 111.471 137.036, 110.417 137.079 C 109.252 137.127, 109.015 137.364, 109.813 137.683 M 152.662 138.936 C 154.401 139.996, 156.275 141.669, 156.826 142.653 C 157.782 144.362, 158.038 144.354, 162.580 142.471 C 165.195 141.387, 167.500 140.001, 167.703 139.391 C 168.112 138.165, 161.467 136.998, 154.110 137.004 L 149.500 137.007 152.662 138.936 M 120.202 139.735 C 116.304 140.084, 115.967 140.324, 116.585 142.310 C 118.770 149.328, 118.243 149, 127.344 149 C 135.071 149, 152.048 146.706, 154.210 145.370 C 156.041 144.238, 151.690 141.099, 146.852 140.062 C 142.149 139.053, 129.534 138.898, 120.202 139.735 M 101.250 142.193 C 97.813 142.733, 95 143.568, 95 144.049 C 95 145, 99.672 146.421, 107.978 147.996 C 116.170 149.549, 116.095 149.580, 114.603 145.250 C 113.112 140.920, 111.580 140.570, 101.250 142.193 M 145.500 150.029 C 141.100 150.993, 138.752 151.830, 140.282 151.891 C 141.812 151.951, 144.673 152.672, 146.638 153.493 C 148.604 154.315, 150.618 154.736, 151.113 154.430 C 152.369 153.654, 155.226 147.969, 154.276 148.139 C 153.849 148.215, 149.900 149.066, 145.500 150.029 M 120.550 152.933 C 121.106 153.480, 122.952 153.522, 125 153.036 L 128.500 152.205 124.050 152.102 C 121.284 152.039, 119.960 152.353, 120.550 152.933 M 129.650 155.020 C 121.566 156.424, 121.753 156.105, 124.605 163.682 C 128.533 174.117, 127.713 173.877, 136.584 167.189 C 140.938 163.906, 145.325 160.307, 146.333 159.190 C 148.110 157.221, 148.110 157.130, 146.333 156.195 C 143.473 154.690, 134.991 154.093, 129.650 155.020" stroke="none" fill="black" fill-rule="evenodd"/>
</svg>