<svg xmlns="http://www.w3.org/2000/svg" width="200" height="200" viewBox="0 0 200 200" version="1.1">
	<path d="M 115.500 10.038 C 107.800 10.435, 91.263 11.096, 78.750 11.507 C 60.495 12.107, 56 12.526, 56 13.627 C 56 14.520, 57.311 15.052, 59.750 15.150 C 62.643 15.265, 62.888 15.393, 60.823 15.709 C 56.650 16.348, 55.319 18.590, 57.610 21.121 C 60.068 23.837, 63.238 25.430, 75.431 30.073 L 85.500 33.907 73.750 33.953 C 63.993 33.992, 62 34.254, 62 35.500 C 62 36.773, 64.535 37.002, 78.750 37.015 C 87.963 37.024, 95.988 37.361, 96.584 37.765 C 98.426 39.013, 96.314 44.683, 93.752 45.369 C 90.373 46.275, 55.145 46.038, 50.170 45.076 C 43.567 43.800, 42.842 42.415, 46.994 39.015 C 50.879 35.833, 50.461 33.880, 46.363 36.073 C 43.044 37.850, 40.598 41.510, 41.376 43.537 C 42.411 46.235, 49.115 48.195, 59.208 48.751 L 68.969 49.289 64.095 51.547 C 53.845 56.296, 48.299 63.811, 50.150 70.443 C 52.611 79.263, 70.930 89, 85.061 89 C 94.280 89, 87.628 89.907, 70.674 90.961 C 51.194 92.173, 37.432 94.208, 32.910 96.546 C 31.310 97.374, 30 98.228, 30 98.444 C 30 98.660, 29.739 99.515, 29.421 100.345 C 28.973 101.512, 29.937 102.013, 33.671 102.558 C 46.743 104.464, 58.058 109.522, 74.160 120.655 C 92.286 133.188, 100.418 135.687, 119.820 134.685 C 126.244 134.353, 132.530 133.781, 133.790 133.414 C 136.006 132.768, 136.022 132.681, 134.290 130.751 C 133.305 129.654, 129.800 126.933, 126.500 124.704 C 111.913 114.849, 108.294 110.253, 111.396 105.519 C 112.294 104.148, 114.790 102.128, 116.941 101.030 C 122.368 98.261, 135.788 94.703, 137.820 95.493 C 139.263 96.054, 139.104 96.489, 136.694 98.573 C 134.347 100.604, 132.831 101, 127.412 101 C 123.850 101, 119.375 101.652, 117.468 102.449 C 108.801 106.070, 116.959 115.880, 132.500 120.525 L 136.500 121.721 136.500 129.610 L 136.500 137.500 124.500 137.176 C 110.600 136.801, 78.031 138.469, 70 139.967 C 52.252 143.277, 58.348 149.349, 85 154.908 C 90.775 156.112, 96.557 157.321, 97.849 157.593 C 99.855 158.016, 98.458 159.322, 88.278 166.547 C 74.459 176.354, 64.560 185.204, 65.234 187.148 C 65.530 188.001, 67.185 188.472, 69.716 188.424 C 72.665 188.368, 78.980 185.776, 93.526 178.651 C 113.177 169.027, 113.339 168.969, 115.412 170.865 C 125.860 180.419, 163.490 186.368, 168.750 179.298 C 170.404 177.075, 170.352 176.718, 167.937 173.647 C 165.175 170.135, 150.351 162.947, 134.914 157.634 L 122.328 153.302 139.158 152.667 C 157.547 151.973, 162.208 150.833, 164.157 146.555 C 165.585 143.420, 164.274 138.480, 159.498 129.001 L 156.223 122.502 160.797 120.001 C 169.811 115.073, 172.333 103.880, 167.975 88.154 L 165.951 80.847 168.449 77.878 C 172.194 73.428, 173.372 67.772, 173.319 54.500 C 173.211 27.182, 164.577 8.349, 156.242 17.250 C 153.436 20.246, 150.608 27.042, 148.419 36.050 L 146.625 43.430 144.390 32.307 C 143.161 26.189, 141.386 18.443, 140.446 15.092 L 138.736 9 134.118 9.158 C 131.578 9.245, 123.200 9.641, 115.500 10.038 M 111 13.053 C 103.575 13.444, 94.800 13.847, 91.500 13.948 L 85.500 14.132 91 15.598 C 96.172 16.977, 99.339 18.348, 106.500 22.308 C 108.150 23.220, 112.919 25.488, 117.097 27.347 C 125.511 31.092, 132.107 36.431, 134.018 41.043 C 134.706 42.705, 135.096 44.231, 134.885 44.435 C 134.673 44.640, 127.141 45.497, 118.146 46.341 C 109.151 47.185, 101.501 48.172, 101.146 48.535 C 99.959 49.748, 107.406 55.160, 116.270 59.526 C 121.093 61.902, 125.494 63.998, 126.050 64.183 C 126.693 64.398, 126.554 65.972, 125.668 68.510 L 124.274 72.500 132.387 75.632 C 136.849 77.355, 140.838 78.566, 141.250 78.323 C 141.662 78.080, 142 76.572, 142 74.971 C 142 73.370, 142.689 67.426, 143.530 61.760 C 145.030 51.662, 145.010 51.186, 142.495 37.480 C 141.084 29.791, 139.211 20.913, 138.333 17.750 L 136.736 12 130.618 12.171 C 127.253 12.266, 118.425 12.663, 111 13.053 M 158.092 18.908 C 155.554 21.446, 152.622 29.620, 150.167 41 C 148.527 48.608, 148.157 53.602, 148.309 66.078 L 148.500 81.656 156.437 84.808 C 160.802 86.542, 164.519 87.814, 164.697 87.636 C 164.876 87.458, 164.324 85.335, 163.471 82.919 C 162.279 79.541, 162.206 78.431, 163.154 78.115 C 168.797 76.234, 171.666 65.518, 170.654 50.098 C 169.594 33.960, 165.384 19.129, 161.431 17.612 C 160.619 17.300, 159.117 17.883, 158.092 18.908 M 60.122 18.903 C 59.126 19.534, 60.591 20.657, 65.404 22.954 C 72.739 26.455, 97.913 35, 100.892 35 C 103.060 35, 106.326 29.014, 105.431 26.681 C 103.918 22.739, 64.697 16.006, 60.122 18.903 M 108 29.423 C 108 32.104, 103.557 38, 101.536 38 C 100.317 38, 98.495 43.829, 99.424 44.757 C 100.117 45.450, 128.737 42.781, 130.180 41.889 C 132.280 40.591, 125.438 34.358, 117.616 30.444 C 109.426 26.347, 108 26.195, 108 29.423 M 85.250 48.732 C 81.240 49.093, 79.882 50.191, 81.902 51.439 C 82.397 51.746, 84.412 54.420, 86.378 57.383 C 89.341 61.846, 90.598 62.890, 93.717 63.475 C 95.786 63.863, 102.542 65.715, 108.729 67.590 C 114.915 69.466, 120.360 71, 120.828 71 C 121.296 71, 122.150 69.967, 122.725 68.705 C 123.715 66.532, 123.258 66.149, 114.154 61.506 C 108.402 58.572, 102.859 54.874, 100.358 52.301 C 95.936 47.751, 95.994 47.765, 85.250 48.732 M 69.721 51.961 C 62.650 54.724, 55.742 59.474, 53.655 63.007 C 50.276 68.728, 53.628 74.932, 62.700 79.745 C 72.051 84.707, 79.231 86.412, 90.500 86.347 C 102.434 86.278, 109.482 84.007, 116.167 78.074 L 120.499 74.229 109.196 70.650 C 102.979 68.681, 96.341 66.779, 94.446 66.424 C 91.417 65.856, 91 66.029, 91 67.854 C 91 71.034, 87.705 72.322, 83.773 70.678 C 76.796 67.761, 75.977 62.834, 82.331 62 L 86.142 61.500 82.016 55.750 C 79.704 52.528, 77.145 50.021, 76.195 50.047 C 75.263 50.073, 72.349 50.934, 69.721 51.961 M 82.861 67.033 C 85.889 69.556, 88 69.542, 88 67 C 88 65.350, 87.344 65.006, 84.250 65.033 L 80.500 65.067 82.861 67.033 M 145.180 70.625 C 145.081 72.344, 144.745 75.269, 144.433 77.125 C 143.972 79.872, 144.075 80.173, 144.988 78.742 C 145.604 77.774, 145.941 74.849, 145.735 72.242 C 145.503 69.310, 145.292 68.693, 145.180 70.625 M 120.678 77.560 C 118.233 80.924, 112.010 84.938, 105.686 87.231 L 100.500 89.111 109.600 88.577 C 119.861 87.975, 128.192 86.425, 132.224 84.366 C 134.890 83.005, 134.994 83.066, 137.157 87.238 L 139.366 91.500 140.285 87.738 C 141.775 81.641, 142.287 82.020, 123.698 75.475 C 123.039 75.244, 121.680 76.182, 120.678 77.560 M 143.667 83.667 C 143.300 84.033, 143.029 85.271, 143.063 86.417 C 143.122 88.332, 143.204 88.307, 144.085 86.105 C 145.064 83.657, 144.861 82.472, 143.667 83.667 M 146.689 86.835 C 146.407 88.301, 146.288 89.614, 146.425 89.753 C 146.942 90.281, 156 88.698, 156 88.080 C 156 87.723, 154.020 86.698, 151.600 85.801 L 147.201 84.170 146.689 86.835 M 128.776 88.582 C 123.981 90.319, 109.940 91.664, 77 93.542 C 52.901 94.916, 37.870 96.727, 34.799 98.624 C 34.161 99.018, 37.522 100.371, 42.266 101.630 C 53.023 104.486, 61.490 108.718, 75.529 118.257 C 88.774 127.255, 91.228 128.556, 98.699 130.538 C 105.066 132.227, 125.925 132.701, 128.577 131.217 C 129.908 130.472, 129.712 130.051, 127.328 128.538 C 118.583 122.987, 110.914 116.314, 108.885 112.489 L 106.652 108.280 108.624 104.890 C 110.905 100.967, 119.753 96.098, 128.349 94.036 C 135.802 92.248, 136.475 91.756, 135.068 89.127 C 133.786 86.731, 133.866 86.738, 128.776 88.582 M 95.750 89.662 C 96.438 89.940, 97.563 89.940, 98.250 89.662 C 98.938 89.385, 98.375 89.158, 97 89.158 C 95.625 89.158, 95.063 89.385, 95.750 89.662 M 153.242 91.717 C 144.943 93.060, 143.923 93.459, 143.393 95.568 C 142.598 98.736, 153.334 119.002, 155.804 118.996 C 158.997 118.989, 164.113 114.973, 165.700 111.228 C 167.330 107.383, 167.730 98.602, 166.526 93.120 C 165.746 89.565, 166.230 89.616, 153.242 91.717 M 136 102.101 C 134.625 102.515, 129.970 103.289, 125.655 103.822 C 121.340 104.354, 117.316 105.284, 116.712 105.888 C 114.275 108.325, 125.760 116.200, 135.107 118.503 L 137.713 119.145 138.417 110.467 C 138.805 105.693, 138.982 101.689, 138.811 101.569 C 138.640 101.448, 137.375 101.688, 136 102.101 M 141.639 105.626 C 141.324 107.207, 140.957 110.975, 140.824 114 L 140.583 119.500 145.791 119.802 C 148.656 119.969, 150.987 119.744, 150.970 119.302 C 150.954 118.861, 148.977 114.957, 146.577 110.626 C 142.453 103.185, 142.182 102.910, 141.639 105.626 M 139.991 126.750 C 139.987 128.813, 139.709 132.778, 139.374 135.561 L 138.766 140.623 122.133 140.207 C 96.959 139.577, 63 142.290, 63 144.931 C 63 146.698, 79.437 151.284, 99.307 155.062 C 103.135 155.789, 105.010 156.604, 104.807 157.450 C 104.638 158.157, 99.932 161.832, 94.348 165.618 C 81.863 174.081, 68.199 185.233, 69.701 185.734 C 71.245 186.248, 80.862 182.083, 98.326 173.337 L 113.178 165.898 116.602 168.510 C 123.865 174.049, 136.776 178.130, 151.503 179.539 C 158.552 180.214, 167 178.837, 167 177.012 C 167 173.578, 151.304 166.044, 128.034 158.309 C 118.446 155.121, 111 152.115, 111 151.432 C 111 150.527, 116.677 150.117, 133.250 149.826 C 164.571 149.275, 165.749 148.420, 157.908 131.922 L 153.668 123 146.834 123 L 140 123 139.991 126.750" stroke="none" fill="black" fill-rule="evenodd"/>
</svg>