<svg xmlns="http://www.w3.org/2000/svg" width="200" height="200" viewBox="0 0 200 200" version="1.1">
	<path d="M 114.629 11.704 C 114.390 11.943, 97.839 12.984, 77.848 14.018 C 57.856 15.052, 41.388 15.921, 41.250 15.949 C 41.112 15.977, 41 16.608, 41 17.351 C 41 18.388, 44.236 18.862, 54.923 19.391 C 76.656 20.467, 92 23.243, 92 26.100 C 92 26.830, 90.996 27.036, 89.250 26.663 C 87.737 26.340, 83.350 25.392, 79.500 24.558 C 68.641 22.204, 51.981 20.688, 48.082 21.699 C 43.494 22.888, 42.030 25.271, 44.328 27.810 C 46.193 29.870, 57.613 35.419, 62.380 36.580 C 67.942 37.936, 64.620 34.999, 56.693 31.553 C 44.254 26.145, 43.315 24.047, 53.318 24.015 C 59.170 23.997, 78.959 26.815, 84.492 28.455 L 88.500 29.643 83.500 32.238 C 79.534 34.296, 78.865 34.976, 80.264 35.528 C 81.354 35.959, 84.083 35.184, 87.411 33.501 C 92.356 30.999, 93.108 30.879, 96.647 32.026 C 106.605 35.254, 117 42.464, 117 46.142 C 117 49.123, 114.891 50.861, 111.749 50.468 C 109.962 50.244, 106.362 49.795, 103.750 49.469 C 99.372 48.924, 99 48.661, 99 46.113 C 99 44.435, 97.987 42.397, 96.423 40.928 L 93.846 38.507 61.871 38.503 L 29.896 38.500 27.595 41 C 24.001 44.904, 23.724 46.815, 26.370 49.461 C 29.742 52.833, 37.675 53.416, 68.742 52.577 C 96.811 51.820, 95.683 51.659, 93.386 56.089 C 93.218 56.413, 90.250 56.085, 86.791 55.360 C 74.045 52.689, 52.789 54.025, 45.032 57.985 C 39.029 61.049, 37.492 63.492, 37.564 69.857 C 37.634 76.007, 38.968 79.104, 47.917 93.910 C 50.713 98.535, 53 103.337, 53 104.580 C 53 108.318, 47.997 108.547, 33.452 105.475 C 30.806 104.916, 29.719 105.447, 25.202 109.508 C 21.326 112.994, 20 114.887, 20 116.938 C 20 122.587, 25.893 124.919, 42.179 125.716 L 53.858 126.288 52.396 128.518 C 50.753 131.026, 51.354 134.985, 54.967 145.433 C 56.572 150.076, 56.881 152.702, 56.389 157.512 C 55.044 170.632, 61.002 180.609, 72.826 185.039 C 80.008 187.730, 93.653 188.767, 110 187.863 C 116.875 187.483, 129.250 186.855, 137.500 186.467 C 153.834 185.699, 155 185.253, 155 179.761 C 155 175.845, 151.064 172.461, 144.698 170.902 C 139.327 169.587, 112.796 169.267, 102.814 170.396 L 97.500 170.997 102 169.504 C 104.475 168.683, 111.900 167.102, 118.500 165.992 C 141.008 162.203, 148 160.041, 148 156.867 C 148 155.698, 146.927 154.540, 145.250 153.899 C 142.541 152.863, 128.687 150.878, 114 149.422 L 106.500 148.678 115.500 147.345 C 143.061 143.265, 159.328 134.960, 148.566 130.463 C 146.598 129.641, 142.364 128.694, 139.156 128.359 C 134.938 127.918, 132.993 127.219, 132.128 125.834 C 130.593 123.376, 131.300 122.313, 135.009 121.498 C 140.353 120.324, 149.328 112.593, 160.641 99.418 C 171.560 86.702, 177.682 80.509, 183.402 76.392 C 187.713 73.289, 186.056 72.019, 179.809 73.639 C 166.419 77.113, 158.526 73.877, 155.495 63.672 C 154.687 60.951, 153.339 53.050, 152.499 46.113 C 151.658 39.176, 150.210 31.040, 149.281 28.034 C 147.076 20.906, 140.256 13.654, 134.252 12.055 C 130.292 11.001, 115.596 10.738, 114.629 11.704 M 119 16.436 C 119 17.776, 120.127 23.514, 121.505 29.186 C 124.768 42.620, 126.804 54.445, 127.982 66.806 C 129.625 84.057, 126.470 101.072, 121.094 103.950 C 118.094 105.555, 118.431 106.859, 123.674 113.915 C 128.175 119.971, 128.481 120.184, 131.908 119.628 C 137.679 118.691, 145.790 112.237, 155.947 100.500 C 161.182 94.450, 168.173 86.729, 171.483 83.343 L 177.500 77.186 172.421 77.715 C 165.517 78.435, 159.071 75.576, 155.529 70.224 C 152.894 66.242, 152.124 62.799, 148.561 39.075 C 145.776 20.533, 139.857 14, 125.843 14 C 119.258 14, 119 14.092, 119 16.436 M 92 16.041 C 85.675 16.424, 77.800 16.853, 74.500 16.995 L 68.500 17.254 75 18.083 C 88.862 19.850, 94.995 22.361, 95.006 26.273 C 95.012 28.094, 96.195 28.945, 101.493 30.940 C 105.057 32.282, 110.297 35.139, 113.137 37.289 L 118.302 41.198 117.609 31.849 C 117.228 26.707, 116.467 20.813, 115.919 18.750 L 114.923 15 109.211 15.173 C 106.070 15.268, 98.325 15.659, 92 16.041 M 28.747 43.771 C 26.725 45.922, 26.703 46.132, 28.340 47.771 C 29.818 49.250, 32.624 49.550, 47.784 49.848 C 57.528 50.039, 72.362 49.879, 80.750 49.493 L 96 48.789 96 46.002 C 96 44.328, 95.301 42.884, 94.250 42.388 C 93.287 41.933, 78.636 41.547, 61.691 41.531 C 30.932 41.500, 30.878 41.504, 28.747 43.771 M 121.838 62.199 C 122.024 73.364, 121.726 86.550, 121.175 91.500 C 120.624 96.450, 120.354 100.682, 120.574 100.904 C 121.476 101.814, 124.078 93.557, 125.141 86.408 C 126.347 78.302, 125.170 59.659, 122.699 47.699 C 121.649 42.619, 121.542 44.422, 121.838 62.199 M 117.500 52.175 C 116.610 53.666, 115.599 53.735, 108.294 52.801 C 98.769 51.584, 97.498 51.881, 96.579 55.540 C 96.057 57.621, 96.374 58.574, 97.956 59.682 C 102.824 63.091, 104.478 72.560, 101.620 80.659 L 100.241 84.569 107.842 93.763 C 112.022 98.820, 115.821 102.579, 116.284 102.116 C 118.020 100.380, 119.038 86.819, 118.773 68.957 C 118.583 56.093, 118.197 51.008, 117.500 52.175 M 52.500 58.399 C 46.285 59.927, 43.542 61.388, 41.551 64.230 C 38.254 68.938, 40.424 76.942, 48.362 89.352 C 56.124 101.486, 57.364 105.494, 54.301 108.556 C 52.863 109.994, 51.292 110.163, 44.051 109.654 C 39.348 109.323, 34.375 108.788, 33 108.464 C 31.069 108.010, 29.646 108.661, 26.750 111.323 C 24.632 113.270, 23 115.712, 23 116.936 C 23 118.470, 24.094 119.598, 26.750 120.801 C 29.867 122.213, 33.706 122.494, 49.500 122.464 C 69.695 122.425, 84.153 120.770, 98.691 116.834 C 107.189 114.533, 109.611 114.279, 112.189 115.420 C 113.552 116.023, 114.097 115.353, 115.012 111.956 C 116.467 106.551, 115.538 105.637, 109.909 106.935 C 107.484 107.494, 102.923 107.962, 99.773 107.976 C 94.750 107.997, 93.844 107.692, 92.403 105.493 C 90.572 102.698, 91.046 99.712, 94.800 90.395 L 96.857 85.290 91.453 79.954 C 88.481 77.019, 85.886 74.816, 85.687 75.059 C 85.487 75.301, 83.884 77.631, 82.124 80.235 C 78.501 85.597, 76.430 87, 72.138 87 C 64.731 87, 60.141 71.802, 65.959 66.537 C 68.714 64.044, 74.219 64.392, 79.600 67.400 C 82.159 68.830, 84.574 70, 84.967 70 C 85.955 70, 91.322 59.988, 90.678 59.345 C 88.235 56.902, 61.305 56.235, 52.500 58.399 M 93.322 62.217 C 92.784 62.923, 91.229 65.525, 89.866 68 L 87.389 72.500 92.670 77.378 L 97.952 82.256 99.066 79.378 C 101.018 74.337, 100.730 67.461, 98.439 64.389 C 95.963 61.069, 94.628 60.503, 93.322 62.217 M 67.557 69.223 C 65.430 72.259, 65.609 76.847, 68.009 80.784 C 70.552 84.953, 72.380 85.636, 75.511 83.585 C 77.964 81.977, 83 74.933, 83 73.109 C 83 71.933, 73.198 67, 70.860 67 C 69.900 67, 68.413 68, 67.557 69.223 M 96.872 92.557 C 91.708 104.230, 93.498 106.940, 105.078 104.987 C 108.885 104.345, 112 103.597, 112 103.326 C 112 102.671, 99.851 88, 99.309 88 C 99.077 88, 97.980 90.051, 96.872 92.557 M 117.113 114.106 C 116.501 115.862, 116 117.421, 116 117.572 C 116 118.211, 123.184 120.149, 123.687 119.646 C 123.992 119.341, 122.888 117.252, 121.233 115.003 L 118.226 110.913 117.113 114.106 M 98.500 119.658 C 93.550 120.976, 83.425 122.766, 76 123.635 C 68.575 124.504, 61.375 125.431, 60 125.695 C 57.614 126.153, 57.659 126.231, 61 127.425 C 62.925 128.113, 67.317 129.881, 70.759 131.355 C 79.258 134.992, 89.625 137.289, 93.963 136.497 C 99.824 135.427, 105.507 131.443, 109.051 125.920 C 111.593 121.959, 112.113 120.403, 111.318 119.139 C 109.893 116.877, 108.772 116.922, 98.500 119.658 M 112.733 125.193 C 109.439 130.813, 105.510 134.699, 100.576 137.216 C 97.291 138.892, 95.269 139.155, 88.563 138.778 C 81.864 138.401, 78.589 137.536, 69.203 133.662 C 62.989 131.098, 57.027 129, 55.953 129 C 53.158 129, 53.428 132.780, 56.944 142.882 C 59.419 149.994, 59.779 152.267, 59.316 157.882 C 57.906 174.968, 66.591 183.183, 88.489 185.478 C 92.742 185.924, 106.521 185.499, 123.678 184.393 C 149.488 182.729, 151.919 182.417, 152.365 180.713 C 153.037 178.143, 149.938 175.343, 144.803 173.880 C 139.638 172.409, 119.811 172.179, 100.250 173.362 C 87.601 174.128, 86 174.048, 86 172.655 C 86 171.578, 88.121 170.465, 92.750 169.112 C 104.408 165.704, 107.789 164.943, 122.332 162.454 C 154.976 156.866, 152.870 155.722, 101.579 151.177 C 78.843 149.162, 76.303 147.607, 94.219 146.669 C 107.835 145.956, 121.418 143.954, 133.413 140.893 C 141.640 138.794, 149 135.586, 149 134.098 C 149 132.976, 141.096 131, 136.604 131 C 133.730 131, 132.530 130.298, 129.978 127.122 C 127.693 124.279, 125.881 123.093, 123.181 122.675 C 121.156 122.361, 118.551 121.820, 117.392 121.473 C 115.672 120.957, 114.813 121.644, 112.733 125.193" stroke="none" fill="black" fill-rule="evenodd"/>
</svg>