<svg xmlns="http://www.w3.org/2000/svg" width="200" height="200" viewBox="0 0 200 200" version="1.1">
	<path d="M 64.219 8.760 C 63.548 8.984, 63 10.024, 63 11.072 C 63 13.374, 70.986 24.105, 74.328 26.296 C 78.464 29.006, 87.959 31.258, 93.145 30.760 C 96.485 30.439, 98.349 30.716, 99.122 31.647 C 100.062 32.780, 94.933 33, 67.622 33 C 39.056 33, 35 33.190, 35 34.525 C 35 35.862, 39.132 36.040, 68.671 35.973 C 101.071 35.900, 102.417 35.972, 104.343 37.899 L 106.345 39.900 103.922 41.880 C 100.469 44.702, 94.780 45.232, 66.784 45.340 C 50.220 45.404, 42.093 45.779, 42.322 46.468 C 42.539 47.121, 50.302 47.599, 63.487 47.771 L 84.308 48.042 76.404 51.965 C 64.074 58.085, 59.011 63.857, 59.004 71.800 C 58.999 77.056, 60.660 80.382, 65.668 85.147 C 73.604 92.698, 86.102 97, 100.105 97 C 110.410 97, 118.782 94.709, 127.358 89.544 C 131.383 87.120, 133.933 86.196, 135.507 86.591 C 140.036 87.728, 139.195 96.486, 134.304 99.107 C 131.247 100.745, 114.092 100.971, 95.500 99.618 C 82.250 98.654, 76.354 99.929, 75.293 103.987 C 74.646 106.463, 74.656 106.463, 67.407 103.963 C 44.695 96.128, 28.545 95.186, 24.438 101.454 C 21.417 106.064, 27.542 113.343, 37.159 116.572 C 47.407 120.013, 65.061 117.996, 73.769 112.390 C 75.853 111.048, 76.380 111.166, 80.269 113.848 C 85.633 117.548, 88.376 120.583, 87.556 121.910 C 86.326 123.900, 79.376 124.934, 63 125.563 C 45.273 126.245, 39.231 127.234, 38.322 129.603 C 37.412 131.973, 41.589 135.567, 50.304 139.912 C 56.656 143.079, 57.949 144.071, 56.428 144.611 C 46.692 148.069, 41.333 159.754, 44.495 170.630 C 47.608 181.338, 55.780 186.809, 72.164 189.153 C 86.884 191.259, 87.280 191.185, 103.792 183.167 C 121.888 174.381, 128.498 172.818, 137.027 175.311 C 140.157 176.226, 144.346 178.460, 146.686 180.463 C 151.682 184.740, 154.253 184.901, 157.984 181.170 C 166.471 172.683, 159.705 145.514, 145.592 131.412 C 137.972 123.798, 130.502 120.605, 121.750 121.222 C 118.588 121.445, 116 121.268, 116 120.828 C 116 119.214, 123.700 114.996, 128.171 114.160 C 135.869 112.722, 144.850 114.498, 158.729 120.201 L 163.957 122.350 169.729 117.331 C 175.664 112.169, 180 106.706, 180 104.391 C 180 101.804, 175.906 99.361, 165.287 95.611 C 145.346 88.569, 140.255 86.151, 139.563 83.395 C 139.132 81.677, 139.571 80.089, 140.968 78.314 C 142.190 76.760, 143 74.236, 143 71.982 C 143 68.915, 142.314 67.613, 139.228 64.825 C 137.153 62.950, 132.541 60.144, 128.978 58.588 C 124.410 56.593, 121.554 54.541, 119.290 51.629 L 116.079 47.500 128.790 47.211 C 135.780 47.053, 145.300 47.385, 149.945 47.949 C 157.021 48.809, 158.762 48.730, 160.695 47.464 C 168.165 42.569, 155.823 33.117, 128.763 23.008 C 120.583 19.953, 120.065 19.589, 120.635 17.317 C 121.541 13.710, 117.833 10.310, 111.616 9.045 C 106.885 8.082, 66.972 7.843, 64.219 8.760 M 65.892 12.799 C 66.489 13.914, 67.320 14.977, 67.739 15.163 C 68.157 15.348, 69.764 17.192, 71.308 19.259 C 75.052 24.272, 80.988 27.149, 88.896 27.784 L 95.351 28.302 93.253 25.401 C 92.100 23.805, 88.638 20.033, 85.562 17.019 L 79.969 11.537 72.388 11.154 C 65.032 10.783, 64.840 10.832, 65.892 12.799 M 92.500 11.666 C 93.600 11.971, 99.550 13.684, 105.721 15.472 C 111.893 17.261, 117.181 18.486, 117.471 18.195 C 117.762 17.905, 118 16.914, 118 15.994 C 118 13.050, 113.041 11.664, 101.500 11.381 C 95.450 11.232, 91.400 11.360, 92.500 11.666 M 92.187 20.068 C 97.745 26.290, 98.830 27.070, 101.262 26.590 C 105.889 25.677, 114.159 21.759, 113.291 20.891 C 112.647 20.247, 87.829 13, 86.266 13 C 86.050 13, 88.714 16.180, 92.187 20.068 M 113.500 24.612 C 111.300 25.932, 107.580 27.588, 105.234 28.293 C 101.470 29.423, 101.117 29.772, 102.234 31.261 C 103.380 32.788, 104.896 32.858, 118.224 32 C 139.704 30.616, 140.204 30.380, 129.940 26.483 C 117.969 21.937, 117.960 21.936, 113.500 24.612 M 133 34.420 C 128.325 35.651, 121.443 37.678, 117.707 38.925 C 106.803 42.563, 109.627 43.585, 132.747 44.366 C 143.611 44.733, 153.957 45.301, 155.738 45.628 C 159.697 46.356, 161.168 43.948, 158.540 41.044 C 156.763 39.081, 143.841 31.933, 142.354 32.091 C 141.884 32.140, 137.675 33.189, 133 34.420 M 107.421 36.913 C 109.060 38.723, 109.405 38.743, 113.826 37.268 C 116.397 36.411, 118.688 35.550, 118.917 35.355 C 119.146 35.160, 116.264 35, 112.512 35 C 105.856 35, 105.732 35.047, 107.421 36.913 M 106.813 43.683 C 107.534 43.972, 108.397 43.936, 108.729 43.604 C 109.061 43.272, 108.471 43.036, 107.417 43.079 C 106.252 43.127, 106.015 43.364, 106.813 43.683 M 94.965 48.802 C 108.097 57.847, 113 63.146, 113 68.296 C 113 70.885, 115.678 72.882, 128.760 80.047 C 137.340 84.745, 136.288 79.823, 125.418 64.405 C 121.435 58.757, 120.557 58.098, 113.423 55.405 C 109.189 53.807, 104.389 51.263, 102.756 49.750 C 100.609 47.760, 98.781 47.015, 96.144 47.052 L 92.500 47.105 94.965 48.802 M 104.550 47.947 C 105.997 49.389, 117.004 54.078, 116.968 53.237 C 116.951 52.832, 115.848 51.263, 114.516 49.750 C 112.590 47.561, 111.229 47, 107.848 47 C 105.174 47, 103.952 47.351, 104.550 47.947 M 83.971 51.442 C 71.903 55.889, 63.909 62.233, 61.893 68.962 C 58.709 79.590, 72.766 90.929, 93.023 94.071 C 101.999 95.464, 112.317 93.964, 120.500 90.077 C 131.657 84.777, 131.653 85.089, 120.662 78.621 L 111.013 72.942 107.756 74.630 C 103.891 76.634, 94.458 76.943, 91.250 75.172 C 87.967 73.359, 88.375 69.703, 92.223 66.466 C 98.043 61.569, 99.278 61.407, 104.332 64.884 C 109.428 68.390, 110 68.567, 110 66.635 C 110 64.219, 105.943 60.012, 98.727 54.944 C 91.308 49.734, 89.663 49.344, 83.971 51.442 M 131.730 68.935 C 134.808 73.874, 137.731 77.666, 138.225 77.361 C 138.719 77.056, 139.544 75.699, 140.058 74.347 C 141.541 70.446, 138.949 66.784, 132.130 63.150 L 126.133 59.953 131.730 68.935 M 95.273 67.312 C 93.498 68.515, 91.819 70.077, 91.542 70.782 C 90.952 72.284, 94.883 74, 98.916 74 C 102.069 74, 108.001 72.140, 107.998 71.152 C 107.996 70.512, 99.669 64.940, 98.895 65.062 C 98.678 65.096, 97.048 66.109, 95.273 67.312 M 141 92.474 C 141 94.615, 140.084 96.935, 138.494 98.825 C 134.939 103.049, 128.297 104.441, 115.595 103.624 C 85.024 101.657, 82.201 101.638, 79.546 103.378 C 75.715 105.888, 76.401 108.174, 82.142 112.039 C 88.824 116.536, 91.828 120.455, 90.380 122.786 C 88.155 126.369, 83.945 127.273, 65.564 128.118 C 55.629 128.575, 45.994 129.213, 44.153 129.538 C 40.969 130.098, 40.887 130.218, 42.477 131.975 C 45.292 135.086, 62.097 142.658, 67.835 143.401 C 74.616 144.279, 82.251 147.152, 88 150.988 C 90.475 152.640, 92.986 153.993, 93.580 153.996 C 95.540 154.003, 100.777 145.550, 105.516 134.728 C 110.751 122.776, 116.232 115.708, 122.461 112.878 C 130.094 109.411, 142.629 110.729, 156.779 116.485 C 161.239 118.300, 163.563 118.769, 164.802 118.106 C 168.193 116.291, 177.142 105.976, 176.812 104.262 C 176.582 103.067, 172.279 101.021, 162.491 97.452 C 154.796 94.646, 146.813 91.620, 144.750 90.726 L 141 89.102 141 92.474 M 27.884 101.893 C 25.816 103.567, 25.693 104.057, 26.813 106.150 C 29.995 112.096, 42.857 116.676, 53.566 115.676 C 60.172 115.059, 72.220 111.011, 72.059 109.463 C 71.929 108.217, 57.631 103.418, 48.323 101.495 C 38.142 99.392, 30.796 99.535, 27.884 101.893 M 119.600 129.438 C 122.947 136.749, 123.190 144.776, 120.238 150.545 C 117.795 155.320, 110.763 162.061, 105.349 164.819 C 96.321 169.417, 82.645 171.486, 77.934 168.965 C 73.252 166.459, 76.900 160.753, 84.616 158.509 C 87.696 157.614, 90.054 156.723, 89.857 156.530 C 89.661 156.337, 83.480 153.834, 76.123 150.969 C 63.379 146.007, 62.553 145.817, 58.673 146.980 C 46.750 150.552, 42.385 165.799, 50.312 176.183 C 54.579 181.773, 61.010 184.813, 71.200 186.058 C 75.765 186.615, 81.200 187.329, 83.278 187.644 C 86.538 188.137, 89.215 187.179, 102.778 180.670 C 120.497 172.166, 127.738 170.263, 135.652 172.030 C 140.746 173.168, 147.763 176.805, 149.952 179.442 C 153.277 183.449, 157.770 179.737, 158.657 172.251 C 159.950 161.333, 153.972 144.635, 145.330 135.022 C 138.560 127.493, 133.314 124.784, 124.389 124.211 L 116.990 123.736 119.600 129.438 M 109.984 131.500 C 108.252 135.350, 105.799 140.804, 104.533 143.620 C 100.385 152.840, 93.791 158.740, 84.683 161.377 C 80.625 162.552, 77.924 165.260, 79.372 166.702 C 80.844 168.167, 90.667 167.274, 97.280 165.073 C 106.666 161.950, 114.207 156.233, 117.404 149.818 C 118.832 146.952, 120 143.427, 120 141.985 C 120 138.003, 117.220 129.490, 115.057 126.849 L 113.133 124.500 109.984 131.500" stroke="none" fill="black" fill-rule="evenodd"/>
</svg>