<svg xmlns="http://www.w3.org/2000/svg" width="200" height="200" viewBox="0 0 200 200" version="1.1">
	<path d="M 139.500 10.531 C 137.557 11.257, 80.251 18.134, 62.224 19.806 C 42.833 21.603, 38.034 23.353, 51.500 23.715 C 68.274 24.166, 80.526 27.726, 87.220 34.094 C 89.480 36.245, 91.079 38.254, 90.773 38.560 C 90.467 38.867, 88.480 38.385, 86.358 37.490 C 74.159 32.346, 46.137 27.351, 44.484 30.026 C 42.862 32.651, 48.371 34.886, 68 39.570 C 73.225 40.817, 77.159 41.873, 76.742 41.918 C 55.648 44.193, 32.589 48.963, 30.017 51.583 C 26.564 55.102, 34.472 57.865, 52.964 59.600 L 60.428 60.301 56.464 61.486 C 54.284 62.137, 50.656 63.619, 48.403 64.777 C 44.048 67.017, 34.895 76.369, 32.471 81.055 L 31.017 83.868 38.526 87.480 C 47.013 91.562, 53 96.333, 53 99.015 C 53 102.253, 47.287 105.740, 35.786 109.522 C 29.579 111.563, 23.658 114.035, 22.630 115.015 C 20.807 116.751, 20.820 116.836, 23.162 118.370 C 26.525 120.574, 45.460 123.301, 58.147 123.409 C 68.261 123.495, 68.744 123.595, 67.787 125.389 C 65.516 129.651, 65.071 133.234, 66.413 136.446 C 69.370 143.523, 80.939 145.507, 110.353 143.982 C 128.318 143.050, 133.872 143.179, 139.250 144.655 C 141.673 145.319, 141.438 147.326, 138.532 150.779 L 136.065 153.712 130.285 151.760 C 107.045 143.914, 82.861 146.107, 72.262 157.021 C 63.566 165.976, 68.898 176.925, 85.746 184.709 C 96.979 189.899, 105.168 191.316, 120 190.638 C 144.662 189.509, 173.018 182.607, 174.739 177.314 C 174.951 176.661, 173.950 175.358, 172.516 174.418 C 170.407 173.037, 166.033 172.541, 149.703 171.832 C 138.592 171.350, 125.675 170.373, 121 169.660 C 112.647 168.386, 112.578 168.353, 117 167.722 C 119.475 167.368, 124.875 166.818, 129 166.499 C 146.921 165.111, 162.973 161.292, 169.039 156.972 C 171.606 155.145, 171.997 154.240, 171.980 150.182 C 171.969 147.607, 171.549 142.657, 171.046 139.181 C 169.618 129.302, 167.535 127.310, 151.558 120.543 C 144.101 117.384, 138 114.607, 138 114.370 C 138 114.133, 139.073 111.366, 140.385 108.220 C 141.697 105.074, 143.085 101.027, 143.470 99.227 C 144.167 95.965, 144.181 95.980, 147.936 103.727 C 152.683 113.520, 156.730 118, 160.829 118 C 169.430 118, 173.920 99.890, 174.736 61.903 C 175.158 42.262, 174.960 36.910, 173.555 29.975 C 171.409 19.382, 169.615 15.771, 166.707 16.188 C 162.850 16.741, 160.112 24.088, 152.358 54.698 C 148.206 71.089, 144.553 84.914, 144.240 85.421 C 143.927 85.928, 143.299 85.336, 142.844 84.107 C 141.272 79.858, 140.157 83.031, 140.680 90.261 C 141.309 98.953, 139.056 106.132, 134.676 109.396 L 131.852 111.500 126.758 108.657 C 123.956 107.093, 119.921 104.713, 117.790 103.368 L 113.916 100.922 115.900 98.400 C 121.187 91.678, 120.925 79.592, 114.958 55 C 113.290 48.125, 111.667 39.350, 111.351 35.500 C 110.842 29.308, 111.028 28.182, 112.961 25.750 C 114.884 23.329, 115.825 23, 120.823 23.001 L 126.500 23.002 131.296 37.751 C 138.347 59.435, 142.801 66.632, 146.731 62.694 C 150.309 59.109, 148.102 27.073, 143.395 14.250 C 141.867 10.089, 141.535 9.772, 139.500 10.531 M 137.500 13.538 C 136.562 13.887, 88.231 19.991, 74 21.559 L 67.500 22.274 73.602 23.955 C 81.710 26.189, 88.411 30.239, 91.488 34.767 C 92.869 36.801, 94 38.849, 94 39.318 C 94 39.788, 96.475 42.513, 99.500 45.373 C 104.121 49.743, 104.998 51.128, 104.985 54.037 C 104.960 59.510, 104.178 59.987, 93.937 60.776 C 82.689 61.641, 81.304 63.215, 88.201 67.296 C 97.331 72.699, 104.520 82.579, 105.826 91.518 C 106.346 95.078, 107.123 96.509, 109.229 97.785 C 111.816 99.352, 112.038 99.335, 113.459 97.469 C 117.429 92.258, 117.978 82.233, 115.043 68.500 C 106.721 29.549, 106.632 28.214, 111.997 22.850 C 114.348 20.498, 115.690 20.002, 119.673 20.014 C 128.686 20.039, 128.498 19.839, 133.041 34.249 C 137.216 47.491, 141.089 57.197, 143.225 59.771 C 144.229 60.980, 144.515 60.917, 145.133 59.347 C 147.783 52.611, 143.067 14.300, 139.478 13.409 C 138.940 13.276, 138.050 13.334, 137.500 13.538 M 164.021 23.172 C 162.772 26.076, 158.116 42.909, 153.675 60.580 L 145.599 92.708 150.550 102.543 C 153.358 108.123, 156.679 113.239, 158.226 114.367 C 160.851 116.281, 161.024 116.288, 162.934 114.559 C 167.292 110.616, 170.453 95.519, 172.095 70.798 C 173.346 51.972, 172.487 35.854, 169.663 25.178 C 167.604 17.393, 166.653 17.055, 164.021 23.172 M 52 32.409 C 52 32.859, 75.401 38.519, 81 39.423 C 88.103 40.571, 73.612 35.966, 63.843 33.972 C 53.950 31.952, 52 31.695, 52 32.409 M 84.699 45.624 C 85.140 47.206, 85.454 50.655, 85.397 53.288 L 85.294 58.076 93.397 57.788 L 101.500 57.500 101.816 54.213 C 102.254 49.665, 97.756 45.490, 91.391 44.536 C 88.835 44.153, 86.104 43.593, 85.321 43.293 C 84.190 42.859, 84.063 43.337, 84.699 45.624 M 76.500 44.703 C 50.095 48.257, 33 51.516, 33 52.997 C 33 53.458, 35.346 54.337, 38.213 54.952 C 44.864 56.379, 79.077 58.568, 81.312 57.710 C 84.164 56.616, 83.106 43.544, 80.215 44.150 C 79.822 44.232, 78.150 44.481, 76.500 44.703 M 77.500 62 C 80.263 63.187, 82 63.187, 82 62 C 82 61.450, 80.537 61.032, 78.750 61.070 C 76.026 61.129, 75.824 61.280, 77.500 62 M 57 63.935 C 51.221 65.699, 45.997 69.236, 40.668 74.991 C 37.551 78.359, 35.002 81.426, 35.004 81.807 C 35.006 82.188, 38.003 84.049, 41.663 85.942 C 49.406 89.946, 56 95.819, 56 98.710 C 56 101.573, 52.438 105.741, 48.155 107.890 C 46.145 108.898, 40.019 111.204, 34.543 113.013 C 22.688 116.930, 22.957 117.158, 42.142 119.453 C 49.489 120.332, 56.850 121.215, 58.500 121.415 C 60.150 121.616, 63.750 121.320, 66.500 120.759 C 70.945 119.853, 72.098 119.022, 76.881 113.284 L 82.263 106.828 85.140 112.089 C 86.722 114.983, 88.185 117.518, 88.390 117.723 C 89.461 118.794, 124.952 114.766, 127.314 113.306 C 127.778 113.019, 124.578 110.633, 120.204 108.004 L 112.250 103.223 106.875 105.079 C 100.303 107.348, 92 107.644, 92 105.608 C 92 104.843, 93.048 103.954, 94.328 103.633 C 97.142 102.926, 102.282 98.347, 101.820 96.959 C 101.637 96.411, 96.541 92.119, 90.494 87.420 C 80.846 79.922, 79.378 79.088, 78.500 80.602 C 77.950 81.551, 76.339 83.672, 74.920 85.315 C 72.828 87.738, 71.839 88.176, 69.689 87.637 C 65.696 86.635, 63.779 81.754, 61.483 66.750 C 60.874 62.767, 60.858 62.757, 57 63.935 M 71.500 68.443 C 74.800 71.410, 77.776 73.537, 78.114 73.169 C 78.451 72.801, 79.212 71.047, 79.804 69.271 L 80.881 66.042 75.759 64.521 C 72.942 63.684, 69.481 63.011, 68.068 63.024 C 65.726 63.046, 66.028 63.524, 71.500 68.443 M 64.649 69.736 C 65.619 76.641, 68.066 84.088, 69.554 84.659 C 71.392 85.365, 73.683 83.514, 75.628 79.753 C 77.106 76.894, 77.069 76.813, 72.397 72.680 C 64.229 65.455, 64.039 65.383, 64.649 69.736 M 81.851 72.103 C 80.448 76.786, 79.135 75.215, 94 86.635 C 101.359 92.289, 102.541 92.897, 102.809 91.166 C 103.529 86.501, 95.127 75.046, 87.027 69.648 C 83.558 67.336, 83.233 67.490, 81.851 72.103 M 102.187 101.500 C 99.705 104.354, 99.856 104.423, 105.127 102.844 C 108.189 101.926, 108.755 101.410, 107.870 100.344 C 106.230 98.367, 104.628 98.692, 102.187 101.500 M 78.435 115.250 L 75.692 118.500 77.948 118.833 C 79.188 119.016, 81.289 118.893, 82.616 118.560 C 84.949 117.975, 84.978 117.857, 83.488 114.977 C 82.642 113.340, 81.775 112, 81.563 112 C 81.351 112, 79.943 113.463, 78.435 115.250 M 125.096 116.580 C 122.674 117.340, 114.799 118.459, 107.596 119.065 C 87.958 120.720, 89.241 119.999, 93.874 126.774 C 100.600 136.608, 106.425 141, 112.745 141 C 116.380 141, 117.724 140.374, 121.436 136.953 C 125.378 133.318, 134 119.007, 134 116.097 C 134 114.669, 130.597 114.853, 125.096 116.580 M 133.348 124.612 C 131.363 128.684, 127.959 134.037, 125.784 136.508 L 121.830 141 129.868 141 C 142.399 141, 146.118 143.836, 142.104 150.331 C 138.139 156.748, 137.077 157.217, 131.405 155.062 C 103.916 144.617, 71 151.094, 71 166.947 C 71 173.611, 83.647 182.592, 98.460 186.448 C 109.232 189.253, 133.205 187.936, 153 183.453 C 161.824 181.454, 171 178.192, 171 177.053 C 171 175.670, 165.172 175, 153.125 174.998 C 138.295 174.996, 103.332 170.666, 101.239 168.572 C 99.484 166.818, 104.422 165.782, 121.087 164.407 C 142.137 162.671, 157.419 159.889, 163.973 156.599 L 168.500 154.327 168.427 145.310 C 168.313 131.100, 167.201 129.887, 146.229 121.095 L 136.959 117.208 133.348 124.612 M 77 121.900 C 72.818 122.458, 72.330 122.843, 70.094 127.354 C 66.028 135.555, 68.774 139.085, 80.743 141.046 C 86.877 142.050, 103 142.357, 103 141.469 C 103 141.178, 101.465 139.591, 99.589 137.944 C 97.713 136.297, 94.033 131.811, 91.412 127.975 C 86.260 120.434, 86.678 120.610, 77 121.900" stroke="none" fill="black" fill-rule="evenodd"/>
</svg>