<svg xmlns="http://www.w3.org/2000/svg" width="200" height="200" viewBox="0 0 200 200" version="1.1">
	<path d="M 91.412 4.368 C 91.070 5.261, 90.959 7.777, 91.167 9.958 C 91.590 14.391, 91.443 14.415, 82.540 11.318 C 77.431 9.541, 70.659 10.525, 67.158 13.553 C 64.504 15.848, 64.503 15.857, 66.281 19.192 C 69.433 25.102, 81.488 31.926, 93.317 34.497 C 99.085 35.751, 97.736 35.846, 73.250 35.921 C 56.470 35.971, 47 36.361, 47 37 C 47 38.243, 45.357 38.139, 76.815 38.880 L 103.131 39.500 104.815 42.285 C 106.218 44.604, 106.270 45.212, 105.127 45.920 C 103.599 46.866, 91.234 48.572, 74.725 50.113 C 57.543 51.717, 46.220 49.104, 37.100 41.431 C 35.349 39.957, 33.699 38.968, 33.434 39.232 C 31.357 41.310, 40.903 48.557, 49.063 51.097 C 56.749 53.489, 71.807 53.626, 88.362 51.455 L 100.142 49.910 102.062 52.352 C 103.118 53.694, 106.142 55.569, 108.782 56.519 C 113.474 58.206, 113.723 58.513, 119.893 70.188 L 126.205 82.132 120.215 79.108 C 115.607 76.783, 113.969 75.349, 113.114 72.897 C 109.639 62.928, 96.694 54.469, 85.021 54.539 C 73.486 54.608, 64.582 60.932, 61.525 71.229 C 57.051 86.294, 62.826 96.821, 78.843 102.801 C 84.056 104.747, 87.995 105.385, 97 105.741 C 110.446 106.272, 119.561 104.568, 127.630 100.014 L 132.772 97.111 133.386 100.181 C 133.724 101.869, 134 104.501, 134 106.031 L 134 108.811 84.750 108.432 C 57.662 108.223, 30.887 107.703, 25.249 107.276 C 15.400 106.530, 14.999 106.579, 15.027 108.500 C 15.094 113.053, 19.560 119.459, 24.922 122.692 C 31.757 126.812, 37.579 127.507, 56.493 126.461 C 78.578 125.240, 80.722 125.294, 82.544 127.115 C 83.975 128.547, 83.990 129.077, 82.679 132.108 C 79.601 139.231, 79.187 139.415, 72.701 136.546 C 65.007 133.144, 58.217 133.105, 54.253 136.441 C 45.276 143.994, 48.488 165.696, 60.693 179.955 C 62.540 182.113, 66.483 185.068, 69.454 186.521 L 74.857 189.165 108.179 188.744 C 129.868 188.469, 142.769 187.912, 145.134 187.146 C 150.959 185.261, 154 182.338, 154 178.623 C 154 175.017, 149.924 168.049, 145.259 163.683 L 142.250 160.865 136.469 164.563 C 127.047 170.590, 120.881 172.432, 110 172.467 C 102.159 172.493, 99.629 172.097, 95.512 170.200 C 89.815 167.575, 86.175 164.502, 84.922 161.259 C 82.600 155.247, 88.117 152.400, 101 152.962 C 106.225 153.189, 117.496 153.404, 126.046 153.438 C 139.315 153.491, 141.989 153.240, 144.296 151.727 C 150.674 147.545, 146.644 142.744, 128.089 132.420 L 116.845 126.163 122.172 125.597 C 125.103 125.286, 134.025 124.548, 142 123.956 C 168.642 121.980, 180.044 119.655, 182.121 115.774 C 183.979 112.302, 178.065 107.934, 166.217 104.025 C 160.506 102.142, 152.733 98.530, 147.363 95.266 L 138.227 89.711 140.092 85.606 C 145.304 74.129, 139.968 65.815, 122.915 58.843 C 117.426 56.599, 114.785 54.906, 113.575 52.857 L 111.887 50 117.128 50 C 120.010 50, 125.049 50.752, 128.325 51.671 C 133.421 53.101, 135.162 53.166, 140.390 52.123 C 162.274 47.756, 165.875 42.207, 151.136 35.562 C 148.861 34.536, 147 33.315, 147 32.848 C 147 32.382, 146.213 32.004, 145.250 32.010 C 144.287 32.015, 139.990 30.778, 135.699 29.260 C 129.438 27.045, 127.988 26.155, 128.355 24.753 C 128.863 22.807, 117.792 13.920, 106.759 7.418 C 99.586 3.190, 92.411 1.765, 91.412 4.368 M 94.125 5.923 C 92.630 6.847, 93.541 13.421, 95.355 14.799 C 96.548 15.706, 122.936 25.032, 124.250 25.012 C 126.369 24.979, 124.250 22.783, 117.250 17.759 C 104.544 8.639, 96.440 4.492, 94.125 5.923 M 70.750 14.162 C 67.147 15.478, 67.276 17.521, 71.192 21.179 C 76.197 25.855, 86.643 30.490, 96.696 32.497 L 99.893 33.135 96.295 25.216 L 92.698 17.296 86.028 15.148 C 78.831 12.830, 75.063 12.587, 70.750 14.162 M 97.514 21.099 C 97.924 22.419, 99.333 25.637, 100.646 28.250 C 102.866 32.666, 103.301 33, 106.839 33 C 111.292 33, 119.394 30.436, 120.980 28.524 C 121.866 27.457, 119.851 26.453, 110.792 23.450 C 104.581 21.391, 98.886 19.479, 98.135 19.202 C 97.103 18.821, 96.952 19.285, 97.514 21.099 M 121.833 31.189 C 120.365 32.332, 116.990 33.888, 114.333 34.647 C 109.544 36.014, 109.581 36.022, 118.500 35.467 C 131.872 34.635, 138.210 33.800, 137.306 32.989 C 136.303 32.089, 127.028 28.980, 125.572 29.056 C 124.982 29.086, 123.300 30.046, 121.833 31.189 M 128.500 39.906 C 121.900 41.970, 114.925 44.374, 113 45.248 L 109.500 46.837 115.357 46.918 C 118.578 46.963, 124.352 47.757, 128.188 48.683 C 134.136 50.119, 136.036 50.186, 141.099 49.140 C 151.535 46.985, 157.114 44.830, 156.779 43.085 C 156.357 40.883, 147.140 36.035, 143.500 36.100 C 141.850 36.130, 135.100 37.842, 128.500 39.906 M 111.261 38.737 L 106.022 39.104 107.620 41.543 C 108.499 42.885, 109.622 43.734, 110.114 43.430 C 110.606 43.125, 114.044 41.796, 117.754 40.476 C 125.143 37.846, 124.902 37.782, 111.261 38.737 M 105.036 51.393 C 105.841 52.159, 107.551 53.101, 108.836 53.487 C 110.961 54.126, 111.071 54.001, 110.051 52.095 C 109.341 50.769, 107.947 50, 106.251 50 C 103.927 50, 103.766 50.185, 105.036 51.393 M 75.500 59.314 C 69.333 62.301, 66.521 65.273, 64.534 70.904 C 61.129 80.553, 63.220 89.625, 70.139 95.224 C 82.611 105.320, 116.326 105.847, 128.871 96.143 C 131.115 94.407, 131.169 94.110, 129.885 90.558 C 128.764 87.457, 127.315 86.137, 121.519 82.937 L 114.509 79.066 112.687 82.619 C 110.402 87.072, 104.511 89.841, 95.537 90.679 L 89.021 91.287 86.352 85.458 C 83.400 79.010, 82.762 72.197, 84.872 69.654 C 86.956 67.143, 95.298 67.552, 102.500 70.519 C 105.800 71.879, 108.849 72.993, 109.276 72.995 C 110.746 73.004, 107.065 67.232, 103.902 64.571 C 95.120 57.182, 84.110 55.143, 75.500 59.314 M 118 60.325 C 118 60.578, 120.923 66.386, 124.496 73.230 C 129.107 82.065, 131.733 86.013, 133.546 86.839 C 135.934 87.927, 136.196 87.776, 137.550 84.534 C 141.057 76.142, 138.115 69.608, 128.500 64.432 C 122.532 61.220, 118 59.447, 118 60.325 M 87.550 71.340 C 85.481 72.853, 85.875 77.147, 88.739 84.305 L 90.321 88.259 96.632 87.670 C 105.790 86.815, 111 83.563, 111 78.702 C 111 77.202, 102.310 72.936, 95.500 71.093 C 90.373 69.706, 89.758 69.725, 87.550 71.340 M 135.285 93.115 C 134.465 93.935, 134.544 95.291, 135.585 98.241 C 137.386 103.345, 137.395 108.462, 135.607 110.250 C 134.447 111.410, 126.348 111.598, 87.357 111.369 C 61.586 111.218, 35.550 110.709, 29.500 110.237 C 23.450 109.766, 18.333 109.499, 18.129 109.645 C 17.083 110.390, 22.109 117.796, 24.988 119.752 C 31.864 124.425, 39.335 125.120, 66.254 123.592 C 80.778 122.767, 82.164 122.838, 84.004 124.504 C 87.497 127.665, 85.954 134.463, 80.209 141.218 C 78.837 142.831, 78.496 142.790, 74.624 140.534 C 68.791 137.136, 62.131 135.619, 58.727 136.914 C 45.349 142, 53.553 175.609, 70.252 184.128 C 74.013 186.047, 75.755 186.124, 108.346 185.813 C 137.536 185.534, 143.033 185.245, 146.170 183.828 C 151.282 181.517, 152.507 178.903, 150.418 174.759 C 148.667 171.283, 143.130 165, 141.819 165 C 141.385 165, 138.826 166.356, 136.133 168.013 C 127.505 173.322, 120.545 175.276, 110 175.348 C 101.603 175.406, 99.771 175.082, 94.223 172.558 C 86.879 169.217, 82 164.223, 82 160.047 C 82 155.743, 82.914 154.106, 86.371 152.213 C 89.100 150.719, 92.848 150.500, 115.708 150.500 C 138.360 150.500, 142.134 150.284, 143.517 148.905 C 144.984 147.444, 144.827 147.055, 141.640 144.257 C 139.728 142.578, 133.513 138.628, 127.831 135.480 C 122.149 132.332, 115.752 128.583, 113.615 127.149 L 109.731 124.542 113.115 123.855 C 114.977 123.477, 126.117 122.436, 137.870 121.541 C 166.074 119.393, 180 116.896, 180 113.986 C 180 112.415, 166.035 106, 162.615 106 C 160.725 106, 155.609 103.500, 148.293 99 C 142.033 95.150, 136.796 92, 136.655 92 C 136.515 92, 135.898 92.502, 135.285 93.115" stroke="none" fill="black" fill-rule="evenodd"/>
</svg>