<svg xmlns="http://www.w3.org/2000/svg" width="200" height="200" viewBox="0 0 200 200" version="1.1">
	<path d="M 135.617 8.810 C 135.005 9.801, 126.958 9.919, 97.421 9.373 C 65.193 8.777, 60 8.881, 60 10.121 C 60 10.913, 58.650 12.071, 57 12.694 C 51.042 14.943, 54.013 19.735, 66.342 27.762 C 70.769 30.644, 73.527 31.873, 74.155 31.245 C 74.784 30.616, 72.016 28.195, 66.313 24.387 C 61.332 21.059, 57.346 17.671, 57.147 16.594 C 56.816 14.809, 57.293 14.727, 64.647 15.312 C 72.822 15.962, 86.495 19.210, 98.500 23.355 L 105.500 25.771 102.500 26.975 C 100.850 27.638, 96.912 28.668, 93.750 29.266 C 89.979 29.979, 88 30.839, 88 31.764 C 88 33.564, 93.654 32.747, 103.359 29.543 L 110.219 27.279 118.859 31.508 C 137.243 40.505, 138.025 46.837, 120.577 45.421 L 112.209 44.742 113.676 40.438 C 116.681 31.619, 113.564 30.576, 93.280 33.615 C 81.432 35.390, 64.685 35.078, 54.913 32.900 C 49.420 31.676, 49.264 31.704, 45.703 34.546 C 43.710 36.136, 41.297 38.891, 40.340 40.668 C 38.679 43.752, 38.682 43.991, 40.403 45.893 C 42.381 48.078, 44.249 48.571, 54.093 49.502 L 60.687 50.126 58.693 54.156 C 56.928 57.722, 56.833 58.764, 57.861 63.219 C 58.500 65.988, 61.522 73.574, 64.577 80.077 C 70.213 92.077, 71.442 97.473, 68.905 99.080 C 67.049 100.255, 61.489 100.231, 55.099 99.019 C 50.342 98.117, 49.410 98.281, 43.509 101.069 C 36.651 104.309, 31.713 109.088, 32.663 111.564 C 34.817 117.179, 59.891 119.639, 81.408 116.347 L 85.500 115.721 83.250 118.175 C 81.905 119.641, 81 121.905, 81 123.800 C 81 130.470, 92.814 134.696, 114.253 135.694 C 124.287 136.161, 126.785 136.554, 125.970 137.536 C 123.793 140.160, 119.252 141.284, 115.781 140.061 C 110.652 138.253, 93.350 136.039, 84.193 136.018 C 69.960 135.987, 63.014 138.935, 64.391 144.423 C 65.566 149.103, 77.680 154.335, 94.773 157.546 C 99.573 158.448, 104.175 159.403, 105 159.670 C 105.825 159.937, 100.425 162.394, 93 165.132 C 77.944 170.682, 66.826 175.776, 62.724 179.002 C 56.736 183.712, 61.095 187.668, 71 186.514 C 85.464 184.829, 103.747 178.933, 114.398 172.519 L 120.188 169.033 124.600 172.069 C 141.388 183.619, 159.523 186.395, 163.021 177.950 C 165.850 171.120, 156.701 161.140, 141.588 154.570 L 134.077 151.304 147.789 150.643 C 180.743 149.054, 181.454 142.576, 149.825 132.092 C 138.491 128.335, 137.229 127.276, 139 123.001 C 140.101 120.343, 140.720 120, 144.425 120 C 150.736 120, 158.233 115.813, 162.618 109.839 C 167.427 103.289, 171.643 90.743, 172.816 79.500 C 173.858 69.502, 172.904 12.240, 171.662 10.250 C 171.233 9.562, 170.288 9, 169.562 9 C 167.310 9, 165.829 14, 159.587 42.669 C 152.286 76.199, 142.848 110.090, 139.558 114.589 C 138.277 116.342, 138.073 116.337, 133.865 114.454 C 131.464 113.380, 126.611 110.324, 123.080 107.662 L 116.660 102.823 113.080 104.813 C 109.077 107.037, 96.803 111, 93.915 111 C 91.408 111, 88.227 104.603, 86.417 95.923 L 84.987 89.068 91.308 79.284 C 94.785 73.903, 99.590 66.194, 101.986 62.153 C 104.383 58.112, 106.901 54.592, 107.582 54.330 C 109.702 53.516, 114.889 56.886, 116.596 60.185 C 119.043 64.919, 117.796 70.573, 111.510 83.247 C 105.477 95.408, 104.757 99.264, 108.175 101.094 C 111.201 102.713, 120.816 100.848, 133.500 96.180 L 143.500 92.500 145.373 85.500 C 147.645 77.012, 148.066 54.482, 146.167 43 C 143.294 25.628, 137.277 6.125, 135.617 8.810 M 90.455 14.609 C 104.274 17.474, 110.528 19.937, 111.463 22.882 C 111.887 24.220, 115.161 26.469, 120.618 29.174 C 128.937 33.296, 136 39.399, 136 42.464 C 136 44.024, 132.320 47.886, 130.561 48.173 C 129.978 48.268, 125.043 48.380, 119.595 48.423 C 113.194 48.473, 109.553 48.900, 109.302 49.630 C 109.088 50.251, 110.919 51.935, 113.371 53.372 C 116.763 55.359, 118.235 57.048, 119.528 60.434 C 121.767 66.297, 120.491 71.767, 113.887 84.621 C 111.199 89.853, 109 95.291, 109 96.706 C 109 99.201, 109.149 99.261, 113.932 98.694 C 116.645 98.373, 123.826 96.462, 129.890 94.448 C 140.123 91.049, 140.988 90.559, 141.918 87.643 C 146.941 71.887, 145.302 43.376, 138.016 19.786 L 136.017 13.314 120.258 12.660 C 111.591 12.301, 98.650 12.035, 91.500 12.069 L 78.500 12.131 90.455 14.609 M 168.272 17.500 C 167.629 19.700, 164.590 32.750, 161.518 46.500 C 154.011 80.107, 148.039 101.698, 142.501 115.250 C 141.906 116.707, 142.337 117, 145.077 117 C 154.023 117, 161.851 109.299, 166.361 96.062 C 170.351 84.351, 170.979 75.611, 170.172 43 C 169.554 18.071, 169.260 14.120, 168.272 17.500 M 94 18.735 C 100.725 21.320, 108.951 23.729, 108.486 22.977 C 107.882 22.001, 95.592 17.945, 93.645 18.079 C 93.015 18.122, 93.175 18.417, 94 18.735 M 98.500 35.682 C 87.904 37.638, 65.396 37.883, 56.748 36.136 C 49.184 34.609, 46.729 35.432, 43.319 40.635 C 41.700 43.107, 41.705 43.311, 43.417 44.563 C 46.613 46.900, 54.931 47.168, 82.409 45.820 L 109.318 44.500 110.885 40.198 C 112.261 36.419, 112.272 35.784, 110.975 34.964 C 109.149 33.809, 108.418 33.851, 98.500 35.682 M 100.965 49.094 C 103.772 49.644, 105.797 49.603, 106.415 48.985 C 107.062 48.338, 105.527 48.038, 101.950 48.110 L 96.500 48.219 100.965 49.094 M 71.239 50.067 C 62.049 51.320, 59.007 54.891, 60.472 62.704 C 60.853 64.734, 63.828 72.074, 67.082 79.015 C 73.368 92.419, 74.358 97.467, 71.250 100.267 C 68.469 102.773, 64.674 103.259, 57.075 102.080 C 50.124 101.001, 49.878 101.039, 43.431 104.183 C 39.819 105.943, 36.422 108.211, 35.881 109.222 C 34.283 112.208, 40.581 114.176, 53.618 114.765 C 64.619 115.262, 87.604 113.449, 88.491 112.015 C 88.743 111.606, 88.004 109.315, 86.849 106.923 C 85.693 104.531, 84.263 99.745, 83.671 96.287 C 83.078 92.829, 82.340 90, 82.031 90 C 81.149 90, 82.880 66.445, 83.973 63.571 C 86.614 56.624, 87.854 64.634, 86.053 77 C 85.612 80.025, 85.356 82.624, 85.485 82.776 C 85.960 83.338, 104 54.004, 104 52.669 C 104 52.136, 90.112 50.277, 82 49.724 C 78.975 49.518, 74.133 49.672, 71.239 50.067 M 113 107.926 C 111.075 108.937, 106.800 110.576, 103.500 111.568 C 100.200 112.561, 97.114 113.697, 96.643 114.094 C 94.839 115.611, 100.751 117.365, 107.361 117.275 C 112.568 117.204, 116.306 117.903, 122.861 120.175 C 135.403 124.521, 135.440 124.525, 136.706 121.746 C 137.748 119.458, 137.487 119.176, 131.653 116.298 C 128.269 114.629, 123.545 111.629, 121.155 109.631 C 118.766 107.634, 116.741 106.020, 116.655 106.044 C 116.570 106.069, 114.925 106.915, 113 107.926 M 85.021 120.478 C 83.111 122.511, 82.797 123.468, 83.602 124.795 C 86.514 129.589, 101.220 133, 118.981 133 C 129.009 133, 130.881 132.753, 131.417 131.357 C 131.763 130.453, 131.915 129.581, 131.753 129.420 C 131.337 129.004, 94.519 119.188, 90.661 118.464 C 88.073 117.979, 87.013 118.357, 85.021 120.478 M 118 122.556 C 122.675 123.883, 126.950 124.931, 127.500 124.885 C 129.472 124.719, 114.446 120.101, 112 120.122 C 110.625 120.133, 113.325 121.229, 118 122.556 M 138.568 132.889 C 138.266 133.378, 136.777 134.084, 135.259 134.458 C 133.742 134.832, 131.094 136.491, 129.375 138.144 C 124.650 142.689, 119.678 144.087, 114.055 142.451 C 102.960 139.222, 78.599 137.873, 70.750 140.053 C 63.435 142.084, 67.194 146.766, 79.554 151.019 C 84.495 152.719, 96.350 155.214, 110.250 157.479 C 116.650 158.523, 114.778 160.578, 104.250 164.064 C 83.017 171.094, 63 180.290, 63 183.013 C 63 184.583, 71.759 184.122, 81 182.064 C 92.562 179.489, 105.231 174.760, 113.475 169.942 L 120.331 165.936 125.493 169.364 C 138.213 177.810, 150.448 181.997, 156.534 179.989 C 160.685 178.619, 161.825 175.488, 159.676 171.358 C 155.802 163.908, 142.242 156.281, 125.250 151.995 C 122.912 151.405, 121 150.328, 121 149.602 C 121 148.565, 125.581 148.163, 142.250 147.736 C 162.567 147.215, 170.769 146.053, 169.428 143.884 C 168.458 142.314, 159.919 138.386, 150.381 135.121 C 140.528 131.749, 139.405 131.536, 138.568 132.889" stroke="none" fill="black" fill-rule="evenodd"/>
</svg>