<svg xmlns="http://www.w3.org/2000/svg" width="200" height="200" viewBox="0 0 200 200" version="1.1">
	<path d="M 140.690 3.693 C 140.351 4.241, 140.914 8.247, 141.941 12.595 C 142.968 16.943, 144.567 24.265, 145.494 28.866 L 147.179 37.232 143.387 41.116 C 141.301 43.252, 139.348 44.994, 139.047 44.988 C 138.746 44.981, 137.174 41.525, 135.554 37.308 C 131.618 27.065, 127.357 21.500, 123.449 21.500 C 121.067 21.500, 120.175 22.173, 118.812 25 C 116.333 30.138, 114.834 43.517, 115.092 58.202 L 115.320 71.117 107.053 80.559 C 102.506 85.751, 98.699 90, 98.591 90 C 98.484 90, 98.838 87.331, 99.377 84.069 C 100.574 76.831, 99.101 70.947, 95.086 66.932 L 92.353 64.199 96.281 63.571 C 108.875 61.557, 110.408 54.131, 100.274 44.237 C 96.043 40.105, 91.700 37.397, 81.150 32.312 C 66.971 25.477, 52.786 19.703, 47.345 18.551 C 43.172 17.667, 41.884 19.678, 45.005 22.205 C 46.666 23.550, 47.533 23.755, 48.047 22.924 C 48.576 22.068, 50.180 22.251, 54.133 23.620 L 59.500 25.478 48.500 26.141 C 41.389 26.570, 35.556 27.520, 32 28.829 C 28.975 29.943, 26.762 30.887, 27.083 30.927 C 27.404 30.967, 34.604 32.542, 43.083 34.426 C 71.703 40.786, 84.132 42.022, 86.178 38.712 C 87.092 37.233, 97.088 44.071, 101.064 48.894 C 104.295 52.813, 104.861 57.040, 102.427 59.061 C 101.520 59.814, 97.221 60.557, 92.269 60.817 C 84.156 61.243, 83.728 61.164, 84.494 59.384 C 89.925 46.764, 80.445 40.594, 59.500 43.116 C 49.615 44.307, 37.314 47.852, 32.250 50.970 C 26.493 54.514, 28.933 58.847, 36.815 59.079 C 38.292 59.122, 38.975 59.373, 38.332 59.635 C 37.618 59.927, 39.134 62.710, 42.238 66.806 C 48.593 75.192, 52.998 84.372, 52.999 89.234 C 53 94.189, 49.492 98.015, 40.500 102.868 C 28.909 109.123, 28.317 113.287, 37.628 123.049 L 43.154 128.842 49.284 125.943 C 55.282 123.106, 69.623 119.290, 70.603 120.270 C 70.875 120.542, 67.516 124.380, 63.139 128.799 C 55.311 136.701, 55.112 136.825, 51.090 136.285 C 47.084 135.748, 47 135.799, 47 138.761 C 47 142.593, 49.269 143.545, 53.063 141.304 C 55.651 139.775, 56.731 139.733, 63.630 140.892 C 76.300 143.021, 76.551 143.420, 67.825 147.566 C 51.574 155.287, 46.870 162.945, 52.091 173.179 C 54.558 178.014, 61.594 185.266, 68.252 189.837 L 73.004 193.099 76.321 190.569 C 83.745 184.906, 86.451 184.466, 111 184.923 C 158.025 185.798, 160.966 185.707, 166.463 183.193 C 169.193 181.945, 172.279 180.153, 173.320 179.212 C 175.819 176.952, 178.678 171.251, 179.468 166.953 C 180.084 163.602, 179.916 163.376, 173.801 159.329 C 162.953 152.148, 157.086 149.636, 151 149.564 C 144.870 149.493, 142.510 150.802, 137.500 157.054 C 133.355 162.227, 130.010 163.997, 124.346 164.015 C 121.681 164.023, 115.900 165.174, 111.500 166.573 C 107.100 167.972, 100.013 169.379, 95.750 169.701 C 88.161 170.274, 88 170.238, 88 167.987 C 88 164.976, 102.538 150.699, 110.218 146.169 L 115.865 142.838 126.606 143.919 C 152.525 146.528, 167.746 144.130, 166.794 137.590 C 166.632 136.478, 165.006 134.564, 163.180 133.337 C 152.972 126.474, 124.272 125.612, 103.460 131.542 C 101.737 132.033, 101.037 131.224, 98.960 126.340 C 97.607 123.160, 96.365 120.250, 96.199 119.876 C 96.033 119.501, 102.108 119.038, 109.699 118.847 C 122.414 118.527, 123.948 118.280, 129.198 115.702 C 135.492 112.611, 138.661 108.552, 140.531 101.188 L 141.651 96.777 143.837 102.773 C 146.288 109.494, 152.202 116.654, 156.025 117.527 C 167.957 120.252, 180.713 83.700, 177.127 57.057 C 176.119 49.568, 176.232 48.134, 178.515 39.345 C 181.388 28.287, 181.628 23.342, 179.443 20.223 C 176.223 15.626, 167.943 18.903, 156.144 29.443 C 152.648 32.566, 149.678 34.982, 149.543 34.811 C 149.408 34.640, 148.025 28.064, 146.470 20.197 C 143.757 6.471, 142.027 1.530, 140.690 3.693 M 167.012 24.492 C 164.077 26.467, 159.122 30.295, 156 33 L 150.324 37.917 150.786 48.293 C 151.318 60.261, 150.449 63, 146.120 63 C 142.585 63, 140.505 60.699, 139.028 55.153 L 137.871 50.806 130.581 58.653 C 117.299 72.950, 118.215 70.972, 119.540 82.500 C 120.374 89.748, 120.389 92.828, 119.595 93.690 C 117.532 95.934, 98.984 105, 96.459 105 C 94.825 105, 93.667 104.274, 93.175 102.943 L 92.414 100.886 90.517 102.981 C 88.649 105.045, 88.660 105.156, 91.239 110.414 L 93.856 115.752 100.178 116.411 C 109.645 117.399, 124.205 115.589, 129.269 112.795 C 135.486 109.365, 138.270 103.677, 138.816 93.291 C 139.338 83.343, 141.077 82.275, 142.957 90.750 C 145.860 103.831, 152.266 115, 156.867 115 C 167.515 115, 178.033 78.451, 174.122 55.037 C 173.173 49.353, 173.300 47.724, 175.173 41.537 C 176.344 37.666, 177.347 31.575, 177.402 28 C 177.497 21.730, 177.409 21.489, 174.924 21.200 C 173.263 21.007, 170.453 22.176, 167.012 24.492 M 122.369 24.127 C 119.681 27.547, 118.760 33.465, 118.269 50.500 L 117.749 68.500 126.124 59.594 C 130.731 54.696, 134.995 49.971, 135.601 49.094 C 136.454 47.859, 135.914 45.529, 133.202 38.744 C 129.207 28.751, 124.125 21.894, 122.369 24.127 M 39.221 29.778 C 37.292 31.099, 71.762 38.041, 79.881 37.967 L 83.500 37.933 81.151 35.976 C 76.582 32.169, 66.382 29.755, 53 29.314 C 46.125 29.088, 39.924 29.297, 39.221 29.778 M 143.086 45.411 L 139.780 48.822 141.445 53.834 C 143.235 59.224, 145.498 61.902, 146.997 60.403 C 148.615 58.785, 148.797 42, 147.196 42 C 146.754 42, 144.905 43.535, 143.086 45.411 M 59.500 45.644 C 46.789 47.634, 32 52.637, 32 54.948 C 32 56.404, 42.600 57.322, 52.214 56.699 C 57.980 56.326, 63.428 56.603, 67.791 57.492 C 71.481 58.243, 76.075 59.003, 77.999 59.179 C 81.208 59.473, 81.591 59.215, 82.608 56.069 C 84.090 51.489, 83.350 49.232, 79.756 47.374 C 76.712 45.800, 64.934 44.794, 59.500 45.644 M 45.800 61.671 L 42.101 62.115 45.622 66.728 C 50.084 72.573, 54.639 81.557, 55.518 86.247 C 56.365 90.758, 54.713 95.981, 51.480 99.019 C 50.125 100.291, 46.018 102.956, 42.353 104.939 C 38.688 106.923, 35.242 109.254, 34.697 110.119 C 33.121 112.618, 34.646 116.394, 39.074 120.957 C 43.559 125.578, 43.134 125.560, 52.742 121.539 C 56.175 120.103, 62.601 118.400, 67.023 117.755 L 75.062 116.584 80.031 110.871 C 82.764 107.729, 85 104.768, 85 104.291 C 85 102.823, 73.445 84.380, 69.540 79.615 L 65.855 75.117 69.804 72.624 C 71.975 71.253, 74.914 68.647, 76.334 66.832 C 78.691 63.821, 78.767 63.447, 77.208 62.555 C 75.438 61.541, 52.311 60.891, 45.800 61.671 M 79.150 67.440 C 77.388 69.894, 74.617 72.849, 72.992 74.005 L 70.039 76.108 73.855 80.936 C 75.954 83.592, 79.831 89.447, 82.470 93.949 L 87.268 102.133 90.556 98.946 C 93.035 96.543, 94.262 94.053, 95.545 88.817 C 98.382 77.240, 96.398 69.834, 89.395 65.855 C 83.488 62.498, 82.601 62.636, 79.150 67.440 M 106.266 85.458 C 97.790 94.939, 94.135 100.468, 95.466 101.799 C 96.405 102.738, 103.361 100.088, 110.728 95.983 L 117.956 91.957 117.345 87.228 C 117.009 84.628, 116.457 80.842, 116.117 78.815 L 115.500 75.129 106.266 85.458 M 82.500 112 L 78.594 116 84.817 116 L 91.041 116 89 112 C 87.878 109.800, 86.835 108, 86.683 108 C 86.530 108, 84.648 109.800, 82.500 112 M 67.541 127.959 C 61.559 133.969, 59.097 137.070, 60.062 137.380 C 60.853 137.634, 64.509 138.373, 68.187 139.022 C 72.084 139.710, 75.545 140.945, 76.484 141.982 C 77.966 143.620, 77.962 143.896, 76.426 145.431 C 75.508 146.349, 71.288 148.844, 67.047 150.977 C 57.623 155.715, 53 160.559, 53 165.697 C 53 171.056, 57.161 177.261, 65.209 183.902 L 72.308 189.761 76.716 186.965 C 85.566 181.353, 95.953 180.569, 137 182.416 C 158.303 183.375, 164.519 182.526, 170.468 177.846 C 173.222 175.680, 176.944 168.898, 176.969 166 C 177 162.508, 156.950 152.025, 150.210 152.010 C 146.247 152.001, 145.484 152.465, 140.210 158.084 C 133.247 165.502, 130.423 167.069, 124.263 166.930 C 121.621 166.871, 115.715 168.002, 111 169.472 C 106.325 170.929, 99.350 172.372, 95.500 172.680 C 89.350 173.170, 88.282 172.995, 86.701 171.237 C 83.700 167.896, 85.482 164.279, 94.455 155.500 C 104.416 145.755, 114.131 139.663, 118.500 140.422 C 126.530 141.817, 153.832 142.240, 158.805 141.047 C 167.134 139.049, 165.207 135.886, 153.500 132.338 C 144.488 129.608, 121.592 129.854, 109.671 132.810 C 104.815 134.015, 100.636 135, 100.383 135 C 100.131 135, 98.302 131.400, 96.319 127 L 92.713 119 84.586 119 L 76.458 119 67.541 127.959" stroke="none" fill="black" fill-rule="evenodd"/>
</svg>