<svg xmlns="http://www.w3.org/2000/svg" width="200" height="200" viewBox="0 0 200 200" version="1.1">
	<path d="M 81 9.057 C 81 9.648, 81.502 11.070, 82.116 12.217 C 83.093 14.043, 83.001 14.214, 81.379 13.592 C 78.045 12.312, 67.310 11.689, 66.663 12.737 C 65.588 14.476, 68.630 23.976, 71.114 26.638 C 74.625 30.400, 80.536 33.097, 86.657 33.728 C 98.192 34.919, 92.009 35.811, 69.245 36.240 C 44.334 36.709, 39.622 37.464, 38.444 41.177 C 37.551 43.991, 41.745 48.093, 49.893 52.374 L 56.510 55.851 62.505 54.427 C 65.802 53.643, 72.550 52.760, 77.500 52.464 L 86.500 51.927 81.218 54.045 C 72.517 57.535, 63.878 63.949, 60.532 69.403 C 56.305 76.291, 56.500 82.597, 61.296 94.122 C 66.674 107.043, 66.642 110.122, 61.103 112.948 C 57.592 114.738, 56.376 114.838, 48.853 113.955 C 39.571 112.866, 30.926 113.530, 26.750 115.653 C 20.262 118.952, 25.201 126.618, 36.668 131.048 C 45.771 134.565, 63.937 134.996, 74.555 131.947 C 80.837 130.144, 85.797 129.574, 98.250 129.228 C 115.750 128.742, 116.248 128.952, 110.703 134.497 C 104.794 140.406, 98.365 141.132, 79.500 138.020 C 63.807 135.432, 57.441 135.434, 53.190 138.026 C 42.683 144.431, 46.608 164.349, 61.319 179.279 C 68.875 186.947, 75.338 190.301, 83.500 190.788 C 88.912 191.111, 90.061 190.805, 95.221 187.663 L 100.943 184.180 107.721 186.534 C 126.362 193.007, 142.487 191.231, 148.750 182.015 C 151.665 177.726, 151.592 174.858, 148.477 171.155 C 143.637 165.403, 131.091 165.001, 117.313 170.156 C 112.198 172.069, 110.969 172.163, 104.087 171.158 C 85.153 168.393, 81.339 164.629, 92.057 159.285 C 94.501 158.066, 99.200 156.333, 102.500 155.432 C 109.761 153.450, 133.729 152.407, 139.778 153.809 C 144.244 154.843, 147 153.593, 147 150.534 C 147 148.003, 143.021 136.479, 141.031 133.250 L 139.029 130 151.765 129.965 C 163.628 129.933, 176.429 128.373, 181.794 126.307 L 184.089 125.423 181.091 121.285 C 177.145 115.836, 168.929 111.996, 153.754 108.507 C 147.294 107.022, 140.544 104.823, 138.754 103.621 C 132.027 99.102, 134.493 90.246, 146.969 74.120 C 150.286 69.831, 153 66.025, 153 65.662 C 153 65.298, 148.613 64.982, 143.250 64.960 C 126.195 64.891, 113.950 61.650, 114.032 57.227 C 114.110 52.966, 115.931 52.342, 130.500 51.590 C 144.790 50.853, 157.311 48.974, 160.962 47.020 C 167.162 43.702, 159.639 38.386, 137 30.084 C 125.489 25.863, 124.526 25.314, 124.832 23.152 C 125.593 17.779, 117.037 13.222, 101.333 10.636 C 87.358 8.334, 81 7.840, 81 9.057 M 85.015 11.769 C 85.024 12.171, 85.361 12.970, 85.765 13.545 C 86.440 14.504, 118.337 24, 120.885 24 C 121.498 24, 122 23.109, 122 22.020 C 122 20.728, 120.655 19.354, 118.128 18.065 C 112.540 15.215, 84.978 9.974, 85.015 11.769 M 70 17.581 C 70 23.922, 77.360 29.652, 87.753 31.403 L 91.006 31.951 89.503 28.476 C 88.676 26.564, 87.278 23.313, 86.395 21.250 C 85.512 19.188, 84.677 17.377, 84.539 17.227 C 84.401 17.078, 81.073 16.342, 77.144 15.594 L 70 14.232 70 17.581 M 89.452 21.417 C 90.303 23.388, 91.701 26.624, 92.559 28.608 L 94.117 32.216 99.809 31.546 C 106.323 30.779, 116.836 28.074, 117.505 26.993 C 117.752 26.592, 112.003 24.597, 104.727 22.558 C 97.452 20.520, 90.691 18.624, 89.702 18.344 C 88.009 17.865, 87.995 18.045, 89.452 21.417 M 118.500 29.504 C 115.834 31.368, 105.503 34, 100.849 34 C 98.797 34, 96.840 34.450, 96.500 35 C 95.737 36.235, 101.094 36.279, 106.255 35.080 C 108.651 34.524, 110.236 34.573, 110.633 35.216 C 111.587 36.759, 109.322 37.705, 102.950 38.426 L 97.145 39.083 99.206 44.041 L 101.267 49 108.739 49 C 115.465 49, 116.576 48.712, 119.856 46.117 C 121.860 44.532, 126.200 41.565, 129.500 39.524 L 135.500 35.814 131.337 36.405 C 129.048 36.730, 126.461 37.270, 125.587 37.605 C 124.573 37.994, 124 37.673, 124 36.715 C 124 35.721, 125.937 34.738, 129.750 33.798 L 135.500 32.381 129.056 30.191 C 121.610 27.660, 121.177 27.631, 118.500 29.504 M 138.885 36.803 C 137.573 37.795, 133.012 40.752, 128.750 43.374 C 124.487 45.997, 121 48.405, 121 48.725 C 121 49.046, 126.603 49.025, 133.450 48.678 C 146.119 48.036, 160 45.563, 160 43.948 C 160 43.022, 144.143 35, 142.312 35 C 141.739 35, 140.197 35.811, 138.885 36.803 M 45.739 39.959 C 43.670 40.361, 41.681 40.986, 41.318 41.348 C 40.184 42.483, 44.927 46.683, 50.995 49.917 L 56.817 53.020 63.158 51.446 C 66.646 50.580, 75.912 49.613, 83.750 49.298 C 91.588 48.982, 98 48.599, 98 48.445 C 98 48.291, 97.116 46.104, 96.036 43.583 L 94.071 39 71.786 39.115 C 59.528 39.178, 47.808 39.558, 45.739 39.959 M 92 51.880 C 95.025 52.233, 98.121 52.916, 98.880 53.400 C 99.849 54.017, 100.123 53.866, 99.800 52.889 C 99.478 51.915, 97.424 51.461, 92.921 51.370 L 86.500 51.240 92 51.880 M 103.012 53.532 C 103.564 54.983, 105.149 58.105, 106.536 60.471 C 107.922 62.837, 109.683 67.861, 110.448 71.636 C 111.213 75.411, 113.226 83.836, 114.920 90.357 C 116.614 96.878, 118 103.023, 118 104.013 C 118 105.003, 121.120 108.824, 124.933 112.505 C 128.746 116.186, 133.115 121.002, 134.643 123.206 L 137.421 127.214 154.960 126.727 C 164.607 126.460, 174.234 125.702, 176.353 125.045 L 180.207 123.849 177.909 121.403 C 174.209 117.465, 166.414 114.293, 152.228 110.951 C 140.805 108.260, 138.471 107.367, 135.478 104.544 C 132.662 101.888, 132.002 100.525, 132.010 97.382 C 132.022 92.396, 135.325 85.444, 142.218 75.893 L 147.708 68.286 137.604 67.661 C 119.723 66.554, 110.293 62.738, 111.273 57.003 C 111.509 55.626, 111.881 53.825, 112.101 53 C 112.412 51.832, 111.338 51.433, 107.255 51.198 L 102.010 50.896 103.012 53.532 M 80.976 57.320 C 74.384 60.032, 66.924 65.010, 64.133 68.558 C 58.921 75.184, 59.015 81.319, 64.534 94.650 C 68.718 104.758, 69.008 109.820, 65.590 113.110 C 61.691 116.863, 57.814 117.666, 48.450 116.662 C 29.158 114.594, 20.405 119.096, 31.367 125.448 C 42.343 131.808, 61.482 133.352, 75.500 129.008 C 81.024 127.296, 86.033 126.721, 99.250 126.281 L 116 125.723 116 116.921 C 116 107.841, 114.968 105.254, 112.930 109.222 C 112.287 110.475, 110.376 112.963, 108.684 114.750 C 105.009 118.633, 99.751 119.165, 95.796 116.054 C 92.513 113.472, 87.409 102.191, 88.864 100.736 C 90.797 98.803, 100.599 98.639, 106.127 100.447 C 112.387 102.494, 113.342 101.673, 112.464 95 C 111.343 86.482, 108.814 81.714, 107.388 85.430 C 107.087 86.217, 105.487 87.332, 103.834 87.908 C 99.627 89.375, 95.588 87.455, 89.797 81.237 C 84.417 75.460, 77.532 65.134, 78.449 64.218 C 79.436 63.231, 89.698 65.715, 95.378 68.316 C 98.245 69.628, 102.258 72.166, 104.296 73.955 C 106.333 75.744, 108 76.756, 108 76.205 C 108 75.654, 106.581 71.309, 104.847 66.548 C 102.360 59.722, 101.103 57.588, 98.897 56.447 C 94.832 54.344, 87.319 54.711, 80.976 57.320 M 83.011 67.683 C 83.029 69.129, 91.886 80.360, 94.818 82.654 C 99.201 86.085, 102.454 86.546, 104.913 84.087 C 106.061 82.939, 107 81.588, 107 81.085 C 107 79.162, 97.567 71.982, 92.647 70.161 C 84.799 67.255, 82.999 66.792, 83.011 67.683 M 92 103.540 C 92 106.257, 95.945 112.918, 98.575 114.641 C 100.893 116.160, 101.416 116.172, 104.338 114.778 C 106.106 113.935, 108.440 111.598, 109.524 109.585 C 111.245 106.390, 111.305 105.802, 109.998 104.966 C 105.159 101.869, 92 100.826, 92 103.540 M 118.829 118.401 L 118.500 125.824 122 126.401 C 123.925 126.718, 127.442 126.983, 129.816 126.989 L 134.133 127 129.353 120.916 C 126.724 117.570, 123.355 113.965, 121.866 112.905 L 119.159 110.977 118.829 118.401 M 116.569 130.782 C 115.454 134.294, 111.984 137.966, 107.655 140.213 C 102.193 143.048, 91.007 143.024, 74.066 140.139 C 59.879 137.724, 55.532 138.242, 51.957 142.774 C 50.162 145.050, 49.870 146.507, 50.191 151.598 C 50.726 160.091, 55.525 169.495, 63.367 177.419 C 70.779 184.907, 76.924 188, 84.389 188 C 88.917 188, 90.649 187.428, 95.010 184.493 L 100.222 180.986 109.361 184.170 C 125.602 189.828, 141.494 188.280, 146.563 180.545 C 148.723 177.247, 148.063 174.119, 144.673 171.600 C 140.460 168.470, 130.870 168.748, 119.937 172.318 L 111.374 175.114 102.154 173.630 C 91.878 171.976, 84.415 168.883, 83.463 165.884 C 81.909 160.987, 89.654 155.763, 103.500 152.369 C 110.948 150.544, 134.523 149.839, 140.878 151.251 L 144.256 152.001 143.617 148.003 C 142.940 143.770, 139.145 134.659, 136.862 131.786 C 135.839 130.498, 133.224 129.905, 126.360 129.401 C 117.720 128.766, 117.185 128.842, 116.569 130.782" stroke="none" fill="black" fill-rule="evenodd"/>
</svg>