<svg xmlns="http://www.w3.org/2000/svg" width="200" height="200" viewBox="0 0 200 200" version="1.1">
	<path d="M 119 9.039 C 110.475 9.438, 93.238 10.096, 80.695 10.501 C 58.325 11.224, 57.861 11.282, 56.370 13.559 C 54.999 15.651, 55.016 16.231, 56.543 19.450 C 58.572 23.725, 63.867 28.104, 71.009 31.413 L 76.248 33.840 71.553 34.544 C 68.971 34.932, 59.006 35.054, 49.410 34.816 C 37.407 34.519, 32.070 34.714, 32.310 35.442 C 33.055 37.698, 47.519 38.309, 72.500 37.139 C 104.818 35.627, 110.277 35.643, 109.781 37.250 C 109.568 37.938, 105.818 40.427, 101.447 42.783 L 93.500 47.066 65.750 46.424 C 47.888 46.010, 38 46.130, 38 46.760 C 38 48.146, 44.067 48.976, 54.285 48.989 L 63.070 49 59.476 52.155 C 54.668 56.376, 52.152 61.613, 50.357 71.130 C 48.908 78.811, 48.927 79.146, 51.003 82.505 C 54.346 87.914, 60.887 92.911, 66.918 94.665 C 79.217 98.240, 97.715 94.356, 108.975 85.834 C 114.187 81.889, 114.518 81.784, 117.943 82.980 C 121.904 84.363, 131 89.849, 131 90.854 C 131 91.209, 126.837 91.554, 121.750 91.619 C 115.050 91.706, 107.950 92.762, 96 95.452 C 75.961 99.962, 64.440 100.825, 54 98.600 C 45.095 96.702, 43.678 96.661, 36.944 98.105 C 31.737 99.222, 28 101.844, 28 104.381 C 28 109.217, 42.606 116.709, 62.413 122.033 C 80.463 126.885, 92 127.246, 92 122.958 C 92 121.351, 95.469 119.275, 109.482 112.495 C 121.555 106.653, 128.163 102.837, 130.837 100.163 C 134.511 96.489, 134.844 96.362, 137.354 97.678 C 138.809 98.440, 140 99.678, 140 100.428 C 140 102.238, 133.554 107.837, 130.732 108.478 C 129.504 108.757, 126.257 109.464, 123.516 110.049 C 117.719 111.287, 115 113.380, 115 116.604 C 115 121.248, 126.681 127.240, 138.425 128.620 C 143.090 129.168, 144 129.598, 144 131.251 C 144 132.934, 143.519 133.140, 140.750 132.638 C 138.963 132.314, 130.975 131.784, 123 131.461 C 107.397 130.827, 103.786 131.576, 103.208 135.568 C 102.925 137.520, 103.700 138.717, 112.674 150.172 C 120.270 159.869, 119.197 164.092, 108.264 167.530 L 102.657 169.294 99.670 165.397 C 98.027 163.254, 92.928 157.818, 88.338 153.318 C 74.560 139.808, 61.292 134.617, 55.455 140.455 C 53.501 142.408, 53 143.933, 53 147.926 C 53 153.795, 57.244 166.167, 62.450 175.478 L 65.980 181.788 74.740 183.396 C 86.498 185.554, 97.007 185.418, 114.170 182.885 C 125.702 181.183, 131.484 180.866, 143.783 181.264 C 158.177 181.728, 159.252 181.632, 162.283 179.615 C 164.052 178.437, 166.325 175.792, 167.333 173.736 C 169.655 169, 168.705 163.904, 162.999 150.498 C 158.991 141.081, 158.033 135.367, 160.112 133.288 C 160.873 132.527, 160.924 131.278, 160.272 129.337 C 159.401 126.746, 159.694 126.168, 163.655 122.669 C 171.841 115.437, 172.963 103.388, 167.051 86.185 L 164.193 77.869 166.548 76.796 C 170.873 74.825, 172.497 69.637, 172.433 58 C 172.318 37.307, 164.515 13.885, 156.934 11.479 C 151.792 9.847, 146.838 20.675, 145.383 36.727 C 145.009 40.861, 144.374 43.612, 143.969 42.861 C 142.876 40.840, 139 16.841, 139 12.100 C 139 8.468, 138.743 8.018, 136.750 8.158 C 135.512 8.244, 127.525 8.641, 119 9.039 M 104 12.510 C 89.975 13.150, 78.950 13.747, 79.500 13.837 C 80.050 13.927, 85.911 14.883, 92.523 15.962 C 99.136 17.041, 106.942 18.438, 109.869 19.065 L 115.192 20.207 112.138 23.357 L 109.085 26.507 116.293 30.391 C 127.707 36.542, 131.286 40.858, 127.546 43.961 C 125.053 46.031, 116.976 47.990, 108.140 48.669 L 99.656 49.322 105.021 51.689 C 111.876 54.715, 116.603 58.331, 118.501 62.002 C 120.416 65.705, 120.433 73.046, 118.532 75.559 C 116.217 78.619, 116.697 79.612, 121.349 81.389 C 126.235 83.255, 133.587 89.123, 134.452 91.847 C 135.085 93.844, 141.646 97.381, 142.413 96.140 C 142.682 95.705, 142.977 86.903, 143.067 76.579 C 143.221 59.064, 142.974 56.247, 139.366 34.408 L 135.500 11.006 132.500 11.176 C 130.850 11.269, 118.025 11.869, 104 12.510 M 58.333 15.574 C 57.321 18.212, 63.264 24.288, 70.488 28 C 76.807 31.247, 77.958 31.500, 86.432 31.500 C 93.325 31.500, 96.620 31.024, 99.866 29.560 L 104.167 27.621 99.663 25.332 C 90.305 20.576, 79.580 16.924, 72.171 15.972 C 67.952 15.429, 63.245 14.771, 61.712 14.510 C 59.800 14.184, 58.738 14.519, 58.333 15.574 M 152.555 17.526 C 148.585 25.891, 145.608 53.615, 147.082 68.500 C 147.554 73.275, 147.425 81.342, 146.762 88.512 L 145.650 100.524 149.148 105.107 C 151.073 107.628, 153.951 112.685, 155.546 116.345 C 157.140 120.005, 158.743 123, 159.106 123 C 159.470 123, 161.362 121.235, 163.311 119.078 C 169.347 112.397, 169.572 101.960, 164.017 86.346 C 159.376 73.302, 159.520 74.062, 161.799 74.658 C 164.948 75.481, 167.822 73.303, 168.951 69.238 C 172.430 56.710, 166.199 24.163, 158.816 16.304 C 155.847 13.144, 154.510 13.404, 152.555 17.526 M 99.776 22.094 C 104.831 24.597, 106.337 24.965, 107.515 23.987 C 109.675 22.195, 108.585 21.312, 103.262 20.544 C 100.643 20.166, 97.375 19.661, 96 19.421 C 94.625 19.182, 96.324 20.384, 99.776 22.094 M 102.500 31.068 L 99.500 32.989 104.527 32.995 C 110.822 33.001, 114.496 35.205, 112.968 38.059 C 112.397 39.126, 109.583 41.345, 106.715 42.990 L 101.500 45.981 105.918 45.991 C 111.905 46.003, 122.498 44.088, 124.488 42.633 C 125.452 41.928, 125.850 40.772, 125.469 39.781 C 124.876 38.234, 108.219 28.910, 106.341 29.073 C 105.879 29.113, 104.150 30.011, 102.500 31.068 M 79.099 51.653 C 81.520 53.019, 85.021 55.569, 86.880 57.319 C 90.923 61.124, 96 68.749, 96 71.016 C 96 72.191, 98.412 73.364, 104.724 75.256 C 114.580 78.212, 115.388 77.987, 117.047 71.825 C 117.925 68.564, 117.797 67.245, 116.304 64.191 C 112.617 56.648, 98.818 50.614, 83.099 49.672 L 74.698 49.168 79.099 51.653 M 65.542 51.732 C 62.156 52.587, 59.360 54.916, 57.441 58.479 C 56.422 60.372, 55.793 62.122, 56.044 62.367 C 57.126 63.426, 93 71.611, 93 70.799 C 93 67.272, 83.414 56.785, 77.407 53.741 C 73.970 51.999, 68.292 51.038, 65.542 51.732 M 53.680 68.250 C 51.597 76.985, 51.768 79.570, 54.663 83.070 C 58.965 88.272, 61.042 89.776, 66.500 91.642 C 72.449 93.677, 81.412 93.840, 89 92.052 C 95.172 90.597, 106.954 84.813, 109.519 81.979 C 111.134 80.194, 110.918 80.033, 104.142 77.974 C 97.627 75.996, 96.906 75.952, 94.818 77.415 C 89.776 80.946, 79.968 78.875, 64.542 71.021 C 59.117 68.260, 54.575 66, 54.448 66 C 54.321 66, 53.975 67.013, 53.680 68.250 M 66 68.445 C 66 69.413, 77.129 74.046, 83.267 75.633 C 88.660 77.028, 93 76.807, 93 75.139 C 93 74.739, 87.713 73.155, 81.250 71.619 C 74.787 70.082, 68.713 68.609, 67.750 68.345 C 66.787 68.081, 66 68.126, 66 68.445 M 107 95.939 C 102.325 96.982, 94 98.830, 88.500 100.046 C 76.207 102.762, 59.192 103.128, 51 100.851 C 46.325 99.552, 44.564 99.514, 39.259 100.597 C 32.079 102.062, 31 102.578, 31 104.545 C 31 109.729, 62.970 121.352, 80.919 122.692 C 88.604 123.266, 89.280 123.171, 88.679 121.605 C 88.134 120.186, 91.166 118.359, 106.260 111.011 C 124.052 102.351, 132.335 97.044, 130.683 95.364 C 129.058 93.710, 115.513 94.039, 107 95.939 M 138.956 106.148 C 136.813 108.355, 133.751 110.232, 131.206 110.898 C 128.893 111.504, 125.176 112.475, 122.947 113.056 C 120.718 113.637, 118.617 114.834, 118.279 115.716 C 116.937 119.213, 127.804 124.608, 138.390 125.701 L 144 126.280 143.912 118.890 C 143.864 114.825, 143.527 109.475, 143.162 107 L 142.500 102.500 138.956 106.148 M 146.039 109 C 146.025 110.925, 146.306 115.587, 146.662 119.361 L 147.310 126.222 151.238 125.695 C 153.398 125.405, 155.386 124.947, 155.656 124.677 C 156.266 124.067, 149.816 110.226, 147.652 107.500 C 146.122 105.573, 146.063 105.629, 146.039 109 M 151.750 128.406 C 147.177 129.301, 147 129.464, 147 132.796 L 147 136.258 142.250 135.647 C 120.521 132.853, 106.817 132.993, 106.236 136.015 C 106.080 136.832, 108.720 140.875, 112.104 145 C 121.486 156.437, 122.565 160.447, 117.693 165.769 C 115.870 167.760, 104.787 172.045, 101.645 171.974 C 101.015 171.960, 98.970 169.693, 97.100 166.937 C 88.664 154.503, 70.413 141, 62.040 141 C 57.220 141, 56 142.448, 56 148.165 C 56 153.940, 57.900 159.855, 63.241 170.702 L 67.279 178.903 74.087 180.452 C 83.528 182.599, 99.227 182.390, 115.651 179.899 C 126.852 178.200, 132.332 177.900, 144.316 178.327 L 159.131 178.854 162.316 176.009 C 167.068 171.763, 166.728 166.593, 160.732 151.914 C 155.822 139.893, 155.235 136.772, 157.111 132.656 C 158.946 128.628, 157.298 127.322, 151.750 128.406" stroke="none" fill="black" fill-rule="evenodd"/>
</svg>