<svg xmlns="http://www.w3.org/2000/svg" width="200" height="200" viewBox="0 0 200 200" version="1.1">
	<path d="M 144.522 13.250 C 138.867 25.063, 129 50.321, 129 52.984 C 129 53.543, 128.550 54, 128 54 C 127.450 54, 127 53.169, 127 52.152 C 127 51.136, 125.182 41.871, 122.961 31.563 C 120.739 21.256, 119.203 11.936, 119.547 10.852 C 120.151 8.950, 119.797 8.903, 109.336 9.486 C 103.376 9.818, 86.800 10.739, 72.500 11.532 C 44.196 13.100, 44 13.152, 44 19.114 C 44 27.809, 66.150 37.358, 82 35.497 C 90.142 34.542, 92 33.945, 92 32.285 C 92 31.283, 91.434 31.003, 90.296 31.440 C 86.641 32.843, 73.302 33.211, 67.781 32.061 C 59.734 30.387, 50.221 25.412, 47.963 21.698 C 46.940 20.017, 46.349 18.245, 46.648 17.760 C 47.413 16.523, 62.491 17.853, 68.500 19.687 C 75.038 21.683, 98 32.740, 98 33.893 C 98 36.098, 92.524 36.500, 62.500 36.503 C 33.759 36.505, 30.169 36.686, 27.250 38.279 C 22.521 40.858, 22.873 44.136, 28.481 49.745 C 32.210 53.473, 33.397 54.117, 35.548 53.577 C 39.871 52.492, 52.254 51.056, 56.500 51.148 C 60.324 51.230, 60.268 51.273, 55.217 52.113 C 52.311 52.597, 48.261 53.847, 46.217 54.890 C 34.944 60.643, 35.533 67.878, 48.950 88.500 C 58.740 103.547, 58.538 104.092, 42.827 105.082 C 25.940 106.145, 17.478 109.871, 19.570 115.322 C 20.561 117.904, 30.441 120.977, 41.705 122.207 C 59.885 124.192, 77.141 121.027, 86.977 113.902 L 91.164 110.869 99.985 114.440 C 104.836 116.404, 110.233 118.297, 111.977 118.645 L 115.149 119.280 114.501 124.390 C 110.419 156.564, 108.940 160.249, 101.526 156.714 C 95.093 153.646, 91.324 149.209, 86.149 138.614 C 81.360 128.809, 76.675 123, 73.558 123 C 70.530 123, 66.972 127.670, 59.474 141.486 C 50.676 157.697, 43.485 167.192, 37.121 171 C 29.038 175.837, 29.138 175.706, 32.500 177.049 C 38.721 179.533, 46.733 178.461, 62.999 172.968 C 81.002 166.888, 85.930 166.642, 91.072 171.569 C 94.173 174.540, 97.158 182.525, 98.430 191.250 C 98.833 194.013, 99.645 196, 100.372 196 C 101.059 196, 102.442 193.260, 103.445 189.912 C 105.654 182.538, 110.316 175.346, 114.862 172.301 C 122.416 167.240, 130.477 168.190, 147.256 176.121 C 157.228 180.834, 158.291 181.137, 159.749 179.679 C 162.015 177.414, 160.463 172.824, 151.237 154.500 C 144.088 140.302, 143.158 138.971, 133.842 129.604 C 128.429 124.161, 124 119.548, 124 119.354 C 124 119.159, 125.037 119, 126.304 119 C 130.246 119, 137.398 113.580, 143.811 105.732 C 155.008 92.029, 162.112 87.338, 174.375 85.550 L 179.250 84.840 178.630 80.314 C 177.642 73.106, 174.407 68.531, 166.368 62.974 C 162.376 60.214, 157.781 56.344, 156.157 54.375 C 150.136 47.069, 148.557 33.158, 151.518 13.500 C 152.347 8, 153.275 2.712, 153.580 1.750 C 153.954 0.571, 153.602 -0, 152.500 -0 C 151.389 -0, 148.835 4.241, 144.522 13.250 M 144.158 20.256 C 139.625 30.592, 136.574 38.491, 132.477 50.500 C 130.331 56.789, 129.595 61.280, 129.034 71.500 C 128.314 84.617, 126.424 91.664, 122.447 96.059 C 120.711 97.977, 118.332 112.817, 119.340 115.443 C 119.919 116.952, 120.731 117.140, 124.267 116.581 C 130.342 115.621, 134.871 112.233, 142.855 102.674 C 153.547 89.873, 161.087 84.772, 171.409 83.357 C 176.750 82.625, 177.175 81.185, 174.068 74.341 C 172.633 71.182, 170.380 68.968, 164.697 65.133 C 155.991 59.258, 151.681 54.421, 149.481 48.056 C 147.282 41.691, 146.575 28.953, 147.902 19.595 C 148.519 15.247, 148.850 11.516, 148.638 11.305 C 148.426 11.093, 146.410 15.121, 144.158 20.256 M 86.329 13.403 C 75.235 14.006, 65.903 14.757, 65.591 15.072 C 65.279 15.386, 71.005 16.379, 78.316 17.278 C 92.483 19.020, 95 19.617, 95 21.236 C 95 22.212, 89.910 21.878, 81 20.317 C 78.664 19.908, 81.659 21.843, 90.010 26.139 C 96.890 29.678, 105.106 34.291, 108.266 36.389 C 120.086 44.234, 115.782 49.819, 97.809 49.956 C 94.679 49.980, 91.876 50.392, 91.579 50.872 C 91.283 51.351, 93.043 52.509, 95.492 53.444 C 97.940 54.379, 101.128 56.551, 102.575 58.272 C 106.554 63, 105.774 70.785, 100.213 81.850 L 96.016 90.200 100.684 95.664 C 105.818 101.673, 106.211 101.741, 114.565 98.065 C 118.560 96.307, 118.653 96.149, 119.945 88.888 C 120.668 84.825, 122.310 77.149, 123.594 71.832 C 125.831 62.572, 125.869 61.792, 124.499 53.332 C 123.712 48.474, 121.703 38.489, 120.034 31.143 C 118.365 23.796, 117 16.484, 117 14.893 C 117 11.505, 119.234 11.614, 86.329 13.403 M 98.149 41.066 C 96.417 43.853, 95 46.328, 95 46.566 C 95 47.420, 105.572 46.969, 109.205 45.960 C 111.873 45.219, 112.749 44.511, 112.335 43.431 C 111.724 41.839, 103.775 36, 102.219 36 C 101.713 36, 99.882 38.280, 98.149 41.066 M 90.500 39.212 C 87.750 39.674, 75.297 39.759, 62.827 39.401 C 39.196 38.723, 30.447 39.221, 27.444 41.417 C 25.793 42.625, 25.949 43.023, 29.613 46.950 L 33.560 51.183 39.530 50 C 42.814 49.350, 54.725 48.611, 66 48.358 C 77.275 48.106, 87.512 47.688, 88.748 47.431 C 90.730 47.018, 96.921 39.426, 95.896 38.665 C 95.678 38.503, 93.250 38.749, 90.500 39.212 M 77.250 50.728 C 79.313 50.944, 82.688 50.944, 84.750 50.728 C 86.813 50.513, 85.125 50.336, 81 50.336 C 76.875 50.336, 75.188 50.513, 77.250 50.728 M 56.500 54.692 C 49.219 56.366, 46.744 57.344, 44.045 59.615 C 38.637 64.166, 40.280 70.130, 51.855 87.971 C 56.601 95.286, 58 98.295, 58 101.186 C 58 106.183, 55.743 107.289, 45 107.555 C 33.602 107.837, 22 110.836, 22 113.500 C 22 118.437, 56.745 121.708, 71 118.113 C 78.365 116.256, 85.336 112.659, 87.907 109.391 L 90.012 106.715 98.756 110.771 C 103.565 113.002, 109.276 115.158, 111.448 115.562 L 115.395 116.297 110.135 110.249 L 104.875 104.201 99.130 104.722 C 94.579 105.135, 93.034 104.891, 91.693 103.550 C 89.644 101.501, 89.531 98.057, 91.370 93.657 C 92.729 90.403, 92.694 90.323, 86.594 82.883 C 83.214 78.760, 79.511 74.100, 78.364 72.526 L 76.280 69.664 73.236 71.832 C 67.369 76.009, 64.257 73.556, 67.915 67.638 C 71.213 62.301, 72.687 61.407, 74.892 63.402 C 76.654 64.997, 76.952 64.835, 80.873 60.151 C 83.143 57.440, 85 54.947, 85 54.611 C 85 53.916, 59.560 53.988, 56.500 54.692 M 83.304 61.446 L 78.107 67.848 85.722 77.424 C 89.910 82.691, 93.640 87, 94.011 87 C 94.381 87, 96.364 83.421, 98.417 79.047 C 104.457 66.175, 103.587 59.877, 95.282 56.362 C 90.073 54.157, 88.770 54.710, 83.304 61.446 M 70.592 68.500 C 69.691 69.875, 69.345 71, 69.822 71 C 70.807 71, 74 67.692, 74 66.671 C 74 65.155, 72.124 66.162, 70.592 68.500 M 124.105 81.871 C 123.421 85.349, 123.077 88.411, 123.341 88.675 C 124.054 89.387, 126.333 78.498, 125.803 76.910 C 125.554 76.161, 124.789 78.393, 124.105 81.871 M 93.641 95.210 C 93.303 96.470, 93.021 98.513, 93.014 99.750 C 93.001 101.757, 93.493 102, 97.568 102 L 102.136 102 100.176 99.250 C 99.098 97.737, 97.324 95.695, 96.235 94.710 C 94.319 92.979, 94.234 92.995, 93.641 95.210 M 112.078 101.959 L 107.657 103.710 111.740 108.087 L 115.822 112.463 116.469 108.482 C 116.824 106.292, 117.323 103.487, 117.577 102.250 C 118.112 99.642, 117.950 99.633, 112.078 101.959 M 117.603 122.250 C 117.364 123.487, 116.459 129.900, 115.591 136.500 C 113.612 151.554, 112.472 155.619, 109.351 158.739 C 106.024 162.067, 102.234 161.267, 95.015 155.714 C 90.280 152.071, 88.793 150.030, 84.500 141.270 C 79.590 131.253, 75.800 126, 73.481 126 C 71.486 126, 69.411 129.021, 61.562 143.351 C 53.064 158.864, 46.711 167.542, 40.911 171.562 C 38.760 173.052, 37 174.723, 37 175.274 C 37 177.179, 48.380 174.981, 61.500 170.541 C 68.650 168.121, 75.972 165.846, 77.772 165.486 C 82.947 164.451, 88.836 165.917, 92.532 169.162 C 95.826 172.055, 100 180.927, 100 185.038 C 100 188.259, 101.386 187.271, 103.260 182.712 C 106.924 173.799, 114.089 167.809, 122.740 166.426 C 128.158 165.559, 136.657 167.925, 148.016 173.461 C 156 177.352, 157.555 177.820, 157.846 176.422 C 158.358 173.970, 142.755 143.232, 138.344 138 C 133.731 132.530, 120.239 120, 118.960 120 C 118.453 120, 117.842 121.013, 117.603 122.250" stroke="none" fill="black" fill-rule="evenodd"/>
</svg>