<svg xmlns="http://www.w3.org/2000/svg" width="200" height="200" viewBox="0 0 200 200" version="1.1">
	<path d="M 103.532 1.611 C 102.646 2.497, 100.837 5.362, 99.511 7.977 L 97.101 12.733 91.801 11.298 C 84.256 9.254, 70.868 8.465, 68.177 9.905 C 65.616 11.276, 65.347 14.622, 67.544 17.760 C 69.671 20.796, 77.346 25.935, 83.976 28.763 C 89.096 30.947, 89.219 31.074, 85.662 30.498 C 78.058 29.267, 61.348 29.757, 55.784 31.374 C 42.681 35.184, 41.191 44.797, 53.197 48.066 C 58.696 49.563, 71.101 48.668, 80.962 46.062 C 85.066 44.978, 88.529 44.196, 88.658 44.324 C 89.346 45.013, 87.003 46.983, 83.205 48.909 C 74.469 53.338, 65.291 64.113, 61.017 74.957 C 58.567 81.172, 58.382 87.422, 60.595 89.211 C 67.392 94.705, 68.548 97.632, 65.324 101.194 C 62.599 104.206, 54.531 105.922, 36.130 107.404 C 26.053 108.216, 18.318 109.290, 17.650 109.970 C 15.349 112.309, 21.561 115.690, 37.682 120.870 C 51.139 125.195, 54.060 125.824, 57.250 125.082 C 61.358 124.127, 61.936 124.569, 59.250 126.608 C 57.144 128.207, 50.626 128.406, 47.914 126.954 C 46.838 126.378, 45.500 126.191, 44.939 126.538 C 44.377 126.885, 48.469 130.521, 54.031 134.619 C 59.593 138.717, 63.999 142.471, 63.822 142.960 C 63.645 143.450, 60.575 145.347, 57 147.175 C 51.317 150.082, 50.154 151.182, 47.750 155.929 C 45.467 160.437, 45 162.650, 45 168.966 L 45 176.573 50.124 180.399 C 58.034 186.304, 65.528 189.372, 73 189.765 C 80.705 190.169, 84.831 188.412, 89.293 182.825 C 96.609 173.666, 92.083 161.356, 82.711 164.920 C 81.220 165.487, 80 165.717, 80 165.433 C 80 162.904, 98.353 142, 100.573 142 C 102.096 142, 102.540 143.950, 104.539 159.446 C 107.312 180.944, 113.442 189.323, 127.378 190.664 C 133.616 191.264, 151.866 187.844, 156.346 185.235 C 163.332 181.167, 160.324 177.396, 144 169.758 C 133.361 164.780, 130.051 162.032, 132.375 160.104 C 133.564 159.117, 144.981 156.066, 153.750 154.392 C 154.988 154.155, 156 153.408, 156 152.731 C 156 151.843, 153.372 151.500, 146.583 151.500 C 141.404 151.500, 136.840 151.173, 136.441 150.774 C 135.312 149.645, 137.602 147.445, 146.112 141.482 C 150.434 138.454, 154.722 134.828, 155.642 133.423 C 157.239 130.987, 157.215 130.771, 155.124 128.685 C 152.978 126.545, 152.366 126.500, 125.716 126.500 C 98.552 126.500, 98.491 126.495, 94 124 L 89.500 121.500 108.435 121.227 C 118.850 121.077, 138.200 121.362, 151.435 121.860 C 178.148 122.865, 177.341 123.030, 178.602 116.310 C 180.193 107.825, 174.875 103.791, 155.178 98.547 C 140.499 94.639, 138.755 93.926, 134.750 90.191 C 132.517 88.108, 132.004 86.768, 132.022 83.063 C 132.045 78.336, 134.404 72.051, 138.107 66.850 C 139.533 64.847, 139.913 63.513, 139.246 62.846 C 138.019 61.619, 135.015 65.621, 131.505 73.161 C 128.096 80.484, 128.139 86.823, 131.626 90.967 C 135.318 95.355, 139.699 97.324, 154.008 101.025 C 172.355 105.771, 176.021 108.049, 175.985 114.684 C 175.955 120.201, 176.761 120.087, 145.942 118.929 C 130.299 118.341, 110.842 118.004, 102.705 118.180 C 88.060 118.497, 87.904 118.477, 87.345 116.243 C 86.221 111.755, 87.930 107.216, 92.078 103.665 C 96.869 99.564, 103.170 97.625, 111.706 97.625 C 115.857 97.625, 118 97.225, 118 96.451 C 118 95.806, 114.513 93.821, 110.250 92.040 C 105.987 90.260, 100.025 87.306, 97 85.476 C 90.975 81.830, 85.257 76.409, 86.319 75.348 C 88.185 73.482, 100.782 75.616, 113.250 79.911 C 116.412 81.001, 119 81.545, 119 81.121 C 119 78.941, 113.698 65.216, 111.107 60.690 C 106.393 52.455, 99.687 47, 94.277 47 C 91.928 47, 91 46.543, 91 45.387 C 91 44.118, 91.696 43.892, 94.250 44.330 C 96.037 44.637, 101.639 45.432, 106.698 46.098 C 115.380 47.240, 115.914 47.448, 116.198 49.805 C 116.512 52.398, 119.862 55.362, 123.750 56.485 C 127.339 57.521, 126.513 54.587, 122.750 52.930 C 120.708 52.032, 119.381 50.664, 119.180 49.250 C 118.875 47.097, 119.169 47, 125.989 47 C 139.962 47, 155.623 43.284, 159.444 39.062 C 162.982 35.153, 158.628 31.637, 147 29.013 C 139.449 27.310, 122 20.851, 122 19.759 C 122 17.800, 115.107 4.107, 113.121 2.121 C 110.598 -0.402, 105.801 -0.658, 103.532 1.611 M 105.243 3.250 C 103.877 4.955, 99.783 13.148, 100.180 13.382 C 100.883 13.796, 117.665 19, 118.297 19 C 119.237 19, 114.527 8.549, 111.966 4.952 C 109.760 1.854, 106.935 1.139, 105.243 3.250 M 70.135 12.043 C 67.949 12.946, 67.880 13.191, 69.226 15.260 C 71.395 18.596, 80.749 24.734, 87 26.922 L 92.500 28.847 94.246 22.674 C 95.206 19.278, 95.994 16.199, 95.996 15.830 C 96.001 15.021, 84.441 12.390, 77.500 11.620 C 74.750 11.315, 71.436 11.505, 70.135 12.043 M 97.205 22.166 C 96.121 25.746, 95.660 28.913, 96.144 29.450 C 96.615 29.973, 100.713 30.383, 105.250 30.362 C 117.004 30.308, 124.204 26.780, 119.750 23.256 C 119.063 22.712, 114.675 21.016, 110 19.487 C 105.325 17.958, 100.965 16.510, 100.310 16.270 C 99.577 16, 98.386 18.262, 97.205 22.166 M 124.236 26.586 C 124.413 28.717, 124.803 28.940, 127.479 28.438 C 131.202 27.739, 136 29.421, 136 31.425 C 136 32.237, 134.088 34.473, 131.750 36.395 C 129.412 38.316, 126.375 40.843, 125 42.010 L 122.500 44.132 132.500 43.610 C 143.156 43.054, 151.518 41.201, 155.678 38.475 C 159.413 36.028, 157.345 34.556, 146 31.583 C 140.775 30.214, 133.696 27.984, 130.268 26.628 L 124.036 24.163 124.236 26.586 M 114.500 32.618 C 109 33.395, 102.025 34.361, 99 34.765 C 94.035 35.429, 93.470 35.755, 93.196 38.118 C 92.923 40.475, 93.356 40.852, 97.543 41.907 C 100.101 42.551, 105.679 43.346, 109.939 43.675 L 117.684 44.272 125.342 38.063 C 129.554 34.649, 133 31.662, 133 31.427 C 133 30.648, 124.637 31.187, 114.500 32.618 M 60.859 32.953 C 54.890 34.046, 49.200 36.757, 47.943 39.107 C 46.595 41.625, 49.721 44.669, 54.588 45.583 C 59.983 46.595, 73.461 45.367, 81.341 43.146 C 88.997 40.988, 89.591 40.583, 90.503 36.890 C 91.101 34.463, 90.860 34.233, 87.084 33.629 C 79.723 32.452, 65.583 32.088, 60.859 32.953 M 88.106 58.489 C 86.848 63.709, 85.582 68.884, 85.293 69.989 C 84.814 71.819, 85.250 72, 90.133 72.003 C 93.085 72.004, 99.729 73.138, 104.897 74.522 C 110.065 75.907, 114.484 76.850, 114.716 76.617 C 114.949 76.385, 113.717 72.779, 111.979 68.605 C 107.054 56.773, 98.958 49.045, 91.447 49.006 C 90.868 49.003, 89.364 53.270, 88.106 58.489 M 81.977 52.800 C 73.413 58.231, 64.930 70.117, 62.089 80.668 C 60.810 85.421, 61.361 87.600, 64.019 88.295 C 66.463 88.934, 69.991 94.759, 69.996 98.161 C 70.001 101.419, 65.508 105.474, 60.219 106.987 C 55.553 108.321, 44.524 109.675, 31.257 110.544 C 25.624 110.913, 21.255 111.604, 21.550 112.080 C 21.844 112.556, 29.103 115.218, 37.682 117.996 C 52.958 122.942, 53.400 123.022, 59.167 121.887 L 65.055 120.729 68.476 113.614 C 70.358 109.702, 73.299 102.225, 75.012 97 C 78.423 86.597, 87.190 52.070, 86.753 50.760 C 86.604 50.311, 84.454 51.229, 81.977 52.800 M 81.958 83.248 C 80.253 90.449, 73.337 110.419, 70.876 115.242 C 69.768 117.416, 69.065 119.399, 69.316 119.649 C 69.566 119.899, 73.085 119.804, 77.135 119.437 L 84.500 118.769 84.500 113.557 C 84.500 104.654, 91.479 97.872, 102.866 95.708 L 108.700 94.599 100.808 90.664 C 96.467 88.500, 90.729 84.764, 88.058 82.362 L 83.201 77.995 81.958 83.248 M 76 122.285 C 67.086 123.087, 66.284 123.348, 63 126.517 C 61.075 128.374, 58.440 130.283, 57.144 130.758 C 54.866 131.594, 54.955 131.751, 59.794 135.441 C 65.586 139.858, 67.959 143.441, 66.234 145.166 C 65.614 145.786, 62.271 147.689, 58.804 149.396 C 50.543 153.464, 47.785 158.079, 47.616 168.119 C 47.506 174.645, 47.665 175.159, 50.500 177.467 C 55.467 181.511, 64.499 185.957, 69.787 186.960 C 80.705 189.030, 90 182.496, 90 172.750 C 90 166.247, 86.043 165.318, 78.560 170.064 C 75.903 171.749, 73.369 172.762, 72.930 172.314 C 71.968 171.333, 82.780 155.967, 90.618 147.177 C 101.413 135.069, 104.453 136.484, 106.635 154.632 C 109.070 174.893, 111.973 181.664, 120.008 185.828 C 123.889 187.839, 125.520 188.090, 132 187.669 C 140.816 187.096, 152.993 184.457, 155.594 182.555 C 158.395 180.507, 156.284 178.733, 144.129 172.925 C 138.283 170.132, 132.488 166.903, 131.250 165.749 C 126.973 161.762, 129.286 157.221, 136.518 155.406 L 139.244 154.722 136.122 153.409 C 130.322 150.971, 132.494 147.303, 144.500 139.262 C 151.281 134.720, 154.679 131.342, 153.571 130.244 C 153.158 129.835, 140.598 129.494, 125.660 129.486 C 96.635 129.470, 95.880 129.361, 89.106 124.185 C 85.531 121.453, 85.419 121.437, 76 122.285" stroke="none" fill="black" fill-rule="evenodd"/>
</svg>