<svg xmlns="http://www.w3.org/2000/svg" width="200" height="200" viewBox="0 0 200 200" version="1.1">
	<path d="M 77.755 7.593 C 69.155 8.935, 35.519 15.975, 27.894 18.029 C 25.752 18.605, 24 19.563, 24 20.157 C 24 21.049, 35.832 20.725, 42.438 19.652 C 42.954 19.569, 43.673 21.204, 44.037 23.287 C 44.823 27.793, 48.902 32.376, 53.317 33.713 C 56.008 34.529, 54.801 34.796, 45.500 35.444 C 22.026 37.080, 16.071 40.279, 28.827 44.400 C 35.128 46.436, 54.100 49.978, 59.301 50.090 C 63.366 50.178, 63.405 50.208, 60.500 51.058 C 55.537 52.511, 46.855 58.262, 43.718 62.175 C 40.276 66.468, 39.167 72.947, 40.950 78.348 C 42.632 83.446, 49.948 90.213, 58.850 94.905 L 66.500 98.938 57.856 98.969 C 36.337 99.046, 20 102.457, 20 106.872 C 20 112.953, 32.824 117.683, 52 118.675 C 61.758 119.180, 64.775 118.947, 71.921 117.140 C 80.248 115.033, 84.205 114.987, 78.242 117.065 C 74.399 118.405, 73.606 120.338, 75.442 123.888 C 77.575 128.012, 84.810 134.190, 86.807 133.592 C 91.733 132.118, 103.563 129, 104.230 129 C 105.638 129, 105.025 134.734, 103.480 136.017 C 101.622 137.558, 76.858 136.762, 70.318 134.950 C 66.536 133.902, 65.579 134.046, 60.321 136.453 C 43.625 144.097, 47.267 148.886, 70.075 149.277 C 79.281 149.435, 82.595 149.792, 81.412 150.500 C 80.492 151.050, 77.125 153.392, 73.929 155.704 C 69.450 158.945, 67.878 160.777, 67.065 163.704 C 65.409 169.667, 65.791 175.145, 68.130 178.982 C 70.711 183.215, 72.192 184.458, 78 187.267 C 81.976 189.190, 84.189 189.447, 97 189.472 C 109.575 189.496, 112.429 189.190, 118.500 187.165 C 131.140 182.950, 137 177.798, 137 170.901 C 137 167.683, 136.257 166.149, 132.972 162.586 C 130.757 160.182, 126.483 156.930, 123.475 155.358 C 120.466 153.786, 118.004 152.217, 118.002 151.871 C 118.001 151.526, 119.374 150.674, 121.053 149.978 C 123.254 149.066, 127.509 148.886, 136.303 149.331 C 149.435 149.995, 156.253 149.176, 158.801 146.627 C 160.275 145.153, 160.241 144.796, 158.389 142.261 C 155.973 138.956, 141.804 131.623, 130 127.570 C 125.325 125.965, 121.275 124.342, 121 123.964 C 120.725 123.587, 118.373 122.964, 115.773 122.581 C 113.174 122.198, 110.801 121.488, 110.502 121.003 C 110.202 120.518, 110.235 118.385, 110.574 116.264 L 111.191 112.406 121.345 111.312 C 137.431 109.580, 140.031 108.306, 166.925 89 C 174.923 83.259, 175.920 82.208, 175.465 80 C 174.384 74.745, 167.467 62.844, 155.416 45.500 C 148.537 35.600, 140.160 23.067, 136.801 17.648 C 132.768 11.142, 130.455 8.255, 129.992 9.148 C 129.607 9.892, 128.709 13.425, 127.996 17 C 127.284 20.575, 126.490 23.882, 126.231 24.349 C 125.972 24.816, 124.946 22.796, 123.952 19.860 C 121.829 13.586, 116.943 8.633, 111.344 7.079 C 106.172 5.642, 88.516 5.912, 77.755 7.593 M 86.758 9.085 C 79.466 9.979, 53.977 14.688, 53.425 15.244 C 53.285 15.385, 59.769 15.524, 67.835 15.553 C 79.026 15.593, 83.366 15.986, 86.154 17.212 C 90.139 18.963, 91.860 22.259, 89.974 24.531 C 89.001 25.703, 89.307 26.156, 91.641 26.995 C 105.239 31.888, 111.533 34.749, 114.674 37.464 C 121.208 43.112, 117.053 46.186, 100.320 48.080 C 94.919 48.692, 89.829 49.402, 89.009 49.657 C 88.124 49.933, 89.988 51.308, 93.591 53.037 C 99.306 55.780, 109 63.261, 109 64.929 C 109 65.346, 106.291 67.860, 102.980 70.516 C 90.750 80.325, 87.381 90.560, 95.072 94.537 C 98.050 96.077, 108.635 96.519, 110.728 95.189 C 111.403 94.761, 112.600 91.055, 113.389 86.955 C 114.177 82.855, 116.920 69.445, 119.483 57.155 C 124.353 33.807, 124.443 32.186, 121.469 21.472 C 119.968 16.066, 116.300 11.808, 111.623 10.040 C 107.415 8.450, 95.635 7.998, 86.758 9.085 M 129.160 24.749 C 126.512 36.639, 126.348 49.498, 128.665 63.405 C 130.023 71.556, 130.118 74.407, 129.181 78.871 C 127.740 85.744, 123.865 91.409, 118.425 94.597 C 115.028 96.588, 114.079 97.788, 113.537 100.783 C 113.166 102.828, 112.602 105.584, 112.283 106.909 L 111.703 109.318 120.133 108.670 C 135.350 107.500, 140.490 105.124, 161.186 89.693 L 172.872 80.980 171.284 76.320 C 170.411 73.757, 164.498 63.974, 158.144 54.580 C 151.790 45.186, 143.351 32.630, 139.391 26.678 C 135.430 20.726, 131.996 15.663, 131.760 15.427 C 131.524 15.191, 130.354 19.386, 129.160 24.749 M 64.083 18.368 C 64.313 18.571, 69.394 20.179, 75.375 21.943 C 82.680 24.097, 86.581 24.819, 87.258 24.142 C 90.492 20.908, 82.454 18, 70.284 18 C 66.645 18, 63.854 18.166, 64.083 18.368 M 46 20.599 C 46 23.956, 49.256 28.894, 52.478 30.423 C 57.172 32.650, 67.404 32.428, 75.517 29.922 C 79.217 28.779, 81.852 27.473, 81.372 27.020 C 80.892 26.566, 74.813 24.576, 67.863 22.598 C 54.004 18.652, 46 17.920, 46 20.599 M 85.790 28.543 C 85.458 28.876, 82.556 30.229, 79.343 31.550 L 73.500 33.953 86.250 33.976 C 93.263 33.989, 99 33.656, 99 33.235 C 99 32.814, 96.638 31.631, 93.750 30.606 C 90.862 29.581, 88.026 28.562, 87.448 28.340 C 86.869 28.119, 86.123 28.210, 85.790 28.543 M 96.798 39.361 C 91.285 46.558, 91.499 46.742, 103.354 45.009 C 111.515 43.815, 115 42.642, 115 41.089 C 115 40.626, 111.963 38.667, 108.250 36.735 L 101.500 33.222 96.798 39.361 M 86 36.724 C 66.670 37.232, 32.259 39.141, 29 39.885 L 25.500 40.684 29.963 41.938 C 41.708 45.238, 54.563 47, 66.896 47 C 86.222 47, 87.855 46.632, 91.888 41.367 C 93.752 38.934, 95.102 36.844, 94.888 36.722 C 94.675 36.600, 90.675 36.601, 86 36.724 M 123.697 51 C 122.209 56.196, 115.088 92.421, 115.477 92.811 C 116.712 94.045, 122.580 87.976, 124.763 83.207 C 127.034 78.245, 127.198 77.022, 126.518 70.117 C 126.106 65.928, 125.463 59.350, 125.091 55.500 C 124.584 50.269, 124.232 49.132, 123.697 51 M 62.500 53.399 C 49.776 57.423, 43 64.310, 43 73.218 C 43 80.669, 48.677 86.811, 61.500 93.236 C 70.797 97.894, 70.794 97.894, 69.840 91.265 C 69.384 88.094, 69.290 83.101, 69.631 80.169 C 70.033 76.707, 69.815 74.022, 69.008 72.514 C 67.943 70.525, 68.098 69.599, 70.083 66.066 C 71.418 63.691, 72.940 62.147, 73.670 62.427 C 74.756 62.844, 80.177 57.149, 82.404 53.250 C 83.377 51.547, 67.992 51.662, 62.500 53.399 M 81.292 59.334 C 73.286 69.341, 73.052 69.876, 72.440 79.572 C 71.714 91.067, 72.787 97.169, 75.768 98.487 C 78.327 99.619, 78.773 102, 76.425 102 C 75.121 102, 75.263 102.732, 77.250 106.250 C 78.774 108.949, 80.170 110.320, 81.075 110.008 C 81.859 109.737, 88.440 109.375, 95.700 109.204 C 110.176 108.863, 109.216 109.330, 110.513 102 L 111.132 98.500 104.940 98.845 C 94.667 99.418, 88 94.957, 88 87.510 C 88 83.165, 91.527 77.672, 98.512 71.138 C 104.183 65.832, 104.981 64.681, 103.892 63.370 C 101.772 60.815, 94.271 56.007, 90.123 54.543 L 86.224 53.168 81.292 59.334 M 35.992 102.974 C 28.340 103.962, 23 105.877, 23 107.634 C 23 109.593, 30.339 112.755, 39.280 114.649 C 47.899 116.475, 68.491 116.020, 74.131 113.879 L 77.761 112.500 74.784 107.250 L 71.807 102 56.653 102.131 C 48.319 102.203, 39.022 102.582, 35.992 102.974 M 83.247 113.250 C 83.474 113.938, 84.749 115.024, 86.080 115.664 C 88.713 116.929, 106.128 120.206, 106.776 119.557 C 106.995 119.338, 107.538 117.548, 107.982 115.579 L 108.789 112 95.811 112 C 85.875 112, 82.930 112.293, 83.247 113.250 M 78.147 119.888 C 76.417 120.984, 77.632 123.343, 82.168 127.701 L 85.500 130.902 94.469 128.645 C 103.647 126.337, 104.113 125.788, 98 124.494 C 96.075 124.087, 92.377 122.684, 89.783 121.377 C 84.942 118.937, 80.537 118.374, 78.147 119.888 M 97.813 121.683 C 98.534 121.972, 99.397 121.936, 99.729 121.604 C 100.061 121.272, 99.471 121.036, 98.417 121.079 C 97.252 121.127, 97.015 121.364, 97.813 121.683 M 101.813 122.683 C 102.534 122.972, 103.397 122.936, 103.729 122.604 C 104.061 122.272, 103.471 122.036, 102.417 122.079 C 101.252 122.127, 101.015 122.364, 101.813 122.683 M 111.851 127.159 C 108.633 128.034, 108.147 128.585, 107.743 131.826 C 107.490 133.846, 107.415 135.658, 107.576 135.850 C 108.075 136.450, 133.455 133.744, 134.302 133 C 135.080 132.317, 123.049 127.633, 118 126.653 C 116.625 126.386, 113.858 126.614, 111.851 127.159 M 140.255 136.964 C 139.580 138.044, 136.730 140.475, 133.922 142.367 L 128.816 145.805 137.488 146.528 C 146.426 147.272, 154.758 146.642, 156.294 145.106 C 157.309 144.091, 152.444 140.205, 146.290 137.114 C 141.212 134.564, 141.745 134.577, 140.255 136.964 M 120.142 137.565 C 113.896 138.282, 108.158 139.109, 107.392 139.403 C 106.626 139.697, 106 141.301, 106 142.969 L 106 146 114.309 146 C 122.053 146, 123.022 145.758, 128.559 142.439 C 131.826 140.481, 135.159 138.231, 135.964 137.439 C 137.761 135.673, 136.543 135.683, 120.142 137.565 M 60.500 139.310 C 57.750 140.615, 54.898 142.410, 54.162 143.300 C 52.995 144.711, 53.186 145.019, 55.662 145.709 C 58.720 146.561, 101.545 146.829, 102.273 146 C 102.515 145.725, 102.982 144.081, 103.312 142.348 L 103.911 139.195 96.205 139.714 C 89.396 140.172, 77.348 139.216, 68.500 137.516 C 66.460 137.124, 63.901 137.698, 60.500 139.310 M 98.412 151.500 C 99.687 152.875, 101.015 154, 101.365 154 C 101.714 154, 102 152.875, 102 151.500 C 102 149.398, 101.530 149, 99.048 149 L 96.095 149 98.412 151.500 M 104.488 152.750 C 104.084 154.813, 103.472 161.225, 103.127 167 C 102.626 175.388, 102.198 177.500, 101 177.500 C 99.764 177.500, 99.561 176.116, 99.848 169.652 C 100.234 160.965, 98.241 153.734, 94.979 151.989 C 90.159 149.409, 81.716 152.402, 73.057 159.760 C 69.903 162.440, 69.585 163.221, 69.253 169.092 C 68.967 174.161, 69.300 176.151, 70.848 178.613 C 77.474 189.157, 106.830 190.708, 125.048 181.476 C 130.131 178.900, 135.004 173.852, 134.993 171.173 C 134.975 166.493, 128.321 160.539, 117.519 155.538 L 110.539 152.305 113.519 150.693 L 116.500 149.080 110.861 149.040 L 105.223 149 104.488 152.750" stroke="none" fill="black" fill-rule="evenodd"/>
</svg>