<svg xmlns="http://www.w3.org/2000/svg" width="200" height="200" viewBox="0 0 200 200" version="1.1">
	<path d="M 95.607 1.582 C 95.273 2.452, 95 5.602, 95 8.582 C 95 11.562, 94.888 13.993, 94.750 13.985 C 94.612 13.977, 90.900 12.833, 86.500 11.444 C 82.100 10.055, 75.511 8.650, 71.858 8.323 C 65.937 7.793, 65.102 7.941, 64.165 9.693 C 62.641 12.539, 65.520 16.737, 72.103 21.271 C 78.014 25.342, 92.314 31.931, 95.500 32.051 C 97.471 32.126, 97.470 32.139, 95.459 32.954 C 94.336 33.409, 87.361 33.342, 79.959 32.804 C 57.432 31.169, 43.311 32.803, 41.725 37.229 C 39.720 42.828, 55.315 48.943, 71.701 48.983 C 80.094 49.003, 87.560 47.603, 94.304 44.744 C 97.100 43.559, 99.460 43.082, 99.951 43.604 C 100.415 44.097, 101.098 46.373, 101.470 48.662 L 102.146 52.824 96.991 51.313 C 93.633 50.328, 88.978 49.923, 83.639 50.151 C 73.421 50.586, 66.952 53.568, 62.509 59.892 C 59.819 63.721, 59.504 64.945, 59.539 71.442 C 59.586 80.091, 61.005 82.776, 67.814 87.103 C 75.631 92.070, 81.912 93.458, 96.679 93.480 C 103.928 93.491, 109.328 93.785, 108.679 94.132 C 106.728 95.179, 90.650 97.175, 83.337 97.279 C 78.761 97.344, 74.847 96.735, 71.500 95.438 C 67.349 93.829, 63.953 93.500, 51.500 93.500 C 37.500 93.500, 36.167 93.667, 31.500 96 C 25.060 99.220, 23.513 102.788, 26.963 106.460 C 31.229 111.001, 37.194 112.500, 51 112.500 C 57.875 112.500, 65.685 112.165, 68.355 111.755 C 72.754 111.079, 73.134 111.173, 72.398 112.755 C 68.547 121.024, 76.773 132.252, 90.126 136.954 L 95.183 138.735 78.842 139.268 C 57.381 139.968, 47.757 142.598, 49.551 147.273 C 50.277 149.164, 56.155 151.470, 64 152.942 C 69.061 153.892, 88.825 155.959, 93.500 156.028 C 94.600 156.044, 89.085 159.365, 81.244 163.408 C 66.486 171.017, 54.131 179.518, 51.975 183.546 C 46.988 192.866, 63.772 190.250, 90.639 177.522 C 98.136 173.970, 102.223 172.534, 103.139 173.131 C 105.489 174.661, 120.084 178.869, 130.500 181.020 C 143.355 183.675, 153.464 183.964, 155.687 181.741 C 157.182 180.246, 157.180 179.924, 155.657 177.599 C 153.311 174.018, 144.226 168.102, 130.414 161.160 C 120.370 156.112, 118.892 155.084, 121 154.606 C 122.375 154.295, 128.900 152.872, 135.500 151.444 C 149.778 148.355, 157.497 145.159, 158.529 141.910 C 159.581 138.593, 154.766 134.684, 146.246 131.940 L 139.339 129.716 144.420 119.874 L 149.500 110.031 159 109.992 C 164.225 109.970, 170.265 109.543, 172.423 109.043 C 181.476 106.943, 184.437 100.884, 179.543 94.468 C 177.237 91.444, 176.662 91.178, 174.345 92.059 C 172.467 92.773, 170.048 92.616, 165.672 91.494 C 159.580 89.934, 139.341 81.362, 138.488 79.981 C 138.237 79.575, 138.745 77.813, 139.617 76.066 C 142.010 71.269, 140.700 66.663, 135.300 60.890 C 128.681 53.814, 120 48.744, 120 51.955 C 120 52.296, 122.904 54.485, 126.454 56.819 C 133.263 61.296, 136.425 64.862, 137.547 69.330 C 138.246 72.117, 136.445 78, 134.892 78 C 134.416 78, 129.745 75.873, 124.513 73.274 C 117.700 69.890, 115 68.031, 115 66.725 C 115 63.797, 112.307 59.401, 108.638 56.340 C 106.138 54.255, 104.969 52.238, 104.238 48.750 C 103.690 46.137, 103.300 44.019, 103.371 44.042 C 103.442 44.066, 105.915 44.649, 108.867 45.338 L 114.233 46.591 110.117 48.447 C 107.852 49.468, 106 50.610, 106 50.985 C 106 52.862, 107.702 52.676, 112.372 50.288 C 116.826 48.010, 118.880 47.638, 128 47.458 C 146.582 47.091, 158.205 40.933, 154.726 33.298 C 152.977 29.460, 147.466 27.688, 135.750 27.195 C 129.838 26.946, 125 26.312, 125 25.785 C 125 24.312, 115.097 10.325, 110.190 4.867 C 107.784 2.190, 104.964 0, 103.924 -0 C 102.426 -0, 102.919 0.924, 106.301 4.453 C 111.334 9.706, 121.503 24, 120.207 24 C 119.713 24, 114.626 22.040, 108.904 19.645 L 98.500 15.290 98.500 7.643 C 98.500 2.573, 98.115 -0.003, 97.357 -0.002 C 96.728 -0.001, 95.941 0.712, 95.607 1.582 M 66.939 12.885 C 68.352 15.527, 74.735 20.285, 81.478 23.725 C 86.362 26.217, 97.115 30.250, 97.549 29.753 C 97.670 29.614, 97.319 26.746, 96.768 23.381 L 95.766 17.262 87.133 14.539 C 82.385 13.041, 75.637 11.566, 72.137 11.262 C 65.843 10.714, 65.786 10.732, 66.939 12.885 M 99.551 23.659 C 100.570 30.692, 101.370 31.324, 108.534 30.749 C 111.884 30.480, 115.893 29.596, 117.442 28.784 L 120.259 27.308 111.879 23.801 C 97.996 17.989, 98.731 17.998, 99.551 23.659 M 120.647 30.265 C 119.249 31.284, 120.019 31.440, 125.051 31.157 C 131.974 30.769, 132.185 30.536, 126.420 29.655 C 123.830 29.259, 121.722 29.482, 120.647 30.265 M 139.487 31.290 C 141.469 32.816, 141.469 32.825, 139.488 35.013 C 138.396 36.219, 134.352 38.995, 130.502 41.180 L 123.500 45.154 131.500 44.629 C 135.900 44.341, 141.174 43.614, 143.219 43.014 C 147.477 41.765, 153 37.486, 153 35.437 C 153 33.488, 147.895 31.075, 142.267 30.364 C 137.845 29.805, 137.644 29.872, 139.487 31.290 M 117 34.563 C 110.675 35.281, 104.713 35.898, 103.750 35.934 C 101.440 36.021, 101.457 39.639, 103.774 40.879 C 104.749 41.401, 108.402 42.418, 111.890 43.138 L 118.233 44.448 126.646 40.041 C 131.274 37.617, 135.551 35.041, 136.152 34.317 C 137.524 32.663, 133.250 32.718, 117 34.563 M 49.413 35.943 C 42.236 37.658, 42.899 39.628, 51.841 43.159 C 56.721 45.086, 59.428 45.400, 71.500 45.436 C 84.700 45.476, 85.906 45.313, 92.614 42.577 C 98.070 40.350, 99.625 39.282, 99.287 37.991 C 98.908 36.539, 96.687 36.217, 83.173 35.657 C 64.172 34.869, 53.529 34.959, 49.413 35.943 M 78.903 52.976 C 66.580 55.159, 60.793 62.801, 62.357 74.826 C 63.106 80.588, 67.541 84.929, 75.897 88.078 C 82.064 90.402, 97.590 91.738, 105.186 90.599 L 109.683 89.925 108.719 84.212 C 108.189 81.071, 107.657 78.384, 107.536 78.242 C 107.415 78.099, 104.288 79.562, 100.586 81.492 C 96.884 83.421, 93.268 85, 92.550 85 C 90.856 85, 87.144 76.331, 86.346 70.511 C 85.295 62.839, 89.671 59.990, 98.852 62.372 C 103.628 63.611, 104 63.578, 104 61.919 C 104 57.343, 102.198 55.246, 97.319 54.147 C 89.847 52.464, 83.923 52.087, 78.903 52.976 M 106.408 59.332 C 106.734 60.339, 107 61.770, 107 62.510 C 107 64.046, 109.679 67, 111.071 67 C 112.969 67, 111.904 63.930, 108.908 60.766 C 106.959 58.707, 106.035 58.177, 106.408 59.332 M 90.250 64.662 C 87.066 65.947, 90.901 81.642, 94.330 81.357 C 95.276 81.278, 98.500 79.729, 101.495 77.914 C 107.113 74.509, 107.255 74.167, 105.469 68.304 C 105.268 67.647, 102.749 66.409, 99.871 65.554 C 94.518 63.965, 92.453 63.773, 90.250 64.662 M 109.079 70.583 C 109.127 71.748, 109.364 71.985, 109.683 71.188 C 109.972 70.466, 109.936 69.603, 109.604 69.271 C 109.272 68.939, 109.036 69.529, 109.079 70.583 M 111.591 73.502 C 110.161 75.684, 110.104 76.835, 111.148 82.502 C 111.814 86.117, 112.865 89, 113.516 89 C 115.741 89, 126.215 85.031, 129.742 82.850 L 133.283 80.662 123.891 75.882 C 118.726 73.253, 114.214 71.079, 113.865 71.051 C 113.516 71.023, 112.492 72.126, 111.591 73.502 M 131 85.118 C 128.525 86.747, 123.463 89.006, 119.750 90.137 C 116.037 91.269, 113 92.520, 113 92.918 C 113 93.316, 115.362 93.305, 118.250 92.894 C 126.157 91.768, 139.506 91.862, 142.685 93.067 C 147.963 95.067, 150 97.881, 150 103.174 L 150 108 153.750 107.992 C 160.277 107.979, 173.516 106.178, 176.254 104.930 C 179.730 103.346, 180.313 101.505, 178.467 97.937 C 177.108 95.307, 176.447 95, 172.156 95 C 165.778 95, 158.940 92.870, 146.247 86.928 C 140.458 84.217, 135.672 82.035, 135.611 82.078 C 135.550 82.121, 133.475 83.489, 131 85.118 M 122.019 95.144 C 117.905 95.685, 114.395 96.272, 114.219 96.447 C 113.727 96.940, 115.141 106.622, 115.862 107.692 C 116.250 108.268, 120.026 108.337, 125.500 107.867 C 130.450 107.442, 137.250 107.354, 140.611 107.671 C 146.646 108.240, 146.730 108.213, 147.418 105.470 C 148.319 101.879, 146.498 97.548, 143.515 96.189 C 139.868 94.527, 130.254 94.060, 122.019 95.144 M 35.218 97.410 C 26.665 100.202, 25.613 103.684, 32.250 107.230 C 36.170 109.323, 37.744 109.497, 52.500 109.466 C 64.473 109.441, 70.387 108.974, 76 107.611 C 87.598 104.794, 89.309 104.572, 88.851 105.946 C 88.630 106.611, 85.994 107.986, 82.995 109.002 C 79.996 110.017, 76.745 111.832, 75.771 113.035 C 68.806 121.636, 84.585 135.904, 101.367 136.178 C 109.733 136.314, 113.772 135.294, 114.548 132.849 C 115.406 130.147, 114.047 117.147, 112.828 116.393 C 112.295 116.064, 112.131 114.153, 112.463 112.147 C 112.982 109.014, 111.668 98.335, 110.637 97.304 C 110.445 97.112, 105.726 97.640, 100.151 98.477 C 86.595 100.513, 75.370 100.463, 71.500 98.348 C 67.318 96.063, 41.398 95.393, 35.218 97.410 M 120.739 110.959 C 116.020 111.874, 115.752 112.163, 116.573 115.433 C 117.004 117.151, 119.340 119.581, 123.128 122.252 L 129.013 126.403 125.308 130.197 C 123.270 132.284, 120.784 134.251, 119.784 134.568 C 118.785 134.886, 117.069 136.906, 115.971 139.057 C 113.637 143.632, 110.437 144.838, 105.765 142.903 C 98.402 139.853, 56.366 142.234, 52.691 145.909 C 50.467 148.133, 78.245 153, 93.162 153 C 105.974 153, 104.961 155.080, 88.294 162.991 C 68.041 172.605, 51.681 184.015, 54.339 186.673 C 56.141 188.475, 78.808 180.601, 94.919 172.577 L 101.500 169.300 105.918 171.261 C 116.215 175.832, 146.407 181.881, 151.907 180.475 L 154.500 179.812 150.245 176.016 C 147.905 173.928, 138.680 168.506, 129.745 163.968 C 120.810 159.430, 113.305 155.548, 113.067 155.342 C 111.731 154.185, 116.076 152.758, 129.322 150.004 C 145.589 146.621, 154.837 143.587, 155.694 141.354 C 156.532 139.171, 153.401 137.296, 144 134.351 C 139.325 132.886, 135.322 131.542, 135.104 131.364 C 134.886 131.186, 135.850 129.313, 137.247 127.202 C 139.785 123.368, 146 111.528, 146 110.529 C 146 109.752, 125.132 110.107, 120.739 110.959 M 117 126.988 C 117 133.615, 117.180 133.685, 122.800 129.236 L 125.101 127.416 121.050 124.161 L 117 120.906 117 126.988 M 107.500 138.956 L 104.500 139.676 107.248 140.446 C 110.282 141.296, 113 140.628, 113 139.031 C 113 137.895, 111.982 137.881, 107.500 138.956" stroke="none" fill="black" fill-rule="evenodd"/>
</svg>