<svg xmlns="http://www.w3.org/2000/svg" width="200" height="200" viewBox="0 0 200 200" version="1.1">
	<path d="M 102 13.039 C 87.425 15.166, 70.062 17.622, 63.414 18.497 L 51.329 20.088 41.664 16.634 C 36.349 14.734, 32 13.399, 32 13.666 C 32 14.709, 41.041 25.721, 45.156 29.689 C 47.545 31.993, 52.174 35.480, 55.441 37.439 C 61.094 40.827, 61.231 41, 58.257 41 C 52.635 41, 40.615 43.982, 35 46.770 C 28.663 49.916, 27.695 52.940, 32 56.147 C 34.948 58.342, 48.265 61.326, 51.353 60.483 C 53.166 59.988, 53.068 60.232, 50.722 62.052 C 43.444 67.700, 43.151 75.044, 49.641 89.202 C 53.105 96.759, 54.030 99.730, 53.287 100.914 C 51.880 103.157, 41.782 103.464, 31.738 101.569 C 27.277 100.728, 23.434 100.232, 23.199 100.468 C 22.134 101.532, 27.572 110.334, 31.229 113.464 C 40.467 121.372, 54.846 122.212, 82.257 116.446 C 86.129 115.631, 89.468 115.135, 89.676 115.343 C 89.884 115.551, 88.498 116.909, 86.595 118.360 C 80.526 122.989, 80.945 127.408, 87.783 130.881 C 98.398 136.272, 130.300 137.310, 137.636 132.503 C 141.455 130.001, 144 130.542, 144 133.858 C 144 136.621, 143.798 136.736, 137.853 137.358 C 134.473 137.711, 126.935 138.007, 121.103 138.015 C 106.673 138.034, 77.377 139.791, 70.859 141.027 C 56.035 143.838, 63.127 149.366, 87.500 153.998 C 95.742 155.564, 97 155.980, 97 157.142 C 97 158.867, 85.919 169.869, 76.337 177.657 C 66.708 185.483, 64.982 187.672, 67.639 188.692 C 69.804 189.523, 76.470 187.056, 95.622 178.339 C 104.490 174.302, 112.195 171, 112.745 171 C 113.296 171, 115.757 171.890, 118.216 172.977 C 127.682 177.164, 141.167 180.099, 153.706 180.701 C 164.081 181.199, 166.294 181.037, 168.456 179.621 C 171.777 177.445, 171.667 175.513, 168.016 171.862 C 164.918 168.765, 145.324 158.971, 134 154.860 L 127.500 152.500 143.500 151.873 C 152.300 151.528, 162.074 150.711, 165.219 150.058 C 177.813 147.444, 178.029 142.454, 165.799 136.671 C 161.785 134.773, 156.137 132.459, 153.250 131.529 C 147.128 129.559, 147.325 130.489, 149.525 113.960 C 151.911 96.035, 151.602 96.560, 155.487 103.831 C 166.928 125.245, 172.801 121.846, 177.535 91.071 C 178.993 81.594, 179.186 75.959, 178.663 58.071 C 177.812 28.970, 175.044 15, 170.129 15 C 165.631 15, 161.882 24.594, 157.104 48.337 L 154.279 62.374 153.019 58.437 C 152.326 56.272, 150.362 51.840, 148.654 48.588 C 145.993 43.522, 145.559 41.661, 145.620 35.588 C 145.660 31.690, 146.516 25.023, 147.523 20.774 C 149.298 13.285, 149.298 12.987, 147.522 11.024 C 144.758 7.970, 133.251 8.479, 102 13.039 M 133 11.624 C 126.166 12.410, 77.495 19.305, 77.205 19.529 C 77.043 19.654, 78.280 21.127, 79.955 22.801 C 81.975 24.821, 83 26.841, 83 28.802 C 83 31.577, 83.697 32.100, 94.369 37.330 C 112.441 46.185, 115.433 51.687, 104.259 55.518 C 100.879 56.678, 100.432 57.245, 99.824 61.154 C 98.752 68.046, 98.899 80.427, 100.122 86.201 C 103.942 104.250, 111.112 99.242, 118.514 73.355 L 121.128 64.210 118.609 55.855 C 110.715 29.672, 113.692 17.489, 126.499 23.567 C 128.315 24.428, 132.726 28.163, 136.301 31.867 L 142.802 38.600 143.277 31.550 C 143.538 27.673, 144.348 21.927, 145.076 18.783 C 145.804 15.638, 146.161 12.828, 145.871 12.537 C 145.075 11.742, 136.975 11.167, 133 11.624 M 167.221 21.257 C 166.125 23.591, 164.048 30.225, 162.606 36 C 159.841 47.071, 153 86.161, 153 90.889 C 153 93.969, 159.801 107.139, 163.969 112.132 C 168.542 117.610, 170.739 113.998, 173.966 95.691 C 177.337 76.573, 176.519 37.723, 172.443 23.301 C 171.635 20.441, 170.578 17.857, 170.094 17.558 C 169.610 17.259, 168.317 18.923, 167.221 21.257 M 40 19.772 C 40 21.582, 53.628 33.641, 58.142 35.827 C 64.642 38.973, 70.736 39.509, 74.940 37.304 C 76.833 36.312, 78.535 35.007, 78.722 34.404 C 79.136 33.078, 52.282 22.678, 50.355 23.417 C 49.610 23.703, 49 23.545, 49 23.066 C 49 22.588, 47.763 21.748, 46.250 21.200 C 44.737 20.653, 42.712 19.885, 41.750 19.495 C 40.787 19.105, 40 19.229, 40 19.772 M 61.078 21.821 C 59.042 22.437, 60.388 23.220, 69.535 26.736 C 75.518 29.037, 80.646 30.687, 80.930 30.403 C 81.937 29.397, 78.388 24.481, 75.734 23.205 C 72.401 21.603, 64.324 20.840, 61.078 21.821 M 117.904 27.179 C 116.163 30.433, 117.418 41.876, 120.833 53.881 L 123.786 64.261 121.381 73.381 C 118.481 84.375, 112.773 96.447, 109.443 98.629 C 101.036 104.138, 95.004 89.228, 96.547 66.750 C 97.362 54.867, 96.699 54.509, 88.241 62.265 C 85.084 65.160, 80.975 68.611, 79.110 69.932 L 75.720 72.335 76.325 81.418 C 77.016 91.818, 78.671 98.056, 82.446 104.497 C 86.769 111.875, 88.068 112.336, 99.111 110.413 C 110.992 108.344, 122.945 108.911, 128.635 111.814 L 132.674 113.874 134.398 104.026 C 136.539 91.789, 139.416 85.625, 143.189 85.189 C 144.890 84.993, 146.636 85.636, 147.939 86.939 C 149.073 88.073, 150.021 88.887, 150.047 88.750 C 151.786 79.481, 153.469 67, 152.979 67 C 151.759 67, 147.215 57.566, 145.089 50.617 C 140.438 35.417, 122.002 19.522, 117.904 27.179 M 79.789 37.450 L 77.078 39.837 81.289 40.538 C 91.249 42.197, 95.379 45.362, 95.213 51.208 C 95.144 53.654, 95.501 54, 98.099 54 C 101.613 54, 108 51.510, 108 50.140 C 108 48.211, 101.287 43.565, 92.384 39.333 C 87.371 36.950, 83.096 35.014, 82.884 35.032 C 82.673 35.049, 81.280 36.137, 79.789 37.450 M 51.862 44.507 C 42.347 46.297, 33.047 49.714, 32.285 51.699 C 31.500 53.746, 33.297 54.686, 41.500 56.516 C 47.149 57.777, 50.334 57.891, 58 57.106 C 63.225 56.572, 72.990 55.587, 79.700 54.919 C 92.405 53.653, 93.771 53.003, 92.452 48.848 C 92.125 47.820, 90.428 46.220, 88.679 45.293 C 84.321 42.983, 62.444 42.516, 51.862 44.507 M 73.309 59.047 C 64.600 59.632, 60.905 60.355, 56.644 62.305 C 46.225 67.075, 45.068 73.299, 51.921 87.719 C 59.069 102.761, 57.068 106.555, 42.500 105.580 C 38.100 105.286, 32.730 104.738, 30.568 104.362 L 26.635 103.679 28.949 106.928 C 32.873 112.439, 38.388 115.709, 46.075 117.083 C 52.043 118.149, 54.822 118.085, 64.792 116.647 C 71.231 115.718, 78.624 114.484, 81.221 113.904 L 85.942 112.850 83.402 110.175 C 80.494 107.113, 76.635 99.907, 75.543 95.500 C 74.304 90.503, 72.277 73.585, 72.757 72.259 C 73.005 71.577, 75.298 69.477, 77.853 67.594 C 80.409 65.710, 83.822 62.781, 85.437 61.084 C 87.962 58.433, 88.103 58.021, 86.437 58.147 C 85.372 58.228, 79.464 58.633, 73.309 59.047 M 140.313 91.750 C 139.441 93.813, 137.847 100.675, 136.770 107 C 135.692 113.325, 134.648 118.668, 134.448 118.874 C 134.248 119.080, 132.695 118.080, 130.997 116.651 C 129.299 115.222, 126.017 113.536, 123.705 112.905 C 119.018 111.625, 100.114 112.241, 96 113.808 C 93.572 114.732, 93.614 114.790, 97.500 115.836 C 99.700 116.428, 104.881 117.106, 109.013 117.343 C 117.027 117.801, 133.183 122.587, 137.880 125.893 C 141.640 128.540, 144.993 129.443, 145.029 127.817 C 145.045 127.093, 146.078 118.998, 147.325 109.830 C 149.549 93.473, 149.556 93.111, 147.712 90.580 C 144.969 86.814, 142.215 87.249, 140.313 91.750 M 88.039 120.827 C 85.654 122.817, 84.849 124.163, 85.315 125.378 C 87.464 130.979, 112.633 134.768, 129.426 132.018 C 132.686 131.484, 135.732 130.668, 136.196 130.204 C 136.659 129.741, 127.467 126.989, 115.769 124.089 C 104.071 121.190, 93.808 118.634, 92.962 118.409 C 92.116 118.184, 89.901 119.272, 88.039 120.827 M 147 135.923 C 147 137.650, 146.438 139.254, 145.750 139.488 C 145.063 139.722, 131.225 140.392, 115 140.978 C 85.337 142.049, 69.217 143.400, 67.660 144.946 C 66.562 146.036, 73.941 148.368, 87 151.057 C 99.390 153.609, 100.841 154.556, 99.035 158.915 C 97.670 162.210, 86.993 172.780, 77.738 179.998 C 74.569 182.470, 72.387 184.629, 72.889 184.796 C 73.843 185.114, 95.234 175.896, 105.397 170.787 C 111.900 167.518, 111.866 167.516, 123.500 171.814 C 134.389 175.836, 146.769 178.251, 157.199 178.387 C 167.245 178.518, 169.564 177.392, 166.426 173.908 C 163.850 171.046, 143.095 161.099, 129.762 156.336 C 117.797 152.062, 116.032 150.021, 124.250 149.964 C 136.397 149.880, 161.929 148.047, 166.307 146.944 C 172.057 145.496, 173.009 144.236, 170.119 141.895 C 167.947 140.136, 155.037 134.800, 149.734 133.469 C 147.190 132.831, 147 133.002, 147 135.923" stroke="none" fill="black" fill-rule="evenodd"/>
</svg>