<svg xmlns="http://www.w3.org/2000/svg" width="200" height="200" viewBox="0 0 200 200" version="1.1">
	<path d="M 150.429 20.415 L 139.541 32.016 136.688 22.758 C 133.503 12.422, 131.336 9, 130.354 12.756 C 130.031 13.990, 129.482 15.004, 129.133 15.009 C 128.785 15.015, 116.350 15.906, 101.500 16.991 C 86.650 18.075, 71.267 18.971, 67.315 18.981 C 57.377 19.007, 55 20.045, 55 24.359 C 55 30.231, 63.131 36.286, 75.500 39.626 C 81.398 41.219, 88 41.416, 88 40 C 88 39.450, 87.815 39, 87.588 39 C 87.361 39, 83.831 38.360, 79.742 37.578 C 67.960 35.323, 58 29.693, 58 25.286 C 58 23.597, 58.829 23.527, 70.451 24.224 C 81.905 24.912, 83.639 25.289, 92.104 28.939 C 103.628 33.907, 104.167 34.427, 100.163 36.707 C 98.430 37.693, 97.010 39.063, 97.006 39.750 C 96.997 41.588, 98.088 41.304, 102.464 38.330 L 106.393 35.661 113.511 39.473 C 117.426 41.569, 121.874 44.355, 123.395 45.663 L 126.160 48.042 123.330 51.410 C 121.774 53.263, 119.600 55.047, 118.500 55.376 C 115.189 56.364, 96 56.084, 96 55.047 C 96 52.247, 98.638 48.822, 101.189 48.312 C 102.735 48.003, 104 47.180, 104 46.484 C 104 43.312, 45.145 43.682, 36.724 46.907 C 29.719 49.590, 33.784 54.833, 46.688 59.761 L 54.664 62.806 60.082 60.936 C 67.254 58.460, 70.767 58.469, 65.304 60.949 C 58.111 64.215, 50.268 70.814, 47.991 75.518 C 44.256 83.233, 47.332 90.373, 60.907 105.500 C 68.992 114.509, 70.380 117.257, 67.418 118.393 C 64.567 119.487, 50.645 119.030, 38.563 117.445 C 30.423 116.378, 26.386 116.214, 25.678 116.922 C 23.906 118.694, 24.326 127.318, 26.334 130.386 C 29.650 135.450, 35.898 137.392, 50.250 137.820 L 63 138.201 63 142.978 C 63 147.926, 64.772 150.685, 67.321 149.707 C 68.384 149.299, 68.670 151.007, 68.681 157.845 C 68.698 168.142, 71.077 174.718, 76.812 180.315 C 83.248 186.597, 85.735 187.001, 117.876 186.992 C 159.224 186.980, 171.503 185.046, 173.709 178.200 C 175.133 173.783, 174.131 171.234, 168.661 165.357 L 163.469 159.780 156.985 163.281 C 146.849 168.753, 140.680 170.424, 130.500 170.455 C 119.882 170.488, 113.301 168.703, 104.048 163.281 C 97.875 159.663, 84.715 147.728, 80.135 141.592 L 77.964 138.685 75.482 141.017 C 72.694 143.636, 72.579 143.506, 74.022 139.367 C 75.043 136.437, 75.055 136.433, 89.272 134.634 C 98.231 133.500, 105.166 132.065, 108 130.758 C 114.013 127.986, 122.968 127.958, 129 130.692 C 131.475 131.814, 137.478 135.718, 142.340 139.366 C 154.143 148.223, 157.960 148.208, 161.761 139.290 C 165.490 130.543, 166.806 117.451, 167.471 82.500 C 167.873 61.379, 167.706 45.362, 167.008 38.006 C 165.911 26.452, 163.463 12.656, 162.067 10.157 C 161.536 9.208, 158.131 12.209, 150.429 20.415 M 150.499 24.324 C 145 30.213, 140.513 35.362, 140.528 35.766 C 140.543 36.170, 141.165 41.182, 141.909 46.904 C 142.669 52.748, 143.030 61.041, 142.731 65.826 C 142.247 73.592, 142.408 74.661, 144.561 77.922 C 149.434 85.306, 151.348 95.323, 149.045 101.383 C 147.489 105.474, 140.978 111.977, 135.822 114.590 C 120.656 122.276, 97.197 121.273, 96.202 112.896 C 95.789 109.418, 99.081 105.612, 106.617 100.852 C 114.254 96.029, 119.736 89.925, 120.608 85.274 C 121.353 81.306, 119.013 75.301, 115.402 71.908 C 112.267 68.963, 111.940 69.283, 100.614 86.391 C 88.433 104.789, 79.846 120.950, 76.613 131.562 L 75.985 133.624 89.242 131.786 C 96.534 130.776, 104.879 129.060, 107.788 127.974 C 114.469 125.480, 122.543 125.455, 129.002 127.909 C 131.764 128.958, 138.008 132.783, 142.877 136.409 C 153.829 144.563, 156.270 144.905, 159.026 138.673 C 163.250 129.124, 164.099 118.545, 164.235 73.749 C 164.351 35.449, 164.182 30.664, 162.431 22.558 L 160.498 13.616 150.499 24.324 M 104 19.559 C 94.925 20.270, 85.925 20.921, 84 21.005 C 80.753 21.147, 80.681 21.217, 83 21.973 C 84.375 22.421, 88.689 23.313, 92.587 23.955 C 100.343 25.234, 105.933 28.029, 106.715 31.019 C 107.001 32.113, 110.340 34.652, 114.476 36.922 C 118.469 39.114, 123.075 42.034, 124.713 43.412 L 127.690 45.917 132.345 40.525 C 134.905 37.560, 137 34.797, 137 34.385 C 137 33.973, 136.051 30.118, 134.890 25.818 L 132.781 18 126.640 18.133 C 123.263 18.206, 113.075 18.848, 104 19.559 M 98.083 28.365 C 98.313 28.565, 99.625 29.265, 101 29.920 C 103.357 31.042, 103.389 31.022, 101.559 29.555 C 99.966 28.279, 96.711 27.164, 98.083 28.365 M 133.925 42.798 C 131.186 46.062, 130.500 47.742, 130.500 51.189 C 130.500 55.458, 130.453 55.516, 125.634 57.114 C 122.191 58.257, 119.817 59.930, 117.515 62.839 L 114.262 66.950 117.980 70.858 C 120.113 73.101, 122.143 76.521, 122.743 78.885 C 124.898 87.377, 120.963 94.462, 110.078 101.682 C 101.977 107.056, 99 109.889, 99 112.225 C 99 116.712, 113.749 118.519, 125.465 115.467 C 146.060 110.103, 152.599 96.183, 142.276 79.681 C 140.051 76.123, 139.868 74.749, 139.608 59.681 C 139.454 50.781, 138.884 42.424, 138.340 41.108 L 137.351 38.716 133.925 42.798 M 46 47.978 C 39.581 48.814, 36 49.843, 36 50.852 C 36 51.983, 41.312 54.831, 48.392 57.496 C 54.672 59.859, 55.023 59.886, 58.697 58.279 C 61.511 57.048, 66.436 56.509, 77.639 56.204 L 92.779 55.791 94.285 51.958 C 95.113 49.849, 95.538 47.871, 95.229 47.562 C 94.430 46.764, 52.612 47.117, 46 47.978 M 125.780 52.507 C 124.125 54.710, 124.135 54.777, 126.045 54.278 C 128.455 53.648, 129.092 52.763, 128.184 51.311 C 127.748 50.613, 126.876 51.047, 125.780 52.507 M 98.224 59.410 C 99.476 59.911, 103.122 61.450, 106.326 62.831 L 112.153 65.342 114.540 62.421 C 115.854 60.814, 116.944 59.275, 116.963 59 C 116.982 58.725, 112.261 58.500, 106.473 58.500 C 99.147 58.500, 96.639 58.777, 98.224 59.410 M 74.407 61.031 C 65.053 62.885, 53.125 70.574, 50.250 76.601 C 47.245 82.904, 51.352 91.281, 64.344 105.343 L 70.667 112.187 74.160 102.343 L 77.654 92.500 73.791 90.461 L 69.927 88.422 75.787 79.961 C 79.629 74.413, 82.396 71.390, 83.823 71.180 C 86.653 70.765, 86.702 73.583, 84.013 82.161 C 81.343 90.677, 81.397 91, 85.477 91 C 91.149 91, 92.432 87.943, 92.849 73.442 L 93.198 61.294 89.349 60.658 C 84.536 59.863, 79.687 59.984, 74.407 61.031 M 95.947 62.183 C 95.918 62.357, 95.783 67.675, 95.647 74 C 95.302 90.096, 92.472 94.863, 83.941 93.719 L 80.169 93.213 76.481 103.857 C 72.507 115.325, 67 132.804, 67 133.950 C 67 134.337, 68.331 134.458, 69.958 134.219 C 72.322 133.873, 73.154 133.054, 74.101 130.143 C 77.987 118.195, 89.556 97.201, 102.128 79.279 C 106.458 73.108, 110 67.876, 110 67.652 C 110 66.829, 96.076 61.410, 95.947 62.183 M 78.124 81.170 C 73.957 87.208, 73.857 88.935, 77.668 88.985 C 78.811 89, 83.617 76.284, 82.784 75.450 C 82.552 75.218, 80.455 77.792, 78.124 81.170 M 27.744 119.590 C 25.893 121.440, 27.057 127.211, 29.842 129.996 C 34.104 134.258, 41.785 135.629, 58.711 135.148 C 64.436 134.985, 63.916 135.676, 66.553 124.750 L 67.217 122 60.358 121.992 C 54.059 121.985, 42.418 120.920, 32.494 119.443 C 30.290 119.114, 28.153 119.181, 27.744 119.590 M 65.760 140.750 C 64.799 148.608, 68.629 149.402, 70.581 141.749 L 71.793 137 69.006 137 C 66.533 137, 66.167 137.423, 65.760 140.750 M 74.427 145.640 C 71.570 147.918, 71.500 148.194, 71.500 157.237 C 71.500 165.395, 71.840 167.192, 74.348 172.301 C 76.314 176.303, 78.463 178.939, 81.278 180.801 L 85.360 183.500 121.930 183.500 C 154.242 183.500, 159.174 183.292, 164.289 181.711 C 173.416 178.890, 173.918 175.062, 166.323 166.210 L 163.500 162.921 157 166.376 C 147.309 171.527, 139.937 173.388, 129.500 173.318 C 113.748 173.214, 101.173 167.103, 86.460 152.403 L 77.354 143.306 74.427 145.640" stroke="none" fill="black" fill-rule="evenodd"/>
</svg>