<svg xmlns="http://www.w3.org/2000/svg" width="200" height="200" viewBox="0 0 200 200" version="1.1">
	<path d="M 166.709 3.014 C 162.887 6.021, 155.745 15.911, 147.796 29.204 C 143.901 35.718, 140.593 40.924, 140.444 40.774 C 139.603 39.920, 134 16.009, 134 13.272 L 134 10 128.750 9.985 C 125.862 9.977, 108.650 10.481, 90.500 11.105 C 54.614 12.339, 55 12.263, 55 18.114 C 55 19.617, 56.185 22.255, 57.633 23.976 C 60.635 27.544, 69.824 32.501, 75.358 33.539 C 77.413 33.925, 78.937 34.397, 78.745 34.588 C 78.554 34.780, 71.308 35.411, 62.644 35.990 C 38.998 37.573, 31 39.721, 31 44.490 C 31 45.832, 31.788 47.351, 32.750 47.866 C 35.311 49.236, 45.278 51.022, 55 51.853 L 63.500 52.580 58.213 54.929 C 51.247 58.024, 49 60.976, 49 67.033 C 49 72.537, 51.639 78.069, 60.334 90.789 C 66.637 100.009, 67.455 103.597, 63.482 104.594 C 59.734 105.535, 43.967 103.242, 34.819 100.426 C 32.527 99.721, 28 107.525, 28 112.183 C 28 116.193, 29.762 118.167, 35.473 120.553 C 43.889 124.070, 68.363 123.365, 91.435 118.942 C 96.900 117.894, 101.533 117.200, 101.731 117.398 C 101.929 117.596, 101.081 119.838, 99.846 122.379 C 97.658 126.883, 97.485 127, 92.979 127 C 87.344 127, 79.815 129.442, 77.473 132.030 C 75.780 133.901, 75.657 133.878, 71.564 130.938 C 63.547 125.182, 55.913 126.331, 52.065 133.873 C 43.855 149.966, 50.111 179.835, 63.099 186.551 C 68.380 189.282, 76.256 187.553, 82.890 182.206 C 85.123 180.407, 85.584 180.378, 89.890 181.764 C 92.668 182.658, 98.673 183.280, 105 183.329 C 114.089 183.398, 117.516 182.890, 130.500 179.550 C 142.242 176.529, 147.455 175.677, 154.500 175.629 C 163.520 175.567, 164.536 175.831, 177.725 181.654 C 178.617 182.048, 178.518 180.740, 177.363 176.847 C 173.481 163.772, 163.505 148.424, 150.060 134.845 L 140.500 125.189 145.678 124.768 C 152.412 124.221, 156.670 120.973, 160.791 113.240 C 165.707 104.018, 167.289 95.702, 167.402 78.500 C 167.456 70.250, 167.352 61.025, 167.171 58 C 166.942 54.175, 167.945 47.933, 170.466 37.500 C 174.504 20.785, 176.106 5.037, 174.023 2.528 C 172.292 0.442, 169.765 0.611, 166.709 3.014 M 165.529 8.099 C 161.412 12.657, 153.745 24.198, 146.482 36.774 L 141.703 45.047 143.515 55.274 C 145.691 67.552, 145.920 78.826, 144.121 85.144 C 141.565 94.124, 134.490 100.010, 124.500 101.466 C 121.750 101.867, 119.156 102.406, 118.736 102.665 C 117.624 103.350, 129.976 117.994, 133.467 120.128 C 141.255 124.890, 151.524 122.698, 156.474 115.219 C 163.228 105.013, 165.540 91.968, 164.731 68.644 C 164.187 52.963, 164.241 52.397, 167.640 38.084 C 171.703 20.974, 173.258 4, 170.762 4 C 169.921 4, 167.566 5.845, 165.529 8.099 M 103.500 13.432 L 78.500 14.534 86 16.827 C 90.125 18.089, 95.525 19.785, 98 20.596 C 102.821 22.178, 108.139 24.906, 106.514 24.965 C 105.971 24.984, 111.821 28.426, 119.514 32.614 C 127.206 36.801, 133.686 40.399, 133.912 40.609 C 134.139 40.820, 133.831 42.075, 133.228 43.399 C 131.812 46.507, 124.052 49.442, 112.928 51.078 C 105.270 52.204, 104.774 52.408, 107.500 53.301 C 119.377 57.196, 121.098 66.906, 112.765 83.011 L 108.268 91.703 110.208 94.102 C 111.723 95.975, 112.274 96.184, 112.723 95.053 C 113.454 93.215, 125.437 69.803, 132.816 55.796 L 138.456 45.093 134.718 30.296 C 132.662 22.158, 130.984 14.713, 130.990 13.750 C 130.995 12.787, 130.438 12.074, 129.750 12.165 C 129.063 12.255, 117.250 12.826, 103.500 13.432 M 57.750 16.559 C 56.506 17.844, 56.866 18.778, 59.973 22.317 C 61.608 24.179, 65.771 26.986, 69.223 28.555 C 74.575 30.988, 77.047 31.461, 86 31.764 C 98.487 32.188, 99.694 32.459, 98.034 34.460 C 97.025 35.675, 97.726 35.942, 102.592 36.198 C 108.508 36.509, 110.850 38.272, 106.791 39.359 C 105.531 39.697, 101.198 39.979, 97.162 39.986 L 89.824 40 90.527 44.250 C 90.914 46.587, 91.463 48.891, 91.748 49.369 C 92.426 50.509, 108.492 49.269, 117.963 47.346 C 126.168 45.680, 131.710 43.291, 130.365 41.999 C 128.426 40.137, 104.856 27.886, 95.940 24.105 C 90.682 21.876, 83.118 19.366, 79.132 18.528 C 69.894 16.584, 58.721 15.556, 57.750 16.559 M 60.500 38.674 C 44.967 39.649, 31.473 42.873, 33.682 45.082 C 35.745 47.145, 50.906 49.069, 69.915 49.678 C 87.055 50.228, 89.261 50.123, 88.745 48.778 C 88.424 47.941, 87.849 45.173, 87.467 42.628 L 86.773 38 76.136 38.180 C 70.286 38.279, 63.250 38.502, 60.500 38.674 M 135.802 56 C 127.742 70.480, 114.204 98.551, 114.921 99.294 C 116.164 100.581, 129.086 98.080, 133.230 95.751 C 135.956 94.218, 137.824 92.021, 139.773 88.053 C 142.291 82.925, 142.486 81.658, 142.311 71.500 C 142.206 65.450, 141.513 58.025, 140.770 55 L 139.420 49.500 135.802 56 M 68.121 55.127 C 60.760 56.350, 54.517 59.281, 52.404 62.507 C 50.853 64.874, 50.789 65.763, 51.878 69.850 C 52.559 72.408, 55.228 77.797, 57.808 81.826 C 67.831 97.478, 68.992 99.584, 68.996 102.128 C 68.998 103.573, 68.254 105.373, 67.343 106.128 C 65.065 108.014, 52.780 107.537, 42.134 105.149 L 33.767 103.271 31.842 107.624 C 28.176 115.911, 33.035 119.051, 50.655 119.782 C 62.795 120.285, 75.343 119.127, 92.589 115.912 L 103.677 113.844 105.826 109.422 L 107.974 105 105.522 105 C 101.592 105, 100.554 101.797, 102.822 96.670 L 104.727 92.364 99.249 86.160 L 93.771 79.956 91.418 82.494 C 89.216 84.870, 88.855 84.947, 85.783 83.699 C 81.384 81.911, 75 72.812, 75 68.329 C 75 65.501, 75.354 65, 77.350 65 C 79.584 65, 87.056 69.664, 88.459 71.934 C 90.808 75.734, 91.652 70.074, 90.352 59.250 L 89.721 54 81.611 54.117 C 77.150 54.181, 71.079 54.636, 68.121 55.127 M 93.099 58.750 C 93.529 61.362, 93.908 66.356, 93.940 69.846 C 93.999 76.099, 94.083 76.287, 99.622 82.596 C 102.714 86.118, 105.578 89, 105.985 89 C 106.393 89, 108.448 85.608, 110.552 81.462 C 115.653 71.412, 116.458 63.367, 112.735 59.644 C 109.929 56.838, 101.502 54, 95.977 54 L 92.317 54 93.099 58.750 M 77.700 69.750 C 78.906 73.064, 84.080 79.972, 86.209 81.112 C 87.962 82.050, 88.578 81.930, 89.671 80.435 C 90.402 79.436, 91 78.278, 91 77.864 C 91 76.667, 79.964 68, 78.440 68 C 77.552 68, 77.289 68.622, 77.700 69.750 M 104.962 98.092 C 103.912 100.628, 103.918 101.332, 105 102 C 106.453 102.898, 109.129 102.201, 110.163 100.655 C 110.867 99.603, 108.297 95, 107.006 95 C 106.586 95, 105.666 96.392, 104.962 98.092 M 109.989 107.250 C 106.817 112.452, 107.317 112.884, 114.147 110.838 C 117.698 109.774, 118.255 109.879, 120.733 112.088 C 122.802 113.932, 123.106 114.029, 122.022 112.500 C 119.166 108.471, 114.573 104, 113.289 104 C 112.564 104, 111.079 105.463, 109.989 107.250 M 110.500 114.717 C 105.804 116.111, 105.336 116.560, 102.804 122.103 L 100.109 128.005 102.877 129.436 C 104.400 130.224, 106.249 131.595, 106.986 132.483 C 108.189 133.933, 108.741 133.698, 112.413 130.170 C 114.661 128.010, 118.436 124.871, 120.802 123.193 C 123.168 121.515, 124.992 119.773, 124.857 119.321 C 124.530 118.235, 117.231 112.967, 116.259 113.116 C 115.841 113.180, 113.250 113.901, 110.500 114.717 M 125.087 123.727 C 123.209 124.651, 119.080 127.809, 115.910 130.744 L 110.147 136.079 112.261 140.789 C 113.934 144.516, 114.467 148.098, 114.815 157.937 C 115.318 172.185, 115.285 172.182, 122.117 158.703 C 130 143.153, 134.078 126.478, 130.800 123.200 C 129.290 121.690, 129.206 121.698, 125.087 123.727 M 135 128.186 C 135 137.437, 125.281 161.246, 116.457 173.612 C 113.950 177.125, 111.644 180, 111.333 180 C 111.022 180, 111.093 176.963, 111.490 173.250 C 112.633 162.588, 112.214 150.249, 110.510 144.387 C 109.649 141.424, 108.537 139, 108.040 139 C 106.730 139, 93.456 153.850, 89.454 159.792 C 85.563 165.571, 84.245 166.645, 82.812 165.212 C 81.793 164.193, 88.469 146.026, 93.625 135.783 C 94.931 133.189, 96 130.827, 96 130.533 C 96 130.240, 94.171 130, 91.935 130 C 88.096 130, 78.018 133.520, 77.985 134.873 C 77.976 135.218, 77.568 136.134, 77.078 136.908 C 76.365 138.035, 75.338 137.589, 71.931 134.673 C 64.055 127.931, 57.405 128.691, 53.706 136.755 C 51.911 140.670, 51.530 143.337, 51.529 152 C 51.528 165.660, 54.282 174.472, 60.517 180.750 C 64.204 184.463, 65.290 185, 69.118 184.996 C 73.435 184.993, 78.215 182.847, 82.500 178.989 C 84.428 177.254, 84.771 177.260, 92 179.165 C 102.310 181.881, 113.325 181.131, 131.500 176.476 C 148.454 172.134, 159.207 171.620, 168.250 174.719 C 172.395 176.140, 174 176.347, 174 175.461 C 174 173.144, 165.958 158.162, 161.315 151.830 C 156.152 144.787, 144.511 132.398, 138.750 127.815 L 135 124.832 135 128.186 M 95.511 138.269 C 93.664 142.267, 91.199 148.004, 90.033 151.019 L 87.913 156.500 92.195 151.500 C 94.550 148.750, 98.726 144.094, 101.475 141.152 L 106.475 135.805 103.682 133.402 C 102.145 132.081, 100.434 131, 99.879 131 C 99.324 131, 97.359 134.271, 95.511 138.269" stroke="none" fill="black" fill-rule="evenodd"/>
</svg>