<svg xmlns="http://www.w3.org/2000/svg" width="200" height="200" viewBox="0 0 200 200" version="1.1">
	<path d="M 116.500 9.688 C 114.850 9.902, 104.500 11.657, 93.500 13.589 C 79.542 16.040, 70.569 17.090, 63.797 17.064 C 55.594 17.033, 53.894 17.305, 52.797 18.819 C 52.084 19.804, 49.960 21.042, 48.078 21.570 C 46.196 22.098, 44.452 23.145, 44.201 23.896 C 43.835 24.996, 44.839 25.126, 49.349 24.562 C 54.347 23.938, 55.306 24.128, 58.226 26.319 C 66.678 32.663, 80.749 38, 89.022 38 C 95.341 38, 100 35.423, 100 31.927 C 100 29.379, 100.333 29.429, 110.401 33.488 C 122.156 38.227, 125.250 39.925, 124.669 41.318 C 120.311 51.778, 119.599 53, 117.867 53 C 116.840 53, 116 53.675, 116 54.500 C 116 55.325, 116.652 56, 117.448 56 C 118.637 56, 118.702 56.580, 117.811 59.250 C 116.177 64.150, 115.655 64.337, 110.192 61.987 C 104.624 59.592, 100.650 56.005, 102.750 55.271 C 104.254 54.745, 104.433 52, 102.964 52 C 102.394 52, 103.069 50.321, 104.464 48.268 C 109.151 41.370, 107.233 39, 96.962 39 C 86.691 39, 43.231 42.976, 39.236 44.281 C 33.758 46.071, 33.622 49.231, 38.932 51.356 C 41.152 52.245, 44.743 53.255, 46.910 53.602 C 49.893 54.079, 51.617 55.185, 54 58.150 L 57.148 62.067 54.129 65.506 C 51.064 68.997, 48.998 74.462, 49.028 79 C 49.053 82.952, 52.409 89.325, 56.100 92.431 C 66.105 100.850, 87.425 104.087, 102.662 99.501 C 107.125 98.158, 107.188 98.171, 106.612 100.318 C 106.291 101.518, 106.021 102.795, 106.014 103.157 C 106.006 103.518, 91.488 104.010, 73.750 104.250 C 40.315 104.703, 34.019 105.438, 31.668 109.164 C 29.895 111.975, 33.467 115.710, 42.058 120.029 L 50.069 124.057 55.216 122.528 C 61.360 120.704, 64.065 120.617, 67.399 122.136 C 71.802 124.142, 73 129.323, 73 146.353 C 73 164.481, 74.231 171.638, 78.415 177.842 C 84.613 187.031, 96.017 189.657, 125.500 188.682 C 149.910 187.876, 169.720 184.109, 172.401 179.764 C 175.344 174.995, 160.568 169.573, 146 170.077 C 118.675 171.022, 112.414 170.285, 109.626 165.795 C 108.169 163.449, 111.666 159.854, 118.348 156.831 C 123.035 154.710, 124.853 154.506, 138.500 154.564 C 151.126 154.617, 154.529 154.971, 160 156.801 C 163.575 157.996, 166.784 158.980, 167.131 158.987 C 167.478 158.994, 168.266 157.001, 168.881 154.557 C 171.205 145.327, 169.825 140.512, 163.989 137.494 C 160.270 135.571, 147.081 135.573, 133 137.500 C 112.472 140.309, 100.719 139.081, 97.912 133.836 C 97.352 132.789, 97.030 129.848, 97.197 127.300 L 97.500 122.669 109.797 118.977 C 116.560 116.947, 124.885 113.878, 128.297 112.157 L 134.500 109.029 130 113.151 C 124.543 118.150, 119.926 120.233, 115.204 119.826 C 109.739 119.355, 110.382 121.278, 116.738 124.415 C 126.051 129.011, 136.003 132.085, 143.520 132.689 C 149.436 133.165, 151.380 132.892, 155.890 130.952 C 168.005 125.740, 172.238 111.963, 171.982 78.584 C 171.918 70.288, 172.346 61.928, 172.933 60.007 C 174.693 54.243, 174.212 42.899, 171.889 35.375 C 166.674 18.491, 155.276 10.186, 144.773 15.617 C 141.708 17.203, 141.607 17.181, 139.650 14.494 C 136.115 9.641, 128.718 8.106, 116.500 9.688 M 103 14.597 C 95.025 15.929, 87.834 17.266, 87.020 17.567 C 86.057 17.923, 87.105 18.815, 90.020 20.119 C 92.484 21.222, 95.400 22.950, 96.500 23.960 C 98.114 25.441, 118.803 34.626, 125.032 36.627 C 126.050 36.954, 127.337 35.746, 128.862 33.032 C 130.125 30.784, 132.698 26.929, 134.579 24.464 C 138.688 19.081, 138.859 16.821, 135.365 14.073 C 131.791 11.261, 122.016 11.420, 103 14.597 M 146.250 17.973 C 142.170 19.825, 142 20.082, 142 24.379 C 142 31.264, 143.904 43.522, 146.578 53.859 C 149.442 64.928, 149.805 78.412, 147.485 87.540 C 143.853 101.829, 133.323 116.715, 123.846 120.958 L 119.553 122.880 124.325 124.925 C 141.461 132.270, 155.944 131.505, 162.049 122.931 C 166.934 116.070, 168.191 109.096, 169.065 84 C 169.515 71.075, 170.250 58.250, 170.698 55.500 C 173.105 40.734, 166.175 22.254, 156.599 17.905 C 151.539 15.607, 151.461 15.608, 146.250 17.973 M 63.199 21.986 C 58.389 23.126, 58.386 23.556, 63.171 26.358 C 80.567 36.544, 97 38.571, 97 30.532 C 97 28.621, 95.910 27.988, 89.250 26.031 C 72.205 21.022, 69.226 20.559, 63.199 21.986 M 135.237 28.180 C 133.611 30.556, 131.535 33.956, 130.622 35.736 L 128.963 38.972 132.982 42.602 C 139.251 48.266, 137.855 51.830, 128.487 54.077 C 125.744 54.735, 123.036 55.385, 122.469 55.521 C 121.902 55.658, 120.650 58.268, 119.687 61.323 C 117.980 66.741, 117.988 67.029, 120.051 73.151 C 121.214 76.602, 121.933 80.585, 121.650 82.001 C 121.215 84.175, 121.784 84.987, 125.317 87.226 C 131.790 91.327, 136.211 96.427, 137 100.702 L 137.702 104.500 140.717 98 C 147.234 83.955, 148.148 70.404, 143.719 53.500 C 142.278 48, 140.583 39.225, 139.952 34 C 139.321 28.775, 138.668 24.356, 138.499 24.180 C 138.331 24.004, 136.863 25.804, 135.237 28.180 M 73.500 43.102 C 68.550 43.560, 59.459 44.406, 53.298 44.982 C 47.136 45.558, 41.078 46.405, 39.835 46.865 L 37.574 47.702 39.675 48.826 C 45.710 52.056, 80.688 55.173, 93.023 53.580 C 98.164 52.916, 98.669 52.597, 101.250 48.374 C 102.763 45.901, 104 43.454, 104 42.938 C 104 41.821, 86.317 41.916, 73.500 43.102 M 125.136 47.127 L 123.005 52.255 127.203 51.584 C 131.468 50.902, 134 49.503, 134 47.830 C 134 46.773, 129.078 42, 127.987 42 C 127.591 42, 126.308 44.307, 125.136 47.127 M 57.252 56.605 C 59.512 57.575, 62.045 57.955, 63.620 57.559 C 67.173 56.668, 66.510 56.356, 59.500 55.622 L 53.500 54.994 57.252 56.605 M 84 56.930 C 78.723 57.331, 77.136 57.732, 78.645 58.284 C 79.825 58.715, 82.975 61.410, 85.645 64.272 C 89.496 68.400, 92.655 70.459, 100.923 74.231 C 106.656 76.846, 111.448 78.877, 111.571 78.743 C 112.475 77.762, 114.669 68.115, 114.152 67.400 C 113.793 66.905, 110.933 65.277, 107.794 63.783 C 104.656 62.288, 101.342 59.926, 100.429 58.533 C 98.631 55.788, 98.807 55.805, 84 56.930 M 66.550 59.864 C 67.073 60.338, 68.850 61.188, 70.500 61.752 C 72.150 62.315, 75.862 63.720, 78.750 64.873 C 85.268 67.478, 85.562 65.946, 79.304 61.978 C 75.885 59.810, 73.384 59, 70.104 59 C 67.509 59, 66.003 59.366, 66.550 59.864 M 65.001 67.002 C 74.149 77.927, 86.068 86.955, 89.570 85.612 C 91.437 84.895, 91.399 80.037, 89.490 75.266 C 88.058 71.688, 87.353 71.243, 75.998 66.745 C 69.408 64.135, 63.296 62, 62.415 62 C 61.291 62, 62.063 63.492, 65.001 67.002 M 55.518 67.973 C 52.679 72.071, 51.336 78.219, 52.376 82.363 C 55.555 95.030, 82.579 102.699, 102.997 96.729 C 107.418 95.436, 107.522 95.307, 109.227 88.988 C 110.181 85.453, 110.633 82.238, 110.231 81.843 C 109.829 81.447, 105.514 79.294, 100.641 77.058 C 94.282 74.139, 91.955 73.441, 92.394 74.583 C 93.783 78.204, 94.143 83.864, 93.108 85.799 C 89.867 91.855, 82.126 88.275, 68.354 74.351 L 58.208 64.093 55.518 67.973 M 115.708 74.688 C 115.395 76.234, 114.866 78.207, 114.531 79.072 C 114.118 80.139, 114.783 81.036, 116.603 81.865 L 119.284 83.086 118.632 78.334 C 117.841 72.564, 116.479 70.866, 115.708 74.688 M 112.185 88.170 C 111.589 90.516, 111.236 92.569, 111.400 92.733 C 111.563 92.896, 112.908 91.819, 114.388 90.339 C 117.269 87.458, 117.486 84.717, 114.872 84.214 C 113.723 83.992, 112.960 85.114, 112.185 88.170 M 115.244 92.674 C 111.576 96.327, 109.750 99.055, 109.200 101.702 C 108.549 104.831, 107.894 105.607, 105.456 106.130 C 103.830 106.478, 90.350 106.820, 75.500 106.889 C 49.852 107.009, 36.604 108.021, 34.592 110.016 C 33.118 111.477, 35.877 113.913, 43.156 117.578 L 49.927 120.988 56.287 119.513 C 65.492 117.378, 71.566 119.567, 74.287 126 C 74.869 127.375, 75.627 137.500, 75.971 148.500 C 76.511 165.749, 76.881 169.119, 78.663 173 C 81.131 178.378, 84.139 181.315, 89.514 183.597 C 95.514 186.145, 129.348 186.761, 145.577 184.619 C 158.708 182.885, 169.115 180.155, 169.740 178.280 C 169.975 177.574, 167.985 176.474, 164.817 175.559 C 153.817 172.382, 148.880 171.914, 138.500 173.062 C 127.928 174.231, 117.485 173.626, 112.500 171.556 C 102.395 167.359, 106.202 157.833, 119.763 153.383 C 127.780 150.752, 147.581 150.753, 157.858 153.384 C 164.049 154.970, 165.355 155.049, 166.093 153.884 C 167.156 152.206, 167.258 143.932, 166.235 142.400 C 163.621 138.485, 155.332 137.568, 140 139.497 C 121.295 141.850, 109.108 142.404, 104.384 141.117 C 96.629 139.003, 93.143 133.198, 94.440 124.554 L 95.079 120.292 103.229 118.059 C 125.205 112.036, 136.057 106.043, 134.472 100.803 C 133.569 97.818, 129.529 93.490, 124.500 90.120 L 120.500 87.440 115.244 92.674" stroke="none" fill="black" fill-rule="evenodd"/>
</svg>