<svg xmlns="http://www.w3.org/2000/svg" width="200" height="200" viewBox="0 0 200 200" version="1.1">
	<path d="M 115 10.706 C 112.525 10.896, 98.482 11.377, 83.793 11.776 C 58.713 12.456, 56.994 12.622, 55.575 14.500 C 53.361 17.430, 53.624 18.578, 57.488 22.855 C 62.824 28.762, 75.086 33.600, 90.583 35.914 C 94.588 36.512, 90.038 36.634, 76.500 36.294 C 41.257 35.406, 29.469 38.664, 35.002 47.763 C 36.775 50.678, 36.783 50.680, 49.638 51.336 C 56.712 51.697, 65.425 52.010, 69 52.032 L 75.500 52.072 70.268 53.955 C 57.446 58.570, 48.752 69.288, 48.726 80.510 C 48.705 89.706, 55.273 98.413, 66.951 104.670 L 72.867 107.840 55.184 108.170 C 39.920 108.455, 36.953 108.774, 33.500 110.500 C 20.336 117.082, 38.109 128.117, 61.965 128.174 C 69.806 128.192, 72.921 127.716, 79.029 125.564 C 98.098 118.844, 103.522 118.274, 127.499 120.471 C 141.001 121.707, 146.211 122.570, 148.349 123.924 L 151.199 125.728 140.849 126.428 C 114.295 128.224, 104 131.854, 104 139.420 C 104 141.951, 105.425 143.873, 112.087 150.323 C 119.616 157.613, 120.047 158.249, 118.337 159.545 C 115.018 162.062, 109.881 163.232, 104.014 162.807 C 96.141 162.238, 89.685 158.173, 75.210 144.672 C 62.484 132.803, 59.049 130.520, 55.328 131.454 C 50.310 132.713, 47.782 143.003, 50.061 152.888 C 55.300 175.614, 78.372 190.794, 102.411 187.331 C 109.570 186.299, 121.595 181.582, 125.062 178.444 C 126.457 177.181, 127.537 177.302, 133.754 179.416 C 150.612 185.150, 161.348 184.941, 166.534 178.777 C 168.854 176.021, 169.157 174.906, 168.790 170.487 C 168.338 165.034, 163.558 153.731, 159.397 148.276 L 156.898 145 162.838 145 C 167.152 145, 169.411 144.488, 171.089 143.129 C 173.346 141.301, 173.359 141.196, 171.625 138.551 C 170.650 137.062, 166.960 133.747, 163.426 131.184 C 157.474 126.867, 157 126.244, 157 122.731 C 157 119.671, 157.656 118.363, 160.397 115.957 C 164.620 112.248, 166.702 107.150, 168.506 96.103 C 169.278 91.371, 170.383 85.276, 170.961 82.558 C 171.692 79.121, 171.697 72.918, 170.979 62.190 C 168.833 30.115, 164.918 11.943, 160.518 13.632 C 156.817 15.052, 155.126 33.304, 154.185 81.957 L 153.500 117.413 149.703 118.201 C 146.154 118.937, 145.305 118.583, 136.703 112.787 L 127.500 106.586 132.500 105.258 C 139.689 103.349, 140.154 102.951, 142.215 96.938 C 145.351 87.788, 146.494 71.755, 145.123 56.134 C 143.836 41.460, 139.989 20.512, 137.388 14.012 L 135.783 10 127.641 10.180 C 123.164 10.279, 117.475 10.516, 115 10.706 M 101.331 13.915 C 87.524 14.528, 84.347 15.289, 90.703 16.459 C 95.987 17.432, 102.518 20.437, 105.325 23.185 C 106.624 24.458, 113.833 28.535, 121.344 32.245 C 136.054 39.511, 137.097 40.681, 132.620 44.888 C 129.637 47.690, 122.628 49.835, 113.760 50.659 C 108.333 51.163, 106.690 51.710, 105.842 53.294 C 105.007 54.855, 105.116 55.485, 106.339 56.170 C 111.439 59.024, 116.803 64.115, 118.819 68.014 C 122.442 75.024, 121.211 81.315, 113.991 92.680 C 112.467 95.080, 113.050 95.801, 121.180 101.565 C 124.741 104.090, 125.043 104.134, 130.543 102.903 C 133.669 102.203, 136.833 101.024, 137.575 100.282 C 144.927 92.930, 144.077 45.252, 136.128 19.110 L 134.422 13.500 124.461 13.415 C 118.982 13.369, 108.574 13.594, 101.331 13.915 M 58.750 15.721 C 54.289 16.806, 59.064 22.689, 67.627 26.658 C 73.046 29.170, 85.255 32.419, 93.329 33.500 C 96.944 33.984, 98.020 34.505, 97.610 35.573 C 97.169 36.724, 98.402 37, 103.996 37 C 109.978 37, 111.081 36.717, 112.035 34.935 C 112.918 33.284, 113.426 33.108, 114.570 34.058 C 116.438 35.608, 116.393 37.635, 114.474 38.372 C 113.325 38.813, 109 46.750, 109 48.417 C 109 48.946, 121.664 46.922, 125 45.861 C 129.080 44.563, 132.192 42.120, 131.399 40.837 C 130.637 39.604, 113.521 31.099, 102 26.229 C 83.606 18.453, 65.549 14.066, 58.750 15.721 M 160.656 18.516 C 158.943 23.941, 157.865 43.051, 157.330 77.500 L 156.739 115.500 159.319 113.124 C 162.929 109.797, 165.077 102.972, 165.722 92.776 C 166.026 87.977, 166.616 84.262, 167.032 84.520 C 169.264 85.899, 169.577 75.969, 167.923 56.304 C 166.800 42.955, 163.782 23.288, 162.201 19.014 C 161.347 16.706, 161.239 16.672, 160.656 18.516 M 44.872 39.939 C 39.917 40.860, 36 42.584, 36 43.844 C 36 44.270, 36.631 45.481, 37.403 46.536 C 38.727 48.347, 40.662 48.474, 72.153 48.815 L 105.500 49.176 107.248 44.919 C 108.209 42.578, 108.842 40.508, 108.653 40.320 C 107.843 39.510, 49.067 39.159, 44.872 39.939 M 97.500 53 C 100.279 54.194, 103 54.194, 103 53 C 103 52.450, 101.313 52.032, 99.250 52.070 C 96.242 52.127, 95.896 52.311, 97.500 53 M 72.555 56.046 C 60.993 60.149, 52.793 68.532, 51.426 77.644 C 49.570 90.024, 61.751 102.056, 81.750 107.596 C 85.584 108.658, 88 109.865, 88 110.716 C 88 111.856, 86.432 111.961, 79.250 111.305 C 66.593 110.148, 42.183 110.456, 37.366 111.833 C 28.868 114.262, 30.159 118.045, 40.852 122.046 C 54.241 127.055, 69.659 126.877, 82.682 121.562 C 86.083 120.174, 91.026 118.554, 93.668 117.962 C 99.471 116.662, 118.168 116.665, 130.457 117.969 C 135.383 118.492, 139.539 118.795, 139.691 118.642 C 139.844 118.489, 136.359 115.871, 131.946 112.825 L 123.923 107.286 117.833 108.692 C 110.170 110.463, 103.072 110.085, 101.659 107.832 C 100.847 106.536, 101.270 105.244, 103.557 102.031 C 105.176 99.757, 106.950 97.212, 107.500 96.375 C 108.280 95.189, 107.472 93.934, 103.832 90.677 C 101.264 88.380, 97.379 84.396, 95.198 81.824 L 91.233 77.147 88.429 80.074 C 83.061 85.677, 78.214 82.730, 79.432 74.603 C 80.178 69.627, 83.380 64, 85.465 64 C 86.287 64, 87.934 65.910, 89.125 68.245 L 91.291 72.491 93.210 69.920 C 94.266 68.506, 96.463 65.014, 98.093 62.161 L 101.056 56.972 98.278 55.879 C 96.750 55.277, 91.675 54.594, 87 54.361 C 80.135 54.018, 77.357 54.342, 72.555 56.046 M 100.609 63.251 C 99.019 66.138, 96.654 69.936, 95.353 71.691 L 92.988 74.882 97.896 80.779 C 100.595 84.023, 104.552 88.061, 106.690 89.754 L 110.576 92.832 112.740 89.666 C 119.829 79.290, 119.694 70.583, 112.339 63.932 C 109.818 61.652, 104.549 57.998, 103.785 58.001 C 103.628 58.002, 102.199 60.364, 100.609 63.251 M 83.098 71.149 C 80.482 78.654, 82.610 82.390, 87 78 C 89.442 75.558, 89.479 74.620, 87.284 70.904 C 85.107 67.219, 84.455 67.257, 83.098 71.149 M 107.250 101.450 C 105.463 103.785, 104 106.050, 104 106.482 C 104 107.591, 117.930 106.470, 119.136 105.264 C 120.001 104.399, 115.624 100.104, 111.500 97.770 C 110.950 97.458, 109.037 99.114, 107.250 101.450 M 151.522 120.913 C 149.601 121.664, 149.608 121.720, 151.772 122.878 C 153.737 123.929, 154 123.830, 154 122.035 C 154 120.916, 153.887 120.032, 153.750 120.070 C 153.613 120.109, 152.610 120.488, 151.522 120.913 M 129.856 130.039 C 114.078 131.881, 107 134.699, 107 139.139 C 107 142.153, 111.151 146.988, 118.491 152.523 L 125.090 157.500 122.295 159.837 C 115.582 165.450, 107.201 167.295, 98.894 164.987 C 93.250 163.419, 84.346 157.118, 74 147.369 C 58.056 132.347, 56.002 131.357, 53.449 137.468 C 48.810 148.571, 55.373 165.925, 67.981 175.891 C 74.920 181.376, 82.703 184.115, 93.136 184.744 C 103.356 185.360, 112.045 183.169, 121.140 177.681 L 126.780 174.279 133.763 176.621 C 148.768 181.653, 159.909 182.091, 164.183 177.817 C 168.559 173.441, 164.560 159.437, 155.572 147.662 C 153.607 145.088, 152 142.762, 152 142.491 C 152 142.221, 155.798 142, 160.441 142 C 165.084 142, 169.116 141.621, 169.402 141.158 C 169.972 140.237, 165.590 135.909, 159.817 131.691 C 156.372 129.174, 155.499 129.008, 146.317 129.131 C 140.918 129.204, 133.510 129.612, 129.856 130.039" stroke="none" fill="black" fill-rule="evenodd"/>
</svg>