<svg xmlns="http://www.w3.org/2000/svg" width="200" height="200" viewBox="0 0 200 200" version="1.1">
	<path d="M 90.500 7.224 C 89.200 8.053, 84.773 8.500, 77.860 8.500 C 68.802 8.500, 66.906 8.783, 65.110 10.405 C 63.949 11.453, 63 13.364, 63 14.652 C 63 17.972, 69.065 24.266, 75.508 27.633 C 79.680 29.813, 80.996 31.039, 80.998 32.750 C 80.999 34.084, 80.390 35, 79.500 35 C 78.675 35, 78 35.675, 78 36.500 C 78 37.325, 78.879 38, 79.953 38 C 81.350 38, 82.193 39.041, 82.916 41.656 C 83.471 43.667, 83.714 45.654, 83.456 46.071 C 83.198 46.489, 79.723 47.136, 75.735 47.510 C 63.840 48.625, 44.486 44.341, 43.244 40.318 C 42.538 38.032, 47.606 36.639, 58.250 36.193 C 66.989 35.827, 69 35.460, 69 34.228 C 69 32.937, 67.454 32.792, 58.559 33.246 C 46.173 33.878, 40.500 35.987, 40.500 39.960 C 40.500 46.104, 54.978 50.439, 73.532 49.850 C 80.842 49.618, 84.885 49.846, 84.674 50.479 C 84.492 51.025, 82.578 51.778, 80.421 52.153 C 74.514 53.178, 71.604 54.531, 67.444 58.183 C 62.785 62.274, 59.921 68.510, 59.775 74.880 C 59.673 79.386, 59.981 80.015, 64.333 84.185 C 67.847 87.553, 69 89.394, 69 91.641 C 69 100.738, 46.393 108.876, 24.250 107.749 C 17.381 107.400, 15 107.593, 15 108.499 C 15 109.169, 16.857 111.828, 19.127 114.407 C 29.171 125.817, 44.124 128.242, 75.654 123.573 C 93.716 120.898, 106.442 119.826, 112.509 120.470 C 118.206 121.074, 118.635 121.312, 120.789 125.054 C 122.038 127.224, 122.934 129.061, 122.780 129.135 C 122.626 129.209, 108.775 129.575, 92 129.948 C 60.237 130.653, 56.596 131.163, 53.088 135.393 C 50.900 138.031, 53.842 143.061, 60.522 148.104 L 66.142 152.348 72.821 150.235 C 81.515 147.485, 89.992 146, 97 146 C 107.457 146, 120 149.314, 120 152.077 C 120 152.641, 118.313 153.867, 116.250 154.801 C 113.029 156.260, 108.824 156.500, 86.459 156.500 C 63.272 156.500, 60.123 156.693, 57.725 158.263 C 51.395 162.406, 53.957 169.624, 63.485 174.495 C 68.726 177.173, 70.296 177.492, 77.932 177.422 C 87.266 177.338, 93.785 175.311, 101.520 170.091 L 105.639 167.312 112.928 175.191 C 122.278 185.297, 126.348 187.458, 135.382 187.111 C 139.627 186.948, 146.174 179.904, 148.964 172.500 C 151.735 165.143, 153.983 151.052, 153.993 140.977 C 154 133.521, 153.971 133.439, 150.750 131.667 C 148.963 130.684, 146.032 128.632, 144.238 127.107 L 140.976 124.334 151.238 123.196 C 173.604 120.716, 184.560 115.591, 179.486 109.985 C 177.101 107.349, 165.438 104.887, 152.500 104.288 C 138.978 103.663, 136.986 102.688, 137.035 96.727 C 137.054 94.402, 137.714 89.575, 138.500 86 C 143.730 62.224, 134.608 52.036, 106.500 50.261 L 96.500 49.629 101 48.291 C 104.633 47.211, 107.246 47.179, 114.560 48.124 C 122.248 49.119, 125.122 49.043, 133.526 47.623 C 148.444 45.102, 159 39.602, 159 34.349 C 159 30.957, 154.945 28.845, 147.250 28.231 C 137.866 27.481, 128.138 23.190, 122.871 17.476 C 117.032 11.141, 107.463 6.628, 99.066 6.247 C 94.968 6.061, 91.748 6.428, 90.500 7.224 M 92 10 C 92 10.550, 92.787 11.014, 93.750 11.032 C 94.713 11.050, 101.350 13.031, 108.500 15.435 L 121.500 19.805 117.603 16.419 C 115.459 14.557, 111.280 12.126, 108.315 11.017 C 102.708 8.919, 92 8.251, 92 10 M 67.750 12.080 C 64.958 13.706, 65.699 16.496, 69.940 20.327 C 73.456 23.503, 78.963 27, 80.450 27 C 80.753 27, 81 25.482, 81 23.626 C 81 21.770, 81.642 18.431, 82.428 16.205 C 83.685 12.641, 83.675 12.089, 82.346 11.579 C 79.872 10.630, 69.637 10.981, 67.750 12.080 M 85.532 15.938 C 84.512 17.910, 84.009 20.866, 84.197 23.775 C 84.496 28.391, 84.550 28.456, 88.675 29.267 C 94.115 30.337, 121.669 28.731, 123.141 27.259 C 123.760 26.640, 124.020 25.494, 123.719 24.710 C 123.135 23.188, 98.281 14.532, 91.335 13.431 C 87.398 12.808, 87.080 12.945, 85.532 15.938 M 126.457 27.136 C 125.308 30.756, 120.368 31.864, 103.921 32.192 C 95.439 32.361, 87.487 32.132, 86.250 31.683 C 84.379 31.003, 84 31.213, 84 32.933 C 84 34.761, 84.606 34.999, 89.250 34.990 C 92.138 34.984, 103.827 34.094, 115.226 33.012 C 126.626 31.930, 136.638 31.308, 137.476 31.629 C 139.859 32.544, 139.269 34.812, 136.250 36.348 C 134.738 37.117, 128.898 39.246, 123.273 41.078 C 112.115 44.714, 111.706 45.960, 121.662 45.985 C 134.265 46.016, 150.331 41.470, 154.935 36.569 C 156.862 34.518, 156.914 34.173, 155.479 32.982 C 154.606 32.258, 150.653 31.374, 146.695 31.018 C 142.738 30.662, 137.700 29.574, 135.500 28.599 C 127.255 24.945, 127.157 24.929, 126.457 27.136 M 117 35.503 C 110.675 36.193, 100.848 37.088, 95.163 37.492 C 85.251 38.198, 84.850 38.316, 85.400 40.364 C 85.715 41.539, 85.979 43.063, 85.986 43.750 C 86.006 45.571, 88.522 45.284, 93.126 42.936 C 96.924 40.998, 97.446 40.964, 101.601 42.380 C 105.934 43.856, 106.286 43.805, 118.009 39.997 C 124.598 37.857, 130.779 35.645, 131.745 35.083 C 133.266 34.197, 133.167 34.073, 131 34.156 C 129.625 34.208, 123.325 34.814, 117 35.503 M 92 46.547 C 86.527 49.387, 87.577 49.571, 95.370 47.138 C 99.450 45.864, 100.721 45.107, 99.538 44.653 C 97.321 43.802, 97.264 43.816, 92 46.547 M 103.500 55.068 C 109.287 58.197, 111.887 60.890, 113.132 65.046 C 114.395 69.260, 112.674 74.079, 108.509 77.991 L 106.131 80.225 110.126 85.278 C 115.293 91.816, 117.040 95.277, 117.294 99.484 C 117.472 102.431, 118.867 104.145, 127.500 112.020 L 137.500 121.143 147.500 120.593 C 161.475 119.824, 178 115.600, 178 112.797 C 178 110.203, 163.356 107.287, 147.079 106.639 C 139.368 106.333, 138.462 106.076, 136.329 103.596 C 133.597 100.420, 133.403 96.535, 135.500 87 C 137.391 78.403, 137.391 68.658, 135.501 65.002 C 132.022 58.273, 122.456 54.163, 108.500 53.399 L 99.500 52.906 103.500 55.068 M 79.500 54.935 C 75.060 56.016, 70.834 58.460, 67.872 61.661 C 64.253 65.571, 63.221 67.850, 62.455 73.630 C 61.812 78.472, 61.891 78.680, 65.398 81.355 C 72.501 86.772, 73.772 92.912, 68.932 98.425 C 62.788 105.422, 47.398 110.135, 29.931 110.368 C 24.478 110.440, 20.014 110.749, 20.009 111.054 C 20.004 111.358, 21.462 113.023, 23.250 114.753 C 32.130 123.346, 45.454 124.793, 77.036 120.596 C 87.781 119.168, 100.943 118, 106.286 118 C 111.629 118, 116 117.724, 116 117.386 C 116 117.049, 114.997 114.988, 113.771 112.807 C 111.750 109.210, 111.262 108.901, 108.521 109.483 C 101.576 110.957, 95.262 111.233, 94.557 110.092 C 94.163 109.455, 93.592 105.641, 93.287 101.616 C 92.771 94.786, 92.888 94.192, 95.051 92.677 C 96.423 91.716, 98.312 91.291, 99.684 91.635 C 102.545 92.354, 102.551 92.495, 99.428 85.432 C 97.632 81.373, 94.989 77.893, 90.678 73.913 C 84.429 68.145, 83.736 65.707, 88.900 67.656 L 91.724 68.722 89.112 61.366 C 86.319 53.501, 86.072 53.335, 79.500 54.935 M 90 55.057 C 90 55.611, 91.372 59.623, 93.049 63.972 C 95.163 69.454, 97.168 72.819, 99.584 74.940 C 103.752 78.599, 104.073 78.635, 106.701 75.750 C 111.625 70.343, 112.141 66.510, 108.523 62.210 C 104.948 57.961, 90 52.189, 90 55.057 M 102.604 82.831 C 100.809 85.736, 112.391 101.942, 114.649 99.684 C 115.662 98.671, 111.224 90.431, 107.316 86.066 C 104.636 83.073, 103.105 82.021, 102.604 82.831 M 96.667 94.667 C 95.687 95.647, 95.884 105.268, 96.918 106.901 C 97.579 107.945, 99.109 108.147, 102.926 107.695 C 109.987 106.859, 110.297 106.502, 107.952 101.906 C 105.324 96.754, 98.778 92.555, 96.667 94.667 M 111.500 103 C 111.840 103.550, 112.316 104, 112.559 104 C 112.802 104, 113 103.550, 113 103 C 113 102.450, 112.523 102, 111.941 102 C 111.359 102, 111.160 102.450, 111.500 103 M 114.511 105.982 C 114.165 106.541, 115.308 109.675, 117.051 112.944 C 120.359 119.150, 120.331 119.133, 129.500 120.550 L 133.500 121.167 127 115.079 C 118.299 106.930, 115.283 104.733, 114.511 105.982 M 124.531 126.277 L 127.035 130.757 124.768 131.471 C 123.520 131.863, 108.550 132.508, 91.500 132.905 C 54.734 133.759, 51.667 134.493, 56.924 141.177 C 57.983 142.522, 60.640 144.864, 62.829 146.381 L 66.809 149.139 73.375 147.111 C 84.450 143.691, 95.835 142.524, 105.204 143.849 C 113.729 145.054, 121.423 148.054, 122.379 150.546 C 124.972 157.302, 111.216 160.740, 86.500 159.515 C 67.215 158.558, 62.015 158.760, 59.250 160.572 C 55.002 163.355, 57.222 168.476, 64.316 172.256 C 67.748 174.085, 70.118 174.487, 77.500 174.493 C 85.556 174.499, 87.207 174.165, 93.244 171.305 C 96.954 169.548, 101.477 166.975, 103.295 165.588 L 106.602 163.066 111.452 169.487 C 129.070 192.811, 144.359 188.818, 149.461 159.563 C 150.307 154.709, 151 147.213, 151 142.904 C 151 136.243, 150.717 134.919, 149.108 134.058 C 148.068 133.501, 144.898 131.066, 142.064 128.647 C 137.623 124.856, 136.078 124.154, 130.888 123.567 C 127.575 123.192, 124.226 122.640, 123.446 122.341 C 122.505 121.980, 122.871 123.306, 124.531 126.277" stroke="none" fill="black" fill-rule="evenodd"/>
</svg>