<svg xmlns="http://www.w3.org/2000/svg" width="200" height="200" viewBox="0 0 200 200" version="1.1">
	<path d="M 92.517 3.982 C 91.102 5.545, 90.856 6.931, 91.351 10.546 C 91.905 14.588, 91.774 15.067, 90.240 14.607 C 89.283 14.320, 84.121 12.885, 78.768 11.416 C 69.572 8.894, 68.897 8.838, 66.518 10.396 C 64.883 11.467, 64 12.969, 64 14.678 C 64 20.648, 79.866 30.733, 93.500 33.428 C 100.061 34.725, 98.414 34.818, 67.250 34.906 C 38.403 34.988, 34 35.199, 34 36.500 C 34 37.804, 38.478 38, 68.301 38 L 102.601 38 104.743 42.408 L 106.884 46.815 96.192 47.658 C 78.540 49.048, 55.450 48.580, 47.688 46.673 C 39.489 44.659, 40 44.676, 40 46.417 C 40 48.053, 46.232 49.602, 59 51.141 C 66.969 52.102, 81.735 51.769, 95.500 50.319 C 100.726 49.769, 101.342 49.878, 100.274 51.167 C 98.317 53.530, 100.718 55, 106.536 55 L 111.672 55 116.990 65.168 L 122.307 75.336 118.653 72.549 C 116.644 71.017, 115 69.222, 115 68.561 C 115 66.029, 107.706 59.003, 102.363 56.389 C 94.944 52.760, 83.643 51.961, 75.932 54.523 C 65.027 58.145, 58 68.733, 58 81.545 C 58 86.476, 58.243 86.953, 63.027 91.428 C 74.411 102.077, 94.736 107.274, 112.109 103.979 C 116.428 103.160, 123.113 100.445, 131.180 96.235 C 132.364 95.617, 133.334 105.066, 132.202 106.198 C 130.859 107.541, 51.550 107.314, 34.121 105.917 C 27.312 105.372, 21.537 105.130, 21.287 105.380 C 21.036 105.630, 20.587 107.663, 20.287 109.899 C 19.559 115.325, 21.441 119.489, 25.868 122.241 C 29.391 124.432, 30.265 124.500, 55 124.500 C 84.510 124.500, 86.943 125.074, 86.985 132.050 L 87 134.600 69.750 134.567 C 51.279 134.532, 48.273 135.128, 45.487 139.379 C 43.997 141.653, 43.997 142.094, 45.490 144.981 C 47.370 148.616, 56.084 154.535, 65.354 158.475 L 71.819 161.223 72.533 168.362 C 74.052 183.557, 77.632 191.338, 82.022 188.988 C 83.032 188.448, 87.003 181.817, 90.846 174.253 C 102.388 151.535, 105.659 148.255, 113.023 152.012 C 117.447 154.269, 122.668 160.859, 129.049 172.243 C 131.436 176.501, 134.876 181.426, 136.692 183.186 C 139.563 185.969, 140.352 186.262, 142.717 185.431 C 147.803 183.642, 152.021 174.949, 156.816 156.370 C 158.949 148.106, 159.219 145.777, 158.285 143.726 C 156.702 140.251, 148.829 136.746, 132.838 132.396 C 125.502 130.400, 118.600 128.291, 117.500 127.710 C 115.629 126.720, 115.694 126.597, 118.500 125.803 C 126.950 123.411, 141.004 121.993, 145.704 123.057 C 152.987 124.706, 166.962 124.640, 170.464 122.939 C 174.329 121.062, 176.505 117.150, 175.628 113.655 C 174.802 110.363, 168.675 103.400, 164.875 101.435 C 161.684 99.785, 154.418 99.514, 153.493 101.011 C 153.150 101.567, 149.584 99.012, 145.571 95.334 L 138.273 88.645 140.715 83.311 C 143.143 78.007, 143.147 77.952, 141.369 73.239 C 138.787 66.392, 130.017 57.898, 122.705 55.163 C 119.526 53.973, 116.090 53, 115.069 53 C 113.486 53, 112 51.204, 112 49.289 C 112 48.603, 130.989 49.896, 136.895 50.986 C 144.605 52.407, 160 45.836, 160 41.123 C 160 40.147, 158.978 38.389, 157.730 37.216 C 155.286 34.920, 145.001 30.022, 138.500 28.057 C 136.300 27.392, 133.876 26.648, 133.114 26.403 C 131.998 26.045, 132.067 25.583, 133.472 24.031 C 135.162 22.163, 134.930 21.916, 125.858 15.925 C 114.065 8.138, 101.547 2, 97.458 2 C 95.590 2, 93.581 2.806, 92.517 3.982 M 94.345 6.544 C 93.805 7.950, 94.479 14.812, 95.230 15.563 C 95.404 15.737, 102.936 17.914, 111.968 20.400 C 124.487 23.846, 128.714 24.652, 129.752 23.791 C 130.838 22.890, 129.428 21.554, 122.807 17.211 C 107.031 6.862, 95.833 2.665, 94.345 6.544 M 67.074 13.410 C 63.976 17.143, 79.422 27.364, 92.750 30.399 C 96.188 31.182, 99 31.700, 99 31.550 C 99 31.399, 97.654 28.308, 96.009 24.679 C 93.222 18.534, 92.725 18.006, 88.759 16.979 C 86.416 16.372, 81.321 15.004, 77.436 13.938 C 68.999 11.623, 68.576 11.602, 67.074 13.410 M 97 19.739 C 97 20.020, 98.212 22.951, 99.693 26.252 L 102.387 32.253 108.443 31.670 C 114.884 31.050, 124 28.332, 124 27.031 C 124 26.601, 122.763 25.985, 121.250 25.662 C 119.737 25.339, 113.662 23.759, 107.750 22.151 C 101.838 20.544, 97 19.458, 97 19.739 M 127.759 28.574 C 127.444 28.890, 124.556 30.264, 121.343 31.629 L 115.500 34.110 125.646 33.482 C 132.280 33.072, 136.015 33.216, 136.437 33.898 C 136.813 34.507, 132.373 37.341, 125.791 40.694 L 114.500 46.446 126 47.295 C 132.325 47.761, 139.184 48.169, 141.243 48.200 C 145.768 48.269, 156.365 43.232, 156.814 40.799 C 157.202 38.698, 150.069 34.916, 138.062 30.854 C 128.989 27.785, 128.628 27.705, 127.759 28.574 M 115.250 36.745 C 109.619 36.946, 106 37.489, 106 38.133 C 106 39.883, 109.355 45.004, 110.466 44.950 C 111.035 44.922, 115.325 42.920, 120 40.500 C 124.675 38.080, 127.600 36.171, 126.500 36.258 C 125.400 36.344, 120.338 36.564, 115.250 36.745 M 105 51 C 103.865 51.734, 104.305 51.973, 106.809 51.985 C 108.764 51.994, 109.865 51.591, 109.500 51 C 108.724 49.744, 106.944 49.744, 105 51 M 80.903 56.121 C 69.259 57.817, 62.540 65.692, 60.484 80.049 C 59.861 84.406, 60.010 84.775, 64.025 88.790 C 68.826 93.591, 77.805 98.269, 86.460 100.478 C 93.851 102.365, 107.803 102.428, 114.650 100.605 C 120.983 98.919, 130 94.123, 130 92.440 C 130 89.203, 124.749 80.297, 121.341 77.757 C 117.513 74.902, 116.050 75.299, 116.015 79.203 C 115.972 84.053, 110.846 88.717, 103.713 90.400 C 99.165 91.472, 93.552 89.354, 89.728 85.121 C 83.335 78.044, 82.458 69.735, 87.597 64.910 C 91.023 61.694, 97.408 61.822, 105.887 65.276 L 112.274 67.878 108.931 64.428 C 102.545 57.841, 91.522 54.573, 80.903 56.121 M 116.454 57.750 C 119.310 65.235, 128.400 79.986, 131.879 82.783 C 134.081 84.552, 136.097 86, 136.359 86 C 136.620 86, 137.582 84.044, 138.495 81.653 C 140.095 77.462, 140.077 77.142, 137.974 72.668 C 134.905 66.139, 128.857 60.464, 122.389 58.044 C 115.757 55.563, 115.617 55.556, 116.454 57.750 M 89.635 67.073 C 82.745 72.492, 91.107 88, 100.919 88 C 105.362 88, 111.745 84.171, 112.920 80.800 C 114.853 75.256, 114.304 73.217, 110.179 70.613 C 105.730 67.804, 97.946 65, 94.600 65 C 93.318 65, 91.084 65.933, 89.635 67.073 M 131.015 86.536 C 131.043 88.257, 132.871 90.463, 133.636 89.697 C 134.046 89.288, 133.620 88.192, 132.690 87.262 C 131.761 86.332, 131.007 86.005, 131.015 86.536 M 135.083 92.400 C 134.202 93.461, 134.200 94.910, 135.074 98.380 C 135.708 100.898, 135.944 104.088, 135.598 105.467 C 134.298 110.645, 134.345 110.641, 82 109.896 C 55.325 109.516, 31.137 108.872, 28.250 108.463 L 23 107.721 23 111.638 C 23 120.773, 27.674 122.635, 49 121.995 C 73.426 121.263, 80.187 121.528, 83.724 123.357 C 87.679 125.402, 90 128.651, 90 132.141 C 90 138.025, 90.108 137.989, 74.624 137.320 C 58.613 136.629, 52.102 137.287, 48.843 139.926 C 46.737 141.631, 46.697 141.888, 48.179 144.151 C 50.420 147.571, 56.533 151.571, 65.432 155.439 C 69.655 157.275, 73.377 159.044, 73.703 159.370 C 74.029 159.696, 74.918 164.776, 75.679 170.660 C 77.062 181.360, 78.659 186.567, 80.513 186.424 C 81.056 186.383, 85.048 179.475, 89.384 171.075 C 101.191 148.203, 106.177 144.299, 115.809 150.380 C 120.448 153.308, 122.883 156.497, 131.078 170.376 C 140.158 185.755, 142.678 186.349, 148.112 174.397 C 152.106 165.613, 157.223 145.974, 155.926 144.411 C 154.042 142.140, 146.036 138.981, 131.956 134.953 C 114.565 129.976, 112.824 129.205, 113.204 126.647 C 113.579 124.124, 118.385 122.526, 131.088 120.700 C 139.059 119.554, 141.927 119.540, 148.088 120.621 C 160.696 122.832, 169.875 121.802, 172.301 117.905 C 174.742 113.984, 168.317 105.250, 161.285 102.929 C 158.244 101.925, 157.438 102.039, 155.044 103.810 L 152.294 105.843 144.922 98.421 C 140.867 94.340, 137.256 91, 136.897 91 C 136.539 91, 135.722 91.630, 135.083 92.400" stroke="none" fill="black" fill-rule="evenodd"/>
</svg>