<svg xmlns="http://www.w3.org/2000/svg" width="200" height="200" viewBox="0 0 200 200" version="1.1">
	<path d="M 99.295 6.191 C 97.532 6.655, 95.442 7.958, 94.651 9.087 C 93.320 10.988, 92.783 11.061, 87.423 10.070 C 75.684 7.900, 68.491 9.194, 67.366 13.679 C 67.022 15.047, 67.440 17.023, 68.374 18.449 C 70.425 21.578, 77.682 26.563, 84.027 29.200 C 86.762 30.337, 89 31.544, 89 31.883 C 89 32.222, 82.137 32.560, 73.750 32.634 C 36.316 32.964, 26.847 42.435, 56.409 49.981 C 65.469 52.293, 71.277 52.899, 72 51.607 C 72.275 51.116, 68 49.696, 62.500 48.452 C 37.563 42.813, 36.171 38.796, 58.197 36.034 C 67.678 34.846, 85.960 34.679, 87.628 35.765 C 88.248 36.169, 89.064 38.350, 89.442 40.612 C 90.113 44.628, 90.055 44.739, 86.940 45.362 C 85.185 45.713, 82.644 46, 81.292 46 C 79.763 46, 78.995 46.473, 79.261 47.250 C 79.551 48.096, 81.356 48.389, 84.845 48.158 C 90.877 47.758, 91.955 49.582, 86.250 50.536 C 74.007 52.584, 65.448 57.024, 61 63.637 C 54.025 74.007, 61.896 91.793, 75.782 97.042 C 79.670 98.511, 84.781 99.376, 91.750 99.745 C 97.388 100.043, 102 100.645, 102 101.081 C 102 102.301, 81.869 102.590, 57.575 101.718 C 34.218 100.880, 28.063 101.459, 22.157 105.051 C 15.114 109.334, 19.227 112.135, 42.028 118.584 C 58.565 123.262, 64 125.320, 64 126.904 C 64 127.995, 59.866 129.630, 53.500 131.057 C 45.529 132.844, 45.902 132.522, 47.463 136.257 C 48.232 138.097, 50.731 146.329, 53.017 154.551 C 55.302 162.773, 58.733 172.777, 60.639 176.782 C 68.325 192.925, 80.652 194.830, 99.680 182.812 L 106.182 178.706 112.537 181.869 C 123.697 187.423, 132.777 187.773, 140.581 182.950 C 152.652 175.490, 155.775 152.214, 147.015 135 C 145.756 132.525, 143.887 129.427, 142.863 128.115 C 141.838 126.803, 141 125.434, 141 125.072 C 141 124.709, 143.529 123.882, 146.619 123.234 C 158.875 120.664, 174.938 110.079, 176.594 103.483 C 177.094 101.488, 176.719 100.275, 175.104 98.659 C 173.299 96.854, 171.535 96.441, 164.340 96.142 L 155.735 95.784 147.492 88.878 L 139.249 81.973 139.747 77.555 C 140.432 71.474, 137.349 65.465, 130.103 58.756 C 125.292 54.302, 123.447 53.263, 118.921 52.461 C 115.196 51.801, 113.500 51.031, 113.500 50 C 113.500 48.732, 116.672 48.421, 134 47.987 C 149.365 47.603, 155.248 47.100, 157.488 45.980 C 164.835 42.304, 160.189 37.628, 140.093 28.471 C 127.233 22.612, 124.934 21.188, 120.734 16.483 C 113.041 7.864, 105.923 4.448, 99.295 6.191 M 99.352 8.993 C 98.171 9.470, 96.970 10.239, 96.684 10.703 C 96.397 11.167, 101.537 13.365, 108.105 15.589 L 120.047 19.633 116.304 15.799 C 112.550 11.955, 105.619 7.945, 102.934 8.063 C 102.145 8.098, 100.534 8.517, 99.352 8.993 M 71.250 12.597 C 68.943 13.648, 69.970 16.830, 73.576 19.802 C 76.543 22.248, 86.858 28, 88.277 28 C 88.964 28, 91.238 13.904, 90.646 13.313 C 89.865 12.532, 72.776 11.901, 71.250 12.597 M 93.574 16.667 C 93.222 17.584, 92.671 20.855, 92.349 23.934 L 91.764 29.534 97.302 31.829 L 102.839 34.125 113.920 32.424 C 125.464 30.651, 126.226 30.159, 123.964 25.933 C 122.801 23.759, 119.567 22.264, 106.742 17.967 C 96.567 14.558, 94.463 14.350, 93.574 16.667 M 127.710 28 C 128.131 29.610, 129.039 29.986, 132.367 29.926 L 136.500 29.852 132.500 28 C 127.345 25.614, 127.086 25.614, 127.710 28 M 137.880 33.372 C 136.992 34.542, 132.617 37.438, 128.157 39.807 C 123.696 42.177, 119.740 44.612, 119.364 45.220 C 118.870 46.019, 123.219 46.146, 135.091 45.677 C 151.965 45.010, 157.088 44.235, 157.750 42.249 C 158.190 40.929, 151.797 36.685, 144.522 33.467 L 139.494 31.244 137.880 33.372 M 128.345 34.543 C 127.460 36.850, 128.181 36.924, 131.500 34.869 L 134.500 33.011 131.719 33.005 C 130.130 33.002, 128.683 33.662, 128.345 34.543 M 116.500 34.655 C 115.400 34.888, 113.375 35.358, 112 35.701 C 109.504 36.324, 109.505 36.326, 112.500 37.044 C 118.005 38.364, 121.729 38.041, 124.139 36.033 L 126.500 34.067 122.500 34.149 C 120.300 34.195, 117.600 34.422, 116.500 34.655 M 92 38.857 C 92 44.874, 92.249 45.002, 103.857 44.978 C 112.546 44.960, 114.929 44.625, 116.838 43.157 L 119.176 41.359 110.338 39.262 C 105.477 38.109, 99.362 36.876, 96.750 36.521 C 92.002 35.878, 92 35.879, 92 38.857 M 93.228 49.183 C 93.445 49.834, 96.070 50.870, 99.061 51.487 C 102.052 52.103, 105.946 53.373, 107.712 54.310 C 111.485 56.310, 116.064 61.752, 117.491 65.933 C 118.250 68.157, 120.727 70.233, 127.500 74.321 L 136.500 79.753 136.818 76.248 C 137.278 71.176, 135.620 68.036, 129.198 61.818 C 124.414 57.186, 122.590 56.108, 117.827 55.096 C 111.828 53.822, 109.400 52.007, 110.357 49.513 C 110.849 48.231, 109.554 48, 101.885 48 C 95.361 48, 92.943 48.330, 93.228 49.183 M 82.045 54.092 C 65.068 57.420, 56.961 69.345, 63.366 81.567 C 66.410 87.375, 68.561 90.011, 72.207 92.400 C 76.384 95.137, 84.793 96.975, 93.198 96.988 L 100.896 97 99.997 94.250 C 99.502 92.737, 98.608 89.588, 98.010 87.250 C 97.314 84.529, 96.361 83, 95.361 83 C 94.503 83, 92.270 81.470, 90.400 79.600 C 85.926 75.126, 85.789 70.933, 89.989 67.011 C 92.946 64.248, 92.965 64.161, 91.850 58.610 C 90.605 52.406, 90.618 52.412, 82.045 54.092 M 94.476 57.701 C 94.871 60.340, 95.402 62.837, 95.656 63.250 C 95.910 63.663, 98.060 64, 100.433 64 C 102.807 64, 106.662 64.675, 109 65.500 C 114.833 67.558, 115.271 67.425, 113.562 64.119 C 110.741 58.665, 105.810 55.585, 96.629 53.540 L 93.758 52.901 94.476 57.701 M 97.555 72.750 C 98.310 75.912, 98.945 79.113, 98.964 79.861 C 98.991 80.883, 99.934 81.057, 102.750 80.557 C 110.150 79.243, 114.799 76.939, 115.473 74.251 C 115.824 72.854, 115.748 71.370, 115.305 70.953 C 113.631 69.378, 104.758 67, 100.555 67 L 96.180 67 97.555 72.750 M 91.200 69.200 C 89.279 71.121, 89.799 75.735, 92.189 77.961 C 96.201 81.700, 96.634 80.899, 94.828 73.076 C 93.595 67.734, 93.146 67.254, 91.200 69.200 M 118 75.021 C 118 77.746, 117.439 78.361, 113.269 80.205 C 110.667 81.356, 106.623 82.514, 104.283 82.777 C 99.567 83.309, 99.661 82.807, 102.464 92.500 C 103.557 96.280, 103.810 96.481, 107.060 96.154 C 116.462 95.207, 135 86.533, 135 83.080 C 135 82.265, 125.848 76.085, 120.250 73.121 C 118.145 72.006, 118 72.129, 118 75.021 M 132.500 89.088 C 126.929 93.463, 119.396 96.643, 110.750 98.271 C 106.869 99.001, 105 99.828, 105 100.814 C 105 102.043, 106.542 102.161, 114.750 101.561 C 120.112 101.169, 126.699 100.432, 129.386 99.924 C 132.074 99.416, 137.587 99, 141.636 99 C 147.376 99, 149 99.317, 149 100.439 C 149 102.015, 145.881 102.571, 132.263 103.421 C 122.889 104.006, 118.698 105.749, 116.517 109.967 C 114.357 114.144, 114.634 118.345, 117.434 123.870 C 120.849 130.609, 123.698 139.999, 125.478 150.381 C 127.355 161.336, 127.359 161.075, 125.326 160.295 C 123.995 159.784, 123.805 160.046, 124.396 161.576 C 124.805 162.634, 125.376 164.671, 125.665 166.102 C 126.248 168.986, 126.534 168.922, 105.500 170.594 C 96.558 171.304, 89.578 169.948, 88.562 167.302 C 86.897 162.962, 98.934 157.229, 111.748 156.260 C 115.736 155.958, 119 155.485, 119 155.208 C 119 154.932, 118.036 152.060, 116.857 148.827 C 114.951 143.600, 114.536 143.102, 113.107 144.324 C 112.223 145.080, 107.594 146.947, 102.819 148.473 C 92.849 151.661, 88.673 151.411, 84.910 147.401 C 82.858 145.215, 82.502 143.843, 82.511 138.167 C 82.520 132.414, 83.011 130.609, 86.093 125 C 90.403 117.156, 96.544 112, 101.578 112 C 103.460 112, 105 111.842, 105 111.649 C 105 111.456, 104.531 109.952, 103.957 108.306 L 102.913 105.313 67.909 104.724 C 38.886 104.236, 32.067 104.385, 27.996 105.594 C 18.475 108.421, 19.908 109.363, 44.626 116.518 C 62.096 121.576, 66.344 123.533, 66.812 126.743 C 67.180 129.269, 63.819 131.300, 55.770 133.417 C 52.871 134.179, 50.606 135.277, 50.735 135.857 C 52.344 143.070, 60.529 170.135, 62.327 174.186 C 67.029 184.782, 72.846 188.841, 81.607 187.640 C 86.226 187.007, 97.308 181.806, 102.779 177.703 L 106.057 175.244 114.137 179.372 C 121.079 182.919, 123.104 183.500, 128.522 183.500 C 133.917 183.500, 135.446 183.066, 139.109 180.491 C 153.161 170.615, 152.559 142.410, 137.958 126.570 L 133.745 122 137.163 122 C 145.578 122, 160.484 116.027, 168.688 109.368 C 177.176 102.477, 175.241 99, 162.917 99 L 155.217 99 146.930 92 C 142.371 88.150, 138.385 85.036, 138.071 85.081 C 137.757 85.125, 135.250 86.929, 132.500 89.088 M 108.705 104.721 C 106.503 105.052, 106.026 105.551, 106.455 107.071 C 106.755 108.132, 107.255 109.900, 107.568 111.001 C 107.880 112.102, 108.892 113.383, 109.818 113.848 C 111.178 114.532, 112.015 113.670, 114.190 109.347 L 116.881 104 114.190 104.150 C 112.711 104.232, 110.242 104.489, 108.705 104.721 M 100.243 114.850 C 89.488 117.948, 80.464 139.621, 87.250 146.055 C 89.132 147.839, 90.318 148.101, 94.500 147.653 C 100.598 147, 110.937 143.047, 112.333 140.834 C 113.495 138.992, 107.519 117.662, 105.188 115.331 C 103.749 113.892, 103.613 113.879, 100.243 114.850 M 110.070 119.191 C 110.109 119.911, 110.527 121.400, 111 122.500 C 111.767 124.286, 111.867 124.212, 111.930 121.809 C 111.968 120.329, 111.550 118.840, 111 118.500 C 110.450 118.160, 110.032 118.471, 110.070 119.191 M 116.219 133 C 116.287 136.077, 117.590 142.225, 119.176 146.956 C 122.263 156.160, 124.459 159.792, 123.416 153.969 C 121.979 145.943, 118.782 133.287, 117.489 130.500 C 116.113 127.534, 116.099 127.563, 116.219 133 M 103 160.421 C 96.462 162.288, 93.585 163.591, 92.135 165.337 C 91.028 166.671, 91.360 166.977, 94.567 167.579 C 98.237 168.267, 114.192 167.512, 119.839 166.382 C 122.641 165.822, 122.712 165.671, 121.708 162.400 L 120.664 159 114.082 159.067 C 110.462 159.105, 105.475 159.714, 103 160.421" stroke="none" fill="black" fill-rule="evenodd"/>
</svg>