<svg xmlns="http://www.w3.org/2000/svg" width="200" height="200" viewBox="0 0 200 200" version="1.1">
	<path d="M 120.500 12.110 C 113.900 12.564, 99.257 13.860, 87.961 14.990 C 71.477 16.638, 66.755 16.810, 64.042 15.865 C 60.868 14.758, 60.520 14.864, 58.336 17.593 C 55.002 21.759, 55.205 26.864, 58.843 30.349 C 62.582 33.932, 70.751 36.959, 78.678 37.699 C 82.190 38.027, 85.264 38.618, 85.507 39.012 C 85.751 39.406, 82.924 40.037, 79.225 40.413 C 70.230 41.328, 68 41.958, 68 43.583 C 68 44.524, 68.857 44.800, 70.750 44.469 C 85.735 41.848, 101.338 41.120, 102.492 42.988 C 102.828 43.531, 100.942 46.291, 98.301 49.122 L 93.500 54.268 76 53.601 C 57.160 52.884, 42.595 51.432, 40.071 50.020 C 38.792 49.304, 39.056 48.929, 41.497 48.001 C 43.146 47.374, 47.129 46.247, 50.349 45.496 C 56.755 44.001, 57.494 43.608, 56.604 42.168 C 55.885 41.005, 41.554 44.461, 38.250 46.594 C 29.725 52.096, 44.328 55.757, 76.346 56.145 C 88.734 56.295, 92.307 56.637, 92.720 57.711 C 93.559 59.900, 92.621 60.112, 87.227 58.955 C 76.858 56.732, 62.414 61.813, 56.293 69.838 C 50.606 77.294, 51.947 86.647, 59.947 95.326 C 67.713 103.752, 80.792 106.697, 96.891 103.647 C 122.872 98.724, 134.121 83.507, 121.977 69.712 C 116.247 63.202, 108.037 58.015, 103.331 57.932 C 96.572 57.813, 102.574 56.302, 114.582 55.101 C 127.432 53.815, 135.525 51.679, 136.424 49.337 C 137.261 47.156, 133.819 43.575, 128.334 40.920 C 125.950 39.766, 124 38.650, 124 38.441 C 124 37.312, 139.330 27.937, 140.009 28.651 C 141.955 30.700, 144.189 50.127, 144.189 65 C 144.190 80.397, 143.265 88.686, 140.425 98.750 C 138.947 103.989, 138.935 104, 134.845 104 C 132.591 104, 119.441 104.947, 105.623 106.106 C 85.627 107.781, 75.041 108.129, 53.750 107.808 L 27 107.404 27 109.637 C 27 115.403, 31.601 121.692, 38.361 125.169 C 43.342 127.730, 53.003 129.647, 65.250 130.504 C 70.612 130.880, 75 131.551, 75 131.996 C 75 133.124, 66.144 138.859, 55.750 144.464 C 50.938 147.058, 47 149.591, 47 150.091 C 47 151.379, 47.450 151.291, 55.189 148.500 C 63.737 145.416, 69.027 145.325, 74.096 148.174 C 79.452 151.184, 82.316 155.982, 87.120 169.995 C 93.678 189.121, 96.555 190.965, 105.460 181.750 C 110.359 176.680, 110.574 176.213, 111.747 168.126 C 113.114 158.694, 115.300 154.128, 119.395 152.150 C 121.813 150.982, 122.815 151.037, 126.844 152.558 C 135.738 155.916, 150.184 173.525, 153.253 184.750 C 153.892 187.088, 154.951 189, 155.607 189 C 156.263 189, 159.063 186.523, 161.829 183.497 C 168.431 176.273, 171.262 168.949, 171.297 159 C 171.332 149.167, 168.550 142.579, 161.801 136.511 L 156.874 132.081 160.824 126.791 C 170.955 113.223, 171.948 108.147, 172.026 69.500 C 172.060 53, 172.544 37.475, 173.103 35 C 173.662 32.525, 174.370 27.944, 174.675 24.820 C 175.184 19.613, 175.005 18.914, 172.530 16.439 C 170.081 13.990, 169.330 13.789, 164.480 14.290 C 161.263 14.622, 155.657 16.470, 150.408 18.930 C 145.610 21.178, 141.630 22.901, 141.563 22.759 C 138.944 17.198, 138.222 15, 139.016 15 C 140.618 15, 140.136 12.266, 138.418 11.607 C 137.548 11.273, 135.861 11.064, 134.668 11.142 C 133.476 11.220, 127.100 11.656, 120.500 12.110 M 122.500 14.711 C 109.122 15.649, 74.616 19.050, 74.194 19.473 C 73.930 19.736, 77.716 19.850, 82.607 19.726 C 91.025 19.512, 91.915 19.698, 99.256 23.204 C 104.938 25.917, 107.540 27.801, 108.984 30.248 C 110.389 32.630, 112.354 34.092, 115.829 35.341 L 120.704 37.094 129.102 31.389 C 133.721 28.251, 137.873 25.359, 138.330 24.962 C 138.786 24.565, 138.168 21.937, 136.956 19.120 C 134.516 13.447, 135.640 13.790, 122.500 14.711 M 159.791 17.988 C 158.302 18.437, 153.869 20.286, 149.942 22.096 L 142.801 25.388 143.460 28.944 C 148.312 55.123, 148.255 81.244, 143.306 99.277 C 142.435 102.455, 141.299 105.315, 140.782 105.635 C 140.266 105.954, 126.041 107.325, 109.172 108.683 C 84.459 110.671, 73.789 111.073, 54.250 110.753 C 40.829 110.533, 30 110.745, 30 111.228 C 30 113.167, 33.106 117.911, 35.933 120.290 C 40.442 124.084, 47.138 125.884, 62.388 127.400 C 69.969 128.154, 76.627 129.227, 77.185 129.785 C 79.044 131.644, 77.068 134.460, 70.988 138.620 L 64.966 142.739 68.812 143.354 C 78.079 144.836, 84.244 152.254, 89.411 168.142 C 95.162 185.827, 96.834 187.159, 103.795 179.606 C 106.951 176.183, 107.991 174.139, 108.501 170.356 C 109.693 161.535, 112.061 154.785, 114.994 151.852 C 123.904 142.943, 142.721 155.829, 153.529 178.242 L 156.779 184.983 159.928 181.762 C 173.408 167.975, 170.974 143.027, 155.407 135.411 C 147.899 131.737, 138.623 132.264, 128.500 136.939 C 122.153 139.870, 120.817 140.131, 114.184 139.732 C 101.679 138.980, 97.586 133.481, 104.434 126.632 C 108.391 122.675, 119.936 116.855, 127.343 115.083 C 134.215 113.439, 144.025 113.566, 148.305 115.354 C 152.004 116.900, 155.989 122.028, 155.996 125.250 C 156.011 132.240, 164.784 118.014, 167.700 106.271 C 169.110 100.597, 169.349 94.803, 169.179 70.500 C 169.060 53.434, 169.409 39.237, 170.029 36 C 172.005 25.675, 172.315 20.085, 171.001 18.502 C 169.658 16.883, 164.274 16.637, 159.791 17.988 M 58.998 24.576 C 59.004 29.891, 70.046 34.599, 84.997 35.660 C 93.853 36.289, 103 35.497, 103 34.101 C 103 33.675, 96.813 31.030, 89.250 28.224 C 77.563 23.888, 74.262 23.076, 67.248 22.812 C 59.461 22.518, 58.995 22.617, 58.998 24.576 M 87.500 24.473 C 105.444 31.454, 107.276 32.038, 105.874 30.330 C 103.394 27.309, 90.488 21.994, 85.816 22.070 L 81.500 22.139 87.500 24.473 M 105.500 36.623 C 103.850 37.331, 101.150 37.965, 99.500 38.032 C 96.636 38.148, 96.682 38.208, 100.500 39.353 C 105.909 40.976, 106.386 44.352, 101.924 49.434 C 96.433 55.688, 99.479 54.478, 108.840 46.687 L 117.837 39.199 113.168 37.267 C 109.136 35.598, 108.092 35.511, 105.500 36.623 M 112.934 46.750 C 104.544 53.423, 104.985 53.857, 118.342 52.074 C 128.790 50.679, 134.221 49.162, 133.757 47.770 C 133.355 46.564, 123.214 41.056, 121.332 41.022 C 120.689 41.010, 116.910 43.587, 112.934 46.750 M 72.951 62.362 C 63.885 64.807, 56.795 70.946, 55.585 77.400 C 54.038 85.645, 62.999 97.437, 73.087 100.433 C 88.179 104.915, 112.851 99.070, 121.106 89.056 C 126.307 82.745, 124.828 75.783, 116.691 68.283 C 110.578 62.648, 106.999 61, 100.875 61 L 95.651 61 97.778 63.264 C 100.387 66.041, 103 72.095, 103 75.363 C 103 76.697, 102.087 80.744, 100.972 84.355 C 99.079 90.485, 98.697 90.992, 95.222 91.977 C 93.175 92.557, 88.929 93.312, 85.786 93.654 C 79.460 94.344, 75.701 92.783, 74.489 88.965 C 73.515 85.895, 77.911 77.654, 84.878 69.491 C 90.447 62.965, 90.699 62.457, 88.672 61.850 C 85.170 60.801, 77.853 61.040, 72.951 62.362 M 87.202 71.003 C 79.421 80.247, 76.112 86.364, 77.605 88.747 C 78.993 90.964, 84.435 91.467, 91.401 90.021 C 96.647 88.932, 96.747 88.843, 98.362 83.843 C 100.631 76.817, 100.443 71.950, 97.750 67.975 C 96.513 66.149, 94.979 64.483, 94.343 64.275 C 93.706 64.066, 90.493 67.094, 87.202 71.003 M 129.293 117.450 C 117.108 120.211, 104 128.179, 104 132.824 C 104 135.061, 107.206 136.393, 115.182 137.470 C 118.994 137.985, 120.768 137.645, 124.725 135.639 C 132.858 131.518, 140.632 129.697, 147.678 130.262 C 153.419 130.723, 154 130.593, 154 128.853 C 154 125.521, 151.261 120.217, 148.661 118.514 C 145.193 116.241, 136.690 115.774, 129.293 117.450" stroke="none" fill="black" fill-rule="evenodd"/>
</svg>