<svg xmlns="http://www.w3.org/2000/svg" width="200" height="200" viewBox="0 0 200 200" version="1.1">
	<path d="M 91.761 8.085 C 87.504 8.535, 79.854 9.566, 74.761 10.376 C 52.373 13.934, 47.861 14.243, 41.254 12.668 C 34.193 10.985, 32.099 12.042, 36.091 15.275 C 37.416 16.348, 38.556 17.625, 38.625 18.113 C 38.694 18.601, 38.806 19.408, 38.875 19.906 C 38.944 20.405, 39.788 20.608, 40.750 20.358 C 41.712 20.108, 46.100 21.958, 50.500 24.469 C 58.709 29.156, 67.815 33, 70.704 33 C 74.493 33, 70.671 34.151, 62.391 35.504 C 44.559 38.418, 35 42.097, 35 46.048 C 35 49.751, 39.021 50.226, 69.093 50.077 L 97.686 49.935 101.431 61.616 C 105.405 74.015, 106.715 82.096, 105.335 85.701 C 104.560 87.724, 103.905 87.217, 97.246 79.448 C 93.261 74.799, 90 70.405, 90 69.685 C 90 67.555, 84.839 63.387, 80 61.608 C 69.756 57.841, 53.276 57.929, 48.072 61.778 C 46.657 62.824, 44.884 64.937, 44.132 66.473 C 41.631 71.577, 45.323 79.721, 54.876 90.174 C 57.694 93.258, 60 96.055, 60 96.390 C 60 96.726, 56.440 97, 52.088 97 C 38.728 97, 26.023 100.153, 20.750 104.776 C 17.783 107.377, 18.747 108, 25.750 108.008 C 34.952 108.019, 49.389 109.723, 55.750 111.549 C 59.644 112.667, 61 113.533, 61 114.903 C 61 115.919, 58.075 119.704, 54.500 123.314 C 49.401 128.463, 48 130.525, 48 132.880 C 48 134.531, 48.462 136.167, 49.026 136.516 C 49.644 136.898, 49.064 138.324, 47.566 140.104 C 38.140 151.306, 48.778 178.926, 65.246 186.010 C 74.674 190.066, 86.682 187.886, 96.828 180.275 L 100.157 177.779 101.776 180.139 C 109.005 190.679, 122.613 195.228, 137 191.915 C 148.376 189.295, 162.270 179.384, 165.540 171.558 C 169.324 162.503, 165.389 155.420, 154.764 152.158 L 148.725 150.304 155.264 149.634 C 163.457 148.795, 167.757 147.323, 169.044 144.918 C 170.532 142.137, 167.185 139.338, 159.978 137.334 C 155.845 136.185, 154.268 135.332, 154.972 134.628 C 155.537 134.063, 156 133.308, 156 132.950 C 156 132.593, 151.296 130.095, 145.546 127.400 L 135.092 122.500 135.629 118.500 C 135.925 116.300, 136.315 114.004, 136.496 113.397 C 136.677 112.790, 139.607 112.041, 143.007 111.733 C 150.513 111.052, 157.787 107.528, 160.195 103.405 C 161.161 101.751, 162.390 97.496, 162.926 93.949 C 163.462 90.402, 164.370 84.800, 164.944 81.500 C 167.438 67.170, 165.359 28.583, 161.611 19.612 C 159.067 13.523, 155.324 13.598, 151.685 19.809 C 149.417 23.680, 143.776 45.987, 141.453 60.267 C 140.489 66.189, 139.431 70.764, 139.101 70.434 C 138.770 70.103, 138.650 60.758, 138.833 49.666 C 139.206 27.056, 138.476 22.247, 133.815 16.592 C 126.923 8.231, 114.374 5.693, 91.761 8.085 M 89.500 11.012 C 85.650 11.488, 80.925 12.188, 79 12.567 L 75.500 13.256 78.500 14.256 C 82.562 15.609, 87.913 19.715, 89.148 22.426 C 89.895 24.064, 92.162 25.235, 97.797 26.893 C 114.155 31.706, 125.785 38.940, 123.361 42.795 C 121.358 45.980, 116.220 48.098, 109.035 48.700 C 105.130 49.028, 101.701 49.675, 101.415 50.138 C 101.128 50.602, 102.464 55.840, 104.384 61.778 C 108.832 75.537, 109.606 81.262, 107.746 86.633 C 106.461 90.345, 106.485 90.992, 107.991 92.988 C 109.594 95.114, 109.926 95.157, 115.584 93.990 C 123.241 92.410, 130.877 89.475, 133.887 86.956 L 136.273 84.958 136.160 56.424 C 136.086 37.532, 135.644 26.545, 134.854 23.909 C 133.413 19.097, 127.625 13.584, 122.321 11.971 C 117.353 10.460, 98.434 9.907, 89.500 11.012 M 61 15.712 C 59.211 16.110, 62.195 17.210, 71.500 19.580 C 86.779 23.473, 86.620 23.452, 84.939 21.427 C 81.239 16.968, 68.752 13.987, 61 15.712 M 47.604 18.831 C 46.940 19.906, 60.894 27.247, 67.932 29.524 C 77.550 32.636, 87 31.620, 87 27.474 C 87 26.647, 81.065 24.741, 70.250 22.094 C 53.467 17.986, 48.563 17.279, 47.604 18.831 M 155.163 19.303 C 152.440 22.585, 147.808 40.088, 144.130 61 C 141.988 73.179, 137 106.132, 137 108.105 C 137 109.796, 148.784 108.680, 152.786 106.611 C 157.154 104.352, 159.075 101.061, 159.994 94.261 C 160.422 91.093, 161.324 85.800, 161.997 82.500 C 163.879 73.278, 162.758 34.617, 160.347 25.571 C 158.453 18.466, 157.158 16.900, 155.163 19.303 M 88.703 30.531 C 86.910 32.996, 86.911 33, 89.703 33.007 C 91.241 33.011, 95.537 33.301, 99.250 33.652 C 103.284 34.033, 106 33.908, 106 33.341 C 106 32.476, 93.602 27.958, 91.429 28.031 C 90.918 28.049, 89.691 29.174, 88.703 30.531 M 109 34.921 C 109 35.427, 107.681 36.131, 106.069 36.485 C 102.358 37.300, 101.055 38.886, 100.306 43.501 L 99.709 47.180 105.605 46.501 C 121.815 44.633, 124.538 41.788, 115.057 36.627 C 109.787 33.759, 109 33.537, 109 34.921 M 70.675 37.056 C 55.698 38.797, 38.777 43.240, 38.584 45.483 C 38.417 47.433, 46.940 47.899, 71.750 47.297 C 95.552 46.720, 97 46.577, 97 44.810 C 97 43.779, 97.652 41.375, 98.449 39.468 L 99.898 36 88.699 36.131 C 82.540 36.204, 74.429 36.620, 70.675 37.056 M 56.500 61.431 C 55.950 61.648, 54.251 62.101, 52.725 62.438 C 49.004 63.259, 46 66.430, 46 69.533 C 46 73.788, 50.691 81.635, 57.637 88.998 L 64.242 96 78.186 96 C 90.182 96, 92.818 95.704, 97.065 93.877 C 99.779 92.709, 102 91.214, 102 90.555 C 102 89.675, 91.715 76.429, 88.507 73.178 C 88.333 73.001, 86.234 73.519, 83.845 74.328 C 81.455 75.137, 76.841 76.131, 73.591 76.535 C 68.254 77.199, 67.746 77.104, 68.341 75.553 C 68.704 74.609, 69 73.036, 69 72.058 C 69 71.079, 70.103 68.654, 71.451 66.668 C 72.798 64.682, 73.559 62.846, 73.142 62.587 C 72.097 61.942, 57.737 60.944, 56.500 61.431 M 73.161 68.547 C 71.714 71.721, 71.671 74, 73.057 74 C 75.010 74, 83.491 71.736, 84.321 70.993 C 85.618 69.832, 80.019 66, 77.026 66 C 75.098 66, 73.988 66.732, 73.161 68.547 M 134.209 90.030 C 131.222 92.452, 122.656 95.629, 116.711 96.521 C 114.120 96.909, 112 97.420, 112 97.656 C 112 97.893, 113.827 100.506, 116.060 103.463 L 120.120 108.841 127.062 109.170 C 130.880 109.352, 134.012 109.275, 134.022 109 C 134.031 108.725, 134.675 104.008, 135.453 98.517 C 136.231 93.026, 136.785 88.452, 136.684 88.353 C 136.583 88.254, 135.469 89.008, 134.209 90.030 M 102 94.500 C 100.681 96.089, 101.659 96.452, 104.412 95.395 C 105.279 95.063, 105.740 94.388, 105.435 93.895 C 104.625 92.585, 103.412 92.798, 102 94.500 M 91.500 99.153 C 86 99.627, 76.325 99.764, 70 99.458 C 56.357 98.797, 38.668 100.239, 31 102.637 L 25.500 104.357 30.500 105.079 C 33.250 105.476, 39.904 106.297, 45.288 106.903 C 50.671 107.509, 56.730 108.696, 58.753 109.541 C 66.028 112.581, 65.762 115.515, 57.428 124.148 C 49.007 132.870, 48.927 135.123, 57 136.241 C 62.674 137.028, 73.250 141.732, 73.319 143.500 C 73.393 145.420, 69.846 145.145, 60.706 142.523 L 51.500 139.881 49.152 142.611 C 47.041 145.064, 46.842 146.104, 47.187 152.920 C 47.674 162.565, 51.320 170.925, 57.824 177.314 C 68.760 188.057, 81.626 188.051, 96.277 177.296 C 99.308 175.072, 101.511 174.032, 101.740 174.719 C 102.841 178.024, 108.472 184.193, 112.591 186.606 C 119.269 190.520, 130.314 191.117, 139.742 188.075 C 153.150 183.749, 164 173.701, 164 165.609 C 164 157.859, 156.717 153.730, 140.759 152.436 L 132.206 151.742 135.603 158.491 C 137.471 162.203, 139 166.504, 139 168.048 C 139 171.738, 134.881 175, 130.222 175 L 126.713 175 127.406 165.750 C 127.787 160.662, 128.350 155.488, 128.658 154.250 C 129.407 151.234, 127.091 151.286, 122.165 154.396 C 116.165 158.184, 102.986 164.560, 97.319 166.417 C 90.872 168.530, 83.142 168.198, 81.602 165.741 C 78.938 161.491, 87.927 153.692, 99.848 149.909 C 103.565 148.730, 110.582 147.562, 115.750 147.263 C 120.838 146.968, 125 146.557, 125 146.350 C 125 146.142, 123.987 144.383, 122.750 142.442 C 120.787 139.361, 120.117 138.984, 117.500 139.482 C 106.857 141.508, 107.588 141.693, 103.184 135.859 C 98.798 130.049, 94.025 120.594, 94.010 117.684 C 93.980 112.105, 99.507 109, 109.468 109 C 113.061 109, 116 108.763, 116 108.474 C 116 108.185, 114.329 105.710, 112.287 102.974 C 108.098 97.364, 109.424 97.608, 91.500 99.153 M 100 113.288 C 95.234 115.687, 96.962 122.845, 104.953 133.804 C 108.066 138.074, 108.129 138.103, 112.796 137.426 C 115.383 137.051, 117.642 136.622, 117.815 136.474 C 117.988 136.326, 116.750 133.620, 115.065 130.461 C 109.794 120.585, 111.601 116.081, 120.248 117.542 L 124.346 118.234 121.923 115.172 C 119.566 112.194, 119.268 112.110, 111 112.070 C 106.078 112.047, 101.448 112.559, 100 113.288 M 126.247 116.250 C 131.127 122.167, 132.700 122.236, 133.152 116.553 L 133.514 112 128.128 112 L 122.741 112 126.247 116.250 M 115 122.110 C 115 123.271, 116.434 126.910, 118.186 130.198 C 121.176 135.808, 121.553 136.139, 124.311 135.588 C 125.927 135.265, 128.034 135, 128.993 135 C 130.288 135, 130.883 133.908, 131.305 130.759 C 132.003 125.556, 130.599 123.733, 124.221 121.560 C 117.712 119.342, 115 119.504, 115 122.110 M 137.500 128.524 C 142.675 132.861, 148.044 135.286, 150.273 134.292 C 151.959 133.539, 151.013 132.827, 144.173 129.701 C 134.639 125.342, 133.454 125.134, 137.500 128.524 M 134 132.500 C 134 134.701, 134.428 135, 137.577 135 L 141.153 135 138.182 132.500 C 136.548 131.125, 134.939 130, 134.606 130 C 134.273 130, 134 131.125, 134 132.500 M 124 138.614 C 124 140.191, 128.420 146.859, 129.161 146.400 C 129.623 146.115, 130 144.109, 130 141.941 C 130 138.229, 129.826 138, 127 138 C 125.350 138, 124 138.276, 124 138.614 M 133 140.795 C 133 142.468, 132.745 144.502, 132.433 145.315 C 131.997 146.449, 132.988 146.939, 136.683 147.416 C 142.519 148.170, 160.345 146.633, 164.500 145.017 C 167.392 143.893, 167.430 143.799, 165.546 142.416 C 162.081 139.872, 156.751 138.811, 144.750 138.276 L 133 137.753 133 140.795 M 104 151.591 C 92.723 154.585, 82.998 160.946, 84.342 164.449 C 85.136 166.519, 87.467 166.405, 95.645 163.899 C 102.223 161.883, 117.544 154.570, 121.571 151.523 C 123.320 150.200, 122.847 150.067, 116.500 150.098 C 112.650 150.116, 107.025 150.789, 104 151.591 M 130.672 160.390 C 129.587 168.284, 129.826 172, 131.418 172 C 136.579 172, 137.292 168.345, 133.659 160.500 L 131.344 155.500 130.672 160.390" stroke="none" fill="black" fill-rule="evenodd"/>
</svg>