<svg xmlns="http://www.w3.org/2000/svg" width="200" height="200" viewBox="0 0 200 200" version="1.1">
	<path d="M 135.833 8.868 C 135.650 9.345, 122 10.264, 105.500 10.909 C 68.523 12.355, 64.885 12.725, 64.264 15.097 C 64.007 16.082, 62.829 17.025, 61.648 17.194 C 60.350 17.379, 59.380 18.338, 59.198 19.617 C 58.785 22.511, 63.352 26.166, 73.911 31.394 C 83.550 36.167, 82.876 36.153, 101.612 31.959 L 110.723 29.920 116.112 32.029 C 126.259 36.001, 134 41.382, 134 44.465 C 134 47.250, 129.920 48.238, 119.129 48.065 C 113.318 47.973, 108.418 47.751, 108.240 47.573 C 108.062 47.395, 108.661 45.388, 109.571 43.114 C 112.013 37.011, 110.743 36, 100.628 35.998 C 92.594 35.996, 61.905 38.800, 61.067 39.613 C 60.828 39.844, 61.053 40.439, 61.567 40.935 C 62.121 41.470, 68.134 41.269, 76.391 40.438 C 91.331 38.935, 106.598 38.265, 107.410 39.076 C 107.685 39.351, 107.299 41.359, 106.552 43.538 L 105.195 47.500 95.847 48.138 C 90.706 48.489, 77.649 48.827, 66.832 48.888 C 41.790 49.031, 40.004 48.493, 49.089 43.548 C 55.214 40.214, 54.542 37.662, 48.369 40.813 C 40.206 44.979, 39.045 49.325, 45.577 51.266 C 47.184 51.744, 61.438 51.856, 77.250 51.515 C 96.481 51.101, 106 51.233, 106 51.913 C 106 53.594, 112.018 59.916, 116.655 63.107 C 120.974 66.078, 121 66.133, 121 72.147 C 121 75.652, 120.319 79.633, 119.381 81.610 C 117.532 85.506, 112.363 90.240, 110.441 89.798 C 108.608 89.375, 95 70.946, 95 68.886 C 95 66.278, 89.464 62.189, 83.683 60.527 C 80.833 59.707, 74.675 58.614, 70 58.097 C 60.161 57.010, 59.623 57.273, 54.893 65.500 C 47.104 79.049, 55.036 91.121, 75 96.100 C 82.395 97.944, 99.271 97.700, 104.740 95.670 C 108.735 94.187, 109.038 94.202, 109.967 95.938 C 110.811 97.515, 110.488 97.865, 107.726 98.368 C 105.952 98.692, 86.950 99.442, 65.500 100.035 C 44.050 100.629, 26.140 101.471, 25.699 101.908 C 25.259 102.344, 33.771 107.156, 44.615 112.601 C 55.458 118.045, 64.788 123.242, 65.347 124.149 C 66.101 125.373, 65.572 127.820, 63.295 133.649 C 58.105 146.932, 57.698 145.737, 67.235 145.241 L 75.500 144.811 68 149.480 C 58.455 155.424, 54.230 159.499, 52.854 164.093 C 50.546 171.797, 56.201 179.217, 69.750 186.262 L 76.500 189.771 85.932 187.835 C 102.445 184.446, 108.588 180.517, 104.478 175.976 C 103.542 174.941, 99.729 172.284, 96.004 170.072 C 88.769 165.774, 87.443 164.102, 89.319 161.650 C 90.778 159.743, 98.747 155.810, 105.750 153.541 C 109.669 152.270, 111 151.353, 111 149.920 C 111 145.694, 112.809 148.418, 114.874 155.750 C 122.415 182.536, 130.831 193.940, 143.090 193.984 C 149.025 194.005, 157.791 189.676, 164.749 183.289 C 169.520 178.909, 170.140 177.817, 172.012 170.500 C 174.418 161.094, 174.778 150.311, 172.897 144 C 170.194 134.933, 159.549 127.405, 146.711 125.479 C 142.086 124.786, 142 124.707, 142.015 121.136 C 142.024 119.136, 142.361 117.025, 142.765 116.444 C 143.196 115.825, 147.301 115.411, 152.679 115.444 C 161.509 115.498, 161.975 115.388, 164.935 112.557 C 166.628 110.938, 168.457 108.013, 169.001 106.057 C 170.276 101.465, 170.263 89.213, 168.974 81.269 C 168.061 75.646, 168.152 74.848, 169.909 73.091 C 172.583 70.417, 173.387 63.735, 172.676 50.079 C 171.629 29.961, 167.230 15.835, 161.813 15.195 C 156.965 14.622, 153.618 21.142, 149.592 39 C 147.127 49.939, 146.764 49.983, 145.512 39.500 C 143.747 24.716, 139.501 8, 137.512 8 C 136.772 8, 136.017 8.391, 135.833 8.868 M 95 14.050 C 87.025 14.434, 79.150 14.848, 77.500 14.970 C 75.850 15.091, 80.623 16.002, 88.106 16.995 C 106.278 19.404, 112.496 20.771, 115.186 22.950 C 117.127 24.521, 117.249 24.996, 116.075 26.410 C 115.327 27.311, 114.892 28.172, 115.107 28.322 C 115.323 28.473, 118.875 30.233, 123 32.234 C 132.377 36.783, 137.526 41.767, 136.612 45.410 C 135.463 49.990, 131.255 51.218, 119.429 50.426 C 110.489 49.827, 109 49.943, 109 51.236 C 109 52.735, 114.962 58.611, 120.494 62.564 C 123.080 64.412, 123.426 65.320, 123.804 71.264 C 124.332 79.549, 121.632 85.898, 115.895 89.861 C 111.707 92.755, 111.201 94.092, 113.553 96.044 C 115.364 97.547, 122.598 96.468, 134.593 92.908 C 142.907 90.439, 142.095 92.144, 144.130 72.900 C 145.177 62.995, 145.117 59.268, 143.720 47.383 C 142.819 39.728, 141.102 28.860, 139.904 23.233 L 137.725 13 123.613 13.175 C 115.851 13.272, 102.975 13.665, 95 14.050 M 159.743 18.400 C 154.498 23.645, 148.975 49.962, 148.120 73.787 C 147.655 86.767, 147.161 91.283, 146.138 91.915 C 144.688 92.811, 142.288 110.622, 143.460 111.793 C 144.724 113.058, 158.027 113.232, 160.948 112.022 C 165.448 110.158, 167.317 105.101, 167.237 95.005 C 167.178 87.412, 165.871 76.804, 164.368 71.711 C 163.930 70.226, 164.268 70.029, 166.358 70.554 C 169.053 71.230, 169.127 71.053, 170.333 61 C 171.578 50.618, 167.049 24.330, 163.123 19.151 C 161.491 16.998, 161.208 16.935, 159.743 18.400 M 62.540 19.935 C 61.741 21.228, 67.141 25.103, 75.705 29.381 L 82.910 32.980 94.028 30.862 C 100.142 29.698, 104.775 28.390, 104.323 27.955 C 102.375 26.083, 71.214 19, 64.928 19 C 63.933 19, 62.858 19.421, 62.540 19.935 M 90.500 20.654 C 91.600 20.956, 96.485 22.475, 101.355 24.030 C 109.608 26.664, 113 26.939, 113 24.973 C 113 23.984, 101.556 21.374, 94 20.640 C 90.975 20.346, 89.400 20.352, 90.500 20.654 M 59.646 63.219 C 53.554 71.206, 52.896 77.404, 57.489 83.526 C 62.233 89.848, 76.336 94.943, 89.201 94.983 C 95.153 95.001, 104.923 93.322, 106.298 92.045 C 106.885 91.500, 98.885 79.439, 94.428 74.149 C 94.265 73.957, 93.099 74.762, 91.836 75.938 C 89.275 78.324, 85.665 79.529, 84.057 78.535 C 82.159 77.362, 82.996 73.579, 86.045 69.549 C 88.456 66.362, 88.759 65.445, 87.612 64.803 C 85.294 63.505, 74.954 61.185, 68.366 60.483 C 62.271 59.835, 62.214 59.852, 59.646 63.219 M 87.750 71.470 C 84.566 75.849, 86.236 77.764, 89.977 74.023 C 91.066 72.934, 91.692 71.361, 91.370 70.523 C 90.573 68.445, 89.803 68.646, 87.750 71.470 M 127.859 97.291 L 116.217 100.279 118.773 104.510 C 121.236 108.587, 121.552 108.763, 127.415 109.328 C 130.762 109.650, 134.933 110.208, 136.684 110.568 C 139.697 111.189, 139.895 111.044, 140.380 107.862 C 141.767 98.771, 141.879 94.003, 140.703 94.152 C 140.041 94.235, 134.261 95.648, 127.859 97.291 M 107.500 101.098 C 104.750 101.555, 89.675 102.187, 74 102.502 C 58.325 102.816, 43.034 103.328, 40.021 103.638 L 34.541 104.201 49.696 111.878 C 65.918 120.095, 69 122.224, 69 125.210 C 69 126.255, 67.650 130.282, 66 134.160 C 64.350 138.037, 63 141.509, 63 141.874 C 63 142.240, 66.414 142.366, 70.586 142.156 C 78.585 141.752, 81.290 142.741, 79.170 145.296 C 78.539 146.055, 74.260 148.976, 69.661 151.787 C 54.178 161.248, 51.485 167.231, 59.026 175.412 C 61.240 177.814, 66.143 181.404, 69.921 183.389 L 76.791 186.999 84.645 185.383 C 93.348 183.592, 103 180.280, 103 179.083 C 103 177.942, 100.084 175.614, 94.983 172.681 C 80.394 164.292, 83.623 157.979, 106.265 150.625 C 107.236 150.309, 108.446 148.958, 108.953 147.623 C 110.184 144.385, 111.891 143.462, 113.559 145.132 C 114.311 145.884, 116.555 151.875, 118.547 158.444 C 124.103 176.774, 129.333 186.001, 136.200 189.589 C 142.823 193.049, 153.166 190.007, 162.391 181.887 C 167.413 177.467, 169.193 173.129, 171.168 160.500 C 172.839 149.819, 171.137 143.164, 165.159 137.003 C 161.420 133.149, 159.146 131.786, 153.645 130.101 C 144.653 127.345, 142.165 127.376, 141.581 130.250 C 140.430 135.909, 140.244 148.660, 141.242 153.418 C 141.847 156.304, 141.987 159.528, 141.551 160.582 C 140.840 162.308, 140.627 162.199, 139.425 159.500 C 138.691 157.850, 138.070 155.289, 138.045 153.810 C 137.992 150.619, 133.756 138.493, 130.297 131.626 L 127.841 126.753 113.519 127.184 L 99.196 127.615 100.154 125.057 C 102.783 118.039, 111.423 110, 116.338 110 C 117.252 110, 118 109.702, 118 109.338 C 118 108.582, 113.025 99.930, 112.708 100.134 C 112.594 100.207, 110.250 100.641, 107.500 101.098 M 113.312 113.932 C 110.882 115.043, 107.835 117.626, 106.055 120.083 C 104.367 122.413, 103.102 124.411, 103.243 124.522 C 103.891 125.033, 125.997 123.671, 125.977 123.122 C 125.906 121.248, 120.273 112.487, 119 112.271 C 118.175 112.132, 115.615 112.879, 113.312 113.932 M 124 112.478 C 124 112.741, 125.219 115.441, 126.708 118.478 C 129.416 123.998, 129.418 124, 134.083 124 C 138.510 124, 138.782 123.839, 139.375 120.875 C 140.609 114.707, 140.343 114.239, 134.951 113.083 C 129.718 111.961, 124 111.645, 124 112.478 M 134.366 134.387 C 136.090 138.450, 137.554 141.713, 137.620 141.637 C 137.686 141.562, 138.050 138.238, 138.430 134.250 L 139.121 127 135.177 127 L 131.232 127 134.366 134.387" stroke="none" fill="black" fill-rule="evenodd"/>
</svg>