<svg xmlns="http://www.w3.org/2000/svg" width="200" height="200" viewBox="0 0 200 200" version="1.1">
	<path d="M 102.500 7.164 C 101.400 7.771, 99.307 9.374, 97.848 10.727 L 95.196 13.186 85.922 11.593 C 73.724 9.498, 69.753 9.567, 66.861 11.924 C 64.500 13.848, 64.500 13.849, 66.363 17.341 C 67.387 19.262, 71.100 23.166, 74.613 26.016 C 78.126 28.866, 81 31.313, 81 31.452 C 81 31.592, 78.862 31.502, 76.250 31.253 C 69.820 30.639, 51.726 32.536, 48.383 34.175 C 46.896 34.904, 44.801 36.688, 43.726 38.141 C 42.061 40.391, 41.936 41.278, 42.880 44.141 L 43.988 47.500 64.744 47.280 L 85.500 47.060 80.301 48.873 C 67.118 53.469, 60.002 65.179, 63.046 77.267 C 64.411 82.688, 69.717 89.294, 74.802 91.903 C 78.388 93.743, 78.327 93.748, 54.450 93.624 C 34.940 93.523, 29.961 93.778, 27.592 95 C 20.055 98.888, 21.834 102.747, 35.527 112.219 C 46.775 120, 62.364 128.245, 71.874 131.444 C 78.114 133.543, 78.519 133.866, 78.825 136.994 L 79.150 140.315 67.325 139.655 C 60.821 139.292, 54.598 138.748, 53.496 138.445 C 52.020 138.040, 51.034 138.673, 49.746 140.852 C 47.474 144.699, 47.530 148.264, 49.896 150.406 C 52.378 152.652, 63.637 154.210, 72.500 153.532 L 79.500 152.997 75.210 154.596 C 67.674 157.402, 65.198 164.264, 67.079 177.127 L 68.228 184.987 74.364 188.001 C 83.684 192.579, 93.907 194.429, 102.327 193.063 C 118.817 190.388, 130 179.961, 130 167.261 C 130 163.167, 129.462 161.515, 127.291 158.934 C 124.056 155.089, 117.828 152.064, 113 151.992 C 110.036 151.947, 109.780 151.776, 111.329 150.875 C 112.965 149.925, 119.313 149.985, 144.779 151.192 C 148.964 151.391, 153.398 148.163, 153.820 144.609 C 154.284 140.715, 149.906 133.906, 144.084 129.466 C 141.339 127.372, 139.266 125.378, 139.479 125.034 C 139.691 124.691, 146.034 120.605, 153.575 115.955 C 174.115 103.287, 179.561 97.464, 174.913 93.134 C 172.835 91.198, 165.303 89, 160.747 89 C 159.562 89, 155.144 86.900, 150.929 84.333 C 143.481 79.797, 143.268 79.559, 143.365 75.870 C 143.498 70.786, 139.536 66.764, 128.200 60.476 C 117.388 54.478, 109 49.047, 109 48.045 C 109 47.626, 116.088 47.036, 124.750 46.734 C 133.412 46.432, 142.975 45.661, 146 45.021 C 155.263 43.062, 164.125 39.879, 163.737 38.652 C 163.142 36.772, 150.426 30.841, 135.744 25.597 L 122.018 20.694 118.983 15.316 C 114.506 7.382, 107.966 4.148, 102.500 7.164 M 101.635 11.073 C 98.749 13.343, 98.222 15, 100.387 15 C 101.149 15, 105.424 16.057, 109.887 17.350 C 114.349 18.642, 118 19.483, 118 19.218 C 118 17.929, 113.585 11.822, 111.695 10.499 C 108.706 8.405, 104.739 8.631, 101.635 11.073 M 68.555 13.911 C 67.340 15.877, 70.489 19.465, 79.159 25.999 C 86.491 31.524, 87.504 32.015, 88.159 30.362 C 88.565 29.338, 89.979 25.724, 91.300 22.331 L 93.702 16.162 89.101 14.986 C 81.984 13.167, 69.421 12.509, 68.555 13.911 M 94.199 22.250 C 93.130 25.138, 91.942 28.512, 91.560 29.750 L 90.865 32 105.837 32 L 120.810 32 120.267 27.750 C 119.969 25.413, 119.613 23.364, 119.477 23.198 C 119.061 22.691, 98.830 17, 97.443 17 C 96.728 17, 95.269 19.362, 94.199 22.250 M 123 28.145 C 123 31.985, 123.119 32.136, 125.750 31.633 C 127.263 31.344, 130.456 30.811, 132.846 30.449 C 138.081 29.657, 137.445 28.905, 129.250 26.197 L 123 24.131 123 28.145 M 140 30.903 C 140 31.383, 135.966 32.773, 131.035 33.991 C 124.148 35.693, 121.924 36.663, 121.445 38.172 C 120.573 40.921, 115.166 43.977, 111 44.075 C 109.075 44.121, 108.049 44.380, 108.721 44.652 C 110.935 45.550, 141.759 43.078, 149.202 41.407 C 159.772 39.033, 160.356 38.502, 155 36.136 C 145.852 32.095, 140 30.053, 140 30.903 M 56.500 35.007 C 53.750 35.423, 50.252 36.344, 48.726 37.053 C 45.915 38.360, 44.017 42.537, 45.623 43.879 C 46.105 44.282, 55.258 44.362, 65.961 44.056 L 85.423 43.500 86.177 40 C 87.455 34.071, 87.279 33.988, 73.781 34.125 C 67.027 34.193, 59.250 34.590, 56.500 35.007 M 94 36.011 C 94.825 36.550, 97.827 37.873, 100.670 38.952 L 105.841 40.912 111.170 37.974 L 116.500 35.036 104.500 35.033 C 96.310 35.032, 92.976 35.342, 94 36.011 M 88.732 40.250 C 88.460 42.038, 88.296 43.550, 88.369 43.611 C 89.261 44.362, 105 44.701, 105 43.969 C 105 43.436, 104.438 43, 103.750 42.999 C 103.063 42.999, 99.647 41.649, 96.160 39.999 C 92.673 38.350, 89.687 37, 89.524 37 C 89.361 37, 89.004 38.462, 88.732 40.250 M 114 39.500 C 112.398 40.416, 112.060 40.942, 113.059 40.965 C 113.916 40.984, 115.491 40.339, 116.559 39.532 C 119.045 37.652, 117.272 37.630, 114 39.500 M 94 48.042 C 97.575 48.470, 101.767 49.311, 103.315 49.910 C 107.503 51.531, 108.526 51.239, 106.500 49 C 104.936 47.272, 103.520 47.018, 96.095 47.131 L 87.500 47.263 94 48.042 M 86.583 52.670 C 85.669 56.903, 83.023 82.874, 83.011 87.731 C 83.001 91.466, 83.307 92.039, 85.621 92.620 C 90.228 93.776, 103.166 92.133, 114.500 88.952 C 126.248 85.655, 137 81.298, 137 79.835 C 137 79.344, 132.058 76.517, 126.018 73.553 L 115.037 68.163 111.914 71.080 C 108.135 74.610, 103.695 75.916, 99 74.878 C 92.660 73.477, 88.727 66.131, 92.597 62.919 C 94.708 61.168, 103.310 61.446, 108.906 63.446 C 111.329 64.313, 113.406 64.904, 113.521 64.761 C 114.374 63.694, 116 59.923, 116 59.011 C 116 56.679, 102.409 51.789, 92.347 50.499 C 87.295 49.852, 87.182 49.894, 86.583 52.670 M 77.491 52.865 C 70.176 56.188, 65.022 64.204, 65.006 72.282 C 64.993 78.375, 70.229 86.470, 76.200 89.589 C 77.686 90.365, 79.095 91, 79.333 91 C 79.571 91, 80.059 87.513, 80.418 83.250 C 81.389 71.738, 83 56.876, 83.617 53.750 C 84.267 50.450, 83.160 50.290, 77.491 52.865 M 117.772 62.352 L 116.145 65.764 127.322 71.222 C 140.385 77.601, 140.397 77.604, 140.842 75.454 C 141.338 73.061, 136.487 68.403, 128.814 63.905 C 119.502 58.447, 119.626 58.465, 117.772 62.352 M 95.250 64.610 C 93.425 65.423, 93.723 68.439, 95.816 70.333 C 99.821 73.958, 107.158 73.130, 110.891 68.632 C 111.946 67.360, 111.554 66.966, 108.318 66.044 C 103.326 64.622, 96.825 63.909, 95.250 64.610 M 133.839 84.810 C 130.175 86.670, 123.650 89.281, 119.339 90.611 C 115.027 91.941, 112.850 92.787, 114.500 92.490 C 116.150 92.193, 123.350 91.684, 130.500 91.359 C 142.836 90.798, 143.641 90.879, 146.250 92.956 C 150.474 96.319, 149.907 99.548, 144.145 104.949 C 141.474 107.452, 136.012 111.119, 132.007 113.098 L 124.725 116.696 130.234 119.848 C 133.264 121.582, 136.028 123, 136.375 123 C 136.723 123, 143.365 119.063, 151.137 114.250 C 167.038 104.403, 174.669 98.186, 173.761 95.819 C 173.135 94.189, 166.009 92.002, 161.307 91.997 C 159.763 91.996, 155.800 90.377, 152.500 88.401 C 139.537 80.635, 141.369 80.988, 133.839 84.810 M 108.813 93.683 C 109.534 93.972, 110.397 93.936, 110.729 93.604 C 111.061 93.272, 110.471 93.036, 109.417 93.079 C 108.252 93.127, 108.015 93.364, 108.813 93.683 M 121.954 94.452 C 116.703 95.201, 110.403 96.353, 107.954 97.013 C 105.322 97.722, 99.204 98.067, 93 97.856 L 82.500 97.500 82.227 114.685 L 81.953 131.870 86.727 132.685 C 95.253 134.141, 111.866 133.383, 120.205 131.160 C 127.603 129.187, 133 126.599, 133 125.024 C 133 124.614, 130.345 122.864, 127.101 121.134 L 121.201 117.990 114.851 119.737 C 110.632 120.897, 104.864 121.486, 97.669 121.492 C 85.681 121.501, 84 120.674, 84 114.763 C 84 110.218, 87.963 107, 93.560 107 C 99.258 107, 108.287 109.268, 115.776 112.579 L 121.390 115.062 129.580 111.132 C 139.093 106.568, 146 100.830, 146 97.491 C 146 96.238, 145.250 94.926, 144.333 94.574 C 140.763 93.204, 131.075 93.151, 121.954 94.452 M 104.813 94.683 C 105.534 94.972, 106.397 94.936, 106.729 94.604 C 107.061 94.272, 106.471 94.036, 105.417 94.079 C 104.252 94.127, 104.015 94.364, 104.813 94.683 M 30.203 97.057 C 26.132 98.322, 25.194 100.452, 27.557 103.062 C 32.706 108.753, 59.573 124.220, 71.655 128.451 L 78.500 130.847 79.064 114.174 C 79.374 105.003, 79.514 97.340, 79.375 97.144 C 78.713 96.213, 33.179 96.132, 30.203 97.057 M 88.200 111.200 C 86.462 112.938, 86.713 117.676, 88.582 118.393 C 92.952 120.070, 116 118.054, 116 115.994 C 116 115.593, 112.416 114.080, 108.035 112.632 C 99.574 109.836, 90.238 109.162, 88.200 111.200 M 132.098 129.502 C 124.886 134.595, 104.119 137.463, 88.250 135.555 L 82 134.804 82 137.540 L 82 140.276 88.250 139.647 C 96.551 138.812, 128.689 138.690, 129.982 139.489 C 132.034 140.757, 130.907 143.001, 127.250 144.932 L 123.500 146.912 128.566 146.956 C 131.353 146.980, 136.193 147.473, 139.322 148.052 C 153.445 150.662, 154.803 141.383, 141.812 131.040 C 139.022 128.818, 136.460 127.022, 136.119 127.049 C 135.779 127.076, 133.969 128.180, 132.098 129.502 M 51.134 143.606 C 50.119 145.834, 50.150 146.578, 51.307 147.736 C 53.313 149.742, 59.378 150.951, 67.500 150.962 C 77.611 150.977, 79 150.438, 79 146.502 L 79 143.238 69.250 142.585 C 63.888 142.226, 57.896 141.697, 55.936 141.409 C 52.793 140.949, 52.226 141.208, 51.134 143.606 M 97 141.958 L 82.500 142.500 82.181 146.396 L 81.862 150.292 87.181 149.692 C 90.106 149.363, 96.550 148.810, 101.500 148.463 C 110.178 147.856, 125.326 143.900, 126.549 141.921 C 127.133 140.975, 123.167 140.980, 97 141.958 M 84.250 152.706 C 81.875 153.163, 81.097 155, 83.278 155 C 86.057 155, 98.764 161.968, 103.250 165.952 C 107.921 170.100, 109.480 174, 106.467 174 C 103.110 174, 79 159.871, 79 157.904 C 79 156.480, 75.662 156.848, 73.251 158.537 C 68.338 161.978, 67.765 178.856, 72.404 183.495 C 76.239 187.330, 87.369 190.495, 97.024 190.496 C 104.643 190.497, 106.259 190.147, 112.232 187.206 C 122.849 181.980, 129.197 172.725, 127.491 164.958 C 125.991 158.132, 115.614 153.405, 103.746 154.144 C 99.808 154.389, 97.870 154.110, 97.541 153.250 C 97.074 152.030, 89.391 151.715, 84.250 152.706 M 84 158.358 C 84 159.462, 101.740 170, 103.598 170 C 105.124 170, 96.102 163.594, 90.779 160.898 C 85.201 158.073, 84 157.623, 84 158.358" stroke="none" fill="black" fill-rule="evenodd"/>
</svg>