<svg xmlns="http://www.w3.org/2000/svg" width="200" height="200" viewBox="0 0 200 200" version="1.1">
	<path d="M 105 9.465 C 99.775 10.225, 90.325 11.953, 84 13.304 C 74.571 15.317, 71.149 15.626, 65 15.022 C 60.392 14.568, 57.114 14.663, 56.500 15.267 C 55.835 15.920, 55.933 16.408, 56.792 16.722 C 57.753 17.074, 57.799 17.537, 56.972 18.533 C 54.543 21.461, 59.279 26, 71.867 32.807 L 79.235 36.792 68.611 37.516 C 62.227 37.951, 55.123 37.815, 50.810 37.174 C 43.751 36.127, 41.474 36.340, 42.473 37.956 C 43.959 40.361, 63.561 40.765, 89.650 38.927 C 109.417 37.534, 111.374 38.104, 104.347 43.207 C 95.665 49.511, 95.703 49.501, 80 49.352 C 63.615 49.197, 50.305 47.227, 40.365 43.485 C 35.943 41.821, 33.307 41.293, 32.657 41.943 C 31.354 43.246, 39.085 46.547, 49.500 49.134 C 54.791 50.448, 62.655 51.318, 72.721 51.703 C 81.092 52.023, 87.703 52.671, 87.412 53.143 C 87.120 53.614, 87.662 54, 88.615 54 C 90.114 54, 90.042 54.326, 88.089 56.406 C 86.156 58.463, 85.371 58.680, 82.671 57.906 C 77.054 56.295, 63.913 56.853, 59.500 58.890 C 50.477 63.055, 47.996 69.959, 52.222 79.151 C 58.732 93.314, 70.501 99.812, 87.699 98.739 C 106.064 97.593, 124 83.864, 124 70.952 C 124 62.375, 118.348 57.008, 106 53.859 C 98.669 51.989, 98.468 52.089, 114.500 49.640 C 125.349 47.983, 138 44.440, 138 43.058 C 138 42.584, 134.624 40.465, 130.498 38.348 C 121.807 33.890, 121.659 34.289, 134.408 27.827 L 142.316 23.819 141.659 38.659 C 140.931 55.125, 141.850 63.346, 145.399 72.136 C 147.471 77.267, 147.545 78.029, 146.224 80.636 C 143.697 85.624, 136.933 91.757, 131.045 94.399 C 120.222 99.257, 112.883 100.181, 78.500 101.021 C 54.317 101.611, 45.094 102.190, 40.745 103.389 C 28.674 106.720, 25.266 109.206, 28.097 112.617 C 29.893 114.781, 31.961 115.494, 51.045 120.530 C 74.529 126.726, 80 129.356, 80 134.449 C 80 139.061, 77.568 139.420, 72.504 135.555 C 66.727 131.145, 60.606 130.620, 57.299 134.250 C 53.365 138.569, 52.556 141.281, 52.602 150 C 52.660 161.127, 55.442 168.538, 62.037 175.132 C 67.594 180.689, 75.535 183.610, 82.494 182.656 C 86.288 182.136, 86.891 182.361, 88.872 185.041 C 92.181 189.516, 96.934 189.084, 113.657 182.788 C 126.910 177.799, 127.927 177.575, 137.500 177.538 C 149.247 177.493, 152.583 178.749, 159.583 185.849 L 164.116 190.447 163.808 164.973 C 163.500 139.514, 163.501 139.496, 166.126 132.750 C 167.570 129.038, 168.589 126, 168.391 126 C 168.193 126, 164.091 127.141, 159.277 128.537 C 139.071 134.392, 119.300 135.438, 109.634 131.162 C 105.550 129.356, 103 126.658, 103 124.142 C 103 121.957, 108.639 116.655, 112.912 114.824 C 118.597 112.386, 129.761 110, 135.476 110 C 139.774 110, 139.857 110.067, 143.241 116.250 C 147.012 123.140, 152.086 127.384, 155.419 126.436 C 160.636 124.951, 165.412 116.159, 168.690 102 C 170.838 92.722, 171.516 64.957, 169.754 58.428 L 168.385 53.356 172.999 45.306 C 181.557 30.376, 183.174 21.020, 178.077 15.923 C 175.509 13.355, 174.446 13.002, 169.327 13.018 C 165.437 13.030, 160.294 14.117, 153.853 16.287 L 144.206 19.539 142.455 16.287 C 138.566 9.066, 124.870 6.571, 105 9.465 M 106 12.042 C 93.321 14.180, 82.049 16.382, 82.332 16.665 C 82.499 16.832, 86.205 17.704, 90.568 18.604 C 99.886 20.524, 106.700 23.478, 107.480 25.936 C 107.786 26.900, 110.617 28.802, 113.771 30.163 L 119.506 32.637 130.740 26.744 L 141.974 20.851 140.470 17.943 C 138.004 13.172, 133.828 11.690, 122 11.385 C 116.225 11.237, 109.025 11.532, 106 12.042 M 154 19 C 149.325 20.635, 145.436 21.979, 145.357 21.987 C 145.279 21.994, 144.898 29.762, 144.512 39.250 C 143.758 57.740, 144.773 65.753, 148.888 73.774 C 150.786 77.473, 150.785 77.491, 148.481 81.990 C 143.545 91.632, 133.763 97.907, 118.547 101.192 C 111.290 102.759, 103.168 103.310, 77.500 103.974 C 45.890 104.793, 41.919 105.228, 32.690 108.883 C 31.144 109.495, 30.137 110.412, 30.451 110.920 C 31.166 112.077, 40.872 115.266, 52 118 C 78.519 124.515, 87.191 130.571, 81.544 138.634 C 80.108 140.684, 80.236 140.728, 90.915 141.815 C 111.324 143.893, 122.468 147.704, 124.428 153.275 C 127.761 162.752, 102.915 170.494, 89.699 164.096 C 84.194 161.432, 81.079 157.484, 80.359 152.260 C 79.627 146.949, 78.055 144.150, 75.608 143.801 C 74.276 143.611, 73.602 142.882, 73.777 141.822 C 74.077 140.011, 68.984 135.683, 65.201 134.533 C 62.104 133.592, 58.208 136.258, 56.416 140.546 C 54.400 145.371, 54.664 153.701, 57.079 161.522 C 61.007 174.236, 71.041 181.093, 83.566 179.621 C 89.039 178.978, 89.105 179.002, 90.147 181.992 C 91.779 186.673, 94.679 186.767, 106.304 182.515 C 135.564 171.812, 146.302 171.307, 157.288 180.118 L 161.077 183.156 160.824 161.328 C 160.609 142.676, 160.821 138.863, 162.286 135.124 C 163.229 132.718, 164 130.640, 164 130.508 C 164 130.376, 159.998 131.307, 155.107 132.577 C 142.016 135.977, 126.955 137.461, 118.650 136.168 C 110.731 134.935, 103.443 131.696, 101.837 128.695 C 96.492 118.709, 110.699 109.181, 133.642 107.366 L 141.783 106.722 143.922 111.556 C 148.446 121.785, 153.366 125.787, 157.178 122.340 C 166.226 114.157, 171.826 75.063, 166.493 57.315 C 165.281 53.283, 165.364 52.918, 168.780 47.315 C 177.310 33.322, 180.287 21.379, 176.171 17.655 C 173.196 14.963, 163.936 15.525, 154 19 M 62.152 23.313 C 66.112 26.815, 82.873 35.940, 84.500 35.480 C 96.160 32.183, 103.076 29.685, 102.378 29.021 C 99.618 26.399, 72.384 19.983, 64.261 20.042 L 58.500 20.083 62.152 23.313 M 96.920 24.002 C 99.901 25.098, 102.551 25.783, 102.809 25.525 C 103.426 24.908, 99.390 23.413, 95 22.633 C 92.466 22.183, 92.995 22.561, 96.920 24.002 M 105.300 31.100 C 104.768 31.632, 102.121 32.908, 99.417 33.936 L 94.500 35.806 101.730 35.764 C 105.965 35.739, 109.561 36.221, 110.413 36.928 C 111.565 37.884, 112.405 37.781, 114.464 36.431 C 115.893 35.495, 116.936 34.603, 116.781 34.448 C 116.627 34.294, 114.197 33.260, 111.383 32.151 C 108.090 30.853, 105.921 30.479, 105.300 31.100 M 114.500 39.593 C 111.750 41.530, 107.813 44.274, 105.750 45.690 C 103.688 47.107, 102 48.353, 102 48.460 C 102 49.200, 120.731 46.120, 127.382 44.285 L 133.264 42.662 126.882 39.380 C 123.372 37.574, 120.275 36.091, 120 36.084 C 119.725 36.077, 117.250 37.656, 114.500 39.593 M 91.700 57.010 L 88.901 59.223 92.928 62.670 C 98.095 67.093, 99.796 72.164, 97.749 77.048 C 95.337 82.805, 91.199 87, 87.931 87 C 83.929 87, 77.141 84.131, 75.971 81.945 C 73.480 77.291, 75.737 70.189, 81.738 63.803 L 84.272 61.106 81.386 60.330 C 77.071 59.168, 66 59.474, 61.838 60.869 C 52.745 63.918, 50.541 71.222, 55.914 80.500 C 59.791 87.195, 62.119 89.500, 68.294 92.755 C 73.061 95.269, 74.432 95.500, 84.552 95.500 C 95.295 95.500, 95.815 95.396, 103.142 91.774 C 124.071 81.431, 127.666 64.509, 110.315 58.017 C 107.369 56.914, 102.605 55.739, 99.729 55.405 C 95.287 54.889, 94.079 55.130, 91.700 57.010 M 82.763 66.783 C 78.421 72.477, 76.722 76.548, 77.571 79.223 C 78.255 81.378, 83.592 84, 87.294 84 C 91.238 84, 96 77.337, 96 71.817 C 96 69.799, 89.107 62, 87.323 62 C 86.821 62, 84.769 64.153, 82.763 66.783 M 82.525 149.429 C 84.204 156.652, 85.942 159.270, 90.493 161.430 C 96.528 164.294, 103.852 164.544, 111.718 162.154 C 123.083 158.702, 125.032 154.254, 116.941 150.236 C 111.396 147.482, 101.423 145.343, 89.851 144.427 L 81.202 143.741 82.525 149.429" stroke="none" fill="black" fill-rule="evenodd"/>
</svg>