<svg xmlns="http://www.w3.org/2000/svg" width="200" height="200" viewBox="0 0 200 200" version="1.1">
	<path d="M 119 10.113 C 94.516 11.837, 55.335 17.536, 47.338 20.536 C 40.561 23.079, 40.571 26.518, 47.367 30.436 C 56.911 35.939, 81.386 41.366, 87.505 39.337 C 93.676 37.290, 91.509 32.165, 81.644 25.471 L 76.787 22.176 101.144 22.388 C 121.665 22.566, 125.993 22.862, 128.633 24.265 C 132.354 26.243, 138 34.357, 138 37.726 C 138 39.930, 127.668 103.566, 126.452 108.850 C 125.926 111.137, 125.786 111.084, 121.180 106.850 L 116.448 102.500 118.761 97.328 C 124.300 84.947, 124.875 75.002, 121.350 52.500 C 118.775 36.060, 114.805 27.975, 110.049 29.484 C 107.021 30.446, 102.403 39.187, 99.882 48.730 C 98.498 53.969, 97.198 57, 96.336 57 C 95.587 57, 93.855 54.469, 92.487 51.376 C 89.589 44.821, 89.479 44, 91.500 44 C 92.325 44, 93 43.325, 93 42.500 C 93 41.251, 91.031 41.001, 81.250 41.008 C 54.098 41.027, 32.196 45.857, 34.308 51.359 C 35.744 55.102, 48.367 57.490, 74.571 58.978 C 87.321 59.701, 93.666 60.443, 94.201 61.273 C 96.448 64.762, 99.349 74.193, 99.777 79.401 C 100.256 85.226, 100.232 85.293, 97.881 84.632 C 96.571 84.264, 93.250 83.501, 90.500 82.935 C 80.175 80.813, 80.724 81.038, 82.023 79.472 C 85.317 75.504, 78.564 68.884, 67.417 65.154 C 51.327 59.769, 40.941 62.428, 39.331 72.345 C 38.129 79.757, 46.941 99.691, 52.051 101.117 C 53.398 101.493, 57.650 101.892, 61.500 102.003 C 67.796 102.184, 68.148 102.296, 65 103.117 C 59.207 104.626, 41.078 104.309, 35.547 102.602 C 32.822 101.761, 30.417 101.250, 30.202 101.465 C 29.986 101.681, 30.099 103.176, 30.454 104.788 C 31.343 108.837, 35.507 112.810, 47.890 121.425 C 58.179 128.583, 66.475 136.246, 70.795 142.582 C 76.742 151.302, 79.399 165.254, 77.831 179.522 C 77.306 184.300, 77.090 188.424, 77.351 188.685 C 77.613 188.946, 78.878 188.474, 80.163 187.635 C 85.085 184.423, 95.195 183.794, 121.500 185.065 C 150.162 186.450, 160.010 185.687, 168.787 181.399 C 174.591 178.564, 176.768 175.960, 178.036 170.340 C 178.889 166.556, 178.737 165.451, 175.099 149.083 C 170.421 128.040, 165.191 124.941, 150.407 134.453 L 143.550 138.865 140.993 134.182 C 139.586 131.607, 138.788 129.350, 139.218 129.167 C 140.740 128.518, 139.975 126, 138.250 125.979 C 137.224 125.967, 134.834 123.421, 132.473 119.827 L 128.447 113.696 133.685 82.598 C 136.566 65.494, 139.238 49.925, 139.624 48 L 140.326 44.500 141.122 48.500 C 143.437 60.129, 143.007 93.587, 140.347 108.750 C 139.917 111.206, 140.138 112, 141.253 112 C 143.055 112, 143.570 108.619, 145.061 86.996 C 146.258 69.641, 145.284 52.326, 142.531 42.037 C 141.727 39.033, 141.278 35.545, 141.534 34.287 C 141.790 33.029, 142.238 30.857, 142.529 29.459 C 143.311 25.707, 144.674 27.269, 147.182 34.792 C 149.320 41.206, 149.420 43.010, 149.459 76 C 149.498 109.209, 149.581 110.675, 151.662 115.179 C 154.913 122.212, 161.062 124.617, 168.851 121.902 C 171.899 120.839, 172 120.617, 172 114.950 C 172 111.730, 173.394 99.287, 175.099 87.298 C 180.691 47.956, 179.417 28.689, 170.537 18.315 C 164.435 11.185, 159.718 9.608, 144.006 9.444 C 136.578 9.367, 125.325 9.668, 119 10.113 M 115.500 13.088 C 103.727 14.038, 71.685 18.012, 71.083 18.596 C 70.558 19.105, 87.389 19.500, 109.612 19.500 C 126.447 19.500, 126.783 19.542, 130.401 22.108 C 132.423 23.542, 135.172 26.200, 136.510 28.014 C 139.043 31.447, 139.397 31.233, 140.285 25.726 C 140.531 24.201, 140.337 22.708, 139.855 22.410 C 139.373 22.113, 139.658 20.898, 140.489 19.712 C 141.320 18.526, 142 16.305, 142 14.777 L 142 12 133.750 12.140 C 129.213 12.217, 121 12.643, 115.500 13.088 M 151.644 13.748 C 152.130 15.605, 147.990 20.170, 144.879 21.207 C 144.071 21.476, 144.533 23.054, 146.305 26.077 C 151.893 35.612, 152.477 40.457, 152.196 74.891 C 151.984 100.893, 152.207 107.200, 153.496 111.635 C 155.400 118.182, 158.096 120.248, 164.168 119.811 L 168.500 119.500 169.646 108 C 170.276 101.675, 171.821 89.750, 173.080 81.500 C 176.115 61.612, 176.371 38.153, 173.645 29.850 C 170.495 20.258, 163.910 14.199, 154.771 12.485 C 151.506 11.872, 151.188 12.001, 151.644 13.748 M 144.755 15.500 C 144.492 16.875, 144.595 18, 144.984 18 C 146.219 18, 149.032 14.365, 148.336 13.669 C 146.910 12.243, 145.212 13.111, 144.755 15.500 M 57.213 23.298 C 49.010 23.951, 45.048 24.645, 45.294 25.388 C 46.864 30.125, 80.924 39.162, 87.580 36.608 C 89.117 36.018, 88.988 35.597, 86.460 32.959 C 83.225 29.582, 71.845 21.916, 70.430 22.161 C 69.919 22.249, 63.971 22.761, 57.213 23.298 M 108.009 35.177 C 106.139 38.205, 101.994 50.471, 100.548 57.250 C 100.207 58.849, 99.297 60, 98.374 60 C 97.235 60, 97.004 60.495, 97.556 61.750 C 100.616 68.708, 102.952 77.302, 102.974 81.683 C 102.995 85.935, 103.351 86.977, 104.956 87.486 C 108.360 88.566, 112.221 94.041, 111.766 97.142 C 111.509 98.893, 111.869 100.120, 112.739 100.453 C 115.467 101.500, 121 84.797, 121 75.514 C 121 63.897, 116.993 40.483, 114.165 35.580 C 111.788 31.457, 110.362 31.363, 108.009 35.177 M 54.381 45.605 C 44.355 47.154, 38.239 48.959, 37.791 50.500 C 37.156 52.682, 54.483 55.198, 79.661 56.579 L 91.821 57.246 89.218 50.623 L 86.616 44 75.058 44.098 C 68.701 44.152, 59.397 44.830, 54.381 45.605 M 47.500 65.881 C 40.407 69.011, 40.288 76.259, 47.107 89.785 L 51.500 98.500 64 98.806 C 77.469 99.137, 86.275 97.921, 92.159 94.919 C 96.131 92.892, 99.456 89.038, 98.241 87.868 C 96.648 86.335, 80.680 83.805, 64 82.443 C 54.375 81.656, 46.388 81.010, 46.250 81.007 C 46.112 81.003, 46 80.325, 46 79.500 C 46 77.713, 47.089 77.678, 61.131 79.010 C 73.537 80.186, 79.500 79.370, 79.500 76.495 C 79.500 70.786, 54.886 62.622, 47.500 65.881 M 100.508 90.974 C 100.164 92.060, 98.723 93.860, 97.306 94.974 L 94.730 97 98.115 97.024 C 99.977 97.037, 103.188 97.440, 105.250 97.919 C 108.691 98.718, 108.999 98.612, 108.985 96.645 C 108.966 94.009, 108.207 92.868, 105.027 90.692 C 101.864 88.527, 101.273 88.564, 100.508 90.974 M 78 103.111 C 67.672 105.641, 63.241 106.201, 52.500 106.336 C 45.350 106.426, 38.007 106.120, 36.183 105.656 C 32.963 104.836, 32.904 104.876, 34.183 106.999 C 34.907 108.202, 41.362 113.363, 48.526 118.468 C 74.368 136.881, 81.751 149.648, 80.851 174.366 C 80.548 182.695, 80.706 183.919, 82 183.262 C 82.825 182.843, 100.375 182.500, 121 182.500 C 160.631 182.500, 163.392 182.232, 170.063 177.736 C 175.035 174.386, 176.695 169.260, 175.117 162.130 C 174.432 159.034, 173.047 152.621, 172.040 147.880 C 168.361 130.559, 164.770 128.535, 152.098 136.643 C 146.883 139.979, 144.988 141.737, 145.362 142.893 C 145.649 143.777, 147.928 149.450, 150.428 155.500 C 152.929 161.550, 154.980 166.838, 154.987 167.250 C 155.023 169.330, 152.225 167.573, 150.551 164.465 C 147.787 159.333, 140.563 153, 137.473 153 C 131.425 153, 125.017 159.730, 119.598 171.773 C 117.663 176.073, 115 177.474, 115 174.193 C 115 173.199, 115.900 167.488, 117 161.502 C 119.046 150.362, 118.859 149.059, 115.210 149.015 C 113.281 148.992, 106.667 145.432, 103.317 142.614 C 101.695 141.248, 97.972 139.221, 95.044 138.109 C 86.039 134.687, 83.197 130.418, 86.109 124.684 C 86.720 123.483, 91.759 117.902, 97.309 112.283 C 102.858 106.663, 107.048 101.715, 106.620 101.287 C 106.191 100.858, 102.389 100.404, 98.170 100.278 C 92.405 100.105, 87.395 100.809, 78 103.111 M 99.371 113.888 C 93.800 119.725, 88.722 125.513, 88.086 126.750 C 86.295 130.235, 88.207 132.499, 95.235 135.215 C 98.688 136.550, 103.666 139.285, 106.297 141.293 C 110.360 144.394, 118.591 147.844, 119.473 146.816 C 119.621 146.642, 120.417 142.787, 121.240 138.250 L 122.737 130 116.619 129.976 C 105.869 129.934, 100 127.593, 100 123.348 C 100 122.649, 102.523 118.373, 105.606 113.845 C 112.020 104.424, 112.745 102.946, 110.857 103.138 C 110.111 103.214, 104.942 108.051, 99.371 113.888 M 108.635 113.995 C 105.409 118.925, 103.008 123.579, 103.299 124.337 C 103.590 125.095, 105.273 126.005, 107.039 126.358 C 111.459 127.242, 122.780 127.167, 123.341 126.250 C 123.594 125.838, 124.126 122.883, 124.523 119.685 L 125.247 113.870 120.485 109.435 C 117.865 106.996, 115.447 105.007, 115.111 105.016 C 114.775 105.024, 111.861 109.065, 108.635 113.995 M 127 121.418 C 127 122.748, 126.727 124.548, 126.393 125.418 C 125.909 126.680, 126.515 127, 129.393 127 C 131.377 127, 133 126.716, 133 126.368 C 133 125.082, 128.805 119, 127.918 119 C 127.413 119, 127 120.088, 127 121.418 M 128.945 129.717 L 125.390 130.097 124.195 137.067 C 122.412 147.468, 122.377 147.339, 126.750 146.521 C 130.901 145.744, 141.005 141.243, 140.991 140.177 C 140.965 138.364, 134.804 129.021, 133.730 129.168 C 133.053 129.261, 130.900 129.507, 128.945 129.717 M 136.015 146.071 C 132.998 147.596, 128.612 149.131, 126.268 149.482 C 122.960 149.979, 121.905 150.611, 121.550 152.311 C 120.426 157.687, 119 165.147, 119 165.650 C 119 165.954, 120.688 163.712, 122.750 160.669 C 129.792 150.278, 136.330 147.660, 143.324 152.431 C 147.134 155.031, 147.145 155.032, 146.445 152.770 C 145.653 150.207, 142.081 142.921, 141.730 143.149 C 141.603 143.231, 139.032 144.546, 136.015 146.071" stroke="none" fill="black" fill-rule="evenodd"/>
</svg>