<svg xmlns="http://www.w3.org/2000/svg" width="200" height="200" viewBox="0 0 200 200" version="1.1">
	<path d="M 81.500 11.082 C 70.155 12.233, 61.848 13.752, 60.717 14.883 C 60.236 15.364, 59.595 17.600, 59.293 19.851 C 58.801 23.522, 59.096 24.296, 62.156 27.356 C 64.728 29.928, 67.039 31.074, 71.534 32.007 C 78.586 33.471, 90.556 32.715, 97.905 30.342 L 102.924 28.721 112.967 32.488 C 123.098 36.288, 132 41.158, 132 42.900 C 132 45.210, 114.450 47.946, 99.405 47.983 C 93.559 47.997, 91.990 47.647, 90.494 45.994 C 89.496 44.890, 88.864 43.826, 89.089 43.629 C 90.934 42.019, 95.009 40.831, 100.417 40.326 C 107.842 39.632, 110.331 38.545, 108 37.015 C 105.731 35.526, 71.032 35.833, 59 37.450 C 45.305 39.290, 40.593 40.851, 40.189 43.683 C 39.995 45.046, 40.610 46.256, 41.828 46.908 C 44.311 48.237, 60.047 51, 65.131 51 C 67.259 51, 69 51.144, 69 51.321 C 69 51.498, 67.075 53.651, 64.723 56.106 C 59.729 61.318, 57.763 66.861, 57.813 75.587 C 57.856 82.975, 59.917 88.289, 64.609 93.104 L 68.120 96.708 56.810 97.413 C 37.010 98.648, 32.523 100.903, 37.678 107.029 C 39.533 109.234, 46.008 112.945, 58.900 119.194 C 69.103 124.139, 78.588 128.995, 79.978 129.984 C 83.082 132.194, 98.813 135.694, 109.546 136.563 C 115.399 137.036, 118.623 136.814, 121.750 135.720 L 126 134.234 126 137.184 C 126 139.598, 125.664 140.028, 124.154 139.549 C 119.604 138.105, 103.415 137.395, 91.799 138.130 C 72.735 139.336, 61 142.554, 61 146.574 C 61 149.961, 72.260 152.245, 95.373 153.545 L 107.245 154.213 99.170 158.527 C 76.057 170.876, 62.538 182.328, 66.060 186.572 C 68.700 189.753, 79.820 187.263, 100 178.971 C 116.374 172.242, 114.975 172.502, 122.191 174.854 C 136.231 179.429, 159.758 182.225, 166.232 180.089 C 173.546 177.674, 171.699 173.564, 160.266 166.818 C 155.995 164.297, 148.046 160.269, 142.601 157.867 L 132.703 153.500 139.101 152.884 C 146.416 152.180, 149.936 150.964, 155.254 147.305 C 164.646 140.844, 165.813 129.077, 156.750 132.237 C 155.099 132.813, 153.495 132.872, 153.027 132.374 C 149.475 128.592, 136.997 111.670, 137.437 111.230 C 137.743 110.924, 142.183 111.422, 147.304 112.337 C 159.592 114.532, 161.311 114.451, 164.801 111.514 C 168.815 108.136, 170.095 102.576, 171.019 84.500 C 171.440 76.250, 172.367 66.058, 173.077 61.852 C 175.450 47.806, 170.461 27.226, 162.750 19.250 C 158.992 15.363, 153.435 14.757, 150.572 17.921 C 148.866 19.806, 148.756 19.788, 144.667 16.945 C 137.595 12.028, 130.709 10.755, 109.500 10.446 C 99.050 10.293, 86.450 10.579, 81.500 11.082 M 81.500 13.888 L 76.500 14.557 83 15.369 C 100.732 17.583, 109.403 21.399, 106.006 25.493 C 105.225 26.434, 106.846 27.391, 112.739 29.466 C 122.955 33.064, 131.840 37.826, 133.737 40.721 C 135.126 42.841, 135.102 43.230, 133.473 45.030 C 131.002 47.760, 126.469 48.799, 111.434 50.079 C 104.320 50.685, 98.384 51.294, 98.243 51.431 C 98.101 51.569, 101.752 53.983, 106.355 56.796 C 117.086 63.354, 123.662 69.681, 124.525 74.279 C 125.310 78.463, 123.303 82.884, 119.292 85.806 C 116.562 87.794, 116.551 87.847, 118.419 89.910 C 119.459 91.059, 120.938 92, 121.705 92 C 122.844 92, 128.638 89.485, 129.807 88.483 C 129.975 88.338, 130.762 83.558, 131.556 77.860 C 134.591 56.063, 138.732 39.014, 143.731 27.736 C 146.203 22.158, 146.227 21.909, 144.478 19.976 C 143.484 18.877, 139.707 17.008, 136.085 15.821 C 130.282 13.920, 126.946 13.638, 108 13.442 C 96.175 13.320, 84.250 13.521, 81.500 13.888 M 62.678 17.656 C 61.298 19.035, 62.061 24.061, 63.935 25.935 C 67.914 29.914, 80.659 31.207, 92.491 28.830 C 99.378 27.447, 99.876 27.723, 80 21.908 C 72.575 19.736, 65.792 17.738, 64.928 17.468 C 64.063 17.199, 63.050 17.283, 62.678 17.656 M 88.823 21.570 C 95.051 23.483, 100.451 25.091, 100.823 25.143 C 102.582 25.387, 104 24.914, 104 24.083 C 104 22.728, 96.419 20.170, 89 19.021 C 77.347 17.217, 77.290 18.027, 88.823 21.570 M 152.635 20.073 C 150.577 21.691, 150 23.017, 150 26.122 C 150 30.325, 148.291 34.459, 144.407 39.650 L 142.051 42.800 144.557 50.150 C 149.751 65.385, 147.352 78.038, 137.661 86.515 C 132.764 90.800, 132.589 91.138, 131.897 97.717 C 131.112 105.183, 132.358 108.020, 136.405 107.979 C 137.557 107.967, 143.012 108.716, 148.526 109.643 C 154.041 110.570, 159.728 111.034, 161.164 110.674 C 165.583 109.565, 167.155 103.798, 168.026 85.500 C 168.445 76.700, 169.275 67.700, 169.870 65.500 C 173.638 51.572, 167.031 23.653, 158.983 19.491 C 155.396 17.636, 155.776 17.601, 152.635 20.073 M 144.785 31.865 C 143.892 34.139, 143.338 36, 143.555 36 C 144.357 36, 147.109 29.827, 146.766 28.797 C 146.570 28.210, 145.679 29.590, 144.785 31.865 M 68.279 39.120 C 62.657 39.583, 54.830 40.634, 50.886 41.457 C 40.001 43.726, 40.114 44.476, 51.649 46.530 C 61.842 48.345, 79.679 49.470, 84.353 48.594 C 87.557 47.992, 87.893 47.669, 87.014 46.025 C 85.611 43.404, 86.559 41.585, 90.296 39.724 L 93.500 38.128 86 38.203 C 81.875 38.244, 73.900 38.657, 68.279 39.120 M 139.642 48.618 C 138.864 51.156, 134.385 76.264, 133.606 82.455 L 132.982 87.410 136.579 83.955 C 144.054 76.774, 146.199 68.457, 143.585 56.785 C 141.662 48.193, 140.506 45.799, 139.642 48.618 M 89.860 53.758 C 92.807 55.233, 97.181 58.168, 99.578 60.278 L 103.938 64.115 102.315 68.170 L 100.693 72.224 107.597 78.566 C 111.393 82.054, 115.022 84.928, 115.661 84.954 C 117.749 85.037, 122 78.964, 122 75.897 C 122 71.736, 115.884 65.959, 102.767 57.732 C 94.344 52.449, 91.224 51.008, 88.267 51.037 L 84.500 51.074 89.860 53.758 M 72.001 54.123 C 61.783 58.198, 57.121 74.637, 62.871 86.316 C 67.201 95.110, 77.226 98.943, 88.483 96.109 C 94.370 94.626, 112 87.749, 112 86.935 C 112 86.588, 109.260 83.691, 105.911 80.497 L 99.823 74.689 97.661 77.250 C 96.473 78.659, 94.471 80.329, 93.212 80.961 C 86.241 84.464, 76.150 71.998, 80.538 65.302 C 81.935 63.170, 82.736 62.858, 85.614 63.325 C 87.493 63.630, 91.116 65.287, 93.665 67.007 C 97.263 69.435, 98.486 69.840, 99.134 68.817 C 101.575 64.968, 97.754 60.708, 87.500 55.846 C 81.336 52.924, 76.389 52.374, 72.001 54.123 M 82.465 67.057 C 80.592 70.087, 86.389 79, 90.233 79 C 92.203 79, 97 74.794, 97 73.066 C 97 71.769, 87.071 66.022, 84.809 66.009 C 83.879 66.004, 82.824 66.476, 82.465 67.057 M 105 93.138 C 93.682 97.717, 93.895 97.770, 111.804 94.816 C 117.897 93.811, 118.050 93.713, 116.399 91.888 C 114.221 89.482, 113.967 89.510, 105 93.138 M 126.084 93.606 L 122.667 95.043 125.584 98.094 L 128.500 101.146 129.123 96.823 C 129.465 94.445, 129.690 92.426, 129.623 92.335 C 129.555 92.243, 127.963 92.816, 126.084 93.606 M 111.500 97.697 C 107.501 98.654, 95.327 99.414, 75 99.976 C 58.225 100.439, 43.179 101.221, 41.565 101.713 C 34.633 103.829, 36.704 105.356, 66.131 119.830 C 88.077 130.624, 94.202 132.579, 109.573 133.689 C 122.951 134.655, 128.551 131.548, 125.639 124.773 C 123.801 120.496, 117.106 114.123, 113.414 113.135 C 111.811 112.707, 110.500 111.728, 110.500 110.960 C 110.500 109.577, 113.182 108.851, 123.250 107.510 C 125.938 107.152, 127.982 106.361, 127.959 105.689 C 127.896 103.858, 120.403 95.983, 118.864 96.130 C 118.114 96.202, 114.800 96.907, 111.500 97.697 M 119.729 110.718 L 116.958 111.137 121.729 115.472 L 126.500 119.807 127.132 117.153 C 127.479 115.694, 127.817 113.487, 127.882 112.250 C 128.005 109.896, 126.744 109.659, 119.729 110.718 M 130.688 112.223 C 130.390 113.475, 129.869 119.675, 129.531 126 C 129.193 132.325, 128.699 138.915, 128.433 140.644 L 127.949 143.789 123.224 142.262 C 116.730 140.162, 88.516 140.170, 77.500 142.274 C 67.188 144.244, 62.946 145.836, 65 146.966 C 67.865 148.542, 81.206 150.039, 98.055 150.675 C 110.721 151.153, 115 151.634, 115 152.581 C 115 153.277, 110.171 156.216, 104.270 159.113 C 91.632 165.316, 74.332 176.633, 70.438 181.244 L 67.690 184.500 71.296 184.807 C 75.474 185.164, 90.380 180.381, 105.940 173.691 C 115.410 169.620, 116.581 169.335, 118.544 170.621 C 122.443 173.176, 142.019 177.022, 154 177.588 C 167.735 178.237, 170.173 177.357, 165.500 173.434 C 161.380 169.976, 139.877 159.286, 126.257 153.925 C 120.073 151.491, 115.172 149.050, 115.365 148.500 C 115.780 147.315, 116.277 147.361, 125.983 149.486 C 140.351 152.631, 154.849 147.989, 159.290 138.820 C 161.333 134.604, 160.121 133.369, 156.022 135.489 C 154.258 136.401, 152.709 137.002, 152.580 136.824 C 147.542 129.872, 133.617 111.927, 132.615 111.095 C 131.516 110.183, 131.119 110.415, 130.688 112.223" stroke="none" fill="black" fill-rule="evenodd"/>
</svg>