<svg xmlns="http://www.w3.org/2000/svg" width="200" height="200" viewBox="0 0 200 200" version="1.1">
	<path d="M 99 9.651 C 97.625 9.882, 94.613 10.757, 92.307 11.596 C 88.916 12.830, 87.014 12.919, 82.373 12.061 C 62.537 8.394, 58.181 14.054, 73.259 23.903 C 79.455 27.951, 80 28.589, 80 31.802 L 80 35.298 66 34.605 C 53.746 33.998, 52 34.105, 52 35.456 C 52 36.748, 53.880 37.031, 63.500 37.188 C 69.825 37.291, 76.237 37.403, 77.750 37.438 C 80.009 37.489, 80.779 38.215, 82.061 41.500 C 83.450 45.061, 83.455 45.600, 82.111 46.412 C 81.280 46.913, 73.827 47.363, 65.550 47.412 C 52.948 47.486, 49.913 47.208, 46.889 45.702 C 43.082 43.807, 41 40.536, 41 36.453 C 41 33.736, 39.539 33.154, 38.634 35.511 C 37.527 38.395, 39.271 43.030, 42.542 45.903 C 47.437 50.200, 56.733 51.521, 72.321 50.133 C 80.190 49.432, 84.795 49.395, 85.426 50.026 C 86.058 50.658, 85.332 51, 83.360 51 C 79.012 51, 68.682 56.459, 64.918 60.746 C 51.385 76.159, 59.654 90.472, 85.923 97.103 C 93.066 98.907, 96.182 99.146, 106.423 98.679 C 113.065 98.375, 119.641 97.840, 121.036 97.488 C 123.062 96.977, 124.460 97.637, 127.984 100.764 L 132.396 104.679 95.448 105.345 C 74.069 105.730, 52.812 105.602, 45 105.041 C 37.575 104.507, 30.549 104.055, 29.386 104.035 C 26.403 103.985, 22 108.710, 22 111.962 C 22 116.571, 26.375 119.537, 41.925 125.471 C 63.983 133.889, 70.070 139.172, 65.398 145.842 C 64.517 147.100, 63.985 148.319, 64.217 148.550 C 64.449 148.782, 67.757 148.311, 71.569 147.503 C 86.965 144.241, 86.013 146.137, 63 164.556 C 51.314 173.909, 43.631 181.288, 42.755 184 C 40.938 189.622, 50.071 190.733, 62.190 186.366 C 66.211 184.917, 75.125 180.895, 82 177.428 C 88.875 173.962, 97.163 170.368, 100.417 169.443 C 114.444 165.455, 125.935 171.511, 135.214 187.781 C 138.619 193.751, 138.370 193.727, 148.500 189.060 C 160.488 183.539, 163.213 177.216, 156.439 170.638 C 154.481 168.736, 145.666 163.436, 136.852 158.861 C 118.713 149.446, 113.008 145.218, 112.984 141.172 C 112.970 138.867, 111.846 137.881, 104.808 134 C 100.320 131.525, 95.050 128, 93.097 126.167 C 89.895 123.163, 89.719 122.737, 91.315 121.844 C 93.576 120.579, 101.525 122.213, 107.283 125.127 C 117.926 130.513, 121.896 135.349, 123.450 144.819 C 124.300 150.006, 124.953 151.560, 126.399 151.838 C 128.090 152.164, 128.183 151.761, 127.437 147.348 C 126.217 140.135, 126.504 137.143, 128.702 134.176 C 133.410 127.819, 139.623 125.384, 161.079 121.486 C 173.852 119.165, 178.529 117.391, 179.662 114.439 C 180.685 111.773, 178.978 107.978, 174.939 103.939 C 171.244 100.244, 170.801 100.056, 169.310 101.547 C 167.463 103.395, 162.617 102.873, 157.535 100.280 C 149.638 96.251, 136.057 86.715, 136.698 85.649 C 137.079 85.017, 138.642 82.759, 140.172 80.632 C 145.588 73.101, 144.849 66.160, 138.159 61.715 C 133.283 58.476, 130.466 57.483, 117.626 54.480 C 104.372 51.381, 102.368 50.467, 104.140 48.331 C 105.178 47.081, 106.784 46.933, 112.955 47.519 C 117.105 47.913, 126.430 48.295, 133.679 48.368 C 145.623 48.488, 147.122 48.303, 149.679 46.400 C 151.230 45.244, 152.649 43.296, 152.830 42.070 C 153.541 37.264, 143.347 26.885, 139.402 28.399 C 138.551 28.726, 134.999 27.996, 131.509 26.778 C 126.012 24.860, 125.085 24.173, 124.580 21.648 C 123.814 17.819, 118.272 12.685, 113.392 11.285 C 108.311 9.826, 102.131 9.125, 99 9.651 M 97.500 12.616 C 96.400 12.892, 94.825 13.350, 94 13.634 C 93.175 13.918, 98.967 16.163, 106.870 18.622 C 114.774 21.081, 121.473 22.861, 121.756 22.577 C 122.848 21.485, 118.788 16.932, 114.998 14.999 C 111.048 12.984, 101.322 11.659, 97.500 12.616 M 68.040 13.954 C 66.791 14.744, 66.853 15.180, 68.464 16.961 C 69.501 18.106, 72.531 20.386, 75.197 22.026 L 80.046 25.010 81.093 22.257 C 81.668 20.743, 82.855 18.713, 83.730 17.746 C 84.605 16.779, 85.125 15.792, 84.885 15.552 C 84.454 15.121, 72.434 13.008, 70.500 13.023 C 69.950 13.027, 68.843 13.446, 68.040 13.954 M 86.855 18.145 C 85.052 19.948, 83 24.093, 83 25.933 C 83 27.360, 99.185 32.132, 105.939 32.695 C 113.269 33.307, 119.092 31.565, 120.879 28.227 C 121.836 26.439, 121.113 26.025, 111.819 23.040 C 106.264 21.255, 98.810 18.989, 95.254 18.003 C 88.939 16.252, 88.745 16.255, 86.855 18.145 M 124 28.092 C 124 28.591, 123.050 29.950, 121.889 31.111 L 119.778 33.222 126.139 32.510 C 129.638 32.118, 132.841 31.480, 133.257 31.092 C 133.673 30.704, 131.761 29.666, 129.007 28.785 C 126.253 27.904, 124 27.593, 124 28.092 M 83 32.500 C 83 34.896, 83.256 35, 89.167 35 C 96.059 35, 96.066 34.394, 89.204 31.788 C 83.178 29.499, 83 29.520, 83 32.500 M 127.500 37.326 C 111.554 43.497, 111.631 43.425, 119.155 45.093 C 127.445 46.931, 142.548 46.842, 146.500 44.931 C 150.323 43.083, 150.769 40.005, 147.725 36.467 C 144.086 32.236, 140.233 32.399, 127.500 37.326 M 98.250 36.748 C 89.576 36.935, 84 37.448, 84 38.060 C 84 39.841, 86.872 46, 87.699 45.992 C 94.558 45.927, 106.239 43.572, 111.330 41.227 C 114.723 39.664, 118.625 37.879, 120 37.260 C 122.230 36.257, 121.959 36.152, 117.500 36.288 C 114.750 36.372, 106.088 36.579, 98.250 36.748 M 95.078 47.913 C 88.636 48.610, 87.349 50.480, 92.720 51.339 C 100.022 52.507, 109.411 60.840, 110.709 67.306 C 111.333 70.412, 111.597 70.633, 124.734 79.015 L 133.969 84.906 137.052 80.425 C 138.747 77.960, 140.387 74.390, 140.695 72.491 C 141.878 65.205, 136.418 61.732, 116.247 56.940 C 103.090 53.814, 99.552 51.986, 100.553 48.832 C 100.873 47.824, 100.992 47.073, 100.817 47.163 C 100.643 47.253, 98.060 47.590, 95.078 47.913 M 79.332 54.851 C 68.749 58.508, 61.500 66.751, 61.500 75.129 C 61.500 79.320, 61.971 80.386, 65.356 83.853 C 74.055 92.761, 95.429 98.511, 111.267 96.202 C 115.686 95.558, 119.515 94.819, 119.774 94.559 C 120.034 94.300, 117.669 91.152, 114.519 87.564 C 109.434 81.773, 108.561 81.165, 106.730 82.144 C 103.450 83.900, 93.952 82.531, 87.403 79.359 C 82.332 76.903, 81.539 76.151, 81.778 74.026 C 82.190 70.357, 86.828 66.051, 91.104 65.367 L 94.794 64.777 91.147 58.934 C 89.141 55.720, 86.825 53.085, 86 53.078 C 85.175 53.071, 82.175 53.869, 79.332 54.851 M 94.868 59.675 C 97.964 64.039, 99.945 65.749, 103.447 67.078 C 108.593 69.032, 109.008 68.368, 105.843 63.247 C 103.504 59.461, 95.756 54, 92.725 54 C 91.132 54, 91.463 54.876, 94.868 59.675 M 86.547 71.127 C 84.073 74.067, 84.023 74.325, 85.708 75.457 C 89.505 78.010, 96.251 80, 101.104 80 C 103.971 80, 106.022 79.575, 105.833 79.020 C 105.650 78.481, 103.709 75.781, 101.520 73.020 C 97.879 68.429, 97.183 68, 93.359 68 C 89.903 68, 88.721 68.543, 86.547 71.127 M 105 73 C 107.426 76.407, 109 76.863, 109 74.161 C 109 73.149, 107.854 71.799, 106.453 71.161 C 102.772 69.483, 102.627 69.667, 105 73 M 111.425 76.442 C 110.701 79.329, 112.622 82.344, 119.367 88.908 L 123.897 93.316 127.449 90.607 C 129.402 89.117, 131 87.531, 131 87.082 C 131 86.277, 128.508 84.498, 117.603 77.523 L 112.046 73.968 111.425 76.442 M 129.743 92.233 L 125.987 95.361 132.743 101.633 L 139.500 107.905 106.500 108.179 C 88.350 108.330, 71.250 108.463, 68.500 108.475 C 65.750 108.487, 55.296 108.163, 45.269 107.755 L 27.038 107.013 25.320 109.634 C 23.633 112.210, 23.656 112.304, 26.678 115.004 C 28.370 116.516, 34.647 119.662, 40.627 121.996 C 62.950 130.708, 69.279 134.945, 69.424 141.273 L 69.500 144.573 76.974 144.537 C 83.194 144.506, 84.505 144.782, 84.784 146.181 C 85.299 148.758, 78.910 155.159, 62.878 168.130 C 47.437 180.623, 43.760 184.580, 46.145 186.136 C 49.448 188.293, 60.357 184.937, 76.500 176.799 C 93.840 168.057, 100.312 165.776, 108 165.698 C 119.231 165.584, 128.227 171.499, 136.505 184.441 L 140.035 189.959 145.566 187.513 C 159.583 181.314, 161.244 176.654, 151.735 170.202 C 149.406 168.621, 140.991 163.992, 133.037 159.914 C 118.086 152.250, 110 146.053, 110 142.259 C 110 140.710, 107.999 139.021, 102.201 135.677 C 91.678 129.607, 87.768 125.872, 88.180 122.284 C 88.485 119.632, 88.778 119.486, 94.371 119.196 C 102.348 118.784, 112.892 123.684, 120.017 131.115 C 122.758 133.973, 125 135.808, 125 135.191 C 125 132.749, 131.253 127.160, 136.739 124.697 C 139.977 123.244, 148.701 120.965, 156.516 119.529 C 177.603 115.655, 178.983 114.996, 176.465 109.998 C 174.220 105.540, 171.602 103.821, 168.725 104.914 C 164.045 106.694, 158.054 104.315, 143.409 94.866 C 138.409 91.640, 134.134 89.024, 133.909 89.053 C 133.684 89.082, 131.809 90.513, 129.743 92.233" stroke="none" fill="black" fill-rule="evenodd"/>
</svg>