<svg xmlns="http://www.w3.org/2000/svg" width="200" height="200" viewBox="0 0 200 200" version="1.1">
	<path d="M 123.500 10.610 C 110.600 12.476, 98.572 14.609, 87.500 16.995 C 69.277 20.922, 62.817 21.449, 55.157 19.636 C 47.533 17.831, 45.071 18.316, 47.612 21.124 C 48.546 22.156, 50.028 23.026, 50.905 23.058 C 51.782 23.089, 50.250 24.141, 47.500 25.395 C 44.750 26.649, 41.898 28.404, 41.162 29.296 C 39.561 31.236, 39.512 31.221, 55.500 33.529 C 69.202 35.506, 87.078 36.422, 88.784 35.234 C 89.490 34.742, 89.798 33.637, 89.468 32.777 C 88.863 31.200, 79.841 26.717, 74.741 25.459 C 70.676 24.457, 70.558 23.306, 74.444 22.576 C 80.277 21.482, 109.148 21.741, 116 22.949 C 134.033 26.129, 142 31.267, 142 39.719 C 142 41.958, 139.949 44.581, 132.032 52.468 C 126.550 57.929, 121.915 62.196, 121.732 61.949 C 121.548 61.702, 120.640 56.100, 119.714 49.500 C 117.715 35.259, 115.453 26.050, 113.461 24.043 C 110.784 21.347, 109.797 24.311, 109.645 35.500 C 109.502 45.971, 109.441 46.237, 106.658 48.455 C 103.304 51.130, 96.647 53.403, 96.183 52.033 C 95.214 49.174, 91.042 44.343, 87.997 42.554 C 85.172 40.895, 82.866 40.515, 76 40.577 C 65.035 40.675, 36.314 43.550, 32.750 44.905 C 24.447 48.062, 35.826 54.030, 53.250 55.657 C 56.962 56.004, 60 56.673, 60 57.144 C 60 57.615, 59.566 58, 59.035 58 C 56.863 58, 50.531 64.812, 48.351 69.493 C 45.659 75.274, 45.230 83.625, 47.411 87.800 C 51.065 94.795, 58.397 98.828, 69.500 99.950 L 76.500 100.657 72.556 102.423 C 64.357 106.094, 57.789 105.379, 54.569 100.465 L 53.041 98.133 43.961 100.563 C 34.141 103.191, 32 104.090, 30.098 106.381 C 27.786 109.168, 30.757 111.742, 43.629 118.103 C 58.867 125.633, 67.034 131.576, 71.604 138.458 C 76.410 145.697, 77.737 152.792, 76.004 161.977 C 74.747 168.639, 74.786 169.448, 76.523 172.672 C 83.928 186.422, 112.574 193.754, 143 189.687 C 163.378 186.962, 177.963 180.734, 180.436 173.700 C 181.969 169.342, 180.637 168.932, 168.469 170.019 C 153.758 171.332, 121.346 172.446, 122.111 171.611 C 123.111 170.520, 141.644 167.199, 162.233 164.420 C 172.830 162.990, 181.624 161.699, 181.775 161.552 C 181.926 161.404, 179.304 160.092, 175.947 158.636 C 169.364 155.781, 154.055 152.415, 142 151.173 L 134.500 150.400 143.500 149.605 C 150.692 148.970, 153.690 148.180, 158.426 145.672 C 165.929 141.699, 171.245 136.801, 170.411 134.629 C 169.156 131.358, 162.889 130.823, 139.160 131.963 C 109.039 133.411, 93.977 131.916, 87.525 126.841 L 84.818 124.711 91.931 122.456 C 95.844 121.215, 100.173 119.461, 101.552 118.558 C 104.021 116.940, 104.050 116.953, 103.434 119.407 C 102.482 123.198, 106.730 127, 111.917 127 C 121.217 127, 133.558 119.605, 140.254 110.020 C 145.177 102.974, 147.090 96.372, 147.071 86.500 C 147.054 77.710, 145.407 70.931, 140.855 60.923 L 137.863 54.345 140.181 50.590 C 141.457 48.525, 143.710 45.409, 145.188 43.667 L 147.876 40.500 146.833 45 C 144.925 53.233, 145.353 67.784, 147.714 75 C 149.317 79.897, 149.964 84.954, 150.335 95.500 C 150.645 104.271, 151.436 111.462, 152.454 114.753 C 159.222 136.628, 177.187 108.331, 178.645 73.500 C 179.005 64.884, 178.747 60.028, 177.728 56.281 C 176.450 51.580, 176.499 50.090, 178.224 41.281 C 181.022 26.994, 179.436 19, 173.805 19 C 170.941 19, 164.708 22.487, 158.430 27.600 L 152.785 32.198 153.482 27.134 C 154.432 20.224, 152.776 15.642, 148.334 12.898 C 145.490 11.140, 143.001 10.658, 135.648 10.444 C 130.617 10.297, 125.150 10.372, 123.500 10.610 M 118.500 14.044 C 115.200 14.541, 108.225 15.738, 103 16.704 L 93.500 18.460 104.500 19.134 C 115.856 19.830, 126.205 21.809, 132.745 24.533 C 137.728 26.609, 143.753 32.597, 144.561 36.277 C 145.206 39.213, 145.225 39.220, 147.167 37.277 C 148.345 36.099, 149.564 32.758, 150.227 28.884 C 152.395 16.230, 149.785 13.639, 134.573 13.338 C 129.033 13.229, 121.800 13.546, 118.500 14.044 M 168.307 23.792 C 166.551 24.731, 162.018 28.049, 158.234 31.164 C 151.365 36.818, 151.351 36.840, 149.927 44.164 C 147.778 55.214, 148.186 68.166, 150.924 75.790 C 152.167 79.249, 152.933 82.733, 152.626 83.531 C 151.784 85.727, 153.744 110.005, 155.087 114 C 155.733 115.925, 156.852 118.132, 157.571 118.904 C 161.061 122.649, 167.917 111.971, 172.635 95.447 C 175.884 84.066, 176.981 63.157, 174.711 55.872 C 173.414 51.708, 173.454 50.403, 175.111 42.872 C 176.124 38.267, 176.963 32.227, 176.976 29.450 C 177.011 21.984, 174.612 20.419, 168.307 23.792 M 59 25.645 C 53.637 26.231, 47 28.158, 47 29.130 C 47 29.608, 47.711 30, 48.580 30 C 49.449 30, 55.521 30.698, 62.075 31.550 C 68.628 32.403, 76.579 32.965, 79.745 32.800 L 85.500 32.500 77.500 29.338 C 68.858 25.923, 64.470 25.047, 59 25.645 M 112 37.432 C 112 47.058, 111.956 47.239, 108.908 50.086 C 107.207 51.675, 103.944 53.512, 101.658 54.168 C 99.371 54.824, 97.396 55.421, 97.269 55.495 C 96.819 55.755, 102.222 74.532, 103.352 76.638 C 104.454 78.691, 104.792 78.506, 111.845 71.967 L 119.190 65.158 118.013 55.829 C 116.786 46.107, 113.394 29.061, 112.510 28.177 C 112.230 27.896, 112 32.061, 112 37.432 M 67.852 43.482 C 67.587 43.747, 60.796 44.451, 52.761 45.048 C 44.726 45.644, 36.880 46.474, 35.326 46.892 C 32.643 47.614, 32.602 47.707, 34.520 48.738 C 43.328 53.474, 91.348 56.512, 92.698 52.419 C 93.280 50.651, 88.912 45.861, 85.364 44.379 C 82.288 43.093, 68.925 42.409, 67.852 43.482 M 128.389 59.821 L 122.277 65.500 122.773 82.600 C 123.307 101.046, 122.573 110.999, 120.678 111.001 C 119.804 111.002, 119.585 106.195, 119.831 92.392 C 120.013 82.156, 119.874 72.632, 119.521 71.229 C 118.894 68.730, 118.745 68.810, 112.440 75.059 C 108.898 78.570, 106 81.930, 106 82.525 C 106 83.121, 107.350 85.737, 109 88.339 C 110.650 90.941, 112 93.464, 112 93.947 C 112 94.429, 110.189 95.130, 107.975 95.504 L 103.951 96.184 106.111 99.680 C 108.784 104.004, 109.332 113.028, 107.183 117.335 C 104.934 121.843, 106.544 123.506, 113.125 123.475 C 120.287 123.441, 127.003 120.100, 134.087 113.048 C 146.535 100.656, 148.060 81.900, 138.252 61.822 L 134.500 54.141 128.389 59.821 M 81 56.946 C 71.646 57.440, 70.753 57.644, 72.817 58.821 C 75.954 60.609, 80.753 68.377, 82.569 74.603 C 83.851 79, 84.819 80.231, 89.561 83.497 L 95.065 87.288 97.782 84.909 C 99.277 83.601, 100.840 82.273, 101.256 81.959 C 101.672 81.644, 100.928 78.197, 99.601 74.298 C 98.275 70.399, 96.626 64.687, 95.936 61.604 C 95.017 57.498, 94.257 56.052, 93.091 56.196 C 92.216 56.303, 86.775 56.641, 81 56.946 M 61 60.121 C 55.148 62.448, 49.432 70.462, 48.961 77.001 C 48.457 84.004, 49.016 86.012, 52.563 89.938 C 56.721 94.541, 62.277 96.672, 72.557 97.609 C 80.348 98.318, 82.713 97.533, 89 92.147 C 92.438 89.202, 92.465 89.121, 90.500 87.558 C 89.400 86.682, 87.668 85.484, 86.651 84.895 C 84.975 83.924, 84.866 84.111, 85.481 86.912 C 85.854 88.610, 85.862 90, 85.499 90 C 84.408 90, 67.429 78.132, 65.550 76.055 C 64.590 74.994, 64.100 73.648, 64.461 73.063 C 65.523 71.345, 68.727 71.828, 74 74.500 C 76.713 75.875, 79.222 77, 79.575 77 C 80.704 77, 78.944 71.638, 76.353 67.187 C 72.339 60.292, 66.884 57.781, 61 60.121 M 69 75.448 C 69 75.711, 71.735 77.783, 75.077 80.052 C 80.733 83.893, 83.127 84.632, 81.527 82.044 C 80.802 80.871, 69 74.657, 69 75.448 M 99.677 86.816 L 96.979 89.632 99.408 91.913 C 101.333 93.722, 102.486 94.052, 104.971 93.506 C 106.695 93.128, 107.958 92.521, 107.777 92.159 C 104.753 86.104, 103.522 84, 103.002 84 C 102.657 84, 101.160 85.267, 99.677 86.816 M 90.953 94.069 L 87.500 96.918 91.500 96.310 C 93.700 95.975, 96.337 95.403, 97.360 95.038 C 99.077 94.425, 99.035 94.253, 96.813 92.797 C 94.534 91.304, 94.223 91.371, 90.953 94.069 M 91 99.077 C 85.206 100.096, 79.745 101.745, 77 103.307 C 67.255 108.849, 59.118 108.947, 54.079 103.584 C 51.914 101.280, 51.733 101.258, 46.182 102.643 C 37.326 104.853, 31.865 107.095, 32.283 108.350 C 32.494 108.981, 38.028 112.201, 44.583 115.507 C 57.963 122.254, 63.731 126.013, 69.346 131.643 C 77.619 139.940, 81.044 150.295, 78.956 160.698 C 77.347 168.715, 77.497 169.806, 80.780 173.904 C 85.040 179.220, 96.548 184.669, 107.381 186.500 C 127.316 189.868, 153.976 187.209, 168.559 180.398 C 173.511 178.086, 178.854 173.521, 177.820 172.487 C 177.533 172.200, 172.169 172.408, 165.899 172.948 C 148.044 174.487, 123.709 175.356, 119.672 174.598 C 114.984 173.719, 114.868 171.371, 119.418 169.470 C 123.497 167.765, 145.514 163.641, 159.500 161.962 C 165 161.301, 169.881 160.411, 170.348 159.983 C 172.412 158.088, 143.498 153.542, 122.221 152.417 C 110.008 151.771, 106.680 150.988, 108.483 149.183 C 108.858 148.808, 118.691 148.008, 130.333 147.406 C 148.393 146.473, 152.087 146.009, 155.500 144.248 C 161.288 141.260, 168.298 135.964, 167.508 135.176 C 167.135 134.804, 151.231 134.500, 132.165 134.500 C 98.484 134.500, 97.342 134.436, 91.915 132.240 C 86.434 130.022, 82.853 127.085, 81.734 123.890 C 81.286 122.611, 82.334 122.031, 86.835 121.069 C 98.465 118.582, 106 113.251, 106 107.510 C 106 105.692, 102.415 98.320, 101.264 97.771 C 100.844 97.571, 96.225 98.158, 91 99.077" stroke="none" fill="black" fill-rule="evenodd"/>
</svg>