<svg xmlns="http://www.w3.org/2000/svg" width="200" height="200" viewBox="0 0 200 200" version="1.1">
	<path d="M 74.500 7.506 C 65.155 10.821, 64.682 18.842, 73.439 25.522 C 75.381 27.003, 76.656 28.732, 76.366 29.490 C 76.079 30.237, 73.554 31.129, 70.675 31.500 C 58.210 33.108, 46.255 37.035, 42.875 40.633 L 40.605 43.049 42.829 45.275 C 44.894 47.341, 46.120 47.524, 60.026 47.842 C 72.074 48.117, 75 48.459, 75 49.592 C 75 50.366, 74.407 51, 73.682 51 C 72.956 51, 70.079 51.678, 67.287 52.507 C 62.820 53.834, 62.019 54.496, 60.606 58.028 C 58.634 62.956, 58.530 70.972, 60.384 75.282 C 63.239 81.922, 72.933 88.915, 82.759 91.421 C 85.966 92.239, 87.612 93.222, 87.851 94.463 C 88.189 96.220, 86.965 96.266, 58.181 95.570 C 26.778 94.812, 24 95.087, 24 98.962 C 24 101.710, 29.101 105.514, 45.526 115.015 C 53.542 119.652, 62.508 125.592, 65.451 128.214 C 72.363 134.375, 79.594 136.283, 96.500 136.410 C 107.622 136.493, 111 137.052, 111 138.809 C 111 139.189, 100.088 139.500, 86.750 139.500 C 66.904 139.500, 61.107 139.827, 54.831 141.300 C 50.613 142.290, 46.625 143.747, 45.969 144.538 C 44.331 146.511, 45.431 148.833, 48.568 150.026 C 52.801 151.635, 68.647 153.937, 80.440 154.657 C 90.062 155.243, 91.147 155.488, 89.440 156.686 C 88.373 157.436, 81.677 161.882, 74.559 166.566 C 60.861 175.582, 51.886 182.718, 49.319 186.636 C 47.028 190.132, 49.063 192.253, 53.888 191.400 C 58.525 190.579, 73.726 184.970, 86.472 179.376 C 91.956 176.969, 97.996 175, 99.894 175 C 101.792 175, 111.705 176.999, 121.923 179.442 C 152.835 186.834, 159 187.454, 159 183.168 C 159 179.489, 144.332 168.956, 127.766 160.739 C 122.395 158.075, 118 155.505, 118 155.027 C 118 153.872, 120.986 153.317, 137 151.500 C 152.862 149.699, 159.298 147.247, 159.811 142.808 C 160.203 139.415, 154.941 134.084, 145.983 128.799 L 139.710 125.097 150.605 119.942 C 156.597 117.106, 164.645 113.465, 168.489 111.851 C 176.302 108.570, 181 104.687, 181 101.509 C 181 98.839, 175.856 93.900, 170 90.946 C 167.525 89.698, 159.361 86.376, 151.859 83.562 L 138.217 78.448 140.067 74.974 C 141.084 73.063, 141.935 70.938, 141.958 70.250 C 142.044 67.691, 139.975 69.128, 138 73 C 136.878 75.200, 135.572 77, 135.099 77 C 133.943 77, 122.823 72.786, 115.951 69.745 C 111.087 67.591, 110.255 66.794, 109.202 63.280 C 107.599 57.930, 104.683 54.406, 99.655 51.744 C 96.302 49.969, 93.811 49.540, 86.751 49.522 C 72.636 49.487, 76.878 47.538, 91.759 47.221 C 104.662 46.947, 104.858 46.976, 105.177 49.187 C 105.809 53.575, 114.130 57.094, 129.750 59.579 C 133.033 60.102, 134 59.940, 134 58.868 C 134 57.910, 131.213 56.967, 125.001 55.823 C 115.025 53.986, 108.657 51.351, 108.200 48.872 C 107.932 47.418, 110.239 47.200, 129.700 46.831 C 148.797 46.470, 151.996 46.176, 155.500 44.460 C 164.162 40.216, 160.504 36.393, 135.901 23.977 C 106.147 8.962, 85.792 3.502, 74.500 7.506 M 74 10.752 C 69.696 12.902, 68.971 16.422, 72.030 20.311 C 75.898 25.228, 77.560 25.447, 80.079 21.372 C 82.455 17.527, 90.191 12, 93.196 12 C 96.921 12, 94.818 10.247, 90.360 9.636 C 82.630 8.576, 77.678 8.914, 74 10.752 M 90.204 16.128 C 85.459 18.477, 80.481 24.205, 81.309 26.362 C 82.721 30.043, 111.375 33.125, 116.738 30.174 C 119.525 28.641, 120.612 24.639, 119.128 21.381 C 116.137 14.818, 99.101 11.724, 90.204 16.128 M 122.709 23.866 C 123.020 26.183, 122.780 28.018, 122.114 28.429 C 119.786 29.869, 121.026 31.245, 124.098 30.630 C 128.095 29.831, 132 30.825, 132 32.641 C 132 33.454, 127.812 36.092, 122.250 38.783 L 112.500 43.500 127 43.809 C 144.021 44.172, 153.091 43.418, 155.654 41.426 C 157.413 40.059, 157.359 39.874, 154.500 37.496 C 152.850 36.124, 144.905 31.624, 136.845 27.496 L 122.189 19.991 122.709 23.866 M 79 30.031 C 79 30.564, 79.675 31, 80.500 31 C 81.325 31, 82 30.823, 82 30.607 C 82 30.391, 81.325 29.955, 80.500 29.638 C 79.675 29.322, 79 29.499, 79 30.031 M 80.250 33.820 C 78.246 34.104, 78 34.708, 78 39.333 L 78 44.527 92.750 44.149 C 105.268 43.828, 107.907 43.482, 110.186 41.863 C 111.664 40.813, 115.848 38.562, 119.486 36.860 C 123.123 35.158, 125.931 33.597, 125.725 33.392 C 125.520 33.187, 120.435 33.487, 114.426 34.059 C 107.882 34.683, 99.289 34.779, 93 34.300 C 87.225 33.860, 81.487 33.644, 80.250 33.820 M 63 35.554 C 59.425 36.321, 54.475 37.697, 52 38.611 C 47.659 40.215, 43.590 42.923, 44.361 43.695 C 45.647 44.980, 58.812 46.047, 66.250 45.468 L 75 44.788 75 39.394 C 75 34.157, 74.920 34.002, 72.250 34.079 C 70.737 34.123, 66.575 34.787, 63 35.554 M 78.796 52.537 C 77.202 54.132, 86.893 86.750, 89.836 89.693 C 92.438 92.295, 111.753 91.054, 119.795 87.768 C 125.788 85.320, 132.997 81.071, 132.977 80 C 132.971 79.725, 127.782 77.420, 121.444 74.877 L 109.921 70.254 108.544 73.549 C 107.787 75.362, 106.002 77.608, 104.578 78.541 C 98.834 82.304, 93.071 76.189, 88.350 61.323 C 87.023 57.146, 86.120 53.546, 86.343 53.323 C 86.566 53.100, 88.054 54.016, 89.649 55.358 C 93.166 58.318, 104.425 65, 105.894 65 C 106.633 65, 106.637 64.175, 105.906 62.252 C 103.321 55.454, 96.845 52.054, 86.417 52.022 C 82.521 52.010, 79.092 52.242, 78.796 52.537 M 69.240 54.712 C 64.089 56.229, 63.947 56.374, 62.414 61.648 C 59.209 72.674, 63.733 80.243, 77.308 86.563 C 86.126 90.669, 86.224 90.487, 81.941 77.953 C 79.864 71.877, 77.606 63.777, 76.922 59.953 C 76.239 56.129, 75.414 53.036, 75.090 53.081 C 74.765 53.125, 72.133 53.859, 69.240 54.712 M 91 61.225 C 91 63.823, 97.110 74.988, 99.120 76.064 C 101.802 77.499, 104.471 76.456, 105.848 73.434 C 107.575 69.644, 107.454 69.447, 101.250 65.950 C 98.088 64.168, 94.487 62.048, 93.250 61.240 C 91.287 59.958, 91 59.956, 91 61.225 M 133.134 83.358 C 127.371 89.492, 110.909 94.424, 98.243 93.812 C 94.230 93.617, 91.121 93.862, 91.286 94.358 C 92.075 96.724, 147.941 93.262, 155.446 90.383 C 156.444 89.999, 157 90.347, 157 91.354 C 157 92.869, 155.812 93.322, 144.500 96.126 C 137.297 97.912, 114.666 105.130, 106.793 108.153 L 99.086 111.112 100.687 114.470 C 102.166 117.571, 102.564 117.784, 105.894 117.261 C 107.877 116.949, 111.165 116.116, 113.200 115.409 C 116.733 114.182, 117.311 114.324, 126.018 118.562 C 131.033 121.003, 135.719 123, 136.430 123 C 137.141 123, 143.523 120.254, 150.612 116.897 C 157.700 113.541, 165.750 109.907, 168.500 108.822 C 174.161 106.589, 178 103.434, 178 101.014 C 178 99.184, 174.433 96.278, 168.469 93.248 C 164.130 91.043, 137.713 81, 136.253 81 C 135.756 81, 134.352 82.061, 133.134 83.358 M 29.691 97.683 C 28.146 97.937, 27.040 98.674, 27.234 99.322 C 27.643 100.688, 39.213 108.386, 51.229 115.287 C 55.814 117.920, 61.800 121.846, 64.532 124.012 C 67.265 126.177, 70.486 128.670, 71.691 129.551 C 75.020 131.985, 90.308 134.310, 98.847 133.681 C 102.888 133.383, 106.373 132.960, 106.593 132.740 C 106.813 132.521, 105.644 129.852, 103.997 126.810 C 101.078 121.421, 100.869 121.263, 95.894 120.674 C 90.830 120.074, 88 118.672, 88 116.762 C 88 116.216, 89.599 114.305, 91.553 112.515 L 95.106 109.261 92.431 103.805 L 89.755 98.350 71.628 98.331 C 61.657 98.320, 48.775 98.066, 43 97.766 C 37.225 97.466, 31.236 97.429, 29.691 97.683 M 104.250 97.747 C 98.063 97.922, 93 98.291, 93 98.566 C 93 98.841, 94.136 101.308, 95.524 104.047 L 98.047 109.027 101.084 107.456 C 102.755 106.593, 110.056 103.892, 117.311 101.456 L 130.500 97.026 123 97.227 C 118.875 97.337, 110.438 97.571, 104.250 97.747 M 93.206 114.568 C 90.293 116.609, 91.247 118, 95.559 118 C 99.324 118, 99.491 117.787, 97.965 114.934 C 96.711 112.592, 96.095 112.545, 93.206 114.568 M 110.250 118.954 C 106.813 119.802, 104.004 120.721, 104.009 120.998 C 104.043 122.800, 110.314 132, 111.508 132 C 113.938 132, 132 125.964, 132 125.152 C 132 124.738, 129.863 123.349, 127.250 122.067 C 117.808 117.432, 117.014 117.286, 110.250 118.954 M 132 128.435 C 130.625 129.180, 125.555 131.018, 120.733 132.518 L 111.967 135.246 114.486 139.754 L 117.006 144.263 113.253 143.605 C 111.189 143.244, 104.550 142.521, 98.500 141.999 C 82.554 140.624, 51.773 143.094, 48.658 145.999 C 46.565 147.951, 61.697 150.546, 85.500 152.316 L 101.500 153.506 94.500 157.362 C 76.564 167.242, 48.706 187.735, 51.807 188.769 C 53.441 189.314, 69.188 183.769, 83.883 177.475 C 99.678 170.709, 97.576 170.707, 125.976 177.519 C 136.687 180.089, 147.937 182.401, 150.976 182.659 L 156.500 183.126 152.500 179.483 C 147.938 175.328, 130.271 164.526, 121.836 160.735 C 118.721 159.335, 115.675 157.262, 115.069 156.129 C 113.182 152.603, 117.248 151.028, 132.692 149.306 C 161.474 146.096, 163.522 142.682, 143.827 130.750 C 137.079 126.662, 135.751 126.402, 132 128.435" stroke="none" fill="black" fill-rule="evenodd"/>
</svg>