<svg xmlns="http://www.w3.org/2000/svg" width="200" height="200" viewBox="0 0 200 200" version="1.1">
	<path d="M 103.500 10.162 C 94.150 10.547, 81.550 11.630, 75.500 12.567 C 69.450 13.505, 62.932 14.324, 61.015 14.386 C 56.355 14.538, 56.157 16.468, 60.219 22.149 C 64.705 28.424, 69.317 32.076, 75.318 34.108 L 80.378 35.821 75.439 36.475 C 66.989 37.593, 64.883 38.148, 65.222 39.166 C 65.654 40.462, 64.699 40.469, 79.500 39.062 C 88.967 38.163, 93.264 38.122, 95.313 38.913 L 98.126 39.998 94.966 44.398 L 91.806 48.799 76.229 49.529 C 61.623 50.213, 48.411 49.748, 43.250 48.368 C 39.566 47.383, 40.661 45.209, 46.500 41.913 C 54.224 37.554, 53.969 34.912, 46.210 38.913 C 37.091 43.615, 35.594 48.461, 42.500 50.927 C 45.560 52.020, 51.708 52.323, 68.659 52.219 C 88.148 52.099, 90.892 52.276, 91.433 53.686 C 91.771 54.568, 91.339 56.073, 90.472 57.031 C 89.043 58.610, 88.464 58.643, 84.289 57.386 C 75.076 54.614, 64.520 56.008, 58.895 60.742 C 53.039 65.670, 51.606 72.942, 54.543 82.833 C 56.531 89.526, 60.660 94.159, 67.243 97.081 C 71.694 99.056, 74.109 99.407, 83 99.370 C 91.724 99.334, 94.834 98.870, 101.390 96.623 C 115.090 91.929, 123.344 85.549, 125.957 77.631 C 128.207 70.812, 123.826 63.305, 113.864 56.913 C 109.614 54.185, 107.956 53.690, 103.722 53.883 C 99.240 54.088, 98.808 53.936, 99.953 52.557 C 101.016 51.276, 103.869 51, 116.057 51 C 131.169 51, 135.586 50.242, 136.652 47.464 C 137.453 45.378, 133.704 41.508, 127.739 38.261 L 122.951 35.656 129.726 31.684 C 137.929 26.875, 151.014 20.680, 151.641 21.308 C 151.891 21.558, 150.051 23.510, 147.551 25.647 L 143.007 29.531 143.978 39.516 C 145.272 52.828, 145.253 72.724, 143.940 78.846 C 143.356 81.566, 141.444 86.187, 139.690 89.117 C 137.131 93.390, 135.327 95.042, 130.567 97.471 C 124.877 100.376, 124.078 100.505, 111.067 100.625 C 103.605 100.693, 92.100 101.245, 85.500 101.851 C 78.900 102.457, 68.100 102.977, 61.500 103.007 C 27.227 103.163, 20.274 108.989, 41.236 119.986 L 49.786 124.472 54.643 123.063 C 62.335 120.831, 68.397 120.568, 69.917 122.400 C 70.633 123.263, 71.626 127.611, 72.124 132.062 C 73.736 146.474, 76.835 149.496, 90 149.499 C 94.941 149.499, 101.714 148.712, 106.174 147.618 C 112.171 146.148, 116.276 145.837, 124.950 146.194 C 137.538 146.713, 140.544 148.039, 134.682 150.489 C 120.555 156.391, 94.391 158.626, 82 154.988 C 78.609 153.993, 78.350 154.117, 73.680 158.979 C 68.194 164.691, 67.908 167.120, 72.335 170.400 C 75.093 172.443, 76.011 172.492, 106.335 172.215 C 123.476 172.059, 138.935 172.187, 140.689 172.499 C 143.522 173.004, 144.049 173.649, 145.417 178.284 C 146.264 181.153, 148.019 184.813, 149.317 186.417 C 158.577 197.858, 174.217 174.198, 174.382 148.500 C 174.450 137.896, 171.977 131.362, 166.679 128.146 C 161.284 124.870, 158.114 124.761, 146.955 127.464 C 126.777 132.353, 110 129.661, 110 121.534 C 110 116.226, 122.216 111.250, 137.599 110.291 L 146.698 109.724 149.099 114.024 C 150.420 116.388, 152.758 119.253, 154.296 120.391 C 156.857 122.285, 157.319 122.335, 159.796 120.979 C 163.598 118.899, 167.730 110.031, 170.074 98.916 C 172.794 86.021, 173.671 62.711, 171.773 53.757 L 170.343 47.013 173.226 42.757 C 178.113 35.542, 182.013 27.183, 182.646 22.567 C 183.172 18.727, 182.918 17.827, 180.670 15.580 C 178.426 13.335, 177.273 13.008, 171.795 13.061 C 168.333 13.095, 163.025 13.901, 160 14.853 C 154.573 16.561, 154.457 16.554, 151.241 14.381 C 145.295 10.361, 130.472 9.051, 103.500 10.162 M 97.050 13.035 C 83.024 14.132, 80.429 14.729, 89 14.890 C 97.364 15.046, 102.633 16.542, 105.730 19.639 C 108.058 21.967, 108.196 23.113, 106.618 27 C 106.162 28.123, 107.767 29.211, 113.001 31.327 L 119.993 34.154 128.892 29.062 C 133.786 26.261, 140.859 22.578, 144.609 20.878 C 150.794 18.073, 151.258 17.662, 149.604 16.452 C 144.864 12.987, 119.105 11.312, 97.050 13.035 M 168.500 15.594 C 160.221 17.456, 155 19.481, 155 20.830 C 155 21.662, 152.959 24.298, 150.464 26.689 L 145.929 31.035 147.088 44.142 C 148.526 60.404, 147.848 76.683, 145.435 83.845 C 143.115 90.732, 136.509 98.109, 130.279 100.770 C 124.260 103.342, 114.312 104.368, 106.373 103.237 C 102.730 102.719, 99.284 102.738, 97.873 103.286 C 96.568 103.792, 82.675 104.802, 67 105.530 C 40.487 106.761, 32 107.867, 32 110.092 C 32 111.416, 38.879 116.151, 44.864 118.944 C 49.777 121.238, 50.388 121.305, 54.800 120.028 C 62.437 117.818, 67.743 117.601, 70.470 119.388 C 73.088 121.104, 74.982 126.377, 75 132 C 75.020 138.356, 76.897 142.966, 80.311 145.048 C 84.546 147.630, 93.902 147.609, 104.813 144.993 C 117.723 141.898, 136.863 142.721, 140.004 146.505 C 143.069 150.198, 135.858 154.255, 120.408 157.531 C 111.462 159.427, 87.613 159.807, 82.222 158.138 C 79.201 157.203, 78.671 157.396, 75.472 160.595 C 71.606 164.461, 71.211 166.102, 73.659 168.128 C 74.994 169.232, 82.001 169.500, 109.503 169.500 C 134.718 169.500, 144.069 169.817, 145.143 170.706 C 145.944 171.370, 147.178 174.171, 147.886 176.930 C 149.372 182.731, 152.361 187, 154.936 187 C 159.065 187, 164.665 179.033, 168.434 167.798 C 173.394 153.011, 172.831 138.242, 167.071 132.076 C 163.118 127.845, 158.682 127.346, 148.377 129.974 C 130.953 134.419, 117.062 133.627, 110.440 127.813 C 104.234 122.364, 106.601 116.276, 116.655 111.828 C 122.307 109.328, 134.430 107.081, 142.500 107.037 L 148.500 107.005 151.355 112.468 C 154.827 119.114, 157.467 120.321, 160.589 116.692 C 167.793 108.316, 172.532 70.157, 168.623 52 L 167.439 46.500 171.284 40.709 C 179.093 28.950, 181.912 19.831, 178.589 17.074 C 176.978 15.737, 171.463 14.928, 168.500 15.594 M 61 17.727 C 61 19.334, 65.499 25.143, 68.539 27.462 C 73.999 31.627, 80.184 33.327, 87.873 32.777 C 91.546 32.514, 95.828 31.630, 97.388 30.813 L 100.225 29.326 91.362 26.229 C 76.416 21.007, 61 16.690, 61 17.727 M 79.639 17.821 C 77.193 18.401, 78.703 19.134, 90.012 22.860 C 100.737 26.393, 103.412 26.962, 104.122 25.860 C 105.634 23.512, 104.623 21.559, 101 19.826 C 97.136 17.979, 84.124 16.758, 79.639 17.821 M 97.699 33.324 L 92.897 35.558 96.199 36.529 C 100.292 37.733, 100.980 40.814, 98.069 44.903 C 96.931 46.501, 96 48.045, 96 48.335 C 96 49.839, 102.403 46.630, 109.347 41.645 L 117.194 36.012 112.347 33.933 C 105.327 30.921, 103.066 30.827, 97.699 33.324 M 112.489 42.750 L 105.500 47.500 117.500 47.790 C 130.356 48.100, 134.368 47.604, 133.760 45.779 C 133.354 44.561, 122.199 38.032, 120.489 38.012 C 119.933 38.005, 116.333 40.138, 112.489 42.750 M 94 52.059 C 94 52.641, 94.450 52.840, 95 52.500 C 95.550 52.160, 96 51.684, 96 51.441 C 96 51.198, 95.550 51, 95 51 C 94.450 51, 94 51.477, 94 52.059 M 93.474 58.029 C 91.686 60.005, 91.696 60.098, 93.853 61.610 C 103.815 68.587, 104.492 76.728, 95.814 85.181 C 90.354 90.499, 88.156 91.002, 83.304 88.044 C 75.548 83.315, 75.121 76.524, 81.970 66.813 L 86.082 60.982 83.476 59.991 C 82.043 59.446, 77.891 59, 74.251 59 C 62.219 59, 56 64.018, 56 73.726 C 56 84.912, 61.318 92.532, 71.167 95.457 C 85.702 99.773, 109.411 93.786, 119.007 83.377 C 125.124 76.740, 125.465 72.083, 120.285 65.927 C 118.792 64.152, 115.213 61.192, 112.333 59.350 C 107.911 56.521, 106.179 56, 101.203 56 C 96.552 56, 94.923 56.428, 93.474 58.029 M 86.225 65.745 C 77.922 76.311, 78.053 84.469, 86.562 86.605 C 91.100 87.744, 99.004 79.797, 98.996 74.102 C 98.991 70.566, 95.922 65.871, 92.226 63.745 L 89.176 61.991 86.225 65.745" stroke="none" fill="black" fill-rule="evenodd"/>
</svg>