<svg xmlns="http://www.w3.org/2000/svg" width="200" height="200" viewBox="0 0 200 200" version="1.1">
	<path d="M 73.802 9.059 C 62.594 10.905, 65.772 19.933, 80.305 27.526 C 83.434 29.162, 85.996 30.959, 85.998 31.519 C 85.999 32.149, 81.899 32.531, 75.250 32.519 C 62.800 32.497, 54.332 34.119, 47.408 37.853 C 42.125 40.702, 40.460 44.477, 43.407 46.923 C 46.034 49.103, 57.813 50.311, 67.277 49.372 C 79.883 48.120, 78.002 46.418, 64.500 46.859 C 47.001 47.430, 40.263 44.457, 48.979 40.011 C 55.782 36.540, 65.600 34.773, 75.711 35.200 C 80.777 35.414, 85.105 35.794, 85.329 36.045 C 85.552 36.295, 86.034 39.247, 86.401 42.604 L 87.066 48.708 81.234 50.834 C 65.586 56.540, 56.263 68.124, 59.087 78.352 C 61.681 87.748, 76.263 96.877, 92.788 99.450 L 101.500 100.806 83.500 100.868 C 71.377 100.910, 63.378 100.463, 59 99.500 C 55.425 98.714, 48.433 98.054, 43.462 98.035 C 36.031 98.006, 33.630 98.400, 29.963 100.250 C 18.603 105.980, 25.339 116.190, 42.376 119.063 C 48.934 120.170, 63.008 119.689, 66.876 118.227 C 67.769 117.889, 65.662 120.247, 62.192 123.467 C 52.700 132.279, 50.754 137.541, 55.380 141.888 C 60.922 147.094, 79.829 149.197, 101.872 147.060 L 114.244 145.860 117.122 148.617 C 118.705 150.133, 120 151.751, 120 152.212 C 120 154.262, 112.774 155.240, 88.359 156.493 C 60.324 157.932, 51.851 159.400, 48.016 163.483 L 45.895 165.741 49.186 169.032 C 57.271 177.118, 67.237 178.373, 93.282 174.586 C 114.054 171.565, 118.523 171.425, 124.018 173.624 C 128.869 175.565, 130.945 179.063, 131.724 186.613 C 132.030 189.576, 132.689 192, 133.190 192 C 135.330 192, 139.890 188.843, 143.667 184.746 C 149.601 178.308, 152.174 170.719, 152.735 158 C 153.399 142.972, 150.477 131.781, 143.437 122.383 L 141.102 119.267 149.801 118.565 C 168.011 117.096, 176.861 113.584, 176.968 107.785 C 177.055 103.101, 162.590 93, 155.795 93 C 153.541 93, 142.835 86.929, 137.176 82.443 C 136.998 82.301, 137.561 80.816, 138.426 79.143 C 139.292 77.469, 140 73.888, 140 71.185 C 140 66.218, 138.372 63.082, 133.509 58.683 C 129.889 55.409, 117.086 49.940, 111.233 49.167 C 106.161 48.497, 107.115 48.333, 119.500 47.748 C 135.313 47.001, 149.807 44.739, 155 42.207 C 161.699 38.940, 159.326 34.116, 149.192 30.402 C 134.453 24.999, 125.196 20.523, 121.500 17.011 C 113.712 9.609, 103.140 6.287, 97.047 9.327 C 95.315 10.191, 93.320 10.676, 92.615 10.406 C 89.936 9.378, 77.343 8.477, 73.802 9.059 M 72.352 11.993 C 69.258 13.242, 68.874 14.375, 70.673 16.944 C 72.217 19.148, 83.495 27, 85.116 27 C 85.560 27, 86.427 25.087, 87.043 22.750 C 87.659 20.413, 88.837 17.448, 89.661 16.163 C 91.533 13.244, 91.148 12.872, 85.260 11.903 C 79.091 10.887, 75.023 10.916, 72.352 11.993 M 99.088 11.421 C 100.117 12.451, 117.919 17.678, 117.370 16.789 C 116.155 14.824, 106.421 11.019, 102.583 11.010 C 100.429 11.004, 98.856 11.189, 99.088 11.421 M 92.580 16.250 C 91.774 17.488, 90.538 20.662, 89.835 23.304 C 88.299 29.075, 88.537 29.309, 97.679 31.034 C 102.607 31.964, 106.211 31.954, 114.076 30.991 C 124.986 29.654, 126.361 28.726, 123.625 24.550 C 122.413 22.700, 119.032 21.140, 109.557 18.058 C 102.698 15.826, 96.401 14, 95.566 14 C 94.730 14, 93.386 15.012, 92.580 16.250 M 127 27.523 C 127 29.039, 127.787 30.865, 128.750 31.581 C 131.424 33.570, 129.514 35.677, 120.457 40.726 L 112.500 45.162 124 44.622 C 135.461 44.083, 147.954 42.148, 153.331 40.078 C 158.627 38.039, 156.102 36.096, 139.500 29.433 C 126.565 24.241, 127 24.307, 127 27.523 M 89 33 C 89 33.550, 90.463 33.968, 92.250 33.930 C 94.974 33.871, 95.176 33.720, 93.500 33 C 90.737 31.813, 89 31.813, 89 33 M 120.500 34.697 C 117.931 35.637, 114.354 35.996, 110.500 35.702 C 107.200 35.449, 101.013 35.730, 96.750 36.325 L 89 37.407 89 41.074 L 89 44.742 96.861 45.427 L 104.722 46.113 115.111 40.466 C 128.817 33.016, 130.750 30.946, 120.500 34.697 M 90.500 48.500 C 92.966 49.343, 102 49.620, 102 48.853 C 102 48.384, 99.188 48.036, 95.750 48.079 C 92.313 48.122, 89.950 48.312, 90.500 48.500 M 90.860 51.473 C 90.285 52.049, 91.385 58.786, 92.163 59.444 C 92.348 59.602, 94.975 60.528, 98 61.502 C 101.025 62.477, 105.200 64.128, 107.278 65.172 L 111.055 67.069 110.399 64.284 C 109.397 60.031, 106.446 55.681, 103.319 53.845 C 100.265 52.053, 91.878 50.456, 90.860 51.473 M 81.844 53.394 C 68.462 58.174, 59.304 69.069, 61.446 77.659 C 62.623 82.377, 70.622 89.149, 79.336 92.804 C 88.150 96.502, 100.723 98.418, 99.696 95.907 C 99.380 95.133, 97.921 90.675, 96.454 86 C 94.988 81.325, 92.779 76.375, 91.547 75 C 85.936 68.739, 84.283 63.060, 87.542 61.237 C 88.732 60.571, 88.931 59.419, 88.414 56.187 C 87.685 51.627, 87.276 51.453, 81.844 53.394 M 108.771 55.392 C 110.408 57.257, 112.278 60.969, 112.924 63.642 C 114.081 68.420, 114.267 68.598, 124.181 74.430 C 133.723 80.043, 134.336 80.262, 135.619 78.507 C 138.103 75.109, 138.365 70.329, 136.288 66.269 C 132.903 59.649, 118.734 52, 109.859 52 L 105.793 52 108.771 55.392 M 89.070 65.191 C 89.032 66.671, 89.450 68.160, 90 68.500 C 91.194 69.238, 91.194 67.278, 90 64.500 C 89.233 62.714, 89.133 62.788, 89.070 65.191 M 93.435 65.701 C 95.672 74.965, 96.139 75.923, 99.388 77.931 C 103.272 80.331, 107.252 80.606, 108.926 78.589 C 109.570 77.813, 110.359 75.562, 110.680 73.586 L 111.263 69.994 104.881 67.136 C 101.372 65.565, 97.208 63.969, 95.629 63.590 C 92.890 62.933, 92.789 63.029, 93.435 65.701 M 113.095 75.618 C 112.545 77.608, 111.330 80.083, 110.393 81.118 C 108.506 83.203, 103.960 83.584, 100.849 81.919 C 99.738 81.324, 98.596 81.071, 98.312 81.355 C 97.879 81.788, 101.468 94.071, 102.638 96.160 C 103.266 97.282, 114.755 94.158, 120.269 91.365 C 126.015 88.455, 132 84.191, 132 83.007 C 132 82.356, 115.507 72, 114.471 72 C 114.264 72, 113.644 73.628, 113.095 75.618 M 131.500 87.594 C 126.920 91.445, 116.164 96.610, 109.750 98.038 C 99.836 100.245, 102.965 101.309, 117.250 100.587 C 133.514 99.765, 149.990 98.105, 151.771 97.108 C 152.671 96.604, 150.352 94.538, 144.559 90.683 C 139.862 87.557, 135.678 85.016, 135.260 85.036 C 134.842 85.056, 133.150 86.207, 131.500 87.594 M 156.474 96.957 C 156.799 97.484, 155.701 98.620, 154.034 99.483 C 152.366 100.345, 142.114 106.607, 131.251 113.400 C 108.751 127.468, 99.766 132.250, 96.663 131.808 C 93.142 131.307, 93.931 125.034, 98.825 114.612 C 101.121 109.723, 103 105.335, 103 104.862 C 103 104.388, 94.703 104, 84.562 104 C 71.103 104, 64.285 103.565, 59.312 102.390 C 49.187 99.998, 35.204 100.113, 30.905 102.624 C 26.864 104.983, 26.153 107.392, 28.662 110.220 C 34.826 117.165, 51.233 118.722, 72.750 114.402 C 78.077 113.333, 76.625 115.969, 68.839 121.500 C 61.216 126.915, 56 133.008, 56 136.495 C 56 139.844, 59.399 142.213, 66.271 143.653 C 73.737 145.218, 93.100 145.373, 105.373 143.967 C 114.132 142.964, 114.291 142.984, 117.692 145.578 C 122.084 148.928, 123.769 152.369, 122.039 154.453 C 119.813 157.135, 113.934 158.014, 91.500 159.021 C 79.400 159.564, 66.419 160.468, 62.654 161.028 C 55.094 162.154, 49.659 164.471, 50.266 166.309 C 50.483 166.964, 52.790 168.820, 55.392 170.433 C 62.276 174.698, 71.316 174.944, 95.333 171.520 C 115.556 168.637, 121.395 168.738, 126.867 172.065 C 130.608 174.340, 133.985 179.509, 134.012 183 C 134.022 184.375, 134.446 186.157, 134.954 186.960 C 135.742 188.206, 136.212 188.132, 138.151 186.460 C 146.951 178.872, 150.167 170.558, 150.136 155.476 C 150.095 135.524, 142.071 119, 132.423 119 C 130.047 119, 129 118.541, 129 117.500 C 129 116.263, 130.825 116, 139.428 116 C 158.871 116, 174 112.569, 174 108.160 C 174 105.745, 168.005 100.361, 162.565 97.890 C 158.098 95.861, 155.556 95.472, 156.474 96.957 M 132 102.189 C 125.675 102.668, 117.350 103.306, 113.500 103.607 L 106.500 104.153 102.214 113.630 C 97.459 124.144, 96.099 129, 97.908 129 C 99.986 129, 109.186 123.921, 126.500 113.218 C 143.515 102.699, 146.258 100.857, 144.450 101.159 C 143.928 101.246, 138.325 101.709, 132 102.189" stroke="none" fill="black" fill-rule="evenodd"/>
</svg>