<svg xmlns="http://www.w3.org/2000/svg" width="200" height="200" viewBox="0 0 200 200" version="1.1">
	<path d="M 66.223 12.557 C 65 13.413, 64 14.806, 64 15.652 C 64 18.250, 66.957 22.356, 71.022 25.402 C 74.770 28.211, 74.848 28.392, 73.472 31.055 C 72.284 33.352, 71.179 33.917, 66.775 34.483 C 54.466 36.063, 43.275 42.056, 44.166 46.591 C 44.936 50.507, 49.570 52.389, 59.512 52.824 C 68.603 53.221, 69 53.334, 69 55.521 C 69 57.067, 67.875 58.466, 65.509 59.862 C 60.407 62.872, 58.004 67.413, 58.026 74 C 58.059 83.912, 63.708 91.595, 73.589 95.168 C 76.404 96.186, 79 99.776, 79 102.649 C 79 102.842, 64.567 103, 46.927 103 C 18.034 103, 14.885 103.159, 15.177 104.603 C 15.377 105.594, 22.152 109.213, 32.924 114.083 C 42.508 118.415, 51.620 123.178, 53.174 124.667 C 56.536 127.887, 56.824 131.951, 54.482 143.084 C 53.648 147.052, 53.113 150.446, 53.294 150.628 C 53.476 150.809, 58.996 149.571, 65.562 147.877 C 85.628 142.700, 109 142.721, 109 147.917 C 109 152.567, 92.699 154.341, 75.854 151.524 C 61.250 149.082, 53.588 150.753, 51.026 156.936 C 47.148 166.299, 58.151 181.518, 74.720 189.706 C 81.385 193, 83.265 193.463, 91.437 193.820 C 99.471 194.172, 101.421 193.909, 106.738 191.762 C 112.364 189.490, 113.779 189.336, 125.166 189.766 C 142.623 190.425, 150 187.865, 150 181.148 C 150 174.722, 140.583 170, 127.769 170 C 116.389 170, 107.135 172.770, 91.780 180.771 C 90.397 181.492, 86.956 174.500, 87.228 171.523 C 87.683 166.545, 90.104 166.031, 113.201 166.015 C 138.183 165.997, 143.074 165.155, 148.250 159.983 C 151.473 156.762, 152 155.603, 152 151.732 C 152 149.256, 151.247 144.897, 150.326 142.046 C 148.980 137.879, 147.951 136.502, 145.076 135.023 C 138.580 131.681, 133 127.058, 133 125.019 C 133 121.353, 138.948 119.570, 164.804 115.486 C 177.295 113.513, 180.720 112.392, 182.092 109.828 C 182.874 108.366, 182.767 107.293, 181.670 105.619 C 180.047 103.143, 168.300 96.967, 164.397 96.538 C 163.039 96.389, 156.162 93.867, 149.115 90.933 L 136.304 85.599 138.771 80.843 C 142.411 73.827, 141.415 70.035, 134.035 62.824 C 128.225 57.147, 126.109 56.144, 116.081 54.309 C 113.650 53.864, 111.498 53.008, 111.300 52.407 C 111.056 51.669, 115.580 51.111, 125.219 50.689 C 139.351 50.070, 153.577 47.425, 156.697 44.837 C 162.143 40.317, 158.864 36.264, 147.211 33.113 C 142.970 31.967, 135.900 29.515, 131.500 27.665 C 125.005 24.934, 123.435 23.849, 123.154 21.900 C 122.697 18.725, 121.366 17.227, 117.043 15.022 C 111.958 12.428, 105.304 11.657, 98.634 12.891 C 94.135 13.722, 91.553 13.636, 86.697 12.491 C 78.408 10.536, 69.064 10.566, 66.223 12.557 M 69.250 13.992 C 65.386 15.612, 66.649 18.873, 72.917 23.460 L 76.335 25.960 81.125 21.480 C 83.759 19.016, 86.384 17, 86.957 17 C 87.531 17, 88 16.590, 88 16.088 C 88 14.420, 72.390 12.675, 69.250 13.992 M 100.100 15.434 C 100.992 16.325, 120.326 23.007, 120.760 22.573 C 121.772 21.561, 115.996 17.092, 112.378 16.088 C 108.638 15.049, 99.214 14.547, 100.100 15.434 M 89.330 18.792 C 85.453 20.881, 80 25.666, 80 26.979 C 80 27.509, 83.182 28.909, 87.071 30.090 C 96.612 32.988, 109.779 32.536, 115.306 29.120 C 117.338 27.864, 119 26.490, 119 26.067 C 119 25.297, 95.390 16.930, 93.500 17.031 C 92.950 17.060, 91.074 17.852, 89.330 18.792 M 120.695 28.352 C 120.410 29.095, 118.293 30.635, 115.991 31.774 L 111.806 33.845 123.493 33.270 L 135.179 32.694 134.840 35.011 C 134.582 36.772, 132.269 38.551, 125.215 42.414 L 115.930 47.500 122.715 47.806 C 134.976 48.359, 150.909 45.530, 155.170 42.044 L 157.500 40.137 152.840 38.062 C 150.277 36.920, 146.677 35.704, 144.840 35.360 C 143.003 35.016, 137.360 32.994, 132.301 30.867 C 122.063 26.563, 121.434 26.427, 120.695 28.352 M 76.147 31.725 C 75.182 33.529, 75.791 33.712, 86.820 34.939 C 93.254 35.654, 99.414 36.013, 100.509 35.736 C 101.605 35.458, 100.692 35.180, 98.478 35.116 C 95.144 35.020, 87.078 33.066, 78.836 30.358 C 77.818 30.024, 76.773 30.555, 76.147 31.725 M 124.500 35.643 C 122.850 35.831, 115.563 36.715, 108.307 37.605 C 97.776 38.898, 93.825 39.001, 88.725 38.113 C 85.211 37.501, 80.505 37, 78.266 37 C 74.600 37, 74.087 37.313, 73.098 40.149 C 72.494 41.881, 72 44.774, 72 46.577 L 72 49.855 77.500 49.288 C 80.983 48.928, 83 49.099, 83 49.753 C 83 51.090, 80.571 52, 77 52 C 72.915 52, 71 52.958, 71 55.002 C 71 56.556, 71.490 56.676, 74.750 55.919 C 86.105 53.282, 102.850 56.295, 109.555 62.183 C 113.848 65.952, 115.223 68.346, 115.945 73.313 C 116.474 76.945, 116.833 77.267, 123.498 80.074 C 134.088 84.536, 133.716 84.514, 135.974 80.810 C 137.084 78.990, 137.992 76.375, 137.991 75 C 137.988 68.718, 127.016 58.006, 120.574 57.994 C 113.389 57.981, 106.575 54.115, 108.434 51.107 C 108.724 50.638, 105.473 49.951, 101.211 49.579 C 93.630 48.918, 89.909 47.758, 91.206 46.461 C 91.563 46.104, 96.015 46.257, 101.100 46.800 L 110.347 47.787 118.923 42.954 C 123.641 40.296, 128.400 37.439, 129.500 36.605 L 131.500 35.089 129.500 35.194 C 128.400 35.252, 126.150 35.454, 124.500 35.643 M 60.500 38.406 C 54.733 39.831, 49.938 42.165, 48.013 44.484 C 46.878 45.851, 46.933 46.362, 48.370 47.800 C 49.665 49.097, 52.278 49.581, 59.384 49.841 L 68.700 50.183 69.279 45.341 C 69.597 42.679, 70.163 39.712, 70.536 38.750 C 71.088 37.324, 70.685 37.016, 68.357 37.085 C 66.786 37.132, 63.250 37.726, 60.500 38.406 M 83 57.755 C 71.550 58.999, 72 58.785, 72 62.996 C 72 70.422, 77.154 91.160, 79.702 93.985 C 81.774 96.282, 100.935 96.660, 110.253 94.587 C 117.141 93.055, 130 87.789, 130 86.501 C 130 85.772, 117.244 80, 115.634 80 C 114.986 80, 113.620 81.551, 112.599 83.447 C 111.578 85.342, 109.742 87.833, 108.520 88.981 L 106.297 91.070 98.898 85.416 C 88.271 77.296, 84 72.962, 84 70.297 C 84 68.288, 84.496 68, 87.959 68 C 90.137 68, 96.324 69.575, 101.709 71.500 C 107.094 73.425, 111.838 75, 112.250 75 C 113.633 75, 113.018 70.471, 111.296 67.973 C 108.965 64.590, 107.210 63.215, 102.275 60.906 C 98.055 58.931, 87.723 57.242, 83 57.755 M 65.278 63.419 C 60.901 67.102, 59.478 71.855, 60.964 77.821 C 61.606 80.394, 62.805 83.541, 63.629 84.813 C 64.992 86.916, 73.476 93, 75.046 93 C 75.406 93, 74.687 89.504, 73.449 85.230 C 72.212 80.957, 70.574 73.706, 69.811 69.117 L 68.423 60.773 65.278 63.419 M 87 70.901 C 87 72.023, 96.877 80.950, 102.202 84.640 C 105.389 86.849, 106.229 87.055, 107.557 85.953 C 109.409 84.416, 112.350 79.017, 111.693 78.360 C 111.084 77.750, 93.221 71.450, 89.750 70.619 C 88.235 70.257, 87 70.384, 87 70.901 M 125 92.169 C 114.839 97.397, 105.286 99.293, 91.750 98.768 C 80.910 98.347, 79.877 98.677, 81.922 101.909 C 83.122 103.803, 107.117 102.885, 134.135 99.911 C 152.759 97.861, 158.565 97.873, 156.417 99.955 C 155.913 100.444, 148.075 102.484, 139 104.488 C 112.852 110.262, 91 118.258, 91 122.054 C 91 122.618, 91.931 124.905, 93.070 127.137 C 94.208 129.368, 94.937 131.396, 94.690 131.643 C 93.800 132.533, 87 125.221, 87.008 123.382 C 87.013 122.347, 85.608 118.078, 83.886 113.896 L 80.756 106.292 69.628 105.650 C 55.232 104.821, 27.009 104.939, 24.735 105.839 C 23.464 106.341, 26.937 108.334, 37.142 112.958 C 54.166 120.671, 59 124.587, 59 130.662 C 59 132.846, 58.519 137.234, 57.931 140.414 C 57.343 143.594, 57.006 146.329, 57.181 146.492 C 57.357 146.656, 62.225 145.668, 68 144.297 C 76.055 142.386, 81.527 141.770, 91.500 141.653 C 106.218 141.480, 110.611 142.600, 111.664 146.798 C 113.557 154.341, 96.429 158.085, 76.500 154.485 C 63.512 152.138, 56.155 152.973, 53.979 157.039 C 48.356 167.545, 68.010 187.533, 87.458 191.089 C 94.322 192.344, 102.990 191.066, 109.238 187.879 C 112.682 186.121, 113.814 186.046, 121.762 187.041 C 134.024 188.576, 144.954 186.823, 147.004 182.992 C 148.517 180.166, 144.124 175.585, 138.277 173.890 C 127.107 170.653, 110.439 173.709, 96.303 181.585 L 90.107 185.038 87.565 180.700 C 84.357 175.227, 83.467 170.865, 84.980 168.038 C 87.296 163.711, 91.392 163, 114.025 163 C 136.667 163, 142.424 162.190, 146.475 158.435 C 148.530 156.531, 149 155.159, 149 151.068 C 149 143.254, 146.784 138.912, 141.314 136.011 C 134.075 132.171, 129.792 127.676, 130.177 124.326 C 130.694 119.839, 136.606 117.291, 152.167 114.851 C 171.432 111.829, 179.500 109.807, 179.500 108 C 179.500 106.310, 168.579 100.080, 165.500 100.013 C 164.400 99.989, 157.202 97.276, 149.505 93.985 C 141.808 90.693, 134.833 88.070, 134.005 88.155 C 133.177 88.240, 129.125 90.046, 125 92.169 M 125.803 103.530 C 125.512 103.822, 116.104 104.529, 104.897 105.103 C 93.690 105.677, 84.363 106.304, 84.170 106.497 C 83.977 106.690, 85.035 109.555, 86.520 112.865 L 89.220 118.883 92.898 116.449 C 97.398 113.471, 109.711 108.908, 122.180 105.597 C 127.306 104.237, 130.338 103.095, 128.917 103.062 C 127.496 103.028, 126.095 103.239, 125.803 103.530" stroke="none" fill="black" fill-rule="evenodd"/>
</svg>