<svg xmlns="http://www.w3.org/2000/svg" width="200" height="200" viewBox="0 0 200 200" version="1.1">
	<path d="M 97.500 8.518 C 92 9.229, 80.750 11.015, 72.500 12.486 C 64.250 13.958, 55.389 15.322, 52.809 15.518 C 50.229 15.714, 46.964 16.479, 45.552 17.219 L 42.986 18.563 49.602 25.812 C 56.543 33.418, 60.280 36, 64.343 36 C 69.762 36, 68.892 27.019, 62.829 20.378 C 60.981 18.354, 60.975 18.222, 62.696 17.518 C 65.778 16.259, 101.082 15.690, 107 16.805 C 123.196 19.854, 132.265 26.682, 135.982 38.623 C 138.327 46.154, 138.577 57.084, 137.179 90.927 L 136.500 107.353 128.820 110.135 L 121.139 112.916 114.820 110.827 C 111.344 109.678, 108.156 108.430, 107.735 108.054 C 107.314 107.677, 108.431 103.461, 110.217 98.685 C 113.050 91.111, 113.770 90, 115.848 90 C 118.110 90, 118.153 89.883, 116.710 87.680 C 115.336 85.583, 115.376 84.595, 117.125 77.430 C 120.225 64.725, 119.906 37.167, 116.671 38.294 C 116.027 38.519, 115.590 39.782, 115.700 41.101 C 117.145 58.422, 117.129 62.084, 115.574 70.992 C 114.663 76.212, 113.535 80.865, 113.069 81.331 C 111.824 82.576, 92 53.195, 92 50.105 C 92 49.671, 93.870 48.756, 96.156 48.071 C 106.960 44.834, 116 38.912, 116 35.071 C 116 32.572, 112.389 30.100, 107.606 29.323 C 102.182 28.443, 102.759 31.341, 108.250 32.558 C 116.868 34.468, 111.659 39.867, 96.162 45.087 L 89.824 47.222 86.597 44.094 C 84.822 42.374, 81.827 40.524, 79.942 39.983 C 78.056 39.442, 63.743 39, 48.135 39 L 19.756 39 21.231 41.250 C 23.670 44.971, 30.761 49.845, 36.294 51.603 C 46.687 54.906, 69.807 54.518, 87.150 50.750 C 87.784 50.613, 91.173 55.156, 94.682 60.846 C 98.192 66.536, 103.540 74.541, 106.567 78.634 C 109.594 82.727, 111.803 86.509, 111.476 87.038 C 111.149 87.567, 108.884 88, 106.441 88 L 102 88 101.978 83.750 C 101.966 81.412, 101.101 77.617, 100.057 75.316 C 95.962 66.297, 85.963 65.395, 68.751 72.492 C 67.147 73.154, 67.166 72.853, 68.979 68.857 C 70.066 66.460, 70.966 63.498, 70.978 62.273 C 71.009 59.167, 66.882 56.647, 63.118 57.474 C 55.401 59.169, 44.995 69.781, 45.004 75.946 C 45.011 81.168, 51.849 88, 57.068 88 C 60.036 88, 56.629 89.216, 47.387 91.456 C 31.466 95.314, 23 99.747, 23 104.225 C 23 107.598, 29.263 109.310, 43.500 109.830 L 56.500 110.305 60.568 116.402 L 64.636 122.500 62.380 127.500 C 59.859 133.084, 59.489 137.621, 61.087 143.374 C 62.430 148.210, 61.093 156.564, 56.864 169.765 C 55.205 174.944, 54.012 179.346, 54.213 179.546 C 54.414 179.747, 56.586 179.208, 59.039 178.348 C 66.342 175.790, 76.521 177.110, 103.500 184.115 C 125.922 189.938, 128.256 190.353, 139 190.424 C 149.500 190.493, 150.891 190.281, 155 187.987 C 160.504 184.913, 165.433 177.872, 166.914 170.967 C 167.511 168.181, 168 161.874, 168 156.951 L 168 148 165.250 147.937 C 162.588 147.875, 162.572 147.844, 164.772 146.961 C 167.889 145.709, 168.751 143.023, 166.553 141.415 C 165.578 140.702, 161.433 139.330, 157.341 138.365 L 149.903 136.611 150.394 129.556 C 150.664 125.675, 150.911 119.872, 150.943 116.661 L 151 110.822 154.077 113.411 C 155.769 114.835, 157.614 116, 158.177 116 C 158.740 116, 160.658 114.537, 162.440 112.750 C 168.059 107.114, 171.872 93.746, 174.063 72 C 176.392 48.882, 172.530 26.229, 164.749 17.367 C 161.510 13.678, 156.233 10.434, 155.182 11.485 C 154.834 11.832, 153.425 30.541, 152.050 53.058 C 150.676 75.576, 149.215 94, 148.803 94 C 148.392 94, 147.256 91.412, 146.278 88.250 C 143.494 79.248, 143.989 62.640, 147.507 47 C 151.066 31.174, 151.395 20.349, 148.438 16.387 C 145.185 12.027, 141.703 9.902, 135.374 8.413 C 128.181 6.721, 111.033 6.768, 97.500 8.518 M 97 11.342 L 88.500 12.406 98.431 13.160 C 115.082 14.426, 127.399 19.413, 133.443 27.336 C 138.434 33.879, 140.241 40.385, 140.987 54.500 C 141.365 61.650, 141.748 65.868, 141.837 63.874 C 141.927 61.880, 143.387 53.555, 145.081 45.374 C 150.025 21.507, 148.393 14.976, 136.609 11.476 C 130.788 9.748, 110.298 9.678, 97 11.342 M 156.990 17.250 C 156.985 18.488, 156.113 33, 155.054 49.500 C 151.599 103.285, 151.570 104.268, 153.310 107.632 C 156.023 112.878, 157.680 113.649, 160.519 110.982 C 163.701 107.993, 166.669 100.001, 169.241 87.500 C 171.784 75.135, 172.279 46.102, 170.110 36.502 C 168.303 28.503, 164.915 21.115, 161.510 17.750 C 158.132 14.411, 157.003 14.287, 156.990 17.250 M 49.736 19.838 C 48.256 20.424, 48.897 21.437, 53.736 26.154 C 58.860 31.149, 62.748 34, 64.434 34 C 65.426 34, 65.042 28.950, 63.878 26.684 C 63.261 25.483, 61.601 23.262, 60.191 21.750 C 57.609 18.982, 53.706 18.268, 49.736 19.838 M 38 41.884 L 25.500 42.500 29.500 45.179 C 35.888 49.456, 44.062 51.329, 56.500 51.365 C 67.198 51.396, 82.401 49.606, 84.979 48.013 C 86.752 46.917, 85.656 45.539, 81.407 43.523 C 77.227 41.539, 58.970 40.850, 38 41.884 M 59.271 62.075 C 54.364 64.527, 49.316 69.891, 48.371 73.659 C 46.790 79.957, 52.123 84.807, 62.869 86.845 C 65.966 87.432, 75.362 88.139, 83.750 88.417 L 99 88.921 99 83.911 C 99 77.369, 96.777 73.222, 92.257 71.334 C 87.425 69.315, 81.643 70.236, 71.196 74.687 C 66.629 76.633, 62.622 77.955, 62.291 77.624 C 61.960 77.293, 63.152 74.142, 64.939 70.620 C 69.925 60.796, 67.910 57.757, 59.271 62.075 M 140 92.472 C 140 104.846, 139.682 109.173, 138.750 109.497 C 126.439 113.774, 125.484 114.293, 128.020 115.325 C 129.384 115.881, 134.275 118.060, 138.888 120.168 C 143.502 122.275, 147.373 124, 147.491 124 C 147.609 124, 147.995 119.838, 148.351 114.750 C 148.957 106.063, 148.784 104.807, 145.498 94.121 C 143.574 87.863, 142 81.477, 142 79.930 C 142 78.383, 141.550 76.840, 141 76.500 C 140.349 76.097, 140 81.667, 140 92.472 M 55 92.461 C 37.978 95.685, 23.028 102.346, 26.991 104.940 C 29.032 106.276, 36.601 107.120, 48.396 107.327 L 58.291 107.500 61.917 113.500 L 65.542 119.500 73.886 119.792 L 82.229 120.085 86.248 115.860 C 88.459 113.536, 92.091 107.834, 94.320 103.190 C 98.209 95.083, 98.297 94.690, 96.495 93.372 C 95.462 92.618, 92.341 91.998, 89.559 91.995 C 86.776 91.993, 79.550 91.777, 73.500 91.516 C 66.265 91.203, 59.933 91.527, 55 92.461 M 101 92.031 C 101 92.599, 101.689 93.327, 102.530 93.650 C 103.372 93.973, 104.674 95.408, 105.424 96.840 L 106.788 99.443 108.394 95.599 C 109.277 93.485, 110 91.586, 110 91.378 C 110 91.170, 107.975 91, 105.500 91 C 103.025 91, 101 91.464, 101 92.031 M 98.496 101.013 C 97.580 103.770, 94.454 109.338, 91.550 113.386 L 86.269 120.747 92.384 122.435 C 95.748 123.363, 100.856 125.445, 103.735 127.061 L 108.970 130 127.235 129.985 C 145.384 129.969, 149.444 129.408, 146.797 127.280 C 144.650 125.554, 135.955 121.468, 128.201 118.542 C 121.686 116.083, 120.429 115.906, 116.508 116.894 C 110.771 118.338, 105.700 118.300, 104.200 116.800 C 102.706 115.306, 102.669 111.836, 104.098 107.068 C 104.974 104.144, 104.883 102.656, 103.649 99.702 C 102.798 97.666, 101.665 96, 101.131 96 C 100.598 96, 99.411 98.256, 98.496 101.013 M 106 113 C 106 114.704, 106.667 115, 110.500 115 C 112.975 115, 115 114.752, 115 114.449 C 115 113.800, 108.532 111, 107.032 111 C 106.464 111, 106 111.900, 106 113 M 79.635 124.120 C 78.582 124.745, 75.372 125.030, 72.268 124.772 L 66.766 124.316 65.171 127.908 C 63.980 130.591, 63.548 135.045, 63.465 145.500 C 63.370 157.562, 63.010 160.538, 60.863 167 L 58.371 174.500 68.436 174.621 C 77.324 174.727, 81.305 175.470, 102.500 180.976 C 138.363 190.293, 151.052 190.399, 158.910 181.449 C 162.942 176.857, 165 169.379, 165 159.318 C 165 149.967, 165.508 150.392, 156.417 152.133 C 149.571 153.444, 148 154.939, 148 160.142 C 148 165.679, 146.074 173.693, 144.412 175.073 C 142.356 176.779, 140.009 174.397, 134.516 165.027 L 130.014 157.349 112.257 160.627 C 90.246 164.691, 83.707 165.181, 83.221 162.803 C 82.813 160.807, 86.110 158.975, 101.140 152.849 C 107.465 150.271, 113.837 148.407, 117.500 148.063 L 123.500 147.500 117.451 141.250 L 111.402 135 102.760 135 C 98.007 135, 93.871 134.601, 93.570 134.113 C 92.731 132.756, 95.077 131.337, 99.471 130.544 C 102.874 129.929, 103.178 129.679, 101.596 128.794 C 94.927 125.061, 82.499 122.416, 79.635 124.120 M 133.500 132.948 L 122.500 133.500 130 134.225 C 134.125 134.624, 139.637 135.248, 142.250 135.611 C 146.640 136.222, 147 136.110, 147 134.136 C 147 132.961, 146.438 132.089, 145.750 132.198 C 145.063 132.306, 139.550 132.644, 133.500 132.948 M 122 142 L 127.198 148 132.849 147.989 C 135.957 147.983, 140.178 147.701, 142.229 147.362 C 145.509 146.819, 146.034 146.334, 146.599 143.326 C 146.951 141.445, 147.010 139.676, 146.728 139.395 C 146.155 138.821, 124.084 136.080, 119.651 136.031 L 116.802 136 122 142 M 149.667 140.667 C 148.750 141.583, 148.822 147.002, 149.750 146.992 C 152.490 146.965, 163.647 144.739, 164.303 144.089 C 164.745 143.651, 162.466 142.552, 159.238 141.647 C 152.865 139.859, 150.697 139.637, 149.667 140.667 M 150 150.014 C 148.945 150.706, 149.538 150.807, 152 150.355 C 156.313 149.564, 157.126 148.995, 153.917 149.015 C 152.588 149.024, 150.825 149.473, 150 150.014 M 132.585 150.892 C 129.175 151.421, 128.875 151.670, 130.264 152.814 C 131.556 153.878, 133.064 153.900, 138.180 152.929 C 141.656 152.269, 144.928 151.341, 145.450 150.865 C 146.501 149.908, 138.815 149.924, 132.585 150.892 M 110.500 152.022 C 109.400 152.510, 103.874 154.791, 98.220 157.091 C 92.566 159.391, 88.102 161.435, 88.300 161.634 C 88.699 162.032, 93.741 161.200, 114.227 157.358 C 127.027 154.957, 127.886 154.655, 126.942 152.892 C 126.097 151.313, 124.820 151.011, 119.215 151.068 C 115.522 151.105, 111.600 151.534, 110.500 152.022 M 139.199 155.362 C 136.284 155.988, 133.847 156.882, 133.784 157.348 C 133.593 158.762, 142.325 172.917, 143.095 172.441 C 143.490 172.197, 144.099 169.636, 144.448 166.749 C 144.797 163.862, 145.329 159.813, 145.630 157.750 C 145.930 155.688, 145.799 154.050, 145.338 154.112 C 144.877 154.174, 142.115 154.736, 139.199 155.362" stroke="none" fill="black" fill-rule="evenodd"/>
</svg>