<svg xmlns="http://www.w3.org/2000/svg" width="200" height="200" viewBox="0 0 200 200" version="1.1">
	<path d="M 84.759 8.543 C 84.352 8.968, 77.740 9.245, 70.068 9.158 C 62.395 9.072, 55.868 9.404, 55.564 9.897 C 55.259 10.389, 58.802 14.381, 63.436 18.767 C 70.043 25.022, 72.008 27.526, 72.542 30.371 C 73.126 33.484, 72.958 34.002, 71.361 34.017 C 66.923 34.059, 50.100 36.073, 45.800 37.077 C 35.070 39.584, 37.822 43.879, 51.727 46.330 C 56.552 47.180, 63.309 48.172, 66.742 48.535 L 72.985 49.195 68.468 54.347 C 56.354 68.165, 56.841 80.867, 69.800 89.089 C 74.644 92.163, 85.530 96, 89.405 96 C 91.908 96, 94 97.735, 94 99.811 C 94 101.001, 89.477 101.165, 65.066 100.861 L 36.132 100.500 32.977 103.500 C 26.375 109.777, 25.868 114.859, 31.626 117.048 C 35.548 118.539, 49.695 118.172, 72 116 C 98.176 113.451, 99.623 113.451, 100.286 115.988 C 100.707 117.597, 100.112 118.161, 97.153 118.953 C 90.454 120.745, 58.618 126.893, 49.750 128.106 C 44.938 128.764, 41 129.685, 41 130.152 C 41 130.618, 40.138 131, 39.084 131 C 37.280 131, 37.177 131.809, 37.334 144.750 C 37.490 157.590, 37.680 158.839, 40.201 163.620 C 46.445 175.458, 55.357 179.194, 86.500 183.030 C 104.637 185.263, 113.890 187.037, 120.786 189.600 C 124.396 190.942, 126.130 191.014, 131.786 190.058 C 143.434 188.089, 150.851 185.149, 155.237 180.763 C 159.062 176.938, 159.210 176.551, 158.792 171.504 C 158.475 167.677, 157.554 165.178, 155.428 162.368 C 152.929 159.067, 152.544 157.750, 152.798 153.382 L 153.095 148.264 158.651 147.611 C 164.987 146.866, 179.576 141.533, 182.370 138.940 C 184.191 137.250, 184.177 137.162, 181.853 135.639 C 179.313 133.975, 165.284 132.022, 155.776 132.008 C 150.469 132.001, 149.942 131.788, 148.546 129.088 C 145.107 122.438, 138.567 120.193, 133.727 124 C 130.446 126.581, 129.446 126.525, 123.200 123.412 C 118.655 121.148, 114.001 116.950, 114 115.115 C 113.999 114.777, 127.932 114.500, 144.961 114.500 C 173.289 114.500, 176.075 114.349, 177.702 112.724 C 179.315 111.113, 179.342 110.700, 177.989 108.290 C 176.152 105.017, 166.358 98.368, 149.961 89.264 C 138.673 82.996, 137.542 82.117, 137.950 79.923 C 138.198 78.590, 138.423 74.177, 138.450 70.116 L 138.500 62.732 130.761 60.427 C 121.809 57.761, 111.508 53.316, 109.962 51.454 C 108.030 49.127, 112.871 48.524, 131.500 48.772 C 151.284 49.035, 159.406 47.979, 161.038 44.928 C 162.418 42.350, 161.072 40.013, 156.310 36.723 C 151.060 33.096, 137.331 26.811, 126.250 22.962 C 118.359 20.221, 117 19.426, 117 17.549 C 117 14.945, 113.690 11.597, 109.500 9.963 C 105.955 8.581, 85.832 7.426, 84.759 8.543 M 99.999 14.990 C 107.973 17.106, 114.687 18.646, 114.919 18.414 C 115.151 18.182, 114.327 16.913, 113.088 15.594 C 110.112 12.426, 103.963 10.984, 93.807 11.072 L 85.500 11.145 99.999 14.990 M 61.917 13.845 C 62.460 14.859, 64.581 16.969, 66.631 18.532 C 69.705 20.877, 70.227 21.035, 69.609 19.437 C 69.197 18.372, 68.610 16.262, 68.305 14.750 C 67.830 12.396, 67.259 12, 64.340 12 C 61.335 12, 61.047 12.219, 61.917 13.845 M 71.489 16.095 C 72.888 22.746, 74.270 24.398, 80.513 26.880 C 88.439 30.030, 99.515 30.227, 106 27.333 C 110.328 25.402, 113.782 22.448, 112.828 21.494 C 111.653 20.320, 83.728 13.801, 77.637 13.279 L 70.773 12.691 71.489 16.095 M 115.063 24.424 C 112.829 27.116, 107.529 29.906, 101.919 31.342 L 96.500 32.729 106.991 32.874 C 123.514 33.101, 124.756 34.421, 114.500 40.852 C 106.426 45.914, 106.075 47.475, 113.250 46.405 C 116.138 45.974, 127.139 45.594, 137.697 45.561 C 158.418 45.495, 161.034 44.906, 157.574 41.082 C 155.088 38.335, 142.278 31.878, 131 27.689 C 117.977 22.850, 116.603 22.569, 115.063 24.424 M 75.301 29.599 C 75.593 30.644, 76.835 34.987, 78.062 39.250 L 80.291 47 92.477 47 C 104.258 47, 104.704 46.922, 105.925 44.640 C 106.620 43.342, 109.187 41.016, 111.631 39.472 C 114.781 37.481, 115.699 36.426, 114.787 35.847 C 114.079 35.398, 108.464 35.024, 102.309 35.015 C 92.249 35.002, 87.794 34.055, 91.244 32.664 C 91.935 32.386, 91.334 32.122, 89.909 32.079 C 87.471 32.005, 80.793 30.189, 76.635 28.469 C 75.124 27.844, 74.870 28.059, 75.301 29.599 M 60 37.678 C 51.820 38.513, 43 40.241, 43 41.007 C 43 42.367, 56.905 44.779, 73.316 46.268 C 76.762 46.580, 77.075 46.414, 76.542 44.557 C 76.217 43.426, 75.681 41.263, 75.351 39.750 C 74.777 37.122, 74.501 37.007, 69.125 37.160 C 66.031 37.248, 61.925 37.481, 60 37.678 M 75.813 49.683 C 76.534 49.972, 77.397 49.936, 77.729 49.604 C 78.061 49.272, 77.471 49.036, 76.417 49.079 C 75.252 49.127, 75.015 49.364, 75.813 49.683 M 81.550 50.897 C 82.073 51.391, 86.015 53.188, 90.312 54.892 C 98.573 58.167, 106.395 62.982, 107.304 65.350 C 107.842 66.752, 131.823 80, 133.823 80 C 134.392 80, 135.378 77.638, 136.016 74.750 C 137.491 68.070, 136.302 64.511, 132.328 63.714 C 125.211 62.286, 111.934 56.635, 108.211 53.449 L 104.182 50 92.391 50 C 85.392 50, 80.986 50.365, 81.550 50.897 M 70.132 56.587 C 64.843 62.596, 62.560 67.570, 62.527 73.157 C 62.492 79.155, 66.512 84.394, 74.098 88.236 C 78.900 90.667, 90.913 94.420, 91.623 93.711 C 91.772 93.562, 89.502 86.028, 86.580 76.970 C 83.657 67.911, 80.953 59.072, 80.570 57.326 C 80.066 55.028, 79.072 53.872, 76.967 53.138 C 74.267 52.197, 73.781 52.442, 70.132 56.587 M 83 55.895 C 83 56.353, 85.735 65.172, 89.077 75.494 L 95.155 94.260 104.827 93.755 C 115.762 93.183, 123.502 90.738, 129.021 86.111 C 130.935 84.507, 132.275 83, 132 82.762 C 131.725 82.524, 126.177 79.517, 119.670 76.081 C 108.490 70.177, 107.739 69.926, 105.992 71.507 C 103.510 73.754, 97.052 75.108, 93.436 74.141 C 88.707 72.877, 89.438 69.209, 95.186 65.368 L 99.871 62.237 93.186 59.241 C 84.641 55.411, 83 54.872, 83 55.895 M 96.201 68.019 C 94.340 69.153, 93.196 70.507, 93.576 71.123 C 94.385 72.432, 101.740 71.461, 103.768 69.778 C 104.891 68.846, 104.721 68.413, 102.818 67.357 C 99.825 65.697, 100.046 65.674, 96.201 68.019 M 133.016 86.483 C 127.562 92.289, 113.927 96.957, 102.344 96.985 C 96.683 96.999, 96.229 97.161, 96.710 99 C 97.172 100.765, 98.070 100.999, 104.367 100.990 C 123.158 100.964, 154.852 97.450, 154.162 95.469 C 153.976 94.936, 149.619 92.189, 144.480 89.364 L 135.135 84.228 133.016 86.483 M 157 97.854 C 157 99.097, 151.821 100.531, 144 101.456 C 136.073 102.392, 127.313 104.797, 121.066 107.750 C 115.890 110.197, 115.748 110.365, 118.066 111.267 C 120.106 112.061, 142.924 112.427, 167.500 112.059 C 178.522 111.894, 178.434 110.101, 167.031 102.520 C 159.387 97.439, 157 96.329, 157 97.854 M 33.736 106.870 C 31.681 109.145, 30 111.399, 30 111.880 C 30 115.794, 41.531 116.063, 75 112.932 C 87.375 111.774, 97.615 110.714, 97.755 110.576 C 97.894 110.437, 97.513 108.901, 96.907 107.162 L 95.804 104 75.556 104 C 64.419 104, 51.295 103.715, 46.390 103.367 L 37.473 102.734 33.736 106.870 M 105.750 103.742 C 102.037 103.934, 99 104.229, 99 104.396 C 99 104.564, 99.494 106.119, 100.098 107.851 C 101.157 110.890, 101.396 111, 106.943 111 C 111.557 111, 113.066 110.578, 114.595 108.859 C 115.643 107.681, 118.300 105.891, 120.500 104.881 L 124.500 103.044 118.500 103.218 C 115.200 103.313, 109.463 103.549, 105.750 103.742 M 103.135 116.398 C 103.736 117.717, 105.414 119.056, 106.864 119.374 C 108.314 119.692, 110.533 120.245, 111.795 120.604 L 114.090 121.257 112.360 117.628 C 110.768 114.289, 110.287 114, 106.336 114 C 102.168 114, 102.075 114.070, 103.135 116.398 M 88.204 123.603 C 82.541 124.933, 72.191 127.104, 65.204 128.429 L 52.500 130.837 79.233 130.918 L 105.967 131 104.107 126.250 C 102.872 123.096, 101.618 121.447, 100.374 121.343 C 99.343 121.256, 93.867 122.273, 88.204 123.603 M 106 122.878 C 106 123.361, 106.681 125.386, 107.513 127.378 L 109.027 131 117.954 131 C 122.865 131, 127.121 130.613, 127.414 130.140 C 128.099 129.031, 122.361 126.491, 113.503 123.982 C 105.349 121.672, 106 121.768, 106 122.878 M 135.146 126.325 C 134.274 127.374, 135.201 128.013, 139.611 129.403 C 142.672 130.368, 145.438 130.895, 145.758 130.575 C 146.079 130.254, 145.286 128.869, 143.996 127.496 C 141.430 124.765, 136.934 124.170, 135.146 126.325 M 40.574 135.667 C 40.222 136.584, 39.923 141.503, 39.909 146.597 C 39.854 166.617, 47.665 174.055, 73.381 178.474 C 78.266 179.313, 82.399 180, 82.567 180 C 82.735 180, 81.971 176.745, 80.868 172.766 C 77.996 162.401, 72.725 153.045, 65.930 146.250 C 56.400 136.720, 42.411 130.881, 40.574 135.667 M 59.276 137.059 C 68.994 143.496, 79.143 157.335, 83.015 169.429 L 84.273 173.358 86.063 169.869 C 90.516 161.189, 102.353 151.705, 111.395 149.572 C 115.564 148.589, 113.567 147.484, 105 146.037 C 87.597 143.098, 84.649 138.126, 99.671 137.050 C 104.500 136.704, 107.494 136.037, 107.754 135.250 C 108.077 134.271, 102.369 134, 81.412 134 L 54.657 134 59.276 137.059 M 111.250 135.250 C 111.520 136.060, 113.722 136.500, 117.500 136.500 C 121.278 136.500, 123.480 136.060, 123.750 135.250 C 124.056 134.333, 122.389 134, 117.500 134 C 112.611 134, 110.944 134.333, 111.250 135.250 M 125.658 137.002 C 123.942 139.907, 123.710 139.983, 118.442 139.364 C 112.549 138.672, 112.464 138.730, 114.105 142.331 C 115.491 145.373, 119.447 146, 137.248 146 C 150.191 146, 150.216 145.995, 149.677 143.750 C 149.380 142.512, 148.831 139.813, 148.457 137.750 L 147.777 134 137.604 134 L 127.431 134 125.658 137.002 M 151.621 139.484 C 151.966 142.243, 152.535 144.820, 152.886 145.212 C 153.874 146.315, 165.739 143.513, 173.360 140.377 C 180.151 137.583, 180.189 137.547, 177.107 136.748 C 175.395 136.304, 168.819 135.610, 162.493 135.204 L 150.993 134.467 151.621 139.484 M 97 139.929 C 93.650 140.567, 93.808 140.668, 100.697 142.298 C 104.656 143.234, 108.809 144, 109.926 144 C 111.730 144, 111.830 143.720, 110.818 141.500 C 109.828 139.328, 109.077 139.017, 105.089 139.132 C 102.565 139.204, 98.925 139.563, 97 139.929 M 138.009 151.340 C 141.590 152.604, 145.752 154.447, 147.259 155.434 L 150 157.230 150 153.115 L 150 149 140.750 149.021 L 131.500 149.042 138.009 151.340 M 119 151.554 C 119 153.681, 127.862 166.957, 132.132 171.227 C 139.367 178.462, 144.262 177.538, 147.551 168.316 C 150.381 160.381, 148.979 158.426, 137.301 154.025 C 131.689 151.911, 119 150.197, 119 151.554 M 105.500 154.855 C 98.206 158.323, 90.843 165.916, 87.327 173.596 C 85.934 176.639, 84.981 179.315, 85.209 179.543 C 85.437 179.771, 90.626 180.655, 96.740 181.508 C 102.854 182.360, 111.151 183.977, 115.178 185.100 C 119.205 186.223, 123.557 187.396, 124.849 187.706 C 128.430 188.567, 143.015 185.155, 148.565 182.157 C 151.771 180.426, 154.193 178.200, 155.477 175.804 L 157.454 172.115 155.215 167.506 C 153.064 163.079, 151.024 162.262, 150.978 165.809 C 150.937 168.948, 147.186 175.832, 144.588 177.534 C 138.245 181.691, 129.189 175.163, 120.463 160.146 C 114.999 150.741, 114.512 150.569, 105.500 154.855" stroke="none" fill="black" fill-rule="evenodd"/>
</svg>