<svg xmlns="http://www.w3.org/2000/svg" width="200" height="200" viewBox="0 0 200 200" version="1.1">
	<path d="M 88.310 5.946 C 85.112 7.398, 82.120 7.807, 75.669 7.674 C 68.606 7.529, 66.871 7.813, 65.109 9.405 C 63.949 10.453, 63 12.125, 63 13.120 C 63 15.438, 68.141 21.306, 72.570 24.043 C 75.012 25.552, 76 26.891, 76 28.689 C 76 30.686, 75.634 31.072, 74.250 30.534 C 73.287 30.159, 68.675 29.608, 64 29.307 C 50.330 28.429, 43 31.490, 43 38.077 C 43 45.457, 53.843 50.464, 68.490 49.849 L 76.790 49.500 70.847 54.877 C 61.921 62.953, 57.926 72.297, 60.040 80.149 C 62.337 88.677, 70.437 94.006, 84.407 96.178 C 88.813 96.863, 92.130 97.896, 92.429 98.675 C 92.848 99.768, 87.189 99.960, 60.720 99.753 C 31.915 99.527, 27.679 99.701, 20.750 101.399 C 16.487 102.444, 13 103.569, 13 103.900 C 13 104.230, 20.087 106.886, 28.750 109.802 C 61.215 120.731, 64.882 125.380, 58.475 147.490 C 56.014 155.981, 55.703 156.468, 46.298 166.540 C 35.468 178.137, 33.412 181.025, 34.313 183.374 C 35.312 185.976, 38.207 185.356, 54.311 179.094 C 72.908 171.862, 79.114 170, 84.611 170 L 88.858 170 90.425 175.390 C 91.287 178.354, 93.299 182.179, 94.897 183.890 C 97.295 186.457, 98.562 186.997, 102.151 186.982 C 106.582 186.963, 107.197 186.679, 124.410 176.673 C 128.761 174.144, 134.194 171.793, 136.484 171.450 C 144.088 170.310, 150.513 174.661, 156.283 184.861 L 159.316 190.221 161.626 186.393 C 164.822 181.097, 165.374 177.728, 163.990 171.957 C 162.510 165.790, 157.090 157.324, 146.739 145.012 C 136.958 133.377, 133.264 126.191, 134.960 122.096 C 137.207 116.671, 142.770 114.730, 158.453 113.899 C 173.489 113.102, 178.424 111.946, 180.092 108.828 C 182.828 103.717, 170.574 95.090, 144.857 84.022 L 137.214 80.733 138.607 77.398 C 142.384 68.358, 138.717 60.318, 128.500 55.236 C 123.490 52.744, 111.630 50.026, 105.303 49.919 L 100.500 49.838 103.500 48.464 C 105.546 47.527, 110.794 47.070, 120 47.028 C 139.952 46.935, 153.871 43.347, 157.007 37.486 C 158.201 35.256, 158.103 34.739, 156.077 32.582 C 154.662 31.076, 151.315 29.541, 147.156 28.492 C 143.495 27.568, 137.349 25.668, 133.498 24.270 C 127.898 22.236, 126.180 21.104, 124.918 18.614 C 121.327 11.528, 106.680 3.969, 96.645 4.022 C 94.365 4.034, 90.615 4.900, 88.310 5.946 M 90.750 7.630 C 88.578 8.271, 88.441 10, 90.562 10 C 91.769 10, 111.022 15.991, 122 19.782 C 125.666 21.049, 116.274 12.969, 111.180 10.475 C 105.633 7.758, 95.228 6.310, 90.750 7.630 M 67.750 10.689 C 64.772 11.468, 65.804 14.564, 70.478 18.873 C 75.362 23.375, 77 23.962, 77 21.211 C 77 20.228, 77.896 17.665, 78.992 15.516 C 80.522 12.514, 80.696 11.425, 79.742 10.819 C 78.438 9.991, 70.742 9.908, 67.750 10.689 M 83.136 13.336 C 82.035 14.662, 79 22.522, 79 24.045 C 79 24.893, 86.639 27.523, 91.325 28.289 C 92.879 28.544, 99.947 28.429, 107.031 28.035 C 118.987 27.369, 123 26.354, 123 23.993 C 123 22.434, 90.767 12, 85.949 12 C 85.012 12, 83.746 12.601, 83.136 13.336 M 123.694 27.532 C 122.151 28.889, 119.676 30.086, 118.194 30.191 C 116.712 30.297, 119.775 30.634, 125 30.941 C 133.592 31.447, 134.528 31.695, 134.793 33.546 C 135.087 35.602, 133.372 36.628, 119.500 42.691 L 115.500 44.439 120.063 44.766 C 131.572 45.593, 155 39.541, 155 35.741 C 155 34.054, 149.522 31.350, 144.351 30.484 C 142.233 30.129, 137.683 28.750, 134.239 27.419 C 130.796 26.089, 127.646 25.014, 127.239 25.032 C 126.833 25.049, 125.237 26.174, 123.694 27.532 M 78.500 29 C 76.954 31.502, 79.812 32, 95.726 32 C 104.860 32, 112.035 31.701, 111.669 31.336 C 111.304 30.971, 106.136 30.749, 100.184 30.843 C 92.990 30.956, 87.709 30.512, 84.431 29.517 C 78.533 27.728, 79.247 27.791, 78.500 29 M 49.400 33.364 C 45.500 35.142, 44.511 37.605, 46.487 40.620 C 49.471 45.174, 53.583 46.444, 65.437 46.473 L 76.375 46.500 76.115 40.500 C 75.972 37.200, 75.449 34.084, 74.953 33.576 C 73.361 31.943, 52.888 31.774, 49.400 33.364 M 78.595 35 C 78.467 35.275, 78.549 37.879, 78.780 40.786 C 79.122 45.108, 79.499 45.989, 80.849 45.615 C 81.757 45.364, 83.515 44.867, 84.755 44.510 C 86.208 44.093, 87.192 44.337, 87.522 45.196 C 88.149 46.830, 98.806 47.488, 101 46.029 C 102.286 45.173, 102.250 45.028, 100.750 45.015 C 99.787 45.007, 99 44.336, 99 43.525 C 99 42.147, 102.061 42.144, 106.655 43.519 C 107.955 43.908, 124.213 38.048, 128.627 35.599 C 131.306 34.114, 129.719 34.022, 105.165 34.253 C 90.680 34.389, 78.724 34.725, 78.595 35 M 84.132 50.149 C 80.840 51.097, 80.778 51.213, 81.416 55.309 C 82.263 60.746, 86.224 73.979, 90.663 86.203 L 94.187 95.906 98.664 96.577 C 107.211 97.859, 119.314 93.880, 128.148 86.883 C 130.266 85.205, 132 83.307, 131.999 82.666 C 131.999 82.025, 127.837 79.823, 122.749 77.773 C 108.853 72.173, 110 72.338, 110 75.938 C 110 77.957, 109.112 79.979, 107.530 81.561 C 105.238 83.853, 104.825 83.936, 101.780 82.712 C 98.187 81.268, 92.539 73.785, 91.155 68.635 C 89.094 60.964, 93.873 59.044, 102.670 64.009 L 108.253 67.160 107.559 63.330 C 107.178 61.223, 105.612 57.925, 104.081 56 C 101.777 53.104, 100.538 52.445, 96.899 52.180 C 94.411 51.999, 92.154 51.239, 91.701 50.430 C 90.797 48.814, 89.004 48.748, 84.132 50.149 M 73.671 55.740 C 66.247 61.291, 61.160 71.708, 62.468 78.681 C 63.862 86.110, 72.712 91.964, 85.016 93.597 C 89.191 94.150, 90.128 94.013, 89.827 92.892 C 89.621 92.126, 87.346 84.975, 84.773 77 C 82.199 69.025, 79.510 60.335, 78.797 57.688 L 77.500 52.877 73.671 55.740 M 106 53.592 C 106 53.918, 106.900 55.329, 108 56.727 C 109.100 58.126, 110 60.755, 110 62.570 C 110 69.234, 111.012 70.203, 122.821 74.848 C 128.900 77.239, 134.340 78.908, 134.910 78.556 C 135.480 78.204, 136.413 76.178, 136.985 74.055 C 138.708 67.655, 135.366 61.788, 127.781 57.898 C 121.652 54.755, 106 51.661, 106 53.592 M 93.460 66.750 C 94.506 71, 98.819 77.835, 101.606 79.662 C 103.799 81.098, 104.305 81.124, 105.566 79.863 C 106.361 79.068, 107.121 76.651, 107.256 74.491 C 107.485 70.813, 107.193 70.359, 102.637 67.283 C 99.962 65.477, 96.651 64, 95.279 64 C 93.059 64, 92.858 64.304, 93.460 66.750 M 131.946 86.609 C 127.585 91.176, 121.951 94.794, 115.528 97.150 L 110.500 98.995 118 98.521 C 139.259 97.178, 143.620 97.088, 144.992 97.964 C 147.229 99.393, 145.521 100.439, 136 103.468 C 125.324 106.864, 116.479 111.518, 113.950 115.070 C 110.464 119.966, 111.844 125.670, 117.911 131.437 C 120.646 134.038, 121 135.016, 121 139.977 C 121 152.868, 115.861 163, 109.322 163 C 105.225 163, 98.560 158.531, 94.589 153.122 C 85.051 140.128, 83.731 125.612, 91.361 117.619 C 93.087 115.810, 95.307 113.889, 96.294 113.351 C 98.011 112.414, 98.003 112.174, 96.129 107.801 L 94.170 103.230 69.335 102.483 C 44.913 101.748, 27.220 102.243, 23.074 103.777 C 21.430 104.385, 23.540 105.397, 32.735 108.410 C 48.296 113.509, 57.155 118.024, 60.683 122.654 C 63.178 125.928, 63.493 127.160, 63.441 133.426 C 63.406 137.628, 62.424 143.938, 61.023 148.969 C 58.705 157.286, 58.487 157.622, 48.843 167.763 C 38.782 178.341, 36.003 182, 38.026 182 C 38.629 182, 46.031 179.304, 54.475 176.010 C 76.856 167.277, 86.416 165.197, 90.145 168.250 C 90.985 168.938, 92.247 171.525, 92.949 174 C 94.568 179.708, 97.486 183.833, 100.424 184.570 C 103.300 185.292, 108.202 183.263, 117.347 177.564 C 135.149 166.471, 143.879 165.878, 152.650 175.165 C 154.383 176.999, 156.691 179.992, 157.780 181.816 L 159.758 185.132 160.879 181.917 C 163.763 173.643, 160.865 166.999, 146.551 149.063 C 140.244 141.161, 134.390 133.234, 133.542 131.447 C 131.055 126.205, 131.529 120.826, 134.750 117.740 C 139.100 113.573, 143.674 112.239, 156 111.541 C 167.817 110.872, 176.624 109.418, 177.506 107.990 C 179.384 104.951, 168.854 97.909, 148.995 88.923 C 141.795 85.665, 135.789 83, 135.648 83 C 135.507 83, 133.842 84.624, 131.946 86.609 M 96.813 99.683 C 97.534 99.972, 98.397 99.936, 98.729 99.604 C 99.061 99.272, 98.471 99.036, 97.417 99.079 C 96.252 99.127, 96.015 99.364, 96.813 99.683 M 106.750 99.662 C 107.438 99.940, 108.563 99.940, 109.250 99.662 C 109.938 99.385, 109.375 99.158, 108 99.158 C 106.625 99.158, 106.063 99.385, 106.750 99.662 M 123 101.027 C 118.325 101.417, 110.596 102.084, 105.825 102.510 L 97.151 103.283 99.483 108.558 L 101.816 113.833 98.904 115.040 C 94.830 116.727, 90.222 122.298, 89.437 126.485 C 87.865 134.865, 92.170 147.011, 99.377 154.533 C 109.334 164.924, 116.815 160.556, 117.800 143.777 C 118.243 136.235, 118.178 135.967, 115.055 132.410 C 110.387 127.094, 108.618 122.848, 109.380 118.789 C 110.547 112.567, 116.090 108.441, 133 101.205 C 135.919 99.956, 135.837 99.955, 123 101.027" stroke="none" fill="black" fill-rule="evenodd"/>
</svg>