<svg xmlns="http://www.w3.org/2000/svg" width="200" height="200" viewBox="0 0 200 200" version="1.1">
	<path d="M 140 11.049 L 140 13.245 115.750 12.554 C 89.093 11.794, 55.748 13.140, 49.460 15.230 C 46.504 16.212, 45.516 17.071, 45.562 18.614 C 45.620 20.518, 44.569 20.824, 32.312 22.470 C 23.312 23.680, 19 24.662, 19 25.504 C 19 27.160, 19.675 27.264, 55.500 31.140 C 85.717 34.408, 86.289 34.511, 78.140 35.189 C 60.858 36.629, 36.071 43.054, 32.475 47.027 C 30.767 48.915, 30.753 49.181, 32.277 50.705 C 33.180 51.609, 36.300 52.687, 39.210 53.101 C 50.898 54.765, 83.381 53.641, 82.698 51.597 C 82.443 50.836, 76.544 50.609, 63.415 50.855 C 44.546 51.210, 35 50.553, 35 48.900 C 35 45.768, 63.402 38.953, 82.500 37.502 C 91.122 36.846, 97.782 37.903, 96.665 39.748 C 96.415 40.162, 95.512 42.862, 94.659 45.750 C 93.346 50.195, 93.324 51, 94.515 51 C 95.313 51, 96.393 49.254, 97.008 46.970 C 98.806 40.294, 100.298 43.231, 99.758 52.382 C 99.215 61.585, 96.459 69.828, 92.231 74.892 L 89.435 78.241 81.412 74.207 C 73.791 70.376, 69.326 67, 71.878 67 C 72.495 67, 73 66.383, 73 65.628 C 73 64.560, 69.847 64.115, 58.750 63.617 C 50.913 63.265, 39.325 62.739, 33 62.447 L 21.500 61.918 29.363 69.415 C 39.516 79.096, 48.451 84.869, 58.212 88.056 L 66.041 90.613 47.770 93.310 C 37.722 94.793, 27.111 96.005, 24.191 96.003 C 20.618 96.001, 19.102 96.356, 19.555 97.088 C 21.146 99.663, 37.156 110.608, 44.500 114.142 C 65.015 124.013, 77.322 121.332, 96.562 102.800 C 102.256 97.316, 107.384 93.119, 107.957 93.474 C 109.791 94.607, 109.076 97.644, 106.723 98.716 C 105.470 99.287, 102.949 101.013, 101.120 102.552 C 98.259 104.960, 97.870 105.814, 98.334 108.672 C 98.808 111.590, 98.442 112.324, 95.331 114.697 C 92.284 117.020, 92.041 117.488, 93.597 118.034 C 94.973 118.517, 94.588 118.832, 91.989 119.352 C 88.144 120.121, 83 124.516, 83 127.032 C 83 129.630, 86.315 131.997, 92.765 134.004 C 100.405 136.382, 117.300 138.341, 125.603 137.813 C 131.019 137.468, 131.708 137.592, 129.792 138.568 C 122.430 142.319, 107.068 143.237, 87.500 141.097 C 76.003 139.840, 62.207 139.460, 61.291 140.375 C 60.068 141.599, 62.040 142.278, 70.406 143.513 C 80.820 145.052, 87.351 148.018, 88.980 151.951 C 90.620 155.911, 88.164 161.160, 79.713 171.761 C 71.709 181.802, 70.945 183.727, 73.984 186.188 C 76.733 188.414, 78.359 188.478, 80.061 186.427 C 86.362 178.834, 108.823 176.195, 139 179.503 C 163.866 182.229, 170.368 182.466, 171.835 180.699 C 172.820 179.512, 172.869 178.624, 172.035 177.066 C 170.091 173.433, 157.346 165.344, 148.975 162.430 C 144.556 160.892, 140.472 159.069, 139.899 158.379 C 138.386 156.555, 142.467 154.785, 155.621 151.561 C 168.603 148.379, 173.282 145.984, 172.816 142.759 C 172.362 139.616, 167.388 136.664, 157.301 133.553 C 152.460 132.060, 147.931 130.662, 147.237 130.446 C 146.404 130.187, 147.217 128.424, 149.621 125.276 C 151.627 122.649, 153.701 119.551, 154.230 118.391 L 155.192 116.283 157.615 118.706 C 161.302 122.392, 164.913 121.520, 167.817 116.241 C 173.276 106.317, 176.716 75.325, 175.614 46 C 174.897 26.918, 174.122 20.874, 172.317 20.272 C 170.954 19.818, 170.599 22.307, 168.999 43.500 C 167.790 59.518, 164.998 77.777, 161.915 89.833 C 159.616 98.820, 155.978 109, 155.064 109 C 154.696 109, 153.629 106.862, 152.693 104.250 C 151.336 100.464, 150.989 95.947, 150.987 82 C 150.980 48.679, 146.041 10.017, 141.685 9.178 C 140.518 8.953, 140 9.528, 140 11.049 M 64 15.991 C 52.667 16.805, 47.461 17.861, 48.693 19.093 C 49.214 19.614, 55.378 19.369, 63.542 18.503 C 82.281 16.514, 105.906 16.550, 115.742 18.582 C 138.316 23.244, 146.881 35.478, 144.006 58.950 C 142.981 67.318, 143.038 69.390, 144.423 74.054 C 148.287 87.063, 147.239 99.231, 141.597 106.871 C 134.231 116.847, 118.060 120.609, 105.004 115.385 C 101.374 113.933, 100.666 113.906, 99.399 115.172 C 98.132 116.439, 98.932 116.851, 105.725 118.433 C 110.001 119.429, 119.459 122.214, 126.742 124.622 C 134.025 127.030, 140.855 129, 141.919 129 C 143.215 129, 145.506 126.532, 148.846 121.538 L 153.838 114.075 150.986 107.288 C 148.197 100.650, 148.134 100.089, 148.125 81.886 C 148.115 61.987, 146.806 43.949, 144.144 27 L 142.494 16.500 133.997 15.849 C 123.043 15.010, 76.325 15.105, 64 15.991 M 75.500 20.132 C 54.825 21.653, 54.503 22.031, 70.620 25.876 C 92.166 31.016, 93.500 31.434, 93.500 33.033 C 93.500 33.840, 94.577 34.964, 95.893 35.530 C 97.923 36.404, 98.707 36.139, 101.066 33.780 C 108.829 26.017, 117.475 34.810, 121.040 54.095 C 122.365 61.265, 122.498 89.911, 121.227 94.409 C 120.562 96.761, 119.522 97.576, 115.800 98.661 C 112.483 99.628, 110.625 100.912, 109.157 103.252 C 108.035 105.038, 106.168 107.718, 105.007 109.207 L 102.896 111.914 108.626 113.580 C 121.283 117.259, 134.530 113.057, 140.500 103.470 C 143.298 98.977, 143.498 98.006, 143.469 89.076 C 143.447 82.485, 142.868 77.837, 141.610 74.164 C 139.971 69.380, 139.911 68.002, 141.025 60.836 C 144.537 38.261, 137.060 26.158, 116.759 21.557 C 108.079 19.590, 90.932 18.998, 75.500 20.132 M 38 24.278 C 33.875 24.833, 30.950 25.420, 31.500 25.581 C 33.811 26.258, 72.172 30.162, 72.573 29.760 C 72.815 29.519, 70.468 28.752, 67.358 28.056 C 64.248 27.360, 59.224 25.937, 56.195 24.895 C 50.178 22.825, 49.071 22.787, 38 24.278 M 102.156 36.334 C 100.033 38.593, 100.016 38.793, 101.604 42.584 C 104.771 50.146, 101.917 65.482, 95.553 75.099 C 92.588 79.579, 92.074 79.088, 104.289 83.450 C 111.766 86.120, 112.025 86.317, 110.752 88.366 C 109.633 90.166, 109.668 90.975, 110.979 93.533 C 112.401 96.307, 112.799 96.489, 115.654 95.670 L 118.774 94.775 119.480 83.473 C 121.187 56.164, 115.450 34, 106.674 34 C 105.395 34, 103.362 35.050, 102.156 36.334 M 172.222 42.199 C 171.157 59.951, 165.447 89.869, 160.464 103.813 C 157.307 112.644, 157.155 113.587, 158.541 115.702 C 166.166 127.341, 173.668 94.836, 172.781 54 C 172.595 45.475, 172.344 40.164, 172.222 42.199 M 32.116 68.647 C 37.116 73.847, 50.928 82.739, 57.537 85.013 C 65.572 87.777, 74.122 87.622, 80.627 84.593 C 83.448 83.280, 86.056 81.719, 86.424 81.123 C 86.825 80.473, 84.521 78.826, 80.654 76.999 C 73.145 73.451, 69 70.419, 69 68.473 C 69 66.612, 65.542 66.189, 45.616 65.615 L 28.731 65.127 32.116 68.647 M 88.399 82.980 C 87.355 83.988, 84.917 85.642, 82.983 86.656 L 79.466 88.500 93.233 88.500 C 100.805 88.500, 107 88.197, 107 87.828 C 107 87.458, 105.313 86.609, 103.250 85.940 C 101.188 85.272, 97.430 83.921, 94.899 82.936 C 90.460 81.210, 90.231 81.211, 88.399 82.980 M 54.500 95.047 C 40.200 97.188, 27.831 98.952, 27.013 98.969 C 24.998 99.011, 34.984 106.132, 43 110.371 C 63.880 121.410, 76.962 118.851, 95.750 100.048 C 99.737 96.058, 103 92.390, 103 91.897 C 103 89.741, 79.950 91.238, 54.500 95.047 M 103.413 104.321 C 101.929 105.598, 100.909 107.227, 101.147 107.941 C 101.415 108.746, 102.630 107.863, 104.341 105.620 C 107.530 101.438, 107.239 101.030, 103.413 104.321 M 88.689 123.604 C 82.156 127.146, 88.510 131.219, 104.307 133.617 C 110.347 134.533, 118.666 135.018, 124.724 134.807 C 143.690 134.147, 139.569 130.821, 113.184 125.495 C 93.702 121.563, 92.610 121.479, 88.689 123.604 M 138.589 136.487 C 128.544 143.628, 124.734 144.505, 103.951 144.457 L 85.402 144.414 88.701 147.311 C 94.755 152.626, 92.984 159.775, 82.437 172.597 C 76.333 180.017, 74.255 183.589, 75.386 184.719 C 75.776 185.110, 76.862 184.874, 77.798 184.195 C 90.527 174.962, 110.692 172.991, 146.500 177.480 C 153.100 178.307, 161.143 178.988, 164.372 178.992 C 169.650 178.999, 170.110 178.838, 168.913 177.395 C 166.012 173.900, 155.289 167.577, 147.726 164.903 C 130.428 158.786, 131.718 155.194, 153.297 149.391 C 160.850 147.360, 167.811 145.091, 168.765 144.349 C 170.392 143.082, 170.364 142.883, 168.300 141.129 C 166.110 139.269, 148.240 133, 145.127 133 C 144.229 133, 141.286 134.569, 138.589 136.487" stroke="none" fill="black" fill-rule="evenodd"/>
</svg>