<svg xmlns="http://www.w3.org/2000/svg" width="200" height="200" viewBox="0 0 200 200" version="1.1">
	<path d="M 141.710 10 C 141.230 11.835, 140.333 12.003, 130.844 12.031 C 116.188 12.075, 59.393 14.879, 53.963 15.826 C 48.656 16.753, 46.728 17.751, 47.580 19.129 C 47.917 19.675, 47.664 21.397, 47.018 22.958 C 45.515 26.586, 47.484 30.742, 52.529 34.590 L 56.061 37.284 66.780 36.044 C 81.306 34.364, 93.351 32.253, 96.442 30.844 C 97.849 30.203, 99 28.869, 99 27.878 C 99 25.357, 92.606 23.652, 75 21.478 C 67.025 20.493, 60.129 19.364, 59.675 18.968 C 58.519 17.961, 71.851 16.835, 85.244 16.808 C 97.149 16.784, 110.242 18.729, 120.929 22.109 C 133.964 26.231, 141.114 31.114, 143.583 37.578 C 145.175 41.747, 145.172 42.262, 143.521 46.585 C 142.385 49.558, 142.112 51.512, 142.743 52.143 C 144.199 53.599, 147 46.958, 147 42.049 C 147 31.368, 136.746 23.411, 115.500 17.606 L 106.500 15.147 120.250 14.862 C 127.813 14.705, 136.327 14.560, 139.171 14.538 L 144.342 14.500 145.669 20.343 C 148.095 31.025, 150.053 49.294, 150.669 67 C 151.004 76.625, 150.916 84.164, 150.475 83.753 C 150.034 83.342, 148.849 80.668, 147.843 77.809 C 146.836 74.951, 145.567 72.167, 145.023 71.623 C 142.793 69.393, 142.976 72.279, 145.533 79.671 C 147.851 86.373, 148.167 88.594, 147.726 95.096 C 147.123 103.974, 145.644 107.282, 139.993 112.388 L 135.856 116.125 132.912 111.680 C 131.292 109.236, 128.512 106.239, 126.734 105.022 L 123.500 102.808 123.826 90.054 C 124.196 75.624, 122.261 59.070, 118.521 44.679 C 114.344 28.600, 110.768 22.287, 107.415 25.070 C 106.091 26.169, 105.881 28.446, 106.138 38.943 C 106.438 51.182, 106.391 51.508, 104.272 51.813 C 102.524 52.065, 101.576 51.085, 99.439 46.813 C 97.976 43.891, 95.851 40.487, 94.715 39.250 C 92.350 36.671, 89.206 36.300, 88.362 38.500 C 87.893 39.721, 85.437 40.006, 75.143 40.034 C 60.398 40.073, 43.107 41.479, 38.442 43.019 C 31.717 45.239, 34.011 48.869, 43.500 51.025 C 53.113 53.209, 71.615 54.938, 85.711 54.969 L 99.923 55 101.089 59.250 C 102.249 63.481, 102.751 76.582, 101.789 77.544 C 101.511 77.822, 96.206 77.047, 89.999 75.822 C 83.792 74.598, 79.228 73.424, 79.857 73.214 C 82.110 72.463, 80.968 68.951, 77.854 67.057 C 69.437 61.939, 48.626 60.313, 44.088 64.420 C 39.083 68.950, 42.922 77.154, 55.451 88.698 C 62.636 95.319, 63.071 95.938, 60.881 96.416 C 40.054 100.965, 32.217 104.696, 33.163 109.609 C 33.349 110.576, 40.295 115.897, 48.598 121.434 C 73.768 138.217, 82.067 145.264, 79.586 147.748 C 78.624 148.712, 69.129 148.716, 61.871 147.755 L 56.242 147.011 54.008 152.203 C 51.525 157.975, 50.383 166.896, 51.419 172.422 C 52.348 177.373, 56.948 182.291, 63.243 185.063 C 77.434 191.312, 111.142 186.367, 115.209 177.440 C 116.293 175.062, 116.172 174.558, 114.119 172.896 C 111.142 170.484, 105.775 169.069, 96.310 168.198 L 88.717 167.500 95.931 160.699 C 104.237 152.870, 109.219 150.024, 111.804 151.635 C 112.737 152.216, 115.440 157.184, 117.810 162.675 C 123.479 175.807, 130.523 185.044, 139.500 191.121 C 150.200 198.363, 149.556 198.453, 159.739 188.303 C 180.034 168.074, 183.301 146.443, 168.132 132.738 C 163.200 128.283, 159.598 126.374, 152.770 124.599 L 147.500 123.230 147.761 116.865 C 147.904 113.364, 148.364 109.234, 148.782 107.688 L 149.543 104.875 153.535 110.688 C 155.774 113.948, 159.115 117.353, 161.144 118.444 C 164.614 120.309, 164.868 120.316, 167.443 118.629 C 173.687 114.538, 176.827 99.337, 177.694 69 C 178.266 49.034, 176.813 20.275, 175.076 17.172 C 173.717 14.742, 155.312 61.851, 154.900 68.815 C 154.645 73.136, 153.189 64.773, 153.100 58.470 C 152.905 44.756, 148.889 18.265, 145.864 10.750 C 144.568 7.529, 142.456 7.148, 141.710 10 M 50.572 22.571 C 48.294 24.849, 48.612 26.489, 52.104 30.465 C 55.754 34.623, 56.684 34.711, 73.216 32.470 C 86.974 30.605, 95 28.933, 95 27.931 C 95 27.064, 86.732 25.654, 69 23.498 C 62.125 22.662, 55.520 21.757, 54.322 21.488 C 53.092 21.211, 51.461 21.682, 50.572 22.571 M 168.241 37.763 C 159.210 60.612, 153.508 80.979, 152.470 94.096 C 151.915 101.107, 152.095 103.284, 153.451 105.906 C 155.905 110.652, 161.967 117, 164.044 117 C 168.505 117, 172.048 107.208, 173.994 89.500 C 175.071 79.703, 175.156 41.452, 174.125 31 L 173.483 24.500 168.241 37.763 M 108.658 30.184 C 108.083 32.368, 108.166 34.190, 109.472 48.187 L 110.003 53.873 106.751 54.187 C 104.115 54.441, 103.571 54.878, 103.876 56.500 C 104.083 57.600, 104.380 63.252, 104.537 69.060 L 104.821 79.621 108.544 83.344 C 112.146 86.946, 112.247 87.241, 111.643 92.378 L 111.019 97.689 114.760 98.910 C 116.817 99.581, 119.009 100.345, 119.631 100.609 C 122.632 101.879, 121.524 72.380, 117.898 54.500 C 115.850 44.400, 111.539 30.188, 110.067 28.684 C 109.627 28.235, 108.994 28.910, 108.658 30.184 M 90.196 41.204 C 89.451 41.949, 81.828 42.628, 68.770 43.113 C 47.751 43.892, 39.293 44.717, 38.458 46.068 C 37.850 47.052, 49.741 49.652, 60.974 50.990 C 65.634 51.546, 76.104 52, 84.241 52 L 99.034 52 96.595 47.187 C 93.583 41.243, 91.812 39.588, 90.196 41.204 M 49.854 64.673 C 48.399 64.915, 46.407 65.997, 45.429 67.078 C 43.745 68.940, 43.740 69.232, 45.350 72.608 C 47.256 76.604, 55.051 85.176, 62.305 91.253 L 67.111 95.279 75.252 95.083 C 85.180 94.843, 91.501 92.401, 96.492 86.878 C 100.462 82.483, 100.736 81.497, 98.250 80.542 C 94.742 79.193, 83.317 77.137, 76 76.536 C 57.233 74.996, 55.039 73.735, 68.750 72.371 C 73.563 71.892, 77.500 71.050, 77.500 70.500 C 77.500 67.834, 56.924 63.497, 49.854 64.673 M 101.237 85.379 C 100.641 86.688, 98.345 89.276, 96.136 91.129 L 92.120 94.500 99.810 95.587 C 108.464 96.809, 108.961 96.557, 108.985 90.924 C 108.995 88.466, 108.277 86.669, 106.686 85.174 C 103.723 82.391, 102.579 82.434, 101.237 85.379 M 82 97.976 C 80.625 98.430, 75.450 98.849, 70.500 98.907 C 56.733 99.071, 36 104.839, 36 108.507 C 36 109.214, 44.213 115.330, 54.250 122.098 C 80.214 139.603, 86.381 145.950, 81.423 150.064 C 80.008 151.238, 70.028 151.537, 60.050 150.704 C 57.969 150.531, 57.310 151.253, 55.669 155.500 C 52.925 162.603, 52.889 172.028, 55.592 175.676 C 58.292 179.321, 63.313 182.715, 67.882 183.984 C 73.395 185.515, 90.758 185.212, 97.540 183.465 C 104.585 181.651, 112.254 178.016, 112.793 176.236 C 113.458 174.041, 106.389 172.002, 94.925 171.080 C 88.838 170.591, 83.659 169.992, 83.416 169.750 C 82.423 168.756, 101.387 151.716, 105.522 149.887 C 112.441 146.827, 114.697 148.511, 120.016 160.710 C 127.300 177.414, 133.650 185.226, 144.939 191.370 L 150.086 194.171 158.386 185.836 C 169.733 174.442, 174.444 165.139, 174.457 154.104 C 174.467 145.518, 172.581 140.810, 166.830 135.070 C 163.153 131.399, 155.465 127.548, 149.894 126.586 L 146.289 125.964 145.644 132.128 C 145.290 135.519, 145 144.752, 145 152.647 C 145 161.363, 144.615 167, 144.019 167 C 143.480 167, 142.849 165.988, 142.619 164.750 C 142.388 163.512, 141.455 158.225, 140.545 153 C 139.636 147.775, 137.968 139.519, 136.839 134.652 L 134.788 125.805 130.213 126.491 C 127.697 126.868, 122.686 128.089, 119.078 129.203 C 107.174 132.880, 91.891 130.400, 90.424 124.554 C 89.482 120.801, 90.617 118.595, 98.577 108.711 L 105.994 99.500 103.021 98.881 C 97.388 97.709, 84.495 97.154, 82 97.976 M 108 100.820 C 108 101.271, 106.448 103.453, 104.552 105.668 L 101.104 109.697 108.449 106.098 C 115.711 102.541, 115.765 102.486, 113.147 101.295 C 110.013 99.868, 108 99.683, 108 100.820 M 113.414 106.589 C 110.067 107.959, 105.792 110.380, 103.914 111.968 L 100.500 114.856 102.621 117.022 C 106.215 120.691, 121.883 121.276, 130.348 118.058 L 133.184 116.980 131.181 113.740 C 129.293 110.685, 121.633 103.943, 120.172 104.049 C 119.803 104.076, 116.761 105.219, 113.414 106.589 M 141.756 114.532 C 140.246 115.831, 138.283 117.302, 137.392 117.801 C 136.285 118.420, 135.988 119.387, 136.453 120.853 C 136.969 122.478, 137.938 123, 140.439 123 C 143.658 123, 143.760 122.869, 144.421 117.883 C 144.794 115.069, 144.965 112.632, 144.800 112.468 C 144.635 112.304, 143.265 113.233, 141.756 114.532 M 95.635 116.670 C 91.940 122.184, 92.377 125.132, 97.120 126.681 C 103.079 128.627, 111.885 128.437, 120.500 126.177 C 124.900 125.023, 129.738 123.827, 131.250 123.520 C 132.826 123.200, 134 122.301, 134 121.414 C 134 120.407, 133.388 120.048, 132.250 120.387 C 124.966 122.561, 119.885 123.192, 112.925 122.790 C 103.783 122.260, 99.849 120.176, 98.965 115.394 L 98.430 112.500 95.635 116.670 M 138.380 128.250 C 138.718 129.488, 139.547 133.425, 140.223 137 L 141.452 143.500 142.168 139.500 C 142.562 137.300, 142.911 133.363, 142.942 130.750 C 142.997 126.279, 142.846 126, 140.383 126 C 138.155 126, 137.858 126.334, 138.380 128.250" stroke="none" fill="black" fill-rule="evenodd"/>
</svg>