<svg xmlns="http://www.w3.org/2000/svg" width="200" height="200" viewBox="0 0 200 200" version="1.1">
	<path d="M 101.213 2.475 C 99.595 3.835, 96.973 7.472, 95.386 10.555 L 92.500 16.162 88 15.576 C 85.525 15.254, 80.189 14.013, 76.143 12.818 C 68.175 10.465, 65.768 10.907, 65.183 14.833 C 64.740 17.809, 72.905 25.667, 80.750 29.814 C 85.384 32.263, 87 33.660, 87 35.217 C 87 37.308, 86.902 37.315, 63.538 36.700 L 40.075 36.083 39.423 39.558 C 38.506 44.448, 40.486 48.512, 44.842 50.680 C 48 52.251, 50.856 52.477, 65.750 52.333 C 75.237 52.242, 83 52.340, 83 52.553 C 83 52.765, 80.412 54.190, 77.250 55.719 C 69.323 59.553, 60.496 68.284, 59.058 73.713 C 57.162 80.876, 60.175 88.344, 67.599 94.878 C 70.174 97.145, 72.654 99, 73.109 99 C 73.565 99, 73.749 99.562, 73.518 100.250 C 73.287 100.938, 72.607 103.419, 72.007 105.765 L 70.915 110.030 49.964 109.957 C 27.948 109.881, 23.904 110.544, 23.172 114.347 C 22.010 120.381, 42.511 128.945, 58.315 129.027 L 63.500 129.054 59.765 132.527 C 55.663 136.341, 52.577 136.867, 48.048 134.525 C 45.506 133.210, 45.130 133.219, 44.597 134.607 C 42.291 140.616, 46.651 146.833, 64.595 163.120 C 72.479 170.277, 81.021 178.914, 83.578 182.316 C 86.135 185.717, 88.738 188.500, 89.363 188.500 C 90.074 188.500, 90.748 185.248, 91.161 179.822 C 91.990 168.960, 95.468 160.667, 101.546 155.065 C 110.990 146.359, 120.889 149.038, 126.842 161.909 C 129.099 166.788, 129.451 168.965, 129.608 179 L 129.788 190.500 133.144 190.162 C 143.708 189.098, 151.601 179.355, 154.085 164.314 C 155.429 156.174, 154.166 146.205, 151.004 140.008 C 148.672 135.437, 142.875 130.228, 139.232 129.431 C 137.729 129.102, 136.015 128.689, 135.421 128.514 C 133.229 127.865, 124.707 130.042, 119.808 132.503 C 115.784 134.524, 112.291 135.242, 102.629 136.037 C 95.958 136.585, 88.567 136.747, 86.204 136.397 C 82.130 135.792, 81.993 135.665, 83.550 133.945 C 84.453 132.947, 89.986 130.024, 95.846 127.449 L 106.500 122.768 122 123.887 C 157.629 126.459, 169.237 124.966, 180.750 116.335 C 185.673 112.644, 184.999 111.308, 178.250 111.373 C 173.479 111.420, 171.307 110.797, 165.491 107.717 C 155.886 102.631, 140.383 90.779, 140.935 88.944 C 141.174 88.150, 141.554 85.364, 141.781 82.752 C 142.109 78.966, 141.668 77.110, 139.603 73.586 C 134.959 65.662, 122.427 56.521, 109.262 51.456 C 105.795 50.122, 106.479 50.067, 118 50.754 C 148.125 52.551, 162 50.231, 162 43.396 C 162 39.610, 152.810 33.973, 137.857 28.589 C 133.804 27.129, 132.725 26.075, 129.357 20.285 C 124.908 12.636, 116.976 3.556, 112.904 1.450 C 108.739 -0.703, 104.554 -0.337, 101.213 2.475 M 101.553 6.120 C 98.084 10.243, 95.739 14.878, 96.336 16.434 C 96.601 17.124, 99.671 18.285, 103.159 19.015 C 106.646 19.745, 113.888 21.557, 119.250 23.041 C 124.612 24.526, 129 25.453, 129 25.102 C 129 24.298, 124.799 17.961, 120.103 11.682 C 113.301 2.586, 106.294 0.485, 101.553 6.120 M 68 15.304 C 68 16.021, 69.463 18.017, 71.250 19.739 C 74.691 23.055, 85.654 30.001, 87.441 29.998 C 88.024 29.997, 89.217 27.560, 90.094 24.582 L 91.688 19.168 85.094 17.926 C 81.467 17.243, 77.052 16.080, 75.282 15.342 C 71.199 13.639, 68 13.623, 68 15.304 M 92.615 25.239 C 91.770 28.121, 91.441 30.841, 91.884 31.284 C 93.696 33.096, 105.717 34.264, 111.630 33.203 C 118.177 32.029, 125 29.430, 125 28.111 C 125 27.375, 97.811 20, 95.098 20 C 94.577 20, 93.459 22.358, 92.615 25.239 M 127.199 30.558 C 125.933 31.453, 122.558 33.043, 119.699 34.092 L 114.500 35.998 120 35.442 C 128.251 34.607, 139 32.877, 139 32.385 C 139 31.887, 134.958 30.273, 131.706 29.473 C 130.464 29.168, 128.494 29.642, 127.199 30.558 M 90 35.500 C 90 36.669, 91.268 36.981, 95.750 36.915 L 101.500 36.830 96 35.457 C 92.975 34.702, 90.388 34.066, 90.250 34.042 C 90.112 34.019, 90 34.675, 90 35.500 M 140.459 34.954 C 136.766 36.450, 124.774 37.904, 107.001 39.010 C 97.376 39.608, 89.223 40.414, 88.883 40.799 C 88.543 41.185, 88.007 42.883, 87.692 44.574 L 87.120 47.648 105.810 47.918 C 145.895 48.497, 151.305 48.362, 155.250 46.691 C 161.301 44.127, 159.997 41.482, 150.283 36.614 C 144.728 33.831, 143.672 33.652, 140.459 34.954 M 42 41.933 C 42 46.124, 44.934 48.718, 50.643 49.574 C 55.305 50.273, 82.879 49.454, 83.742 48.591 C 84.222 48.112, 86.004 40.642, 85.695 40.410 C 85.588 40.329, 75.713 39.949, 63.750 39.565 L 42 38.866 42 41.933 M 90.750 50.735 C 85.029 51.186, 84.376 53, 89.935 53 C 92.099 53, 94.955 53.412, 96.280 53.916 C 98.468 54.748, 98.648 54.610, 98.229 52.416 C 97.975 51.087, 97.257 50.081, 96.633 50.180 C 96.010 50.279, 93.362 50.529, 90.750 50.735 M 100.602 53.595 C 100.225 54.577, 101.318 56.722, 103.483 59.251 C 105.401 61.492, 107.255 64.843, 107.603 66.699 C 108.098 69.338, 108.993 70.388, 111.718 71.527 C 113.633 72.327, 119.767 76.023, 125.350 79.741 C 130.932 83.458, 136.065 86.861, 136.755 87.302 C 137.601 87.843, 138.359 87.192, 139.082 85.302 C 142.077 77.475, 131.930 65.438, 115.736 57.606 C 104.632 52.237, 101.447 51.393, 100.602 53.595 M 85.580 56.138 C 85.337 56.887, 83.308 66.500, 81.071 77.500 C 77.256 96.259, 77.111 97.579, 78.735 98.780 C 81.768 101.024, 90.250 103.134, 98.500 103.696 C 105.483 104.171, 107.517 103.891, 114.500 101.491 C 123.541 98.384, 130.378 95.134, 133.936 92.253 L 136.354 90.295 124.039 82.148 C 117.267 77.666, 111.202 74, 110.563 74 C 109.923 74, 108.855 76.640, 108.188 79.867 C 106.087 90.040, 99.847 93.938, 94.392 88.483 C 91.537 85.628, 87.467 77.005, 86.472 71.704 L 85.806 68.152 90.457 67.454 C 93.016 67.070, 97.335 67.197, 100.055 67.734 C 105.809 68.872, 106.239 68.116, 102.750 62.990 C 99.571 58.319, 96.228 56.215, 90.762 55.444 C 87.194 54.941, 85.914 55.113, 85.580 56.138 M 75.314 59.993 C 59.715 68.940, 57.043 80.311, 67.969 91.250 C 70.579 93.862, 73.153 96, 73.690 96 C 74.492 96, 82 61.761, 82 58.104 C 82 56.450, 80.997 56.734, 75.314 59.993 M 89 70.874 C 89 72.918, 92.266 80.786, 94.553 84.250 C 99.268 91.393, 104.604 88.238, 105.696 77.661 L 106.263 72.167 102.381 71.089 C 97.711 69.792, 89 69.652, 89 70.874 M 133.853 95.502 C 131.297 97.265, 124.997 100.427, 119.853 102.527 C 111.250 106.041, 109.739 106.345, 101 106.322 C 92.206 106.300, 86.201 105.062, 77.819 101.545 C 76.493 100.988, 75.914 101.647, 75.075 104.670 C 74.490 106.776, 74.009 108.838, 74.006 109.250 C 73.986 111.931, 150.888 107.445, 153.734 104.599 C 153.956 104.377, 150.620 101.518, 146.319 98.246 L 138.500 92.297 133.853 95.502 M 152.500 107.722 C 144.130 109.774, 113.980 120.484, 116 120.689 C 129.746 122.081, 149.951 122.687, 157.291 121.929 C 165.965 121.032, 174.841 118.101, 177.091 115.390 C 178.037 114.250, 177.638 113.999, 174.872 113.995 C 172.993 113.992, 168.484 112.443, 164.689 110.495 C 158.013 107.069, 156.536 106.733, 152.500 107.722 M 103 112.105 C 92.825 112.546, 81.887 113.040, 78.694 113.204 L 72.888 113.500 70.449 119.500 C 69.107 122.800, 68.007 125.652, 68.005 125.838 C 67.995 126.538, 76.339 124.729, 81.519 122.909 C 84.569 121.837, 91.369 120.724, 97.202 120.343 C 105.740 119.784, 109.551 118.937, 119.500 115.385 C 133.343 110.443, 134.771 110.727, 103 112.105 M 30.199 112.920 C 25.938 114.015, 25.426 114.603, 27.041 116.549 C 30.741 121.007, 47.095 126, 57.999 126 C 65.367 126, 65.208 126.139, 68.569 116.750 L 69.911 113 60.609 113 C 55.493 113, 47.301 112.791, 42.404 112.535 C 37.507 112.280, 32.015 112.453, 30.199 112.920 M 87.872 124.017 C 85.326 124.447, 82.401 125.250, 81.372 125.801 C 80.342 126.351, 76.575 127.372, 73 128.069 C 67.309 129.178, 66.027 129.871, 62.696 133.633 C 58.496 138.376, 53.590 140.045, 49.423 138.147 C 47.340 137.198, 47 137.299, 47 138.871 C 47 142.165, 52.686 148.654, 66.775 161.437 C 74.403 168.358, 82.172 176.060, 84.039 178.552 L 87.434 183.084 88.720 175.474 C 91.794 157.271, 103.349 145.356, 115.765 147.586 C 118.382 148.056, 120.860 149.650, 124.045 152.913 C 130.031 159.044, 132.355 166.195, 132.439 178.736 C 132.506 188.892, 132.439 188.823, 139 185.468 C 151.402 179.127, 156.073 152.766, 147.215 139.106 C 141.553 130.374, 132.809 129.039, 120.843 135.079 C 114.912 138.073, 114.027 138.222, 99.031 138.742 C 83.205 139.292, 79 138.640, 79 135.639 C 79 133.425, 83.239 130.230, 91.015 126.583 C 98.938 122.867, 98.208 122.271, 87.872 124.017" stroke="none" fill="black" fill-rule="evenodd"/>
</svg>