<svg xmlns="http://www.w3.org/2000/svg" width="200" height="200" viewBox="0 0 200 200" version="1.1">
	<path d="M 155.294 25.259 C 152.431 34.741, 148.640 48.026, 146.871 54.779 C 143.681 66.956, 142.048 68.923, 142.015 60.628 C 141.990 54.316, 134.911 11.417, 133.732 10.439 C 133.304 10.083, 82.648 12.891, 69.846 13.981 C 57.668 15.017, 51 16.865, 51 19.205 C 51 23.281, 67.484 32.671, 80.468 35.992 C 89.943 38.415, 92.530 38.475, 98.604 36.413 C 102.936 34.942, 103.782 34.957, 110.187 36.618 C 117.417 38.494, 124.085 41.710, 124.714 43.625 C 125.587 46.282, 112.854 49.239, 95.500 50.407 C 85.627 51.072, 86.665 49.770, 99.476 45.421 C 104.164 43.829, 108 42.011, 108 41.380 C 108 39.641, 97.160 39.240, 72.500 40.067 C 48.274 40.880, 38.111 42.235, 34.730 45.103 L 32.500 46.994 35.146 49.359 C 36.703 50.751, 41.229 52.631, 46.146 53.927 C 50.741 55.139, 55.287 56.356, 56.250 56.632 C 57.325 56.941, 58 56.593, 58 55.729 C 58 54.820, 55.255 53.585, 50.250 52.240 C 35.317 48.228, 33.772 46.858, 42.151 45.061 C 48.091 43.787, 76.057 42.022, 90 42.041 L 99.500 42.054 92.679 44.964 C 88.927 46.564, 85.188 48.429, 84.371 49.107 C 83.519 49.814, 79.810 50.375, 75.692 50.421 C 66.332 50.524, 65.232 52.401, 74.299 52.797 C 79.210 53.011, 81.258 53.509, 81.673 54.589 C 82.439 56.586, 87.699 59.135, 98 62.501 C 114.112 67.766, 120 72.031, 120 78.439 C 120 82.413, 115.509 89.611, 110.404 93.818 L 106.522 97.018 104.742 94.759 C 103.763 93.517, 99.517 87.100, 95.307 80.500 C 91.096 73.900, 85.298 65.540, 82.421 61.922 L 77.190 55.345 71.243 56.046 C 47.283 58.871, 39.904 73.712, 54.453 89.817 C 61.525 97.644, 70.607 102.154, 84 104.488 L 91.500 105.795 80.500 105.906 C 54.516 106.170, 24.083 109.175, 19.085 111.972 C 17.342 112.948, 26.054 117.114, 47.373 125.501 C 56.656 129.153, 62.462 131.995, 63.109 133.204 C 64.049 134.961, 62.739 140.723, 59.459 149.250 C 58.947 150.581, 59.298 151, 60.925 151 C 67.297 151, 75.583 157.683, 87.069 172.086 C 96.753 184.230, 101.546 185.691, 105.357 177.660 C 107.364 173.431, 109.790 162.104, 110.634 153.026 C 111.261 146.278, 111.215 146.099, 107.760 141.834 C 103.347 136.386, 101 131.806, 101 128.639 C 101 123.854, 109.665 118.964, 118 119.045 C 120.713 119.072, 122.561 120.057, 126.220 123.425 L 130.940 127.770 129.410 136.635 C 127.129 149.850, 124.185 160.701, 121.381 166.235 C 120.006 168.948, 115.758 174.137, 111.941 177.765 C 108.123 181.394, 105 184.731, 105 185.182 C 105 187.164, 108.100 185.640, 113.268 181.118 C 122.961 172.636, 131.756 172.054, 153.703 178.446 C 160.414 180.401, 167.244 182, 168.881 182 C 177.980 182, 176.962 169.258, 166.480 151.945 C 160.123 141.447, 154.626 136.288, 144.500 131.316 C 139.550 128.885, 135.157 126.554, 134.738 126.136 C 134.318 125.717, 134.262 123.941, 134.613 122.187 C 135.189 119.304, 135.595 119.001, 138.875 119.015 C 143.709 119.034, 154.943 121.733, 157.693 123.534 C 158.904 124.328, 160.098 124.645, 160.346 124.239 C 161.345 122.600, 166.001 99.895, 167.161 91 C 168.919 77.534, 168.627 46.904, 166.618 34 C 164.559 20.772, 161.837 7.997, 161.080 8.009 C 160.761 8.014, 158.157 15.776, 155.294 25.259 M 105 14.557 C 93.175 15.264, 80.800 15.885, 77.500 15.937 C 67.687 16.090, 73.164 17.966, 83.500 17.992 C 88.450 18.004, 95.537 18.301, 99.250 18.652 L 106 19.289 106 23.710 C 106 26.142, 105.561 28.952, 105.024 29.955 C 104.155 31.579, 104.957 32.063, 112.338 34.364 C 121.267 37.148, 127.298 40.592, 127.799 43.194 C 128.859 48.701, 113.984 52.898, 93 53.012 C 84.531 53.058, 83.705 53.219, 85.394 54.497 C 86.436 55.286, 91.611 57.360, 96.894 59.106 C 125.499 68.560, 130.064 77.936, 113.923 94.077 C 108.516 99.484, 108.347 99.808, 109.890 101.817 L 111.500 103.915 121.380 101.987 C 126.813 100.927, 132.314 99.369, 133.603 98.524 C 137.748 95.808, 139.509 87.496, 139.433 71 C 139.365 56.011, 138.819 51.363, 134.300 27.250 C 131.672 13.231, 131.588 13.002, 129.065 13.136 C 127.654 13.210, 116.825 13.850, 105 14.557 M 159.778 19.574 C 159.477 20.633, 156.956 29.375, 154.176 39 C 146.838 64.401, 136 109.667, 136 114.914 C 136 115.369, 138.690 116.046, 141.977 116.418 C 145.264 116.790, 150.259 117.779, 153.076 118.615 C 155.892 119.452, 158.411 119.922, 158.673 119.661 C 158.934 119.399, 160.199 114.012, 161.482 107.689 C 164.854 91.081, 166.397 71.902, 165.662 55.732 C 165.070 42.719, 162.691 24.043, 161.066 19.649 C 160.345 17.702, 160.311 17.700, 159.778 19.574 M 55 19.913 C 55 22.446, 71.539 30.919, 81.460 33.468 C 87.967 35.140, 94.757 35.441, 96.797 34.147 C 98.807 32.871, 70.640 22.347, 57.750 19.557 C 56.237 19.230, 55 19.390, 55 19.913 M 85.512 25.544 C 93.205 28.524, 100.014 30.971, 100.643 30.981 C 102.088 31.005, 103 28.666, 103 24.937 C 103 21.352, 102.689 21.278, 85.012 20.624 L 71.524 20.124 85.512 25.544 M 68.942 59.007 C 62.125 60.162, 54.197 63.914, 51.972 67.040 C 44.070 78.137, 59.633 96.690, 80.455 100.996 C 88.508 102.661, 103 100.716, 103 97.970 C 103 96.465, 91.508 80.024, 91.163 81.036 C 90.977 81.579, 89.941 82.496, 88.860 83.075 C 86.290 84.450, 78.870 80.993, 77.036 77.567 C 75.300 74.323, 76.473 70.197, 79.528 68.805 C 80.887 68.186, 82 67.253, 82 66.733 C 82 65.147, 75.910 57.992, 74.666 58.118 C 74.025 58.182, 71.449 58.583, 68.942 59.007 M 80.544 71.344 C 77.943 73.246, 79.223 77.547, 82.965 79.482 C 86.886 81.510, 88 81.396, 88 78.968 C 88 75.793, 85.249 70, 83.742 70 C 82.994 70, 81.555 70.605, 80.544 71.344 M 102.697 101.636 C 102.347 101.986, 99.684 102.848, 96.780 103.551 L 91.500 104.830 97.500 104.901 C 105.484 104.996, 108.418 104.208, 106.899 102.378 C 105.688 100.919, 103.756 100.578, 102.697 101.636 M 131 102.675 C 128.525 103.416, 123.688 104.514, 120.250 105.114 C 116.813 105.714, 114.012 106.497, 114.027 106.853 C 114.042 107.209, 115.623 109.188, 117.541 111.250 C 120.818 114.775, 121.385 115, 126.994 115 C 132.365 115, 133.013 114.775, 133.473 112.750 C 134.900 106.466, 135.867 101.542, 135.694 101.440 C 135.587 101.377, 133.475 101.933, 131 102.675 M 101.917 107.402 C 101.688 107.623, 88.714 108.320, 73.086 108.951 C 44.844 110.090, 29.936 111.377, 27.194 112.911 C 25.700 113.747, 30.998 116.193, 51.570 124.166 C 57.162 126.333, 62.696 129, 63.868 130.092 C 66.420 132.469, 66.639 136.938, 64.500 143 C 63.675 145.338, 63 147.399, 63 147.579 C 63 147.759, 64.968 148.777, 67.372 149.841 C 73.219 152.427, 78.725 157.553, 88.144 169.180 C 96.520 179.521, 99.434 181.494, 101.718 178.373 C 103.768 175.571, 105.835 167.650, 107.322 156.899 C 108.645 147.331, 108.642 147.289, 106.253 144.399 C 98.437 134.946, 96.434 127.496, 100.500 122.999 C 103.190 120.025, 108.927 117.195, 113.872 116.404 L 117.927 115.756 114.214 111.411 C 110.973 107.619, 109.980 107.061, 106.417 107.033 C 104.171 107.015, 102.146 107.181, 101.917 107.402 M 127.500 121 C 129.081 122.650, 130.740 124, 131.187 124 C 131.634 124, 132 122.650, 132 121 C 132 118.209, 131.743 118, 128.313 118 L 124.626 118 127.500 121 M 132.086 137.232 C 130.322 148.751, 127.372 159.608, 124.109 166.580 L 121.264 172.660 126.265 171.671 C 132.559 170.427, 141.921 171.804, 155.373 175.954 C 166.785 179.475, 171.603 179.841, 172.410 177.250 C 174.223 171.433, 165.602 153.090, 156.316 143.005 C 152.226 138.563, 149.251 136.519, 142.219 133.316 L 133.307 129.256 132.086 137.232" stroke="none" fill="black" fill-rule="evenodd"/>
</svg>