<svg xmlns="http://www.w3.org/2000/svg" width="200" height="200" viewBox="0 0 200 200" version="1.1">
	<path d="M 96.252 9.536 C 95.046 10.381, 93.522 12.863, 92.866 15.052 C 92.007 17.919, 91.231 18.904, 90.087 18.576 C 89.214 18.326, 84.516 16.927, 79.647 15.468 C 69.964 12.568, 65.485 12.701, 62.519 15.979 C 57.916 21.065, 64.986 27.065, 81.750 32.299 C 87.387 34.060, 92 35.952, 92 36.504 C 92 37.141, 84.958 37.516, 72.750 37.529 C 60.370 37.541, 51.359 38.027, 47.500 38.890 C 41.153 40.309, 34 43.479, 34 44.872 C 34 45.957, 46.225 51.513, 52 53.053 C 54.475 53.713, 62.350 54.248, 69.500 54.242 C 81.477 54.232, 82.171 54.331, 78.324 55.488 C 69.828 58.045, 62.867 64.287, 59.486 72.380 C 53.167 87.503, 68.003 100.809, 94.966 104.202 C 99.660 104.792, 103.576 105.327, 103.669 105.390 C 103.762 105.453, 104.130 106.669, 104.487 108.092 L 105.137 110.681 86.818 111.268 C 76.743 111.590, 61.525 111.499, 53 111.064 C 38.966 110.348, 36.915 110.460, 31.311 112.257 C 19.576 116.020, 18 121.360, 27.569 124.940 C 40.197 129.665, 72.853 130.250, 89.813 126.056 C 94.386 124.925, 99.878 124, 102.018 124 C 105.637 124, 105.953 124.233, 106.535 127.337 C 107.408 131.991, 105.363 142.082, 103.085 144.360 C 100.420 147.024, 95.612 145.924, 88.153 140.944 C 73.128 130.910, 56.103 129.808, 50.408 138.501 C 42.330 150.828, 52.592 176.895, 68.500 184.460 C 73.343 186.763, 86.054 187.865, 108.678 187.944 C 127.757 188.010, 138.804 186.718, 145 183.695 C 148.772 181.855, 149.550 180.981, 149.810 178.293 C 150.062 175.693, 149.329 174.227, 145.939 170.550 C 143.639 168.055, 140.213 165.059, 138.325 163.892 L 134.893 161.771 127.196 165.284 C 117.010 169.934, 112.166 171.143, 103.836 171.117 C 92.151 171.080, 84.748 165.237, 87.826 158.482 C 90.654 152.275, 105.531 150.050, 120.873 153.539 C 132.494 156.182, 141.384 154.026, 144.613 147.782 C 146.320 144.480, 146.688 137.035, 145.494 129.964 L 144.824 126 154.231 126 C 172.432 126, 180.503 120.824, 178.548 110.406 C 177.958 107.257, 177.692 107.044, 175.203 107.729 C 168.100 109.682, 159.143 106.297, 145.395 96.463 L 137.291 90.665 140.206 85.975 C 143.599 80.517, 144.132 74.377, 141.554 70.442 C 138.778 66.205, 131.593 62.403, 118.191 58.077 C 103.556 53.354, 101.673 52.446, 104.365 51.414 C 107.253 50.305, 131.052 51.702, 136.094 53.276 C 140.379 54.614, 141.113 54.556, 147.024 52.416 C 157.754 48.530, 161.352 44.257, 157.488 39.987 C 155.340 37.613, 146.207 34.017, 133.250 30.443 C 126.720 28.641, 123 27.126, 123 26.268 C 123 23.572, 119.052 17.277, 115.816 14.813 C 107.442 8.437, 100.496 6.564, 96.252 9.536 M 96.557 13.223 C 93.789 17.174, 94.534 19.796, 98.750 20.946 C 100.813 21.509, 106.438 23.059, 111.250 24.390 C 116.063 25.722, 120 26.381, 120 25.856 C 120 23.686, 116.905 19.166, 113.809 16.812 C 105.666 10.622, 99.305 9.298, 96.557 13.223 M 66.695 16.652 C 62.965 18.606, 63.320 20.522, 67.983 23.608 C 71.819 26.146, 87.559 32, 90.548 32 C 91.621 32, 92 30.712, 92 27.061 L 92 22.121 83.250 19.511 C 78.438 18.075, 73.350 16.527, 71.945 16.070 C 70.237 15.515, 68.496 15.708, 66.695 16.652 M 94.015 26.750 C 94.039 32.629, 94.918 33.268, 103.666 33.775 C 111.425 34.224, 119 32.461, 119 30.208 C 119 29.495, 97.039 23, 94.628 23 C 94.283 23, 94.007 24.688, 94.015 26.750 M 120.543 32.952 C 118.086 35.667, 109.059 37.346, 101.355 36.521 C 96.641 36.017, 95 36.157, 95 37.064 C 95 38.649, 122.783 37.642, 131.449 35.742 L 137.398 34.439 131.214 32.719 C 123.421 30.553, 122.701 30.568, 120.543 32.952 M 127.500 40.441 C 105.708 47.752, 105.895 47.575, 119.171 48.329 C 125.402 48.683, 132.783 49.592, 135.573 50.349 C 140.278 51.626, 141.096 51.562, 146.876 49.469 C 150.303 48.228, 153.987 46.417, 155.062 45.444 C 156.838 43.837, 156.874 43.519, 155.463 41.959 C 153.927 40.262, 143.903 35.963, 141.661 36.040 C 141.022 36.062, 134.650 38.043, 127.500 40.441 M 51.170 41.142 C 47.688 41.647, 43.413 42.668, 41.670 43.411 L 38.500 44.762 44.096 47.384 C 52.743 51.435, 63.499 52.562, 79.773 51.121 C 87.279 50.456, 93.542 49.791, 93.690 49.643 C 93.838 49.495, 93.619 47.377, 93.203 44.937 L 92.446 40.500 74.973 40.362 C 65.363 40.287, 54.651 40.638, 51.170 41.142 M 105.692 40.746 L 95.884 41.074 96.192 44.787 C 96.439 47.761, 96.948 48.564, 98.748 48.819 C 99.985 48.995, 102.272 48.231, 103.830 47.121 C 105.388 46.011, 109.102 44.143, 112.082 42.968 C 117.766 40.728, 119.289 39.859, 116.917 40.209 C 116.138 40.324, 111.086 40.566, 105.692 40.746 M 97.625 54.750 C 97.990 56.263, 100.194 59.559, 102.522 62.076 C 104.850 64.593, 107.038 67.518, 107.384 68.576 C 107.729 69.634, 110.147 71.678, 112.756 73.119 C 115.365 74.559, 121.257 78.528, 125.849 81.938 C 130.441 85.348, 134.770 87.918, 135.471 87.650 C 136.171 87.381, 137.757 85.068, 138.996 82.509 C 143.669 72.856, 138.563 67.621, 118.022 61.007 C 110.723 58.657, 103.629 55.717, 102.051 54.389 C 98.241 51.184, 96.793 51.302, 97.625 54.750 M 89.500 54.523 C 92.250 55.287, 94.612 55.932, 94.750 55.956 C 94.888 55.980, 95 55.325, 95 54.500 C 95 53.349, 93.780 53.016, 89.750 53.067 L 84.500 53.135 89.500 54.523 M 77.500 58.701 C 63.909 64.131, 57.037 77.823, 63.263 87.063 C 68.117 94.265, 81.317 100.122, 95.944 101.563 L 103.296 102.288 102.612 97.132 C 101.756 90.678, 101.119 89, 99.527 89 C 97.228 89, 84.450 82.107, 82.087 79.593 L 79.762 77.118 81.954 74.331 C 84.988 70.474, 88.685 68.229, 93.279 67.453 C 96.658 66.882, 97.102 66.507, 96.603 64.647 C 96.287 63.466, 96.021 61.915, 96.014 61.199 C 95.995 59.381, 89.808 56.990, 85.282 57.052 C 83.202 57.080, 79.700 57.822, 77.500 58.701 M 99.381 64 C 99.707 65.375, 99.979 66.785, 99.986 67.133 C 99.994 67.482, 100.900 68.002, 102 68.290 C 104.619 68.975, 104.479 68.143, 101.359 64.500 C 98.847 61.566, 98.803 61.555, 99.381 64 M 89.036 71.841 C 83.819 74.639, 82.975 76.688, 86 79.208 C 89.133 81.819, 98.930 86.404, 99.709 85.624 C 100.029 85.305, 99.711 81.658, 99.004 77.522 C 97.785 70.397, 97.579 70, 95.093 70 C 93.650 70, 90.924 70.828, 89.036 71.841 M 101 72.266 C 101 75.418, 103.335 85, 104.103 85 C 105.810 85, 107.206 80.572, 106.696 76.773 C 106.092 72.269, 106.226 72.472, 103.250 71.557 C 101.658 71.068, 101 71.275, 101 72.266 M 109.693 76.934 C 110.414 79.691, 108.199 85.748, 105.873 87.376 C 104.029 88.668, 103.976 89.200, 105.069 95.475 L 106.239 102.191 110.669 101.527 C 118.897 100.293, 124.567 98.062, 128.898 94.355 L 133.208 90.666 130.854 88.829 C 125.408 84.578, 111.084 75, 110.174 75 C 109.631 75, 109.415 75.870, 109.693 76.934 M 130.563 96.559 C 126.869 99.821, 116.429 104, 111.976 104 C 108.824 104, 107 105.150, 107 107.138 C 107 108.197, 107.664 109.318, 108.475 109.629 C 109.287 109.940, 118.737 109.814, 129.476 109.347 C 144.315 108.703, 149.002 108.784, 149.001 109.683 C 149 110.333, 148.074 111.159, 146.943 111.518 C 144.385 112.330, 143.113 115.532, 143.723 119.622 C 144.154 122.503, 144.548 122.786, 148.845 123.289 C 153.699 123.858, 166.042 122.763, 169.500 121.457 C 173.159 120.076, 176 116.739, 176 113.826 C 176 111.082, 175.847 111, 170.722 111 C 164.198 111, 154.998 106.792, 143.689 98.634 C 139.393 95.535, 135.568 93.019, 135.189 93.042 C 134.810 93.065, 132.728 94.647, 130.563 96.559 M 115.134 112.745 L 107.768 113.092 108.384 116.171 C 108.723 117.865, 109 119.582, 109 119.988 C 109 120.394, 113.388 121.030, 118.750 121.401 C 124.112 121.773, 131.313 122.347, 134.750 122.676 L 141 123.276 141 117.638 L 141 112 131.750 112.199 C 126.662 112.308, 119.185 112.554, 115.134 112.745 M 30.009 115.745 C 26.979 116.980, 24.387 117.993, 24.250 117.995 C 24.113 117.998, 24 118.620, 24 119.379 C 24 120.137, 25.238 121.241, 26.750 121.832 C 34.924 125.026, 39.118 125.488, 60 125.494 C 79.205 125.499, 82.378 125.260, 89.724 123.250 C 94.246 122.013, 99.759 121, 101.974 121 C 105.703 121, 105.999 120.797, 105.985 118.250 C 105.976 116.737, 105.639 115.050, 105.235 114.500 C 104.770 113.867, 91.847 113.500, 70.009 113.500 C 36.565 113.500, 35.352 113.568, 30.009 115.745 M 108.998 131.750 C 108.997 140.532, 107.058 145.694, 103 147.721 C 100.734 148.854, 101.088 148.972, 106.792 148.985 C 110.253 148.993, 116.553 149.719, 120.792 150.597 C 138.819 154.332, 145.585 149.176, 143.153 133.557 C 142.572 129.820, 141.933 126.600, 141.735 126.402 C 141.219 125.885, 119.393 124.019, 113.750 124.009 L 109 124 108.998 131.750 M 57.325 136.459 C 52.270 138.658, 50.494 142.321, 50.539 150.457 C 50.607 162.890, 58.664 176.232, 69.437 181.748 C 74.403 184.292, 74.981 184.350, 99.667 184.798 C 131.344 185.372, 145.561 183.573, 147.272 178.771 C 148.098 176.454, 145.126 172.263, 139.977 168.483 L 134.895 164.752 128.197 167.806 C 117.656 172.612, 110.696 174.255, 102.638 173.840 C 93.753 173.383, 88.367 170.793, 85.729 165.710 C 84.098 162.566, 83.997 161.539, 85.018 158.447 C 86.270 154.652, 90.414 151.367, 95.250 150.336 C 98.788 149.582, 98.764 148.403, 95.196 147.689 C 93.654 147.381, 90.166 145.637, 87.446 143.814 C 75.959 136.117, 64.529 133.326, 57.325 136.459" stroke="none" fill="black" fill-rule="evenodd"/>
</svg>