<svg xmlns="http://www.w3.org/2000/svg" width="200" height="200" viewBox="0 0 200 200" version="1.1">
	<path d="M 94 15.568 C 52.118 18.780, 52.684 18.672, 55.024 23.046 C 57.631 27.916, 82.375 41, 88.978 41 C 90.101 41, 91.764 41.870, 92.675 42.933 C 94.047 44.536, 95.200 44.773, 99.415 44.318 L 104.500 43.769 98.866 49.507 L 93.232 55.246 86.724 54.112 C 81.350 53.177, 79.019 53.257, 73.358 54.575 C 63.652 56.833, 50.136 56.242, 46.322 53.392 C 42.551 50.575, 42.749 48.050, 46.935 45.606 C 51.414 42.990, 63.609 42.915, 73.824 45.441 C 78.940 46.706, 81.465 46.935, 82.198 46.202 C 83.992 44.408, 73.386 41.830, 61.919 41.272 C 52.694 40.823, 50.739 41.022, 46.665 42.824 C 38.624 46.381, 38.447 52.460, 46.259 56.729 C 48.778 58.106, 51.840 58.500, 60.007 58.500 L 70.514 58.500 66.007 60.630 C 43.188 71.415, 45.028 92.758, 69.569 101.940 C 94.504 111.269, 121.589 103.233, 125.434 85.364 C 126.098 82.278, 125.986 82.166, 118.553 78.494 C 107.800 73.181, 102.806 66.892, 104.376 60.640 C 104.885 58.609, 105.774 58.186, 110.734 57.616 C 118.510 56.723, 126.427 52.798, 127.970 49.073 C 129.998 44.176, 127.389 41.180, 118.893 38.653 L 115.016 37.500 120.758 32.947 C 123.916 30.443, 128.607 26.955, 131.182 25.196 C 136.657 21.456, 135.966 20.449, 138.936 36.500 C 143.214 59.628, 145.240 88.353, 143.126 95.913 C 142.619 97.726, 141.089 98.791, 136.975 100.196 C 117.426 106.875, 100.212 109.107, 64.792 109.555 C 35.247 109.929, 33.016 110.283, 29.608 115.149 C 26.242 119.955, 30.415 122.199, 52.581 127.503 C 75.925 133.088, 79.625 136.208, 70 142.191 C 65.306 145.109, 65 145.552, 65 149.439 C 65 163.386, 72.774 176.776, 84.265 182.624 C 94.061 187.609, 99.641 188.392, 124.129 188.218 L 146.758 188.057 156.629 184.533 C 168.111 180.433, 171.500 178.237, 171.500 174.896 C 171.500 170.440, 166.649 169.703, 134.157 169.227 L 104.813 168.798 103.407 165.431 C 101.098 159.906, 101.574 157.284, 105.250 155.276 C 108.152 153.690, 111.013 153.533, 131.943 153.805 C 144.837 153.973, 157.115 153.818, 159.228 153.461 C 164.894 152.504, 169 148.660, 169 144.312 C 169 140.880, 166.593 134.485, 164.911 133.445 C 164.445 133.157, 158.762 133.690, 152.282 134.629 C 136.668 136.892, 109.682 137.106, 105.574 135 C 103.964 134.175, 102.479 132.980, 102.272 132.344 C 101.373 129.580, 114.850 118.231, 125.598 112.700 L 128.696 111.106 134.873 117.113 C 150.736 132.539, 163.188 129.735, 168.445 109.552 C 170.513 101.612, 171.335 85.281, 170.197 74.767 C 169.591 69.165, 169.602 64.324, 170.229 61.267 C 170.766 58.645, 171.231 50.875, 171.261 44 C 171.308 33.407, 170.980 30.632, 169.109 25.810 C 166.543 19.196, 161.660 14.402, 156.504 13.435 C 152.750 12.730, 145.506 14.170, 140.951 16.526 C 138.342 17.874, 138.172 17.821, 137.583 15.473 C 137.001 13.157, 136.567 13.007, 130.731 13.114 C 127.304 13.177, 110.775 14.281, 94 15.568 M 100.750 17.799 C 89.338 18.629, 80 19.621, 80 20.005 C 80 20.389, 83.487 20.974, 87.750 21.305 C 92.013 21.636, 97.849 22.412, 100.719 23.029 C 105.579 24.075, 105.983 24.390, 106.587 27.612 C 106.944 29.514, 106.974 32.380, 106.654 33.979 C 106.191 36.294, 106.476 37.016, 108.048 37.515 C 109.507 37.978, 112.049 36.513, 117.762 31.916 C 122.018 28.491, 127.629 24.296, 130.232 22.594 C 132.862 20.875, 134.972 18.723, 134.982 17.750 C 135.004 15.598, 130.961 15.604, 100.750 17.799 M 144.137 18.110 C 138.991 20.139, 138.796 20.350, 139.316 23.362 C 139.614 25.088, 141.015 33.017, 142.430 40.982 C 145.719 59.498, 147.436 80.606, 146.534 91.436 L 145.827 99.921 140.242 102.011 C 131.708 105.203, 121.520 107.787, 110.612 109.524 C 97.656 111.587, 67.619 113.033, 52.997 112.298 C 40.598 111.674, 35.605 112.569, 32.531 115.966 C 30.900 117.768, 30.952 117.923, 33.660 119.312 C 35.222 120.112, 41.675 121.983, 48 123.468 C 70.183 128.678, 76.526 131.262, 77.597 135.530 C 78.421 138.813, 76.583 141.574, 71.647 144.467 L 67.331 146.996 68.141 152.924 C 69.941 166.087, 75.321 174.790, 84.704 179.715 C 94.507 184.861, 99.118 185.519, 124.005 185.323 L 146.509 185.146 156.448 181.594 C 165.774 178.261, 170.108 175.775, 168.827 174.494 C 167.383 173.050, 154.600 172.029, 129.964 171.389 L 103.028 170.690 101.014 166.529 C 97.429 159.123, 98.591 155.181, 105.131 152.564 C 108.606 151.174, 112.662 150.914, 128.910 151.040 C 158.511 151.270, 161.036 151.069, 164.250 148.234 C 166.264 146.457, 166.521 142.237, 164.839 138.547 C 163.467 135.534, 164.187 135.580, 150.424 137.614 C 144.416 138.502, 132.525 139.290, 124 139.364 C 110.332 139.484, 108.027 139.264, 104.500 137.500 C 99.286 134.893, 98.595 130.824, 102.563 126.107 C 106.368 121.586, 126.077 108, 128.832 108 C 129.241 108, 132.598 110.949, 136.291 114.552 C 143.348 121.438, 147.888 124, 153.034 124 C 157.251 124, 159.427 122.663, 162.008 118.487 C 166.531 111.169, 167.276 106.002, 167.772 78.500 C 168.691 27.561, 168.627 26.837, 162.628 20.291 C 158.402 15.680, 152.165 14.944, 144.137 18.110 M 60.500 24.560 C 65.436 28.654, 75.140 33.726, 83.239 36.444 C 90.829 38.992, 99.380 39.813, 100.441 38.095 C 101.497 36.387, 64.997 21.956, 59.824 22.036 C 57.567 22.071, 57.587 22.144, 60.500 24.560 M 87.500 28.553 C 105.488 36.291, 104.188 36.105, 103.814 30.883 L 103.500 26.500 97.951 25.404 C 94.899 24.801, 88.374 24.004, 83.451 23.634 L 74.500 22.960 87.500 28.553 M 103.500 40 C 103.160 40.550, 103.835 41, 105 41 C 106.165 41, 106.840 40.550, 106.500 40 C 106.160 39.450, 105.485 39, 105 39 C 104.515 39, 103.840 39.450, 103.500 40 M 113.657 42.796 C 113.928 43.831, 112.566 46.860, 110.442 49.948 L 106.757 55.305 111.469 54.659 C 120.935 53.362, 127.735 48.616, 125.442 44.907 C 124.486 43.359, 118.558 41, 115.626 41 C 113.772 41, 113.300 41.431, 113.657 42.796 M 102.887 48.956 L 96.500 54.911 100.084 54.956 C 103.306 54.996, 104.037 54.463, 107.334 49.677 C 113.443 40.807, 111.894 40.555, 102.887 48.956 M 75 56.949 C 72.847 57.682, 73.103 57.814, 76.846 57.900 C 79.236 57.955, 82.498 58.772, 84.095 59.715 C 86.822 61.326, 87.101 61.327, 88.690 59.739 C 89.620 58.809, 90.180 57.847, 89.934 57.601 C 88.982 56.649, 77.369 56.142, 75 56.949 M 91.208 61.014 L 88.917 63.917 91.108 68.208 C 93.631 73.148, 94.742 84.082, 93.140 88.198 C 92.562 89.681, 90.953 91.640, 89.563 92.551 C 87.193 94.104, 86.836 94.090, 83.769 92.323 C 81.971 91.288, 78.587 87.600, 76.250 84.129 L 71.999 77.817 78.428 70.703 C 84.750 63.707, 84.822 63.564, 82.741 62.106 C 79.727 59.995, 72.142 60.377, 67.220 62.888 C 49.094 72.135, 47.985 87.850, 64.826 96.827 C 87.059 108.676, 118.384 102.791, 122.449 86 C 122.996 83.742, 122.496 83.239, 117.277 80.804 C 106.039 75.561, 100.151 68.341, 101.452 61.403 L 102.091 58 97.795 58.055 C 94.283 58.101, 93.082 58.640, 91.208 61.014 M 81.099 71.886 C 78.295 75.123, 76 78.079, 76 78.456 C 76 79.990, 82.294 88.146, 84.688 89.715 C 87.160 91.335, 87.330 91.311, 89.129 89.089 C 91.699 85.915, 91.645 76.018, 89.027 70.250 C 87.966 67.912, 86.895 66, 86.648 66 C 86.400 66, 83.903 68.649, 81.099 71.886" stroke="none" fill="black" fill-rule="evenodd"/>
</svg>