<svg xmlns="http://www.w3.org/2000/svg" width="200" height="200" viewBox="0 0 200 200" version="1.1">
	<path d="M 95.500 9.100 C 90 9.551, 80.550 10.717, 74.500 11.692 C 68.450 12.666, 60.462 13.353, 56.750 13.218 C 53.038 13.084, 50.005 13.317, 50.011 13.737 C 50.035 15.518, 57.953 24.300, 62.853 27.982 C 68.831 32.474, 76.104 35, 83.056 35 C 88.312 35, 95.475 32.785, 98.203 30.316 C 99.722 28.941, 100.594 28.866, 103.753 29.839 C 109.408 31.581, 110.609 32.562, 109.185 34.277 C 108.334 35.302, 106.583 35.570, 102.990 35.225 C 97.097 34.659, 69.838 36.864, 67.896 38.064 C 64.906 39.912, 68.566 40.176, 81.202 39.025 C 88.516 38.358, 96.841 37.967, 99.701 38.156 L 104.903 38.500 100.701 43.308 L 96.500 48.116 72.500 48.308 C 49.105 48.495, 38.417 47.752, 39.491 46.014 C 39.782 45.543, 43.616 43.960, 48.010 42.497 C 52.405 41.033, 56 39.364, 56 38.787 C 56 36.239, 38.614 42.011, 36.616 45.222 C 33.760 49.815, 40.289 50.947, 69.785 50.976 C 96.256 51.002, 95.032 50.695, 90.681 56.216 C 89.409 57.831, 89.007 57.809, 83.914 55.846 C 71.620 51.107, 58.643 53.987, 52.525 62.810 C 49.991 66.465, 49.534 68.074, 49.518 73.392 C 49.503 78.682, 49.948 80.311, 52.365 83.801 C 58.688 92.933, 70.177 97.413, 87 97.305 C 108.451 97.167, 125.983 87.686, 125.996 76.218 C 126.005 68.535, 118.374 59.487, 109.455 56.606 C 103.998 54.842, 100 52.448, 100 50.943 C 100 50.394, 106.243 50, 114.935 50 C 130.176 50, 134.585 49.246, 135.656 46.455 C 136.595 44.007, 131.562 39.516, 123.309 35.438 C 116.010 31.832, 115.922 31.743, 117.697 29.756 C 124.098 22.588, 142.301 13.020, 145.886 14.939 C 151.293 17.833, 151.020 21.423, 144.863 28.419 L 140.680 33.170 141.843 40.835 C 146.879 74.020, 141.932 91.799, 125.607 99.188 C 120.694 101.412, 119.665 101.489, 98.500 101.215 C 64.112 100.770, 34.036 103.535, 30.064 107.507 C 28.157 109.415, 29.401 111.732, 33.679 114.239 C 37.726 116.610, 58.526 121.986, 63.685 121.994 C 68.687 122.001, 72.523 123.314, 73.276 125.277 C 73.578 126.063, 72.297 130.035, 70.431 134.103 C 66.250 143.214, 66.193 145.143, 70.005 148.351 C 73.795 151.539, 78.671 152.267, 93.377 151.840 L 105.070 151.500 101.785 154.243 C 99.978 155.752, 91.525 161.898, 83 167.900 C 66.085 179.809, 61.406 184.008, 62.339 186.440 C 63.342 189.054, 71.797 188.798, 87.719 185.670 C 98.716 183.510, 98.785 183.479, 102.134 179.093 C 107.734 171.761, 110.114 170.500, 118.357 170.500 C 125.396 170.500, 125.934 170.689, 142.030 178.815 C 159.606 187.688, 164.451 188.900, 169.397 185.659 C 172.818 183.418, 175.496 175.722, 175.498 168.127 L 175.500 161.753 161 158.502 C 143.908 154.670, 133.762 151.904, 134.411 151.255 C 134.668 150.999, 140.082 149.755, 146.442 148.491 C 163.178 145.165, 169.355 141.214, 167.647 134.931 C 166.071 129.136, 165.132 128.792, 155.490 130.474 C 144.839 132.331, 122.789 132.438, 114.371 130.674 C 98.258 127.296, 99.481 121.704, 118.350 112.480 C 124.482 109.482, 130.850 106.770, 132.500 106.453 C 135.312 105.914, 135.620 106.172, 137.412 110.590 C 138.463 113.181, 141.198 117.259, 143.490 119.651 C 146.912 123.222, 148.308 124, 151.294 124 C 158.679 124, 166.210 113.434, 169.561 98.370 C 171.609 89.166, 171.185 69.527, 168.819 64 C 167.393 60.671, 167.455 60.232, 170.083 55 C 176.875 41.478, 175.725 26.913, 167.136 17.661 C 162.950 13.152, 159.129 11.687, 149.500 10.900 C 144.550 10.496, 137.575 9.687, 134 9.103 C 126.607 7.894, 110.215 7.893, 95.500 9.100 M 95.519 11.918 L 89.539 12.500 94.264 13.745 C 100.527 15.395, 103 17.976, 103 22.864 C 103 26.494, 103.260 26.828, 107.283 28.364 C 109.639 29.264, 111.901 30, 112.310 30 C 112.719 30, 116.042 27.535, 119.694 24.522 C 123.347 21.509, 129.185 17.572, 132.668 15.772 L 139.002 12.500 134.751 11.824 C 129.726 11.025, 104.066 11.087, 95.519 11.918 M 150 13.367 C 150 13.589, 150.632 14.989, 151.404 16.477 C 153.271 20.075, 152.100 23.952, 147.422 29.660 L 143.760 34.130 144.913 43.815 C 146.948 60.903, 147.002 62.350, 145.954 71.494 C 143.806 90.233, 135.369 100.445, 119.201 103.876 C 113.134 105.163, 103.730 105.247, 96.610 104.078 C 91.175 103.185, 60.202 104.405, 47 106.031 C 37.775 107.168, 32 108.684, 32 109.969 C 32 112.054, 51.175 117.582, 63.382 119.016 C 76.789 120.592, 78.519 123.496, 73.001 135.160 C 68.940 143.744, 69.058 145.707, 73.750 147.675 C 76.844 148.973, 80.559 149.165, 94.976 148.773 L 112.452 148.298 107.108 153.084 C 104.169 155.716, 96.530 161.584, 90.133 166.124 C 69.267 180.931, 65 184.174, 65 185.224 C 65 187.549, 96.844 182.031, 98.285 179.455 C 100.432 175.620, 105.809 170.538, 109.491 168.865 C 117.529 165.214, 125.401 166.983, 143.500 176.508 C 150.100 179.981, 157.414 183.385, 159.753 184.071 C 167.575 186.365, 171.430 182.374, 172.860 170.500 L 173.635 164.066 168.067 162.945 C 157.349 160.788, 137.466 155.769, 133.750 154.283 C 131.335 153.317, 130 152.133, 130 150.959 C 130 148.802, 130.182 148.741, 145.062 145.991 C 158.242 143.555, 164.364 140.753, 164.759 136.975 C 165.236 132.416, 163.891 131.637, 157.873 132.986 C 149.794 134.797, 126.700 135.434, 118.055 134.084 C 104.250 131.928, 98.565 127.878, 101.022 121.948 C 102.522 118.326, 106.507 115.281, 116.005 110.497 C 123.529 106.708, 136.011 101.670, 136.535 102.211 C 136.689 102.370, 138.005 105.200, 139.459 108.500 C 145.077 121.247, 151.769 124.318, 158.263 117.131 C 167.563 106.837, 171.487 81.259, 166.179 65.536 L 164.333 60.066 167.916 52.846 C 171.154 46.323, 171.496 44.849, 171.458 37.563 C 171.428 31.779, 170.902 28.511, 169.596 26 C 166.985 20.978, 162.134 16.186, 158.572 15.109 C 153.972 13.718, 150 12.910, 150 13.367 M 73.500 15.937 C 71.844 16.393, 71.303 16.816, 72.293 16.882 C 73.279 16.947, 79.618 18.800, 86.380 21 C 93.142 23.200, 98.925 25, 99.231 25 C 100.224 25, 100.953 22.040, 100.347 20.463 C 99.217 17.517, 93.802 15.733, 85.033 15.418 C 80.340 15.249, 75.150 15.483, 73.500 15.937 M 57.011 19.015 C 59.996 23.207, 67.457 28.576, 72.928 30.468 C 80.739 33.170, 94.153 31.797, 96.463 28.059 C 97.313 26.684, 70.968 18.656, 58.634 16.532 L 54.768 15.866 57.011 19.015 M 107.159 40.413 C 103.771 43.941, 101 46.978, 101 47.163 C 101 47.891, 130.644 47.338, 131.858 46.588 C 133.961 45.288, 129.699 41.595, 121.460 37.578 C 117.425 35.610, 113.942 34, 113.720 34 C 113.498 34, 110.546 36.886, 107.159 40.413 M 94.391 55.732 C 92.202 58.602, 91.909 59.586, 92.857 60.889 C 98.171 68.195, 99.016 71.237, 97.107 76.185 C 95.486 80.385, 88.621 86.116, 80.633 89.937 L 72.766 93.700 76.633 94.339 C 91.930 96.866, 112.800 91.547, 120.068 83.270 C 123.961 78.836, 124.082 73.169, 120.397 67.851 C 117.260 63.324, 114.852 61.665, 107.345 58.856 C 104.199 57.679, 100.606 55.697, 99.360 54.451 L 97.095 52.186 94.391 55.732 M 63.500 57.429 C 58.184 59.379, 53.376 65.036, 52.095 70.847 C 51.196 74.922, 51.349 76.054, 53.323 79.959 C 55.567 84.399, 62.660 90.475, 66.393 91.155 C 67.836 91.418, 69.339 89.716, 72.712 84 C 75.146 79.875, 79.356 73.099, 82.069 68.942 C 84.781 64.785, 87 61.079, 87 60.705 C 87 59.313, 79.297 56.869, 73.500 56.423 C 69.631 56.125, 66.079 56.482, 63.500 57.429 M 83.677 71.250 C 76.392 82.637, 72.742 89.075, 73.270 89.604 C 74 90.334, 82.757 86.263, 87.547 82.968 C 92.484 79.571, 95 75.593, 95 71.185 C 95 68.281, 91.712 63, 89.905 63 C 89.383 63, 86.580 66.713, 83.677 71.250" stroke="none" fill="black" fill-rule="evenodd"/>
</svg>