<svg xmlns="http://www.w3.org/2000/svg" width="200" height="200" viewBox="0 0 200 200" version="1.1">
	<path d="M 164.500 8.840 C 160.652 11.191, 155.661 17.317, 148.215 28.832 L 142.277 38.015 140.578 29.257 C 138.258 17.297, 135.914 9, 134.855 9 C 134.370 9, 133.191 9.428, 132.236 9.952 C 131.281 10.475, 114.525 12.072, 95 13.502 C 75.475 14.931, 58.487 16.518, 57.250 17.028 C 52.528 18.977, 55.624 25.248, 64.102 30.909 C 75.720 38.667, 90.189 40.635, 99.982 35.789 L 105.032 33.290 110.016 35.599 C 112.757 36.869, 115 38.296, 115 38.770 C 115 39.245, 117.925 41.498, 121.500 43.777 C 128.289 48.105, 129.547 50.352, 125.750 51.370 C 124.513 51.701, 115.400 51.964, 105.500 51.953 C 87.896 51.934, 87.548 51.893, 89.702 50.096 C 90.913 49.085, 96.425 46.777, 101.952 44.967 C 108.528 42.813, 112 41.176, 112 40.231 C 112 39.224, 111.469 39.023, 110.250 39.566 C 109.287 39.996, 93.404 40.606, 74.954 40.923 C 45.130 41.436, 41.108 41.697, 38.704 43.273 C 35.125 45.620, 35.293 47.172, 39.528 50.890 C 45.003 55.698, 50.455 58.158, 53.264 57.090 C 54.566 56.595, 58.301 55.881, 61.565 55.502 L 67.500 54.814 62.315 57.464 C 55.819 60.784, 50.322 66.769, 49.437 71.483 C 46.750 85.809, 69.327 103.624, 90.855 104.168 C 94.510 104.260, 85.737 104.639, 71.359 105.011 L 45.218 105.686 39.359 108.956 C 28.449 115.045, 26.233 118.946, 32.253 121.461 C 34.042 122.209, 40.718 123.541, 47.088 124.422 C 73.851 128.123, 81.760 132.467, 81.289 143.205 C 81.032 149.050, 82.709 149.553, 85.455 144.454 C 87.456 140.739, 100.270 127.996, 104.029 125.985 C 106.190 124.828, 106.204 124.871, 105.357 130.158 C 104.286 136.834, 104.250 147.529, 105.284 151.542 L 106.068 154.585 98.784 156.919 C 89.366 159.938, 77.074 166.118, 72.501 170.134 C 65.362 176.402, 64.342 182.574, 69.965 185.482 C 78.669 189.983, 94.472 183.692, 109.224 169.854 L 116.308 163.208 121.094 166.153 C 131.856 172.775, 157.784 182.371, 168.226 183.596 C 172.719 184.123, 173.770 183.916, 175.323 182.198 C 176.978 180.367, 177.010 179.919, 175.669 177.327 C 172.011 170.253, 157.411 158.848, 138.248 148.095 C 130.990 144.023, 122.597 138.503, 119.597 135.829 C 114.243 131.057, 110 125.420, 110 123.079 C 110 121.170, 122.411 115.912, 128.190 115.373 C 138.471 114.414, 143.602 119.864, 144.696 132.908 C 145.270 139.759, 145.380 140, 147.933 140 C 152.679 140, 159.268 135.844, 162.204 131 C 167.410 122.410, 168.178 117.093, 168.994 84 C 169.607 59.110, 170.146 51.385, 171.927 42 C 174.812 26.795, 175.144 13.398, 172.727 9.708 C 170.649 6.534, 168.624 6.321, 164.500 8.840 M 163.631 13.019 C 160.250 15.988, 150.877 29.061, 145.643 38.107 C 142.981 42.707, 142.979 42.729, 144.110 53.107 C 144.733 58.823, 145.039 69.174, 144.790 76.110 C 144.273 90.493, 142.995 93.752, 136.077 98.330 C 131.935 101.071, 121.378 105, 118.154 105 C 117.104 105, 115.786 105.563, 115.224 106.250 C 114.212 107.490, 110.815 118, 111.427 118 C 111.602 118, 113.756 117.111, 116.214 116.024 C 134.714 107.840, 146.185 114.021, 147.257 132.749 C 147.461 136.322, 147.834 136.997, 149.602 136.999 C 155.126 137.002, 161.750 129.218, 164.066 120 C 164.688 117.525, 165.549 101.550, 165.978 84.500 C 166.613 59.282, 167.144 51.634, 168.825 43.495 C 172.783 24.331, 172.669 10, 168.560 10 C 167.740 10, 165.522 11.359, 163.631 13.019 M 105 15.335 L 80.500 17.386 88.500 18.956 C 98.768 20.972, 104.076 23.693, 105.971 27.914 C 106.964 30.125, 108.997 31.978, 112.221 33.612 C 114.850 34.944, 117 36.433, 117 36.922 C 117 37.410, 118.923 38.937, 121.272 40.314 C 126.786 43.545, 131 47.785, 131 50.101 C 131 53.559, 127.146 54.457, 110.027 54.989 L 93.554 55.500 103.124 59.281 C 114.226 63.667, 119.860 67.071, 122.490 70.985 L 124.363 73.772 132.234 57.772 L 140.105 41.771 138.056 31.136 C 134.895 14.729, 134.276 12.976, 131.703 13.142 C 130.491 13.220, 118.475 14.207, 105 15.335 M 58 20.432 C 58 26.263, 76.469 36, 87.529 36 C 91.393 36, 101 33.215, 101 32.095 C 101 31.135, 94.441 28.262, 81 23.332 C 69.560 19.136, 58 17.679, 58 20.432 M 91.500 24.278 C 95.900 26.134, 100.513 28.196, 101.750 28.861 C 105.345 30.793, 104.467 28.258, 100.750 25.973 C 97.384 23.904, 92.884 22.435, 86.946 21.466 C 84.725 21.104, 86.345 22.104, 91.500 24.278 M 41.192 44.713 C 37.588 45.402, 38.928 47.814, 45.009 51.584 C 50.021 54.691, 50.833 54.902, 54.009 53.923 C 55.929 53.331, 63.706 52.593, 71.290 52.282 C 83.597 51.778, 85.193 51.508, 86.121 49.774 C 86.693 48.705, 89.038 46.978, 91.331 45.937 L 95.500 44.044 69.500 44.158 C 55.200 44.221, 42.461 44.471, 41.192 44.713 M 133.260 62 C 126.772 75.390, 115.599 101.977, 116.228 102.527 C 117.008 103.209, 127.969 99.602, 132.326 97.231 C 141.001 92.509, 141.455 91.334, 141.795 72.677 C 141.957 63.780, 141.684 54.475, 141.188 52 L 140.286 47.500 133.260 62 M 69.710 57.470 C 65.975 58.763, 62.150 60.401, 61.210 61.109 C 56.111 64.947, 52.956 68.715, 52.411 71.621 C 50.141 83.721, 68.024 98.873, 87.556 101.398 C 95.367 102.408, 95.637 101.743, 91.814 90.901 L 88.500 81.500 84.792 81.808 C 76.399 82.505, 74.668 77.908, 81.042 71.845 C 86.076 67.056, 87.719 66.983, 88.568 71.511 C 89.533 76.653, 91 76.800, 91 71.755 C 91 68.599, 90.186 66.162, 88.056 62.946 C 81.955 53.733, 81.172 53.499, 69.710 57.470 M 88.418 58.304 C 93.743 65.285, 95.477 73.446, 92.530 77.654 C 91.200 79.552, 91.374 80.693, 94.349 89.567 C 96.159 94.964, 98.175 99.558, 98.830 99.777 C 100.463 100.321, 113.232 90.716, 117.494 85.736 C 121.819 80.684, 122.827 76.191, 120.450 72.564 C 118.176 69.093, 112.815 66.061, 100 60.997 C 94.225 58.715, 89.073 56.432, 88.550 55.924 C 86.226 53.664, 86.135 55.310, 88.418 58.304 M 82.174 74.314 C 78.518 78.207, 79.540 79.652, 85.500 79.017 C 88.180 78.732, 88.165 78.772, 86.907 75.162 C 85.590 71.386, 85.021 71.284, 82.174 74.314 M 109.100 96.562 C 104.480 100.103, 100.291 103, 99.791 103 C 99.291 103, 99.140 103.417, 99.454 103.926 C 100.133 105.024, 111.077 104.136, 112.452 102.871 C 113.181 102.201, 118.197 89.777, 117.624 90.062 C 117.556 90.096, 113.720 93.021, 109.100 96.562 M 105.750 106.735 C 103.138 106.941, 101 107.323, 101 107.583 C 101 107.844, 102.412 110.854, 104.138 114.273 C 107.614 121.159, 107.351 121.294, 110.381 111.089 C 111.212 108.290, 111.579 106.081, 111.196 106.180 C 110.813 106.279, 108.362 106.529, 105.750 106.735 M 46.332 108.959 C 42.587 109.851, 34.909 114.200, 32.985 116.519 C 31.058 118.840, 32.637 119.581, 42.411 120.948 C 59.850 123.385, 67.745 125.192, 73.825 128.136 C 80.165 131.206, 83.988 135.415, 83.996 139.331 C 83.999 140.623, 85.459 139.565, 88.963 135.730 C 91.693 132.744, 96.402 128.390, 99.428 126.055 L 104.930 121.811 101.452 114.905 L 97.975 108 73.737 108.102 C 60.407 108.159, 48.074 108.544, 46.332 108.959 M 107.452 134.541 C 106.313 143.655, 107.315 151.027, 109.988 153.191 C 111.250 154.214, 112.107 155.211, 111.892 155.407 C 111.676 155.604, 107.606 156.944, 102.846 158.385 C 75.219 166.752, 57.840 184.083, 77.184 183.976 C 86.046 183.928, 97.821 177.272, 109.393 165.771 C 116.259 158.948, 116.295 158.928, 118.393 160.825 C 128.339 169.815, 174 185.526, 174 179.957 C 174 178.359, 165.267 169.381, 158.530 164.054 C 155.213 161.431, 147.100 156.242, 140.500 152.523 C 125.361 143.991, 116.905 138.009, 112.848 132.960 C 111.097 130.782, 109.323 129, 108.905 129 C 108.486 129, 107.832 131.494, 107.452 134.541" stroke="none" fill="black" fill-rule="evenodd"/>
</svg>