<svg xmlns="http://www.w3.org/2000/svg" width="200" height="200" viewBox="0 0 200 200" version="1.1">
	<path d="M 99.500 10.544 C 87.400 11.802, 64.225 13.835, 48 15.062 C 21.354 17.077, 15.570 17.903, 17.137 19.470 C 17.414 19.747, 23.580 20.275, 30.839 20.642 C 45.170 21.367, 44.418 20.979, 42.326 26.568 C 41.595 28.520, 46.038 32.916, 49.795 33.960 C 59.259 36.588, 80.171 34.273, 84.305 30.139 C 86.276 28.169, 86.292 27.980, 84.637 26.151 C 82.502 23.792, 76.860 22.158, 65.322 20.555 L 56.500 19.329 64.500 18.415 C 68.900 17.912, 81.725 17.500, 93 17.500 C 111.586 17.500, 114.181 17.714, 120.798 19.793 C 133.801 23.879, 141.015 33.574, 140.992 46.932 C 140.988 49.444, 139.682 58.250, 138.090 66.500 C 136.497 74.750, 134.388 87.350, 133.402 94.500 C 132.417 101.650, 131.493 107.667, 131.350 107.872 C 130.831 108.614, 115.013 98.788, 115.489 98.018 C 115.758 97.583, 117.558 96.930, 119.489 96.568 C 121.617 96.169, 123 95.329, 123 94.436 C 123 92.927, 121.017 93.063, 114.848 94.996 C 112.520 95.726, 111.811 95.349, 109.044 91.906 C 107.311 89.749, 103.442 86.173, 100.446 83.960 C 96.044 80.708, 95 79.385, 95 77.058 C 95 75.474, 94.106 71.326, 93.013 67.839 C 91.920 64.353, 91.020 61.163, 91.013 60.750 C 91.006 60.337, 92.984 60, 95.409 60 L 99.819 60 104.603 46.927 C 109.437 33.715, 111.306 29.973, 112.481 31.148 C 113.940 32.607, 116.064 43.455, 118.030 59.486 C 120.828 82.305, 120.946 83, 122.045 83 C 123.392 83, 123.235 77.372, 121.485 62.970 C 118.343 37.118, 115.869 28, 111.997 28 C 109.278 28, 107.651 30.876, 102.617 44.576 L 98.236 56.500 93.906 56.500 C 89.722 56.500, 89.545 56.372, 88.684 52.731 C 87.498 47.716, 88.511 44.180, 91.528 42.805 C 92.887 42.186, 94 41.006, 94 40.184 C 94 37.214, 53.731 40.075, 42.594 43.837 C 26.742 49.191, 39.802 55.384, 73 58.255 L 87.500 59.509 89.677 66.005 C 91.612 71.778, 92.631 78, 91.641 78 C 91.443 78, 87.873 76.425, 83.706 74.500 C 78.618 72.149, 74.352 69.221, 70.715 65.585 C 61.195 56.064, 52.976 55.575, 44.789 64.041 C 39.392 69.622, 35.851 76.091, 31.950 87.500 C 30.015 93.156, 29.549 95.687, 30.357 96.136 C 31.948 97.022, 47.391 99, 52.718 99 C 55.397 99, 56.876 99.391, 56.500 100 C 56.160 100.550, 53.942 101, 51.572 101 C 45.097 101, 29.817 103.890, 27.189 105.612 C 25.918 106.445, 25.018 107.885, 25.189 108.813 C 25.593 111.002, 32.543 114.301, 41.438 116.524 C 47.288 117.987, 48.843 118.823, 50.500 121.395 C 51.600 123.103, 54.508 125.512, 56.962 126.750 C 64.926 130.766, 84.588 129.312, 95.146 123.926 L 99.228 121.843 105.364 125.169 C 110.991 128.220, 112.230 128.496, 120.291 128.498 C 129.079 128.500, 129.082 128.501, 128.791 131 C 128.506 133.448, 128.349 133.493, 121.181 133.157 C 109.276 132.599, 107.886 135.427, 112.613 150.587 C 115.569 160.070, 115.278 163.564, 111.407 165.035 C 107.684 166.451, 97.615 166.067, 88.603 164.166 L 80.707 162.500 77.553 153 C 74.084 142.551, 72.946 140.104, 69.276 135.188 C 62.410 125.991, 54.145 131.315, 52.422 146.045 C 51.099 157.348, 56.545 172.053, 64.434 178.480 C 74.548 186.718, 85.774 187.759, 114.500 183.121 C 124.950 181.434, 137.817 179.549, 143.094 178.934 C 152.899 177.790, 172.703 178.108, 176.750 179.474 C 180.993 180.906, 179.113 177.950, 170.833 170.172 C 160.592 160.551, 157 155.689, 157 151.445 C 157 148.549, 157.597 147.854, 162.421 145.131 C 165.403 143.449, 168.126 141.178, 168.473 140.086 C 169.880 135.651, 163.927 129.342, 149.187 119.651 C 142.943 115.545, 142.883 115.462, 143.687 112 C 144.134 110.075, 144.364 95.450, 144.199 79.500 C 143.963 56.864, 144.202 49.529, 145.286 46.077 L 146.675 41.654 147.843 46.293 C 148.792 50.058, 148.706 52.681, 147.389 60.216 C 142.990 85.387, 152.918 123, 163.961 123 C 165.768 123, 169.123 119.779, 170.731 116.500 C 173.620 110.610, 175.171 96.335, 176.653 62 C 177.423 44.178, 172.495 23.649, 165.854 17.008 C 160.703 11.857, 156.053 13.476, 151.104 22.142 L 148.248 27.142 147.539 19.577 C 146.543 8.939, 145.176 7.956, 131.615 8.128 C 126.052 8.199, 111.600 9.286, 99.500 10.544 M 132 10.676 C 130.075 10.827, 121.750 11.498, 113.500 12.167 L 98.500 13.382 108 14.593 C 128.248 17.174, 137.655 23.164, 142.105 36.310 C 143.745 41.153, 143.749 41.157, 144.667 38.331 C 146.080 33.983, 144.794 14.346, 142.985 12.648 C 141.273 11.042, 137.029 10.280, 132 10.676 M 155.622 20.251 C 152.100 24.869, 149 32.564, 149 36.689 C 149 38.626, 149.668 42.787, 150.483 45.936 C 151.790 50.978, 151.792 52.484, 150.501 58.580 C 146.701 76.516, 150.905 104.666, 159.065 115.931 C 163.845 122.530, 166.994 120.949, 169.887 110.500 C 171.372 105.132, 174.431 67.518, 174.196 57.500 C 173.855 42.943, 169.874 26.844, 164.880 19.832 C 162.129 15.967, 158.773 16.119, 155.622 20.251 M 45.799 24.542 C 44.039 28.405, 47.100 30.883, 55.009 32.001 C 64.611 33.359, 82 30.815, 82 28.053 C 82 25.942, 61.653 22, 50.755 22 C 47.657 22, 46.743 22.469, 45.799 24.542 M 62.145 43.042 C 51.334 44.175, 42.344 46.026, 40.299 47.539 C 38.646 48.761, 38.811 49, 42.323 50.479 C 46.560 52.262, 61.282 54.562, 76.283 55.785 L 86.067 56.582 85.812 51.541 C 85.672 48.768, 85.912 45.487, 86.346 44.250 C 87.127 42.021, 87.052 42.001, 78.317 42.136 C 73.468 42.210, 66.190 42.618, 62.145 43.042 M 47.745 64.881 C 45.290 67.144, 41.918 71.584, 40.252 74.748 C 36.736 81.426, 32.481 92.815, 33.225 93.558 C 35.836 96.169, 71.006 97.400, 79.620 95.181 C 85.834 93.581, 90.732 89.632, 91.959 85.234 C 92.851 82.034, 92.768 81.916, 87.872 79.435 C 85.124 78.043, 81.771 76.483, 80.421 75.970 C 77.981 75.042, 77.976 75.053, 79.484 77.969 C 81.397 81.668, 81.420 84, 79.544 84 C 78.259 84, 71.288 73.244, 69.728 68.856 C 68.576 65.615, 62.099 61.716, 57.063 61.232 C 52.494 60.793, 51.948 61.007, 47.745 64.881 M 139.687 72 C 139.239 74.475, 137.759 83.910, 136.398 92.966 L 133.922 109.433 136.211 111.193 C 137.470 112.161, 138.950 112.817, 139.500 112.650 C 141.713 111.982, 142.235 104.702, 141.383 86.428 C 140.696 71.694, 140.320 68.497, 139.687 72 M 94.137 87.498 C 92.638 91.643, 87.712 95.660, 81.778 97.576 C 77.806 98.858, 78.357 98.914, 89.500 98.355 C 96.100 98.024, 103.300 97.426, 105.500 97.026 L 109.500 96.299 103.179 90.149 C 99.703 86.767, 96.531 84, 96.130 84 C 95.730 84, 94.833 85.574, 94.137 87.498 M 103.113 103.033 C 98.511 106.367, 96.675 109.859, 97.596 113.528 C 98.733 118.057, 100.495 118.382, 104.559 114.814 C 108.555 111.305, 111 106.643, 111 102.532 C 111 99.062, 108.363 99.230, 103.113 103.033 M 80 101.666 C 51.545 103.669, 44.498 104.307, 37.665 105.500 C 33.291 106.263, 29.267 107.333, 28.724 107.876 C 27.479 109.121, 32.676 111.358, 42.907 113.979 C 47.068 115.045, 50.663 116.498, 50.897 117.208 C 52.098 120.863, 57.766 124.810, 63.534 126.008 C 70.775 127.512, 84.333 125.659, 92.777 122.011 C 97.948 119.776, 98.023 119.684, 96.527 117.401 C 94.097 113.692, 94.578 107.655, 97.589 104.077 L 100.178 101 92.339 101.175 C 88.028 101.271, 82.475 101.492, 80 101.666 M 113.055 106.695 C 112.225 109.993, 110.552 112.711, 107.436 115.827 C 104.996 118.267, 103 120.450, 103 120.678 C 103 120.906, 105.362 122.192, 108.250 123.536 C 114.159 126.287, 125.391 126.971, 128.197 124.750 C 129.161 123.987, 130.028 121.125, 130.421 117.404 L 131.065 111.307 123.055 106.654 C 118.650 104.094, 114.864 102, 114.642 102 C 114.419 102, 113.705 104.113, 113.055 106.695 M 133.550 114.215 C 133.323 114.922, 132.975 117.153, 132.778 119.173 C 132.470 122.329, 132.652 122.722, 134.068 121.964 C 134.975 121.478, 136.439 119.979, 137.322 118.632 C 138.852 116.296, 138.811 116.106, 136.445 114.556 C 134.523 113.297, 133.871 113.220, 133.550 114.215 M 137.621 122.001 C 135.487 124.200, 133.382 126, 132.942 126 C 132.503 126, 131.832 128.494, 131.451 131.543 L 130.759 137.086 126.129 136.312 C 119.262 135.162, 115.110 135.461, 113.338 137.233 C 111.899 138.673, 112.038 139.733, 114.904 149.185 C 117.562 157.947, 117.880 160.045, 116.956 162.698 C 115.558 166.708, 110.848 169, 104.006 169 C 99.583 169, 79.145 165.479, 78.225 164.558 C 78.055 164.388, 76.998 160.872, 75.876 156.745 C 74.754 152.617, 72.410 146.413, 70.668 142.956 C 64.696 131.110, 59.427 130.285, 56.393 140.722 C 52.882 152.799, 57.019 168.325, 65.809 176.063 C 74.409 183.633, 86.436 184.762, 113 180.491 C 136.964 176.638, 151.568 175, 161.941 175 L 171.442 175 165.313 168.750 C 153.358 156.560, 151.223 150.515, 157.120 145.553 C 158.836 144.109, 161.536 142.257, 163.120 141.438 C 167.063 139.399, 166.741 137.363, 161.718 132.579 C 158.118 129.150, 142.909 117.998, 141.837 118.001 C 141.651 118.001, 139.754 119.801, 137.621 122.001" stroke="none" fill="black" fill-rule="evenodd"/>
</svg>