<svg xmlns="http://www.w3.org/2000/svg" width="200" height="200" viewBox="0 0 200 200" version="1.1">
	<path d="M 136 8.827 C 136 9.282, 126.438 10.224, 114.750 10.920 C 73.567 13.372, 60.888 14.566, 59.928 16.082 C 56.181 22.002, 64.712 28.962, 80.741 33.062 C 93.218 36.253, 98.941 35.618, 107.541 30.091 C 109.348 28.930, 111.163 29.503, 123.317 35.062 C 130.871 38.518, 136.898 41.830, 136.710 42.422 C 135.990 44.687, 125.376 47.109, 112.091 48.040 C 104.616 48.563, 86.217 49.106, 71.205 49.246 L 43.911 49.500 43.344 47.237 C 42.600 44.269, 44.376 42.268, 48.858 41.023 C 50.936 40.445, 65.287 40.009, 82.282 40.006 C 106.017 40.001, 112.768 39.706, 115.532 38.551 C 119.408 36.932, 120.407 34.360, 116.750 35.417 C 109.737 37.444, 101.455 37.861, 79.173 37.312 C 57.831 36.785, 53.725 36.929, 48.756 38.378 C 41.259 40.563, 39.123 43.429, 41.122 48.618 L 42.500 52.196 59.500 52.084 L 76.500 51.971 71.500 54.350 C 56.421 61.526, 47.108 78.823, 53.559 87.675 C 56.206 91.308, 62.990 94.763, 68.876 95.474 C 71.419 95.782, 77.431 96.984, 82.236 98.146 C 88.777 99.728, 92.986 100.142, 98.986 99.795 C 103.394 99.540, 107 99.639, 107 100.016 C 107 101.185, 89.723 102, 64.923 102 L 41.153 102 38.206 104.480 C 36.586 105.844, 34.689 108.336, 33.992 110.019 C 32.856 112.761, 32.950 113.318, 34.898 115.392 C 37.671 118.343, 41.479 119.444, 57.500 121.924 C 72.005 124.169, 76.146 125.210, 79.623 127.488 C 82.950 129.668, 82.604 131.995, 78.053 138.052 C 73.584 143.999, 72.437 149.139, 72.594 162.500 C 72.665 168.475, 73.210 171.513, 74.747 174.500 C 80.615 185.903, 89.140 188.144, 116.500 185.477 C 128.494 184.308, 137.242 184.020, 146.207 184.498 C 158.162 185.136, 159.148 185.045, 162.868 182.954 C 165.043 181.732, 167.788 179.425, 168.969 177.828 C 177.841 165.828, 175.937 142.808, 164.921 128.901 C 159.285 121.785, 148.685 117.202, 140.903 118.516 L 137.228 119.137 140.614 124.169 C 145.653 131.657, 144.920 136.882, 138.452 139.585 C 133.765 141.543, 126.113 141.459, 125.339 139.441 C 124.745 137.894, 127.415 115.252, 128.295 114.372 C 128.547 114.120, 132.097 114.328, 136.183 114.836 C 144.248 115.837, 153.425 114.866, 157.935 112.534 C 162.323 110.264, 167.586 103.699, 170.081 97.381 C 172.151 92.138, 172.424 89.657, 172.599 74.500 C 172.706 65.150, 173.248 54.457, 173.802 50.737 C 176.403 33.276, 169.097 13.667, 159.991 13.667 C 156.026 13.667, 150.753 18.671, 147.042 25.954 C 143.890 32.141, 144.320 32.720, 140.949 17.750 C 139.474 11.201, 138.301 8, 137.377 8 C 136.620 8, 136 8.372, 136 8.827 M 108.500 14.041 C 95.300 15.014, 84.275 15.899, 84 16.008 C 83.725 16.117, 87.861 16.801, 93.190 17.528 C 104.133 19.020, 109.771 21.241, 110.557 24.369 C 110.959 25.965, 114.403 28, 124.267 32.470 C 131.512 35.754, 138.212 39.212, 139.155 40.155 C 140.775 41.775, 140.905 41.707, 141.514 38.935 C 142.194 35.840, 142.027 34.704, 138.835 20.750 C 137.053 12.961, 136.595 12.015, 134.667 12.136 C 133.475 12.210, 121.700 13.068, 108.500 14.041 M 156.330 17.941 C 154.099 19.300, 151.955 22.338, 149.097 28.187 L 145.034 36.500 146.597 47 C 147.456 52.775, 148.207 63.920, 148.266 71.767 L 148.372 86.035 144.441 90.061 C 142.278 92.275, 138.177 95.190, 135.327 96.538 C 130.189 98.969, 130.139 99.037, 129.452 104.541 C 129.070 107.594, 128.993 110.326, 129.279 110.613 C 130.850 112.183, 144.462 113.183, 149.765 112.118 C 164.981 109.063, 170.897 97.080, 169.727 71.686 C 169.304 62.504, 169.543 58.042, 170.700 53.526 C 173.513 42.547, 170.299 25.053, 164.324 18.816 C 161.128 15.480, 160.481 15.409, 156.330 17.941 M 62 19.189 C 62 22.273, 70.344 27.671, 78.506 29.866 C 80.703 30.456, 85.597 31.378, 89.382 31.913 C 95.484 32.776, 96.759 32.653, 100.644 30.827 C 103.054 29.694, 105.245 28.413, 105.513 27.979 C 105.997 27.196, 93.073 22.150, 85.462 20.150 C 83.283 19.578, 77.112 18.798, 71.750 18.418 C 63.545 17.836, 62 17.958, 62 19.189 M 102.441 23.023 C 105.158 24.084, 107.540 24.794, 107.732 24.601 C 108.210 24.124, 100.267 20.988, 98.730 21.047 C 98.053 21.073, 99.723 21.962, 102.441 23.023 M 139 43.618 C 139 46.640, 123.840 50.884, 112.751 50.965 L 108.002 51 111.958 55.076 C 116.876 60.144, 120.002 68.199, 119.994 75.788 C 119.986 84.141, 118.407 88.540, 113.624 93.532 C 107.675 99.741, 108.734 100.739, 119.070 98.666 C 123.609 97.756, 127.414 96.896, 127.526 96.755 C 127.638 96.615, 129.197 89.075, 130.990 80 C 132.784 70.925, 135.510 59.003, 137.050 53.508 C 138.589 48.012, 139.658 43.324, 139.424 43.091 C 139.191 42.858, 139 43.095, 139 43.618 M 138.176 60.750 C 133.770 78.692, 130.714 94.047, 131.410 94.743 C 132.167 95.501, 138.977 91.823, 141.938 89.058 C 144.201 86.944, 144.964 85.137, 145.541 80.522 C 146.529 72.614, 144.540 44, 143.002 44 C 142.610 44, 140.439 51.537, 138.176 60.750 M 92.712 52.793 C 91.108 53.474, 91.237 53.853, 93.959 56.461 C 97.591 59.940, 100.528 67.332, 101.531 75.518 C 101.935 78.808, 103.640 84.593, 105.322 88.374 L 108.379 95.248 112.088 91.272 C 120.772 81.961, 118.496 62.474, 107.838 54.884 C 104.531 52.530, 96.079 51.361, 92.712 52.793 M 75.882 55.330 C 63.533 59.917, 52.918 72.947, 54.349 81.763 C 55.413 88.318, 59.959 91.373, 71.154 93.057 C 75.194 93.665, 80.750 94.776, 83.500 95.525 C 91.838 97.796, 103.721 97.891, 104.564 95.693 C 104.840 94.974, 103.878 91.791, 102.426 88.619 L 99.786 82.853 97.578 84.926 C 91.548 90.592, 83.585 83.068, 82.285 70.476 C 80.867 56.729, 86.915 55.580, 94.658 68.126 C 96.653 71.357, 98.421 74, 98.588 74 C 99.386 74, 95.663 63.206, 94.125 61.062 C 89.792 55.020, 82.708 52.794, 75.882 55.330 M 85 67.532 C 85 75.772, 88.997 84, 93 84 C 93.930 84, 95.500 83.105, 96.490 82.011 C 98.229 80.090, 98.209 79.869, 95.895 75.505 C 92.692 69.463, 87.218 62, 85.990 62 C 85.446 62, 85 64.489, 85 67.532 M 118.685 101.528 C 112.277 102.925, 111.160 103.560, 112.594 104.994 C 113.574 105.974, 125.130 110.212, 125.571 109.753 C 125.704 109.614, 126.131 107.362, 126.520 104.750 C 127.319 99.381, 127.739 99.554, 118.685 101.528 M 97 104.050 C 91.775 104.449, 77.078 104.827, 64.339 104.888 L 41.178 105 38.589 108.077 C 33.055 114.653, 34.988 115.551, 65.103 120.393 C 84.022 123.435, 89.034 129.198, 80.858 138.509 C 77.172 142.707, 76.131 146.210, 75.365 157 C 74.638 167.231, 75.911 172.690, 80.148 177.516 C 84.875 182.900, 91.531 184.440, 106.434 183.597 C 113.023 183.225, 118.569 182.764, 118.760 182.573 C 118.951 182.383, 115.963 179.138, 112.121 175.363 C 100.807 164.249, 101.474 158.532, 114.365 156.124 C 116.965 155.638, 119.324 155.009, 119.608 154.726 C 119.891 154.442, 120.383 151.688, 120.701 148.605 C 121.228 143.506, 121.103 143, 119.318 143 C 112.099 143, 101.010 135.591, 98.968 129.402 C 97.351 124.504, 99.888 118.060, 105.731 112.216 C 109.266 108.681, 110.041 107.301, 109.562 105.392 C 109.232 104.077, 108.408 103.073, 107.731 103.162 C 107.054 103.251, 102.225 103.650, 97 104.050 M 116.722 115.913 C 118.103 119.536, 119.942 124.525, 120.811 127 L 122.389 131.500 123.131 128 C 123.539 126.075, 124.163 121.800, 124.517 118.500 L 125.162 112.500 119.687 110.913 L 114.212 109.325 116.722 115.913 M 107.789 113.750 C 103.796 117.998, 101.008 123.204, 101.004 126.421 C 100.998 130.889, 108.085 137.177, 115.506 139.288 C 118.734 140.206, 121.588 140.745, 121.848 140.485 C 122.884 139.450, 112.526 111, 111.113 111 C 110.707 111, 109.211 112.237, 107.789 113.750 M 144.572 125.543 C 147.302 130.936, 147.514 132.778, 145.828 136.478 C 144.148 140.165, 138.874 143.054, 132.650 143.697 L 127.265 144.252 128.320 147.692 C 129.608 151.887, 130.363 152.302, 140.750 154.524 C 146.349 155.722, 149 156.743, 149 157.699 C 149 158.877, 146.799 158.995, 135.650 158.417 L 122.301 157.725 121.630 165.612 C 121.261 169.951, 120.699 175.367, 120.381 177.650 L 119.803 181.800 135.151 181.853 C 143.593 181.883, 152.384 181.986, 154.686 182.083 C 160.878 182.342, 164.957 179.563, 168.363 172.763 C 172.022 165.458, 172.782 156.990, 170.608 147.729 C 166.956 132.170, 158.604 123.004, 146.575 121.355 L 142.144 120.748 144.572 125.543 M 123.509 149.296 C 122.675 154.627, 122.954 155.311, 125.762 154.831 C 127.641 154.509, 127.647 154.360, 125.977 149.500 L 124.260 144.500 123.509 149.296 M 113.139 158.999 C 105.402 160.827, 105.276 165.110, 112.742 172.489 C 116.587 176.289, 117.549 176.837, 117.758 175.345 C 117.900 174.330, 118.377 170.012, 118.817 165.750 C 119.703 157.192, 119.882 157.406, 113.139 158.999" stroke="none" fill="black" fill-rule="evenodd"/>
</svg>