<svg xmlns="http://www.w3.org/2000/svg" width="200" height="200" viewBox="0 0 200 200" version="1.1">
	<path d="M 97.630 2.250 C 97.299 3.488, 97.021 5.790, 97.014 7.367 C 97.001 9.984, 96.761 10.176, 94.250 9.578 C 92.737 9.217, 87.188 8.658, 81.919 8.336 C 70.728 7.650, 68 8.551, 68 12.932 C 68 18.211, 78.298 24.959, 93.517 29.654 L 99.500 31.500 73.500 32.012 C 50.183 32.472, 47.087 32.730, 43.500 34.512 C 41.300 35.605, 39.361 37.256, 39.190 38.181 C 38.515 41.841, 52.804 53.744, 54.527 50.956 C 54.897 50.357, 55.043 49.775, 54.850 49.664 C 50.186 46.955, 43.013 41.476, 42.549 40.267 C 40.913 36.005, 46.923 35.052, 75.633 35.024 L 99.767 35 100.370 37.250 C 101.980 43.258, 101.585 43.657, 93.349 44.353 C 89.141 44.709, 81.941 45, 77.349 45 C 70.594 45, 69 45.286, 69 46.500 C 69 47.592, 70.157 48.011, 73.250 48.040 L 77.500 48.080 74.500 49.665 C 67.769 53.222, 64 59.180, 64 66.264 C 64 75.835, 73.518 87.682, 84.798 92.151 C 89.370 93.963, 92.531 94.419, 100.749 94.455 C 110.129 94.496, 110.998 94.661, 110.999 96.397 C 111 98.144, 110.419 98.244, 103.627 97.670 C 99.572 97.327, 94.959 96.513, 93.377 95.861 C 86.428 92.997, 43.703 93.842, 30.500 97.105 C 21.355 99.365, 18.228 102.160, 21.046 105.556 C 22.878 107.763, 36.886 111.733, 52 114.328 L 65.500 116.646 60.082 117.380 C 50.584 118.666, 43.995 122.365, 44.005 126.405 C 44.012 129.335, 47.366 133.105, 55.417 139.234 C 59.222 142.130, 62.522 145.063, 62.751 145.750 C 63.059 146.676, 61.219 147, 55.651 147 C 48.589 147, 48.019 147.166, 46.199 149.750 C 41.644 156.214, 39.625 161.520, 39.562 167.182 C 39.508 172.148, 39.870 173.250, 42.434 175.929 C 48.090 181.837, 57.377 183.844, 89 185.992 C 97.525 186.571, 107.200 187.760, 110.500 188.634 C 122.782 191.888, 134.041 191.049, 145.765 186.006 C 153.325 182.753, 156.500 178.939, 156.500 173.106 C 156.500 166.672, 152.920 162.048, 145.053 158.320 C 136.403 154.222, 136.981 152.544, 146.763 153.360 C 154.033 153.966, 154.778 153.840, 158.513 151.364 C 172.105 142.354, 170.866 138.259, 154.863 139.296 L 146.101 139.864 147.052 137.364 C 147.574 135.990, 148.536 133.883, 149.189 132.683 C 149.843 131.482, 152.272 125.807, 154.587 120.070 L 158.797 109.640 167.421 105.924 C 177.630 101.525, 179 100.516, 179 97.398 C 179 93.089, 168.872 89.606, 144.523 85.544 C 139.036 84.629, 134.413 83.746, 134.250 83.583 C 134.087 83.420, 135.083 81.310, 136.465 78.893 C 142.169 68.914, 137.876 60.626, 122.228 51.406 C 118.778 49.374, 116.147 47.520, 116.380 47.286 C 116.614 47.053, 122.705 46.443, 129.916 45.932 C 150.953 44.440, 157.406 42.343, 156.810 37.191 C 156.400 33.640, 150.037 29.869, 131.880 22.416 L 117.942 16.694 113.811 8.754 C 109.994 1.416, 107.767 -1.100, 106.348 0.319 C 106.037 0.630, 106.672 2.148, 107.760 3.692 C 110.645 7.786, 114.166 15.002, 113.270 14.985 C 112.847 14.977, 109.800 14.125, 106.500 13.092 L 100.500 11.214 100.500 5.605 C 100.500 -0.142, 98.803 -2.126, 97.630 2.250 M 73.500 10.713 C 69.548 11.664, 69.602 12.931, 73.760 16.887 C 77.562 20.503, 88.093 25.479, 96.306 27.541 L 99.080 28.237 98.414 21.368 C 98.048 17.591, 97.419 14.136, 97.016 13.691 C 96.152 12.739, 81.621 10.033, 78 10.151 C 76.625 10.196, 74.600 10.448, 73.500 10.713 M 101.242 21.138 C 101.548 25.422, 102.268 28.548, 103.061 29.038 C 104.805 30.115, 120.855 32.479, 121.570 31.763 C 121.879 31.455, 120.768 28.503, 119.103 25.204 C 116.084 19.224, 116.052 19.198, 108.405 16.627 L 100.735 14.048 101.242 21.138 M 122.456 25.913 C 124.988 30.910, 125.115 31, 129.600 31 C 132.806 31, 134.044 31.372, 133.755 32.250 C 133.529 32.938, 132.254 33.635, 130.922 33.799 C 129.590 33.964, 127.825 34.346, 127 34.648 C 126.175 34.951, 122.575 35.331, 119 35.494 C 112.187 35.803, 105.184 37.798, 104.935 39.500 C 104.855 40.050, 105.964 41.377, 107.401 42.450 C 109.904 44.318, 110.732 44.351, 127.256 43.230 C 149.304 41.734, 156.732 39.792, 153.822 36.286 C 151.874 33.939, 131.368 24.381, 122.189 21.541 L 119.878 20.827 122.456 25.913 M 103 36.059 C 103 36.641, 103.450 36.840, 104 36.500 C 104.550 36.160, 105 35.684, 105 35.441 C 105 35.198, 104.550 35, 104 35 C 103.450 35, 103 35.477, 103 36.059 M 105.421 51.250 C 105.792 53.587, 106.784 57.869, 107.623 60.764 C 108.992 65.483, 109.788 66.458, 115.325 70.191 C 118.721 72.481, 123.477 75.850, 125.894 77.677 C 128.310 79.505, 130.680 81, 131.159 81 C 132.808 81, 135.993 74.494, 135.996 71.118 C 135.998 69.258, 135.106 66.290, 134.014 64.523 C 130.875 59.443, 111.692 47, 107 47 C 104.907 47, 104.793 47.306, 105.421 51.250 M 79.248 50.880 C 70.694 53.835, 66.983 58.486, 67.022 66.200 C 67.052 72.153, 69.861 77.732, 75.379 82.799 C 82.506 89.342, 87.682 91.239, 99.888 91.778 L 110.276 92.237 109.686 89.869 C 109.361 88.566, 108.799 85.634, 108.436 83.353 C 107.886 79.891, 107.337 79.117, 105.112 78.672 C 101.202 77.890, 97.664 74.728, 94.926 69.566 C 93.011 65.956, 92.741 64.641, 93.630 63.253 C 94.818 61.400, 97.920 61.089, 101.902 62.425 C 104.250 63.213, 104.290 63.132, 103.696 58.796 C 103.361 56.357, 102.629 53.155, 102.069 51.680 C 101.075 49.067, 100.842 49.001, 92.775 49.033 C 87.456 49.054, 82.624 49.713, 79.248 50.880 M 96 65.159 C 96 67.208, 100.731 73.786, 103.126 75.068 C 105.870 76.536, 106.904 75.261, 106.271 71.193 C 105.729 67.709, 103.367 65.594, 98.750 64.459 C 96.755 63.969, 96 64.161, 96 65.159 M 110 73.891 C 110 77.432, 111.410 86.257, 112.534 89.748 C 112.835 90.682, 114.390 90.455, 118.718 88.844 C 121.898 87.660, 125.554 86.006, 126.843 85.170 L 129.185 83.648 126.843 81.827 C 125.554 80.826, 121.237 77.728, 117.250 74.943 L 110 69.880 110 73.891 M 128.014 87.489 C 126.186 88.839, 122.397 90.690, 119.595 91.604 C 113.065 93.735, 112.982 93.789, 113.651 95.532 C 114.465 97.655, 116.988 97.395, 132.553 93.589 C 140.224 91.713, 147.625 90.020, 149 89.826 C 150.375 89.632, 147.450 88.863, 142.500 88.117 C 137.550 87.371, 133.014 86.373, 132.420 85.899 C 131.762 85.374, 130.038 85.996, 128.014 87.489 M 159.088 92.606 C 159.915 93.603, 160.360 96.439, 160.259 100.073 L 160.097 105.933 165.139 103.945 C 171.648 101.380, 175.721 99.260, 176.469 98.050 C 177.277 96.742, 172.685 94.491, 165.311 92.581 C 157.750 90.621, 157.442 90.623, 159.088 92.606 M 136 95.550 C 130.775 96.880, 123.912 98.485, 120.750 99.115 C 117.588 99.745, 115 100.661, 115 101.151 C 115 101.641, 116.565 109.345, 118.479 118.271 C 121.628 132.966, 122.244 134.760, 124.994 137.250 C 130.626 142.349, 132.476 140.521, 134.021 128.331 C 135.244 118.692, 137.298 116.239, 148.657 110.856 L 156.814 106.991 157.489 102.083 C 158.496 94.755, 157.166 92.985, 150.715 93.065 C 147.847 93.100, 141.225 94.219, 136 95.550 M 59.500 96.732 C 41.199 97.370, 22.447 100.772, 23.249 103.308 C 24.137 106.116, 52.119 112.420, 73.354 114.595 C 83.772 115.663, 83.508 118.949, 73 118.992 C 65.806 119.022, 55.883 120.663, 50.943 122.640 C 47.961 123.833, 47 124.775, 47 126.505 C 47 128.909, 49.229 131.126, 59.812 139.249 C 69.225 146.473, 67.480 150.445, 55.146 149.874 C 49.033 149.591, 48.401 150.098, 44.400 158.500 C 41.413 164.774, 41.266 170.835, 44.029 173.801 C 48.957 179.091, 55.393 180.601, 81.220 182.525 C 102.690 184.125, 110.513 185.211, 116.976 187.492 C 121.124 188.955, 127.950 188.419, 138 185.840 C 152.100 182.222, 157.566 174.365, 151.508 166.422 C 148.350 162.281, 138.567 157.284, 136.682 158.849 C 135.464 159.860, 131.896 167.155, 130.586 171.313 C 129.609 174.413, 128.288 172.304, 126.482 164.759 C 125.526 160.767, 124.388 157.108, 123.951 156.629 C 122.594 155.138, 110.838 157.815, 104 161.171 C 99.863 163.202, 94.874 166.935, 90.277 171.438 L 83.054 178.515 80.582 176.714 C 77.257 174.292, 74 168.846, 74 165.709 C 74 162.006, 78.929 157.611, 85.344 155.593 C 93.099 153.154, 105.426 151.078, 112.500 151.021 C 121.497 150.948, 122.926 150.372, 122.071 147.162 C 121.396 144.625, 120.979 144.471, 113.213 143.889 C 102.326 143.072, 96.791 141.396, 92.373 137.577 C 89.125 134.769, 88.643 133.745, 88.231 128.774 C 87.669 121.992, 89.426 113.993, 92.112 111.110 C 96.547 106.350, 101.977 109.217, 111.463 121.326 C 114.735 125.503, 117.510 128.823, 117.629 128.704 C 117.749 128.584, 116.487 122.190, 114.826 114.493 L 111.805 100.500 105.631 100.414 C 102.235 100.366, 96.316 99.606, 92.478 98.724 C 85.375 97.092, 72.118 96.291, 59.500 96.732 M 95.274 111.831 C 93.230 113.094, 90.987 119.749, 90.738 125.290 C 90.284 135.387, 96.704 140.024, 112.215 140.803 L 120.930 141.241 120.058 138.201 C 118.951 134.344, 103.262 115.060, 99.387 112.795 C 97.783 111.858, 95.932 111.424, 95.274 111.831 M 148.402 113.888 C 139.968 117.876, 137.457 121.199, 136.693 129.387 C 136.354 133.018, 135.573 136.930, 134.957 138.080 C 133.456 140.885, 134.143 141.321, 138.820 140.530 C 142.647 139.884, 142.903 139.585, 146.805 131.181 C 151.625 120.801, 155.203 111.870, 154.731 111.398 C 154.543 111.210, 151.695 112.330, 148.402 113.888 M 146.412 142.684 C 145.262 142.912, 143.604 144.608, 142.719 146.463 C 140.784 150.520, 141.465 151, 149.152 151 C 153.026 151, 155.086 150.349, 158.377 148.084 C 166.471 142.516, 166.336 141.982, 156.872 142.136 C 152.268 142.211, 147.560 142.458, 146.412 142.684 M 130.349 143.738 C 124.208 144.090, 124.198 144.095, 124.917 146.795 C 125.587 149.316, 126.052 149.520, 131.768 149.796 C 137.691 150.083, 137.954 149.991, 139.450 147.096 C 141.464 143.202, 141.421 142.964, 138.750 143.193 C 137.512 143.299, 133.732 143.544, 130.349 143.738 M 115.750 153.662 C 116.438 153.940, 117.563 153.940, 118.250 153.662 C 118.938 153.385, 118.375 153.158, 117 153.158 C 115.625 153.158, 115.063 153.385, 115.750 153.662 M 130.762 153.707 C 132.006 153.946, 133.806 153.937, 134.762 153.687 C 135.718 153.437, 134.700 153.241, 132.500 153.252 C 130.300 153.263, 129.518 153.468, 130.762 153.707 M 96.678 155.593 C 92.376 156.370, 86.620 157.968, 83.888 159.144 C 76.401 162.364, 75.185 165.931, 79.599 171.719 L 82.198 175.127 88.349 169.266 C 95.588 162.370, 100.142 159.442, 108.423 156.363 L 114.500 154.104 109.500 154.142 C 106.750 154.163, 100.980 154.816, 96.678 155.593 M 127.630 158.750 C 129.293 165.600, 129.567 165.769, 131.825 161.343 L 133.931 157.215 131.715 156.621 C 127.550 155.504, 126.921 155.832, 127.630 158.750" stroke="none" fill="black" fill-rule="evenodd"/>
</svg>