<svg xmlns="http://www.w3.org/2000/svg" width="200" height="200" viewBox="0 0 200 200" version="1.1">
	<path d="M 88.500 6.678 C 86.850 7.595, 82.025 8.636, 77.777 8.992 C 65.700 10.006, 63.079 13.761, 69.494 20.862 C 72.924 24.658, 72.964 24.802, 71.647 28.615 L 70.306 32.500 60.903 33.071 C 50.461 33.704, 45.054 35.662, 42.965 39.566 C 41.802 41.738, 41.889 42.375, 43.673 44.770 C 46.152 48.099, 52.559 50.712, 60.250 51.531 L 66 52.144 66 57.201 C 66 61.560, 65.525 62.784, 62.554 66.072 C 55.879 73.460, 55.827 81.690, 62.401 90.303 C 65.244 94.027, 65.811 95.686, 66.171 101.343 L 66.595 108 51.347 108 C 42.960 108, 33.714 108.495, 30.799 109.099 C 25.435 110.212, 17 114.383, 17 115.923 C 17 117.694, 31.886 123.955, 39.920 125.564 C 46.379 126.857, 50.747 127.089, 58.670 126.558 L 69 125.866 69 129.433 C 69 131.395, 68.645 133, 68.212 133 C 65.565 133, 44.185 135.979, 42.701 136.554 C 39.147 137.932, 41.675 140.586, 51.424 145.711 C 69.989 155.471, 75.608 164.284, 72.593 178.915 L 71.339 185 78.022 185 C 85.768 185, 90.049 182.779, 93.446 176.997 C 96.161 172.375, 96.052 160.907, 93.137 144.389 C 90.746 130.837, 90.498 126.428, 92.073 125.455 C 92.663 125.090, 95.405 125.964, 98.165 127.396 C 100.926 128.828, 104.381 130.003, 105.842 130.006 C 110.465 130.015, 115.886 131.999, 117.471 134.261 C 120.961 139.245, 118.492 147.170, 107.313 166.859 C 102.206 175.854, 99 182.611, 99 184.382 C 99 187.171, 99.129 187.246, 103.041 186.721 C 105.263 186.423, 110.252 184.296, 114.126 181.995 L 121.170 177.810 135.047 179.039 C 151.830 180.526, 157.735 180.045, 160.211 176.988 C 163.864 172.476, 162.108 166.224, 152.760 150.463 L 146.806 140.426 140.155 138.105 C 132.851 135.555, 128.547 132.891, 126.968 129.939 C 125.515 127.225, 128.438 121.568, 130.818 122.488 C 131.743 122.846, 135.875 123.839, 140 124.695 C 158.651 128.563, 175 122.549, 175 111.818 C 175 104.758, 169.213 101, 158.342 101 C 154.572 101, 149.926 101.448, 148.017 101.995 C 144.655 102.959, 144.370 102.814, 138.790 97.292 C 133.105 91.666, 133.056 91.569, 134.899 89.547 C 140.215 83.717, 141.513 74.885, 138.050 68.098 C 135.028 62.175, 123 52.147, 123 55.550 C 123 55.853, 125.891 58.890, 129.423 62.300 C 134.068 66.783, 136.139 69.617, 136.903 72.532 C 138.195 77.462, 136.933 82.804, 133.547 86.740 L 131.188 89.483 124.844 83.492 C 119.040 78.010, 118.528 77.192, 118.823 73.879 C 119.321 68.303, 117.297 62.457, 113.460 58.389 C 111.543 56.356, 110.092 54.603, 110.237 54.493 C 110.382 54.383, 112.565 53.102, 115.088 51.646 C 119.211 49.268, 120.686 49, 129.654 49 C 155.504 49, 168.092 41.587, 154.125 34.590 C 151.581 33.316, 147.780 31.716, 145.678 31.035 C 143.577 30.355, 137.869 27.931, 132.994 25.649 C 126.449 22.585, 123.520 20.591, 121.792 18.024 C 118.783 13.553, 110.867 7.576, 106.038 6.130 C 100.508 4.473, 91.992 4.739, 88.500 6.678 M 92.065 8.116 C 89.445 8.907, 88.970 9.369, 90.065 10.061 C 90.854 10.561, 92.281 10.976, 93.235 10.985 C 94.645 10.997, 108.220 15.251, 117.500 18.589 C 121.251 19.938, 113.819 12.976, 108.744 10.387 C 103.139 7.527, 96.849 6.671, 92.065 8.116 M 69.921 13.595 C 68.817 14.925, 68.844 15.631, 70.083 17.838 C 72.300 21.789, 74.416 21.626, 77.107 17.299 C 78.406 15.209, 79.625 13.162, 79.817 12.750 C 80.539 11.200, 71.250 11.993, 69.921 13.595 M 81.676 15.250 C 78.667 19.283, 76.696 23.030, 77.279 23.612 C 79.049 25.383, 91.060 28.222, 102.849 29.657 C 119.021 31.625, 122 31.090, 122 26.218 C 122 23.552, 121.435 23.185, 111.894 19.656 C 103.516 16.558, 87.492 12.034, 84.801 12.007 C 84.416 12.003, 83.010 13.462, 81.676 15.250 M 124.629 28.104 C 124.204 30.229, 123.098 31.489, 120.767 32.502 C 118.970 33.283, 118.152 33.939, 118.948 33.961 C 122.506 34.057, 137 31.519, 137 30.800 C 137 30.360, 136.831 30, 136.624 30 C 136.418 30, 133.769 28.903, 130.737 27.562 L 125.225 25.125 124.629 28.104 M 74.115 29.101 C 73.497 30.874, 73.203 32.536, 73.462 32.795 C 73.721 33.054, 77.661 33.872, 82.217 34.613 C 91.472 36.118, 101.525 36.353, 111.103 35.290 L 117.500 34.579 113 33.847 C 110.525 33.445, 104.414 32.651, 99.420 32.083 C 91.596 31.193, 82.692 29.014, 76.869 26.564 C 75.649 26.050, 74.955 26.690, 74.115 29.101 M 142 33.969 C 142 34.577, 137.838 37.794, 132.750 41.118 L 123.500 47.163 132 46.517 C 148.240 45.283, 157 43.099, 157 40.284 C 157 39.517, 154.637 37.833, 151.750 36.541 C 144.519 33.307, 142 32.642, 142 33.969 M 125.500 36.031 C 107.799 38.949, 93.955 39.469, 83.500 37.608 C 78.550 36.727, 73.975 36.005, 73.333 36.003 C 72.359 36.001, 70 43.818, 70 47.049 C 70 48.572, 75.076 48.157, 83.590 45.940 C 91.787 43.805, 92.379 43.816, 114.054 46.518 C 116.932 46.877, 119.120 46.080, 125.554 42.331 C 133.660 37.608, 138.975 33.914, 137.385 34.108 C 136.898 34.168, 131.550 35.033, 125.500 36.031 M 57 35.940 C 50.890 36.769, 44.992 39.395, 45.015 41.276 C 45.061 44.926, 51.053 47.800, 60.444 48.677 L 66.740 49.265 67.852 42.948 C 68.464 39.474, 68.828 36.494, 68.660 36.326 C 67.807 35.474, 61.880 35.278, 57 35.940 M 84 48.595 C 79.325 49.851, 74.037 50.906, 72.250 50.939 C 69.072 50.999, 69 51.100, 69 55.517 L 69 60.034 73.983 57.509 C 83.732 52.568, 96.028 50.714, 103.955 52.987 C 105.849 53.530, 107.646 53.598, 107.949 53.137 C 108.252 52.676, 109.625 51.693, 111 50.952 C 113.345 49.687, 112.974 49.533, 105 48.452 C 100.325 47.818, 95.600 47.077, 94.500 46.806 C 93.400 46.534, 88.675 47.339, 84 48.595 M 82.500 57.051 C 79.200 58.118, 74.700 60.019, 72.500 61.275 L 68.500 63.561 68.221 78.004 C 67.951 92.003, 68.013 92.504, 70.221 94.260 C 83.853 105.097, 105.773 105.366, 123.877 94.918 L 129.254 91.815 123.408 85.907 C 120.193 82.658, 117.070 80, 116.468 80 C 115.867 80, 114.088 81.342, 112.517 82.982 C 108.184 87.504, 101.902 89.587, 97.012 88.122 C 88.967 85.711, 83 77.865, 83 69.695 C 83 58.805, 94.772 59.324, 110 70.886 C 115.169 74.810, 115.520 74.932, 115.837 72.900 C 116.863 66.312, 113.140 59.876, 106.579 56.896 C 101.137 54.425, 90.413 54.494, 82.500 57.051 M 86.525 66.322 C 82.300 72.769, 91.697 86, 100.500 86 C 103.894 86, 107.814 83.901, 111.332 80.199 L 114.165 77.219 107.832 72.735 C 99.990 67.182, 96.454 65.363, 91.801 64.490 C 88.640 63.898, 87.958 64.134, 86.525 66.322 M 62.273 70.706 C 59.745 74.564, 59.959 81.675, 62.733 86.010 L 64.966 89.500 64.983 78.750 C 64.992 72.838, 64.785 68, 64.523 68 C 64.261 68, 63.248 69.218, 62.273 70.706 M 123.472 98.044 C 113.474 103.569, 105.845 105.295, 93.457 104.837 C 84.217 104.495, 82.644 104.138, 76.147 100.913 L 69 97.365 69 102.536 L 69 107.707 76.651 108.353 C 89.063 109.402, 103.681 109.086, 116.462 107.492 C 123.041 106.671, 131.802 106, 135.931 106 L 143.437 106 137.500 100 C 134.234 96.700, 131.324 94.036, 131.031 94.080 C 130.739 94.124, 127.337 95.908, 123.472 98.044 M 154 103.612 C 146.839 104.795, 144.192 106.016, 144.687 107.910 C 145.058 109.331, 143.538 111.040, 138.518 114.840 L 131.855 119.884 136.178 121.160 C 138.555 121.861, 145.225 122.450, 151 122.468 C 159.702 122.494, 162.185 122.146, 165.500 120.431 C 170.149 118.027, 173.267 112.903, 172.067 109.641 C 170.541 105.493, 161.294 102.408, 154 103.612 M 129 109.034 C 124.325 109.440, 115.550 110.303, 109.500 110.952 C 102.499 111.702, 93.269 111.874, 84.109 111.424 L 69.718 110.717 70.214 115.881 C 70.487 118.720, 70.969 121.302, 71.284 121.617 C 71.599 121.932, 78.527 121.212, 86.678 120.016 C 97.759 118.390, 104.932 117.925, 115.098 118.171 L 128.695 118.500 134.861 114.177 C 140.375 110.310, 142.010 107.737, 138.691 108.147 C 138.036 108.228, 133.675 108.627, 129 109.034 M 36.292 111.029 C 32.328 111.529, 27.378 112.652, 25.292 113.524 L 21.500 115.110 23.996 116.995 C 30.562 121.953, 47.925 124.991, 61.432 123.544 L 68.208 122.819 67.507 117.159 C 67.122 114.047, 66.687 111.374, 66.541 111.221 C 65.757 110.398, 42.463 110.251, 36.292 111.029 M 95 121.540 C 94.175 121.710, 88.517 122.606, 82.427 123.531 L 71.353 125.213 71.783 130.397 L 72.213 135.582 59.356 136.852 C 52.285 137.550, 46.163 138.453, 45.752 138.859 C 45.341 139.264, 48.673 141.359, 53.158 143.514 C 63.377 148.425, 70.996 155.238, 73.951 162.108 C 75.725 166.233, 76.107 168.772, 75.870 174.878 L 75.575 182.500 79.885 182.301 C 84.780 182.075, 88.173 180.192, 90.736 176.280 C 93.243 172.454, 93.015 159.862, 90.124 142.500 C 87.363 125.915, 87.827 122.998, 93.225 123.004 C 95.026 123.006, 97.869 123.842, 99.542 124.863 C 101.215 125.883, 105.070 127.028, 108.108 127.408 C 115.628 128.347, 119.600 130.934, 121.074 135.851 C 122.827 141.703, 119.712 150.652, 110.057 167.500 C 105.645 175.200, 102.027 182.278, 102.017 183.229 C 102.002 184.741, 102.344 184.806, 104.750 183.750 C 106.263 183.086, 110.141 181.018, 113.368 179.154 L 119.236 175.766 137.634 176.492 C 157.976 177.295, 159 177.060, 159 171.599 C 159 166.473, 146.978 143.615, 143.683 142.477 C 129.118 137.447, 124 133.603, 124 127.691 C 124 125.726, 124.457 123.835, 125.016 123.490 C 127.866 121.729, 123.533 121.011, 110.691 121.116 C 102.886 121.180, 95.825 121.371, 95 121.540" stroke="none" fill="black" fill-rule="evenodd"/>
</svg>