<svg xmlns="http://www.w3.org/2000/svg" width="200" height="200" viewBox="0 0 200 200" version="1.1">
	<path d="M 83.795 11.057 C 84.266 14.266, 84.233 14.297, 80.939 13.638 C 79.105 13.271, 75.229 12.692, 72.323 12.350 C 65.601 11.560, 64.906 12.931, 68.288 20.317 C 70.918 26.063, 75.437 30.237, 81.089 32.141 C 84.854 33.410, 87 34.824, 87 36.038 C 87 36.475, 78.563 36.757, 68.250 36.666 C 51.302 36.516, 49.116 36.692, 45.500 38.500 C 42.821 39.839, 41.390 41.275, 41.168 42.845 C 40.695 46.183, 42.875 50.985, 44.569 50.335 C 45.738 49.886, 45.730 49.379, 44.518 47.035 C 42.630 43.384, 44.170 41.211, 49.527 39.969 C 54.142 38.899, 70.492 38.730, 80.250 39.652 L 87 40.289 87 44.495 L 87 48.701 78.250 49.327 C 65.901 50.212, 58 51.936, 58 53.746 C 58 54.770, 58.684 55.047, 60.250 54.660 C 64.818 53.529, 75.674 52.098, 81.497 51.859 C 86.245 51.664, 87.556 51.935, 87.792 53.159 C 88.024 54.365, 86.754 54.845, 82.033 55.339 C 66.989 56.911, 58.456 67.321, 58.596 83.929 C 58.648 90.119, 58.794 90.483, 62.501 93.687 C 68.192 98.607, 73.604 101.510, 82 104.145 L 89.500 106.500 83 106.847 C 79.425 107.038, 67.204 106.644, 55.843 105.971 C 33.076 104.621, 25.406 105.106, 21.552 108.138 C 17.349 111.443, 18.353 115.287, 25.377 122.780 L 28.451 126.061 38.082 125.397 C 50.052 124.573, 59 125.533, 59 127.642 C 59 128.466, 57.712 131.021, 56.137 133.320 C 50.134 142.083, 48.576 146.145, 48.537 153.127 C 48.504 159.033, 48.973 160.665, 52.847 168.127 C 58.231 178.496, 62.545 183.074, 70.155 186.489 C 80.037 190.924, 90.609 191.699, 113.750 189.686 C 124.613 188.741, 137.843 187.975, 143.152 187.984 L 152.804 188 153.902 184.851 C 157.452 174.668, 152.035 167.973, 140.282 168.019 C 137.652 168.029, 129.425 168.921, 122 170 C 92.973 174.219, 84.215 172.112, 82.516 160.500 C 81.468 153.344, 80.604 153.559, 112.712 152.987 C 137.055 152.553, 141.974 152.216, 144.573 150.803 C 152.265 146.619, 151.626 142.295, 141.924 132.874 L 135.100 126.248 146.300 125.765 C 159.457 125.198, 166.780 122.858, 172.362 117.437 C 176.307 113.605, 177.560 110.369, 176.593 106.513 C 175.525 102.259, 171.524 100.502, 162.858 100.481 L 155.129 100.463 147.679 93.239 L 140.229 86.015 141.521 82.258 C 142.232 80.191, 142.968 76.520, 143.157 74.101 L 143.500 69.702 133.477 68.003 C 116.872 65.190, 108 61.579, 108 57.635 C 108 52.566, 110.356 51.887, 129.156 51.538 C 148.038 51.188, 159.658 49.731, 161.990 47.423 C 165.983 43.471, 155.060 36.102, 134.416 28.820 C 125.703 25.747, 125.004 25.301, 125.002 22.821 C 125.001 21.348, 124.220 19.363, 123.266 18.409 C 118.969 14.112, 106.319 10.445, 88.909 8.450 L 83.318 7.809 83.795 11.057 M 87 12.900 C 87 14.444, 88.006 15.178, 91.250 16 C 93.588 16.593, 101.217 18.674, 108.204 20.626 C 121.189 24.253, 123.787 24.338, 122.043 21.080 C 120.200 17.637, 107.980 13.787, 91.750 11.536 C 87.432 10.937, 87 11.061, 87 12.900 M 70.534 18.736 C 71.393 20.791, 73.031 23.469, 74.175 24.686 C 76.321 26.970, 84.887 31.446, 85.651 30.683 C 85.888 30.446, 85.781 27.321, 85.414 23.739 L 84.747 17.225 79.207 16.113 C 76.160 15.501, 72.610 15, 71.320 15 C 68.998 15, 68.990 15.039, 70.534 18.736 M 88.011 21.183 C 88.017 23.007, 88.310 26.244, 88.662 28.376 L 89.303 32.253 98.901 31.706 C 108.866 31.138, 114.307 29.959, 117.402 27.695 C 118.993 26.532, 117.536 25.917, 105.356 22.612 C 97.735 20.544, 90.713 18.630, 89.750 18.359 C 88.335 17.960, 88.002 18.499, 88.011 21.183 M 117.402 30.580 C 111.190 33.522, 103.819 35, 95.364 35 C 87.955 35, 86.904 36.441, 93.640 37.364 C 100.987 38.371, 110.618 38.079, 122.500 36.489 C 136.508 34.614, 138 34.621, 138 36.565 C 138 37.574, 134.268 39.878, 127.500 43.046 C 121.725 45.749, 117 48.262, 117 48.629 C 117 48.996, 124.313 49.039, 133.250 48.726 C 149.224 48.165, 160 46.659, 160 44.985 C 160 43.665, 154.676 40.191, 148.298 37.350 C 141.629 34.379, 124.241 27.959, 123.200 28.083 C 122.815 28.129, 120.206 29.253, 117.402 30.580 M 124.500 39.091 C 122.300 39.565, 113.613 39.999, 105.196 40.057 L 89.893 40.160 90.196 44.330 L 90.500 48.500 100 48.783 L 109.500 49.066 120.390 43.533 C 131.376 37.951, 131.769 37.526, 124.500 39.091 M 91.180 53.189 C 91.424 54.854, 92.579 55.652, 96.006 56.523 C 98.484 57.153, 101.472 58.182, 102.646 58.810 C 104.554 59.832, 104.830 59.664, 105.249 57.226 C 105.506 55.727, 106.054 53.712, 106.466 52.750 C 107.143 51.165, 106.443 51, 99.037 51 C 91.195 51, 90.874 51.089, 91.180 53.189 M 75.637 59.465 C 67.438 62.388, 62.202 70.207, 61.308 80.862 C 60.787 87.078, 60.938 87.773, 63.457 90.766 C 66.293 94.136, 80.108 101.423, 85.750 102.525 L 89 103.159 89 95.624 C 89 89.236, 88.620 87.528, 86.500 84.405 C 83.405 79.844, 83.334 76.283, 86.250 71.890 C 88.013 69.234, 88.435 67.363, 88.198 63.250 L 87.895 58 83.698 58.044 C 81.389 58.068, 77.762 58.707, 75.637 59.465 M 91 62.900 L 91 67.839 94.715 66.813 C 98.327 65.816, 104.578 66.177, 108.545 67.613 C 110.278 68.240, 110.234 68.028, 108.152 65.741 C 105.837 63.198, 99.121 59.872, 93.750 58.609 C 91.034 57.970, 91 58.023, 91 62.900 M 114.151 67.942 C 114.893 69.169, 117.976 71.435, 121.002 72.976 C 124.029 74.518, 128.941 77.609, 131.918 79.846 C 134.895 82.083, 137.670 83.704, 138.085 83.448 C 138.940 82.919, 141.249 72.916, 140.653 72.320 C 140.440 72.106, 137.393 71.474, 133.882 70.916 C 127.621 69.919, 117.656 67.573, 114.433 66.336 C 112.993 65.783, 112.960 65.971, 114.151 67.942 M 93.378 69.984 C 91.415 70.777, 91.294 71.391, 91.768 78.170 C 92.049 82.202, 92.779 85.831, 93.390 86.235 C 95.107 87.371, 105.097 87.025, 108.996 85.694 C 111.665 84.782, 112.766 83.664, 113.649 80.968 C 114.285 79.025, 114.572 76.214, 114.287 74.722 C 113.857 72.472, 112.904 71.752, 108.703 70.504 C 103.167 68.860, 96.703 68.641, 93.378 69.984 M 87.667 74.667 C 86.678 75.656, 86.888 80.279, 88 82 C 88.701 83.085, 88.974 82.185, 88.985 78.750 C 89 73.927, 88.855 73.478, 87.667 74.667 M 117 77.524 C 117 83.794, 114.685 86.745, 108.312 88.598 C 104.603 89.676, 100.813 90.054, 97.325 89.694 L 92 89.145 92 96.572 L 92 104 99.250 103.985 C 108.226 103.967, 117.790 101.784, 124.217 98.285 C 128.945 95.712, 136 88.984, 136 87.048 C 136 85.973, 125.164 78.097, 120.250 75.600 L 117 73.949 117 77.524 M 135.897 92.262 C 132.289 96.784, 126.192 100.810, 118.781 103.563 L 112.500 105.896 119.500 105.871 C 123.350 105.857, 132.475 105.093, 139.778 104.173 L 153.056 102.500 146.253 95.750 C 142.511 92.037, 139.236 89, 138.975 89 C 138.714 89, 137.329 90.468, 135.897 92.262 M 156.289 104.822 C 153.256 107.912, 149.130 110.395, 131 120.043 C 118.874 126.496, 112.497 130.508, 110.233 133.107 C 105.857 138.131, 100.681 141.210, 97.271 140.818 C 93.036 140.332, 91.079 135.241, 89.969 121.824 C 89.454 115.596, 89.025 110.457, 89.016 110.404 C 88.949 110.009, 48.850 108.500, 38.402 108.500 C 20.874 108.500, 18.422 110.460, 25.544 118.780 L 29.088 122.921 42.893 122.746 C 54.515 122.599, 57.116 122.846, 59.349 124.309 C 60.807 125.264, 61.990 126.823, 61.979 127.773 C 61.967 128.723, 59.938 132.618, 57.469 136.428 C 49.604 148.571, 49.220 155.074, 55.629 167.604 C 65.168 186.253, 78.406 190.343, 117.124 186.605 C 126.267 185.722, 137.581 185, 142.267 185 C 151.591 185, 152.014 184.724, 151.985 178.668 C 151.945 170.415, 145.999 169.396, 119.529 173.107 C 89.469 177.321, 80.013 173.792, 80.004 158.357 C 80.001 153.465, 80.356 152.057, 81.750 151.443 C 82.713 151.019, 96.571 150.408, 112.547 150.086 C 138.043 149.572, 141.923 149.283, 144.297 147.727 C 147.586 145.570, 147.661 144.275, 144.750 139.963 C 142.550 136.704, 132.143 127.306, 128.389 125.190 C 127.088 124.456, 126.821 123.800, 127.531 123.081 C 128.230 122.374, 131.173 122.335, 136.655 122.961 C 150.417 124.530, 164.220 121.488, 170.590 115.480 C 173.489 112.746, 174.079 111.533, 173.818 108.840 C 173.418 104.697, 170.414 103.035, 163.289 103.015 C 159.554 103.004, 157.571 103.516, 156.289 104.822 M 142.500 106.554 C 131.258 108.402, 109.539 109.365, 103 108.306 C 99.471 107.734, 96.474 107.782, 94.638 108.440 L 91.775 109.465 92.456 119.070 C 93.275 130.614, 94.348 135.776, 96.344 137.773 C 97.666 139.095, 98.232 139.020, 101.321 137.110 C 103.238 135.926, 106.392 133.201, 108.331 131.056 C 110.767 128.359, 117.274 124.277, 129.419 117.828 C 144.184 109.987, 153.134 104.726, 151 105.142 C 150.725 105.195, 146.900 105.831, 142.500 106.554" stroke="none" fill="black" fill-rule="evenodd"/>
</svg>