<svg xmlns="http://www.w3.org/2000/svg" width="200" height="200" viewBox="0 0 200 200" version="1.1">
	<path d="M 107.500 10.050 C 101.450 10.537, 91.100 10.693, 84.500 10.396 C 68.973 9.698, 58 11.544, 50.439 16.126 C 47.485 17.917, 44.814 20.042, 44.504 20.850 C 44.194 21.657, 44.967 24.367, 46.220 26.871 C 48.791 32.005, 54.174 35.318, 61.964 36.560 L 66.500 37.283 63.114 38.206 C 60.817 38.831, 60.055 39.455, 60.745 40.145 C 61.436 40.836, 65.051 40.613, 71.983 39.454 C 86.569 37.015, 95.056 38.384, 98.566 43.741 C 99.443 45.079, 99.962 46.371, 99.721 46.612 C 99.480 46.854, 95.281 47.797, 90.391 48.709 C 77.540 51.106, 43.046 51.154, 37.750 48.782 C 33.073 46.687, 33.002 44.780, 37.500 42 C 41.153 39.742, 42.039 38, 39.535 38 C 37.369 38, 31 43.932, 31 45.949 C 31 48.441, 33.816 50.615, 39 52.124 C 45.494 54.016, 76.755 53.704, 89.239 51.623 C 101.579 49.567, 101.003 49.511, 100.983 52.750 C 100.959 56.464, 98.222 69.178, 97.233 70.167 C 96.075 71.325, 83.686 68.837, 82.441 67.197 C 80.926 65.201, 73.994 64.094, 62.693 64.044 C 50.822 63.991, 44.426 65.420, 42.350 68.588 C 40.983 70.675, 40.997 71.185, 42.489 73.703 C 44.504 77.104, 50.192 81.284, 59.442 86.160 L 66.385 89.820 61.443 90.460 C 36.332 93.714, 28 96.071, 28 99.921 C 28 101.039, 29.168 102.719, 30.596 103.655 C 33.620 105.637, 46.349 109.462, 55.576 111.162 C 61.140 112.187, 62 112.637, 62 114.518 C 62 122.656, 75.478 121.538, 91.077 112.106 C 97.457 108.248, 97.491 108.241, 99.876 110.117 C 101.192 111.153, 103.037 112, 103.974 112 C 104.912 112, 106.181 113.101, 106.794 114.446 C 107.407 115.792, 109.556 118.717, 111.570 120.946 C 113.585 123.176, 114.843 124.990, 114.366 124.978 C 113.890 124.966, 104.500 124.304, 93.500 123.506 C 68.004 121.658, 58.694 121.582, 59.242 123.226 C 59.497 123.992, 70.600 126.337, 88.825 129.476 C 104.870 132.239, 117.999 134.838, 117.999 135.250 C 118 135.662, 112.211 136, 105.136 136 C 86.465 136, 74.874 138.672, 73.400 143.316 C 71.899 148.045, 79.126 149.987, 98.250 149.994 C 107.413 149.998, 113 150.379, 113 151 C 113 151.550, 112.213 152, 111.250 152.001 C 108.825 152.002, 97.667 157.390, 93.486 160.578 C 88.941 164.045, 86 168.945, 86 173.052 C 86 175.710, 86.966 177.299, 90.869 181.061 C 96.347 186.341, 105.418 190.298, 120.408 193.946 L 129.316 196.114 134.203 191.307 C 136.890 188.663, 140.244 184.144, 141.655 181.265 C 143.862 176.760, 144.165 175.016, 143.828 168.765 C 143.463 161.995, 142.562 159.269, 137.215 148.750 C 137.005 148.338, 140.133 147.997, 144.167 147.992 C 158.258 147.978, 169.905 144.969, 172.431 140.689 C 175.157 136.072, 162.991 131.514, 138.289 127.897 C 130.734 126.791, 124.399 125.732, 124.211 125.544 C 124.023 125.356, 124.356 123.390, 124.953 121.176 C 125.841 117.878, 126.579 117.032, 129.042 116.491 C 133.058 115.609, 137.647 111.612, 140.048 106.906 C 143.614 99.915, 144.966 91.311, 145.059 75 C 145.132 62.352, 145.480 58.764, 146.950 55.500 L 148.751 51.500 149.348 55 C 149.677 56.925, 150.099 69.750, 150.287 83.500 C 150.556 103.178, 150.955 109.245, 152.160 112 C 154.170 116.597, 156.362 118.337, 159.063 117.480 C 162.099 116.517, 168.332 110.677, 172.751 104.659 L 176.500 99.551 176.500 65.526 C 176.500 29.616, 175.913 23.701, 171.830 18.512 C 170.744 17.130, 168.918 16, 167.773 16 C 164.667 16, 158.998 22.574, 154.555 31.327 L 150.614 39.091 148.397 32.508 C 147.178 28.887, 145.063 24.460, 143.697 22.669 L 141.214 19.414 144.107 17.753 C 148.020 15.507, 147.899 12.509, 143.837 11.093 C 139.387 9.542, 120.534 9.001, 107.500 10.050 M 111.500 12.939 C 108.655 13.721, 108.629 13.773, 111 13.947 C 112.375 14.048, 118.450 15.354, 124.500 16.848 L 135.500 19.565 139.823 17.156 C 142.854 15.467, 143.832 14.432, 143.093 13.693 C 141.800 12.400, 115.727 11.778, 111.500 12.939 M 68.750 13.662 C 69.438 13.940, 70.563 13.940, 71.250 13.662 C 71.938 13.385, 71.375 13.158, 70 13.158 C 68.625 13.158, 68.063 13.385, 68.750 13.662 M 62.813 14.683 C 63.534 14.972, 64.397 14.936, 64.729 14.604 C 65.061 14.272, 64.471 14.036, 63.417 14.079 C 62.252 14.127, 62.015 14.364, 62.813 14.683 M 77 15.597 C 65.550 17.114, 51.107 19.816, 49.656 20.712 C 47.471 22.063, 52.819 23.036, 67.633 23.981 C 76.360 24.537, 90.138 24.995, 98.250 24.996 C 110.307 24.999, 113 25.259, 113 26.417 C 113 27.196, 112.522 27.993, 111.937 28.188 C 111.352 28.383, 112.626 30.384, 114.767 32.634 C 119.697 37.817, 122.066 45.824, 122.715 59.494 C 123.541 76.886, 118.819 99.305, 112.616 107.436 L 110.063 110.784 113.156 112.065 C 114.857 112.769, 118.017 113.380, 120.178 113.423 L 124.107 113.500 133.070 86.683 L 142.033 59.865 140.507 41.756 C 139.667 31.796, 138.872 23.546, 138.740 23.423 C 138.068 22.794, 112.331 16.829, 104.619 15.514 C 94.174 13.733, 90.993 13.743, 77 15.597 M 163.183 22.594 C 158.884 27.809, 150.710 44.824, 151.534 46.840 C 151.907 47.753, 152.542 62.225, 152.943 79 C 153.862 117.330, 154.476 119.211, 163.390 110.994 C 172.734 102.381, 172.937 101.782, 174.092 79.399 C 175.135 59.162, 174.672 40.194, 172.877 29.668 C 170.924 18.218, 168.343 16.334, 163.183 22.594 M 48.197 26.108 C 48.869 28.152, 54.698 31.831, 59.401 33.180 C 65.809 35.017, 81.309 34.532, 91 32.192 C 106.099 28.545, 105.849 28.442, 78.872 27.162 C 64.917 26.500, 52.204 25.679, 50.619 25.338 C 48.426 24.865, 47.848 25.049, 48.197 26.108 M 142.326 31 C 142.645 34.025, 143.224 40.550, 143.613 45.500 L 144.319 54.500 146.085 50.500 C 148.447 45.151, 148.408 41.159, 145.921 33.718 C 143.054 25.141, 141.590 24.034, 142.326 31 M 100.589 33.311 C 98.963 34.501, 99.176 34.736, 102.884 35.847 C 105.132 36.521, 108.216 38.153, 109.736 39.475 C 113.041 42.349, 112.277 44.517, 107.011 47.204 C 103.909 48.787, 103.650 49.301, 103.374 54.411 C 103.211 57.437, 102.360 62.683, 101.483 66.067 C 100.606 69.452, 100.026 72.284, 100.194 72.361 C 108.227 76.019, 113 81.120, 113 86.046 C 113 87.559, 111.650 91.363, 110 94.500 C 107.878 98.534, 107.012 101.563, 107.041 104.852 L 107.081 109.500 109.850 106.266 C 119.478 95.021, 123.461 53.734, 116.290 39.520 C 113.452 33.895, 110.989 32, 106.517 32 C 104.243 32, 101.575 32.590, 100.589 33.311 M 92.363 36.465 C 96.632 37.987, 102 42.604, 102 44.754 C 102 45.724, 102.670 45.929, 104.250 45.445 C 106.817 44.658, 109 43.092, 109 42.038 C 109 41.049, 104.626 39.086, 97.500 36.876 C 90.583 34.731, 86.606 34.413, 92.363 36.465 M 47.250 68.491 C 45.462 69.268, 44 70.427, 44 71.067 C 44 73.332, 51.202 78.778, 60.913 83.856 C 69.841 88.525, 71.337 88.995, 77.124 88.942 C 80.631 88.911, 85.299 88.566, 87.498 88.176 C 91.341 87.494, 91.585 87.217, 93.779 81.062 C 95.550 76.094, 95.781 74.482, 94.807 73.881 C 93.342 72.975, 83.384 71.336, 73.750 70.413 C 68.981 69.957, 67 69.361, 67 68.384 C 67 66.466, 51.718 66.549, 47.250 68.491 M 137.547 81.750 C 128.495 109.103, 127.130 114, 128.556 114 C 131.382 114, 136.921 107.828, 138.941 102.427 C 141.911 94.491, 144.385 70, 142.217 70 C 141.787 70, 139.685 75.287, 137.547 81.750 M 98.281 76.828 C 97.952 77.747, 96.860 80.641, 95.854 83.257 L 94.023 88.015 99.762 87.444 C 111.477 86.279, 112.497 85.091, 106.573 79.504 C 102.367 75.537, 99.116 74.488, 98.281 76.828 M 102.500 89.692 C 94.100 90.248, 93.091 90.731, 91.374 95.023 C 90.499 97.211, 89.269 98.995, 88.641 98.988 C 88.014 98.981, 84.114 97.497, 79.975 95.690 C 71.675 92.065, 71.488 92.058, 52.371 94.572 C 39.250 96.298, 30.715 98.615, 31.245 100.308 C 31.771 101.988, 45.779 106.554, 56.761 108.625 L 66.021 110.371 65.425 113.546 C 64.710 117.358, 66.418 118.374, 71.884 117.387 C 80.081 115.907, 96.924 106.286, 102.572 99.858 C 104.052 98.174, 109.042 87.722, 107.670 89.180 C 107.576 89.279, 105.250 89.509, 102.500 89.692 M 81.067 91.879 C 78.789 92.515, 78.885 92.642, 82.567 93.857 C 87.762 95.572, 88.266 95.512, 89.168 93.074 C 89.848 91.236, 89.569 91.011, 86.718 91.100 C 84.948 91.155, 82.405 91.505, 81.067 91.879 M 102.201 104.255 C 101.269 105.380, 101.218 106.016, 102.018 106.511 C 103.498 107.426, 104.255 106.558, 103.838 104.423 C 103.534 102.860, 103.371 102.844, 102.201 104.255 M 110.786 115.598 C 111.347 116.644, 113.754 119.428, 116.136 121.785 L 120.466 126.071 121.657 122.785 C 123.483 117.749, 123.334 117.469, 118.250 116.346 C 115.638 115.769, 112.660 114.937, 111.634 114.497 C 110.032 113.810, 109.912 113.967, 110.786 115.598 M 89 126.610 C 89.825 126.818, 96.798 128.076, 104.496 129.405 C 114.811 131.187, 118.679 131.519, 119.204 130.670 C 119.596 130.035, 119.598 129.219, 119.208 128.856 C 118.819 128.492, 112.473 127.701, 105.107 127.097 C 92.028 126.026, 85.954 125.842, 89 126.610 M 126.798 130.506 C 128.204 131.531, 128.980 132.999, 128.798 134.290 C 128.525 136.225, 128.997 136.410, 134.500 136.514 C 142.065 136.657, 151.230 138.835, 150.689 140.361 C 150.467 140.987, 149.433 141.417, 148.392 141.316 C 147.352 141.214, 143.197 140.820, 139.159 140.440 L 131.818 139.748 133.435 142.874 C 135.295 146.472, 135.931 146.548, 151 144.972 C 160.558 143.973, 170 141.523, 170 140.042 C 170 136.792, 152.436 132.158, 130 129.487 C 124.676 128.853, 124.574 128.886, 126.798 130.506 M 121.813 135.683 C 122.534 135.972, 123.397 135.936, 123.729 135.604 C 124.061 135.272, 123.471 135.036, 122.417 135.079 C 121.252 135.127, 121.015 135.364, 121.813 135.683 M 96.500 138.667 C 86.539 139.489, 76 142.264, 76 144.063 C 76 146.665, 95.382 148.655, 107.402 147.286 C 114.215 146.510, 114.320 146.453, 115.570 142.835 C 116.267 140.819, 116.573 138.907, 116.252 138.585 C 115.665 137.999, 104.002 138.047, 96.500 138.667 M 118.986 140.198 C 118.979 140.914, 118.710 142.478, 118.390 143.673 C 117.829 145.763, 118.074 145.840, 124.750 145.673 L 131.692 145.500 130.436 142.500 C 129.304 139.796, 128.679 139.470, 124.090 139.198 C 120.426 138.980, 118.996 139.260, 118.986 140.198 M 120 148.721 C 118.625 148.968, 117.050 149.613, 116.500 150.155 C 115.841 150.805, 116.366 150.928, 118.039 150.515 C 121.179 149.741, 125.837 151.411, 126.683 153.616 C 127.828 156.600, 123.618 162.284, 115.506 168.706 C 111.109 172.186, 107.368 174.605, 107.194 174.082 C 107.019 173.558, 107.833 169.838, 109.003 165.815 C 110.172 161.792, 111.356 157.713, 111.632 156.750 C 111.944 155.664, 111.591 155, 110.702 155 C 107.726 155, 95.029 162.203, 92.076 165.566 C 83.373 175.478, 92.755 184.046, 119.901 190.975 L 128.302 193.120 132.673 188.830 C 135.077 186.471, 138.006 182.553, 139.182 180.124 C 142.961 172.319, 141.450 160.845, 135.447 151.750 C 133.082 148.168, 132.738 148.006, 127.736 148.136 C 124.856 148.211, 121.375 148.474, 120 148.721 M 116.366 153.739 C 115.286 154.464, 110.744 168.078, 111.373 168.706 C 111.538 168.871, 114.491 166.365, 117.936 163.138 C 124.917 156.597, 125.668 153.690, 120.492 153.239 C 118.846 153.096, 116.990 153.321, 116.366 153.739" stroke="none" fill="black" fill-rule="evenodd"/>
</svg>