<svg xmlns="http://www.w3.org/2000/svg" width="200" height="200" viewBox="0 0 200 200" version="1.1">
	<path d="M 114.500 8.599 C 84.260 10.854, 48.023 16.445, 43.211 19.597 C 37.290 23.477, 44.056 29.650, 60.219 35.114 L 71.500 38.927 65.657 38.964 C 58.334 39.009, 41.105 42.469, 34.892 45.142 C 30.516 47.024, 25.127 51.467, 26.079 52.407 C 26.715 53.033, 40.703 55.757, 47.422 56.563 L 53.345 57.274 50.422 59.323 C 45.002 63.125, 39.015 70.232, 37.973 74.101 C 35.337 83.891, 44.616 91.334, 65 95.779 L 69.500 96.760 65.838 96.880 C 59.861 97.076, 47.337 99.757, 42.590 101.857 C 37.359 104.171, 34.518 107.942, 35.389 111.416 C 36.491 115.805, 40.950 119.830, 55.322 129.411 C 63.120 134.609, 70.796 140.091, 72.380 141.593 L 75.261 144.323 71.380 146.277 C 60.649 151.680, 57.794 159.699, 61.504 174.015 C 63.423 181.422, 69.922 197, 71.093 197 C 73.317 197, 100.141 182.571, 103.902 179.352 C 109.229 174.792, 109.031 172.514, 103.001 168.995 C 97.494 165.781, 96.964 163.701, 100.658 159.803 C 103.827 156.459, 121.084 144.750, 121.795 145.461 C 122.044 145.711, 120.998 147.397, 119.470 149.208 C 102.826 168.925, 120.284 186.832, 156.545 187.237 C 168.973 187.376, 175.220 185.465, 175.807 181.344 C 176.172 178.786, 171.701 175.043, 165.178 172.446 L 160.857 170.725 163.971 169.217 C 167.627 167.446, 169.355 164.694, 168.501 162.003 C 168.165 160.946, 164.743 157.792, 160.896 154.993 C 157.049 152.195, 153.623 149.181, 153.283 148.295 C 152.256 145.619, 157.401 142.243, 166.779 139.441 C 180.580 135.317, 180.163 135.707, 173.950 132.737 C 166.406 129.130, 158.287 128.145, 126.788 127.014 C 98.105 125.984, 89.774 124.808, 89.179 121.702 C 88.689 119.143, 90.493 117.314, 98.989 111.755 C 103.108 109.061, 106.615 106.718, 106.783 106.551 C 106.950 106.383, 105.494 103.603, 103.546 100.373 C 101.599 97.143, 100.004 93.953, 100.003 93.285 C 100.001 92.616, 101.358 90.523, 103.018 88.632 C 104.678 86.742, 106.543 83.688, 107.162 81.847 C 108.656 77.405, 120.052 59, 121.309 59 C 122.905 59, 121.357 75.764, 119.089 83.039 C 117.967 86.635, 113.889 95.726, 110.025 103.241 C 101.277 120.255, 101.092 122.492, 108.331 123.666 C 111.300 124.148, 112 123.950, 112 122.631 C 112 121.485, 111.107 121, 109 121 C 104.579 121, 105.037 118.924, 112.803 103.773 C 122.658 84.544, 125.580 73.689, 124.452 60.500 L 123.853 53.500 130.335 44.645 C 135.986 36.925, 136.945 36.029, 137.814 37.653 C 142.530 46.465, 144.491 75.405, 141.559 92.937 C 139.630 104.477, 136.894 113.583, 133.523 119.688 C 131.344 123.633, 131.248 125, 133.150 125 C 133.599 125, 135.048 122.862, 136.369 120.250 C 146.715 99.799, 149.171 61.337, 141.483 40.157 L 139.118 33.642 141.127 30.821 C 142.232 29.270, 143.505 28, 143.955 28 C 144.747 28, 146.340 35.735, 147.456 45 C 147.754 47.475, 148.451 61.625, 149.004 76.445 C 149.557 91.265, 150.503 106.225, 151.106 109.690 C 152.294 116.510, 155.040 121, 158.024 121 C 160.772 121, 165.975 115.181, 170.700 106.824 L 174.840 99.500 175.959 75.500 C 178.035 30.980, 174.105 12.969, 162.327 13.015 C 160.222 13.023, 157.398 13.587, 156.050 14.269 C 153.914 15.350, 153.320 15.229, 151.415 13.324 C 150.213 12.122, 147.491 10.672, 145.365 10.100 C 141.051 8.941, 122.206 8.024, 114.500 8.599 M 111 11.600 C 98.948 12.643, 77.114 15.215, 74 15.959 C 70.711 16.745, 70.832 16.802, 76 16.908 C 79.025 16.971, 87.800 17.691, 95.500 18.509 C 103.200 19.327, 112.777 19.997, 116.782 19.998 C 125.594 20, 129.396 21.460, 134 26.607 L 137.500 30.520 143.750 24.018 C 147.188 20.442, 150 16.927, 150 16.207 C 150 13.399, 142.883 11.801, 129.036 11.503 C 121.591 11.342, 113.475 11.386, 111 11.600 M 157 16.958 C 155.075 17.987, 151.991 20.399, 150.147 22.319 L 146.793 25.809 148.393 32.654 C 149.388 36.911, 150.382 48.578, 151.021 63.500 C 152.965 108.892, 154.147 118, 158.092 118 C 160.103 118, 164.139 112.996, 169.049 104.414 C 171.955 99.335, 171.990 99.084, 173.175 74.639 C 174.866 39.754, 172.750 22.095, 166.271 16.998 C 163.164 14.555, 161.512 14.547, 157 16.958 M 57.269 19.693 C 58.242 19.947, 59.592 19.930, 60.269 19.656 C 60.946 19.382, 60.150 19.175, 58.500 19.195 C 56.850 19.215, 56.296 19.439, 57.269 19.693 M 83.358 23.975 C 88.744 29.936, 89.534 35.427, 85.309 37.533 C 83.395 38.487, 83.874 38.753, 89.318 39.755 C 92.718 40.381, 96.491 41.189, 97.703 41.551 C 99.598 42.117, 100.547 41.217, 104.501 35.104 C 107.029 31.197, 109.472 28, 109.931 28 C 111.178 28, 118.605 39.845, 120.592 45 C 122.746 50.592, 122.952 50.835, 123.990 48.992 C 124.451 48.171, 127.117 44.442, 129.915 40.704 C 132.712 36.967, 135 33.345, 135 32.657 C 135 31.969, 133.259 29.705, 131.130 27.627 C 126.894 23.490, 121.634 21.748, 116 22.616 C 114.075 22.912, 106.107 22.445, 98.293 21.577 C 78.178 19.344, 79.048 19.204, 83.358 23.975 M 44.698 21.636 C 42.835 23.498, 44.679 25.267, 52.250 28.881 C 65.008 34.972, 80.270 37.717, 84.435 34.671 C 85.994 33.531, 86.076 32.996, 85.008 30.921 C 84.324 29.589, 82.250 26.915, 80.401 24.977 L 77.038 21.454 65.769 22.273 C 54.948 23.059, 50.292 22.881, 46.948 21.554 C 46.094 21.215, 45.082 21.252, 44.698 21.636 M 105.684 38.124 C 102.082 43.645, 101.956 44.099, 103.434 46.209 C 105.603 49.305, 105.391 53.532, 102.841 58.070 C 101.260 60.883, 100.968 62.258, 101.751 63.206 C 102.340 63.918, 103.915 66.662, 105.253 69.303 L 107.685 74.107 114.198 63.803 L 120.711 53.500 118.926 48.298 C 117.014 42.726, 112.677 34.774, 110.705 33.222 C 109.846 32.546, 108.405 33.953, 105.684 38.124 M 59.608 42.138 C 44.756 44.044, 28.728 49.156, 32 50.943 C 33.305 51.656, 42.594 53.099, 54 54.361 C 56.528 54.640, 59.368 53.811, 64.225 51.374 C 67.924 49.518, 71.411 48, 71.975 48 C 72.539 48, 73 49.339, 73 50.975 C 73 53.791, 73.173 53.917, 76.250 53.332 C 80.925 52.443, 88.945 49.356, 92.943 46.905 C 97.153 44.324, 96.210 43.564, 86.929 42.058 C 79.480 40.850, 69.415 40.879, 59.608 42.138 M 94.500 49.013 C 90.469 51.885, 79.595 56, 76.038 56 C 73.269 56, 72.738 57.462, 73.500 62.997 C 74.112 67.453, 74.483 68.004, 77.545 69.015 C 81.001 70.155, 89.253 78.403, 93.775 85.236 C 95.145 87.306, 96.872 89, 97.613 89 C 99.179 89, 104.977 79.347, 104.991 76.717 C 105 74.904, 101.238 67.211, 98.481 63.407 C 97.103 61.505, 97.147 61.083, 98.962 58.775 C 102.451 54.339, 103.257 51.041, 101.504 48.365 C 99.605 45.467, 99.460 45.480, 94.500 49.013 M 66 53.598 L 63.500 55.125 66 54.576 C 67.375 54.274, 68.838 54.021, 69.250 54.014 C 69.662 54.006, 70 53.550, 70 53 C 70 51.637, 68.955 51.793, 66 53.598 M 51.900 61.900 C 44.388 67.443, 41.115 71.518, 40.339 76.296 C 38.619 86.896, 60.568 95.393, 83.146 92.867 C 94.823 91.560, 94.908 91.450, 89.723 84.431 C 84.801 77.770, 77.696 71, 75.625 71 C 74.796 71, 73.998 72.610, 73.604 75.075 C 73.191 77.658, 72.503 78.996, 71.726 78.729 C 70.848 78.428, 70.600 75.879, 70.851 69.760 C 71.355 57.499, 71.092 56.997, 64.183 57.015 C 58.965 57.029, 57.960 57.428, 51.900 61.900 M 92.500 94 C 90.728 94.762, 90.813 94.867, 93.250 94.930 C 94.763 94.968, 96 94.550, 96 94 C 96 92.826, 95.231 92.826, 92.500 94 M 79.028 98.587 C 58.369 100.087, 46.347 102.294, 41.652 105.450 C 34.621 110.176, 37.700 114.480, 57.430 127.504 C 72.207 137.259, 78.434 142.707, 77.522 145.082 C 77.222 145.862, 74.600 147.744, 71.696 149.264 C 64.960 152.789, 63 156.070, 63 163.815 C 63 172.434, 69.833 192.943, 72.718 192.983 C 75.178 193.017, 97.906 180.789, 101.644 177.420 C 105.921 173.566, 106.243 174.415, 98.629 169.466 C 92.602 165.547, 94.102 161.117, 104.047 153.464 C 112.616 146.870, 133.276 134.876, 134.300 135.900 C 134.769 136.369, 131.840 140.066, 127.783 144.126 C 115.674 156.243, 112.896 165.395, 119.160 172.529 C 125.019 179.203, 136.151 183.227, 152.500 184.583 C 160.841 185.274, 171.388 183.800, 172.644 181.767 C 173.713 180.037, 168.739 176.727, 160.417 173.632 L 152.768 170.788 158.533 168.445 C 168.191 164.520, 168.249 163.281, 159.059 157.040 C 145.814 148.046, 147.513 142.623, 165.374 136.880 L 172.500 134.588 168.028 133.293 C 161.954 131.535, 144.948 130.008, 131 129.970 C 115.160 129.927, 96.284 128.421, 91.598 126.827 C 81.775 123.487, 84.443 117.805, 100.932 106.948 L 103.288 105.397 100.894 101.206 C 99.577 98.901, 98.275 97.067, 98 97.131 C 97.725 97.195, 89.188 97.850, 79.028 98.587" stroke="none" fill="black" fill-rule="evenodd"/>
</svg>