<svg xmlns="http://www.w3.org/2000/svg" width="200" height="200" viewBox="0 0 200 200" version="1.1">
	<path d="M 98.500 10.427 C 92.450 11.689, 84.350 13.596, 80.500 14.664 C 74.882 16.222, 72.335 16.434, 67.601 15.735 C 64.356 15.256, 61.431 15.243, 61.101 15.705 C 60.770 16.168, 59.258 17.337, 57.740 18.303 C 55.080 19.995, 55.034 20.166, 56.484 22.968 C 58.137 26.166, 72.294 36, 75.243 36 C 79.980 36, 97.111 33.757, 102.345 32.451 L 108.190 30.993 116.778 35.017 C 126.993 39.804, 132 43.411, 132 45.984 C 132 47.018, 131.100 48.151, 130 48.500 C 128.059 49.116, 127.124 52, 128.865 52 C 130.775 52, 135 47.727, 135 45.795 C 135 42.456, 128.907 37.669, 118.687 32.982 C 112.970 30.359, 108.945 27.898, 108.673 26.857 C 108.068 24.544, 103.132 22.589, 90.971 19.846 C 79.261 17.205, 79.288 17.180, 97.908 13.373 C 121.548 8.541, 135.343 9.990, 140.210 17.817 C 142.413 21.361, 142.491 22.219, 142.255 40.500 C 142.028 58.078, 140.309 72.919, 136.427 90.831 C 135.531 94.964, 117.994 101.244, 104.625 102.218 C 101.437 102.450, 100.608 102.120, 99.945 100.351 C 99.224 98.427, 99.619 98.082, 103.721 97.049 C 109.839 95.508, 113.815 93.420, 117.835 89.638 C 122.272 85.464, 124 81.941, 124 77.070 C 124 69.977, 121.380 65.333, 114.895 60.929 C 106.684 55.352, 104.538 51, 110 51 C 112.103 51, 113 50.514, 113 49.375 C 113 48.089, 112.349 47.880, 109.884 48.373 C 107.003 48.949, 106.822 48.827, 107.488 46.748 C 107.884 45.512, 108.433 43.058, 108.708 41.295 C 109.152 38.450, 108.897 38.012, 106.433 37.394 C 99.041 35.539, 52.930 39.115, 43.180 42.300 C 38.085 43.964, 37.573 47.380, 42.193 48.885 C 47.319 50.555, 58.703 51.958, 67.309 51.980 C 72.256 51.993, 74.892 52.367, 74.500 53 C 74.160 53.550, 72.647 54, 71.138 54 C 69.629 54, 64.755 55.760, 60.307 57.911 C 52.415 61.727, 52.178 61.947, 50.493 67.020 C 44.287 85.706, 59.502 99, 87.093 99 C 96.160 99, 96.802 99.135, 97.331 101.157 L 97.895 103.314 65.578 102.722 L 33.262 102.130 32.131 104.612 C 30.103 109.063, 30.741 113.378, 33.873 116.378 C 37.371 119.730, 44.916 122.168, 60.329 124.927 C 74.161 127.404, 80 129.495, 80 131.972 C 80 134.031, 76.016 138.261, 70.816 141.725 C 68.789 143.075, 67.335 144.701, 67.584 145.339 C 67.907 146.169, 75.237 146.567, 93.268 146.734 C 118.876 146.972, 118.680 146.949, 125.848 150.681 C 126.470 151.005, 121.911 169.337, 119.676 175.500 C 117.515 181.458, 117.470 181.502, 113.221 181.809 L 108.942 182.118 106.528 176.660 C 105.201 173.658, 103.447 168.794, 102.630 165.851 C 101.813 162.908, 100.409 157.857, 99.509 154.627 L 97.873 148.754 93.369 149.262 C 82.322 150.507, 63.705 164.578, 60.953 173.762 C 57.648 184.794, 65.887 188.110, 91.162 185.920 C 104.809 184.738, 106.343 184.772, 108.953 186.313 C 112.403 188.351, 115.361 188.474, 116.881 186.643 C 117.700 185.656, 122.568 185.096, 134.754 184.588 C 160.922 183.497, 171 181.405, 171 177.063 C 171 174.258, 166.093 170.642, 157.341 166.998 C 150.792 164.272, 148.536 162.662, 143.229 156.930 C 139.754 153.177, 136.031 149.827, 134.956 149.486 C 130.914 148.203, 133.276 147.262, 141.750 146.776 C 151.639 146.210, 159.828 143.306, 163.037 139.226 C 165.129 136.566, 165.841 127.638, 164.049 126.530 C 163.526 126.207, 158.617 126.855, 153.142 127.971 C 147.666 129.087, 140.838 130, 137.968 130 C 132.760 130, 132.751 129.994, 133.322 127.140 C 133.637 125.567, 134.202 121.960, 134.578 119.123 L 135.262 113.966 140.187 114.619 C 142.895 114.978, 146.757 116.111, 148.767 117.136 C 158.618 122.159, 165.408 116.406, 168.646 100.293 C 169.767 94.714, 170.418 82.839, 170.937 58.500 L 171.662 24.500 169.300 20.268 C 166.732 15.670, 164.452 14, 160.740 14 C 156.065 14, 152.270 20.345, 147.584 36 L 145.040 44.500 145.638 36.975 C 146.780 22.590, 143.182 13.804, 134.541 9.880 C 128.657 7.207, 112.771 7.448, 98.500 10.427 M 158.184 18.304 C 152.691 24.151, 145.548 49.643, 145.519 63.500 C 145.503 71.298, 145.875 73.301, 148.310 78.500 L 151.120 84.500 148.307 87 C 146.760 88.375, 143.975 90.682, 142.119 92.126 C 139.161 94.426, 138.580 95.665, 137.424 102.126 C 135.573 112.473, 135.437 111.996, 140.250 112.034 C 142.588 112.053, 146.300 112.937, 148.500 114 C 156.758 117.989, 161.576 115.535, 164.443 105.879 C 167.025 97.185, 167.867 85.294, 168.152 53.500 C 168.401 25.710, 168.284 23.294, 166.569 20.709 C 164.990 18.330, 162.106 16, 160.740 16 C 160.525 16, 159.374 17.037, 158.184 18.304 M 58.532 20.948 C 57.948 21.893, 65.640 28.083, 71.705 31.547 C 74.661 33.236, 75.801 33.285, 86.388 32.182 C 103.592 30.388, 104.331 29.805, 93.575 26.508 C 76.556 21.291, 59.948 18.656, 58.532 20.948 M 87.151 39.755 C 77.826 40.077, 77.804 40.084, 78.409 42.495 C 80.244 49.805, 80.474 50.001, 87.225 49.991 C 90.676 49.987, 95.785 49.708, 98.578 49.372 C 103.487 48.782, 103.711 48.616, 105.281 44.381 L 106.904 40 103.034 40 C 100.905 40, 98.564 39.872, 97.832 39.717 C 97.099 39.561, 92.293 39.578, 87.151 39.755 M 58.500 42.110 C 46.804 43.799, 41.538 45.162, 43.173 46.077 C 45.074 47.141, 55.802 48.680, 66.750 49.459 L 75 50.047 75 45.523 L 75 41 69.750 41.122 C 66.862 41.189, 61.800 41.634, 58.500 42.110 M 86.716 52.736 L 81.932 53.112 86.238 57.306 C 91.264 62.201, 93 67.026, 93 76.095 C 93 80.510, 93.784 84.508, 95.560 89.157 L 98.120 95.857 103.310 94.343 C 114.830 90.983, 121 85.032, 121 77.281 C 121 70.445, 119.256 67.307, 113.028 62.938 C 109.853 60.711, 106.421 57.339, 105.400 55.445 C 103.581 52.066, 103.431 52.003, 97.523 52.180 C 94.210 52.279, 89.347 52.530, 86.716 52.736 M 68.500 57.404 C 66.300 58.103, 62.203 59.847, 59.396 61.280 C 54.902 63.574, 54.139 64.431, 53.016 68.443 C 51.265 74.696, 52.175 81.229, 55.381 85.433 C 59.006 90.185, 68.648 94.628, 78.400 96.039 C 87.089 97.296, 95.430 96.598, 94.625 94.680 C 94.353 94.031, 93.579 91.813, 92.907 89.750 C 91.677 85.980, 90.645 85.147, 89.500 87 C 88.499 88.620, 85.444 88.148, 83.576 86.084 C 81.251 83.515, 78.422 74.138, 76.964 64.164 C 75.646 55.153, 75.630 55.140, 68.500 57.404 M 79.493 62.250 C 80.757 71.991, 83.141 80.954, 85.076 83.234 C 86.923 85.411, 87.055 85.428, 88.422 83.664 C 89.675 82.048, 89.542 81.031, 87.305 75.164 C 85.907 71.499, 83.876 65.912, 82.790 62.750 C 80.283 55.446, 78.577 55.187, 79.493 62.250 M 85.247 61.250 C 85.501 61.938, 86.555 64.975, 87.590 68 C 89.172 72.625, 89.523 73.074, 89.795 70.826 C 90.095 68.340, 86.689 60, 85.373 60 C 85.050 60, 84.994 60.563, 85.247 61.250 M 141.074 80.388 C 140.360 85.185, 139.964 89.298, 140.194 89.527 C 140.424 89.757, 142.233 88.608, 144.216 86.974 L 147.820 84.003 146.092 80.251 C 145.142 78.188, 143.916 75.412, 143.368 74.083 C 142.523 72.032, 142.175 72.987, 141.074 80.388 M 127.500 99.752 C 124.200 101.140, 117.225 102.981, 112 103.842 C 106.775 104.703, 102.383 105.470, 102.240 105.547 C 102.097 105.624, 102.951 108.022, 104.138 110.877 C 105.324 113.732, 106.566 115.917, 106.898 115.731 C 111.676 113.059, 116.695 111.760, 124.094 111.281 C 129.539 110.928, 133.073 110.253, 133.357 109.512 C 134.372 106.867, 135.174 97.007, 134.365 97.113 C 133.889 97.176, 130.800 98.363, 127.500 99.752 M 34.032 106.940 C 30.275 113.961, 37.033 117.943, 59.509 121.951 C 74.307 124.589, 78.378 125.772, 80.972 128.189 C 83.983 130.994, 83.465 133.540, 78.873 138.522 L 74.745 143 82.123 143.109 C 86.180 143.168, 95.688 143.506, 103.252 143.859 C 110.815 144.211, 117.002 144.438, 117.002 144.363 C 116.995 143.785, 107.427 126.174, 106.482 125 C 105.818 124.175, 105.017 122.150, 104.703 120.500 C 104.389 118.850, 102.983 114.912, 101.579 111.750 L 99.025 106 85.173 106 C 77.554 106, 63.201 105.706, 53.278 105.346 C 35.286 104.695, 35.231 104.699, 34.032 106.940 M 114.992 115.327 C 108.146 117.616, 107.489 118.352, 109.008 122.019 C 110.631 125.937, 116.063 128.637, 124.259 129.601 L 129.861 130.259 130.454 126.880 C 130.781 125.021, 131.429 121.362, 131.895 118.750 L 132.742 114 125.621 114.077 C 121.704 114.119, 116.922 114.682, 114.992 115.327 M 154 130.581 C 150.975 131.341, 144.829 132.259, 140.342 132.622 L 132.185 133.281 131.512 137.768 C 131.142 140.236, 130.577 142.938, 130.258 143.771 C 129.754 145.083, 130.804 145.194, 138.088 144.595 C 154.332 143.261, 161.997 139.601, 162.327 133.022 C 162.534 128.902, 161.681 128.652, 154 130.581 M 113 130.433 C 113 131.465, 117.079 139.242, 119.199 142.250 C 120.546 144.162, 122.011 145, 124.009 145 C 127.496 145, 127.707 144.693, 128.543 138.384 L 129.207 133.384 122.636 132.173 C 119.023 131.507, 115.376 130.698, 114.533 130.374 C 113.690 130.051, 113 130.077, 113 130.433 M 92.273 152.058 C 86.835 153.204, 77.899 158.252, 72.359 163.309 C 62.225 172.559, 60.437 178.904, 67 182.324 C 70.111 183.946, 72.156 184.078, 85.414 183.516 C 93.617 183.169, 101.535 182.643, 103.010 182.348 L 105.691 181.812 103.411 176.156 C 102.156 173.045, 99.966 166.450, 98.545 161.500 C 97.123 156.550, 95.856 152.248, 95.730 151.939 C 95.603 151.631, 94.048 151.684, 92.273 152.058 M 128.412 153.750 C 126.132 163.766, 123.627 172.959, 122.040 177.138 L 120.192 182 129.846 181.966 C 149.646 181.897, 168 179.326, 168 176.620 C 168 175.161, 161.395 171.439, 152.778 168.044 C 148.376 166.310, 146.191 164.657, 143.312 160.881 C 139.280 155.595, 133.422 151, 130.715 151 C 129.704 151, 128.790 152.092, 128.412 153.750" stroke="none" fill="black" fill-rule="evenodd"/>
</svg>