<svg xmlns="http://www.w3.org/2000/svg" width="200" height="200" viewBox="0 0 200 200" version="1.1">
	<path d="M 63.200 9.200 C 62.540 9.860, 62 11.098, 62.001 11.950 C 62.002 14.336, 70.735 24.911, 74.577 27.178 C 76.566 28.351, 78 29.994, 78 31.099 C 78 32.748, 77.233 33, 72.224 33 C 56.715 33, 39.737 37.104, 38.448 41.164 C 37.560 43.963, 39.422 45.511, 46 47.446 C 52.980 49.500, 70 50.752, 70 49.212 C 70 48.613, 68.088 47.889, 65.750 47.603 C 37.443 44.140, 34.612 42.359, 50.500 38.009 C 52.700 37.406, 59.602 36.639, 65.837 36.304 L 77.174 35.694 76.460 45.097 C 76.068 50.269, 75.691 54.516, 75.623 54.535 C 75.555 54.554, 73.396 56.244, 70.826 58.290 C 64.749 63.126, 60 72.303, 60 79.209 C 60 86.636, 63.334 91.661, 70.750 95.409 C 73.596 96.847, 74 97.545, 74 101.026 L 74 105 55.250 105.008 C 28.960 105.018, 20 106.791, 20 111.981 C 20 114.570, 23.770 117.497, 32.578 121.746 C 40.166 125.407, 41.016 125.598, 46.578 124.906 C 60.211 123.209, 60.339 123.375, 54.446 135.108 C 46.654 150.623, 47.136 159.429, 56.495 172.546 C 61.910 180.133, 65.893 183.358, 72 185.098 C 79.091 187.118, 99.210 186.484, 120 183.586 C 130.175 182.168, 140.210 181.006, 142.301 181.004 C 145.647 181, 146.262 180.611, 147.440 177.750 C 150.990 169.127, 150.268 158.585, 144.949 141.376 C 140.972 128.506, 140.780 124.410, 144.033 121.762 C 146.263 119.946, 147.537 119.802, 157.285 120.258 C 168.849 120.799, 170.691 120.212, 177.733 113.737 C 184.163 107.824, 181.435 105.152, 163.078 99.377 C 146.716 94.230, 134 89.240, 134 87.966 C 134 87.499, 134.456 86.836, 135.014 86.491 C 136.683 85.460, 139.794 78.662, 140.057 75.474 C 140.637 68.423, 140.043 66.757, 135.250 62.001 C 129.707 56.502, 122.722 53.564, 110.623 51.644 C 97.982 49.638, 104.031 48.683, 130 48.585 C 149.252 48.512, 152.952 48.253, 155.629 46.787 C 159.573 44.628, 160.363 42.595, 158.582 39.187 C 155.658 33.591, 151.979 31.298, 144.933 30.683 C 141.321 30.367, 134.008 28.714, 128.683 27.008 L 119 23.906 119 20.127 C 119 15.397, 116.079 12.430, 109.461 10.438 C 104.224 8.862, 93.323 8.645, 85.500 9.960 C 82.002 10.548, 78.860 10.380, 75.040 9.400 C 68.347 7.684, 64.777 7.623, 63.200 9.200 M 65 11.850 C 65 13.340, 70.584 20.472, 74.003 23.349 C 78.023 26.732, 78.963 25.793, 78.985 18.369 L 79 13.237 74.557 12.119 C 69.276 10.789, 65 10.669, 65 11.850 M 88.550 12.868 C 89.073 13.345, 95.438 15.802, 102.696 18.327 C 115.475 22.773, 115.912 22.853, 116.540 20.874 C 117.404 18.153, 113.752 14.304, 109.074 13.004 C 104.655 11.776, 87.229 11.661, 88.550 12.868 M 82 16.390 C 82 17.672, 81.723 20.742, 81.384 23.213 L 80.769 27.704 85.548 28.908 C 93.496 30.909, 104.424 30.457, 109.685 27.910 C 112.845 26.381, 113.815 25.482, 112.866 24.963 C 112.115 24.553, 104.862 21.932, 96.750 19.138 C 82.087 14.089, 82 14.072, 82 16.390 M 112.688 29.387 C 108.616 31.907, 106.599 32.432, 99.583 32.800 C 93.962 33.095, 89.630 32.749, 86.138 31.725 C 82.973 30.797, 80.757 30.585, 80.393 31.174 C 80.066 31.701, 79.958 32.291, 80.152 32.485 C 81.266 33.599, 98.531 35.064, 104.477 34.549 C 115.261 33.614, 128.368 31.836, 129.664 31.132 C 130.304 30.785, 127.829 29.579, 124.164 28.454 L 117.500 26.408 112.688 29.387 M 139.387 33.938 C 138.899 34.385, 133.550 36.907, 127.500 39.544 C 121.450 42.180, 116.072 44.712, 115.550 45.169 C 114.027 46.502, 149.013 46.057, 152.925 44.694 C 157.551 43.081, 157.722 41.730, 153.815 37.652 C 151.119 34.838, 149.546 34.093, 145.387 33.659 C 142.574 33.366, 139.874 33.492, 139.387 33.938 M 120 35.680 C 114.243 36.636, 106.453 36.958, 95.859 36.680 L 80.218 36.270 79.620 39.885 C 79.291 41.873, 79.017 45.583, 79.011 48.129 L 79 52.758 83.412 51.817 C 88.402 50.752, 93.619 51.819, 98.700 54.943 C 102.565 57.318, 110.247 66.887, 113.025 72.784 C 114.590 76.107, 116.748 78.181, 122.649 82.034 C 126.833 84.765, 130.548 87, 130.905 87 C 131.261 87, 132.774 85.118, 134.266 82.817 C 143.759 68.176, 133.086 57.114, 106.289 53.821 C 96.697 52.642, 94.429 51.070, 99.250 48.942 C 101.763 47.833, 84.566 48.462, 81.635 49.586 C 80.569 49.995, 80 49.692, 80 48.714 C 80 46.492, 81.693 46.143, 96.156 45.379 C 109.168 44.692, 109.491 44.617, 120.422 39.736 C 126.515 37.016, 131.688 34.612, 131.917 34.395 C 132.558 33.787, 129.284 34.140, 120 35.680 M 80.897 55.113 C 78.427 56.020, 78.262 56.533, 77.647 65.188 C 77.291 70.204, 77 78.904, 77 84.523 L 77 94.738 80.750 95.358 C 82.813 95.699, 86.161 95.983, 88.191 95.989 C 90.221 95.995, 92.141 96.419, 92.458 96.932 C 92.775 97.445, 95.409 98.396, 98.313 99.045 C 106.676 100.917, 118.266 97.656, 126.630 91.076 L 128.911 89.282 121.206 84.235 C 114.463 79.819, 113.303 79.364, 111.921 80.594 C 109.603 82.659, 101.906 82.310, 95.288 79.840 C 89.335 77.619, 82.515 71.955, 83.226 69.823 C 84.108 67.176, 88.760 64.980, 94.806 64.355 C 101.108 63.704, 101.114 63.706, 105.056 67.555 C 110.507 72.878, 109.989 71.292, 103.877 63.948 C 96.590 55.192, 88.821 52.205, 80.897 55.113 M 70.110 62.528 C 60.254 73.753, 60.214 87.007, 70.021 92.011 L 74 94.041 74 85.674 C 74 81.072, 74.292 73.188, 74.650 68.154 C 75.384 57.806, 74.844 57.136, 70.110 62.528 M 89.250 68.119 C 85.405 69.229, 85.244 69.963, 88.250 72.701 C 93.282 77.284, 104.285 80.602, 108.782 78.893 L 111.349 77.917 105.959 72.458 C 101.134 67.572, 100.145 67.009, 96.534 67.090 C 94.315 67.140, 91.037 67.603, 89.250 68.119 M 128.600 92.890 C 127.659 93.930, 123.877 96.265, 120.195 98.079 C 112.007 102.115, 100.028 103.292, 93.768 100.676 C 91.728 99.824, 86.896 98.815, 83.030 98.434 L 76 97.742 76 101.261 L 76 104.781 86.750 105.475 C 98.056 106.204, 111.718 105.259, 137.788 101.944 C 146.197 100.875, 153.397 99.979, 153.788 99.954 C 154.180 99.929, 150.675 98.438, 146 96.642 C 141.325 94.845, 136.517 92.840, 135.316 92.187 C 132.260 90.526, 130.580 90.702, 128.600 92.890 M 156.666 101.667 C 156.300 102.034, 148.012 103.513, 138.250 104.953 L 120.500 107.573 119.850 114.036 C 119.492 117.591, 118.430 122.414, 117.490 124.754 C 115.578 129.509, 110.891 134, 107.840 134 C 106.736 134, 105.983 134.377, 106.167 134.837 C 106.863 136.585, 122.409 149.865, 123.192 149.381 C 124.439 148.611, 125.294 151.691, 124.601 154.452 C 123.663 158.190, 113.247 168.841, 107.860 171.571 C 88.929 181.164, 76.778 162.462, 74.381 120.045 L 73.700 108 53.986 108 C 36.438 108, 24.695 108.972, 23.112 110.555 C 21.823 111.843, 25.157 114.774, 32.064 118.426 C 39.280 122.241, 39.781 122.354, 49.880 122.426 C 63.766 122.525, 63.856 122.691, 57.161 135.970 C 52.474 145.265, 52.002 146.817, 52.022 152.853 C 52.039 158.168, 52.590 160.509, 54.772 164.536 C 59.919 174.037, 63.287 177.873, 69 180.740 C 74.127 183.313, 75.348 183.500, 87 183.500 C 95.124 183.500, 107.452 182.456, 122.217 180.519 L 144.933 177.538 145.967 172.720 C 147.835 164.006, 147.038 157.931, 141.623 139.638 C 135.985 120.590, 139.442 116.033, 158.513 117.373 C 167.463 118.003, 167.766 117.952, 171.588 115.176 C 180.333 108.823, 179.780 107.217, 167.570 103.493 C 158.806 100.820, 157.699 100.634, 156.666 101.667 M 105.500 108.129 C 101.100 108.596, 92.888 108.704, 87.250 108.370 L 77 107.761 77.020 115.631 C 77.043 125.271, 79.368 143.315, 81.556 150.841 C 83.859 158.764, 87.401 165.318, 91.028 168.370 C 96.458 172.939, 105.304 171.518, 113.217 164.805 C 116.296 162.192, 122 155.131, 122 153.931 C 122 152.484, 101.571 134.870, 97.500 132.807 C 92.737 130.393, 87.861 126.035, 88.595 124.847 C 89.607 123.209, 91.850 124.038, 97.123 128 C 103.378 132.700, 106.620 133.032, 110.921 129.413 C 114.144 126.701, 116.308 120.796, 117.392 111.750 C 118.044 106.317, 119.214 106.673, 105.500 108.129" stroke="none" fill="black" fill-rule="evenodd"/>
</svg>