<svg xmlns="http://www.w3.org/2000/svg" width="200" height="200" viewBox="0 0 200 200" version="1.1">
	<path d="M 111.247 11.094 C 81.015 12.921, 47.535 17.705, 44.039 20.699 C 38.430 25.501, 44.881 30.244, 65 36.109 C 73.877 38.697, 74.205 38.882, 70 38.945 C 58.070 39.122, 32.569 44.590, 22.277 49.177 L 17.500 51.306 25 53.128 C 29.125 54.130, 37 55.453, 42.500 56.069 C 58.764 57.891, 58.371 57.639, 51.050 61.550 C 40.558 67.156, 36.296 72.434, 37.420 78.427 C 38.135 82.236, 43.765 87.920, 49.831 90.956 C 55.515 93.800, 68.173 97, 73.743 97 C 76.838 97, 78.041 97.375, 77.749 98.250 C 77.428 99.210, 72.475 99.430, 56.415 99.200 C 34.671 98.887, 29.728 99.462, 29.167 102.370 C 28.674 104.932, 30.565 106.696, 39.072 111.602 C 49.121 117.398, 56 123.457, 56 126.512 C 56 129.050, 52.879 131.979, 48.041 133.983 C 46.368 134.676, 45.003 135.526, 45.007 135.871 C 45.011 136.217, 50.145 137.500, 56.416 138.722 C 68.658 141.107, 76.633 143.782, 75.315 145.060 C 74.867 145.495, 70.900 147.266, 66.500 148.997 C 51.412 154.931, 46.099 159.564, 47.587 165.490 C 48.667 169.792, 58.032 177.254, 69.512 182.959 C 79.607 187.976, 80.506 188.242, 83.403 187.069 C 96.171 181.901, 105.233 181.240, 132.500 183.490 C 161.303 185.868, 169.416 184.873, 173.626 178.448 C 174.859 176.566, 175.121 174.667, 174.670 170.863 C 174.060 165.714, 168.004 152.078, 165.348 149.874 C 163.211 148.100, 145.527 152.517, 118.248 161.639 C 98.286 168.314, 95.466 169.021, 92.962 167.984 C 83.514 164.071, 94.059 154.147, 114.500 147.716 C 128.923 143.179, 140.692 142.383, 164.899 144.309 C 166.789 144.459, 167.785 143.586, 169.596 140.193 C 172.481 134.787, 171.713 132.200, 166.420 129.500 C 162.760 127.633, 161.076 127.533, 141 127.992 C 103.447 128.851, 92.918 128.578, 89.250 126.654 C 82.149 122.928, 87.462 114.023, 101.737 105.726 L 107.974 102.101 104.417 109.165 C 100.806 116.335, 99.857 121.257, 101.724 123.124 C 103.202 124.602, 109.393 125.839, 112.420 125.260 C 116.436 124.492, 115.455 123, 110.934 123 C 106.213 123, 103 121.561, 103 119.446 C 103 118.630, 106.430 111.363, 110.622 103.298 C 119.573 86.075, 122.839 77.106, 123.654 67.500 C 124.285 60.070, 122.869 50.890, 120.243 45.383 L 118.712 42.173 124.029 36.061 C 126.953 32.699, 129.830 30.109, 130.422 30.305 C 132.160 30.881, 136.693 42.804, 138.672 52 C 141.482 65.063, 141.246 95.335, 138.242 107.256 C 137.028 112.071, 135.127 117.791, 134.017 119.966 C 131.633 124.639, 131.585 125, 133.339 125 C 135.979 125, 140.549 112.087, 142.542 99 C 146.028 76.102, 142.683 47.112, 134.756 31.533 L 132.738 27.566 136.619 24.158 C 145.154 16.663, 156.749 13.749, 161.023 18.023 C 162.549 19.549, 162.808 20.491, 162.075 21.859 C 160.988 23.891, 154.757 29.670, 151.061 32.076 C 149.046 33.387, 148.511 34.812, 147.871 40.576 C 144.619 69.874, 151.385 118.083, 159.092 120.529 C 164.121 122.125, 167.360 117.668, 171.491 103.469 C 181.620 68.652, 179.463 30.564, 166.660 18.155 C 162.372 13.999, 156.398 12.064, 144.500 10.979 C 133.235 9.952, 129.962 9.963, 111.247 11.094 M 108.500 14.018 C 88.563 15.456, 73.057 17.283, 73.582 18.132 C 73.877 18.609, 77.129 19.005, 80.809 19.010 C 84.489 19.016, 92.896 19.494, 99.492 20.073 C 108.457 20.859, 112.548 20.826, 115.701 19.944 C 120.801 18.516, 123.863 19.172, 127.883 22.555 L 130.920 25.110 135.826 21.232 C 138.525 19.099, 142.255 16.719, 144.116 15.944 L 147.500 14.534 144.500 13.885 C 140.570 13.036, 121.128 13.107, 108.500 14.018 M 72.500 23.380 C 84.925 31.029, 87.947 33.259, 88.575 35.237 C 89.047 36.724, 88.764 37.746, 87.693 38.422 C 86.446 39.208, 87.297 39.781, 91.761 41.163 C 98.233 43.165, 98.521 43.037, 103.268 36.058 C 108.435 28.461, 109.457 28.324, 113.978 34.619 L 117.295 39.238 123.077 33.369 L 128.858 27.500 125.913 24.750 C 122.789 21.833, 118.437 21.160, 114.907 23.050 C 113.551 23.775, 109.331 23.790, 101.223 23.098 C 94.775 22.547, 84.775 21.832, 79 21.507 L 68.500 20.918 72.500 23.380 M 164.546 22.855 C 163.903 24.881, 157.324 31.318, 153.093 34.060 C 150.757 35.574, 150.672 36.081, 150.211 51.253 C 149.266 82.330, 154.983 118, 160.908 118 C 164.060 118, 168.142 107.774, 172.085 90 C 175.107 76.374, 175.822 52.166, 173.536 40.877 C 170.873 27.731, 166.060 18.083, 164.546 22.855 M 46.750 22.689 C 44.158 23.367, 44.608 24.594, 48.279 26.864 C 55.841 31.537, 83.601 38.743, 85.739 36.588 C 86.868 35.450, 81.837 31.796, 71.999 26.608 C 63.774 22.272, 62.823 22.007, 55.879 22.116 C 51.821 22.180, 47.712 22.438, 46.750 22.689 M 104.220 39.108 L 99.940 45.109 101.970 47.689 C 103.087 49.108, 104 51.082, 104 52.076 C 104 55.749, 105.793 54.756, 110.338 48.567 C 112.902 45.075, 115 41.934, 115 41.587 C 115 40.557, 109.787 32.995, 109.117 33.054 C 108.778 33.084, 106.574 35.808, 104.220 39.108 M 54 43.425 C 46.295 44.771, 32.366 48.189, 27.999 49.805 C 25.886 50.586, 26.522 50.886, 32.511 51.929 C 42.618 53.689, 54.680 54.984, 61 54.989 C 67.275 54.993, 86.767 50.300, 92 47.524 L 95.500 45.667 92 44.132 C 87.318 42.078, 64.170 41.647, 54 43.425 M 115.225 46.261 C 114.674 46.942, 111.756 50.954, 108.740 55.176 L 103.257 62.852 105.096 68.176 C 107.370 74.762, 107.495 81.143, 105.426 85.143 C 104.561 86.816, 104.010 88.343, 104.202 88.536 C 105.430 89.763, 112.298 94.036, 112.584 93.750 C 112.776 93.557, 114.090 90.783, 115.505 87.584 C 120.903 75.378, 122.447 61.235, 119.474 51.224 C 117.803 45.596, 116.753 44.370, 115.225 46.261 M 93 50.083 C 90.525 51.667, 88.142 52.971, 87.705 52.981 C 86.052 53.020, 72.349 62.959, 68.859 66.649 C 63.848 71.948, 63.274 74.365, 66.308 77.399 C 68.937 80.028, 84.871 85.598, 86.011 84.286 C 86.386 83.854, 90.025 78.340, 94.097 72.033 C 100.656 61.874, 101.500 60.024, 101.500 55.811 C 101.500 52.364, 100.950 50.526, 99.500 49.130 C 97.522 47.225, 97.450 47.236, 93 50.083 M 71 57.044 C 61.137 58.815, 47.061 65.762, 42.605 71.057 C 34.229 81.012, 48.554 91.469, 74.655 94.454 C 79.725 95.034, 79.846 94.985, 82.019 91.469 C 83.234 89.503, 84.064 87.749, 83.864 87.570 C 83.664 87.391, 80.814 86.473, 77.530 85.531 C 69.817 83.316, 64.333 80.490, 63.033 78.062 C 60.231 72.826, 63.112 67.120, 72.173 59.957 C 74.927 57.781, 76.802 56.053, 76.340 56.118 C 75.878 56.182, 73.475 56.599, 71 57.044 M 95.196 75.276 C 91.788 80.537, 89 85.052, 89 85.309 C 89 85.567, 90.688 86.083, 92.750 86.457 C 94.813 86.831, 97.480 87.371, 98.678 87.659 C 103.188 88.740, 105.606 77.361, 102.620 69.106 L 101.393 65.711 95.196 75.276 M 85.426 91.144 L 83.800 94.288 88.020 93.613 C 90.341 93.242, 93.371 92.345, 94.753 91.621 C 97.253 90.312, 97.242 90.298, 92.690 89.152 C 86.779 87.664, 87.299 87.521, 85.426 91.144 M 96.056 93.639 C 93.611 94.928, 89.390 96.277, 86.675 96.637 C 82.779 97.154, 81.425 97.841, 80.246 99.896 L 78.752 102.500 56.126 102.500 C 42.012 102.500, 33.329 102.876, 33.045 103.500 C 32.794 104.050, 36.365 106.750, 40.981 109.500 C 45.596 112.250, 51.539 116.555, 54.186 119.066 C 59.993 124.574, 60.448 127.706, 56.077 132.077 C 53.222 134.932, 53.205 135.012, 55.327 135.483 C 56.522 135.748, 60.598 136.656, 64.384 137.499 C 72.362 139.277, 77.615 141.554, 78.389 143.570 C 79.211 145.713, 75.501 148.574, 68.654 151.079 C 58.938 154.633, 53.175 157.804, 51.341 160.602 C 49.740 163.047, 49.748 163.377, 51.500 166.629 C 53.642 170.607, 61.151 175.838, 72.716 181.409 L 80.832 185.319 85.733 183.210 C 94.686 179.359, 105.972 178.676, 129.836 180.542 C 155.861 182.577, 164.785 182.305, 168.699 179.358 C 172.844 176.238, 172.626 168.847, 168.128 160 C 166.311 156.425, 164.442 153.101, 163.974 152.612 C 162.566 151.141, 145.038 155.708, 119.608 164.172 C 97.930 171.388, 95.443 172.012, 92.773 170.906 C 82.803 166.776, 85.840 158.010, 99.778 150.686 C 116.668 141.811, 142.660 138.074, 162.716 141.638 C 165.640 142.158, 166.087 141.886, 167.628 138.653 C 171.439 130.662, 164.790 129.295, 129.500 130.812 C 90.132 132.504, 81.205 130.450, 83.452 120.217 C 84.403 115.887, 91.452 108.480, 98.258 104.659 C 104.767 101.004, 109 97.586, 109 95.984 C 109 94.834, 105.218 92.372, 102.500 91.752 C 101.400 91.501, 98.500 92.350, 96.056 93.639" stroke="none" fill="black" fill-rule="evenodd"/>
</svg>