<svg xmlns="http://www.w3.org/2000/svg" width="200" height="200" viewBox="0 0 200 200" version="1.1">
	<path d="M 65.223 12.557 C 64 13.413, 63 14.728, 63 15.480 C 63 17.790, 67.824 22.733, 72.986 25.714 C 75.897 27.394, 77.612 28.992, 77.198 29.637 C 76.814 30.235, 72.186 30.945, 66.913 31.214 C 55.276 31.809, 47.100 34.972, 44.575 39.856 C 40.662 47.422, 48.270 52.348, 63.054 51.820 C 67.977 51.644, 72.004 51.748, 72.002 52.050 C 72.001 52.353, 69.584 55.096, 66.630 58.145 C 63.004 61.888, 60.554 65.575, 59.087 69.497 L 56.914 75.304 59.521 80.632 C 62.384 86.485, 67.093 90.899, 74 94.207 C 78.870 96.539, 79.961 97.618, 79.985 100.123 C 79.998 101.578, 78.167 101.694, 62.250 101.247 C 30.138 100.345, 8.551 105.579, 19.989 111.494 C 21.632 112.344, 30.838 115.022, 40.445 117.444 C 65.506 123.764, 68.022 125.380, 57.038 128.100 C 51.026 129.589, 50.514 129.936, 49.704 133.063 C 48.576 137.417, 50.824 142.341, 54.903 144.450 C 61.105 147.657, 74.781 148.389, 92.806 146.479 C 96.987 146.036, 97.156 146.131, 98.651 149.761 C 99.498 151.818, 102.869 159.125, 106.142 166 L 112.093 178.500 103.898 170.134 C 93.882 159.909, 88.030 156, 82.738 156 C 78.134 156, 76.483 156.814, 68.157 163.192 C 59.836 169.566, 56.092 171.055, 46.686 171.732 L 38.873 172.295 43.069 176.570 C 53.506 187.204, 69.693 190.004, 100.500 186.503 L 113.500 185.025 115.538 187.513 C 118.262 190.839, 120.151 190.722, 119.788 187.250 L 119.500 184.500 130.336 184.215 C 136.296 184.059, 143.721 184.402, 146.836 184.979 C 151.765 185.892, 152.661 185.809, 153.737 184.340 C 156.144 181.058, 156.426 175.830, 154.399 172.069 C 152.542 168.622, 148.975 166.123, 132.888 157 C 129.494 155.075, 124.666 151.700, 122.160 149.500 L 117.603 145.500 122.051 145 C 124.498 144.725, 131 144.807, 136.500 145.182 C 142 145.556, 146.857 145.514, 147.294 145.088 C 147.730 144.661, 146.107 142.689, 143.685 140.705 C 141.264 138.722, 138.716 135.729, 138.023 134.055 C 135.598 128.201, 139.743 124.865, 160.442 116.017 C 173.954 110.240, 184.278 104.333, 183.730 102.690 C 183.527 102.082, 181.593 101.477, 179.431 101.345 C 172.867 100.944, 169.308 100.042, 161.965 96.917 C 156.720 94.685, 139.970 85.603, 137.237 83.509 C 137.092 83.398, 137.655 81.677, 138.487 79.686 C 140.245 75.478, 140.430 69.088, 138.947 63.750 C 138.143 60.854, 137.400 60, 135.683 60 C 132.406 60, 118.854 56.105, 116.250 54.414 C 115.013 53.611, 114 52.064, 114 50.977 C 114 49.122, 114.712 49, 125.539 49 C 139.808 49, 155.475 47.323, 159.199 45.397 C 160.739 44.601, 162 43.130, 162 42.129 C 162 38.397, 156.734 35.516, 136.976 28.439 C 125.694 24.397, 123.125 23.095, 121.476 20.579 C 117.399 14.357, 106.726 10.932, 97.711 12.953 C 94.398 13.695, 91.271 13.573, 85.538 12.476 C 75.485 10.552, 68.042 10.582, 65.223 12.557 M 66.514 14.977 C 65.624 16.418, 69.775 20.703, 75 23.738 L 78.500 25.771 83.170 20.895 C 85.942 17.999, 87.408 15.752, 86.778 15.363 C 86.194 15.002, 81.567 14.489, 76.497 14.224 C 69.817 13.875, 67.067 14.082, 66.514 14.977 M 99.500 15.487 C 102.343 16.902, 119 21.670, 119 21.069 C 119 19.169, 110.425 15.769, 104.685 15.394 C 101.283 15.171, 98.950 15.213, 99.500 15.487 M 88.251 19.933 C 83.464 23.401, 81.174 26.803, 83.207 27.427 C 83.918 27.645, 86.075 28.337, 88 28.964 C 93.433 30.733, 106.957 31.386, 111.655 30.106 C 113.941 29.483, 116.855 28.128, 118.132 27.094 L 120.453 25.215 109.477 21.740 C 92.745 16.444, 93.033 16.469, 88.251 19.933 M 121.300 27.250 C 119.776 29.632, 116.866 31.344, 112.194 32.605 C 107.693 33.821, 107.829 33.845, 115.500 33.187 C 119.900 32.809, 126.200 32.500, 129.500 32.500 C 134.833 32.500, 135.500 32.722, 135.500 34.500 C 135.500 35.978, 133.500 37.544, 127.833 40.500 C 123.616 42.700, 119.791 44.897, 119.333 45.382 C 118.171 46.611, 150.598 45.368, 155.250 44.005 C 162.471 41.889, 159.826 39.987, 138.418 31.907 C 129.812 28.658, 122.620 26, 122.435 26 C 122.250 26, 121.740 26.563, 121.300 27.250 M 79.660 30.444 C 79.363 31.218, 81.287 32.072, 85.100 32.860 C 89.195 33.705, 91 34.546, 91 35.607 C 91 36.606, 90.395 36.943, 89.250 36.582 C 88.287 36.277, 85.374 35.632, 82.775 35.148 C 77.415 34.149, 77.505 34.043, 76.083 43.036 C 75.305 47.962, 75.355 48.135, 77.387 47.468 C 78.549 47.086, 87.420 46.487, 97.101 46.137 C 109.821 45.677, 115.161 45.117, 116.359 44.120 C 117.271 43.361, 121.276 41.011, 125.259 38.897 L 132.500 35.053 128.500 35.034 C 126.300 35.024, 120.675 35.459, 116 36.001 C 109.151 36.796, 107.305 36.725, 106.494 35.636 C 105.932 34.881, 102.404 33.955, 98.494 33.537 C 94.647 33.125, 88.939 31.991, 85.810 31.017 C 81.567 29.697, 80.002 29.551, 79.660 30.444 M 54.220 36.133 C 48.729 38.243, 45.350 41.864, 46.376 44.537 C 47.539 47.569, 53.598 49.090, 63.306 48.787 L 72.500 48.500 73.074 44.500 C 73.390 42.300, 73.988 39.038, 74.404 37.250 L 75.159 34 67.329 34.052 C 61.969 34.088, 57.835 34.744, 54.220 36.133 M 81.500 49.402 L 76.500 50.683 84 51.100 C 93.157 51.609, 100.788 55.010, 106.764 61.248 C 109.005 63.586, 111.887 66.562, 113.169 67.860 C 114.451 69.157, 119.775 72.848, 125 76.060 L 134.500 81.900 135.705 79.200 C 137.034 76.222, 137.394 66.150, 136.235 64.376 C 135.831 63.757, 131.728 62.301, 127.117 61.140 C 116.496 58.465, 112.769 56.329, 111.543 52.212 C 110.601 49.048, 110.494 49, 104.440 49 C 101.059 49, 95.640 48.802, 92.397 48.560 C 89.154 48.319, 84.250 48.697, 81.500 49.402 M 78 53.866 C 75.579 54.603, 75.510 54.869, 75.814 62.274 C 76.143 70.283, 80.277 92.677, 81.687 94.087 C 82.137 94.537, 85.834 95.422, 89.903 96.053 C 98.454 97.380, 107.730 96.636, 116.526 93.919 C 123.202 91.857, 132 86.529, 132 84.547 C 132 83.851, 128.299 81.005, 123.776 78.221 L 115.552 73.160 114.356 76.005 C 112.211 81.105, 109.002 82.353, 99.714 81.698 C 95.196 81.380, 89.813 80.621, 87.750 80.013 C 84.346 79.008, 84 78.585, 84 75.421 C 84 70.803, 86.238 65.647, 89.117 63.631 C 92.181 61.485, 95.804 61.573, 102.775 63.963 L 108.500 65.925 104.562 62.444 C 96.937 55.704, 84.815 51.789, 78 53.866 M 67.527 60.540 C 65.660 62.579, 63.152 66.661, 61.955 69.612 L 59.777 74.977 62.138 79.738 C 64.464 84.427, 72.132 91.278, 76.263 92.359 C 77.912 92.790, 78.085 92.483, 77.498 90.180 C 75.276 81.476, 73.891 73.511, 73.333 66.216 C 72.984 61.659, 72.298 57.684, 71.810 57.383 C 71.322 57.081, 69.394 58.502, 67.527 60.540 M 89.161 67.523 C 86.475 70.938, 86.238 76.635, 88.750 77.395 C 89.713 77.686, 93.411 78.382, 96.969 78.942 C 107.619 80.617, 113.378 77.916, 111.535 72.109 C 110.777 69.722, 101.945 65.835, 95.911 65.234 C 91.826 64.827, 91.083 65.078, 89.161 67.523 M 131.924 88.631 C 128.802 92.021, 119.161 96.617, 112.100 98.083 C 108.917 98.744, 101.551 99.052, 94.749 98.810 C 84.449 98.442, 82.966 98.588, 83.225 99.944 C 83.455 101.151, 85.199 101.572, 91.011 101.820 C 106.525 102.484, 151.472 98.861, 153.555 96.779 C 153.994 96.340, 136.396 86, 135.210 86 C 134.736 86, 133.258 87.184, 131.924 88.631 M 148 104.603 C 143.325 107.583, 133.040 113.265, 125.144 117.229 L 110.788 124.435 111.387 128.808 C 111.717 131.213, 112.864 135.165, 113.937 137.591 L 115.888 142 128.635 142 C 138.990 142, 141.092 141.765, 139.837 140.750 C 137.028 138.477, 135 134.599, 135 131.500 C 135 125.255, 138.742 122.487, 159.399 113.447 C 166.452 110.361, 173.635 106.974, 175.361 105.922 C 178.264 104.152, 178.325 104.007, 176.176 104.004 C 174.898 104.002, 170.501 102.875, 166.405 101.500 C 162.309 100.125, 158.405 99.041, 157.729 99.092 C 157.053 99.142, 152.675 101.622, 148 104.603 M 140 102.120 C 133.247 103.188, 89.539 104.954, 86.904 104.265 C 85.720 103.955, 85 104.282, 85 105.130 C 85 106.432, 89.935 122.106, 90.584 122.864 C 90.755 123.065, 93.506 120.995, 96.698 118.265 C 99.889 115.535, 104.669 111.840, 107.320 110.054 L 112.140 106.808 111.436 113.950 L 110.732 121.093 116.616 118.496 C 128.264 113.356, 150.019 100.931, 147 101.144 C 146.175 101.202, 143.025 101.641, 140 102.120 M 40.932 104.216 C 31.124 105.161, 21.098 107.032, 20.480 108.033 C 19.849 109.053, 25.537 110.862, 45.500 115.991 C 61.466 120.092, 65.592 121.774, 66.687 124.625 C 67.545 126.863, 65.630 128.274, 58.714 130.500 C 51.837 132.713, 50.470 135.015, 53.387 139.469 C 56.070 143.563, 61.003 144.513, 78.806 144.361 C 87.774 144.284, 95.303 144.030, 95.537 143.797 C 95.771 143.563, 94.551 140.025, 92.827 135.936 C 91.103 131.846, 87.786 123.100, 85.455 116.500 L 81.219 104.500 64.791 104 C 55.756 103.725, 45.019 103.822, 40.932 104.216 M 102 117.330 C 91.778 125.375, 91.567 127.197, 101.189 124.328 L 107.500 122.446 108.046 117.723 C 108.346 115.125, 108.346 113, 108.046 113.001 C 107.746 113.001, 105.025 114.949, 102 117.330 M 103.552 126.659 C 101.381 127.415, 98.114 128.138, 96.293 128.266 C 93.827 128.440, 93.123 128.883, 93.531 130 C 93.833 130.825, 95.072 134.088, 96.285 137.250 L 98.490 143 103.495 142.986 C 110.353 142.968, 113.331 142.104, 112.014 140.517 C 111.448 139.835, 110.201 136.130, 109.243 132.282 L 107.500 125.287 103.552 126.659 M 103.775 145.892 L 100.051 146.500 104.870 157 C 107.521 162.775, 111.328 170.738, 113.330 174.695 L 116.970 181.890 127.235 181.318 C 132.934 181, 140.596 181.233, 144.462 181.840 C 152.313 183.073, 152.959 182.715, 152.985 177.118 C 153.004 172.867, 148.969 168.841, 139.926 164.090 C 129.682 158.706, 120.182 152.105, 117.366 148.413 C 114.602 144.790, 112.695 144.436, 103.775 145.892 M 78.500 159.425 C 76.850 160.139, 73.250 162.597, 70.500 164.887 C 64.116 170.202, 58.725 172.801, 51.168 174.206 L 45.145 175.326 47.520 177.194 C 48.826 178.222, 52.506 180.262, 55.698 181.728 C 60.687 184.020, 63.180 184.455, 73.500 184.832 C 85.540 185.272, 111 183.374, 111 182.036 C 111 180.629, 94.419 164.219, 90.500 161.747 C 85.255 158.440, 82.161 157.841, 78.500 159.425" stroke="none" fill="black" fill-rule="evenodd"/>
</svg>