<svg xmlns="http://www.w3.org/2000/svg" width="200" height="200" viewBox="0 0 200 200" version="1.1">
	<path d="M 92.557 2.937 C 91.145 4.498, 90.881 5.852, 91.380 8.974 C 91.734 11.189, 91.639 13, 91.168 13 C 90.698 13, 87.697 12.100, 84.500 11 C 69.416 5.810, 59.453 11.756, 68.913 20.303 C 74.067 24.959, 80.818 28.353, 91.206 31.510 L 99.500 34.031 70.750 33.706 C 48.855 33.458, 42 33.667, 42 34.582 C 42 36.155, 74.975 37.522, 91.057 36.617 L 102.613 35.966 104.360 39.629 C 106.686 44.506, 105.726 45.273, 96.235 46.120 C 91.981 46.500, 82.776 47.341, 75.780 47.987 C 56.833 49.739, 45.466 47.431, 37.831 40.281 C 36.342 38.886, 34.648 38.099, 33.999 38.500 C 32.079 39.687, 37.560 44.524, 44.349 47.633 C 49.870 50.162, 51.780 50.482, 63 50.759 C 69.875 50.928, 81.096 50.481, 87.935 49.764 C 100.245 48.473, 100.391 48.482, 102.563 50.653 C 103.769 51.860, 106.560 53.387, 108.766 54.048 C 112.440 55.149, 113.171 55.996, 117.457 64.125 C 120.030 69.006, 121.866 73, 121.535 73 C 119.313 73, 110.328 67.235, 106.312 63.233 C 94.198 51.158, 78.235 49.879, 66.672 60.057 C 56.632 68.895, 56.492 84.079, 66.371 92.752 C 73.480 98.994, 83.074 102.366, 97 103.518 C 106.190 104.277, 118.671 102.213, 126.468 98.643 L 131.991 96.115 132.578 98.456 C 132.901 99.743, 133.016 101.855, 132.833 103.148 C 132.542 105.201, 131.991 105.481, 128.500 105.348 C 126.300 105.264, 100.088 105.029, 70.250 104.824 C 16.334 104.456, 16 104.466, 16.004 106.477 C 16.009 109.424, 19.314 114.375, 23.310 117.423 C 28.361 121.276, 36.437 123.803, 50.690 125.991 C 57.599 127.051, 63.492 128.159, 63.785 128.451 C 64.535 129.202, 51.768 134.924, 36.750 140.568 C 28.612 143.627, 24 145.876, 24 146.787 C 24 147.739, 24.582 147.987, 25.750 147.532 C 31.788 145.179, 40.100 143.814, 45.673 144.262 C 56.981 145.170, 61.132 149.488, 67.531 167 C 71.694 178.394, 75.879 184, 80.221 184 C 81.552 184, 85.071 182.762, 88.040 181.250 C 95.778 177.308, 96.281 174.929, 95.532 145.847 C 95.021 125.990, 95.145 122.998, 96.534 121.609 C 97.969 120.174, 98.471 120.169, 101.810 121.558 C 109.917 124.929, 121 134.121, 121 137.473 C 121 142.244, 116.785 153.124, 109.015 168.408 C 104.607 177.080, 101 184.755, 101 185.465 C 101 186.175, 101.563 187.222, 102.250 187.792 C 104.207 189.417, 108.500 187.120, 120.384 178.088 L 131.113 169.935 137.193 175.437 C 140.537 178.463, 145.261 181.698, 147.689 182.625 C 151.935 184.247, 152.207 184.236, 154.749 182.338 C 156.203 181.253, 157.724 179.125, 158.129 177.610 C 160.418 169.051, 152.360 149.013, 142.058 137.645 C 138.726 133.968, 136 130.327, 136 129.553 C 136 127.383, 140.734 124.157, 146.388 122.474 C 149.199 121.637, 157.746 119.819, 165.381 118.434 C 183.866 115.081, 187.861 112.899, 183.216 108.695 C 180.862 106.565, 171.653 102.532, 164.351 100.433 C 160.067 99.201, 156.400 97.043, 150.659 92.374 C 146.346 88.867, 142.219 85.660, 141.488 85.249 C 140.437 84.657, 140.380 83.536, 141.216 79.887 C 143.707 69.026, 138.372 61.603, 124.130 56.110 C 119.694 54.400, 115.672 53, 115.193 53 C 114.713 53, 113.813 51.886, 113.193 50.524 L 112.064 48.047 116.782 48.641 C 119.377 48.968, 124.570 50.239, 128.323 51.466 L 135.145 53.696 143.625 50.847 C 157.169 46.295, 160.933 43.595, 159.379 39.546 C 158.440 37.099, 151.317 33.335, 139.527 29.055 C 133.651 26.922, 128.572 24.905, 128.239 24.572 C 127.906 24.239, 128.155 23.445, 128.794 22.806 C 130.935 20.665, 105.089 3.151, 97.439 1.561 C 95.103 1.075, 93.947 1.401, 92.557 2.937 M 94.070 7.250 C 94.209 13.656, 94.782 14.085, 110.035 19.183 C 118.043 21.859, 124.792 23.608, 125.271 23.129 C 127.384 21.016, 101.234 4.091, 95.750 4.022 C 94.424 4.005, 94.017 4.787, 94.070 7.250 M 68.474 13.396 C 66.644 14.734, 66.708 14.926, 70.033 18.058 C 75.403 23.118, 96.485 31.848, 98.491 29.842 C 98.781 29.553, 97.706 26.422, 96.102 22.886 L 93.187 16.456 85.614 14.228 C 76.923 11.671, 71.212 11.393, 68.474 13.396 M 97.944 20.352 C 98.483 21.771, 99.881 24.807, 101.051 27.099 L 103.177 31.266 109.109 30.646 C 114.965 30.034, 123.146 26.795, 121.400 25.780 C 120.905 25.493, 115.902 23.841, 110.281 22.109 C 104.661 20.378, 99.365 18.694, 98.513 18.366 C 97.219 17.870, 97.125 18.198, 97.944 20.352 M 120.500 30.084 C 115.509 32.922, 115.506 32.927, 119 32.491 C 120.925 32.251, 125.650 31.760, 129.500 31.401 L 136.500 30.746 133 29.516 C 126.337 27.174, 125.553 27.209, 120.500 30.084 M 128.500 37.914 C 107.620 45.108, 107.210 45.411, 117.250 46.246 C 120.688 46.532, 126.091 47.686, 129.257 48.810 L 135.014 50.854 144.006 47.838 C 148.952 46.179, 154.011 43.962, 155.249 42.912 C 157.490 41.010, 157.491 40.994, 155.500 39.389 C 153.840 38.050, 143.454 32.895, 142.721 33.046 C 142.600 33.071, 136.200 35.262, 128.500 37.914 M 117 35.230 C 111.225 35.750, 106.351 36.323, 106.169 36.503 C 105.889 36.778, 107.686 40.804, 108.545 41.826 C 108.695 42.005, 113.247 40.497, 118.659 38.476 C 127.818 35.054, 130.648 33.797, 128.417 34.142 C 127.913 34.219, 122.775 34.709, 117 35.230 M 104.439 48.902 C 104.746 49.397, 106.351 50.275, 108.007 50.853 C 110.817 51.832, 110.948 51.772, 109.974 49.951 C 109.362 48.808, 107.885 48, 106.406 48 C 105.018 48, 104.133 48.406, 104.439 48.902 M 75.422 57.418 C 70.902 59.387, 64.898 64.999, 63.351 68.702 C 61.182 73.893, 61.614 82.132, 64.261 86.060 C 67.777 91.277, 74.457 95.773, 82.316 98.213 C 96.496 102.615, 121.199 100.518, 128.932 94.256 L 131.105 92.496 127.869 85.170 C 124.815 78.255, 124.307 77.679, 118.835 74.917 L 113.037 71.990 113.616 76.245 C 114.627 83.678, 109.267 88.305, 98.194 89.558 L 92.015 90.257 88.877 83.552 C 81.916 68.675, 86.749 61.891, 101.912 65.257 L 105.323 66.015 103.412 63.866 C 102.360 62.685, 98.800 60.432, 95.500 58.860 C 88.780 55.659, 80.782 55.084, 75.422 57.418 M 121.602 66.238 C 125.904 74.898, 126.785 76.002, 131.770 78.984 C 138.113 82.778, 138.960 82.285, 138.985 74.785 C 138.997 70.936, 138.436 69.427, 135.932 66.575 C 132.887 63.107, 125.081 58.708, 119.696 57.424 L 116.892 56.756 121.602 66.238 M 89.471 68.672 C 87.392 70.751, 88.052 75.996, 91.211 82.496 C 93.095 86.375, 93.822 86.999, 96.449 86.994 C 101.051 86.986, 106.894 85.106, 109.065 82.935 C 111.224 80.776, 111.576 76.358, 109.885 72.647 C 107.863 68.209, 92.856 65.287, 89.471 68.672 M 129.253 81.620 C 129.546 82.104, 130.516 84.262, 131.411 86.416 C 132.953 90.130, 133.111 90.233, 134.487 88.416 C 137.011 85.080, 136.524 84.354, 129.611 81.152 C 129.122 80.926, 128.961 81.136, 129.253 81.620 M 136.296 90.429 C 134.465 93.255, 134.253 94.396, 135.046 97.160 C 137.308 105.047, 135.362 108.529, 128.855 108.240 C 111.417 107.464, 19 107.584, 19 108.382 C 19 108.910, 21.017 111.275, 23.482 113.637 C 28.793 118.726, 35.800 121.119, 52.388 123.509 C 58.376 124.371, 64.113 125.526, 65.138 126.074 C 69.721 128.527, 66.197 131.680, 52.647 137.250 L 44.795 140.477 50.815 142.250 C 59.012 144.664, 64.701 150.917, 68.550 161.742 C 74.677 178.974, 75.984 181, 80.974 181 C 83.995 181, 90.634 177.396, 91.429 175.325 C 93.431 170.106, 93.961 157.563, 92.856 141.500 C 91.796 126.095, 91.844 124.195, 93.369 121.250 C 94.749 118.585, 95.642 118, 98.335 118 C 102.185 118, 110.941 122.998, 118.692 129.620 C 122.882 133.199, 124 134.777, 124 137.109 C 124 142.154, 120.266 151.860, 111.820 168.764 C 107.352 177.710, 103.912 185.245, 104.176 185.510 C 104.767 186.101, 116.997 177.741, 124.590 171.556 C 127.666 169.050, 130.609 167, 131.130 167 C 131.651 167, 133.972 168.856, 136.289 171.124 C 141.796 176.517, 148.800 181, 151.721 181 C 161.003 181, 152.882 152.752, 139.542 138.636 C 128.177 126.611, 133.081 121.555, 161 116.510 C 176.645 113.684, 182 112.293, 182 111.059 C 182 109.993, 171.990 105.630, 163.884 103.162 C 158.787 101.610, 155.245 99.524, 148.452 94.074 C 143.603 90.183, 139.380 87.006, 139.068 87.012 C 138.755 87.019, 137.508 88.556, 136.296 90.429" stroke="none" fill="black" fill-rule="evenodd"/>
</svg>