<svg xmlns="http://www.w3.org/2000/svg" width="200" height="200" viewBox="0 0 200 200" version="1.1">
	<path d="M 151 14.938 C 145.775 17.008, 140.298 19.194, 138.829 19.796 C 136.490 20.754, 135.967 20.598, 134.616 18.537 C 133.271 16.484, 133.260 16.029, 134.526 14.978 C 137.148 12.803, 135.004 12, 126.573 12 C 117.543 12, 83.158 15.223, 68.176 17.474 C 63.042 18.245, 58.201 18.631, 57.420 18.331 C 56.639 18.031, 56 18.232, 56 18.776 C 56 19.321, 55.100 20.002, 54 20.290 C 51.685 20.895, 51.267 24, 53.500 24 C 54.469 24, 55.001 24.974, 55.004 26.750 C 55.010 31.221, 58.579 35.919, 63.777 38.299 C 70.523 41.387, 85.867 41.328, 94.778 38.178 C 99.602 36.474, 101.518 36.207, 103.049 37.026 C 104.970 38.054, 104.936 38.183, 102.133 40.541 C 99.283 42.940, 98.745 43.003, 75.612 43.654 C 55.636 44.217, 52 44.549, 52 45.812 C 52 47.112, 54.818 47.215, 73.750 46.610 L 95.500 45.915 91 50.411 L 86.500 54.907 70.156 55.976 C 41.785 57.830, 32.749 55.322, 36.392 46.604 C 37.732 43.396, 37.612 42, 35.994 42 C 34.915 42, 33 46.868, 33 49.613 C 33 56.835, 38.311 58.986, 56.270 59.039 C 68.581 59.076, 69.273 59.177, 66.234 60.498 C 61.416 62.591, 52.455 71.501, 50.076 76.563 C 46.524 84.118, 47.428 91.166, 52.612 96.343 C 56.603 100.328, 60.164 101.981, 70.500 104.642 C 80.095 107.113, 89.740 107.587, 96.888 105.939 C 108.461 103.271, 119.240 95.176, 122.465 86.730 C 126.916 75.077, 119.210 66.460, 99.993 61.603 C 90.987 59.326, 90.850 59.248, 93.975 58.159 C 96.305 57.346, 99.250 57.338, 104.836 58.129 C 118.799 60.106, 134 57.517, 134 53.162 C 134 49.831, 130.825 47.108, 121.086 42.086 L 111.672 37.232 115.639 34.728 C 121.739 30.877, 134.142 24.809, 134.724 25.391 C 136.079 26.745, 139.060 40.333, 140.097 49.875 C 141.289 60.852, 140.722 80.555, 138.971 88.943 C 137.518 95.902, 134.754 105, 134.092 105.004 C 133.766 105.006, 125.400 106.102, 115.500 107.440 C 87.958 111.161, 70.371 112.338, 53 111.623 C 44.475 111.272, 35.886 110.717, 33.913 110.388 C 30.569 109.832, 30.214 110.028, 28.663 113.297 C 26.396 118.076, 26.575 121.265, 29.250 123.701 C 33.135 127.239, 35.471 127.949, 52.983 130.912 C 70.216 133.827, 73 134.812, 73 137.995 C 73 139.664, 67.524 145.216, 61.653 149.500 L 58.912 151.500 60.567 157 C 62.409 163.119, 66.006 170.405, 68.755 173.588 C 72.561 177.995, 80.165 182.895, 86.696 185.151 C 93.286 187.426, 94.489 187.499, 125 187.465 C 142.325 187.446, 158.635 187.081, 161.245 186.655 C 166.816 185.744, 172 181.841, 172 178.557 C 172 177.311, 170.872 175.075, 169.493 173.587 C 160.810 164.217, 140.456 164.398, 126.547 173.968 L 121.930 177.144 117.429 174.965 C 110.774 171.744, 102.482 163.685, 99.455 157.497 C 93.786 145.911, 95.323 134.407, 103.499 127.210 C 108.748 122.590, 113.041 121.088, 123.227 120.309 C 130.214 119.774, 131.013 119.899, 131.569 121.609 C 133.541 127.675, 139.618 138.471, 143.476 142.763 C 150.913 151.034, 156.632 151.972, 161.413 145.703 C 165.985 139.709, 167.080 132.705, 168.168 102.500 C 169.809 56.900, 168.403 22.729, 164.475 12.750 C 163.529 10.347, 161.935 10.606, 151 14.938 M 148.831 18.663 L 137.162 23.209 138.624 27.351 C 145.253 46.141, 144.790 87.300, 137.761 104.045 L 136.273 107.590 115.231 110.306 C 83.507 114.399, 65.074 115.450, 47.407 114.171 C 33.776 113.185, 32.389 113.239, 31.208 114.796 C 30.497 115.732, 30.047 117.579, 30.208 118.900 C 30.758 123.426, 34.622 124.977, 53.093 128.089 C 71.780 131.237, 75.258 132.663, 75.822 137.408 C 76.072 139.510, 75.173 141.071, 71.822 144.358 C 69.445 146.689, 66.254 149.475, 64.732 150.549 L 61.963 152.502 64.089 158.798 C 69.627 175.197, 79.668 182.435, 100.399 184.972 C 111.983 186.391, 160.505 184.839, 164.408 182.925 C 171.060 179.664, 170.403 176.012, 162.446 172.025 C 158.527 170.061, 155.956 169.545, 150.003 169.525 C 140.318 169.493, 133.221 172.139, 123.464 179.423 C 121.383 180.977, 110.999 175.126, 104.716 168.860 C 96.771 160.937, 93.591 153.852, 93.559 144 C 93.539 138.164, 94.022 135.581, 95.732 132.357 C 98.602 126.951, 105.115 121.450, 110.891 119.555 C 120.904 116.269, 134 116.346, 134 119.690 C 134 120.570, 135.618 124.654, 137.595 128.764 C 141.966 137.853, 150.313 147, 154.234 147 C 159.953 147, 163.501 138.110, 165.010 120 C 166.307 104.430, 166.258 39.048, 164.941 29.322 C 163.688 20.066, 162.200 13.977, 161.211 14.058 C 160.820 14.090, 155.249 16.162, 148.831 18.663 M 100 16.525 C 75.626 19.028, 65.948 20.281, 66.526 20.859 C 66.848 21.181, 70.349 21.314, 74.306 21.153 C 82.434 20.824, 95.982 23.272, 100.500 25.887 C 102.863 27.255, 103.512 28.334, 103.554 30.968 C 103.641 36.309, 106.876 36.823, 113.857 32.605 C 116.961 30.729, 122.537 27.705, 126.250 25.883 C 129.963 24.061, 133 22.174, 133 21.690 C 133 21.205, 132.069 19.502, 130.932 17.904 C 128.923 15.083, 128.631 15.003, 120.682 15.121 C 116.182 15.187, 106.875 15.819, 100 16.525 M 58 26.865 C 58 34.329, 66.932 38.576, 80.900 37.754 C 85.630 37.475, 91.055 36.604, 92.955 35.819 L 96.410 34.390 81.455 29.178 C 72.373 26.013, 64.831 23.973, 62.250 23.983 C 58.243 23.999, 58 24.164, 58 26.865 M 87.500 28.302 C 95.699 31.283, 99.900 32.359, 100.762 31.700 C 104.125 29.129, 94.591 25.343, 82.520 24.455 L 75.500 23.939 87.500 28.302 M 105.926 41.091 L 103.500 42.956 106.168 42.978 C 110.118 43.011, 112 43.992, 112 46.018 C 112 48.036, 107.211 52.455, 103.755 53.626 C 101.608 54.354, 101.643 54.423, 104.500 55.077 C 111.537 56.688, 128.646 55.687, 130.794 53.539 C 132.173 52.161, 128.928 49.308, 121.393 45.276 C 110.028 39.193, 108.820 38.866, 105.926 41.091 M 95 50.500 C 90.980 54.596, 90.791 55, 92.896 55 C 95.533 55, 109 48.206, 109 46.876 C 109 46.394, 106.844 46, 104.208 46 C 99.850 46, 99.017 46.407, 95 50.500 M 67.398 63.395 C 54.749 69.285, 47.729 82.774, 52.506 92.011 C 56.831 100.376, 82.935 106.787, 97.119 102.968 C 111.880 98.993, 121.923 89.024, 120.681 79.577 C 119.678 71.943, 108.265 65.067, 92.635 62.679 C 89.053 62.132, 88.880 62.214, 90.269 63.794 C 91.093 64.732, 92.763 67.480, 93.980 69.899 C 95.831 73.579, 96.079 75.212, 95.496 79.881 C 93.997 91.873, 89.208 97.572, 82.845 94.936 C 75.591 91.931, 73.856 78.390, 79.233 66.750 L 81.889 61 77.195 61.010 C 74.369 61.016, 70.469 61.965, 67.398 63.395 M 82.659 65.750 C 78.613 73.744, 77.667 83.521, 80.423 88.852 C 82.013 91.927, 85.874 93.814, 87.950 92.531 C 92.053 89.995, 94.286 76.432, 91.506 70.938 C 89.595 67.161, 86.106 63, 84.851 63 C 84.411 63, 83.425 64.237, 82.659 65.750" stroke="none" fill="black" fill-rule="evenodd"/>
</svg>