<svg xmlns="http://www.w3.org/2000/svg" width="200" height="200" viewBox="0 0 200 200" version="1.1">
	<path d="M 93.500 10.085 C 79.282 11.463, 63.787 13.880, 55.373 16.032 C 43.146 19.160, 39.554 22.499, 44.159 26.460 C 46.101 28.130, 46.423 28.967, 45.618 30.244 C 44.028 32.765, 47.346 35.683, 53.349 37.045 C 56.182 37.688, 67.637 38.452, 78.805 38.743 C 96.961 39.217, 99.041 39.444, 98.465 40.887 C 98.111 41.774, 97.572 45.987, 97.267 50.250 C 96.626 59.240, 97.978 58.645, 82.314 56.833 C 72.337 55.679, 72.158 55.613, 73.564 53.605 C 75.924 50.235, 75.379 45.443, 72.365 43.073 C 67.083 38.918, 46.325 40.977, 35.812 46.699 C 26.837 51.584, 28.664 56.782, 40.168 59.091 L 45.837 60.228 42.467 66.364 C 35.057 79.859, 37.747 88.490, 50.120 90.920 C 54.375 91.756, 54.300 91.785, 47.500 91.934 C 33.383 92.243, 26.773 94.978, 26.194 100.750 C 25.583 106.842, 35.838 115.085, 50.286 120.114 C 54.804 121.687, 60.376 122.979, 62.668 122.987 C 69.593 123.009, 70.094 123.520, 67.633 128.054 C 65.512 131.962, 65.466 131.984, 59.405 131.992 C 54.573 131.998, 52.935 131.585, 51.500 130 C 49.208 127.468, 46.317 127.427, 45.526 129.917 C 44.541 133.021, 47.695 144.488, 51.959 153.307 C 59.646 169.206, 70.850 180.797, 82.165 184.555 C 89.259 186.911, 99.187 186.122, 106.316 182.634 L 111.709 179.995 119.172 183.444 C 134.144 190.361, 148.499 192.755, 155.393 189.484 C 162.564 186.081, 164.040 177.082, 158.999 167.499 L 155.999 161.795 160.511 156.777 C 162.992 154.017, 165.289 150.698, 165.614 149.402 C 166.081 147.541, 167.431 146.702, 172.035 145.410 C 181.292 142.813, 184.150 138.756, 178.527 136.194 C 175.641 134.879, 166.948 133.354, 157.270 132.465 C 150.087 131.805, 150.033 131.778, 149.098 128.394 C 148.581 126.520, 146.752 123.212, 145.034 121.043 L 141.911 117.100 143.039 93.561 C 144.497 63.139, 145.802 58.625, 145.914 83.614 C 146.008 104.546, 147.020 112.464, 149.978 115.422 C 151.603 117.048, 152.319 117.176, 154.420 116.218 C 160.154 113.606, 171.217 94.224, 173.070 83.544 C 174.585 74.814, 173.790 60.689, 171.017 47.085 C 165.135 18.218, 154.632 10.410, 148.007 29.979 L 146.253 35.161 145.558 31.331 C 145.175 29.224, 143.779 25.106, 142.454 22.180 C 140.257 17.325, 140.178 16.659, 141.546 14.571 C 142.894 12.513, 142.876 12.142, 141.372 10.891 C 139.357 9.216, 107.917 8.687, 93.500 10.085 M 114 11.611 C 81.590 13.214, 50.763 18.169, 46.134 22.519 C 44.991 23.593, 45.162 24.060, 47.181 25.383 C 49.403 26.839, 49.994 26.810, 54.712 25.018 C 74.065 17.664, 114.013 15.439, 125.640 21.068 C 131.341 23.828, 133.798 28.273, 132.183 32.906 C 131.212 35.690, 131.507 36.799, 134.938 43.262 C 137.051 47.243, 139.598 52.975, 140.598 56 L 142.416 61.500 143.458 53 C 145.051 40.004, 142.672 26.217, 137.529 18.637 L 135.013 14.931 137.178 14.130 C 138.368 13.690, 138.928 13.077, 138.421 12.769 C 137.100 11.965, 121.651 11.233, 114 11.611 M 91.500 20.612 C 75.859 22.231, 56 26.376, 56 28.023 C 56 29.005, 69.971 31.609, 86.685 33.744 C 99.115 35.331, 99.978 35.330, 101.764 33.714 C 107.998 28.072, 114.376 36.976, 117.010 55 C 118.094 62.413, 118.315 86.422, 117.364 93.360 C 117.014 95.912, 116.227 98, 115.614 97.999 C 114.828 97.999, 114.500 91.301, 114.500 75.249 C 114.500 55.964, 114.219 51.586, 112.654 46.500 C 110.155 38.380, 108.025 34.974, 105.534 35.116 C 103.848 35.212, 103.800 35.310, 105.250 35.689 C 107.991 36.406, 107.299 38.833, 104.255 39.184 C 100.967 39.562, 100.294 41.825, 100.118 53.081 C 100.006 60.266, 100.135 60.734, 102.585 62.046 C 106.567 64.177, 108.104 67.862, 106.534 71.520 C 105.229 74.560, 101.969 77.947, 98.649 79.709 C 97.016 80.577, 97.337 81.007, 101.389 83.382 C 106.028 86.101, 107.720 89.110, 106.617 92.678 C 106.157 94.164, 107.937 95.477, 116.277 99.801 L 126.500 105.101 129.328 101.801 C 136.843 93.029, 140.526 81.116, 139.743 68.119 C 139.164 58.525, 136.921 51.572, 131.497 42.564 C 128.223 37.127, 128.069 36.500, 129.142 32.920 C 130.756 27.532, 128.655 24.572, 121.753 22.510 C 116.482 20.936, 98.983 19.838, 91.500 20.612 M 153.024 25.201 C 151.954 26.961, 150.257 32.024, 149.254 36.451 C 147.607 43.724, 147.503 47.394, 148.176 74.500 C 148.951 105.688, 149.975 114.344, 152.825 113.795 C 155.171 113.343, 161.377 104.706, 166.245 95.118 L 170.500 86.735 170.466 71.618 C 170.429 55.327, 168.778 44.825, 164.433 33.245 C 160.130 21.778, 156.613 19.299, 153.024 25.201 M 48.738 30.596 C 48.332 31.001, 48 31.655, 48 32.048 C 48 33.450, 57.597 35.143, 67.963 35.570 L 78.500 36.004 66.500 33.526 C 59.900 32.164, 53.370 30.781, 51.988 30.453 C 50.606 30.126, 49.144 30.190, 48.738 30.596 M 51.326 44.482 C 43.022 45.989, 33 50.255, 33 52.284 C 33 53.051, 34.237 54.244, 35.750 54.935 C 39.694 56.736, 48.567 57.509, 49.422 56.126 C 50.421 54.509, 52 54.738, 52 56.500 C 52 57.565, 53.088 58.003, 55.750 58.011 C 57.813 58.017, 61.075 58.255, 63 58.539 C 66.184 59.010, 66.738 58.706, 69.136 55.175 C 74.128 47.824, 73.756 45.427, 67.396 43.952 C 62.447 42.804, 60.162 42.879, 51.326 44.482 M 47.052 63.927 C 43.796 68.500, 41.046 75.198, 41.022 78.615 C 40.942 90.015, 61.073 92.191, 84.885 83.358 C 90.066 81.436, 89.952 81.338, 77.354 76.894 C 65.319 72.649, 58.161 68.870, 54.054 64.591 C 52.158 62.616, 50.277 61, 49.872 61 C 49.467 61, 48.198 62.317, 47.052 63.927 M 55 61.905 C 55 64.394, 66.857 70.465, 82.170 75.818 L 93.841 79.898 97.884 76.969 C 106.515 70.717, 106.631 66.789, 98.290 63.245 C 94.033 61.437, 91.359 61.209, 74.250 61.198 C 63.662 61.192, 55 61.510, 55 61.905 M 86.500 85.543 C 79.671 88.173, 70.267 90.447, 61.500 91.587 L 55.500 92.368 62.426 93.118 C 67.897 93.711, 69.997 93.536, 72.418 92.284 C 76.927 89.952, 87.437 89.484, 94.516 91.298 C 97.807 92.142, 101.175 92.982, 102 93.166 C 102.991 93.387, 103.605 92.594, 103.809 90.827 C 104.068 88.588, 103.403 87.734, 99.721 85.577 C 94.546 82.544, 94.286 82.543, 86.500 85.543 M 138.121 92.768 C 137.363 94.566, 135.019 98.497, 132.912 101.504 L 129.082 106.972 134.291 110.949 L 139.500 114.926 139.797 108.422 C 139.960 104.844, 139.960 99.123, 139.797 95.708 L 139.500 89.500 138.121 92.768 M 73.694 94.901 C 70.398 96.581, 69.068 96.688, 62.233 95.819 C 52.493 94.581, 35.370 95.239, 31.750 96.991 C 23.644 100.912, 33.970 111.590, 51.731 117.654 C 62.111 121.198, 73.561 121.434, 79.666 118.231 C 84.372 115.762, 87.728 111.608, 88.620 107.152 C 89.065 104.925, 90.634 103.198, 94.611 100.557 C 97.575 98.590, 100 96.611, 100 96.162 C 100 94.854, 90.403 93, 83.635 93 C 79.505 93, 76.173 93.637, 73.694 94.901 M 102.044 98.447 C 101.363 99.268, 98.825 101.191, 96.404 102.720 C 93.984 104.249, 92.003 105.967, 92.002 106.539 C 92.001 107.110, 91.107 109.329, 90.015 111.470 C 88.923 113.612, 88.136 115.445, 88.265 115.544 C 88.394 115.643, 91.088 115.979, 94.250 116.290 C 99.438 116.800, 100 116.669, 100 114.948 C 100 111.828, 103.160 104.883, 104.375 105.333 C 105.635 105.800, 105.597 106.204, 103.882 110.603 C 100.563 119.117, 109.300 118.924, 120.892 110.226 C 124.133 107.795, 124.200 107.618, 122.392 106.259 C 120.049 104.498, 108.253 98.496, 105.391 97.609 C 104.067 97.198, 102.822 97.510, 102.044 98.447 M 123.500 111.622 C 121.850 113.025, 117.870 115.450, 114.655 117.011 L 108.809 119.850 112.019 121.510 C 113.784 122.423, 117.111 124.904, 119.411 127.025 C 123.276 130.587, 124.178 130.933, 131.297 131.578 L 139 132.276 139 125.153 L 139 118.029 133.250 113.515 C 130.088 111.033, 127.275 109.017, 127 109.037 C 126.725 109.056, 125.150 110.220, 123.500 111.622 M 80.313 121.032 C 75.551 122.924, 69 128.716, 69 131.035 C 69 132.170, 74.855 132.227, 100.275 131.338 L 119.050 130.682 116.810 128.298 C 115.578 126.987, 111.770 124.535, 108.347 122.850 C 99.929 118.706, 88.099 117.939, 80.313 121.032 M 142 126.941 C 142 131.671, 142.163 132, 144.500 132 C 147.427 132, 147.580 131.025, 145.378 126.385 C 142.923 121.211, 142 121.363, 142 126.941 M 48 132.644 C 48 136.245, 51.112 145.364, 55.033 153.252 C 62.043 167.354, 70.516 176.546, 80.786 181.188 C 88.342 184.604, 101.313 183.301, 108.838 178.370 C 111.061 176.914, 111.684 177.034, 118.854 180.301 C 129.897 185.333, 139.354 188, 146.155 188 C 155.896 188, 159.467 185.042, 159.179 177.210 C 159.048 173.653, 155.879 165.661, 154.184 164.613 C 153.610 164.259, 150.234 166.001, 146.681 168.484 C 143.128 170.968, 139.946 173, 139.611 173 C 139.275 173, 139 168.548, 139 163.107 C 139 151.607, 139.369 152, 128.578 152 C 118.085 152, 111.516 155.503, 101.066 166.673 L 93.068 175.222 89.112 172.089 C 77.077 162.557, 66.885 148.387, 65.405 139.129 L 64.744 135 58.687 135 C 53.843 135, 52.165 134.564, 50.314 132.826 C 48.064 130.711, 48 130.706, 48 132.644 M 74.750 134.742 C 68.095 135.086, 68 135.131, 68 137.911 C 68 143.478, 74.473 154.109, 83.138 162.775 C 87.662 167.299, 91.791 171, 92.314 171 C 92.837 171, 95.908 168.116, 99.138 164.590 C 102.368 161.065, 107.037 156.839, 109.512 155.200 C 114.458 151.924, 113.921 151, 107.067 151 C 101.440 151, 97 149.168, 97 146.846 C 97 144.018, 103.779 141.338, 116.675 139.067 C 122.629 138.019, 126.768 137.125, 125.872 137.081 C 124.977 137.036, 123.685 136.325, 123 135.500 C 121.959 134.245, 118.467 134.032, 101.628 134.196 C 90.557 134.304, 78.463 134.549, 74.750 134.742 M 130.768 134.725 C 132.565 134.947, 135.265 134.943, 136.768 134.715 C 138.271 134.486, 136.800 134.304, 133.500 134.310 C 130.200 134.315, 128.971 134.502, 130.768 134.725 M 146 136 C 144.828 136.758, 145.090 136.973, 147.201 136.985 C 152.562 137.015, 160.117 139.227, 162.924 141.589 C 166.414 144.526, 166.516 144.528, 173.712 141.829 L 179.500 139.658 176.370 138.375 C 169.928 135.735, 148.949 134.094, 146 136 M 124 140.648 C 108.836 142.925, 99.255 145.655, 100.844 147.244 C 102.104 148.504, 127.977 149.530, 134.358 148.574 C 138.977 147.881, 139 147.858, 139 143.939 L 139 140 132.750 140.136 C 129.313 140.211, 125.375 140.441, 124 140.648 M 142 143.956 L 142 148.176 145.750 147.615 C 147.813 147.306, 151.750 146.761, 154.500 146.402 C 161.820 145.449, 162.886 144.626, 159.595 142.470 C 157.858 141.332, 154.203 140.520, 149.440 140.214 L 142 139.737 142 143.956 M 151.270 149.445 C 146.743 150.095, 142.791 150.876, 142.488 151.179 C 142.184 151.483, 143.256 152.278, 144.869 152.946 C 146.482 153.614, 148.825 155.250, 150.076 156.580 C 151.326 157.911, 152.888 159, 153.547 159 C 154.958 159, 163 150.512, 163 149.022 C 163 147.836, 162.287 147.862, 151.270 149.445 M 142 161.500 C 142 165.075, 142.273 168, 142.606 168 C 143.617 168, 151 161.888, 151 161.052 C 151 160.212, 143.849 155, 142.696 155 C 142.313 155, 142 157.925, 142 161.500" stroke="none" fill="black" fill-rule="evenodd"/>
</svg>