<svg xmlns="http://www.w3.org/2000/svg" width="200" height="200" viewBox="0 0 200 200" version="1.1">
	<path d="M 136.854 9.805 C 136.659 10.315, 124.125 11.490, 109 12.414 C 61.380 15.326, 56 16.108, 56 20.123 C 56 24.500, 70.269 34.372, 83.284 38.999 C 87.579 40.527, 88 40.867, 85.667 40.927 C 83.865 40.973, 82.986 41.455, 83.252 42.250 C 83.562 43.177, 86.492 43.411, 94.585 43.156 L 105.500 42.813 101 47.466 C 97.517 51.068, 95.955 52.018, 94.092 51.668 C 92.767 51.420, 89.275 52.045, 86.332 53.058 C 71.120 58.292, 53.552 57.065, 45.750 50.224 C 40.452 45.579, 47.511 42.482, 61.250 43.424 C 67.686 43.865, 71 43.743, 71 43.065 C 71 40.142, 50.367 39.479, 45.321 42.239 C 41.132 44.530, 40.237 47.502, 42.731 50.841 C 48.431 58.476, 66.034 61.240, 82.042 57.015 C 86.694 55.787, 91.400 54.719, 92.500 54.641 C 95.249 54.447, 95.636 58.114, 93.108 60.402 C 91.376 61.970, 90.490 62.056, 86.015 61.097 C 67.664 57.161, 54.599 64.631, 54.734 78.983 C 54.881 94.591, 66.716 103, 88.540 103 C 99.930 103, 106.564 101.702, 114.649 97.892 C 128.860 91.195, 132.454 79.829, 124.034 68.205 C 121.717 65.007, 120.228 63.973, 117.281 63.517 C 111.113 62.562, 101.635 59.942, 100.282 58.819 C 97.832 56.786, 100.053 56.281, 109.320 56.766 C 119.754 57.312, 124.323 56.282, 129.025 52.325 C 134.461 47.751, 132.035 40.174, 124.488 38.155 C 121.816 37.441, 122.049 37.185, 130.924 31.106 C 135.989 27.638, 140.290 24.957, 140.481 25.150 C 141.893 26.568, 144.326 45.713, 145.100 61.500 C 145.613 71.950, 146.274 82.525, 146.570 85 C 146.984 88.477, 146.583 90.514, 144.803 93.963 C 140.546 102.211, 134.212 103.913, 100.407 105.897 C 90.532 106.477, 82.949 107.412, 80.781 108.318 C 77.720 109.597, 76.460 109.610, 71.373 108.413 C 63.275 106.508, 47.938 106.581, 43.232 108.548 C 34.941 112.012, 32.735 117.462, 37.639 122.366 C 41.405 126.132, 48.770 128, 59.856 128 L 69.349 128 67.299 130.250 C 64.177 133.677, 63 136.503, 63 140.566 C 63 145.815, 66.121 150.202, 72.225 153.535 C 82.298 159.035, 103.473 157.853, 116.365 151.071 C 123.442 147.348, 129.751 146.975, 134.035 150.025 C 137.603 152.566, 141.049 159.786, 144.523 172 C 146.009 177.225, 148.111 182.963, 149.194 184.750 C 156.139 196.212, 173 174.677, 173 154.345 C 173 144.957, 169.744 139.888, 161.486 136.422 C 155.917 134.084, 139.415 133.578, 123.064 135.243 L 109.627 136.612 106.314 133.702 C 100.496 128.595, 102.269 124.664, 112.138 120.786 C 119.619 117.847, 140.233 117.054, 148.287 119.395 C 154.943 121.330, 160 125.253, 160 128.482 C 160 132.737, 162.794 132.255, 164.832 127.648 C 171.231 113.180, 172.078 106.832, 173.184 65 C 173.730 44.375, 174.246 25.396, 174.332 22.825 C 174.513 17.421, 171.721 13.537, 166.891 12.476 C 163.518 11.735, 154.644 14.133, 147.655 17.675 C 143.701 19.678, 142.557 19.908, 141.878 18.837 C 141.131 17.658, 140.615 14.688, 140.842 12.869 C 140.983 11.741, 137.218 8.850, 136.854 9.805 M 103.500 15.547 C 93.600 16.252, 83.025 16.921, 80 17.033 L 74.500 17.238 79.500 18.041 C 82.250 18.483, 88.253 19.324, 92.839 19.911 C 97.426 20.497, 102.376 21.547, 103.839 22.246 C 106.874 23.693, 107.743 27.429, 106.125 32.072 C 105.188 34.760, 105.349 35.129, 108.080 36.541 C 112.483 38.818, 117.482 37.479, 125 32.006 C 128.575 29.403, 133.359 26.063, 135.630 24.583 C 139.721 21.918, 139.751 21.856, 138.758 17.946 L 137.757 14 129.628 14.133 C 125.158 14.206, 113.400 14.843, 103.500 15.547 M 156.500 16.880 C 153.750 17.875, 149.546 19.689, 147.158 20.911 C 143.245 22.915, 142.886 23.399, 143.513 25.817 C 145.878 34.929, 147.152 45.403, 147.549 59 C 147.799 67.525, 148.458 77.200, 149.015 80.500 C 150.395 88.680, 148.836 95.097, 144.389 99.544 C 138.892 105.042, 131.070 106.856, 107.657 108.067 C 93.142 108.817, 86.136 109.605, 82.213 110.930 C 77.431 112.544, 76.198 112.606, 71.649 111.461 C 54.008 107.017, 37.295 110.193, 38.195 117.817 C 38.871 123.546, 51.858 126.803, 66.781 124.988 C 71.577 124.404, 76.287 123.688, 77.250 123.396 C 79.996 122.563, 79.397 125.898, 76.611 126.958 C 75.297 127.457, 72.625 129.269, 70.672 130.983 C 62.587 138.082, 64.003 146.251, 74.204 151.353 C 79.056 153.778, 81.149 154.214, 88.204 154.261 C 98.882 154.334, 106.786 152.631, 115.440 148.396 C 126.271 143.096, 134.144 144.225, 139.347 151.824 C 142.311 156.153, 143.818 159.974, 147.949 173.633 C 149.635 179.207, 151.657 184.300, 152.443 184.953 C 157.316 188.997, 168.186 172.387, 170.501 157.363 C 171.973 147.800, 166.753 140.340, 156.943 137.986 C 151.759 136.743, 133.498 137.025, 115.266 138.630 L 108.031 139.267 104.016 135.251 C 101.485 132.720, 100 130.317, 100 128.753 C 100 120.169, 115.906 114.306, 136.743 115.209 C 148.958 115.738, 156.305 118.197, 160.474 123.151 L 162.901 126.036 165.326 118.268 C 169.213 105.818, 170.185 95.497, 170.484 63.500 C 170.639 47, 171.098 31.161, 171.504 28.303 C 173.238 16.112, 168.532 12.529, 156.500 16.880 M 59 20.856 C 59 24.535, 81.309 36.657, 89.965 37.682 C 95.108 38.291, 100 37.530, 100 36.120 C 100 35.136, 87.162 29.145, 75 24.454 C 65.105 20.637, 59 19.264, 59 20.856 M 83.500 24.796 C 88.450 26.934, 94.456 29.686, 96.847 30.912 C 102.479 33.798, 104.214 33.137, 103.811 28.258 C 103.502 24.520, 103.467 24.494, 97.527 23.321 C 94.241 22.673, 87.716 21.865, 83.027 21.526 L 74.500 20.909 83.500 24.796 M 101.537 38.596 C 99.709 39.933, 99.742 40, 102.227 40 C 109.225 40, 109.677 42.647, 103.750 48.930 C 99.881 53.033, 100.038 52.954, 105.500 48.050 C 115.147 39.390, 114.750 39.798, 112.847 40.516 C 111.938 40.859, 109.453 40.251, 107.326 39.166 C 103.946 37.442, 103.214 37.370, 101.537 38.596 M 111 46.896 L 103.500 53.904 112 53.930 C 125.944 53.973, 132.825 49.359, 127.667 43.426 C 126.430 42.002, 123.998 40.708, 122 40.410 C 118.767 39.927, 117.927 40.422, 111 46.896 M 95.135 61.748 C 94.315 63.280, 94.834 64.276, 98.020 67.276 C 102.683 71.668, 104.416 76.909, 102.955 82.202 C 101.431 87.720, 99.089 89.806, 92.540 91.478 C 73.937 96.228, 70.779 88.127, 84.270 70.258 C 86.476 67.337, 88 64.667, 87.658 64.324 C 87.315 63.982, 83.648 63.485, 79.508 63.219 C 63.049 62.163, 54.732 70.300, 58.042 84.223 C 60.286 93.662, 68.830 98.802, 85.017 100.451 C 98.235 101.798, 115.624 96.609, 121.917 89.441 C 127.134 83.500, 127.224 77.364, 122.194 70.428 C 119.680 66.960, 118.817 66.518, 112.468 65.440 C 106.732 64.466, 101.458 62.714, 96.818 60.242 C 96.442 60.042, 95.685 60.720, 95.135 61.748 M 86.951 71.181 C 81.551 78.012, 78.811 83.537, 79.191 86.826 C 79.457 89.132, 80.021 89.543, 83.280 89.812 C 85.359 89.984, 89.554 89.399, 92.602 88.513 C 97.412 87.115, 98.342 86.426, 99.652 83.290 C 101.784 78.187, 100.639 73.338, 96.344 69.288 C 94.426 67.480, 92.450 66, 91.952 66 C 91.454 66, 89.204 68.331, 86.951 71.181" stroke="none" fill="black" fill-rule="evenodd"/>
</svg>