<svg xmlns="http://www.w3.org/2000/svg" width="200" height="200" viewBox="0 0 200 200" version="1.1">
	<path d="M 126.083 11.063 C 106.260 14.581, 85.105 16.171, 50.750 16.725 C 23.165 17.170, 17 17.519, 17 18.635 C 17 19.721, 19.770 20, 30.567 20 C 43.715 20, 44.115 20.062, 43.495 22.016 C 42.385 25.514, 44.847 30.742, 48.736 33.146 C 53.790 36.270, 66.673 36.927, 75.581 34.515 C 88.564 31.001, 90.762 25.017, 80.500 21.123 C 78.140 20.227, 81.018 20.095, 94 20.505 C 114.040 21.138, 121.875 22.287, 128.726 25.598 C 134.365 28.323, 137.029 31.361, 138.936 37.242 C 140.147 40.976, 140.132 41.011, 131.825 53.381 C 127.246 60.200, 123.162 65.577, 122.750 65.330 C 122.338 65.084, 122 63.662, 122 62.171 C 122 57.665, 118.163 45.272, 114.572 38.179 C 105.621 20.498, 97.701 23.302, 103.977 41.931 C 105.207 45.584, 105.743 48.657, 105.237 49.163 C 104.754 49.646, 101.402 50.318, 97.788 50.655 L 91.218 51.269 90.535 48.161 C 89.528 43.573, 85.007 40.270, 78.650 39.475 C 72.477 38.704, 35.669 41.415, 31.670 42.935 C 30.202 43.494, 29 44.660, 29 45.526 C 29 47.782, 34.426 49.743, 45.672 51.553 C 54.508 52.975, 58.446 54, 55.071 54 C 52.674 54, 47.948 58.181, 45.977 62.044 C 39.612 74.521, 48.334 91.926, 62.994 96 C 64.909 96.532, 63.967 96.867, 59 97.420 C 35.006 100.091, 25.558 102.468, 26.176 105.677 C 26.736 108.581, 32.402 111.030, 46.739 114.563 C 63.843 118.778, 67.438 120.359, 70.263 124.910 C 75.106 132.714, 72.436 144.037, 60.403 166.719 C 50.419 185.540, 52.096 187.547, 70.100 178.315 C 80.209 173.132, 82.162 172.480, 88.555 172.157 C 96.550 171.754, 98.812 172.585, 107.811 179.231 C 115.550 184.947, 119.461 186.327, 126.188 185.717 C 132.482 185.146, 139.842 182.085, 147.579 176.821 L 152.658 173.365 156.579 176.775 C 161.763 181.283, 167.663 184.242, 169.995 183.502 C 175.296 181.819, 174.071 169.349, 167.156 154.593 C 156.133 131.070, 142.273 119.548, 132.641 125.898 C 127.228 129.467, 126.014 132.560, 126.007 142.800 C 125.996 158.075, 122.179 162.047, 112.485 156.872 C 97.637 148.946, 83.007 125.640, 86.932 116.165 C 88.269 112.936, 92.194 110.083, 92.800 111.901 C 94.633 117.400, 104.489 122.871, 114.139 123.746 C 130.851 125.262, 141.552 115.999, 142.771 98.961 C 143.182 93.213, 143.007 92, 141.766 92 C 140.605 92, 140.154 93.706, 139.782 99.489 C 138.890 113.401, 132.170 120.137, 118.500 120.825 C 109.821 121.262, 101.387 118.437, 97.470 113.782 L 94.856 110.676 101.678 107.487 C 105.430 105.733, 109.741 102.881, 111.258 101.149 C 112.896 99.279, 114.978 98, 116.385 98 C 117.689 98, 119.205 97.437, 119.755 96.750 C 121.123 95.039, 123 83.530, 123 76.852 C 123 71.698, 123.455 70.682, 130.566 59.934 C 141.853 42.876, 141.357 42.873, 140.630 60 C 140.291 67.975, 139.733 75.513, 139.390 76.750 C 138.944 78.362, 139.193 79, 140.270 79 C 142.361 79, 143.242 72.506, 143.499 55.179 C 143.670 43.696, 144.024 40.548, 145.284 39.287 C 146.713 37.858, 146.920 38.057, 147.561 41.474 C 147.949 43.542, 147.960 53.618, 147.586 63.867 C 146.447 95.066, 149.090 119.180, 154.260 124.750 C 158.410 129.221, 162.888 126.965, 169.383 117.135 C 173.346 111.137, 180 98.848, 180 97.529 C 180 97.238, 179.121 97, 178.047 97 C 176.642 97, 175.802 95.948, 175.053 93.250 C 173.639 88.161, 173.730 81.957, 175.583 56.902 C 177.676 28.613, 176.536 17.963, 171.105 15.056 C 167.554 13.156, 163.902 15.049, 155.432 23.180 C 146.019 32.218, 146.144 32.263, 145.278 19.500 C 144.980 15.100, 144.290 10.938, 143.745 10.250 C 142.464 8.632, 138.838 8.799, 126.083 11.063 M 130.500 13.202 C 127.750 13.739, 119.425 14.996, 112 15.994 C 102.757 17.237, 100.114 17.840, 103.619 17.905 C 111.321 18.048, 125.672 20.792, 129.839 22.918 C 134.859 25.479, 138.931 29.709, 140.974 34.484 C 142.609 38.307, 142.726 38.380, 143.842 36.295 C 144.747 34.604, 144.675 32.721, 143.517 27.811 C 142.699 24.340, 142.023 19.363, 142.015 16.750 C 142 12.038, 141.974 12.001, 138.750 12.112 C 136.963 12.173, 133.250 12.664, 130.500 13.202 M 162.946 19.861 C 160.501 21.435, 156.317 25.283, 153.648 28.412 C 149.140 33.700, 148.850 34.364, 149.553 37.801 C 149.969 39.835, 150.389 55.675, 150.486 73 C 150.598 92.935, 151.113 106.875, 151.888 110.969 C 155.301 128.981, 160.225 128.430, 171.313 108.798 L 175.823 100.814 174.018 97.657 C 171.050 92.464, 170.805 86.262, 172.563 60.784 C 174.366 34.646, 174.088 23.309, 171.549 19.435 C 169.505 16.316, 168.367 16.372, 162.946 19.861 M 46.742 20.591 C 45.275 22.058, 46.041 27.041, 48.040 29.040 C 51.200 32.200, 54.841 33.196, 63.192 33.186 C 71.979 33.174, 80.831 30.949, 83.407 28.103 C 85.093 26.240, 85.078 26.112, 83.045 25.024 C 78.262 22.464, 48.503 18.831, 46.742 20.591 M 104.013 31.250 C 104.021 32.487, 105.353 37.310, 106.973 41.966 C 109.094 48.060, 109.595 50.632, 108.761 51.148 C 107.546 51.898, 96.485 54, 93.749 54 C 90.134 54, 96.769 69.302, 103.750 77.067 L 108.410 82.250 106.225 84.019 C 104.034 85.793, 104.236 86.402, 107.659 88.347 C 108.377 88.755, 110.998 85.551, 114.544 79.931 C 120.184 70.991, 120.261 70.771, 119.661 65.178 C 118.431 53.702, 113.967 40.945, 108.315 32.750 C 105.366 28.475, 103.994 27.997, 104.013 31.250 M 52.500 43.029 C 30.215 44.701, 28.840 45.565, 43.907 48.423 C 52.745 50.099, 85.281 52.490, 87.528 51.628 C 89.367 50.922, 88.300 47.631, 85.327 44.836 C 83.106 42.747, 81.820 42.484, 73.172 42.352 C 67.852 42.270, 58.550 42.575, 52.500 43.029 M 74.500 56.861 C 80.014 59.488, 93 68.487, 93 69.680 C 93 69.961, 86.138 69.913, 77.750 69.574 L 62.500 68.958 77 74.354 C 84.975 77.321, 93.640 80.691, 96.255 81.841 C 100.373 83.653, 104 83.869, 104 82.302 C 104 82.036, 102.396 79.946, 100.435 77.659 C 96.314 72.850, 91.472 63.179, 90.470 57.750 L 89.777 54 79.139 54.001 L 68.500 54.002 74.500 56.861 M 54.096 57.208 C 45.955 61.584, 44.296 75.183, 50.771 84.457 C 58.356 95.318, 74.080 97.020, 91.816 88.900 L 98.500 85.839 90.500 82.561 C 86.100 80.758, 77.174 77.356, 70.665 75.001 C 64.155 72.646, 58.577 70.062, 58.269 69.259 C 57.197 66.466, 60.341 65.862, 73 66.430 L 85.500 66.991 83 64.987 C 74.413 58.103, 59.766 54.161, 54.096 57.208 M 115.236 83.939 C 111.396 90.155, 111.090 91.103, 112.164 93.460 C 112.893 95.060, 113.902 95.868, 114.760 95.539 C 115.532 95.242, 116.545 95, 117.011 95 C 118.205 95, 120.188 84.781, 119.813 80.557 L 119.500 77.035 115.236 83.939 M 93.500 91.074 C 87.050 94.213, 87.981 94.644, 97.566 92.954 C 106.355 91.405, 106.883 91.139, 104.559 89.429 C 101.906 87.476, 100.445 87.693, 93.500 91.074 M 101 95.075 C 99.075 95.554, 85.350 97.312, 70.500 98.982 C 42.515 102.130, 32.515 103.613, 30.081 104.975 C 27.649 106.335, 34.091 108.882, 48.098 112.097 C 63.851 115.713, 65.725 116.394, 69.339 119.814 C 73.636 123.879, 75 127.293, 75 133.982 C 75 142.068, 72.353 149.613, 63.701 166.194 C 59.770 173.726, 56.892 180.226, 57.305 180.638 C 57.718 181.051, 63.139 178.802, 69.351 175.640 C 87.335 166.488, 93.831 166.589, 108.117 176.241 C 116.084 181.624, 117.915 182.438, 122.857 182.791 C 129.882 183.292, 136.144 181.052, 145.964 174.524 L 153.064 169.804 157.522 173.913 C 159.974 176.174, 163.586 178.789, 165.549 179.725 C 168.651 181.204, 169.239 181.235, 170.044 179.963 C 173.714 174.160, 163.187 148.073, 152.337 136.082 C 143.350 126.153, 137.258 124.371, 131.901 130.106 C 129.151 133.050, 129 133.673, 129 142.086 C 129 153.426, 127.109 158.639, 122.259 160.665 C 116.010 163.276, 107.672 158.905, 97.291 147.577 C 89.368 138.930, 84.701 129.672, 84.186 121.581 C 83.832 116.028, 84.066 115.075, 86.485 112.200 C 87.966 110.440, 89.801 109, 90.563 109 C 91.325 109, 92.624 107.693, 93.450 106.097 C 95.195 102.722, 99.727 99.716, 105.750 97.938 C 110.552 96.520, 111.561 93.942, 107.250 94.102 C 105.737 94.159, 102.925 94.596, 101 95.075 M 101.819 102.531 C 96.547 105.276, 94.309 107.594, 98.450 106.019 C 102.565 104.454, 106.823 102.095, 107.496 101.007 C 108.452 99.459, 106.935 99.867, 101.819 102.531" stroke="none" fill="black" fill-rule="evenodd"/>
</svg>