<svg xmlns="http://www.w3.org/2000/svg" width="200" height="200" viewBox="0 0 200 200" version="1.1">
	<path d="M 158.758 12.639 C 157.435 14.763, 154.817 19.087, 152.942 22.250 C 151.067 25.412, 149.249 28, 148.902 28 C 148.556 28, 147.994 25.974, 147.655 23.497 C 146.928 18.196, 143.564 11.154, 141.353 10.305 C 140.498 9.977, 130.505 10.679, 119.149 11.866 C 99.864 13.882, 97.905 13.925, 89.500 12.516 C 73.315 9.803, 56.082 11.104, 49.285 15.551 C 48.067 16.348, 46.408 17, 45.597 17 C 44.787 17, 44.102 17.788, 44.074 18.750 C 44.046 19.712, 43.751 22.130, 43.417 24.122 C 42.880 27.331, 43.222 28.155, 46.410 31.343 C 48.534 33.467, 51.954 35.522, 54.754 36.358 C 60.090 37.950, 60.216 37.887, 47.500 39.970 C 27.808 43.195, 18.333 49.381, 28.012 52.694 C 30.225 53.451, 38.696 53.908, 51.191 53.944 C 62.021 53.975, 71.119 54.383, 71.408 54.852 C 71.698 55.320, 75.243 55.492, 79.285 55.232 C 87.840 54.683, 92.056 56.274, 94.483 60.967 C 96.385 64.645, 96.443 73.004, 94.597 77.422 C 93.067 81.085, 86.154 89.242, 84.968 88.784 C 84.563 88.628, 81.695 83.585, 78.595 77.578 C 72.968 66.675, 68.200 61.095, 62.117 58.295 C 53.740 54.439, 44.027 60.128, 34.576 74.426 L 30.659 80.352 34.002 83.143 C 37.677 86.211, 48.836 92.311, 54.738 94.478 L 58.500 95.859 52.886 95.930 C 45.096 96.027, 36.985 97.703, 34.820 99.663 C 33.819 100.569, 33 102.545, 33 104.055 C 33 107.482, 40.621 114.706, 51.522 121.612 C 57.024 125.098, 58.899 126.810, 58.454 127.945 C 52.715 142.562, 50.642 157.064, 53.056 165.718 C 55.041 172.836, 62.618 180.049, 71.030 182.828 C 86.301 187.872, 117.513 188.183, 132 183.437 C 136.125 182.085, 145.575 179.674, 153 178.078 C 168.493 174.748, 171.141 173.859, 173.960 171.040 C 178.748 166.252, 175.130 156.777, 161.834 139.281 C 156.496 132.257, 154.165 128.445, 155.033 128.156 C 158.035 127.155, 164.926 119.616, 167.846 114.137 C 173.616 103.312, 175.437 93.080, 175.435 71.500 C 175.434 57.664, 174.957 49.929, 173.680 43.039 C 171.524 31.404, 166.822 17.103, 163.585 12.340 L 161.165 8.778 158.758 12.639 M 124.500 14.052 C 116.800 15.030, 109.825 15.892, 109 15.968 C 108.175 16.044, 112.803 17.769, 119.285 19.803 C 132.850 24.058, 137.152 26.970, 140.476 34.146 L 142.744 39.040 144.372 36.555 C 146.340 33.552, 146.399 30.329, 144.625 22.788 C 143.293 17.131, 140.629 11.873, 139.227 12.137 C 138.827 12.212, 132.200 13.073, 124.500 14.052 M 57.559 15.124 C 55.392 15.632, 53.367 16.300, 53.060 16.607 C 52.220 17.446, 81.189 15.845, 83.500 14.924 C 86.315 13.802, 62.413 13.987, 57.559 15.124 M 155.313 23.643 L 149.311 33.579 150.085 71.539 C 150.686 100.963, 151.233 111.187, 152.520 117 C 153.433 121.125, 154.372 124.696, 154.608 124.935 C 154.844 125.174, 156.782 123.666, 158.915 121.583 C 167.928 112.782, 171.935 99.977, 172.727 77.443 C 173.538 54.350, 169.932 30.661, 163.754 18.504 L 161.315 13.707 155.313 23.643 M 78.121 18.402 L 64.743 19.500 73.621 21.892 C 82.449 24.269, 99.780 30.574, 101.291 31.957 C 102.687 33.236, 82.938 37.937, 76 37.977 L 71.500 38.003 74.925 39.752 C 79.940 42.312, 80.759 44.185, 78.727 48.446 L 77.032 52 82.700 52 C 93.519 52, 100.180 46.728, 104.519 34.732 C 106.876 28.215, 109.122 26.491, 110.908 29.829 C 112.969 33.680, 120.214 59.661, 121.376 67.369 L 122.563 75.238 131.281 59.522 C 136.077 50.879, 139.990 42.838, 139.978 41.653 C 139.944 38.289, 136.557 31.786, 133.193 28.627 C 130.842 26.419, 126.641 24.743, 115.022 21.377 C 98.864 16.697, 98.883 16.699, 78.121 18.402 M 46.650 21.470 C 44.653 26.673, 46.560 29.614, 54.037 32.864 C 62.402 36.500, 77.198 36.495, 90.469 32.853 L 94.500 31.746 88 29.266 C 79.552 26.043, 60.961 21.321, 53.313 20.456 C 48.191 19.876, 47.204 20.027, 46.650 21.470 M 107.188 35.766 C 105.450 41.567, 100.606 48.222, 96.094 51.007 C 91.701 53.718, 91.231 54.491, 93.455 55.344 C 95.853 56.264, 99 63.608, 99 68.282 C 99 75.269, 96.217 81.782, 90.853 87.347 C 83.748 94.717, 84.431 97.466, 92.480 93.906 C 103.766 88.913, 105.279 95.394, 96.211 109.896 C 92.903 115.189, 92.858 115.407, 93.894 121.288 C 94.475 124.585, 95.194 127.527, 95.492 127.825 C 96.636 128.969, 98.100 126.128, 98.867 121.277 C 99.395 117.936, 100.878 114.572, 103.241 111.352 C 105.208 108.673, 109.596 100.861, 112.993 93.991 L 119.170 81.500 118.772 72.500 C 118.472 65.725, 117.304 59.792, 114.046 48.500 C 111.665 40.250, 109.406 33.148, 109.026 32.718 C 108.647 32.288, 107.819 33.659, 107.188 35.766 M 145.154 40.864 C 144.342 42.289, 143.686 47.253, 143.500 53.364 C 143.331 58.939, 141.980 71.825, 140.497 82 C 136.377 110.286, 137.489 120.904, 145.040 125.364 C 148.749 127.556, 152.429 127.561, 151.590 125.375 C 148.865 118.272, 147.692 104.418, 147.115 72.500 C 146.587 43.294, 146.310 38.833, 145.154 40.864 M 45 43.135 C 39.775 44.231, 33.475 46.042, 31 47.160 C 26.554 49.167, 26.530 49.205, 29 50.244 C 30.450 50.854, 40.270 51.339, 52.374 51.398 C 73.234 51.500, 73.249 51.499, 75.124 49.115 C 77.894 45.594, 77.490 43.366, 73.851 42.098 C 69.059 40.427, 55.600 40.911, 45 43.135 M 131.170 65.327 C 126.038 74.582, 121.031 84.503, 120.043 87.375 C 117.822 93.830, 114.634 100.175, 110.796 105.778 C 108.372 109.317, 103 120.098, 103 121.424 C 103 122.396, 120.228 123.146, 128.423 122.531 L 137.665 121.838 136.333 116.701 C 134.632 110.147, 134.675 104.197, 136.522 90.500 C 140.453 61.344, 141.093 55.632, 140.807 52.199 C 140.515 48.682, 140.042 49.326, 131.170 65.327 M 49.852 62.016 C 45.902 64.103, 39.138 71.465, 36.282 76.787 C 34.510 80.088, 34.514 80.117, 37 82.038 C 41.795 85.742, 54.542 91.797, 60.135 93.028 C 66.152 94.351, 74.770 93.964, 79.215 92.171 C 81.924 91.079, 81.926 91.068, 80.369 87.288 C 79.511 85.205, 77.786 82.600, 76.537 81.500 C 75.287 80.400, 73.275 76.967, 72.066 73.871 C 67.369 61.853, 58.808 57.284, 49.852 62.016 M 77.565 95.427 C 74.531 96.365, 74.034 96.799, 75.397 97.322 C 76.369 97.695, 78.943 98, 81.117 98 C 84.760 98, 84.986 97.843, 84 96 C 82.797 93.751, 82.941 93.764, 77.565 95.427 M 92.334 96.935 L 88.168 98.827 89.698 104.163 C 90.539 107.099, 91.554 109.855, 91.953 110.290 C 92.675 111.074, 98.152 101.551, 99.454 97.250 C 100.321 94.384, 98.163 94.289, 92.334 96.935 M 40.121 100.002 C 31.067 102.140, 34.794 107.366, 54.750 120.516 C 58.737 123.144, 62 125.591, 62 125.955 C 62 126.319, 60.685 130.221, 59.077 134.625 C 55.629 144.074, 53.959 154.721, 54.941 161 C 57.638 178.257, 73.293 184.857, 108.884 183.743 C 122.320 183.323, 125.512 182.896, 131.745 180.689 C 135.730 179.277, 143.605 177.176, 149.245 176.020 C 163.579 173.081, 170.770 170.981, 172.134 169.338 C 174.061 167.016, 173.314 162.302, 170.069 156.312 C 165.686 148.218, 151.783 130.038, 149.961 130.017 C 149.115 130.008, 146.775 129.160, 144.762 128.133 L 141.100 126.267 140.427 129.383 C 139.036 135.823, 130.678 160.683, 128.368 165.250 C 125.908 170.116, 123.351 171.333, 121.153 168.684 C 120.552 167.961, 118.437 162.673, 116.452 156.934 C 114.467 151.195, 111.770 144.649, 110.459 142.387 C 107.840 137.866, 101.700 132, 99.587 132 C 97.440 132, 96.207 136.764, 95.573 147.500 C 94.584 164.234, 90.273 177.608, 86.137 176.772 C 84.782 176.498, 84.523 175.155, 84.632 168.971 C 84.737 163.104, 85.649 158.874, 88.882 149.267 C 93.004 137.024, 93.801 132.613, 92.084 131.552 C 90.535 130.594, 86.541 132.637, 81.599 136.915 C 75.224 142.431, 72.178 142.323, 75.152 136.684 C 75.786 135.483, 79.371 130.162, 83.119 124.860 L 89.934 115.220 88.089 108.565 C 87.074 104.905, 86.076 101.748, 85.872 101.549 C 85.667 101.351, 80.584 100.696, 74.576 100.094 C 62.214 98.856, 45.169 98.811, 40.121 100.002 M 85.236 126.442 C 82.346 130.599, 80.258 134, 80.596 134 C 80.935 134, 82.548 132.875, 84.182 131.500 C 85.816 130.125, 88.033 129, 89.108 129 C 91.651 129, 92.236 127.285, 91.273 122.649 L 90.490 118.884 85.236 126.442 M 100.554 126.500 C 100.214 127.745, 100.631 128.878, 101.658 129.500 C 109.463 134.229, 113.613 140.488, 118.436 154.810 C 123.443 169.678, 123.363 169.603, 126.635 162.500 C 128.156 159.200, 131.522 149.525, 134.117 141 L 138.833 125.500 135.667 125.275 C 133.925 125.151, 125.435 124.926, 116.800 124.775 C 101.829 124.513, 101.075 124.593, 100.554 126.500 M 92.116 147.235 C 92.052 147.639, 90.937 151.689, 89.637 156.235 C 86.737 166.380, 85.659 173, 86.908 173 C 88.915 173, 93.756 152.398, 92.705 148.330 C 92.445 147.323, 92.180 146.831, 92.116 147.235" stroke="none" fill="black" fill-rule="evenodd"/>
</svg>