<svg xmlns="http://www.w3.org/2000/svg" width="200" height="200" viewBox="0 0 200 200" version="1.1">
	<path d="M 65.482 9.452 C 60.994 13.685, 61.063 16.298, 65.790 21.025 C 68.595 23.831, 71.466 25.388, 76.844 27.021 C 83.150 28.936, 84.069 29.510, 83.805 31.364 C 83.531 33.284, 82.908 33.488, 77.651 33.378 C 74.435 33.310, 70.060 32.680, 67.929 31.977 C 64.535 30.856, 62.890 30.979, 54.635 32.968 C 29.315 39.066, 32.440 46.403, 60.855 47.573 C 75.660 48.182, 82 48.854, 82 49.813 C 82 50.193, 79.938 51.597, 77.418 52.934 C 68.497 57.667, 60 70.542, 60 79.326 C 60 81.113, 61.013 84.584, 62.250 87.038 C 64.009 90.525, 65.680 92.098, 69.900 94.235 C 72.870 95.740, 77.492 97.262, 80.172 97.617 C 82.852 97.973, 85.320 98.708, 85.655 99.251 C 86.053 99.895, 81.082 100.029, 71.383 99.634 C 63.197 99.302, 46.150 98.790, 33.500 98.497 C 6.084 97.862, 5.934 96.737, 35.299 112 C 59.243 124.446, 58.762 123.743, 51.126 135.098 L 46.148 142.500 55.324 143.535 L 64.500 144.570 58.500 146.374 C 49.781 148.995, 40.999 153.955, 38.857 157.468 C 34.987 163.813, 36.643 169.678, 44.687 178.111 C 54.037 187.914, 55.165 188.364, 67.259 187.129 C 72.892 186.554, 82.225 185.796, 88 185.446 C 106.687 184.312, 118.561 180.756, 133.168 171.920 L 136.835 169.701 142.168 174.375 C 149.507 180.809, 155.393 183.597, 158.576 182.147 C 161 181.043, 161.402 179.625, 161.029 173.500 C 160.547 165.583, 149.973 140.694, 141.380 127.250 L 138.025 122 144.262 121.988 C 154.739 121.968, 162.927 119.195, 168.731 113.702 C 175.194 107.586, 175.488 99.391, 169.434 94.076 C 165.736 90.829, 161.543 90.104, 157.860 92.075 C 156.179 92.975, 154.359 92.243, 146.702 87.587 L 137.554 82.024 137.527 73.762 C 137.503 66.538, 137.148 64.901, 134.695 60.728 C 131.209 54.798, 125.726 51.089, 117.131 48.846 C 113.164 47.811, 111.605 47.092, 113.250 47.058 C 114.878 47.024, 116 46.443, 116 45.636 C 116 44.886, 118.138 43.470, 120.750 42.489 C 130.469 38.842, 137.143 34.982, 136.805 33.203 C 136.341 30.765, 129.034 30.588, 105.901 32.457 C 95.327 33.311, 86.513 33.847, 86.314 33.648 C 86.116 33.449, 86.215 32.602, 86.536 31.766 C 87.025 30.493, 88.856 30.327, 97.810 30.741 C 111.968 31.397, 119.410 29.270, 121.143 24.071 C 121.882 21.853, 150.155 32.918, 154.730 37.216 C 155.978 38.389, 157 39.685, 157 40.097 C 157 41.665, 149.150 43.326, 139.025 43.902 C 125.070 44.695, 125.531 46.552, 139.632 46.345 C 162.427 46.010, 166.093 39.408, 148.428 30.500 C 144.065 28.300, 136.147 25.037, 130.831 23.248 C 122.127 20.320, 120.626 19.435, 115.733 14.343 C 110.618 9.020, 109.971 8.662, 104.687 8.224 C 100.250 7.856, 98.349 8.187, 95.609 9.803 C 92.381 11.708, 91.779 11.753, 86.822 10.464 C 83.895 9.703, 78.679 8.426, 75.232 7.625 L 68.963 6.169 65.482 9.452 M 67.490 11.187 C 62.165 15.375, 66.041 20.609, 77.106 24.173 C 80.872 25.386, 84.123 26.181, 84.329 25.939 C 84.535 25.698, 85.850 22.957, 87.251 19.849 L 89.799 14.198 79.889 11.713 C 70.013 9.236, 69.972 9.234, 67.490 11.187 M 99.140 11.231 C 97.293 11.717, 95.995 12.328, 96.257 12.591 C 97.085 13.419, 115.183 18.150, 115.668 17.665 C 116.542 16.791, 109.051 11.801, 105.775 11.074 C 103.974 10.675, 100.988 10.745, 99.140 11.231 M 91.575 17.245 C 89.402 20.562, 87.641 25.974, 88.465 26.801 C 88.848 27.185, 93.999 27.650, 99.912 27.834 C 111.362 28.190, 118 26.630, 118 23.583 C 118 22.253, 109.702 19.173, 98.500 16.346 C 97.400 16.068, 95.738 15.630, 94.806 15.371 C 93.775 15.085, 92.510 15.818, 91.575 17.245 M 114.500 34.543 C 106.800 35.247, 97.286 35.862, 93.357 35.911 C 85.474 36.009, 85 36.395, 85 42.724 L 85 46.285 96.153 45.579 C 106.166 44.945, 108.457 44.413, 118.546 40.376 C 124.727 37.902, 130.620 35.245, 131.642 34.471 C 133.395 33.143, 133.358 33.069, 131 33.164 C 129.625 33.219, 122.200 33.840, 114.500 34.543 M 52.500 36.331 C 42.483 39.168, 39.067 40.899, 41.168 42.074 C 43.574 43.421, 54.556 44.804, 68.606 45.530 L 81.711 46.207 82.389 41.970 C 82.761 39.640, 82.852 37.519, 82.590 37.257 C 82.160 36.827, 73.088 35.459, 64 34.453 C 62.075 34.240, 56.900 35.085, 52.500 36.331 M 90.776 49.125 C 92.898 49.738, 94.659 49.717, 95.776 49.066 C 97.089 48.300, 96.308 48.075, 92.500 48.121 C 87.682 48.178, 87.619 48.215, 90.776 49.125 M 100 51.431 C 100 51.773, 101.463 53.589, 103.250 55.466 C 105.037 57.343, 107.625 60.951, 109 63.484 C 111.240 67.611, 112.667 68.703, 122.742 74.002 L 133.983 79.914 134.614 77.403 C 135.847 72.490, 134.400 65.030, 131.381 60.734 C 126.865 54.308, 120.558 51.574, 109.282 51.153 C 104.177 50.963, 100 51.088, 100 51.431 M 85.750 52.571 C 84.203 54.143, 85.316 79.114, 87.538 92.656 L 88.055 95.811 98.352 96.513 C 105.067 96.971, 110.619 96.806, 114.314 96.039 C 120.798 94.693, 128.330 89.936, 131.073 85.455 L 132.937 82.410 123.108 77.205 C 117.702 74.342, 112.991 72, 112.639 72 C 112.288 72, 112 73.329, 112 74.953 C 112 85.654, 103.916 86.494, 93.484 76.878 C 85.698 69.702, 83.809 63.783, 88.710 61.920 C 90.854 61.105, 93.050 61.399, 99.210 63.327 C 103.495 64.668, 107 65.504, 107 65.186 C 107 63.552, 101.310 56.736, 98.491 54.994 C 95.020 52.849, 86.981 51.320, 85.750 52.571 M 75.857 57.279 C 64.655 65.823, 59.986 78.545, 65.022 86.805 C 67.453 90.791, 75.794 94.976, 81.338 94.990 L 85.176 95 84.587 91.250 C 83.561 84.708, 82.002 65.718, 82.001 59.750 C 82 56.587, 81.585 54, 81.078 54 C 80.570 54, 78.221 55.475, 75.857 57.279 M 89 65.688 C 89 71.976, 105.385 84.160, 108.092 79.885 C 109.197 78.140, 109.236 71.920, 108.152 70.212 C 107.191 68.696, 94.510 64.052, 91.250 64.021 C 89.797 64.007, 89 64.598, 89 65.688 M 133.082 87.367 C 130.691 91.235, 124.791 95.598, 119.302 97.556 L 115.500 98.912 120.506 98.956 C 123.259 98.980, 131.289 98.324, 138.349 97.498 C 145.409 96.673, 151.594 96.249, 152.093 96.557 C 153.921 97.687, 152.910 99.139, 149.250 100.639 C 115.114 114.627, 103.695 125.761, 109.424 139.472 C 111.218 143.767, 118.107 151.290, 123.887 155.266 L 128.320 158.316 120.618 162.191 C 108.546 168.265, 95.586 172.304, 87.831 172.410 C 82.080 172.488, 80.807 172.167, 78.581 170.076 C 77.021 168.610, 76 166.565, 76 164.903 C 76 160, 83.058 152.552, 93.446 146.496 C 95.062 145.553, 95.033 144.969, 92.975 136.996 C 91.768 132.323, 89.741 122.924, 88.470 116.108 C 87.199 109.293, 85.651 103.402, 85.030 103.019 C 83.810 102.265, 21.956 100.710, 21.251 101.416 C 21.016 101.650, 28.851 105.849, 38.662 110.746 C 61.414 122.102, 62.290 123.424, 54.617 134.826 C 52.746 137.606, 51.467 140.133, 51.774 140.441 C 52.082 140.748, 54.396 141.026, 56.917 141.058 C 64.444 141.152, 69.446 142.361, 69.794 144.170 C 70.040 145.447, 67.940 146.486, 60.305 148.863 C 44.608 153.750, 37.512 159.667, 39.544 166.176 C 40.821 170.269, 46.214 176.922, 51.662 181.125 L 56.956 185.209 71.228 184.049 C 110.170 180.884, 112.851 180.290, 128.328 171.398 L 137.500 166.129 141.500 169.914 C 147.203 175.311, 152.086 178.741, 155.156 179.507 C 157.308 180.044, 157.940 179.763, 158.492 178.027 C 160.474 171.780, 148.754 142.992, 137.588 126.682 L 133.013 120 137.757 119.980 C 161.335 119.882, 175.696 109.981, 169.537 98.072 C 167.392 93.924, 162.795 92.770, 157.689 95.096 C 155.587 96.054, 154.290 95.570, 147.392 91.256 C 134.644 83.282, 135.468 83.506, 133.082 87.367 M 88.500 99 C 88.112 99.628, 90.046 99.956, 93.691 99.882 C 98.452 99.785, 98.959 99.626, 96.500 99 C 92.067 97.872, 89.197 97.872, 88.500 99 M 136.838 100.496 C 136.565 100.768, 125.803 101.497, 112.921 102.114 C 100.039 102.732, 89.363 103.358, 89.197 103.506 C 88.754 103.897, 91.784 119.863, 94.605 132 C 95.979 137.909, 97.730 143.014, 98.611 143.674 C 100.786 145.307, 99.954 148.476, 97.314 148.610 C 91.040 148.929, 79 159.722, 79 165.028 C 79 170.337, 85.402 171.350, 98.225 168.070 C 105.316 166.257, 122 159.335, 122 158.207 C 122 157.923, 119.339 155.284, 116.087 152.340 C 109.680 146.543, 105 138.582, 105 133.483 C 105 131.765, 106.238 127.915, 107.750 124.929 C 111.287 117.947, 119.255 111.523, 132.500 104.975 C 139.452 101.539, 141.713 100.027, 139.917 100.016 C 138.496 100.007, 137.110 100.223, 136.838 100.496" stroke="none" fill="black" fill-rule="evenodd"/>
</svg>