<svg xmlns="http://www.w3.org/2000/svg" width="200" height="200" viewBox="0 0 200 200" version="1.1">
	<path d="M 98.017 4.694 C 96.875 7.276, 95.673 10.453, 95.347 11.754 C 95.020 13.055, 94.214 13.912, 93.555 13.660 C 88.475 11.710, 75.679 8.074, 72 7.534 C 62.200 6.097, 61.413 12.293, 70.513 19.246 C 73.256 21.342, 78.512 24.507, 82.194 26.279 C 92.234 31.111, 90.589 34.051, 79.326 31.403 C 64.321 27.876, 49.709 28.760, 44.590 33.505 C 41.234 36.614, 41.313 39.467, 44.852 43.006 C 49.187 47.341, 57.406 49.332, 71 49.342 C 77.325 49.346, 81.600 49.523, 80.500 49.735 C 68.115 52.120, 60 60.469, 60 70.826 C 60 77.997, 65.786 89.186, 71.623 93.300 C 76.391 96.661, 77.295 98.524, 73.750 97.683 C 68.164 96.359, 44.995 95.868, 37.547 96.917 C 28.527 98.186, 25 99.995, 25 103.349 C 25 109.207, 42.691 117.840, 61.256 121.042 C 69.177 122.408, 72.010 125.211, 71.985 131.654 C 71.959 138.021, 71.295 138.321, 63.274 135.593 C 53.863 132.392, 45.383 130.687, 42.488 131.414 C 35.990 133.045, 35.338 139.089, 40.500 149.860 C 43.431 155.976, 44 158.258, 44 163.902 C 44 173.856, 47.585 180.530, 54.929 184.250 C 59.744 186.689, 61.458 187, 70.072 187 C 80.620 187, 87.672 185.766, 110.221 179.973 L 124.942 176.192 131.221 178.221 C 134.849 179.394, 140.526 180.303, 144.669 180.375 C 153.082 180.522, 156.620 178.594, 158.890 172.630 C 160.846 167.489, 158.529 158.415, 151.929 145.382 C 147.760 137.147, 145.884 134.560, 141.854 131.486 C 137.287 128.004, 134 123.629, 134 121.035 C 134 119.603, 139.676 116.197, 144 115.034 C 145.925 114.517, 154.025 113.165, 162 112.029 C 169.975 110.894, 177.923 109.501, 179.662 108.934 C 187.488 106.382, 183.489 101.406, 168.934 95.584 C 162.040 92.826, 158.154 90.549, 154.500 87.125 C 151.750 84.548, 147.363 81.104, 144.752 79.470 C 140.160 76.598, 140.004 76.342, 140.002 71.700 C 140.001 69.061, 139.340 65.625, 138.534 64.065 C 136.524 60.178, 129.276 53.977, 122.481 50.331 L 116.832 47.300 126.666 46.728 C 142.166 45.826, 156.059 40.498, 156.827 35.161 C 157.544 30.176, 153.191 28.419, 136.626 27.011 C 130.646 26.502, 125.592 25.925, 125.395 25.728 C 125.198 25.532, 124.356 21.809, 123.523 17.457 C 121.392 6.321, 119.144 0, 117.313 0 C 116.240 0, 116.009 0.521, 116.535 1.750 C 117.948 5.053, 122.297 24.036, 121.762 24.571 C 121.469 24.865, 116.564 23.131, 110.864 20.718 C 105.164 18.304, 99.726 16.050, 98.779 15.708 C 97.220 15.144, 97.189 14.716, 98.445 11.156 C 99.207 8.995, 100.544 5.849, 101.416 4.163 C 103.364 0.395, 103.376 -0, 101.547 0 C 100.748 0, 99.159 2.112, 98.017 4.694 M 67 11.304 C 67 13.259, 73.771 18.809, 81 22.778 C 90.152 27.804, 90.421 27.783, 91.917 21.948 C 92.631 19.161, 93.046 16.713, 92.840 16.507 C 91.850 15.517, 76.346 10.982, 71.963 10.401 C 67.850 9.855, 67 10.010, 67 11.304 M 94.600 22.661 C 93.464 25.996, 93.302 27.700, 94.051 28.444 C 95.262 29.648, 117.927 29.473, 119.150 28.250 C 119.570 27.830, 115.546 25.641, 110.207 23.386 C 95.403 17.132, 96.467 17.182, 94.600 22.661 M 123.753 31.771 C 124.168 34.595, 123.690 35.166, 117.361 39.412 L 110.521 44 120.813 44 C 135.503 44, 149.960 40.368, 153.829 35.706 C 156.414 32.591, 149.377 30.428, 133.211 29.369 L 123.305 28.719 123.753 31.771 M 49.250 33.973 C 35.987 39.993, 54.826 48.463, 77.095 46.492 C 85.772 45.723, 85.839 45.672, 87.398 38.498 L 88.050 35.495 77.275 33.736 C 63.167 31.433, 54.688 31.505, 49.250 33.973 M 114.500 33.136 C 112.850 33.667, 108.920 33.861, 105.766 33.567 C 102.612 33.274, 98.045 33.306, 95.616 33.639 C 91.798 34.162, 91.126 34.618, 90.649 37.005 C 90.345 38.524, 89.800 40.948, 89.438 42.391 C 88.863 44.683, 89.064 44.983, 91.029 44.758 C 94.617 44.347, 94.415 46.655, 90.789 47.509 C 87.699 48.237, 87.862 48.331, 93.500 49.070 C 96.800 49.502, 101.198 50.574, 103.272 51.451 C 108.534 53.675, 114.678 59.494, 116.003 63.508 C 116.863 66.114, 117.958 67.155, 120.808 68.075 C 122.839 68.730, 127.294 70.519, 130.708 72.051 C 136.671 74.727, 136.941 74.760, 137.531 72.903 C 139.300 67.328, 131.288 57.698, 120.239 52.121 C 114.760 49.355, 113.748 49.161, 108.863 49.938 C 105.634 50.451, 102.791 50.413, 101.718 49.843 C 100.036 48.948, 100.053 48.748, 102.034 46.230 C 103.187 44.764, 105.461 43.005, 107.086 42.322 C 111.282 40.557, 121 33.979, 121 32.903 C 121 31.780, 118.431 31.873, 114.500 33.136 M 105.500 47 C 104.718 48.266, 106.042 48.266, 108 47 C 109.293 46.165, 109.266 46.029, 107.809 46.015 C 106.879 46.007, 105.840 46.450, 105.500 47 M 77.222 53.470 C 63.728 57.683, 59.448 68.343, 65.949 81.548 C 68.685 87.105, 73.788 93, 75.864 93 C 76.255 93, 78.047 85.013, 79.847 75.250 C 81.648 65.487, 83.371 56.263, 83.677 54.750 C 84.317 51.586, 83.666 51.457, 77.222 53.470 M 86.176 56.622 C 83.372 69.711, 79.907 90.331, 80.186 92.272 C 81.089 98.544, 108.411 95.754, 122.965 87.902 C 128.714 84.801, 131.245 82.886, 134.301 79.327 C 136.089 77.245, 136.046 77.206, 128.801 74.227 C 116.884 69.326, 117.009 69.337, 116.944 73.183 C 116.876 77.223, 113.749 85.250, 112.019 85.827 C 110.201 86.433, 94.857 78.425, 90.205 74.443 C 88.028 72.580, 86.016 70.169, 85.732 69.085 C 85.086 66.611, 87.623 64.225, 91.787 63.393 C 94.690 62.812, 109.323 64.419, 112.607 65.679 C 113.667 66.086, 113.829 65.715, 113.259 64.186 C 110.931 57.942, 102.687 52.985, 93.390 52.239 L 87.221 51.744 86.176 56.622 M 89 67.045 C 87.754 67.887, 88.201 68.695, 91.644 71.821 C 93.923 73.890, 99.084 77.279, 103.113 79.352 C 109.793 82.788, 110.547 82.973, 111.660 81.450 C 112.921 79.726, 115.333 70, 114.665 69.332 C 114.459 69.125, 111.187 68.299, 107.395 67.495 C 99.376 65.797, 91.145 65.595, 89 67.045 M 134.453 83.057 C 132.279 85.289, 127.029 88.855, 122.787 90.981 C 112.041 96.367, 102.492 98.317, 89.200 97.837 C 83.315 97.625, 79.293 97.609, 80.262 97.801 C 81.231 97.994, 81.767 98.567, 81.453 99.076 C 80.709 100.280, 81.874 100.252, 105.500 98.506 C 126.527 96.952, 142.760 96.587, 145.418 97.607 C 150.627 99.606, 142.645 104.269, 124.401 109.884 L 114.302 112.993 114.748 137.246 C 115.200 161.846, 114.476 168.700, 111.313 169.736 C 109.310 170.392, 106.335 166.522, 104.109 160.365 C 102.943 157.139, 101.467 153.600, 100.829 152.500 C 100.191 151.400, 98.593 148.360, 97.279 145.745 L 94.890 140.990 87.695 151.850 C 83.738 157.824, 79.733 164.126, 78.797 165.855 C 77.032 169.113, 73.802 170.056, 72.309 167.750 C 71.864 167.063, 71.275 160.719, 71 153.653 L 70.500 140.806 63 138.425 C 51.955 134.918, 45.542 133.647, 42.607 134.384 C 40.376 134.944, 40 135.580, 40 138.797 C 40 141.036, 41.416 145.511, 43.500 149.860 C 46.406 155.923, 47.004 158.295, 47.022 163.831 C 47.062 176.087, 51.487 181.710, 62.975 184.102 C 70.742 185.719, 82.508 184.094, 105.940 178.169 L 125.089 173.326 133.158 175.663 C 137.596 176.948, 143.460 178, 146.190 178 C 150.392 178, 151.623 177.531, 154.208 174.946 C 157.082 172.071, 157.225 171.571, 156.625 166.467 C 155.397 156.015, 146.657 138.398, 140.311 133.585 C 131.325 126.768, 129.237 120.615, 134.489 116.427 C 138.275 113.408, 145.606 111.522, 163.220 109.037 C 171.316 107.895, 178.648 106.689, 179.513 106.357 C 182.375 105.258, 178.437 102.385, 168.766 98.514 C 162.734 96.100, 157.850 93.295, 154.110 90.097 C 149.040 85.763, 139.694 79, 138.773 79 C 138.571 79, 136.627 80.826, 134.453 83.057 M 34.143 100.001 C 27.913 101.332, 26.458 102.742, 28.725 105.253 C 32.846 109.817, 51.811 117.094, 63.307 118.523 C 68.023 119.109, 69.432 119.732, 70.807 121.837 C 72.481 124.399, 72.518 124.298, 74.057 112.964 C 74.914 106.659, 75.315 101.136, 74.949 100.692 C 73.970 99.502, 39.232 98.914, 34.143 100.001 M 116.500 100.550 C 107.150 101.259, 94.662 101.876, 88.750 101.920 C 82.838 101.964, 77.996 102.338, 77.992 102.750 C 77.988 103.162, 77.320 108.827, 76.508 115.337 L 75.031 127.174 77.447 130.341 C 82.657 137.172, 82.504 142, 77.079 142 C 74.374 142, 74.231 142.245, 73.580 148 C 72.826 154.657, 73.787 166, 75.103 166 C 75.568 166, 76.686 164.537, 77.588 162.750 C 78.490 160.963, 82.501 154.550, 86.503 148.500 C 93.290 138.237, 93.809 137.065, 94.253 131 C 95.045 120.199, 101.045 109.255, 105.661 110.193 C 108.988 110.869, 107.744 117.132, 102.078 128.230 L 96.889 138.391 100.368 145.446 C 102.281 149.326, 104.800 154.928, 105.966 157.896 C 107.132 160.864, 108.584 164.222, 109.192 165.359 C 110.295 167.420, 110.301 167.419, 111.132 165.173 C 113.354 159.164, 112.864 121.961, 110.450 113.440 C 109.922 111.578, 110.903 111.064, 120.661 108.091 C 135.098 103.692, 142 101.051, 142 99.928 C 142 98.801, 138.413 98.888, 116.500 100.550 M 102.845 114.673 C 100.201 117.685, 98.096 122.525, 97.421 127.145 C 96.797 131.423, 96.815 131.460, 98.481 129.205 C 100.632 126.294, 105.205 115.114, 104.774 113.822 C 104.595 113.285, 103.727 113.669, 102.845 114.673 M 74.634 133.512 C 73.267 137.075, 73.921 139, 76.500 139 C 79.485 139, 79.573 138.390, 77.127 134.680 C 75.582 132.336, 75.161 132.139, 74.634 133.512" stroke="none" fill="black" fill-rule="evenodd"/>
</svg>