<svg xmlns="http://www.w3.org/2000/svg" width="200" height="200" viewBox="0 0 200 200" version="1.1">
	<path d="M 62.893 16.629 C 61.927 17.793, 62.113 18.662, 63.827 20.980 C 65.842 23.705, 65.903 24.340, 64.861 31.688 L 63.753 39.500 59.126 39.546 C 47.974 39.656, 42 42.773, 42 48.484 C 42 53.944, 49.782 58.977, 58.250 58.994 C 59.763 58.997, 60.999 59.337, 60.999 59.750 C 60.998 60.163, 60.137 67.250, 59.084 75.500 C 58.031 83.750, 56.600 96.417, 55.903 103.649 L 54.635 116.797 41.067 116.278 C 28.197 115.786, 27.359 115.872, 24.750 117.952 C 21.183 120.796, 21.283 122.485, 25.250 126.440 C 28.988 130.167, 36.959 133.412, 46.424 135.060 C 50.041 135.690, 53 136.542, 53 136.954 C 53 137.365, 49.985 138.601, 46.301 139.699 C 42.616 140.797, 39.429 142.214, 39.217 142.848 C 38.766 144.203, 41.895 144.359, 45.185 143.146 C 46.458 142.677, 48.737 141.993, 50.250 141.627 L 53 140.962 53 153.771 C 53 170.203, 54.653 177.211, 59.628 181.866 L 63.225 185.233 79.362 184.537 C 94.881 183.867, 95.807 183.938, 103.500 186.383 C 114.653 189.928, 121.062 190.479, 129.765 188.638 C 148.071 184.766, 159.367 173.058, 150.881 166.751 C 146.021 163.139, 127.182 164.498, 114.500 169.374 C 112.300 170.220, 108.226 170.932, 105.446 170.956 C 97.212 171.028, 91.506 167.457, 79.752 154.879 C 74.139 148.873, 67.807 142.753, 65.681 141.279 L 61.814 138.599 76.157 134.624 L 90.500 130.649 130 130.574 C 164.810 130.509, 170.361 130.283, 176.750 128.670 C 180.737 127.663, 184 126.628, 184 126.370 C 184 124.741, 180.579 119.837, 177.645 117.261 C 174.080 114.131, 164.793 110.642, 157.143 109.559 C 151.769 108.798, 138.373 103.654, 135.026 101.066 C 132.727 99.289, 132.666 99.023, 134.159 97.327 C 136.922 94.188, 139.780 87.647, 140.507 82.802 C 142.568 69.061, 132.129 59.358, 114.052 58.211 C 105.976 57.699, 105.667 57.597, 108.500 56.380 C 110.401 55.562, 116.144 55.074, 124.178 55.045 C 150.095 54.953, 161.487 51.515, 157.925 44.859 C 156.640 42.459, 145.617 35.169, 142.045 34.357 C 140.645 34.039, 135 32.419, 129.500 30.758 C 121.234 28.262, 119.007 27.150, 116.660 24.348 C 110.658 17.184, 105.651 15.874, 82.800 15.489 C 67.379 15.229, 63.889 15.429, 62.893 16.629 M 65.767 19.167 C 66.631 20.031, 67.530 20.048, 69.217 19.235 C 71.361 18.202, 71.290 18.131, 68.050 18.068 C 65.420 18.016, 64.878 18.278, 65.767 19.167 M 100.955 22.009 C 108.355 24.162, 114.578 25.756, 114.783 25.550 C 114.989 25.345, 113.209 24.037, 110.829 22.645 C 105.660 19.623, 99.319 18.041, 92.500 18.072 C 87.911 18.093, 88.606 18.417, 100.955 22.009 M 73.649 20.669 C 68.989 22.062, 68.865 22.194, 70.500 24 C 71.436 25.034, 75.670 28.157, 79.909 30.940 C 87.355 35.828, 87.858 36, 94.759 36 C 98.687 36, 104.169 35.514, 106.939 34.920 C 111.815 33.874, 117.086 30.761, 115.937 29.606 C 115.266 28.932, 85.810 20.495, 81.500 19.743 C 79.850 19.454, 76.317 19.871, 73.649 20.669 M 67.991 27.761 C 67.987 28.718, 67.705 31.813, 67.365 34.641 L 66.747 39.782 70.874 40.479 C 73.400 40.906, 75 41.716, 75 42.569 C 75 43.640, 73.983 43.822, 70.603 43.359 L 66.207 42.757 65.353 49.128 L 64.500 55.500 67.821 55.815 C 69.648 55.988, 75.437 54.911, 80.687 53.421 C 89.413 50.946, 91.164 50.770, 101.099 51.373 L 111.967 52.033 123.089 46.456 C 129.206 43.388, 134.005 40.672, 133.753 40.420 C 133.502 40.168, 124.869 40.646, 114.569 41.481 C 90.235 43.455, 85 43.458, 85 41.500 C 85 40.297, 86.533 39.997, 92.750 39.987 C 97.013 39.980, 108.301 39.310, 117.836 38.498 C 142.550 36.393, 144.780 38.229, 128.162 46.996 L 118.500 52.094 133 51.621 C 147.156 51.160, 154.275 49.982, 155.569 47.889 C 156.471 46.428, 152.853 42.893, 147.794 40.294 C 143.601 38.139, 122.404 31, 120.200 31 C 119.590 31, 117.997 32.094, 116.660 33.431 C 113.246 36.845, 107.056 38.326, 95.814 38.420 L 86.128 38.500 77.064 32.261 C 70.165 27.513, 67.998 26.438, 67.991 27.761 M 51 43.141 C 40.659 45.979, 43.742 53.973, 55.920 55.898 C 58.747 56.345, 61.226 56.438, 61.429 56.105 C 61.631 55.772, 62.120 52.462, 62.515 48.750 L 63.233 42 58.866 42.090 C 56.465 42.140, 52.925 42.613, 51 43.141 M 88.500 53.976 C 86.967 54.653, 87.594 54.876, 91.185 54.930 C 93.762 54.968, 97.052 55.450, 98.498 55.999 C 100.449 56.741, 101.817 56.623, 103.813 55.539 C 106.424 54.121, 106.331 54.079, 100.500 54.026 C 97.200 53.997, 93.600 53.775, 92.500 53.533 C 91.400 53.291, 89.600 53.490, 88.500 53.976 M 84.718 58.056 C 76.523 60.063, 70.556 65.209, 66.945 73.384 C 62.030 84.511, 65.175 96.740, 74.420 102.456 C 78.596 105.038, 80.631 105.540, 89.865 106.267 C 95.714 106.728, 103.177 107.350, 106.448 107.651 C 109.839 107.963, 114.096 107.689, 116.348 107.014 C 120.746 105.696, 128.220 101.092, 127.782 99.970 C 127.627 99.572, 124.466 96.667, 120.757 93.512 L 114.014 87.777 109.987 89.389 C 105.335 91.250, 93.913 91.538, 90.684 89.875 C 81.101 84.939, 81.703 76.032, 92.394 64.557 C 97.225 59.371, 97.901 58, 95.625 58 C 94.869 58, 92.956 57.804, 91.375 57.565 C 89.794 57.326, 86.798 57.547, 84.718 58.056 M 68.351 58.727 C 64.576 59.071, 64.152 59.392, 63.642 62.303 C 62.562 68.452, 61.980 78.593, 62.855 76 C 64.732 70.436, 68.071 65.168, 71.930 61.682 C 74.606 59.265, 75.404 58.060, 74.253 58.175 C 73.289 58.271, 70.633 58.519, 68.351 58.727 M 98 61.938 C 98 63.193, 109.126 77.871, 112.370 80.896 L 114.939 83.291 115.963 80.598 C 117.452 76.681, 115.329 72.487, 108.699 66.250 C 104.966 62.737, 102.273 61, 100.560 61 C 99.152 61, 98 61.422, 98 61.938 M 112.704 66.255 C 119.327 73.290, 120.137 76.386, 117.511 84.618 C 116.956 86.360, 118.036 87.754, 123.602 92.476 C 129.984 97.890, 130.448 98.111, 131.763 96.358 C 135.798 90.978, 137.409 86.328, 137.454 79.926 C 137.494 74.271, 137.119 72.851, 134.777 69.778 C 130.874 64.656, 124.273 61.779, 115.105 61.205 L 107.500 60.728 112.704 66.255 M 92.070 68.912 C 88.158 73.850, 85.733 79.585, 86.515 82.047 C 88.297 87.662, 97.396 90.190, 106.403 87.571 C 109.482 86.676, 112 85.743, 112 85.498 C 112 85.252, 109.060 81.410, 105.467 76.959 C 101.874 72.509, 98.391 67.997, 97.726 66.934 C 96.068 64.279, 95.613 64.438, 92.070 68.912 M 59.373 97.500 C 58.218 107.950, 57.404 116.656, 57.566 116.846 C 58.162 117.550, 134.761 114.970, 141.958 114.004 C 153.711 112.426, 154.046 112.101, 146.604 109.501 C 142.979 108.234, 137.983 106.008, 135.502 104.554 L 130.991 101.910 126.459 105.028 C 119.633 109.724, 113.977 111.329, 106.694 110.637 C 103.287 110.313, 95.704 109.654, 89.842 109.172 C 80.797 108.430, 78.376 107.843, 73.842 105.293 C 66.353 101.080, 62.803 95.176, 62.046 85.673 C 61.496 78.783, 61.391 79.249, 59.373 97.500 M 134.059 119.790 C 102.775 127.660, 102.831 127.797, 137.500 128.211 C 159.878 128.479, 175.486 127.240, 179.066 124.913 C 180.216 124.166, 179.681 123.204, 176.363 120.059 C 172.660 116.550, 170.738 115.673, 162 113.509 C 161.175 113.305, 148.601 116.131, 134.059 119.790 M 31.500 118.437 C 30.950 118.650, 29.262 119.098, 27.750 119.432 C 19.457 121.261, 31.013 129.564, 45.305 132.044 C 49.047 132.693, 52.349 132.984, 52.642 132.691 C 52.935 132.398, 53.417 129.489, 53.713 126.227 L 54.251 120.296 50.375 119.705 C 44.412 118.795, 32.618 118.003, 31.500 118.437 M 88.833 118.938 C 71.966 119.247, 57.938 119.728, 57.660 120.006 C 57.382 120.284, 56.830 123.382, 56.433 126.889 L 55.712 133.266 61.405 132.555 C 64.536 132.164, 70.218 130.754, 74.030 129.422 C 78.855 127.736, 83.173 126.992, 88.231 126.973 C 93.591 126.952, 99.833 125.789, 112 122.544 C 123.981 119.347, 127.267 118.174, 124 118.259 C 121.525 118.323, 105.700 118.629, 88.833 118.938 M 79.813 130.683 C 80.534 130.972, 81.397 130.936, 81.729 130.604 C 82.061 130.272, 81.471 130.036, 80.417 130.079 C 79.252 130.127, 79.015 130.364, 79.813 130.683 M 56.813 136.683 C 57.534 136.972, 58.397 136.936, 58.729 136.604 C 59.061 136.272, 58.471 136.036, 57.417 136.079 C 56.252 136.127, 56.015 136.364, 56.813 136.683 M 55.605 142.346 C 53.831 148.959, 55.968 171.056, 58.945 176.893 C 61.724 182.339, 65.481 183.348, 77.500 181.877 C 88.584 180.520, 97.634 181.275, 105.500 184.211 C 113.944 187.363, 128.074 187.310, 136.282 184.096 C 146.947 179.920, 153.797 172.940, 150.483 169.626 C 146.884 166.027, 127.405 167.034, 117.500 171.331 C 110.478 174.377, 100.163 174.278, 94 171.105 C 91.423 169.779, 84.373 163.566, 77.500 156.566 C 63.943 142.756, 63.338 142.244, 59.188 141.054 C 56.582 140.307, 56.106 140.478, 55.605 142.346" stroke="none" fill="black" fill-rule="evenodd"/>
</svg>