<svg xmlns="http://www.w3.org/2000/svg" width="200" height="200" viewBox="0 0 200 200" version="1.1">
	<path d="M 124.500 12.075 C 119.550 12.542, 107.400 13.636, 97.500 14.507 C 67.360 17.159, 62.736 17.894, 60.772 20.344 C 56.787 25.316, 60.030 29.540, 72.339 35.413 C 87.100 42.456, 99.084 44.075, 105.863 39.942 C 109.902 37.480, 110.847 37.872, 107.746 40.726 C 105.761 42.552, 102.901 43, 83.157 44.578 C 66.576 45.903, 59.801 46.093, 56.884 45.315 C 54.477 44.672, 52.730 44.627, 52.377 45.199 C 49.991 49.059, 62.871 49.405, 95.422 46.356 L 102.344 45.708 98.460 50.354 C 96.324 52.909, 93.852 55, 92.966 55 C 92.080 55, 84.188 55.720, 75.427 56.599 C 56.898 58.459, 44.979 58.126, 40.178 55.613 C 37.180 54.044, 36.884 53.495, 37.137 49.980 C 37.449 45.668, 36.397 43.759, 34.961 46.029 C 33.160 48.876, 33.905 53.632, 36.568 56.295 C 41.459 61.187, 49.480 61.859, 74.387 59.467 C 83.126 58.628, 90.398 58.067, 90.548 58.221 C 90.698 58.374, 89.816 59.757, 88.589 61.293 C 86.614 63.763, 86.040 63.966, 83.613 63.043 C 76.393 60.298, 66.050 63.346, 58.046 70.578 C 52.658 75.445, 50.998 78.778, 51.010 84.700 C 51.031 95.056, 59.842 106.223, 72.759 112.268 C 81.964 116.576, 93.832 117.275, 102 113.992 C 105.025 112.776, 109.933 110.930, 112.906 109.890 C 128.120 104.569, 132.801 93.925, 125.953 80.221 C 122.241 72.793, 113.741 64.070, 106.712 60.475 L 101.500 57.810 106.183 58.456 C 114.435 59.595, 136.185 54.552, 137.483 51.199 C 138.430 48.751, 133.654 45.160, 124.046 41.097 C 119.621 39.226, 116 37.347, 116 36.922 C 116 35.971, 131.096 24.519, 135.031 22.484 C 136.601 21.672, 138.086 21.343, 138.330 21.754 C 140.250 24.983, 145.242 43.874, 146.219 51.609 C 147.250 59.773, 147.192 62.279, 145.817 68.927 C 144.285 76.336, 144.300 76.970, 146.143 82.429 C 147.207 85.580, 148.106 90.545, 148.141 93.463 C 148.359 111.772, 132.240 117.323, 74 118.997 C 53.513 119.585, 44.977 120.208, 40.529 121.438 C 29.760 124.417, 28.325 128.378, 36.126 133.591 C 38.670 135.292, 44.661 137.955, 49.440 139.509 L 58.129 142.336 62.591 140.168 C 72.991 135.115, 75.629 138.767, 78.465 162.135 C 80.099 175.598, 81.830 180.510, 85.537 182.199 C 87.794 183.227, 88.794 183.075, 92.418 181.153 C 94.750 179.916, 99.252 176.282, 102.422 173.079 L 108.186 167.254 105.595 163.151 C 104.171 160.894, 102.471 157.051, 101.818 154.611 C 98.347 141.630, 110.614 130.883, 129 130.796 C 137.648 130.755, 143.029 132.588, 145.549 136.434 C 147.040 138.711, 147.106 139.782, 146.077 145.016 C 145.429 148.305, 144.900 154.803, 144.900 159.456 C 144.900 173.208, 148.028 181.362, 154.478 184.423 C 157.518 185.865, 158.325 185.891, 161.314 184.642 C 167.106 182.222, 171.147 174.678, 172.514 163.731 C 172.893 160.699, 173.609 133.307, 174.105 102.859 C 174.602 72.412, 175.265 43.790, 175.580 39.256 C 176.089 31.916, 175.883 30.423, 173.697 25.649 C 169.151 15.720, 159.822 11.509, 148.500 14.273 C 145.200 15.079, 141.686 16.080, 140.692 16.498 C 139.159 17.143, 138.931 16.821, 139.192 14.379 C 139.468 11.803, 139.185 11.486, 136.500 11.363 C 134.850 11.288, 129.450 11.608, 124.500 12.075 M 106 16.558 C 91.975 17.834, 78.963 18.905, 77.083 18.939 C 69.483 19.075, 75.814 20.335, 90.488 21.608 C 99.048 22.350, 106.940 23.433, 108.026 24.014 C 109.580 24.845, 110 26.115, 110 29.976 C 110 32.674, 110.457 35.164, 111.016 35.510 C 111.574 35.855, 115.411 33.419, 119.541 30.096 C 123.672 26.773, 129.177 22.837, 131.776 21.349 C 134.374 19.861, 136.654 18.533, 136.841 18.397 C 137.029 18.262, 136.886 17.217, 136.524 16.075 C 136.103 14.749, 135.078 14.043, 133.683 14.119 C 132.482 14.184, 120.025 15.282, 106 16.558 M 146.734 17.417 C 144.112 18.122, 141.716 18.951, 141.408 19.259 C 141.100 19.567, 142.185 24.022, 143.820 29.159 C 145.455 34.297, 147.352 41.200, 148.036 44.500 C 149.698 52.520, 149.776 66.440, 148.191 72 C 147.049 76.004, 147.133 77.151, 148.954 82.407 C 151.307 89.200, 151.603 97.623, 149.653 102.282 C 148.912 104.052, 146.496 107.133, 144.284 109.129 C 134.926 117.573, 117.884 120.594, 72 121.943 C 50.049 122.589, 44.556 123.047, 40 124.611 C 36.707 125.742, 34.500 127.086, 34.500 127.960 C 34.500 130.208, 39.853 133.312, 49.204 136.487 L 57.705 139.373 62.905 137.136 C 68.369 134.786, 71.017 134.955, 74.388 137.868 C 77.585 140.632, 79.042 145.646, 81.032 160.743 C 82.942 175.235, 84.561 180, 87.573 180 C 90.278 180, 94.383 177.277, 99.368 172.174 L 104.236 167.192 101.476 161.358 C 92.579 142.550, 106.748 126.896, 131.495 128.195 C 141.114 128.700, 145.645 130.823, 148.213 136.028 C 149.799 139.243, 149.812 140.129, 148.391 148 C 146.768 156.988, 147.043 166.073, 149.150 173.106 C 150.610 177.980, 155.011 183, 157.824 183 C 161.720 183, 165.844 178.238, 168.066 171.176 C 170.067 164.817, 170.190 161.844, 170.666 108.500 C 171.053 65.165, 171.496 50.826, 172.623 45.100 C 175.148 32.271, 171.704 22.632, 163.030 18.250 C 158.057 15.738, 153.788 15.519, 146.734 17.417 M 62 24.449 C 62 27.483, 74.035 34.501, 84.413 37.518 C 91.354 39.536, 100.631 39.803, 103.854 38.078 C 105.129 37.396, 106.020 36.697, 105.836 36.524 C 105.651 36.351, 98.852 33.238, 90.726 29.605 C 77.089 23.508, 75.416 23, 68.976 23 C 63.551 23, 62 23.322, 62 24.449 M 86 24.273 C 86.275 24.568, 91.133 26.861, 96.796 29.368 C 107.690 34.191, 108.995 34.100, 107.618 28.613 C 107.139 26.705, 106.171 26.113, 102.760 25.642 C 94.163 24.456, 85.513 23.749, 86 24.273 M 111 41.500 C 109.934 42.785, 110.257 43, 113.255 43 C 115.180 43, 117.322 43.683, 118.016 44.519 C 119.624 46.457, 117.413 49.084, 111.001 52.854 C 106.627 55.425, 106.577 55.509, 109.248 55.816 C 112.038 56.137, 125.810 53.715, 131.759 51.857 C 133.624 51.274, 134.740 50.388, 134.367 49.785 C 133.568 48.493, 115.577 40, 113.639 40 C 112.872 40, 111.685 40.675, 111 41.500 M 102.777 49.882 C 99.039 53.477, 98.020 54.963, 99.283 54.978 C 101.196 55.002, 108.599 51.398, 113.500 48.058 L 116.500 46.013 113.832 46.007 C 112.364 46.003, 110.464 45.732, 109.609 45.403 C 108.598 45.015, 106.209 46.581, 102.777 49.882 M 95 60.731 C 94.175 61.019, 92.494 62.170, 91.264 63.288 L 89.028 65.322 93.407 70.004 C 99.070 76.058, 101.040 79.985, 101.720 86.576 C 102.247 91.683, 102.110 92.090, 98.736 95.464 C 95.538 98.662, 94.670 99, 89.652 99 C 84.559 99, 70.556 95.336, 67.094 93.098 C 65.792 92.257, 70.797 84.636, 83.278 68.457 C 84.982 66.248, 84.982 66.132, 83.278 65.669 C 75.583 63.577, 71.738 64.393, 63.071 69.954 C 50.455 78.050, 50.403 90.620, 62.937 102.345 C 74.705 113.352, 90.830 116.371, 104.465 110.120 C 106.684 109.103, 110.750 107.462, 113.500 106.474 C 116.250 105.486, 120.188 103.003, 122.250 100.956 C 125.665 97.568, 126 96.750, 126 91.814 C 126 84.742, 122.385 77.429, 115.474 70.518 C 108.736 63.779, 99.253 59.247, 95 60.731 M 78.480 79.441 C 73.701 85.867, 69.951 91.261, 70.146 91.427 C 70.341 91.593, 73.314 92.690, 76.754 93.865 C 85.049 96.697, 94.242 96.758, 97 94 C 101.395 89.605, 98.575 78.896, 91.101 71.599 L 87.168 67.758 78.480 79.441" stroke="none" fill="black" fill-rule="evenodd"/>
</svg>