<svg xmlns="http://www.w3.org/2000/svg" width="200" height="200" viewBox="0 0 200 200" version="1.1">
	<path d="M 70 8.644 C 67.206 9.793, 65 12.301, 65 14.326 C 65 15.435, 67.001 18.260, 69.446 20.603 L 73.893 24.864 72.295 28.932 L 70.697 33 62.598 33.006 C 52.133 33.013, 43.211 34.499, 40.862 36.625 C 37.259 39.886, 39.217 44.799, 45.989 49.492 C 51.651 53.416, 53.027 51.565, 47.555 47.386 C 42.586 43.592, 40.765 40.998, 41.844 39.252 C 42.993 37.394, 50.863 36.051, 60.750 36.024 C 71.084 35.997, 70.666 35.606, 69.078 43.821 C 68.618 46.197, 68.584 49.657, 69.002 51.509 C 69.643 54.353, 69.377 55.235, 67.285 57.188 C 64.092 60.171, 60.377 66.633, 59.537 70.666 C 57.885 78.603, 64.485 88.644, 74.608 93.597 C 77.574 95.048, 80 96.595, 80 97.036 C 80 97.476, 80.230 98.436, 80.511 99.168 C 80.928 100.255, 76.554 100.500, 56.761 100.500 C 30.019 100.500, 25.926 101.122, 12.749 107.189 C 1.729 112.263, 2.023 112.506, 20.774 113.821 C 38.884 115.092, 54.974 117.381, 58.296 119.159 C 60.367 120.267, 60.364 120.289, 57.813 122.387 C 56.400 123.549, 52.505 126.158, 49.157 128.185 C 41.877 132.592, 40.460 135.732, 44.036 139.538 C 45.290 140.873, 47.121 142.221, 48.105 142.533 C 49.622 143.015, 49.303 143.635, 46.005 146.614 C 36.534 155.171, 36.919 169.865, 46.913 181.249 C 54.046 189.372, 66.509 191.926, 80.228 188.076 C 87.277 186.099, 90.007 185.956, 118.658 186.077 C 154.295 186.227, 159.090 185.542, 164.750 179.499 C 168.507 175.488, 168.728 173.201, 165.949 167.076 C 164.146 163.101, 154.089 149.791, 151.838 148.400 C 151.344 148.095, 149.371 149.223, 147.452 150.908 C 142.895 154.909, 140.549 155.404, 129.938 154.603 C 117.502 153.664, 112.311 156.225, 108.588 165.136 C 107.119 168.652, 106.883 168.774, 99.499 169.873 C 89.383 171.377, 78 171.357, 78 169.835 C 78 169.194, 82.887 163.668, 88.860 157.555 C 94.834 151.442, 100.470 144.992, 101.386 143.220 C 102.302 141.449, 103.286 140, 103.573 140 C 103.859 140, 109.360 140.949, 115.797 142.110 C 135.117 145.593, 148.275 145.032, 151.235 140.600 C 153.699 136.909, 149.498 130.047, 140.745 123.468 C 137.277 120.861, 135.371 118.838, 136.157 118.599 C 136.896 118.373, 143.350 117.418, 150.500 116.477 C 164.483 114.636, 177.449 111.702, 179.642 109.882 C 181.560 108.291, 181.327 105.606, 179.096 103.587 C 178.049 102.639, 168.261 98.024, 157.346 93.331 C 146.431 88.638, 137.382 84.688, 137.237 84.553 C 137.092 84.418, 137.655 82.677, 138.487 80.686 C 141.465 73.559, 140.051 67.152, 134.339 61.879 C 129.863 57.748, 126.814 56.112, 116.830 52.487 L 107.500 49.100 122.500 49.017 C 147.646 48.879, 156.206 47.043, 156.825 41.659 C 157.081 39.427, 156.280 38.006, 153.022 34.906 C 148.462 30.568, 143.640 27.910, 130.379 22.424 C 125.496 20.404, 120.150 17.614, 118.500 16.224 C 112.323 11.021, 109.707 10.501, 80 8.577 C 75.325 8.274, 70.825 8.304, 70 8.644 M 69.750 12.080 C 67.108 13.619, 67.618 15.458, 71.674 19.018 L 75.347 22.244 77.217 19.676 C 78.246 18.264, 80.643 16.148, 82.544 14.973 C 84.445 13.798, 86 12.424, 86 11.918 C 86 10.668, 71.935 10.808, 69.750 12.080 M 86.846 15.517 C 84.286 16.850, 81.233 19.160, 80.061 20.649 L 77.931 23.357 83.216 25.628 C 86.122 26.877, 93.559 29.109, 99.741 30.588 L 110.983 33.277 114.973 30.637 C 119.377 27.722, 121.119 23.653, 118.880 21.512 C 117.323 20.025, 95.994 12.975, 93.268 13.047 C 92.296 13.072, 89.406 14.184, 86.846 15.517 M 122.568 25.586 C 122.211 27.008, 120.761 29.329, 119.347 30.744 L 116.775 33.315 125.969 32.663 C 138.669 31.761, 137.438 33.380, 121.955 37.942 C 115.105 39.960, 107.700 42.579, 105.500 43.761 L 101.500 45.912 121 45.950 C 141.729 45.991, 151.446 44.983, 153.890 42.538 C 156.516 39.913, 148.303 33.223, 135.654 27.683 C 129.772 25.107, 124.568 23, 124.088 23 C 123.609 23, 122.925 24.164, 122.568 25.586 M 74.987 29.032 C 74.296 30.700, 73.904 32.214, 74.115 32.397 C 74.327 32.580, 79.900 32.976, 86.500 33.276 L 98.500 33.823 87.500 29.921 C 81.450 27.774, 76.442 26.014, 76.371 26.009 C 76.301 26.004, 75.677 27.364, 74.987 29.032 M 72.630 38.250 C 72.299 39.487, 72.021 41.867, 72.014 43.537 L 72 46.574 77.750 45.963 C 80.912 45.628, 85.184 44.517, 87.242 43.495 C 90.955 41.652, 91.003 41.654, 93.307 43.818 C 96.235 46.569, 97.300 46.554, 100.362 43.715 C 101.718 42.459, 105.791 40.385, 109.414 39.106 C 113.036 37.827, 116 36.605, 116 36.390 C 116 36.176, 106.377 36, 94.617 36 C 73.287 36, 73.232 36.006, 72.630 38.250 M 81.500 49.996 C 79.300 51.092, 76.314 53.004, 74.864 54.245 L 72.228 56.500 73.626 64.500 C 74.394 68.900, 76.419 77.313, 78.125 83.196 L 81.227 93.891 88.061 95.446 C 104.232 99.124, 124.799 95.489, 131.285 87.807 C 133.059 85.705, 133 85.656, 120.960 79.359 L 108.850 73.025 106.431 75.900 C 103.362 79.547, 98.346 80.589, 93.539 78.581 C 87.085 75.884, 87.527 70.827, 94.627 66.124 L 99.264 63.052 102.190 65.135 C 103.799 66.281, 105.276 67.057, 105.473 66.859 C 106.239 66.090, 103.053 60.216, 98.634 54.250 C 94.218 48.289, 93.808 48, 89.752 48.001 C 87.413 48.001, 83.700 48.899, 81.500 49.996 M 98 48.466 C 98 48.750, 99.642 51.124, 101.649 53.741 C 105.511 58.779, 108.941 65.472, 108.978 68.042 C 109 69.605, 116.283 74.206, 127.851 79.968 C 131.344 81.708, 134.321 82.989, 134.466 82.815 C 137.406 79.293, 137.806 71.173, 135.252 66.849 C 132.750 62.614, 126.015 58.687, 114.297 54.632 C 108.686 52.689, 102.723 50.391, 101.047 49.524 C 99.371 48.658, 98 48.181, 98 48.466 M 72 51.155 C 72 53.284, 72.027 53.287, 74.250 51.416 C 75.487 50.374, 76.688 49.404, 76.917 49.261 C 77.146 49.117, 76.133 49, 74.667 49 C 72.603 49, 72 49.487, 72 51.155 M 66.097 63.025 C 60.613 70.595, 60.813 77.574, 66.701 84.091 C 70.238 88.005, 76.730 92.603, 77.555 91.778 C 77.803 91.531, 77.119 88.753, 76.036 85.605 C 74.953 82.458, 73.096 75.297, 71.908 69.691 C 70.720 64.086, 69.613 59.346, 69.448 59.157 C 69.282 58.968, 67.775 60.709, 66.097 63.025 M 94.750 69.115 C 88.433 73.828, 94.709 79.368, 102.398 75.865 C 106.228 74.119, 106.543 71.846, 103.312 69.261 C 99.864 66.501, 98.289 66.474, 94.750 69.115 M 133.771 89.227 C 131.765 92.288, 122.821 96.599, 114.314 98.607 C 107.113 100.307, 92.866 100.034, 86.160 98.067 C 83.322 97.235, 82.909 97.319, 83.410 98.626 C 83.734 99.472, 84 100.352, 84 100.582 C 84 101.919, 112.697 100.724, 122.500 98.979 C 149.183 94.228, 153 94.107, 153 98.013 C 153 101.186, 146.147 105.423, 121 117.796 C 108.075 124.156, 97.271 129.693, 96.991 130.100 C 95.687 131.994, 93.731 131.220, 92.668 128.391 C 92.026 126.681, 89.475 120.539, 87 114.742 C 81.612 102.123, 83.984 103.027, 56.208 103.011 C 36.549 103, 26.472 104.227, 17.833 107.684 C 12.531 109.805, 13.041 111, 19.250 111.001 C 27.867 111.003, 50.961 114, 56.330 115.812 C 63.290 118.162, 64.396 120.338, 60.393 123.807 C 58.683 125.288, 54.521 128.168, 51.143 130.207 C 46.980 132.719, 45 134.543, 45 135.868 C 45 138.649, 52.370 141.994, 58.566 142.024 C 67.506 142.069, 82 146.768, 82 149.623 C 82 150.380, 81.600 151, 81.110 151 C 79.706 151, 61.898 147.178, 57.784 145.994 C 54.641 145.090, 53.448 145.241, 50.047 146.976 C 35.814 154.237, 41.866 180.748, 58.922 185.859 C 64.755 187.606, 73.577 187.225, 81.936 184.864 C 89.091 182.843, 90.878 182.763, 115 183.385 C 142.743 184.100, 153.551 183.290, 159.973 180.014 C 166.817 176.522, 166.366 170.676, 158.439 160.131 C 151.884 151.410, 151.737 151.337, 147.365 154.665 C 143.731 157.430, 143.331 157.500, 131.070 157.500 C 122.937 157.500, 117.740 157.935, 116.347 158.733 C 114.307 159.902, 110 167.368, 110 169.736 C 110 170.961, 107.823 171.525, 97.500 172.976 C 83.031 175.010, 75 173.717, 75 169.354 C 75 168.511, 80.200 162.457, 86.555 155.901 C 92.910 149.345, 98.788 142.357, 99.618 140.373 C 101.314 136.312, 99.500 136.403, 116.919 139.512 C 137.659 143.213, 149 142.458, 149 137.375 C 149 134.325, 141.359 126.433, 134.054 121.938 C 131.224 120.197, 129.076 118.273, 129.279 117.663 C 129.483 117.050, 135.516 115.791, 142.768 114.848 C 166.016 111.825, 178 109.109, 178 106.863 C 178 106.414, 176.988 105.397, 175.750 104.604 C 174.062 103.521, 149.239 92.640, 136.398 87.353 C 135.792 87.104, 134.609 87.947, 133.771 89.227 M 129.500 100.602 C 121.608 102.192, 112.109 103.239, 101.750 103.659 C 93.088 104.011, 86 104.672, 86 105.129 C 86 106.485, 95.165 127, 95.771 127 C 97.420 127, 144.968 102.735, 147.500 100.600 L 150.500 98.072 146 98.129 C 143.525 98.160, 136.100 99.273, 129.500 100.602" stroke="none" fill="black" fill-rule="evenodd"/>
</svg>