<svg xmlns="http://www.w3.org/2000/svg" width="200" height="200" viewBox="0 0 200 200" version="1.1">
	<path d="M 66.949 13.051 C 64.407 15.593, 64.491 18.153, 67.397 26.696 L 69.793 33.743 62.147 34.422 C 51.798 35.340, 47.339 36.809, 44.441 40.253 C 42.001 43.152, 41.059 49, 43.031 49 C 44.106 49, 44.451 48.256, 45.407 43.862 C 46.186 40.287, 52.049 38.040, 62.531 37.301 L 70.718 36.723 72.287 41.330 L 73.857 45.936 70.178 46.519 C 64.276 47.455, 57.989 49.209, 57.458 50.068 C 56.458 51.686, 58.713 51.804, 64.526 50.436 C 71.648 48.761, 75 48.630, 75 50.025 C 75 50.588, 73.987 51.435, 72.750 51.907 C 70.146 52.900, 64.818 59.980, 61.995 66.201 C 55.796 79.859, 63.951 92.437, 81.826 96.789 C 87.800 98.243, 88.924 98.858, 89.315 100.884 L 89.774 103.269 78.637 102.701 C 72.512 102.388, 61.080 101.588, 53.233 100.921 C 38.471 99.668, 27.534 100.482, 24.422 103.065 C 22.037 105.044, 22.776 108.633, 26.154 111.476 C 30.429 115.073, 40.966 120.255, 49.690 123.051 L 56.879 125.355 54.478 128.208 C 45.387 139.012, 51 168.842, 64.702 182.544 C 70.569 188.411, 76.171 190.431, 84.216 189.581 C 93.421 188.608, 93.999 188.619, 99.886 189.862 C 111.820 192.383, 130.500 190.334, 140.192 185.442 C 147.882 181.560, 151.069 175.958, 147.343 172.872 C 145.096 171.012, 127.740 171.225, 118.557 173.226 C 111.677 174.725, 111.508 174.710, 100.057 171.619 L 88.500 168.500 107 167.854 C 125.407 167.211, 136.018 165.593, 141.951 162.525 C 145.854 160.507, 149 156.290, 149 153.077 L 149 150.423 130.054 150.831 C 111.783 151.224, 91 149.726, 91 148.017 C 91 146.745, 101.812 145.940, 119.181 145.917 C 143.228 145.886, 145.268 144.440, 143.356 128.778 C 142.135 118.781, 142.956 115.684, 147.315 113.844 C 151.318 112.155, 164.900 112.372, 174.740 114.282 C 182.419 115.773, 183 115.677, 183 112.910 C 183 108.351, 168.135 97.118, 148.709 87 L 140.070 82.500 140.664 78.745 C 141.619 72.698, 139.331 66.560, 134.440 62.052 C 129.266 57.282, 125.749 55.710, 112 52.021 L 101.500 49.203 121 49.290 C 146.155 49.402, 154.214 47.782, 161.250 41.199 C 164.374 38.276, 164.822 36, 162.274 36 C 161.325 36, 150.779 32.755, 138.839 28.788 C 121.298 22.962, 116.934 21.151, 116.120 19.363 C 115.565 18.145, 112.948 15.878, 110.305 14.325 C 105.548 11.528, 105.317 11.498, 87.199 11.301 C 70.243 11.117, 68.754 11.246, 66.949 13.051 M 92.500 13.751 C 93.050 14.257, 97.230 15.666, 101.788 16.882 C 106.346 18.097, 110.808 19.373, 111.702 19.716 C 115.305 21.098, 111.582 17.704, 107.621 15.995 C 103.101 14.045, 90.844 12.225, 92.500 13.751 M 68.500 15 C 67.762 16.194, 69.722 16.194, 72.500 15 C 74.286 14.233, 74.212 14.133, 71.809 14.070 C 70.329 14.032, 68.840 14.450, 68.500 15 M 75.799 16.586 C 73.214 17.381, 70.801 18.514, 70.437 19.102 C 68.954 21.502, 76.296 27.006, 84.472 29.623 C 99.264 34.359, 113.873 32.712, 114.819 26.201 C 115.204 23.556, 114.265 23.144, 97.080 18.416 C 83.237 14.609, 82.445 14.541, 75.799 16.586 M 70.503 27.051 C 72.671 34.001, 72.167 33.677, 82.009 34.447 C 87.047 34.841, 91.432 34.902, 91.752 34.582 C 92.072 34.262, 91.631 34, 90.772 34 C 87.149 34, 75.850 29.745, 72.915 27.275 L 69.739 24.603 70.503 27.051 M 117 28.195 C 116.175 29.929, 113.925 32.197, 112 33.235 L 108.500 35.123 114.500 34.512 C 117.800 34.176, 123.567 33.427, 127.315 32.849 C 138.018 31.197, 137.875 33.105, 127 37.043 C 123.425 38.338, 117.214 40.819, 113.197 42.556 L 105.894 45.714 110.587 46.357 C 117.763 47.341, 132.966 47.124, 141.667 45.914 C 149.930 44.764, 155.289 42.954, 158.185 40.333 C 159.815 38.857, 158.440 38.244, 139.221 31.877 C 127.825 28.102, 118.500 25.019, 118.500 25.028 C 118.500 25.036, 117.825 26.462, 117 28.195 M 74.592 39.330 C 76.809 46.454, 75.893 46, 88.053 46 C 98.544 46, 99.552 45.816, 106.328 42.659 C 110.273 40.821, 114.522 38.909, 115.770 38.409 C 117.252 37.816, 110.374 37.441, 95.978 37.330 L 73.916 37.160 74.592 39.330 M 80.500 49 C 77.778 49.693, 77.732 49.768, 80 49.811 C 81.375 49.838, 83.400 49.473, 84.500 49 C 86.966 47.940, 84.664 47.940, 80.500 49 M 91.500 49.935 C 95.758 50.972, 100.151 53.426, 102.633 56.155 C 105.235 59.016, 108 64.336, 108 66.482 C 108 67.351, 108.787 68.351, 109.750 68.704 C 110.713 69.056, 116.900 71.772, 123.500 74.739 C 130.100 77.706, 136.063 80.376, 136.750 80.674 C 139.014 81.652, 138.246 71.993, 135.703 67.500 C 132.771 62.319, 124.127 57.872, 110.527 54.548 C 105.042 53.208, 100.043 51.411, 99.417 50.556 C 98.635 49.486, 96.752 49.032, 93.390 49.102 C 89.158 49.191, 88.904 49.303, 91.500 49.935 M 80.361 52.765 C 79.553 53.286, 80.751 58.882, 84.481 72 C 87.374 82.175, 90.032 91.737, 90.389 93.250 C 90.943 95.596, 91.586 96.026, 94.769 96.177 C 107.335 96.774, 119.551 94.767, 127.440 90.811 C 131.617 88.716, 136 85.198, 136 83.940 C 136 83.164, 111.724 72, 110.037 72 C 109.467 72, 109 73.364, 109 75.032 C 109 83.068, 103.716 88.010, 98.663 84.699 C 95.774 82.806, 89 70.121, 89 66.604 C 89 64.331, 89.413 64.001, 92.250 64.011 C 94.037 64.017, 97.638 64.670, 100.250 65.463 C 105.385 67.021, 105.861 66.556, 103.595 62.200 C 101.650 58.463, 98.145 55.377, 93.768 53.548 C 89.911 51.936, 82.332 51.494, 80.361 52.765 M 69.961 58.187 C 60.514 71.148, 60.219 81.747, 69.127 88.091 C 73.083 90.907, 82.787 94.945, 85.677 94.976 C 87.851 95, 87.849 94.977, 84.487 82.250 C 79.005 61.490, 76.597 54.546, 74.761 54.192 C 73.744 53.997, 71.890 55.539, 69.961 58.187 M 92 68.033 C 92 69.520, 96.949 79.183, 98.769 81.250 C 102.477 85.461, 106 81.942, 106 74.029 C 106 70.349, 105.804 70.121, 101.322 68.594 C 95.961 66.767, 92 66.529, 92 68.033 M 136.577 87.919 C 130.236 94.538, 115.940 98.952, 100.750 98.983 C 93.806 98.996, 92 99.297, 92 100.441 C 92 101.234, 92.338 102.082, 92.750 102.326 C 94.533 103.381, 142.234 99.510, 153.750 97.375 C 156.291 96.904, 157 97.115, 157 98.341 C 157 99.375, 155.722 100.123, 153.250 100.537 C 141.567 102.494, 123.364 110.784, 114.203 118.321 C 108.928 122.661, 103.160 129.718, 99.660 136.113 C 97.983 139.178, 97.708 139.321, 96.548 137.734 C 95.847 136.777, 94.977 133.407, 94.613 130.247 C 94.249 127.086, 93.214 120.338, 92.313 115.250 L 90.675 106 85.386 106 C 82.477 106, 72.312 105.280, 62.798 104.400 C 44.245 102.684, 28.975 102.946, 26.471 105.024 C 25.104 106.159, 25.169 106.551, 27.054 108.557 C 31.418 113.203, 46.534 119.953, 59.445 123.021 C 67.176 124.858, 69.362 127, 63.506 127 C 58.355 127, 54.405 131.115, 53.452 137.474 C 50.859 154.763, 59.336 177.065, 71.287 184.397 C 75.115 186.745, 77.219 187.333, 81.791 187.333 C 84.936 187.333, 88.446 186.832, 89.591 186.219 C 91.175 185.371, 93.087 185.476, 97.587 186.657 C 106.738 189.060, 125.391 188.084, 134.356 184.734 C 138.127 183.324, 142.534 180.904, 144.151 179.355 C 146.868 176.752, 146.959 176.443, 145.354 175.270 C 142.884 173.463, 131.192 173.730, 120.413 175.837 L 111.326 177.615 99.463 174.346 C 85.198 170.415, 82 169.159, 82 167.486 C 82 165.331, 84.597 165, 101.509 165 C 118.801 165, 130.377 163.837, 137.263 161.407 C 141.606 159.875, 146 156.439, 146 154.576 C 146 153.841, 139.095 153.496, 124.250 153.488 C 95.637 153.472, 82.183 151.100, 85.823 146.713 C 87.757 144.383, 92.798 143.787, 116.215 143.119 C 134.419 142.600, 138.195 142.236, 139.564 140.866 C 141.446 138.982, 141.523 137.727, 140.501 125.500 C 139.755 116.582, 139.773 116.475, 142.486 113.774 C 143.992 112.275, 146.807 110.752, 148.741 110.389 C 152.216 109.737, 170.215 110.481, 177 111.557 L 180.500 112.112 175.587 107.496 C 170.965 103.153, 155.339 93.246, 144.246 87.624 L 139.274 85.105 136.577 87.919 M 118 104.056 C 113.325 104.466, 105.757 104.846, 101.183 104.901 C 93.754 104.989, 92.921 105.187, 93.386 106.750 C 93.850 108.308, 96.113 120.760, 97.585 129.846 L 98.127 133.192 100.942 128.846 C 106.528 120.225, 119.180 109.952, 130.298 105.009 L 134.500 103.141 130.500 103.225 C 128.300 103.272, 122.675 103.645, 118 104.056" stroke="none" fill="black" fill-rule="evenodd"/>
</svg>