<svg xmlns="http://www.w3.org/2000/svg" width="200" height="200" viewBox="0 0 200 200" version="1.1">
	<path d="M 137.500 10.073 C 112.562 14.256, 93.483 16.196, 78.609 16.061 C 60.606 15.897, 53.304 17.032, 48.990 20.662 C 42.124 26.440, 48.041 34.669, 62.579 39.562 L 68.946 41.704 60.150 42.329 C 44.002 43.475, 28 48, 28 51.421 C 28 52.264, 29.012 53.614, 30.250 54.420 C 32.818 56.094, 43.296 57.981, 50.083 57.992 C 55.797 58.002, 56.929 58.990, 53.081 60.608 C 47.398 62.997, 43.069 72.874, 41.642 86.709 L 41.104 91.918 46.802 95.367 C 49.936 97.264, 54.880 99.590, 57.790 100.536 C 62.478 102.061, 62.876 102.397, 61.290 103.495 C 60.264 104.206, 54.892 104.936, 48.706 105.205 C 39.923 105.588, 37.407 106.052, 35.206 107.694 C 33.718 108.804, 32.363 110.408, 32.195 111.259 C 31.623 114.164, 38.426 120.253, 53.467 130.298 C 61.735 135.820, 71.087 142.974, 74.250 146.195 L 80 152.051 80.024 148.275 C 80.053 143.631, 83.661 134.622, 87.516 129.567 C 90.700 125.394, 104.525 113, 105.997 113 C 106.510 113, 107.426 113.928, 108.034 115.063 C 108.990 116.849, 108.558 117.701, 104.819 121.413 C 102.443 123.772, 99.825 125.937, 99 126.226 C 97.991 126.578, 97.828 127.089, 98.500 127.785 C 99.161 128.470, 101.363 128.518, 105 127.927 C 111.042 126.945, 114 127.440, 114 129.433 C 114 130.963, 112.004 133.607, 102.322 144.898 C 85.329 164.715, 84.428 176.194, 99.296 183.431 C 111.308 189.276, 139.415 191.624, 150.609 187.716 C 169.654 181.068, 173.767 160.635, 160.990 136.148 C 157.963 130.347, 157.625 129.239, 159.391 130.898 C 160.622 132.054, 162.820 133, 164.275 133 C 173.187 133, 177.141 114.706, 177.570 71.500 C 177.717 56.650, 178.161 38.848, 178.556 31.941 C 179.379 17.548, 178.701 15, 174.043 15 C 170.420 15, 164.974 21.098, 158.915 31.937 C 150.938 46.209, 151.755 46.195, 150.326 32.077 C 149.635 25.244, 148.572 17.256, 147.964 14.327 C 146.736 8.413, 146.929 8.491, 137.500 10.073 M 124 14.677 C 114.375 16.011, 105.375 17.375, 104 17.707 C 100.161 18.635, 114.033 20.799, 120.090 20.217 C 133.017 18.975, 141.585 27.733, 145.380 46.067 C 146.190 49.983, 147.089 53.423, 147.378 53.711 C 149.589 55.923, 148.693 35.144, 145.847 18.250 C 145.038 13.443, 144.414 12.029, 143.147 12.125 C 142.241 12.194, 133.625 13.343, 124 14.677 M 170.009 20.643 C 165.731 25.514, 161.156 32.740, 156.485 42 L 152.702 49.500 152.776 83.285 L 152.851 117.069 155.334 121.307 C 157.934 125.743, 162.687 131, 164.097 131 C 166 131, 168.880 126.486, 170.362 121.183 C 173.498 109.960, 174.266 101.067, 174.522 73 C 174.666 57.325, 175.257 40, 175.836 34.500 C 176.901 24.386, 176.349 17.950, 174.361 17.287 C 173.763 17.088, 171.804 18.598, 170.009 20.643 M 73.332 20.902 C 66.965 21.519, 63.521 23, 68.453 23 C 73.113 23, 100.442 27.140, 101.333 27.980 C 102.661 29.233, 95.183 36.006, 89.602 38.605 C 86.796 39.911, 83.150 41.017, 81.500 41.061 C 78.546 41.140, 78.559 41.163, 82.395 42.568 C 89.893 45.316, 90.916 48.237, 86.077 53.077 L 83.154 56 86.495 56 C 88.333 56, 90.580 56.285, 91.489 56.634 C 94.358 57.735, 104.070 46.630, 106.921 38.989 C 111.683 26.225, 111.806 26, 114 26 C 116.568 26, 118.304 29.816, 121.548 42.596 C 127.210 64.903, 125.305 89.160, 116.338 108.924 L 112.969 116.348 115.605 120.152 C 119.649 125.987, 120.658 126.529, 121.424 123.277 C 123.093 116.198, 131.882 90.967, 137.719 76.500 C 143.976 60.991, 144.159 60.285, 143.682 53.500 C 143.098 45.178, 139.814 34.798, 136.299 30.165 C 132.002 24.502, 128.488 22.973, 120 23.073 C 115.875 23.122, 108.225 22.452, 103 21.585 C 93.441 19.998, 84.733 19.798, 73.332 20.902 M 49 25.961 C 49 33.658, 69.927 41.136, 82.814 38.045 C 88.620 36.652, 97.711 31.287, 96.386 30.035 C 95.448 29.149, 69.803 25.492, 56.750 24.383 C 49.197 23.741, 49 23.781, 49 25.961 M 113 30.032 C 113 30.600, 111.611 34.667, 109.913 39.069 C 107.637 44.970, 105.436 48.576, 101.535 52.789 L 96.243 58.505 98.619 60.297 C 104.437 64.686, 105.941 74.824, 102.071 83.573 C 100.918 86.178, 100.094 88.384, 100.238 88.477 C 100.382 88.569, 102.574 89.831, 105.108 91.281 C 113.296 95.966, 115.245 102.178, 110.354 107.991 C 107.919 110.885, 107.836 111.265, 109.321 112.750 C 110.806 114.235, 111.173 113.850, 113.915 107.932 C 123.297 87.679, 124.477 59.912, 116.967 36.115 C 115.732 32.202, 114.334 29, 113.861 29 C 113.387 29, 113 29.465, 113 30.032 M 58.500 44.989 C 45.267 46.387, 30.414 50.243, 31.500 52 C 32.036 52.867, 41.485 54.600, 50.500 55.486 C 53.800 55.810, 58.975 56.695, 62 57.453 C 71.880 59.928, 76.294 60.381, 75.790 58.870 C 75.529 58.088, 77.471 56.035, 80.413 53.980 C 89.119 47.897, 87.368 45.213, 74.258 44.542 C 69.991 44.323, 62.900 44.525, 58.500 44.989 M 148.248 58.684 C 147.433 60.111, 146.993 65.311, 146.980 73.684 C 146.963 84.866, 145.519 100.384, 143.489 111.208 C 142.905 114.322, 143.236 114.886, 148.018 118.918 L 153.178 123.269 151.201 119.385 C 149.380 115.807, 149.290 114.432, 150.061 102 C 150.521 94.575, 150.583 81.300, 150.197 72.500 C 149.605 58.989, 149.301 56.840, 148.248 58.684 M 79.750 59.662 C 80.438 59.940, 81.563 59.940, 82.250 59.662 C 82.938 59.385, 82.375 59.158, 81 59.158 C 79.625 59.158, 79.063 59.385, 79.750 59.662 M 85.500 61.608 C 81.842 62.430, 77.220 62.715, 73.658 62.339 L 67.816 61.721 72.706 66.610 C 75.395 69.300, 78.442 73.548, 79.477 76.051 C 81.256 80.351, 81.793 80.774, 89.210 83.719 L 97.061 86.836 98.465 84.668 C 99.238 83.476, 100.411 80.330, 101.072 77.678 C 102.616 71.483, 101.142 66.138, 96.905 62.574 C 93.502 59.710, 93.826 59.738, 85.500 61.608 M 52.094 64.574 C 48.711 67.421, 45.741 75.527, 44.576 85.098 L 43.894 90.697 50.697 94.256 C 60.888 99.587, 65.267 100.519, 70.355 98.438 C 72.635 97.505, 77.371 96.661, 80.881 96.563 C 86.512 96.405, 87.725 95.994, 91.209 93.070 C 93.380 91.247, 94.783 89.383, 94.327 88.927 C 93.871 88.471, 90.573 87.025, 86.999 85.714 C 81.808 83.809, 79.947 83.536, 77.753 84.357 C 74.132 85.711, 67.681 83.654, 58.220 78.129 C 53.537 75.393, 51.260 73.487, 51.604 72.590 C 52.022 71.502, 54.316 71.916, 62.814 74.616 C 68.692 76.483, 74.552 78.292, 75.837 78.635 L 78.173 79.260 76.146 75.285 C 72.621 68.377, 63.723 62, 57.609 62 C 56.258 62, 53.777 63.158, 52.094 64.574 M 143.134 70.111 C 142.627 71.425, 140.321 77.225, 138.009 83 C 133.115 95.230, 124.470 120.977, 123.472 126.300 C 122.840 129.664, 123.274 130.656, 128.611 138.069 C 134.358 146.051, 141.056 153, 143.003 153 C 143.551 153, 144 153.675, 144 154.500 C 144 155.325, 143.618 156, 143.150 156 C 140.731 156, 133.280 149.030, 128.221 142.035 C 125.075 137.684, 122.240 134.096, 121.922 134.062 C 121.006 133.964, 119.019 143.643, 117.830 153.998 C 116 169.929, 119.331 176.599, 127.679 173.723 C 129.835 172.980, 133.686 170.936, 136.237 169.181 C 139.055 167.242, 141.126 166.395, 141.514 167.023 C 142.293 168.283, 139.084 171.025, 132.758 174.506 C 125.957 178.249, 120.402 177.745, 117.283 173.102 C 115.317 170.176, 115 168.425, 115 160.491 C 115 155.075, 115.863 147.046, 117.095 141.009 C 118.633 133.464, 118.917 130.176, 118.162 128.619 C 117.171 126.574, 117.133 126.570, 117.064 128.500 C 116.962 131.369, 114.304 135.235, 105.077 145.936 C 91.181 162.054, 88.258 171.041, 94.855 177.361 C 102.914 185.082, 134.320 189.741, 149.068 185.402 C 157.002 183.069, 163.382 176.260, 165.051 168.348 C 167.942 154.634, 160.509 135.309, 147.343 122.313 L 139.982 115.047 141.422 106.773 C 143.162 96.775, 145.482 69.148, 144.650 68.317 C 144.323 67.990, 143.641 68.798, 143.134 70.111 M 67.500 79.928 C 69.700 80.986, 72.400 81.853, 73.500 81.855 C 74.717 81.858, 74.131 81.356, 72 80.572 C 65.806 78.295, 63.384 77.948, 67.500 79.928 M 93.830 94.468 L 90.159 97.881 94.325 100.052 C 96.616 101.247, 99.971 103.523, 101.780 105.112 C 105.624 108.486, 106.186 108.586, 108.193 106.250 C 112.014 101.801, 110.860 98.136, 104.336 93.998 C 101.736 92.349, 99.134 91.012, 98.554 91.027 C 97.974 91.042, 95.848 92.590, 93.830 94.468 M 81.500 101.528 C 79.300 102.253, 75.114 102.881, 72.197 102.923 C 68.276 102.980, 65.935 103.651, 63.215 105.500 C 60.004 107.682, 58.451 108.001, 51.018 108.006 C 41.527 108.012, 35 109.407, 35 111.428 C 35 113.780, 41.174 118.976, 54.073 127.483 C 60.988 132.044, 69.123 137.792, 72.150 140.258 L 77.654 144.741 78.770 140.570 C 80.541 133.950, 87.362 124.777, 96.035 117.354 L 104.043 110.500 100.772 107.718 C 96.964 104.481, 88.645 99.953, 86.783 100.105 C 86.077 100.163, 83.700 100.803, 81.500 101.528 M 108.254 121.959 L 106.007 124.807 110.906 125.154 C 116.097 125.521, 116.203 125.256, 112.657 120.750 C 110.924 118.548, 110.949 118.541, 108.254 121.959" stroke="none" fill="black" fill-rule="evenodd"/>
</svg>