<svg xmlns="http://www.w3.org/2000/svg" width="200" height="200" viewBox="0 0 200 200" version="1.1">
	<path d="M 86.727 9.250 C 88.246 12.138, 89.641 14.837, 89.828 15.250 C 90.429 16.580, 87.431 16.057, 79.378 13.429 C 75.045 12.014, 70.724 10.155, 69.775 9.297 C 68.194 7.865, 67.974 7.939, 67.119 10.187 C 63.392 19.989, 67.631 27.279, 79.107 30.802 L 85.222 32.679 70.702 33.339 C 51.829 34.197, 34.428 37.583, 33.901 40.500 C 33.638 41.954, 43.533 46.725, 50.460 48.486 C 53.967 49.377, 60.965 50.009, 67.460 50.022 L 78.500 50.044 74.500 51.896 C 68.969 54.457, 65.345 58.651, 63.863 64.207 C 60.736 75.935, 71.605 91.235, 86.500 96.070 C 93.018 98.186, 102.502 97.650, 112 94.629 C 116.675 93.142, 121.260 91.695, 122.190 91.414 C 123.466 91.029, 124.137 91.833, 124.934 94.702 C 125.514 96.791, 125.991 98.969, 125.994 99.542 C 125.998 100.185, 121.755 100.688, 114.892 100.857 C 108.782 101.008, 102.678 101.552, 101.327 102.066 C 98.007 103.328, 84.684 103.258, 59.500 101.846 C 35.162 100.482, 27.854 101.055, 24.304 104.605 C 21.180 107.729, 21.854 110.129, 27.463 115.851 L 31.728 120.201 61.114 118.059 C 77.276 116.881, 98.487 115.640, 108.250 115.301 C 128.013 114.615, 128.553 114.813, 123.465 120.859 C 119.131 126.010, 113.232 126.683, 91.773 124.477 C 75.007 122.753, 72.850 122.727, 63.056 124.140 C 41.906 127.190, 40.697 131.459, 58.135 141.517 C 62.388 143.971, 66.149 146.433, 66.493 146.989 C 66.903 147.651, 62.469 148, 53.637 148 L 40.155 148 38.970 151.591 C 38.318 153.567, 37.957 158.234, 38.168 161.964 C 38.627 170.098, 41.698 175.287, 48.861 180.031 C 56.427 185.043, 62.852 186.507, 77 186.444 C 87.623 186.397, 90.383 186.041, 95.381 184.074 C 105.637 180.036, 112 172.594, 112 164.637 L 112 161.209 101.750 164.504 C 88.938 168.621, 82.182 169.608, 79.637 167.734 C 77.826 166.400, 77.831 166.252, 79.815 162.363 C 84.896 152.403, 105.693 139.451, 113.470 141.403 C 114.841 141.747, 117.457 143.340, 119.282 144.942 C 122.441 147.717, 123.999 150.651, 134.945 174.457 C 139.648 184.683, 141.413 187, 144.500 187 C 149.290 187, 152.772 179.666, 156.536 161.650 C 158.878 150.443, 159.083 148.077, 158.140 143.150 C 157.545 140.042, 156.579 133.450, 155.993 128.500 C 155.407 123.550, 154.699 118.747, 154.421 117.827 C 154.002 116.443, 154.915 116.044, 159.707 115.512 C 183.585 112.866, 183.389 109.812, 158.314 93.836 C 150.254 88.701, 143.244 84.222, 142.736 83.883 C 142.208 83.530, 142.529 81.877, 143.484 80.030 C 146.674 73.863, 142.734 69.234, 125.567 58.980 C 120.654 56.046, 115.254 52.381, 113.567 50.837 C 110.961 48.452, 110.726 47.868, 112 46.954 C 113.932 45.569, 132.247 46.564, 140.681 48.512 C 146.409 49.835, 147.286 49.794, 152.628 47.956 C 160.440 45.268, 163 43.440, 163 40.550 C 163 35.813, 155.579 32.191, 135.303 27.033 C 128.957 25.419, 123.684 23.964, 123.585 23.799 C 123.486 23.635, 122.878 22.272, 122.234 20.771 C 121.589 19.270, 118.911 16.697, 116.281 15.052 C 111.841 12.275, 88.745 4, 85.435 4 C 84.308 4, 84.608 5.221, 86.727 9.250 M 91.677 12.794 L 94.354 17.588 106.757 20.380 C 113.579 21.916, 119.422 22.911, 119.741 22.592 C 120.791 21.542, 117.059 18.353, 111.735 15.753 C 106.941 13.412, 91.615 8, 89.778 8 C 89.350 8, 90.205 10.157, 91.677 12.794 M 68.486 15.198 C 66.532 22.987, 75.266 28.731, 91.790 30.523 L 98.079 31.206 95.321 25.583 C 92.891 20.627, 92.085 19.837, 88.532 18.929 C 84.261 17.837, 73.659 14.578, 70.792 13.475 C 69.543 12.995, 68.923 13.459, 68.486 15.198 M 98.106 25.102 C 100.168 28.850, 101.041 29.541, 104.013 29.778 C 108.064 30.101, 116.187 27.940, 116.699 26.404 C 116.897 25.808, 113.461 24.593, 108.775 23.602 C 104.224 22.640, 99.417 21.595, 98.094 21.279 L 95.687 20.705 98.106 25.102 M 119.463 28.348 C 118.342 29.155, 115.192 30.539, 112.463 31.424 L 107.500 33.032 118.500 32.478 C 124.550 32.173, 131.075 31.564, 133 31.125 L 136.500 30.327 132.500 29.155 C 125.220 27.021, 121.614 26.798, 119.463 28.348 M 140.302 32.098 C 139.811 32.589, 135.939 33.901, 131.698 35.011 C 123.158 37.248, 113.630 41.172, 112.569 42.888 C 112.081 43.677, 115.020 44.005, 122.691 44.017 C 128.636 44.027, 136.536 44.678, 140.247 45.464 C 146.123 46.710, 147.626 46.706, 151.897 45.438 C 154.594 44.637, 157.807 43.167, 159.037 42.171 L 161.273 40.360 158.602 38.259 C 155.113 35.514, 141.477 30.923, 140.302 32.098 M 56 37.117 C 51.875 37.585, 46.250 38.574, 43.500 39.316 L 38.500 40.664 42.500 42.696 C 48.669 45.830, 56.151 47.217, 66.888 47.217 C 77.895 47.217, 101.260 45.075, 103.177 43.891 C 104.152 43.288, 104.054 42.335, 102.730 39.559 L 101.032 36 82.266 36.133 C 71.945 36.206, 60.125 36.649, 56 37.117 M 106.138 40.250 C 107.391 42.695, 108.510 43.929, 108.773 43.155 C 109.024 42.415, 111.291 40.503, 113.811 38.905 L 118.392 36 111.175 36 L 103.959 36 106.138 40.250 M 96.500 47.863 L 92.500 48.390 97.500 48.945 L 102.500 49.500 106 56.694 C 108.733 62.311, 109.982 63.900, 111.699 63.944 C 113.853 63.999, 113.866 63.923, 112.335 60.250 C 111.475 58.188, 109.691 54.362, 108.369 51.750 C 105.779 46.630, 105.803 46.638, 96.500 47.863 M 83.203 52.115 C 68.336 54.590, 62.299 64.916, 68.414 77.415 C 74.852 90.573, 90.996 97.590, 105.500 93.533 C 108.800 92.610, 114.088 91.157, 117.250 90.304 C 120.412 89.452, 123 88.390, 123 87.945 C 123 85.967, 116.713 70.341, 115.281 68.758 C 114.406 67.791, 112.960 67, 112.069 67 C 110.790 67, 110.525 67.816, 110.815 70.856 C 111.125 74.109, 110.749 75.052, 108.407 76.895 C 105.009 79.567, 101.264 79.065, 95.602 75.177 C 87.440 69.573, 89.311 64.236, 99.769 63.287 C 103.196 62.976, 106 62.545, 106 62.328 C 106 62.111, 104.899 59.761, 103.554 57.106 C 101.427 52.909, 100.611 52.197, 97.304 51.651 C 92.675 50.886, 90.078 50.971, 83.203 52.115 M 113.024 54.699 C 113.037 55.140, 114.499 58.418, 116.274 61.984 C 119.205 67.874, 120.358 69.056, 128.877 74.899 C 136.243 79.951, 138.601 81.112, 139.877 80.313 C 144.827 77.211, 140.612 71.287, 128.184 63.877 C 123.408 61.029, 118.037 57.619, 116.250 56.299 C 114.463 54.978, 113.011 54.259, 113.024 54.699 M 94.499 67.377 C 92.517 68.827, 92.520 68.860, 94.897 71.390 C 97.743 74.419, 103.145 76.406, 106.038 75.488 C 107.766 74.940, 108.057 74.145, 107.803 70.666 L 107.500 66.500 101.999 66.208 C 98.350 66.014, 95.825 66.407, 94.499 67.377 M 121 73.413 C 121 74.561, 125.308 85.566, 126.090 86.417 C 126.969 87.372, 135 84.283, 135 82.990 C 135 82.601, 132.420 80.532, 129.266 78.392 C 121.526 73.139, 121 72.822, 121 73.413 M 133 87.669 C 129.975 89.048, 127.378 90.295, 127.229 90.442 C 127.080 90.588, 127.442 92.964, 128.033 95.720 L 129.108 100.732 134.877 101.255 C 142.211 101.920, 148.391 105.065, 151.256 109.591 L 153.500 113.136 160.500 112.510 C 164.350 112.166, 169.237 111.430, 171.360 110.874 L 175.220 109.864 172.863 107.354 C 170.790 105.147, 139.845 84.870, 138.875 85.082 C 138.669 85.127, 136.025 86.291, 133 87.669 M 107 104.312 C 98.820 105.446, 86.798 105.579, 51.295 104.926 C 30.442 104.543, 27.917 104.672, 26.381 106.199 C 24.770 107.802, 24.810 108.099, 27.079 111.410 C 31.297 117.566, 30.806 117.516, 63.705 115.126 C 80.092 113.936, 101.037 112.675, 110.250 112.324 L 127 111.686 127 107.343 L 127 103 120.750 103.136 C 117.313 103.210, 111.125 103.740, 107 104.312 M 130 107.606 L 130 111.877 134.250 112.397 C 148.765 114.172, 150.970 113.829, 148.424 110.195 C 146.254 107.097, 141.584 104.907, 135.341 104.060 L 130 103.335 130 107.606 M 127.500 119.221 C 123.208 128.181, 116.204 129.884, 93.760 127.428 C 78.009 125.704, 65.193 125.907, 55.259 128.038 C 52.376 128.656, 49.745 129.604, 49.411 130.144 C 48.488 131.638, 51.758 134.722, 57.934 138.182 C 66.207 142.818, 70 145.883, 70 147.934 C 70 150.474, 67.359 150.971, 53.769 150.986 L 42.038 151 41.293 153.750 C 39.976 158.609, 40.575 165.558, 42.658 169.591 C 47.376 178.729, 59.574 184, 76 184 C 89.725 184, 97.851 181.420, 104.250 175.029 C 107.422 171.862, 109 169.443, 109 167.749 L 109 165.212 101.250 167.717 C 92.144 170.661, 81.312 171.773, 78.163 170.087 C 72.646 167.134, 77.722 157.161, 89.136 148.527 C 98.606 141.365, 105.204 138.706, 112.251 139.214 C 121.380 139.871, 124.510 143.967, 135.971 170.258 C 140.674 181.046, 143.409 185.164, 145.373 184.411 C 148.028 183.392, 151.405 173.667, 154.521 158.070 C 156.153 149.900, 156.136 149.144, 153.978 133.570 C 152.752 124.732, 151.469 117.219, 151.125 116.876 C 150.781 116.532, 145.775 115.980, 140 115.649 L 129.500 115.047 127.500 119.221" stroke="none" fill="black" fill-rule="evenodd"/>
</svg>