<svg xmlns="http://www.w3.org/2000/svg" width="200" height="200" viewBox="0 0 200 200" version="1.1">
	<path d="M 168.537 8.102 C 163.518 12.508, 157.434 21.271, 149.512 35.500 L 142.831 47.500 143.340 40.500 C 143.620 36.650, 144.424 29.792, 145.127 25.259 C 146.339 17.440, 146.300 16.878, 144.355 14.259 C 139.303 7.457, 122.657 7.907, 83.500 15.905 C 77.660 17.098, 72.042 17.584, 67.500 17.291 C 61.157 16.882, 60.378 17.040, 59.202 18.982 C 56.637 23.219, 59.161 25.759, 75.991 35.876 L 84.426 40.946 66.463 40.723 C 47.727 40.490, 44.158 41.125, 41.672 45.132 C 40.475 47.061, 41.897 51.085, 45.273 55.315 L 47.500 58.107 53.460 56.553 C 60.689 54.669, 101 54.256, 101 56.066 C 101 56.652, 106.376 62.335, 112.947 68.695 C 119.518 75.055, 125.327 81.499, 125.856 83.015 C 127.905 88.894, 120.692 94.680, 106.804 98.298 L 101.107 99.782 98.682 92.569 C 96.605 86.389, 96.440 85.008, 97.533 82.922 C 99.140 79.854, 101 69.942, 101 64.444 L 101 60.255 92.558 58.483 C 77.161 55.252, 65.627 58.186, 59.509 66.891 C 56.831 70.701, 56.503 71.961, 56.530 78.336 C 56.552 83.724, 57.100 86.524, 58.738 89.628 C 62 95.810, 69.316 101.758, 75.913 103.592 C 84.133 105.877, 84.180 106.028, 76.500 105.493 C 46.113 103.375, 38.093 103.773, 34.955 107.554 C 32.780 110.175, 33.599 113.991, 37.113 117.616 C 43.709 124.422, 57.012 129, 70.191 129 C 77.845 129, 77.972 129.041, 78.610 131.750 C 85.699 161.854, 90 172.796, 97.939 180.925 C 106.729 189.925, 115.456 192.129, 134.620 190.191 C 147.049 188.934, 153.531 186.317, 159.053 180.326 C 164.647 174.258, 166.345 169.887, 166.367 161.500 C 166.407 146.255, 156.777 134.463, 140.982 130.417 C 134.775 128.827, 128.738 128.872, 120.351 130.572 C 117.742 131.100, 117.089 130.857, 116.549 129.154 C 116.190 128.023, 116.374 125.323, 116.959 123.154 C 117.852 119.835, 118.694 118.933, 122.260 117.473 C 124.592 116.518, 129.665 115.518, 133.533 115.251 C 140.057 114.800, 140.798 114.959, 143.749 117.443 C 145.720 119.100, 147.181 121.446, 147.585 123.601 C 148.749 129.804, 159.194 133.263, 163.801 128.971 C 169.862 123.324, 171.874 111.834, 172.639 78.500 C 173.116 57.708, 173.620 51.436, 175.634 41.238 C 181.524 11.409, 178.872 -0.973, 168.537 8.102 M 169.028 11.208 C 164.640 15.596, 156.549 28.066, 149.557 41.217 L 143.858 51.934 146.679 58.217 C 149.196 63.822, 149.500 65.633, 149.500 75 C 149.500 83.927, 149.168 86.120, 147.284 89.643 C 143.895 95.980, 137.612 100.764, 129.350 103.298 C 122.522 105.393, 122.116 105.688, 121.015 109.354 C 120.378 111.474, 119.630 113.800, 119.353 114.523 C 118.975 115.506, 120.401 115.354, 125.013 113.919 C 138.440 109.740, 146.826 112.511, 149.917 122.147 C 151.225 126.225, 154.898 128.369, 159.643 127.827 C 161.900 127.569, 162.964 126.554, 164.710 123 C 168.141 116.012, 169.113 107.547, 169.651 80 C 170.082 57.884, 170.486 52.841, 172.694 42 C 175.824 26.633, 176.469 8.746, 173.910 8.233 C 173.036 8.058, 170.839 9.397, 169.028 11.208 M 116 13.030 C 100.908 15.094, 84.781 18.418, 86.609 19.088 C 87.649 19.470, 91.973 20.541, 96.217 21.468 C 105.742 23.550, 110.575 26.568, 110.319 30.274 C 110.154 32.654, 110.665 33.046, 115.819 34.491 C 129.214 38.248, 129.420 38.350, 131.500 42.248 C 133.342 45.700, 133.379 46.212, 131.964 48.748 C 129.625 52.937, 125.589 54.331, 114 54.952 L 103.500 55.515 116.250 68.050 C 123.263 74.944, 129 80.220, 129 79.774 C 129 79.328, 131.708 72.850, 135.017 65.379 C 140.798 52.331, 141.012 51.554, 140.445 45.648 C 140.072 41.762, 140.434 36.556, 141.428 31.500 C 144.699 14.855, 143.535 12.777, 130.722 12.390 C 126.200 12.253, 119.575 12.541, 116 13.030 M 78.500 22.943 C 81.800 23.928, 89.537 26.319, 95.694 28.256 C 106.775 31.743, 108 31.858, 108 29.405 C 108 26.675, 85.790 20.872, 76.119 21.076 C 72.771 21.147, 72.949 21.287, 78.500 22.943 M 63.500 24.361 C 65.150 25.741, 71.062 29.634, 76.638 33.011 L 86.777 39.151 93.638 37.077 C 99.916 35.180, 104.661 33.053, 102.698 33.015 C 102.257 33.007, 94.607 30.800, 85.698 28.110 C 76.789 25.421, 67.475 22.913, 65 22.536 L 60.500 21.850 63.500 24.361 M 99 38.061 L 91.500 40.875 100.128 40.937 C 106.006 40.980, 109.990 40.477, 112.628 39.360 L 116.500 37.720 113 36.436 C 108.332 34.724, 107.696 34.798, 99 38.061 M 119.217 40.516 C 118.511 41.325, 116.124 42.276, 113.912 42.630 C 108.339 43.521, 103.575 46.919, 103.184 50.282 C 102.882 52.872, 103.070 52.999, 107.184 52.969 C 109.558 52.952, 114.836 52.505, 118.914 51.976 C 126.540 50.986, 130 49.107, 130 45.956 C 130 41.458, 121.942 37.393, 119.217 40.516 M 48.607 43.793 C 44.054 44.905, 43.288 47.112, 45.957 51.430 C 47.364 53.706, 48.772 54.918, 49.629 54.589 C 54.324 52.787, 65.794 51.934, 81.751 52.198 C 99.518 52.492, 100.002 52.446, 100.001 50.473 C 100.001 49.357, 100.701 47.445, 101.557 46.223 L 103.113 44 94.307 43.997 C 89.463 43.995, 77.850 43.790, 68.500 43.540 C 59.150 43.291, 50.198 43.405, 48.607 43.793 M 138.797 63.658 C 132.711 77.047, 124 99.027, 124 100.998 C 124 102.157, 127.581 101.469, 132.772 99.314 C 137.849 97.205, 143.712 91.320, 145.563 86.475 C 147.895 80.368, 147.216 65.112, 144.368 59.658 L 142.362 55.816 138.797 63.658 M 71.685 61.017 C 67.341 62.321, 61.937 66.907, 60.394 70.600 C 58.471 75.202, 58.686 82.711, 60.878 87.539 C 63.319 92.911, 70.873 99.424, 76.486 100.996 C 80.970 102.252, 96.319 102.014, 97.665 100.668 C 98.029 100.304, 97.472 97.492, 96.427 94.418 C 94.886 89.884, 93.923 88.577, 91.323 87.490 C 87.675 85.966, 84.417 80.458, 83.400 74.097 C 82.648 69.397, 84.033 67, 87.500 67 C 90.462 67, 91.429 68.349, 93.407 75.250 C 94.314 78.412, 95.236 81, 95.457 81 C 96.021 81, 97.862 71.293, 98.205 66.506 L 98.492 62.512 93.496 61.352 C 87.639 59.992, 75.711 59.809, 71.685 61.017 M 86.022 72.677 C 86.060 77.555, 90.902 86.431, 92.600 84.734 C 92.856 84.477, 92.218 81.170, 91.182 77.384 C 89.925 72.795, 88.747 70.392, 87.649 70.177 C 86.426 69.937, 86.006 70.584, 86.022 72.677 M 120 96.420 C 118.625 97.157, 114.237 98.803, 110.250 100.077 C 106.263 101.351, 103 102.755, 103 103.197 C 103 104.119, 113.077 104.073, 117.401 103.132 C 119.619 102.649, 120.607 101.618, 121.598 98.750 C 122.312 96.688, 122.806 95.018, 122.698 95.040 C 122.589 95.062, 121.375 95.683, 120 96.420 M 95 104 C 92.769 104.715, 92.903 104.811, 96.250 104.900 C 98.313 104.955, 100 104.550, 100 104 C 100 102.855, 98.575 102.855, 95 104 M 42.578 107.061 C 38.133 108.171, 36 109.634, 36 111.574 C 36 114.134, 43.209 119.871, 49.825 122.578 C 55.400 124.858, 58.435 125.385, 68.245 125.777 L 79.989 126.246 80.950 129.873 C 81.478 131.868, 83.053 138.367, 84.450 144.316 C 90.391 169.617, 99.486 183.352, 112.766 187.073 C 119.483 188.956, 140.134 187.770, 147.121 185.100 C 157.974 180.954, 163.500 172.991, 163.500 161.500 C 163.500 149.462, 157.592 140.435, 146.031 134.809 C 142.422 133.054, 139.668 132.594, 132.500 132.552 C 127.550 132.524, 122.681 132.836, 121.679 133.246 C 119.947 133.955, 119.961 134.137, 121.966 136.952 C 123.125 138.581, 127.363 143.420, 131.383 147.706 C 141.717 158.725, 142.582 160.906, 137.801 163.892 C 134.831 165.747, 122.121 170, 119.547 170 C 116.607 170, 113.283 167.446, 111.333 163.689 C 109.571 160.295, 109.030 146.473, 110.418 140.299 L 111.137 137.099 104.819 136.799 C 98.842 136.516, 98.484 136.359, 98.197 133.891 C 97.957 131.826, 99 130.278, 103.197 126.463 L 108.500 121.644 105.378 115.456 C 103.661 112.052, 102.085 108.754, 101.875 108.126 C 101.592 107.277, 98.227 107.249, 88.779 108.016 C 80.364 108.699, 73.939 108.718, 69.782 108.071 C 59.588 106.485, 46.790 106.010, 42.578 107.061 M 108.703 106.731 C 105.333 107.082, 104.979 107.373, 105.557 109.313 C 105.915 110.516, 107.296 113.398, 108.627 115.718 C 110.846 119.585, 111.245 119.845, 113.435 118.848 C 115.061 118.107, 116.165 116.402, 116.894 113.509 C 117.482 111.170, 118.245 108.525, 118.589 107.629 C 119.247 105.915, 117.805 105.784, 108.703 106.731 M 105.157 127.948 C 99.839 132.835, 100.108 134.608, 106.104 134.204 C 108.517 134.042, 110.780 133.592, 111.133 133.204 C 112.867 131.302, 112.929 128.136, 111.273 126.118 L 109.500 123.957 105.157 127.948 M 113.848 137.750 C 113.242 139.262, 112.691 145.077, 112.623 150.671 C 112.515 159.625, 112.756 161.180, 114.639 163.671 C 116.467 166.089, 117.412 166.473, 121.139 166.315 C 126.007 166.108, 137.145 162.065, 137.737 160.290 C 137.947 159.659, 134.668 155.399, 130.450 150.822 C 126.232 146.245, 121.592 140.822, 120.140 138.771 C 116.987 134.318, 115.332 134.049, 113.848 137.750" stroke="none" fill="black" fill-rule="evenodd"/>
</svg>