<svg xmlns="http://www.w3.org/2000/svg" width="200" height="200" viewBox="0 0 200 200" version="1.1">
	<path d="M 106 8.601 C 82.406 10.134, 59.148 13.190, 58.032 14.904 C 57.740 15.354, 55.250 16.059, 52.500 16.470 L 47.500 17.218 53.271 22.481 C 60.197 28.797, 68.665 33.485, 76.634 35.414 L 82.500 36.833 69.809 36.917 C 62.829 36.963, 56.862 37.414, 56.550 37.919 C 55.004 40.421, 81.632 40.068, 101.670 37.322 L 106.394 36.674 102.207 41.639 L 98.020 46.604 77.760 47.821 C 49.075 49.543, 40.232 49.197, 39.272 46.316 C 39.065 45.696, 40.285 43.607, 41.982 41.674 C 45.338 37.851, 44.413 35.412, 40.835 38.650 C 35.771 43.232, 35.257 48.696, 39.722 50.472 C 43.458 51.959, 57.229 52.056, 76 50.729 C 86.725 49.970, 95.646 49.455, 95.825 49.583 C 96.398 49.995, 90.715 58.077, 90.096 57.729 C 82.509 53.468, 71.797 51.901, 64.215 53.942 C 59.120 55.314, 53.207 60.260, 51.351 64.702 C 48.234 72.162, 50.802 84.863, 56.425 89.800 C 61.635 94.374, 66.107 95.501, 79 95.489 C 88.232 95.481, 91.974 95.018, 97.975 93.142 C 116.402 87.382, 125.435 78.818, 122.850 69.557 C 121.694 65.414, 115.758 59.683, 108.759 55.952 C 103.237 53.009, 102.918 52.654, 104.434 51.137 C 105.736 49.835, 108.175 49.497, 116.348 49.488 C 124.461 49.478, 127.191 49.105, 129.313 47.715 C 134.521 44.302, 131.573 39.874, 120.482 34.447 L 114.912 31.722 117.206 29.253 C 121.200 24.954, 131.468 18.135, 137.324 15.894 C 141.925 14.134, 143.254 13.966, 144.487 14.989 C 147.082 17.143, 146.167 20.123, 141.667 24.167 L 137.333 28.061 138.805 37.280 C 140.996 51.008, 140.957 73.190, 138.731 79.566 C 135.491 88.842, 126.892 94.870, 113.983 96.913 C 110.418 97.478, 96.475 97.910, 83 97.874 C 47.753 97.781, 30.500 100.748, 30.500 106.902 C 30.500 108.663, 31.496 109.821, 34.236 111.243 C 40.344 114.413, 54.974 118, 61.793 118 C 69.193 118, 73.701 119.960, 74.608 123.572 C 77.483 135.029, 64.773 158.877, 47.071 175.239 C 41.483 180.404, 40.156 182.122, 41.388 182.595 C 42.272 182.935, 49.859 180.883, 58.248 178.037 C 79.495 170.828, 85.938 169, 90.099 169 C 97.920 169, 103.725 176.174, 108.592 191.857 C 110.019 196.453, 111.540 199.828, 111.972 199.357 C 112.405 198.886, 113.324 196.700, 114.016 194.500 C 117.839 182.336, 125.244 173.971, 133.816 172.133 C 140.434 170.714, 145.909 171.770, 158.740 176.944 C 164.274 179.175, 169.466 181, 170.278 181 C 177.257 181, 173.756 165.957, 163.179 150.500 C 150.434 131.873, 141.511 123, 135.526 123 C 127.979 123, 125.112 129.436, 124.278 148.250 C 123.644 162.542, 123.865 162.238, 115.858 159.839 C 103.562 156.155, 95.527 139.478, 99.024 124.900 C 100.039 120.669, 101.358 118.518, 105.402 114.499 C 111.264 108.673, 115.671 107, 125.154 107 C 131.561 107, 131.586 107.011, 135.414 111.591 C 142.523 120.096, 148.702 122.023, 155.078 117.726 C 166.567 109.984, 171.839 84.999, 166.872 61.838 C 165.968 57.624, 166.057 56.595, 167.457 55.048 C 170.221 51.993, 173 43.281, 173 37.667 C 173 22.482, 162.311 11.073, 148 10.986 C 144.975 10.967, 140.700 10.534, 138.500 10.023 C 133.864 8.947, 114.035 8.079, 106 8.601 M 99 11.698 C 95.425 11.871, 91.375 12.273, 90 12.593 C 87.652 13.139, 87.738 13.257, 91.409 14.524 C 96.399 16.247, 99.027 18.897, 99.880 23.066 C 100.477 25.987, 101.212 26.608, 106.187 28.397 L 111.818 30.422 116.159 26.427 C 121.572 21.445, 128.865 16.397, 133.761 14.245 L 137.500 12.602 132.500 11.889 C 127.555 11.183, 111.583 11.092, 99 11.698 M 148.777 16.932 C 149.126 19.315, 148.379 20.767, 144.788 24.682 L 140.368 29.500 141.753 38 C 143.920 51.310, 143.901 73.351, 141.716 79.609 C 138.320 89.338, 130.486 95.882, 118.500 99.005 C 115.070 99.899, 104.554 100.374, 85 100.520 C 69.206 100.637, 53.043 101.261, 48.746 101.919 C 40.071 103.249, 33.777 105.170, 33.288 106.637 C 32.400 109.300, 51.914 114.998, 61.938 115.004 C 69.196 115.008, 73.621 116.966, 76.582 121.484 C 81.979 129.721, 71.551 153.410, 54.349 171.989 C 51.289 175.295, 49.197 178, 49.702 178 C 50.207 178, 57.792 175.464, 66.560 172.364 C 90.634 163.852, 97.809 164.400, 104.675 175.277 C 106.085 177.511, 108.227 182.165, 109.435 185.620 L 111.632 191.901 114.316 186.428 C 123.150 168.415, 136.459 164.681, 158.729 173.966 C 164.355 176.311, 169.602 177.983, 170.388 177.681 C 173.277 176.573, 168.791 163.753, 161.901 153.430 C 151.267 137.498, 141.881 127.256, 136.389 125.593 C 130.429 123.788, 127.041 133.424, 127.016 152.250 L 127 164 123.178 164 C 113.053 164, 103.975 157.757, 98.792 147.229 C 95.871 141.296, 95.507 139.638, 95.561 132.521 C 95.631 123.271, 97.119 119.088, 102.432 113.207 C 107.725 107.348, 113.799 104.834, 124.105 104.238 L 132.709 103.739 136.410 108.586 C 143.342 117.665, 149.240 119.362, 155.317 114.027 C 164.492 105.971, 168.705 80.560, 163.974 61.803 C 162.898 57.536, 162.984 56.831, 164.916 54.119 C 169.696 47.405, 171.309 37.100, 168.859 28.922 C 166.562 21.258, 157.925 14.082, 150.923 14.022 C 148.639 14.002, 148.395 14.333, 148.777 16.932 M 72 15.705 C 67.086 16.165, 63.944 17.996, 68.050 18.006 C 70.053 18.012, 88.406 22.453, 95.250 24.589 C 96.497 24.978, 97 24.585, 97 23.222 C 97 20.998, 94.552 18.539, 90.998 17.193 C 87.736 15.958, 77.693 15.171, 72 15.705 M 57.500 22.556 C 68.184 31.851, 83.131 35.525, 91.956 31.023 C 94.314 29.819, 95.848 28.462, 95.369 28.001 C 93.337 26.044, 62.289 18.950, 56.140 19.038 C 53.540 19.075, 53.560 19.127, 57.500 22.556 M 96.049 31.448 C 94.784 32.795, 92.423 34.187, 90.803 34.543 C 89.183 34.899, 88.045 35.379, 88.275 35.609 C 88.933 36.267, 109 33.795, 109 33.056 C 109 32.466, 100.359 28.983, 98.924 28.995 C 98.608 28.998, 97.314 30.102, 96.049 31.448 M 115.442 35.906 C 116.196 37.127, 113.804 42.088, 111.566 43.945 C 110.705 44.660, 110 45.640, 110 46.122 C 110 47.352, 121.708 47.209, 126.340 45.923 C 130.125 44.872, 130.154 44.827, 128.340 42.819 C 126.347 40.612, 114.390 34.204, 115.442 35.906 M 106.167 40.941 C 102.510 45.492, 102.368 46, 104.750 46 C 105.713 46, 107.653 44.537, 109.062 42.750 C 113.086 37.647, 113.329 37, 111.226 37 C 110.186 37, 107.909 38.774, 106.167 40.941 M 96.434 54.402 C 92.866 59.776, 92.856 59.821, 94.533 63.065 C 98.289 70.327, 94.087 79.038, 82.748 87.500 L 76.048 92.500 80.226 92.817 C 95.327 93.964, 118.313 83.569, 120.571 74.572 C 122.085 68.539, 115.746 61.873, 103.229 56.338 L 97.515 53.811 99.758 51.995 C 102.163 50.047, 102.601 49, 101.010 49 C 100.466 49, 98.406 51.431, 96.434 54.402 M 67.753 56.074 C 61.552 57.066, 56.605 60.205, 54.606 64.417 C 52.542 68.767, 52.637 77.268, 54.812 82.945 C 56.179 86.510, 57.405 87.832, 61.008 89.624 C 63.479 90.853, 66.935 92.145, 68.690 92.496 C 71.855 93.128, 71.911 93.068, 75.886 84.816 C 78.090 80.242, 81.958 72.906, 84.483 68.514 C 88.745 61.101, 88.949 60.436, 87.318 59.243 C 83.654 56.564, 74.229 55.037, 67.753 56.074 M 88.696 66.689 C 85.125 72.346, 77.720 87.054, 78.201 87.534 C 78.941 88.275, 88.823 79.022, 90.927 75.618 C 93.068 72.154, 93.633 66.548, 92.087 64.107 C 91.413 63.042, 90.615 63.650, 88.696 66.689" stroke="none" fill="black" fill-rule="evenodd"/>
</svg>