<svg xmlns="http://www.w3.org/2000/svg" width="200" height="200" viewBox="0 0 200 200" version="1.1">
	<path d="M 86.500 10.167 C 79.386 11.285, 79.445 11.284, 70.471 10.431 C 64.548 9.868, 63.220 10.030, 62.035 11.458 C 60.814 12.929, 60.879 13.620, 62.526 16.679 C 64.549 20.435, 72.020 27.554, 75.750 29.280 C 79.838 31.171, 78.107 31.834, 69.250 31.769 C 56.223 31.672, 45.384 35.432, 41.471 41.403 C 36.540 48.929, 47.843 53.408, 65.923 51.092 C 70.556 50.498, 74.606 50.284, 74.923 50.616 C 75.240 50.947, 74.376 51.957, 73.002 52.859 C 65.271 57.937, 61.613 65.030, 61.582 75 C 61.563 81.446, 61.974 83.256, 64.507 87.876 C 66.129 90.833, 68.478 93.922, 69.728 94.741 C 71.539 95.928, 72 97.152, 72 100.771 L 72 105.311 54.750 104.678 C 45.263 104.330, 35.225 103.758, 32.444 103.407 C 27.660 102.802, 27.191 102.954, 23.694 106.252 C 18.987 110.691, 18.731 114.292, 22.966 116.483 C 24.598 117.326, 31.756 119.329, 38.873 120.934 C 52.670 124.045, 56.879 125.712, 61.238 129.789 C 66.341 134.564, 65.562 141.962, 58.943 151.583 C 55.305 156.870, 55.437 160.018, 59.651 168.500 C 66.543 182.373, 80.843 190.175, 99.500 190.242 C 111.167 190.284, 121.555 187.349, 130.328 181.532 C 139.570 175.404, 138.809 177.696, 138.646 156.466 C 138.485 135.546, 139.652 128.944, 144.537 123.138 C 149.879 116.789, 162.083 115.322, 174.304 119.559 C 176.947 120.475, 179.348 120.985, 179.642 120.692 C 181.038 119.295, 181.841 112.197, 180.972 108.935 C 179.173 102.180, 174.012 99.352, 158.177 96.443 C 150.376 95.010, 133.810 91.139, 133.297 90.629 C 133.185 90.518, 134.423 87.793, 136.047 84.573 C 142.240 72.295, 138.159 60.122, 126.013 54.642 C 122.630 53.115, 119.322 52.592, 112.796 52.553 L 104.092 52.500 109.161 50.256 C 113.890 48.162, 115.450 48.028, 132.402 48.256 C 148.373 48.470, 150.902 48.285, 153.287 46.727 C 157.678 43.857, 156.988 40.018, 150.955 33.760 C 147.558 30.235, 145.669 28.917, 145.170 29.724 C 144.335 31.076, 136.302 29.531, 125.250 25.894 C 120.303 24.266, 119 23.412, 119 21.801 C 119 18.746, 112.049 12.350, 107.464 11.185 C 101.034 9.552, 92.918 9.158, 86.500 10.167 M 64.525 12.959 C 64.167 13.539, 64.817 15.338, 65.969 16.957 C 68.251 20.162, 75.872 27, 77.161 27 C 78.116 27, 78.870 23.942, 79.234 18.593 C 79.467 15.165, 79.191 14.602, 76.980 13.991 C 71.361 12.441, 65.163 11.927, 64.525 12.959 M 87.535 12.666 C 86.258 13.032, 90.794 14.922, 100.500 18.066 C 108.712 20.727, 115.631 22.702, 115.878 22.456 C 117.141 21.193, 113.627 16.998, 109.722 15.107 C 105.248 12.942, 91.750 11.456, 87.535 12.666 M 81.632 21.473 C 81.266 24.588, 81.201 27.516, 81.487 27.979 C 82.383 29.428, 96.109 31.268, 102.025 30.731 C 107.556 30.230, 114 27.754, 114 26.131 C 114 25.324, 91.116 17.573, 85.298 16.410 C 82.302 15.810, 82.297 15.817, 81.632 21.473 M 116.491 28.014 C 115.246 30.029, 108.364 32.810, 102.990 33.471 C 97.993 34.086, 89.874 33.287, 82.750 31.481 C 78.003 30.277, 79.714 32.660, 84.573 34.021 C 89.764 35.474, 110.525 34.785, 125 32.678 L 133.500 31.441 126.345 29.221 C 118.239 26.705, 117.366 26.598, 116.491 28.014 M 140.872 34.674 C 140.118 35.595, 135.450 38.248, 130.500 40.569 L 121.500 44.789 127.291 45.515 C 135.462 46.539, 150.479 45.677, 152.411 44.074 C 154.589 42.266, 154.494 41.938, 150.422 37.180 C 146.562 32.670, 143.232 31.796, 140.872 34.674 M 59.270 34.995 C 50.016 36.950, 42.072 42.140, 43.327 45.410 C 44.358 48.096, 51.763 49.294, 62.500 48.513 C 68 48.112, 73.227 47.801, 74.115 47.820 C 75.361 47.847, 75.876 46.464, 76.367 41.763 C 76.717 38.412, 76.803 35.470, 76.558 35.225 C 75.634 34.301, 63.331 34.137, 59.270 34.995 M 124 35.555 C 110.005 37.682, 92.161 38.418, 86.104 37.117 C 83.136 36.480, 80.474 36.192, 80.189 36.478 C 79.551 37.115, 77.849 49.182, 78.329 49.662 C 78.518 49.852, 80.772 49.719, 83.337 49.367 C 86.296 48.962, 88 48.230, 88 47.364 C 88 46.614, 88.563 45.959, 89.250 45.908 C 89.938 45.858, 96.350 45.481, 103.500 45.070 C 116.470 44.325, 116.524 44.312, 127 39.239 C 138.268 33.783, 137.980 33.430, 124 35.555 M 92 48.886 C 92 50.657, 100.769 51.188, 103.706 49.595 C 106.422 48.122, 106.298 48.079, 99.250 48.040 C 95.263 48.018, 92 48.399, 92 48.886 M 79.816 52.677 C 77.599 53.262, 77.270 55.269, 75.922 76.433 C 74.860 93.111, 74.902 94.455, 76.525 95.642 C 79.377 97.727, 86.916 98.361, 93.792 97.094 C 98.791 96.173, 101.440 96.179, 105.643 97.119 C 111.949 98.531, 119.150 97.307, 124.693 93.881 L 128.055 91.803 122.278 88.337 C 119.100 86.431, 115.111 83.533, 113.414 81.898 C 110.708 79.292, 109.991 79.053, 107.599 79.963 C 103.052 81.691, 93.885 81.227, 90.382 79.091 C 84.336 75.405, 85.062 70.075, 92.736 61.818 C 97.425 56.772, 97.453 56.702, 94.519 57.423 C 89.833 58.572, 89.776 58.570, 89.285 57.229 C 89.013 56.487, 90.103 55.511, 91.909 54.882 C 93.608 54.290, 94.747 53.399, 94.440 52.903 C 93.883 52.002, 83.008 51.834, 79.816 52.677 M 72.238 56.546 C 71.024 57.396, 68.786 60.209, 67.265 62.796 C 64.902 66.815, 64.500 68.602, 64.500 75.074 C 64.500 81.747, 64.857 83.223, 67.500 87.486 C 69.150 90.147, 70.950 92.363, 71.500 92.412 C 72.097 92.464, 72.769 86.657, 73.167 78 C 73.534 70.025, 74.088 61.587, 74.398 59.250 C 74.708 56.913, 74.845 55, 74.703 55 C 74.561 55, 73.452 55.696, 72.238 56.546 M 108.245 57.166 C 115.366 63.220, 118.011 70.959, 114.532 75.559 C 113.724 76.626, 113.049 77.803, 113.032 78.173 C 112.988 79.108, 125.991 87.600, 128.771 88.452 C 130.785 89.069, 131.337 88.506, 133.635 83.486 C 135.728 78.915, 136.148 76.719, 135.813 72.096 C 135.030 61.265, 128.046 55.972, 113.571 55.241 L 105.500 54.833 108.245 57.166 M 99 57.309 C 99 58.975, 105.472 69.785, 108.245 72.750 C 110.910 75.601, 111.780 75.578, 113.126 72.622 C 113.974 70.762, 113.831 69.447, 112.470 66.579 C 109.522 60.367, 99 53.125, 99 57.309 M 93.641 64.976 C 89.529 69.527, 88.211 73.344, 90.005 75.506 C 91.800 77.669, 98.465 79.187, 102.765 78.411 C 108.047 77.458, 108.404 77.061, 106.146 74.645 C 105.043 73.465, 102.586 69.913, 100.686 66.751 L 97.231 61.002 93.641 64.976 M 127.693 95.027 C 122.950 98.758, 118.098 100.150, 110.616 99.926 C 103.194 99.704, 100.110 99.735, 87.250 100.159 C 82.480 100.316, 78.635 99.937, 77.250 99.172 C 75.107 97.989, 75 98.097, 75 101.465 L 75 105 85.250 104.943 C 107.654 104.819, 130.345 103.123, 137.478 101.039 C 141.316 99.917, 146.716 98.962, 149.478 98.916 L 154.500 98.831 146.500 97.005 C 142.100 96, 137.233 94.688, 135.685 94.089 C 131.769 92.574, 130.643 92.706, 127.693 95.027 M 155.767 101.560 C 156.164 103.636, 155.307 105.035, 151.245 108.951 C 146.057 113.951, 135.304 121.543, 126.353 126.525 C 121.574 129.186, 121.162 129.715, 120.597 133.945 C 120.263 136.450, 118.416 141.565, 116.494 145.311 C 114.232 149.721, 113 153.521, 113 156.093 C 113 164.692, 106.222 173.003, 99.215 172.996 C 95.286 172.992, 89.965 170.286, 86.780 166.671 C 80.123 159.117, 74.331 138.566, 73.274 118.750 L 72.700 108 64.788 108 C 60.436 108, 50.332 107.514, 42.336 106.921 C 27.917 105.850, 27.778 105.860, 25.399 108.095 C 24.079 109.335, 23 111.135, 23 112.097 C 23 114.132, 25.102 114.905, 40.285 118.454 C 53.258 121.486, 59.850 124.190, 63.463 127.961 C 68.787 133.518, 68.324 142.145, 62.188 151.708 C 60.434 154.440, 59 157.536, 59.001 158.588 C 59.002 162.477, 64.757 172.553, 69.424 176.840 C 84.950 191.098, 110.917 191.464, 131.247 177.711 L 135.994 174.500 135.809 157 C 135.595 136.788, 136.678 130.172, 141.319 123.330 C 147.102 114.803, 157.167 112.211, 170.740 115.752 C 177.854 117.608, 177.990 117.607, 178.585 115.733 C 179.677 112.291, 178.028 107.201, 174.991 104.646 C 173.247 103.178, 169.215 101.527, 165.078 100.586 C 155.639 98.439, 155.179 98.487, 155.767 101.560 M 139 103.565 C 130.866 105.678, 125.619 106.193, 102.500 107.148 C 87.650 107.762, 75.399 108.343, 75.276 108.440 C 74.576 108.987, 77.406 133.889, 79.034 141.500 C 81.463 152.863, 87.210 164.576, 91.898 167.721 C 96.886 171.067, 102.066 170.781, 105.899 166.947 C 109.114 163.732, 111.287 157.697, 110.852 153.187 C 110.705 151.655, 112.186 147.288, 114.297 143.028 C 116.334 138.919, 118 134.551, 118 133.323 L 118 131.090 111.477 133.545 C 107.890 134.895, 103.052 135.989, 100.727 135.977 C 95.030 135.945, 86.884 131.477, 85.542 127.649 C 84.651 125.108, 84.885 124.492, 87.685 121.990 C 95.940 114.614, 114.412 116.172, 119.046 124.635 C 120.214 126.768, 120.219 126.767, 126.099 123.444 C 139.599 115.813, 153 105.334, 153 102.407 C 153 100.451, 150.056 100.694, 139 103.565 M 94.942 120.948 C 86.111 123.628, 85.774 127.120, 93.946 131.258 C 100.048 134.349, 102.840 134.261, 111.500 130.703 C 117.729 128.143, 117.307 128.542, 116.495 125.983 C 115.058 121.455, 102.748 118.580, 94.942 120.948" stroke="none" fill="black" fill-rule="evenodd"/>
</svg>