<svg xmlns="http://www.w3.org/2000/svg" width="200" height="200" viewBox="0 0 200 200" version="1.1">
	<path d="M 112 9.614 C 84.705 11.994, 57.531 15.715, 50.371 18.053 C 48.650 18.615, 46.453 19.947, 45.489 21.012 C 43.864 22.808, 43.854 23.128, 45.353 25.416 C 47.480 28.662, 57.593 33.411, 68.629 36.346 L 77.500 38.705 70.500 39.409 C 36.606 42.815, 27.730 44.421, 27.189 47.247 C 26.972 48.381, 27.767 49.341, 29.456 49.983 C 31.693 50.834, 49.842 52.957, 66.500 54.318 C 69.250 54.542, 75.346 55.286, 80.046 55.970 C 87.328 57.030, 89.472 56.988, 94.546 55.683 C 98.403 54.692, 100.851 54.495, 101.497 55.123 C 102.634 56.230, 102.872 74.595, 101.784 77.244 C 101.134 78.825, 100.597 78.710, 96.018 76.010 C 93.240 74.373, 87.785 71.679, 83.895 70.023 C 80.005 68.368, 74.799 65.233, 72.327 63.056 C 61.133 53.203, 49.456 55.496, 39.455 69.511 C 37.056 72.873, 33.718 78.521, 32.038 82.062 L 28.982 88.500 32.241 89.863 C 37.001 91.855, 53.469 95.918, 59.925 96.694 C 65.478 97.361, 65.446 97.373, 51.871 99.618 C 37.068 102.066, 31 104.045, 31 106.423 C 31 109.428, 36.873 111.151, 55.036 113.477 L 59.572 114.058 61.380 121.075 C 63.877 130.768, 68.673 136.910, 80.355 145.372 L 84.371 148.281 82.199 150.040 C 81.004 151.007, 75.114 153.934, 69.108 156.543 L 58.190 161.286 59.497 164.990 C 63.444 176.180, 70.562 183.902, 79.328 186.505 C 92.185 190.323, 107.373 186.344, 118.045 176.361 C 128.434 166.644, 124.373 160.408, 108.139 161.145 L 100.210 161.505 106.855 157.617 C 120.470 149.651, 129.656 145.774, 135.113 145.692 C 139.685 145.623, 140.585 145.972, 143.098 148.784 C 147.763 154.005, 149.373 161.480, 149.336 177.750 L 149.304 192 151.902 191.978 C 158.834 191.919, 168.286 184.165, 172.007 175.483 C 178.428 160.505, 176.548 140.430, 167.632 128.739 C 160.118 118.888, 149.249 115.895, 135.855 119.990 C 129.651 121.886, 127.092 122.147, 119.500 121.654 C 103.292 120.603, 103.049 120.067, 112.435 106.085 C 119.771 95.157, 122.634 89.063, 124.453 80.500 C 125.449 75.813, 127.344 72.155, 133.114 63.779 C 137.176 57.883, 140.773 53.045, 141.108 53.029 C 142.006 52.986, 143 64.046, 143 74.095 C 143 82.139, 140.692 104.049, 139.402 108.250 C 139.058 109.373, 139.398 110, 140.353 110 C 141.925 110, 142.379 108.473, 143.923 98 C 145.821 85.119, 146.218 71.494, 145.024 60.207 L 143.828 48.914 146.515 45.391 C 147.993 43.454, 149.494 42.161, 149.851 42.518 C 150.208 42.875, 150.504 58.092, 150.508 76.333 C 150.518 112.587, 150.949 115.653, 156.385 118.130 C 158.495 119.091, 159.555 118.865, 163.338 116.648 C 167.533 114.189, 176 105.677, 176 103.918 C 176 103.478, 175.550 102.840, 175 102.500 C 173.199 101.387, 173.946 88.477, 177.094 66.298 C 178.795 54.309, 180.258 39.697, 180.344 33.826 C 180.482 24.405, 180.254 22.821, 178.401 20.326 C 177.247 18.772, 175.216 17.368, 173.888 17.206 C 170.578 16.804, 163.060 21.976, 156.765 28.986 L 151.601 34.737 149.766 29.302 L 147.931 23.867 151.039 20.964 C 155.206 17.071, 154.747 14.109, 149.588 11.590 C 146.369 10.019, 143.094 9.640, 131.088 9.451 C 123.065 9.325, 114.475 9.398, 112 9.614 M 104.699 13.060 C 99.859 13.489, 90.859 14.426, 84.699 15.142 L 73.500 16.443 89.987 17.583 C 99.653 18.252, 107.719 18.367, 109.481 17.862 C 114.994 16.281, 120.448 16.902, 126.064 19.750 C 133.907 23.728, 137.121 28.434, 142.569 43.921 C 142.928 44.942, 143.904 44.379, 146.033 41.921 C 149.406 38.027, 149.385 34.599, 145.942 27.500 L 144.002 23.500 147.672 20.418 C 152.402 16.446, 151.708 14.532, 145.020 13.098 C 139.330 11.877, 118.245 11.858, 104.699 13.060 M 77.309 23.961 C 86.158 29.132, 90.796 32.782, 91.555 35.174 C 92.045 36.716, 92.751 37.028, 94.663 36.549 C 96.912 35.984, 97.379 36.476, 99.804 41.964 C 101.272 45.284, 102.719 48, 103.021 48 C 104.570 48, 107.311 41.058, 108.021 35.334 C 108.463 31.763, 109.101 28.566, 109.437 28.230 C 110.638 27.029, 112.904 30.670, 117.932 41.881 C 122.824 52.787, 124.165 56.936, 125.502 65.298 L 126.109 69.097 133.524 58.629 L 140.940 48.160 139.360 42.830 C 136.364 32.725, 131.421 25.327, 125.631 22.282 C 122.998 20.897, 118.385 20.596, 96.637 20.388 L 70.775 20.142 77.309 23.961 M 167.335 22.873 C 165.153 24.453, 160.979 28.407, 158.057 31.660 L 152.746 37.576 152.933 71.017 C 153.118 104.230, 153.824 112.779, 156.568 115.056 C 158.610 116.751, 162.803 114.810, 167.509 109.991 L 171.302 106.107 171.499 94.303 C 171.614 87.410, 172.849 75.012, 174.467 64.500 C 177.630 43.954, 178.388 24.391, 176.128 21.659 C 174.160 19.280, 171.854 19.599, 167.335 22.873 M 47.370 23.212 C 46.516 24.591, 54.601 28.932, 63.633 31.944 C 73.294 35.166, 87.499 37.835, 88.684 36.650 C 89.814 35.519, 86.110 32.453, 77.043 27.015 L 68.586 21.943 58.198 22.221 C 52.485 22.375, 47.613 22.820, 47.370 23.212 M 110.465 38.384 C 110.088 40.899, 108.462 45.033, 106.852 47.572 L 103.925 52.187 105.136 60.093 C 106.086 66.304, 106.083 69.425, 105.121 74.648 L 103.896 81.297 106.816 84.399 C 108.422 86.104, 110.177 88.333, 110.715 89.351 C 111.553 90.937, 112.525 89.885, 117.483 82.027 L 123.273 72.850 122.618 65.799 C 121.979 58.922, 119.514 51.521, 113.911 39.656 L 111.151 33.811 110.465 38.384 M 75.500 41.595 C 54.927 43.725, 36.472 46.045, 33.361 46.892 C 30.966 47.544, 31.803 47.856, 38.500 48.806 C 42.900 49.430, 52.575 50.415, 60 50.995 C 67.425 51.575, 75.300 52.477, 77.500 53.001 C 85.421 54.885, 98.539 53.365, 99.664 50.433 C 99.936 49.725, 99.248 47.088, 98.135 44.573 C 95.778 39.244, 96.843 39.384, 75.500 41.595 M 51.200 61.672 C 49.386 62.566, 46.310 65.143, 44.365 67.399 C 40.813 71.519, 33.038 84.615, 33.013 86.519 C 33.001 87.479, 43.751 90.760, 54.182 92.981 C 74.015 97.204, 91.625 93.952, 98.090 84.873 C 100.216 81.889, 100.232 81.705, 98.482 80.627 C 94.391 78.108, 80.476 71.197, 80.148 71.522 C 79.954 71.714, 80.517 72.900, 81.398 74.158 C 82.279 75.416, 83 77.245, 83 78.223 C 83 81.524, 79.968 80.029, 77.225 75.374 C 72.103 66.679, 70.450 64.546, 67.078 62.274 C 63.011 59.533, 56.074 59.270, 51.200 61.672 M 116.518 88.247 C 114.329 91.686, 112.010 96.200, 111.366 98.278 C 109.715 103.602, 106.162 107.901, 97.464 115.095 C 93.119 118.689, 90.042 121.977, 90.209 122.846 C 90.369 123.677, 91.850 124.733, 93.500 125.194 C 98.021 126.458, 118.301 127.401, 121.604 126.502 L 124.500 125.713 122 124.956 C 120.625 124.540, 117.392 124.155, 114.815 124.100 C 112.238 124.045, 108.873 123.522, 107.335 122.937 C 101.093 120.564, 101.534 117.481, 109.920 104.890 C 116.361 95.220, 121.461 84.882, 120.787 82.862 C 120.628 82.385, 118.707 84.808, 116.518 88.247 M 99.813 87.039 C 98.577 88.711, 96.201 90.986, 94.533 92.096 L 91.500 94.113 99 93.446 C 109.132 92.544, 109.527 92.240, 106.453 87.716 C 105.064 85.672, 103.508 84, 102.994 84 C 102.480 84, 101.049 85.368, 99.813 87.039 M 91 97.109 C 60.171 101.101, 41.290 104.005, 37.474 105.342 L 33.500 106.735 37.500 107.856 C 39.700 108.473, 46.108 109.513, 51.739 110.167 C 62.788 111.452, 62.243 111.068, 63.496 118.453 C 64.936 126.937, 70.440 134.915, 78.995 140.915 C 85.816 145.700, 87.257 147.651, 85.876 150.231 C 84.884 152.086, 74.967 157.404, 66.750 160.489 C 64.138 161.469, 62 162.901, 62 163.669 C 62 166.371, 66.868 174.540, 70.664 178.207 C 75.376 182.761, 81.428 185, 89.020 185 C 100.860 185, 116.293 177.648, 119.773 170.350 C 121.388 166.962, 121.378 166.750, 119.539 165.405 C 116.981 163.535, 104.587 163.593, 95.500 165.517 C 82.706 168.227, 82.811 167.123, 96 160.243 C 101.225 157.518, 110.398 152.683, 116.385 149.501 C 125.840 144.474, 128.176 143.649, 134.161 143.221 L 141.051 142.728 144.797 146.666 C 150.081 152.221, 151.131 156.326, 151.724 173.750 C 152.289 190.335, 152.332 190.431, 157.935 187.534 C 162.336 185.258, 168.298 177.836, 170.502 171.891 C 173.456 163.922, 173.305 146.656, 170.214 138.921 C 167.387 131.847, 161.772 125.256, 156.556 122.886 C 151.534 120.605, 140.813 120.330, 138.715 122.428 C 137.930 123.213, 135.535 124.174, 133.394 124.562 C 131.252 124.951, 127.549 126.399, 125.164 127.780 C 120.984 130.201, 120.408 130.267, 109.066 129.626 C 90.707 128.588, 84.626 126.005, 88.012 120.682 C 88.830 119.396, 92.875 115.422, 97 111.853 C 104.937 104.985, 109 99.905, 109 96.852 C 109 94.679, 109.867 94.666, 91 97.109" stroke="none" fill="black" fill-rule="evenodd"/>
</svg>