<svg xmlns="http://www.w3.org/2000/svg" width="200" height="200" viewBox="0 0 200 200" version="1.1">
	<path d="M 125.500 10.047 C 120.550 10.473, 104.631 11.345, 90.125 11.983 C 63.539 13.154, 57.590 13.990, 59.842 16.242 C 60.484 16.884, 63.145 17.707, 65.755 18.071 L 70.500 18.733 65.372 18.866 C 61.985 18.955, 59.786 19.552, 58.894 20.628 C 57.720 22.042, 57.978 22.618, 60.865 25.029 C 63.778 27.461, 83.349 36, 86.009 36 C 86.554 36, 87 36.450, 87 37 C 87 37.630, 80.353 38, 69.059 38 C 58.814 38, 50.866 38.407, 50.531 38.949 C 49.057 41.334, 63.688 41.458, 102.500 39.388 L 113.500 38.801 108.500 43.356 C 105.669 45.934, 101.981 48.250, 100 48.694 C 98.075 49.125, 87.050 49.472, 75.500 49.466 C 55.959 49.456, 54.102 49.296, 48.773 47.164 C 45.408 45.818, 42.058 43.611, 40.649 41.811 C 37.414 37.677, 35.382 38.459, 38.034 42.817 C 42.665 50.428, 57.098 53.605, 82.500 52.605 L 98.500 51.975 92.860 57.617 L 87.219 63.259 82.498 59.654 C 74.128 53.263, 66.982 53.500, 59.323 60.422 C 56.670 62.819, 52.975 67.318, 51.111 70.418 L 47.722 76.056 49.535 80.077 C 51.685 84.845, 56.299 89.119, 62.787 92.353 C 69.687 95.793, 75.996 97.062, 86.334 97.090 C 112.683 97.162, 128.813 85.450, 122.655 70.718 C 121.915 68.948, 118.473 64.874, 115.006 61.665 L 108.703 55.830 112.101 52.569 C 115.220 49.577, 116.439 49.173, 126.906 47.665 C 133.179 46.761, 138.579 45.748, 138.906 45.413 C 139.668 44.633, 133.750 39.598, 128.196 36.301 L 123.891 33.746 130.653 28.817 C 138.613 23.013, 138.032 22.462, 140.544 38.203 C 142.597 51.074, 143.716 87.793, 142.145 90.729 C 141.020 92.832, 134.103 94.507, 116.500 96.939 C 103.813 98.692, 35.161 103, 19.907 103 C 18.858 103, 18 103.642, 18 104.427 C 18 105.355, 25.598 108.858, 39.750 114.454 C 51.712 119.184, 62.059 123.404, 62.742 123.831 C 63.695 124.427, 63.521 125.517, 61.992 128.516 C 60.628 131.191, 60 134.406, 60 138.711 L 60 145 65.750 145.056 L 71.500 145.111 68.500 147.295 C 66.850 148.496, 62.942 152.024, 59.815 155.136 C 50.272 164.632, 50.706 172.063, 61.412 182.473 C 67.130 188.034, 82.228 198, 84.934 198 C 87.003 198, 99.464 184.515, 101.436 180.142 C 104.322 173.742, 103.036 171.252, 94.750 167.195 C 91.037 165.378, 88 163.332, 88 162.648 C 88 161.965, 89.687 159.784, 91.750 157.802 C 95.585 154.117, 106.777 146, 108.023 146 C 108.404 146, 109.006 148.813, 109.361 152.250 C 110.757 165.745, 121.258 181.531, 132.500 187.033 C 139.677 190.545, 151.184 190.960, 160.007 188.025 C 166.744 185.783, 177.299 179.947, 182.500 175.587 L 185.500 173.072 169.500 172.962 C 152.314 172.844, 144.864 172.108, 144.323 170.475 C 144.136 169.912, 147.865 167.212, 152.609 164.475 C 160.460 159.947, 165 156.074, 165 153.904 C 165 151.918, 160.281 148.983, 155.293 147.866 L 149.880 146.655 154.690 144.844 C 166.421 140.428, 165.630 132.707, 152.954 127.890 C 144.036 124.502, 119.462 124.362, 106.370 127.626 C 104.387 128.120, 104.291 127.891, 104.980 124.328 C 107.478 111.413, 113.424 109.625, 136 115 C 142.875 116.637, 150.457 117.981, 152.849 117.988 C 158.701 118.004, 163.497 115.549, 166.222 111.144 C 168.110 108.089, 168.438 106.287, 168.246 100 C 167.727 82.969, 167.931 78.831, 170.001 64.500 C 172.770 45.330, 172.989 28.158, 170.541 22.246 C 166.654 12.858, 159.149 10.681, 147.500 15.561 C 144.200 16.944, 141.115 18.171, 140.643 18.288 C 140.172 18.404, 139.146 16.363, 138.363 13.750 C 137.580 11.137, 136.391 9.061, 135.720 9.136 C 135.049 9.211, 130.450 9.621, 125.500 10.047 M 103.500 14.051 C 95.800 14.439, 85.675 14.846, 81 14.957 C 76.325 15.067, 72.950 15.333, 73.500 15.547 C 74.050 15.762, 80.686 16.829, 88.247 17.920 C 104.226 20.226, 111 22.694, 111 26.209 C 111 28.092, 111.946 28.867, 116.009 30.310 C 118.816 31.307, 121.589 31.740, 122.316 31.294 C 123.030 30.858, 126.649 28.306, 130.359 25.625 C 136.752 21.004, 137.069 20.587, 136.434 17.625 C 136.066 15.906, 135.566 14.163, 135.323 13.750 C 134.827 12.907, 124.240 13.008, 103.500 14.051 M 146.333 18.947 L 140.166 21.801 141.047 25.651 C 144.112 39.036, 145.403 52.678, 145.450 72.199 C 145.480 84.742, 145.106 93.287, 144.500 93.886 C 143.017 95.351, 125.371 98.688, 110 100.409 C 95.652 102.015, 72.482 103.492, 44.250 104.600 C 34.763 104.973, 27 105.558, 27 105.902 C 27 106.245, 35.097 109.670, 44.994 113.513 C 54.891 117.356, 63.989 121.251, 65.212 122.169 L 67.436 123.837 65.160 128.395 C 63.908 130.902, 62.797 134.876, 62.692 137.226 L 62.500 141.500 66.500 141.767 C 76.091 142.406, 77.309 144.152, 71.341 148.707 C 53.634 162.223, 51.849 168.441, 62.401 179.851 C 65.905 183.639, 74.356 189.628, 80.876 192.944 L 85.252 195.169 89.685 190.835 C 95.835 184.822, 100.150 178.067, 99.794 175.013 C 99.563 173.036, 98.130 171.812, 93.072 169.271 C 83.637 164.532, 83.118 163.089, 88.648 156.968 C 92.478 152.728, 108.011 141.860, 110.565 141.633 C 111.753 141.527, 112.101 143.116, 112.288 149.500 C 112.490 156.378, 113.040 158.587, 116.211 165.247 C 127.277 188.494, 147.213 193.667, 171.679 179.640 L 177.157 176.500 162.606 175.837 C 136.664 174.654, 134.627 171.686, 152.582 161.233 C 161.015 156.324, 163.061 154.290, 160.936 152.927 C 158.367 151.281, 152.688 149.993, 142.750 148.801 C 135.947 147.986, 133 147.235, 133 146.316 C 133 145.397, 134.584 144.995, 138.250 144.984 C 144.767 144.965, 154.074 142.836, 157.523 140.577 C 162.893 137.058, 158.599 131.819, 148.374 129.413 C 140.667 127.600, 123.771 127.634, 112.500 129.486 C 107.550 130.300, 103.162 130.973, 102.750 130.983 C 101.091 131.021, 102.111 122.207, 104.250 118.020 C 109.113 108.503, 115.037 107.318, 134.822 111.909 C 149.745 115.372, 155.688 115.730, 160.128 113.434 C 165.129 110.848, 166.264 106.539, 165.486 93.094 C 164.945 83.743, 165.247 78.501, 167.046 66 C 169.650 47.903, 170.139 29.306, 168.157 23.702 C 167.418 21.613, 165.870 19.025, 164.718 17.952 C 161.551 15.002, 153.969 15.412, 146.333 18.947 M 75.750 19.662 C 76.438 19.940, 77.563 19.940, 78.250 19.662 C 78.938 19.385, 78.375 19.158, 77 19.158 C 75.625 19.158, 75.063 19.385, 75.750 19.662 M 94.500 23.363 C 106.757 26.618, 110.354 27.083, 106.971 24.975 C 105.013 23.754, 93.854 21.261, 87 20.512 C 83.064 20.082, 85.196 20.892, 94.500 23.363 M 63.462 22.013 C 61.978 22.534, 62.064 22.811, 64.129 24.159 C 66.819 25.916, 83.092 32.522, 87.230 33.537 C 90.431 34.322, 104.746 30.323, 103.381 29.024 C 100.506 26.289, 67.699 20.527, 63.462 22.013 M 106.460 31.282 C 105.395 31.878, 101.594 33.373, 98.012 34.605 L 91.500 36.844 104 36.295 C 116.989 35.725, 120.235 34.818, 115.663 33.037 C 114.198 32.467, 111.964 31.595, 110.697 31.100 C 109.229 30.526, 107.693 30.592, 106.460 31.282 M 120.252 36.662 C 119.497 36.966, 119.234 38.085, 119.587 39.490 C 119.908 40.768, 119.646 42.792, 119.006 43.989 C 117.856 46.139, 117.909 46.155, 123.623 45.441 C 135.039 44.015, 135.156 43.877, 128.469 39.695 C 122.327 35.853, 122.290 35.839, 120.252 36.662 M 112.027 43.866 L 107.555 47.719 110.834 47.238 C 112.803 46.949, 114.728 45.819, 115.651 44.410 C 118.409 40.201, 116.597 39.929, 112.027 43.866 M 105.500 51.057 C 103.850 51.539, 99.395 55.066, 95.599 58.894 L 88.698 65.854 91.773 70.677 C 96.084 77.438, 98.522 83.878, 97.252 85.148 C 95.734 86.666, 94.185 84.557, 89.048 73.972 C 85.974 67.640, 83.341 63.684, 80.923 61.767 C 77.077 58.717, 71.680 57.362, 67.529 58.403 C 64.006 59.288, 57.800 65.079, 53.956 71.069 C 51.104 75.513, 50.894 76.331, 51.952 78.885 C 57.887 93.214, 88.987 99.483, 108.997 90.384 C 125.212 83.011, 125.513 72.347, 109.839 60.545 L 104.178 56.283 107.320 53.142 C 110.610 49.851, 110.410 49.622, 105.500 51.057" stroke="none" fill="black" fill-rule="evenodd"/>
</svg>