<svg xmlns="http://www.w3.org/2000/svg" width="200" height="200" viewBox="0 0 200 200" version="1.1">
	<path d="M 94.500 11.104 C 71.581 14.276, 62.253 14.898, 57.232 13.593 C 54.499 12.882, 54.060 12.994, 54.553 14.276 C 55.210 15.990, 53.536 16.475, 43.250 17.546 C 38.672 18.022, 37 18.595, 37 19.686 C 37 20.840, 37.845 21.050, 40.750 20.617 C 42.813 20.310, 47.015 19.778, 50.089 19.434 C 55.549 18.824, 55.706 18.877, 56.879 21.708 C 61.583 33.064, 77.539 37.448, 92.451 31.483 L 98.743 28.966 107.622 32.097 C 116.995 35.403, 127.466 40.327, 128.426 41.880 C 129.237 43.193, 123.891 44.853, 116.367 45.624 L 109.931 46.283 110.592 42.147 C 111.500 36.473, 110.060 34.998, 103.628 35.009 C 94.770 35.024, 88 36.159, 88 37.628 C 88 38.708, 89.784 38.852, 96.906 38.346 C 108.156 37.547, 109.178 37.892, 107.976 42.083 C 107.473 43.837, 106.865 45.468, 106.624 45.709 C 106.384 45.950, 101.334 46.596, 95.402 47.146 C 84.888 48.120, 84.576 48.090, 82.958 45.945 L 81.299 43.745 75.399 45.971 C 70.498 47.820, 68.315 48.092, 62.500 47.577 C 55.530 46.959, 48.211 45.301, 42.500 43.045 C 39.643 41.916, 39.595 41.804, 41.500 40.696 C 42.715 39.989, 49.896 39.388, 59.799 39.163 C 71.473 38.898, 75.987 38.467, 75.708 37.646 C 75.438 36.850, 70.613 36.505, 59.910 36.517 C 44.259 36.534, 38.777 37.533, 37.606 40.584 C 36.314 43.951, 45.691 48.256, 57.250 49.605 C 60.413 49.974, 63 50.566, 63 50.922 C 63 51.278, 61.632 52.377, 59.960 53.364 C 54.998 56.296, 49.029 63.178, 47.940 67.224 C 44.893 78.540, 56.397 90.052, 75.176 94.480 C 78.654 95.300, 83.214 95.977, 85.309 95.985 C 87.591 95.994, 88.870 96.401, 88.500 97 C 88.116 97.621, 78.713 98.009, 63.691 98.024 C 38.895 98.048, 32.912 98.659, 30.119 101.453 C 25.750 105.822, 35.600 112.173, 65.159 124.046 C 80.575 130.239, 82.899 131.463, 83.458 133.688 C 83.810 135.089, 83.829 136.505, 83.500 136.833 C 83.172 137.162, 78.987 136.599, 74.201 135.582 C 55.090 131.523, 50.886 131.654, 46.093 136.458 C 43.758 138.798, 43.510 139.774, 43.596 146.278 C 43.699 153.944, 46.211 162.746, 51.982 175.651 L 55.044 182.500 64.272 182.534 C 69.347 182.553, 81.150 182.950, 90.500 183.416 C 116.491 184.711, 129.228 181.950, 138.166 173.083 L 142.831 168.454 147.666 172.335 C 169.412 189.793, 178.667 179.179, 165.145 152.289 C 162.991 148.005, 159.179 141.775, 156.675 138.444 C 151.837 132.009, 142.748 123, 141.094 123 C 139.137 123, 135.065 129.722, 129.036 142.903 C 122.158 157.938, 118.875 163.898, 116.071 166.436 C 114.247 168.087, 114.102 168.060, 112.917 165.845 C 112.211 164.525, 111.468 158.127, 111.196 151.012 L 110.718 138.500 106.961 134.225 C 102.974 129.688, 100 124.273, 100 121.549 C 100 115.293, 107.202 110.850, 120.565 108.863 C 134.433 106.800, 155.255 110.870, 158.108 116.201 C 158.673 117.257, 159.642 117.953, 160.262 117.746 C 161.700 117.267, 167.526 81.829, 169.150 63.678 C 171.740 34.721, 166.052 17.169, 151.703 9.849 C 146.881 7.389, 147.353 6.976, 140.792 19.384 L 136.500 27.500 136.243 21.500 C 135.705 8.958, 134.774 7.965, 123.679 8.099 C 119.180 8.153, 106.050 9.505, 94.500 11.104 M 117 11.026 C 113.425 11.446, 104.425 12.605, 97 13.603 C 84.363 15.301, 83.813 15.464, 88.392 16.146 C 97.544 17.510, 101.890 20.622, 100.547 24.852 C 100.088 26.299, 101.053 26.960, 105.741 28.409 C 108.909 29.388, 115.733 32.176, 120.906 34.605 C 126.080 37.034, 130.410 38.904, 130.529 38.761 C 130.648 38.617, 131.481 37.053, 132.380 35.285 C 133.725 32.641, 133.897 30.276, 133.352 21.951 C 132.511 9.131, 132.606 9.194, 117 11.026 M 142.665 21.786 L 136.863 32.500 139.061 40.500 C 140.270 44.900, 141.922 50.750, 142.733 53.500 C 143.544 56.250, 144.251 62.100, 144.305 66.500 C 144.519 84.134, 135.141 93.654, 113.400 97.874 L 105.020 99.500 102.398 106 C 100.956 109.575, 99.521 113.149, 99.207 113.942 C 98.894 114.736, 100.407 113.966, 102.569 112.232 C 112.486 104.277, 141.656 103.321, 154.749 110.521 L 158.998 112.858 159.490 110.679 C 160.719 105.242, 165.006 77.484, 166.075 68.038 C 167.495 55.507, 166.777 37.466, 164.575 30.349 C 162.401 23.322, 157.317 16.195, 152.483 13.397 L 148.467 11.073 142.665 21.786 M 60.156 18.883 C 59.045 19.586, 59.090 20.273, 60.411 22.828 C 62.416 26.706, 69.074 30.636, 75.131 31.517 C 80.177 32.252, 89.701 30.670, 92.484 28.635 C 93.994 27.532, 92.135 26.721, 78.827 22.679 C 62.188 17.625, 62.152 17.618, 60.156 18.883 M 85 21.480 C 96.939 25.438, 98 25.598, 98 23.449 C 98 21.032, 91.680 18.974, 82.698 18.464 L 74.500 17.999 85 21.480 M 124.516 57.172 L 114.700 77.345 117.528 79.778 C 121.012 82.774, 120.399 84.083, 113.212 89 C 108.362 92.318, 106.350 94.683, 107.446 95.779 C 108.390 96.724, 120.539 93.837, 126 91.371 C 132.502 88.435, 136.385 84.979, 139.342 79.500 C 142.736 73.209, 142.254 60.463, 138.135 47.564 C 136.389 42.099, 134.819 37.486, 134.646 37.313 C 134.473 37.140, 129.914 46.076, 124.516 57.172 M 115.828 48.301 C 107.122 49.425, 107.037 49.529, 107.014 59.093 C 107 64.564, 110.184 72.944, 112.544 73.648 C 113.070 73.805, 116.200 68.270, 119.500 61.349 C 126.805 46.029, 126.452 46.967, 124.833 47.155 C 124.100 47.240, 120.048 47.755, 115.828 48.301 M 96 49.552 C 95.175 49.729, 92.431 50.144, 89.902 50.475 L 85.304 51.077 88.619 59.788 C 90.442 64.580, 91.949 70.015, 91.967 71.867 C 91.996 74.790, 91.726 75.162, 89.921 74.690 C 88.455 74.306, 87.994 74.541, 88.356 75.485 C 88.639 76.222, 89.435 80.516, 90.126 85.029 L 91.382 93.233 95.941 92.690 C 104.191 91.708, 105.870 90.558, 108.945 83.783 L 111.769 77.563 109.371 74.419 C 105.396 69.208, 103.652 62.625, 104.329 55.383 L 104.925 49 101.212 49.116 C 99.171 49.180, 96.825 49.376, 96 49.552 M 65.134 53.497 C 50.413 61.990, 46.604 70.548, 53.515 79.609 C 58.506 86.152, 74.085 93, 83.979 93 L 88.747 93 86.874 82.250 C 85.844 76.338, 84.302 69.972, 83.447 68.104 C 81.134 63.050, 83.275 61.656, 86.071 66.396 C 87.268 68.425, 88.440 69.893, 88.675 69.658 C 88.911 69.423, 87.617 65.241, 85.801 60.365 L 82.500 51.500 76 51.239 C 70.581 51.022, 68.774 51.398, 65.134 53.497 M 111.812 84.105 L 110.130 88.044 113.065 85.954 C 116.301 83.649, 116.617 82.757, 114.747 81.205 C 113.806 80.424, 113.076 81.145, 111.812 84.105 M 97 95.571 L 91.500 96.865 97.421 96.683 C 101.131 96.568, 103.496 96.033, 103.754 95.250 C 104.221 93.835, 104.414 93.826, 97 95.571 M 56.798 100.948 C 31.991 101.551, 29.132 102.208, 33.997 106.181 C 38.032 109.477, 47.318 113.884, 66.500 121.610 C 83.001 128.255, 84.607 129.122, 85.789 132.018 C 87.397 135.960, 86.560 138.821, 83.579 139.570 C 82.320 139.886, 77.513 139.251, 72.895 138.161 C 60.167 135.154, 55.543 134.666, 51.722 135.927 C 43.927 138.499, 44.022 147.976, 52.049 168.508 L 55.996 178.601 73.248 179.807 C 104.861 182.017, 120.206 181.025, 129.644 176.162 C 133.510 174.170, 138.920 169.050, 140.672 165.724 C 141.508 164.139, 142.284 164.491, 147.916 169.011 C 155.607 175.184, 160.941 178, 164.941 178 C 167.362 178, 168.092 177.483, 168.616 175.393 C 170.029 169.765, 164.329 154.205, 156.826 143.207 C 153.425 138.223, 142.169 126, 140.979 126 C 140.229 126, 137.137 132.053, 129.215 149.031 C 123.179 161.967, 119.786 167.439, 116.439 169.632 C 113.999 171.230, 113.771 171.215, 111.883 169.328 C 109.587 167.031, 108.051 158.273, 108.020 147.303 C 108 140.257, 107.898 139.972, 103.155 133.705 C 100.491 130.185, 97.974 125.774, 97.562 123.902 L 96.813 120.500 95.523 124.500 C 94.814 126.700, 93.718 134.182, 93.088 141.127 C 91.861 154.636, 89.164 166.264, 86.681 168.747 C 84.464 170.965, 82 169.594, 82 166.142 C 82 161.272, 84.828 147.946, 87.984 137.947 C 91.127 127.986, 91.581 122.177, 90.353 107.651 L 89.707 100 84.603 100.198 C 81.796 100.306, 69.284 100.644, 56.798 100.948 M 93.223 109.181 C 93.666 114.230, 94.135 118.459, 94.264 118.578 C 94.394 118.696, 96.134 114.565, 98.132 109.397 L 101.764 100 97.091 100 L 92.418 100 93.223 109.181 M 87.168 151.438 C 84.420 163.403, 84.365 169.084, 87.078 160.687 C 88.874 155.131, 90.791 142, 89.806 142 C 89.547 142, 88.360 146.247, 87.168 151.438" stroke="none" fill="black" fill-rule="evenodd"/>
</svg>