<svg xmlns="http://www.w3.org/2000/svg" width="200" height="200" viewBox="0 0 200 200" version="1.1">
	<path d="M 135.300 10.324 C 134.701 11.315, 126.575 12.088, 103 13.397 C 65.494 15.479, 62.343 15.746, 59.889 17.059 C 57.407 18.388, 57.431 23.006, 59.936 26.192 C 64.621 32.147, 84.946 39.644, 94.038 38.770 C 96.612 38.523, 101.734 36.909, 105.422 35.184 L 112.126 32.046 123.063 37.532 C 129.078 40.548, 134 43.268, 134 43.574 C 134 45.572, 131.457 48.009, 127.779 49.534 C 124.170 51.031, 118.721 51.431, 93 52.089 C 76.225 52.518, 59.125 53.367, 55 53.976 L 47.500 55.082 44.750 52.025 C 43.237 50.344, 42 48.316, 42 47.519 C 42 43.875, 45.546 43.500, 80 43.500 C 110.607 43.500, 113.791 43.342, 116.865 41.665 C 121.524 39.124, 119.562 37.696, 114.030 39.602 C 110.326 40.878, 104.354 41.079, 78.044 40.816 C 44.642 40.481, 42.396 40.741, 39.592 45.261 C 38.231 47.455, 41.199 53.380, 45.095 56.248 C 47.417 57.958, 48.310 58.043, 53.595 57.053 C 56.843 56.445, 65.838 55.667, 73.583 55.325 C 85.724 54.789, 87.667 54.910, 87.667 56.206 C 87.667 57.441, 86.477 57.624, 81.004 57.232 C 75.786 56.859, 73.371 57.185, 69.870 58.733 C 59.902 63.143, 52.997 72.852, 53.004 82.446 C 53.008 88.299, 55.197 92.531, 60.165 96.295 C 66.131 100.815, 72.753 101.990, 93.774 102.256 C 104.344 102.390, 112.994 102.838, 112.996 103.250 C 112.998 103.662, 111.537 104.032, 109.750 104.071 C 100.874 104.267, 60.656 106.051, 46.892 106.860 C 31.398 107.771, 27 108.788, 27 111.463 C 27 114.897, 32.558 117.286, 60.961 126.060 C 72.482 129.619, 74.175 130.399, 72.710 131.470 C 71.105 132.644, 71.151 133.457, 73.449 144.611 C 76.532 159.568, 78.483 166.029, 82.052 173.101 C 85.922 180.771, 89.234 184.451, 94.605 187.051 C 103.223 191.223, 117.269 188.103, 130.334 179.114 C 133.911 176.653, 135.008 176.305, 135.879 177.355 C 137.901 179.791, 146.475 183.821, 151 184.463 C 167.658 186.824, 178.948 159.722, 169.420 140.248 C 164.779 130.761, 155.419 127.291, 145.572 131.406 C 143.473 132.282, 141.640 133, 141.499 133 C 140.627 133, 130 117.781, 130 116.532 C 130 113.347, 138.160 115.768, 145.163 121.030 C 149.286 124.128, 151.331 124.999, 154.473 124.996 C 163.018 124.988, 167.754 118.926, 170.572 104.390 C 172.617 93.845, 174.282 38.407, 172.864 28.077 C 171.086 15.118, 167.991 10.329, 163.088 12.953 C 160.685 14.239, 155.043 25.470, 151.105 36.807 C 149.517 41.376, 148.008 45.326, 147.750 45.583 C 147.492 45.841, 146.982 43.129, 146.616 39.557 C 146.250 35.985, 144.846 28.709, 143.497 23.388 C 140.336 10.929, 137.584 6.542, 135.300 10.324 M 113 15.550 C 102.275 16.249, 90.800 16.893, 87.500 16.981 L 81.500 17.141 85.121 18.473 C 87.112 19.206, 91.837 20.292, 95.621 20.887 C 107.335 22.727, 112.909 25.132, 113.046 28.405 C 113.071 29.007, 117.568 31.676, 123.040 34.335 C 128.511 36.994, 133.996 39.986, 135.228 40.983 C 137.396 42.739, 137.415 42.906, 135.825 46.241 C 133.631 50.842, 129.002 52.884, 117.495 54.329 L 108.109 55.508 112.101 59.476 C 120.198 67.525, 124.820 81.955, 122.019 90.442 C 121.342 92.493, 119.419 95.731, 117.745 97.637 C 113.499 102.474, 114.925 103.618, 123.246 102.048 C 126.761 101.385, 130.189 100.501, 130.863 100.085 C 131.536 99.669, 135.022 89.467, 138.609 77.414 C 144.965 56.055, 145.117 55.283, 144.589 46.927 C 144.009 37.752, 141.929 26.459, 139.398 18.750 C 138.032 14.587, 137.510 14.017, 135.170 14.140 C 133.701 14.217, 123.725 14.851, 113 15.550 M 161.614 19.250 C 158.485 24.633, 153.958 36.070, 150.602 47.072 C 148.272 54.711, 147.991 57.306, 147.953 71.558 C 147.901 90.668, 146.812 94.035, 139.054 99.062 C 135.472 101.383, 133.982 103.115, 133.134 105.948 C 131.494 111.422, 131.695 113, 134.032 113 C 137.111 113, 142.720 115.611, 147.108 119.085 C 153.835 124.413, 160.886 122.974, 164.407 115.555 C 168.045 107.888, 169.064 98.999, 170.033 66.500 C 171.015 33.521, 170.862 29.191, 168.393 20.250 C 166.615 13.809, 164.922 13.559, 161.614 19.250 M 60 20.777 C 60 25.732, 74.186 33.269, 88.488 35.913 C 93.411 36.823, 94.585 36.659, 100.675 34.210 C 104.381 32.720, 107.357 31.069, 107.287 30.543 C 107.217 30.016, 103.186 28.055, 98.330 26.184 C 91.274 23.466, 86.787 22.507, 76 21.412 C 59.971 19.785, 60 19.786, 60 20.777 M 91.008 56.793 L 88.794 58.585 92.981 61.487 C 95.284 63.083, 98.928 66.846, 101.078 69.849 L 104.988 75.309 101.559 79.494 L 98.129 83.679 105.528 91.028 L 112.926 98.377 115.101 96.438 C 121.952 90.333, 121.449 77.609, 113.893 65.833 C 107.897 56.489, 96.797 52.105, 91.008 56.793 M 74.123 59.980 C 69.371 61.133, 63.079 65.811, 59.574 70.799 C 57.221 74.146, 56.508 76.366, 56.192 81.321 C 55.831 87.002, 56.053 87.909, 58.522 90.844 C 61.338 94.191, 66.461 97.226, 71.224 98.371 C 77.216 99.810, 107.671 100.663, 108.908 99.425 C 109.173 99.160, 106.282 95.811, 102.483 91.983 C 97.933 87.398, 95.240 85.360, 94.588 86.012 C 93.033 87.567, 88.383 87.166, 86.872 85.346 C 85.251 83.393, 85.255 72.914, 86.878 68.750 C 89.050 63.179, 91.956 66.220, 91.986 74.095 C 91.995 76.413, 92.714 78.336, 94.010 79.509 C 95.962 81.276, 96.093 81.261, 98.510 78.990 C 99.880 77.704, 101 76.120, 101 75.469 C 101 74.819, 99.414 72.210, 97.475 69.672 C 91.506 61.853, 82.247 58.011, 74.123 59.980 M 140.250 81.202 C 137.912 89.248, 136 96.349, 136 96.983 C 136 98.855, 141.890 94.113, 143.549 90.906 C 144.692 88.695, 144.997 85.326, 144.784 77.271 L 144.500 66.573 140.250 81.202 M 88.136 77.559 C 87.973 82.433, 90.190 86.166, 92.119 84.263 C 93.123 83.273, 92.954 82.575, 91.274 80.763 C 90.120 79.518, 88.972 77.375, 88.724 76 C 88.419 74.313, 88.228 74.820, 88.136 77.559 M 125 104.277 C 122.525 104.847, 120.344 105.437, 120.152 105.588 C 119.436 106.153, 125.553 113, 126.775 113 C 128.060 113, 129.149 110.805, 130.373 105.750 C 130.739 104.237, 130.692 103.054, 130.269 103.120 C 129.846 103.186, 127.475 103.707, 125 104.277 M 110.500 106.612 C 109.400 106.798, 97.025 107.446, 83 108.050 C 61.274 108.987, 31.365 110.604, 30.128 110.908 C 29.923 110.959, 30.295 111.650, 30.954 112.445 C 31.613 113.239, 41.456 116.897, 52.826 120.573 C 64.197 124.248, 74.737 127.885, 76.250 128.654 C 79.691 130.402, 79.795 132.762, 76.469 133.597 C 74.746 134.030, 74.087 134.753, 74.404 135.866 C 74.659 136.765, 75.621 141.325, 76.541 146 C 80.217 164.686, 85.844 177.493, 92.660 182.687 C 96.025 185.252, 97.064 185.494, 104.426 185.436 C 113.483 185.364, 118.109 183.731, 128.662 176.880 L 134.825 172.879 139.452 176.411 C 151.068 185.278, 161.542 183.143, 167.106 170.773 C 169.063 166.423, 169.480 163.833, 169.489 155.973 C 169.498 147.754, 169.156 145.778, 166.994 141.577 C 163.616 135.013, 160.066 132.500, 154.177 132.501 C 148.853 132.503, 142.651 134.740, 143.391 136.393 C 151.514 154.537, 151.172 161.535, 141.929 166.248 C 137.640 168.436, 126.962 168.551, 118.281 166.504 C 114.860 165.698, 110.740 165.302, 109.124 165.625 C 105.999 166.250, 104.060 164.342, 102.488 159.097 L 101.768 156.693 105.409 158.944 C 107.412 160.182, 109.654 160.963, 110.391 160.680 C 111.556 160.233, 117.359 147.746, 119.421 141.250 C 120.100 139.110, 119.876 139, 114.817 138.996 C 108.571 138.992, 103.367 136.309, 102.440 132.616 C 101.018 126.950, 109.319 117.620, 118.250 114.848 C 120.313 114.207, 122 113.393, 122 113.038 C 122 112.683, 120.516 110.954, 118.702 109.196 C 115.513 106.105, 114.804 105.881, 110.500 106.612 M 117.040 118.240 C 114.588 119.439, 110.875 122.125, 108.790 124.210 C 102.083 130.917, 104.361 135.320, 115.198 136.593 L 120.857 137.259 123.497 128.604 C 124.949 123.843, 125.989 119.173, 125.808 118.224 C 125.334 115.736, 122.153 115.741, 117.040 118.240 M 126.560 127.730 C 125.561 130.903, 124.527 134.063, 124.264 134.750 C 123.679 136.279, 126.666 136.248, 133.312 134.654 L 138.124 133.500 134.017 128 C 131.759 124.975, 129.566 122.378, 129.144 122.230 C 128.723 122.081, 127.560 124.556, 126.560 127.730 M 130.646 137.859 L 122.793 139.500 120.055 147 C 118.549 151.125, 116.571 155.940, 115.659 157.700 C 114.746 159.461, 114 161.336, 114 161.867 C 114 163.322, 123.186 165, 131.148 165 C 146.948 165, 150.449 158.204, 142.868 142.250 C 141.234 138.813, 139.583 136.049, 139.199 136.109 C 138.815 136.169, 134.966 136.956, 130.646 137.859" stroke="none" fill="black" fill-rule="evenodd"/>
</svg>