<svg xmlns="http://www.w3.org/2000/svg" width="200" height="200" viewBox="0 0 200 200" version="1.1">
	<path d="M 97.500 9.568 C 88.700 10.888, 78.613 12.213, 75.085 12.511 C 71.556 12.810, 66.831 13.512, 64.585 14.071 C 61.616 14.809, 57.961 14.708, 51.212 13.700 C 37.800 11.697, 37.619 13.043, 50.257 20.793 C 65.366 30.059, 80.206 36, 88.242 36 C 92.967 36, 97.858 33.415, 98.580 30.535 C 99.348 27.479, 99.234 27.459, 113 33.137 C 122.871 37.208, 131.580 42.463, 132.521 44.914 C 133.664 47.895, 130.856 48.501, 114.430 48.818 C 99.016 49.115, 97.731 48.997, 94.477 46.986 C 88.993 43.597, 89.813 42.433, 98.567 41.181 C 101.271 40.794, 103.536 39.892, 103.801 39.096 C 104.184 37.948, 103.202 37.818, 98.404 38.382 C 92.265 39.104, 88 41.140, 88 43.349 C 88 44.065, 89.125 45.708, 90.500 47 C 91.875 48.292, 93 49.720, 93 50.174 C 93 51.572, 67.974 51.066, 60.684 49.521 C 53.692 48.040, 45.946 44.421, 45.263 42.318 C 44.376 39.590, 49.452 38.532, 63.500 38.516 C 71.200 38.507, 80.088 38.841, 83.250 39.259 C 87.922 39.875, 89 39.749, 89 38.588 C 89 36.675, 79.194 35.543, 63 35.588 C 46.227 35.634, 39.925 38.255, 42.959 43.923 C 44.534 46.866, 52.717 50.747, 60.431 52.210 C 64.044 52.895, 67 53.727, 67 54.059 C 67 54.391, 65.860 55.272, 64.466 56.018 C 58.543 59.188, 55.938 67.837, 58.378 76.229 C 61.183 85.876, 69.052 94.110, 79.292 98.114 C 83.416 99.726, 83.399 99.730, 66.961 100.290 C 43.905 101.076, 30 104.384, 30 109.082 C 30 112.065, 36.170 114.418, 55.991 118.998 C 76.931 123.836, 78.193 124.416, 70.932 125.871 C 64.063 127.247, 51.307 128.723, 38.723 129.598 C 29.834 130.216, 26.797 131.130, 28.377 132.711 C 28.695 133.028, 36.939 135.470, 46.697 138.137 C 56.455 140.804, 66.928 143.733, 69.969 144.647 L 75.500 146.308 69 147.662 C 59.089 149.728, 53.913 152.741, 51.246 157.997 C 49.585 161.271, 49.156 163.369, 49.617 165.970 C 50.336 170.033, 55.439 180.184, 57.860 182.368 C 58.772 183.192, 64.217 184.548, 70.128 185.424 C 89.370 188.277, 100.249 187.141, 103.005 181.992 C 104.542 179.118, 103.733 176.291, 99.630 170.192 L 96.239 165.155 100.659 156.350 C 105.692 146.322, 108.958 142.174, 110.148 144.300 C 110.563 145.042, 111.633 150.340, 112.525 156.074 C 114.759 170.426, 116.710 177.745, 119.653 182.813 C 124.859 191.776, 133.043 193.373, 144.422 187.647 C 148.554 185.567, 152.003 184.469, 153.503 184.756 C 154.833 185.010, 158.174 184.678, 160.927 184.017 C 173.775 180.935, 177.504 166.385, 170.605 146.255 C 165.643 131.774, 157.298 120, 151.997 120 C 150.899 120, 150.007 119.662, 150.015 119.250 C 150.051 117.501, 151.714 116.486, 154.880 116.280 C 161.950 115.820, 166.705 109.979, 170.188 97.477 C 172.247 90.082, 172.406 87.458, 172.360 61.500 C 172.308 31.409, 170.954 17.807, 167.953 17.230 C 166.354 16.922, 161.566 39.562, 152.353 91 C 150.333 102.275, 148.567 111.648, 148.428 111.829 C 148.290 112.009, 143.663 111.222, 138.146 110.079 C 132.629 108.935, 126.341 108, 124.173 108 C 121.086 108, 119.880 107.465, 118.615 105.535 C 116.187 101.829, 116.549 101.317, 122.123 100.578 C 133.387 99.084, 142.431 93.877, 146.242 86.692 C 149.022 81.453, 149.261 69.599, 146.706 63.700 C 143.541 56.392, 142 45.517, 142 30.492 C 142 13.487, 141.243 11.114, 135.018 8.624 C 129.325 6.346, 116.899 6.659, 97.500 9.568 M 102 11.605 C 96.775 12.351, 91.413 13.221, 90.085 13.541 L 87.670 14.121 90.665 15.942 C 92.312 16.944, 94.974 19.350, 96.580 21.289 C 98.779 23.944, 101.845 25.733, 109 28.540 C 129.369 36.531, 137.793 42.782, 135.063 47.882 C 133.484 50.833, 131.409 51.297, 117.013 51.918 L 103.526 52.500 108.627 55.767 C 126.460 67.188, 128.959 78.408, 116.360 90.480 C 112.231 94.436, 111.966 94.976, 113.178 96.960 C 114.330 98.846, 115.074 99.041, 118.958 98.470 C 121.410 98.110, 126.036 97, 129.239 96.003 C 144.527 91.245, 149.072 80.853, 143.542 63.302 C 139.863 51.624, 138.660 41.978, 139.382 29.920 C 140.452 12.026, 138.583 9.921, 121.800 10.125 C 116.135 10.194, 107.225 10.860, 102 11.605 M 76 15.761 C 71.313 16.527, 71.925 17.665, 77.717 18.950 C 80.897 19.656, 86.076 21.030, 89.225 22.004 C 94.722 23.704, 94.912 23.703, 93.992 21.985 C 92.106 18.461, 81.636 14.839, 76 15.761 M 53.412 19.513 C 72.588 31.259, 89.946 36.054, 95 31 C 97.967 28.033, 97.514 27.230, 91.945 25.576 C 82.218 22.688, 65.615 18.856, 62.571 18.796 C 60.882 18.764, 59.050 18.403, 58.500 17.994 C 57.950 17.586, 55.250 16.946, 52.500 16.572 L 47.500 15.892 53.412 19.513 M 161.679 56.329 C 154.209 95.047, 151.140 112.807, 151.804 113.471 C 154.309 115.975, 161.618 111.432, 164.352 105.671 C 169.527 94.766, 171.740 71.966, 170.054 46.939 C 169.423 37.580, 168.590 29.075, 168.203 28.040 C 167.773 26.887, 165.243 37.857, 161.679 56.329 M 71.759 55.358 C 66.017 57.507, 63.451 59.529, 61.649 63.326 C 56.868 73.402, 64.319 87.924, 77.460 94.141 C 82.330 96.445, 84.869 96.999, 90.572 96.999 C 96.965 97, 107 94.695, 107 93.226 C 107 92.903, 105.537 90.480, 103.750 87.840 C 101.515 84.541, 100.031 83.235, 99 83.662 C 98.175 84.003, 96.312 84.488, 94.861 84.739 C 91.060 85.395, 84.969 79.551, 81.577 71.993 C 78.350 64.803, 78.434 60.651, 81.815 60.172 C 84.232 59.829, 90.190 65.161, 96.679 73.475 L 99.782 77.449 100.884 73.475 C 101.490 71.289, 102.270 66.755, 102.616 63.400 L 103.246 57.299 98.373 56.034 C 90.838 54.077, 76.178 53.704, 71.759 55.358 M 105.519 63.250 C 105.151 66.138, 104.145 71.103, 103.283 74.286 L 101.717 80.071 105.500 85.564 C 107.580 88.585, 109.660 91.290, 110.121 91.575 C 111.722 92.564, 119.836 83.281, 121.122 78.986 C 122.276 75.135, 122.181 74.405, 119.988 70.271 C 117.992 66.508, 108.815 58, 106.753 58 C 106.442 58, 105.887 60.362, 105.519 63.250 M 82.022 64.750 C 82.094 70.521, 90.489 82, 94.637 82 C 99.674 82, 98.020 78.371, 88.143 67.750 C 83.416 62.666, 81.987 61.966, 82.022 64.750 M 103 98.049 C 98.635 99.836, 98.594 99.893, 101.625 99.946 C 107.064 100.040, 110.903 98.912, 110.319 97.390 C 109.653 95.653, 108.628 95.745, 103 98.049 M 75 103.082 C 51.138 103.738, 44.306 104.445, 36.250 107.088 C 29.545 109.289, 31.948 110.399, 55.500 115.986 C 65.400 118.334, 74.765 120.899, 76.312 121.685 C 80.110 123.617, 79.413 126.192, 74.673 127.745 C 70.301 129.177, 48.702 132, 42.113 132 C 39.668 132, 37.896 132.229, 38.176 132.510 C 38.457 132.790, 46.967 135.308, 57.089 138.106 C 77.548 143.761, 79.256 144.439, 78.810 146.731 C 78.594 147.841, 75.718 149.009, 69.360 150.568 C 59.058 153.094, 55.578 154.982, 53.376 159.239 C 51.337 163.184, 52.310 168.435, 56.324 175.146 C 59.264 180.061, 59.909 180.554, 65 181.772 C 68.025 182.496, 76.350 183.350, 83.500 183.669 C 95.413 184.201, 96.701 184.086, 98.901 182.294 C 102.071 179.710, 101.360 177.008, 95.438 169.129 C 91.142 163.414, 90.434 160.585, 93.462 161.223 C 94.217 161.383, 96.555 158.108, 98.975 153.500 C 105.176 141.692, 108.783 138.624, 111.963 142.455 C 112.627 143.256, 114.259 150.116, 115.588 157.700 C 116.918 165.284, 118.502 173.067, 119.108 174.995 C 120.943 180.835, 124.893 186.058, 128.670 187.635 C 133 189.444, 136.638 188.792, 143.928 184.899 C 147.835 182.812, 150.776 181.994, 154.428 181.978 C 161.454 181.948, 167.234 179.134, 169.326 174.726 C 171.465 170.217, 171.514 159.807, 169.434 151.644 C 166.022 138.256, 155.707 121.747, 151.711 123.281 C 149.883 123.982, 148.907 130.041, 149.696 135.795 C 150.180 139.329, 149.956 140.559, 148.656 141.509 C 147.745 142.175, 146.729 144.701, 146.397 147.121 C 145.863 151.013, 146.114 151.842, 148.568 154.295 L 151.342 157.069 149.387 161.784 C 147.995 165.144, 146.867 166.500, 145.466 166.500 C 143.717 166.500, 143.445 165.618, 143 158.500 C 142.300 147.299, 139.862 142.913, 133.371 141.177 C 118.491 137.197, 103.708 121.948, 107.007 113.983 C 108.085 111.380, 113.148 108, 115.969 108 C 116.643 108, 116.234 106.732, 115 105 C 112.988 102.174, 112.505 102.011, 106.682 102.190 C 103.282 102.295, 89.025 102.696, 75 103.082 M 112.228 112.208 C 103.234 116.632, 117.159 133.602, 133.793 138.488 C 135.719 139.054, 134.740 136.949, 127.673 125.331 C 118.778 110.706, 117.496 109.617, 112.228 112.208 M 130.755 125.104 C 138.190 137.289, 139.913 139.500, 141.976 139.500 C 144.314 139.500, 144.482 139.040, 146.167 128 C 147.133 121.675, 147.940 116.217, 147.961 115.872 C 148.021 114.899, 135.397 111.962, 128.318 111.301 L 121.971 110.708 130.755 125.104 M 142 143.441 C 142 144.234, 142.450 145.160, 143 145.500 C 143.550 145.840, 144 145.191, 144 144.059 C 144 142.927, 143.550 142, 143 142 C 142.450 142, 142 142.648, 142 143.441 M 145.622 158.825 C 145.179 160.104, 145.083 161.417, 145.409 161.742 C 146.445 162.779, 147.174 161.250, 146.794 158.836 L 146.426 156.500 145.622 158.825" stroke="none" fill="black" fill-rule="evenodd"/>
</svg>