<svg xmlns="http://www.w3.org/2000/svg" width="200" height="200" viewBox="0 0 200 200" version="1.1">
	<path d="M 57.760 9.293 C 61.075 15.141, 71.309 24.551, 77.910 27.823 C 81.435 29.570, 85.148 31, 86.160 31 C 87.172 31, 88 31.637, 88 32.415 C 88 33.443, 85.998 34.017, 80.664 34.517 C 72.725 35.261, 55.760 34.691, 52.461 33.570 C 50.925 33.048, 49.258 33.901, 45.711 37.023 C 40.519 41.594, 39.938 43.731, 43.110 46.595 C 45.062 48.357, 47.014 48.499, 69.068 48.490 C 88.510 48.482, 92.025 48.681, 88.091 49.567 C 81.562 51.037, 75.359 54.840, 69.808 60.774 C 63.068 67.980, 60.618 73.246, 60.554 80.673 C 60.486 88.454, 62.467 91.431, 70.357 95.405 C 75.279 97.884, 77.763 98.410, 87.312 98.996 C 94.184 99.417, 84.420 99.646, 62 99.591 C 24.729 99.498, 17.955 100.070, 16.670 103.417 C 15.460 106.571, 21.358 109.565, 39.536 115.022 C 47.216 117.328, 55.696 120.147, 58.381 121.286 C 62.987 123.242, 63.128 123.410, 60.881 124.270 C 59.571 124.770, 52.919 125.433, 46.098 125.742 C 31.883 126.386, 31.863 125.943, 46.467 134.033 C 51.461 136.800, 56.876 140.124, 58.501 141.419 L 61.454 143.774 54.842 146.772 C 46.389 150.605, 40.840 156.140, 38.095 163.475 L 35.961 169.179 39.506 174.008 C 52.895 192.247, 72.218 195.736, 86.814 182.549 C 93.656 176.368, 96.396 168.383, 92.573 165.765 C 90.392 164.272, 86.050 165.081, 80.457 168.022 C 77.297 169.685, 74.590 170.922, 74.441 170.772 C 74.292 170.623, 77.619 166.597, 81.835 161.828 C 89.161 153.538, 96.335 147, 98.102 147 C 99.739 147, 100.924 150.845, 101.984 159.596 C 103.502 172.126, 105.382 177.918, 109.487 182.714 C 116.097 190.437, 130.433 193.389, 139.651 188.927 C 158.981 179.570, 166.827 144.616, 152.971 129.585 C 150.811 127.241, 147.210 124.496, 144.969 123.486 L 140.895 121.649 148.318 118.942 C 158.111 115.372, 170.733 108.750, 174.766 105.067 C 182.074 98.392, 177.389 94, 162.960 94 L 154.856 94 146.287 88.021 C 137.888 82.161, 137.711 81.952, 137.326 77.469 C 136.471 67.527, 129.889 55.875, 121.739 49.877 L 117.500 46.757 124.750 47.439 C 130.851 48.013, 132 47.882, 132 46.610 C 132 45.477, 130.591 45.025, 126.353 44.800 L 120.707 44.500 128.520 40.500 C 132.817 38.300, 136.811 35.725, 137.394 34.778 C 139.984 30.572, 134.111 29.682, 114 31.232 L 104.500 31.964 109.361 30.037 C 112.035 28.976, 114.995 27.409, 115.940 26.554 C 118.231 24.481, 119.586 24.572, 130.008 27.502 C 150.766 33.339, 161.099 38.301, 158.306 41.094 C 157.730 41.670, 155.093 42.694, 152.447 43.369 C 146.478 44.891, 144.831 47.614, 150.428 46.705 C 155.707 45.849, 161.442 42.811, 161.841 40.661 C 162.692 36.061, 154.167 31.582, 133 25.508 L 121.500 22.208 121.191 18.630 C 120.792 14.007, 117.590 11.474, 110.189 9.927 C 103.628 8.556, 84.064 9.320, 81.276 11.056 C 79.905 11.910, 76.822 11.485, 67.760 9.193 L 56.019 6.224 57.760 9.293 M 63 11.900 C 63 13.691, 74.620 23.374, 79.500 25.649 C 86.945 29.120, 87.262 28.890, 84.720 21.854 L 82.500 15.709 73 13.395 C 67.775 12.123, 63.388 11.063, 63.250 11.041 C 63.112 11.018, 63 11.405, 63 11.900 M 86.784 12.771 C 85.676 13.243, 90.762 14.865, 101.138 17.347 C 117.230 21.197, 120.075 21.243, 118.687 17.625 C 117.202 13.758, 112.966 12.507, 100.545 12.270 C 93.920 12.143, 87.728 12.368, 86.784 12.771 M 87.631 22.250 C 89.378 28.274, 91.128 30.006, 95.441 29.984 C 100.201 29.960, 109.629 27.475, 112.712 25.432 L 115.500 23.584 102 20.330 C 94.575 18.540, 87.962 17.059, 87.304 17.038 C 86.419 17.010, 86.504 18.366, 87.631 22.250 M 93.768 32.725 C 95.565 32.947, 98.265 32.943, 99.768 32.715 C 101.271 32.486, 99.800 32.304, 96.500 32.310 C 93.200 32.315, 91.971 32.502, 93.768 32.725 M 120 33.553 C 119.175 33.730, 112.582 34.404, 105.350 35.052 L 92.200 36.230 93.733 40.729 L 95.265 45.227 104.383 44.791 C 112.177 44.418, 114.734 43.812, 122.006 40.616 C 126.684 38.559, 131.634 36.015, 133.006 34.961 L 135.500 33.044 128.500 33.138 C 124.650 33.190, 120.825 33.376, 120 33.553 M 47.544 39.096 C 40.342 45.419, 43.188 46.379, 68.500 46.165 C 88.802 45.993, 92.423 45.545, 91.566 43.312 C 91.250 42.488, 90.727 40.762, 90.405 39.477 L 89.818 37.139 73.159 37.320 C 63.997 37.419, 55.282 37.159, 53.794 36.742 C 51.583 36.123, 50.439 36.554, 47.544 39.096 M 97.346 49.134 C 98.670 49.903, 99.505 49.895, 100.296 49.104 C 101.101 48.299, 100.601 48.008, 98.450 48.030 C 95.864 48.057, 95.728 48.193, 97.346 49.134 M 106.693 49.832 L 102.885 51.516 105.913 54.416 C 107.578 56.012, 109.922 59.686, 111.123 62.582 C 112.966 67.031, 114.096 68.274, 118.403 70.589 C 121.206 72.097, 125.912 74.857, 128.859 76.723 C 131.807 78.588, 134.468 79.865, 134.774 79.560 C 135.825 78.508, 131.863 66.492, 128.975 61.976 C 125.611 56.717, 121.914 53.052, 117 50.106 C 112.871 47.630, 111.740 47.600, 106.693 49.832 M 83.234 53.980 C 80.888 55.045, 76.516 58.236, 73.517 61.072 C 66.710 67.510, 63 74.644, 63 81.296 C 63 85.516, 63.463 86.663, 66.320 89.520 C 70.859 94.059, 77.573 95.702, 94.672 96.456 L 108.845 97.080 106.672 90.386 C 104.840 84.740, 104.010 83.487, 101.371 82.383 C 94.998 79.717, 88 71.463, 88 66.611 C 88 64.195, 90.942 62, 94.180 62 C 97.438 62, 97.532 61.160, 95.017 54.544 C 93.805 51.356, 89.472 51.149, 83.234 53.980 M 98.884 57.185 C 100.416 61.693, 101.193 62.602, 104.823 64.144 C 109.314 66.051, 109.820 65.487, 107.551 61.099 C 106.033 58.163, 99.581 52, 98.026 52 C 97.529 52, 97.915 54.333, 98.884 57.185 M 92.115 64.883 C 89.102 66.845, 94.153 75.476, 100.119 78.562 C 101.704 79.381, 103 79.862, 103 79.631 C 103 79.152, 98.867 65.590, 98.643 65.331 C 97.918 64.497, 93.203 64.174, 92.115 64.883 M 102.078 67.237 C 102.240 69.879, 105.544 77.989, 106.500 78.090 C 107.513 78.197, 110.572 70.239, 109.811 69.477 C 109.583 69.250, 107.733 68.369, 105.699 67.519 C 102.881 66.341, 102.018 66.274, 102.078 67.237 M 112 73.360 C 112 74.659, 110.923 77.308, 109.606 79.248 L 107.213 82.775 109.308 89.887 C 111.377 96.916, 111.443 97, 114.835 97 C 120.646 97, 126.278 94.722, 130.226 90.774 C 135.502 85.498, 135.162 83.913, 127.750 79.235 C 121.532 75.311, 113.570 71, 112.540 71 C 112.243 71, 112 72.062, 112 73.360 M 135.414 88.541 C 133.661 92.234, 129.272 96.165, 124.970 97.895 C 123.009 98.683, 123.530 98.786, 127.500 98.393 C 138.346 97.318, 148.687 95.811, 149.760 95.149 C 150.434 94.732, 148.117 92.545, 143.998 89.710 L 137.109 84.968 135.414 88.541 M 156.365 96.926 C 154.640 97.352, 151.940 98.614, 150.365 99.730 C 145.279 103.333, 129.826 112.202, 123.954 114.888 L 118.244 117.500 125.129 139 C 132.515 162.059, 133.952 168, 132.145 168 C 130.733 168, 128.178 162.849, 118.505 140.500 C 114.220 130.600, 110.440 122.184, 110.105 121.797 C 109.769 121.411, 106.454 121.616, 102.738 122.252 C 96.867 123.258, 95.772 123.200, 94.388 121.816 C 91.853 119.282, 93.540 116.444, 98.968 114.109 C 105.729 111.201, 108.798 111.337, 110.039 114.602 C 110.715 116.380, 111.524 117.013, 112.596 116.602 C 113.458 116.271, 114.322 116, 114.516 116 C 114.710 116, 113.843 112.963, 112.589 109.250 L 110.309 102.500 99.404 102.330 C 46.614 101.505, 24.928 101.972, 21.079 104.016 C 18.857 105.196, 23.595 107.212, 41.907 112.880 C 60.717 118.702, 65.500 120.874, 65.500 123.598 C 65.500 125.925, 60.519 127.577, 50.649 128.524 L 43.798 129.181 52.149 134.136 C 66.855 142.862, 67.046 143.886, 55.078 149.820 C 47.056 153.797, 42.728 158.198, 40.516 164.627 C 38.887 169.364, 40.102 171.919, 47.108 178.492 C 59.429 190.050, 73.052 190.868, 84.557 180.741 C 88.761 177.041, 92 171.945, 92 169.032 C 92 167.140, 86.358 167.968, 81.399 170.589 C 78.705 172.012, 74.095 174.984, 71.154 177.193 C 67.516 179.926, 65.483 180.883, 64.788 180.188 C 63.587 178.987, 79.236 159.787, 88.779 150.750 C 95.136 144.731, 99.379 143.342, 101.950 146.439 C 102.607 147.231, 103.960 153.419, 104.957 160.189 C 107.008 174.119, 107.703 176.305, 111.521 180.842 C 118.577 189.229, 132.796 190.829, 142.265 184.302 C 147.427 180.744, 153.378 171.479, 155.474 163.735 C 158.007 154.377, 157.341 142.076, 153.945 135.480 C 150.744 129.263, 144.200 124.918, 136.994 124.225 C 134.184 123.955, 132 123.244, 132 122.599 C 132 121.968, 135.938 120.182, 140.750 118.630 C 162.160 111.726, 179.714 101.006, 174.263 98.166 C 171.702 96.832, 160.024 96.023, 156.365 96.926 M 137 100.092 C 133.425 100.552, 126.634 101.282, 121.908 101.714 L 113.317 102.500 115.422 108.787 L 117.528 115.073 127.014 110.197 C 138.306 104.392, 147.091 98.995, 145 99.147 C 144.175 99.207, 140.575 99.632, 137 100.092 M 99.750 116.658 C 94.284 118.926, 94.982 120.399, 101.173 119.666 C 106.638 119.019, 108.663 117.882, 107.554 116.087 C 106.646 114.619, 104.243 114.795, 99.750 116.658 M 113 120.071 C 113 121.269, 123.299 145.034, 123.661 144.672 C 123.788 144.545, 122.085 138.717, 119.876 131.721 C 117.195 123.228, 115.385 119, 114.430 119 C 113.644 119, 113 119.482, 113 120.071" stroke="none" fill="black" fill-rule="evenodd"/>
</svg>