<svg xmlns="http://www.w3.org/2000/svg" width="200" height="200" viewBox="0 0 200 200" version="1.1">
	<path d="M 102.500 8.705 C 100.850 8.927, 91.850 10.610, 82.500 12.444 C 73.150 14.278, 64.037 15.799, 62.248 15.823 C 60.460 15.847, 58.139 16.139, 57.091 16.471 C 54.945 17.152, 53.350 20.283, 54.887 20.796 C 55.437 20.979, 55.655 21.735, 55.371 22.474 C 54.707 24.205, 57.141 28.876, 60.191 31.723 C 61.856 33.278, 64.667 34.238, 69.536 34.914 C 80.941 36.499, 95.296 37.163, 98.423 36.250 C 100.893 35.530, 101.814 34.637, 103.694 31.140 C 104.045 30.486, 118.060 36.322, 117.777 37.004 C 117.625 37.371, 114.262 40.445, 110.304 43.836 C 105.511 47.942, 102.246 50, 100.525 50 L 97.940 50 100.220 46.022 C 102.020 42.882, 102.265 41.672, 101.385 40.272 C 100.404 38.713, 98.603 38.503, 86.385 38.521 C 68.291 38.549, 59 39.630, 59 41.707 C 59 42.933, 59.782 43.135, 62.750 42.676 C 71.867 41.267, 92.496 39.870, 95.597 40.452 C 99.601 41.203, 99.739 41.901, 96.778 46.417 L 94.557 49.807 78.145 50.531 C 69.119 50.929, 57.477 50.942, 52.274 50.560 C 38.282 49.533, 37.216 48.755, 44.500 44.891 C 46.975 43.578, 49 41.940, 49 41.252 C 49 39.603, 48.590 39.658, 44.210 41.894 C 36.204 45.980, 35.099 50.334, 41.577 52.272 C 43.184 52.753, 55.608 53.117, 69.185 53.080 C 93.292 53.016, 93.885 53.062, 94.526 55.082 C 94.887 56.220, 95.022 57.229, 94.826 57.325 C 94.630 57.421, 92.588 59.255, 90.288 61.401 L 86.107 65.301 82.376 62.026 C 72.881 53.688, 63.641 54.105, 54.170 63.297 C 48.164 69.126, 46.698 72.236, 47.547 77.341 C 49.791 90.817, 60.173 97.957, 78.746 98.798 C 98.797 99.706, 114.968 93.522, 120.585 82.800 C 125.345 73.714, 117.425 60.577, 105.675 58.067 C 99.997 56.854, 99.895 56.774, 101.606 54.883 C 103.168 53.157, 104.595 52.965, 114.539 53.146 C 124.091 53.320, 126.210 53.062, 129.108 51.376 C 134.320 48.343, 134.152 45.184, 128.513 40.220 L 123.918 36.176 130.209 31.658 L 136.500 27.139 137.096 41.320 C 137.514 51.259, 138.348 57.893, 139.884 63.500 C 143.902 78.162, 140.161 87.671, 128 93.713 C 117.723 98.818, 109.262 99.965, 67 101.981 C 45.825 102.992, 27.262 104.298, 25.750 104.884 C 22.357 106.200, 22.113 109.385, 25.250 111.397 C 27.755 113.003, 39.497 117.072, 57.282 122.496 C 68.779 126.002, 71.378 128, 64.441 128 C 61.466 128, 61 128.328, 61 130.423 C 61 133.305, 65.128 138.497, 69.017 140.509 C 75 143.603, 81.723 144.262, 108.500 144.381 C 131.564 144.483, 135.500 144.715, 135.500 145.974 C 135.500 146.784, 132.065 150.075, 127.867 153.286 L 120.234 159.126 115.155 156.001 C 106.290 150.546, 99.522 148.576, 89.500 148.536 C 81.454 148.504, 80.006 148.790, 75.837 151.241 C 64.390 157.970, 63.192 170.520, 73.139 179.506 C 82.891 188.317, 91.763 189.716, 128.168 188.181 C 157.252 186.955, 168.031 185.414, 171.451 181.993 C 174.246 179.199, 172.850 177.245, 165.296 173.375 L 159.196 170.251 161.149 167.375 C 174.235 148.110, 171.291 134.607, 152.733 128.773 C 146.072 126.680, 143.667 126.501, 122.318 126.516 L 99.136 126.531 101.318 122.632 C 106.136 114.023, 114.337 111.016, 126.260 113.487 C 130.242 114.313, 136.649 115.890, 140.497 116.994 C 144.345 118.097, 149.903 119, 152.847 119 C 157.573 119, 158.588 118.612, 161.510 115.690 C 166.425 110.775, 167.319 106.027, 166.534 89.015 C 165.977 76.938, 166.221 72.064, 167.987 60 C 171.715 34.534, 170.708 21.711, 164.647 17.465 C 161.107 14.986, 153.271 15.637, 146.160 19.001 C 142.673 20.650, 139.636 22, 139.410 22 C 139.185 22, 139 21.078, 139 19.950 C 139 16.052, 135.950 11.880, 131.684 9.943 C 128.312 8.413, 125.364 8.069, 116.500 8.172 C 110.450 8.242, 104.150 8.482, 102.500 8.705 M 107 11.056 C 99.219 12.006, 78.589 15.689, 76.050 16.581 C 75.252 16.862, 78.177 18.381, 82.550 19.957 C 97.337 25.288, 111.477 30.670, 116.245 32.782 L 120.990 34.883 129.016 29.192 C 136.612 23.804, 137.007 23.340, 136.402 20.500 C 135.438 15.970, 134.229 14.170, 131.047 12.524 C 127.268 10.570, 116.411 9.907, 107 11.056 M 152.500 19.402 C 150.300 20.100, 146.588 21.654, 144.250 22.856 L 140 25.041 140.021 38.270 C 140.034 46.661, 140.607 53.877, 141.587 58 C 142.437 61.575, 143.377 67.769, 143.676 71.765 C 144.159 78.217, 143.925 79.633, 141.585 84.415 C 135.051 97.771, 121.345 102.319, 82.500 104.022 C 44.182 105.701, 28.290 106.703, 26.963 107.523 C 24.879 108.811, 31.208 111.427, 51.977 117.864 C 62.590 121.154, 71.949 124.520, 72.774 125.345 C 75.399 127.970, 73.549 130, 68.531 130 C 63.140 130, 62.553 131.754, 66.669 135.569 C 72.249 140.741, 77.890 141.526, 107.405 141.237 C 130.228 141.014, 134.667 141.207, 136.655 142.510 C 137.945 143.355, 139 144.711, 139 145.523 C 139 147.490, 132.668 153.721, 126.573 157.750 L 121.657 161 128.263 161 C 135.276 161, 145.642 162.873, 152.891 165.450 C 156.134 166.603, 157.630 166.722, 158.612 165.907 C 160.718 164.159, 165.751 153.433, 166.474 149.151 C 167.818 141.199, 162.579 134.795, 152 131.457 C 145.349 129.358, 114.688 128.319, 103 129.796 C 98.875 130.317, 95.310 130.574, 95.078 130.367 C 94.847 130.160, 96.197 126.974, 98.078 123.287 C 105.029 109.671, 114.494 107.087, 136.131 112.901 C 142.475 114.605, 149.912 116, 152.659 116 C 162.810 116, 165.490 108.340, 163.506 85 C 162.945 78.400, 163.287 73.146, 165.033 61.500 C 167.921 42.245, 168.170 27.769, 165.693 23.207 C 164.039 20.162, 160.525 17.907, 157.685 18.067 C 157.033 18.104, 154.700 18.705, 152.500 19.402 M 58.513 22.979 C 57.730 24.247, 59.208 26.946, 62.158 29.634 C 64.038 31.346, 66.670 31.988, 75.500 32.886 C 93.644 34.732, 101.449 34.154, 99.565 31.105 C 96.470 26.098, 60.933 19.064, 58.513 22.979 M 113.889 44.250 L 107.603 49.500 114.415 50.258 C 121.225 51.016, 128.300 49.941, 129.522 47.964 C 130.647 46.144, 128.918 43.113, 125.580 41.050 C 123.756 39.922, 121.794 39, 121.219 39 C 120.645 39, 117.346 41.362, 113.889 44.250 M 97 54.059 C 97 54.641, 97.450 54.840, 98 54.500 C 98.550 54.160, 99 53.684, 99 53.441 C 99 53.198, 98.550 53, 98 53 C 97.450 53, 97 53.477, 97 54.059 M 61.500 60.791 C 59.850 61.837, 56.587 64.777, 54.250 67.324 C 49.386 72.624, 48.869 75.953, 51.890 82.500 C 54.203 87.512, 57.247 90.337, 63.141 92.944 C 84.109 102.219, 118.963 92.363, 118.993 77.151 C 119.009 69.052, 113.526 63.108, 103.651 60.520 L 96.802 58.724 92.276 63.250 L 87.750 67.776 91.375 75.023 C 95.309 82.886, 95.968 86.346, 93.432 85.823 C 91.583 85.442, 90.196 83.143, 85.632 72.895 C 81.390 63.368, 77.245 59.829, 69.678 59.271 C 65.819 58.986, 63.736 59.373, 61.500 60.791 M 77.986 153.289 C 72.562 156.157, 70.007 159.529, 69.308 164.739 C 68.273 172.460, 74.239 179.394, 85.583 183.654 C 89.949 185.293, 93.470 185.485, 117 185.366 C 149.802 185.201, 170.804 182.942, 169.737 179.694 C 169.188 178.022, 162.442 174.306, 156.500 172.402 C 151.643 170.846, 151.242 170.876, 142.500 173.462 C 130.362 177.053, 115.961 177.903, 111 175.321 C 104.561 171.971, 106.807 165.336, 115.236 162.811 L 119.093 161.656 114.296 158.656 C 102.099 151.027, 86.597 148.735, 77.986 153.289 M 116.643 165.028 C 113.256 166.043, 110 168.784, 110 170.620 C 110 174.765, 124.008 175.201, 138.563 171.509 C 143.963 170.139, 148.790 168.610, 149.288 168.112 C 151.975 165.425, 124.104 162.792, 116.643 165.028" stroke="none" fill="black" fill-rule="evenodd"/>
</svg>