<svg xmlns="http://www.w3.org/2000/svg" width="200" height="200" viewBox="0 0 200 200" version="1.1">
	<path d="M 113 9.634 C 111.075 9.862, 101.625 11.232, 92 12.679 C 82.375 14.126, 71.419 15.224, 67.654 15.118 C 62.439 14.972, 60.919 15.232, 61.274 16.213 C 61.530 16.921, 61.051 18.289, 60.211 19.254 C 57.857 21.955, 59.926 25.205, 67.721 31.054 L 74.500 36.140 86 35.566 C 92.325 35.251, 100.377 34.310, 103.893 33.475 C 112.579 31.412, 116.301 32.646, 112.250 36.244 C 110.787 37.544, 105.378 37.918, 79.250 38.526 C 62.062 38.926, 48 39.598, 48 40.020 C 48 41.750, 52.326 41.928, 79.556 41.317 C 105.902 40.726, 108.013 40.803, 107.422 42.343 C 107.020 43.391, 103.019 45.207, 96.641 47.236 C 87.039 50.292, 85.676 50.464, 71 50.482 C 52.713 50.503, 46.568 49.012, 39.574 42.856 C 34.776 38.633, 34 38.294, 34 40.422 C 34 42.987, 42.145 48.884, 48.889 51.202 C 54.757 53.220, 57.522 53.485, 73.500 53.561 C 96.374 53.670, 99.321 54.444, 95.705 59.389 C 94.471 61.076, 94.119 61.061, 88.237 59.080 C 70.950 53.256, 54 59.459, 54 71.609 C 54 76.855, 55.741 81.374, 60.803 89.263 C 66.015 97.387, 70.558 99.519, 82.500 99.443 C 102.131 99.317, 123.452 89.251, 127.027 78.420 C 129.513 70.885, 122.668 62.443, 109.895 57.289 C 102.403 54.266, 101.351 52.254, 106.500 50.792 C 108.150 50.324, 115.912 49.660, 123.750 49.318 C 137.493 48.717, 138 48.617, 138 46.534 C 138 43.696, 133.961 39.998, 126.206 35.739 L 119.912 32.281 125.284 27.372 C 128.238 24.672, 133.485 20.954, 136.944 19.111 C 145.978 14.296, 146.325 15.195, 142.936 34.651 C 140.636 47.860, 140.903 54.788, 144.076 64.218 C 149.316 79.791, 144.324 90.874, 129.765 95.991 C 120.819 99.136, 112.997 99.945, 81 101.035 C 35.150 102.597, 27.768 103.627, 29.529 108.215 C 30.380 110.432, 39.060 114.057, 56.771 119.591 C 71.089 124.065, 71.869 124.436, 69.271 125.531 C 64.191 127.673, 60 131.953, 60 135 C 60 138.974, 63.989 141.975, 74.603 145.986 C 84.926 149.887, 84.704 150.094, 68.150 151.980 C 62.842 152.585, 56.587 153.314, 54.250 153.601 L 50 154.123 50.006 159.311 C 50.024 176.167, 60.438 186.465, 78.733 187.719 C 99.067 189.113, 121 179.739, 121 169.655 C 121 165.953, 118.281 161.992, 115.750 162.008 C 115.063 162.012, 111.598 162.898, 108.051 163.976 C 104.504 165.055, 99.554 166.201, 97.051 166.523 L 92.500 167.109 96.916 163.021 C 99.345 160.773, 105.034 156.698, 109.559 153.965 C 118.099 148.806, 130.849 142.493, 131.434 143.133 C 131.619 143.335, 133.196 147.100, 134.938 151.500 C 141.183 167.265, 150.129 179.276, 156.589 180.568 C 160.714 181.393, 165.020 177.699, 168.010 170.773 C 170.520 164.957, 173.919 147.220, 173.969 139.684 C 174.007 133.770, 172.882 131.535, 168.720 129.260 C 165.834 127.683, 162.757 127.530, 139.056 127.791 C 111.154 128.098, 107 127.586, 107 123.839 C 107 120.625, 110.523 114.812, 116.294 108.500 L 121.781 102.500 128.641 109.102 C 137.214 117.354, 142.798 120.360, 149.627 120.399 C 162.452 120.473, 171.467 107.012, 172.707 85.937 C 173.029 80.471, 172.781 73.563, 172.128 69.814 C 171.010 63.396, 171.056 63.107, 174.243 56.377 C 177.168 50.200, 177.500 48.584, 177.500 40.500 C 177.500 32.500, 177.167 30.833, 174.500 25.500 C 169.416 15.332, 158.952 9.848, 148.500 11.874 C 145.612 12.434, 143.666 12.223, 141.500 11.116 C 138.519 9.593, 121.034 8.683, 113 9.634 M 111 12.649 C 109.625 12.856, 103.325 13.717, 97 14.563 C 90.675 15.409, 84.642 16.356, 83.593 16.668 C 82.422 17.016, 85.927 18.304, 92.674 20.004 C 104.783 23.056, 109.428 25.062, 110.944 27.895 C 111.496 28.926, 113.129 30.066, 114.573 30.429 C 116.756 30.977, 118.008 30.331, 122.006 26.591 C 126.990 21.929, 137.120 15, 138.952 15 C 140.907 15, 140.013 13.237, 137.750 12.630 C 135.375 11.994, 115.258 12.008, 111 12.649 M 148.143 14.890 C 147.280 15.437, 147.036 16.540, 147.474 17.919 C 147.853 19.112, 147.170 26.015, 145.957 33.258 C 143.463 48.144, 143.700 55.080, 147.021 64.500 C 152.541 80.155, 145.948 93.762, 130.482 98.637 C 127.467 99.588, 125 100.684, 125 101.073 C 125 103.090, 136.915 113.530, 141.736 115.737 C 153.916 121.313, 164.082 114.311, 168.426 97.356 C 170.206 90.408, 170.495 73.857, 168.952 67.170 C 168.045 63.234, 168.252 62.232, 171.227 56.185 C 174.233 50.072, 174.499 48.755, 174.487 40.015 C 174.473 29.151, 172.754 24.625, 166.586 19.210 C 161.551 14.789, 151.879 12.524, 148.143 14.890 M 62 21.933 C 62 23.014, 69.048 28.901, 73.655 31.668 C 76.410 33.322, 77.995 33.476, 86.167 32.878 C 98.831 31.952, 105.318 30.910, 104.325 29.963 C 103.169 28.860, 87.941 24.356, 79.185 22.528 C 71.009 20.820, 62 20.509, 62 21.933 M 115.706 36.773 C 114.743 37.837, 114.305 39.450, 114.636 40.716 C 115.093 42.463, 114.421 43.255, 111.001 44.999 C 108.694 46.176, 106.962 47.264, 107.153 47.417 C 107.344 47.569, 110.875 47.340, 115 46.909 C 119.125 46.477, 125.382 46.096, 128.905 46.062 C 135.279 46, 135.301 45.990, 133.471 43.968 C 131.495 41.785, 122.830 36.623, 119.418 35.598 C 118.064 35.191, 116.766 35.601, 115.706 36.773 M 98 52 C 96.707 52.835, 96.734 52.971, 98.191 52.985 C 99.121 52.993, 100.160 52.550, 100.500 52 C 101.282 50.734, 99.958 50.734, 98 52 M 98.337 60.177 L 96.390 63.500 98.695 66.898 C 99.963 68.767, 100.990 71.242, 100.978 72.398 C 100.913 78.636, 93.446 87.724, 83.687 93.443 C 81.109 94.954, 79 96.437, 79 96.739 C 79 98.059, 94.212 95.934, 101.609 93.581 C 115.168 89.269, 125 81.329, 125 74.691 C 125 70.795, 118.890 64.554, 111.642 61.047 C 101.948 56.356, 100.626 56.270, 98.337 60.177 M 68.986 59.872 C 64.297 60.854, 59.435 63.819, 57.945 66.603 C 55.733 70.736, 57.291 78.206, 61.985 85.976 C 66.241 93.020, 68.010 94.633, 72.942 95.968 C 75.398 96.633, 75.829 96.023, 83.750 80.652 C 88.287 71.848, 92 64.310, 92 63.902 C 92 61.520, 75.179 58.575, 68.986 59.872 M 87.558 79.108 L 80.663 92.376 84.081 90.031 C 96.057 81.816, 100.651 73.495, 96.226 68.031 C 94.466 65.857, 94.402 65.938, 87.558 79.108 M 94.500 103.084 C 56.311 104.586, 35.068 105.863, 33.478 106.752 C 31.277 107.984, 36.785 110.321, 56.500 116.521 C 64.750 119.115, 72.737 121.871, 74.250 122.644 C 78.828 124.987, 77.329 128, 71.585 128 C 70.346 128, 67.571 129.530, 65.417 131.401 L 61.500 134.802 63.871 137.345 C 65.176 138.744, 70.493 141.534, 75.693 143.549 C 89.501 148.899, 89.368 151.809, 75.219 153.916 C 70.973 154.548, 64.237 155.341, 60.250 155.679 L 53 156.293 53.010 161.397 C 53.038 176.132, 64.306 185.021, 82.909 184.985 C 103.327 184.945, 123.310 174.277, 117.599 166.466 C 116.314 164.709, 115.799 164.649, 111.844 165.786 C 101.034 168.896, 93.939 170.038, 91.971 168.984 C 89.410 167.614, 89.485 166.766, 92.483 163.203 C 97.530 157.204, 124.527 141.406, 130.859 140.746 C 133.647 140.455, 134.045 141.059, 137.965 151.525 C 141.721 161.550, 150.074 174.470, 154.169 176.587 C 155.898 177.482, 158.246 177.904, 159.599 177.564 C 164.314 176.381, 168.914 162.893, 170.876 144.500 C 172.420 130.031, 171.831 129.790, 135.993 130.196 L 109.181 130.500 106.591 128.076 C 102.203 123.970, 103.561 119.559, 112.573 108.633 C 117.946 102.118, 117.995 102.003, 115.272 102.188 C 113.747 102.291, 104.400 102.694, 94.500 103.084" stroke="none" fill="black" fill-rule="evenodd"/>
</svg>