<svg xmlns="http://www.w3.org/2000/svg" width="200" height="200" viewBox="0 0 200 200" version="1.1">
	<path d="M 94.712 3.948 C 92.797 5.629, 90.773 8.744, 90 11.198 C 89.255 13.564, 88.489 15.814, 88.297 16.197 C 88.104 16.581, 84.154 15.306, 79.517 13.365 C 74.881 11.425, 70.328 9.986, 69.400 10.168 C 68.471 10.351, 66.792 11.734, 65.667 13.242 C 63.705 15.872, 63.690 16.127, 65.303 19.509 C 67.176 23.437, 73.811 28.125, 81.250 30.776 C 90.218 33.973, 87.438 34.821, 66.750 35.199 C 46.070 35.577, 43.137 36.208, 41.079 40.725 C 39.745 43.654, 40.525 47, 42.542 47 C 43.563 47, 43.790 46.201, 43.368 44.092 C 42.908 41.790, 43.236 40.944, 44.940 40.032 C 49.120 37.795, 58.589 36.958, 72.250 37.617 L 86 38.281 86 42.511 L 86 46.742 78.081 47.433 C 68.462 48.272, 51.967 50.700, 51.291 51.376 C 49.532 53.135, 52.935 53.508, 60.192 52.354 C 71.902 50.490, 86.736 49.525, 85.500 50.707 C 84.950 51.233, 82.631 52.194, 80.348 52.842 C 74.444 54.519, 64.781 61.266, 61.498 66.003 C 57.659 71.542, 57.065 78.247, 59.917 83.837 C 63.129 90.133, 74.271 97.529, 84.377 100.073 C 87.635 100.894, 89 101.746, 89 102.961 C 89 104.508, 87.090 104.747, 70.250 105.302 C 59.645 105.652, 49.762 105.514, 47.500 104.984 C 45.300 104.469, 39.848 104.037, 35.385 104.024 C 26.233 103.997, 22 106.057, 22 110.538 C 22 118.941, 44.342 129.559, 58.133 127.709 L 62.077 127.180 57.602 131.119 C 46.932 140.511, 46.060 148.937, 55.336 153.023 C 64.561 157.087, 84.570 156.342, 99.809 151.368 C 108.733 148.455, 112.479 148.773, 116.211 152.762 C 119.930 156.738, 121.416 160.219, 124.517 172.221 C 126.040 178.118, 128.116 184.305, 129.129 185.971 C 132.535 191.573, 137.187 189.539, 144.964 179.048 C 153.900 166.994, 153.982 159.598, 145.411 138.791 C 140.139 125.992, 139.808 122.415, 143.750 120.878 C 146.953 119.630, 156.597 120.312, 167.163 122.534 C 174.408 124.058, 174.450 124.055, 176.204 121.783 C 177.174 120.527, 178.715 117.574, 179.630 115.221 C 182.729 107.251, 179.671 104.669, 160.500 99.065 C 154.450 97.296, 146.244 94.494, 142.265 92.838 L 135.031 89.826 137.666 86.371 C 143.108 79.236, 141.617 69.674, 133.618 60.421 C 130.316 56.601, 130.166 56.546, 121.388 55.925 C 111.056 55.193, 108 54.404, 108 52.468 C 108 49.387, 111.706 48.972, 133.232 49.641 L 154.554 50.303 153.953 42.128 C 153.622 37.631, 152.846 33.446, 152.227 32.827 C 151.609 32.209, 147.142 31.359, 142.301 30.939 C 131.274 29.981, 125 28.942, 125 28.072 C 125 27.702, 125.458 26.942, 126.017 26.383 C 126.577 25.823, 127.444 23.939, 127.944 22.196 C 128.818 19.148, 128.579 18.778, 121.678 12.480 C 109.152 1.047, 100.966 -1.543, 94.712 3.948 M 96.134 5.866 C 93.631 8.369, 90.442 16.857, 91.596 17.942 C 92.980 19.243, 117.590 27, 120.333 27 C 122.070 27, 123.195 26.085, 124.330 23.750 L 125.909 20.500 121.704 16.183 C 119.392 13.809, 114.861 10.096, 111.636 7.933 C 104.912 3.423, 99.322 2.678, 96.134 5.866 M 67.975 14.530 C 66.009 16.899, 68.218 20.548, 73.734 24.046 C 78.343 26.970, 85.591 29.750, 86.416 28.910 C 86.637 28.685, 86.960 26.517, 87.133 24.094 L 87.447 19.688 79.497 16.344 C 70.448 12.538, 69.723 12.424, 67.975 14.530 M 89.837 25.587 C 89.636 28.109, 89.928 30.461, 90.486 30.812 C 92.443 32.044, 111.436 32.202, 114.500 31.011 C 117.393 29.887, 117.020 29.687, 104.080 25.423 C 96.699 22.990, 90.557 21, 90.431 21 C 90.305 21, 90.037 23.064, 89.837 25.587 M 118.500 32.627 L 115.500 34.091 119.500 33.556 C 121.700 33.263, 124.314 33.017, 125.309 33.011 C 126.304 33.005, 126.840 32.550, 126.500 32 C 125.640 30.608, 122.062 30.888, 118.500 32.627 M 89 34.441 C 89 35.761, 90.572 35.978, 99.250 35.857 L 109.500 35.715 100.323 34.961 C 95.275 34.547, 90.663 33.910, 90.073 33.545 C 89.483 33.180, 89 33.584, 89 34.441 M 129.250 39.841 C 123.063 42.891, 118 45.749, 118 46.193 C 118 46.637, 125.537 47, 134.750 47 L 151.500 47 151 40.750 L 150.500 34.500 145.500 34.398 C 141.338 34.313, 138.616 35.225, 129.250 39.841 M 119.500 36.676 C 115.650 37.494, 107.213 38.240, 100.751 38.332 L 89.003 38.500 89.001 42.575 L 89 46.650 100.169 46.189 C 111.242 45.733, 111.434 45.683, 122.419 40.374 C 131.861 35.810, 132.982 35.031, 130 35.103 C 128.075 35.150, 123.350 35.858, 119.500 36.676 M 89 50 C 89 50.550, 90.463 51.010, 92.250 51.022 C 96.929 51.054, 103.345 54.272, 105.910 57.874 C 107.127 59.583, 108.684 64.023, 109.369 67.740 C 110.549 74.137, 110.882 74.701, 115.558 78.241 C 118.276 80.298, 123.109 83.373, 126.297 85.074 C 132.683 88.482, 133.788 88.245, 136.566 82.872 C 138.830 78.495, 138.316 73.082, 135.107 67.500 C 130.829 60.059, 129.609 59.329, 120.482 58.739 C 107.934 57.928, 102.012 54.388, 106.200 50.200 C 107.133 49.267, 105.356 49, 98.200 49 C 92.733 49, 89 49.406, 89 50 M 80.272 55.908 C 70.498 59.217, 62.608 66.368, 61.035 73.346 C 59.947 78.169, 62.166 83.862, 66.667 87.795 C 70.968 91.554, 80.932 96.681, 85.762 97.620 L 89.023 98.255 88.361 86.377 C 87.997 79.845, 87.097 72.772, 86.362 70.660 C 85.439 68.010, 85.331 66.250, 86.013 64.976 C 87.184 62.788, 87.335 55.325, 86.222 54.637 C 85.795 54.373, 83.117 54.945, 80.272 55.908 M 89 55.375 C 89 60.806, 90.204 62.640, 94.532 63.797 C 96.927 64.438, 100.435 66.321, 102.326 67.981 C 104.217 69.641, 106.092 71, 106.493 71 C 107.533 71, 106.101 64.096, 104.366 60.740 C 103.561 59.185, 101.462 57.033, 99.701 55.960 C 95.936 53.663, 89 53.285, 89 55.375 M 90 69.037 C 90 74.231, 102.191 84.354, 105.777 82.138 C 106.362 81.776, 107.134 80.315, 107.491 78.892 C 108.049 76.670, 107.444 75.720, 103.220 72.184 C 95.101 65.386, 90 64.172, 90 69.037 M 91.148 87.138 C 91.599 93.849, 92.281 97.573, 93.165 98.153 C 96.080 100.068, 115.543 96.855, 124.500 92.982 C 130.263 90.489, 130.800 91.312, 118 83.032 L 110.500 78.181 109.792 80.755 C 108.077 86.998, 100.738 86.271, 93.292 79.120 C 92.077 77.954, 90.945 77, 90.775 77 C 90.606 77, 90.774 81.562, 91.148 87.138 M 126.111 95.025 C 119.240 98.502, 107.895 101, 98.972 101 C 92.580 101, 92 101.173, 92 103.078 C 92 105.123, 92.251 105.145, 108.250 104.490 C 117.188 104.124, 130.125 103.459, 137 103.013 C 143.875 102.567, 149.845 102.412, 150.266 102.670 C 151.641 103.510, 149.937 105, 147.601 105 C 142.160 105, 133.026 111.156, 119.903 123.667 C 106.763 136.196, 102.606 139, 97.180 139 C 93.698 139, 87.361 134.858, 87.851 132.902 C 88.955 128.486, 90.066 117.307, 89.804 113.234 L 89.500 108.500 64 107.670 C 49.975 107.214, 36.119 106.836, 33.210 106.831 C 24.118 106.816, 22.428 110.643, 29.032 116.296 C 37.924 123.907, 53.979 126.933, 65.706 123.208 C 74.217 120.505, 74.312 122.299, 65.967 128.160 C 56.451 134.842, 51.825 140.497, 52.204 144.984 C 52.454 147.960, 53.101 148.793, 56.414 150.411 C 64.195 154.209, 87.054 153.323, 98.500 148.779 C 112.229 143.329, 120.402 148.143, 125.088 164.441 C 130.393 182.890, 131.432 185.490, 133.627 185.803 C 136.295 186.184, 142.924 178.762, 146.655 171.216 C 150.468 163.505, 149.708 156.913, 143.128 140.624 C 140.308 133.642, 138 126.595, 138 124.965 C 138 121.105, 140.829 118.374, 145.674 117.555 C 149.094 116.977, 168.831 119.231, 172.422 120.608 C 173.837 121.151, 178 113.761, 178 110.707 C 178 108.086, 173.772 105.956, 161.292 102.293 C 154.914 100.421, 145.851 97.339, 141.153 95.444 C 136.455 93.550, 132.361 92.067, 132.056 92.149 C 131.750 92.231, 129.075 93.525, 126.111 95.025 M 109.704 107.036 C 100.467 107.433, 92.754 107.925, 92.564 108.129 C 92.375 108.333, 92.058 114.338, 91.860 121.474 L 91.500 134.447 94.098 135.363 C 99.910 137.412, 103.381 135.523, 116.268 123.299 C 122.995 116.918, 130.255 110.415, 132.400 108.848 L 136.300 106 131.400 106.157 C 128.705 106.244, 118.942 106.640, 109.704 107.036" stroke="none" fill="black" fill-rule="evenodd"/>
</svg>