<svg xmlns="http://www.w3.org/2000/svg" width="200" height="200" viewBox="0 0 200 200" version="1.1">
	<path d="M 131.331 9.265 C 130.684 10.337, 122.652 11.021, 95 12.363 C 75.475 13.310, 58.239 14.331, 56.697 14.633 C 52.608 15.434, 53.962 17.406, 59.078 18.100 C 61.952 18.490, 62.526 18.752, 60.719 18.850 C 59.145 18.935, 57.658 19.726, 57.295 20.673 C 56.295 23.279, 61.873 27.232, 72.731 31.613 L 82.367 35.500 72.434 36.189 C 56.575 37.290, 51.840 38.028, 52.298 39.329 C 52.524 39.973, 53.788 40.402, 55.105 40.283 C 77.370 38.265, 95.571 38.237, 97.552 40.218 C 97.812 40.478, 97.127 42.719, 96.030 45.198 L 94.037 49.706 81.768 50.369 C 75.021 50.734, 65.225 50.596, 60 50.062 C 44.675 48.496, 40.645 46.701, 40.545 41.397 C 40.476 37.701, 38.542 38.067, 38.180 41.844 C 37.776 46.059, 39.769 48.342, 45.851 50.629 C 49.661 52.062, 54.518 52.429, 72.770 52.668 C 92.449 52.925, 95.259 53.164, 96.934 54.729 C 98.780 56.455, 98.672 56.720, 92.668 65.171 C 89.280 69.939, 86.434 73.764, 86.345 73.671 C 86.255 73.577, 86.649 71.146, 87.220 68.268 C 88.490 61.867, 87.053 57.596, 82.909 55.453 C 79.327 53.601, 76.249 53.622, 68.814 55.548 C 57.770 58.410, 52.349 61.396, 50.062 65.877 C 47.582 70.739, 47.335 78.813, 49.536 83.069 C 56.053 95.672, 87.210 100.880, 108.479 92.922 C 117.398 89.585, 124.015 82.707, 123.990 76.800 C 123.959 69.555, 114.522 57.883, 107.652 56.594 C 103.652 55.844, 103.550 55.709, 104.978 53.041 C 105.722 51.651, 108.060 50.925, 114.728 50.014 C 126.421 48.416, 137 46.036, 137 45.004 C 137 43.882, 130.602 38.948, 124.773 35.573 L 120.046 32.837 124.101 27.088 C 126.331 23.925, 129.161 20.076, 130.391 18.534 L 132.627 15.731 135.863 30.016 C 142.587 59.689, 143.637 78.922, 139.049 88.398 C 136.603 93.452, 136.194 93.638, 121.497 96.374 C 110.968 98.335, 92.898 99.771, 69.500 100.507 C 47.678 101.194, 33.065 103.064, 21.852 106.606 C 12.675 109.505, 11.597 111.518, 18.750 112.394 C 21.363 112.714, 29.125 113.663, 36 114.503 C 58.755 117.282, 70.566 119.997, 68.357 121.939 C 67.886 122.354, 63.841 124.141, 59.370 125.911 C 44.153 131.932, 42.978 136.564, 55.284 142.008 L 59.996 144.092 56.020 149.357 C 42.695 167.006, 48.604 181.841, 70.836 186.553 C 80.182 188.534, 86.843 188.374, 91.382 186.060 C 97.290 183.048, 104.225 182.685, 122.145 184.450 C 141.657 186.372, 155.238 186.551, 161.130 184.965 C 167.131 183.349, 171.649 178.521, 172.506 172.809 C 173.345 167.215, 171.517 157.762, 169.202 155.726 C 165.168 152.176, 157.010 149, 151.927 149 C 146.908 149, 146.613 149.168, 139.433 156.131 L 132.078 163.262 127.064 162.780 C 123.961 162.482, 120.529 161.293, 118.064 159.661 L 114.078 157.023 103.878 162.012 C 92.412 167.619, 88.453 168.375, 89.540 164.750 C 90.620 161.146, 98.097 149.923, 106.602 139.141 C 106.757 138.943, 108.148 139.656, 109.692 140.725 C 121.230 148.712, 142.776 148.980, 158.072 141.327 C 165.268 137.728, 167.345 135.439, 166.813 131.699 C 166.120 126.829, 154.609 125.946, 132.931 129.101 C 124.663 130.304, 124.060 130.254, 115.796 127.678 C 111.085 126.209, 106.166 124.106, 104.865 123.004 L 102.500 121 104.843 119.015 C 106.131 117.923, 110.203 116.131, 113.893 115.032 C 128.731 110.613, 163 106.325, 163 108.888 C 163 109.733, 163.533 109.785, 164.868 109.071 C 166.107 108.407, 166.591 107.301, 166.306 105.785 C 166.069 104.528, 167.029 94.563, 168.438 83.641 C 173.499 44.411, 171.335 28.627, 159.462 18.176 C 154.466 13.777, 148.656 11.457, 140 10.403 C 136.975 10.035, 133.974 9.319, 133.331 8.811 C 132.577 8.217, 131.866 8.378, 131.331 9.265 M 106 14.545 C 94.175 15.238, 83.150 15.907, 81.500 16.032 C 79.850 16.157, 81.866 16.649, 85.979 17.125 C 100.089 18.759, 108.673 22.317, 107.679 26.120 C 107.354 27.364, 108.349 28.243, 111.401 29.409 C 113.692 30.284, 116.060 31, 116.663 31 C 117.266 31, 119.695 28.412, 122.060 25.250 C 124.426 22.087, 127.458 18.038, 128.799 16.250 C 131.006 13.308, 131.060 13.014, 129.369 13.143 C 128.341 13.222, 117.825 13.853, 106 14.545 M 135 13.800 C 135 14.393, 136.300 20.203, 137.889 26.710 C 142.561 45.843, 144.326 57.686, 144.416 70.500 C 144.508 83.593, 142.990 89.781, 138.701 93.811 C 133.841 98.377, 111.139 101.679, 75.518 102.999 C 48.156 104.014, 39.328 104.891, 27.527 107.770 L 20.500 109.484 26.500 110.298 C 59.632 114.789, 68.650 116.668, 71.072 119.587 C 73.269 122.234, 71.004 124.121, 60.426 128.457 C 48.170 133.481, 47.567 135.079, 56.324 139.322 C 61.227 141.697, 62.616 141.981, 65.103 141.114 C 68.629 139.885, 70.632 140.483, 71.279 142.958 C 72.155 146.308, 70.598 147.407, 66.857 146.080 C 63.610 144.928, 63.381 145.022, 59.856 148.954 C 52.593 157.055, 49.926 167.680, 53.595 173.891 C 57.043 179.728, 65.596 183.426, 78.978 184.864 C 85.839 185.602, 86.848 185.464, 91.217 183.198 C 97.132 180.129, 106.332 179.965, 131.452 182.482 C 155.141 184.855, 163.816 183.510, 168.046 176.810 C 169.811 174.013, 170.055 172.440, 169.619 166.664 C 169.026 158.825, 168.325 157.700, 162.063 154.545 C 151.871 149.411, 148.828 150.080, 139.719 159.463 C 133.727 165.634, 133.115 166, 128.800 166 C 125.707 166, 122.494 165.083, 118.864 163.164 L 113.500 160.327 104.712 164.733 C 94.223 169.991, 89.274 171.095, 87.440 168.586 C 85.004 165.256, 87.614 160.004, 99.736 143.845 L 106.229 135.189 110.865 138.130 C 117.350 142.243, 124.060 144, 133.287 144 C 145.791 144, 161.364 138.926, 164.004 133.992 C 164.924 132.274, 164.701 131.837, 162.475 130.991 C 158.675 129.546, 148.390 129.777, 136.021 131.585 C 125.462 133.129, 124.973 133.114, 117.339 131.026 C 106.400 128.034, 101 124.744, 101 121.073 C 101 119.115, 101.809 117.700, 103.599 116.527 C 110.215 112.192, 128.715 107.977, 150.235 105.902 L 162.971 104.673 163.441 101.587 C 164.187 96.688, 167.853 65.159, 168.514 57.958 C 169.293 49.471, 167.612 36.294, 164.966 30.143 C 162.365 24.096, 156.974 18.749, 150.675 15.969 C 145.128 13.521, 135 12.119, 135 13.800 M 83 20.950 C 87.675 21.999, 94.406 23.772, 97.957 24.889 C 104.765 27.030, 106.345 26.917, 103.893 24.465 C 102.162 22.734, 91.535 20.431, 81.500 19.613 L 74.500 19.042 83 20.950 M 61 21.983 C 61 23.269, 69.152 27.364, 80.231 31.643 L 89.099 35.068 95.050 32.397 C 98.322 30.929, 101 29.407, 101 29.017 C 101 28.091, 81.498 23.314, 72.500 22.035 C 63.590 20.768, 61 20.756, 61 21.983 M 100 32.960 C 94.539 35.805, 94.519 35.832, 97.145 36.848 C 100.562 38.169, 101.055 39.725, 99.370 43.872 C 97.443 48.616, 97.587 49, 101.303 49 C 104.208 49, 105.142 48.252, 109.053 42.792 C 111.499 39.378, 113.863 35.998, 114.306 35.281 C 114.881 34.352, 113.779 33.405, 110.473 31.989 C 107.922 30.895, 105.759 30.021, 105.667 30.047 C 105.575 30.073, 103.025 31.384, 100 32.960 M 113.627 41.150 C 111.092 44.561, 109.195 47.529, 109.412 47.746 C 109.818 48.151, 127.098 45.376, 130.285 44.393 C 131.905 43.894, 131.859 43.680, 129.785 42.081 C 128.528 41.112, 125.415 39.110, 122.868 37.633 L 118.235 34.948 113.627 41.150 M 98.800 53.200 C 99.733 54.133, 100.267 54.133, 101.200 53.200 C 102.133 52.267, 101.867 52, 100 52 C 98.133 52, 97.867 52.267, 98.800 53.200 M 64 59.978 C 54.788 63.177, 52.601 65.054, 50.952 71.178 C 47.106 85.461, 63.728 95.213, 89.398 93.732 C 108.035 92.657, 121 85.610, 121 76.556 C 121 72.922, 117.829 67.104, 113.838 63.416 C 110.347 60.190, 102.346 57.250, 100.933 58.673 C 100.481 59.128, 96.226 64.900, 91.477 71.500 C 83.526 82.551, 80.524 85.857, 79.432 84.765 C 79.202 84.535, 80.360 80.656, 82.007 76.144 C 85.537 66.471, 85.807 61.807, 83 59 C 80.142 56.142, 74.160 56.450, 64 59.978" stroke="none" fill="black" fill-rule="evenodd"/>
</svg>