<svg xmlns="http://www.w3.org/2000/svg" width="200" height="200" viewBox="0 0 200 200" version="1.1">
	<path d="M 100.542 8.732 C 99.465 9.004, 97.619 9.859, 96.441 10.631 C 94.726 11.754, 92.922 11.835, 87.399 11.037 C 64.327 7.702, 56.769 14.026, 71.373 24.447 C 74.870 26.942, 79.254 29.644, 81.115 30.452 C 84.317 31.842, 83.781 31.924, 71.167 31.961 C 60.959 31.991, 57.931 32.293, 58.249 33.250 C 58.550 34.156, 62.662 34.576, 73.196 34.776 L 87.728 35.052 88.339 40.217 C 88.676 43.058, 88.726 45.607, 88.452 45.882 C 88.177 46.156, 81.515 46.575, 73.648 46.811 C 62.482 47.147, 58.132 46.890, 53.824 45.637 C 47.647 43.841, 43.150 39.999, 42.310 35.798 C 42.002 34.259, 41.131 33, 40.375 33 C 38.642 33, 38.641 34.223, 40.371 38.282 C 43.572 45.794, 50.393 49.028, 64.564 49.753 L 74.628 50.268 69.963 54.631 C 65.090 59.190, 59.387 69.843, 58.328 76.365 C 57.826 79.459, 58.266 80.370, 62.398 84.788 C 67.609 90.358, 75.656 94.468, 84.093 95.869 C 91.794 97.147, 54.892 97.239, 31.560 95.999 C 21.693 95.475, 13.452 95.214, 13.248 95.419 C 12.220 96.446, 35.887 112.732, 45.497 117.610 C 51.549 120.683, 56.641 123.331, 56.813 123.495 C 57.839 124.472, 40.548 129.069, 36.613 128.865 C 34.097 128.735, 31.732 128.935, 31.357 129.310 C 30.297 130.370, 32.782 135, 34.412 135 C 36.514 135, 42.526 142.723, 45.528 149.279 C 48.877 156.594, 49.672 166.199, 47.699 175.500 C 46.882 179.350, 46.363 182.660, 46.546 182.856 C 46.729 183.052, 49.043 182.377, 51.689 181.356 C 55.277 179.972, 58.789 179.546, 65.500 179.680 C 74.625 179.863, 77.331 180.456, 105.500 188.448 C 127.870 194.795, 140.833 193.461, 149.448 183.926 C 153.085 179.900, 156.299 174.239, 158.519 167.947 C 159.761 164.426, 159.695 164.062, 157.437 161.941 L 155.033 159.682 157.017 156.473 C 158.107 154.708, 159 152.349, 159 151.230 C 159 149.907, 159.967 148.859, 161.763 148.232 C 163.283 147.702, 165.980 146.047, 167.755 144.553 C 170.421 142.309, 170.804 141.503, 169.956 139.918 C 169.066 138.255, 167.705 137.984, 159.715 137.883 C 154.647 137.818, 146.112 137.480, 140.749 137.133 L 130.999 136.500 140.954 125.885 C 146.430 120.047, 152.461 114.535, 154.356 113.635 C 156.635 112.554, 160.460 111.999, 165.651 111.998 C 175.293 111.997, 180.336 109.924, 180.815 105.767 C 181.441 100.334, 166.593 88.882, 146.638 79.405 C 139.305 75.923, 139 75.641, 139 72.339 C 139 63.997, 130.850 56.502, 114.741 50.030 L 107.609 47.164 111.554 46.406 C 117.722 45.221, 149.036 45.430, 153.172 46.683 C 156.461 47.680, 157.060 47.565, 158.922 45.583 C 165.615 38.459, 156.025 29.869, 132.118 21.577 C 125.823 19.393, 120.405 16.807, 118.355 15.006 C 112.602 9.956, 105.543 7.469, 100.542 8.732 M 100.240 11.780 C 99.425 12.330, 101.541 13.228, 106.240 14.328 C 115.389 16.467, 116.220 16.428, 112.482 14.032 C 109.008 11.805, 102.089 10.533, 100.240 11.780 M 68.135 14.001 C 65.948 14.944, 65.881 15.188, 67.239 17.234 C 70.359 21.932, 86.552 31.115, 88.421 29.246 C 88.739 28.927, 89 27.401, 89 25.854 C 89 24.306, 89.731 21.213, 90.625 18.979 C 91.519 16.745, 92.022 14.688, 91.742 14.409 C 90.695 13.361, 70.432 13.011, 68.135 14.001 M 93.728 18.750 C 92.910 20.813, 91.926 24.386, 91.542 26.690 C 90.852 30.833, 90.882 30.887, 94.172 31.488 C 96.003 31.823, 103.125 31.962, 110 31.798 L 122.500 31.500 122.810 28.816 C 122.981 27.340, 122.452 24.841, 121.636 23.263 C 120.292 20.663, 119.075 20.140, 108.702 17.697 C 102.404 16.213, 96.794 15, 96.234 15 C 95.675 15, 94.547 16.688, 93.728 18.750 M 124.965 23.934 C 125.534 24.998, 126 27.248, 126 28.934 C 126 31.496, 126.391 32, 128.378 32 C 129.685 32, 131.334 32.698, 132.042 33.550 C 133.819 35.692, 132.042 37.308, 124.557 40.353 L 118.624 42.766 133.562 42.986 C 141.778 43.107, 150.525 43.273, 153 43.353 C 157.154 43.489, 157.523 43.299, 157.804 40.884 C 158.325 36.389, 151.641 31.874, 134.889 25.404 C 124.532 21.404, 123.531 21.256, 124.965 23.934 M 91 38.781 C 91 45.537, 91.215 45.706, 98.782 44.860 C 105.165 44.146, 123.780 38.470, 127.676 36.049 C 129.127 35.147, 128.579 35.048, 125 35.564 C 118.191 36.545, 103.217 36.557, 96.750 35.587 L 91 34.725 91 38.781 M 92 48.867 C 92 49.344, 93.762 50.900, 95.915 52.325 C 98.068 53.750, 101.533 56.953, 103.614 59.443 C 106.664 63.091, 108.669 64.387, 113.949 66.122 C 117.552 67.307, 123.830 69.586, 127.901 71.187 C 136.285 74.486, 137.869 74.016, 135.717 68.866 C 132.996 62.352, 121.539 54.851, 107.043 50.092 C 100.594 47.975, 92 47.275, 92 48.867 M 75.500 53.420 C 69.900 56.781, 65.063 63.903, 61.478 74.062 C 60.251 77.540, 60.326 78.054, 62.494 80.992 C 67.922 88.349, 77.796 92.801, 90.707 93.712 C 95.268 94.034, 99 93.947, 99 93.519 C 99 93.091, 98.020 89.164, 96.822 84.793 L 94.644 76.846 88.354 73.229 C 84.895 71.239, 81.827 68.991, 81.536 68.233 C 80.597 65.787, 82.931 63.101, 87.075 61.860 C 91.116 60.649, 91.116 60.648, 90.436 56.574 C 90.061 54.333, 89.248 52.169, 88.628 51.765 C 86.225 50.200, 79.440 51.055, 75.500 53.420 M 93.308 57.509 C 93.641 59.565, 94.046 61.354, 94.207 61.485 C 94.368 61.615, 96.523 62.032, 98.996 62.412 L 103.491 63.102 99.996 59.469 C 98.073 57.471, 95.645 55.371, 94.600 54.803 C 92.850 53.850, 92.748 54.062, 93.308 57.509 M 85.750 65.080 C 83.088 66.630, 83.574 67.450, 88.858 70.326 L 93.716 72.970 92.689 68.485 C 91.607 63.756, 89.662 62.802, 85.750 65.080 M 95.395 67.224 C 95.728 68.888, 96 70.837, 96 71.554 C 96 74.037, 99.123 76, 103.071 76 C 106.851 76, 107 75.875, 107 72.691 C 107 68.097, 105.284 66.348, 99.645 65.192 L 94.790 64.198 95.395 67.224 M 109.808 71.785 C 110.330 77.259, 108.045 79.378, 102.319 78.732 C 99.944 78.465, 98 78.479, 98 78.765 C 98 79.051, 98.919 82.370, 100.042 86.142 C 101.769 91.941, 102.426 92.998, 104.292 92.988 C 108.167 92.967, 117.212 90.170, 123.643 87.004 C 129.908 83.920, 135.809 78.362, 134.306 76.961 C 133.403 76.119, 115.899 69.509, 111.968 68.526 C 109.544 67.920, 109.453 68.057, 109.808 71.785 M 133.651 83.182 C 129.149 87.879, 120.503 92.172, 109.988 94.930 L 102.500 96.894 110.500 96.376 C 122.368 95.607, 151.068 92.067, 154.399 90.962 C 158.299 89.668, 159 89.744, 159 91.461 C 159 92.339, 157.302 93.369, 154.750 94.039 C 148.806 95.600, 113.857 107.059, 111.845 108.107 C 110.315 108.904, 110.334 109.622, 112.104 117.721 C 113.156 122.536, 115.025 128.505, 116.258 130.987 C 118.353 135.205, 118.789 135.521, 122.909 135.815 L 127.318 136.131 139.409 123.645 C 152.940 109.672, 154.170 109.015, 166.816 109.006 C 179.212 108.996, 181.161 105.959, 173.250 98.978 C 166.179 92.739, 141.475 78.708, 138.221 79.083 C 137.825 79.129, 135.768 80.974, 133.651 83.182 M 123.500 98.038 C 120.200 98.448, 114.763 98.832, 111.417 98.891 C 108.071 98.951, 105.070 99.263, 104.748 99.585 C 104.293 100.041, 105.621 105.566, 106.467 106.736 C 106.561 106.865, 113.132 104.762, 121.069 102.063 C 135.190 97.259, 135.629 96.534, 123.500 98.038 M 21 98.359 C 21 98.636, 24.525 101.347, 28.834 104.383 C 37.589 110.553, 48.879 116.842, 56.663 119.884 L 61.827 121.903 82.840 114.890 L 103.853 107.877 102.577 104.188 L 101.302 100.500 66.576 99.856 C 47.477 99.502, 29.409 98.907, 26.425 98.534 C 23.441 98.161, 21 98.082, 21 98.359 M 89.354 115.628 C 78.931 119.172, 76.095 120.529, 75.663 122.183 C 75.145 124.160, 75.406 124.238, 80.726 123.689 C 87.365 123.004, 97.298 118.386, 101.447 114.056 C 103.057 112.375, 103.952 111.036, 103.437 111.079 C 102.922 111.122, 96.584 113.169, 89.354 115.628 M 102.964 116.538 C 99.006 120.751, 87.813 125.754, 80.620 126.524 C 74.306 127.200, 73.104 128.082, 73.014 132.105 C 73.006 132.438, 80.763 133.247, 90.250 133.902 C 99.737 134.557, 108.737 135.286, 110.250 135.521 C 111.763 135.757, 113 135.534, 113 135.025 C 113 134.061, 106.174 114.841, 105.644 114.310 C 105.477 114.144, 104.272 115.146, 102.964 116.538 M 70.500 122.027 C 68.635 122.734, 68.621 122.835, 70.293 123.516 C 72.229 124.305, 73.424 123.689, 72.854 122.197 C 72.659 121.686, 71.600 121.610, 70.500 122.027 M 55 127.411 L 48.500 129.739 53 130.437 C 55.475 130.820, 60.425 131.217, 64 131.317 C 70.399 131.497, 70.505 131.457, 70.816 128.750 C 71.065 126.586, 70.719 126, 69.191 126 C 68.124 126, 65.956 125.793, 64.375 125.541 C 62.768 125.284, 58.632 126.109, 55 127.411 M 39.339 132.769 C 38.549 133.272, 39.562 135.337, 42.512 139.240 C 48.460 147.107, 51.165 154.704, 51.330 164 C 51.403 168.125, 51.119 173.155, 50.699 175.178 L 49.936 178.856 53.718 177.811 C 55.858 177.220, 62.058 176.984, 68 177.269 C 76.983 177.699, 81.318 178.603, 98 183.523 C 115.430 188.664, 118.508 189.284, 127 189.365 C 134.910 189.441, 137.170 189.098, 140.500 187.316 C 146.210 184.260, 150.415 179.469, 153.926 172.018 C 156.943 165.614, 156.956 165.512, 155.050 163.606 C 153.350 161.905, 152.890 161.844, 151.178 163.088 C 143.531 168.648, 139.799 171.171, 135.287 173.831 L 130.124 176.875 126.469 168.058 L 122.815 159.240 114.157 161.647 C 87.409 169.083, 82.602 169.874, 76.537 167.833 C 68.879 165.257, 65.968 156.906, 68.017 143.391 C 68.647 139.232, 68.991 135.658, 68.782 135.448 C 68.433 135.100, 43.813 132.010, 41.500 132.024 C 40.950 132.028, 39.978 132.363, 39.339 132.769 M 71.116 141.253 C 69.539 150.313, 69.730 155.955, 71.752 159.986 C 74.168 164.804, 77.264 166.187, 84.500 165.678 C 91.212 165.207, 122.158 157.064, 121.470 155.951 C 121.227 155.559, 117.535 154.935, 113.264 154.566 C 104.273 153.788, 88.123 151.086, 86.148 150.029 C 82.452 148.053, 97.100 141.660, 108.250 140.383 C 111.412 140.021, 114 139.423, 114 139.054 C 114 138.685, 105.563 137.814, 95.250 137.118 C 84.938 136.422, 75.540 135.625, 74.366 135.347 C 72.436 134.890, 72.127 135.452, 71.116 141.253 M 151.997 142.590 C 154.614 143.802, 157.059 145.286, 157.430 145.887 C 157.884 146.621, 159.762 146.141, 163.152 144.423 C 165.928 143.016, 167.916 141.583, 167.570 141.237 C 167.225 140.892, 162.509 140.559, 157.091 140.497 L 147.239 140.386 151.997 142.590 M 121.856 141.819 L 119.213 142.500 120.902 147 L 122.592 151.500 131.308 151.348 C 136.101 151.264, 143.485 150.425, 147.716 149.484 C 154.800 147.908, 155.254 147.659, 153.455 146.342 C 148.855 142.976, 128.616 140.079, 121.856 141.819 M 103.899 143.937 C 99.169 144.945, 94.219 146.366, 92.899 147.094 C 90.621 148.352, 90.828 148.481, 97 149.647 C 100.575 150.322, 107.230 151.191, 111.789 151.578 L 120.077 152.281 118.162 147.391 C 116.899 144.164, 115.610 142.433, 114.374 142.302 C 113.343 142.194, 108.630 142.929, 103.899 143.937 M 152.974 151.162 C 151.584 151.633, 146.409 152.645, 141.474 153.412 L 132.500 154.806 138.624 154.903 C 141.993 154.956, 146.574 155.644, 148.804 156.431 C 152.745 157.821, 152.907 157.791, 154.492 155.372 C 156.791 151.863, 156.151 150.087, 152.974 151.162 M 124.750 155.662 C 125.438 155.940, 126.563 155.940, 127.250 155.662 C 127.938 155.385, 127.375 155.158, 126 155.158 C 124.625 155.158, 124.063 155.385, 124.750 155.662 M 131.500 157.735 C 129.300 157.954, 127.159 158.467, 126.742 158.875 C 126.151 159.452, 130.243 171.485, 131.474 172.791 C 131.624 172.950, 135.891 170.310, 140.955 166.922 C 146.150 163.448, 149.785 160.385, 149.296 159.896 C 148.392 158.992, 138.552 156.876, 136.614 157.168 C 136.001 157.261, 133.700 157.516, 131.500 157.735" stroke="none" fill="black" fill-rule="evenodd"/>
</svg>