<svg xmlns="http://www.w3.org/2000/svg" width="200" height="200" viewBox="0 0 200 200" version="1.1">
	<path d="M 129 9.859 C 129 10.332, 112.941 11.050, 93.313 11.455 C 58.499 12.173, 51.438 12.838, 53.776 15.176 C 54.579 15.979, 54.283 16.761, 52.689 18.056 L 50.500 19.834 52.596 22.667 C 53.748 24.225, 57.681 27.521, 61.335 29.990 L 67.979 34.481 58.382 35.686 C 46.587 37.167, 39.648 40.223, 39.195 44.134 C 38.270 52.111, 55.814 54.841, 82.497 50.873 C 87.977 50.058, 90 49.355, 90 48.267 C 90 47.128, 89.235 46.921, 86.750 47.386 C 66.612 51.156, 47.124 50.569, 42.610 46.055 C 40.737 44.181, 40.760 44.116, 44.013 42.138 C 49.411 38.855, 59.711 37.692, 78.735 38.215 C 93.427 38.619, 96.292 38.954, 97.959 40.463 C 99.036 41.438, 102.516 47.380, 105.692 53.667 C 110.853 63.884, 111.504 65.863, 111.818 72.299 C 112.124 78.557, 111.862 79.955, 109.812 82.976 C 107.341 86.616, 101.643 91, 99.383 91 C 98.656 91, 95.781 87.621, 92.994 83.491 L 87.928 75.983 89.464 70.810 C 91.843 62.799, 91.493 59.340, 87.946 55.793 C 84.999 52.845, 84.651 52.756, 77.937 53.237 C 69.481 53.842, 60.531 57.919, 53.207 64.504 C 44.500 72.333, 42.759 79.378, 48.044 85.397 C 52.083 89.998, 58.100 92.780, 68.735 94.964 C 78.745 97.020, 78.611 97.078, 59.500 99.006 C 46.344 100.333, 34.705 102.598, 30.250 104.697 C 27.889 105.809, 27 106.896, 27 108.669 C 27 110.652, 28.017 111.576, 32.410 113.587 C 37.396 115.870, 57.238 120.970, 61.215 120.991 C 62.159 120.996, 64.495 122.374, 66.408 124.054 C 68.321 125.733, 71.408 127.354, 73.269 127.656 C 77.986 128.422, 87.511 125.778, 101 119.959 L 112.500 114.998 119.222 121.340 L 125.943 127.682 101.810 128.341 C 88.536 128.703, 72.237 129.027, 65.588 129.060 C 50.507 129.134, 44.464 130.091, 41.714 132.841 C 39.779 134.777, 39.686 135.375, 40.722 139.238 C 41.350 141.582, 44.175 149.403, 46.998 156.619 L 52.132 169.737 60.770 173.960 C 105.333 195.744, 142.315 196.493, 162.481 176.020 L 167.278 171.149 164.646 166.659 C 161.144 160.682, 156.429 156.094, 151.542 153.906 C 147.010 151.877, 146.957 151.908, 159.105 149.507 C 171.363 147.084, 178.282 142.782, 176.671 138.585 C 176.315 137.657, 173.906 135.961, 171.318 134.816 C 167.252 133.018, 165.448 132.823, 158.056 133.385 L 149.500 134.035 152.861 132.224 C 154.709 131.227, 156.171 130.094, 156.111 129.706 C 156.050 129.318, 156 128.537, 156 127.972 C 156 127.304, 153.688 127.181, 149.387 127.622 L 142.774 128.299 143.343 124.400 C 145.399 110.329, 146.296 106, 147.156 106 C 148.771 106, 152.340 108.096, 155.095 110.661 C 157.152 112.576, 157.909 112.810, 158.740 111.789 C 162.217 107.519, 166.951 25.882, 164.135 18.750 C 161.729 12.656, 159.268 16.781, 155.632 33 C 153.472 42.635, 146.794 81.570, 144.462 98.123 L 143.811 102.747 138.430 103.379 C 135.470 103.727, 128.682 105.572, 123.345 107.480 C 116.051 110.087, 113.311 110.673, 112.309 109.842 C 110.775 108.569, 104 99.492, 104 98.711 C 104 98.424, 107.530 98.431, 111.844 98.727 C 122.330 99.445, 128.399 97.461, 133.873 91.522 C 139.198 85.745, 141.204 78.772, 141.173 66.155 C 141.144 54.723, 139.992 47.292, 135.351 28.600 C 132.968 19.005, 132.220 14.380, 132.936 13.664 C 133.652 12.948, 133.464 12.066, 132.331 10.814 C 130.589 8.889, 129 8.433, 129 9.859 M 75.500 15 L 72.500 15.763 75.640 15.882 C 80.896 16.080, 95.222 19.063, 98.125 20.565 C 99.628 21.342, 101.131 22.838, 101.465 23.890 C 101.799 24.941, 103.293 26.105, 104.786 26.476 C 109.086 27.546, 124.038 34.792, 127.683 37.572 C 131.642 40.591, 132.083 44.248, 128.750 46.420 C 127.513 47.227, 122.687 48.362, 118.026 48.943 C 107.534 50.252, 108 50.263, 108 48.702 C 108 47.818, 110.893 47.039, 117.080 46.258 C 127.718 44.915, 129.949 43.709, 127.275 40.746 C 125.137 38.377, 114.825 33.102, 106.283 30.008 C 100.240 27.819, 99.947 27.804, 95.783 29.479 C 93.427 30.426, 88.350 32.006, 84.500 32.989 L 77.500 34.776 86.300 35.510 C 94.176 36.168, 95.241 36.053, 96.438 34.415 C 97.715 32.669, 97.963 32.709, 101.888 35.307 C 106.400 38.293, 107.138 40, 103.917 40 C 102.771 40, 101.983 40.337, 102.167 40.750 C 102.350 41.163, 105.111 46.675, 108.303 53 C 114.392 65.067, 116.001 71.853, 114.573 79.461 C 113.772 83.733, 108.299 90.219, 103.989 92.004 C 102.345 92.685, 101 93.797, 101 94.474 C 101 96.143, 118.783 96.445, 124.056 94.865 C 129.354 93.278, 134.552 87.827, 136.686 81.621 C 140.408 70.795, 138.248 48.427, 130.904 21.750 L 128.771 14 103.635 14.118 C 89.811 14.183, 77.150 14.580, 75.500 15 M 54.680 19.709 C 53.875 21.011, 58.140 24.925, 65.297 29.454 C 71.078 33.112, 71.111 33.119, 76.797 31.945 C 84.680 30.317, 95.306 26.972, 94.656 26.323 C 94.361 26.028, 89.030 24.472, 82.810 22.866 C 70.685 19.736, 55.702 18.054, 54.680 19.709 M 85.813 20.683 C 86.534 20.972, 87.397 20.936, 87.729 20.604 C 88.061 20.272, 87.471 20.036, 86.417 20.079 C 85.252 20.127, 85.015 20.364, 85.813 20.683 M 90.500 21.915 C 91.600 22.348, 93.850 22.976, 95.500 23.310 L 98.500 23.918 95.500 22.504 C 93.850 21.726, 91.600 21.098, 90.500 21.108 L 88.500 21.127 90.500 21.915 M 159.035 30.250 C 156.868 39.598, 148.705 86.799, 147.481 97.061 L 146.817 102.621 151.950 105.284 C 155.566 107.160, 157.210 107.586, 157.511 106.724 C 159.613 100.716, 163.543 21, 161.737 21 C 161.430 21, 160.214 25.163, 159.035 30.250 M 69.643 57.555 C 57.848 61.880, 48 71.554, 48 78.814 C 48 85.769, 60.102 91.828, 77.569 93.617 C 84.441 94.321, 95 93.342, 95 92.001 C 95 91.531, 93.121 88.424, 90.825 85.096 C 86.325 78.575, 85.301 78.444, 82.963 84.089 C 82.275 85.751, 81.374 86.749, 80.963 86.306 C 80.064 85.339, 77 71.973, 77 69.021 C 77 65.329, 80.031 65.362, 83.073 69.088 L 85.858 72.500 86.929 69.685 C 88.612 65.261, 88.251 59.537, 86.171 57.655 C 83.890 55.591, 75.145 55.538, 69.643 57.555 M 80.558 74 C 81.325 79.151, 81.477 79.441, 82.933 78.541 C 84.587 77.519, 84.159 74.750, 81.922 72 L 79.888 69.500 80.558 74 M 94.750 95.662 C 95.438 95.940, 96.563 95.940, 97.250 95.662 C 97.938 95.385, 97.375 95.158, 96 95.158 C 94.625 95.158, 94.063 95.385, 94.750 95.662 M 71.500 100.510 C 48.447 102.608, 30.874 105.777, 29.440 108.097 C 28.249 110.024, 41.490 114.469, 57.600 117.550 C 63.468 118.673, 66.086 119.693, 67.780 121.519 C 72.627 126.745, 80.234 125.876, 98.671 117.988 L 110.842 112.782 105.671 105.903 L 100.500 99.024 93 99.130 C 88.875 99.189, 79.200 99.810, 71.500 100.510 M 133 107.142 C 126.945 108.807, 116 113.144, 116 113.879 C 116 114.824, 123.618 122.049, 128.094 125.350 C 130.609 127.204, 132.923 128, 135.799 128 C 139.658 128, 139.943 127.801, 140.456 124.750 C 141.651 117.637, 142.985 108.432, 142.992 107.250 C 143.001 105.780, 138.147 105.728, 133 107.142 M 142.500 131 C 141.754 132.207, 145.692 132.207, 148.500 131 C 150.112 130.307, 149.784 130.127, 146.809 130.070 C 144.779 130.032, 142.840 130.450, 142.500 131 M 73 131.943 C 66.614 132.529, 66.710 132.557, 78.500 133.500 C 90.853 134.489, 107.491 134.633, 126.163 133.912 C 135.181 133.564, 136.493 133.313, 134.663 132.285 C 132.377 131.002, 86.040 130.744, 73 131.943 M 43.271 137.250 C 43.564 139.037, 46.144 146.639, 49.003 154.141 L 54.201 167.783 65.074 172.946 C 105.997 192.378, 141.817 193.027, 159.840 174.663 L 163.980 170.444 160.539 165.334 C 157.206 160.385, 152.899 156.955, 148.251 155.547 C 146.428 154.995, 145.809 155.372, 144.987 157.534 C 144.429 159.002, 142.360 162.632, 140.389 165.601 C 136.395 171.619, 133.373 172.883, 134.322 168.140 C 134.637 166.567, 135.201 162.967, 135.576 160.140 C 136.257 155.002, 136.256 155, 133.424 155 C 131.865 155, 121.795 158.011, 111.045 161.691 C 93.372 167.742, 90.717 168.389, 83.327 168.441 C 73.535 168.512, 70.807 167.007, 67.025 159.452 C 65.037 155.480, 64.475 152.612, 64.163 144.857 L 63.776 135.205 60.763 134.603 C 59.106 134.271, 54.372 134, 50.244 134 L 42.738 134 43.271 137.250 M 66.368 143.102 C 67.245 153.924, 69.363 160.286, 73.147 163.470 C 75.711 165.628, 77.135 165.998, 82.827 165.986 C 88.393 165.974, 92.652 164.897, 108.500 159.494 L 127.500 153.016 120 152.973 C 110.400 152.918, 98.857 150.854, 92.248 148.011 C 83.854 144.400, 83.815 143.497, 91.941 140.880 C 95.824 139.629, 99 138.314, 99 137.957 C 99 137.600, 92.626 137.004, 84.836 136.632 C 77.046 136.260, 69.550 135.674, 68.180 135.330 L 65.688 134.705 66.368 143.102 M 148.883 136.730 L 144.266 137.099 146.133 140.761 C 147.160 142.775, 148 145.453, 148 146.711 C 148 147.970, 148.177 149, 148.393 149 C 148.609 149, 152.322 148.278, 156.643 147.396 C 183.436 141.927, 177.963 134.405, 148.883 136.730 M 120.500 138.010 C 110.266 138.535, 105.699 139.266, 99.037 141.449 L 90.575 144.221 93.336 145.668 C 98.206 148.220, 110.818 150, 124.027 150 L 136.877 150 137.523 145.250 C 137.878 142.637, 138.386 139.713, 138.651 138.750 C 139.036 137.358, 138.558 137.035, 136.317 137.171 C 134.768 137.266, 127.650 137.643, 120.500 138.010 M 140.589 144.041 C 139.803 149.968, 140.018 150.446, 143.039 149.488 C 144.916 148.892, 145.145 148.282, 144.648 145.216 C 144.328 143.248, 143.439 141.011, 142.672 140.244 C 141.479 139.051, 141.178 139.600, 140.589 144.041 M 138.989 155.250 C 138.983 155.938, 138.736 158.300, 138.440 160.500 L 137.903 164.500 140.406 160 C 143.472 154.488, 143.521 154, 141 154 C 139.900 154, 138.995 154.563, 138.989 155.250" stroke="none" fill="black" fill-rule="evenodd"/>
</svg>