<svg xmlns="http://www.w3.org/2000/svg" width="200" height="200" viewBox="0 0 200 200" version="1.1">
	<path d="M 129.500 11.088 C 102.857 16.149, 78.661 18.993, 62.236 18.997 C 53.291 18.999, 45.191 19.444, 44.236 19.987 C 43.281 20.530, 37.154 21.639, 30.619 22.451 C 24.085 23.263, 18.528 24.139, 18.269 24.397 C 17.004 25.662, 19.511 27.007, 22.328 26.573 C 24.073 26.305, 30 25.818, 35.500 25.491 L 45.500 24.897 47.953 29.568 C 51.227 35.805, 56.266 39.032, 63.795 39.715 C 74.371 40.674, 84.250 35.693, 84.250 29.401 C 84.250 26.599, 80.808 23.077, 78 23.007 C 76.667 22.974, 76.667 22.862, 78 22 C 80.033 20.686, 108.971 20.741, 118.678 22.077 C 135.968 24.457, 142.038 30.800, 143.653 48.175 L 144.293 55.062 134.896 74.509 C 129.728 85.206, 124.983 93.967, 124.352 93.978 C 123.510 93.994, 123.345 89.131, 123.731 75.750 C 124.453 50.727, 122.094 36.367, 116.311 30.584 C 111.752 26.024, 106.409 27.578, 98.996 35.620 L 94.596 40.394 99.427 41.626 C 102.085 42.304, 104.683 43.283, 105.201 43.801 C 107.231 45.831, 95.948 51.794, 86.846 53.501 C 83.681 54.095, 83.101 53.821, 80.612 50.557 C 79.102 48.578, 76.806 46.264, 75.509 45.414 C 71.519 42.800, 61.369 41.934, 42.750 42.621 C 26.465 43.222, 25 43.427, 25 45.103 C 25 47.640, 30.584 53.750, 34.905 55.941 C 36.882 56.943, 41.014 58.322, 44.087 59.004 L 49.673 60.245 46.323 63.873 C 35.042 76.087, 37.182 88.218, 51.930 95.654 C 64.429 101.956, 82.144 102.740, 93.806 97.507 C 97.154 96.004, 100.663 93.925, 101.602 92.887 C 103.765 90.497, 106.023 90.578, 113.500 93.315 C 119.411 95.479, 119.495 95.564, 119.155 99.006 C 118.965 100.928, 118.670 102.645, 118.499 102.822 C 118.328 102.999, 116.316 101.962, 114.027 100.517 C 110.458 98.264, 109.411 98.033, 106.682 98.897 C 103.213 99.996, 93.179 101.137, 65.500 103.578 C 46.611 105.243, 34.460 107.148, 31.038 108.980 C 29.917 109.580, 29 110.945, 29 112.015 C 29 114.743, 34.645 117.378, 47.948 120.856 C 54.074 122.458, 60.016 124.608, 61.153 125.634 C 64.580 128.729, 68.465 137.622, 73.983 154.998 C 80.090 174.230, 83.488 181.465, 88.467 185.837 C 94.935 191.516, 103.961 189.825, 115.222 180.827 L 117.944 178.652 122.929 181.365 C 140.032 190.674, 155.703 190.143, 165.937 179.909 C 167.805 178.041, 170.658 173.682, 172.278 170.221 C 174.694 165.057, 175.219 162.633, 175.203 156.714 C 175.182 148.774, 174.122 145.160, 170.373 140.245 C 166.495 135.161, 160.669 132.633, 152.921 132.674 L 146.342 132.709 144.030 128.350 L 141.717 123.991 144.274 121.622 C 147.126 118.979, 150.956 112.040, 151.082 109.290 C 151.126 108.305, 151.831 110.618, 152.648 114.429 C 157.203 135.680, 165.675 133.319, 178.257 107.291 C 182.592 98.324, 183.961 94.561, 183.175 93.775 C 182.388 92.988, 181.644 93.051, 180.500 94 C 177.582 96.421, 176.602 93.678, 176.661 83.253 C 176.691 77.889, 177.286 65.843, 177.984 56.484 C 178.681 47.125, 179.064 34.808, 178.836 29.113 C 178.463 19.840, 178.184 18.567, 176.161 16.929 C 172.103 13.643, 167.770 17.016, 158.989 30.294 C 155.790 35.131, 152.914 38.670, 152.597 38.157 C 152.084 37.327, 150.955 29.947, 149.387 17.178 C 148.756 12.041, 146.040 8.964, 142.250 9.094 C 140.738 9.146, 135 10.043, 129.500 11.088 M 123.250 14.871 C 115.412 16.303, 109 17.753, 109 18.094 C 109 18.435, 112.487 18.972, 116.750 19.287 C 127.257 20.063, 133.466 22.413, 138.616 27.564 C 143.060 32.008, 146 39.198, 146 45.622 C 146 50.125, 147.369 50.546, 149.242 46.619 C 150.625 43.718, 150.648 42.619, 149.432 37.412 C 148.672 34.161, 147.751 28.125, 147.384 24 C 146.415 13.101, 145.834 11.972, 141.275 12.134 C 139.199 12.207, 131.088 13.439, 123.250 14.871 M 168.347 22.250 C 166.198 24.587, 162.238 30.037, 159.547 34.361 C 154.782 42.017, 154.640 42.472, 154.077 51.861 C 153.087 68.389, 153.537 103.107, 154.844 111 C 156.282 119.687, 158.743 125.360, 161.276 125.828 C 164.062 126.343, 168.434 120.819, 174.172 109.532 L 179.438 99.175 176.969 97.177 C 174.723 95.358, 174.467 94.336, 174.130 85.839 C 173.927 80.703, 174.312 69.087, 174.987 60.027 C 177.147 31.007, 176.561 18, 173.092 18 C 172.632 18, 170.496 19.913, 168.347 22.250 M 55.578 23.869 C 52.321 24.216, 49.498 24.981, 49.305 25.568 C 48.699 27.415, 53.350 33.217, 56.984 35.148 C 61.172 37.374, 70.586 37.626, 75.282 35.638 C 79.878 33.693, 82.686 30.312, 81.400 28.272 C 79.159 24.719, 67.022 22.650, 55.578 23.869 M 104.035 34.587 L 99.935 38.291 103.968 40.097 C 108.470 42.113, 109.408 45.452, 106.250 48.229 C 103.544 50.607, 96.757 53.781, 91.594 55.081 C 89.023 55.728, 87.078 56.734, 87.272 57.316 C 87.466 57.898, 91.422 60.537, 96.062 63.180 C 102.736 66.981, 104.750 68.666, 105.694 71.243 C 107.165 75.260, 107.343 83.491, 106.011 85.979 C 105.132 87.622, 105.840 88.102, 112.390 90.304 L 119.758 92.781 120.379 88.251 C 121.561 79.628, 121.038 53.374, 119.527 45.476 C 117.606 35.439, 115.385 31.597, 111.269 31.192 C 108.816 30.950, 107.244 31.688, 104.035 34.587 M 33.591 45.918 L 27.682 46.500 31.781 50.194 C 36.143 54.123, 43.837 57, 49.984 57 C 52.467 57, 54.942 56.017, 57.856 53.875 L 62.105 50.750 65.974 53.859 C 69.570 56.749, 70.171 56.908, 74.468 56.105 C 77.011 55.630, 79.324 55.009, 79.608 54.725 C 79.891 54.442, 78.728 52.621, 77.024 50.680 C 74.721 48.057, 72.636 46.873, 68.913 46.075 C 63.765 44.971, 44.096 44.884, 33.591 45.918 M 149.220 52.483 C 148.034 54.925, 146.766 59.828, 146.402 63.380 C 145.904 68.245, 145.404 69.709, 144.377 69.315 C 143.494 68.976, 143.226 67.948, 143.616 66.396 C 145.035 60.738, 142.366 65.015, 135.369 79.609 C 131.253 88.194, 128.023 95.307, 128.193 95.416 C 128.362 95.525, 130.748 96.285, 133.496 97.105 C 141.166 99.395, 140.675 101.519, 132.124 103.047 C 122.411 104.783, 121.737 105.402, 126 108.670 C 127.925 110.145, 131.809 113.683, 134.631 116.532 C 140.578 122.536, 141.489 122.427, 145.731 115.211 C 149.475 108.841, 149.428 101.120, 145.586 92 C 141.932 83.322, 141.572 82, 142.863 82 C 144.017 82, 147.344 87.948, 149.544 93.945 C 150.728 97.174, 150.801 96.630, 150.337 88 C 150.056 82.775, 150.265 71.750, 150.801 63.500 C 151.338 55.250, 151.687 48.397, 151.577 48.272 C 151.467 48.147, 150.407 50.042, 149.220 52.483 M 59.879 55.966 L 57.500 57.963 61 57.338 C 65.335 56.564, 65.359 56.543, 63.654 55.127 C 62.568 54.227, 61.731 54.413, 59.879 55.966 M 74.500 58.890 C 72.342 59.359, 71.878 59.780, 72.848 60.391 C 75.030 61.764, 80 70.207, 80 72.541 C 80 73.723, 79.052 75.547, 77.893 76.595 C 75.794 78.492, 75.839 78.517, 89.107 82.713 C 99.048 85.858, 102.623 86.619, 103.198 85.713 C 104.121 84.262, 104.224 75.439, 103.357 72.201 C 102.978 70.786, 100.965 69.001, 98.121 67.557 C 95.579 66.267, 91.092 63.589, 88.150 61.606 C 82.835 58.024, 80.558 57.571, 74.500 58.890 M 49.418 64.534 C 39.213 75.492, 39.602 84.987, 50.540 91.923 C 63.615 100.215, 91.596 99.733, 99.426 91.082 C 100.895 89.459, 99.920 89.011, 83.997 83.999 C 74.490 81.007, 67 78.124, 67 77.456 C 67 76.800, 68.854 76.015, 71.121 75.711 C 73.388 75.407, 75.695 74.705, 76.248 74.152 C 77.826 72.574, 76.394 68.821, 72.459 64.223 L 68.844 60 61.242 60 L 53.640 60 49.418 64.534 M 122 98.500 C 122 99.325, 122.177 100, 122.393 100 C 122.609 100, 123.045 99.325, 123.362 98.500 C 123.678 97.675, 123.501 97, 122.969 97 C 122.436 97, 122 97.675, 122 98.500 M 125.583 99.643 C 124.751 101.812, 124.910 101.862, 129 100.729 C 132.063 99.880, 132.250 99.658, 130.500 98.950 C 127.407 97.698, 126.268 97.859, 125.583 99.643 M 105 102.064 C 103.075 102.536, 89.125 104.087, 74 105.510 C 58.875 106.934, 43.350 108.751, 39.500 109.548 C 35.650 110.346, 32.388 110.999, 32.250 110.999 C 32.112 111, 32 111.378, 32 111.839 C 32 113.196, 36.775 115.003, 48.491 118.081 C 54.535 119.669, 60.610 121.795, 61.991 122.804 C 65.658 125.487, 72.010 138.860, 75.865 152.017 C 82.663 175.222, 88.377 185.230, 95.600 186.585 C 99.646 187.344, 107.185 183.997, 113.437 178.665 L 117.375 175.308 125.937 179.663 C 139.613 186.617, 150.414 187.105, 160 181.200 C 165.488 177.820, 170.433 170.017, 172.095 162.117 C 175.224 147.243, 165.871 134.241, 152.728 135.194 C 149.106 135.456, 148.558 135.786, 148.902 137.500 C 149.123 138.600, 149.348 143.174, 149.402 147.665 C 149.492 155.199, 149.267 156.165, 146.487 160.165 C 138.309 171.929, 122.155 171.810, 108.608 159.886 C 106.096 157.675, 103.099 154.544, 101.949 152.928 L 99.857 149.991 102.311 144.631 L 104.765 139.271 99.414 137.053 C 93.304 134.520, 88 129.113, 88 125.416 C 88 118.058, 96.418 110.795, 110.488 106.013 L 115.499 104.309 112.299 102.655 C 110.539 101.745, 108.964 101.046, 108.800 101.102 C 108.635 101.159, 106.925 101.591, 105 102.064 M 109.423 109.363 C 88.921 116.986, 84.922 128.604, 100.725 134.639 C 105.087 136.305, 105.308 136.299, 106.628 134.494 C 108.560 131.852, 108.371 131.309, 105.250 130.530 C 95.319 128.052, 97.927 120.729, 110.229 116.547 C 115.368 114.800, 115.932 114.311, 116.818 110.819 C 117.971 106.277, 117.809 106.246, 109.423 109.363 M 117.225 118.250 C 114.895 123.338, 112.992 127.903, 112.995 128.395 C 113.008 130.657, 133.673 126.624, 136.500 123.808 C 137.166 123.145, 135.015 120.502, 130.069 115.906 C 125.982 112.108, 122.374 109, 122.050 109 C 121.727 109, 119.556 113.162, 117.225 118.250 M 109.566 119.637 C 105.099 121.211, 102 123.675, 102 125.655 C 102 126.395, 102.115 127, 102.257 127 C 102.398 127, 103.980 127.421, 105.773 127.935 C 108.973 128.853, 109.079 128.778, 111.583 123.835 C 112.986 121.067, 113.992 118.677, 113.817 118.526 C 113.643 118.375, 111.730 118.875, 109.566 119.637 M 131.805 128.629 C 128.122 129.920, 121.915 131.273, 118.011 131.636 C 112.432 132.154, 110.690 132.710, 109.875 134.233 C 109.305 135.299, 109.109 136.442, 109.440 136.773 C 111.566 138.899, 133.174 137.578, 141.021 134.843 L 144.015 133.799 141.823 129.900 C 140.618 127.755, 139.377 126.063, 139.066 126.141 C 138.755 126.218, 135.487 127.338, 131.805 128.629 M 137 138.696 C 133.704 139.580, 126.615 140.207, 119.310 140.261 L 107.121 140.351 105.036 145.369 L 102.950 150.387 108.083 155.584 C 114.874 162.461, 122.147 166, 129.487 166 C 142.348 166, 148.834 156.714, 146.561 141.556 C 145.789 136.413, 145.659 136.374, 137 138.696" stroke="none" fill="black" fill-rule="evenodd"/>
</svg>