<svg xmlns="http://www.w3.org/2000/svg" width="200" height="200" viewBox="0 0 200 200" version="1.1">
	<path d="M 125.254 15.971 C 122.918 17.032, 119.012 19.272, 116.573 20.950 L 112.140 24 77.230 24 L 42.321 24 41.267 26.314 C 39.761 29.620, 41.031 31.287, 49.302 36.858 C 59.411 43.667, 63 45.443, 63 43.640 C 63 42.863, 59.962 40.400, 56.250 38.165 C 52.537 35.930, 48.150 32.923, 46.500 31.482 L 43.500 28.863 48.327 29.423 C 53.364 30.007, 67.586 34.476, 76.195 38.179 L 81.207 40.335 78.493 41.757 C 74.329 43.940, 76.879 45.502, 81.223 43.431 C 84.727 41.760, 84.765 41.768, 91.931 45.533 C 95.886 47.612, 100.543 50.639, 102.279 52.260 C 105.164 54.956, 105.288 55.316, 103.726 56.458 C 101.404 58.156, 84.903 60.431, 80.825 59.615 C 79.014 59.253, 75.757 57.782, 73.587 56.346 C 69.841 53.867, 69.739 53.664, 71.552 52.338 C 72.602 51.570, 75.158 50.434, 77.231 49.813 C 79.411 49.159, 81 48.052, 81 47.184 C 81 45.886, 78.752 45.771, 64.250 46.324 C 41.366 47.196, 30.923 49.153, 29.511 52.833 C 28.194 56.264, 34.190 58.985, 48.500 61.450 L 55.500 62.656 51.800 63.889 C 47.083 65.461, 42.299 70.889, 41.398 75.690 C 40.061 82.818, 45.215 94.637, 52.236 100.545 C 55.586 103.364, 62.133 106.915, 66 108.010 C 67.889 108.545, 66.911 108.868, 62 109.334 C 58.425 109.673, 50.100 110.454, 43.500 111.069 C 29.273 112.397, 24.707 113.925, 25.178 117.202 C 25.684 120.728, 37.082 126.089, 49.088 128.448 C 55.532 129.714, 59.564 135.776, 65.656 153.356 C 72.627 173.472, 78.062 181.915, 86.753 186.123 C 92.860 189.081, 102.959 189.276, 111.704 186.605 C 117.615 184.801, 118.192 184.790, 123.879 186.386 C 141.325 191.281, 160.636 188.210, 169.756 179.090 C 172.915 175.931, 173.934 171.945, 172.235 169.400 C 169.130 164.750, 156.557 164.626, 137.854 169.060 C 125.755 171.930, 123.872 172.132, 117.819 171.218 C 104.125 169.151, 91.906 160.502, 86.011 148.705 C 78.353 133.380, 85.547 121.689, 103.523 120.246 C 107.085 119.960, 110 119.408, 110 119.020 C 110 118.631, 109.096 115.684, 107.990 112.472 C 106.749 108.863, 106.356 106.398, 106.964 106.022 C 107.504 105.688, 110.250 101.384, 113.064 96.457 L 118.182 87.500 117.588 101.500 C 117.261 109.200, 116.640 117.075, 116.209 119 L 115.425 122.500 107.282 123.033 C 98.623 123.599, 95 125.420, 95 129.205 C 95 134.636, 102.345 141.951, 112.570 146.701 C 117.278 148.888, 119.978 149.460, 125.673 149.478 C 134.102 149.504, 137.281 147.761, 140.591 141.302 C 142.562 137.455, 142.719 135.100, 143.320 100.360 C 143.670 80.087, 143.554 60.125, 143.060 56 C 142.260 49.309, 142.379 48.150, 144.163 45.250 C 145.263 43.462, 146.377 42, 146.638 42 C 146.899 42, 147.100 54.038, 147.086 68.750 C 147.072 83.463, 147.123 97.300, 147.200 99.500 C 147.277 101.700, 146.977 108.023, 146.533 113.551 C 145.661 124.410, 146.884 134.879, 149.671 140.410 C 156.255 153.475, 166.155 151.514, 171.137 136.156 C 172.795 131.046, 173.404 126.177, 173.761 115.197 C 174.281 99.164, 173.372 85.652, 171.837 86.601 C 171.207 86.990, 171.062 85.625, 171.440 82.857 C 176.719 44.158, 176.838 26.649, 171.857 21.347 C 167.879 17.113, 164.478 18.317, 155.421 27.165 L 149.341 33.104 148.044 27.308 C 147.062 22.920, 145.835 20.600, 142.991 17.756 C 139.668 14.433, 138.674 14.003, 134.368 14.022 C 131.690 14.034, 127.589 14.911, 125.254 15.971 M 128.500 17.797 C 125.750 18.750, 122.387 20.310, 121.027 21.264 L 118.555 23 121.310 23 C 128.527 23, 136.567 30.168, 139.603 39.311 L 141.274 44.340 144.110 40.920 C 147.416 36.934, 147.488 36.295, 145.506 28.684 C 143.599 21.364, 141.640 18.419, 137.785 17.075 C 133.990 15.752, 134.525 15.710, 128.500 17.797 M 157.456 29.250 L 150.268 36.500 149.665 63.500 C 149.331 78.501, 149.467 92.500, 149.973 95 C 150.551 97.860, 150.496 102.051, 149.823 106.500 C 148.094 117.929, 149.168 132.502, 152.232 139.195 C 156.309 148.100, 160.905 149.131, 165.500 142.170 C 169.681 135.836, 171.336 126.313, 171.315 108.718 C 171.298 95.051, 171.069 92.771, 169.601 91.697 C 168.011 90.535, 168.041 89.304, 170.081 71.979 C 172.681 49.905, 173.127 29.986, 171.129 25.250 C 168.871 19.898, 165.854 20.781, 157.456 29.250 M 116.354 31.614 C 118.030 46.956, 120 69.779, 120 73.859 L 120 78.397 127.611 65.949 C 131.797 59.102, 136.138 52.212, 137.259 50.639 C 139.251 47.839, 139.257 47.656, 137.541 42.211 C 134.093 31.275, 129.607 26.881, 121.175 26.182 L 115.711 25.728 116.354 31.614 M 58 28.599 C 60.475 29.464, 67.331 31.993, 73.236 34.219 C 82.063 37.547, 84.242 38.044, 85.486 37.011 C 87.867 35.035, 87.313 34.025, 82.750 32.021 C 78.131 29.993, 70.199 28.444, 60 27.578 L 53.500 27.026 58 28.599 M 80.006 27.934 C 84.436 29.282, 88.740 31.879, 89.402 33.604 C 89.756 34.527, 89.364 36.321, 88.532 37.591 C 87.047 39.858, 87.150 39.970, 94.001 43.570 C 97.841 45.588, 102.571 48.997, 104.513 51.146 C 107.484 54.435, 107.871 55.372, 106.960 57.074 C 105.618 59.583, 103.139 60.524, 95.615 61.380 C 92.378 61.748, 89.283 62.325, 88.736 62.663 C 87.630 63.347, 97.629 70, 99.763 70 C 100.508 70, 100.848 70.437, 100.518 70.971 C 100.188 71.504, 100.612 73.282, 101.459 74.921 C 103.419 78.712, 103.423 83.903, 101.468 88.789 C 100.002 92.451, 100.050 92.868, 102.570 98.373 C 104.020 101.538, 105.342 103.987, 105.510 103.814 C 105.677 103.641, 108.507 98.751, 111.799 92.947 L 117.783 82.395 116.907 69.447 C 115.845 53.745, 114.111 34.678, 113.342 30.250 L 112.777 27 95.139 27.086 C 85.373 27.134, 78.619 27.512, 80.006 27.934 M 47.798 50.081 C 43.563 50.530, 38.174 51.415, 35.824 52.047 C 31.908 53.102, 31.705 53.311, 33.394 54.546 C 36.944 57.142, 59.216 60.970, 70.898 60.992 L 75.296 61 71.898 58.716 C 67.962 56.070, 66.994 52.478, 69.670 50.451 C 71.276 49.233, 70.522 49.076, 63.500 49.165 C 59.100 49.220, 52.034 49.633, 47.798 50.081 M 138.058 54.228 C 137.265 55.478, 133.176 62.166, 128.972 69.091 L 121.327 81.682 120.646 98.091 C 120.272 107.116, 119.402 116.975, 118.714 120 L 117.461 125.500 108.981 126 C 104.316 126.275, 99.938 126.864, 99.250 127.309 C 95.220 129.917, 101.869 138.333, 111.837 143.240 C 117.444 146.001, 119.556 146.500, 125.624 146.500 C 131.384 146.500, 133.223 146.108, 134.997 144.502 C 140.031 139.947, 140.104 139.350, 140.572 98.672 C 140.814 77.677, 140.671 58.578, 140.256 56.228 C 139.517 52.050, 139.468 52.006, 138.058 54.228 M 80.500 64 C 83.249 65.181, 84.828 65.181, 83 64 C 82.175 63.467, 80.825 63.055, 80 63.086 C 79.011 63.122, 79.181 63.433, 80.500 64 M 53.317 66.228 C 38.080 71.126, 42.946 93.821, 61.189 102.936 C 71.944 108.311, 83.663 106.510, 91.692 98.249 C 94.062 95.811, 96 93.250, 96 92.558 C 96 90.882, 90.277 83.044, 88.576 82.391 C 87.837 82.107, 85.043 83.211, 82.366 84.843 C 75.605 88.967, 69.904 90.554, 67.147 89.079 C 62.387 86.531, 65.931 78.445, 73.057 75.594 C 76.403 74.255, 77.894 74.162, 81.320 75.078 C 83.619 75.693, 86.040 76.638, 86.701 77.180 C 87.536 77.864, 88.984 77.300, 91.451 75.332 C 93.403 73.774, 95 72.228, 95 71.896 C 95 71.126, 82.176 67.329, 75.114 66.008 C 68.430 64.757, 57.548 64.867, 53.317 66.228 M 93.864 76.822 L 90.228 79.564 92.519 82.227 C 93.779 83.692, 95.540 85.928, 96.433 87.195 C 97.808 89.147, 98.203 89.270, 99.013 88 C 100.393 85.836, 100.218 77.670, 98.750 75.731 C 97.611 74.226, 97.176 74.324, 93.864 76.822 M 71.898 79.282 C 67.822 82.020, 66.524 87, 69.887 87 C 72.327 87, 76.160 85.393, 81.423 82.163 L 85.347 79.756 82.923 78.413 C 79.342 76.430, 75.720 76.715, 71.898 79.282 M 93.734 99.882 C 91.711 102.017, 88.130 104.716, 85.778 105.881 C 80.908 108.291, 81.909 108.448, 92.311 106.900 C 102.249 105.422, 102.477 105.233, 100.446 100.157 C 99.531 97.871, 98.474 96, 98.097 96 C 97.721 96, 95.757 97.747, 93.734 99.882 M 96 109.063 C 94.075 109.536, 80.350 110.841, 65.500 111.964 C 37.762 114.061, 28 115.405, 28 117.126 C 28 118.548, 37.307 122.567, 45.890 124.852 C 49.955 125.934, 54.425 127.673, 55.822 128.717 C 59.373 131.368, 64.096 140.305, 68.002 151.763 C 78.437 182.379, 87.897 189.709, 109.821 184.165 C 118.026 182.090, 118.031 182.090, 125.674 184.045 C 142.708 188.401, 163.802 184.337, 169.530 175.594 C 171.674 172.322, 170.444 170.197, 165.660 168.909 C 160.457 167.507, 152.531 168.321, 139.017 171.645 C 124.452 175.226, 114.044 174.773, 104.649 170.148 C 95.951 165.866, 88.111 158.562, 84.065 150.971 C 75.417 134.745, 81.672 121.328, 99.500 117.862 C 102.800 117.220, 105.644 116.583, 105.819 116.445 C 105.995 116.307, 105.586 114.351, 104.911 112.097 C 103.584 107.667, 102.792 107.397, 96 109.063" stroke="none" fill="black" fill-rule="evenodd"/>
</svg>