<svg xmlns="http://www.w3.org/2000/svg" width="200" height="200" viewBox="0 0 200 200" version="1.1">
	<path d="M 98.455 9.455 C 97.105 10.805, 96 12.532, 96 13.294 C 96 14.437, 94.564 14.360, 87.750 12.849 C 73.627 9.719, 65 10.407, 65 14.665 C 65 16.780, 73.350 25.309, 79.691 29.673 L 85.254 33.500 59.877 34.109 C 45.920 34.443, 33.849 34.781, 33.054 34.859 C 30.675 35.091, 37.570 41.458, 43.324 44.342 C 51.247 48.314, 59.328 50, 70.460 50.004 L 80.500 50.007 77.439 51.874 C 72.986 54.589, 67.498 61.395, 66.161 65.858 C 61.943 79.934, 68.183 93.879, 80.852 98.691 C 84.219 99.970, 83.808 100.019, 75.500 99.325 C 60.306 98.056, 26.987 98.392, 22.750 99.858 C 18.503 101.327, 17.870 103.668, 20.963 106.467 C 22.043 107.444, 30.406 111.087, 39.548 114.562 C 62.074 123.126, 64.694 125.031, 55.973 126.505 C 51.289 127.296, 49 130.621, 49 136.634 C 49 139.809, 49.754 141.094, 54.035 145.220 L 59.069 150.073 55.785 151.426 C 53.978 152.170, 47.111 153.980, 40.525 155.448 C 33.938 156.916, 28.374 158.292, 28.160 158.506 C 27.526 159.140, 32.035 165.939, 37.228 172.178 C 51.294 189.081, 71.425 195.331, 86.101 187.351 C 91.848 184.227, 97 178.060, 97 174.305 C 97 171.118, 92.778 167.036, 89.295 166.855 C 84.767 166.619, 79.741 167.068, 76.065 168.036 C 71.970 169.115, 71.690 169.417, 84.769 158.657 C 94.044 151.027, 99.713 147.379, 100.725 148.391 C 101.021 148.687, 102.559 153.783, 104.143 159.715 C 107.508 172.316, 114.968 188.278, 118.607 190.662 C 122.438 193.172, 134.706 193.653, 141.147 191.547 C 152.479 187.840, 160.426 179.578, 164.127 167.657 C 169.230 151.219, 163.418 134.576, 149.145 124.756 L 144.600 121.629 149.550 120.490 C 158.796 118.364, 169.692 111.430, 172.589 105.828 C 174.780 101.592, 174.049 97.106, 170.771 94.669 C 168.579 93.040, 165.924 92.527, 157.271 92.060 C 149.161 91.623, 145.824 91.024, 143.762 89.633 L 141.024 87.785 143.012 85.258 C 144.105 83.868, 145 81.656, 145 80.343 C 145 76.888, 138.310 70.116, 127.753 62.885 C 118.608 56.622, 111 49.862, 111 48 C 111 46.672, 135.628 46.698, 143.500 48.033 C 146.800 48.593, 150.175 49.152, 151 49.275 C 151.825 49.399, 152.646 49.050, 152.824 48.500 C 153.418 46.671, 144.648 44.911, 131.938 44.309 L 119.376 43.715 121.688 41.403 C 122.960 40.131, 124 38.680, 124 38.177 C 124 37.206, 132.839 34.560, 139.500 33.537 C 142.676 33.049, 145.352 33.652, 152.493 36.461 C 157.439 38.408, 161.602 40, 161.743 40 C 161.884 40, 162 39.358, 162 38.574 C 162 37.139, 152.770 33.286, 130.706 25.509 C 123.757 23.059, 119.542 21.013, 118.874 19.764 C 117.096 16.441, 110.782 9.939, 107.875 8.435 C 103.885 6.372, 101.252 6.657, 98.455 9.455 M 100.200 11.200 C 97.315 14.085, 98.903 15.612, 107.458 18.177 C 117.066 21.057, 117.465 20.363, 110.050 13.664 C 105.921 9.933, 102.358 9.042, 100.200 11.200 M 68.518 13.971 C 66.755 16.824, 86.883 33.009, 92.175 32.993 C 94.405 32.987, 94.503 32.664, 94.570 25.108 L 94.641 17.230 87.345 15.626 C 76.029 13.140, 69.392 12.557, 68.518 13.971 M 97.552 18.781 C 97.248 19.085, 97 22.408, 97 26.167 L 97 33 109 33 C 116.582 33, 121 32.620, 121 31.968 C 121 30.684, 118.243 24, 117.714 24 C 117.500 24, 113.001 22.702, 107.715 21.115 C 102.429 19.528, 97.856 18.478, 97.552 18.781 M 123.150 29 C 124.130 31.813, 124.517 31.999, 129.348 31.985 C 137.517 31.960, 137.802 30.652, 130.173 28.195 C 126.425 26.988, 123.076 26, 122.731 26 C 122.386 26, 122.575 27.350, 123.150 29 M 107.500 35.944 L 97.500 36.500 101.500 38.315 C 107.088 40.850, 110.756 41.447, 112.394 40.088 C 113.163 39.450, 115.527 38.061, 117.646 37.003 C 119.924 35.866, 120.682 35.143, 119.500 35.234 C 118.400 35.318, 113 35.638, 107.500 35.944 M 55.500 36.965 L 37.500 37.500 40.582 39.698 C 49.350 45.953, 64.209 48.522, 83.350 47.094 C 89.822 46.611, 95.302 46.031, 95.528 45.805 C 95.754 45.580, 95.676 43.780, 95.356 41.806 C 94.581 37.029, 91.938 35.947, 81.703 36.215 C 77.191 36.333, 65.400 36.671, 55.500 36.965 M 117 40.500 C 115.625 41.286, 114.976 41.945, 115.559 41.965 C 116.141 41.984, 117.491 41.339, 118.559 40.532 C 121.028 38.664, 120.239 38.648, 117 40.500 M 98.015 41.758 C 98.046 45.281, 99.319 45.935, 104.527 45.105 C 108.349 44.496, 109.037 44.138, 107.500 43.558 C 97.635 39.839, 97.999 39.909, 98.015 41.758 M 99.646 48.687 C 99.047 49.287, 104.366 51.713, 110.500 53.638 C 112.419 54.240, 112.429 54.186, 110.750 52.304 C 109.787 51.225, 109 49.815, 109 49.171 C 109 47.910, 100.845 47.488, 99.646 48.687 M 85.086 52.064 C 74.781 54.136, 67.625 63.343, 67.625 74.527 C 67.625 90.744, 80.316 100.058, 98.354 97.079 C 102.176 96.447, 105.627 95.731, 106.023 95.486 C 106.419 95.241, 106.077 92.644, 105.262 89.715 C 104.065 85.415, 103.195 84.132, 100.739 83.045 C 96.276 81.069, 90.414 74.784, 88.979 70.436 C 87.812 66.899, 87.886 66.511, 90.065 64.747 C 91.805 63.337, 93.270 63.016, 95.795 63.489 C 99.137 64.116, 99.178 64.081, 98.593 61.063 C 98.267 59.378, 97.739 56.650, 97.421 55 C 97.054 53.104, 96.226 51.995, 95.171 51.986 C 94.252 51.979, 92.600 51.793, 91.500 51.574 C 90.400 51.355, 87.514 51.576, 85.086 52.064 M 100 53.856 C 100 54.401, 100.538 57.176, 101.195 60.022 C 102.339 64.981, 102.616 65.298, 107.819 67.599 C 110.805 68.919, 113.440 70, 113.674 70 C 113.908 70, 113.965 67.412, 113.800 64.250 C 113.500 58.509, 113.493 58.497, 109 56.373 C 102.846 53.465, 100 52.669, 100 53.856 M 117 65.950 C 117 69.828, 117.348 73, 117.774 73 C 118.200 73, 123.034 75.896, 128.516 79.436 C 137.754 85.400, 138.613 85.755, 140.242 84.281 C 144.591 80.345, 140.929 75.119, 127.276 65.775 C 123.037 62.874, 118.991 60.140, 118.285 59.700 C 117.284 59.078, 117 60.461, 117 65.950 M 91.371 67.475 C 90.592 69.505, 94.478 75.500, 98.622 78.661 C 100.510 80.101, 102.227 81.104, 102.439 80.889 C 102.650 80.675, 102.150 77.505, 101.328 73.845 C 100.136 68.540, 99.393 67.071, 97.666 66.608 C 94.049 65.638, 91.966 65.925, 91.371 67.475 M 103.356 70.651 C 103.660 71.668, 104.433 74.638, 105.073 77.250 C 106.362 82.508, 107.847 83.154, 110.961 79.811 C 115.038 75.435, 113.085 71.978, 105.151 69.528 C 103.179 68.919, 102.891 69.099, 103.356 70.651 M 115.432 77.415 C 114.823 79.843, 110.486 84.338, 107.932 85.189 C 106.137 85.788, 108.916 94.004, 110.908 93.985 C 115.418 93.943, 135 88.387, 135 87.150 C 135 86.770, 131.738 84.470, 127.750 82.037 C 123.763 79.604, 119.506 76.986, 118.291 76.219 C 116.247 74.928, 116.034 75.017, 115.432 77.415 M 136 90.026 C 134.022 91.337, 122.971 94.608, 115.750 96.019 C 112.588 96.636, 110 97.503, 110 97.945 C 110 98.387, 117.313 98.693, 126.250 98.624 C 141.859 98.505, 142.500 98.579, 142.500 100.494 C 142.500 102.129, 140.879 102.998, 133.500 105.316 C 128.550 106.872, 123.921 108.450, 123.214 108.822 C 122.507 109.195, 120.859 111.823, 119.551 114.661 L 117.174 119.822 124.337 124.566 C 136.678 132.739, 143.251 138.149, 142.164 139.236 C 141.503 139.897, 140.393 139.688, 138.862 138.616 C 135.860 136.513, 134.005 136.564, 133.982 138.750 C 133.972 139.713, 135.169 145.950, 136.642 152.611 C 138.116 159.271, 139.038 165.459, 138.692 166.361 C 137.612 169.175, 134.949 168.178, 130.375 163.250 C 126.408 158.975, 125.408 156.784, 120.376 141.335 L 114.784 124.171 110.220 126.598 C 105.656 129.025, 103.873 129.045, 99.165 126.723 C 96.752 125.533, 94 121.216, 94 118.621 C 94 113.947, 101.424 112.648, 108.857 116.021 C 111.706 117.314, 113.056 117.566, 112.760 116.749 C 112.511 116.062, 111.508 112.503, 110.530 108.840 L 108.752 102.181 88.126 102.022 C 76.782 101.935, 58.500 101.781, 47.500 101.682 C 26.038 101.487, 20.678 102.110, 23.094 104.518 C 23.867 105.288, 31.502 108.581, 40.059 111.835 C 57.396 118.427, 61.019 120.114, 63.015 122.518 C 65.016 124.929, 63.149 127.224, 57.966 128.725 C 52.871 130.200, 52.036 131.245, 52.015 136.172 C 52.002 139.351, 52.691 140.449, 57.139 144.340 C 65.011 151.227, 63.226 152.898, 42.921 157.651 L 32.008 160.205 33.754 163.327 C 37 169.131, 50.169 181.343, 56.500 184.420 C 64.941 188.522, 75.456 189.150, 82.801 185.990 C 89.251 183.215, 94.238 177.862, 93.807 174.174 C 93.159 168.628, 84.790 167.772, 72.514 171.995 C 60.694 176.062, 64.329 171.520, 87.935 152.729 C 101.725 141.751, 102.522 142.054, 107.072 160 C 110.020 171.628, 117.455 186.963, 121 188.727 C 122.375 189.411, 126.875 189.977, 131 189.984 C 144.005 190.009, 154.042 183.527, 160.186 171.136 C 162.141 167.192, 162.485 164.934, 162.492 156 C 162.499 146.320, 162.278 145.099, 159.652 140.362 C 155.740 133.304, 149.703 127.663, 141.816 123.695 C 138.159 121.855, 135.466 119.933, 135.833 119.425 C 136.200 118.916, 139.536 118.431, 143.247 118.346 C 148.403 118.228, 151.478 117.497, 156.294 115.243 C 168.141 109.699, 173.823 102.475, 170.027 97.783 C 168.348 95.707, 167.199 95.468, 157.379 95.153 C 147.379 94.832, 146.265 94.591, 142.359 91.903 C 137.548 88.593, 137.971 88.718, 136 90.026 M 105.813 98.683 C 106.534 98.972, 107.397 98.936, 107.729 98.604 C 108.061 98.272, 107.471 98.036, 106.417 98.079 C 105.252 98.127, 105.015 98.364, 105.813 98.683 M 113.079 101.930 C 111.862 102.700, 111.917 103.789, 113.459 109.485 C 115.377 116.571, 116.155 116.744, 118.294 110.564 C 119.577 106.859, 119.989 106.575, 127.070 104.519 C 138.354 101.242, 138.330 101.162, 126 101.094 C 119.675 101.059, 113.860 101.435, 113.079 101.930 M 97 118.777 C 97 124.077, 103.592 127.296, 108.864 124.571 C 113.507 122.170, 113.498 121.128, 108.820 119.004 C 103.149 116.431, 97 116.313, 97 118.777 M 118.503 126.164 C 125.318 149.173, 128.300 156.822, 132.106 161.055 L 136.103 165.500 135.692 162.500 C 135.466 160.850, 134.299 154.837, 133.099 149.138 C 131.152 139.895, 131.075 138.534, 132.386 136.534 C 133.795 134.383, 133.622 134.128, 128.178 130.302 C 125.055 128.108, 121.445 125.754, 120.155 125.071 C 117.959 123.907, 117.854 123.976, 118.503 126.164" stroke="none" fill="black" fill-rule="evenodd"/>
</svg>