<svg xmlns="http://www.w3.org/2000/svg" width="200" height="200" viewBox="0 0 200 200" version="1.1">
	<path d="M 105 8.701 C 103.075 8.911, 94.623 10.189, 86.217 11.541 C 77.812 12.893, 68.233 14, 64.932 14 C 58.353 14, 54 16.006, 54 19.037 C 54 21.217, 60.640 27.080, 67.500 30.957 C 72.482 33.772, 72.541 33.780, 83.500 32.901 C 89.550 32.416, 96.863 31.493, 99.752 30.850 C 103.838 29.940, 105.604 29.954, 107.704 30.911 L 110.404 32.141 107.452 33.954 C 105.519 35.141, 100.530 36.194, 93 37.004 C 80.707 38.326, 56.618 38.648, 53.118 37.537 C 51.601 37.056, 51 37.292, 51 38.371 C 51 39.397, 52.483 40.100, 55.647 40.574 C 60.466 41.297, 88.737 40.524, 97.500 39.430 L 102.500 38.805 98 42.860 C 95.511 45.103, 91.964 47.223, 90.064 47.604 C 88.174 47.982, 77.374 48.339, 66.064 48.396 C 47.036 48.492, 45.239 48.347, 42 46.451 C 39.126 44.769, 38.444 43.729, 38.186 40.639 C 37.856 36.686, 35.749 35.983, 35.205 39.644 C 34.601 43.702, 36.870 47.052, 41.746 49.304 C 46.121 51.325, 47.941 51.491, 64.596 51.390 C 74.549 51.330, 84.437 50.953, 86.569 50.553 L 90.446 49.826 85.973 54.678 L 81.500 59.530 76.148 56.765 C 66.606 51.835, 57.909 53.557, 53.106 61.329 C 50.602 65.380, 47.618 78.344, 48.438 81.609 C 49.261 84.889, 58.017 92.245, 63.597 94.345 C 70.584 96.975, 83.789 97.549, 93 95.623 C 97.125 94.761, 103.858 92.355, 107.963 90.277 C 125.540 81.381, 126.685 68.927, 110.890 58.427 C 107.228 55.992, 103.729 54, 103.116 54 C 101.486 54, 101.751 52.910, 103.750 51.392 C 105.916 49.748, 118.904 49.568, 124.441 51.105 C 127.854 52.053, 128.556 51.960, 129.691 50.408 C 132.947 45.955, 128.887 39.261, 119.775 34.056 L 114.893 31.268 121.697 26.277 C 131.069 19.402, 137.745 15.688, 139.512 16.366 C 141.461 17.114, 141.439 22.589, 139.433 36.576 C 137.749 48.312, 138.072 55.772, 140.675 65.228 C 144.085 77.617, 140.403 87.858, 130.754 92.824 C 121.984 97.337, 116.213 98.107, 84.500 98.998 C 31.716 100.480, 19.029 102.850, 25.516 110.017 C 27.469 112.176, 38.937 116.436, 54 120.599 L 64.500 123.500 59.825 124 L 55.151 124.500 57.784 129.835 C 59.313 132.933, 62.900 137.470, 66.340 140.654 C 69.597 143.670, 71.866 146.493, 71.381 146.929 C 70.897 147.364, 65.012 149.877, 58.304 152.514 L 46.108 157.308 47.472 159.946 C 50.413 165.633, 58.631 175.467, 63.930 179.639 C 72.537 186.415, 78.573 188.400, 90.500 188.376 C 101.566 188.353, 108.186 186.560, 124.128 179.266 L 132.500 175.435 140.500 177.816 C 150.794 180.879, 162.354 181.279, 166.149 178.701 C 174.465 173.054, 172.055 161.575, 158.224 140.945 C 149.388 127.766, 143.413 122, 138.595 122 C 133.816 122, 131.889 124.812, 127.426 138.302 C 122.858 152.107, 120.151 157.572, 115.839 161.689 C 111.762 165.582, 108.216 167, 102.560 167 C 97.513 167, 91.993 166.018, 92.017 165.125 C 92.026 164.781, 95.333 160.404, 99.365 155.398 C 113.253 138.155, 116.272 127.550, 110.072 117.775 C 106.568 112.249, 106.766 112.087, 118.035 111.282 C 123.847 110.867, 128.732 111.365, 139.398 113.462 C 155.093 116.547, 158.711 116.320, 162.326 112.024 C 166.778 106.734, 167.339 101.277, 167.423 62.500 L 167.500 26.500 164.500 20.545 C 159.741 11.098, 156.250 9.574, 142.500 10.941 C 140.850 11.105, 137.700 10.530, 135.500 9.664 C 131.669 8.154, 114.889 7.625, 105 8.701 M 110.999 11.013 C 106.323 11.444, 97.647 12.518, 91.718 13.399 C 85.790 14.279, 80.477 15, 79.911 15 C 77.446 15, 80.286 16.785, 83.609 17.324 C 91.580 18.618, 102.166 22.394, 104.299 24.705 C 105.510 26.016, 107.760 27.767, 109.300 28.596 C 112.034 30.067, 112.267 29.977, 119.300 24.700 C 123.260 21.729, 128.952 17.904, 131.949 16.200 C 137.190 13.220, 137.305 13.067, 134.949 12.183 C 130.992 10.699, 120.143 10.168, 110.999 11.013 M 143.860 13.668 C 142.479 14.035, 142.383 14.639, 143.256 17.481 C 144.023 19.981, 143.864 24.057, 142.643 33.179 C 140.494 49.243, 140.566 53.902, 143.118 63.993 C 146.315 76.638, 144.907 83.939, 137.923 90.923 C 133.788 95.058, 130.447 96.699, 121.192 99.140 C 114.678 100.858, 108.598 101.300, 81.500 102.024 C 50.270 102.859, 33.359 104.153, 28.238 106.100 C 25.794 107.029, 25.771 107.115, 27.602 108.526 C 28.646 109.331, 35.125 111.759, 42 113.922 C 48.875 116.084, 58.550 119.124, 63.500 120.677 C 69.880 122.678, 72.594 124.009, 72.823 125.250 C 73.105 126.772, 72.290 127, 66.573 127 C 62.958 127, 60 127.373, 60 127.829 C 60 129.973, 66.403 137.950, 70.466 140.868 C 74.998 144.123, 76.120 146.829, 73.750 148.789 C 73.063 149.357, 67.775 151.697, 62 153.987 C 56.225 156.278, 51.182 158.459, 50.793 158.833 C 49.547 160.033, 59.729 172.758, 65.713 177.477 C 80.008 188.755, 96.443 188.681, 121.503 177.226 L 132.279 172.301 139.889 174.797 C 145.337 176.585, 149.868 177.323, 155.834 177.397 C 163.568 177.493, 164.313 177.321, 166.188 175.011 C 169.194 171.307, 168.279 163.752, 163.784 155.146 C 156.581 141.356, 142.576 124, 138.652 124 C 136.071 124, 133.936 127.783, 130.133 139.098 C 125.530 152.791, 123.057 157.825, 118.393 162.987 C 113.268 168.660, 107.828 170.441, 98.274 169.576 C 94.029 169.191, 89.990 168.407, 89.299 167.833 C 87.650 166.464, 88.754 164.370, 95.539 156 C 108.221 140.354, 112.287 131.248, 110.002 123.602 C 109.265 121.135, 107.186 118.028, 104.785 115.808 L 100.793 112.116 106.646 110.337 C 114.730 107.880, 128.806 108.092, 140.953 110.852 C 152.719 113.525, 156.039 113.544, 159.331 110.955 C 164.258 107.078, 164.447 105.115, 165.199 50 C 165.492 28.437, 164.220 22.020, 158.520 16.320 C 155.620 13.420, 154.586 13.015, 150.350 13.116 C 147.683 13.180, 144.762 13.428, 143.860 13.668 M 57 19.443 C 57 21.070, 71.568 31, 73.954 30.999 C 79.241 30.996, 97.636 28.764, 98.363 28.037 C 99.375 27.025, 83.295 21.898, 71.792 19.564 C 61.933 17.564, 57 17.523, 57 19.443 M 113.250 35.162 C 116.915 36.501, 116.758 39.055, 112.750 43.301 L 109.500 46.745 117.046 47.325 C 121.196 47.645, 125.358 48.200, 126.296 48.560 C 127.620 49.068, 128 48.659, 128 46.723 C 128 42.687, 117.053 33.870, 112.300 34.079 C 111.105 34.131, 111.425 34.496, 113.250 35.162 M 102.473 42.455 L 97.500 46.910 101.247 46.955 C 104.183 46.990, 105.860 46.218, 108.997 43.384 C 113.724 39.113, 113.977 38, 110.223 38 C 108.346 38, 105.833 39.445, 102.473 42.455 M 88.695 55.803 L 82.952 61.606 85.467 63.969 C 88.456 66.777, 92 73.746, 92 76.816 C 92 80.412, 88.549 83, 83.750 83.003 C 79.339 83.006, 65 79.212, 65 78.042 C 65 77.675, 68.207 73.894, 72.127 69.640 C 78.867 62.326, 79.152 61.827, 77.377 60.460 C 76.345 59.665, 73.174 58.315, 70.331 57.460 C 65.797 56.096, 64.741 56.081, 61.730 57.340 C 57.285 59.197, 54.409 63.333, 52.519 70.587 C 50.343 78.944, 50.576 81.335, 53.918 84.912 C 64.015 95.721, 89.726 97.126, 107.182 87.822 C 114.879 83.720, 119 79.045, 119 74.416 C 119 67.402, 115.024 63.069, 103.040 57.020 L 96.579 53.759 98.901 51.879 L 101.222 50 97.829 50 C 95.023 50, 93.446 51.001, 88.695 55.803 M 74.611 70.598 L 68.723 76.944 71.611 78.110 C 73.200 78.752, 77.650 79.327, 81.500 79.388 L 88.500 79.500 88.802 76.396 C 89.024 74.125, 88.220 72.136, 85.802 68.975 C 83.986 66.600, 82.050 64.566, 81.500 64.454 C 80.950 64.343, 77.850 67.107, 74.611 70.598" stroke="none" fill="black" fill-rule="evenodd"/>
</svg>