<svg xmlns="http://www.w3.org/2000/svg" width="200" height="200" viewBox="0 0 200 200" version="1.1">
	<path d="M 105 8.085 C 100.325 8.607, 91.319 9.903, 84.987 10.964 C 76.141 12.447, 72.455 12.665, 69.070 11.904 C 63.835 10.728, 59.983 11.413, 56.929 14.061 C 55.700 15.128, 54.100 16, 53.374 16 C 51.678 16, 43 20.200, 43 21.021 C 43 21.806, 73.297 31.484, 82 33.480 C 100.916 37.818, 107.306 33.029, 94.744 23.929 C 89.853 20.386, 90.183 20.333, 98.240 23.366 C 112.200 28.620, 126.087 37.477, 127.958 42.319 C 129.179 45.476, 127.358 46.834, 121 47.510 C 113.472 48.309, 112.593 47.551, 114.178 41.624 C 115.513 36.632, 114.716 33.782, 111.824 33.212 C 111.020 33.053, 106.882 34.673, 102.627 36.811 L 94.891 40.699 87.195 38.779 C 77.293 36.307, 57.994 35.322, 51.238 36.943 C 45.214 38.388, 41.493 41.842, 42.337 45.205 C 43.237 48.792, 48.404 51.224, 56.326 51.791 C 63.127 52.278, 63.287 52.349, 61.256 53.994 C 54.830 59.197, 53.446 67.120, 57.458 75.737 C 62.741 87.086, 74.517 94.775, 88.500 96.007 C 93.564 96.454, 84.663 96.765, 64.250 96.856 C 42.685 96.952, 32 97.345, 32 98.040 C 32 100.718, 36.391 107.166, 41.092 111.393 C 50.429 119.787, 66.387 126.964, 84.484 130.908 L 92.467 132.648 86.008 133.919 C 74.797 136.124, 69.013 140.316, 70.541 145.129 C 71.569 148.369, 77.512 150.269, 86.666 150.285 L 94.833 150.300 89.432 155.236 C 82.621 161.461, 81.019 166.142, 83.486 172.603 C 86.299 179.967, 95.818 186.464, 107.700 189.129 C 111.672 190.020, 112.971 190.774, 113.200 192.320 C 113.650 195.357, 115.855 195.510, 116.969 192.581 C 117.846 190.276, 118.491 190, 123.007 190 C 133.012 190, 145.487 184.085, 151.905 176.299 L 154.964 172.588 144.174 167.453 C 131.973 161.646, 126 156.596, 126 152.087 L 126 149.241 138.250 148.725 C 144.988 148.442, 152.126 147.708, 154.114 147.095 C 162.470 144.519, 165.565 137.474, 160.545 132.455 C 159.195 131.105, 157.394 130, 156.543 130 C 155.143 130, 147.733 122.684, 137.552 111.250 L 133.767 107 138.353 107 C 142.806 107, 143.038 107.156, 146.381 112.382 C 155.933 127.313, 163.529 122.732, 166.913 100 C 168.431 89.797, 169.969 61.677, 169.986 43.788 C 169.998 31.372, 169.679 28.218, 167.946 23.586 C 165.368 16.696, 161.134 12, 157.500 12 C 154.109 12, 149.527 16.718, 146.406 23.423 L 144.115 28.346 143.437 23.240 C 142.508 16.233, 139.840 12.259, 134.468 9.883 C 129.018 7.472, 117.033 6.741, 105 8.085 M 108 10.573 C 106.625 10.805, 99.763 11.735, 92.750 12.640 C 85.737 13.545, 80.006 14.558, 80.012 14.893 C 80.019 15.227, 84.156 16.501, 89.206 17.724 C 108.843 22.481, 131 36.347, 131 43.878 C 131 48.410, 127.966 50, 119.316 50 L 112.077 50 110.927 54.250 C 108.956 61.536, 109.409 71.825, 111.960 77.719 C 113.203 80.589, 114.850 83.461, 115.622 84.101 C 116.715 85.008, 116.763 85.581, 115.841 86.692 C 114.892 87.835, 115.236 88.685, 117.578 90.976 C 120.284 93.622, 120.751 93.747, 123.895 92.667 L 127.291 91.500 130.971 75 C 132.996 65.925, 136.131 53.329, 137.939 47.010 C 140.767 37.125, 141.166 34.381, 140.798 27.367 C 140.083 13.741, 136.591 10.825, 120.500 10.410 C 115 10.268, 109.375 10.341, 108 10.573 M 152.561 18.331 C 151.116 20.225, 148.374 25.645, 146.467 30.373 C 143.531 37.653, 143 40.179, 143 46.855 C 143 56.147, 145.110 69.124, 147.972 77.428 L 150.015 83.356 147.983 85.518 C 146.071 87.553, 141.233 90.065, 132.871 93.365 C 129.789 94.581, 129.179 95.342, 128.819 98.422 C 128.211 103.635, 130.168 105, 138.254 105 L 144.850 105 148.675 110.669 C 150.779 113.787, 153.470 116.964, 154.656 117.729 C 156.577 118.967, 157.029 118.886, 158.804 116.980 C 163.328 112.125, 165.762 94.204, 166.897 57.403 C 167.631 33.573, 167.547 31.060, 165.844 26 C 162.108 14.900, 157.297 12.122, 152.561 18.331 M 63.914 17.392 C 63.591 17.729, 60.794 18.198, 57.698 18.434 C 47.424 19.215, 47.897 20.321, 60.196 24.264 C 80.317 30.716, 94.752 33.798, 97.541 32.237 C 98.944 31.452, 98.576 30.793, 95.048 27.773 C 87.646 21.437, 79.761 17.902, 71.710 17.308 C 67.744 17.016, 64.236 17.054, 63.914 17.392 M 102.430 39.883 L 95.360 43.737 88.397 41.969 C 78.780 39.527, 63.622 37.802, 58.100 38.522 C 45.665 40.143, 41.277 44.471, 48.750 47.744 C 53.646 49.889, 69.729 49.821, 80 47.614 C 84.125 46.727, 88.100 46.001, 88.833 46.001 C 91.012 45.999, 89.552 48.389, 86.926 49.123 L 84.500 49.801 87.125 49.900 C 95.022 50.200, 95.753 50.763, 96.916 57.440 C 97.512 60.863, 98.008 65.652, 98.018 68.082 C 98.035 72.302, 98.376 72.810, 105.617 79.412 L 113.198 86.324 110.376 80.912 C 107.866 76.099, 107.551 74.448, 107.527 66 C 107.512 60.775, 107.725 54.938, 108 53.030 C 108.418 50.126, 108.173 49.507, 106.500 49.241 C 101.537 48.450, 100 47.885, 100 46.852 C 100 46.100, 101.595 45.954, 104.945 46.398 L 109.891 47.054 110.940 43.277 C 112.331 38.268, 112.272 35.997, 110.750 36.014 C 110.063 36.022, 106.318 37.763, 102.430 39.883 M 136.685 62.282 C 131.422 84.054, 130.131 91.001, 131.349 90.990 C 133.072 90.976, 143.248 86.085, 145.165 84.351 C 146.725 82.939, 146.705 82.458, 144.870 77.169 C 143.788 74.051, 142.225 67.013, 141.397 61.529 C 140.568 56.044, 139.780 51.446, 139.644 51.310 C 139.508 51.174, 138.176 56.112, 136.685 62.282 M 70.718 53.025 C 61.593 55.335, 57.992 59.351, 58.009 67.200 C 58.016 70.120, 58.966 73.151, 60.969 76.644 C 69.544 91.595, 89.272 97.523, 105.332 89.974 L 110.150 87.709 104.356 81.855 C 101.170 78.635, 98.260 76, 97.890 76 C 97.520 76, 96.931 77.140, 96.581 78.534 C 95.682 82.115, 91.938 83.631, 88.010 82.004 C 81.294 79.222, 70.452 64.878, 71.182 59.739 C 71.903 54.662, 79.013 56.801, 89.179 65.155 C 91.753 67.270, 94.180 69, 94.573 69 C 95.494 69, 94.190 54.790, 93.175 53.775 C 91.946 52.546, 74.865 51.975, 70.718 53.025 M 74 60.938 C 74 63.827, 81.841 74.820, 85.840 77.537 C 90.203 80.502, 92.578 80.657, 93.965 78.066 C 95.873 74.500, 95.039 73.133, 87.256 67.064 C 78.250 60.042, 74 58.078, 74 60.938 M 109.394 91.006 C 108.840 91.560, 105.938 92.929, 102.944 94.050 L 97.500 96.087 105.991 95.454 C 110.661 95.105, 114.852 94.591, 115.306 94.311 C 116.327 93.680, 113.117 90, 111.545 90 C 110.915 90, 109.947 90.453, 109.394 91.006 M 124.203 95.854 C 123.154 96.518, 123.179 96.904, 124.331 97.859 C 125.474 98.808, 125.860 98.643, 126.284 97.021 C 126.850 94.858, 126.278 94.537, 124.203 95.854 M 108 98.250 C 104.425 98.798, 86.763 99.304, 68.752 99.373 C 42.487 99.475, 36.003 99.759, 36.002 100.810 C 36.001 101.530, 38.360 104.615, 41.245 107.666 C 51.517 118.526, 77.287 128.416, 101.898 130.942 C 107.416 131.508, 113.921 131.698, 116.353 131.365 L 120.774 130.759 121.437 125.763 C 121.802 123.015, 121.965 120.680, 121.800 120.575 C 121.635 120.470, 118.575 119.169, 115 117.685 C 107.186 114.439, 102 111.389, 102 110.038 C 102 107.624, 107.179 105.859, 115.915 105.293 C 125.925 104.644, 126.673 103.977, 122.195 99.687 C 119.174 96.793, 118.169 96.691, 108 98.250 M 108.250 108.706 C 104.696 109.390, 105.567 110.533, 111.750 113.300 C 123.102 118.380, 122.680 118.348, 123.370 114.180 C 124.416 107.848, 124.559 107.989, 117.250 108.136 C 113.537 108.211, 109.487 108.467, 108.250 108.706 M 126.188 113.250 C 125.272 117.713, 125.345 118.650, 126.676 119.500 C 133.203 123.670, 134.526 124.780, 134.826 126.333 C 135.348 129.047, 133.348 130.726, 127.942 132.112 C 125.224 132.808, 123 133.773, 123 134.256 C 123 134.739, 126.037 135.070, 129.750 134.991 C 133.463 134.913, 137.287 134.882, 138.250 134.924 C 141.307 135.057, 140.142 137.408, 135.596 140.280 C 126.758 145.863, 127.130 146.328, 140.016 145.794 C 152.169 145.292, 158.043 143.656, 159.855 140.271 C 161.229 137.704, 159.048 133.458, 156.438 133.621 C 155.155 133.700, 150.485 129.391, 142.623 120.871 C 136.091 113.792, 129.963 108, 129.006 108 C 127.709 108, 126.990 109.340, 126.188 113.250 M 124.627 122.707 C 124.282 123.051, 124 124.869, 124 126.746 C 124 130.070, 124.084 130.141, 127.250 129.474 C 131.104 128.662, 132.476 127.579, 131.549 126.080 C 130.575 124.503, 125.368 121.966, 124.627 122.707 M 89 136.102 C 80.773 137.326, 73.500 140.777, 73.500 143.456 C 73.500 146.624, 80.724 148.261, 91.434 147.519 C 102.507 146.752, 119 141.560, 119 138.840 C 119 137.893, 118.662 136.911, 118.250 136.657 C 116.550 135.614, 95.028 135.205, 89 136.102 M 122.001 138.769 C 122 139.642, 122.826 139.831, 124.645 139.374 C 127.121 138.753, 127.246 138.884, 126.605 141.436 L 125.921 144.162 129.711 141.386 C 131.795 139.859, 133.823 138.352, 134.219 138.036 C 134.614 137.721, 132.027 137.471, 128.470 137.481 C 123.921 137.494, 122.002 137.877, 122.001 138.769 M 121 144.500 C 121 145.325, 121.450 146, 122 146 C 122.550 146, 123 145.325, 123 144.500 C 123 143.675, 122.550 143, 122 143 C 121.450 143, 121 143.675, 121 144.500 M 106.842 148.429 C 97.057 150.982, 87.074 158.818, 85.483 165.197 C 83.319 173.870, 95.038 184.284, 109.700 186.715 C 112.469 187.174, 112.962 186.926, 113.362 184.873 C 113.897 182.121, 117.825 148.552, 117.630 148.394 C 116.498 147.470, 110.442 147.490, 106.842 148.429 M 120.731 150 C 119.679 153.999, 117.991 166.626, 118.099 169.692 C 118.153 171.236, 119.062 168, 120.118 162.500 C 121.174 157, 121.892 151.375, 121.714 150 L 121.389 147.500 120.731 150 M 123.587 159.114 C 123.301 160.427, 122.014 167.463, 120.727 174.750 C 118.073 189.776, 117.564 188.789, 127.040 186.992 C 134.329 185.610, 141.930 181.961, 146.928 177.446 L 151.116 173.663 146.278 171.581 C 138.448 168.213, 130.723 163.496, 127.299 159.995 L 124.106 156.729 123.587 159.114 M 117.195 175.500 C 117.215 177.150, 117.439 177.704, 117.693 176.731 C 117.947 175.758, 117.930 174.408, 117.656 173.731 C 117.382 173.054, 117.175 173.850, 117.195 175.500" stroke="none" fill="black" fill-rule="evenodd"/>
</svg>