<svg xmlns="http://www.w3.org/2000/svg" width="200" height="200" viewBox="0 0 200 200" version="1.1">
	<path d="M 76.836 6.959 C 66.624 8.905, 64.064 17.014, 71.466 23.968 C 73.507 25.886, 73.651 26.527, 72.718 29.567 C 71.762 32.682, 71.316 33, 67.905 33 C 61.665 33, 48.767 34.957, 44.338 36.577 C 38.988 38.532, 38.069 40.803, 41.451 43.711 C 43.841 45.767, 52.057 48.796, 59.750 50.457 C 62.341 51.017, 63 50.839, 63 49.579 C 63 48.711, 62.348 48, 61.552 48 C 58.689 48, 44.209 42.956, 43.045 41.554 C 42.055 40.361, 42.748 39.853, 47.178 38.528 C 50.105 37.652, 56.556 36.664, 61.514 36.332 L 70.527 35.729 70.181 44.115 C 69.867 51.725, 69.599 52.678, 67.290 54.426 C 61.421 58.869, 58.106 72.838, 61.060 80.685 C 62.674 84.974, 68.865 90.852, 75.124 94.039 C 78.217 95.613, 81.025 97.624, 81.364 98.507 C 81.921 99.959, 80.245 100.046, 63.740 99.422 C 37.143 98.417, 23.237 100.786, 12.482 108.152 C 9.218 110.387, 9.160 110.528, 11.277 111.090 C 12.499 111.414, 18.717 111.975, 25.093 112.335 C 43.550 113.379, 59 116.562, 59 119.320 C 59 119.870, 56.525 122.914, 53.500 126.085 C 50.225 129.518, 48 132.747, 48 134.066 C 48 135.322, 49.472 137.594, 51.403 139.319 L 54.806 142.358 51.036 145.089 C 36.897 155.331, 41.420 182.452, 58.450 189.548 C 63.803 191.779, 74.976 191.618, 82 189.211 C 86.467 187.680, 87.920 186.590, 89.734 183.413 C 93.011 177.671, 92.682 174.379, 88.429 170.368 C 86.465 168.516, 84.440 167, 83.929 167 C 82.140 167, 83.023 162.575, 85.533 158.952 C 87.654 155.892, 93.110 150.723, 103.277 142.141 C 104.676 140.960, 104.490 141.873, 102.400 146.437 C 95.347 161.843, 101.883 176.827, 119.234 185.033 C 127.348 188.871, 134.874 190.335, 143.599 189.775 C 154.894 189.050, 161 184.059, 161 175.550 L 161 172 152.750 171.986 C 143.871 171.972, 140 171.317, 140 169.831 C 140 169.317, 143.150 165.568, 147 161.500 C 156.498 151.466, 156.563 147.677, 147.294 144.490 L 143.569 143.210 147.757 141.955 C 152.559 140.516, 156.002 137.697, 155.995 135.211 C 155.988 132.755, 152.555 129.078, 144.081 122.449 C 137.755 117.500, 136.945 116.534, 138.581 115.893 C 141.740 114.654, 156.519 114.912, 172.929 116.490 C 181.416 117.307, 188.552 117.781, 188.788 117.545 C 189.609 116.724, 184.919 111.094, 178.727 105.466 C 174.014 101.184, 168.487 97.813, 156 91.606 L 139.500 83.405 141.758 79.323 L 144.017 75.241 135.258 72.527 C 115.285 66.338, 108.874 59.603, 114.901 51.138 C 117.091 48.063, 117.300 47.999, 125.318 47.974 C 137.677 47.935, 152.631 46.242, 156 44.500 C 158.104 43.412, 159 42.211, 159 40.481 C 159 37.181, 154.048 33.687, 137.590 25.373 C 130.390 21.736, 123.375 17.714, 122 16.434 C 118.061 12.768, 110.686 9.993, 102.259 9.006 C 97.992 8.507, 93.150 7.872, 91.500 7.596 C 84.904 6.493, 80.326 6.294, 76.836 6.959 M 75.686 10.017 C 69.486 11.878, 68.261 15.866, 72.409 20.689 L 74.817 23.489 78.828 18.933 C 81.034 16.427, 84.748 13.515, 87.082 12.463 C 91.070 10.665, 91.180 10.508, 88.913 9.874 C 85.563 8.937, 79.048 9.007, 75.686 10.017 M 92.994 12.934 C 88.216 14.387, 84.281 16.916, 81.026 20.623 C 77.901 24.182, 77.839 24.409, 79.628 25.718 C 85.853 30.273, 109.156 32.211, 115.689 28.717 C 119.858 26.487, 122.170 23.186, 121.040 21.075 C 120.057 19.239, 101.188 11.955, 97.753 12.086 C 96.514 12.133, 94.372 12.515, 92.994 12.934 M 124 23.927 C 124 26.053, 117.431 31.982, 115.022 32.030 C 113.817 32.054, 113.871 32.277, 115.281 33.097 C 116.552 33.837, 119.228 33.685, 124.638 32.567 C 134.402 30.548, 140 30.507, 140 32.456 C 140 33.257, 136.738 35.802, 132.750 38.112 C 119.846 45.588, 119.743 45.289, 135 44.630 C 154.852 43.771, 159.758 41.776, 153.250 37.205 C 150.111 35, 125.669 22, 124.663 22 C 124.298 22, 124 22.867, 124 23.927 M 75.607 29.582 C 74.544 32.353, 74.877 32.507, 81.187 32.152 L 87.377 31.803 81.977 29.902 C 79.007 28.856, 76.495 28, 76.395 28 C 76.296 28, 75.941 28.712, 75.607 29.582 M 124 35.386 C 120.625 36.099, 115.989 36.269, 112 35.825 C 108.425 35.428, 98.461 35.080, 89.857 35.051 C 71.934 34.993, 73 34.382, 73 44.698 L 73 51.233 75.750 50.623 C 88.764 47.734, 96.286 49.191, 102.995 55.900 C 106.114 59.019, 108.022 62.005, 108.901 65.148 L 110.201 69.789 123.287 76.023 L 136.373 82.257 138.226 79.969 C 140.473 77.194, 140.112 76.854, 132.500 74.582 C 124.448 72.179, 115.446 67.319, 112.449 63.757 C 109.330 60.050, 109.166 54.330, 112.073 50.635 L 114.145 48 95.073 48 C 78.786 48, 76 47.781, 76 46.500 C 76 45.214, 78.993 45, 96.941 45 C 110.041 45, 118.117 44.620, 118.510 43.984 C 118.855 43.425, 122.585 40.950, 126.798 38.484 C 134.958 33.707, 134.476 33.174, 124 35.386 M 80.085 52.926 C 79.060 53.575, 82.569 55.774, 92.835 60.917 C 100.626 64.820, 107 67.767, 107 67.467 C 107 65.977, 102.913 59.237, 100.834 57.298 C 95.983 52.773, 84.237 50.298, 80.085 52.926 M 73.013 55.750 C 73.038 59.072, 76.953 76.520, 79.637 85.269 C 82.878 95.836, 82.193 95.508, 101 95.480 C 113.294 95.462, 115.062 95.225, 120.795 92.828 C 127.185 90.157, 133.981 86.043, 133.993 84.839 C 133.999 84.282, 111.493 73, 110.377 73 C 110.170 73, 109.998 73.787, 109.996 74.750 C 109.990 77.762, 106.307 82.706, 103.557 83.396 C 97.490 84.919, 87.666 76.263, 79.490 62.192 C 74.798 54.117, 72.987 52.316, 73.013 55.750 M 67.127 58.566 C 65.052 61.204, 61.994 69.780, 62.006 72.932 C 62.030 79.749, 67.362 87.103, 75.169 91.086 C 78.719 92.897, 79.197 92.956, 78.645 91.516 C 76.654 86.329, 72.976 72.033, 71.899 65.293 C 71.214 61.007, 70.339 57.130, 69.955 56.679 C 69.571 56.227, 68.299 57.076, 67.127 58.566 M 80.615 59.250 C 87.099 70.305, 95.602 79.534, 100.241 80.553 C 102.786 81.112, 103.729 80.818, 105.192 79.011 C 106.187 77.783, 107 75.581, 107 74.117 C 107 71.723, 105.713 70.782, 94.145 64.728 C 80.770 57.728, 79.396 57.172, 80.615 59.250 M 134.405 88.109 C 131.632 91.179, 121.974 95.794, 114.760 97.494 C 107.843 99.125, 93.580 99.435, 87.750 98.081 C 84.263 97.272, 82.701 98.079, 85.002 99.501 C 87.421 100.996, 115.360 100.003, 127.918 97.976 C 148.538 94.647, 155.063 96.084, 148.306 102.466 C 146.763 103.923, 135.053 110.276, 122.285 116.584 C 109.517 122.892, 98.666 128.774, 98.173 129.656 C 97.679 130.537, 96.716 131.072, 96.033 130.844 C 95.349 130.616, 92.163 124.371, 88.952 116.965 L 83.113 103.500 75.307 102.703 C 71.013 102.265, 59.625 102.110, 50 102.359 C 32.706 102.806, 25.913 103.886, 19.608 107.189 C 16.889 108.614, 17.324 108.729, 29.734 109.863 C 36.866 110.514, 45.475 111.536, 48.865 112.133 C 55.476 113.297, 61.280 116.502, 61.816 119.283 C 62.011 120.295, 59.830 123.424, 56.486 126.929 C 52.977 130.608, 50.958 133.543, 51.172 134.654 C 51.697 137.383, 58.473 140.660, 64.999 141.342 C 72.040 142.078, 79 144.696, 79 146.609 C 79 148.436, 78.149 148.381, 68.016 145.896 C 60.156 143.968, 59.134 143.917, 55.849 145.290 C 49.880 147.784, 45.023 156.196, 45.006 164.068 C 44.994 169.520, 48.149 177.207, 52.206 181.607 C 57.867 187.749, 64.727 189.777, 74.315 188.144 C 82.647 186.726, 86.240 184.964, 87.805 181.528 C 89.974 176.769, 89.282 174.472, 84.500 170.554 C 77.022 164.425, 78.576 160.535, 94.087 146.551 C 110.600 131.665, 117.916 127.897, 110.384 138.158 C 105.894 144.275, 102.056 153.331, 102.024 157.884 C 101.913 173.665, 119.621 187, 140.688 187 C 151.716 187, 158.006 183.375, 157.996 177.027 C 157.991 174.523, 157.913 174.500, 149.523 174.500 C 142.218 174.500, 140.763 174.208, 138.927 172.372 C 136.220 169.665, 137.093 167.836, 145.070 159.500 C 148.228 156.200, 150.966 152.600, 151.156 151.500 C 151.687 148.412, 145.671 146.021, 135.583 145.309 C 124.080 144.497, 124.155 142.677, 135.750 141.232 C 155.655 138.751, 157.057 136.221, 144.149 126.068 C 139.556 122.456, 135.391 118.747, 134.893 117.828 C 133.549 115.346, 136.215 113.240, 141.752 112.410 C 146.124 111.754, 177.950 113.476, 182.500 114.615 C 183.684 114.911, 181.735 112.433, 177.723 108.540 C 171.915 102.906, 168.626 100.824, 154.723 93.984 C 145.800 89.594, 138.007 86.002, 137.405 86.001 C 136.803 86.001, 135.453 86.949, 134.405 88.109 M 129.500 100.640 C 125.650 101.418, 114.317 102.327, 104.316 102.659 L 86.133 103.262 87.984 107.881 C 91.055 115.543, 95.986 126, 96.529 126 C 97.821 126, 143.789 102.810, 146 101.043 L 148.500 99.044 142.500 99.134 C 139.200 99.184, 133.350 99.861, 129.500 100.640" stroke="none" fill="black" fill-rule="evenodd"/>
</svg>