<svg xmlns="http://www.w3.org/2000/svg" width="200" height="200" viewBox="0 0 200 200" version="1.1">
	<path d="M 94.770 7.541 C 94.369 7.954, 88.679 8.339, 82.126 8.396 C 71.903 8.485, 69.911 8.771, 68.105 10.405 C 63.670 14.419, 66.386 20.798, 74.573 25.596 C 77.352 27.224, 79 28.899, 79 30.095 C 79 31.725, 78.243 32.001, 73.750 32.008 C 70.862 32.013, 64.450 32.472, 59.500 33.029 C 37.956 35.454, 32.865 40.425, 47.370 44.874 C 54.943 47.197, 67.803 49.530, 68.606 48.728 C 69.658 47.675, 67.945 46, 65.815 46 C 62.965 46, 45.934 41.982, 43.590 40.757 C 41.893 39.870, 41.858 39.659, 43.278 38.864 C 45.808 37.449, 63.786 35.012, 71.750 35.006 L 79 35 79 38.860 C 79 40.984, 79.286 44.809, 79.636 47.360 C 80.239 51.757, 80.147 52.001, 77.886 52.022 C 70.603 52.089, 62.093 59.580, 59.543 68.167 C 57.294 75.741, 57.596 79.047, 61.008 84.198 C 66.180 92.006, 75.441 97.079, 88.574 99.297 C 93.614 100.148, 95.782 100.870, 94.630 101.312 C 90.171 103.023, 39.414 101.636, 25.750 99.430 C 22.089 98.839, 22 98.898, 22 101.944 C 22 106.030, 24.151 110.955, 27.134 113.701 C 30.949 117.214, 37.600 119.656, 51 122.466 C 69.473 126.339, 74.731 127.836, 81.007 131.003 C 86.204 133.627, 93 139.831, 93 141.952 C 93 142.437, 95.322 143.332, 98.159 143.941 C 105.487 145.512, 111.633 148.445, 113.016 151.031 C 114.779 154.325, 111.788 157.809, 103.685 161.902 C 96.063 165.751, 85.061 167.165, 78.802 165.100 C 70.636 162.405, 67.437 154.682, 70.023 143.906 C 71.280 138.666, 71.271 138.628, 68.393 136.307 C 60.773 130.164, 50.686 127.559, 45.301 130.345 C 36.201 135.050, 36.312 155.378, 45.516 170 C 48.439 174.645, 56.333 181.829, 60.310 183.464 C 62.065 184.186, 65.525 185.109, 68 185.515 C 70.475 185.921, 73.772 187.322, 75.327 188.627 C 77.516 190.464, 79.339 191, 83.406 191 C 87.909 191, 90.832 189.938, 103.873 183.562 C 121.751 174.822, 128.034 173.059, 134.830 174.877 C 140.405 176.368, 145.063 179.748, 147.926 184.380 C 150.392 188.370, 151.979 188.291, 157.296 183.908 C 161.133 180.745, 162.545 176.758, 161.506 172.025 C 161.146 170.389, 157.285 163.577, 152.926 156.887 C 148.567 150.196, 145 143.671, 145 142.384 C 145 137.795, 149.003 136.500, 163.189 136.500 C 172.339 136.500, 176.106 136.153, 176.444 135.277 C 176.736 134.521, 175.312 133.625, 172.708 132.928 C 152.169 127.427, 135.301 121.299, 136.740 119.860 C 137.206 119.394, 145.975 118.097, 156.228 116.977 C 175.696 114.850, 181.674 113.465, 183.437 110.670 C 185.699 107.083, 178.873 101.620, 166.500 97.115 C 152.810 92.130, 138.485 85.294, 138.697 83.847 C 138.805 83.106, 139.340 80.726, 139.885 78.559 C 141.061 73.881, 139.834 66.113, 137.211 61.621 C 135.583 58.834, 134.731 58.469, 127.102 57.285 C 113.882 55.233, 107.257 51.453, 111.250 48.239 C 111.942 47.682, 121.206 47.017, 132 46.750 C 143.408 46.467, 152.745 45.778, 154.500 45.088 C 165.009 40.961, 158.791 34.268, 134.846 23.934 C 128.738 21.297, 122.336 17.790, 120.620 16.139 C 118.904 14.489, 115.180 11.980, 112.344 10.564 C 107.220 8.005, 96.166 6.104, 94.770 7.541 M 104 12.464 C 108.125 13.747, 112.850 15.299, 114.500 15.915 L 117.500 17.033 115.033 15.098 C 111.914 12.653, 103.735 9.980, 99.635 10.066 C 97.266 10.116, 98.332 10.702, 104 12.464 M 69.978 12.817 C 68.055 14.374, 67.903 14.951, 68.919 16.848 C 70.106 19.067, 77.553 25, 79.150 25 C 79.618 25, 80 24.249, 80 23.331 C 80 22.413, 81.354 19.263, 83.009 16.331 L 86.017 11 79.119 11 C 73.943 11, 71.662 11.453, 69.978 12.817 M 88.364 13.458 C 85.888 15.192, 81.483 24.907, 82.670 26.014 C 84.170 27.411, 94.249 29.061, 104.966 29.665 C 119.327 30.473, 125.756 27.760, 122.235 22.377 C 121.303 20.953, 109.382 16.651, 99.081 14.021 C 89.664 11.616, 90.900 11.681, 88.364 13.458 M 126 25.038 C 126 26.117, 125.108 27.892, 124.017 28.983 C 122.040 30.960, 122.051 30.964, 127.767 30.431 C 134.502 29.803, 137.136 30.926, 134.991 33.510 C 134.233 34.425, 129.986 37.047, 125.556 39.336 L 117.500 43.500 131.449 43.780 C 145.333 44.058, 155.350 42.860, 156.644 40.767 C 157.969 38.622, 148.835 32.850, 134.211 26.590 C 126.580 23.324, 126 23.215, 126 25.038 M 82 30.500 C 82 31.651, 83.220 31.984, 87.250 31.933 L 92.500 31.865 87.500 30.477 C 84.750 29.713, 82.388 29.068, 82.250 29.044 C 82.112 29.020, 82 29.675, 82 30.500 M 117 34.172 C 113.425 34.677, 104.136 34.809, 96.357 34.466 C 88.579 34.124, 82.018 34.216, 81.777 34.672 C 81.536 35.127, 81.523 37.525, 81.749 40 L 82.160 44.500 97.330 44.158 C 106.119 43.959, 113.047 43.364, 113.800 42.743 C 114.515 42.154, 118.790 39.734, 123.300 37.365 C 131.435 33.093, 131.468 33.059, 127.500 33.156 C 125.300 33.210, 120.575 33.667, 117 34.172 M 83 49.371 C 83 51.456, 83.594 51.821, 87.911 52.394 C 94.662 53.289, 106.262 59.283, 109.998 63.806 C 111.676 65.838, 113.311 69.130, 113.632 71.122 C 114.195 74.622, 114.542 74.883, 123.930 78.872 C 129.273 81.142, 134.157 83, 134.782 83 C 137.083 83, 138.409 75.407, 137.117 69.632 C 135.463 62.242, 134.428 61.228, 127.407 60.122 C 117.298 58.529, 112.825 56.978, 109.900 54.054 C 107.957 52.111, 107.285 50.626, 107.675 49.135 C 108.223 47.038, 108.007 47, 95.617 47 C 83.008 47, 83 47.002, 83 49.371 M 72.500 56.417 C 66.025 59.308, 61 67.817, 61 75.894 C 61 80.659, 64.606 85.888, 70.657 89.896 C 78.712 95.232, 95.080 99.257, 93.658 95.552 C 93.353 94.756, 91.874 90.593, 90.372 86.302 C 88.869 82.011, 86.627 77.265, 85.389 75.755 C 82.453 72.175, 81.567 69.226, 82.935 67.579 C 83.540 66.850, 83.824 65.634, 83.567 64.877 C 83.309 64.120, 82.609 61.587, 82.011 59.250 C 81.063 55.546, 80.575 55.005, 78.211 55.039 C 76.720 55.061, 74.150 55.681, 72.500 56.417 M 84.516 58.103 C 85.862 64.290, 86.871 65.931, 89.715 66.560 C 92.128 67.094, 106.159 71.431, 109.750 72.754 C 112.084 73.613, 111.030 69.492, 107.964 65.773 C 104.451 61.511, 94.165 56.100, 88.006 55.274 L 83.777 54.707 84.516 58.103 M 88.076 70.183 C 88.283 73.761, 90.915 78.248, 94.708 81.489 L 98.916 85.084 102.708 83.139 C 104.794 82.070, 107.529 80.092, 108.786 78.744 L 111.072 76.294 103.786 73.716 C 99.779 72.299, 95.375 70.847, 94 70.490 C 92.625 70.133, 90.713 69.622, 89.750 69.353 C 88.704 69.062, 88.031 69.395, 88.076 70.183 M 111.054 80.305 C 109.708 81.947, 106.185 84.400, 103.223 85.755 L 97.839 88.220 94.841 85.360 L 91.843 82.500 94.470 89.499 C 95.915 93.348, 97.519 96.919, 98.033 97.433 C 99.371 98.771, 114.330 96.597, 121.027 94.091 C 124.061 92.956, 128.089 90.737, 129.978 89.159 C 133.411 86.294, 133.412 86.291, 131.181 85.097 C 129.953 84.440, 125.473 82.421, 121.224 80.611 L 113.500 77.320 111.054 80.305 M 134.314 89.205 C 129.272 94.777, 115.382 99.880, 104.522 100.150 C 101.210 100.232, 99.834 100.496, 101.465 100.737 C 106.752 101.517, 140.292 98.961, 147.798 97.206 L 155.096 95.500 145.611 91.351 C 136.172 87.223, 136.118 87.212, 134.314 89.205 M 156.450 97.925 C 155.928 98.434, 145.068 102.300, 132.317 106.516 C 119.566 110.732, 108.320 114.777, 107.325 115.504 C 105.593 116.770, 105.612 117.021, 107.759 121.440 C 108.991 123.977, 110 126.491, 110 127.027 C 110 128.327, 98.478 128.260, 93.695 126.932 C 86.778 125.011, 87.734 121.726, 96.538 117.171 L 101.699 114.500 99.384 109.285 L 97.070 104.070 80.785 104.668 C 66.076 105.208, 33.045 103.771, 27.250 102.339 C 25.440 101.892, 25 102.205, 25 103.941 C 25 111.662, 32.184 115.674, 54.557 120.447 C 78.836 125.627, 87.338 129.332, 93.509 137.424 C 95.288 139.756, 97.221 141.002, 99.789 141.475 C 104.375 142.319, 111.823 145.530, 114.213 147.693 C 116.788 150.023, 116.487 155.268, 113.581 158.721 C 108.300 164.997, 91.845 170.119, 81.823 168.606 C 76.585 167.815, 71.720 164.899, 68.592 160.675 C 66.863 158.341, 66.537 156.605, 66.715 150.675 C 66.833 146.729, 67.058 142.429, 67.215 141.121 C 67.452 139.141, 66.493 138.177, 61.500 135.382 C 51.592 129.836, 44.168 131.132, 42.044 138.779 C 38.051 153.158, 47.389 174.205, 60.533 180.452 C 62.715 181.488, 66.653 182.545, 69.285 182.799 C 72.524 183.112, 74.379 183.839, 75.027 185.050 C 76.284 187.399, 82.055 189.252, 85.649 188.461 C 87.217 188.116, 95.475 184.498, 104 180.420 C 112.525 176.342, 121.880 172.563, 124.788 172.021 C 134.289 170.253, 142.974 173.612, 149.126 181.433 C 151.700 184.705, 152.991 184.662, 156.313 181.195 C 161.086 176.213, 160.126 172.586, 150.005 157.368 C 142.319 145.812, 141.206 143.037, 142.830 139.474 C 144.293 136.264, 148.307 134.355, 155.484 133.459 L 161.465 132.711 150.922 129.384 C 139.931 125.914, 133.500 122.441, 133.500 119.974 C 133.500 117.389, 138.343 116.101, 154.060 114.508 C 171.528 112.737, 179.687 111.315, 180.569 109.889 C 182.001 107.571, 174.934 103.103, 163.450 99.067 C 156.520 96.631, 157.598 96.807, 156.450 97.925 M 119 103.045 C 113.225 103.436, 106.610 103.810, 104.301 103.877 L 100.102 104 101.644 107.750 C 102.492 109.813, 103.565 111.898, 104.028 112.385 C 104.510 112.892, 109.064 111.759, 114.685 109.734 C 120.083 107.789, 127.200 105.289, 130.500 104.178 C 137.383 101.861, 137.034 101.826, 119 103.045 M 99.500 118.691 C 97.850 119.531, 95.392 120.917, 94.037 121.771 C 91.692 123.251, 91.668 123.361, 93.537 124.092 C 96.100 125.094, 106.012 125.220, 105.958 124.250 C 105.935 123.838, 105.148 122.075, 104.208 120.332 C 102.528 117.216, 102.452 117.189, 99.500 118.691" stroke="none" fill="black" fill-rule="evenodd"/>
</svg>