<svg xmlns="http://www.w3.org/2000/svg" width="200" height="200" viewBox="0 0 200 200" version="1.1">
	<path d="M 113 8.553 C 108.875 9.308, 99.650 11.576, 92.500 13.592 C 85.350 15.609, 75.804 17.881, 71.287 18.643 C 63.728 19.917, 62.526 19.876, 56.179 18.117 C 48.014 15.854, 45.340 16.604, 48.724 20.207 L 50.896 22.519 40.403 24.928 C 24.009 28.692, 24.707 29.843, 45.500 33.329 C 53.750 34.712, 62.750 36.175, 65.500 36.581 L 70.500 37.318 60.579 38.701 C 49.834 40.199, 40.333 43.462, 38.599 46.250 C 34.772 52.401, 49.177 56.263, 81.174 57.663 L 95.848 58.306 96.924 64.485 C 98.149 71.518, 98.280 76.350, 97.369 80.903 L 96.739 84.055 91.119 78.725 C 84.971 72.892, 74.818 65, 73.464 65 C 72.994 65, 71.398 63.839, 69.916 62.420 C 66.158 58.819, 60.476 58.206, 55.306 60.844 C 49.179 63.970, 45.208 67.709, 38.716 76.464 L 32.804 84.437 37.152 86.303 C 44.905 89.630, 58.335 93.867, 65.334 95.193 C 73.013 96.648, 71.716 97.709, 62 97.920 C 53.620 98.101, 35.312 100.741, 32.248 102.210 C 25.483 105.452, 29.604 109.234, 43.924 112.926 C 52.197 115.059, 53 115.479, 53 117.673 C 53 123.215, 59.639 131.418, 72.250 141.459 C 74.863 143.539, 77 145.824, 77 146.538 C 77 148.329, 68.726 149.948, 55.784 150.689 C 46.426 151.224, 45 151.536, 45 153.051 C 45 154.011, 47.056 158.904, 49.570 163.925 C 57.379 179.526, 67.584 187.697, 80.572 188.752 C 91.576 189.646, 103.975 184.159, 110.119 175.677 C 117.145 165.978, 110.926 158.505, 97.375 160.362 L 92.902 160.975 97.052 156.054 C 101.672 150.574, 107.709 146, 110.320 146 C 112.593 146, 114.432 150.300, 117.539 162.885 C 122.610 183.422, 129.526 190.995, 143.218 191.003 C 156.415 191.011, 168.718 184.439, 174.766 174.151 C 177.169 170.063, 177.500 168.465, 177.500 160.948 C 177.500 153.092, 177.197 151.783, 173.775 144.859 C 167.753 132.675, 156.737 123, 148.886 123 L 145.692 123 146.399 110.250 C 146.788 103.237, 147.420 95.783, 147.803 93.684 L 148.500 89.867 151.407 98.184 C 156.838 113.724, 160.660 119.473, 165.133 118.830 C 173.081 117.688, 178.432 90.761, 178.414 52 C 178.406 33.057, 176.912 16.995, 175.160 17.003 C 173.256 17.013, 159.561 44.034, 154.105 58.545 C 150.564 67.963, 150.372 66.563, 153 50.500 C 155.233 36.854, 155.540 25.533, 153.831 19.829 C 152.397 15.045, 146.512 9.514, 141.321 8.072 C 136.155 6.638, 122.162 6.875, 113 8.553 M 121.136 10.164 C 117.085 10.607, 108.760 12.205, 102.636 13.716 L 91.500 16.464 103 17.072 C 130.287 18.517, 143.991 27.834, 147.085 47.045 C 148.554 56.166, 145.511 74.911, 142.973 72.373 C 142.369 71.769, 142.601 68.687, 143.605 63.960 C 145.394 55.544, 144.998 45.323, 142.667 39.744 C 139.009 30.992, 129.845 24.362, 117.259 21.366 C 107.535 19.052, 83.080 19.149, 75.909 21.530 L 70.631 23.283 76.566 26.251 C 84.048 29.994, 87.193 32.816, 86.459 35.129 C 85.982 36.632, 86.652 36.937, 91.004 37.196 L 96.109 37.500 96.445 44 C 96.850 51.828, 97.887 56.204, 99.230 55.757 C 99.776 55.575, 102.985 50.043, 106.361 43.463 C 111.727 33.006, 112.815 31.500, 115 31.500 C 117.121 31.500, 117.759 32.279, 119.206 36.640 C 121.194 42.630, 127.948 82.430, 128.276 90.090 L 128.500 95.317 122.271 96.723 L 116.042 98.129 123.166 108.814 C 127.084 114.692, 130.438 119.675, 130.618 119.889 C 130.798 120.104, 132.587 119.027, 134.594 117.496 C 140.234 113.194, 143.357 105.400, 143.605 95 C 143.760 88.504, 144.149 86.431, 145.255 86.205 C 146.355 85.981, 146.855 83.404, 147.342 75.446 C 147.694 69.691, 148.921 59.023, 150.069 51.741 C 152.831 34.222, 152.919 23.421, 150.342 18.339 C 146.739 11.234, 136.800 8.452, 121.136 10.164 M 45.500 26.410 C 35.059 28.969, 35.181 29.052, 53.500 31.890 C 71.470 34.674, 80.439 35.413, 82.471 34.276 C 83.871 33.492, 82.675 32.533, 75.893 29.005 C 68.127 24.965, 67.351 24.760, 63.600 25.761 C 60.434 26.606, 59.172 26.534, 57.575 25.415 C 56.464 24.637, 55.318 24.046, 55.027 24.102 C 54.737 24.158, 50.450 25.196, 45.500 26.410 M 166.119 38.149 C 157.222 56.188, 150.663 75.345, 150.763 83 C 150.868 90.954, 158.190 111.047, 162.586 115.443 C 164.122 116.979, 164.371 116.975, 166.130 115.383 C 168.766 112.997, 171.617 103.118, 173.669 89.262 C 175.786 74.965, 176.294 26.894, 174.349 24.949 C 173.480 24.080, 171.458 27.323, 166.119 38.149 M 108.233 45.658 C 104.804 52.630, 101.797 57.500, 100.750 57.774 C 98.687 58.315, 98.721 57.849, 100.049 67.399 C 100.794 72.751, 100.782 76.689, 100.009 80.953 C 99.006 86.480, 99.101 87.279, 101.191 90.910 C 103.223 94.442, 103.780 94.798, 106.481 94.297 C 108.142 93.988, 109.939 93.333, 110.476 92.842 C 111.070 92.298, 112.049 92.735, 112.976 93.955 C 114.420 95.856, 114.781 95.887, 119.853 94.544 C 122.798 93.764, 125.442 92.892, 125.728 92.605 C 126.724 91.609, 119.178 45.989, 116.407 36.250 C 116.055 35.013, 115.362 34, 114.867 34 C 114.372 34, 111.387 39.246, 108.233 45.658 M 72.500 40.101 C 56.474 41.417, 40 45.434, 40 48.025 C 40 50.827, 58.085 53.935, 78.898 54.708 L 95.296 55.317 94.681 52.867 C 94.343 51.519, 93.765 47.848, 93.396 44.708 L 92.725 39 87.612 39.140 C 84.801 39.217, 78 39.649, 72.500 40.101 M 54.866 64.008 C 51.049 66.026, 41.709 75.754, 38.779 80.766 L 37.058 83.710 47.779 87.367 C 61.066 91.899, 70.699 93.967, 78.500 93.961 C 84.853 93.956, 91.382 91.668, 93.972 88.539 C 95.318 86.912, 94.837 86.183, 88.320 79.968 C 84.402 76.232, 80.302 72.697, 79.209 72.112 C 77.332 71.107, 77.270 71.256, 78.087 74.774 C 79.267 79.856, 79.207 81.236, 77.826 80.775 C 77.180 80.560, 75.853 78.036, 74.878 75.166 C 70.846 63.306, 63.718 59.331, 54.866 64.008 M 95.494 91.009 C 95.151 91.564, 93.212 92.936, 91.185 94.057 L 87.500 96.095 93.355 95.609 C 96.576 95.342, 99.419 94.914, 99.675 94.659 C 100.260 94.074, 97.762 90, 96.818 90 C 96.433 90, 95.837 90.454, 95.494 91.009 M 107.250 96.723 C 105.463 96.945, 104 97.522, 104 98.004 C 104 99.782, 105.587 99.763, 109 97.947 C 110.925 96.922, 112.050 96.137, 111.500 96.202 C 110.950 96.267, 109.037 96.502, 107.250 96.723 M 89 98.687 C 44.651 102.017, 33.573 103.264, 32.467 105.053 C 31.647 106.381, 35.422 107.974, 45.309 110.474 L 54.441 112.782 55.636 117.465 C 57.341 124.150, 60.764 128.532, 70.475 136.466 C 79.748 144.042, 81.088 146.140, 78.486 149.015 C 76.399 151.322, 73.831 151.903, 59.317 153.354 L 47.861 154.500 52.117 163 C 56.816 172.385, 63.961 180.351, 70.500 183.494 C 76.573 186.413, 87.171 186.677, 94.079 184.081 C 107.699 178.963, 115.576 165.689, 106.366 163.377 C 103.699 162.708, 93.281 163.464, 89.137 164.629 C 87.018 165.224, 86.884 165.086, 87.842 163.295 C 89.713 159.799, 103.174 145.961, 106.252 144.369 C 110.112 142.374, 113.595 143.316, 115.423 146.851 C 116.226 148.403, 118.066 154.359, 119.514 160.086 C 124.946 181.582, 130.455 188.200, 142.915 188.200 C 156.739 188.200, 169.142 181.125, 173.451 170.782 C 175.640 165.528, 175.414 156.181, 172.938 149.563 C 168.435 137.527, 156.405 125.541, 149.500 126.210 L 146.500 126.500 146.791 132.500 C 147.273 142.454, 148.976 150.083, 152.578 158.426 C 155.981 166.307, 156.892 171, 155.020 171 C 153.786 171, 150.797 165.098, 148.546 158.218 C 147.596 155.313, 145.239 150.095, 143.309 146.623 L 139.799 140.309 127.150 138.550 C 111.855 136.423, 100.348 133.606, 97.077 131.190 C 92.673 127.936, 92.441 126.669, 95.258 121.281 C 97.291 117.393, 97.732 115.421, 97.297 112.174 C 96.835 108.731, 97.186 107.445, 99.370 104.581 C 100.817 102.685, 102 100.428, 102 99.567 C 102 97.954, 100.297 97.839, 89 98.687 M 109.207 101.019 C 105.837 102.527, 105 103.416, 105 105.483 C 105 106.903, 104.300 109.737, 103.444 111.782 C 101.925 115.413, 101.949 115.552, 104.446 117.703 C 105.853 118.915, 108.690 120.375, 110.752 120.948 C 115.057 122.143, 124.965 122.323, 126.614 121.235 C 127.343 120.754, 125.257 116.813, 120.571 109.818 L 113.414 99.135 109.207 101.019 M 100.750 106.577 C 100.338 106.993, 100.014 108.496, 100.030 109.917 C 100.057 112.183, 100.188 112.281, 101.098 110.719 C 102.236 108.762, 101.951 105.365, 100.750 106.577 M 140.967 114.562 C 140.212 115.972, 137.933 118.347, 135.901 119.841 L 132.207 122.558 136.848 130.279 C 139.400 134.526, 141.737 138, 142.040 138 C 142.344 138, 142.702 132.150, 142.837 125 C 142.971 117.850, 142.914 112, 142.709 112 C 142.505 112, 141.721 113.153, 140.967 114.562 M 98.058 121.627 C 96.926 123.545, 96 125.752, 96 126.531 C 96 129.607, 105.600 132.590, 124.743 135.463 C 139.097 137.617, 138.512 137.932, 133.881 130.545 L 129.834 124.091 123.551 124.677 C 116.094 125.374, 108.386 123.751, 103.546 120.467 L 100.116 118.139 98.058 121.627" stroke="none" fill="black" fill-rule="evenodd"/>
</svg>