<svg xmlns="http://www.w3.org/2000/svg" width="200" height="200" viewBox="0 0 200 200" version="1.1">
	<path d="M 79 1.645 C 79 1.923, 80.985 5.219, 83.412 8.970 L 87.824 15.790 84.162 14.796 C 76.571 12.736, 71 9.807, 71 7.877 C 71 4.566, 69.216 5.867, 67.463 10.457 C 65.354 15.980, 66.081 19.401, 70.294 23.779 C 73.934 27.562, 82.518 30.588, 92.523 31.613 C 105.291 32.921, 98.574 33.833, 73.250 34.229 C 46.120 34.653, 42.330 35.236, 36.417 39.886 L 33.965 41.815 37.233 43.817 C 39.030 44.918, 43.875 46.859, 48 48.130 C 54.345 50.086, 57.732 50.446, 70 50.471 L 84.500 50.500 77.910 52.592 C 69.861 55.147, 62.568 60.006, 60.340 64.297 C 54.245 76.037, 65.437 91.097, 85.348 97.948 C 98.429 102.448, 108.226 101.631, 121.193 94.959 C 125.425 92.781, 129.276 91, 129.752 91 C 130.518 91, 134.279 101.057, 133.721 101.611 C 133.233 102.095, 97.966 105.068, 90.500 105.254 C 86.100 105.364, 73.050 105.078, 61.500 104.620 C 32.762 103.480, 18.465 105.411, 19.204 110.331 C 19.665 113.400, 23.634 115.725, 35.002 119.584 C 47.149 123.708, 48.049 123.775, 61.870 121.597 C 78.065 119.044, 101.997 117.695, 119.396 118.355 C 128.138 118.687, 135.512 119.178, 135.781 119.448 C 136.050 119.717, 135.500 121.114, 134.558 122.552 C 131.393 127.382, 127.261 128.267, 107.325 128.389 C 90.609 128.491, 88.928 128.666, 86.379 130.568 C 83.334 132.840, 81.357 137.916, 83.321 138.419 C 83.969 138.585, 88.550 139.478, 93.500 140.404 C 103.985 142.365, 112.684 146.212, 114.211 149.563 C 117.802 157.444, 102.147 167.390, 86.308 167.291 C 75.257 167.221, 69.354 161.390, 70.413 151.588 C 70.865 147.408, 70.477 145.800, 67.814 140.802 C 58.350 123.046, 45.721 125.482, 42.041 145.774 C 38.794 163.679, 47.521 180.301, 62.616 184.963 C 72.543 188.029, 81.851 187.659, 101.179 183.426 C 110.156 181.461, 122.571 179.344, 128.770 178.723 C 139.385 177.658, 140.578 177.730, 149.322 179.955 C 160.405 182.775, 164 182.348, 164 178.213 C 164 175.210, 161.936 171.867, 152.141 159.008 C 144.924 149.531, 141.573 142.922, 142.502 139.995 C 143.533 136.745, 149.833 135.496, 159.301 136.664 C 163.811 137.220, 167.680 137.530, 167.901 137.354 C 168.388 136.962, 166.446 125.169, 165.506 122.809 C 164.986 121.505, 165.961 120.547, 169.773 118.615 C 179.420 113.726, 183.121 109.005, 179.596 106.080 C 178.824 105.439, 170.162 102.286, 160.346 99.072 C 150.531 95.859, 140.323 92.277, 137.663 91.113 L 132.825 88.996 137.873 85.006 C 143.585 80.491, 145 78.363, 145 74.288 C 145 68.436, 139.505 64.247, 125.500 59.425 C 116.283 56.251, 115.411 55.696, 113.340 51.690 C 111.034 47.232, 112.578 46.795, 128 47.548 C 149.332 48.588, 150.148 48.537, 156.231 45.752 C 163.211 42.556, 164.723 40.189, 161.997 36.723 C 159.457 33.494, 154.400 31.500, 138.608 27.499 C 126.516 24.434, 125.639 24.047, 124.461 21.245 C 122.740 17.152, 117.435 13.343, 108.781 9.986 C 100.991 6.965, 79 0.806, 79 1.645 M 86.606 8.910 C 91.090 16.501, 91.685 16.844, 105.820 20.014 C 120.345 23.270, 122 23.477, 122 22.039 C 122 18.182, 103.905 9.885, 88.131 6.510 L 84.762 5.789 86.606 8.910 M 69 15.423 C 69 19.979, 73.179 24.108, 80.027 26.320 C 85.940 28.229, 96 29.645, 96 28.568 C 96 28.179, 94.674 25.933, 93.053 23.577 C 90.500 19.866, 89.262 19.058, 83.803 17.536 C 80.336 16.570, 75.728 14.929, 73.562 13.890 C 71.396 12.850, 69.484 12, 69.312 12 C 69.140 12, 69 13.540, 69 15.423 M 96.854 24.729 L 99.500 29.195 106.188 28.596 C 109.867 28.267, 114.142 27.485, 115.688 26.858 L 118.500 25.718 115 24.922 C 113.075 24.484, 107.609 23.257, 102.854 22.195 L 94.208 20.264 96.854 24.729 M 118.890 28.498 C 117.455 29.279, 113.193 30.410, 109.419 31.013 C 101.825 32.226, 100.888 32.636, 103.456 33.622 C 107.590 35.208, 136 32.095, 136 30.055 C 136 29.278, 126.087 26.964, 123.083 27.040 C 122.212 27.062, 120.326 27.718, 118.890 28.498 M 138.702 33.369 C 137.491 34.672, 134.925 36.072, 133 36.479 C 127.106 37.726, 110.561 43.140, 109.500 44.169 C 108.854 44.795, 111.906 44.892, 118.129 44.441 C 124.114 44.008, 131.494 44.211, 137.629 44.978 C 146.947 46.143, 147.817 46.092, 153.159 44.068 C 160.254 41.380, 161.645 39.894, 159.165 37.650 C 157.538 36.177, 144.001 31, 141.777 31 C 141.297 31, 139.913 32.066, 138.702 33.369 M 54.500 36.969 C 48.418 37.674, 41.163 39.637, 39.696 40.975 C 38.452 42.110, 47.904 45.779, 55.066 46.941 C 67.959 49.033, 98.137 47.426, 102.781 44.400 C 104.979 42.967, 105.002 42.811, 103.404 40.107 L 101.747 37.301 86.714 36.651 C 69.644 35.912, 63.062 35.977, 54.500 36.969 M 111.240 36.741 C 105.388 37.073, 105.049 37.223, 106.026 39.048 C 107.352 41.527, 108.106 41.488, 116 38.536 C 119.575 37.198, 121.375 36.167, 120 36.245 C 118.625 36.322, 114.683 36.545, 111.240 36.741 M 102.603 48.833 C 101.987 49.831, 104.570 51.736, 109.358 53.815 L 112.217 55.056 110.309 51.778 C 108.409 48.511, 103.873 46.778, 102.603 48.833 M 92.658 49.676 C 92.286 50.047, 95.435 52.056, 99.655 54.139 C 112.236 60.349, 116.941 66.388, 113.404 71.787 C 111.759 74.298, 111.789 74.422, 114.608 76.750 C 119.208 80.548, 127.352 85.981, 127.790 85.544 C 128.009 85.324, 125.140 79.219, 121.413 71.978 C 116.258 61.963, 114.022 58.583, 112.068 57.854 C 105.584 55.436, 100.691 52.534, 100.249 50.846 C 99.906 49.534, 98.836 49, 96.550 49 C 94.781 49, 93.029 49.304, 92.658 49.676 M 80 54.886 C 68.711 58.535, 62.811 62.922, 61.347 68.753 C 59.542 75.947, 68.337 87.235, 80.028 92.725 C 94.743 99.637, 105.651 99.732, 118.885 93.066 L 127.270 88.842 123.885 86.787 C 122.023 85.657, 118.018 82.784, 114.985 80.403 L 109.470 76.074 105.485 77.493 C 99.385 79.666, 89.716 79.448, 87.582 77.091 C 86.003 75.346, 85.987 74.926, 87.390 72.213 C 88.792 69.502, 98.703 61.922, 100.669 62.057 C 101.126 62.088, 103.218 64.368, 105.317 67.123 C 108.437 71.217, 109.397 71.916, 110.567 70.944 C 112.951 68.966, 112.200 66.414, 108.162 62.765 C 103.528 58.579, 92.046 52.979, 88.247 53.054 C 86.736 53.083, 83.025 53.908, 80 54.886 M 124.808 72.750 C 128.362 79.763, 131.436 85.690, 131.640 85.921 C 132.202 86.562, 139.109 80.735, 141.359 77.721 C 143.934 74.272, 142.618 71.047, 137.256 67.662 C 134.331 65.815, 120.181 60, 118.613 60 C 118.466 60, 121.253 65.737, 124.808 72.750 M 93.832 69.297 C 88.517 73.351, 87.847 75.588, 91.694 76.431 C 94.661 77.081, 104.894 75.506, 106.202 74.198 C 107.190 73.210, 101.299 66, 99.505 66 C 98.763 66, 96.210 67.484, 93.832 69.297 M 135.613 97.378 C 137.060 101.624, 137.260 101.777, 142.220 102.435 C 151.582 103.677, 159.004 108.361, 162.653 115.331 C 164.347 118.566, 164.878 118.482, 172.750 113.740 C 181.192 108.654, 180.598 108.023, 162.285 102.614 C 155.566 100.630, 146.667 97.655, 142.508 96.003 C 138.350 94.352, 134.762 93, 134.535 93 C 134.307 93, 134.793 94.970, 135.613 97.378 M 112 106.535 C 96.613 108.098, 90.698 108.197, 61 107.384 C 38.014 106.755, 24.997 107.603, 22.720 109.880 C 21.391 111.209, 29.425 115.122, 40.197 118.392 C 47.464 120.598, 49.602 120.875, 53.197 120.077 C 65.305 117.390, 86.631 115.807, 110.750 115.803 L 136 115.800 136 111.982 C 136 105.628, 135.403 104.984, 129.643 105.132 C 126.814 105.205, 118.875 105.836, 112 106.535 M 138.672 110.118 C 139.006 113.078, 139.479 115.725, 139.723 116 C 140.135 116.465, 160.235 117.972, 160.720 117.573 C 160.841 117.474, 159.763 115.738, 158.323 113.715 C 155.288 109.448, 149.379 106.288, 142.733 105.377 L 138.063 104.737 138.672 110.118 M 137.311 122.796 C 136.078 125.317, 134.062 127.227, 131 128.775 C 126.780 130.908, 125.395 131.040, 108.772 130.895 C 93.793 130.765, 90.654 130.997, 88.522 132.393 C 87.135 133.302, 86 134.477, 86 135.004 C 86 135.997, 86.527 136.152, 96.498 138.083 C 109.799 140.659, 118.808 147.210, 117.569 153.405 C 116.681 157.847, 111.407 162.845, 104 166.264 C 98.868 168.633, 95.711 169.358, 89 169.710 C 81.534 170.100, 79.955 169.871, 76.023 167.827 C 69.961 164.676, 67.660 160.451, 67.750 152.633 C 67.832 145.490, 64.787 138.777, 59.269 133.931 C 55.320 130.464, 54.115 130.335, 50.713 133.011 C 46.762 136.119, 44.498 143.238, 44.515 152.500 C 44.548 170.623, 52.784 180.878, 69.783 183.961 C 77.186 185.303, 81.697 184.803, 102.320 180.353 C 127.668 174.884, 139.818 174.296, 151.993 177.951 C 156.041 179.166, 162.002 179.344, 161.996 178.250 C 161.990 176.915, 158.482 171.705, 151.057 162 C 142.468 150.775, 139.995 146.247, 140.015 141.790 C 140.046 135.224, 143.409 133.501, 155.750 133.733 C 160.838 133.828, 165 133.512, 165 133.029 C 165 129.772, 162.353 121.731, 161.063 121.072 C 160.203 120.633, 154.915 120.007, 149.311 119.682 L 139.121 119.091 137.311 122.796" stroke="none" fill="black" fill-rule="evenodd"/>
</svg>