<svg xmlns="http://www.w3.org/2000/svg" width="200" height="200" viewBox="0 0 200 200" version="1.1">
	<path d="M 98.642 11.691 C 98.347 11.987, 90.094 12.289, 80.303 12.364 C 62.600 12.499, 59.939 13.080, 65.060 15.691 C 66.345 16.346, 68.192 18.434, 69.166 20.332 C 72.365 26.568, 78.913 31.912, 85.994 34.066 C 87.449 34.508, 82.762 34.864, 74.822 34.914 C 52.466 35.055, 41.668 37.284, 36.690 42.788 C 34.917 44.750, 34.966 44.820, 39.190 46.354 C 47.566 49.396, 51.628 50.116, 63.719 50.699 L 75.937 51.288 71.515 54.093 C 63.117 59.419, 60.659 70.258, 65.528 80.500 C 68.148 86.012, 76.491 94.098, 82.500 96.950 C 88.904 99.988, 101.318 100.820, 108.232 98.675 L 112.963 97.207 113.954 100.797 C 114.500 102.772, 114.771 104.563, 114.556 104.777 C 114.342 104.991, 110.867 105.598, 106.834 106.126 C 101.953 106.765, 89.771 106.692, 70.415 105.907 C 40.035 104.675, 31.424 105.182, 26.364 108.497 C 23.169 110.591, 23.263 114.971, 26.589 118.923 L 29.178 122 40.339 122.020 C 46.478 122.031, 65.552 121.495, 82.726 120.830 C 99.901 120.164, 114.289 119.956, 114.700 120.367 C 116.021 121.687, 112.567 126.446, 108.980 128.248 C 104.424 130.538, 97.295 130.470, 83 128 C 68.474 125.491, 58.683 125.407, 54.034 127.752 C 50.292 129.639, 46.408 135.233, 47.553 137.086 C 50.382 141.664, 71.153 144.454, 94.029 143.330 C 100.920 142.991, 109.158 143.039, 112.336 143.436 C 117.270 144.053, 117.935 144.373, 116.892 145.631 C 115.389 147.441, 97.630 156, 95.376 156 C 94.478 156, 91.439 154.688, 88.622 153.083 C 67.707 141.173, 50.467 144.728, 50.568 160.931 C 50.632 171.317, 57.199 181.360, 67.500 186.826 C 71.833 189.125, 73.901 189.519, 83 189.779 C 88.775 189.945, 99.350 190.328, 106.500 190.631 C 117.197 191.085, 121.237 190.825, 129.305 189.160 C 140.314 186.889, 151.270 182.232, 152.938 179.115 C 155.942 173.503, 145.296 171.047, 125.522 172.789 C 114.993 173.716, 112.935 173.599, 101.858 171.432 C 83.828 167.906, 84.173 167.643, 109 165.996 C 128.890 164.676, 141.899 162.694, 147 160.207 C 151.045 158.234, 151.221 156.862, 148.623 147.500 C 147.181 142.304, 146.059 122.532, 147.150 121.553 C 147.342 121.380, 153.022 120.755, 159.771 120.164 C 173.403 118.970, 177.333 117.656, 177.835 114.126 C 178.338 110.582, 173.470 106.165, 156.500 94.765 C 148.250 89.223, 141.336 84.558, 141.136 84.397 C 140.936 84.237, 141.723 82.896, 142.886 81.418 C 145.773 77.748, 145.540 74.684, 142.072 70.735 C 139.101 67.351, 136.915 66.121, 117.750 57.057 C 111.838 54.261, 107 51.570, 107 51.076 C 107 48.731, 138.935 48.578, 149 50.875 C 154.999 52.244, 162 47.606, 162 42.262 C 162 37.210, 148.665 29.562, 130.752 24.341 C 123.475 22.221, 121.003 21.079, 121.002 19.839 C 120.999 16.987, 115.381 13.170, 110.245 12.530 C 107.635 12.205, 104.078 11.762, 102.339 11.547 C 100.601 11.331, 98.937 11.396, 98.642 11.691 M 93.402 14.842 C 93.796 15.479, 94.879 16.005, 95.809 16.011 C 96.739 16.017, 102.112 17.064, 107.750 18.338 C 116.003 20.202, 118 20.385, 118 19.276 C 118 16.972, 111.200 14.883, 101.697 14.267 C 95.001 13.834, 92.870 13.981, 93.402 14.842 M 70 15.662 C 70 16.026, 71.164 18.311, 72.588 20.740 C 74.846 24.594, 82.725 31, 85.207 31 C 85.655 31, 84.212 27.400, 82 23 C 77.982 15.009, 77.973 15, 73.989 15 C 71.795 15, 70 15.298, 70 15.662 M 82 16.508 C 82 16.761, 83.674 20.349, 85.719 24.483 L 89.439 32 95.094 32 C 98.204 32, 102.718 31.307, 105.124 30.461 C 109.719 28.845, 117.485 24.151, 116.761 23.427 C 116.528 23.195, 110.074 21.705, 102.419 20.116 C 84.462 16.389, 82 15.954, 82 16.508 M 118.351 25.527 C 117.622 27.428, 110.312 31.773, 104.714 33.632 C 100.737 34.953, 101.174 35.007, 112.500 34.603 C 124.789 34.165, 139.866 31.456, 138.348 29.959 C 137.659 29.280, 120.833 24, 119.357 24 C 119.126 24, 118.674 24.687, 118.351 25.527 M 139.500 33.310 C 138.226 34.746, 134.594 36.340, 129.500 37.699 C 119.954 40.246, 111.087 43.485, 108.517 45.364 C 106.918 46.533, 109.201 46.729, 124.577 46.743 C 134.435 46.753, 144.736 47.224, 147.470 47.792 C 151.422 48.613, 153.020 48.524, 155.271 47.360 C 161.272 44.256, 159.814 39.761, 151.362 35.313 C 142.938 30.878, 141.823 30.690, 139.500 33.310 M 105.250 37.747 C 98.513 37.920, 93 38.261, 93 38.504 C 93 38.747, 94.007 41.018, 95.237 43.551 C 97.307 47.811, 97.697 48.111, 100.458 47.558 C 102.099 47.230, 103.844 46.243, 104.335 45.366 C 104.826 44.488, 108.439 42.263, 112.364 40.421 C 116.289 38.579, 119.050 37.153, 118.500 37.252 C 117.950 37.351, 111.987 37.574, 105.250 37.747 M 51.203 39.115 C 48.290 39.600, 44.500 40.724, 42.782 41.613 C 40.087 43.006, 39.889 43.358, 41.340 44.171 C 46.081 46.823, 58.137 48.319, 75.203 48.372 C 84.940 48.402, 93.173 48.160, 93.499 47.834 C 93.825 47.508, 93.081 45.162, 91.846 42.621 L 89.601 38 73.051 38.117 C 63.948 38.181, 54.116 38.631, 51.203 39.115 M 102.446 51.731 C 102.818 52.958, 104.177 56.553, 105.466 59.721 C 107.436 64.563, 108.288 65.579, 110.812 66.095 C 112.463 66.433, 119.046 70.150, 125.441 74.355 C 131.835 78.560, 137.432 82, 137.879 82 C 139.353 82, 142 78.377, 142 76.358 C 142 72.916, 136.916 69.295, 122.493 62.465 C 114.797 58.820, 106.986 54.412, 105.135 52.669 C 102.165 49.872, 101.849 49.762, 102.446 51.731 M 83.278 53.012 C 71.912 54.672, 66 60.375, 66 69.681 C 66 84.053, 80.643 97.148, 96.799 97.223 C 104.129 97.257, 112 95.348, 112 93.536 C 112 92.905, 111.049 89.572, 109.887 86.131 C 108.180 81.076, 107.459 80.012, 106.137 80.598 C 101.872 82.486, 96.800 80.291, 92.682 74.775 C 89.663 70.732, 91.014 67.363, 96.260 65.857 C 98.592 65.187, 100.665 64.518, 100.866 64.370 C 101.068 64.222, 100.216 61.646, 98.972 58.646 C 97.099 54.128, 96.200 53.090, 93.731 52.596 C 90.450 51.940, 90.683 51.931, 83.278 53.012 M 95.115 68.908 C 92.856 70.339, 94.640 74.614, 98.488 76.993 C 104.725 80.847, 107.372 78.527, 104.521 71.704 C 103.185 68.507, 102.530 68.002, 99.737 68.015 C 97.956 68.024, 95.877 68.425, 95.115 68.908 M 109 72.295 C 109 74.108, 110.290 79.395, 111.868 84.045 C 115.261 94.049, 115.184 94.029, 127.500 88.142 L 135.500 84.318 123.878 76.659 C 117.486 72.447, 111.524 69, 110.628 69 C 109.453 69, 109 69.918, 109 72.295 M 132.500 88.725 C 129.750 90.176, 125.025 92.382, 122 93.630 C 118.549 95.052, 116.531 96.475, 116.583 97.449 C 116.629 98.302, 116.742 100.125, 116.833 101.500 L 117 104 129.444 104 C 141.120 104, 142.060 104.147, 144.664 106.388 C 146.961 108.363, 147.446 109.594, 147.470 113.516 L 147.500 118.256 157.518 117.611 C 168.856 116.882, 175 115.492, 175 113.656 C 175 111.371, 167.653 105.285, 153.763 96.065 C 146.208 91.050, 139.458 86.754, 138.763 86.518 C 138.068 86.282, 135.250 87.275, 132.500 88.725 M 123.262 106.677 L 118.025 107.104 118.262 112.045 L 118.500 116.986 126.500 117.002 C 130.900 117.010, 136.863 117.301, 139.750 117.648 L 145 118.279 145 114.294 C 145 108.715, 142.792 107.034, 134.895 106.601 C 131.378 106.408, 126.143 106.443, 123.262 106.677 M 32.256 108.980 C 26.055 110.442, 24.847 113.742, 29.103 117.593 C 30.846 119.171, 33.377 119.261, 59.253 118.668 C 74.789 118.311, 93.912 117.721, 101.750 117.356 L 116 116.693 115.985 113.596 C 115.976 111.893, 115.639 110.050, 115.235 109.500 C 114.356 108.303, 37.177 107.820, 32.256 108.980 M 116.585 124.080 C 112.624 133.056, 105.961 134.290, 81.500 130.578 C 66.958 128.371, 62.636 128.043, 59 128.870 C 54.514 129.890, 49.401 134.222, 50.529 136.046 C 50.835 136.542, 53.429 137.685, 56.293 138.585 C 60.396 139.875, 67.484 140.331, 89.734 140.739 C 119.680 141.288, 122.772 141.787, 120.402 145.691 C 118.881 148.197, 111.984 152.286, 102.444 156.337 L 94.388 159.758 88.906 156.530 C 80.451 151.552, 72.681 149, 65.978 149 C 60.819 149, 59.599 149.387, 56.766 151.920 C 53.714 154.649, 53.504 155.255, 53.554 161.170 C 53.617 168.600, 55.869 173.608, 61.665 179.201 C 68.601 185.894, 76.682 188.182, 89.500 187.083 C 91.700 186.894, 97.052 187.245, 101.393 187.863 C 114.439 189.721, 136.774 186.169, 146.417 180.704 C 153.335 176.783, 150.684 175.222, 137 175.162 C 132.325 175.141, 125.185 175.456, 121.134 175.861 C 115.083 176.467, 111.415 176.125, 100.598 173.949 C 86.742 171.161, 83 169.805, 83 167.572 C 83 165.429, 84.946 165.087, 106.339 163.475 C 132.158 161.530, 144.464 159.604, 147.258 157.071 C 147.675 156.693, 147.113 152.850, 146.008 148.532 C 144.673 143.313, 144 137.420, 144 130.957 C 144 119.411, 144.857 120.034, 128.942 120.014 L 118.385 120 116.585 124.080" stroke="none" fill="black" fill-rule="evenodd"/>
</svg>