<svg xmlns="http://www.w3.org/2000/svg" width="200" height="200" viewBox="0 0 200 200" version="1.1">
	<path d="M 156.025 17.950 C 153.613 22.870, 151.329 26.703, 150.949 26.469 C 150.569 26.234, 149.988 24.692, 149.658 23.042 C 149.329 21.393, 148.033 17.784, 146.779 15.024 L 144.500 10.005 139 10.506 C 105.839 13.527, 92.410 14.341, 74.500 14.414 C 52.611 14.504, 51.675 14.664, 45.767 19.327 C 44.128 20.622, 44.136 20.905, 45.926 24.598 C 48.813 30.553, 54.993 35.288, 63.500 38.062 L 67.500 39.366 58.937 41.109 C 48.394 43.256, 38.082 46.650, 35.750 48.741 C 33.507 50.752, 33.507 53.545, 35.750 54.643 C 36.712 55.114, 46.275 55.537, 57 55.583 C 67.725 55.628, 79.442 55.741, 83.037 55.833 L 89.575 56 95.287 67.021 C 101.868 79.717, 102.255 81.498, 98.250 80.654 C 96.737 80.335, 91.564 79.527, 86.754 78.858 C 78.158 77.662, 78.042 77.609, 80.004 75.782 C 82.409 73.541, 82.444 73.080, 80.434 70.209 C 75.372 62.982, 52.535 58.086, 44.138 62.429 C 39.716 64.716, 37.633 69.253, 38.325 75.094 C 38.866 79.665, 43.256 89.670, 47.127 95.154 C 48.157 96.614, 48.999 97.964, 48.999 98.154 C 48.998 98.344, 45.939 98.501, 42.201 98.502 C 33.035 98.505, 28.317 101.689, 26.496 109.102 L 25.857 111.704 33.801 112.249 C 42.178 112.823, 48.920 115.176, 54.599 119.508 C 56.364 120.854, 61.630 127.070, 66.302 133.321 C 70.974 139.572, 76.530 146.116, 78.648 147.864 C 84.504 152.694, 92.145 155.188, 101.602 155.356 L 109.704 155.500 95.868 162.668 C 70.947 175.578, 61.690 181.822, 62.197 185.376 C 62.463 187.238, 63.117 187.485, 67.500 187.375 C 76.434 187.152, 103.767 177.910, 118.818 170.024 L 126.324 166.091 133.959 171.471 C 143.851 178.442, 154.723 183.863, 160.361 184.636 C 164.319 185.179, 165.154 184.937, 167.532 182.559 C 170.601 179.490, 170.470 176.667, 166.918 169.331 C 164.034 163.374, 153.283 153.618, 147.031 151.286 L 141.936 149.385 147.718 147.622 C 159.263 144.102, 166.760 140.884, 169.021 138.478 C 171.236 136.120, 171.258 135.942, 169.565 134.072 C 168.595 133, 165.484 131.616, 162.651 130.997 C 154.726 129.263, 126.273 128.650, 108.698 129.833 C 100.006 130.418, 92.227 130.641, 91.411 130.327 C 90.594 130.014, 89.259 128.468, 88.444 126.892 C 86.091 122.342, 88.557 118.128, 99.917 107.286 C 110.328 97.350, 112.615 93.824, 111.680 89.151 C 111.196 86.729, 111.837 85.601, 116.056 81.444 C 121.467 76.115, 121.904 76.590, 119.388 85.068 C 117.216 92.384, 113.257 99.907, 106.569 109.428 C 97.102 122.905, 99.303 126.045, 118.750 126.810 C 133.009 127.370, 134.248 125.478, 120.250 124.519 C 107.995 123.679, 104 122.525, 104 119.825 C 104 118.714, 106.479 114.287, 109.509 109.987 C 116.790 99.655, 121.906 88.668, 123.337 80.290 C 124.396 74.089, 125.208 72.535, 132.385 62.988 C 136.722 57.220, 140.711 52.333, 141.250 52.128 C 142.876 51.512, 141.556 91.862, 139.496 105.756 C 138.496 112.496, 138 118.333, 138.393 118.727 C 141.377 121.711, 144.389 96.868, 144.542 68 C 144.660 45.772, 144.784 44.311, 146.830 41 L 148.993 37.500 149.004 66.500 C 149.015 95.563, 149.685 104.056, 152.655 112.806 C 154.375 117.873, 159.523 126, 161.012 126 C 162.629 126, 166.953 118.719, 169.965 110.923 C 182.666 78.043, 179.419 27.430, 163.627 12.123 L 160.409 9.004 156.025 17.950 M 118.250 14.796 C 107.662 15.626, 99 16.608, 99 16.980 C 99 18.127, 111.352 20, 118.915 20 C 126.945 20, 129.899 21.154, 134.688 26.165 C 137.785 29.404, 142 37.716, 142 40.583 C 142 43.219, 143.489 41.992, 146.153 37.158 C 148.524 32.858, 148.710 31.822, 147.903 27.423 C 146.157 17.913, 143.237 12.894, 139.595 13.144 C 138.443 13.223, 128.838 13.967, 118.250 14.796 M 156.535 22.930 L 151.950 32.060 151.818 64.780 C 151.712 91.264, 151.987 98.858, 153.264 104.626 C 154.895 111.995, 159.330 122, 160.966 122 C 162.250 122, 167.378 110.921, 169.869 102.762 C 175.486 84.373, 176.574 52.444, 172.151 35.793 C 169.877 27.231, 165.637 17.887, 162.905 15.414 C 161.223 13.892, 160.858 14.322, 156.535 22.930 M 56.750 17.662 C 57.438 17.940, 58.563 17.940, 59.250 17.662 C 59.938 17.385, 59.375 17.158, 58 17.158 C 56.625 17.158, 56.063 17.385, 56.750 17.662 M 73 19 C 67.880 19.627, 68.088 19.680, 76 19.767 C 80.675 19.818, 85.400 19.473, 86.500 19 C 88.910 17.964, 81.451 17.964, 73 19 M 98.255 25.338 C 97.515 28.102, 95.533 31.458, 93.176 33.936 C 89.587 37.709, 89.473 38, 91.596 38 C 94.079 38, 96.082 40.139, 94.190 40.770 C 93.550 40.983, 92.056 41.944, 90.869 42.905 C 89.078 44.355, 88.829 45.275, 89.401 48.326 C 90.200 52.582, 91.407 52.853, 96.956 50.023 C 101.920 47.490, 104.584 43.694, 106.465 36.471 C 108.171 29.923, 108.397 29.555, 110.264 30.271 C 112.067 30.963, 122.592 58.184, 123.481 64.454 L 124.184 69.408 126.128 66.954 C 133.470 57.686, 140 47.331, 140 44.954 C 140 41.240, 137.410 34.211, 134.482 29.979 C 130.533 24.273, 126.691 22.573, 117.500 22.466 C 113.100 22.415, 107.243 22.020, 104.484 21.589 L 99.467 20.804 98.255 25.338 M 63.558 22.961 L 47.616 23.500 50.740 27.054 C 56.587 33.708, 71.443 38.984, 80.329 37.563 C 87.826 36.365, 93.912 31.234, 95.531 24.750 L 96.217 22 87.858 22.211 C 83.261 22.328, 72.326 22.665, 63.558 22.961 M 109.731 36.683 C 109.474 37.133, 108.728 39.161, 108.074 41.190 C 106.591 45.792, 99.984 52.520, 95.492 54.003 L 92.104 55.121 97.480 65.418 C 100.437 71.081, 103.164 77.358, 103.541 79.367 C 104.060 82.135, 104.825 83.169, 106.702 83.640 C 108.765 84.158, 110.163 83.287, 115.089 78.412 C 120.368 73.188, 120.999 72.132, 120.988 68.531 C 120.972 63.215, 119.081 56.480, 114.518 45.500 C 110.357 35.487, 110.387 35.542, 109.731 36.683 M 66.599 42.577 C 50.050 45.150, 35.053 50.154, 38.104 52.085 C 38.872 52.570, 50.360 52.916, 63.633 52.852 L 87.766 52.736 86.793 49.213 C 86.136 46.832, 86.167 44.929, 86.889 43.345 C 87.949 41.017, 87.912 41.001, 81.729 41.097 C 78.303 41.150, 71.495 41.816, 66.599 42.577 M 47.295 64.048 C 38.502 66.753, 39.061 77.292, 48.818 92.748 L 51.500 96.996 66.540 96.998 C 87.444 97.001, 96.059 94.607, 99.973 87.710 C 100.784 86.282, 101.234 84.903, 100.973 84.647 C 99.672 83.363, 83.767 80.903, 69.750 79.818 C 58.122 78.918, 54 78.259, 54 77.299 C 54 76.326, 56.347 76, 63.351 76 C 73.025 76, 79.366 74.612, 78.718 72.636 C 76.934 67.194, 55.824 61.424, 47.295 64.048 M 103.507 86.989 C 103.157 87.555, 103.558 87.723, 104.448 87.382 C 106.180 86.717, 106.497 86, 105.059 86 C 104.541 86, 103.843 86.445, 103.507 86.989 M 104.583 90.637 C 98.643 94.674, 87.141 99.653, 80.500 101.063 C 76.840 101.840, 69.820 102.197, 62.500 101.979 C 36.379 101.199, 35.410 101.262, 32.579 103.924 C 28.738 107.535, 29.331 108.646, 35.486 109.369 C 49.505 111.017, 56.238 115.478, 67.563 130.621 C 78.086 144.691, 82.470 148.478, 91.363 151.179 C 97.050 152.906, 99.709 153.163, 106.387 152.628 C 110.849 152.270, 115.737 151.705, 117.250 151.372 C 119.206 150.942, 119.997 151.161, 119.989 152.133 C 119.984 152.891, 112.713 157.180, 103.679 161.754 C 85.521 170.949, 68.079 180.995, 66.072 183.414 C 64.932 184.786, 65.075 185, 67.128 184.997 C 74.495 184.990, 104.150 174.665, 119.009 166.935 L 126.749 162.907 134.625 168.587 C 144.221 175.507, 157.266 182, 161.575 182 C 174.891 182, 160.152 158.146, 143.644 152.981 C 141.523 152.318, 137.136 151.967, 133.894 152.201 C 129.517 152.518, 128 152.294, 128 151.333 C 128 150.621, 129.238 149.744, 130.750 149.386 C 138.507 147.545, 157.056 141.928, 161.014 140.220 C 163.497 139.149, 166.092 137.594, 166.782 136.763 C 167.851 135.474, 167.409 135.074, 163.768 134.038 C 157.780 132.335, 120.149 131.589, 104.507 132.863 L 91.515 133.922 88.257 130.765 C 84.610 127.230, 83.969 122.885, 86.403 118.200 C 87.175 116.715, 92.159 111.225, 97.480 106 C 107.741 95.923, 110.606 91.905, 109.253 89.488 C 108.568 88.263, 107.800 88.452, 104.583 90.637" stroke="none" fill="black" fill-rule="evenodd"/>
</svg>