<svg xmlns="http://www.w3.org/2000/svg" width="200" height="200" viewBox="0 0 200 200" version="1.1">
	<path d="M 120.500 12.785 C 102.639 15.042, 99.751 15.179, 93.500 14.057 C 70.147 9.869, 57.133 11.252, 48.280 18.863 C 47.022 19.945, 45.786 22.489, 45.426 24.735 C 44.333 31.570, 48.835 37.317, 57.681 40.379 L 61.449 41.683 53.279 42.243 C 43.569 42.909, 34.626 46.452, 33.471 50.091 C 32.030 54.632, 40.177 58.920, 50.500 59.053 C 54.755 59.108, 55.223 59.295, 53.640 60.309 C 44.638 66.072, 42.589 67.712, 40.449 70.860 C 34.743 79.257, 39.125 88.153, 51.927 94.158 C 54.672 95.446, 56.936 96.743, 56.959 97.041 C 57.075 98.568, 44.062 100.843, 38.282 100.306 C 33.451 99.857, 31.499 100.098, 29.532 101.387 C 25.830 103.813, 26.397 106.163, 31.937 111.344 C 45.015 123.577, 78 139.607, 78 133.730 C 78 132.607, 79.540 132.018, 83.751 131.529 C 86.913 131.162, 91.976 129.963, 95.001 128.865 C 99.527 127.221, 106.684 126.351, 107.659 127.325 C 107.788 127.454, 106.525 131.596, 104.853 136.530 C 103.181 141.463, 101.659 148.133, 101.472 151.352 L 101.132 157.203 91.531 162.508 C 80.593 168.551, 71.737 174.945, 69.433 178.463 C 68.210 180.329, 68.105 181.328, 68.964 182.933 C 69.901 184.683, 71.026 185, 76.305 185 C 91.946 185, 116.979 173.592, 124.863 162.872 L 127.642 159.092 135.071 165.685 C 153.777 182.284, 166.506 189.094, 170.800 184.800 C 171.460 184.140, 172 181.725, 172 179.434 C 172 166.760, 151.803 143.203, 137.283 138.941 C 133.006 137.686, 121.567 128.509, 122.466 127.055 C 122.729 126.629, 126.444 125.968, 130.722 125.586 C 143.409 124.453, 142.801 124.893, 141.637 117.687 C 140.933 113.327, 141.015 106.480, 141.915 94.500 C 142.617 85.150, 143.433 72.775, 143.729 67 C 144.337 55.099, 146.305 49.829, 147.602 56.626 C 148.895 63.399, 148.566 93.993, 147.102 103.109 C 145.785 111.312, 145.826 112.068, 147.964 119.109 C 155.843 145.054, 165.799 142.683, 172.130 113.352 C 174.724 101.336, 175.325 75.334, 173.179 67.961 C 171.977 63.830, 172.091 62.505, 174.444 53.221 C 179.888 31.744, 181.660 15.060, 178.800 12.200 C 177.007 10.407, 173.590 10.748, 170.718 13.007 C 167.644 15.425, 158.799 27.134, 153.525 35.765 C 151.420 39.211, 149.449 41.783, 149.146 41.480 C 148.844 41.177, 147.563 34.778, 146.301 27.261 C 143.620 11.298, 143.259 9.957, 141.683 10.128 C 141.032 10.199, 131.500 11.394, 120.500 12.785 M 122 15.408 L 105.500 17.568 110.428 19.284 C 113.139 20.228, 116.911 21, 118.812 21 C 124.490 21, 129.856 23.121, 134.483 27.194 C 139.123 31.278, 141.447 36.067, 143.497 45.768 C 144.636 51.159, 144.756 51.325, 145.510 48.561 C 146.862 43.606, 141.799 12.898, 139.667 13.124 C 139.025 13.192, 131.075 14.220, 122 15.408 M 172.723 15.003 C 168.924 17.992, 161.684 27.619, 155.032 38.530 L 149.376 47.806 150.155 54.653 C 151.373 65.364, 151.212 95.349, 149.899 102.257 C 148.378 110.254, 148.458 111.180, 151.481 120.749 C 156.998 138.215, 162.236 138.297, 167.431 121 C 171.849 106.294, 173.439 79.207, 170.471 69.213 C 169.043 64.404, 169.078 63.530, 170.999 56.004 C 176.668 33.799, 178.942 17.571, 176.788 14.686 C 175.488 12.946, 175.322 12.959, 172.723 15.003 M 62.326 14.979 C 58.122 15.876, 51.501 18.835, 52.180 19.513 C 52.381 19.714, 59.735 19.241, 68.523 18.461 C 77.310 17.681, 85.625 17.005, 87 16.958 L 89.500 16.873 87.210 15.954 C 83.841 14.602, 67.157 13.948, 62.326 14.979 M 81.500 19.971 C 72.166 20.957, 66.541 21.916, 68 22.274 C 69.375 22.612, 74.100 23.638, 78.500 24.554 C 89.738 26.894, 102.403 31.007, 101.369 31.981 C 99.468 33.772, 85.490 39.044, 79.187 40.346 L 72.500 41.728 79.500 42.415 C 89.421 43.389, 91 43.830, 91 45.630 C 91 46.908, 90.309 47.093, 87.500 46.566 C 85.575 46.205, 84 46.173, 84 46.495 C 84 46.816, 84.925 48.892, 86.055 51.107 C 87.971 54.863, 88.325 55.088, 91.305 54.447 C 101.810 52.185, 106.971 45.113, 108.621 30.714 C 109.027 27.173, 109.714 25.068, 110.392 25.289 C 111.896 25.778, 120.900 60.944, 119.710 61.679 C 118.285 62.560, 117.678 61.031, 114.490 48.545 C 112.869 42.195, 111.288 37, 110.978 37 C 110.668 37, 109.880 39, 109.226 41.444 C 107.238 48.876, 98.220 57, 91.957 57 C 90.789 57, 89.987 57.337, 90.175 57.750 C 90.363 58.163, 92.286 61.875, 94.450 66 C 97.827 72.441, 98.418 74.522, 98.634 80.737 C 98.854 87.051, 99.301 88.578, 102.146 92.712 C 103.940 95.319, 106.363 99.805, 107.533 102.682 L 109.659 107.913 112.785 101.631 C 116.541 94.084, 117.943 88.444, 117.976 80.750 C 118.003 74.315, 119.546 73.065, 120.591 78.633 C 122.002 86.154, 118.687 97.364, 111.400 109.716 C 109.714 112.573, 109.670 113.098, 111.001 114.428 C 112.333 115.758, 113.101 114.561, 117.883 103.713 C 120.843 96.996, 127.307 83.625, 132.248 74 L 141.230 56.500 140.718 48.878 C 139.672 33.288, 132.835 25.480, 118.500 23.500 C 115.750 23.120, 109.989 21.727, 105.698 20.405 C 101.407 19.082, 97.807 18.064, 97.698 18.141 C 97.589 18.219, 90.300 19.043, 81.500 19.971 M 48 26.374 C 48 33.728, 56.568 39, 68.522 39 C 74.385 39, 87.257 35.954, 92.192 33.399 L 95.500 31.686 89 29.816 C 81.990 27.800, 64.348 24.623, 54.250 23.559 L 48 22.901 48 26.374 M 50.716 45.090 C 44.303 46.029, 36 49.318, 36 50.921 C 36 52.916, 40.872 55.113, 47.652 56.173 C 52.718 56.966, 57.883 56.919, 67.500 55.993 C 74.650 55.305, 81.518 54.796, 82.762 54.861 L 85.023 54.980 82.572 50.142 L 80.120 45.304 72.409 44.652 C 63.158 43.870, 58.399 43.966, 50.716 45.090 M 78.259 57.659 C 77.336 58.032, 77.431 58.574, 78.629 59.772 C 79.857 61, 80.114 62.607, 79.709 66.529 C 79.210 71.365, 79.348 71.774, 82.008 73.346 C 83.565 74.265, 87.377 77.086, 90.481 79.614 C 93.584 82.142, 96.364 83.969, 96.659 83.674 C 97.767 82.567, 94.891 72.734, 91.478 65.957 C 87.444 57.947, 83.569 55.514, 78.259 57.659 M 64.176 60.070 C 58.412 61.204, 50.284 65.018, 46.114 68.543 C 36.530 76.648, 39.614 85.277, 54.728 92.649 C 60.261 95.348, 61.015 95.452, 72.951 95.150 C 85.839 94.825, 90.666 93.517, 94.055 89.434 C 95.333 87.894, 94.877 87.185, 89.538 82.410 C 86.272 79.489, 82.116 76.300, 80.302 75.324 C 77.026 73.559, 76.994 73.564, 75.272 76.024 C 74.319 77.386, 71.966 80.243, 70.042 82.373 L 66.544 86.247 65.317 83.373 C 63.350 78.768, 63.700 73.300, 66.116 70.884 C 67.797 69.203, 69.042 68.876, 72.174 69.297 C 75.704 69.770, 76.217 69.559, 77.083 67.281 C 78.458 63.664, 77.399 61.335, 73.810 60.084 C 70.347 58.876, 70.243 58.876, 64.176 60.070 M 130.828 83 C 120.871 103.171, 114.976 116.368, 115.033 118.355 C 115.052 118.985, 115.953 120.564, 117.037 121.865 C 119.126 124.373, 119.661 124.387, 134.855 122.331 L 139.211 121.741 138.543 114.620 C 138.149 110.409, 138.547 99.691, 139.518 88.391 C 140.421 77.881, 141.001 67.982, 140.807 66.391 C 140.517 64.012, 138.748 66.956, 130.828 83 M 67.667 72.667 C 67.300 73.033, 67.019 75.171, 67.042 77.417 L 67.083 81.500 70.542 77.583 C 72.444 75.429, 74 73.292, 74 72.833 C 74 71.845, 68.630 71.704, 67.667 72.667 M 92.735 93.777 L 88.970 96.354 93.735 98.750 C 96.356 100.067, 100.188 102.779, 102.250 104.775 C 104.500 106.954, 105.991 107.825, 105.978 106.953 C 105.927 103.609, 98.851 90.856, 97.182 91.100 C 96.807 91.154, 94.806 92.359, 92.735 93.777 M 76 99.152 C 72.975 99.689, 68.622 99.889, 66.326 99.594 C 63.646 99.251, 59.349 99.825, 54.326 101.198 C 48.860 102.692, 44.194 103.264, 38.854 103.096 C 30.410 102.831, 28.919 103.701, 31.380 107.458 C 34.693 112.514, 63.355 129.410, 72.261 131.557 C 74.439 132.082, 74.904 131.913, 74.460 130.758 C 74.007 129.576, 75.405 129.182, 81.699 128.717 C 91.849 127.967, 98.844 125.539, 100.059 122.345 C 100.565 121.014, 102.105 118.267, 103.482 116.242 L 105.984 112.559 101.742 108.195 C 96.991 103.308, 90.123 99.413, 84.945 98.669 C 83.050 98.397, 79.025 98.614, 76 99.152 M 107.127 120.295 C 104.461 124.608, 104.467 125.218, 107.172 124.820 C 109.663 124.453, 111.858 119.458, 110.239 117.839 C 109.592 117.192, 108.524 118.034, 107.127 120.295 M 112.469 123.050 C 111.519 124.588, 112.820 125.580, 114.104 124.296 C 114.822 123.578, 114.839 123.019, 114.156 122.597 C 113.596 122.251, 112.837 122.455, 112.469 123.050 M 109.129 132.384 C 105.577 141.878, 103.805 150.210, 104.433 154.461 L 105.030 158.500 97.411 162.402 C 87.779 167.334, 76.240 174.909, 73.026 178.410 C 70.933 180.691, 70.779 181.256, 72.026 182.086 C 74.261 183.572, 83.448 182.193, 93.500 178.863 C 109.145 173.679, 121.288 165.553, 124.596 158.054 L 126.315 154.159 135.123 162.056 C 154.843 179.737, 167.647 186.838, 169.467 181.102 C 170.691 177.246, 165.103 165.933, 157.149 156.165 C 152.886 150.929, 142.988 143.752, 137.500 141.918 C 132.771 140.337, 125.860 135.573, 121.054 130.580 C 118.496 127.923, 116.775 127, 114.376 127 C 111.383 127, 110.995 127.398, 109.129 132.384" stroke="none" fill="black" fill-rule="evenodd"/>
</svg>