<svg xmlns="http://www.w3.org/2000/svg" width="200" height="200" viewBox="0 0 200 200" version="1.1">
	<path d="M 149 12.567 C 144.530 15.856, 144.486 15.865, 142.436 13.939 C 139.039 10.749, 130.124 9.706, 111.500 10.319 C 86.424 11.146, 62.104 14.736, 56.438 18.449 C 49.119 23.244, 59.547 30.300, 81 35.068 C 91.669 37.439, 103.682 37.611, 106.785 35.438 C 108.676 34.113, 109.546 34.068, 112.508 35.139 C 114.428 35.833, 116 36.659, 116 36.973 C 116 37.287, 112.616 40.368, 108.481 43.820 L 100.962 50.094 94.810 49.797 C 91.176 49.622, 88.498 49.012, 88.266 48.309 C 87.769 46.803, 91.983 44.647, 98.750 42.943 C 101.742 42.190, 104 41.058, 104 40.311 C 104 38.646, 103.492 38.665, 97.090 40.566 C 92.365 41.969, 91.697 41.973, 90.658 40.605 C 89.044 38.477, 73.397 36.673, 64 37.532 C 39.956 39.727, 33.586 53.496, 56.014 54.795 C 61.147 55.092, 68.299 54.608, 75.540 53.472 C 86.580 51.742, 87.103 51.743, 91.026 53.512 C 94.443 55.053, 94.871 55.557, 93.730 56.698 C 92.589 57.840, 91.795 57.812, 88.719 56.527 C 84.104 54.599, 80.836 54.608, 71.208 56.574 C 54.152 60.058, 47.499 68.739, 52.871 80.500 C 54.961 85.075, 61.579 91.510, 68.063 95.270 C 80.040 102.215, 96.527 102.969, 108.420 97.114 C 119.466 91.676, 126.624 80.452, 124.040 72.623 C 122.447 67.794, 116.335 62.423, 107.435 58.030 C 102.925 55.804, 100.159 53.927, 101.009 53.669 C 101.829 53.420, 108.350 52.776, 115.500 52.239 C 129.844 51.162, 134 49.871, 134 46.494 C 134 43.940, 132.134 42.083, 126.167 38.701 L 121.833 36.245 127.841 31.623 C 131.145 29.080, 134.271 27, 134.787 27 C 136.220 27, 140.802 37.905, 143.030 46.618 C 149.266 71.001, 144.601 90.952, 130.899 98.490 C 125.706 101.348, 124.981 101.466, 111.864 101.601 C 104.364 101.678, 97.674 102.083, 96.998 102.501 C 96.322 102.919, 82.433 103.564, 66.134 103.934 C 34.602 104.650, 30.826 105.247, 30.200 109.612 C 29.818 112.273, 34.418 116.384, 43.399 121.407 L 50.147 125.180 58.840 123.423 C 69.079 121.353, 72.686 121.901, 73.632 125.669 C 73.996 127.120, 73.710 134.033, 72.997 141.030 C 72.283 148.027, 71.950 156.507, 72.255 159.875 C 72.970 167.757, 77.437 177.333, 83.210 183.359 L 87.657 188 116.256 188 C 131.986 188, 148.375 187.525, 152.678 186.945 C 169.689 184.652, 175.193 177.867, 167.628 168.515 C 165.324 165.666, 165.028 165.579, 161.155 166.613 L 157.096 167.697 162.126 162.974 C 166.254 159.099, 167.098 157.736, 166.829 155.383 C 166.175 149.679, 161.020 149.028, 127.396 150.401 C 113.116 150.985, 105.694 150.928, 104.440 150.226 C 102.724 149.266, 102.838 148.954, 105.973 146.025 C 108.373 143.784, 109.964 143.034, 111.430 143.455 C 126.840 147.880, 135.837 148.823, 145.405 147.018 C 155.822 145.052, 163.082 138.975, 161.134 133.851 C 158.667 127.363, 144.258 127.293, 126 133.679 C 119.675 135.892, 113.742 138.031, 112.816 138.433 C 111.559 138.978, 110.353 138.090, 108.066 134.932 C 100.369 124.308, 106.811 118.184, 129.113 114.923 C 136.822 113.796, 156.310 114.161, 163.503 115.567 L 166.506 116.155 168.378 101.327 C 172.440 69.153, 172.933 64.164, 172.958 55 C 173.007 37.715, 169.883 25.792, 163.067 17.248 C 160.984 14.637, 157.979 11.770, 156.390 10.878 C 153.574 9.297, 153.385 9.340, 149 12.567 M 92 14.119 C 87.325 14.588, 80.350 15.504, 76.500 16.154 C 70.871 17.105, 69.990 17.480, 72 18.069 C 73.375 18.471, 77.968 18.845, 82.206 18.900 C 88.917 18.987, 90.596 19.400, 95.206 22.099 C 98.118 23.803, 101.879 26.237, 103.564 27.508 C 105.249 28.778, 109.439 31.001, 112.874 32.447 L 119.121 35.076 125.805 29.788 C 135.802 21.880, 136.060 21.673, 138.884 19.320 C 142.035 16.693, 141.110 15.277, 135.372 13.946 C 130.630 12.846, 103.609 12.954, 92 14.119 M 144.923 18.811 L 137.346 24.500 140.620 31.500 C 148.160 47.623, 150.472 69.419, 146.098 83.153 C 143.405 91.611, 137.224 98.772, 129.779 102.060 C 125.246 104.062, 122.734 104.410, 112 104.525 C 105.125 104.598, 97.925 104.986, 96 105.385 C 94.075 105.785, 79.566 106.443, 63.759 106.847 C 43.675 107.361, 34.657 107.943, 33.822 108.778 C 32.041 110.559, 35.876 114.161, 44.214 118.543 L 51.198 122.213 59.453 120.481 C 74.232 117.380, 78.014 120.575, 76.385 134.783 C 75.898 139.027, 75.500 147.675, 75.500 154 C 75.500 164.335, 75.767 166.069, 78.135 171.120 C 79.585 174.211, 82.449 178.599, 84.502 180.870 L 88.233 185 117.866 184.992 C 157.242 184.982, 167.178 183.291, 167.755 176.500 C 167.903 174.758, 167.229 172.500, 166.148 171.114 L 164.287 168.729 153.798 171.356 C 129.326 177.485, 108 176.521, 108 169.285 C 108 165.013, 112.945 163.552, 127.500 163.524 C 134.650 163.511, 143.933 163.885, 148.130 164.356 L 155.759 165.212 159.880 161.490 C 169.363 152.923, 164.233 151.284, 133.350 153.015 C 108.883 154.387, 102.591 153.972, 100.934 150.876 C 100.017 149.163, 100.527 148.210, 104.468 144.269 C 107.001 141.736, 108.664 139.402, 108.164 139.082 C 107.663 138.762, 106.072 136.750, 104.627 134.610 C 98.877 126.096, 102.830 119.008, 115.547 115.032 C 125.484 111.925, 144.597 110.328, 155.146 111.723 C 159.741 112.330, 163.607 112.722, 163.737 112.593 C 164.825 111.519, 169.275 72.252, 169.697 60 C 170.267 43.462, 169.547 37.207, 165.973 27.656 C 163.717 21.627, 156.551 12.948, 153.921 13.061 C 153.140 13.094, 149.090 15.682, 144.923 18.811 M 58.538 20.348 C 56.111 22.123, 57.114 23.517, 62.946 26.472 C 74.902 32.531, 105 37.220, 105 33.025 C 105 32.124, 84.669 24.685, 76.040 22.428 C 73.037 21.643, 68.901 21, 66.849 21 C 64.797 21, 62.840 20.550, 62.500 20 C 61.671 18.658, 60.738 18.740, 58.538 20.348 M 88.565 23.413 C 94.167 25.853, 96.817 26.249, 93 24.076 C 91.075 22.980, 88.600 22.083, 87.500 22.081 C 86.034 22.079, 86.319 22.435, 88.565 23.413 M 113.961 42.674 C 104.235 50.678, 104.153 50.328, 115.584 49.629 C 121.130 49.289, 127.115 48.507, 128.884 47.890 C 132.021 46.797, 132.056 46.719, 130.301 44.776 C 129.310 43.681, 126.458 41.748, 123.961 40.482 L 119.422 38.180 113.961 42.674 M 56.150 41.393 C 50.339 42.876, 45.500 45.914, 45.500 48.078 C 45.500 51.992, 60.967 53.263, 76 50.584 C 80.125 49.850, 83.838 49.444, 84.250 49.683 C 84.662 49.922, 85 49.202, 85 48.082 C 85 46.962, 86.188 45.267, 87.641 44.316 L 90.282 42.585 87.391 41.770 C 81.803 40.194, 61.791 39.953, 56.150 41.393 M 95.976 58.529 C 94.925 59.796, 95.083 60.459, 96.893 62.386 C 100.269 65.979, 100.621 70.824, 97.808 74.976 C 93.159 81.837, 83.542 86.240, 79.290 83.454 C 75.118 80.721, 76.625 76.160, 85.040 66.047 L 90.087 59.983 87.293 58.893 C 83.848 57.548, 73.347 58.339, 66.294 60.475 C 63.368 61.361, 59.535 63.516, 57.544 65.394 C 54.583 68.186, 54 69.424, 54 72.918 C 54 75.218, 54.639 78.314, 55.420 79.800 C 57.211 83.207, 64.416 90.063, 69 92.723 C 79.176 98.627, 93.749 99.950, 104.441 95.941 C 115.014 91.977, 123.470 80.995, 121.622 73.630 C 120.641 69.722, 114.691 64.591, 106.516 60.605 C 98.121 56.511, 97.717 56.432, 95.976 58.529 M 89.316 65.255 C 81.254 73.788, 77.525 82.031, 81.750 81.978 C 84.983 81.937, 91.559 78.313, 94.291 75.066 C 97.629 71.099, 97.777 67.079, 94.691 64.180 L 92.382 62.010 89.316 65.255 M 141.708 132.070 C 136.081 132.914, 119.534 138.123, 115.500 140.322 C 113.774 141.262, 114.461 141.646, 120.500 143.124 C 129.320 145.282, 142.102 145.456, 148.665 143.507 C 154.005 141.921, 159 138.091, 159 135.583 C 159 132.315, 150.964 130.683, 141.708 132.070 M 114 167.236 C 109.459 168.876, 109.815 170.219, 115.176 171.670 C 122.559 173.667, 134.228 173.018, 148.925 169.794 C 154.141 168.649, 154.237 168.570, 151.425 167.739 C 146.243 166.208, 117.903 165.827, 114 167.236" stroke="none" fill="black" fill-rule="evenodd"/>
</svg>