<svg xmlns="http://www.w3.org/2000/svg" width="200" height="200" viewBox="0 0 200 200" version="1.1">
	<path d="M 112.144 10.067 C 106.449 10.569, 94.074 12.062, 84.644 13.384 C 75.215 14.706, 64.391 15.837, 60.590 15.898 C 52.211 16.033, 47.405 17.294, 43.729 20.324 C 41.075 22.512, 41.020 22.734, 42.441 25.580 C 45.805 32.325, 55.435 38.087, 66.911 40.221 C 79.322 42.529, 90.113 37.144, 93.731 26.837 L 95.500 21.797 101 22.575 C 104.025 23.004, 110.583 23.387, 115.574 23.427 C 123.866 23.494, 124.957 23.736, 128.246 26.242 C 132.099 29.177, 136.717 37.479, 137.631 43.114 C 138.133 46.209, 137.376 47.706, 130.242 57.723 L 122.292 68.883 120.717 60.887 C 119.787 56.166, 117.620 49.944, 115.426 45.695 C 113.382 41.738, 110.762 36.608, 109.605 34.296 C 107.256 29.604, 105 28.706, 105 32.462 C 105 41.611, 95.688 54.215, 86.656 57.292 C 80.994 59.221, 80.483 57.988, 85.927 55.533 C 91.609 52.971, 95.745 48.411, 94.380 46.214 C 92.142 42.610, 88.360 41.825, 73.685 41.916 C 52.074 42.051, 32.496 45.584, 28.423 50.085 C 26.541 52.165, 26.548 52.215, 28.947 54.158 C 30.283 55.240, 32.603 56.371, 34.102 56.670 L 36.827 57.215 36.277 66.430 C 35.667 76.657, 36.641 81.167, 40.787 87.313 C 43.620 91.513, 49.788 95.558, 56.283 97.476 L 60.493 98.719 52.497 99.458 C 24.508 102.047, 15.045 106.251, 27.837 110.415 C 31.756 111.690, 54.359 116, 57.130 116 C 57.608 116, 58 118.493, 58 121.540 C 58 132.001, 63.314 138.309, 75.442 142.241 C 77.124 142.787, 90.200 143.557, 104.500 143.952 C 136.667 144.841, 138.876 145.471, 138.016 153.500 C 137.898 154.600, 137.097 156.699, 136.236 158.164 L 134.670 160.829 129.085 158.295 C 99.469 144.860, 80.974 144.103, 74.703 156.071 C 69.910 165.221, 78.616 179.889, 92.833 186.614 C 99.648 189.838, 110.483 190.786, 117.056 188.735 C 120.620 187.622, 123.997 187.497, 132.556 188.163 C 154.825 189.893, 172 186.383, 172 180.102 C 172 172.575, 150.605 167.576, 128.213 169.871 C 121.771 170.531, 115.196 171.345, 113.601 171.680 C 109.339 172.577, 111.195 170.322, 115.786 169.026 C 117.829 168.449, 126.951 166.856, 136.059 165.484 C 160.547 161.796, 167.330 159.738, 173.250 154.199 C 179.425 148.422, 175.584 138.798, 162.816 128.050 L 155.914 122.240 148.529 124.585 C 130.139 130.425, 102.068 129.659, 91.250 123.023 C 86.858 120.329, 86.948 117.131, 91.528 113.110 C 94.575 110.434, 101.975 106, 103.393 106 C 103.652 106, 102.320 108.295, 100.432 111.100 C 94.070 120.556, 96.352 124.263, 109.354 125.595 C 114.886 126.162, 116 126.026, 116 124.783 C 116 123.679, 114.364 123.136, 109.738 122.704 C 106.293 122.383, 102.693 121.820, 101.738 121.453 C 98.890 120.360, 99.727 116.894, 104.539 109.846 L 109.082 103.192 120.656 99.384 L 132.231 95.577 124.865 93.152 C 120.814 91.818, 117.386 90.637, 117.247 90.527 C 117.108 90.418, 117.896 87.709, 118.997 84.508 C 120.099 81.306, 121.013 77.970, 121.029 77.093 C 121.077 74.405, 138.182 50.782, 139.283 51.883 C 139.891 52.491, 140.066 60.187, 139.746 72.181 C 139.207 92.336, 137.148 106.443, 132.975 118.571 C 131.660 122.396, 131.315 124.715, 131.966 125.366 C 133.370 126.770, 135.739 120.617, 138.503 108.384 C 142.010 92.865, 143.368 77.666, 142.730 61.065 C 142.231 48.089, 142.367 46.165, 143.931 44.092 L 145.694 41.754 146.347 46.516 C 146.706 49.136, 147.003 63.254, 147.006 77.890 C 147.011 105.524, 147.530 110.045, 151.138 113.917 C 154.163 117.164, 160.465 116.361, 167.012 111.893 C 171.384 108.909, 171.751 108.382, 170.453 106.948 C 168.367 104.643, 168.613 99.921, 172.154 74.312 C 176.153 45.383, 176.587 27.616, 173.401 23.326 C 169.256 17.745, 163.544 19.431, 153.311 29.257 L 147.114 35.208 145.526 31.408 C 144.653 29.318, 142.809 26.127, 141.429 24.318 L 138.919 21.028 141.094 18.086 C 145.085 12.688, 141.789 10.236, 129.623 9.553 C 125.705 9.334, 117.840 9.565, 112.144 10.067 M 108.500 13.107 C 96.548 14.246, 96 14.408, 96 16.808 C 96 18.340, 97.227 18.887, 102.750 19.818 C 106.463 20.444, 112.907 20.853, 117.070 20.728 C 123.860 20.523, 125.069 20.783, 128.801 23.251 C 133.269 26.206, 138.561 34.289, 139.603 39.750 C 140.337 43.599, 140.923 43.731, 143.223 40.567 C 144.824 38.363, 144.833 37.866, 143.349 33.510 C 142.470 30.932, 140.004 26.986, 137.868 24.741 L 133.985 20.658 137.242 17.911 C 139.792 15.761, 140.239 14.897, 139.300 13.933 C 137.719 12.308, 121.460 11.873, 108.500 13.107 M 63.500 22.159 C 55.800 23.245, 48.423 24.353, 47.107 24.621 L 44.714 25.110 47.970 28.469 C 55.245 35.975, 71.429 40.017, 80.435 36.578 C 82.894 35.639, 86.235 33.358, 87.858 31.509 C 90.763 28.200, 92.810 22.477, 91.541 21.208 C 90.157 19.823, 76.873 20.274, 63.500 22.159 M 161.400 25.884 C 159.255 27.470, 155.352 30.984, 152.726 33.692 L 147.953 38.617 148.998 45.987 C 149.573 50.041, 149.945 65.090, 149.824 79.429 C 149.635 101.782, 149.839 106.035, 151.251 109.250 C 152.678 112.498, 153.342 113, 156.215 113 C 158.039 113, 161.093 112.162, 163.002 111.139 L 166.473 109.277 166.626 100.389 C 166.710 95.500, 168.021 82.950, 169.540 72.500 C 172.721 50.610, 173.488 27.511, 171.128 24.659 C 169.105 22.214, 165.799 22.631, 161.400 25.884 M 105.188 42.259 C 102.281 49.274, 97.864 54.466, 91.914 57.865 L 87.039 60.648 90.476 62.287 C 95.237 64.558, 101.523 70.434, 102.998 73.994 C 103.754 75.821, 103.957 78.418, 103.522 80.733 C 103.134 82.805, 102.824 84.707, 102.835 84.961 C 102.845 85.214, 104.421 85.964, 106.336 86.627 L 109.818 87.832 114.539 80.732 L 119.261 73.632 118.722 66.566 C 118.125 58.754, 114.776 48.848, 110.301 41.658 L 107.382 36.967 105.188 42.259 M 59 45.056 C 38.732 47.253, 26.737 51.102, 32.750 53.477 C 40.577 56.570, 79.275 61.729, 75.183 59.134 C 74.277 58.560, 76.618 56.927, 82.683 53.900 C 91.734 49.383, 93.941 46.803, 89.798 45.581 C 85.808 44.404, 67.840 44.098, 59 45.056 M 39.568 60.765 C 38.539 61.794, 38.976 76.631, 40.138 80.101 C 41.960 85.543, 45.739 89.826, 51.312 92.765 C 56.118 95.299, 57.347 95.496, 68 95.447 C 80.359 95.390, 87.037 93.637, 93.743 88.690 L 96.878 86.376 87.689 83.067 C 73.793 78.063, 66 74.314, 66 72.632 C 66 71.811, 67.013 70.984, 68.250 70.795 C 69.604 70.587, 64.451 68.407, 55.318 65.323 C 46.968 62.504, 39.881 60.452, 39.568 60.765 M 63 64.790 C 75.594 69.400, 78 70.632, 78 72.469 C 78 73.238, 76.813 74.010, 75.362 74.184 C 73.452 74.413, 76.268 75.832, 85.569 79.327 C 97.610 83.853, 98.494 84.044, 99.707 82.386 C 103.136 77.697, 99.770 71.091, 91.357 66 C 85.657 62.550, 85.408 62.499, 74.037 62.441 C 67.692 62.408, 60.250 62.059, 57.500 61.664 C 53.294 61.060, 54.168 61.557, 63 64.790 M 114.615 85.465 C 112.815 88.212, 112.629 89, 113.781 89 C 114.210 89, 115.071 87.650, 115.694 86 C 117.070 82.355, 116.755 82.199, 114.615 85.465 M 96.938 89.574 C 96.220 90.440, 93.577 92.219, 91.066 93.528 C 85.701 96.323, 87.085 96.590, 98.500 94.962 C 106.925 93.760, 109.902 91.278, 105.298 89.295 C 101.413 87.622, 98.477 87.720, 96.938 89.574 M 108.868 93.961 C 106.236 97.221, 108.956 96.805, 56.343 101.993 C 34.623 104.135, 25.310 105.718, 26.654 107.040 C 27.565 107.937, 44.704 111.435, 54.500 112.724 L 60.500 113.513 60.529 120.035 C 60.562 127.626, 62.735 132.231, 67.936 135.736 C 74.681 140.281, 86.593 141.952, 112.500 141.988 C 130.330 142.012, 135.861 142.861, 139.065 146.065 C 141.559 148.559, 141.551 153.496, 139.045 158.413 L 137.089 162.248 143.106 161.568 C 151.185 160.653, 163.620 157.407, 167.301 155.251 C 168.946 154.288, 171.177 152.312, 172.259 150.859 C 174.016 148.502, 174.093 147.805, 172.971 144.359 C 171.589 140.117, 158.161 126, 155.507 126 C 154.664 126, 150.718 126.943, 146.737 128.095 C 136.583 131.034, 111.382 131.884, 101.729 129.612 C 93.553 127.689, 87.455 124.720, 85.967 121.938 C 83.101 116.584, 88.708 109.891, 100.882 104.133 C 104.365 102.486, 107.772 100.320, 108.454 99.319 C 112.236 93.768, 113.024 92.133, 112.172 91.606 C 111.657 91.288, 110.170 92.347, 108.868 93.961 M 113.797 96.006 C 111.795 99.524, 111.990 99.572, 118.384 97.144 L 123.267 95.289 119.984 94.144 C 115.615 92.621, 115.745 92.582, 113.797 96.006 M 83.500 151.529 C 81.300 152.321, 79.399 152.977, 79.276 152.985 C 79.152 152.993, 78.315 154.423, 77.416 156.163 C 72.548 165.576, 83.533 181.483, 97.757 185.618 C 102.014 186.855, 105.143 187.067, 110.921 186.507 C 115.089 186.103, 127.500 185.709, 138.500 185.631 C 158.971 185.486, 165.466 184.553, 168.101 181.378 C 169.242 180.004, 169.100 179.499, 167.118 177.895 C 160.608 172.623, 140.158 170.629, 121.218 173.417 C 115.013 174.331, 109.500 174.809, 108.968 174.480 C 108.436 174.151, 108 173.002, 108 171.926 C 108 169.050, 113.314 166.290, 121.413 164.959 C 125.311 164.319, 129.175 163.559, 130 163.272 C 131.840 162.630, 120.173 156.991, 111 154.088 C 97.660 149.866, 90.075 149.160, 83.500 151.529" stroke="none" fill="black" fill-rule="evenodd"/>
</svg>