<svg xmlns="http://www.w3.org/2000/svg" width="200" height="200" viewBox="0 0 200 200" version="1.1">
	<path d="M 62.250 25.060 C 59.374 26.179, 59.293 29.832, 62.067 33.359 C 64.940 37.010, 74.895 44.526, 81.375 47.934 C 84.354 49.502, 89.201 51.108, 92.146 51.504 C 97.390 52.209, 100 53.401, 100 55.091 C 100 55.556, 89.088 55.659, 75.750 55.319 C 50.625 54.678, 39.943 55.540, 35.250 58.586 C 30.360 61.760, 34.191 66.960, 45.004 71.825 C 54.092 75.914, 56 76.424, 56 74.764 C 56 73.997, 52.588 71.983, 48.250 70.188 C 34.146 64.356, 32.507 61.074, 42.648 58.969 C 48.989 57.653, 68.037 57.394, 89 58.340 L 102.500 58.950 105.209 63.225 L 107.919 67.500 96.209 68.121 C 69.110 69.557, 64 70.133, 64 71.750 C 64 73.037, 65.011 73.178, 70.250 72.622 C 73.688 72.257, 82.736 71.671, 90.359 71.319 L 104.217 70.679 102.866 72.843 C 100.424 76.753, 103.544 79.121, 114.173 81.421 C 116.351 81.892, 118.058 84.186, 123.388 93.798 C 133.725 112.441, 137.341 120.956, 136.089 123.704 C 135.514 124.967, 134.459 126, 133.745 126 C 133.031 126, 129.421 122.951, 125.723 119.225 C 119.235 112.687, 119 112.276, 118.999 107.475 C 118.998 97.863, 109.479 83.295, 99.305 77.333 C 95.028 74.826, 94.533 74.760, 87.506 75.746 C 69.841 78.225, 58.949 88.091, 55.947 104.332 C 54.742 110.845, 56.484 119.811, 60.086 125.639 C 67.328 137.356, 82.551 142.885, 104.432 141.744 C 115.871 141.147, 123.811 138.783, 130.231 134.061 L 134.406 130.991 138.203 134.698 C 143.430 139.802, 143.074 145.943, 137.334 149.698 C 133.920 151.931, 119.214 152.355, 56.250 152.040 C 29.820 151.907, 13 152.188, 13 152.761 C 13 154.339, 18.503 161.403, 22.101 164.444 C 23.971 166.024, 27.525 168.251, 30 169.393 C 36.163 172.237, 51.541 172.186, 66 169.272 C 75.388 167.381, 80.101 167.146, 110.500 167.058 C 133.179 166.992, 151.439 167.491, 165.340 168.556 C 176.802 169.435, 186.346 169.988, 186.549 169.785 C 187.143 169.191, 172.286 150.314, 169.921 148.657 C 168.278 147.506, 167.220 147.398, 165.457 148.201 C 162.001 149.776, 159.211 148.637, 151.565 142.529 C 144.906 137.210, 144.545 136.696, 142.513 129.650 C 140.698 123.359, 140.567 121.754, 141.591 118.406 C 144.216 109.828, 145.852 98.049, 144.899 94.597 C 143.066 87.956, 134.117 82.162, 122.933 80.373 C 119.770 79.867, 118.352 78.941, 116.443 76.131 C 115.099 74.154, 114 72.124, 114 71.620 C 114 71.079, 121.870 70.928, 133.241 71.250 C 151.128 71.756, 152.765 71.653, 156.491 69.787 C 161.921 67.068, 166 63.079, 166 60.487 C 166 59.311, 164.925 57.338, 163.611 56.104 C 160.841 53.502, 150.386 50, 145.388 50 C 143.500 50, 137.960 48.366, 133.076 46.369 C 125.485 43.264, 124.119 42.347, 123.659 40.047 C 122.907 36.287, 117.549 31.375, 112.218 29.559 C 106.072 27.464, 96.468 26.679, 90.761 27.804 C 87.105 28.524, 84.592 28.345, 79.761 27.021 C 71.345 24.713, 64.975 24, 62.250 25.060 M 62.447 28.085 C 61.439 29.717, 71.716 39.148, 79.618 43.843 C 83.949 46.415, 88.443 48.236, 91.494 48.654 L 96.404 49.327 94.452 46.313 C 93.378 44.655, 90.700 40.544, 88.500 37.177 L 84.500 31.056 75.876 29.028 C 66.086 26.726, 63.404 26.537, 62.447 28.085 M 92 30.279 C 92.828 31.148, 120.349 40.985, 120.771 40.563 C 120.986 40.347, 120.637 39.190, 119.995 37.991 C 118.013 34.286, 108.592 30.701, 99.520 30.198 C 95.109 29.954, 91.725 29.990, 92 30.279 M 94.286 41.090 L 99.500 49.179 106.500 48.802 C 113.460 48.427, 119.391 46.410, 119.154 44.500 C 119.044 43.619, 92.033 33, 89.902 33 C 89.446 33, 91.419 36.640, 94.286 41.090 M 121.407 47.103 C 119.316 49.414, 111.083 52, 105.818 52 C 101.919 52, 101.019 52.967, 103.250 54.759 C 105.004 56.168, 138 53.639, 138 52.096 C 138 51.707, 134.657 49.993, 130.571 48.287 C 123.277 45.243, 123.110 45.221, 121.407 47.103 M 145.567 53.892 C 145.190 54.502, 143.620 55, 142.078 55 C 140.535 55, 133.699 57.794, 126.887 61.210 L 114.500 67.419 133.286 68.212 C 150.666 68.945, 152.349 68.862, 155.786 67.109 C 161.138 64.377, 163.684 61.315, 162.368 59.191 C 160.127 55.575, 147.071 51.458, 145.567 53.892 M 112.750 57.742 C 109.037 57.934, 106 58.355, 106 58.678 C 106 59.751, 110.152 66.001, 110.832 65.950 C 111.199 65.922, 115.325 63.920, 120 61.500 L 128.500 57.100 124 57.246 C 121.525 57.326, 116.463 57.549, 112.750 57.742 M 106.501 72.999 C 104.188 75.555, 105.295 76.849, 110.522 77.697 L 114.372 78.322 112.427 74.991 C 109.985 70.810, 108.832 70.423, 106.501 72.999 M 84.687 79.094 C 66.308 81.781, 54.315 99.814, 59.362 117.174 C 61.095 123.134, 66.776 130.470, 72.279 133.852 C 79.716 138.423, 104.453 140.592, 115.500 137.641 C 120.652 136.264, 126.990 133.305, 130.500 130.636 C 132.436 129.164, 132.276 128.888, 125.526 122.057 L 118.552 114.998 116.298 117.879 C 113.279 121.736, 106.252 124.900, 99.023 125.655 C 93.582 126.224, 92.714 126.025, 88.299 123.192 C 82.524 119.486, 80 115.549, 80 110.246 C 80 103.529, 87.386 95.371, 97.528 90.885 C 102.729 88.584, 104.353 89.115, 103.534 92.847 C 103.029 95.143, 103.918 96.455, 110.073 102.502 L 117.195 109.500 116.507 106 C 114.750 97.075, 107.876 86.820, 99.659 80.868 C 95.512 77.864, 94.180 77.706, 84.687 79.094 M 121 83.535 C 121 83.829, 123.101 87.766, 125.670 92.285 C 128.238 96.803, 132.241 104.492, 134.564 109.372 C 139.250 119.215, 138.918 119.389, 141.540 105.728 C 143.471 95.669, 142.762 92.391, 137.907 88.933 C 133.497 85.793, 121 81.803, 121 83.535 M 93.971 95.804 C 89.010 98.949, 84.316 104.039, 82.872 107.838 C 81.411 111.679, 83.559 116.496, 88.315 120.047 C 92.161 122.919, 92.988 123.135, 98.529 122.719 C 105.458 122.198, 112.206 119.141, 114.646 115.418 L 116.321 112.862 107.774 104.181 C 103.074 99.406, 99.060 94.925, 98.855 94.222 C 98.592 93.323, 97.140 93.794, 93.971 95.804 M 137.155 127.313 C 136.280 128.367, 136.589 129.205, 138.525 131.024 L 141.026 133.373 139.865 129.937 C 138.400 125.603, 138.497 125.697, 137.155 127.313 M 144.628 141.705 C 144.283 142.051, 144 143.349, 144 144.590 C 144 145.831, 142.864 148.196, 141.477 149.845 C 138.016 153.958, 131.331 155.304, 118.735 154.423 C 112.613 153.995, 104.912 154.223, 98.095 155.033 C 89.557 156.049, 80.449 156.107, 55.712 155.304 C 38.384 154.742, 22.533 154.556, 20.490 154.891 L 16.774 155.500 22.164 160.595 C 29.770 167.787, 35.286 169.476, 48.431 168.641 C 53.969 168.289, 61.425 167.294, 65 166.429 C 77.685 163.360, 151.397 163.522, 176.362 166.674 C 180.914 167.248, 181.158 167.167, 180.188 165.394 C 179.618 164.352, 176.596 160.419, 173.473 156.652 C 169.351 151.682, 167.494 150.106, 166.698 150.902 C 163.936 153.664, 158.034 151.456, 149.378 144.425 C 147.112 142.583, 144.974 141.359, 144.628 141.705" stroke="none" fill="black" fill-rule="evenodd"/>
</svg>