<svg xmlns="http://www.w3.org/2000/svg" width="200" height="200" viewBox="0 0 200 200" version="1.1">
	<path d="M 95.975 2.565 C 95.439 3.976, 95 6.728, 95 8.682 C 95 12.030, 94.843 12.200, 92.250 11.654 C 90.737 11.335, 85.655 10.539, 80.955 9.885 C 71.245 8.532, 66.761 9.695, 66.187 13.713 C 65.409 19.155, 80.314 29.831, 93.157 33.030 C 97.435 34.096, 97.866 34.488, 98.460 37.845 C 98.816 39.855, 99.337 42.286, 99.619 43.246 C 100.062 44.755, 99.478 44.964, 95.316 44.787 C 92.667 44.674, 85.717 45.351, 79.872 46.291 C 66.777 48.397, 59.874 48.449, 53.285 46.492 C 44.977 44.025, 45.631 39.677, 54.779 36.560 C 60.469 34.621, 76.964 34.510, 85.752 36.352 C 89.191 37.072, 92.229 37.438, 92.502 37.164 C 95.102 34.565, 84.995 32.519, 69.500 32.509 C 58.283 32.501, 55.860 32.796, 51.834 34.656 C 49.268 35.843, 46.404 37.980, 45.469 39.406 C 43.872 41.844, 43.872 42.156, 45.463 44.584 C 48.318 48.941, 53.258 50.401, 65 50.359 C 70.775 50.339, 79.411 49.565, 84.191 48.640 C 89.257 47.659, 94.535 47.222, 96.844 47.591 C 100.647 48.199, 100.834 48.407, 101.484 52.740 C 101.856 55.224, 102.417 57.986, 102.731 58.878 C 103.048 59.780, 101.791 59.107, 99.900 57.362 C 91.875 49.956, 83.406 48.610, 73.948 53.237 C 59.840 60.140, 55.358 72.787, 62.990 84.151 C 69.370 93.650, 81.170 98.187, 99.986 98.375 C 110.386 98.479, 112.522 98.758, 112.770 100.045 C 113.198 102.267, 91.707 104.369, 84.500 102.809 C 77.350 101.262, 41.937 101.289, 34.168 102.848 C 23.220 105.044, 20.338 107.338, 23.968 110.968 C 26.396 113.396, 33.088 115.390, 46.140 117.572 C 55.049 119.062, 57.790 119.128, 66.950 118.074 C 72.753 117.407, 86.321 116.604, 97.103 116.289 L 116.706 115.718 117.801 118.859 L 118.896 122 114.198 122.022 C 111.614 122.034, 105 122.636, 99.500 123.360 C 91.308 124.439, 87.963 124.445, 81 123.393 C 69.860 121.710, 53.247 121.654, 50 123.288 C 48.226 124.180, 47.407 125.512, 47.179 127.874 C 46.894 130.829, 47.624 131.967, 53.679 138.008 L 60.500 144.813 56.121 145.405 C 48.606 146.421, 43.841 148.284, 40.358 151.569 C 37.555 154.213, 37 155.450, 37 159.052 C 37 165.146, 40.234 171.098, 46.823 177.130 C 54.858 184.486, 63.321 188.234, 73.190 188.805 C 85.776 189.533, 93.968 185.238, 99.942 174.777 L 102.728 169.899 103.349 173.778 C 104.945 183.763, 115.037 190.672, 126.660 189.739 C 139.042 188.745, 151.584 180.522, 156.878 169.928 C 160.643 162.394, 161.517 156.805, 160.041 149.697 C 159.408 146.650, 158.759 138.834, 158.598 132.328 C 158.437 125.823, 157.969 119.728, 157.559 118.784 C 156.882 117.227, 157.871 117.041, 168.156 116.784 L 179.500 116.500 179.813 113.257 C 180.365 107.538, 168.581 96.769, 148.696 84.817 L 140.537 79.913 140.798 73.207 C 140.942 69.518, 140.709 66.004, 140.280 65.397 C 139.851 64.791, 137.210 63.541, 134.410 62.620 C 126.047 59.869, 118.549 54.910, 118.198 51.900 L 117.897 49.307 128.819 48.195 C 162.048 44.812, 171.081 36.209, 147.854 30.066 C 143.259 28.851, 135.137 26.195, 129.805 24.163 C 120.175 20.495, 120.077 20.424, 115.198 13.485 C 107.427 2.434, 104.787 -0, 100.574 -0 C 97.605 -0, 96.774 0.463, 95.975 2.565 M 99.074 2.862 C 98.483 3.965, 98.007 6.811, 98.016 9.184 L 98.032 13.500 106.516 16.131 C 111.182 17.578, 115 18.474, 115 18.122 C 115 16.867, 104.461 3.707, 102.324 2.294 C 100.360 0.994, 100.044 1.049, 99.074 2.862 M 70.143 12.890 C 67.792 14.380, 69.859 17.789, 75.608 21.905 C 80.912 25.704, 95.489 31.844, 96.590 30.743 C 97.110 30.223, 95.473 16.134, 94.818 15.491 C 94.643 15.319, 91.031 14.463, 86.792 13.589 C 78.270 11.832, 72.214 11.578, 70.143 12.890 M 98.426 20.082 C 98.742 22.237, 99.265 25.800, 99.588 28 L 100.176 32 105.838 31.994 C 111.538 31.989, 117.240 30.800, 119.981 29.045 C 121.257 28.228, 121.181 27.720, 119.437 25.383 C 117.443 22.713, 115.227 21.677, 103.676 18.012 L 97.852 16.164 98.426 20.082 M 123 25.941 C 123 26.459, 123.450 27.160, 124 27.500 C 125.741 28.576, 125.098 29.700, 121.750 31.434 L 118.500 33.117 126.154 32.715 C 138.389 32.072, 139.807 34.530, 130.053 39.473 C 127.538 40.747, 124.360 42.722, 122.990 43.862 L 120.500 45.933 123.372 45.967 C 133.432 46.083, 158 40.396, 158 37.951 C 158 36.195, 153.390 34.063, 145.490 32.164 C 141.095 31.109, 134.610 29.065, 131.078 27.622 C 124.048 24.752, 123 24.534, 123 25.941 M 101.442 38.750 C 102.765 46.215, 102.514 46, 109.912 46 C 115.455 46, 117.025 45.630, 118.529 43.968 C 119.540 42.851, 122.786 40.553, 125.743 38.861 C 128.700 37.169, 130.946 35.613, 130.735 35.402 C 130.524 35.191, 125.229 35.521, 118.968 36.135 C 110.538 36.962, 107.486 36.959, 107.209 36.126 C 107.002 35.507, 105.471 35, 103.805 35 C 100.855 35, 100.794 35.096, 101.442 38.750 M 104 50.553 C 104 51.407, 104.695 55.162, 105.545 58.898 L 107.090 65.690 115.795 68.978 C 120.583 70.786, 127.075 73.556, 130.221 75.133 C 133.368 76.710, 136.366 78, 136.884 78 C 137.401 78, 138.123 76.234, 138.487 74.075 C 139.160 70.091, 137.849 66, 135.899 66 C 135.333 66, 131.533 64.459, 127.456 62.575 C 119.272 58.794, 115 54.945, 115 51.354 C 115 49.167, 114.609 49, 109.500 49 C 105.195 49, 104 49.337, 104 50.553 M 77.885 54.380 C 73.627 55.901, 69.570 58.691, 65.723 62.742 C 59.496 69.298, 61.727 81.892, 70.202 88.031 C 77.317 93.185, 86.069 95.479, 98.667 95.490 C 104.808 95.495, 110.150 95.184, 110.536 94.797 C 110.922 94.411, 110.456 90.902, 109.500 87 C 107.886 80.412, 107.639 80.016, 106.052 81.453 C 105.112 82.304, 103.253 82.996, 101.921 82.992 C 98.957 82.982, 91.725 78.795, 85.898 73.714 C 82.317 70.592, 81.743 69.627, 82.626 68.214 C 84.563 65.112, 88.247 63.939, 95.154 64.225 C 102.560 64.531, 102.781 63.981, 97.336 58.803 C 91.703 53.446, 84.855 51.889, 77.885 54.380 M 86.109 68.368 C 85.207 69.455, 86.057 70.561, 90.237 73.743 C 96.845 78.773, 99.223 80, 102.367 80 C 105.388 80, 106.382 77.554, 105.429 72.471 C 104.598 68.045, 102.330 67, 93.557 67 C 89.436 67, 86.851 67.475, 86.109 68.368 M 108.022 69.804 C 108.072 71.401, 113.869 93.202, 114.379 93.712 C 115.680 95.014, 127.432 89.432, 131.815 85.430 L 136.500 81.152 127.704 77.006 C 117.828 72.352, 107.989 68.751, 108.022 69.804 M 136.108 85.192 C 132.908 89.162, 127.545 92.605, 120.939 94.932 C 117.038 96.305, 115.500 97.363, 115.500 98.673 C 115.500 100.309, 116.753 100.559, 127.510 101.067 C 141.806 101.741, 149.300 104.435, 153.129 110.275 L 155.387 113.721 165.936 114.318 C 171.913 114.656, 176.883 114.517, 177.405 113.995 C 180.488 110.912, 162.970 95.857, 144 85.289 L 138.500 82.225 136.108 85.192 M 38.173 105.008 C 34.693 105.496, 30.227 106.430, 28.248 107.083 C 24.962 108.168, 24.805 108.384, 26.439 109.579 C 28.937 111.405, 44.322 114.886, 53.138 115.618 C 57.187 115.955, 64.550 115.735, 69.500 115.130 C 74.450 114.525, 86.938 113.728, 97.250 113.358 C 107.563 112.988, 116 112.471, 116 112.209 C 116 111.947, 115.484 110.010, 114.853 107.905 C 113.727 104.147, 113.633 104.087, 109.603 104.579 C 96.261 106.208, 89.102 106.573, 86 105.782 C 81.042 104.517, 45.746 103.946, 38.173 105.008 M 117.006 104.627 C 117.009 105.107, 117.461 107.121, 118.012 109.103 L 119.013 112.705 135.113 113.413 C 143.968 113.802, 151.462 113.871, 151.767 113.566 C 152.693 112.640, 148.739 108.911, 144.500 106.714 C 141.324 105.068, 138.080 104.550, 128.750 104.197 C 122.287 103.953, 117.003 104.146, 117.006 104.627 M 120.393 117.582 C 120.727 118.452, 121 119.746, 121 120.457 C 121 121.168, 122.433 122.037, 124.184 122.387 C 131.109 123.772, 132.448 127.689, 129.050 136.627 L 127.102 141.754 131.108 154.987 C 133.311 162.265, 134.883 168.451, 134.600 168.733 C 132.637 170.697, 125.654 162.141, 123.898 155.621 C 123.292 153.372, 123.094 149.346, 123.455 146.625 C 123.933 143.027, 123.504 139.412, 121.865 133.208 L 119.622 124.717 108.061 125.562 C 92.167 126.725, 84.411 126.667, 71 125.283 C 59.583 124.105, 51.946 124.654, 49.793 126.807 C 48.125 128.475, 52.074 133.857, 59.429 139.941 C 63.249 143.102, 66 146.161, 66 147.250 C 66 148.895, 65.468 149.043, 61.619 148.466 C 55.388 147.531, 46.993 149.525, 42.952 152.899 C 40.012 155.353, 39.586 156.281, 39.731 159.913 C 39.935 165.031, 42.466 169.292, 48.851 175.264 C 54.664 180.701, 59.874 183.497, 68.139 185.614 C 82.237 189.226, 94.379 182.735, 99.763 168.708 C 100.863 165.843, 101.662 163.384, 101.540 163.242 C 101.417 163.100, 97.831 164.595, 93.569 166.563 C 83.215 171.348, 75.555 172.984, 73.435 170.864 C 70.753 168.182, 72.784 164.012, 80.483 156.395 C 85.230 151.699, 89.963 148.159, 94.444 145.953 C 100.789 142.829, 101.393 142.711, 103.862 144.104 C 106.191 145.418, 106.485 146.172, 106.374 150.546 C 106.305 153.271, 105.908 158.286, 105.491 161.691 C 103.497 177.980, 111.885 187.911, 126.716 186.819 C 137.989 185.989, 149.039 178.831, 154.526 168.804 C 156.940 164.392, 157.410 162.407, 157.324 157 C 157.149 145.962, 155.330 120.588, 154.592 118.890 C 153.759 116.970, 145.679 116.018, 130.143 116.007 C 121.108 116.001, 119.863 116.202, 120.393 117.582 M 123 125.986 C 123 128.068, 125.448 136, 126.091 136 C 128.253 136, 128.554 126.427, 126.418 125.607 C 124.138 124.732, 123 124.858, 123 125.986 M 94.830 148.525 C 87.175 152.511, 75 164.745, 75 168.450 C 75 170.624, 87.210 166.968, 97.699 161.653 C 102.410 159.266, 102.909 158.669, 103.837 154.318 C 104.963 149.037, 103.991 145.971, 101.215 146.047 C 100.272 146.072, 97.399 147.187, 94.830 148.525 M 126.080 151.500 C 126.065 153.150, 126.904 156.300, 127.945 158.500 C 130.417 163.723, 130.457 162.012, 128.039 154.500 C 126.535 149.828, 126.101 149.164, 126.080 151.500" stroke="none" fill="black" fill-rule="evenodd"/>
</svg>