<svg xmlns="http://www.w3.org/2000/svg" width="200" height="200" viewBox="0 0 200 200" version="1.1">
	<path d="M 67.423 14.720 C 64.753 17.390, 66.063 21.298, 71.154 25.846 L 74.144 28.518 72.294 33.509 L 70.445 38.500 60.472 39.063 C 54.988 39.372, 49.375 40.216, 48 40.938 C 43.509 43.295, 41 46.247, 41 49.174 C 41 53.044, 42.605 52.728, 43.971 48.589 C 45.411 44.226, 49.688 42.426, 60.960 41.443 L 69.307 40.715 68.689 43.804 C 68.349 45.503, 67.439 48.408, 66.665 50.259 C 65.440 53.191, 64.567 53.780, 59.880 54.837 C 56.921 55.504, 53.838 56.464, 53.029 56.970 C 50.212 58.734, 53.070 59.360, 58.077 58.077 C 60.850 57.366, 63.334 57, 63.597 57.264 C 63.861 57.527, 61.638 65.788, 58.658 75.621 C 55.678 85.455, 52.180 97.662, 50.885 102.750 L 48.531 112 44.015 112.015 C 39.691 112.030, 27.429 114.707, 21.847 116.856 C 14.604 119.643, 18.467 123.169, 31.227 125.418 C 46.365 128.086, 45.109 127.432, 44.381 132.271 C 43.607 137.411, 43.094 138.012, 37.819 139.964 C 33.025 141.737, 31.056 144.693, 35.370 143.641 C 43.463 141.668, 42.647 140.759, 42.188 151.237 C 41.491 167.172, 45.485 177.699, 53.808 181.867 C 59.406 184.671, 62.266 185.160, 78 186.007 C 85.975 186.436, 95.610 187.331, 99.411 187.997 C 104.696 188.922, 108.856 188.941, 117.100 188.078 C 147.048 184.942, 166.166 174.285, 152.007 168.619 C 147.268 166.723, 130.832 164.603, 126.420 165.319 C 123.357 165.816, 123.222 165.689, 122.706 161.848 C 121.959 156.275, 123.432 147.029, 125.805 142.401 C 130.608 133.034, 136.852 130.320, 157.802 128.490 C 172.694 127.189, 173.616 126.984, 175.754 124.499 C 178.326 121.510, 178.080 118.959, 174.599 112.500 C 172.642 108.869, 172.077 108.500, 168.482 108.500 C 165.643 108.500, 164.511 108.075, 164.486 107 C 164.461 105.928, 163.526 105.573, 161.205 105.757 C 157.800 106.026, 152.387 103.626, 143.276 97.807 L 138.051 94.470 140.019 91.485 C 142.492 87.733, 142.489 85.793, 139.996 77.721 C 137.647 70.118, 132.263 63.888, 125.425 60.864 C 123.013 59.797, 117.092 58.348, 112.269 57.646 C 104.592 56.527, 103.772 56.220, 105.684 55.184 C 106.964 54.490, 112.141 53.999, 118.184 53.997 C 132.162 53.993, 144.892 52.317, 154.500 49.215 C 158.900 47.794, 163.063 46.734, 163.750 46.860 C 164.438 46.985, 165 46.454, 165 45.678 C 165 44.785, 157.399 41.145, 144.250 35.741 C 132.838 31.050, 122.552 26.930, 121.393 26.584 C 119.843 26.122, 119.402 25.347, 119.726 23.653 C 120.340 20.443, 116.025 15.624, 111.260 14.196 C 105.366 12.430, 69.281 12.861, 67.423 14.720 M 93.694 15.655 C 92.602 15.965, 96.755 17.838, 104.194 20.391 C 110.962 22.713, 116.667 24.496, 116.870 24.353 C 117.074 24.210, 116.965 22.998, 116.629 21.659 C 116.225 20.050, 114.741 18.714, 112.253 17.718 C 108.206 16.099, 96.654 14.815, 93.694 15.655 M 69 17.865 C 69 19.942, 72.614 25, 74.097 25 C 75.005 25, 75.886 23.218, 77.434 18.250 C 78.090 16.143, 77.845 16, 73.567 16 C 69.777 16, 69 16.317, 69 17.865 M 79.902 19.750 C 77.157 26.954, 77.363 27.643, 83.140 30.575 C 89.542 33.825, 99.674 34.912, 105.609 32.985 C 110.498 31.398, 115.419 28.004, 114.327 26.972 C 113.154 25.862, 85.207 17, 82.880 17 C 81.696 17, 80.546 18.062, 79.902 19.750 M 114.954 31.182 C 110.979 34.503, 103.489 37, 97.500 37 C 92.510 37, 83.651 34.512, 79.404 31.918 L 76.308 30.027 75.154 33.880 C 74.519 35.999, 74 37.968, 74 38.256 C 74 39.514, 115.239 40.194, 124.599 39.090 C 130.800 38.359, 134.689 38.289, 135.298 38.898 C 135.907 39.507, 132.301 41.892, 125.377 45.461 L 114.500 51.068 127.500 50.591 C 139.946 50.135, 154.939 47.461, 157.085 45.315 C 157.950 44.450, 147.450 39.698, 126.454 31.455 L 118.409 28.296 114.954 31.182 M 71.552 44.222 C 70.773 46.086, 69.815 48.888, 69.423 50.450 C 68.741 53.169, 68.832 53.261, 71.605 52.628 C 73.197 52.265, 82.150 51.689, 91.500 51.347 L 108.500 50.726 116.729 46.613 L 124.957 42.500 101.786 42.287 C 89.042 42.170, 77.345 41.795, 75.791 41.454 C 73.289 40.905, 72.806 41.220, 71.552 44.222 M 77.500 54.664 C 67.487 55.880, 67.716 55.721, 65.509 63 L 64.752 65.500 67.126 63.343 C 74.094 57.011, 84.424 54.652, 92.881 57.460 C 99.266 59.581, 108.175 67.480, 110.370 72.967 C 111.707 76.309, 113.835 78.190, 123.930 84.953 L 135.904 92.975 137.452 90.765 C 139.456 87.904, 139.408 84.494, 137.271 77.865 C 133.960 67.596, 125.094 61.591, 111.500 60.413 C 101.365 59.535, 99 58.984, 99 57.504 C 99 56.732, 99.787 55.641, 100.750 55.080 C 102.007 54.348, 99.402 54.094, 91.500 54.180 C 85.450 54.246, 79.150 54.464, 77.500 54.664 M 76.148 61.019 C 67.698 64.853, 62.666 70.435, 61.589 77.168 C 59.748 88.683, 68.372 98.352, 84.256 102.580 C 91.384 104.478, 108.688 104.395, 116.284 102.426 C 122.420 100.836, 131.397 96.785, 132.407 95.150 C 132.896 94.359, 114.237 81, 112.644 81 C 112.290 81, 112 81.816, 112 82.813 C 112 85.725, 106.909 89.831, 102.404 90.551 C 97.655 91.311, 87.625 89.483, 85.638 87.495 C 83.688 85.545, 82.765 76.972, 84.095 73.159 C 84.708 71.398, 86.033 69.517, 87.039 68.979 C 90.542 67.104, 92.961 67.682, 106.866 73.711 C 109.053 74.659, 106.530 70.597, 102.314 66.380 C 95.085 59.152, 84.874 57.059, 76.148 61.019 M 86.975 73.565 C 85.845 76.538, 85.764 78.569, 86.607 82.783 C 87.122 85.359, 87.867 85.981, 91.549 86.908 C 100.783 89.233, 107.197 87.742, 108.893 82.877 C 110.153 79.263, 108.741 77.739, 100.534 73.856 C 92.721 70.160, 88.306 70.065, 86.975 73.565 M 54.876 98.591 L 51.354 111.500 61.427 112.312 C 76.822 113.552, 126.685 112.447, 138.500 110.603 C 155.939 107.881, 155.616 108.327, 144.858 101.842 L 135.558 96.235 132.324 98.702 C 130.545 100.059, 125.807 102.353, 121.795 103.800 C 115.253 106.160, 113.054 106.435, 100.500 106.466 C 88.348 106.495, 85.602 106.190, 79.698 104.151 C 69.881 100.761, 64.864 96.626, 59.449 87.462 C 58.601 86.028, 57.713 88.191, 54.876 98.591 M 152 111.122 C 148.119 111.987, 78.907 131.296, 75.133 132.567 C 74.158 132.895, 74.494 133.601, 76.305 135.025 C 78.027 136.380, 79.548 139.392, 81.029 144.378 C 82.230 148.424, 84.205 152.979, 85.420 154.502 C 89.163 159.196, 91.315 156.945, 102.403 136.736 C 109.202 124.343, 114.159 124.301, 117.959 136.601 C 119.081 140.236, 120.008 144.176, 120.018 145.355 C 120.030 146.817, 120.987 145.748, 123.022 142 C 129.064 130.870, 136.257 127.451, 156.887 125.905 C 170.298 124.900, 175.029 123.546, 174.978 120.727 C 174.966 120.052, 174.089 117.591, 173.030 115.257 C 171.532 111.958, 170.592 111.042, 168.802 111.140 C 167.536 111.209, 164.250 111.008, 161.500 110.693 C 158.750 110.377, 154.475 110.571, 152 111.122 M 32.250 116.654 C 26.613 118.038, 22 119.550, 22 120.014 C 22 120.478, 24.362 121.324, 27.250 121.894 C 36.948 123.806, 45.205 125.128, 45.487 124.813 C 46.177 124.040, 47.685 115.018, 47.204 114.537 C 46.251 113.584, 42.714 114.085, 32.250 116.654 M 50.431 116.112 C 50.185 116.509, 49.710 118.836, 49.375 121.284 L 48.765 125.733 52.632 126.430 C 54.760 126.813, 59.552 128.021, 63.282 129.115 L 70.063 131.104 97.282 123.449 C 112.252 119.239, 124.574 115.729, 124.665 115.648 C 124.756 115.566, 108.191 115.475, 87.854 115.445 C 67.516 115.415, 50.676 115.715, 50.431 116.112 M 47.497 130.588 C 47.224 131.915, 46.752 134.182, 46.449 135.626 C 46.017 137.687, 46.224 138.128, 47.411 137.672 C 48.243 137.353, 52.610 136.082, 57.115 134.847 C 66.160 132.368, 66.147 132.345, 54.247 129.612 L 47.994 128.176 47.497 130.588 M 108.776 131.726 C 107.908 132.702, 105.512 136.650, 103.453 140.500 C 97.224 152.142, 93.869 157.017, 91.119 158.422 C 85.914 161.080, 81.836 156.932, 78.413 145.500 C 76.320 138.512, 75.574 137.348, 71.997 135.498 C 69.676 134.298, 68.457 134.388, 62.165 136.224 L 54.982 138.319 59.940 141.151 C 62.958 142.874, 68.262 147.802, 73.493 153.741 C 78.219 159.109, 84.205 165.190, 86.793 167.256 C 95.504 174.208, 104.512 175.293, 115.384 170.701 L 120.269 168.638 119.675 161.069 C 118.547 146.707, 114.407 131.260, 111.427 130.298 C 110.837 130.107, 109.644 130.750, 108.776 131.726 M 46.054 141.899 C 44.715 144.401, 44.688 162.336, 46.016 167.118 C 47.636 172.949, 51.165 177.332, 56.284 179.872 C 60.242 181.835, 62.997 182.311, 72.283 182.634 C 78.452 182.848, 88.574 183.783, 94.775 184.711 C 104.384 186.149, 107.709 186.228, 117.275 185.247 C 130.165 183.924, 142.095 180.999, 149.125 177.437 C 154.631 174.646, 155.272 172.750, 151.250 171.146 C 147.749 169.750, 136.752 168.017, 131.332 168.008 C 124.956 167.996, 124 168.672, 124 173.190 C 124 177.463, 121.779 178.236, 121.180 174.172 C 121.005 172.977, 120.764 172, 120.646 172 C 120.527 172, 117.870 172.900, 114.740 174 C 111.355 175.190, 106.487 176, 102.721 176 C 92.790 176, 88.142 173.113, 74.240 158.312 C 62.152 145.442, 57.203 141.697, 50.804 140.577 C 47.756 140.043, 46.923 140.275, 46.054 141.899" stroke="none" fill="black" fill-rule="evenodd"/>
</svg>