<svg xmlns="http://www.w3.org/2000/svg" width="200" height="200" viewBox="0 0 200 200" version="1.1">
	<path d="M 64.516 10.345 C 62.760 11.646, 62.667 12.200, 63.706 15.158 C 65.309 19.722, 68.183 31.161, 67.806 31.480 C 67.638 31.623, 62.003 32.250, 55.285 32.875 C 41.375 34.169, 38 35.282, 38 38.579 C 38 41.611, 42.404 44.211, 53.911 47.971 C 64.659 51.483, 64 51.370, 64 49.697 C 64 48.959, 60.853 47.386, 56.750 46.072 C 52.763 44.795, 47.281 42.632, 44.569 41.266 C 40.504 39.219, 39.931 38.618, 41.305 37.849 C 43.240 36.767, 57.330 35.019, 64.211 35.008 C 69.459 34.999, 68.776 33.924, 72.114 47.443 C 73.220 51.921, 73.163 52.486, 71.513 53.443 C 67.147 55.976, 63.035 60.365, 61.951 63.649 C 60.187 68.992, 61.157 78.715, 64.033 84.517 C 66.074 88.636, 67.445 89.961, 71.976 92.198 C 74.988 93.684, 79.106 95.180, 81.128 95.522 C 83.714 95.958, 84.966 96.762, 85.350 98.230 L 85.896 100.317 59.198 99.735 C 40.248 99.322, 31.222 99.494, 28.096 100.327 C 12.326 104.528, 29.336 115.924, 56.453 119.325 L 66.407 120.573 61.953 122.290 C 55.235 124.880, 45.051 131.694, 44.088 134.243 C 42.096 139.521, 46.467 141.724, 65.424 144.995 C 86.935 148.707, 89.845 150.470, 84.152 156.343 C 82.337 158.216, 78.523 160.876, 75.676 162.255 C 72.829 163.634, 66.580 166.655, 61.788 168.968 C 53.967 172.743, 46 179.224, 46 181.812 C 46 183.872, 48.912 186.191, 52.527 187.011 C 64.446 189.714, 87.153 181.516, 98.138 170.543 L 103.438 165.250 108.340 170.050 C 117.203 178.729, 130.008 184, 142.231 184 C 156.511 184, 160.113 177.621, 150.540 169.286 C 145.951 165.289, 144.305 164.378, 126 155.700 C 119.675 152.701, 113.600 149.551, 112.500 148.699 C 110.530 147.173, 110.539 147.134, 113.104 146.155 C 114.537 145.608, 122.455 144.663, 130.700 144.055 C 151.345 142.532, 156 141.065, 156 136.081 C 156 132.678, 151.518 128.294, 142.087 122.473 L 135.765 118.571 145.132 116.913 C 162.258 113.881, 177.654 108.581, 180.942 104.585 C 184.272 100.538, 177.750 96.692, 164.500 94.888 C 155.669 93.685, 155.359 93.549, 148 87.647 C 143.875 84.338, 140.356 81.533, 140.181 81.413 C 140.005 81.293, 140.414 79.351, 141.089 77.097 C 142.614 72.008, 141.192 66.487, 136.773 60.334 C 134.105 56.618, 133.206 56.084, 128.637 55.498 C 117.201 54.034, 110 51.517, 110 48.986 C 110 47.161, 112.536 45.595, 114.013 46.508 C 114.471 46.791, 122.193 47.078, 131.173 47.147 C 149.329 47.285, 154.029 46.225, 156.177 41.511 C 157.171 39.330, 157.014 38.209, 155.192 34.459 C 153.356 30.679, 152.577 30, 150.078 30 C 143.446 30, 119 23.701, 119 21.992 C 119 19.796, 112.592 14.067, 107.757 11.941 C 103.508 10.072, 100.678 9.620, 93 9.584 C 87.775 9.559, 81.700 9.733, 79.500 9.971 C 77.300 10.208, 73.475 10.058, 71 9.638 C 67.652 9.070, 65.992 9.251, 64.516 10.345 M 66 13 C 66 14.264, 68.043 14.264, 70 13 C 71.169 12.245, 70.893 12.027, 68.750 12.015 C 67.237 12.007, 66 12.450, 66 13 M 85.083 12.384 C 85.313 12.595, 91.800 14.679, 99.500 17.015 C 107.200 19.350, 114.175 21.471, 115 21.726 C 115.825 21.982, 114.850 20.602, 112.834 18.659 C 108.293 14.284, 101.028 12, 91.652 12 C 87.810 12, 84.854 12.173, 85.083 12.384 M 71.750 15.162 C 70.237 15.715, 69 16.525, 69 16.962 C 69 17.942, 78.695 26.264, 81.670 27.837 C 84.967 29.581, 101.887 31.415, 107.207 30.606 C 112.391 29.818, 117.140 26.733, 115.500 25.219 C 113.959 23.797, 80.233 13.990, 77.191 14.079 C 75.711 14.122, 73.263 14.610, 71.750 15.162 M 69 22.498 C 69 22.837, 69.503 25.114, 70.119 27.557 L 71.237 32 77.869 31.884 C 81.516 31.820, 83.600 31.552, 82.500 31.288 C 81.400 31.024, 78.475 29.135, 76 27.090 C 70.847 22.832, 69 21.620, 69 22.498 M 117.586 28.508 C 115.957 30.995, 115.961 31, 119.337 31 C 121.198 31, 124.889 30.703, 127.540 30.340 L 132.359 29.679 128.245 28.464 C 119.429 25.861, 119.321 25.862, 117.586 28.508 M 136.063 31.576 C 137.416 33.206, 133.828 35.631, 123.500 40.065 L 115.500 43.500 124 44.292 C 140.918 45.870, 154 43.791, 154 39.524 C 154 36.502, 151.640 33, 149.589 32.979 C 148.440 32.968, 144.697 32.371, 141.272 31.653 C 136.440 30.641, 135.272 30.623, 136.063 31.576 M 116 34.036 C 112.425 34.437, 101.032 34.819, 90.683 34.883 C 73.260 34.991, 71.904 35.130, 72.385 36.750 C 72.671 37.712, 73.214 39.850, 73.591 41.500 C 73.968 43.150, 74.421 44.765, 74.598 45.089 C 74.774 45.413, 77.750 45.075, 81.209 44.338 C 84.669 43.602, 92.900 43.004, 99.500 43.010 L 111.500 43.021 121.500 38.057 L 131.500 33.093 127 33.199 C 124.525 33.257, 119.575 33.634, 116 34.036 M 79.866 47.205 C 76.180 47.976, 75.326 48.531, 75.690 49.922 C 76.094 51.466, 76.782 51.562, 81.559 50.739 C 85.612 50.040, 88.907 50.201, 94.677 51.378 C 103.961 53.271, 110.698 57.183, 113.608 62.371 C 115.160 65.139, 117.816 67.355, 123.387 70.530 C 127.594 72.927, 132.424 75.878, 134.121 77.086 C 137.762 79.679, 138.966 78.665, 138.975 73 C 138.983 68.380, 133.737 59.189, 130.739 58.570 C 129.508 58.316, 125.693 57.657, 122.262 57.106 C 118.831 56.555, 113.942 55.183, 111.398 54.058 C 107.153 52.180, 106.808 51.763, 107.212 49.006 L 107.654 46 96.077 46.118 C 89.710 46.183, 82.415 46.672, 79.866 47.205 M 79.250 53.706 C 78.013 53.944, 77.003 54.445, 77.007 54.820 C 77.013 55.506, 85.595 89.004, 86.595 92.250 C 87.061 93.761, 88.459 93.998, 96.817 93.983 C 111.946 93.956, 126.033 90.126, 133 84.146 L 135.500 82 133.048 79.926 C 129.896 77.260, 117.482 70, 116.076 70 C 115.484 70, 115 70.832, 115 71.850 C 115 72.867, 113.647 75.567, 111.994 77.850 C 109.126 81.809, 108.746 82, 103.744 81.994 C 93.222 81.983, 85.623 77.783, 84.381 71.290 C 83.867 68.607, 84.265 67.581, 86.806 65.040 C 89.561 62.285, 90.448 62, 96.264 62 C 99.794 62, 104.769 62.628, 107.321 63.396 C 111.787 64.740, 111.921 64.721, 110.937 62.882 C 107.468 56.401, 90.608 51.518, 79.250 53.706 M 68.713 58.947 C 64.270 62.848, 62.538 68.977, 64.016 75.570 C 65.707 83.115, 67.576 86.576, 71.135 88.751 C 74.621 90.881, 82.725 93.630, 83.395 92.910 C 84.176 92.071, 74.455 56.635, 73.344 56.273 C 72.708 56.066, 70.624 57.269, 68.713 58.947 M 92.500 64.669 C 87.008 66.145, 85.396 71.149, 89.250 74.759 C 92.453 77.759, 96.329 79, 102.497 79 C 107.239 79, 108.097 78.673, 109.865 76.189 C 110.966 74.643, 112.159 72.216, 112.515 70.796 C 113.111 68.420, 112.779 68.088, 108.331 66.617 C 102.804 64.788, 95.432 63.881, 92.500 64.669 M 134.303 86.542 C 126.270 92.874, 111.339 97, 96.459 97 C 89.997 97, 87.941 97.314, 88.262 98.250 C 88.583 99.189, 92.667 99.462, 104.657 99.347 C 120.608 99.194, 120.629 99.191, 125.411 96.159 C 131.222 92.474, 138.324 90.818, 144.726 91.657 L 149.500 92.283 144.357 88.141 C 141.528 85.864, 138.828 84.005, 138.357 84.011 C 137.886 84.017, 136.061 85.156, 134.303 86.542 M 132.625 95.469 C 127.435 97.319, 125.378 99.417, 129.500 98.658 C 131.150 98.353, 136.215 97.809, 140.756 97.448 C 149.816 96.727, 152.020 95.596, 146.230 94.639 C 140.627 93.712, 136.918 93.939, 132.625 95.469 M 154.500 98.035 C 151.841 98.892, 145.980 99.658, 127.203 101.606 C 122.295 102.115, 121.655 102.498, 118.479 106.828 C 116.593 109.398, 112.976 116.450, 110.441 122.500 C 107.906 128.550, 105.007 134.350, 103.999 135.389 C 99.960 139.552, 96.660 134.826, 90.738 116.395 L 86.527 103.291 59.836 102.587 C 26.746 101.715, 20.792 102.769, 28.078 108.209 C 35.055 113.418, 55.234 117.605, 69.048 116.710 C 75.795 116.273, 78 116.434, 78 117.364 C 78 118.043, 76.313 119.202, 74.250 119.939 C 63.257 123.871, 46 133.744, 46 136.102 C 46 137.896, 52.474 139.868, 67 142.500 C 83.512 145.492, 87.558 146.937, 89.140 150.407 C 90.066 152.441, 89.965 153.404, 88.610 155.472 C 86.032 159.407, 78.344 164.539, 69.238 168.403 C 59.941 172.348, 50.503 178.248, 49.561 180.702 C 47.043 187.264, 67.164 185.654, 82.564 178.062 C 90.252 174.273, 97.831 168.225, 101.241 163.158 L 102.817 160.817 108.836 166.836 C 116.360 174.360, 126.564 179.509, 137.076 181.086 C 145.968 182.420, 152.294 180.941, 152.799 177.409 C 153.276 174.067, 145.826 168.243, 134.083 162.778 C 114.991 153.894, 113.310 153.017, 110.641 150.543 C 104.683 145.021, 108.591 143.147, 129.742 141.381 C 145.868 140.035, 152.367 138.833, 153.508 136.987 C 154.951 134.652, 141.980 124.469, 131.750 119.906 C 126.829 117.711, 128.632 116.479, 138.750 115.121 C 156.808 112.698, 177.675 106.018, 178.775 102.308 C 179.584 99.579, 160.264 96.179, 154.500 98.035 M 97.750 102.743 C 92.540 102.972, 90.004 103.480, 90.011 104.292 C 90.051 108.637, 99.521 134, 101.103 134 C 102.145 134, 104.704 129.043, 108.952 118.800 C 110.708 114.565, 113.462 109.281, 115.073 107.059 C 116.683 104.836, 118 102.788, 118 102.509 C 118 102.009, 113.170 102.065, 97.750 102.743" stroke="none" fill="black" fill-rule="evenodd"/>
</svg>