<svg xmlns="http://www.w3.org/2000/svg" width="200" height="200" viewBox="0 0 200 200" version="1.1">
	<path d="M 95 6 C 95 9.300, 94.662 12, 94.250 12 C 93.837 12, 90.349 11.333, 86.500 10.517 C 78.305 8.782, 69.674 8.569, 66.934 10.035 C 64.088 11.559, 64.562 15.432, 68.088 19.447 C 71.769 23.640, 84.695 30.341, 92.450 32.076 C 95.503 32.759, 98 33.745, 98 34.268 C 98 34.790, 96.911 34.944, 95.580 34.610 C 72.726 28.873, 42.786 34.425, 44.168 44.143 C 44.730 48.096, 49.173 49.442, 63.500 49.996 L 76.500 50.500 71.719 51.889 C 66.718 53.341, 64.393 55.704, 61.771 62 C 59.177 68.231, 58.794 72.780, 60.401 78.304 C 64.243 91.515, 82.295 100.157, 103.076 98.732 C 110.359 98.233, 110.853 98.328, 111.377 100.334 C 111.684 101.506, 111.572 102.828, 111.130 103.270 C 110.093 104.307, 95.635 104.250, 70.448 103.108 C 48.971 102.135, 29.833 103.015, 25.292 105.185 C 18.796 108.288, 22.359 113.114, 35.569 119.104 C 42.454 122.226, 42.554 122.239, 50.500 121.090 C 65.628 118.901, 78.539 118.052, 97.091 118.026 L 115.682 118 117.696 125.548 L 119.710 133.095 116.605 132.465 C 114.897 132.118, 109 130.262, 103.500 128.341 C 90.349 123.747, 84.978 122.835, 70 122.652 C 56.140 122.483, 50.917 123.671, 48.361 127.572 C 46.406 130.556, 47.529 134.355, 52.057 140.072 C 54.266 142.861, 54.781 144.122, 53.834 144.423 C 53.100 144.657, 50.700 145.388, 48.500 146.048 C 39.321 148.801, 34.900 155.201, 36.941 162.781 C 40.811 177.154, 63.970 191.585, 80.101 189.674 C 91.928 188.274, 99.895 179.422, 102.309 165 C 102.584 163.360, 102.776 163.875, 102.869 166.500 C 103.270 177.796, 109.884 186.457, 120.457 189.531 C 132.211 192.948, 146.813 189.570, 156.001 181.309 C 163.513 174.555, 165.479 170.234, 165.477 160.485 C 165.475 152.678, 165.315 152.147, 159.292 139.985 C 155.891 133.118, 152.829 125.757, 152.486 123.626 L 151.863 119.752 160.439 120.466 C 168.534 121.141, 169.266 121.034, 173.462 118.575 C 181.807 113.684, 183.091 109.043, 177.463 104.102 C 173.177 100.339, 168.572 97.973, 151 90.507 C 143.575 87.353, 137.389 84.675, 137.254 84.556 C 137.118 84.438, 138.404 81.763, 140.111 78.611 C 141.818 75.460, 143.026 72.693, 142.796 72.463 C 142.566 72.233, 138.355 70.897, 133.439 69.494 C 122.383 66.340, 112.194 61.352, 109.680 57.865 C 107.991 55.521, 107.932 54.913, 109.151 52.365 C 110.521 49.501, 110.526 49.500, 123.011 48.799 C 151.180 47.217, 163.967 43.543, 160.946 37.899 C 159.550 35.291, 154.755 32.406, 148.500 30.409 C 145.750 29.531, 137.986 26.770, 131.247 24.274 L 118.993 19.736 113.833 9.868 C 110.135 2.797, 108.148 -0, 106.824 -0 C 105.119 -0, 105.160 0.293, 107.351 3.764 C 111.030 9.592, 115.119 18.001, 114.267 17.987 C 113.845 17.979, 110.125 16.898, 106 15.584 L 98.500 13.195 98.204 6.598 C 97.982 1.627, 97.550 0, 96.454 0 C 95.343 0, 95 1.417, 95 6 M 67.537 12.940 C 66.521 14.584, 72.723 20.575, 78.715 23.738 C 85.132 27.125, 95.652 30.682, 96.561 29.772 C 96.884 29.450, 96.777 26.107, 96.324 22.343 L 95.500 15.500 89 13.818 C 81.914 11.985, 68.467 11.435, 67.537 12.940 M 99.331 23.642 C 99.672 27.296, 100.225 30.558, 100.559 30.892 C 101.531 31.864, 118.120 31.280, 119.162 30.238 C 119.756 29.644, 119.465 27.945, 118.380 25.671 C 116.848 22.457, 115.798 21.764, 109.073 19.524 C 98.307 15.939, 98.600 15.815, 99.331 23.642 M 121 24.466 C 121 24.722, 121.758 26.522, 122.685 28.466 C 124.275 31.799, 124.648 32, 129.259 32 C 136.617 32, 135.213 34.496, 124.490 40.482 L 115.500 45.500 120.500 45.833 C 132.263 46.618, 157.755 42.234, 158.748 39.256 C 159.262 37.715, 153.976 35.282, 136.500 29.019 C 122.610 24.041, 121 23.568, 121 24.466 M 101 34.893 C 101 35.384, 101.726 36.064, 102.613 36.405 C 103.887 36.894, 103.976 37.324, 103.040 38.451 C 102.389 39.237, 102.001 41.144, 102.178 42.690 C 102.461 45.161, 102.964 45.538, 106.350 45.816 C 109.167 46.048, 111.181 45.467, 113.850 43.652 C 115.858 42.288, 120.425 39.550, 124 37.567 L 130.500 33.963 123.500 34.543 C 119.650 34.862, 115.487 35.329, 114.250 35.581 C 113.013 35.832, 112 35.580, 112 35.019 C 112 34.451, 109.569 34, 106.500 34 C 103.475 34, 101 34.402, 101 34.893 M 60 36.383 C 56.975 37.051, 52.847 38.398, 50.827 39.376 C 41.337 43.971, 47.602 47.233, 65.743 47.141 C 72.519 47.107, 78.560 46.772, 79.167 46.397 C 79.774 46.022, 84.679 45.767, 90.068 45.829 L 99.865 45.944 99.291 42.222 C 98.975 40.175, 98.601 38.358, 98.459 38.184 C 98.318 38.010, 94.669 37.239, 90.351 36.469 C 80.834 34.773, 67.458 34.735, 60 36.383 M 90.105 49.310 C 93.188 50.009, 96.901 51.360, 98.355 52.313 C 100.905 53.984, 101 53.976, 101 52.082 C 101 49.451, 100.655 49.318, 92 48.633 L 84.500 48.040 90.105 49.310 M 77.750 49.662 C 78.438 49.940, 79.563 49.940, 80.250 49.662 C 80.938 49.385, 80.375 49.158, 79 49.158 C 77.625 49.158, 77.063 49.385, 77.750 49.662 M 103.583 51.750 C 103.925 53.263, 105.116 57.939, 106.230 62.143 L 108.255 69.785 116.377 74.332 C 128.546 81.144, 134.143 83.360, 135.205 81.787 C 137.704 78.084, 139.076 74.688, 138.335 74.043 C 137.876 73.643, 134.452 72.517, 130.727 71.541 C 121.519 69.127, 110.815 63.849, 108.068 60.369 C 106.274 58.095, 105.903 56.618, 106.280 53.250 C 106.690 49.577, 106.497 49, 104.858 49 C 103.306 49, 103.075 49.498, 103.583 51.750 M 75.994 53.423 C 69.055 55.340, 67.435 56.555, 64.932 61.718 C 61.743 68.298, 61.665 77.134, 64.751 82.111 C 67.448 86.459, 72.856 90.358, 80.122 93.194 C 85.910 95.453, 107.350 97.075, 108.995 95.379 C 109.731 94.619, 107.421 81.281, 106.343 80.060 C 106.129 79.819, 105.264 80.606, 104.420 81.810 C 102.428 84.655, 97.698 84.698, 94.898 81.898 C 91.886 78.886, 88.333 70.630, 85.752 60.645 C 83.310 51.202, 83.508 51.348, 75.994 53.423 M 86.365 52.781 C 86.733 53.378, 90.515 56.669, 94.768 60.094 C 101.974 65.899, 102.523 66.166, 102.838 64.018 C 103.212 61.474, 100.738 57.640, 96.852 54.739 C 94.012 52.618, 85.254 50.983, 86.365 52.781 M 88 58.807 C 88 61.099, 91.497 71.069, 93.792 75.320 C 98.235 83.551, 101.814 83.690, 104.201 75.725 C 105.393 71.746, 105.361 71.650, 101.990 69.094 C 100.109 67.667, 96.192 64.582, 93.285 62.238 C 90.378 59.895, 88 58.350, 88 58.807 M 108.053 73.764 C 108.083 74.169, 109.114 79, 110.345 84.500 C 112.310 93.278, 112.823 94.461, 114.542 94.177 C 117.389 93.707, 126.729 89.359, 129.393 87.263 L 131.681 85.463 119.840 79.246 C 113.328 75.826, 108.024 73.360, 108.053 73.764 M 131.872 88.657 C 130.359 90.485, 117.348 97, 115.212 97 C 114.335 97, 113.977 97.957, 114.184 99.750 L 114.500 102.500 127.647 102.654 C 143 102.835, 147.358 104.220, 149.623 109.640 C 150.380 111.453, 151 113.788, 151 114.829 C 151 116.365, 151.988 116.840, 156.250 117.352 C 165.708 118.488, 169.523 118.123, 173.008 115.750 C 182.502 109.285, 179.138 105.700, 152.942 94.360 C 143.590 90.312, 135.333 87, 134.592 87 C 133.851 87, 132.627 87.746, 131.872 88.657 M 33.620 105.995 C 29.836 106.471, 26.236 107.375, 25.620 108.005 C 24.072 109.587, 28.781 113.250, 36.688 116.615 L 42.876 119.247 55.688 117.558 C 62.735 116.629, 78.885 115.609, 91.578 115.291 L 114.657 114.712 113.715 110.596 L 112.773 106.479 99.136 106.489 C 91.636 106.495, 75.375 106.192, 63 105.815 C 50.625 105.439, 37.404 105.520, 33.620 105.995 M 119.152 105.731 C 115.884 106.131, 115.820 106.230, 116.493 109.813 C 116.872 111.832, 117.373 113.794, 117.607 114.172 C 118.122 115.007, 125.218 115.766, 138.250 116.380 L 148 116.840 148 114.142 C 148 109.768, 145.511 107.275, 139.952 106.083 C 135.069 105.036, 126.062 104.883, 119.152 105.731 M 119.035 119.202 C 119.054 119.916, 119.885 123.425, 120.881 127 L 122.692 133.500 130.589 134.815 C 140.658 136.491, 142.002 137.680, 141.992 144.905 C 141.978 154.584, 140.023 168.401, 138.443 169.983 C 134.994 173.438, 131.066 167.343, 124.845 148.879 L 120.560 136.164 113.530 134.478 C 109.664 133.552, 103.125 131.484, 99 129.884 C 90.214 126.477, 75.632 124.559, 63.400 125.201 C 54.607 125.662, 50 127.612, 50 130.873 C 50 133.528, 55.439 140.618, 59.487 143.240 C 64.244 146.322, 64.119 148.203, 59.208 147.417 C 51.885 146.246, 41.451 150.931, 39.589 156.228 C 36.497 165.020, 49.755 179.528, 65.832 184.943 C 79.157 189.432, 90.721 186.169, 95.751 176.500 C 97.505 173.128, 100.144 163.810, 99.521 163.187 C 99.298 162.964, 97.768 163.741, 96.121 164.914 C 90.785 168.713, 80.212 173.155, 77.299 172.821 C 71.029 172.102, 73.977 163.374, 84.170 152.477 C 91.641 144.490, 97.619 140.742, 102.179 141.183 C 106.926 141.642, 108.303 144.788, 107.350 153 C 106.936 156.575, 106.575 162.909, 106.548 167.076 C 106.506 173.668, 106.849 175.178, 109.184 178.705 C 119.183 193.804, 151.020 189.704, 160.198 172.135 C 164.767 163.389, 163.869 153.638, 157.515 143 C 154.388 137.764, 150.812 128.677, 149.552 122.765 C 148.843 119.438, 148.266 119.300, 131.750 118.512 C 121.642 118.029, 119.007 118.172, 119.035 119.202 M 124 137.295 C 124 138.668, 130.074 156.140, 132.284 161.122 C 136.585 170.822, 136.834 170.511, 139.014 152.683 C 140.175 143.191, 139.813 140.504, 137.182 139.100 C 135.224 138.055, 124 136.518, 124 137.295 M 97.292 145.084 C 92.045 147.682, 80.403 159.887, 77.930 165.384 L 76.079 169.500 78.453 169.808 C 80.986 170.137, 89.612 166.068, 97 161.059 C 102.387 157.407, 102.966 157.331, 103.115 160.250 C 103.300 163.864, 104.879 154.964, 104.942 149.950 C 104.993 145.963, 103.759 142.998, 102.050 143.001 C 101.748 143.001, 99.607 143.939, 97.292 145.084" stroke="none" fill="black" fill-rule="evenodd"/>
</svg>