<svg xmlns="http://www.w3.org/2000/svg" width="200" height="200" viewBox="0 0 200 200" version="1.1">
	<path d="M 77 11.889 C 71.775 12.225, 66.938 12.864, 66.250 13.309 C 64.132 14.680, 64.859 19.386, 67.937 24.240 C 71.408 29.713, 73.845 31.457, 80.250 33.054 C 82.862 33.705, 85 34.634, 85 35.119 C 85 35.603, 79.858 36, 73.572 36 C 55.745 36, 41.081 38.633, 38.855 42.235 C 36.647 45.807, 42.614 48.865, 57.852 51.970 C 69.573 54.358, 70 54.385, 70 52.734 C 70 51.914, 65.944 50.687, 58.488 49.253 C 52.156 48.035, 45.519 46.280, 43.738 45.353 L 40.500 43.667 43.650 42.372 C 45.382 41.659, 49.657 40.612, 53.150 40.045 C 60.470 38.858, 85.673 38.633, 86.310 39.750 C 86.545 40.163, 87.039 42.170, 87.407 44.212 C 88.048 47.767, 87.938 47.960, 84.788 48.796 C 82.640 49.366, 81.593 50.207, 81.768 51.221 C 81.933 52.180, 81.030 53.027, 79.405 53.434 C 75.475 54.421, 66.251 64.210, 63.415 70.405 C 55.242 88.258, 63.095 101.941, 82.462 103.589 C 88.652 104.115, 94.956 105.506, 98.500 107.127 C 99.890 107.763, 99.128 107.867, 96 107.466 C 93.525 107.150, 76.275 106.803, 57.666 106.695 L 23.832 106.500 21.916 108.861 C 20.862 110.159, 20 111.587, 20 112.034 C 20 113.868, 25.848 119.595, 31.485 123.281 L 37.500 127.215 49 126.719 C 55.325 126.446, 61.619 126.528, 62.986 126.903 C 65.315 127.541, 65.127 127.776, 59.986 130.649 C 56.969 132.335, 51.894 135.172, 48.710 136.953 C 42.535 140.408, 39.405 144.007, 40.376 146.537 C 41.249 148.811, 46.817 150.823, 54.385 151.598 C 60.481 152.223, 61.084 152.496, 61.660 154.890 C 62.934 160.189, 68.591 170.441, 72.862 175.192 C 82.072 185.435, 89.513 185.644, 94.602 175.803 C 96.511 172.111, 98.915 159.469, 98.965 152.861 C 98.999 148.364, 99.107 148.203, 102.485 147.569 C 107.726 146.586, 113.493 148.577, 117.574 152.779 C 121.019 156.327, 126.722 167.123, 130.500 177.251 C 132.647 183.007, 136.150 187, 139.051 187 C 142.063 187, 146.564 181.816, 150.723 173.557 C 157.388 160.323, 156.015 148.303, 146.038 132.541 C 143.267 128.163, 141 124.256, 141 123.858 C 141 122.289, 145.764 121.818, 158.843 122.096 C 166.354 122.256, 173.625 122.016, 175 121.562 C 179.880 119.953, 183 117.011, 183 114.021 C 183 108.787, 175.826 104.388, 152 95.012 C 144.575 92.090, 138.124 89.369, 137.665 88.965 C 137.206 88.560, 137.569 86.800, 138.473 85.053 C 140.622 80.897, 140.627 73.124, 138.484 68.608 C 135.321 61.942, 125.131 55.262, 113.250 52.066 C 110.912 51.437, 109 50.828, 109 50.711 C 109 50.595, 117.964 50.500, 128.921 50.500 C 147.382 50.500, 149.042 50.351, 151.568 48.469 C 155.354 45.648, 155.956 43.271, 154.307 37.656 C 153.069 33.441, 152.600 32.883, 150.692 33.356 C 149.434 33.669, 142.321 31.864, 134 29.121 C 122.569 25.352, 119.561 23.993, 119.788 22.695 C 120.299 19.776, 117.190 15.320, 113.294 13.387 C 109.106 11.308, 95.055 10.728, 77 11.889 M 91 13.944 C 89.075 14.380, 88.307 14.796, 89.293 14.868 C 90.279 14.941, 96.730 16.836, 103.628 19.081 C 110.527 21.325, 116.399 22.934, 116.677 22.656 C 118.098 21.235, 115.361 17.605, 111.620 15.950 C 106.813 13.824, 96.124 12.784, 91 13.944 M 67.482 16.030 C 66.744 17.223, 70.921 24.739, 73.646 27.125 C 75.574 28.812, 82.831 31.503, 83.540 30.793 C 83.763 30.570, 83.537 28.838, 83.037 26.944 C 82.537 25.050, 81.632 21.587, 81.025 19.250 L 79.923 15 74.020 15 C 70.774 15, 67.832 15.463, 67.482 16.030 M 85.219 23.922 L 87.225 31.911 91.800 32.597 C 94.316 32.975, 99.012 32.793, 102.236 32.193 C 107.828 31.153, 115 27.708, 115 26.062 C 115 25.461, 95.436 19.170, 84.856 16.368 C 83.372 15.975, 83.407 16.709, 85.219 23.922 M 117 27.958 C 117 28.485, 115.088 30.034, 112.750 31.400 C 107.985 34.186, 98.661 35.936, 92.250 35.247 C 89.830 34.987, 88 35.212, 88 35.770 C 88 37.920, 94.460 37.806, 105.823 35.456 C 132.642 29.910, 138.012 33.192, 120 44.122 L 113.500 48.067 131.225 47.783 C 148.029 47.515, 149.065 47.384, 151.175 45.272 C 153.001 43.444, 153.230 42.571, 152.451 40.417 C 151.605 38.081, 149.674 37.195, 135 32.412 C 117.080 26.570, 117 26.551, 117 27.958 M 119.500 35.654 C 105.994 38.505, 94.905 40.366, 92.359 40.211 L 89.217 40.018 90.260 44.124 L 91.302 48.230 95.790 47.615 C 98.259 47.277, 102.384 47, 104.957 47 C 108.806 47, 111.172 46.084, 118.317 41.824 C 123.093 38.977, 127 36.277, 127 35.824 C 127 34.983, 123.098 34.895, 119.500 35.654 M 92.506 50.990 C 91.892 51.984, 99.594 60, 101.163 60 C 101.623 60, 102 60.852, 102 61.892 C 102 62.996, 104.122 65.393, 107.089 67.642 C 109.888 69.764, 113.292 73.389, 114.653 75.697 C 116.690 79.151, 118.576 80.593, 125.314 83.846 C 134.512 88.287, 134.970 88.169, 137.187 80.769 C 139.350 73.551, 135.057 65.462, 126.359 60.364 C 119.850 56.550, 111.019 54.054, 106.281 54.689 C 101.601 55.317, 99.579 53.512, 102.538 51.348 C 104.165 50.159, 103.720 50, 98.750 50 C 95.652 50, 92.843 50.445, 92.506 50.990 M 86.813 51.683 C 87.534 51.972, 88.397 51.936, 88.729 51.604 C 89.061 51.272, 88.471 51.036, 87.417 51.079 C 86.252 51.127, 86.015 51.364, 86.813 51.683 M 82.103 55.157 C 76.820 56.675, 67.745 66.392, 65.163 73.295 C 62.639 80.041, 62.381 86.903, 64.499 90.998 C 67.586 96.967, 75.745 100.983, 84.812 100.994 C 87.184 100.997, 91.364 101.733, 94.101 102.628 C 96.838 103.523, 99.291 104.042, 99.551 103.782 C 99.999 103.334, 97.346 87.866, 96.770 87.566 C 96.622 87.489, 94.296 86.542, 91.603 85.463 C 82.048 81.633, 80.905 76.002, 88.236 68.887 C 91.924 65.308, 92.140 64.787, 91.501 61.007 C 90.799 56.852, 88.763 53.931, 86.679 54.090 C 86.030 54.140, 83.972 54.620, 82.103 55.157 M 93.864 59.584 C 94.274 61.116, 95.147 62.549, 95.805 62.768 C 97.706 63.402, 97.190 60.482, 95.059 58.554 C 93.174 56.848, 93.140 56.877, 93.864 59.584 M 96.458 66.067 C 95.772 67.178, 97.632 78.749, 99.158 82.858 C 99.931 84.943, 100.466 85.141, 103.766 84.568 C 108.260 83.787, 113.028 81.996, 112.926 81.129 C 112.885 80.783, 110.522 78.681, 107.676 76.458 C 104.829 74.234, 101.600 70.748, 100.500 68.710 C 98.411 64.840, 97.561 64.284, 96.458 66.067 M 88.624 72.035 C 85.563 75.673, 85.310 78.066, 87.752 80.275 C 89.715 82.052, 95.043 84.291, 95.713 83.621 C 96.536 82.798, 93.454 69.651, 92.351 69.284 C 91.745 69.082, 90.067 70.320, 88.624 72.035 M 106.946 72.334 C 108.842 74.350, 110.809 76, 111.319 76 C 112.666 76, 110.159 73.237, 106.589 70.788 L 103.500 68.669 106.946 72.334 M 113.289 84.156 C 111.750 85.694, 109.501 86.460, 105.559 86.787 C 102.502 87.040, 100 87.559, 100 87.940 C 100 89.116, 102.080 100.392, 102.662 102.371 C 103.133 103.976, 103.875 104.155, 107.856 103.626 C 113.761 102.842, 125.625 97.049, 129.397 93.109 L 132.294 90.084 124.397 86.341 C 120.054 84.282, 116.266 82.460, 115.979 82.292 C 115.693 82.124, 114.482 82.962, 113.289 84.156 M 130.642 95.523 C 125.302 100.222, 118.660 103.827, 112 105.640 C 104.881 107.578, 110.485 107.254, 131.930 104.487 C 142.617 103.108, 152.205 102.248, 153.237 102.575 C 156.396 103.578, 154.771 106.366, 149.500 108.983 C 146.750 110.348, 137.312 114.233, 128.526 117.617 L 112.552 123.768 109.026 121.366 L 105.500 118.965 104.907 128.131 C 104.440 135.336, 103.929 137.579, 102.518 138.610 C 98.908 141.250, 94.142 135.929, 91.956 126.816 C 90.064 118.931, 92.417 114, 98.071 114 C 100.194 114, 101 113.518, 101 112.250 C 101 110.103, 102.908 110.287, 68 109.064 C 38.132 108.017, 27.212 108.389, 24.267 110.553 C 22.618 111.765, 22.699 112.060, 25.476 114.967 C 27.113 116.680, 30.597 119.458, 33.218 121.140 C 37.969 124.189, 38.023 124.197, 51.742 124.091 C 59.309 124.032, 66.107 124.379, 66.848 124.862 C 69.637 126.677, 67.412 129.539, 59.991 133.684 C 47.675 140.563, 43.500 143.420, 43.500 144.968 C 43.500 146.854, 49.999 148.823, 56.550 148.923 C 61.734 149.002, 63.999 150.226, 64.001 152.950 C 64.002 155.276, 69.555 166.553, 73.195 171.622 C 79.535 180.451, 87.616 182.572, 91.231 176.356 C 93.657 172.185, 95.961 160.999, 95.983 153.285 C 95.997 148.175, 96.344 146.886, 97.934 146.035 C 100.761 144.523, 110.656 144.771, 113.875 146.435 C 118.307 148.727, 123.980 155.716, 127.222 162.877 C 136.341 183.023, 136.881 184, 138.900 184 C 141.405 184, 144.955 179.397, 148.925 171 C 154.150 159.950, 152.850 148.267, 145.055 136.206 C 139.429 127.501, 137.930 124.347, 138.596 122.612 C 139.721 119.679, 145.779 118.704, 159.427 119.257 C 170.841 119.720, 172.956 119.553, 176.125 117.936 C 178.121 116.918, 180 115.443, 180.301 114.657 C 181.665 111.104, 172.080 105.661, 147.771 96.183 L 135.382 91.352 130.642 95.523 M 129 107.570 C 119.375 108.856, 109.813 109.929, 107.750 109.954 C 104.336 109.996, 104 110.247, 104 112.752 C 104 114.999, 104.838 115.948, 108.566 117.926 L 113.132 120.348 118.316 118.539 C 124.873 116.251, 150.313 106.020, 150.896 105.437 C 151.629 104.705, 147.249 105.131, 129 107.570 M 103.813 107.683 C 104.534 107.972, 105.397 107.936, 105.729 107.604 C 106.061 107.272, 105.471 107.036, 104.417 107.079 C 103.252 107.127, 103.015 107.364, 103.813 107.683 M 94.607 118.582 C 93.133 122.424, 95.379 131.551, 98.703 135.224 C 101.205 137.989, 101.967 135.788, 101.985 125.750 L 102 117 98.607 117 C 96.435 117, 94.995 117.569, 94.607 118.582" stroke="none" fill="black" fill-rule="evenodd"/>
</svg>