<svg xmlns="http://www.w3.org/2000/svg" width="200" height="200" viewBox="0 0 200 200" version="1.1">
	<path d="M 142.415 11.361 C 142.084 12.224, 139.440 12.956, 135.196 13.360 C 131.513 13.710, 117.700 15.089, 104.500 16.425 C 91.300 17.761, 73.525 19.366, 65 19.991 C 56.475 20.617, 48.487 21.333, 47.250 21.583 C 44.673 22.104, 44.181 24, 46.622 24 C 47.924 24, 48.008 24.286, 47.046 25.445 C 45.243 27.617, 46.173 31.056, 49.165 33.282 C 50.631 34.372, 56.927 36.969, 63.157 39.052 C 76.049 43.365, 76.133 43.283, 57 44.987 C 33.900 47.044, 25.312 49.261, 27.983 52.479 C 29.580 54.404, 36.530 55.838, 52.142 57.462 C 59.646 58.243, 68.351 59.628, 71.488 60.540 C 75.411 61.680, 79.814 62.089, 85.596 61.849 C 90.218 61.657, 94.008 61.500, 94.018 61.500 C 94.537 61.500, 95.705 80.044, 95.331 82.349 L 94.786 85.707 88.839 84.466 C 85.568 83.784, 82.791 83.062, 82.666 82.863 C 82.542 82.663, 81.680 80.825, 80.750 78.777 C 77.897 72.498, 67.462 66.030, 56.697 63.868 C 49.500 62.423, 43.207 64.936, 40.678 70.266 C 38.507 74.842, 38.580 85.391, 40.843 94 L 42.552 100.500 51.526 102.870 C 57.838 104.536, 63.511 105.278, 70.650 105.370 L 80.801 105.500 75.728 108.432 C 72.445 110.329, 68.775 111.520, 65.326 111.806 C 60.251 112.227, 59.840 112.077, 56.709 108.659 L 53.422 105.070 44.004 106.999 C 31.484 109.564, 29 110.655, 29 113.591 C 29 115.592, 30.591 116.698, 39.750 121.067 C 57.221 129.401, 65.504 136.310, 69.044 145.500 C 70.656 149.687, 70.463 159.704, 68.674 164.628 L 67.175 168.755 71.338 172.763 C 77.293 178.497, 82.816 181.642, 92.772 184.972 C 120.215 194.149, 162.350 188.620, 176.500 173.984 L 180.500 169.847 172.500 170.508 C 153.054 172.117, 106.769 165.808, 105.282 161.347 C 104.424 158.771, 117.105 155.912, 142.126 153.039 C 164.460 150.474, 170 148.956, 170 145.403 C 170 143.351, 165.292 141.338, 155.946 139.397 C 149.332 138.022, 141.811 137.599, 121.266 137.446 C 98.956 137.280, 94.660 137.007, 92.551 135.625 C 85.641 131.098, 87.320 126.600, 100.397 114.610 C 110.300 105.530, 113 101.915, 113 97.737 C 113 95.495, 109.419 91.304, 105.863 89.384 C 104.506 88.651, 105.844 86.790, 113.688 78.500 L 123.149 68.500 122.520 74.500 C 121.263 86.500, 117.703 95.397, 107.111 113.008 C 101.348 122.591, 100.590 126.899, 104.223 129.443 C 106.931 131.341, 112.351 131.561, 111.755 129.750 C 111.529 129.063, 110.254 128.344, 108.922 128.154 C 102.774 127.276, 102.938 125.333, 110.176 113.267 C 116.328 103.010, 122.386 89.978, 123.871 83.807 C 124.492 81.226, 125 76.123, 125 72.467 L 125 65.820 132.171 57.878 C 136.966 52.569, 139.592 50.339, 140.094 51.152 C 143.786 57.125, 143.772 97.100, 140.074 109.839 C 137.115 120.033, 133.781 126.175, 128.975 130.289 C 124.984 133.705, 124.916 136.186, 128.871 134.069 C 134.109 131.266, 140.044 120.914, 143.156 109.154 C 146.265 97.406, 146.773 72.006, 144.189 57.500 L 142.229 46.500 145.014 43.620 L 147.799 40.740 148.649 49.620 C 149.815 61.793, 149.566 91.542, 148.253 96.826 C 147.309 100.627, 147.518 102.158, 149.977 109.433 C 153.348 119.406, 154.469 121.668, 157.809 125.250 C 167.121 135.233, 175.487 115.584, 176.650 81 C 177.081 68.189, 176.859 62.876, 175.654 57.236 C 174.278 50.798, 174.267 49.111, 175.551 42.398 C 178.454 27.225, 176.975 18, 171.639 18 C 168.522 18, 161.442 22.783, 155.538 28.878 C 152.808 31.695, 150.278 34, 149.915 34 C 149.553 34, 148.968 32.087, 148.616 29.750 C 148.265 27.413, 147.242 22.013, 146.344 17.750 C 144.788 10.365, 143.562 8.372, 142.415 11.361 M 121.500 17.468 C 100.730 19.734, 100.616 19.815, 115.750 21.542 C 118.362 21.841, 122.928 22.602, 125.896 23.234 C 130.953 24.311, 131.529 24.751, 135.077 30.240 C 137.159 33.462, 139.153 37.420, 139.508 39.037 C 140.413 43.158, 141.296 43.344, 144.428 40.075 L 147.162 37.221 145.564 28.361 C 143.359 16.144, 143.066 14.980, 142.231 15.143 C 141.829 15.221, 132.500 16.268, 121.500 17.468 M 165.040 24.086 C 162.697 25.783, 158.293 29.581, 155.253 32.526 C 149.952 37.660, 149.751 38.042, 150.359 41.844 C 153.132 59.187, 153.416 85.718, 150.947 96.738 C 150.135 100.362, 150.400 102.279, 152.657 109.109 C 155.417 117.461, 158.259 122.541, 161.191 124.364 C 165.412 126.989, 169.794 117.090, 172.640 98.500 C 174.375 87.169, 174.087 58.403, 172.193 53.791 C 171.344 51.724, 171.435 49.235, 172.576 43.291 C 174.197 34.852, 174.716 23.968, 173.586 22.139 C 172.390 20.204, 169.485 20.866, 165.040 24.086 M 76.259 24.562 C 86.866 27.132, 93.513 31.885, 94.599 37.675 C 94.942 39.504, 95.713 41, 96.311 41 C 97.034 41, 96.997 41.403, 96.200 42.200 C 94.899 43.501, 94.631 48.903, 95.621 53.857 L 96.243 56.963 99.060 54.958 C 102.960 52.180, 106.726 43.912, 108.151 35 C 109.565 26.155, 111.160 23.562, 113.034 27.064 C 113.711 28.328, 116.661 36.312, 119.590 44.805 C 122.519 53.299, 125.095 60.428, 125.314 60.647 C 125.534 60.867, 128.758 57.645, 132.479 53.487 L 139.244 45.928 137.478 41.214 C 134.974 34.532, 131.112 28.130, 128.856 26.923 C 125.051 24.886, 105.301 23.040, 88 23.103 C 70.880 23.165, 70.625 23.197, 76.259 24.562 M 51 26.608 L 47.500 28.138 50.185 30.465 C 54.546 34.245, 79.897 42, 87.894 42 C 91.729 42, 92 41.814, 92 39.187 C 92 33.548, 84.556 28.967, 71.259 26.422 C 61.802 24.613, 55.431 24.672, 51 26.608 M 110.684 37.023 C 109.683 45.469, 104.965 54.109, 99.115 58.207 C 97.273 59.497, 97.186 60.444, 97.725 73.292 C 98.218 85.058, 98.530 87, 99.929 87 C 101.412 87, 105.219 83.360, 117.966 69.751 L 122.413 65.003 121.266 59.532 C 120.039 53.682, 113.284 34.034, 112.039 32.696 C 111.628 32.253, 111.018 34.201, 110.684 37.023 M 73 46.051 C 47.452 48.707, 35.791 50.142, 33.819 50.871 L 31.615 51.687 34.058 52.289 C 35.401 52.620, 43.025 53.621, 51 54.515 C 58.975 55.408, 67.975 56.738, 71 57.471 C 80.372 59.740, 83.931 60.133, 88.674 59.422 L 93.252 58.735 92.684 53.225 C 92.371 50.195, 91.734 47.334, 91.267 46.867 C 89.864 45.464, 82.017 45.113, 73 46.051 M 46.888 67.436 C 41.685 70.391, 40.331 78.422, 42.953 90.778 C 43.677 94.188, 44.825 97.440, 45.505 98.004 C 47.590 99.735, 64.119 102.956, 71 102.973 C 79.140 102.993, 84.075 101.649, 88.005 98.342 C 90.925 95.885, 94 91.176, 94 89.161 C 94 87.576, 87.097 86.691, 73.500 86.533 C 58.896 86.363, 43 83.108, 43 80.287 C 43 78.687, 50.542 79.006, 69.750 81.420 C 80.653 82.790, 81.424 81.996, 75.068 75.950 C 67.109 68.378, 52.828 64.064, 46.888 67.436 M 96.564 90.707 C 96.022 92.132, 96.136 92.247, 97.124 91.267 C 97.808 90.588, 98.115 89.781, 97.807 89.474 C 97.499 89.166, 96.940 89.721, 96.564 90.707 M 97.946 94.589 C 93.615 99.099, 79.980 109.459, 75.096 111.951 C 66.993 116.085, 59.890 115.737, 55.125 110.972 L 52.257 108.103 43.209 109.957 C 29.146 112.838, 29.142 112.876, 42.154 119.205 C 59.021 127.408, 66.753 133.830, 70.981 143.148 C 73.237 148.119, 73.608 156.702, 71.865 163.621 C 70.760 168.011, 70.815 168.214, 74.020 171.521 C 78.719 176.368, 89.326 181.621, 99.626 184.202 C 107.048 186.061, 111.118 186.412, 124.500 186.348 C 138.299 186.282, 141.824 185.921, 150.121 183.726 C 160.276 181.039, 169.972 176.944, 172.020 174.476 C 173.089 173.188, 171.667 173, 160.872 172.999 C 139.460 172.997, 110.711 168.662, 104.315 164.470 C 100.539 161.996, 101.355 159.173, 106.506 156.895 C 112.324 154.321, 121.910 152.517, 140.514 150.496 C 163.345 148.015, 170.180 146.168, 163.899 144.175 C 153.180 140.776, 124.865 138.690, 107.353 140.011 C 96.387 140.838, 95.346 140.759, 92.286 138.868 C 87.982 136.208, 85.998 133.257, 86.007 129.527 C 86.016 125.256, 88.328 122.198, 99.881 111.179 C 108.597 102.865, 110.027 101.053, 110.015 98.332 C 110.003 95.821, 109.301 94.731, 106.632 93.082 C 104.780 91.937, 102.843 91, 102.328 91 C 101.813 91, 99.842 92.615, 97.946 94.589" stroke="none" fill="black" fill-rule="evenodd"/>
</svg>