<svg xmlns="http://www.w3.org/2000/svg" width="200" height="200" viewBox="0 0 200 200" version="1.1">
	<path d="M 106 10.020 C 86.257 11.657, 54.866 16.580, 48.339 19.061 C 45.655 20.082, 42.089 23.765, 42.033 25.576 C 41.927 29.008, 51.650 34.092, 65 37.585 C 74.566 40.088, 74.123 40.362, 58.783 41.431 C 49.439 42.082, 36.595 44.641, 32.787 46.610 C 27.497 49.346, 29.797 53.286, 38.250 55.966 C 40.313 56.620, 42 57.233, 41.999 57.328 C 41.999 57.422, 41.045 59.975, 39.879 63 C 38.542 66.468, 37.737 70.901, 37.699 75 C 37.600 85.797, 41.920 91.814, 52.836 96.082 C 55.401 97.086, 56.825 97.947, 56 97.997 C 35.310 99.243, 29.878 100.633, 31.292 104.319 C 31.603 105.129, 35.886 108.552, 40.810 111.925 C 54.761 121.479, 63.906 132.449, 63.978 139.715 C 63.990 140.933, 64.887 142.405, 65.972 142.985 C 69.342 144.788, 86.623 146.926, 107.820 148.162 L 128.140 149.347 127.468 154.424 C 127.099 157.216, 126.505 159.806, 126.148 160.179 C 125.792 160.553, 119.650 160.185, 112.500 159.362 C 94.339 157.271, 81.073 157.904, 73.863 161.205 C 66.087 164.765, 61 172.217, 61 180.049 L 61 182.799 73.750 183.649 C 80.763 184.117, 100.900 184.500, 118.500 184.500 C 145.765 184.500, 151.426 184.244, 156.756 182.769 C 167.250 179.866, 170.535 176.287, 168.375 170.110 C 167.598 167.886, 166.800 167.461, 162.981 167.236 C 155.920 166.821, 154.210 166.184, 150.045 162.422 C 146.390 159.120, 139.284 149.257, 140.121 148.649 C 140.330 148.498, 144.198 147.859, 148.718 147.229 C 157.903 145.950, 162.216 144.127, 164.575 140.526 C 166.044 138.284, 166.030 137.860, 164.399 135.098 C 163.425 133.450, 161.301 131.120, 159.678 129.920 C 156.772 127.772, 156.623 127.764, 149.928 129.380 C 146.188 130.282, 141.159 131.291, 138.752 131.621 L 134.376 132.220 134.793 128.644 C 135.068 126.288, 135.840 124.868, 137.054 124.483 C 138.068 124.161, 139.123 123.133, 139.399 122.199 C 140.804 117.433, 142.971 103.113, 143.967 92 C 144.583 85.125, 145.613 76.800, 146.255 73.500 L 147.423 67.500 148.154 71.500 C 148.556 73.700, 148.919 79.325, 148.962 84 C 149.066 95.425, 151.509 113.162, 153.580 117.527 C 158.234 127.334, 164.505 122.754, 173.026 103.323 L 177.271 93.645 176.710 69.572 C 176.122 44.282, 174.413 29.983, 171.080 22.447 C 168.892 17.501, 167.715 16.604, 164.479 17.416 C 161.515 18.160, 157.932 24.078, 154.050 34.641 L 151.162 42.500 150.831 37 C 150.575 32.751, 151.036 30.435, 152.856 26.819 C 155.726 21.117, 154.959 17.593, 150.136 14.325 C 143.889 10.091, 126.078 8.354, 106 10.020 M 98 13.608 C 90.575 14.367, 80.900 15.574, 76.500 16.291 L 68.500 17.594 90.233 18.346 C 105.009 18.857, 113.643 19.596, 117.205 20.653 C 129.936 24.434, 137.754 33.897, 142.062 50.741 C 143.128 54.909, 144 59.913, 144 61.860 C 144 63.837, 144.367 64.980, 144.831 64.450 C 146.865 62.126, 148 54.324, 148 42.665 C 148 31.844, 148.294 29.497, 150.081 26.070 C 152.686 21.070, 152.327 19.137, 148.285 16.413 C 141.799 12.042, 123.376 11.015, 98 13.608 M 163.144 21.326 C 161.231 23.631, 157.289 33.301, 154.090 43.536 C 151.415 52.091, 151.001 54.905, 151.010 64.460 C 151.033 90.212, 154.218 116.276, 157.695 119.162 C 159.033 120.272, 159.743 119.905, 162.558 116.648 C 164.371 114.551, 167.747 108.521, 170.059 103.248 L 174.264 93.661 173.684 68.081 C 173.102 42.413, 171.849 31.327, 168.674 23.750 C 167.053 19.883, 165.065 19.012, 163.144 21.326 M 57.219 22.019 C 43.073 24.081, 42.037 25.084, 49.750 29.244 C 58.647 34.043, 80.028 38.963, 85.747 37.527 L 88.338 36.877 85.419 33.979 C 81.728 30.313, 66.205 20.959, 64.090 21.125 C 63.216 21.193, 60.123 21.596, 57.219 22.019 M 78 25.108 C 86.417 30.404, 90 33.836, 90 36.604 C 90 38.126, 89.127 39.152, 87.250 39.838 L 84.500 40.842 87.282 40.921 C 91.892 41.052, 97 43.656, 97 45.876 C 97 48.083, 93.650 51.074, 89.041 52.983 C 85.976 54.253, 84.935 56.003, 87.250 55.996 C 89.465 55.990, 94.697 52.264, 97.308 48.835 C 98.705 47.001, 100.834 42.800, 102.039 39.500 C 103.245 36.200, 105.047 32.645, 106.044 31.599 C 107.608 29.959, 108.245 29.864, 110.679 30.904 C 114.750 32.645, 120.333 37.652, 119.574 38.881 C 119.178 39.521, 117.156 38.579, 114.386 36.465 C 111.889 34.559, 109.486 33, 109.046 33 C 107.733 33, 106.337 35.253, 105.019 39.500 C 103.012 45.967, 99.147 51.881, 94.930 54.936 L 90.993 57.787 96.022 61.014 C 102.058 64.887, 107.596 71.107, 108.303 74.806 C 108.586 76.287, 108.226 79.217, 107.503 81.317 C 106.335 84.705, 106.374 85.200, 107.844 85.715 C 108.755 86.034, 111.042 86.914, 112.927 87.671 C 114.812 88.427, 116.722 88.678, 117.173 88.227 C 118.885 86.515, 120.284 71.497, 119.277 65.648 C 118.361 60.332, 119.020 57.690, 120.817 59.482 C 121.599 60.262, 121.737 81.756, 120.994 86.944 C 120.520 90.249, 120.682 90.458, 125 92.104 C 128.811 93.556, 129.194 93.934, 127.500 94.569 C 117.508 98.313, 116.546 98.863, 115.739 101.283 C 115.034 103.397, 115.511 104.652, 118.509 108.580 C 120.501 111.190, 123.234 115.501, 124.582 118.162 C 126.682 122.306, 127.459 123, 129.998 123 C 132.250 123, 133.088 122.459, 133.486 120.750 C 133.775 119.513, 135.853 109.500, 138.104 98.500 C 141.841 80.240, 142.149 77.587, 141.646 68 C 140.492 46.005, 134.084 32.174, 122.002 25.598 C 116.016 22.339, 105.705 21.088, 84.500 21.045 L 71.500 21.019 78 25.108 M 62.500 43.667 C 47.916 44.874, 33 48.121, 33 50.090 C 33 51.737, 38.873 53.713, 50.030 55.820 C 64.133 58.484, 72.507 59.173, 78.500 58.164 C 83.078 57.394, 83.268 57.258, 80.750 56.553 C 79.237 56.130, 78 55.442, 78 55.026 C 78 54.609, 80.664 53.297, 83.919 52.110 C 90.304 49.782, 94.952 46.626, 93.760 45.429 C 91.863 43.525, 75.416 42.598, 62.500 43.667 M 83 60.200 C 81.027 60.775, 74.048 61.020, 67 60.762 L 54.500 60.304 65.963 64.151 C 72.268 66.266, 78.085 68.657, 78.891 69.462 C 80.434 71.005, 80.377 71.061, 76.091 72.224 C 74.894 72.548, 97.792 82.272, 101.908 83.187 C 104.044 83.662, 106.427 78.838, 105.628 75.655 C 104.654 71.773, 98.642 65.514, 92.525 62.014 C 89.627 60.356, 87.086 59.041, 86.878 59.090 C 86.670 59.140, 84.925 59.639, 83 60.200 M 42.887 62.750 C 37.431 76.852, 40.200 86.848, 51.067 92.286 C 61.853 97.683, 81.021 96.775, 93.961 90.252 C 96.964 88.739, 99.548 87.050, 99.703 86.500 C 99.859 85.950, 96.051 83.987, 91.243 82.138 C 76.738 76.560, 68 72.240, 68 70.648 C 68 69.833, 68.518 68.994, 69.151 68.783 C 70.178 68.441, 46.627 59.961, 44.725 59.989 C 44.299 59.995, 43.472 61.237, 42.887 62.750 M 102.040 88.452 C 101.378 89.250, 98.640 90.997, 95.957 92.334 L 91.078 94.765 96.789 95.181 C 99.930 95.410, 103.976 96.335, 105.779 97.236 C 110.042 99.368, 114.529 98.014, 115.457 94.316 C 115.809 92.912, 115.963 91.673, 115.799 91.561 C 115.375 91.274, 103.882 87, 103.533 87 C 103.375 87, 102.703 87.653, 102.040 88.452 M 118.500 94 C 118.160 94.550, 118.332 95, 118.882 95 C 119.432 95, 120.160 94.550, 120.500 94 C 120.840 93.450, 120.668 93, 120.118 93 C 119.568 93, 118.840 93.450, 118.500 94 M 81.813 97.683 C 82.534 97.972, 83.397 97.936, 83.729 97.604 C 84.061 97.272, 83.471 97.036, 82.417 97.079 C 81.252 97.127, 81.015 97.364, 81.813 97.683 M 86.500 99.455 C 83.767 100.384, 75.371 100.942, 60 101.217 C 47.280 101.445, 36.703 102.066, 35.666 102.646 C 34.075 103.538, 35.093 104.566, 43.371 110.434 C 57.554 120.488, 64.502 128.688, 66.437 137.656 C 66.888 139.749, 67.856 140.998, 69.309 141.363 C 74.934 142.774, 97.727 145.028, 112.499 145.634 L 128.852 146.304 129.513 142.402 C 129.876 140.256, 130.247 137.893, 130.336 137.152 C 130.462 136.114, 128.047 135.721, 119.848 135.446 C 92.918 134.543, 79.771 126.197, 86.958 114.568 C 88.974 111.306, 94.751 106.730, 102.178 102.511 L 106.411 100.107 103.640 99.053 C 99.848 97.612, 91.337 97.811, 86.500 99.455 M 102.069 105.773 C 92.587 111.099, 88 115.846, 88 120.331 C 88 123.432, 88.556 124.338, 91.750 126.442 C 97.008 129.906, 105.696 131.944, 118.358 132.683 L 129.216 133.318 127.563 130.121 L 125.910 126.925 118.619 127.585 C 113.510 128.048, 110.606 127.865, 108.914 126.973 C 104.013 124.389, 103.845 121.606, 108 111.840 C 109.650 107.963, 111 104.436, 111 104.002 C 111 101.910, 107.826 102.540, 102.069 105.773 M 111.060 111.537 C 108.057 118.246, 107.322 122.957, 109.103 124.085 C 110.903 125.225, 121.081 125.235, 122.874 124.099 C 123.991 123.391, 123.733 122.280, 121.500 118.177 C 119.988 115.399, 117.520 111.652, 116.016 109.850 L 113.282 106.575 111.060 111.537 M 138.079 111.583 C 138.127 112.748, 138.364 112.985, 138.683 112.188 C 138.972 111.466, 138.936 110.603, 138.604 110.271 C 138.272 109.939, 138.036 110.529, 138.079 111.583 M 137.079 116.583 C 137.127 117.748, 137.364 117.985, 137.683 117.188 C 137.972 116.466, 137.936 115.603, 137.604 115.271 C 137.272 114.939, 137.036 115.529, 137.079 116.583 M 129 126.809 C 129 127.254, 129.661 128.491, 130.468 129.559 C 131.874 131.418, 131.938 131.384, 131.968 128.750 C 131.989 126.958, 131.477 126, 130.500 126 C 129.675 126, 129 126.364, 129 126.809 M 148.667 132.507 C 146.009 133.238, 141.621 134.139, 138.917 134.511 C 136.213 134.883, 134 135.583, 134 136.067 C 134 136.551, 134.984 138.971, 136.186 141.446 C 137.907 144.988, 138.811 145.858, 140.436 145.536 C 141.571 145.311, 145.164 144.860, 148.421 144.534 C 155.612 143.815, 163 140.747, 163 138.479 C 163 136.223, 157.556 130.980, 155.327 131.089 C 154.322 131.139, 151.325 131.777, 148.667 132.507 M 132 144 C 132 145.111, 132.667 146, 133.500 146 C 135.183 146, 135.251 145.817, 134.393 143.582 C 133.536 141.347, 132 141.616, 132 144 M 130.425 153.750 C 130.041 156.363, 129.325 159.578, 128.833 160.895 L 127.939 163.291 117.220 162.395 C 111.324 161.903, 100.425 161.500, 93 161.500 C 81.331 161.500, 78.875 161.789, 74.892 163.631 C 69.500 166.124, 65.139 171.367, 64.335 176.320 L 63.766 179.827 69.133 180.419 C 81.115 181.742, 123.245 183.092, 134 182.497 C 152.982 181.448, 163.930 178.868, 166.026 174.952 C 167.725 171.777, 166.161 170.002, 161.643 169.978 C 153.397 169.934, 145.778 164.302, 139.520 153.625 C 137.305 149.845, 136.291 149, 133.966 149 C 131.338 149, 131.070 149.360, 130.425 153.750" stroke="none" fill="black" fill-rule="evenodd"/>
</svg>