<svg xmlns="http://www.w3.org/2000/svg" width="200" height="200" viewBox="0 0 200 200" version="1.1">
	<path d="M 89.881 2.750 C 89.284 4.284, 89.065 8.029, 89.387 11.218 L 89.963 16.936 81.731 13.838 C 70.056 9.445, 69.517 9.392, 66.560 12.349 C 65.152 13.757, 64 15.570, 64 16.378 C 64 21.065, 74.918 28.132, 87.364 31.500 C 91.277 32.560, 94 33.837, 94 34.614 C 94 35.675, 89.052 35.889, 68.591 35.716 L 43.182 35.500 40.591 37.924 C 37.368 40.940, 37.235 44.867, 40.179 50.104 L 42.357 53.981 48.929 53.467 C 96.445 49.756, 99 49.623, 99 50.868 C 99 51.346, 95.737 51.961, 91.750 52.235 C 72.944 53.527, 57.769 64.929, 57.769 77.768 C 57.769 83.509, 60.513 89.446, 65.445 94.379 C 72.066 100.999, 90.238 105.680, 105.250 104.633 C 113.367 104.066, 114 104.158, 114 105.904 C 114 108.646, 112.206 108.998, 98.168 109.016 C 91.201 109.025, 80.438 109.451, 74.252 109.963 C 64.061 110.806, 62.464 110.703, 57.252 108.858 C 50.081 106.320, 35.701 105.284, 30.674 106.943 C 22.896 109.510, 20.841 116.471, 26.094 122.454 C 31.810 128.965, 44.042 130.698, 58.385 127.029 C 67.190 124.778, 80.004 123.406, 101.390 122.426 L 116.279 121.744 115.785 126.882 C 115.491 129.940, 114.524 132.873, 113.396 134.126 C 111.662 136.052, 110.943 136.158, 105 135.366 C 95.258 134.068, 62.308 134.408, 57 135.861 C 49.002 138.052, 46.998 139.162, 46.344 141.764 C 45.502 145.118, 48.340 147.234, 58 150.454 C 72.376 155.247, 75.115 155.491, 82.289 152.621 C 95.226 147.445, 106.345 147.527, 112.982 152.845 C 118.401 157.187, 122.357 164.726, 128.054 181.565 C 130.926 190.054, 133.629 197, 134.060 197 C 135.815 197, 143.301 187.028, 146.783 180.052 C 150.302 173.001, 150.499 172.094, 150.477 163.052 C 150.458 155.152, 149.895 151.697, 147.227 143.075 C 145.451 137.339, 144 130.450, 144 127.758 L 144 122.866 154.250 123.513 L 164.500 124.160 171.452 119.095 C 182.689 110.907, 182.467 110.080, 167.908 105.922 C 159.154 103.421, 141.025 95.584, 136.130 92.185 C 135.013 91.409, 135.352 90.031, 137.968 84.718 C 140.487 79.599, 141.294 76.464, 141.731 70.101 L 142.286 62 135.893 61.992 C 125.910 61.981, 112.975 60.214, 110.368 58.506 C 107.047 56.329, 107.410 54.473, 111.732 51.536 C 115.832 48.750, 121.418 48.405, 138.913 49.857 L 147.325 50.555 152.663 45.677 C 161.642 37.471, 160.063 35.599, 140.321 31.037 C 133.093 29.367, 126.935 28, 126.636 28 C 126.337 28, 126.813 26.745, 127.694 25.211 L 129.294 22.422 123.397 16.851 C 108.304 2.591, 104.206 0, 96.743 0 C 91.350 0, 90.877 0.190, 89.881 2.750 M 93.200 2.200 C 91.802 3.598, 91.595 12.805, 92.885 16.197 C 93.630 18.157, 96.032 19.197, 108.089 22.781 L 122.408 27.037 124.454 24.989 L 126.500 22.941 121 17.957 C 105.016 3.471, 96.663 -1.263, 93.200 2.200 M 68.200 14.200 C 66.286 16.114, 66.771 17.592, 70.341 20.727 C 73.657 23.638, 83.636 28.144, 89.616 29.430 L 92.732 30.100 91.756 25.163 L 90.780 20.225 81.040 16.613 C 70.147 12.572, 69.878 12.522, 68.200 14.200 M 94.006 22.374 C 94.009 22.994, 94.466 25.137, 95.021 27.137 C 95.984 30.601, 96.280 30.803, 101.266 31.401 C 106.056 31.976, 117.572 30.761, 118.780 29.554 C 119.058 29.275, 118.659 28.849, 117.893 28.607 C 100.647 23.156, 94.001 21.422, 94.006 22.374 M 119 32.049 C 115.863 33.333, 111.850 33.908, 105.750 33.946 C 99.876 33.982, 97 34.376, 97 35.145 C 97 35.952, 99.063 36.117, 103.978 35.705 C 107.816 35.383, 111.198 35.512, 111.494 35.991 C 112.334 37.350, 110.649 37.963, 104.224 38.634 L 98.278 39.256 99.294 43.261 L 100.311 47.265 107.500 46.721 C 113.439 46.272, 116.238 45.387, 123.595 41.632 L 132.500 37.086 127.615 37.697 C 123.688 38.189, 122.822 38.034, 123.197 36.908 C 123.693 35.420, 129.052 34.153, 135.250 34.058 C 141.602 33.960, 139.831 36.561, 130.278 41.361 C 122.074 45.484, 121.733 45.779, 124.528 46.339 C 126.163 46.666, 131.784 47.053, 137.020 47.199 C 146.512 47.464, 146.551 47.455, 150.770 44.065 C 155.602 40.182, 156.058 38.353, 152.530 37.011 C 150.371 36.191, 123.692 29.831, 123.553 30.104 C 123.524 30.161, 121.475 31.036, 119 32.049 M 49.500 37.629 C 43.046 38.601, 41 40.016, 41 43.511 C 41 45.308, 41.788 47.745, 42.750 48.927 L 44.500 51.076 65.500 49.557 C 99.805 47.076, 98.270 47.470, 96.084 41.721 C 95.196 39.385, 94.751 39.292, 81.334 38.639 C 73.725 38.268, 64.125 37.787, 60 37.571 C 55.875 37.355, 51.150 37.381, 49.500 37.629 M 102.754 49.689 C 101.366 50.052, 101.219 50.541, 102.039 52.073 C 103.394 54.604, 104.352 54.505, 107.595 51.500 L 110.292 49 107.396 49.116 C 105.803 49.180, 103.714 49.437, 102.754 49.689 M 81.487 56.799 C 66.056 62.135, 57.895 72.029, 60.834 81.839 C 62.770 88.303, 67.568 93.920, 73.318 96.455 C 80.903 99.798, 91.810 102.002, 100.697 101.986 C 109.614 101.971, 113.002 101.302, 112.537 99.651 C 112.359 99.018, 111.450 95.502, 110.519 91.837 C 108.859 85.308, 108.788 85.212, 106.938 87.062 C 101.887 92.113, 94.614 89.822, 89.534 81.578 C 87.358 78.049, 86.500 75.409, 86.500 72.248 C 86.500 65.239, 90.969 63.314, 99.915 66.470 C 102.206 67.278, 103.893 67.616, 103.663 67.220 C 103.433 66.824, 102.502 63.913, 101.595 60.750 L 99.944 55 93.222 55.033 C 89.525 55.051, 84.244 55.845, 81.487 56.799 M 104 58.261 C 104 61.416, 107.672 70.289, 109.349 71.187 C 111.162 72.157, 111.252 71.931, 110.767 67.629 C 110.377 64.164, 109.482 62.318, 107.125 60.117 C 105.406 58.511, 104 57.676, 104 58.261 M 113.458 68.342 C 113.546 73.743, 113.633 73.898, 119.583 79.207 C 129.027 87.634, 132.025 89.554, 133.140 87.892 C 136.338 83.123, 139.897 71.926, 139.983 66.368 C 139.994 65.659, 136.733 64.996, 131.250 64.592 C 126.438 64.238, 120.445 63.704, 117.934 63.405 L 113.369 62.863 113.458 68.342 M 89.359 69.508 C 87.712 73.799, 93.445 85.054, 98.017 86.505 C 101.120 87.490, 104.542 86.348, 106.234 83.762 C 107.517 81.801, 107.529 80.869, 106.328 76.756 C 105.183 72.834, 104.261 71.664, 101.011 70.006 C 96.295 67.600, 90.191 67.339, 89.359 69.508 M 111.445 79.174 C 110.681 81.580, 114.933 100, 116.252 100 C 117.918 100, 126.562 95.148, 128.276 93.250 C 130.004 91.339, 129.906 91.171, 124.776 87.211 C 121.874 84.971, 118.178 81.757, 116.563 80.069 C 113.073 76.423, 112.358 76.298, 111.445 79.174 M 130.480 95.022 C 129.471 96.137, 125.780 98.460, 122.277 100.184 C 117.879 102.350, 116.077 103.759, 116.454 104.742 C 116.754 105.524, 117 106.645, 117 107.234 C 117 108.511, 136.462 107.603, 147.238 105.824 L 154.220 104.671 147.860 101.583 C 144.362 99.884, 139.433 97.257, 136.907 95.745 L 132.315 92.995 130.480 95.022 M 152.607 110.115 C 150.036 112.377, 147.278 115.496, 146.477 117.044 L 145.022 119.859 150.761 120.458 C 153.917 120.788, 157.924 121.235, 159.665 121.452 C 162.203 121.769, 164.246 120.850, 169.973 116.814 C 173.901 114.047, 176.977 111.644, 176.808 111.476 C 176.497 111.167, 158.463 106, 157.695 106 C 157.468 106, 155.178 107.852, 152.607 110.115 M 33.209 108.934 C 26.045 110.741, 23.806 116.533, 28.469 121.196 C 33.565 126.292, 46.007 127.460, 59.062 124.067 C 67.876 121.775, 85.519 120.008, 99.625 120.003 C 105.194 120.002, 111.194 119.711, 112.960 119.358 C 116.031 118.744, 116.140 118.560, 115.495 115.108 C 115.125 113.124, 114.712 111.388, 114.579 111.251 C 114.445 111.114, 103.123 111.505, 89.418 112.120 C 59.270 113.471, 62.892 113.575, 54.667 111.120 C 46.510 108.685, 37.737 107.792, 33.209 108.934 M 143.928 109.009 C 141.413 109.435, 134.551 110.111, 128.678 110.511 L 118 111.239 118 114.038 C 118 119.888, 118.235 120, 130.581 120 L 141.949 120 143.438 117.120 C 144.257 115.536, 146.109 112.836, 147.553 111.120 C 148.996 109.404, 149.800 108.053, 149.339 108.118 C 148.878 108.182, 146.443 108.584, 143.928 109.009 M 118.994 124.750 C 118.984 129.705, 116.981 134.870, 114.228 137.035 C 112.076 138.728, 110.607 139.058, 107.013 138.653 C 86.551 136.348, 82.693 136.175, 71.500 137.062 C 57.776 138.149, 49 140.295, 49 142.563 C 49 144.491, 55.946 147.467, 66.802 150.190 C 74.081 152.015, 75.753 152.140, 78.404 151.053 C 85.501 148.143, 94.833 146, 100.413 146 C 114.892 146, 122.275 154.604, 131.099 181.761 C 132.932 187.405, 134.898 191.871, 135.466 191.686 C 137.333 191.078, 143.924 180.818, 145.983 175.316 C 149.058 167.097, 148.663 158.741, 144.500 144 C 142.575 137.183, 141 129.731, 141 127.442 L 141 123.279 135.750 122.648 C 132.863 122.301, 127.912 122.013, 124.750 122.009 C 119.143 122, 119 122.068, 118.994 124.750" stroke="none" fill="black" fill-rule="evenodd"/>
</svg>